<svg width="2500" height="960" fill="none" xmlns="http://www.w3.org/2000/svg"><g clip-path="url(#clip0)"><path fill-rule="evenodd" clip-rule="evenodd" d="M853.802 766.962l-.884-1.315a43.984 43.984 0 00-7.544-7.814 6.327 6.327 0 00-2.425-1.239v2.975l2.037.118a3.107 3.107 0 012.855 3.181 3.103 3.103 0 01-3.028 3.017 3.118 3.118 0 01-3.104-3.094v-.452h-1.379v-2.716l-5.088-.054v-4.225h-.97a19.994 19.994 0 00-3.362 1.552 43.177 43.177 0 00-5.788 3.858c-1.207.96-7.717 7.545-8.256 7.879-.539.334-1.078 1.164-.593 1.326.485.161 1.401.754 1.347 2.737-.053 1.983-2.64 3.234-4.709 3.093-2.07-.14-2.533-1.746-2.479-3.632a2.314 2.314 0 012.155-2.36c.593 0 .647-.647 1.078-1.218.431-.571 3.955-4.731 5.141-6.003a64.75 64.75 0 017.48-6.219c1.379-.798 1.132-1.013 0-.959a34.696 34.696 0 00-4.926 1.077c-1.94.485-6.757 3.697-7.695 4.236-.938.539-1.132 1.078-.916 1.822.215.743.862.431 1.078.539a42.152 42.152 0 010 4.44.924.924 0 01-.277.788.914.914 0 01-.801.236c-.701 0-1.186 0-1.401-.485-.216-.485-.216-.808-.593-.808s-.808.107-.916.431a.753.753 0 01-.884.592c-.571 0-1.347 0-1.401-.215-.054-.216-.162-4.979.162-4.979.323 0 .754-.216.754-.485 0-.27-.647-.108-.916-.108-.27 0 .162-.313 4.311-3.665 4.311-3.513 12.707-6.596 17.644-7.005a29.08 29.08 0 015.69 0l-.075-16.35 1.455.053-.097-10.239-3.234-.409v-2.005s-17.708-.776-20.262-1.616c-2.554-.841-5.389-7.351-7.027-11.587-1.638-4.235-7.663-21.987-7.663-21.987s-3.999.054-4.969 0c-2.285 0-2.296-2.899 0-2.92h4.311l-.614-2.156c-.237-.776-2.878-14.82-3.029-16.641-.151-1.822.927-.55 3.999 0 4.673.471 9.369.672 14.065.603l38.725 87.905a3.785 3.785 0 00.367 3.481c.98 1.153 1.821 2.156 2.554 3.137a79.55 79.55 0 013.072 4.311l-2.975 1.573z" fill="#B8B6B8"/><path fill-rule="evenodd" clip-rule="evenodd" d="M831.397 696.843l11.661 4.031c16.339 4.72 16.9 8.622 17.245 11.284.345 2.662-.14 36.516.065 38.025.355 2.705.334 2.673-1.854 2.823-.992.065-1.229.388-.787 2.264.442 1.875 4.731 13.936 6.025 16.102a28.008 28.008 0 003.858 4.699l.862.927s3.234 3.761 3.848 4.397c.615.636 0 1.94-1.013 2.156a54.92 54.92 0 01-9.484-.151c-1.229-.345-3.837-1.563-4.312-2.942-.474-1.38-1.261-2.285-1.53-2.975-.27-.69-.755.647-.485 1.336.269.69-1.078.841-1.283.669-.204-.173-.409-4.947-.679-5.648-.269-.701-1.659-3.514-1.875-4.236-.216-.722.636-4.397.528-5.949-.108-1.552-1.951-7.146-2.091-7.814-.14-.668 0-1.164-.668-1.283-.668-.118-2.651-6.1-2.91-7.544-.259-1.444-.474-2.404-.938-2.738-.463-.334-5.033-2.683-5.723-3.233-.69-.55-11.123-13.16-11.123-13.16l2.663-31.04z" fill="#B8B6B8"/><path fill-rule="evenodd" clip-rule="evenodd" d="M811.434 696.932l28.927-2.306c0 3.88 7.373 45.353 7.211 48.037-.162 2.684-.787 6.273-.852 7.803-.118 2.727-.129 2.684-2.317 2.447-.981-.097-1.272.172-1.164 2.155.108 1.984 2.242 14.551 3.137 16.9a28.45 28.45 0 003.06 5.292l.69 1.078s2.49 4.311 3.029 5.012c.539.7-.291 1.918-1.38 1.929a56.058 56.058 0 01-9.312-1.789c-1.153-.55-3.503-2.21-3.783-3.665-.28-1.455-.841-2.457-.981-3.233-.14-.776-.862.496-.722 1.229.14.732-1.185.646-1.379.441-.194-.204.452-4.957.312-5.679-.14-.723-.927-3.697-1.078-4.43-.15-.733 1.402-4.214 1.563-5.766.162-1.552-.679-7.372-.7-8.051-.022-.679.151-1.164-.442-1.38-.593-.216-1.542-6.467-1.542-7.965 0-1.498-.053-2.446-.441-2.856-.388-.41-3.288-11.565-3.87-12.179-.582-.614-16.878-15.143-16.878-15.143l-1.088-17.881z" fill="#B8B6B8"/><path fill-rule="evenodd" clip-rule="evenodd" d="M829.854 752.179c.237 0 .452-.065.732-.13a34.06 34.06 0 017.178-.808c1.811.162 3.439.162 3.439.162V736.54h1.627l.14-11.759h2.684l-.129 12.071h.959s-.076 12.934-.076 13.893c0 .959.151.981.151.981l1.973.237a86.156 86.156 0 0111.672 2.404c6.09 1.659 12.502 6.359 13.537 7.027.873.571 1.229 1.196.916 1.196-.312 0-1.078.151-.205.561a4.735 4.735 0 012.091 2.425c.378.959 0 3.05-.883 3.546a3.58 3.58 0 01-1.725.28 1.079 1.079 0 01-.765-.679c0-.216-.119-.421-.28-.421-.162 0-.281.205-.356.464-.075.259-.302.474-.399.474h-.83a2.158 2.158 0 01-2.026-1.293c-.28-.884-.399-2.889.28-3.686.916-1.078.819-1.93.14-2.436a74.097 74.097 0 00-7.382-3.945 44.562 44.562 0 00-11.544-3.233c-1.627-.173-1.174.506-1.174.506s.56.561 3.233 2.932 4.44 6.909 4.947 8.029c.28.626.453 1.348.614 1.682.162.334.528.636 1.423.916a3.318 3.318 0 011.962 2.802c.118 1.347-1.003 3.546-3.945 3.6a3.706 3.706 0 01-3.859-3.6 3.25 3.25 0 01.251-1.518c.205-.478.522-.9.924-1.23.507-.28.615-.162.453-.722a49.813 49.813 0 00-2.544-4.958 22.612 22.612 0 00-4.785-5.917 1.8 1.8 0 00-1.078-.453s-.108 1.929.226 2.037a2.588 2.588 0 01.949 2.296 3.364 3.364 0 01-3.578 3.104 3.136 3.136 0 01-3.234-2.867c0-.927 1.229-2.156 1.229-2.156v-.463h-1.606s0-2.986-.065-3.395c-.064-.41.151-.636-.118-.604a16.705 16.705 0 00-7.081 2.759c-1.391.884-1.574 1.747-1.574 1.747l-.366 4.515s-.841.216-1.94.453l-.183-11.963z" fill="#B8B6B8"/><path d="M830.879 768.044a2.91 2.91 0 100-5.82 2.91 2.91 0 000 5.82z" fill="#800D00"/><path d="M830.879 768.044a2.91 2.91 0 100-5.82 2.91 2.91 0 000 5.82z" stroke="#800D00" stroke-width=".73" stroke-miterlimit="3.86"/><path fill-rule="evenodd" clip-rule="evenodd" d="M838.162 664.379c-7.631.744-2.684 0-2.684 2.22s-2.802 25.802-2.802 25.802l-36.752-.905a12.24 12.24 0 012.381-2.802c1.154-.819 2.997-2.91 4.969-4.042 1.972-1.132 2.156-3.33 3.33-4.311a7.933 7.933 0 002.081-4.053c.323-1.25.312-1.864-.539-1.228a3.95 3.95 0 00-1.434 2.382 3.95 3.95 0 01-1.67 2.489 31.067 31.067 0 00-3.234 2.156 16.565 16.565 0 01-4.785 2.382c-1.875.614-3.309.409-4.872-1.972-1.563-2.382-1.563-5.174-1.875-6.327-.313-1.153.205-3.945.205-5.917s.636-7.976.743-8.622c.108-.647 1.024-.927 1.078-1.445.326-.858.43-1.785.302-2.694a10.143 10.143 0 00-2.156-3.018c-.937-1.078-2.155-1.315-2.683-2.274a9.647 9.647 0 00-1.865-2.641 2.56 2.56 0 01-.927-1.756 5.333 5.333 0 00-.355-1.747c-.248-.463 0-1.25-.141-2.004-.14-.755 0-.884.356-.744a2.58 2.58 0 011.078 1.25 7.89 7.89 0 00.323 1.498c.164.551.369 1.088.615 1.606.312.572.603.356.776-.064.09-.57.015-1.153-.216-1.682a7.856 7.856 0 00-.496-1.53c-.323-.755-.14-.97.291-.83.305.105.559.32.712.604.064.14.204.215.452-.173.353-.506.677-1.031.97-1.573.076-.205.259 0 .464.183a1.493 1.493 0 01.323 1.131c-.108.259-.323 1.078-.431 1.326-.158.445-.217.92-.173 1.391.22.845.527 1.665.917 2.446.312.711 1.077 1.423 1.077.819a2.684 2.684 0 01.496-1.606c.481-.685.91-1.406 1.283-2.155.163-.442.42-.843.754-1.175.464-.364.88-.784 1.24-1.25.194-.356.582-.528.689 0 .051.491-.075.983-.355 1.39-.216.399-1.003 1.789-1.261 2.436-.207.499-.445.985-.712 1.455a3.227 3.227 0 00-.172 1.326 1.08 1.08 0 00.679.97c.172.064.636-.291.56-.69a5.053 5.053 0 011.014-2.156c.42-.539 1.174-1.573 1.422-2.004.248-.432.431-.572.571-.141a1.785 1.785 0 01-.064 1.499c-.302.711-.582 1.789-.798 2.08-.202.323-.31.696-.312 1.077a2.329 2.329 0 00.56 1.822 16.07 16.07 0 012.156 3.718c.215.927-.356 2.576-.356 3.428 0 .851.172.862.571 1.433.492.892.796 1.875.895 2.889.12.888.286 1.769.496 2.64 0 0 1.53-2.069 2.155-2.705a2.238 2.238 0 00.571-1.865c0-.528.82-1.174 1.251-1.465.523-.615.87-1.36 1.002-2.156.075-.496 1.25-1.466 1.681-2.037.36-.405.563-.925.572-1.466.064-.711.883-.819 1.077-1.573.194-.755.712-2.156.852-2.921a3.878 3.878 0 011.078-2.156c.862-1.002 1.681-1.153 2.155-.937.474.215 2.501-.496 3.395-.636a37.085 37.085 0 004.57-.679 11.96 11.96 0 001.962-.927 8.969 8.969 0 013.071-.507c1.218 0 1.606 0 1.973-.323.366-.324 1.994-1.703 1.994-1.703a15.468 15.468 0 01-.442-3.233c.064-1.154 0-1.542-.388-2.048a1.988 1.988 0 01-.324-1.93c.228-.898.337-1.822.324-2.748 0-.776.323-1.347.646-1.218.324.13-.129-.905-.194-1.606-.064-.7 1.725-4.807 3.234-6.402 1.509-1.595 2.694-2.155 2.953-2.565.259-.409 2.49-2.63 4.031-2.888 1.541-.259 2.436-.83 3.395.129a3.527 3.527 0 002.371 1.078c.453.064 1.218.129 1.283.452.064.324.452.453.959.701.506.248 1.078 2.048 1.412 2.824a28.44 28.44 0 001.347 3.46 5.956 5.956 0 01.517 4.095 6.204 6.204 0 00-.711 3.018 3.82 3.82 0 01-.388 1.983s.582-.323.453.895c-.13 1.218-.83 1.541-.895 2.155a1.69 1.69 0 01-.895 1.66c-.84.453-.905 1.078-1.153 1.347-.248.27-1.282 0-1.412.388a8.68 8.68 0 01-1.347 3.007c-.7.647-.959 1.078-.83 1.348.13.269.701.064 1.078.258a54.118 54.118 0 015.022 2.156c1.844.991 2.986 2.155 3.837 2.392a4.206 4.206 0 012.587 1.552c.442.852-.636 2.253-.636 3.029a5.39 5.39 0 01-.108 2.619c-.441 1.002-.657 2.738-.215 2.069a21.121 21.121 0 013.136-3.233c1-.745 2.124-1.307 3.32-1.66.744-.161.927-.194.862-.636a8.45 8.45 0 010-1.509c0-.291-.28-1.153-.312-1.541a1.756 1.756 0 01.129-.991c.118-.162.28-.291.28-.442 0-.151.42-.162.485.215.065.378-.065.582.356 1.078.381.348.609.832.636 1.347 0 .647 0 1.186.517.776.517-.409 1.444-1.077 1.563-1.218.118-.14.064-.097.129-.582a4.592 4.592 0 000-1.217 7.552 7.552 0 01.097-1.887c.131-.273.319-.515.55-.711.28-.248.409-.097.474.453.021.538.13 1.07.323 1.573.195.527.336 1.072.421 1.628l.636.226c.258.097.452.194.452.194.151-.246.277-.506.377-.776.206-.706.357-1.427.453-2.155.065-.475.194-.927.453-1.078a2.94 2.94 0 00.636-.41c.323-.258.452-.226.42.216a23.543 23.543 0 00-.065 1.25c0 .248.065.744.442.356a2.58 2.58 0 011.003-.636c.345-.162.377-.194.215.312-.155.436-.26.888-.312 1.348a3.111 3.111 0 01-.518 1.508 8.8 8.8 0 00-1.153 1.984c-.162.646-.065.388-.927 1.077a20.15 20.15 0 01-2.155 1.639 3.118 3.118 0 00-1.38 1.185c-.283.428-.65.795-1.078 1.078-.323.226-3.75 4.311-3.75 4.311s-16.663-.043-24.294.69z" fill="#B8B6B8"/><path clip-rule="evenodd" d="M838.162 664.379c-7.631.744-2.684 0-2.684 2.22s-2.802 25.802-2.802 25.802l-36.752-.905a12.24 12.24 0 012.381-2.802c1.154-.819 2.997-2.91 4.969-4.042 1.972-1.132 2.156-3.33 3.33-4.311a7.933 7.933 0 002.081-4.053c.323-1.25.312-1.864-.539-1.228a3.95 3.95 0 00-1.434 2.382 3.95 3.95 0 01-1.67 2.489 31.067 31.067 0 00-3.234 2.156 16.565 16.565 0 01-4.785 2.382c-1.875.614-3.309.409-4.872-1.972-1.563-2.382-1.563-5.174-1.875-6.327-.313-1.153.205-3.945.205-5.917s.636-7.976.743-8.622c.108-.647 1.024-.927 1.078-1.445.326-.858.43-1.785.302-2.694a10.143 10.143 0 00-2.156-3.018c-.937-1.078-2.155-1.315-2.683-2.274a9.647 9.647 0 00-1.865-2.641 2.56 2.56 0 01-.927-1.756 5.333 5.333 0 00-.355-1.747c-.248-.463 0-1.25-.141-2.004-.14-.755 0-.884.356-.744a2.58 2.58 0 011.078 1.25 7.89 7.89 0 00.323 1.498c.164.551.369 1.088.615 1.606.312.572.603.356.776-.064.09-.57.015-1.153-.216-1.682a7.856 7.856 0 00-.496-1.53c-.323-.755-.14-.97.291-.83.305.105.559.32.712.604.064.14.204.215.452-.173.353-.506.677-1.031.97-1.573.076-.205.259 0 .464.183a1.493 1.493 0 01.323 1.131c-.108.259-.323 1.078-.431 1.326-.158.445-.217.92-.173 1.391.22.845.527 1.665.917 2.446.312.711 1.077 1.423 1.077.819a2.684 2.684 0 01.496-1.606c.481-.685.91-1.406 1.283-2.155.163-.442.42-.843.754-1.175.464-.364.88-.784 1.24-1.25.194-.356.582-.528.689 0 .051.491-.075.983-.355 1.39-.216.399-1.003 1.789-1.261 2.436-.207.499-.445.985-.712 1.455a3.227 3.227 0 00-.172 1.326 1.08 1.08 0 00.679.97c.172.064.636-.291.56-.69a5.053 5.053 0 011.014-2.156c.42-.539 1.174-1.573 1.422-2.004.248-.432.431-.572.571-.141a1.785 1.785 0 01-.064 1.499c-.302.711-.582 1.789-.798 2.08-.202.323-.31.696-.312 1.077a2.329 2.329 0 00.56 1.822 16.07 16.07 0 012.156 3.718c.215.927-.356 2.576-.356 3.428 0 .851.172.862.571 1.433.492.892.796 1.875.895 2.889.12.888.286 1.769.496 2.64 0 0 1.53-2.069 2.155-2.705a2.238 2.238 0 00.571-1.865c0-.528.82-1.174 1.251-1.465.523-.615.87-1.36 1.002-2.156.075-.496 1.25-1.466 1.681-2.037.36-.405.563-.925.572-1.466.064-.711.883-.819 1.077-1.573.194-.755.712-2.156.852-2.921a3.878 3.878 0 011.078-2.156c.862-1.002 1.681-1.153 2.155-.937.474.215 2.501-.496 3.395-.636a37.085 37.085 0 004.57-.679 11.96 11.96 0 001.962-.927 8.969 8.969 0 013.071-.507c1.218 0 1.606 0 1.973-.323.366-.324 1.994-1.703 1.994-1.703a15.468 15.468 0 01-.442-3.233c.064-1.154 0-1.542-.388-2.048a1.988 1.988 0 01-.324-1.93c.228-.898.337-1.822.324-2.748 0-.776.323-1.347.646-1.218.324.13-.129-.905-.194-1.606-.064-.7 1.725-4.807 3.234-6.402 1.509-1.595 2.694-2.155 2.953-2.565.259-.409 2.49-2.63 4.031-2.888 1.541-.259 2.436-.83 3.395.129a3.527 3.527 0 002.371 1.078c.453.064 1.218.129 1.283.452.064.324.452.453.959.701.506.248 1.078 2.048 1.412 2.824a28.44 28.44 0 001.347 3.46 5.956 5.956 0 01.517 4.095 6.204 6.204 0 00-.711 3.018 3.82 3.82 0 01-.388 1.983s.582-.323.453.895c-.13 1.218-.83 1.541-.895 2.155a1.69 1.69 0 01-.895 1.66c-.84.453-.905 1.078-1.153 1.347-.248.27-1.282 0-1.412.388a8.68 8.68 0 01-1.347 3.007c-.7.647-.959 1.078-.83 1.348.13.269.701.064 1.078.258a54.118 54.118 0 015.022 2.156c1.844.991 2.986 2.155 3.837 2.392a4.206 4.206 0 012.587 1.552c.442.852-.636 2.253-.636 3.029a5.39 5.39 0 01-.108 2.619c-.441 1.002-.657 2.738-.215 2.069a21.121 21.121 0 013.136-3.233c1-.745 2.124-1.307 3.32-1.66.744-.161.927-.194.862-.636a8.45 8.45 0 010-1.509c0-.291-.28-1.153-.312-1.541a1.756 1.756 0 01.129-.991c.118-.162.28-.291.28-.442 0-.151.42-.162.485.215.065.378-.065.582.356 1.078.381.348.609.832.636 1.347 0 .647 0 1.186.517.776.517-.409 1.444-1.077 1.563-1.218.118-.14.064-.097.129-.582a4.592 4.592 0 000-1.217 7.552 7.552 0 01.097-1.887c.131-.273.319-.515.55-.711.28-.248.409-.097.474.453.021.538.13 1.07.323 1.573.195.527.336 1.072.421 1.628l.636.226c.258.097.452.194.452.194.151-.246.277-.506.377-.776.206-.706.357-1.427.453-2.155.065-.475.194-.927.453-1.078a2.94 2.94 0 00.636-.41c.323-.258.452-.226.42.216a23.543 23.543 0 00-.065 1.25c0 .248.065.744.442.356a2.58 2.58 0 011.003-.636c.345-.162.377-.194.215.312-.155.436-.26.888-.312 1.348a3.111 3.111 0 01-.518 1.508 8.8 8.8 0 00-1.153 1.984c-.162.646-.065.388-.927 1.077a20.15 20.15 0 01-2.155 1.639 3.118 3.118 0 00-1.38 1.185c-.283.428-.65.795-1.078 1.078-.323.226-3.75 4.311-3.75 4.311s-16.663-.043-24.294.69z" stroke="#B8B6B8" stroke-width=".07" stroke-miterlimit="3.86"/><path fill-rule="evenodd" clip-rule="evenodd" d="M827.495 693.084c-.614 3.438-1.078 5.885-1.078 6.025-.151.894-1.078.97-2.285.625s-15.983-3.912-16.673-4.106a1.352 1.352 0 00-.539-.065l20.575-2.479z" fill="#898E99"/><path fill-rule="evenodd" clip-rule="evenodd" d="M831.299 645.056c-.097-.291-.787-1.336-.992-1.778-.205-.442-.302-.205-.894.442-.593.646-1.984 1.638-1.984 2.026 0 .388-.388.55-.98 1.239-.593.69-2.156 5.454-2.77 6.693a17.725 17.725 0 01-1.197 2.425c-.442.485-.743.884.097 1.078 1.487.264 2.996.376 4.506.334a11.248 11.248 0 002.425-.733c.84-.344 1.185-.204 1.239.388.054.593.636 1.078.841 1.488.204.409.539 4.904.539 4.904l7.426-.787 2.823-2.382c.895-.744 1.585-1.239 1.542-1.875-.044-.636.344-1.078.592-.453s.345 1.477 1.531 1.638c1.185.162 3.524.151 4.117.151s.938-.205.194-1.078c-.744-.873-4.958-10.497-5.389-11.187-.431-.69-.647-1.38-.895-.884a16.192 16.192 0 00-.689 1.822c-.151.495-1.736 2.823-2.77 4.957-1.035 2.134-4.02 6.284-4.613 7.373a6.125 6.125 0 01-1.779 2.08c-.301.151-.538-1.628-.991-2.619-.453-.992-.485-3.428-.636-5.163-.151-1.735-.647-5.594-.701-6.93a15.799 15.799 0 00-.592-3.169zm-38.854 15.51c0 .431-.636 4.149.668 4.235.475 0 1.369.798 2.059 1.261.69.464 1.39-.463 2.64-.808 1.251-.345.733-.474 1.078-.905a4.4 4.4 0 00.539-2.156c-.065-.431-.302-1.078-.366-1.401-.065-.323 0-.539.237.162a10.59 10.59 0 01.302 5.734 4.384 4.384 0 01-2.156 2.317 3.906 3.906 0 01-2.759.603c-.798-.204-1.703-1.541-2.102-1.681-.399-.14-.808-.798-.948-2.156a13.561 13.561 0 01.14-4.311c.302-.603.506-.69.603-.959.097-.269.087-.366.065.065z" fill="#fff"/><path d="M757.199 699.873a2.16 2.16 0 011.383-2.014c.27-.104.559-.152.848-.142h.388a2.15 2.15 0 012.06 1.313c.113.267.171.553.171.843v93.617a2.155 2.155 0 01-2.231 2.155h-.388a2.154 2.154 0 01-2.231-2.155v-93.617zm8.969.087a2.232 2.232 0 012.231-2.231h.388a2.221 2.221 0 011.592.645 2.24 2.24 0 01.661 1.586v96.72a2.229 2.229 0 01-2.231 2.232h-.388a2.233 2.233 0 01-2.231-2.232v-96.72h-.022z" fill="#B8B6B8"/><path fill-rule="evenodd" clip-rule="evenodd" d="M760.671 783.445l7.415 2.328v-5.422l-7.631-2.328.216 5.422z" fill="#B8B6B8"/><path d="M906.141 702.052l.054 73.289a2.057 2.057 0 002.09 2.016h.356a2.06 2.06 0 002.091-2.016v-73.289h-4.591zm8.449-1.523a2.09 2.09 0 012.091-2.091h.355a2.092 2.092 0 012.091 2.091v90.535a2.09 2.09 0 01-2.091 2.091h-.355a2.092 2.092 0 01-2.091-2.091v-90.535z" fill="#B8B6B8"/><path fill-rule="evenodd" clip-rule="evenodd" d="M909.445 712.063l6.93 7.135v-5.077l-7.135-7.135.205 5.077z" fill="#B8B6B8"/><path d="M784.241 713.615c0-2.08 3.234-3.761 7.308-3.761h37.884c4.031 0 7.297 1.681 7.297 3.761V792.1c0 2.08-3.234 3.761-7.297 3.761h-37.917c-4.031 0-7.307-1.681-7.307-3.761v-78.485h.032zm166.219-18.851H765.5v4.429h184.96v-4.429z" fill="#B8B6B8"/><path d="M950.46 694.764H765.5v4.429h184.96v-4.429z" stroke="#B8B6B8" stroke-width=".22" stroke-miterlimit="3.86"/><path fill-rule="evenodd" clip-rule="evenodd" d="M765.5 694.767h184.873v-4.128H751.672l13.828 4.128z" fill="#B8B6B8"/><path clip-rule="evenodd" d="M765.5 694.767h184.873v-4.128H751.672l13.828 4.128z" stroke="#B8B6B8" stroke-width=".22" stroke-miterlimit="3.86"/><path fill-rule="evenodd" clip-rule="evenodd" d="M753.393 698.815l13.785 4.117v-7.609l-13.785-4.117v7.609z" fill="#B8B6B8"/><path clip-rule="evenodd" d="M753.393 698.815l13.785 4.117v-7.609l-13.785-4.117v7.609z" stroke="#B8B6B8" stroke-width=".22" stroke-miterlimit="3.86"/><path fill-rule="evenodd" clip-rule="evenodd" d="M805.85 691.123c-.075 1.014-.107 1.552-.172 2.372a1.085 1.085 0 00.513 1.098c.124.073.261.121.403.141.453.075 16.587 5.26 17.396 5.583 1.447.309 2.935.389 4.408.237 1.142-.129 36.645-2.425 37.324-2.447.679-.021.862-.431.905-1.077l.129-1.833s-.808-.28-.787-.603c.022-.323.96-.744.96-.744s7.544-28.712 7.609-29.165c.065-.452.453-1.078-.129-1.509a3.762 3.762 0 00-2.555-.592c-1.078.064-31.999.646-34.985.635-3.233 0-3.751.238-4.236 2.716-.485 2.479-7.124 28.842-7.232 29.306-.215.873-1.142.883-2.328.463-1.185-.42-15.66-5.012-16.339-5.249-.679-.237-.83-.097-.884.668zm133.623-41.518c.324 1.961.162 2.942 1.466 3.761s2.285 1.412 2.285 2.716c0 1.304-.162 1.477-.981 2.156s-1.304 2.554-1.951 3.535c-.646.981-3.869 7.135-4.688 8.277a9.85 9.85 0 00-1.304 2.555c-.323.819-.216 1.25-1.143 0-.926-1.251-.646-2.716.496-4.312a10.03 10.03 0 002.156-5.981c-.266-2.205.073-4.44.981-6.467a8.557 8.557 0 001.412-3.869c.291-2.005.97-4.333 1.271-2.371zm-21.631 91.31a105.075 105.075 0 002.091 14.108c1.153 4.311 3.33 14.335 3.33 18.603 0 4.268.324 7.049-1.39 10.853-1.714 3.805-1.714 5.109-2.641 6.359a5.704 5.704 0 01-4.311 2.641h-3.018a4.233 4.233 0 000-3.104c-.646-1.369-1.832-3.525-1.832-3.525a27.163 27.163 0 01-.323-4.311c.086-1.627 1.013-3.718 2.155-7.059 1.143-3.341 4.312-9.226 4.732-15.089.271-5.855.206-11.721-.194-17.568-.151-2.231-.302-2.684.097-2.738.399-.054 1.239-.216 1.304.83zm6.661-148.239a14.61 14.61 0 00-7.124 2.716c-1.078.808.118 1.39.582 1.498.463.108 0 1.078-.69 1.854s-.701 2.155-1.078 2.77a3.232 3.232 0 00.119 2.306c.226.582-.119 1.164-.582 2.156-.464.991-1.154.927-1.617 1.498-.464.571-.808 1.39-.119 1.961.473.4.978.761 1.509 1.078 0 0 0 2.652.119 3.234.118.582-.119.808-.356 1.498a1.879 1.879 0 001.164 1.972 18.991 18.991 0 013.234 1.962c2.155 1.379 2.317 2.91 2.543 4.731.226 1.822-.916 1.962-2.328 2.274a2.245 2.245 0 00-1.8 2.231c0 1.078-.226 1.822-.226 2.727 0 .905-.517-.442-2.501 1.843a33.783 33.783 0 00-4.817 8.784c-.356 1.39-.96 5.066-1.746 6.467-.787 1.401-1.326.42-1.445-.302a19.281 19.281 0 01-.657-3.373c-.183-1.984-1.326-5.174-1.326-5.896 0-.722-.42-.657-.668-.55-.248.108-.237-.409-.302-1.315a27.157 27.157 0 00-1.142-4.634c-.474-1.509-1.682-.604-3.309-1.326-1.239-.549-1.627-1.692-3.072-2.597-1.444-.906-.905.97-.054 1.692.852.722.421 1.207-.183 1.078a2.918 2.918 0 01-1.81-1.143 2.634 2.634 0 01-.658-1.983c-.065-.787-.119-2.77-.248-5.184s-1.078-.722-1.024.065c.054.786-.474.959-.474-.119 0-1.078-1.175-.668-1.078.442.097 1.11 0 1.369.14 2.156.14.786-.42.409-1.379-.69-.959-1.1-1.24.409-.55 1.239a4.553 4.553 0 011.24 2.22 16.887 16.887 0 001.347 3.234c.657 1.444 1.412 3.018 2.101 3.018a5.28 5.28 0 012.62.485 7.621 7.621 0 013.319 2.338 7.794 7.794 0 01.42 3.18 6.46 6.46 0 01-2.22 1.929c-1.261.55-.269 1.8.421 3.837.689 2.037 2.263 6.79 2.489 8.148.227 1.358-.452 4.98.668 7.696 1.121 2.716 2.954 4.526 4.085 4.074 1.132-.453 1.811-.453 1.585.452a47.873 47.873 0 01-2.037 6.338c-.906 2.048-.679 3.168.226 3.395a4.404 4.404 0 011.811 1.358c.059 1.588.214 3.172.463 4.742a18.606 18.606 0 01-.237 7.943c-.679 2.49-.679 9.7-1.078 15.38-.399 5.68.227 10.196-2.037 16.534-2.263 6.337-2.048 11.317-1.369 14.259a64.656 64.656 0 011.369 8.827c.226 2.716-.453 9.7-.453 13.817 0 4.117.227 14.012-.237 17.245a33.856 33.856 0 01-2.942 9.021c-.754 1.315-1.832 7.728-2.285 9.323-.453 1.595-3.977 6.273-5.389 7.264-1.412.992-1.466 3.751-.528 3.751s7.027.463 8.245.388c1.218-.076 4.667-2.371 5.281-3.233a9.707 9.707 0 001.078-2.458l.151 1.929 1.681-.172s-.161-3.395-.161-4.538c0-1.142 1.573-.334 2.554.162.981.496 5.001.485 7.297.485 2.295 0 2.716-.819 4.181-1.897 1.466-1.078 4.031-2.78 6.974-4.904 2.942-2.123 3.039 0 3.233 1.639a26.092 26.092 0 01-.162 4.311h2.156s0-1.563.162-4.02c.161-2.458.334-2.285 1.315-5.336.98-3.05-1.477-5.496-1.962-6.315a12.478 12.478 0 01-2.156-3.234c-.657-1.735-1.077-6.639-.592-16.328.485-9.69-2.156-19.756-2.458-21.222a525.331 525.331 0 00-.819-3.869l1.477-1.304s-.334-1.736-.819-4.84c-.485-3.104-.496-14.367-.496-16.651 0-2.285 0-3.234 1.8-5.012 1.8-1.779 4.882-7.609 5.658-11.64a25.272 25.272 0 00-1.304-13.451 24.335 24.335 0 00-1.433-2.867s1.304-1.8 1.799-2.619c.496-.819.809-.916 1.466-.323.658.592 2.878 1.304 3.859 1.961.981.658 1.8-.819 2.457-1.8.658-.981 9.905-16.695 10.703-17.622a10.638 10.638 0 001.864-3.125c.464-1.143-1.509-6.23-2.554-9.129-1.046-2.899-3.794-5.389-3.794-6.467 0-1.078-1.175-2.414-2.554-4.16-1.38-1.746-1.843-1.843-2.878-5.885-1.035-4.042-5.658-8.622-6.715-9.236-1.056-.615-1.843-.572-1.843-1.143 0-.571-.107-1.401-.107-2.091 0-.69-1.391-.463-2.156-.463-.765 0-1.175.463-1.175-.227a2.005 2.005 0 01.711-1.735c.475-.226 1.154-.108 1.38-1.078.226-.97.808-1.401 2.156-1.401 1.347 0 1.692-.808 2.77-2.436 1.077-1.627 1.153-5.313 1.153-6.466 0-1.154-.464-1.38-.227-1.973.238-.592.453-1.153.108-1.153-.345 0-.571-.916-.916-1.843a4.492 4.492 0 01-.118-3.233c.463-.916-.917-1.261-2.156-1.261s-1.606-.69-2.759-1.843c-1.153-1.154-6.941-1.854-9.754-1.8z" fill="#B8B6B8"/><path clip-rule="evenodd" d="M939.473 649.605c.324 1.961.162 2.942 1.466 3.761s2.285 1.412 2.285 2.716c0 1.304-.162 1.477-.981 2.156s-1.304 2.554-1.951 3.535c-.646.981-3.869 7.135-4.688 8.277a9.85 9.85 0 00-1.304 2.555c-.323.819-.216 1.25-1.143 0-.926-1.251-.646-2.716.496-4.312a10.03 10.03 0 002.156-5.981c-.266-2.205.073-4.44.981-6.467a8.557 8.557 0 001.412-3.869c.291-2.005.97-4.333 1.271-2.371zm-21.631 91.31a105.075 105.075 0 002.091 14.108c1.153 4.311 3.33 14.335 3.33 18.603 0 4.268.324 7.049-1.39 10.853-1.714 3.805-1.714 5.109-2.641 6.359a5.704 5.704 0 01-4.311 2.641h-3.018a4.233 4.233 0 000-3.104c-.646-1.369-1.832-3.525-1.832-3.525a27.163 27.163 0 01-.323-4.311c.086-1.627 1.013-3.718 2.155-7.059 1.143-3.341 4.312-9.226 4.732-15.089.271-5.855.206-11.721-.194-17.568-.151-2.231-.302-2.684.097-2.738.399-.054 1.239-.216 1.304.83zm6.661-148.239a14.61 14.61 0 00-7.124 2.716c-1.078.808.118 1.39.582 1.498.463.108 0 1.078-.69 1.854s-.701 2.155-1.078 2.77a3.232 3.232 0 00.119 2.306c.226.582-.119 1.164-.582 2.156-.464.991-1.154.927-1.617 1.498-.464.571-.808 1.39-.119 1.961.473.4.978.761 1.509 1.078 0 0 0 2.652.119 3.234.118.582-.119.808-.356 1.498a1.879 1.879 0 001.164 1.972 18.991 18.991 0 013.234 1.962c2.155 1.379 2.317 2.91 2.543 4.731.226 1.822-.916 1.962-2.328 2.274a2.245 2.245 0 00-1.8 2.231c0 1.078-.226 1.822-.226 2.727 0 .905-.517-.442-2.501 1.843a33.783 33.783 0 00-4.817 8.784c-.356 1.39-.96 5.066-1.746 6.467-.787 1.401-1.326.42-1.445-.302a19.281 19.281 0 01-.657-3.373c-.183-1.984-1.326-5.174-1.326-5.896 0-.722-.42-.657-.668-.55-.248.108-.237-.409-.302-1.315a27.157 27.157 0 00-1.142-4.634c-.474-1.509-1.682-.604-3.309-1.326-1.239-.549-1.627-1.692-3.072-2.597-1.444-.906-.905.97-.054 1.692.852.722.421 1.207-.183 1.078a2.918 2.918 0 01-1.81-1.143 2.634 2.634 0 01-.658-1.983c-.065-.787-.119-2.77-.248-5.184s-1.078-.722-1.024.065c.054.786-.474.959-.474-.119 0-1.078-1.175-.668-1.078.442.097 1.11 0 1.369.14 2.156.14.786-.42.409-1.379-.69-.959-1.1-1.24.409-.55 1.239a4.553 4.553 0 011.24 2.22 16.887 16.887 0 001.347 3.234c.657 1.444 1.412 3.018 2.101 3.018a5.28 5.28 0 012.62.485 7.621 7.621 0 013.319 2.338 7.794 7.794 0 01.42 3.18 6.46 6.46 0 01-2.22 1.929c-1.261.55-.269 1.8.421 3.837.689 2.037 2.263 6.79 2.489 8.148.227 1.358-.452 4.98.668 7.696 1.121 2.716 2.954 4.526 4.085 4.074 1.132-.453 1.811-.453 1.585.452a47.873 47.873 0 01-2.037 6.338c-.906 2.048-.679 3.168.226 3.395a4.404 4.404 0 011.811 1.358c.059 1.588.214 3.172.463 4.742a18.606 18.606 0 01-.237 7.943c-.679 2.49-.679 9.7-1.078 15.38-.399 5.68.227 10.196-2.037 16.534-2.263 6.337-2.048 11.317-1.369 14.259a64.656 64.656 0 011.369 8.827c.226 2.716-.453 9.7-.453 13.817 0 4.117.227 14.012-.237 17.245a33.856 33.856 0 01-2.942 9.021c-.754 1.315-1.832 7.728-2.285 9.323-.453 1.595-3.977 6.273-5.389 7.264-1.412.992-1.466 3.751-.528 3.751s7.027.463 8.245.388c1.218-.076 4.667-2.371 5.281-3.233a9.707 9.707 0 001.078-2.458l.151 1.929 1.681-.172s-.161-3.395-.161-4.538c0-1.142 1.573-.334 2.554.162.981.496 5.001.485 7.297.485 2.295 0 2.716-.819 4.181-1.897 1.466-1.078 4.031-2.78 6.974-4.904 2.942-2.123 3.039 0 3.233 1.639a26.092 26.092 0 01-.162 4.311h2.156s0-1.563.162-4.02c.161-2.458.334-2.285 1.315-5.336.98-3.05-1.477-5.496-1.962-6.315a12.478 12.478 0 01-2.156-3.234c-.657-1.735-1.077-6.639-.592-16.328.485-9.69-2.156-19.756-2.458-21.222a525.331 525.331 0 00-.819-3.869l1.477-1.304s-.334-1.736-.819-4.84c-.485-3.104-.496-14.367-.496-16.651 0-2.285 0-3.234 1.8-5.012 1.8-1.779 4.882-7.609 5.658-11.64a25.272 25.272 0 00-1.304-13.451 24.335 24.335 0 00-1.433-2.867s1.304-1.8 1.799-2.619c.496-.819.809-.916 1.466-.323.658.592 2.878 1.304 3.859 1.961.981.658 1.8-.819 2.457-1.8.658-.981 9.905-16.695 10.703-17.622a10.638 10.638 0 001.864-3.125c.464-1.143-1.509-6.23-2.554-9.129-1.046-2.899-3.794-5.389-3.794-6.467 0-1.078-1.175-2.414-2.554-4.16-1.38-1.746-1.843-1.843-2.878-5.885-1.035-4.042-5.658-8.622-6.715-9.236-1.056-.615-1.843-.572-1.843-1.143 0-.571-.107-1.401-.107-2.091 0-.69-1.391-.463-2.156-.463-.765 0-1.175.463-1.175-.227a2.005 2.005 0 01.711-1.735c.475-.226 1.154-.108 1.38-1.078.226-.97.808-1.401 2.156-1.401 1.347 0 1.692-.808 2.77-2.436 1.077-1.627 1.153-5.313 1.153-6.466 0-1.154-.464-1.38-.227-1.973.238-.592.453-1.153.108-1.153-.345 0-.571-.916-.916-1.843a4.492 4.492 0 01-.118-3.233c.463-.916-.917-1.261-2.156-1.261s-1.606-.69-2.759-1.843c-1.153-1.154-6.941-1.854-9.754-1.8v0z" stroke="#B8B6B8" stroke-width=".17" stroke-miterlimit="3.86"/><path fill-rule="evenodd" clip-rule="evenodd" d="M745.408 590.691a4.703 4.703 0 013.729 1.843 5.98 5.98 0 011.628 2.555c0 .388 1.369-.291 1.821 0a12.926 12.926 0 012.285 3.772c0 .625 0 1.811-.075 2.156-.076.344-.377-.259-.453.829-.075 1.089-.151 3.374-.485 3.654-.334.28-1.207 2.673-1.617 2.953-.409.281-1.185 1.078-1.509 1.251-.323.172-.582.409-.797 1.347a44.792 44.792 0 01-2.35 5.389 20.07 20.07 0 01-2.931 3.567c-.916.895-1.078 1.347-1.434 1.488-.355.14-.528.819-.528.819a13.781 13.781 0 012.08 1.886 6.9 6.9 0 001.746 1.843 40.852 40.852 0 014.549 3.427c.56.647 1.455 1.8 1.929 1.951.474.151.754 1.401.679 2.479-.076 1.078-.496 8.698-.69 11.468-.194 2.77-.183 6.068-.334 8.234-.151 2.166-.367 5.313-.938 6.596-.571 1.283-.743 2.015 0 3.039.744 1.024.528 2.576 1.078 3.104s1.811 1.822 1.477 3.137c-.334 1.315-.378 3.74.28 4.634a6.748 6.748 0 01.959 3.697c.037 1.403.225 2.798.561 4.16.291 1.003 1.864 1.078 2.026 2.21.161 1.131 1.983 4.742 2.802 6.865.637 2.021.936 4.133.884 6.252a3.63 3.63 0 01-.237 2.02 3.635 3.635 0 01-1.283 1.579c-.916.787-1.272.744-1.078 1.617.194.873-.646 21.556.119 24.39a60.053 60.053 0 011.261 9.787c0 1.347.56 5.755.463 7.199-.097 1.445-.118 15.273.076 16.167.194.895 1.907 19.778 2.026 21.491.119 1.714.377 3.234.41 4.398a5.48 5.48 0 01-.421 2.64c-.269.464.895 2.727.895 2.727s4.031 4.882 4.861 5.184c.83.302 5.227 1.348 6.66 1.692 1.434.345-.15 2.156-.226 3.234-.075 1.078-2.738.894-5.27.711-2.533-.183-6.058.065-8.871-1.336-2.813-1.401-3.901-1.488-3.933-1.003-.033.485-.421.819-2.706.539-2.285-.28-6.359-.927-6.359-.927v-3.761a58.912 58.912 0 00-1.368-6.532c-.356-1.832-2.156-5.475-1.994-7.889.161-2.414-.281-21.965-.378-23.916a64.816 64.816 0 00-1.573-7.157c-.173-.98-5.077-28.022-5.077-28.022s-2.791 16.512-3.384 19.637c-.593 3.126-1.746 11.047-1.595 14.087.151 3.039 1.39 11.381 1.595 12.729.205 1.347 1.714 12.879 1.617 14.302-.097 1.422-1.337 8.622-1.39 9.484-.054.863-.55 2.501.582 3.794a16.611 16.611 0 003.556 2.921c.701.41.356 1.843.313 2.565-.043.722-3.147 1.358-4.818 1.078-1.671-.28-8.094-.453-9.366-1.261-1.272-.808-2.156-1.843-2.791-1.768a13.78 13.78 0 01-2.663-.064c-1.562-.108-1.605-1.466-1.444-3.633.162-2.166 1.078-6.1 1.078-8.158 0-2.059 1.272-5.853.42-7.739-.851-1.886-1.692-20.984-1.39-25.328.302-4.343.776-18.01.722-20.683-.054-2.673-1.67-24.843-1.67-25.425 0-.582-.83-.539-2.156-.625-1.326-.086-2.059.097-1.854-1.218a3.068 3.068 0 00-1.153-2.63c-.442-.517-.302-2.576-.259-3.168.043-.593-.819-.302-1.325-.097-.507.204-1.488-1.326-1.671-2.156-.183-.83-6.046-15.391-7.135-20.316-1.089-4.926-1.972-10.024-1.433-14.367.538-4.344 3.686-17.924 3.556-19.4-.129-1.477 2.35-5.659 2.49-7.61a31.1 31.1 0 011.94-7.35c.884-2.371 1.962-3.535 3.169-3.697 1.207-.162 11.855-3.557 12.933-4.678 1.078-1.12 4.311-4.893 4.311-4.893l2.749-.054s.334-1.304.463-1.886c.129-.582-1.078-.819-1.142-1.487a8.438 8.438 0 01.107-1.498 11.407 11.407 0 01-.743-2.458 6.342 6.342 0 01.528-3.955c.56-.873.83-1.186.7-1.778a5.405 5.405 0 01.184-2.566 4.776 4.776 0 00.398-2.155c0-.755 1.412-2.393 2.081-3.6.668-1.207 4.817-4.333 6.973-4.57a5.81 5.81 0 013.373.399c.399.027.799-.028 1.175-.162z" fill="#B8B6B8"/><path clip-rule="evenodd" d="M745.408 590.691a4.703 4.703 0 013.729 1.843 5.98 5.98 0 011.628 2.555c0 .388 1.369-.291 1.821 0a12.926 12.926 0 012.285 3.772c0 .625 0 1.811-.075 2.156-.076.344-.377-.259-.453.829-.075 1.089-.151 3.374-.485 3.654-.334.28-1.207 2.673-1.617 2.953-.409.281-1.185 1.078-1.509 1.251-.323.172-.582.409-.797 1.347a44.792 44.792 0 01-2.35 5.389 20.07 20.07 0 01-2.931 3.567c-.916.895-1.078 1.347-1.434 1.488-.355.14-.528.819-.528.819a13.781 13.781 0 012.08 1.886 6.9 6.9 0 001.746 1.843 40.852 40.852 0 014.549 3.427c.56.647 1.455 1.8 1.929 1.951.474.151.754 1.401.679 2.479-.076 1.078-.496 8.698-.69 11.468-.194 2.77-.183 6.068-.334 8.234-.151 2.166-.367 5.313-.938 6.596-.571 1.283-.743 2.015 0 3.039.744 1.024.528 2.576 1.078 3.104s1.811 1.822 1.477 3.137c-.334 1.315-.378 3.74.28 4.634a6.748 6.748 0 01.959 3.697c.037 1.403.225 2.798.561 4.16.291 1.003 1.864 1.078 2.026 2.21.161 1.131 1.983 4.742 2.802 6.865.637 2.021.936 4.133.884 6.252a3.63 3.63 0 01-.237 2.02 3.635 3.635 0 01-1.283 1.579c-.916.787-1.272.744-1.078 1.617.194.873-.646 21.556.119 24.39a60.053 60.053 0 011.261 9.787c0 1.347.56 5.755.463 7.199-.097 1.445-.118 15.273.076 16.167.194.895 1.907 19.778 2.026 21.491.119 1.714.377 3.234.41 4.398a5.48 5.48 0 01-.421 2.64c-.269.464.895 2.727.895 2.727s4.031 4.882 4.861 5.184c.83.302 5.227 1.348 6.66 1.692 1.434.345-.15 2.156-.226 3.234-.075 1.078-2.738.894-5.27.711-2.533-.183-6.058.065-8.871-1.336-2.813-1.401-3.901-1.488-3.933-1.003-.033.485-.421.819-2.706.539-2.285-.28-6.359-.927-6.359-.927v-3.761a58.912 58.912 0 00-1.368-6.532c-.356-1.832-2.156-5.475-1.994-7.889.161-2.414-.281-21.965-.378-23.916a64.816 64.816 0 00-1.573-7.157c-.173-.98-5.077-28.022-5.077-28.022s-2.791 16.512-3.384 19.637c-.593 3.126-1.746 11.047-1.595 14.087.151 3.039 1.39 11.381 1.595 12.729.205 1.347 1.714 12.879 1.617 14.302-.097 1.422-1.337 8.622-1.39 9.484-.054.863-.55 2.501.582 3.794a16.611 16.611 0 003.556 2.921c.701.41.356 1.843.313 2.565-.043.722-3.147 1.358-4.818 1.078-1.671-.28-8.094-.453-9.366-1.261-1.272-.808-2.156-1.843-2.791-1.768a13.78 13.78 0 01-2.663-.064c-1.562-.108-1.605-1.466-1.444-3.633.162-2.166 1.078-6.1 1.078-8.158 0-2.059 1.272-5.853.42-7.739-.851-1.886-1.692-20.984-1.39-25.328.302-4.343.776-18.01.722-20.683-.054-2.673-1.67-24.843-1.67-25.425 0-.582-.83-.539-2.156-.625-1.326-.086-2.059.097-1.854-1.218a3.068 3.068 0 00-1.153-2.63c-.442-.517-.302-2.576-.259-3.168.043-.593-.819-.302-1.325-.097-.507.204-1.488-1.326-1.671-2.156-.183-.83-6.046-15.391-7.135-20.316-1.089-4.926-1.972-10.024-1.433-14.367.538-4.344 3.686-17.924 3.556-19.4-.129-1.477 2.35-5.659 2.49-7.61a31.1 31.1 0 011.94-7.35c.884-2.371 1.962-3.535 3.169-3.697 1.207-.162 11.855-3.557 12.933-4.678 1.078-1.12 4.311-4.893 4.311-4.893l2.749-.054s.334-1.304.463-1.886c.129-.582-1.078-.819-1.142-1.487a8.438 8.438 0 01.107-1.498 11.407 11.407 0 01-.743-2.458 6.342 6.342 0 01.528-3.955c.56-.873.83-1.186.7-1.778a5.405 5.405 0 01.184-2.566 4.776 4.776 0 00.398-2.155c0-.755 1.412-2.393 2.081-3.6.668-1.207 4.817-4.333 6.973-4.57a5.81 5.81 0 013.373.399c.399.027.799-.028 1.175-.162v0z" stroke="#B8B6B8" stroke-width=".1" stroke-miterlimit="3.86"/><path fill-rule="evenodd" clip-rule="evenodd" d="M716.2 662.968c0 .776.496 7.609.41 8.892-.087 1.282-.227 8.773-.302 9.872-.076 1.099-.798.28-.819-1.218-.022-1.498-.949-2.252-.852-3.61.192-1.56.127-3.14-.194-4.678-.409-1.444.097-3.233.173-4.311.136-1.022.382-2.027.733-2.996.245-.667.529-1.318.851-1.951zm13.224-46.324c-.388.84 2.037 3.6 3.136 4.548 1.1.948 4.689 4.182 5.465 5.001a2.259 2.259 0 01.679 2.522 2.95 2.95 0 00.765 2.932c.636.334 2.49 2.974 2.63 2.446.14-.528 0-4.516 0-5.831a6.731 6.731 0 00-.873-2.748l1.498-3.136s2.554 1.724 2.77 3.287c.151 2.325.169 4.657.054 6.984-.065.981.603 3.858.733 5.033a29.434 29.434 0 01.689 13.074c-1.077 8.331-1.724 10.648-1.724 10.648s-2.447-10.778-3.417-14.129c-.97-3.352-4.958-13.818-7.286-17.536-2.328-3.719-5.927-9.883-6.466-10.897-.539-1.013-.572-1.239-.205-1.767.366-.528 1.552-.431 1.552-.431zM709.982 700.4a81.437 81.437 0 017.998-3.772c1.692-.561 1.756-.593 1.94.452.183 1.046 0 .604-.69.862-.69.259-4.02 1.078-4.98 1.402-.959.323-3.448 1.487-3.783 1.713-.334.227-.485-.657-.485-.657z" fill="#fff"/><path fill-rule="evenodd" clip-rule="evenodd" d="M831.955 860.711c.483-10.094-2.847-23.589-13.003-14.951-10.156 8.652-16.105 14.9-18.952 17.24" fill="#C7C7C7"/><path d="M578 875h1094v54H578v-54z" fill="#C7C7C7"/><g clip-path="url(#clip1)"><path fill-rule="evenodd" clip-rule="evenodd" d="M426.461 592.505c-.623 1.488-.352 1.48-1.75.263-1.399-1.218-5.356-5.155-6.667-6.031-1.31-.875-3.572-3.985-3.572-3.985-.784.589-1.655 1.742-1.655 1.742s-.344-.501-.695.04c-.344.533-1.783 2.347-2.358 2.736-.576.382-.728.573-.576.764.152.191-.407.112-1.191.382-.783.271-5.155 3.301-7.081 3.755-1.919.453-2.566.565-3.357.565-.792 0-3.134 1.01-3.701 3.572-.576 2.545-3.141 11.98-3.365 13.889-.224 1.91-.224 3.341-.456 3.906-.223.565-2.565 10.787-2.677 12.363-.112 1.575-1.047 8.265.647 10.93 1.695 2.665 3.701 5.338 3.701 5.338s1.838 1.877 2.598 2.331c.759.453-.112 13.261-.792 17.056-.679 3.794-.224 14.725-.224 16.944 0 2.22-.647 3.572 1.016 3.795 1.662.223 10.382.867 10.382.867s.16 4.033.376 5.441c.216 1.408 1.399 7.661.967 10.78-.431 3.126 0 6.785-.104 8.066-.104 1.289-.431 8.926-.535 10.334-.104 1.408-.216 79.241-.216 79.241l25.537-6.889s2.598-86.457 3.357-89.79c.752-3.341 2.278-10.875 2.598-13.142.32-2.267-.216-3.977.432-3.977.647 0 1.486-.319 2.15.214.663.533 1.095.621 1.095-1.304s.519-22.585-.384-26.857c-.895-4.272-.639-13.707-.639-13.707s12.988-2.856 15.714-3.492c2.725-.636 4.372-.994 4.803-.994.44 0 .584-.541.584-1.743 0-1.201-.072-5.735-.072-5.735s2.23-.072 3.541-.215c1.311-.143 2.374-.175 2.957-1.018.584-.844 2.11-1.925 2.182-2.578.072-.652.48-.62.767-.986.288-.366.872-1.305.872-1.305l-.288-.939s.144-.843.44-.986c.287-.143.287-1.09.215-1.376-.072-.287.072-.509.368-.867.288-.366.072-.844 0-1.711-.072-.867-.583-1.304-1.167-1.742-.583-.437-.543-.072-.871 0-.336.072-.336 0-.696-.215-.367-.215-1.27.215-2.182.581-.919.366-1.598 1.018-2.885 1.161-1.279.144-2.59.104-3.029.581-.44.477-2.518 2.291-3.174 2.944-.655.652-1.278 1.567-1.278 1.567s.511-.796-1.023-.143c-1.527.652-4.093 1.853-6.059 2.505-1.966.653-4.444 1.377-5.507 1.377-1.063 0-1.575.58-1.863 1.09-.287.509-1.35.914-2.006.914-.655 0-.871-.143-.871-.143s.144-.143-.144-3.086c-.288-2.944-1.127-12.092-2.166-15.115-1.031-3.023-1.031-3.23-1.239-6.054-.208-2.816-.767-4.2-2.422-5.227-1.654-1.026-3.868-2.203-4.276-3.643-.416-1.44-.719-2.474-.823-4.256-.024-.334-.016-.645-.064-.923 0 0-.584.652-1.199 2.14z" fill="#B8B6B8"/><path fill-rule="evenodd" clip-rule="evenodd" d="M416.63 585.52c1.047 1.05 2.629 2.53 5.091 4.622 2.462 2.1 4.212 3.58 4.468 3.23.264-.35 1.463-3.015 1.463-3.015-.176-2.951-.232-2.943 1.095-3.134 1.447-.207 3.661-.82 4.076-2.617.416-1.79 1.799-5.696 2.006-6.874.208-1.177.92-1.837.92-2.545s-.144-2.101-.144-2.379c0-.286-.36-.636.144-.923.495-.286.783-.238.783-.851s-.288-1.106-.288-1.464c0-.358.048-.565.544-.851.495-.286.423-.963.423-2.379s.352-1.018.712-2.267c.351-1.249.287-2.195-.144-3.23-.424-1.034-1.111-1.67-1.543-1.957-.423-.286-.983-.167-.983-.167-.232-.453-2.566-2.887-3.701-3.118-1.135-.231-4.068-1.161-6.41-.597-2.318.573-5.371.374-7.585 3.151-2.222 2.776-2.902 5.33-3.022 6.69-.111 1.36.344 3.46.344 3.46s-.799.74-.679 2.435c.112 1.702.463 4.391 1.039 4.733.567.342.991.095.991.374 0 .278-.12 5.6-.312 6.141-.192.533-.767 1.034-.767 1.034s1.119-1.113-.232-.533a2.211 2.211 0 00-.439.263c-.016 0 1.103 1.71 2.15 2.768z" fill="#B8B6B8"/><path d="M428.132 594.024a14.29 14.29 0 01-.408-2.744c-.072-1.114-.136-1.91-.152-2.474" stroke="#B8B6B8" stroke-width=".13" stroke-miterlimit="3.864"/><path fill-rule="evenodd" clip-rule="evenodd" d="M428.219 601.931c-.032-1.439.088-7.756-.024-8.09-.128-.374-.495-3.898-.559-4.9-.064-1.003-.128 1.105-.616 2.163-.487 1.058-1.415 2.299-1.415 2.299s-1.318-1.05-2.429-2.291c-1.111-1.249-6.003-6.085-7.37-7.151-1.367-1.058-.655-1.679-.655-1.679.144-.151.983-.334-.256.191-.855.366-2.094 1.297-2.094 1.297s.751 1.933 1.367 2.681c.615.747 2.381 3.166 3.061 4.28.671 1.105 3.812 7.963 4.939 10.445.872 1.909 3.23 13.221 4.277 18.344l1.774-17.589z" fill="#fff"/><path fill-rule="evenodd" clip-rule="evenodd" d="M415.806 567.987c.487-.135.823.525.959 1.162.144.636.687.214 1.039.708.352.493.64 1.32 1.135 1.249.496-.072.999.286.927-.422-.072-.708-.359-2.45 0-3.015.352-.565.216-1.535.896-1.671.687-.143 1.206-.708 2.557-1.559s2.11-.684 1.327-.072c-.783.613-1.399 1.56-.424.995.968-.565 2.966-1.599 4.317-2.172 1.35-.565 4.811-.636 6.21-.708 1.399-.071.927.994 1.135 1.671.216.684.496.565.568 1.129.072.565-.104 3.803-.104 3.803.096-.119.207-.231.431-.358.496-.286.424-.963.424-2.379s.352-1.018.711-2.267c.352-1.249.288-2.196-.144-3.23-.423-1.034-1.111-1.67-1.542-1.957-.424-.286-.983-.891-.983-.891-.232-.453-.376-2.768-3.701-4.2-1.063-.453-4.068-1.161-6.41-.597-2.31.573-5.364.374-7.578 3.151-2.222 2.776-2.901 7.127-3.021 8.488-.104 1.273.288 3.198.336 3.436 0 0 .383-.135.935-.294zm15.434 46.474c-.911-3.444-2.454-11.686-2.454-11.686-.208-.732-.503 1.106-.535.788-.032-.311-1.367-1.035-1.471-2.045-.104-1.01.967-6.746-.663-5.887-.544.287-.648.478-1.111.844l-.248 1.264c.328 1.146.495 3.023.599 3.326.136.413.44 5.68.512 6.443.072.764.344 14.089.519 14.471.176.382 1.703-6.006 1.703-5.688 0 .103.2.597.535 1.249l2.614-3.079z" fill="#B8B6B8"/><path fill-rule="evenodd" clip-rule="evenodd" d="M452.646 640.689c1.758-.39 3.237-.724 3.964-.891 2.726-.636 4.372-.994 4.804-.994.439 0 .583-.541.583-1.742 0-1.202-.048-5.736-.048-5.736s-.519.175-.863.517c-.352.35-1.295 1.042-1.551 1.193-.255.152-.399-.198-.847-1.439-.447-1.241-1.095-4.622-1.151-5.418-.056-.795.192-2.029.192-2.029s.416-.715-1.063-.087c-1.119.477-2.798 1.257-4.412 1.893l.392 14.733z" fill="#D7D7D7"/><path fill-rule="evenodd" clip-rule="evenodd" d="M457.537 625.853s.352 1.527.616 2.967c.263 1.44 1.446 2.84 2.238 3.103.791.262 1.558-.597 1.558-.597.232-.008 2.278-.08 3.517-.215 1.311-.143 2.374-.175 2.957-1.018.584-.843 2.111-1.925 2.182-2.577.072-.653.48-.621.768-.987.288-.366.871-1.305.871-1.305l-.288-.938s.144-.844.44-.987c.288-.143.288-1.09.216-1.376-.072-.286.072-.509.367-.867.288-.366.072-.843 0-1.71-.072-.868-.583-1.305-1.167-1.743-.583-.437-.543-.071-.871 0-.336.072-.336 0-.695-.214-.368-.215-1.271.214-2.182.58-.919.366-1.599 1.019-2.886 1.162-1.279.143-2.589.103-3.029.58-.44.478-2.518 2.292-3.173 2.944-.552.549-1.063 1.289-1.239 1.503l-.2 1.695z" fill="#D7D7D7"/><path fill-rule="evenodd" clip-rule="evenodd" d="M476.809 610.786c-1.415 1.408-5.475 6.403-5.835 6.929-.36.525.416.875.416.875s5.555-6.929 5.906-7.454c.344-.533.928-1.758-.487-.35z" fill="#D7D7D7"/><path fill-rule="evenodd" clip-rule="evenodd" d="M455.076 624.858s.791 1.735 1.055 3.174c.264 1.44 1.863 2.984 2.646 3.246.791.263 1.598-1.09 1.598-1.09.232-.008 2.278-.079 3.517-.214 1.311-.144 2.374-.175 2.958-1.019.583-.843 2.11-1.925 2.182-2.577.072-.653.479-.621.767-.987.288-.366.871-1.304.871-1.304l-.287-.939s.143-.843.439-.986c.288-.144.288-1.09.216-1.377-.072-.286.072-.509.368-.867.287-.366.072-.843 0-1.71s-.584-1.305-1.167-1.742c-.584-.438-.544-.072-.872 0-.335.071-.335 0-.695-.215-.368-.215-1.271.215-2.182.581-.919.366-1.599 1.018-2.885 1.161-1.279.143-2.59.103-3.03.581-.439.477-2.517 2.291-3.173 2.943-.551.549-1.063 1.289-1.239 1.504l-1.087 1.837z" fill="#B8B6B8"/><path fill-rule="evenodd" clip-rule="evenodd" d="M456.163 623.013s.416-.716-1.063-.088c-1.527.653-4.092 1.854-6.059 2.506-1.966.652-4.444 1.376-5.507 1.376-1.063 0-1.934-.119-2.478.12-.871.382-1.974.7-2.629.7-.52 0 .471 1.098.383 1.058 0 0 .304 4.041.264 5.012-.04.962.36 7.143.36 7.509 0 .366-.12.947-.12.947.416-.088 13.02-2.864 15.698-3.484 2.726-.637 4.372-.995 4.804-.995.439 0 .583-.541.583-1.742s-.048-5.736-.048-5.736-.519.175-.863.517c-.352.35-1.295 1.043-1.551 1.194-.247.151-.399-.199-.847-1.44-.447-1.241-1.095-4.622-1.151-5.418-.024-.803.224-2.036.224-2.036z" fill="#B8B6B8"/><path fill-rule="evenodd" clip-rule="evenodd" d="M440.081 630.61c.448-.946.863-2.124.863-2.124-.415.199-.911.326-1.279.326-.519 0-.759-.087-.839-.127 0 0 .152 1.973.224 3.493 0-.008.583-.621 1.031-1.568z" fill="#B8B6B8"/><path clip-rule="evenodd" d="M440.081 630.61c.448-.946.863-2.124.863-2.124-.415.199-.911.326-1.279.326-.519 0-.759-.087-.839-.127 0 0 .152 1.973.224 3.493 0-.008.583-.621 1.031-1.568z" stroke="#B8B6B8" stroke-width=".13" stroke-miterlimit="3.864"/><path fill-rule="evenodd" clip-rule="evenodd" d="M457.962 632.997c.048.35.999 2.879 1.399 3.532.399.644.999.469.999.469.064-.27.064-.62.064-1.074 0-1.201-.048-5.736-.048-5.736s-.52.175-.864.518c-.327.326-1.182.954-1.494 1.161 0 0-.104.78-.056 1.13z" fill="#B8B6B8"/><path clip-rule="evenodd" d="M457.962 632.997c.048.35.999 2.879 1.399 3.532.399.644.999.469.999.469.064-.27.064-.62.064-1.074 0-1.201-.048-5.736-.048-5.736s-.52.175-.864.518c-.327.326-1.182.954-1.494 1.161 0 0-.104.78-.056 1.13z" stroke="#B8B6B8" stroke-width=".13" stroke-miterlimit="3.864"/><path fill-rule="evenodd" clip-rule="evenodd" d="M455.691 625.599c.424 2.338.912 3.659 2.534 5.703.152.191 1.982 0 2.166-.023 0 0-.607 3.269-1.127 4.025-.679.978-1.446 1.344-1.446 1.344s-1.024-3.293-1.399-4.677c-.376-1.392-.728-6.372-.728-6.372z" fill="#fff"/><path fill-rule="evenodd" clip-rule="evenodd" d="M431.895 711.856c-.087 1.973 1.016 32.696 1.056 33.635.064 1.495-.272 6.467-1.415 10.477-1.143 4.001-2.878 12.012-4.38 15.306-1.503 3.285-2.51 5.457-2.222 7.414.279 1.957 1.279 3.063 1.279 4.757 0 1.694-.144 1.997-.144 2.538 0 .541.975.986 2.102 2.521 1.135 1.528 2.534 3.087 3.525 3.787.991.708 3.684 1.249 5.363 1.814 1.678.565 3.101.986 3.101 1.408 0 .422-.144.867.424 1.408.567.541.423 1.392-.28 1.814-.711.421-4.492 1.273-6.906 1.273-2.406 0-6.21-.422-8.32-.844-2.103-.421-3.397-1.392-5.364-2.235-1.966-.843-2.693-.843-3.381-.986-.687-.144-1.255-.279-1.534.143-.28.421-2.39.143-4.093 0-1.702-.143-2.102-.422-2.957-.565-.847-.143-.28-2.235-.28-3.508 0-1.273.712-4.073.712-4.073l-.992-.144s.568-3.245.568-4.773c0-1.535 1.255-8.281 2.102-9.952.847-1.67 1.135-2.68 1.279-3.929.144-1.249.567-3.365.567-3.365s-.143-2.395-.143-4.209c0-1.813 1.111-6.022 1.111-7.008 0-.987.991-3.063.847-5.601l-.016-.389 18.391-36.714zm28.193-87.451s55.734-36.904 78.962-51.924c.279-.183.943.438.471.716l-78.794 51.844-.639-.636z" fill="#B8B6B8"/><path clip-rule="evenodd" d="M460.088 624.405s55.734-36.904 78.962-51.924c.279-.183.943.438.471.716l-78.794 51.844-.639-.636z" stroke="#B8B6B8" stroke-width=".8" stroke-miterlimit="3.864"/></g><path fill-rule="evenodd" clip-rule="evenodd" d="M1643.28 665.924c.63 1.715 1.39 3.38 2.27 4.98.64.837 1.63 2.181 1.63 2.181l-7.32 10.87s-3.23 2.594-4.51 2.718c-1.28.124-2.54-.538-2.54-1.881 0-.837-1.46-.837-1.46-.837l-.46-1.302c-.41-.05-.81-.184-1.17-.393-.26-.248-6.4-7.615-6.4-7.615a7.269 7.269 0 01-.52-2.645 7.89 7.89 0 01.58-4.072c.38-.599 3.68-1.302 3.68-1.302l16.22-.702z" fill="#B8B6B8"/><path d="M1540.33 696.146c0-.818.24-1.617.69-2.296.46-.68 1.1-1.21 1.86-1.523a4.131 4.131 0 012.39-.235 4.133 4.133 0 013.24 3.248c.16.801.08 1.632-.23 2.388-.31.755-.84 1.4-1.52 1.855a4.14 4.14 0 01-5.22-.514 4.115 4.115 0 01-1.21-2.923z" fill="#B8B6B8"/><path d="M1547.14 695.989h-5.43v23.208h5.43v-23.208z" fill="#B8B6B8"/><path d="M1534.69 719.79a.83.83 0 01.25-.592.824.824 0 01.59-.245h17.79c.22 0 .44.088.59.245.16.157.25.37.25.592v.269a.83.83 0 01-.25.592.824.824 0 01-.59.245h-17.79a.824.824 0 01-.59-.245.83.83 0 01-.25-.592v-.269z" fill="#B8B6B8"/><path fill-rule="evenodd" clip-rule="evenodd" d="M1604.16 718.872a.745.745 0 00-.23-.541.747.747 0 00-.54-.224l-24.8-1.333a.785.785 0 00-.29.055.903.903 0 00-.25.163.78.78 0 00-.22.537v2.728c0 .201.08.393.23.534.14.141.33.22.53.22h24.8a.768.768 0 00.77-.754v-1.385z" fill="#B8B6B8"/><path fill-rule="evenodd" clip-rule="evenodd" d="M1622.68 808.608l-6.76-.031.06 1.478h6.51l.19-1.447z" fill="#E2E2E4"/><path d="M1604.77 807.323h-10.04c-.23 0-.42.185-.42.414v.527c0 .228.19.413.42.413h10.04a.41.41 0 00.41-.413v-.527a.41.41 0 00-.41-.414z" fill="#E2E2E4"/><path d="M1604.77 807.323h-10.04c-.23 0-.42.185-.42.414v.527c0 .228.19.413.42.413h10.04a.41.41 0 00.41-.413v-.527a.41.41 0 00-.41-.414z" stroke="#E2E2E4" stroke-width=".35" stroke-miterlimit="3.86"/><path d="M1667.49 763.337h2.04v20.49h-2.04v-20.49z" fill="#B8B6B8"/><path d="M1667.49 763.337h2.04v20.49h-2.04v-20.49z" stroke="#B8B6B8" stroke-width=".63" stroke-miterlimit="3.86"/><path fill-rule="evenodd" clip-rule="evenodd" d="M1627.5 733.122c2.6-.517 11.5-2.439 13.43-2.78 1.41-.322 2.77-.855 4.02-1.581 0 0-4.01-7.233-4.87-8.39-.86-1.157-1.75-2.067-1.58-3.989.18-1.922.2-2.81-1.21-2.81-1.4 0-10.64-.351-10.64-.351a40.254 40.254 0 00-4.19-2.263c-.72-.176-2.38-.279-1.58-.682a10.11 10.11 0 003.93-3.968c.55-1.178 1.41-1.953 1.5-3.472.13-.921.06-1.858-.21-2.749a.385.385 0 01-.07-.232c0-.084.02-.165.07-.233a1.87 1.87 0 011.54.133c.24.13.44.308.6.522.16.214.27.459.33.72.18.899.86-1.23 1.38-2.067.51-.837 3.16.207 4.01-1.209a45.763 45.763 0 003.17-7.171c.34-1.374-1.89-1.715 1.92-5.053 3.81-3.338 8.71-13.123 8.71-13.123a5.793 5.793 0 012.44 1.891c.51 1.033 1.4 1.757 1.92 1.757a41.4 41.4 0 014.7 0c1.24.165 5.77 1.198 10.48 6.106 4.71 4.909 10.81 15.004 10.81 16.533 0 1.53 1.41 12.844 1.41 14.012 0 1.168 1.57 4.701 1.57 6.282 0 1.581-2.6 1.984-3.63 2.646-1.04.661-1.1 1.787-.73 2.986.38 1.198 1.93 3.988 1.58 5.569-.34 1.581-.13 12.741-5.73 15.004-5.6 2.263-21.32 3.327-23.93 3.327-2.62 0-8.55.517-10.13.517s-2.98 2.469-3.68 3.162a12.683 12.683 0 00-2.6 5.559c-.38 2.263-7.36-24.086-4.74-24.603zm17.92-63.047c-.23-.817-.23-5.167-.44-6.314-.22-1.147-3.39-5.166-4.74-6.282-1.34-1.116-6.19-2.666-8.48-2.315-2.28.351-5.31 1.199-5.85 1.881-.53.682-5.41 3.978-5.85 7.946-.43 3.968.47 5.631.9 6.065.4.299.87.481 1.36.527-.02-.729.02-1.459.13-2.18.17-.744 1.59-2.067 2.07-2.594.47-.527.8-.248 1.83-.165 1.02.083.84.31.68 1.033-.17.724-.17 1.106.25 1.602.42.454.94.807 1.52 1.033.97.114 1.94.142 2.92.083.66 0 1.34.083 1.43.579.08.496.14.413.91.496.76.082 1.43.186 1.18-.91a4.131 4.131 0 01.42-3.038 2.116 2.116 0 011.16-1.221c.26-.116.55-.177.84-.18a2.2 2.2 0 01.84.161l2.26.827s1.18 1.033 1.26 1.602c.08.568 1.19 1.033 1.93 1.157.49.114.98.183 1.47.207z" fill="#B8B6B8"/><path clip-rule="evenodd" d="M1645.42 670.075c-.23-.817-.23-5.167-.44-6.314-.22-1.147-3.39-5.166-4.74-6.282-1.34-1.116-6.19-2.666-8.48-2.315-2.28.351-5.31 1.199-5.85 1.881-.53.682-5.41 3.978-5.85 7.946-.43 3.968.47 5.631.9 6.065.4.299.87.481 1.36.527-.02-.729.02-1.459.13-2.18.17-.744 1.59-2.067 2.07-2.594.47-.527.8-.248 1.83-.165 1.02.083.84.31.68 1.033-.17.724-.17 1.106.25 1.602.42.454.94.807 1.52 1.033.97.114 1.94.142 2.92.083.66 0 1.34.083 1.43.579.08.496.14.413.91.496.76.082 1.43.186 1.18-.91a4.131 4.131 0 01.42-3.038 2.116 2.116 0 011.16-1.221c.26-.116.55-.177.84-.18a2.2 2.2 0 01.84.161l2.26.827s1.18 1.033 1.26 1.602c.08.568 1.19 1.033 1.93 1.157.49.114.98.183 1.47.207v0z" stroke="#B8B6B8" stroke-width=".25" stroke-miterlimit="3.86"/><path fill-rule="evenodd" clip-rule="evenodd" d="M1622.47 671.902l.29 2.48s2.21 2.635 2.86 2.852c.65.217.79 4.257.9 4.95.12.692 1.45.754 2.07.32.62-.434.87.579.87.579.33.118.68.191 1.03.217.48 0 .48.868.48.868s1.4.072 1.51.537c.12.465.33 2.676 1.88 2.459a4.118 4.118 0 002.77-1.333 7.009 7.009 0 013.62-1.446c.59-.002 1.18.032 1.77.103a21.42 21.42 0 012.06-5.59c1.55-2.79 3.32-5.859 3.32-5.859l-2.52-2.883v-.083h-1.37c-.22 0-.08.238 0 .29.07.051.56.165.65.268.08.104 1.33 1.602 1.65 1.891.32.289.37.579.21.765-.17.186-3.1 4.288-3.61 4.97-.51.682-.87.868-1.2-.279-.33-1.147-.57-1.819-1.03-2.067-.47-.248-.49-.082-.43 1.034.05 1.116.48 3.968.38 4.515a16.39 16.39 0 01-2.15 2.966c-.75.793-1.63 1.462-2.59 1.984-.51.182-1.08.204-1.61.062a1.897 1.897 0 01-.69-.315c-.2-.151-.38-.343-.51-.564a8.267 8.267 0 010-1.219c0-.382 0-.651-.78-.496-.79.155-.93.331-1.03-.217-.11-.547.05-.95.49-.95.21.028.42.004.61-.072.2-.076.37-.201.5-.362.28-.383 0-.321-.89-.217-.89.103-1.5.217-1.88.217-.38 0-.55-.786-.55-1.767 0-.982.55-1.034.28-1.251-.27-.217-1.03-1.477-.77-2.149.23-.67.58-1.29 1.04-1.829.27-.155.54-.599-.44-.434-.97.165-1.88.496-1.93 0a1.019 1.019 0 00-.37-.66c-.2-.165-.46-.247-.72-.229-.65.12-1.27.366-1.82.724-.28.165-.3.599-.85.444a1.63 1.63 0 01-.98-1.447c-.05-.651-.1-2.066-.22-2.469-.11-.403-.43-.279-.43 0 .02.235.06.467.13.692z" fill="#B8B6B8"/><path fill-rule="evenodd" clip-rule="evenodd" d="M1626.09 679.605c-.52-.589-2.07-2.149-2.35-2.387a4.015 4.015 0 00-1.78-.599 3.905 3.905 0 00-2.41.083c-.81.577-1.57 1.209-2.3 1.891-.59.527-.59 2.645-.72 3.389-.12.744.33 6.076.41 8.266.09 2.191 3.2 16.533 4.14 18.104.94 1.57 1.03 2.066 2.84-.331 1.81-2.397 2.92-5.373 2.51-7.233-.41-1.86-1.68-2.676-2.43-4.609-.74-1.932-2.06-5.259-1.77-6.53.3-1.271.95-.496 1.28-2.594.33-2.097.57-3.275.57-3.606 0-.331 1.11-.413 1.11-.413s.5-.858.83-.858c.33 0 .63-.909.51-1.24-.11-.33.09-.733-.44-1.333zm19.49-8.986s-1.76-.331-2.06-.331c-.3 0-1.44-1.033-1.82-1.271-.38-.237-.38-1.167-1.03-1.498-.66-.331-.88-.217-.88 0s.76.899 1.03 1.385c.28 1.058.35 2.159.22 3.244-.08 1.034-.71 2.067-1.3 2.067-.6 0-.17-.351.33-.568.49-.217.21-.817.32-1.416.16-.924.12-1.87-.11-2.78-.28-.485-.6-1.302-1.44-1.415-.85-.114-1.47-.186-1.69.113-.1.173-.16.371-.16.574 0 .202.06.401.16.573.22.372.93.786.93.269s.44-.765.76-.548c.32.217.9 1.602.57 1.602-.32 0-1.11 0-1.11.496s-.33.269-.77-.165a1.66 1.66 0 01-.54-1.034.919.919 0 00-.79-.713c-.48-.051-.6 0-.6.6 0 .599 0 1.767-.11 2.314-.12.548-.54.569-.95.62-.3-.031-.59-.121-.85-.265a2.158 2.158 0 01-.67-.572 1.711 1.711 0 00-.59-.39 1.607 1.607 0 00-.69-.106c-.44 0-1.49 0-3.1-.103s-.95-.165-1.23-.279c-.28-.114-1.04-1.106-1.44-1.436-.4-.331-.43-.713-.33-1.767.1-1.054-.76-.166-1.2.134-.43.3-1.17.703-1.17.703-.02.426-.1.849-.21 1.26-.22.868-.33 1.55-.33 1.55h-.47c-.02-.729.03-1.459.14-2.18.16-.744 1.59-2.067 2.06-2.594.48-.527.81-.248 1.83-.165 1.02.083.85.31.68 1.033-.16.724-.16 1.106.25 1.602.42.454.94.807 1.52 1.033.97.114 1.95.142 2.93.083.66 0 1.34.083 1.42.579.08.496.15.413.91.496.77.082 1.44.186 1.19-.91a4.128 4.128 0 01.41-3.038c.1-.27.26-.518.46-.728.2-.21.44-.377.7-.493.27-.115.55-.177.84-.18.29-.003.58.052.84.161l2.27.827s1.17 1.033 1.26 1.602c.08.568 1.19 1.033 1.93 1.157.48.102.96.161 1.45.176a.22.22 0 010-.114l.23.806z" fill="#B8B6B8"/><path fill-rule="evenodd" clip-rule="evenodd" d="M1629.51 701.516c.24-.414.49 0 .66.32.16.32 1.85 1.322 2.17 1.736.63.546 1.43.875 2.26.94 1-.3 2.01-.548 3.04-.744.94-.083.58-.609.25-.775-.33-.165-3.21-1.033-3.7-1.157-.5-.124-.65-.61-.17-2.067.49-1.457.83-.372 1.36 0 .52.372 2.06-.082 2.42-.082.37 0 .5-.445.5-2.625s.08-2.18.58-.827c.49 1.354.69.248.77-.165.09-.413.5-.331.42-3.524-.09-3.192-.17-3.42-.42-3.947-.24-.527-1.19-.826-1.19-.826s-.24-1.354 0-1.602c.25-.248 1.28-1.757 2.34-1.839 1.06-.083 1.35-.083 1.35.248-.03.57-.15 1.132-.33 1.674-.2.542-.2 1.142 0 1.684.33.545.55 1.143.66 1.767.25.94 1.19 4.267 1.19 4.267s.33-1.591.66-2.583c.33-.992 3.1-9.568 3.1-9.568-.32.458-.6.937-.85 1.436-.67 1.188-.75.827-1.94 1.602-1.18.775-1.48.661-1.03.33.8-.871 1.53-1.804 2.18-2.79.53-.775 2.42-2.758 2.91-3.409.5-.651 2.2-3.669 2.2-3.669.31.39.75.654 1.24.744h.92s-.08.693-.41.775a2.082 2.082 0 00-1.27 1.034c-.29.568-1.4 1.033-1.65 1.188a7.355 7.355 0 00-1.52 2.831c-.36 1.54-.84 3.05-1.44 4.516-.69 2.066-.81 2.428-.4 3.534.41 1.105.65 2.066 0 2.676-.65.609-.66.857-.66-.579s-.33-1.188-.53-.579a4.916 4.916 0 00-.33 1.561c0 .496 0 1.684.08 3.368.09 1.685-.82 2.015-.74 2.925.24 1.654.79 3.251 1.6 4.711 1.19 2.429.83 2.067.98 1.406.16-.662.95-3.338 1.04-4.278.24-2.589.67-5.156 1.31-7.678.74-2.51-.25-3.616.08-4.133.33-.516 1.27-3.854 2.79-4.96 1.52-1.105 1.93-.744 1.16-.082-.78.661-.75 1.436-1.49 2.066-.74.631-.94 3.534-1.11 5.962-.16 2.429-.49 6.2-.66 7.554-.16 1.354-1.6 3.658-1.92 5.259-.32 1.602.32 2.067 1.84 2.067s1.32.165 1.41.785c.08.62 1.43 1.891.69 1.809-.75-.083-1.6.196-1.93 0-.33-.197-1.19-1.034-2.01-.91-.5.099-.97.319-1.36.642-.4.322-.71.737-.9 1.208-.33.94-.25 2.428-1.11 2.346-.85-.083-2.51 0-4.13 0s-1.03 1.849-1.03 3.192c0 1.344 1.31 3.255 1.68 3.999.37.744 3.1 4.795 3.1 4.02-.04-1.005.04-2.012.25-2.997.25-.744.16-2.066 1.27-2.924 1.1-.858 1.48-.444 2.25.248.78.692 1.04 2.067 1.04.165a5.998 5.998 0 00-1.23-3.451c-.34-.651-.54-2.5-.17-2.335.48.145.95.339 1.4.579.49.32 1.35 2.862 2.34 4.959.99 2.098 2.17 2.759 2.17 1.654 0-1.106.08-2.677-.65-3.1-.73-.424-.74-1.602-1.6-2.067-.86-.465-1.16-1.591-.75-1.922a2.575 2.575 0 012.43-.826c1.59.165.78 2.263.86 2.996.08.734 3 1.767 3 1.767a70.74 70.74 0 00-1.04-7.388c-.57-2.459.17-4.268-.61-4.764-.77-.496 0-3.161-.24-3.451-.25-.289.24-4.019 0-4.515-.25-.496-.09-10.809-.09-12.317 0-1.509.33-1.24.75-.414.4.568.63 1.231.69 1.922-.08.496 0 10.23 0 11.367.05 1.123.22 2.237.5 3.327.24 1.24 1.03 5.879 1.03 5.879s1.82-1.436 1.73-1.767c-.08-.33-1.03-3.616-1.03-4.133 0-.516 0-2.831.08-4.598.09-1.767.25-.94.5.083s.41 2.759.86 4.515c.44 1.757.66 1.767.82.951.17-.816.9-2.459 1.04-2.955.13-.496-1.65-12.162-1.65-12.896s-.61-1.106-.61-1.602.25-1.033.7-.33c.44.702 1.39 1.849 1.56 2.17.16.32.69 3.203.94 4.608.25 1.405 1.35 5.869 1.16 7.388-.2 1.519-.58 3.452-.58 4.268 0 .816.49.248 1.35-.496a2.06 2.06 0 00.91-1.839c0-.579-.08-1.933 0-5.167s.16-3.162.33-2.335c.18.747.44 1.475.77 2.17.44 1.001.78 2.039 1.04 3.1 0 .444.08 2.831.16 3.1.68.988 1.51 1.864 2.46 2.593.46.083 1.99-1.488 1.99-1.488a12.99 12.99 0 00-.33-2.779c-.37-1.685.24-1.488.69-.166.39 1.121.7 2.272.91 3.441 0 .331 0 1.354-.08 2.924-.09 1.571.08 1.437.49 2.17.76 1.226 1.73 2.31 2.86 3.204.79.413 2.47 1.374 2.47 1.374.02.182.02.365 0 .548 0 1.198 1.57 4.701 1.57 6.282 0 1.581-2.45 1.912-3.48 2.573-.11.072-.57 0-.68 0a8.52 8.52 0 01-1.68.207c-.82 0-3.58 1.033-6.74 1.684s-4.81-1.033-6.7-1.684c-1.89-.651-3.1-1.034-3.78-.207-.68.827-2.07 1.488-4.6 1.281-2.53-.206-2.29.414-3.99 1.891-1.69 1.478-1.63 2.707-2.29 2.707-.66 0-3.31-2.593-4.13-3.265h.06s-1.92-2.645-2.78-3.844c-.86-1.198-1.76-2.066-1.58-3.988.17-1.922.19-2.811-1.21-2.811-1.41 0-10.64-.351-10.64-.351a40.254 40.254 0 00-4.19-2.263c-.72-.176-2.39-.279-1.58-.682 1.65-.93 3.01-2.305 3.93-3.968.54-1.178 1.4-1.953 1.49-3.472.13-.92.06-1.858-.2-2.748a.398.398 0 01-.08-.233c0-.083.03-.164.08-.232a1.882 1.882 0 011.54.132c.23.13.44.308.6.522.16.214.27.459.33.72.07.372.24.227.43-.134-.07 0 .2 1.054.45.651z" fill="#B8B6B8"/><path fill-rule="evenodd" clip-rule="evenodd" d="M1638.32 713.597c-.71 0-10.9-.248-11.98-.786-1.07-.537-2.86-1.849-4.59-2.211a29.555 29.555 0 00-5.44-.176h-4.19c-.66 0-1.92.414-1.92 1.251s1.04 1.384 1.04 1.384-1.56 1.199-1.56 1.912a1.551 1.551 0 00.69 1.168c-.09.39-.15.787-.17 1.188 0 .496 1.15.744 1.15.744.07.31.07.63 0 .94-.08.744-.37 1.106.54 1.602 1.08.536 2.28.792 3.49.744 2.17.135 4.35-.088 6.45-.662 2.54-.532 5.14-.658 7.72-.372 2.58.124 11.13.62 11.13.62s-1.04-1.477-1.65-2.262c-.61-.786-.45-2.377-.45-3.452a3.792 3.792 0 00-.26-1.632z" fill="#B8B6B8"/><path clip-rule="evenodd" d="M1638.32 713.597c-.71 0-10.9-.248-11.98-.786-1.07-.537-2.86-1.849-4.59-2.211a29.555 29.555 0 00-5.44-.176h-4.19c-.66 0-1.92.414-1.92 1.251s1.04 1.384 1.04 1.384-1.56 1.199-1.56 1.912a1.551 1.551 0 00.69 1.168c-.09.39-.15.787-.17 1.188 0 .496 1.15.744 1.15.744.07.31.07.63 0 .94-.08.744-.37 1.106.54 1.602 1.08.536 2.28.792 3.49.744 2.17.135 4.35-.088 6.45-.662 2.54-.532 5.14-.658 7.72-.372 2.58.124 11.13.62 11.13.62s-1.04-1.477-1.65-2.262c-.61-.786-.45-2.377-.45-3.452a3.792 3.792 0 00-.26-1.632z" stroke="#B8B6B8" stroke-width=".95" stroke-miterlimit="3.86"/><path fill-rule="evenodd" clip-rule="evenodd" d="M1617.93 710.436c1.34-.568 2.29-.971 2.38-1.033.32-.083.21-1.034-.53-.662-.28.124-1.99.848-4.05 1.695h2.2zm-5.64 1.929a.455.455 0 00-.51-.196c-2.28.951-4.24 1.777-4.46 1.881a2.2 2.2 0 00-.86.857h1.03l4.41-1.808c.53-.196.59-.424.39-.734z" fill="#B8B6B8"/><path d="M1536.15 667.208a.853.853 0 00-1.15-.31l-1.91 1.106a.86.86 0 00-.39.51.835.835 0 00.08.637l27.9 48.369c.05.096.13.18.21.247a.857.857 0 00.62.168c.11-.014.22-.05.32-.105l1.91-1.106a.797.797 0 00.24-.215.82.82 0 00.17-.621.848.848 0 00-.1-.311l-27.9-48.369zm-29.38 53.338h120.38v4.495h-120.38v-4.495z" fill="#B8B6B8"/><path d="M1506.77 720.546h120.38v4.495h-120.38v-4.495z" stroke="#B8B6B8" stroke-width=".68" stroke-miterlimit="3.86"/><path d="M1563.04 724.192h4.22v7.915h-4.22v-7.915z" fill="#B8B6B8"/><path d="M1563.04 724.192h4.22v7.915h-4.22v-7.915z" stroke="#B8B6B8" stroke-width=".65" stroke-miterlimit="3.86"/><path d="M1546.02 724.192h4.22v7.915h-4.22v-7.915z" fill="#B8B6B8"/><path d="M1546.02 724.192h4.22v7.915h-4.22v-7.915z" stroke="#B8B6B8" stroke-width=".65" stroke-miterlimit="3.86"/><path d="M1552.54 723.053h8.2v11.552h-8.2v-11.552z" fill="#B8B6B8"/><path d="M1552.54 723.053h8.2v11.552h-8.2v-11.552z" stroke="#B8B6B8" stroke-width=".65" stroke-miterlimit="3.86"/><path d="M1560.74 730.117h9.56v9.569h-9.56v-9.569z" fill="#B8B6B8"/><path d="M1560.74 730.117h9.56v9.569h-9.56v-9.569z" stroke="#B8B6B8" stroke-width=".65" stroke-miterlimit="3.86"/><path d="M1542.97 730.117h9.57v9.569h-9.57v-9.569z" fill="#B8B6B8"/><path d="M1542.97 730.117h9.57v9.569h-9.57v-9.569z" stroke="#B8B6B8" stroke-width=".65" stroke-miterlimit="3.86"/><path d="M1567.07 734.045h-20.84v75.152h20.84v-75.152z" fill="#B8B6B8"/><path d="M1561.93 729.598v72.228m-10.54-72.228v72.228" stroke="#F2F4F8" stroke-width=".65" stroke-miterlimit="3.86" stroke-linecap="round"/><path fill-rule="evenodd" clip-rule="evenodd" d="M1569.88 790.528c0 .279-.07 3.1 0 3.596.06.496.14 1.302 2.34 1.88 2.2.579 39.59 12.245 40.64 12.658.43.159.79.462 1.03.857.23.396.32.859.25 1.313v1.715h-4.53a1.622 1.622 0 00-.35-.754 1.52 1.52 0 00-.69-.465c-.89-.248-41.19-10.622-41.19-10.622v-10.23c0-.558-.34-.703 0-.703h2.06c.43 0 .41.465.44.755z" fill="#B8B6B8"/><path d="M1606.15 813.265c0-.112.05-.22.13-.299a.41.41 0 01.3-.124h10.18c.12 0 .22.044.3.124.08.079.13.187.13.299v.527c0 .112-.05.218-.13.297a.43.43 0 01-.3.127h-10.18a.414.414 0 01-.3-.124.426.426 0 01-.13-.3v-.527z" fill="#B8B6B8"/><path fill-rule="evenodd" clip-rule="evenodd" d="M1527.92 812.269c1.49-.579 18.08-10.334 18.08-10.334v-10.891c0-.558.33-.702 0-.702h-2.07c-.38 0-.37.465-.4.754-.03.289.06 3.1 0 3.596s-.05 3.42-2.07 4.485c-2.57 1.364-13.6 8.586-17.31 10.922-.36.294-.61.707-.7 1.167-.02.42-.02.841 0 1.261h4.48l-.01-.258z" fill="#B8B6B8"/><path d="M1520.09 813.265c0-.112.05-.22.13-.299.08-.08.19-.124.3-.124h10.21a.416.416 0 01.42.423v.527c0 .112-.05.218-.13.297a.424.424 0 01-.29.127h-10.19a.432.432 0 01-.43-.424v-.527h-.02z" fill="#B8B6B8"/><path fill-rule="evenodd" clip-rule="evenodd" d="M1626.61 793.854c-.35-.403-.16-1.643-.37-2.15a3.56 3.56 0 01-.44-1.807c.01-.632.19-1.249.52-1.789-.14-5.993-.13-12.678.16-15.861.53-5.807-.41-14.29.05-17.68.1-.761.43-1.473.95-2.043.51-.57 1.19-.971 1.93-1.15 1.45 4.206 3.86 5.343 3.97 4.578.35-2.273.75-3.1 1.43-3.782.68-.682 2.07-3.162 3.68-3.162 1.61 0 7.51-.516 10.12-.516 2.62 0 18.33-1.034 23.94-3.328 5.6-2.294 5.39-13.433 5.73-15.003.34-1.571-1.2-4.361-1.58-5.57a2.453 2.453 0 01-.21-1.437c.07-.489.29-.945.62-1.311h-2.06c-.82 0-3.58 1.033-6.74 1.684s-4.81-1.033-6.7-1.684c-1.89-.651-3.1-1.034-3.78-.207-.68.827-2.07 1.488-4.6 1.281-2.53-.206-2.29.414-3.99 1.891-1.69 1.478-1.63 2.708-2.29 2.708-.66 0-3.31-2.594-4.13-3.266-.36.207 1.81 3.328.08 3.637-1.92.352-15.5 1.623-18.29 2.387-4.58 1.437-8.16 2.201-11.06 3.731-5.98 3.162-3.87 11.893-3.87 17.462 0 5.57 0 32.395.31 38.977.15 3.947.09 7.233.09 9.682a12.294 12.294 0 01-6.2 3.771c-7.13 2.067-11.36 3.689-11.36 3.689s0 1.581 5.27 1.581h23.48c1.82 0 3.23-2.5 2.42-6.2h2.93l.48-3.823a49.331 49.331 0 01-.49-5.29z" fill="#B8B6B8"/><path d="M1663.17 758.204c0-.963.28-1.905.82-2.707a4.83 4.83 0 012.18-1.797 4.868 4.868 0 016.36 6.361c-.37.89-.99 1.65-1.79 2.184a4.883 4.883 0 01-6.15-.607 4.856 4.856 0 01-1.42-3.434zm22.65-12.221c0-.524.15-1.037.44-1.474.29-.436.71-.777 1.19-.979a2.662 2.662 0 011.53-.153 2.629 2.629 0 012.08 2.082c.11.514.05 1.047-.15 1.53-.2.484-.54.897-.98 1.187-.43.29-.95.444-1.47.442-.7 0-1.37-.278-1.86-.772a2.618 2.618 0 01-.78-1.863z" fill="#B8B6B8"/><path fill-rule="evenodd" clip-rule="evenodd" d="M1669.75 763.098s.91-.32 2.91-1.106c2-.785 6.06-3.296 10.33-6.199 4.28-2.904 6.77-6.2 7.38-8.267.61-2.066-2.57-2.996-2.57-1.467s-1.25 3.503-4.35 5.166c-3.69 1.943-7.5 3.948-14.66 3.627l.96 8.246zm-5.38-7.319a8.997 8.997 0 01-5.93 3.172c-4.13.238-13.43-2.376-17.29-4.071-1.25-.558-3.72 1.788-1.29 3.1s13.64 5.921 21.27 5.921c5.03 0 6.2-.403 6.2-.403s-2.28-8.773-2.96-7.719z" fill="#B8B6B8"/><path fill-rule="evenodd" clip-rule="evenodd" d="M1683.8 684.776h1.03c.12 0 .06.331-.83 4.464-4.5 21.049.87 44.04 4.55 52.244 1.76 3.906 2.07 5.001-1.89 4.288-3.96-.713-2.95-2.242-3.16-2.573-.21-.33-.32-.547-.32-.547-1.84-3.276-5.8-15.686-5.71-28.323.11-15.748 3.43-22.598 5.71-28.509l.16-.434c.16-.3.31-.61.46-.61zm-16.68 68.443c10.34-2.067 10.27-3.431 10.27-3.431-6.11-.083-16.24.093-21.84 1.726-7.11 2.066-15.15 4.133-18.29 5.486-.03 0 19.53-1.746 29.86-3.781z" fill="#B8B6B8"/><path fill-rule="evenodd" clip-rule="evenodd" d="M1684.38 746.444v2.398c-.12.382-.38.709-.72.918-.34.209-.75.287-1.14.218-1.14-.103-18.83-.826-27.01 1.561-8.17 2.386-17.56 5.166-19.34 5.931-1.78.764-3.72.62-5.17-1.974-1.44-2.594-2.81-5.921 1.55-7.336 7.97-2.594 30.36-5.115 42.84-4.382 7.03.414 7.58.796 8.51 1.034.59.082.48.806.48 1.632z" fill="#B8B6B8"/><path clip-rule="evenodd" d="M1684.38 746.444v2.398c-.12.382-.38.709-.72.918-.34.209-.75.287-1.14.218-1.14-.103-18.83-.826-27.01 1.561-8.17 2.386-17.56 5.166-19.34 5.931-1.78.764-3.72.62-5.17-1.974-1.44-2.594-2.81-5.921 1.55-7.336 7.97-2.594 30.36-5.115 42.84-4.382 7.03.414 7.58.796 8.51 1.034.59.082.48.806.48 1.632z" stroke="#B8B6B8" stroke-width=".95" stroke-miterlimit="3.86"/><path d="M1636.25 755.801c-.01-.524.15-1.036.44-1.472.29-.437.7-.777 1.18-.979a2.654 2.654 0 012.89.567c.37.369.62.84.73 1.354a2.633 2.633 0 01-1.13 2.719 2.64 2.64 0 01-1.47.446c-.7 0-1.37-.277-1.87-.771a2.65 2.65 0 01-.77-1.864z" fill="#B8B6B8"/><path fill-rule="evenodd" clip-rule="evenodd" d="M1682.31 684.86c-.81-.119-1.63-.171-2.45-.155-.83 0-2.65 1.033-5.66 13.226-3.82 15.5-2.9 36.166 3.91 42.51 4.44 4.134 6.95 5.508 5.16 2.294-1.78-3.213-5.89-15.675-5.73-28.364.15-12.689 3.18-23.156 5.88-28.932.13-.424-.05-.455-1.11-.579z" fill="#B8B6B8"/><path clip-rule="evenodd" d="M1682.31 684.86c-.81-.119-1.63-.171-2.45-.155-.83 0-2.65 1.033-5.66 13.226-3.82 15.5-2.9 36.166 3.91 42.51 4.44 4.134 6.95 5.508 5.16 2.294-1.78-3.213-5.89-15.675-5.73-28.364.15-12.689 3.18-23.156 5.88-28.932.13-.424-.05-.455-1.11-.579z" stroke="#B8B6B8" stroke-width=".95" stroke-miterlimit="3.86"/><path fill-rule="evenodd" clip-rule="evenodd" d="M1638.06 806.488c0-.613-.18-1.213-.52-1.723a3.103 3.103 0 00-5.62 1.118c-.12.601-.06 1.224.18 1.791a3.098 3.098 0 002.86 1.914c.83 0 1.61-.327 2.2-.908a3.1 3.1 0 00.9-2.192z" fill="#B8B6B8"/><path d="M1671.36 781.63h-5.69v14.983h5.69V781.63z" fill="#B8B6B8"/><path fill-rule="evenodd" clip-rule="evenodd" d="M1669.93 787.323c2.84 4.66 24.97 9.083 30.43 10.55 5.28 1.416 5.28 2.067 5.28 4.257v4.258h-2.84v-3.441s.16-1.106-3.04-1.705c-2.9-.558-29.43-8.442-29.43-8.442l-.4-5.477z" fill="#B8B6B8"/><path d="M1702.8 806.488c0-.613.18-1.213.52-1.723.34-.509.83-.907 1.39-1.141a3.128 3.128 0 011.8-.177c.6.12 1.15.415 1.58.849.44.433.73.986.85 1.587s.06 1.224-.18 1.791a3.098 3.098 0 01-2.86 1.914c-.82 0-1.61-.327-2.19-.908a3.109 3.109 0 01-.91-2.192z" fill="#B8B6B8"/><path fill-rule="evenodd" clip-rule="evenodd" d="M1667.48 787.323c-2.83 4.66-24.95 9.083-30.42 10.55-5.28 1.416-5.28 2.067-5.28 4.257v4.258h2.84v-3.441s0-1.209 2.84-1.623c2.85-.413 29.66-8.524 29.66-8.524l.36-5.477z" fill="#B8B6B8"/><path fill-rule="evenodd" clip-rule="evenodd" d="M1667.12 787.925c-.81 1.033-12.18 7.316-15.42 9.548-3.25 2.231-3.24 2.634-3.24 4.866 0 4.061 1.82 1.416 1.82 1.416s-.46-2.811 4.27-4.867a64.949 64.949 0 0112.57-3.864c1.39-.197 0-7.099 0-7.099z" fill="#B8B6B8"/><path d="M1647.73 806.488c0-.613.18-1.213.52-1.723a3.103 3.103 0 015.62 1.118c.12.601.06 1.224-.18 1.791a3.098 3.098 0 01-2.86 1.914c-.82 0-1.61-.327-2.19-.908a3.109 3.109 0 01-.91-2.192z" fill="#B8B6B8"/><path fill-rule="evenodd" clip-rule="evenodd" d="M1670.5 787.925c.81 1.033 12.17 7.316 15.42 9.548 3.24 2.231 3.24 2.634 3.24 4.866 0 4.061-1.83 1.416-1.83 1.416s.46-2.811-4.25-4.867a65.252 65.252 0 00-12.58-3.864c-1.43-.197 0-7.099 0-7.099z" fill="#B8B6B8"/><path d="M1683.57 806.488c0-.613.18-1.213.52-1.723a3.103 3.103 0 015.62 1.118c.12.601.06 1.224-.18 1.791a3.098 3.098 0 01-2.86 1.914c-.82 0-1.61-.327-2.19-.908a3.109 3.109 0 01-.91-2.192zm-18.52 0c0-.613.18-1.213.53-1.723a3.094 3.094 0 013.18-1.318c.6.12 1.15.415 1.58.849.44.433.73.986.85 1.587s.06 1.224-.17 1.791c-.24.566-.64 1.05-1.15 1.391a3.098 3.098 0 01-3.91-.385 3.109 3.109 0 01-.91-2.192z" fill="#B8B6B8"/><path d="M1666.88 794.516h3.16v10.023h-3.16v-10.023zm36.98 11.158c-.01-.22.06-.435.18-.619a1.102 1.102 0 011.14-.477c.21.043.41.148.56.303.16.156.26.354.31.569.04.216.02.439-.07.641a1.1 1.1 0 01-1.03.678c-.29 0-.57-.116-.77-.321a1.075 1.075 0 01-.32-.774zm-19.17-.24c0-.219.06-.433.18-.615.13-.181.3-.323.5-.407a1.087 1.087 0 011.2.24c.16.155.26.352.31.566.04.215.02.437-.07.639-.08.202-.22.375-.4.496a1.112 1.112 0 01-1.4-.137 1.24 1.24 0 01-.24-.359 1.217 1.217 0 01-.08-.423z" fill="#B8B6B8"/><path d="M1666.71 805.673a1.12 1.12 0 01.68-1.021 1.114 1.114 0 011.21.239 1.12 1.12 0 01.24 1.205c-.09.202-.23.375-.41.496-.18.122-.39.187-.61.187a1.11 1.11 0 01-.79-.321c-.1-.103-.18-.225-.24-.36a1.228 1.228 0 01-.08-.425zm-16.5-.165c0-.219.06-.432.18-.614a1.112 1.112 0 011.14-.47 1.136 1.136 0 01.87.868c.04.215.02.437-.07.639-.08.202-.22.375-.4.496a1.113 1.113 0 01-1.4-.137 1.093 1.093 0 01-.32-.782zm-15.81.165c0-.219.06-.432.18-.614a1.112 1.112 0 011.14-.47 1.136 1.136 0 01.87.868c.04.215.02.437-.07.639-.08.202-.22.375-.4.496-.19.122-.4.187-.62.187-.14.001-.29-.027-.42-.082a1.014 1.014 0 01-.36-.239.935.935 0 01-.24-.36 1.033 1.033 0 01-.08-.425z" fill="#B8B6B8"/><path fill-rule="evenodd" clip-rule="evenodd" d="M1596.64 810.125h5.53c.38-.006.75-.102 1.09-.282.33-.18.62-.438.83-.752l.48-.609c1.09-1.395.13-4.619-.26-8.349a6.836 6.836 0 010-2.387l2.83.186c.78-4.929 1.36-11.873 1.8-13.433.52-1.85 2.9-9.775 2.9-9.775l4.5-39.038c-2.91 1.322-11.88 0-14.01 12.668-1.62 9.61-8.98 43.161-10.7 48.834-.08.289.85.506.81.64-1.04 2.914-3.28 4.072-5.92 5.653-2.63 1.581-8.66 3.306-8.66 3.306s-2.18 3.1 5.55 3.038c8.75-.114 8.18-1.033 13.25-1.033l-.02 1.333z" fill="#B8B6B8"/><path clip-rule="evenodd" d="M1596.64 810.125h5.53c.38-.006.75-.102 1.09-.282.33-.18.62-.438.83-.752l.48-.609c1.09-1.395.13-4.619-.26-8.349a6.836 6.836 0 010-2.387l2.83.186c.78-4.929 1.36-11.873 1.8-13.433.52-1.85 2.9-9.775 2.9-9.775l4.5-39.038c-2.91 1.322-11.88 0-14.01 12.668-1.62 9.61-8.98 43.161-10.7 48.834-.08.289.85.506.81.64-1.04 2.914-3.28 4.072-5.92 5.653-2.63 1.581-8.66 3.306-8.66 3.306s-2.18 3.1 5.55 3.038c8.75-.114 8.18-1.033 13.25-1.033l-.02 1.333z" stroke="#B8B6B8" stroke-width=".17" stroke-miterlimit="3.86"/><path fill-rule="evenodd" clip-rule="evenodd" d="M1483.19 618.935a6.756 6.756 0 012.33 2.862c.44.806 2.45 4.133 2.51 5.518.06 1.734-.09 3.468-.45 5.166a4.04 4.04 0 00-.52 2.356c0 1.633-.26 3.689-.32 4.712-.06 1.317-.36 2.61-.9 3.813a24.322 24.322 0 00-1.43 3.369c.14.618.37 1.215.66 1.777.32.806 1.77 1.85 2.07 2.139.3.289 4.39 2.211 4.64 2.356.41.057.83.033 1.24-.072 0 0 1.7.94 1.79 1.746.34 1.908.8 3.795 1.36 5.652.58 1.448.99 2.956 1.24 4.495 0 .94-.15 2.645-.15 3.813 0 1.167-.23 1.694.21 2.573.63 1.128 1.1 2.334 1.41 3.585-.09.642.05 1.294.38 1.85.44.723 1.94 1.477 2 2.573.07 1.095.69 1.219.97 1.746.25.685.6 1.331 1.03 1.922.31.217.76.486.76.94 0 .455.55 1.116.89 2.139.2.901.58 1.751 1.12 2.501.57.661.76 1.167.38 1.167s-.26 1.674-.7 3.007c-.38.954-.82 1.886-1.3 2.79-.07.248-.43-.144-1.41-.434a19.84 19.84 0 01-2.2-.795c-.31-.145-2.85-2.646-3.55-2.873-.71-.227-1.65-.114-2.07-1.033a9.28 9.28 0 00-1.43-1.778 6.978 6.978 0 00-1.49-1.839 2.2 2.2 0 01-.74-.906 2.097 2.097 0 01-.15-1.16c0-.827-.45-1.674-.77-.29-.32 1.385-1.3 5.632-1.1 8.06.19 2.428 1.48 11.366 1.61 13.671.12 2.304.96 9.754.9 11.676-.07 1.922-.58 9.3-1.04 10.953-.2.82-.61 1.576-1.17 2.201-.31-.362-.45.3-.51.734s-.83 6.086-1.28 8.442c-.28 1.797-.15 3.633.38 5.373.26 1.085 1.43 5.487 1.75 6.53.32 1.044 1.34 3.245 1.28 3.979.08 1.05.27 2.089.58 3.099.12.589 1.68 4.712 1.55 6.386a9.323 9.323 0 01-.19 1.747c.05.597.22 1.177.51 1.705.6 1.112 1.06 2.296 1.36 3.523.26 1.116.28-.579.4 1.312.13 1.891 2.01 5.952 2.39 6.831.38.878 3.89 6.334 4.07 7.574.19 1.24 1.03 1.891 1.22 3.875.19 1.983 1.49 4.04 1.75 5.807.26 1.767.64 2.356.32 2.645-.32.289-.08.537.32 1.333.39.796 1.93 2.945 2.13 3.813a9.29 9.29 0 001.29 2.79c.26.227.26.444.26.806 0 .361-.6.609-.99 1.188-.38.579-3.57 1.819-4.42 2.18-.85.362-3.37 1.633-4.07 1.488-.25-.022-.49-.12-.68-.28-.2-.161-.34-.376-.4-.619a.847.847 0 01-.04-.417c.03-.14.08-.273.16-.389a15.302 15.302 0 01-1.43-3.368c-.06-.879-.25-2.212-.25-2.501 0-.289-.77-.362-.77-.362s-2.13-3.017-2.32-3.451a2.357 2.357 0 01-.13-1.116c-.11-.934-.36-1.849-.72-2.717-.32-.589-.38-1.943-.9-2.697a33.686 33.686 0 01-2.13-3.761c-.9-1.819-2.46-5.518-4.02-9.404-1.56-3.885-1.37-1.436-1.82-2.841a27.922 27.922 0 00-1.85-4.567c-.52-.739-.97-1.52-1.36-2.336-.2-.527-.26-.361-.52.445s-2.7 8.08-2.83 8.803c-.12.724-.72 2.139-1.17 2.212-.44.072-.25.444-.25.878s.38.341.32 1.457c-.04 1.058.03 2.118.2 3.162.06.32.38.951 1.69 2.211.83.888 1.76 1.679 2.77 2.356.63.362 2.25 1.478 2.38 1.994.16.426.29.861.39 1.302-.18.387-.44.725-.78.985-.34.259-.73.432-1.15.503a51.351 51.351 0 01-8.39-1.033c-.7-.362-1.03-1.653-1.22-2.48-.18-.827-.59-2.356-.91-2.428a3.49 3.49 0 00-1.86.144c-.72.29-1.16.951-1.61.806-.44-.144-1.88.073-2.7-.434-.83-.506-.86-.806-1.11-2.428-.25-1.622 0-3.162-.13-3.523-.14-.362-.39-.341-.39-.589 0-.248.2-3.762.32-4.485.13-.723 1.86-14.301 2.71-17.99.85-3.689 2.59-11.366 2.85-13.226.26-1.86 1.04-4.04 1.04-6.096 0-2.057.19-3.452.19-3.813 0-.362-.24-.734-.96-2.067a28.001 28.001 0 01-1.68-4.133c-.19-.662-.51-.879-.83-.879-.32 0-1.56.073-1.88-.216-.32-.29-2.45-1.623-2.89-1.995-.45-.372-.99-.723-.99-.723s-.18-.145-.5-.434c-.32-.289-1.09-.93-1.22-1.385-.14-.454-.7-.589-.19.868.52 1.457.95 1.85 1.27 2.801.32.95.1 1.963-.82 1.301-.92-.661-1.43-1.084-1.43-1.084s-.64-.217-1.22-.372-.97-.651-1.42-.651c-.46 0-.89 0-1.09-.321-.1-.152-.23-.278-.39-.367a1.123 1.123 0 00-.52-.139c-.26 0-.96-1.839-1.22-2.428s-.82-2.067-.82-2.067c-.54.217-1.12.455-1.18-.072-.06-.527-.89-2.604-1.04-3.255-.14-.651-.2-.879-.72-.734-.52.145-.32-.868-.32-1.229 0-.362-.83-6.345-.89-7.502-.06-1.158-.88-4.423-1.03-5.663-.16-1.24-2.07-9.651-2.07-11.707 0-2.056-.12-8.866.12-11.459.23-2.594 1.63-10.137 1.63-11.594.02-1.749.28-3.486.76-5.167.36-1.051.56-2.153.58-3.265.17-1.239.57-2.437 1.17-3.534a14.34 14.34 0 001.12-5.166c0-1.457.86-3.524 1.51-3.658a6.264 6.264 0 011.67.062c.34 0 4.22-2.16 5.43-2.47a44.783 44.783 0 005.38-2.635l.33-.547s.75-.837 1.23-1.302a29.95 29.95 0 001.73-2.284c.34-.455.68-.682.95-.682.27 0 .55-.238.82-.775.27-.537.54-.858.88-.858.34 0 .55-.227.55-1.229s-.35-1.168-.69-1.788a4.568 4.568 0 01-.87-2.717c.07-1.302.47-2.718.2-3.328-.27-.609-.26-1.312 0-1.539a3.29 3.29 0 00.4-2.17c-.07-1.033-.33-6.593 1.37-8.06 1.69-1.467 4.74-3.245 6.45-3.317 1.86-.09 3.71.224 5.44.92z" fill="#B8B6B8"/><path fill="#C4C4C4" d="M0 798h2500v8H0z"/><path fill-rule="evenodd" clip-rule="evenodd" d="M2285.5 833.594c.35-7.459 1.25-13.809 1.96-17.744 1.1-6.051 3.86-16.976 4.78-21.107.92-4.13 3.3-11.103 3.3-11.103s-2.47-2.296-3.85-3.397c-.85-.675-5.12-.521-5.59.017l-10.1-26.441 10.58-1.571 5.84-1.058s-.6-2.415-.6-4.532-.3-16.626.6-22.668c.91-6.043 1.67-10.319 3.96-12.478 2.3-2.16 5.43-4.072 7.59-4.882 2.16-.811 6.75-1.622 8.8-1.759 2.05-.136 5-3.644 6.61-5.009 1.62-1.375 1.9-.811 1.9-2.697 0-1.887-1.09-1.887-2.3-2.698-1.21-.81-2.29-4.045-4.19-6.23-1.89-2.176-2.02-6.205-2.02-9.2 0-2.988-.54-3.645-.68-4.993-.13-1.349-1.23-2.16-1.63-3.107-.41-.947-2.86-.12.38-9.747 3.25-9.627 7.03-8.979 12.78-14.714 0 0 1.69-1.22 2.52-2.048.83-.828 2.76-1.648 5.23-1.374 2.48.273 5.61 1.101 6.16 3.029.54 1.929-.56 2.749 0 4.225.54 1.477 1.93 2.748 4.13 7.426 2.2 4.677 2.3 9.448 3.68 11.376 1.37 1.929.83 4.225-.28 5.872-1.1 1.648-1.79 5.761-2.43 6.862-.65 1.101-1.79.393-2.62.939-.83.555-1.1 2.202-1.1 5.505s1.37 10.003 3.86 12.581c2.47 2.577 2.85 2.202 6.42 4.131 3.58 1.928 5.06 1.374 9.19 1.928 4.13.547 8.91 6.427 10.28 14.228 1.38 7.801 2.48 34.686 2.76 46.89.27 12.205-1.66 14.126-2.76 16.43-1.1 2.296-2.47 2.202-5.6 0-3.13-2.202-6.89-4.498-9.37-5.872-2.47-1.374-3.12-1.929-2.85-.555.28 1.374.28 3.303 2.48 5.872 2.2 2.578 2.3 7.152 3.12 10.276.83 3.124 1.1 3.849 0 4.131-1.1.273-2.2.828-1.37 3.576.71 2.356 2.62 21.627 3.33 31.699h-72.9v-.009z" fill="#A4A4A4"/><path fill="#fff" d="M0 803h2500v577H0z"/><path fill-rule="evenodd" clip-rule="evenodd" d="M2445.44 798.945s-70.19 1.339-70.5-.119c-.33-1.447-2.74-16.54-3.39-20.066-.64-3.526-5.79-25.844-5.79-27.77 0-1.937-1.58-3.526-4.98-3.526-3.38 0-9.02 2.144-10.57 2.242-1.54.098-10.08 1.839-13.97 2.416-3.88.576-11.83.381-12.81-.098-.97-.479-5.52-2.819-6.49-3.199-.97-.392-4.56-1.165-5.14-1.839-.57-.675-16.96-7.955-18.82-8.63-1.85-.674-2.13-.968-2.42-1.936-.29-.969-1.07-5.333-1.07-6.399 0-1.066.1-1.948-.09-2.329-.2-.391-1.37-1.349-2.15-2.122-.77-.772-.77-1.349-.77-1.643 0-.293.2-1.175.48-2.045.29-.871-.29-1.165-1.07-1.644-.77-.478-4.85-3.199-5.53-3.786-.67-.577-3.68-3.689-4.75-4.658-1.07-.968-2.13-1.839-2.51-2.415-.4-.577-.41-2.427 0-2.917.4-.479.57-1.349.57-1.937 0-.576 1.17-1.752 1.94-2.143.77-.381.67-1.643.77-2.22.1-.577 1.26-1.643 1.95-1.741.69-.098.77-1.273 1.07-1.85.29-.577-.4-.577-1.45-1.164-1.07-.577-1.56-1.35-2.34-1.937-.77-.577-2.32-.882-3.98-2.144-1.66-1.251.29-2.808 2.04-2.035 1.75.773 3.39 1.164 3.78 1.447.39.294 2.04.479 2.91.969.88.479 3.5 2.143 4.37 2.143.87 0 2.61 1.067 4.08 2.416 1.46 1.349 3.29 4.07 3.87 4.745.58.674 1.6 7.769 2.6 9.38 1 1.61 2.81 2.404 3.74 3.329.92.925 1.8 1.208 1.8 1.208s1.21 1.001 3.14 2.209c1.92 1.208 4.41 2.731 5.13 2.927.72.196 3.82.806 5.35 1.404 1.52.599 4.22 1.404 6.55 1.404 2.32 0 6.14.196 7.34 1.121 1.21.925 1.52 1.208 2.33 1.001.81-.196 4.05.087 6.34-1.219 2.3-1.317 5.48-3.819 7.45-6.333 1.97-2.514 1.86-2.296 1.52-3.939-.33-1.643.99-5.681 1.64-7.324.66-1.643.99-3.819 3.5-5.789 2.51-1.969 3.28-2.513 5.47-4.483 2.19-1.97 4.81-4.157 8.42-6.453 3.62-2.296 6.88-6.561 7.36-6.975.48-.413.63-.577.63-.914 0-.337-.38-3.417-.44-4.222-.04-.805-.04-.675.15-.871.19-.195.19-.195.04-.674-.14-.479-1.19-2.394-1.38-2.96-.2-.577-1.91-3.33-2.29-4.277-.38-.957-2.1-3.416-3.14-3.993-1.05-.577-2.37-1.143-4.19-1.621-1.81-.479-2.57-1.992-2.57-3.613 0-1.622-.1-1.622-.76-3.417-.67-1.806-.76-4.277-1.62-6.181a6.729 6.729 0 01-.29-4.853c.38-1.143.29-2.002.58-3.145.28-1.142.2-1.991-.76-3.417-.96-1.425-.86-2.949-.96-3.417-.1-.478.76-1.523 1.34-2.002.58-.478 1.52-2.753 2-3.232.48-.478-.28-.663-.76-1.523-.48-.86-.66-2.47-.38-3.134.28-.664.38-1.621.38-2.383s.1-2.187.86-2.753c.76-.577.38-.762.96-1.621.57-.86 1.52-1.241 2.18-1.339.67-.098 1.82-.5 2.78-2.361.97-1.872 2.73-3.45 4.28-3.167 1.54.283 2.26-.185 2.98-.435.72-.25 1.77-.435 2.73 0 .97.435 1.54.435 2.4.435.86 0 1.92.86 2.89 1.012.97.142 5.04 1.73 5.71 1.73.67 0 .67.283 1.69.719 1.01.435 4.13 2.981 4.99 3.406.86.435 2.45.859 3.03 1.577.57.719 1.82 1.154 3.12 4.125 1.24 2.84.72 4.994 1.29 5.854.58.86 1.55 3.308 1.69 5.419.14 2.111.97 6.105.28 7.247-.67 1.154-1.82 2.492-1.97 3.602-.14 1.11-.43 5.669-.43 7.247 0 1.578-1.01 2.916-1.3 3.602-.28.675 0 1.828 0 2.405 0 .577 1.44 2.056 1.88 2.731.43.675 2.98 2.111 3.99 1.828 1.01-.283 2.4-.576 3.99-.283 1.59.283 3.82.914 5.22 1.154 1.39.228 5.82.468 7.7.468s3.28-.164 5.36-.011c17.44 1.284 30.71 30.73 32.82 30.501l-13.62 103.223z" fill="#A4A4A4"/><path fill-rule="evenodd" clip-rule="evenodd" d="M2365.83 802c-4.97-3.511-4.98-9.653-4.98-13.699 0-5.952 9.15-8.488 17.04-8.816 7.89-.328 32.76-.638 32.53-2.312-1.65-12.784 8.49-47.618 11.48-63.646 3.96-21.325 7.83-21.325 13.45-22.317 5.63-.992 5.9.328 7.89 0 1.98-.328 68.04-5.9 69.65-6.556 1.6-.664 3.53-.914 6.8-1.139 7.99-.552 11.24 12.276 7.65 23.456-4.31 13.423-8.55 27.225-16.76 47.558-8.22 20.332-5.9 28.545-4.58 38.405.49 3.649.43 6.616-.18 9.075h-139.99V802z" fill="#A4A4A4"/></g><defs><clipPath id="clip0"><path fill="#fff" d="M0 0h2500v960H0z"/></clipPath><clipPath id="clip1"><path fill="#fff" transform="translate(387 553)" d="M0 0h153v247H0z"/></clipPath></defs></svg>