<svg width="2500" height="960" fill="none" xmlns="http://www.w3.org/2000/svg"><g clip-path="url(#clip0)"><path fill="#E3E3E4" d="M0 806h2500v516H0z"/><path fill-rule="evenodd" clip-rule="evenodd" d="M1444.07 636.77l1.95 74.995-49.82-.925-1.58-76.152 49.45 2.082z" fill="#CECECE"/><path fill-rule="evenodd" clip-rule="evenodd" d="M1444.57 636.27l1.94 74.995-49.81-.925-1.59-76.152 49.46 2.082z" fill="#E1E1E1"/><path d="M1397.18 637.766h47.28v70.909h-47.28v-70.909z" fill="#ECECEC"/><path fill-rule="evenodd" clip-rule="evenodd" d="M1445.16 635.081a.726.726 0 00-.69-.728L1395.22 633a.707.707 0 00-.27.043.783.783 0 00-.23.144.886.886 0 00-.16.223 1.17 1.17 0 00-.06.266l.13 3.426c0 .093.02.186.05.273a.59.59 0 00.15.235c.06.067.14.122.23.16.08.037.17.058.27.06l48.96 1.336a.678.678 0 00.5-.188.689.689 0 00.22-.488l.15-3.409z" fill="#B4B4B4"/><path fill-rule="evenodd" clip-rule="evenodd" d="M1442.69 639.42l1.82.06c.1.004.19-.011.28-.045.1-.034.18-.086.25-.153a.762.762 0 00.17-.238.693.693 0 00.06-.284v-3.768a.76.76 0 00-.74-.771h-1.86l.02 5.199zm-45.51-6.546h-2a.676.676 0 00-.28.044.645.645 0 00-.25.151.687.687 0 00-.23.516l.14 3.623a.72.72 0 00.21.535c.13.144.32.229.52.236l2 .077-.11-5.182z" fill="#CECECE"/><path fill-rule="evenodd" clip-rule="evenodd" d="M1441.33 635.685a.541.541 0 00-.19-.373.567.567 0 00-.4-.132l-41.83-1.131a.558.558 0 00-.41.105.56.56 0 00-.21.358v2.107a.57.57 0 00.19.375c.06.047.12.083.19.105.07.022.14.031.21.025l41.87 1.182c.14.019.29-.018.4-.105a.52.52 0 00.21-.358l-.03-2.158z" fill="#D9D9D9"/><path fill-rule="evenodd" clip-rule="evenodd" d="M1398.32 685.754l2.43-.549c.97-.256 1.95-.459 2.94-.608.27 0 .36-.325.36-1.07v-3.529c-.2.073-.38.184-.54.325-.29.269-.61.512-.95.728-.15.095-.24-.12-.52-.856a22.27 22.27 0 01-.7-3.332c0-.42.04-.838.12-1.25 0 0 .26-.437-.64-.052-.7.3-1.72.771-2.71 1.165l.21 9.028z" fill="#F9FAFB"/><path fill-rule="evenodd" clip-rule="evenodd" d="M1397.26 695.724l-1.32-.042c-.28 0-.5.291-.49.702l.15 3.614c0 .412.22.763.5.788l1.31.095-.15-5.157z" fill="#809EB8"/><path fill-rule="evenodd" clip-rule="evenodd" d="M1401.31 676.642s.22.934.38 1.824c.08.398.24.774.48 1.102.23.328.54.601.89.8.49.163.96-.368.96-.368.14 0 1.4-.043 2.15-.129.75-.086 1.45-.111 1.81-.625.36-.514 1.29-1.182 1.33-1.585.05-.402.3-.385.48-.608.18-.223.53-.796.53-.796l-.18-.583s.09-.514.27-.608c.18-.094.18-.668.13-.856-.05-.189.05-.309.23-.531.18-.223.04-.514 0-1.054a1.407 1.407 0 00-.24-.619c-.12-.185-.29-.34-.48-.452-.35-.265-.32 0-.53 0-.21 0-.21 0-.43-.128s-.78.128-1.33.351c-.55.331-1.15.574-1.77.72-.79.085-1.58.06-1.85.351-.26.291-1.54 1.413-1.94 1.807-.27.294-.53.603-.77.925l-.12 1.062z" fill="#F9FAFB"/><path fill-rule="evenodd" clip-rule="evenodd" d="M1413.11 667.37c-.86.857-3.35 3.932-3.57 4.283-.23.351.24.539.24.539s3.43-4.282 3.62-4.582c.19-.3.57-1.105-.29-.24z" fill="#F9FAFB"/><path fill-rule="evenodd" clip-rule="evenodd" d="M1382.1 655.262c-.37.917-.21.917-1.07.163-.85-.754-3.28-3.169-4.07-3.709a14.18 14.18 0 01-2.2-2.449c-.37.317-.71.676-1.01 1.07a.287.287 0 00-.08-.097.24.24 0 00-.13-.037c-.04 0-.09.013-.12.037a.227.227 0 00-.09.097 9.47 9.47 0 01-1.45 1.713c-.35.24-.44.351-.35.471.1.12-.25.069-.73.24-.48.171-3.15 2.03-4.29 2.304-.66.196-1.35.311-2.05.343-.56.098-1.07.36-1.47.752a2.75 2.75 0 00-.8 1.449c-.34 1.567-1.92 7.374-2.06 8.565-.04.804-.13 1.605-.27 2.398-.14.351-1.58 6.638-1.64 7.606-.07.968-.64 5.079.4 6.715a70.502 70.502 0 002.2 3.254c.49.522 1.02 1.004 1.59 1.439.46.274-.07 8.154-.49 10.484-.42 2.329-.13 9.053-.13 10.415 0 1.362-.4 2.201.62 2.338s6.36.531 6.36.531.09 2.484.23 3.349c.14.865.85 4.711.59 6.629a43.185 43.185 0 00-.07 4.959c-.07.788-.26 5.49-.32 6.356-.06.865-.14 48.726-.14 48.726l15.63-4.24s1.59-53.154 2.06-55.21c.46-2.055 1.39-6.68 1.59-8.077.2-1.396-.11-2.483.27-2.483.39 0 .92-.197 1.32.137s.67.376.67-.805c0-1.182.32-13.893-.23-16.462-.55-2.57-.39-8.428-.39-8.428s7.94-1.756 9.61-2.142c.97-.26 1.95-.465 2.94-.616.27 0 .36-.326.36-1.062v-3.529s1.36-.043 2.17-.137c.8-.094 1.44-.103 1.8-.625.36-.523 1.3-1.182 1.34-1.585.04-.402.29-.377.47-.599.18-.223.53-.805.53-.805l-.18-.583s.1-.514.28-.599c.18-.086.18-.668.13-.857-.06-.188.05-.317.22-.54.17-.222.05-.513 0-1.044-.03-.223-.1-.436-.23-.622-.12-.186-.29-.34-.48-.449-.36-.266-.33 0-.53 0-.21 0-.21 0-.43-.137-.23-.137-.78.137-1.34.36-.54.331-1.14.572-1.76.711-.79.085-1.59.059-1.86.359-.28.3-1.53 1.405-1.94 1.807-.28.3-.55.62-.79.96 0 0 .32-.488-.62-.086-.94.403-2.5 1.139-3.7 1.542-1.09.407-2.22.694-3.38.856-.23-.007-.46.052-.66.17-.2.119-.37.291-.47.498-.16.176-.34.317-.56.414-.21.098-.44.149-.67.152-.18.016-.37-.014-.54-.086a6.38 6.38 0 00-.08-1.901c-.18-1.808-.7-7.435-1.33-9.293a10.585 10.585 0 01-.76-3.726c-.12-1.713-.47-2.57-1.48-3.212-1.01-.642-2.36-1.353-2.62-2.236-.27-.849-.44-1.73-.5-2.62.01-.189.01-.377 0-.566a4.73 4.73 0 00-.82 1.285z" fill="#E3E3E4"/><path fill-rule="evenodd" clip-rule="evenodd" d="M1376.09 650.968c.64.651 1.61 1.551 3.12 2.844s2.57 2.201 2.73 1.987c.16-.214.9-1.824.9-1.824-.11-1.816-.15-1.816.67-1.927.81-.112 2.23-.506 2.49-1.611.26-1.105 1.11-3.503 1.23-4.222.12-.72.56-1.139.56-1.568 0-.428-.08-1.293-.08-1.464 0-.171-.23-.394.08-.565.31-.172.48-.155.48-.523a6.91 6.91 0 00-.18-.899c0-.223 0-.351.33-.523.34-.171.27-.599.27-1.464s.21-.626.44-1.396c.21-.652.18-1.359-.1-1.987a2.608 2.608 0 00-.94-1.2.855.855 0 00-.6-.111 6.349 6.349 0 00-2.26-1.953c-.7-.145-2.49-.719-3.92-.368-1.43.351-3.29.223-4.65 1.936a7.98 7.98 0 00-1.85 4.111 8.92 8.92 0 00.21 2.124 1.892 1.892 0 00-.42 1.499c.07 1.045.28 2.698.63 2.912.36.214.6.06.6.231s-.06 3.426-.18 3.769c-.11.245-.27.464-.48.642 0 0 .69-.685-.13-.334-.1.043-.19.098-.28.163.4.609.84 1.185 1.33 1.721z" fill="#E3E3E4"/><path d="M1383.09 656.205a9.008 9.008 0 01-.25-1.713c0-.685-.08-1.173-.09-1.524" stroke="#E3E3E4" stroke-width=".07" stroke-miterlimit="3.86"/><path fill-rule="evenodd" clip-rule="evenodd" d="M1400.16 675.072s.21.943.38 1.825c.07.403.24.784.48 1.115.24.332.55.606.91.803.48.154.95-.368.95-.368.15 0 1.4-.051 2.16-.137.76-.086 1.45-.103 1.81-.625.36-.523 1.29-1.182 1.33-1.585.05-.402.3-.377.48-.599.18-.223.53-.805.53-.805l-.18-.583s.09-.514.27-.599c.18-.086.18-.668.13-.857-.05-.188.05-.317.22-.54.17-.222.05-.513 0-1.044a1.38 1.38 0 00-.22-.622c-.13-.186-.29-.34-.49-.449-.36-.266-.32 0-.53 0-.21 0-.21 0-.43-.137s-.78.137-1.33.36c-.55.331-1.15.572-1.77.711-.79.085-1.58.059-1.86.359-.27.3-1.53 1.405-1.93 1.807-.28.291-.53.6-.77.925l-.14 1.045z" fill="#E3E3E4"/><path fill-rule="evenodd" clip-rule="evenodd" d="M1400.28 674.029s.26-.446-.65-.052-2.5 1.139-3.7 1.542c-1.09.407-2.22.694-3.38.856-.23-.007-.46.052-.66.17-.2.119-.37.291-.48.498a1.639 1.639 0 01-1.22.566c-.18.008-.35-.019-.51-.077 0 0 .18 2.483.16 3.074-.03.591.22 4.394.22 4.617-.01.196-.03.391-.08.582.26-.06 7.98-1.764 9.61-2.141.97-.26 1.95-.466 2.94-.617.28 0 .36-.325.36-1.062v-3.528c-.19.067-.37.175-.52.317-.3.268-.62.514-.95.736-.16.086-.25-.12-.52-.856a21.112 21.112 0 01-.71-3.332c-.01-.433.02-.866.09-1.293z" fill="#E3E3E4"/><path d="M1388.83 711.363a1.34 1.34 0 011.1.145c.41.326.67.377.67-.805s.32-13.901-.23-16.47c-.55-2.57-.39-8.428-.39-8.428" stroke="#E3E3E4" stroke-width=".07" stroke-miterlimit="3.86"/><path fill-rule="evenodd" clip-rule="evenodd" d="M1379.55 731.136l5.14-1.396s1.59-5.765 2.05-7.82c.47-2.056 1.4-6.681 1.6-8.077.19-1.396-.11-2.484.27-2.484h.22s-.51-2.441-1.33-2.509c-.82-.069-2.36 1.653-2.66 2.509a29.93 29.93 0 01-1.24 3.426 28.038 28.038 0 00-1.91 5.85 35.6 35.6 0 01-1.46 5.85c-.35 1.53-.58 3.085-.68 4.651z" fill="#E3E3E4"/><path clip-rule="evenodd" d="M1379.55 731.136l5.14-1.396s1.59-5.765 2.05-7.82c.47-2.056 1.4-6.681 1.6-8.077.19-1.396-.11-2.484.27-2.484h.22s-.51-2.441-1.33-2.509c-.82-.069-2.36 1.653-2.66 2.509a29.93 29.93 0 01-1.24 3.426 28.038 28.038 0 00-1.91 5.85 35.6 35.6 0 01-1.46 5.85c-.35 1.53-.58 3.085-.68 4.651v0z" stroke="#E3E3E4" stroke-width=".07" stroke-miterlimit="3.86"/><path fill-rule="evenodd" clip-rule="evenodd" d="M1374.59 651.554c.37.454 1.46 1.945 1.87 2.63.41.685 2.35 4.933 3.02 6.415.68 1.482 1.76 4.051 1.76 4.051s-.11-1.447-.16-2.141c-.04-.694 0-1.216 0-1.636a1.869 1.869 0 00-.33-.784c-.17-.231-.4-.42-.65-.552-.57-.334-.96-.617-.77-.771.19-.154 2.06-1.216 2.71-1.602.65-.385.77.531.77.531.18-.521.3-1.061.36-1.61-.08-.231-.3-2.398-.34-3.006-.03-.608-.08.677-.38 1.327a9.69 9.69 0 01-.85 1.414 13.55 13.55 0 01-1.49-1.405c-.69-.771-3.68-3.743-4.52-4.402-.84-.66-.39-.591-.39-.591s.6-.643-.15-.317c-.5.331-.94.749-1.29 1.233.26.42.53.826.83 1.216z" fill="#fff"/><path fill-rule="evenodd" clip-rule="evenodd" d="M1375.59 640.195c.3-.086.5.317.59.711.08.394.42.128.63.436.21.309.39.814.69.771.3-.043.62.172.58-.265a4.167 4.167 0 010-1.859c.21-.342.13-.933.55-1.028.42-.094.73-.428 1.56-.959.83-.531 1.29-.411.81-.043-.48.369-.86.96-.26.617.86-.492 1.74-.938 2.64-1.336a15.82 15.82 0 013.8-.437c.86-.043.57.608.7 1.028.12.419.3.351.35.702.04.351-.07 2.33-.07 2.33.07-.088.16-.16.26-.214.31-.18.27-.6.27-1.465 0-.865.21-.625.44-1.396.21-.652.18-1.358-.1-1.987a2.605 2.605 0 00-.94-1.199c-.21-.166-.41-.35-.6-.548-.12-.586-.4-1.13-.79-1.58-.4-.45-.9-.791-1.47-.99a7.346 7.346 0 00-3.92-.368c-1.43.342-3.29.223-4.65 1.936a10.761 10.761 0 00-1.85 5.216c-.02.71.05 1.42.2 2.115 0 0 .23-.111.58-.188zm7.94 21.386c-.13-.446-.55-1.088-.58-1.276-.03-.189 0-1.474-.06-2.099-.06-.625 0-1.173-.51-1.13-.66.172-1.28.462-1.84.856-.69.411-1.61.745-1.22 1.002.59.408 1.13.898 1.58 1.456.09.257.26 2.801.3 3.272-.01.392.01.785.06 1.173.11.275 1.83 4.865 1.83 5.054 0 .188 1.13 2.629 1.24 3.366.11.736-.46 11.64-.52 11.991-.06.351 0 3.349 0 3.349l3.98 3.854s.2.745.38-1.867c.17-2.613-.72-7.101-.78-8.18-.05-1.079-.79-5.507-.79-6.586a36.645 36.645 0 00-1.42-6.467c-.5-1.541-1.65-7.768-1.65-7.768zm17.85 18.58c.23.748.51 1.476.86 2.176.05.107.14.194.25.245a.57.57 0 00.36.037 3.54 3.54 0 000-.651v-3.529c-.2.068-.38.176-.53.317-.28.26-.59.497-.91.711-.03.23-.04.462-.03.694z" fill="#E3E3E4"/><path clip-rule="evenodd" d="M1401.38 680.161c.23.748.51 1.476.86 2.176.05.107.14.194.25.245a.57.57 0 00.36.037 3.54 3.54 0 000-.651v-3.529c-.2.068-.38.176-.53.317-.28.26-.59.497-.91.711-.03.23-.04.462-.03.694z" stroke="#E3E3E4" stroke-width=".07" stroke-miterlimit="3.86"/><path fill-rule="evenodd" clip-rule="evenodd" d="M1375.83 644.959c.1 0 .36.068.56-.086.2-.154.31-.094 0 .128-.31.223-.57.377-.56.257.01-.099.01-.2 0-.299z" fill="#888"/><path fill-rule="evenodd" clip-rule="evenodd" d="M1411.95 665.805c-.85.857-3.35 3.94-3.57 4.283-.22.342.25.539.25.539s3.43-4.282 3.61-4.591c.19-.308.58-1.096-.29-.231zm-23.38 27.878c.09.385.13 6.552.13 7.469 0 .916.6 8.042.73 8.941.13.9.43 1.131-.13 1.217-.56.085-.77-.086-.86.685-.08.771-.38.385-1.51.771-1.13.385-1.07.616-.48-1.114.6-1.73 1.03-3.383.69-4.625-.34-1.242-.39-1.302.17-2.424.49-1.05.68-2.214.56-3.366-.04-1.293-.26-6.432-.26-6.432.05-.437.21-.854.47-1.208.45-.437.4-.3.49.086zm-3.25 14.895c-.12.788-1.26 4.334-1.38 5.19-.13.857.48 0 .74-1.13.18-.677.47-1.32.86-1.902.34-.77 0-.933 0-1.456 0-.522-.09-1.481-.22-.702zm-4.91 18.289c.44-.724.77-1.513.96-2.338.24-1.156.54-2.398.78-3.221.24-.822 1.71-2.569 1.27-2.149-.43.419-.76.454-.35-1.182.41-1.636 1.17-3.204.86-2.792a2.99 2.99 0 01-.86.719 25.777 25.777 0 00-1.42 4.711 23.26 23.26 0 01-.96 4.282c-.33.9-.45 2.364-.28 1.97z" fill="#E3E3E4"/><path fill-rule="evenodd" clip-rule="evenodd" d="M1400.54 676.891c.07.404.24.787.48 1.12.24.333.55.609.91.807a.71.71 0 00.26 0c-.06.235-.18.452-.34.634-.14.137-.28.265-.43.385 0 0-.39-.959-.52-1.49-.14-.531-.36-1.456-.36-1.456z" fill="#fff"/><path fill-rule="evenodd" clip-rule="evenodd" d="M1450.83 785.201c-.09-4.389.26-8.776 1.04-13.096.54-2.989 1.9-8.385 2.36-10.423.45-2.039 1.63-5.482 1.63-5.482s-1.22-1.139-1.91-1.713a4.37 4.37 0 00-2.75 0l-4.99-13.053 5.23-.779 2.87-.523c-.17-.732-.27-1.482-.3-2.235 0-1.045-.14-8.214.3-11.195.45-2.98.86-5.139 1.96-6.166a12.494 12.494 0 013.74-2.407 20.81 20.81 0 014.35-.857c1-.06 2.46-1.798 3.26-2.475.81-.677.94-.394.94-1.328 0-.933-.53-.933-1.13-1.336-.6-.402-1.14-2.004-2.08-3.075-.93-1.07-.99-3.066-.99-4.548-.02-.831-.13-1.658-.33-2.466-.07-.66-.62-1.062-.82-1.533-.19-.471-1.41-.052.19-4.814 1.6-4.762 3.48-4.428 6.31-7.263.43-.311.85-.648 1.25-1.011.35-.287.77-.496 1.21-.613.44-.116.9-.138 1.36-.063 1.22.137 2.76.539 3.04 1.49.27.951-.28 1.362 0 2.09.27.728.95 1.353 2.03 3.666 1.09 2.312 1.14 4.668 1.82 5.618.27.442.41.955.38 1.473a2.49 2.49 0 01-.52 1.431c-.54.814-.85 2.843-1.2 3.426-.36.582-.86.188-1.29.462-.43.274-.55 1.088-.55 2.715 0 1.628.68 4.942 1.9 6.219 1.23 1.276 1.42 1.079 3.18 2.038 1.77.959 2.49.677 4.53.951 2.04.274 4.4 3.169 5.08 7.023.69 3.854 1.22 17.13 1.35 23.125.14 5.996-.81 6.981-1.35 8.111-.54 1.131-1.22 1.088-2.76 0-1.55-1.087-3.43-2.218-4.63-2.903-1.2-.685-1.54-.951-1.4-.266a4.975 4.975 0 001.22 2.904c1.09 1.268 1.13 3.529 1.54 5.07.41 1.542.54 1.902 0 2.039-.54.137-1.09.411-.67 1.764.41 1.354 1.62 14.15 1.76 17.73 0 .488.09 1.267.19 2.261l-36.35.017z" fill="#E3E3E4"/><path clip-rule="evenodd" d="M1450.83 785.201c-.09-4.389.26-8.776 1.04-13.096.54-2.989 1.9-8.385 2.36-10.423.45-2.039 1.63-5.482 1.63-5.482s-1.22-1.139-1.91-1.713a4.37 4.37 0 00-2.75 0l-4.99-13.053 5.23-.779 2.87-.523c-.17-.732-.27-1.482-.3-2.235 0-1.045-.14-8.214.3-11.195.45-2.98.86-5.139 1.96-6.166a12.494 12.494 0 013.74-2.407 20.81 20.81 0 014.35-.857c1-.06 2.46-1.798 3.26-2.475.81-.677.94-.394.94-1.328 0-.933-.53-.933-1.13-1.336-.6-.402-1.14-2.004-2.08-3.075-.93-1.07-.99-3.066-.99-4.548-.02-.831-.13-1.658-.33-2.466-.07-.66-.62-1.062-.82-1.533-.19-.471-1.41-.052.19-4.814 1.6-4.762 3.48-4.428 6.31-7.263.43-.311.85-.648 1.25-1.011.35-.287.77-.496 1.21-.613.44-.116.9-.138 1.36-.063 1.22.137 2.76.539 3.04 1.49.27.951-.28 1.362 0 2.09.27.728.95 1.353 2.03 3.666 1.09 2.312 1.14 4.668 1.82 5.618.27.442.41.955.38 1.473a2.49 2.49 0 01-.52 1.431c-.54.814-.85 2.843-1.2 3.426-.36.582-.86.188-1.29.462-.43.274-.55 1.088-.55 2.715 0 1.628.68 4.942 1.9 6.219 1.23 1.276 1.42 1.079 3.18 2.038 1.77.959 2.49.677 4.53.951 2.04.274 4.4 3.169 5.08 7.023.69 3.854 1.22 17.13 1.35 23.125.14 5.996-.81 6.981-1.35 8.111-.54 1.131-1.22 1.088-2.76 0-1.55-1.087-3.43-2.218-4.63-2.903-1.2-.685-1.54-.951-1.4-.266a4.975 4.975 0 001.22 2.904c1.09 1.268 1.13 3.529 1.54 5.07.41 1.542.54 1.902 0 2.039-.54.137-1.09.411-.67 1.764.41 1.354 1.62 14.15 1.76 17.73 0 .488.09 1.267.19 2.261l-36.35.017z" stroke="#E3E3E4" stroke-width=".51" stroke-miterlimit="3.86"/><path fill-rule="evenodd" clip-rule="evenodd" d="M1474.13 760.503c.11.668.18 1.173.21 1.438.1 2.527-.13 5.056-.7 7.521-.55 2.175 1.66 13.361 2.22 16.872.56 3.512.86 11.597.56 13.465-.3 1.867-.24 5.635-.4 6.629-.12 1.144-.06 2.3.17 3.426.21.772.24 1.579.09 2.364-.14 1.242.86 2.672 2.05 3.794 1.19 1.122 3.64.42 4.37.36.52-.156.97-.489 1.27-.942.3-.452.42-.995.36-1.533-.23-1.208-.67-1.953-.86-2.793-.18-.839.63-1.284 2.4-1.199 1.78.086 4.11-1.216 4.6-1.259.49-.043.86-.36.49-2.783-.37-2.424-.9-14.561-1.46-18.218-.57-3.657-1.57-13.618-2-15.717-.17-.856-.49-6.201-.8-12.522l-12.57 1.097z" fill="#E3E3E4"/><path clip-rule="evenodd" d="M1474.13 760.503c.11.668.18 1.173.21 1.438.1 2.527-.13 5.056-.7 7.521-.55 2.175 1.66 13.361 2.22 16.872.56 3.512.86 11.597.56 13.465-.3 1.867-.24 5.635-.4 6.629-.12 1.144-.06 2.3.17 3.426.21.772.24 1.579.09 2.364-.14 1.242.86 2.672 2.05 3.794 1.19 1.122 3.64.42 4.37.36.52-.156.97-.489 1.27-.942.3-.452.42-.995.36-1.533-.23-1.208-.67-1.953-.86-2.793-.18-.839.63-1.284 2.4-1.199 1.78.086 4.11-1.216 4.6-1.259.49-.043.86-.36.49-2.783-.37-2.424-.9-14.561-1.46-18.218-.57-3.657-1.57-13.618-2-15.717-.17-.856-.49-6.201-.8-12.522l-12.57 1.097z" stroke="#E3E3E4" stroke-width=".47" stroke-miterlimit="3.86"/><path fill-rule="evenodd" clip-rule="evenodd" d="M1456.6 770.564c-.2 1.231-.59 2.423-1.15 3.538-1.09 1.952-1.46 5.584-2.48 8.034-1.02 2.449-3.67 20.016-4.16 21.729a56.651 56.651 0 00-.86 7.794 64.63 64.63 0 01-1.46 8.402 10.203 10.203 0 01-3.22 3.546c-1.03.617-.62 2.124-.5 2.492.12.369-.61 1.345.37 1.225.97-.12 4.94-.976 6.69-1.473 1.76-.497 1.35-2.484 1.35-3.34 0-.857 1.46-1.473 1.46-1.473l.12 4.205s.86.12.86-.368c0-.489.13-2.981.13-3.709 0-.728.12-1.105 1.1-.737.97.369 9.13.489 10.23.489 1.1 0 .99-2.364.99-4.197 0-1.833.48-3.426.6-7.058.12-3.631 2.01-17.909 2.13-20.359.12-2.449.73-9.866.85-13.335.13-1.821.39-3.63.77-5.413l-13.82.008z" fill="#E3E3E4"/><path clip-rule="evenodd" d="M1456.6 770.564c-.2 1.231-.59 2.423-1.15 3.538-1.09 1.952-1.46 5.584-2.48 8.034-1.02 2.449-3.67 20.016-4.16 21.729a56.651 56.651 0 00-.86 7.794 64.63 64.63 0 01-1.46 8.402 10.203 10.203 0 01-3.22 3.546c-1.03.617-.62 2.124-.5 2.492.12.369-.61 1.345.37 1.225.97-.12 4.94-.976 6.69-1.473 1.76-.497 1.35-2.484 1.35-3.34 0-.857 1.46-1.473 1.46-1.473l.12 4.205s.86.12.86-.368c0-.489.13-2.981.13-3.709 0-.728.12-1.105 1.1-.737.97.369 9.13.489 10.23.489 1.1 0 .99-2.364.99-4.197 0-1.833.48-3.426.6-7.058.12-3.631 2.01-17.909 2.13-20.359.12-2.449.73-9.866.85-13.335.13-1.821.39-3.63.77-5.413l-13.82.008z" stroke="#E3E3E4" stroke-width=".47" stroke-miterlimit="3.86"/><path fill-rule="evenodd" clip-rule="evenodd" d="M1485.63 737.796c-.27 1.901-.62 4.53-1.08 5.481-.47.951-.54 1.816.41 2.364.95.548 1.36 1.088 1.9 1.353.54.266.54-1.13.41-2.629-.13-1.499-.41-3.983-.68-5.756-.28-1.773-.68-2.715-.96-.813z" fill="#fff"/><path d="M1397.65 838.928v-1.216a.653.653 0 00-.18-.442.642.642 0 00-.45-.183h-.57c-.17 0-.33.066-.44.183a.62.62 0 00-.19.442v1.216h-.85c-.27-.27-.47-.593-.6-.95a2.644 2.644 0 01-.16-1.114v-.951c0-1.379.68-2.492 2.06-2.492h.95c1.38 0 2.06 1.113 2.06 2.492v.951c.03.377-.02.756-.15 1.112-.13.356-.33.68-.59.952h-.89z" fill="#E3E3E4"/><path d="M1397.65 838.928v-1.216a.653.653 0 00-.18-.442.642.642 0 00-.45-.183h-.57c-.17 0-.33.066-.44.183a.62.62 0 00-.19.442v1.216h-.85c-.27-.27-.47-.593-.6-.95a2.644 2.644 0 01-.16-1.114v-.951c0-1.379.68-2.492 2.06-2.492h.95c1.38 0 2.06 1.113 2.06 2.492v.951c.03.377-.02.756-.15 1.112-.13.356-.33.68-.59.952h-.89z" stroke="#E3E3E4" stroke-width=".51" stroke-miterlimit="3.86"/><path d="M1431.39 832.456v-.78a.61.61 0 00-.18-.442.637.637 0 00-.44-.183h-.58c-.16 0-.32.066-.44.183a.653.653 0 00-.18.442v.78h-.86a2.731 2.731 0 01-.59-.952 2.633 2.633 0 01-.15-1.113v-.95c0-1.379.67-2.493 2.05-2.493h.95c1.38 0 2.06 1.114 2.06 2.493v.976c.03.377-.02.756-.15 1.112-.12.356-.32.68-.59.952l-.9-.025z" fill="#E3E3E4"/><path d="M1431.39 832.456v-.78a.61.61 0 00-.18-.442.637.637 0 00-.44-.183h-.58c-.16 0-.32.066-.44.183a.653.653 0 00-.18.442v.78h-.86a2.731 2.731 0 01-.59-.952 2.633 2.633 0 01-.15-1.113v-.95c0-1.379.67-2.493 2.05-2.493h.95c1.38 0 2.06 1.114 2.06 2.493v.976c.03.377-.02.756-.15 1.112-.12.356-.32.68-.59.952l-.9-.025z" stroke="#E3E3E4" stroke-width=".51" stroke-miterlimit="3.86"/><path d="M1396.67 802.74a.619.619 0 01.62-.626h6.19c.17 0 .33.066.44.183.12.118.19.277.19.443v15.75c0 .083-.02.164-.05.24a.587.587 0 01-.14.203.502.502 0 01-.2.135.605.605 0 01-.24.048h-6.19a.642.642 0 01-.24-.048.699.699 0 01-.2-.135.587.587 0 01-.14-.203.648.648 0 01-.04-.24v-15.75z" fill="#E3E3E4"/><path d="M1396.67 802.74a.619.619 0 01.62-.626h6.19c.17 0 .33.066.44.183.12.118.19.277.19.443v15.75c0 .083-.02.164-.05.24a.587.587 0 01-.14.203.502.502 0 01-.2.135.605.605 0 01-.24.048h-6.19a.642.642 0 01-.24-.048.699.699 0 01-.2-.135.587.587 0 01-.14-.203.648.648 0 01-.04-.24v-15.75z" stroke="#E3E3E4" stroke-width=".51" stroke-miterlimit="3.86"/><path d="M1397.5 797.552a.67.67 0 01.18-.445.626.626 0 01.21-.135.571.571 0 01.24-.045h4.52a.619.619 0 01.62.625v6.569a.619.619 0 01-.62.626h-4.52a.571.571 0 01-.24-.046.564.564 0 01-.34-.339.661.661 0 01-.05-.241v-6.569z" fill="#E3E3E4"/><path d="M1397.5 797.552a.67.67 0 01.18-.445.626.626 0 01.21-.135.571.571 0 01.24-.045h4.52a.619.619 0 01.62.625v6.569a.619.619 0 01-.62.626h-4.52a.571.571 0 01-.24-.046.564.564 0 01-.34-.339.661.661 0 01-.05-.241v-6.569 0z" stroke="#E3E3E4" stroke-width=".51" stroke-miterlimit="3.86"/><path d="M1369.06 832.456v-.78a.653.653 0 00-.18-.442.642.642 0 00-.45-.183h-.57c-.16 0-.32.066-.44.183a.61.61 0 00-.18.442v.78h-.86a2.638 2.638 0 01-.75-2.065v-.95c0-1.379.68-2.493 2.06-2.493h.92c1.38 0 2.06 1.114 2.06 2.493v.976c.03.377-.02.756-.14 1.112-.13.356-.33.68-.6.952l-.87-.025z" fill="#E3E3E4"/><path d="M1369.06 832.456v-.78a.653.653 0 00-.18-.442.642.642 0 00-.45-.183h-.57c-.16 0-.32.066-.44.183a.61.61 0 00-.18.442v.78h-.86a2.638 2.638 0 01-.75-2.065v-.95c0-1.379.68-2.493 2.06-2.493h.92c1.38 0 2.06 1.114 2.06 2.493v.976c.03.377-.02.756-.14 1.112-.13.356-.33.68-.6.952l-.87-.025z" stroke="#E3E3E4" stroke-width=".51" stroke-miterlimit="3.86"/><path fill-rule="evenodd" clip-rule="evenodd" d="M1399.44 820.284c-11.32.292-22.54 1.516-26.2 3.315-2.23 1.096-2.96 1.713-3.22 4.497l-3.97.051c0-3.34.86-6.269 3.79-7.708 3.66-1.799 22.19-5.782 26.55-6.227l3.05 6.072z" fill="#E3E3E4"/><path clip-rule="evenodd" d="M1399.44 820.284c-11.32.292-22.54 1.516-26.2 3.315-2.23 1.096-2.96 1.713-3.22 4.497l-3.97.051c0-3.34.86-6.269 3.79-7.708 3.66-1.799 22.19-5.782 26.55-6.227l3.05 6.072z" stroke="#E3E3E4" stroke-width=".51" stroke-miterlimit="3.86"/><path d="M1398.62 818.696l3.42-4.47c4.36.445 22.9 4.428 26.55 6.226 2.78 1.371 3.71 4.129 3.78 7.298.33.51.49 1.108.46 1.713v.95a2.638 2.638 0 01-.75 2.064h-.86v-.779a.61.61 0 00-.18-.442.637.637 0 00-.44-.183h-.58c-.16 0-.32.066-.44.183a.61.61 0 00-.18.442v.779h-.92a2.722 2.722 0 01-.59-.952 2.477 2.477 0 01-.14-1.112v-.95c-.03-.673.18-1.334.59-1.867-.3-2.373-1.08-2.947-3.16-3.975-3.67-1.824-22.2-4.479-26.56-4.925z" fill="#E3E3E4"/><path d="M1429.34 832.456v-.78c0-.166.07-.325.18-.442a.642.642 0 01.45-.183h.57c.08 0 .16.016.24.047.07.032.14.078.2.136.06.058.11.127.14.203.03.076.04.157.04.239v.78h.86a2.638 2.638 0 00.75-2.065v-.95c0-1.379-.68-2.493-2.06-2.493h-.92c-1.37 0-2.05 1.114-2.05 2.493v.976c-.03.377.02.756.14 1.112.13.356.33.68.6.952l.86-.025z" stroke="#E3E3E4" stroke-width=".51" stroke-miterlimit="3.86"/><path clip-rule="evenodd" d="M1398.62 818.7c4.36.445 22.89 3.1 26.55 4.899 2.22 1.096 2.96 1.713 3.22 4.497l3.96.051c0-3.34-.85-6.269-3.78-7.708-3.66-1.799-22.19-5.782-26.55-6.227l-3.4 4.488z" stroke="#E3E3E4" stroke-width=".51" stroke-miterlimit="3.86"/><path d="M1386.21 823.332v-.779a.61.61 0 00-.18-.442.637.637 0 00-.44-.183h-.57c-.17 0-.33.066-.45.183a.653.653 0 00-.18.442v.779h-.86a2.716 2.716 0 01-.6-.949 2.645 2.645 0 01-.15-1.115v-.942c0-1.387.68-2.501 2.06-2.501h.95c1.38 0 2.06 1.114 2.06 2.501v.942c.03.377-.02.756-.15 1.112a2.46 2.46 0 01-.59.952h-.9z" fill="#E3E3E4"/><path d="M1386.21 823.332v-.779a.61.61 0 00-.18-.442.637.637 0 00-.44-.183h-.57c-.17 0-.33.066-.45.183a.653.653 0 00-.18.442v.779h-.86a2.716 2.716 0 01-.6-.949 2.645 2.645 0 01-.15-1.115v-.942c0-1.387.68-2.501 2.06-2.501h.95c1.38 0 2.06 1.114 2.06 2.501v.942c.03.377-.02.756-.15 1.112a2.46 2.46 0 01-.59.952h-.9z" stroke="#E3E3E4" stroke-width=".51" stroke-miterlimit="3.86"/><path fill-rule="evenodd" clip-rule="evenodd" d="M1383.01 817.4c0-3.049 1.76-6.167 6.9-5.782 6.42.471 9.13 1.431 9.13 1.431s-16.03 5.944-16.03 4.351z" fill="#E3E3E4"/><path d="M1419.63 824.13v-.779a.62.62 0 01.19-.442.602.602 0 01.44-.183h.57c.17 0 .33.066.45.183.11.117.18.276.18.442v.779h.85c.27-.27.47-.594.6-.95s.19-.736.16-1.114v-.951c0-1.379-.68-2.492-2.07-2.492h-.92c-1.38 0-2.06 1.113-2.06 2.492v.951c-.03.377.02.756.15 1.112.13.356.33.68.59.952h.87z" fill="#E3E3E4"/><path d="M1419.63 824.13v-.779a.62.62 0 01.19-.442.602.602 0 01.44-.183h.57c.17 0 .33.066.45.183.11.117.18.276.18.442v.779h.85c.27-.27.47-.594.6-.95s.19-.736.16-1.114v-.951c0-1.379-.68-2.492-2.07-2.492h-.92c-1.38 0-2.06 1.113-2.06 2.492v.951c-.03.377.02.756.15 1.112.13.356.33.68.59.952h.87z" stroke="#E3E3E4" stroke-width=".51" stroke-miterlimit="3.86"/><path fill-rule="evenodd" clip-rule="evenodd" d="M1412.36 816.426s2.57-.643 4.78-1.131c2.21-.488 1.79 1.456 1.79 3.204l4.34 1.635s.06-1.139.06-2.74c0-3.049-1.72-5.679-6.86-5.782-5.36.03-10.72.523-16 1.473l11.89 3.341z" fill="#E3E3E4"/><path clip-rule="evenodd" d="M1412.36 816.426s2.57-.643 4.78-1.131c2.21-.488 1.79 1.456 1.79 3.204l4.34 1.635s.06-1.139.06-2.74c0-3.049-1.72-5.679-6.86-5.782-5.36.03-10.72.523-16 1.473l11.89 3.341z" stroke="#E3E3E4" stroke-width=".51" stroke-miterlimit="3.86"/><path fill-rule="evenodd" clip-rule="evenodd" d="M1398.89 834.888c-.09-2.63.94-12.668 1.15-15.203.2-2.535-2.57-2.57-3.03-.994a60.237 60.237 0 00-2.34 16.008c.06 3.863 4.32 2.818 4.22.189z" fill="#E3E3E4"/><path clip-rule="evenodd" d="M1398.89 834.888c-.09-2.63.94-12.668 1.15-15.203.2-2.535-2.57-2.57-3.03-.994a60.237 60.237 0 00-2.34 16.008c.06 3.863 4.32 2.818 4.22.189z" stroke="#E3E3E4" stroke-width=".51" stroke-miterlimit="3.86"/><path d="M1398.14 794.566a.554.554 0 01.48-.626h3.52a.6.6 0 01.38.213c.09.117.13.265.11.413v6.569a.555.555 0 01-.11.413.595.595 0 01-.38.212h-3.52a.555.555 0 01-.48-.625v-6.569z" fill="#E3E3E4"/><path d="M1398.14 794.566a.554.554 0 01.48-.626h3.52a.6.6 0 01.38.213c.09.117.13.265.11.413v6.569a.555.555 0 01-.11.413.595.595 0 01-.38.212h-3.52a.555.555 0 01-.48-.625v-6.569z" stroke="#E3E3E4" stroke-width=".46" stroke-miterlimit="3.86"/><path d="M1396.06 778.864a.58.58 0 01.07-.256c.04-.079.09-.15.16-.208a.688.688 0 01.49-.162h7.21c.09-.007.18.004.26.032.09.027.16.072.23.13.07.058.12.129.17.208.04.08.06.167.07.256v15.742a.69.69 0 01-.73.625h-7.2a.678.678 0 01-.72-.625v-15.742h-.01z" fill="#E3E3E4"/><path d="M1396.06 778.864a.58.58 0 01.07-.256c.04-.079.09-.15.16-.208a.688.688 0 01.49-.162h7.21c.09-.007.18.004.26.032.09.027.16.072.23.13.07.058.12.129.17.208.04.08.06.167.07.256v15.742a.69.69 0 01-.73.625h-7.2a.678.678 0 01-.72-.625v-15.742h-.01z" stroke="#E3E3E4" stroke-width=".56" stroke-miterlimit="3.86"/><path d="M1398.14 818.318a.557.557 0 01.12-.411.569.569 0 01.37-.215h3.52c.14.022.28.099.37.215.09.117.13.264.12.411v6.577a.602.602 0 01-.12.411.59.59 0 01-.37.215h-3.52a.565.565 0 01-.37-.215.555.555 0 01-.12-.411v-6.577z" fill="#E3E3E4"/><path d="M1398.14 818.318a.557.557 0 01.12-.411.569.569 0 01.37-.215h3.52c.14.022.28.099.37.215.09.117.13.264.12.411v6.577a.602.602 0 01-.12.411.59.59 0 01-.37.215h-3.52a.565.565 0 01-.37-.215.555.555 0 01-.12-.411v-6.577 0z" stroke="#E3E3E4" stroke-width=".46" stroke-miterlimit="3.86"/><path d="M1424.52 793.462c.14-.428.39-.807.74-1.09.34-.284.76-.459 1.21-.503.58.071 1.11.347 1.5.777.4.431.62.987.64 1.57v.95c0 .269-.06.534-.17.78-.11.245-.27.466-.47.65-.19.184-.42.326-.68.419-.25.093-.52.134-.79.121a2.048 2.048 0 01-1.46-.53 2.068 2.068 0 01-.69-1.405h-2.38a.616.616 0 01-.41-.161.568.568 0 01-.2-.396h-1.65c-5.41-.12-5.88-.857-6.12-2.57-.24-1.713.65-2.201.85-.436.21 1.764.71 2.466 6.13 2.569h.75v-.128c0-.166.07-.325.18-.442a.639.639 0 01.45-.184l2.57.009z" fill="#E3E3E4"/><path clip-rule="evenodd" d="M1413.59 792.06c.24 1.765.71 2.467 6.12 2.57 5.41.103 6.93.12 6.93.12l.86-.446s-1.53 0-6.93-.12c-5.41-.119-5.89-.856-6.13-2.569-.24-1.713-1.08-1.31-.85.445z" stroke="#E3E3E4" stroke-width=".51" stroke-miterlimit="3.86"/><path d="M1421.35 794.092a.61.61 0 01.18-.442.637.637 0 01.44-.183h4.05a.63.63 0 01.44.186.65.65 0 01.18.439v.523a.65.65 0 01-.18.439.634.634 0 01-.44.186h-4.05a.637.637 0 01-.44-.183.613.613 0 01-.18-.442v-.523z" stroke="#E3E3E4" stroke-width=".51" stroke-miterlimit="3.86"/><path clip-rule="evenodd" d="M1424.37 794.252c0-.584.21-1.149.6-1.587.39-.439.92-.721 1.5-.794v0c.58.071 1.11.347 1.5.777.4.431.62.988.64 1.57v.951a1.973 1.973 0 01-.64 1.429c-.19.184-.42.326-.68.419-.25.093-.52.134-.79.122-.54.02-1.07-.175-1.48-.543-.4-.369-.64-.882-.67-1.427l.02-.917z" stroke="#E3E3E4" stroke-width=".51" stroke-miterlimit="3.86"/><path fill-rule="evenodd" clip-rule="evenodd" d="M1397.93 726.442c-4.03 0-18.84.317-19.84.335-.99.017-.65-.48-1.8-.48h-4.22c-.32 0-1.21 1.627-.97 5.139.25 3.511-.85 2.321-.68 5.507.17 3.186 3.18 24.684 3.18 28.564 0 2.09-2.25 16-2.25 20.642 0 2.569 4.22 5.079 7.75 5.601 2.68.386 13.98.728 21.19.857 7.21-.146 17.7-.488 20.27-.857 3.53-.522 7.71-3.006 7.71-5.601 0-4.642-2.24-18.552-2.24-20.642 0-3.88 3.01-25.386 3.18-28.564.17-3.177-.94-1.978-.69-5.507.26-3.529-.66-5.139-.96-5.139h-4.24c-1.15 0-.69.488-1.79.48-1.11-.009-15.82-.335-19.84-.335h-3.76z" fill="#E3E3E4"/><path clip-rule="evenodd" d="M1397.93 726.442c-4.03 0-18.84.317-19.84.335-.99.017-.65-.48-1.8-.48h-4.22c-.32 0-1.21 1.627-.97 5.139.25 3.511-.85 2.321-.68 5.507.17 3.186 3.18 24.684 3.18 28.564 0 2.09-2.25 16-2.25 20.642 0 2.569 4.22 5.079 7.75 5.601 2.68.386 13.98.728 21.19.857 7.21-.146 17.7-.488 20.27-.857 3.53-.522 7.71-3.006 7.71-5.601 0-4.642-2.24-18.552-2.24-20.642 0-3.88 3.01-25.386 3.18-28.564.17-3.177-.94-1.978-.69-5.507.26-3.529-.66-5.139-.96-5.139h-4.24c-1.15 0-.69.488-1.79.48-1.11-.009-15.82-.335-19.84-.335h-3.76z" stroke="#E3E3E4" stroke-width=".51" stroke-miterlimit="3.86"/><path fill-rule="evenodd" clip-rule="evenodd" d="M1427.78 764.124c0-.1.04-.196.11-.267.07-.07.17-.11.27-.11h1.83c.1 0 .2.04.27.11.07.071.11.167.11.267v21.849c0 .206-.16.523-.66.857l-1.55.856c-.25.12-.38-.171-.38-.377v-23.185z" fill="#E3E3E4"/><path clip-rule="evenodd" d="M1427.78 764.124c0-.1.04-.196.11-.267.07-.07.17-.11.27-.11h1.83c.1 0 .2.04.27.11.07.071.11.167.11.267v21.849c0 .206-.16.523-.66.857l-1.55.856c-.25.12-.38-.171-.38-.377v-23.185z" stroke="#E3E3E4" stroke-width=".51" stroke-miterlimit="3.86"/><path fill-rule="evenodd" clip-rule="evenodd" d="M1426.66 755.49c0-1.379 2.68-2.492 3.49-2.492.86 0 1.47 1.113 1.47 2.492v7.007c0 1.379-.65 2.501-1.47 2.501-.85 0-3.49-1.122-3.49-2.501v-7.007z" fill="#E3E3E4"/><path clip-rule="evenodd" d="M1426.66 755.49c0-1.379 2.68-2.492 3.49-2.492.86 0 1.47 1.113 1.47 2.492v7.007c0 1.379-.65 2.501-1.47 2.501-.85 0-3.49-1.122-3.49-2.501v-7.007z" stroke="#E3E3E4" stroke-width=".51" stroke-miterlimit="3.86"/><path fill-rule="evenodd" clip-rule="evenodd" d="M1371.83 764.463a.365.365 0 00-.11-.26.349.349 0 00-.26-.108h-1.84c-.1 0-.19.038-.26.107a.367.367 0 00-.11.261v21.841c0 .205.15.522.66.856l1.55.857c.25.12.37-.172.37-.377v-23.177z" fill="#E3E3E4"/><path clip-rule="evenodd" d="M1371.83 764.463a.365.365 0 00-.11-.26.349.349 0 00-.26-.108h-1.84c-.1 0-.19.038-.26.107a.367.367 0 00-.11.261v21.841c0 .205.15.522.66.856l1.55.857c.25.12.37-.172.37-.377v-23.177z" stroke="#E3E3E4" stroke-width=".51" stroke-miterlimit="3.86"/><path fill-rule="evenodd" clip-rule="evenodd" d="M1372.96 755.824c0-1.379-2.69-2.492-3.5-2.492s-1.47 1.113-1.47 2.492v7.007c0 1.379.66 2.492 1.47 2.492.81 0 3.5-1.113 3.5-2.492v-7.007z" fill="#E3E3E4"/><path clip-rule="evenodd" d="M1372.96 755.824c0-1.379-2.69-2.492-3.5-2.492s-1.47 1.113-1.47 2.492v7.007c0 1.379.66 2.492 1.47 2.492.81 0 3.5-1.113 3.5-2.492v-7.007z" stroke="#E3E3E4" stroke-width=".51" stroke-miterlimit="3.86"/><path d="M1544.73 832.252v-1.217a.596.596 0 00-.18-.436.638.638 0 00-.44-.18h-.57a.644.644 0 00-.45.183.655.655 0 00-.18.442v1.216h-.86a2.697 2.697 0 01-.59-.946 2.617 2.617 0 01-.15-1.109v-.951c0-1.379.68-2.501 2.05-2.501h.95c1.38 0 2.06 1.122 2.06 2.501v.951c.03.375-.02.753-.14 1.108-.13.354-.33.677-.6.947l-.9-.008z" fill="#E3E3E4"/><path d="M1544.73 832.252v-1.217a.596.596 0 00-.18-.436.638.638 0 00-.44-.18h-.57a.644.644 0 00-.45.183.655.655 0 00-.18.442v1.216h-.86a2.697 2.697 0 01-.59-.946 2.617 2.617 0 01-.15-1.109v-.951c0-1.379.68-2.501 2.05-2.501h.95c1.38 0 2.06 1.122 2.06 2.501v.951c.03.375-.02.753-.14 1.108-.13.354-.33.677-.6.947l-.9-.008z" stroke="#E3E3E4" stroke-width=".51" stroke-miterlimit="3.86"/><path d="M1578.51 825.774v-.771a.62.62 0 00-.19-.442.602.602 0 00-.44-.183h-.57c-.17 0-.33.066-.45.183a.653.653 0 00-.18.442v.771h-.85a2.615 2.615 0 01-.75-2.056v-.95c0-1.379.68-2.501 2.06-2.501h.95c1.38 0 2.05 1.122 2.05 2.501v.95c.03.376-.02.754-.14 1.108-.13.355-.33.678-.59.948h-.9z" fill="#E3E3E4"/><path d="M1578.51 825.774v-.771a.62.62 0 00-.19-.442.602.602 0 00-.44-.183h-.57c-.17 0-.33.066-.45.183a.653.653 0 00-.18.442v.771h-.85a2.615 2.615 0 01-.75-2.056v-.95c0-1.379.68-2.501 2.06-2.501h.95c1.38 0 2.05 1.122 2.05 2.501v.95c.03.376-.02.754-.14 1.108-.13.355-.33.678-.59.948h-.9z" stroke="#E3E3E4" stroke-width=".51" stroke-miterlimit="3.86"/><path d="M1543.78 796.072c0-.166.06-.325.18-.443a.637.637 0 01.44-.183h6.2c.16 0 .32.066.44.183.12.118.18.277.18.443v15.742a.61.61 0 01-.18.442.637.637 0 01-.44.183h-6.2a.637.637 0 01-.44-.183.61.61 0 01-.18-.442v-15.742z" fill="#E3E3E4"/><path d="M1543.78 796.072c0-.166.06-.325.18-.443a.637.637 0 01.44-.183h6.2c.16 0 .32.066.44.183.12.118.18.277.18.443v15.742a.61.61 0 01-.18.442.637.637 0 01-.44.183h-6.2a.637.637 0 01-.44-.183.61.61 0 01-.18-.442v-15.742z" stroke="#E3E3E4" stroke-width=".51" stroke-miterlimit="3.86"/><path d="M1544.62 790.87c0-.082.01-.163.04-.239a.587.587 0 01.14-.203.699.699 0 01.2-.135.642.642 0 01.24-.048h4.52a.63.63 0 01.44.186.65.65 0 01.18.439v6.578c0 .165-.07.322-.18.439a.63.63 0 01-.44.186h-4.52a.66.66 0 01-.24-.047.724.724 0 01-.2-.136.593.593 0 01-.14-.202.651.651 0 01-.04-.24v-6.578z" fill="#E3E3E4"/><path d="M1544.62 790.87c0-.082.01-.163.04-.239a.587.587 0 01.14-.203.699.699 0 01.2-.135.642.642 0 01.24-.048h4.52a.63.63 0 01.44.186.65.65 0 01.18.439v6.578c0 .165-.07.322-.18.439a.63.63 0 01-.44.186h-4.52a.66.66 0 01-.24-.047.724.724 0 01-.2-.136.593.593 0 01-.14-.202.651.651 0 01-.04-.24v-6.578z" stroke="#E3E3E4" stroke-width=".51" stroke-miterlimit="3.86"/><path d="M1516.17 825.774v-.771a.653.653 0 00-.18-.442.642.642 0 00-.45-.183h-.55a.571.571 0 00-.24.045.573.573 0 00-.34.339.67.67 0 00-.05.241v.771h-.85a2.577 2.577 0 01-.6-.946 2.626 2.626 0 01-.16-1.11v-.95c0-1.379.69-2.501 2.07-2.501h.95c1.38 0 2.05 1.122 2.05 2.501v.95c.03.376-.02.754-.14 1.108-.13.355-.33.678-.59.948h-.92z" fill="#E3E3E4"/><path d="M1516.17 825.774v-.771a.653.653 0 00-.18-.442.642.642 0 00-.45-.183h-.55a.571.571 0 00-.24.045.573.573 0 00-.34.339.67.67 0 00-.05.241v.771h-.85a2.577 2.577 0 01-.6-.946 2.626 2.626 0 01-.16-1.11v-.95c0-1.379.69-2.501 2.07-2.501h.95c1.38 0 2.05 1.122 2.05 2.501v.95c.03.376-.02.754-.14 1.108-.13.355-.33.678-.59.948h-.92z" stroke="#E3E3E4" stroke-width=".51" stroke-miterlimit="3.86"/><path fill-rule="evenodd" clip-rule="evenodd" d="M1546.55 813.604c-11.32.3-22.54 1.524-26.2 3.323-2.23 1.096-2.96 1.713-3.22 4.497l-3.97.042c0-3.331.86-6.261 3.79-7.708 3.66-1.799 22.19-5.781 26.55-6.227l3.05 6.073z" fill="#E3E3E4"/><path clip-rule="evenodd" d="M1546.55 813.604c-11.32.3-22.54 1.524-26.2 3.323-2.23 1.096-2.96 1.713-3.22 4.497l-3.97.042c0-3.331.86-6.261 3.79-7.708 3.66-1.799 22.19-5.781 26.55-6.227l3.05 6.073z" stroke="#E3E3E4" stroke-width=".51" stroke-miterlimit="3.86"/><path d="M1545.73 812.018l3.43-4.462c4.36.445 22.89 4.428 26.55 6.226 2.77 1.362 3.71 4.12 3.77 7.298.33.511.49 1.109.46 1.713v.95a2.613 2.613 0 01-.75 2.056h-.85v-.771a.655.655 0 00-.05-.239.587.587 0 00-.14-.203.502.502 0 00-.2-.135.642.642 0 00-.24-.048h-.57c-.08 0-.17.016-.24.048a.502.502 0 00-.2.135.587.587 0 00-.14.203.655.655 0 00-.05.239v.771h-.85c-.27-.27-.47-.593-.6-.948a2.771 2.771 0 01-.14-1.108v-.95c-.03-.673.18-1.334.59-1.867-.3-2.373-1.08-2.955-3.16-3.975-3.73-1.824-22.24-4.522-26.62-4.933z" fill="#E3E3E4"/><path d="M1576.46 825.774v-.771c0-.166.07-.325.18-.442a.637.637 0 01.44-.183h.58c.16 0 .32.066.44.183a.61.61 0 01.18.442v.771h.86a2.615 2.615 0 00.75-2.056v-.95c0-1.379-.68-2.501-2.06-2.501h-.95c-1.38 0-2.06 1.122-2.06 2.501v.95c-.03.376.02.754.15 1.108.13.355.33.678.59.948h.9z" stroke="#E3E3E4" stroke-width=".51" stroke-miterlimit="3.86"/><path clip-rule="evenodd" d="M1545.73 812.019c4.36.446 22.89 3.109 26.55 4.908 2.23 1.096 2.96 1.713 3.22 4.497l3.96.042c0-3.331-.86-6.261-3.78-7.708-3.66-1.799-22.19-5.781-26.55-6.227l-3.4 4.488z" stroke="#E3E3E4" stroke-width=".51" stroke-miterlimit="3.86"/><path d="M1533.33 816.661v-.805a.624.624 0 00-.19-.443.602.602 0 00-.44-.183h-.58c-.17 0-.33.066-.44.183a.624.624 0 00-.19.443v.779h-.85c-.27-.27-.48-.594-.61-.95a2.638 2.638 0 01-.15-1.114v-.951c0-1.379.68-2.501 2.06-2.501h.95c1.38 0 2.06 1.122 2.06 2.501v.951c.03.377-.02.756-.15 1.112-.13.356-.33.681-.59.952l-.88.026z" fill="#E3E3E4"/><path d="M1533.33 816.661v-.805a.624.624 0 00-.19-.443.602.602 0 00-.44-.183h-.58c-.17 0-.33.066-.44.183a.624.624 0 00-.19.443v.779h-.85c-.27-.27-.48-.594-.61-.95a2.638 2.638 0 01-.15-1.114v-.951c0-1.379.68-2.501 2.06-2.501h.95c1.38 0 2.06 1.122 2.06 2.501v.951c.03.377-.02.756-.15 1.112-.13.356-.33.681-.59.952l-.88.026z" stroke="#E3E3E4" stroke-width=".51" stroke-miterlimit="3.86"/><path fill-rule="evenodd" clip-rule="evenodd" d="M1530.12 810.718c0-3.049 1.76-6.167 6.91-5.781 6.41.471 9.11 1.43 9.11 1.43s-16.02 5.953-16.02 4.351z" fill="#E3E3E4"/><path d="M1566.75 817.446v-.737a.61.61 0 01.18-.442.637.637 0 01.44-.183h.58c.08-.001.16.014.24.045.07.031.14.077.2.135.06.059.1.128.14.204a.66.66 0 01.04.241v.771h.86a2.62 2.62 0 00.75-2.056v-.95c0-1.379-.68-2.501-2.06-2.501h-.89c-1.37 0-2.05 1.122-2.05 2.501v.95c-.03.376.02.754.14 1.108.13.355.33.678.6.948l.83-.034z" fill="#E3E3E4"/><path d="M1566.75 817.446v-.737a.61.61 0 01.18-.442.637.637 0 01.44-.183h.58c.08-.001.16.014.24.045.07.031.14.077.2.135.06.059.1.128.14.204a.66.66 0 01.04.241v.771h.86a2.62 2.62 0 00.75-2.056v-.95c0-1.379-.68-2.501-2.06-2.501h-.89c-1.37 0-2.05 1.122-2.05 2.501v.95c-.03.376.02.754.14 1.108.13.355.33.678.6.948l.83-.034z" stroke="#E3E3E4" stroke-width=".51" stroke-miterlimit="3.86"/><path fill-rule="evenodd" clip-rule="evenodd" d="M1559.47 809.755s2.57-.65 4.78-1.13c2.21-.48 1.79 1.456 1.79 3.195l4.34 1.627s.06-1.148.06-2.741c0-3.049-1.72-5.678-6.9-5.781-5.37.043-10.72.547-16 1.507l11.93 3.323z" fill="#E3E3E4"/><path clip-rule="evenodd" d="M1559.47 809.755s2.57-.65 4.78-1.13c2.21-.48 1.79 1.456 1.79 3.195l4.34 1.627s.06-1.148.06-2.741c0-3.049-1.72-5.678-6.9-5.781-5.37.043-10.72.547-16 1.507l11.93 3.323z" stroke="#E3E3E4" stroke-width=".51" stroke-miterlimit="3.86"/><path fill-rule="evenodd" clip-rule="evenodd" d="M1546 828.218c-.09-2.638.95-12.676 1.14-15.202.2-2.527-2.52-2.57-3.02-1.002a60.567 60.567 0 00-2.34 15.999c.06 3.88 4.33 2.835 4.22.205z" fill="#E3E3E4"/><path clip-rule="evenodd" d="M1546 828.218c-.09-2.638.95-12.676 1.14-15.202.2-2.527-2.52-2.57-3.02-1.002a60.567 60.567 0 00-2.34 15.999c.06 3.88 4.33 2.835 4.22.205z" stroke="#E3E3E4" stroke-width=".51" stroke-miterlimit="3.86"/><path d="M1545.25 787.884a.557.557 0 01.12-.411.563.563 0 01.37-.214h3.51c.14.021.28.098.37.214.09.117.13.264.12.411v6.561a.6.6 0 01-.12.41.585.585 0 01-.37.215h-3.51a.56.56 0 01-.37-.215.554.554 0 01-.12-.41v-6.578.017z" fill="#E3E3E4"/><path d="M1545.25 787.884a.557.557 0 01.12-.411.563.563 0 01.37-.214h3.51c.14.021.28.098.37.214.09.117.13.264.12.411v6.561a.6.6 0 01-.12.41.585.585 0 01-.37.215h-3.51a.56.56 0 01-.37-.215.554.554 0 01-.12-.41v-6.578.017z" stroke="#E3E3E4" stroke-width=".46" stroke-miterlimit="3.86"/><path d="M1543.17 772.176c.01-.179.1-.345.23-.462a.709.709 0 01.5-.164h7.2a.694.694 0 01.73.626v15.759a.69.69 0 01-.73.625h-7.2a.709.709 0 01-.5-.164.678.678 0 01-.23-.461v-15.759z" fill="#E3E3E4"/><path d="M1543.17 772.176c.01-.179.1-.345.23-.462a.709.709 0 01.5-.164h7.2a.694.694 0 01.73.626v15.759a.69.69 0 01-.73.625h-7.2a.709.709 0 01-.5-.164.678.678 0 01-.23-.461v-15.759z" stroke="#E3E3E4" stroke-width=".56" stroke-miterlimit="3.86"/><path d="M1545.25 811.642a.557.557 0 01.12-.411.563.563 0 01.37-.214h3.51c.14.021.28.098.37.214.09.117.13.264.12.411v6.578a.593.593 0 01-.12.407.577.577 0 01-.37.209h-3.51a.553.553 0 01-.37-.209.547.547 0 01-.12-.407v-6.578z" fill="#E3E3E4"/><path d="M1545.25 811.642a.557.557 0 01.12-.411.563.563 0 01.37-.214h3.51c.14.021.28.098.37.214.09.117.13.264.12.411v6.578a.593.593 0 01-.12.407.577.577 0 01-.37.209h-3.51a.553.553 0 01-.37-.209.547.547 0 01-.12-.407v-6.578z" stroke="#E3E3E4" stroke-width=".46" stroke-miterlimit="3.86"/><path d="M1570.99 787.312c.11-.343.31-.647.59-.872.28-.226.62-.364.98-.396.47.066.89.293 1.2.64.32.348.5.794.52 1.262v.77c-.01.218-.06.433-.15.631-.09.199-.22.378-.38.526-.16.149-.34.264-.55.339-.2.075-.42.108-.64.097a1.714 1.714 0 01-1.71-1.567h-1.9a.516.516 0 01-.51-.454h-1.33c-4.38-.094-4.77-.668-4.96-2.09-.2-1.422.53-1.79.72-.359.19 1.43.57 1.995 4.95 2.089h.62v-.102a.44.44 0 01.04-.195.532.532 0 01.27-.275.543.543 0 01.2-.036l2.04-.008z" fill="#E3E3E4"/><path clip-rule="evenodd" d="M1562.1 786.165c.19 1.422.58 1.996 4.96 2.09 4.37.094 5.61.094 5.61.094l.72-.351s-1.24 0-5.62-.103c-4.39-.102-4.77-.668-4.95-2.089-.19-1.422-.89-1.071-.72.359z" stroke="#E3E3E4" stroke-width=".42" stroke-miterlimit="3.86"/><path d="M1568.42 787.816c0-.067.01-.133.03-.195a.79.79 0 01.11-.165.573.573 0 01.17-.109.475.475 0 01.19-.036h3.28c.06-.002.13.011.19.036.06.025.12.062.17.109.04.047.08.103.1.165a.44.44 0 01.04.195v.42c0 .134-.05.262-.15.357a.486.486 0 01-.35.148h-3.25a.527.527 0 01-.36-.148.528.528 0 01-.15-.357v-.42h-.02z" stroke="#E3E3E4" stroke-width=".42" stroke-miterlimit="3.86"/><path clip-rule="evenodd" d="M1570.86 787.939c0-.471.18-.923.5-1.273a1.92 1.92 0 011.21-.629v0a1.995 1.995 0 011.71 1.902v.77c0 .218-.05.433-.14.631a1.672 1.672 0 01-.93.865 1.63 1.63 0 01-.64.097c-.43.002-.85-.162-1.17-.458a1.7 1.7 0 01-.54-1.135v-.77z" stroke="#E3E3E4" stroke-width=".42" stroke-miterlimit="3.86"/><path fill-rule="evenodd" clip-rule="evenodd" d="M1579.1 757.666c-4.02 9.944-2.89 13.953-2.24 18.775.65 4.822-.65 7.211-4.5 8.804-3.84 1.593-27.4 5.465-29.97 5.302-2.57-.163-9.13-.642-11.37-1.936-2.23-1.293-9.63-6.415-17.32-6.415-7.68 0-7.71-5.139-7.71-8.017 0-2.877 4.48-4.154 8.33-4.282 3.85-.129 15.99-.308 15.89-1.131-.82-6.243 4.14-23.262 5.6-31.099 1.93-10.415 3.82-10.415 6.57-10.903 2.75-.488 2.88.163 3.84 0 .97-.163 33.24-2.878 34.02-3.203 1.06-.361 2.18-.548 3.31-.557 3.91-.274 5.49 5.995 3.74 11.46-2.07 6.526-4.19 13.267-8.19 23.202z" fill="#E3E3E4"/><path fill-rule="evenodd" clip-rule="evenodd" d="M1513.69 758.316c-.48 4.171 3.24 25.172 3.69 27.408.45 2.235 2.07 3.023 5.6 2.398s10.75-2.569 10.75-2.569l-7.38-1.585a36.25 36.25 0 00-4.65-1.267c-.86 0-.95 2.372-1.92-4.197-.97-6.57-2.24-12.334-2.4-15.7-.16-3.366.94-7.863 4.28-4.985 3.34 2.878 5.34 4.968 6.29 5.747.95.78 2.04.857 3.81.343s.16-3.366.16-3.366-6.64-5.413-9.13-6.569a9.57 9.57 0 00-5.3-.968c-1.53.077-3.31 1.182-3.8 5.31z" fill="#E3E3E4"/><path d="M1574.6 761.602c-.07-.462 0-.934.21-1.354a2.286 2.286 0 013.54-.734c.35.303.61.709.72 1.161.12.452.1.929-.06 1.368-.17.438-.46.816-.84 1.084-.38.267-.84.41-1.31.411a2.14 2.14 0 01-1.53-.503 2.146 2.146 0 01-.73-1.433z" fill="#E3E3E4"/><path d="M1574.6 761.602c-.07-.462 0-.934.21-1.354a2.286 2.286 0 013.54-.734c.35.303.61.709.72 1.161.12.452.1.929-.06 1.368-.17.438-.46.816-.84 1.084-.38.267-.84.41-1.31.411a2.14 2.14 0 01-1.53-.503 2.146 2.146 0 01-.73-1.433v0z" stroke="#E3E3E4" stroke-width=".48" stroke-miterlimit="3.86"/><path d="M1471.7 838.928v-1.216a.653.653 0 00-.18-.442.642.642 0 00-.45-.183h-.57c-.17 0-.33.066-.44.183a.62.62 0 00-.19.442v1.216h-.85c-.27-.27-.47-.595-.6-.951a2.808 2.808 0 01-.16-1.113v-.951c0-1.379.69-2.492 2.07-2.492h.95c1.38 0 2.05 1.113 2.05 2.492v.951c.04.377-.01.756-.14 1.112-.13.356-.33.68-.59.952h-.9z" fill="#E3E3E4"/><path d="M1471.7 838.928v-1.216a.653.653 0 00-.18-.442.642.642 0 00-.45-.183h-.57c-.17 0-.33.066-.44.183a.62.62 0 00-.19.442v1.216h-.85c-.27-.27-.47-.595-.6-.951a2.808 2.808 0 01-.16-1.113v-.951c0-1.379.69-2.492 2.07-2.492h.95c1.38 0 2.05 1.113 2.05 2.492v.951c.04.377-.01.756-.14 1.112-.13.356-.33.68-.59.952h-.9z" stroke="#E3E3E4" stroke-width=".51" stroke-miterlimit="3.86"/><path d="M1505.47 832.456v-.78a.61.61 0 00-.18-.442.637.637 0 00-.44-.183h-.58c-.16 0-.32.066-.44.183a.61.61 0 00-.18.442l-.05.78h-.85a2.604 2.604 0 01-.6-.951 2.813 2.813 0 01-.16-1.114v-.95c0-1.379.68-2.493 2.07-2.493h.95c1.38 0 2.05 1.114 2.05 2.493v.976c.04.377-.01.756-.14 1.112-.13.356-.33.68-.59.952l-.86-.025z" fill="#E3E3E4"/><path d="M1505.47 832.456v-.78a.61.61 0 00-.18-.442.637.637 0 00-.44-.183h-.58c-.16 0-.32.066-.44.183a.61.61 0 00-.18.442l-.05.78h-.85a2.604 2.604 0 01-.6-.951 2.813 2.813 0 01-.16-1.114v-.95c0-1.379.68-2.493 2.07-2.493h.95c1.38 0 2.05 1.114 2.05 2.493v.976c.04.377-.01.756-.14 1.112-.13.356-.33.68-.59.952l-.86-.025z" stroke="#E3E3E4" stroke-width=".51" stroke-miterlimit="3.86"/><path d="M1470.74 802.74c0-.166.07-.325.18-.443a.642.642 0 01.45-.183h6.19c.16 0 .32.066.44.183.12.118.18.277.18.443v15.75c0 .083-.01.164-.04.24a.587.587 0 01-.14.203.699.699 0 01-.2.135.642.642 0 01-.24.048h-6.19a.571.571 0 01-.24-.048.626.626 0 01-.21-.135.656.656 0 01-.18-.443v-15.75z" fill="#E3E3E4"/><path d="M1470.74 802.74c0-.166.07-.325.18-.443a.642.642 0 01.45-.183h6.19c.16 0 .32.066.44.183.12.118.18.277.18.443v15.75c0 .083-.01.164-.04.24a.587.587 0 01-.14.203.699.699 0 01-.2.135.642.642 0 01-.24.048h-6.19a.571.571 0 01-.24-.048.626.626 0 01-.21-.135.656.656 0 01-.18-.443v-15.75z" stroke="#E3E3E4" stroke-width=".51" stroke-miterlimit="3.86"/><path d="M1471.57 797.552a.62.62 0 01.19-.442.602.602 0 01.44-.183h4.52c.08-.001.17.014.24.045.08.031.15.077.21.135a.67.67 0 01.18.445v6.569a.661.661 0 01-.18.445.626.626 0 01-.21.135.604.604 0 01-.24.046h-4.56a.637.637 0 01-.44-.183.614.614 0 01-.18-.443v-6.569h.03z" fill="#E3E3E4"/><path d="M1471.57 797.552a.62.62 0 01.19-.442.602.602 0 01.44-.183h4.52c.08-.001.17.014.24.045.08.031.15.077.21.135a.67.67 0 01.18.445v6.569a.661.661 0 01-.18.445.626.626 0 01-.21.135.604.604 0 01-.24.046h-4.56a.637.637 0 01-.44-.183.614.614 0 01-.18-.443v-6.569h.03z" stroke="#E3E3E4" stroke-width=".51" stroke-miterlimit="3.86"/><path d="M1443.13 832.456v-.78a.62.62 0 00-.19-.442.602.602 0 00-.44-.183h-.57c-.17 0-.33.066-.44.183a.62.62 0 00-.19.442v.78h-.85a2.604 2.604 0 01-.6-.951 2.644 2.644 0 01-.16-1.114v-.95c0-1.379.68-2.493 2.06-2.493h.95c1.39 0 2.06 1.114 2.06 2.493v.976c.03.377-.02.756-.14 1.112-.13.356-.33.68-.59.952l-.9-.025z" fill="#E3E3E4"/><path d="M1443.13 832.456v-.78a.62.62 0 00-.19-.442.602.602 0 00-.44-.183h-.57c-.17 0-.33.066-.44.183a.62.62 0 00-.19.442v.78h-.85a2.604 2.604 0 01-.6-.951 2.644 2.644 0 01-.16-1.114v-.95c0-1.379.68-2.493 2.06-2.493h.95c1.39 0 2.06 1.114 2.06 2.493v.976c.03.377-.02.756-.14 1.112-.13.356-.33.68-.59.952l-.9-.025z" stroke="#E3E3E4" stroke-width=".51" stroke-miterlimit="3.86"/><path fill-rule="evenodd" clip-rule="evenodd" d="M1473.52 820.284c-11.33.292-22.55 1.516-26.2 3.315-2.24 1.096-2.97 1.713-3.22 4.497l-3.97.051c0-3.34.86-6.269 3.79-7.708 3.65-1.799 22.19-5.782 26.55-6.227l3.05 6.072z" fill="#E3E3E4"/><path clip-rule="evenodd" d="M1473.52 820.284c-11.33.292-22.55 1.516-26.2 3.315-2.24 1.096-2.97 1.713-3.22 4.497l-3.97.051c0-3.34.86-6.269 3.79-7.708 3.65-1.799 22.19-5.782 26.55-6.227l3.05 6.072z" stroke="#E3E3E4" stroke-width=".51" stroke-miterlimit="3.86"/><path d="M1472.7 818.696l3.42-4.47c4.35.445 22.9 4.428 26.55 6.226 2.79 1.371 3.71 4.129 3.79 7.298.32.513.48 1.109.45 1.713v.95a2.645 2.645 0 01-.75 2.064h-.86v-.779a.61.61 0 00-.18-.442.637.637 0 00-.44-.183h-.58c-.16 0-.32.066-.44.183a.61.61 0 00-.18.442v.779h-.86a2.722 2.722 0 01-.59-.952 2.631 2.631 0 01-.15-1.112v-.95c-.03-.673.18-1.336.6-1.867-.3-2.373-1.08-2.947-3.16-3.975-3.73-1.824-22.27-4.479-26.62-4.925z" fill="#E3E3E4"/><path d="M1503.42 832.456v-.78a.62.62 0 01.19-.442.602.602 0 01.44-.183h.57c.17 0 .33.066.45.183.11.117.18.276.18.442v.78h.86c.26-.27.47-.594.6-.95.13-.357.18-.737.15-1.115v-.95c0-1.379-.68-2.493-2.06-2.493h-.95c-1.38 0-2.05 1.114-2.05 2.493v.976c-.03.377.02.756.14 1.112.13.356.33.68.59.952l.89-.025z" stroke="#E3E3E4" stroke-width=".51" stroke-miterlimit="3.86"/><path clip-rule="evenodd" d="M1472.7 818.7c4.35.445 22.89 3.1 26.55 4.899 2.22 1.096 2.96 1.713 3.21 4.497l3.96.051c0-3.34-.85-6.269-3.78-7.708-3.65-1.799-22.19-5.782-26.55-6.227l-3.39 4.488z" stroke="#E3E3E4" stroke-width=".51" stroke-miterlimit="3.86"/><path d="M1460.29 823.332v-.779a.619.619 0 00-.62-.625h-.57c-.17 0-.33.066-.45.183a.653.653 0 00-.18.442v.779h-.86a2.718 2.718 0 01-.59-.951 2.633 2.633 0 01-.15-1.113v-.942c0-1.387.68-2.501 2.05-2.501h.95c1.38 0 2.06 1.114 2.06 2.501v.942c.03.377-.02.756-.15 1.112a2.46 2.46 0 01-.59.952h-.9z" fill="#E3E3E4"/><path d="M1460.29 823.332v-.779a.619.619 0 00-.62-.625h-.57c-.17 0-.33.066-.45.183a.653.653 0 00-.18.442v.779h-.86a2.718 2.718 0 01-.59-.951 2.633 2.633 0 01-.15-1.113v-.942c0-1.387.68-2.501 2.05-2.501h.95c1.38 0 2.06 1.114 2.06 2.501v.942c.03.377-.02.756-.15 1.112a2.46 2.46 0 01-.59.952h-.9z" stroke="#E3E3E4" stroke-width=".51" stroke-miterlimit="3.86"/><path fill-rule="evenodd" clip-rule="evenodd" d="M1457.09 817.4c0-3.049 1.71-6.167 6.85-5.782 6.43.471 9.12 1.431 9.12 1.431s-15.97 5.944-15.97 4.351z" fill="#E3E3E4"/><path d="M1493.71 824.13v-.779a.62.62 0 01.19-.442.602.602 0 01.44-.183h.57c.17 0 .33.066.44.183a.62.62 0 01.19.442v.779h.85a2.636 2.636 0 00.75-2.064v-.951c0-1.379-.68-2.492-2.06-2.492h-.95c-1.38 0-2.05 1.113-2.05 2.492v.951c-.03.377.02.756.14 1.112.13.356.33.68.59.952h.9z" fill="#E3E3E4"/><path d="M1493.71 824.13v-.779a.62.62 0 01.19-.442.602.602 0 01.44-.183h.57c.17 0 .33.066.44.183a.62.62 0 01.19.442v.779h.85a2.636 2.636 0 00.75-2.064v-.951c0-1.379-.68-2.492-2.06-2.492h-.95c-1.38 0-2.05 1.113-2.05 2.492v.951c-.03.377.02.756.14 1.112.13.356.33.68.59.952h.9z" stroke="#E3E3E4" stroke-width=".51" stroke-miterlimit="3.86"/><path fill-rule="evenodd" clip-rule="evenodd" d="M1486.43 816.426s2.57-.643 4.79-1.131 1.78 1.456 1.78 3.204l4.35 1.635s.06-1.139.06-2.74c0-3.049-1.72-5.679-6.9-5.782-5.37.029-10.72.522-16.01 1.473l11.93 3.341z" fill="#E3E3E4"/><path clip-rule="evenodd" d="M1486.43 816.426s2.57-.643 4.79-1.131 1.78 1.456 1.78 3.204l4.35 1.635s.06-1.139.06-2.74c0-3.049-1.72-5.679-6.9-5.782-5.37.029-10.72.522-16.01 1.473l11.93 3.341z" stroke="#E3E3E4" stroke-width=".51" stroke-miterlimit="3.86"/><path fill-rule="evenodd" clip-rule="evenodd" d="M1472.97 834.888c-.1-2.63.94-12.668 1.14-15.203.2-2.535-2.57-2.57-3.03-.994a60.225 60.225 0 00-2.34 16.008c.06 3.863 4.33 2.818 4.23.189z" fill="#E3E3E4"/><path clip-rule="evenodd" d="M1472.97 834.888c-.1-2.63.94-12.668 1.14-15.203.2-2.535-2.57-2.57-3.03-.994a60.225 60.225 0 00-2.34 16.008c.06 3.863 4.33 2.818 4.23.189z" stroke="#E3E3E4" stroke-width=".51" stroke-miterlimit="3.86"/><path d="M1472.21 794.566a.609.609 0 01.12-.413.578.578 0 01.37-.213h3.52a.6.6 0 01.38.213c.09.117.13.265.11.413v6.569a.555.555 0 01-.11.413.595.595 0 01-.38.212h-3.52a.572.572 0 01-.37-.212.61.61 0 01-.12-.413v-6.569z" fill="#E3E3E4"/><path d="M1472.21 794.566a.609.609 0 01.12-.413.578.578 0 01.37-.213h3.52a.6.6 0 01.38.213c.09.117.13.265.11.413v6.569a.555.555 0 01-.11.413.595.595 0 01-.38.212h-3.52a.572.572 0 01-.37-.212.61.61 0 01-.12-.413v-6.569z" stroke="#E3E3E4" stroke-width=".46" stroke-miterlimit="3.86"/><path d="M1470.13 778.864a.756.756 0 01.07-.256c.04-.079.1-.15.17-.208a.565.565 0 01.23-.13.643.643 0 01.26-.032h7.2c.09-.007.18.004.27.032.08.027.16.072.23.13.07.058.12.129.16.208.04.08.07.167.07.256v15.742a.678.678 0 01-.23.461.709.709 0 01-.5.164h-7.2a.69.69 0 01-.73-.625v-15.742z" fill="#E3E3E4"/><path d="M1470.13 778.864a.756.756 0 01.07-.256c.04-.079.1-.15.17-.208a.565.565 0 01.23-.13.643.643 0 01.26-.032h7.2c.09-.007.18.004.27.032.08.027.16.072.23.13.07.058.12.129.16.208.04.08.07.167.07.256v15.742a.678.678 0 01-.23.461.709.709 0 01-.5.164h-7.2a.69.69 0 01-.73-.625v-15.742z" stroke="#E3E3E4" stroke-width=".56" stroke-miterlimit="3.86"/><path d="M1472.21 818.318a.605.605 0 01.12-.411.594.594 0 01.37-.215h3.52c.15.022.28.099.37.215.09.117.14.264.12.411v6.577a.555.555 0 01-.12.411.565.565 0 01-.37.215h-3.52a.59.59 0 01-.37-.215.602.602 0 01-.12-.411v-6.577z" fill="#E3E3E4"/><path d="M1472.21 818.318a.605.605 0 01.12-.411.594.594 0 01.37-.215h3.52c.15.022.28.099.37.215.09.117.14.264.12.411v6.577a.555.555 0 01-.12.411.565.565 0 01-.37.215h-3.52a.59.59 0 01-.37-.215.602.602 0 01-.12-.411v-6.577 0z" stroke="#E3E3E4" stroke-width=".46" stroke-miterlimit="3.86"/><path d="M1498.59 793.467c.14-.421.4-.793.75-1.07a2.24 2.24 0 011.21-.489c.57.075 1.1.351 1.5.781.39.43.62.985.64 1.566v.951c-.01.269-.07.534-.18.779-.11.246-.27.467-.47.651-.19.183-.42.325-.68.418-.25.093-.52.134-.79.121a2.072 2.072 0 01-1.47-.53 2.1 2.1 0 01-.68-1.405h-2.39a.656.656 0 01-.42-.161.654.654 0 01-.2-.396h-1.65c-5.4-.12-5.88-.856-6.11-2.569-.23-1.713.64-2.202.85-.437.22 1.764.71 2.466 6.12 2.569h.76v-.128c0-.166.07-.325.18-.442a.638.638 0 01.45-.183l2.58-.026z" fill="#E3E3E4"/><path clip-rule="evenodd" d="M1487.67 792.06c.23 1.765.71 2.467 6.11 2.57 5.41.103 6.94.12 6.94.12l.86-.446s-1.54 0-6.94-.12c-5.41-.119-5.89-.856-6.12-2.569-.23-1.713-1.09-1.31-.85.445z" stroke="#E3E3E4" stroke-width=".51" stroke-miterlimit="3.86"/><path d="M1495.43 794.092a.61.61 0 01.18-.442.637.637 0 01.44-.183h4.04c.17 0 .33.066.45.183.11.117.18.276.18.442v.523c0 .165-.07.324-.18.442a.642.642 0 01-.45.183h-4.04a.637.637 0 01-.44-.183.613.613 0 01-.18-.442v-.523z" stroke="#E3E3E4" stroke-width=".51" stroke-miterlimit="3.86"/><path clip-rule="evenodd" d="M1498.44 794.256a2.44 2.44 0 01.61-1.567c.39-.431.92-.708 1.5-.78v0c.57.075 1.1.351 1.5.781.39.43.62.985.64 1.566v.951a2.1 2.1 0 01-.18.78c-.11.245-.27.466-.47.65-.19.183-.42.326-.68.418-.25.093-.52.134-.79.122v0a2.081 2.081 0 01-1.48-.543c-.4-.369-.64-.882-.67-1.427l.02-.951z" stroke="#E3E3E4" stroke-width=".51" stroke-miterlimit="3.86"/><path fill-rule="evenodd" clip-rule="evenodd" d="M1472.01 726.442c-4.03 0-18.84.317-19.84.335-.99.017-.65-.48-1.79-.48h-4.23c-.31 0-1.22 1.627-.97 5.139.26 3.511-.85 2.321-.69 5.507.16 3.186 3.19 24.684 3.19 28.564 0 2.09-2.25 16-2.25 20.642 0 2.569 4.22 5.079 7.71 5.601 2.68.386 13.98.728 21.19.857 7.22-.146 17.71-.488 20.27-.857 3.52-.522 7.71-3.006 7.71-5.601 0-4.642-2.24-18.552-2.24-20.642 0-3.88 3.01-25.386 3.19-28.564.17-3.177-.95-1.978-.7-5.507s-.65-5.139-.97-5.139h-4.22c-1.15 0-.69.488-1.8.48-1.1-.009-15.81-.335-19.83-.335h-3.73z" fill="#E3E3E4"/><path clip-rule="evenodd" d="M1472.01 726.442c-4.03 0-18.84.317-19.84.335-.99.017-.65-.48-1.79-.48h-4.23c-.31 0-1.22 1.627-.97 5.139.26 3.511-.85 2.321-.69 5.507.16 3.186 3.19 24.684 3.19 28.564 0 2.09-2.25 16-2.25 20.642 0 2.569 4.22 5.079 7.71 5.601 2.68.386 13.98.728 21.19.857 7.22-.146 17.71-.488 20.27-.857 3.52-.522 7.71-3.006 7.71-5.601 0-4.642-2.24-18.552-2.24-20.642 0-3.88 3.01-25.386 3.19-28.564.17-3.177-.95-1.978-.7-5.507s-.65-5.139-.97-5.139h-4.22c-1.15 0-.69.488-1.8.48-1.1-.009-15.81-.335-19.83-.335h-3.73z" stroke="#E3E3E4" stroke-width=".51" stroke-miterlimit="3.86"/><path fill-rule="evenodd" clip-rule="evenodd" d="M1501.86 764.124c0-.049 0-.098.02-.144a.515.515 0 01.08-.122.534.534 0 01.12-.082c.05-.019.1-.029.14-.029h1.85c.1 0 .19.04.26.11.07.071.11.167.11.267v21.849c0 .206-.15.523-.66.857l-1.56.856c-.24.12-.36-.171-.36-.377v-23.185z" fill="#E3E3E4"/><path clip-rule="evenodd" d="M1501.86 764.124c0-.049 0-.098.02-.144a.515.515 0 01.08-.122.534.534 0 01.12-.082c.05-.019.1-.029.14-.029h1.85c.1 0 .19.04.26.11.07.071.11.167.11.267v21.849c0 .206-.15.523-.66.857l-1.56.856c-.24.12-.36-.171-.36-.377v-23.185z" stroke="#E3E3E4" stroke-width=".51" stroke-miterlimit="3.86"/><path fill-rule="evenodd" clip-rule="evenodd" d="M1500.73 755.49c0-1.379 2.69-2.492 3.5-2.492s1.47 1.113 1.47 2.492v7.007c0 1.379-.66 2.501-1.47 2.501-.81 0-3.5-1.122-3.5-2.501v-7.007z" fill="#E3E3E4"/><path clip-rule="evenodd" d="M1500.73 755.49c0-1.379 2.69-2.492 3.5-2.492s1.47 1.113 1.47 2.492v7.007c0 1.379-.66 2.501-1.47 2.501-.81 0-3.5-1.122-3.5-2.501v-7.007z" stroke="#E3E3E4" stroke-width=".51" stroke-miterlimit="3.86"/><path fill-rule="evenodd" clip-rule="evenodd" d="M1445.91 764.463a.367.367 0 00-.11-.261.364.364 0 00-.26-.107h-1.84c-.09 0-.19.038-.26.107a.367.367 0 00-.11.261v21.841c0 .205.15.522.66.856l1.55.857c.25.12.37-.172.37-.377v-23.177z" fill="#E3E3E4"/><path clip-rule="evenodd" d="M1445.91 764.463a.367.367 0 00-.11-.261.364.364 0 00-.26-.107h-1.84c-.09 0-.19.038-.26.107a.367.367 0 00-.11.261v21.841c0 .205.15.522.66.856l1.55.857c.25.12.37-.172.37-.377v-23.177z" stroke="#E3E3E4" stroke-width=".51" stroke-miterlimit="3.86"/><path fill-rule="evenodd" clip-rule="evenodd" d="M1447.04 755.824c0-1.379-2.69-2.492-3.5-2.492-.86 0-1.47 1.113-1.47 2.492v7.007c0 1.379.66 2.492 1.47 2.492.86 0 3.5-1.113 3.5-2.492v-7.007z" fill="#E3E3E4"/><path clip-rule="evenodd" d="M1447.04 755.824c0-1.379-2.69-2.492-3.5-2.492-.86 0-1.47 1.113-1.47 2.492v7.007c0 1.379.66 2.492 1.47 2.492.86 0 3.5-1.113 3.5-2.492v-7.007z" stroke="#E3E3E4" stroke-width=".51" stroke-miterlimit="3.86"/><path fill-rule="evenodd" clip-rule="evenodd" d="M1571.64 764.858s-27.17.522-27.3 0c-.12-.522-1.06-6.407-1.31-7.768-.25-1.362-2.23-10.013-2.23-10.767 0-.753-.62-1.361-1.93-1.361s-3.49.856-4.09.856c-.6 0-3.91.711-5.41.942-1.65.203-3.31.188-4.96-.043-.38-.188-2.14-1.087-2.52-1.242a9.196 9.196 0 01-1.98-.71c-.23-.257-6.57-3.084-7.29-3.341-.72-.257-.86-.377-.93-.745-.2-.817-.34-1.647-.42-2.484.05-.298.05-.601 0-.899a8.49 8.49 0 00-.85-.857.751.751 0 01-.22-.288.867.867 0 01-.08-.354c.03-.269.09-.533.19-.788.11-.334-.12-.454-.41-.634-.3-.18-1.89-1.242-2.15-1.473-.25-.231-1.43-1.422-1.84-1.799a8.642 8.642 0 01-.97-.933 1.382 1.382 0 010-1.131c.15-.219.23-.479.23-.745 0-.231.44-.685.74-.856.3-.172.27-.643.3-.857a1.233 1.233 0 01.76-.668c.26-.043.3-.497.41-.719.11-.223-.15-.223-.56-.454a5.977 5.977 0 01-.91-.745c-.53-.253-1.04-.539-1.54-.857-.64-.488.11-1.088.8-.788.68.3 1.31.454 1.45.565.15.112.8.189 1.13.377.53.363 1.11.652 1.72.857.6.159 1.15.486 1.57.942.55.578 1.05 1.193 1.5 1.841.23.257.63 3.007 1.01 3.632.39.625 1.09.933 1.45 1.285.19.206.43.367.69.471.39.307.8.593 1.22.856.64.423 1.3.8 1.99 1.131.28.077 1.48.317 2.07.548.81.322 1.66.505 2.53.54.9 0 2.38.077 2.85.436.47.36.58.471.9.386a6.39 6.39 0 002.46-.471 11.087 11.087 0 002.87-2.45c.77-.976.72-.856.59-1.524.03-.978.24-1.941.64-2.835.2-.873.67-1.659 1.35-2.244.98-.763 1.28-.977 2.12-1.713 1.01-.925 2.1-1.762 3.26-2.501a15.45 15.45 0 002.84-2.698c.19-.163.25-.223.25-.36 0-.137-.15-1.319-.17-1.636-.02-.317 0-.257.06-.334.06-.077.07-.069 0-.257s-.46-.925-.54-1.148c-.08-.222-.73-1.293-.85-1.661-.29-.6-.7-1.127-1.22-1.542a7.127 7.127 0 00-1.62-.634c-.3-.079-.57-.262-.75-.518a1.31 1.31 0 01-.24-.878c.02-.46-.08-.918-.29-1.327-.27-.694-.3-1.654-.64-2.39a2.718 2.718 0 01-.11-1.884c.1-.402.17-.808.22-1.217.07-.228.07-.468.02-.7a1.368 1.368 0 00-.31-.627 2.776 2.776 0 01-.37-1.319c-.04-.189.29-.591.52-.78.22-.188.59-1.062.78-1.25.19-.189-.11-.257-.3-.591a1.828 1.828 0 01-.15-1.216c.11-.294.16-.605.15-.917 0-.3 0-.856.33-1.07.34-.215.15-.3.37-.626.1-.14.23-.259.37-.349.15-.09.31-.149.49-.173.24-.048.46-.158.65-.318.19-.161.33-.367.42-.599.37-.719 1.06-1.336 1.65-1.224.39.075.8.018 1.16-.163.34-.134.72-.134 1.06 0 .29.13.61.186.92.163.35 0 .75.334 1.12.394.38.06 1.95.668 2.21.668.27 0 .27.111.66.274.38.163 1.6 1.156 1.93 1.327.42.137.82.342 1.17.608.53.425.95.976 1.21 1.602.48 1.105.28 1.936.5 2.27.36.644.59 1.36.65 2.098.06.857.38 2.364.11 2.81a5.27 5.27 0 00-.76 1.396 43.4 43.4 0 00-.16 2.809c-.06.496-.23.971-.51 1.387-.05.309-.05.625 0 .934 0 .223.56.797.73 1.062.41.42.96.671 1.54.702.5-.156 1.03-.194 1.54-.111.62.111 1.48.36 2.02.445.97.104 1.93.159 2.9.163.73 0 1.27-.06 2.08 0 6.75.497 11.89 11.906 12.7 11.82l-5.24 39.964zm-194.86-31.343c-.02-.465.08-.927.29-1.345.37-.755.56-1.589.55-2.432.08-.942 0-4.086.48-5.028a6.23 6.23 0 00.36-2.963c.13-.971.58-1.872 1.27-2.57.43-.365.94-.623 1.49-.754a8.548 8.548 0 001.82-.856c.79-.377 7.35-3.143 7.65-3.426.54-.565 1.61-1.225 2.39-2.047a3.33 3.33 0 011.45-1.114c.33-.094.48-.179.7-.856.11-.377.28-.733.51-1.054 0 0 .4 0 .36-.856-.04-.857.11-1.036-.42-1.713a19.3 19.3 0 01-1.26-2.27.762.762 0 01-.86-.445c-.36-.625-1.33-2.21-1.3-3.075.04-.865.28-1.131.59-1.148.32-.017.72-.359.29-.856-.44-.497-.86-3.066-.72-4.385.15-1.319.78-3.726 1.91-4.848a9.593 9.593 0 015.14-2.493c1.95-.128 5.4.737 6.5 1.928a10.596 10.596 0 012.57 5.413c.09.853.14 1.711.13 2.569.29-.059.59-.026.86.094.3.189.5 1.628.42 2.45-.09.822-1.35 3.289-1.82 3.426s-.5 1.062-.75 1.55a4.5 4.5 0 00-.26 1.585c-.09.77-.07 3.991-.11 4.333-.04.343.27.138.43.472.2.703.33 1.427.38 2.158 0 .497.53.54.91 1.405a9.734 9.734 0 002.62 3.383c1.13.762 6.08 3.717 6.38 3.837.3.12 1.49.899 1.6 1.644.06.437.74 5.439 1.41 9.781l-43.96.506z" fill="#E3E3E4"/><path clip-rule="evenodd" d="M1376.78 733.515c-.02-.465.08-.927.29-1.345.37-.755.56-1.589.55-2.432.08-.942 0-4.086.48-5.028a6.23 6.23 0 00.36-2.963c.13-.971.58-1.872 1.27-2.57.43-.365.94-.623 1.49-.754a8.548 8.548 0 001.82-.856c.79-.377 7.35-3.143 7.65-3.426.54-.565 1.61-1.225 2.39-2.047a3.33 3.33 0 011.45-1.114c.33-.094.48-.179.7-.856.11-.377.28-.733.51-1.054 0 0 .4 0 .36-.856-.04-.857.11-1.036-.42-1.713a19.3 19.3 0 01-1.26-2.27.762.762 0 01-.86-.445c-.36-.625-1.33-2.21-1.3-3.075.04-.865.28-1.131.59-1.148.32-.017.72-.359.29-.856-.44-.497-.86-3.066-.72-4.385.15-1.319.78-3.726 1.91-4.848a9.593 9.593 0 015.14-2.493c1.95-.128 5.4.737 6.5 1.928a10.596 10.596 0 012.57 5.413c.09.853.14 1.711.13 2.569.29-.059.59-.026.86.094.3.189.5 1.628.42 2.45-.09.822-1.35 3.289-1.82 3.426s-.5 1.062-.75 1.55a4.5 4.5 0 00-.26 1.585c-.09.77-.07 3.991-.11 4.333-.04.343.27.138.43.472.2.703.33 1.427.38 2.158 0 .497.53.54.91 1.405a9.734 9.734 0 002.62 3.383c1.13.762 6.08 3.717 6.38 3.837.3.12 1.49.899 1.6 1.644.06.437.74 5.439 1.41 9.781l-43.96.506z" stroke="#E3E3E4" stroke-width=".57" stroke-miterlimit="3.86"/><path fill-rule="evenodd" clip-rule="evenodd" d="M1421.44 742.648c-.98 5.781-2.27 13.755-2.41 14.843-.23 1.627-2.44 6.252-2.44 8.565 0 2.312 0 7.871-.34 9.661-.33 1.79-1.14 7.88-1.3 10.218-.16 2.338-3.6 12.359-4.13 13.644-.53 1.285.98 3.649 2.28 4.462 1.3.814 2.01 6.081 2.34 8.034a9.886 9.886 0 002.57 5.439 8.33 8.33 0 004.61 2.767 3.7 3.7 0 012.45 2.501c.12.257.17.544.15.83a1.578 1.578 0 01-.95 1.325 1.58 1.58 0 01-.83.123c-1.79 0-6.73 0-7.71-.317-.98-.317-6.08-1.636-7.06-1.961-.97-.326-2.5-.489-2.82 0-.33.488-1.97 0-4.08-.326-2.12-.325-2.01-1.302-2.01-2.501.02-1.192.31-2.363.85-3.426.24-.513.53-1.004.86-1.465 0 0-1.04-.71-.86-1.361.18-.651-.32-4.24-.32-6.253s-.33-18.577 0-22.166c.32-3.589.71-10.218 1.52-13.533.82-3.314.16-9.344.49-12.333.33-2.989.98-6.732 1.14-9.182.16-2.449-.86-2.569-1.14.488-.28 3.058-.86 5.602-.98 7.229-.12 1.628-2.66 8.265-3.64 9.73-.97 1.465-1.3 5.268-1.3 7.546-.11 2.93-.38 5.852-.81 8.753-.33 2.338-1.72 7.229-1.72 8.565 0 1.336.66 11.032.82 14.775.16 3.743-.16 7.451-.82 8.265-.65.814-1.62 1.139-1.62 1.953 0 .813.16 5.139.32 6.569.17 1.43.33 3.323-.16 3.811-.49.489-3.43.163-7.07.163s-4.94-.488-4.78-2.826c.17-2.338.49-2.287.86-4.077s1.3-2.989 1.85-4.128c.12-.179.18-.387.19-.6.01-.213-.05-.424-.15-.609a1.182 1.182 0 00-1.06-.59c-.71 0-.32-.163-.32-2.013 0-1.85-.65-5.764-.86-7.229-.21-1.464.33-15.417.33-19.562 0-4.146 1.3-15.486 1.71-18.415.44-2.954.73-5.931.85-8.916 0-2.338 0-6.895.17-11.134.09-2.57.37-5.91.61-8.463l36.72 3.127z" fill="#E3E3E4"/><path clip-rule="evenodd" d="M1421.44 742.648c-.98 5.781-2.27 13.755-2.41 14.843-.23 1.627-2.44 6.252-2.44 8.565 0 2.312 0 7.871-.34 9.661-.33 1.79-1.14 7.88-1.3 10.218-.16 2.338-3.6 12.359-4.13 13.644-.53 1.285.98 3.649 2.28 4.462 1.3.814 2.01 6.081 2.34 8.034a9.886 9.886 0 002.57 5.439 8.33 8.33 0 004.61 2.767 3.7 3.7 0 012.45 2.501c.12.257.17.544.15.83a1.578 1.578 0 01-.95 1.325 1.58 1.58 0 01-.83.123c-1.79 0-6.73 0-7.71-.317-.98-.317-6.08-1.636-7.06-1.961-.97-.326-2.5-.489-2.82 0-.33.488-1.97 0-4.08-.326-2.12-.325-2.01-1.302-2.01-2.501.02-1.192.31-2.363.85-3.426.24-.513.53-1.004.86-1.465 0 0-1.04-.71-.86-1.361.18-.651-.32-4.24-.32-6.253s-.33-18.577 0-22.166c.32-3.589.71-10.218 1.52-13.533.82-3.314.16-9.344.49-12.333.33-2.989.98-6.732 1.14-9.182.16-2.449-.86-2.569-1.14.488-.28 3.058-.86 5.602-.98 7.229-.12 1.628-2.66 8.265-3.64 9.73-.97 1.465-1.3 5.268-1.3 7.546-.11 2.93-.38 5.852-.81 8.753-.33 2.338-1.72 7.229-1.72 8.565 0 1.336.66 11.032.82 14.775.16 3.743-.16 7.451-.82 8.265-.65.814-1.62 1.139-1.62 1.953 0 .813.16 5.139.32 6.569.17 1.43.33 3.323-.16 3.811-.49.489-3.43.163-7.07.163s-4.94-.488-4.78-2.826c.17-2.338.49-2.287.86-4.077s1.3-2.989 1.85-4.128c.12-.179.18-.387.19-.6.01-.213-.05-.424-.15-.609a1.182 1.182 0 00-1.06-.59c-.71 0-.32-.163-.32-2.013 0-1.85-.65-5.764-.86-7.229-.21-1.464.33-15.417.33-19.562 0-4.146 1.3-15.486 1.71-18.415.44-2.954.73-5.931.85-8.916 0-2.338 0-6.895.17-11.134.09-2.57.37-5.91.61-8.463l36.72 3.127z" stroke="#E3E3E4" stroke-width=".62" stroke-miterlimit="3.86"/><path fill-rule="evenodd" clip-rule="evenodd" d="M1529.76 760.576c-.34 1.533-.55 2.809-.77 3.683-.27 2.401-.25 4.824.06 7.22.29 1.191-.41 3.752-.95 5.242a57.295 57.295 0 00-1.55 5.91c-.34 1.602-.61 5.139-.92 5.995-.31.857-3.05 7.049-4.04 9.422-1 2.372-1.67 4.908-1.44 5.593.24.685.79 1.13.6 1.661-.18.531-1.32 3.298-1.78 4.223-.45.925-1 2.09-.79 2.518.2.428 2.2.925 4.57 1.79s3.35.857 3.8-.711c.24-.934.38-1.889.43-2.852.09-1.053.02-2.113-.22-3.143a.84.84 0 01.3-.764.839.839 0 01.8-.161c.47.171.25 0 .69-1.234.44-1.233 1.8-3.605 2.25-4.522.46-.916 3.43-10.158 4.44-12.847 1.01-2.69 2.83-10.432 3.28-12.437.42-2.026.94-4.028 1.58-5.995.45-1.234 1.24-3.426 2-5.653l-12.34-2.938zm-23.2 14.165a43.816 43.816 0 00-1.05 4.805c-.12 1.516-.78 6.595-1.16 8.514-.38 1.918.27 10.723.39 11.879.11 1.157-1.58 2.724-2.81 3.101-1.22.377-2.92 4.471-3.61 5.995a8.297 8.297 0 01-3.28 3.82 6.978 6.978 0 01-4.28 1.234c-.51.022-1.01.17-1.44.43-.44.26-.81.624-1.07 1.06a1.322 1.322 0 00.19 1.923c.19.146.42.237.66.261 1.44.386 5.43 1.456 6.29 1.405.86-.052 5.25 0 6.12-.052.86-.051 2.11.146 2.27.617.17.471 1.57.42 3.35.617 1.79.197 1.91-.617 2.16-1.585.25-.957.28-1.959.09-2.929a8.088 8.088 0 00-.39-1.37s.99-.352 1-.908c0-.557 1.18-3.349 1.61-4.968.42-1.619 4.28-14.903 4.78-17.858.51-2.955 1.64-8.385 1.72-11.237.18-1.983.58-3.939 1.2-5.833l-12.74 1.079z" fill="#E3E3E4"/><path clip-rule="evenodd" d="M1506.56 774.741a43.816 43.816 0 00-1.05 4.805c-.12 1.516-.78 6.595-1.16 8.514-.38 1.918.27 10.723.39 11.879.11 1.157-1.58 2.724-2.81 3.101-1.22.377-2.92 4.471-3.61 5.995a8.297 8.297 0 01-3.28 3.82 6.978 6.978 0 01-4.28 1.234c-.51.022-1.01.17-1.44.43-.44.26-.81.624-1.07 1.06a1.322 1.322 0 00.19 1.923c.19.146.42.237.66.261 1.44.386 5.43 1.456 6.29 1.405.86-.052 5.25 0 6.12-.052.86-.051 2.11.146 2.27.617.17.471 1.57.42 3.35.617 1.79.197 1.91-.617 2.16-1.585.25-.957.28-1.959.09-2.929a8.088 8.088 0 00-.39-1.37s.99-.352 1-.908c0-.557 1.18-3.349 1.61-4.968.42-1.619 4.28-14.903 4.78-17.858.51-2.955 1.64-8.385 1.72-11.237.18-1.983.58-3.939 1.2-5.833l-12.74 1.079z" stroke="#E3E3E4" stroke-width=".51" stroke-miterlimit="3.86"/><path fill-rule="evenodd" clip-rule="evenodd" d="M1507.07 771.916c2.7-3.117 13.07-8.102 16.59-8.933 3.53-.831 10.17-2.064 10.17-2.064l-1.65 14.56-25.11-3.563z" fill="#E3E3E4"/><g clip-path="url(#clip1)" fill-rule="evenodd" clip-rule="evenodd" fill="#E3E3E4"><path d="M158 830.47c.71.3-19.47-65.21-13.01-64.01 7.59 1.41 13.84-4.9 16.12-6.9 1.48-1.3 4.23-4.35 6.43-7.08 1.25-1.62 2.37-3.13 2.84-4.11 1.27-2.63 3.76-6.3 4.19-7.57.42-1.27.42-3.06.42-3.76 0-.7.71-1.27 1.22-1.69.52-.42 4.09-2.21 4.8-2.92s.94-2.49.94-3.76c0-1.27 0-1.27.71-1.97.71-.71.42-1.79.42-3.2 0-1.41.28-1.83.42-2.96.14-1.13-1.55-2.07-2.49-3.06-.94-.99-1.41-.85-1.55-.28-.14.57.28 1.69.28 1.69s-.42.85-1.55.85c-1.13 0-.28-.56.14-1.27.42-.7-.99-2.11-2.78-2.68-1.79-.56-4.23-1.22-5.18-1.36-.94-.14-2.54.28-3.95 1.51-1.41 1.22-3.76 3.81-5.32 5.31-1.55 1.51-1.93 1.13-2.07-.42-.14-1.55-.71-6.25-.71-9.07 0-2.82-1.55-7.52-1.83-11.05-.28-3.52.14-7.24.14-8.93 0-1.69-3.62-5.31-4.61-5.88-.99-.56-1.37-.71-3.2-2.49-1.83-1.79-8.52-5.03-12.05-7-3.53-1.97-4.19-1.79-3.76-2.77.42-.99 0-2.26 1.55-4.18 1.55-1.93 3.76-2.54 5.32-2.68 1.55-.14 4.38-.41 5.18-1.13 1.37-1.22.14-2.92 0-5.97-.13-2.8.28-5.17.42-6.3.14-1.13.28-1.97 0-3.1-.28-1.13-.28-2.07.66-2.21.94-.14.92-1.34-.06-2.57-.98-1.23-2.82-3.56-2.33-5.03.49-1.47-1.23-4.79-2.21-8.59s-3.56-7-8.35-10.31c-4.8-3.34-9.83-4.57-15.11-4.57-5.28 0-13.25 1.29-16.36 3.91-1.93 1.63-5.41 5.61-5.78 12.31-.37 6.69.37 12.31 1.87 15.84 1.5 3.53 2.62 6.15 2.62 8.94 0 2.79.37 3.16-1.87 3.16-2.25 0-2.41.95-3.54 2.99-1.12 2.04 0 5.2-1.5 6.32s-8.03 1.12-11.19 2.62-7.82 4.66-9.7 13.97c-1.87 9.31-2.41 24.24-2.41 27.77 0 3.53.17 8.73.92 11.73.75 2.99.37 3.74 1.87 6.15s1.5 2.79 0 3.16c-1.5.37-4.87-2.99-7.28-4.66-2.41-1.66-3.7-1.87-5.95-.37s-3.37 1.87-2.25 5.78 13.61 26.28 15.85 31.68c.69 1.66 3.15 5.58 6.42 10.2 16.74-8.22 55.62 56.17 78.2 51.97z"/><path d="M156.9 839.19c6.01-2.27 12.71-3.96 19.5-3.96 18.22 0 18.28-12.14 18.28-19.03 0-6.9-10.62-9.84-19.76-10.22-9.14-.38-37.97-.74-37.71-2.68 1.92-14.82-9.84-55.2-13.3-73.78-4.6-24.72-9.08-24.72-15.6-25.87-6.52-1.15-6.84.38-9.14 0-2.3-.38-78.88-6.84-80.74-7.6-1.86-.77-4.09-1.06-7.88-1.32-9.27-.64-13.03 14.23-8.87 27.19 4.99 15.56 9.91 31.56 19.43 55.13 9.52 23.57 6.84 33.09 5.31 44.52-1.15 8.56.28 13.9 4.98 17.63h125.5v-.01z"/><path d="M147.14 839.19c2.26-.73 8.69-2.74 10.26-2.74 1.92 0 2.24 5.62 4.54-9.97s5.31-29.26 5.69-37.24c.38-7.98-2.24-18.65-10.23-11.82-7.99 6.84-12.67 11.78-14.91 13.63-2.24 1.86-4.85 1.95-9.06.8-4.22-1.15-.38-7.98-.38-7.98s15.79-12.84 21.67-15.59c5.24-2.44 8.29-2.49 12.59-2.3 3.71.17 7.93 2.68 9.08 12.58.99 8.56-5.46 46.93-7.87 60.62h-21.38v.01z"/></g><path fill-rule="evenodd" clip-rule="evenodd" d="M1834.57 866.782v-58.623s3.18-3.427 4.72-5.112c1.55-1.684 4.15-4.53 4.54-6.027.39-1.497 1.69-3.811 2.27-5.308.58-1.497-.14-2.65.96-4.146 1.11-1.497 3.96-4.531 3.96-6.993 0-2.462.38-5.643.58-8.489.2-2.846.52-6.854 1.3-9.839.78-2.985.64-4.089-.52-3.181-1.16.916-1.5.965-2.27 2.265-.77 1.3-2.12 3.705-2.12.916s-.72-2.012-.72-3.95c0-2.658 3.95-5.308 6.02-7.77 2.08-2.461 3.19-6.804 3.77-8.873.58-2.078-.34-2.846-.92-1.881-.58.965-.44-.777.92-1.881 1.35-1.104 4.78-4.973 8.16-7.574 3.38-2.6 5.06-3.181 5.64-7.516.58-4.342 3.43-8.014 5.51-8.734 2.07-.72 4.72-1.047 6.42-.524 1.68.524 3.39-.065 3.39-.065 2.06-2.061 6.08-5.357 9.58-5.357 3.51 0 7.54 0 10.42 1.44 2.89 1.447 5.26 3.091 7.53 4.947 2.26 1.857 2.57 1.653 3.6 3.501 1.04 1.856 1.76 3.402 1.66 4.122-.11.72-.83.826-.83.826s-.2 1.235.21 2.576c.4 1.341 1.13 2.061 1.44 2.683.31.621.31 1.235-.1 1.856-.41.622-1.14 1.341-.94 1.75.21.409 1.44 4.736 1.97 5.766.51 1.031.62 2.372.2 2.683-.41.31-1.23.31-1.23.31s-.72.925-.52 1.751c.21.826.11 2.478 0 3.197-.1.72-.1 1.955.21 3.092s.62 2.576-.63 3.5c-1.23.924-3.5 1.546-4.85 1.341-1.34-.204-3.4-.719-4.02-.719-.62 0-1.34.409-2.58 1.235-1.23.826-5.97 5.25-7.11 5.766l-1.14.515s-.2 2.167.52 4.122c.72 1.954 2.06 3.811 1.13 3.296-.92-.516-1.03-.311-.92.31.11.614.92 2.986.83 4.016-.11 1.03-.21 4.326-.83 5.668-.62 1.341-1.45 2.061-1.55 3.197-.1 1.137.1 4.531-.31 6.903-.41 2.372-1.85 8.039-2.47 9.07-.62 1.03-3.3 4.326-4.43 5.561-1.14 1.235-3.09 3.092-3.61 4.531-.51 1.44-1.03 2.167-1.75 4.122s-.4 2.674 0 3.713c.41 1.031 1.03 3.402 1.03 3.402s2.65 3.991 2.74 4.801c.09.81 0 1.374.45 2.176.45.809.42 2.625.99 3.516.57.892 1.08 3.37 1.74 3.91.65.539.83 1.014.92 1.995.09.982.99 2.266 1.34 3.075.36.81 1.11 1.791 1.02 2.626-.09.834.45 1.725.63 2.355.18.63 1.01 2.061 1.28 2.535.27.475 9.88 13.364 10.33 14.075.45.72 1.28.9 2.09.81.81-.09 3.01-1.071 3.91-.72.9.36 2.96.09 3.79 0 .83-.09 4.99.982 6.35.982 1.38 0 2.34-.09 2.81.36.47.449.65 1.374.56 1.643-.09.27.21 1.194-.36 1.996-.56.81-1.73.36-2 .891-.23.45-.73 1.244-1.23 1.587h-30.04c-1.58-2.535-8.68-13.936-8.76-14.353-.09-.474-.15-.744-.81-1.194-.66-.45-3.53-5.014-4.27-6.445-.75-1.431-6.36-11.662-6.81-12.407-.45-.744-.65.058-.74 1.252-.09 1.194-2.09 13.2-2.48 14.754-.38 1.545-.33 2.077-1.88 2.077-1.55 0-3.82.581-3.82.581s-.19 1.161 0 2.846c.2 1.685 1.5 4.007 2.66 6.992.66 1.693 1.23 4.122 1.62 5.905h-34.15v-.008zM1143 876.679v-58.624s3.18-3.426 4.73-5.111c1.54-1.685 4.14-4.531 4.54-6.028.38-1.496 1.68-3.811 2.26-5.307.58-1.497-.14-2.65.97-4.147 1.1-1.497 3.96-4.531 3.96-6.993 0-2.461.38-5.643.58-8.489.19-2.846.52-6.853 1.3-9.838.77-2.986.63-4.09-.53-3.182-1.16.916-1.49.965-2.26 2.266-.78 1.3-2.13 3.704-2.13.916 0-2.789-.72-2.012-.72-3.951 0-2.658 3.96-5.307 6.03-7.769 2.08-2.462 3.18-6.805 3.76-8.874.58-2.077-.33-2.846-.92-1.881-.58.965-.44-.777.92-1.881s4.79-4.972 8.16-7.573c3.38-2.601 5.07-3.182 5.65-7.516.58-4.343 3.42-8.015 5.5-8.735 2.08-.719 4.73-1.047 6.42-.523 1.68.523 3.39-.066 3.39-.066 2.07-2.06 6.09-5.356 9.59-5.356 3.51 0 7.53 0 10.42 1.439 2.89 1.448 5.26 3.091 7.52 4.948 2.27 1.856 2.58 1.652 3.61 3.5 1.03 1.857 1.75 3.403 1.65 4.122-.1.72-.82.826-.82.826s-.21 1.235.2 2.577c.41 1.341 1.14 2.06 1.45 2.682.31.622.31 1.235-.11 1.857-.41.621-1.14 1.341-.93 1.75.2.409 1.44 4.735 1.96 5.766.52 1.03.62 2.371.21 2.682-.41.311-1.24.311-1.24.311s-.72.924-.51 1.75c.2.826.1 2.478 0 3.198-.11.72-.11 1.954.2 3.091.31 1.137.62 2.577-.62 3.501-1.24.924-3.51 1.545-4.85 1.341-1.34-.205-3.4-.72-4.02-.72-.63 0-1.35.409-2.58 1.235-1.24.826-5.98 5.251-7.12 5.766l-1.13.515s-.21 2.168.51 4.122c.72 1.955 2.06 3.811 1.14 3.296-.93-.515-1.03-.311-.93.311.11.613.93 2.985.83 4.015-.11 1.031-.2 4.327-.83 5.668-.62 1.341-1.44 2.061-1.54 3.198-.11 1.137.1 4.531-.31 6.903-.41 2.371-1.86 8.039-2.47 9.069-.62 1.031-3.31 4.327-4.43 5.562-1.14 1.235-3.1 3.091-3.61 4.531-.52 1.439-1.03 2.167-1.75 4.122-.72 1.954-.41 2.674 0 3.713.41 1.03 1.03 3.402 1.03 3.402s2.65 3.991 2.74 4.801c.09.809 0 1.374.45 2.175.45.81.42 2.625.99 3.517.56.891 1.07 3.369 1.73 3.909.66.54.84 1.014.93 1.996.09.981.99 2.265 1.34 3.075.36.809 1.1 1.791 1.01 2.625-.09.834.45 1.726.63 2.355.18.63 1.02 2.061 1.29 2.536.27.474 9.88 13.363 10.33 14.075.44.72 1.28.899 2.08.809.81-.089 3.02-1.071 3.91-.719.9.36 2.96.09 3.79 0 .84-.09 4.99.981 6.36.981s2.33-.09 2.8.36c.48.45.66 1.374.57 1.644-.09.27.2 1.194-.36 1.995-.57.81-1.73.36-2 .892-.23.45-.73 1.243-1.24 1.587h-30.03c-1.59-2.536-8.69-13.937-8.77-14.354-.09-.474-.15-.744-.81-1.194-.65-.449-3.52-5.013-4.27-6.444-.74-1.432-6.35-11.663-6.8-12.407-.45-.744-.66.057-.75 1.251-.09 1.194-2.09 13.2-2.47 14.754-.39 1.546-.34 2.078-1.88 2.078-1.55 0-3.82.58-3.82.58s-.2 1.162 0 2.846c.19 1.685 1.49 4.008 2.65 6.993.67 1.693 1.24 4.122 1.62 5.905H1143v-.008z" fill="#E3E3E4"/><path fill-rule="evenodd" clip-rule="evenodd" d="M1978.59 892.07c.58.245-15.93-53.332-10.64-52.351 6.2 1.154 11.32-4.007 13.18-5.643 1.21-1.063 3.46-3.557 5.26-5.79 1.02-1.325 1.94-2.56 2.32-3.361 1.04-2.151 3.08-5.153 3.43-6.192.34-1.038.34-2.502.34-3.075 0-.572.58-1.038 1-1.382.43-.343 3.35-1.807 3.93-2.388.58-.581.76-2.036.76-3.075 0-1.039 0-1.039.59-1.611.58-.581.34-1.464.34-2.617s.23-1.497.34-2.421c.12-.924-1.27-1.693-2.03-2.503-.77-.809-1.16-.695-1.27-.229-.12.458.23 1.382.23 1.382s-.35.696-1.27.696-.23-.458.11-1.039c.35-.572-.81-1.726-2.27-2.192-1.46-.458-3.46-.998-4.24-1.112-.76-.115-2.07.229-3.23 1.235-1.15.998-3.07 3.116-4.35 4.343-1.27 1.235-1.58.924-1.69-.344-.11-1.268-.58-5.111-.58-7.418 0-2.306-1.27-6.15-1.5-9.037-.23-2.879.12-5.921.12-7.303 0-1.382-2.96-4.343-3.77-4.809-.81-.458-1.12-.581-2.62-2.037-1.5-1.464-6.97-4.113-9.86-5.725-2.88-1.611-3.42-1.464-3.07-2.265.34-.81 0-1.848 1.27-3.419 1.26-1.578 3.07-2.077 4.35-2.191 1.27-.115 3.58-.336 4.23-.925 1.12-.997.12-2.388 0-4.882-.1-2.29.23-4.228.35-5.153.11-.924.23-1.611 0-2.535-.23-.924-.23-1.693.54-1.807.77-.115.75-1.096-.05-2.102-.8-1.006-2.31-2.912-1.91-4.114.4-1.202-1-3.917-1.8-7.025-.81-3.108-2.92-5.725-6.83-8.432-3.92-2.707-8.03-3.713-12.35-3.713s-10.84 1.055-13.38 3.198c-1.58 1.333-4.43 4.588-4.73 10.067-.3 5.472.3 10.068 1.53 12.955 1.23 2.887 2.14 5.03 2.14 7.311 0 2.282.3 2.585-1.53 2.585-1.84 0-1.97.777-2.89 2.445-.92 1.669 0 4.253-1.23 5.169-1.23.916-6.57.916-9.15 2.143-2.59 1.226-6.4 3.811-7.93 11.425-1.53 7.614-1.97 19.825-1.97 22.712 0 2.887.13 7.139.75 9.593.61 2.445.3 3.059 1.53 5.03 1.22 1.971 1.22 2.281 0 2.584-1.23.303-3.99-2.445-5.96-3.811-1.97-1.358-3.02-1.53-4.86-.303-1.84 1.227-2.76 1.53-1.84 4.727.91 3.198 11.13 21.493 12.96 25.91.56 1.357 2.58 4.563 5.25 8.342 13.69-6.747 45.48 45.914 63.95 42.479zm-691.57 9.896c.58.245-15.92-53.332-10.64-52.35 6.21 1.153 11.32-4.008 13.19-5.643 1.21-1.063 3.45-3.558 5.25-5.791 1.03-1.325 1.94-2.559 2.33-3.361 1.04-2.151 3.07-5.152 3.42-6.191.35-1.039.35-2.503.35-3.075 0-.573.58-1.039.99-1.382.43-.344 3.35-1.808 3.93-2.388.58-.581.77-2.037.77-3.075 0-1.039 0-1.039.58-1.612.58-.58.34-1.464.34-2.617s.23-1.496.35-2.421c.11-.924-1.27-1.693-2.04-2.502-.77-.81-1.15-.695-1.27-.229-.11.458.23 1.382.23 1.382s-.34.695-1.27.695c-.92 0-.22-.458.12-1.039.34-.572-.81-1.725-2.27-2.191-1.47-.458-3.46-.998-4.24-1.113-.77-.114-2.08.229-3.23 1.235-1.16.998-3.08 3.116-4.35 4.343-1.27 1.235-1.58.924-1.7-.343-.11-1.268-.58-5.112-.58-7.418 0-2.307-1.26-6.15-1.49-9.037-.23-2.879.11-5.922.11-7.304 0-1.382-2.96-4.343-3.77-4.809-.81-.458-1.12-.58-2.62-2.036-1.49-1.464-6.96-4.114-9.85-5.725-2.89-1.611-3.43-1.464-3.08-2.266.35-.809 0-1.848 1.27-3.418 1.27-1.579 3.08-2.077 4.35-2.192 1.27-.114 3.58-.335 4.24-.924 1.12-.998.11-2.388 0-4.883-.11-2.29.23-4.228.34-5.152.12-.924.23-1.611 0-2.535-.23-.925-.23-1.693.54-1.808.77-.114.75-1.096-.05-2.102-.8-1.006-2.3-2.911-1.9-4.113.4-1.203-1.01-3.918-1.81-7.026-.8-3.108-2.91-5.725-6.83-8.432-3.92-2.707-8.03-3.713-12.35-3.713s-10.83 1.055-13.38 3.198c-1.58 1.333-4.42 4.588-4.73 10.068-.3 5.471.31 10.067 1.53 12.954 1.23 2.887 2.15 5.03 2.15 7.312s.3 2.584-1.53 2.584c-1.84 0-1.97.777-2.9 2.446-.91 1.668 0 4.252-1.22 5.168-1.23.916-6.57.916-9.16 2.143-2.58 1.227-6.39 3.811-7.93 11.425-1.53 7.615-1.97 19.825-1.97 22.712 0 2.887.14 7.14.75 9.593.62 2.446.3 3.059 1.53 5.03s1.23 2.282 0 2.585c-1.23.302-3.98-2.446-5.95-3.812-1.97-1.357-3.03-1.529-4.87-.302-1.84 1.226-2.75 1.529-1.84 4.727.92 3.198 11.13 21.493 12.96 25.909.57 1.358 2.58 4.564 5.25 8.342 13.7-6.747 45.48 45.914 63.95 42.479zm60.32-38.889c1.84-.597 7.1-2.241 8.39-2.241 1.57 0 1.83 4.596 3.71-8.154s4.34-23.93 4.65-30.457c.31-6.526-1.83-15.253-8.36-9.667-6.54 5.594-10.36 9.634-12.2 11.147-1.83 1.522-3.96 1.595-7.41.655-3.45-.941-.31-6.527-.31-6.527s12.92-10.501 17.73-12.75c4.28-1.995 6.78-2.036 10.29-1.881 3.04.139 6.49 2.192 7.43 10.289.81 7-4.47 38.381-6.44 49.577h-17.48v.009z" fill="#E3E3E4"/><path d="M1244.23 819.886c0-2.077 1.96-3.762 4.38-3.762s4.38 1.685 4.38 3.762-1.96 3.762-4.38 3.762-4.38-1.685-4.38-3.762z" fill="#E3E3E4"/><path fill-rule="evenodd" clip-rule="evenodd" d="M1340.5 863.077c-.86-4.866-1.51-8.759-1.62-9.855-.34-3.467-14.28-8.047-14.93-12.096-.63-4.048.3-8.931 0-10.779-.29-1.84.76-7.115.31-8.931-.11-.466-1.26-5.545-1.4-6.027l22.41 4.899c16.96 4.13 21.03 4.661 22.14 10.059 1.22 5.929-1.44 23.08-1.03 25.697.11.646.32 3.337.64 7.033h-26.52zm733.47-55.743c.04-1.014.18-2.004.57-2.609.84-1.358.9-2.871 1.06-4.719.16-1.84.03-7.933.93-9.757.9-1.824.79-3.966.7-5.741-.09-1.775 1.86-4.441 2.48-4.997.63-.556 2.49-1.57 2.88-1.464.4.106 2-.892 3.54-1.628 1.53-.736 14.27-6.101 14.84-6.706 1.05-1.104 3.14-2.38 4.64-3.983 1.49-1.603 2.21-1.963 2.83-2.151.63-.188.94-.368 1.34-1.652.41-1.284 1-2.053 1-2.053s.78-.041.7-1.619c-.08-1.578.21-2.012-.81-3.378-1.02-1.365-2.45-4.4-2.45-4.4s-1.03.368-1.73-.858c-.69-1.227-2.6-4.286-2.53-5.979.07-1.685.52-2.184 1.15-2.216.63-.033 1.38-.704.55-1.611-.84-.908-1.74-5.962-1.4-8.514.34-2.544 1.52-7.238 3.72-9.414 2.21-2.167 6.56-4.612 10.03-4.841 3.77-.254 10.46 1.431 12.6 3.737 2.14 2.307 4.62 6.797 4.95 10.518.32 3.721.26 4.948.26 4.948s1.01-.188 1.59.18c.58.368 1 3.157.82 4.751-.18 1.595-2.61 6.388-3.52 6.699-.9.31-.99 2.069-1.46 3.017-.48.949-.31 1.571-.5 3.067-.19 1.497-.12 7.745-.22 8.408-.1.662.54.27.84.916.3.646.7 3.23.76 4.187.04.957 1.01 1.039 1.76 2.715.75 1.677 3.08 5.063 5.28 6.535 2.19 1.472 11.78 7.213 12.36 7.451.58.237 2.91 1.733 3.12 3.173.12.85 1.45 10.566 2.75 18.99l-85.43.998z" fill="#E3E3E4"/><path d="M1373.19 825.702c0-2.078 1.96-3.763 4.37-3.763 2.42 0 4.39 1.685 4.39 3.763 0 2.077-1.97 3.762-4.39 3.762-2.41 0-4.37-1.685-4.37-3.762z" fill="#E3E3E4"/><path fill-rule="evenodd" clip-rule="evenodd" d="M1985.39 813.974c.95-3.468 1.93-7.352 2.63-8.874 1.24-2.731 1.24-12.832 2.23-18.786.99-5.953 4.59-13.903 5.92-16.7 1.33-2.797 4.66-3.68 6.88-3.811 2.22-.131 3.6-.663 6.53-.932 2.92-.27 8.74-3.19 10.2-4.122 1.47-.933 5.29-4.613 5.95-5.545.66-.933.4-3.19.4-5.455 0-2.266-.93-1.955-2-2.086-1.06-.131-.53-.532-1.86-2.265-1.33-1.726-1.28-4.654-1.96-6.609-.66-1.954 1.16-1.995 1.83-1.995.66 0 0-1.063-.27-3.86-.27-2.797.53-8.604.66-10.199.13-1.595 3.2-3.149 4.26-3.811 1.07-.662 2.13-1.865 3.2-3.19 1.06-1.333 2.36-1.725 3.68-1.725 1.32 0 2.53-.131 3.2-.131.66 0 1.46.532 2.39.401.94-.131 3.02.4 4.49.801 1.46.401 4.39 5.185 5.41 7.14 1.02 1.955 1.86 4.122 2.27 5.586.4 1.464.4 6.076 0 7.14-.41 1.063-1.56 4.645-1.01 7.638.55 3.002-1.37 12.268-2.46 14.443-1.1 2.184-3.27 4.638-3 6.813.27 2.184 1.63 3.549 4.36 4.907 2.74 1.366 6.82 5.177 12.55 8.996 5.73 3.82 3.82 4.908 4.09 14.444.09 3.189-.94 15.04-1.19 20.069l.08 1.71h-79.46v.008zm-633.41 17.528c.95-3.467 1.93-7.352 2.63-8.873 1.24-2.732 1.24-12.832 2.23-18.786.99-5.954 4.59-13.904 5.92-16.701 1.34-2.797 4.66-3.68 6.88-3.811 2.22-.131 3.6-.662 6.53-.932 2.92-.27 8.74-3.19 10.2-4.122 1.47-.932 5.29-4.613 5.95-5.545.66-.932.4-3.19.4-5.455 0-2.266-.93-1.955-2-2.086-1.06-.13-.53-.531-1.86-2.265-1.33-1.726-1.28-4.654-1.95-6.608-.67-1.955 1.15-1.996 1.82-1.996.66 0 0-1.063-.27-3.86-.27-2.797.53-8.604.66-10.198.13-1.595 3.2-3.149 4.26-3.812 1.07-.662 2.13-1.864 3.2-3.189 1.06-1.333 2.36-1.726 3.68-1.726 1.33 0 2.53-.131 3.2-.131.66 0 1.46.532 2.39.401.94-.131 3.02.401 4.49.801 1.46.401 4.39 5.186 5.41 7.14 1.02 1.955 1.87 4.122 2.27 5.586.4 1.464.4 6.077 0 7.14-.4 1.063-1.56 4.645-1.01 7.639.55 3.001-1.37 12.267-2.46 14.443-1.1 2.183-3.27 4.637-3 6.812.27 2.184 1.63 3.55 4.36 4.907 2.74 1.366 6.83 5.177 12.55 8.997 5.73 3.819 3.82 4.907 4.09 14.443.09 3.19-.94 15.04-1.19 20.07l.08 1.709h-79.46v.008z" fill="#E3E3E4"/><path fill-rule="evenodd" clip-rule="evenodd" d="M1293.83 823.87c.95-3.467 1.93-7.352 2.62-8.873 1.25-2.732 1.25-12.832 2.24-18.786.98-5.954 4.58-13.903 5.92-16.7 1.33-2.798 4.66-3.681 6.87-3.812 2.22-.13 3.6-.662 6.53-.932s8.74-3.19 10.21-4.122c1.46-.932 5.28-4.613 5.94-5.545.67-.932.4-3.189.4-5.455 0-2.265-.93-1.955-1.99-2.085-1.06-.131-.53-.532-1.87-2.266-1.33-1.726-1.28-4.653-1.95-6.608-.66-1.955 1.15-1.996 1.82-1.996.67 0 0-1.063-.27-3.86-.27-2.797.53-8.604.67-10.198.13-1.595 3.19-3.149 4.26-3.811 1.06-.663 2.12-1.865 3.19-3.19 1.07-1.333 2.36-1.726 3.68-1.726 1.33 0 2.53-.131 3.2-.131.66 0 1.47.532 2.4.401.93-.131 3.02.401 4.48.802 1.46.4 4.39 5.185 5.41 7.139 1.03 1.955 1.87 4.122 2.27 5.586.4 1.464.4 6.077 0 7.14-.4 1.063-1.55 4.645-1.01 7.639.55 3.001-1.36 12.267-2.46 14.443-1.09 2.184-3.27 4.637-3 6.813.27 2.183 1.64 3.549 4.37 4.907 2.73 1.365 6.82 5.177 12.54 8.996 5.74 3.819 3.82 4.907 4.09 14.443.09 3.19-.94 15.04-1.18 20.07l.07 1.709h-79.45v.008zm866.83 75.332c.34-7.148 1.2-13.233 1.89-17.003 1.05-5.799 3.69-16.267 4.58-20.226.88-3.958 3.16-10.64 3.16-10.64s-2.37-2.2-3.7-3.255c-.81-.646-4.9-.499-5.35.016l-9.68-25.336 10.14-1.505 5.6-1.014s-.58-2.315-.58-4.343-.29-15.932.58-21.722c.86-5.79 1.59-9.888 3.79-11.957 2.2-2.069 5.2-3.901 7.27-4.678 2.07-.777 6.47-1.554 8.43-1.685 1.97-.131 4.8-3.492 6.34-4.801 1.56-1.316 1.82-.776 1.82-2.584 0-1.807-1.04-1.807-2.2-2.584-1.16-.777-2.2-3.877-4.02-5.971-1.81-2.085-1.94-5.945-1.94-8.816 0-2.862-.51-3.492-.64-4.784-.13-1.293-1.19-2.069-1.57-2.977-.39-.908-2.74-.115.37-9.34 3.11-9.225 6.74-8.604 12.24-14.1 0 0 1.63-1.169 2.42-1.963.79-.793 2.64-1.578 5.01-1.316 2.38.261 5.38 1.055 5.9 2.903.52 1.848-.53 2.634 0 4.048.52 1.415 1.85 2.634 3.96 7.116 2.11 4.481 2.21 9.053 3.52 10.902 1.32 1.848.8 4.048-.26 5.626-1.05 1.579-1.72 5.521-2.33 6.576-.62 1.055-1.72.376-2.51.899-.79.532-1.06 2.11-1.06 5.276 0 3.165 1.32 9.585 3.7 12.055 2.37 2.469 2.73 2.11 6.16 3.958 3.43 1.848 4.84 1.317 8.8 1.848 3.96.524 8.54 6.159 9.85 13.634 1.32 7.475 2.38 33.237 2.65 44.932.26 11.695-1.59 13.535-2.65 15.744-1.05 2.2-2.37 2.11-5.37 0-2.99-2.11-6.6-4.31-8.97-5.627-2.37-1.317-2.99-1.848-2.73-.532.26 1.317.26 3.165 2.37 5.627 2.11 2.47 2.21 6.854 2.99 9.847.8 2.993 1.06 3.688 0 3.958-1.05.262-2.11.794-1.31 3.427.68 2.257 2.51 20.724 3.19 30.375h-69.86v-.008zm-740.2 16.586c.34-7.148 1.2-13.233 1.88-17.003 1.06-5.799 3.7-16.267 4.58-20.226.89-3.958 3.17-10.64 3.17-10.64s-2.37-2.2-3.7-3.255c-.81-.646-4.9-.499-5.35.016l-9.68-25.336 10.14-1.505 5.6-1.014s-.58-2.315-.58-4.343-.29-15.932.58-21.722c.86-5.79 1.59-9.888 3.79-11.957 2.2-2.069 5.2-3.901 7.27-4.678 2.07-.777 6.47-1.554 8.43-1.685 1.97-.131 4.8-3.492 6.34-4.801 1.56-1.316 1.82-.777 1.82-2.584s-1.04-1.807-2.2-2.584c-1.16-.777-2.2-3.877-4.02-5.971-1.81-2.085-1.94-5.945-1.94-8.816 0-2.862-.51-3.492-.64-4.784-.13-1.293-1.19-2.07-1.57-2.977-.39-.908-2.74-.115.36-9.34 3.12-9.225 6.74-8.604 12.25-14.1 0 0 1.63-1.169 2.42-1.963.79-.793 2.64-1.578 5.01-1.316 2.37.261 5.38 1.055 5.9 2.903.52 1.848-.53 2.633 0 4.048.52 1.415 1.85 2.634 3.96 7.116 2.11 4.481 2.21 9.053 3.52 10.901 1.32 1.849.8 4.049-.26 5.627-1.05 1.579-1.72 5.521-2.33 6.576-.62 1.055-1.72.376-2.51.899-.79.532-1.06 2.11-1.06 5.275 0 3.166 1.32 9.586 3.7 12.055 2.37 2.47 2.73 2.111 6.16 3.959 3.43 1.848 4.84 1.317 8.8 1.848 3.96.524 8.54 6.159 9.85 13.634 1.32 7.475 2.38 33.237 2.65 44.932.26 11.695-1.59 13.535-2.65 15.744-1.05 2.2-2.37 2.11-5.37 0-2.99-2.11-6.6-4.31-8.97-5.627-2.37-1.317-2.99-1.849-2.73-.532.26 1.317.26 3.165 2.37 5.627 2.11 2.47 2.21 6.854 2.99 9.847.8 2.993 1.06 3.688 0 3.958-1.05.262-2.11.794-1.31 3.427.67 2.257 2.51 20.724 3.19 30.375h-69.86v-.008z" fill="#E3E3E4"/><path fill-rule="evenodd" clip-rule="evenodd" d="M2295.47 901.022l2.64-141.953c-1.82-.172-26.69-.458-27.65-.72-.96-.262-2.18-.524-2.44-1.227-.26-.703 2.44-.957 3.06-1.219.6-.261 1.91-1.57 2.26-4.007.36-2.437.09-9.749-.87-13.756-.97-4.008-4.27-8.792-6.11-10.877-1.83-2.086-5.92-3.664-7.41-3.926-1.48-.262-4.87.172-5.4.433-.53.262-1.04.434-1.92.262-.86-.172-2.26.09-2.96.532-.69.441-.79.523-1.39.695-.61.172-2.36.695-2.79 1.038-.44.344-.7 1.137-1.13 1.137-.44 0-1.23.344-1.83.695-.61.344-2.7 2.438-3.66 3.828-.96 1.39.09 3.754.87 5.136.78 1.39 1.73 1.734 1.6 2.396-.13.663-.2 2.258-.2 2.789 0 .532.07 1.186.4 1.456.34.27.14.867-.13 1.398-.26.532-.39 1.325-.66 1.726s-.26 1.26.34 1.325c.59.065 1.13.131 1.06.597-.07.466.47 1.922.34 2.257-.14.336.4 1.194.4 1.194s.26.859.46 1.064c.21.196 0 .4.07.662.06.262.33.401.66.662.34.262.47.598.47 1.064 0 .466.53 2.191 1.53 2.191.99 0 1.99-.204 2.99-.204 1 0 1.79.466 2.05.867.26.401 1.33 1.922 1.33 1.922s-3.52 2.723-4.57 3.786c-1.07 1.064-8.45 5.627-9.73 6.314-1.28.687-3.52 5.251-3.52 6.666s.27 9.413.4 10.452c.14 1.047.31.948-.67.818-.99-.139-11.54-1.35-12.14-1.35-.61 0-.55.09-.84.761-.06.147-.17.548-.26 1.104-.18-.057-1.29-.311-1.92-.556-.69-.27-3.43-1.988-4.3-2.47a1.507 1.507 0 00-.26-.131c.9-1.055 2.57-3.018 2.83-3.271.68-.696-.29-1.628-.87-.965-.51.58-3.03 3.426-3.59 4.097-.3.033-.51.074-.68.114-.5.107-3.37.426-3.69.581-.32.155-.48.106-.74.474-.27.368-.32.851-.32 1.726s-.27.851-.38 1.276c-.1.425-.13 2.306-.13 2.306l.77.638-1.03 1.243-1.01 1.857 1.62-1.063.63-.687.64.212c.64.213 1.41 1.006 1.99 1.325.59.319 1.28.368 1.86.425.59.058 1.94.368 2.42.262.48-.106.81-.687.81-.687s.75.106 1.55.319c.8.213 1.78.262 2.2.156.14-.033.28-.082.4-.131-.01 1.12.1 1.619.8 1.684.75.074 4.39.908 5.58 1.064 1.19.155 7.89.817 9.56 1.12 1.1.205 4.81 1.791 7.23 2.838 1.07 2.936 1.6 6.06 1.51 9.397-.42 13.748-1.21 41.072-2.43 45.718l-4.4 43.125h58.7v.016zm204.48-176.686c-.64-.72-1.21-1.399-2.24-2.429-2.5-2.495-3.88-5.472-3.88-7.042 0-1.578.71-5.749 1.49-7.581.79-1.824.45-3.73.45-5.333 0-1.603 1.27-4.964-1.34-8.62-2.62-3.656-3.96-4.776-5.23-4.882-1.26-.115-1.9-.147-3.05-.933-1.16-.785-1.25-1.128-2.52-1.349-1.27-.221-1.88-.188-3.49-.098-2.27.131-9.93 3.68-11.19 4.76-1.25 1.079-3.71 6.461-3.8 7.81-.09 1.349.54 4.678.9 5.063.36.384 1.02.024 1.02.834 0 .809 0 1.554.54 2.273.54.72.45.965.27 1.89-.18.924-.7 3.827-.99 4.817-.3.989-.35 1.774.47 2.044.81.27 2.12-.032 2.12-.032s.32 1.046.41 1.701c.09.654.37 1.12.81 1.194.44.065.85.032.64.27-.2.237-.61.777-.54 1.087.07.303.63.557.98.925.36.376.47.662.36 1.692-.12 1.031.2 1.98 1.01 2.421.81.442 4.97.336 5.79.098.81-.237.98-.302 1.05.033.06.335.32 1.366.38 1.709.07.336-.08.573-.49.745-.41.171-5.28.924-6.36 1.267-1.09.336-3.94-.049-5.31 3.91-1.37 3.958-1.23 4.948-1.73 7.925-.5 2.968-.37 4.825-1.12 7.18-.74 2.356-1.48 3.214-1.97 4.212-.5.99.12 2.225-.5 3.468-.63 1.235-1.49 1.734-1.74 3.59-.24 1.857.25 1.734-.86 2.724-1.12.989-1.74 1.856-1.98 2.478-.25.621-.63.621-1.37 1.611-.74.989-1.11 2.723-1.86 4.212-.74 1.488-1.23 2.846-1.23 2.846s-1.37-.123-2.48-.123c-1.11 0-1.59.278-1.8 1.121-.21.842-.17.899-.89 1.324-.72.426-.97 1.088-1.05 1.906-.09.818.11.949-.19 1.202-.3.254-.6 1.088-.6 1.988 0 .899.08.899-.08 1.202-.17.294-.68.18-.13 1.668.55 1.481.99 2.846 1.2 3.231.21.384 1.51.932 2.16 1.014.65.082 1.45.131 1.83.213.39.081 1.37-.508 1.54-1.056.17-.547.08-.817.42-.989.34-.172.51-.335.55-.679.04-.335.26-.638.26-.638s.77.425 1.24.082c.46-.335.97-.9.97-1.497 0-.589.04-1.014.39-.507.33.507.85.638 1.28.385.43-.254.8-.638.8-1.055 0-.426.13-.589.26-.933.13-.335.36-.253 1.01-.294.65-.041 1.83-.27 1.83-.27s-.02 6.477-.09 7.958c-.07 1.488-.43 5.226-.8 7.221-.37 1.996-.61 3.918-1.42 5.3-.8 1.382-.87 5.414-.65 6.755.22 1.341.44 1.341-.07 2.069s-1.42 2.536-1.57 3.771c-.14 1.235-.72 2.036-1.3 3.958-.58 1.922-.4 2.069-.9 2.871-.51.801-1.65 4.424-2.33 6.861-.69 2.429-3.41 11.663-3.71 13.151-.29 1.489-.51 2.388-.65 2.969-.15.581 50.43-.131 50.43-.131s.23-.777.69-2.134l-.05-116.404z" fill="#E3E3E4"/><path fill-rule="evenodd" clip-rule="evenodd" d="M2332.54 838.516c-3.74-2.639-3.75-7.255-3.75-10.296 0-4.473 6.88-6.379 12.81-6.626 5.93-.246 24.62-.48 24.45-1.737-1.24-9.609 6.38-35.789 8.62-47.836 2.99-16.027 5.89-16.027 10.12-16.773 4.23-.745 4.43.247 5.92 0 1.5-.246 51.15-4.434 52.35-4.927 1.21-.499 2.65-.687 5.11-.856 6.01-.415 8.45 9.226 5.75 17.629-3.23 10.088-6.42 20.462-12.6 35.743-6.17 15.282-4.43 21.454-3.44 28.865.37 2.742.33 4.973-.13 6.821h-105.21v-.007z" fill="#E3E3E4"/><path d="M1782.09 825.702c0-2.078 1.96-3.763 4.37-3.763 2.42 0 4.39 1.685 4.39 3.763 0 2.077-1.97 3.762-4.39 3.762-2.41 0-4.37-1.685-4.37-3.762z" fill="#E3E3E4"/><path fill-rule="evenodd" clip-rule="evenodd" d="M2389.46 842.623s-52.75 1.006-52.99-.09c-.24-1.087-2.06-12.431-2.54-15.081-.49-2.65-4.35-19.424-4.35-20.871 0-1.456-1.2-2.65-3.75-2.65-2.54 0-6.78 1.611-7.94 1.685-1.16.073-7.58 1.382-10.5 1.815-2.92.434-8.89.287-9.63-.073-.73-.36-4.15-2.118-4.88-2.405-.73-.294-3.43-.875-3.86-1.382-.43-.507-12.75-5.978-14.15-6.485-1.39-.507-1.59-.728-1.81-1.456-.23-.728-.81-4.008-.81-4.809 0-.802.08-1.464-.07-1.75-.15-.295-1.03-1.014-1.61-1.595-.58-.581-.58-1.014-.58-1.235 0-.221.15-.883.36-1.538.22-.654-.22-.875-.8-1.234-.58-.36-3.65-2.405-4.16-2.847-.51-.433-2.77-2.772-3.57-3.5-.8-.728-1.61-1.382-1.89-1.816-.3-.433-.3-1.823 0-2.191.3-.36.43-1.015.43-1.456 0-.434.88-1.317 1.46-1.611.58-.287.51-1.235.58-1.669.07-.433.95-1.235 1.46-1.308.52-.074.58-.957.8-1.391.22-.433-.29-.433-1.08-.875-.81-.433-1.17-1.014-1.76-1.455-.58-.434-1.74-.663-3-1.612-1.24-.94.23-2.11 1.54-1.529 1.32.581 2.55.875 2.84 1.088.29.221 1.54.36 2.19.728.66.359 2.63 1.611 3.28 1.611.66 0 1.96.801 3.07 1.815 1.09 1.015 2.47 3.059 2.91 3.566.43.507 1.2 5.84 1.95 7.05.76 1.21 2.11 1.807 2.81 2.503.69.695 1.36.907 1.36.907s.91.753 2.35 1.661c1.45.907 3.32 2.052 3.86 2.2.54.147 2.87.605 4.02 1.055 1.14.45 3.17 1.055 4.92 1.055s4.62.147 5.52.842c.91.695 1.15.908 1.75.753.61-.148 3.05.065 4.77-.916 1.73-.99 4.11-2.871 5.59-4.76 1.49-1.89 1.4-1.726 1.15-2.961-.25-1.235.74-4.269 1.23-5.504.5-1.235.75-2.871 2.63-4.351 1.89-1.48 2.47-1.889 4.11-3.37 1.65-1.48 3.62-3.124 6.33-4.849 2.72-1.726 5.17-4.932 5.53-5.243.36-.31.48-.433.48-.687 0-.253-.29-2.568-.33-3.173-.03-.605-.03-.507.11-.654.14-.147.14-.147.03-.507-.11-.36-.89-1.799-1.04-2.225-.15-.433-1.43-2.502-1.72-3.214-.28-.72-1.58-2.568-2.36-3.001-.79-.434-1.78-.859-3.15-1.219-1.36-.36-1.93-1.497-1.93-2.715 0-1.219-.07-1.219-.57-2.568-.5-1.358-.57-3.214-1.22-4.646a5.007 5.007 0 01-.21-3.647c.28-.859.21-1.505.43-2.364.21-.859.15-1.496-.57-2.568-.72-1.071-.65-2.216-.72-2.568-.08-.36.57-1.145 1-1.505.44-.36 1.15-2.069 1.51-2.429.36-.36-.21-.499-.57-1.145s-.5-1.856-.29-2.355c.21-.499.29-1.219.29-1.791 0-.573.07-1.644.64-2.069.57-.434.29-.573.72-1.219.44-.646 1.15-.932 1.65-1.006.49-.073 1.36-.376 2.08-1.775.73-1.406 2.05-2.592 3.22-2.38 1.16.213 1.7-.139 2.24-.327.54-.188 1.33-.327 2.05 0 .73.327 1.16.327 1.81.327.64 0 1.44.647 2.16.761.73.106 3.79 1.3 4.3 1.3.5 0 .5.213 1.27.54.76.327 3.1 2.241 3.75 2.56.65.327 1.84.646 2.27 1.186.44.54 1.38.867 2.35 3.1.93 2.134.54 3.754.97 4.4.44.646 1.16 2.486 1.27 4.073.11 1.586.73 4.588.21 5.446-.5.867-1.37 1.873-1.48 2.707-.1.835-.32 4.261-.32 5.447s-.76 2.192-.98 2.707c-.21.507 0 1.374 0 1.808 0 .433 1.08 1.545 1.41 2.053.33.507 2.24 1.586 3 1.374.76-.213 1.81-.434 3-.213 1.2.213 2.87.687 3.92.867 1.05.172 4.38.351 5.79.351 1.42 0 2.46-.122 4.03-.008 13.1.965 23.08 23.096 24.67 22.924l-10.24 77.581zm-738.49 3.091c5.24-6.044 25.36-15.719 32.21-17.322 6.84-1.603 19.74-4.007 19.74-4.007l-3.21 28.175-48.74-6.846z" fill="#E3E3E4"/></g><defs><clipPath id="clip0"><path fill="#fff" d="M0 0h2500v960H0z"/></clipPath><clipPath id="clip1"><path fill="#fff" transform="translate(0 617)" d="M0 0h194.68v222.19H0z"/></clipPath></defs></svg>