<svg width="1328" height="366" viewBox="0 0 1328 366" fill="none" xmlns="http://www.w3.org/2000/svg">
<rect x="315" width="608" height="128" fill="#EAEEF3"/>
<rect y="238" width="410" height="128" fill="#EAEEF3"/>
<rect x="447" y="238" width="410" height="128" fill="#EAEEF3"/>
<rect x="918" y="238" width="410" height="128" fill="#EAEEF3"/>
<path d="M394.464 52.576H391.992V70H394.464V64.216L397.872 61.288L404.928 70H407.832L399.528 59.824L407.808 52.576H404.64L394.464 61.528V52.576ZM408.376 61.288C408.376 66.832 411.976 70.456 417.904 70.456C423.856 70.456 427.456 66.832 427.456 61.288C427.456 55.744 423.856 52.12 417.928 52.12C411.976 52.12 408.376 55.744 408.376 61.288ZM410.944 61.288C410.944 57.016 413.488 54.448 417.904 54.448C422.344 54.448 424.888 57.016 424.888 61.288C424.888 65.536 422.368 68.128 417.928 68.128C413.488 68.128 410.944 65.56 410.944 61.288ZM432.948 62.824H438.468C442.764 62.824 444.924 61.24 444.924 57.712C444.924 54.208 442.812 52.576 438.516 52.576H430.476V70H432.948V62.824ZM432.948 54.616H437.7C440.94 54.616 442.452 55.336 442.452 57.784C442.452 59.992 440.892 60.784 437.532 60.784H432.948V54.616ZM447.937 52.576V70H450.409V54.856H461.017V70H463.489V52.576H447.937ZM466.524 61.288C466.524 66.832 470.124 70.456 476.052 70.456C482.004 70.456 485.604 66.832 485.604 61.288C485.604 55.744 482.004 52.12 476.076 52.12C470.124 52.12 466.524 55.744 466.524 61.288ZM469.092 61.288C469.092 57.016 471.636 54.448 476.052 54.448C480.492 54.448 483.036 57.016 483.036 61.288C483.036 65.536 480.516 68.128 476.076 68.128C471.636 68.128 469.092 65.56 469.092 61.288ZM491.097 62.824H496.617C500.913 62.824 503.073 61.24 503.073 57.712C503.073 54.208 500.961 52.576 496.665 52.576H488.625V70H491.097V62.824ZM491.097 54.616H495.849C499.089 54.616 500.601 55.336 500.601 57.784C500.601 59.992 499.041 60.784 495.681 60.784H491.097V54.616ZM502.289 70H504.905L507.209 65.032H516.113L518.321 70H520.889L513.137 52.576H510.569L502.289 70ZM508.241 62.752L511.769 55.336L515.105 62.752H508.241ZM518.93 52.576V54.856H525.578V70H528.05V54.856H534.698V52.576H518.93ZM536.695 52.576V70H540.031L550.975 55.144V70H553.375V52.576H550.063L539.095 67.432V52.576H536.695ZM557.367 70H566.823C570.975 70 572.967 68.392 572.967 64.912C572.967 62.656 571.791 61.24 569.607 60.808C571.431 60.088 572.367 58.816 572.367 56.968C572.367 54.208 570.495 52.576 567.063 52.576H557.367V70ZM559.839 54.856H566.559C568.839 54.856 569.895 55.552 569.895 57.352C569.895 59.32 568.671 59.896 566.031 59.896H559.839V54.856ZM559.839 62.176H566.607C569.199 62.176 570.399 63.016 570.399 65.104C570.399 67.024 569.031 67.72 566.247 67.72H559.839V62.176ZM578.589 52.576H576.117V70H578.589V61.768H589.197V70H591.669V52.576H589.197V59.488H578.589V52.576ZM598.136 52.576H595.664V70H603.704C608 70 610.088 68.368 610.088 64.864C610.088 61.336 607.928 59.488 603.632 59.488H598.136V52.576ZM598.136 61.768H602.72C606.08 61.768 607.616 62.368 607.616 64.792C607.616 67.216 606.104 67.72 602.864 67.72H598.136V61.768ZM616.136 52.576H613.664V70H616.136V52.576ZM620.109 52.576V70H623.445L634.389 55.144V70H636.789V52.576H633.477L622.509 67.432V52.576H620.109ZM624.093 47.92C624.333 50.248 625.701 51.352 628.269 51.352C630.837 51.352 632.205 50.248 632.445 47.92H630.813C630.741 49 629.877 49.528 628.269 49.528C626.661 49.528 625.797 49 625.725 47.92H624.093ZM646.733 52.576L654.317 66.76C653.429 68.176 653.165 68.416 652.157 68.416C651.509 68.416 651.077 68.392 650.621 68.32V70.288C651.173 70.384 651.869 70.456 652.541 70.456C654.125 70.456 655.469 69.904 656.789 67.24L664.109 52.576H661.277L655.589 64.48L649.565 52.576H646.733ZM668.519 52.576H666.047V70H668.519V61.768H679.127V70H681.599V52.576H679.127V59.488H668.519V52.576ZM685.594 52.576V70H688.93L699.874 55.144V70H702.274V52.576H698.962L687.994 67.432V52.576H685.594ZM706.265 70H715.721C719.873 70 721.865 68.392 721.865 64.912C721.865 62.656 720.689 61.24 718.505 60.808C720.329 60.088 721.265 58.816 721.265 56.968C721.265 54.208 719.393 52.576 715.961 52.576H706.265V70ZM708.737 54.856H715.457C717.737 54.856 718.793 55.552 718.793 57.352C718.793 59.32 717.569 59.896 714.929 59.896H708.737V54.856ZM708.737 62.176H715.505C718.097 62.176 719.297 63.016 719.297 65.104C719.297 67.024 717.929 67.72 715.145 67.72H708.737V62.176ZM725.015 70H739.031V67.72H727.487V62.224H738.167V59.944H727.487V54.856H738.863V52.576H725.015V70ZM744.644 62.824H750.164C754.46 62.824 756.62 61.24 756.62 57.712C756.62 54.208 754.508 52.576 750.212 52.576H742.172V70H744.644V62.824ZM744.644 54.616H749.396C752.636 54.616 754.148 55.336 754.148 57.784C754.148 59.992 752.588 60.784 749.228 60.784H744.644V54.616ZM777.033 63.256H774.465C774.057 66.184 771.657 68.128 768.225 68.128C763.809 68.128 761.241 65.56 761.241 61.288C761.241 57.016 763.785 54.448 768.201 54.448C771.537 54.448 773.793 56.128 774.273 58.912H776.841C776.481 54.88 773.097 52.12 768.225 52.12C762.273 52.12 758.673 55.744 758.673 61.288C758.673 66.832 762.273 70.456 768.201 70.456C773.145 70.456 776.577 67.6 777.033 63.256ZM779.883 52.576V70H783.219L794.163 55.144V70H796.563V52.576H793.251L782.283 67.432V52.576H779.883ZM798.562 52.576V54.856H805.211V70H807.683V54.856H814.331V52.576H798.562ZM816.328 70H830.344V67.72H818.8V62.224H829.48V59.944H818.8V54.856H830.176V52.576H816.328V70ZM831.492 52.576V54.856H838.14V70H840.612V54.856H847.26V52.576H831.492Z" fill="#171C28"/>
<path d="M55.5734 276.576H53.1014V294H67.9574V298.944H70.3814V291.72H68.6534V276.576H66.1814V291.72H55.5734V276.576ZM85.8438 288.024V287.568C85.8438 283.272 83.2278 280.68 78.8118 280.68C74.4918 280.68 71.7318 283.392 71.7318 287.568C71.7318 291.72 74.4678 294.36 78.8118 294.36C82.2438 294.36 84.7158 292.776 85.6278 289.992H82.9158C82.3878 291.408 80.8518 292.2 78.8118 292.2C76.0518 292.2 74.2038 290.544 74.2038 288.024H85.8438ZM74.2518 286.368C74.6358 284.16 76.3398 282.84 78.8118 282.84C81.3078 282.84 82.9878 284.184 83.3478 286.368H74.2518ZM90.7904 281.088H88.4624V294H90.7904V288.216H98.6624V294H100.99V281.088H98.6624V286.248H90.7904V281.088ZM102.911 281.088V283.056H108.167V294H110.495V283.056H115.751V281.088H102.911ZM119.994 281.088H117.666V298.584H119.994V292.104C121.314 293.616 122.898 294.36 124.962 294.36C129.066 294.36 131.898 291.576 131.898 287.568C131.898 283.536 129.066 280.68 124.986 280.68C122.802 280.68 121.074 281.592 119.994 283.032V281.088ZM124.722 282.84C127.65 282.84 129.426 284.664 129.426 287.568C129.426 290.448 127.65 292.2 124.722 292.2C121.794 292.2 119.994 290.424 119.994 287.568C119.994 284.688 121.794 282.84 124.722 282.84ZM144.861 281.088H142.533V294H144.861V289.344L147.261 287.424L152.421 294H155.565L148.989 286.008L155.109 281.088H151.653L144.861 286.728V281.088ZM163.635 280.68C159.195 280.68 156.411 283.416 156.411 287.568C156.411 291.72 159.195 294.36 163.635 294.36C168.075 294.36 170.835 291.72 170.835 287.568C170.835 283.416 168.075 280.68 163.635 280.68ZM163.635 282.84C166.587 282.84 168.363 284.592 168.363 287.52C168.363 290.448 166.587 292.2 163.635 292.2C160.683 292.2 158.883 290.448 158.883 287.52C158.883 284.592 160.683 282.84 163.635 282.84ZM175.775 281.088H173.447V298.584H175.775V292.104C177.095 293.616 178.679 294.36 180.743 294.36C184.847 294.36 187.679 291.576 187.679 287.568C187.679 283.536 184.847 280.68 180.767 280.68C178.583 280.68 176.855 281.592 175.775 283.032V281.088ZM180.503 282.84C183.431 282.84 185.207 284.664 185.207 287.568C185.207 290.448 183.431 292.2 180.503 292.2C177.575 292.2 175.775 290.424 175.775 287.568C175.775 284.688 177.575 282.84 180.503 282.84ZM190.298 281.088V294H192.626V283.056H200.498V294H202.826V281.088H190.298ZM212.667 280.68C208.227 280.68 205.443 283.416 205.443 287.568C205.443 291.72 208.227 294.36 212.667 294.36C217.107 294.36 219.867 291.72 219.867 287.568C219.867 283.416 217.107 280.68 212.667 280.68ZM212.667 282.84C215.619 282.84 217.395 284.592 217.395 287.52C217.395 290.448 215.619 292.2 212.667 292.2C209.715 292.2 207.915 290.448 207.915 287.52C207.915 284.592 209.715 282.84 212.667 282.84ZM224.806 281.088H222.478V298.584H224.806V292.104C226.126 293.616 227.71 294.36 229.774 294.36C233.878 294.36 236.71 291.576 236.71 287.568C236.71 283.536 233.878 280.68 229.798 280.68C227.614 280.68 225.886 281.592 224.806 283.032V281.088ZM229.534 282.84C232.462 282.84 234.238 284.664 234.238 287.568C234.238 290.448 232.462 292.2 229.534 292.2C226.606 292.2 224.806 290.424 224.806 287.568C224.806 284.688 226.606 282.84 229.534 282.84ZM249.17 287.376V289.296C249.17 290.928 247.178 292.392 244.202 292.392C242.378 292.392 241.346 291.576 241.346 290.352C241.346 288.768 242.738 288.552 245.258 288.264C247.202 288.048 248.498 287.784 249.17 287.376ZM249.242 292.008C249.482 293.4 250.154 294.144 251.498 294.144C251.93 294.144 252.602 294.096 253.346 293.976V292.104C253.058 292.152 252.842 292.176 252.65 292.176C251.738 292.176 251.498 291.528 251.498 290.184V284.952C251.498 281.808 249.89 280.68 245.594 280.68C241.634 280.68 239.546 282.192 239.378 285.24H241.802C241.922 283.392 243.146 282.648 245.762 282.648C248.09 282.648 249.17 283.248 249.17 284.64C249.17 286.2 247.682 286.128 244.826 286.44C241.154 286.848 238.874 287.472 238.874 290.472C238.874 292.872 240.578 294.36 243.818 294.36C246.194 294.36 248.066 293.496 249.242 292.008ZM253.45 281.088V283.056H258.706V294H261.034V283.056H266.29V281.088H253.45ZM270.533 281.088H268.205V294H270.773L278.669 283.968V294H280.997V281.088H278.405L270.533 291.144V281.088ZM284.447 294H291.503C294.575 294 296.567 292.824 296.567 290.4C296.567 288.792 295.679 287.616 294.023 287.16C294.815 286.752 295.775 285.864 295.775 284.4C295.775 282.384 294.263 281.088 291.503 281.088H284.447V294ZM286.775 288.192H291.407C293.351 288.192 294.239 288.768 294.239 290.112C294.239 291.432 293.423 292.032 291.647 292.032H286.775V288.192ZM286.775 283.056H291.239C293.015 283.056 293.567 283.536 293.567 284.736C293.567 285.936 292.751 286.392 291.215 286.392H286.775V283.056ZM301.892 281.088H299.564V294H301.892V288.216H309.764V294H312.092V281.088H309.764V286.248H301.892V281.088ZM321.932 280.68C317.492 280.68 314.708 283.416 314.708 287.568C314.708 291.72 317.492 294.36 321.932 294.36C326.372 294.36 329.132 291.72 329.132 287.568C329.132 283.416 326.372 280.68 321.932 280.68ZM321.932 282.84C324.884 282.84 326.66 284.592 326.66 287.52C326.66 290.448 324.884 292.2 321.932 292.2C318.98 292.2 317.18 290.448 317.18 287.52C317.18 284.592 318.98 282.84 321.932 282.84ZM331.744 281.088V294H334.072V283.056H342.448V281.088H331.744ZM350.807 280.68C346.367 280.68 343.583 283.416 343.583 287.568C343.583 291.72 346.367 294.36 350.807 294.36C355.247 294.36 358.007 291.72 358.007 287.568C358.007 283.416 355.247 280.68 350.807 280.68ZM350.807 282.84C353.759 282.84 355.535 284.592 355.535 287.52C355.535 290.448 353.759 292.2 350.807 292.2C347.855 292.2 346.055 290.448 346.055 287.52C346.055 284.592 347.855 282.84 350.807 282.84ZM150.51 308.68C146.07 308.68 143.286 311.416 143.286 315.568C143.286 319.72 146.07 322.36 150.51 322.36C154.95 322.36 157.71 319.72 157.71 315.568C157.71 311.416 154.95 308.68 150.51 308.68ZM150.51 310.84C153.462 310.84 155.238 312.592 155.238 315.52C155.238 318.448 153.462 320.2 150.51 320.2C147.558 320.2 145.758 318.448 145.758 315.52C145.758 312.592 147.558 310.84 150.51 310.84ZM170.714 304.6C170.33 305.32 169.802 305.464 166.994 305.824C161.474 306.544 159.482 309.976 159.482 314.968C159.482 319.6 161.978 322.36 166.49 322.36C170.738 322.36 173.834 319.984 173.834 315.904C173.834 312.064 171.002 309.76 167.21 309.76C165.194 309.76 162.986 310.696 161.786 312.136C162.194 309.496 163.778 308.248 167.882 307.696C170.978 307.288 172.082 307.12 173.09 304.6H170.714ZM166.73 311.488C169.538 311.488 171.506 313.024 171.506 315.904C171.506 318.544 169.658 320.632 166.73 320.632C163.706 320.632 161.906 319 161.906 315.952C161.906 313.24 163.874 311.488 166.73 311.488ZM174.319 309.088L180.175 322C179.647 323.824 178.951 324.424 177.271 324.424C176.935 324.424 176.503 324.376 175.903 324.28V326.488C176.623 326.56 177.151 326.584 177.511 326.584C180.703 326.584 181.231 325.408 182.791 321.904L188.503 309.088H185.791L181.495 319.96L177.103 309.088H174.319ZM190.181 309.088V312.352C190.181 316.336 192.461 317.584 195.629 317.584C197.525 317.584 199.037 317.368 200.381 316.84V322H202.709V309.088H200.381V314.8C198.941 315.376 197.285 315.616 195.941 315.616C194.285 315.616 192.509 314.968 192.509 312.256V309.088H190.181ZM219.438 316.024V315.568C219.438 311.272 216.822 308.68 212.406 308.68C208.086 308.68 205.326 311.392 205.326 315.568C205.326 319.72 208.062 322.36 212.406 322.36C215.838 322.36 218.31 320.776 219.222 317.992H216.51C215.982 319.408 214.446 320.2 212.406 320.2C209.646 320.2 207.798 318.544 207.798 316.024H219.438ZM207.846 314.368C208.23 312.16 209.934 310.84 212.406 310.84C214.902 310.84 216.582 312.184 216.942 314.368H207.846ZM224.384 309.088H222.056V322H224.384V316.216H232.256V322H234.584V309.088H232.256V314.248H224.384V309.088ZM240.369 309.088H238.041V322H240.609L248.505 311.968V322H250.833V309.088H248.241L240.369 319.144V309.088ZM265.875 309.088H258.579C255.483 309.088 253.635 310.36 253.635 312.952C253.635 315.16 255.123 316.48 257.043 316.792L253.683 322H256.299L259.611 316.84H263.547V322H265.875V309.088ZM263.547 314.872H258.699C256.755 314.872 256.107 314.32 256.107 312.976C256.107 311.656 256.851 311.056 258.627 311.056H263.547V314.872Z" fill="#171C28"/>
<path d="M479.687 276.576H477.215V294H492.071V298.944H494.495V291.72H492.767V276.576H490.295V291.72H479.687V276.576ZM509.957 288.024V287.568C509.957 283.272 507.341 280.68 502.925 280.68C498.605 280.68 495.845 283.392 495.845 287.568C495.845 291.72 498.581 294.36 502.925 294.36C506.357 294.36 508.829 292.776 509.741 289.992H507.029C506.501 291.408 504.965 292.2 502.925 292.2C500.165 292.2 498.317 290.544 498.317 288.024H509.957ZM498.365 286.368C498.749 284.16 500.453 282.84 502.925 282.84C505.421 282.84 507.101 284.184 507.461 286.368H498.365ZM514.904 281.088H512.576V294H514.904V288.216H522.776V294H525.104V281.088H522.776V286.248H514.904V281.088ZM527.024 281.088V283.056H532.28V294H534.608V283.056H539.864V281.088H527.024ZM544.107 281.088H541.779V298.584H544.107V292.104C545.427 293.616 547.011 294.36 549.075 294.36C553.179 294.36 556.011 291.576 556.011 287.568C556.011 283.536 553.179 280.68 549.099 280.68C546.915 280.68 545.187 281.592 544.107 283.032V281.088ZM548.835 282.84C551.763 282.84 553.539 284.664 553.539 287.568C553.539 290.448 551.763 292.2 548.835 292.2C545.907 292.2 544.107 290.424 544.107 287.568C544.107 284.688 545.907 282.84 548.835 282.84ZM566.646 281.088V294H568.974V283.056H576.846V294H579.174V281.088H566.646ZM584.958 281.088H582.63V298.584H584.958V292.104C586.278 293.616 587.862 294.36 589.926 294.36C594.03 294.36 596.862 291.576 596.862 287.568C596.862 283.536 594.03 280.68 589.95 280.68C587.766 280.68 586.038 281.592 584.958 283.032V281.088ZM589.686 282.84C592.614 282.84 594.39 284.664 594.39 287.568C594.39 290.448 592.614 292.2 589.686 292.2C586.758 292.2 584.958 290.424 584.958 287.568C584.958 284.688 586.758 282.84 589.686 282.84ZM605.866 280.68C601.426 280.68 598.642 283.416 598.642 287.568C598.642 291.72 601.426 294.36 605.866 294.36C610.306 294.36 613.066 291.72 613.066 287.568C613.066 283.416 610.306 280.68 605.866 280.68ZM605.866 282.84C608.818 282.84 610.594 284.592 610.594 287.52C610.594 290.448 608.818 292.2 605.866 292.2C602.914 292.2 601.114 290.448 601.114 287.52C601.114 284.592 602.914 282.84 605.866 282.84ZM618.005 281.088H615.677V294H618.245L626.141 283.968V294H628.469V281.088H625.877L618.005 291.144V281.088ZM634.031 284.76C634.367 283.32 635.399 282.648 637.607 282.648C639.023 282.648 640.751 283.224 640.751 284.592C640.751 285.864 639.935 286.416 637.703 286.416H636.287V288.216H637.847C639.719 288.216 641.423 288.648 641.423 290.304C641.423 291.768 639.503 292.392 637.631 292.392C634.943 292.392 633.839 291.648 633.599 289.896H631.079C631.367 292.128 632.663 294.36 637.727 294.36C641.111 294.36 643.751 292.872 643.751 290.544C643.751 288.408 642.047 287.64 640.679 287.256C641.975 286.968 643.079 285.96 643.079 284.52C643.079 282.36 641.039 280.68 637.583 280.68C633.287 280.68 631.799 283.152 631.583 284.76H634.031ZM646.357 294H653.413C656.485 294 658.477 292.824 658.477 290.4C658.477 288.792 657.589 287.616 655.933 287.16C656.725 286.752 657.685 285.864 657.685 284.4C657.685 282.384 656.173 281.088 653.413 281.088H646.357V294ZM648.685 288.192H653.317C655.261 288.192 656.149 288.768 656.149 290.112C656.149 291.432 655.333 292.032 653.557 292.032H648.685V288.192ZM648.685 283.056H653.149C654.925 283.056 655.477 283.536 655.477 284.736C655.477 285.936 654.661 286.392 653.125 286.392H648.685V283.056ZM667.858 280.68C663.418 280.68 660.634 283.416 660.634 287.568C660.634 291.72 663.418 294.36 667.858 294.36C672.298 294.36 675.058 291.72 675.058 287.568C675.058 283.416 672.298 280.68 667.858 280.68ZM667.858 282.84C670.81 282.84 672.586 284.592 672.586 287.52C672.586 290.448 670.81 292.2 667.858 292.2C664.906 292.2 663.106 290.448 663.106 287.52C663.106 284.592 664.906 282.84 667.858 282.84ZM688.109 283.056V292.032H680.189C681.125 290.544 681.701 289.008 681.701 285.72V283.056H688.109ZM679.493 281.088V285.552C679.493 289.008 678.725 290.712 677.693 292.032H676.421V297.816H678.629V294H689.549V297.816H691.757V292.032H690.437V281.088H679.493ZM706.534 285.384C705.982 282.504 703.534 280.68 700.126 280.68C695.95 280.68 693.118 283.464 693.118 287.568C693.118 291.672 695.974 294.36 700.078 294.36C703.606 294.36 706.078 292.44 706.63 289.176H704.182C703.87 291.072 702.31 292.2 700.174 292.2C697.462 292.2 695.59 290.496 695.59 287.592C695.59 284.664 697.39 282.84 700.342 282.84C702.238 282.84 703.654 283.8 704.11 285.384H706.534ZM707.704 281.088V283.056H712.96V294H715.288V283.056H720.544V281.088H707.704ZM722.458 294H729.514C732.586 294 734.578 292.824 734.578 290.4C734.578 288.792 733.69 287.616 732.034 287.16C732.826 286.752 733.786 285.864 733.786 284.4C733.786 282.384 732.274 281.088 729.514 281.088H722.458V294ZM724.786 288.192H729.418C731.362 288.192 732.25 288.768 732.25 290.112C732.25 291.432 731.434 292.032 729.658 292.032H724.786V288.192ZM724.786 283.056H729.25C731.026 283.056 731.578 283.536 731.578 284.736C731.578 285.936 730.762 286.392 729.226 286.392H724.786V283.056ZM750.848 288.024V287.568C750.848 283.272 748.232 280.68 743.816 280.68C739.496 280.68 736.736 283.392 736.736 287.568C736.736 291.72 739.472 294.36 743.816 294.36C747.248 294.36 749.72 292.776 750.632 289.992H747.92C747.392 291.408 745.856 292.2 743.816 292.2C741.056 292.2 739.208 290.544 739.208 288.024H750.848ZM739.256 286.368C739.64 284.16 741.344 282.84 743.816 282.84C746.312 282.84 747.992 284.184 748.352 286.368H739.256ZM755.794 281.088H753.466V294H755.794V288.216H763.666V294H765.994V281.088H763.666V286.248H755.794V281.088ZM771.779 281.088H769.451V294H771.779V288.216H779.651V294H781.979V281.088H779.651V286.248H771.779V281.088ZM791.819 280.68C787.379 280.68 784.595 283.416 784.595 287.568C784.595 291.72 787.379 294.36 791.819 294.36C796.259 294.36 799.019 291.72 799.019 287.568C799.019 283.416 796.259 280.68 791.819 280.68ZM791.819 282.84C794.771 282.84 796.547 284.592 796.547 287.52C796.547 290.448 794.771 292.2 791.819 292.2C788.867 292.2 787.067 290.448 787.067 287.52C787.067 284.592 788.867 282.84 791.819 282.84ZM801.63 281.088V294H803.958V283.056H812.334V281.088H801.63ZM820.694 280.68C816.254 280.68 813.47 283.416 813.47 287.568C813.47 291.72 816.254 294.36 820.694 294.36C825.134 294.36 827.894 291.72 827.894 287.568C827.894 283.416 825.134 280.68 820.694 280.68ZM820.694 282.84C823.646 282.84 825.422 284.592 825.422 287.52C825.422 290.448 823.646 292.2 820.694 292.2C817.742 292.2 815.942 290.448 815.942 287.52C815.942 284.592 817.742 282.84 820.694 282.84ZM597.51 308.68C593.07 308.68 590.286 311.416 590.286 315.568C590.286 319.72 593.07 322.36 597.51 322.36C601.95 322.36 604.71 319.72 604.71 315.568C604.71 311.416 601.95 308.68 597.51 308.68ZM597.51 310.84C600.462 310.84 602.238 312.592 602.238 315.52C602.238 318.448 600.462 320.2 597.51 320.2C594.558 320.2 592.758 318.448 592.758 315.52C592.758 312.592 594.558 310.84 597.51 310.84ZM617.714 304.6C617.33 305.32 616.802 305.464 613.994 305.824C608.474 306.544 606.482 309.976 606.482 314.968C606.482 319.6 608.978 322.36 613.49 322.36C617.738 322.36 620.834 319.984 620.834 315.904C620.834 312.064 618.002 309.76 614.21 309.76C612.194 309.76 609.986 310.696 608.786 312.136C609.194 309.496 610.778 308.248 614.882 307.696C617.978 307.288 619.082 307.12 620.09 304.6H617.714ZM613.73 311.488C616.538 311.488 618.506 313.024 618.506 315.904C618.506 318.544 616.658 320.632 613.73 320.632C610.706 320.632 608.906 319 608.906 315.952C608.906 313.24 610.874 311.488 613.73 311.488ZM621.319 309.088L627.175 322C626.647 323.824 625.951 324.424 624.271 324.424C623.935 324.424 623.503 324.376 622.903 324.28V326.488C623.623 326.56 624.151 326.584 624.511 326.584C627.703 326.584 628.231 325.408 629.791 321.904L635.503 309.088H632.791L628.495 319.96L624.103 309.088H621.319ZM637.181 309.088V312.352C637.181 316.336 639.461 317.584 642.629 317.584C644.525 317.584 646.037 317.368 647.381 316.84V322H649.709V309.088H647.381V314.8C645.941 315.376 644.285 315.616 642.941 315.616C641.285 315.616 639.509 314.968 639.509 312.256V309.088H637.181ZM666.438 316.024V315.568C666.438 311.272 663.822 308.68 659.406 308.68C655.086 308.68 652.326 311.392 652.326 315.568C652.326 319.72 655.062 322.36 659.406 322.36C662.838 322.36 665.31 320.776 666.222 317.992H663.51C662.982 319.408 661.446 320.2 659.406 320.2C656.646 320.2 654.798 318.544 654.798 316.024H666.438ZM654.846 314.368C655.23 312.16 656.934 310.84 659.406 310.84C661.902 310.84 663.582 312.184 663.942 314.368H654.846ZM671.384 309.088H669.056V322H671.384V316.216H679.256V322H681.584V309.088H679.256V314.248H671.384V309.088ZM687.369 309.088H685.041V322H687.609L695.505 311.968V322H697.833V309.088H695.241L687.369 319.144V309.088ZM712.875 309.088H705.579C702.483 309.088 700.635 310.36 700.635 312.952C700.635 315.16 702.123 316.48 704.043 316.792L700.683 322H703.299L706.611 316.84H710.547V322H712.875V309.088ZM710.547 314.872H705.699C703.755 314.872 703.107 314.32 703.107 312.976C703.107 311.656 703.851 311.056 705.627 311.056H710.547V314.872Z" fill="#171C28"/>
<path d="M975.831 276.576H973.359V294H988.215V298.944H990.639V291.72H988.911V276.576H986.439V291.72H975.831V276.576ZM1006.1 288.024V287.568C1006.1 283.272 1003.49 280.68 999.07 280.68C994.75 280.68 991.99 283.392 991.99 287.568C991.99 291.72 994.726 294.36 999.07 294.36C1002.5 294.36 1004.97 292.776 1005.89 289.992H1003.17C1002.65 291.408 1001.11 292.2 999.07 292.2C996.31 292.2 994.462 290.544 994.462 288.024H1006.1ZM994.51 286.368C994.894 284.16 996.598 282.84 999.07 282.84C1001.57 282.84 1003.25 284.184 1003.61 286.368H994.51ZM1011.05 281.088H1008.72V294H1011.05V288.216H1018.92V294H1021.25V281.088H1018.92V286.248H1011.05V281.088ZM1023.17 281.088V283.056H1028.42V294H1030.75V283.056H1036.01V281.088H1023.17ZM1040.25 281.088H1037.92V298.584H1040.25V292.104C1041.57 293.616 1043.16 294.36 1045.22 294.36C1049.32 294.36 1052.16 291.576 1052.16 287.568C1052.16 283.536 1049.32 280.68 1045.24 280.68C1043.06 280.68 1041.33 281.592 1040.25 283.032V281.088ZM1044.98 282.84C1047.91 282.84 1049.68 284.664 1049.68 287.568C1049.68 290.448 1047.91 292.2 1044.98 292.2C1042.05 292.2 1040.25 290.424 1040.25 287.568C1040.25 284.688 1042.05 282.84 1044.98 282.84ZM1075.37 285.384C1074.81 282.504 1072.37 280.68 1068.96 280.68C1064.78 280.68 1061.95 283.464 1061.95 287.568C1061.95 291.672 1064.81 294.36 1068.91 294.36C1072.44 294.36 1074.91 292.44 1075.46 289.176H1073.01C1072.7 291.072 1071.14 292.2 1069.01 292.2C1066.29 292.2 1064.42 290.496 1064.42 287.592C1064.42 284.664 1066.22 282.84 1069.17 282.84C1071.07 282.84 1072.49 283.8 1072.94 285.384H1075.37ZM1084.46 280.68C1080.02 280.68 1077.23 283.416 1077.23 287.568C1077.23 291.72 1080.02 294.36 1084.46 294.36C1088.9 294.36 1091.66 291.72 1091.66 287.568C1091.66 283.416 1088.9 280.68 1084.46 280.68ZM1084.46 282.84C1087.41 282.84 1089.18 284.592 1089.18 287.52C1089.18 290.448 1087.41 292.2 1084.46 292.2C1081.5 292.2 1079.7 290.448 1079.7 287.52C1079.7 284.592 1081.5 282.84 1084.46 282.84ZM1094.27 281.088V294H1096.6V283.056H1104.47V294H1106.8V281.088H1094.27ZM1112.58 281.088H1110.25V298.584H1112.58V292.104C1113.9 293.616 1115.48 294.36 1117.55 294.36C1121.65 294.36 1124.48 291.576 1124.48 287.568C1124.48 283.536 1121.65 280.68 1117.57 280.68C1115.39 280.68 1113.66 281.592 1112.58 283.032V281.088ZM1117.31 282.84C1120.24 282.84 1122.01 284.664 1122.01 287.568C1122.01 290.448 1120.24 292.2 1117.31 292.2C1114.38 292.2 1112.58 290.424 1112.58 287.568C1112.58 284.688 1114.38 282.84 1117.31 282.84ZM1133.49 280.68C1129.05 280.68 1126.26 283.416 1126.26 287.568C1126.26 291.72 1129.05 294.36 1133.49 294.36C1137.93 294.36 1140.69 291.72 1140.69 287.568C1140.69 283.416 1137.93 280.68 1133.49 280.68ZM1133.49 282.84C1136.44 282.84 1138.22 284.592 1138.22 287.52C1138.22 290.448 1136.44 292.2 1133.49 292.2C1130.54 292.2 1128.74 290.448 1128.74 287.52C1128.74 284.592 1130.54 282.84 1133.49 282.84ZM1143.3 294H1150.35C1153.43 294 1155.42 292.824 1155.42 290.4C1155.42 288.792 1154.53 287.616 1152.87 287.16C1153.67 286.752 1154.63 285.864 1154.63 284.4C1154.63 282.384 1153.11 281.088 1150.35 281.088H1143.3V294ZM1145.63 288.192H1150.26C1152.2 288.192 1153.09 288.768 1153.09 290.112C1153.09 291.432 1152.27 292.032 1150.5 292.032H1145.63V288.192ZM1145.63 283.056H1150.09C1151.87 283.056 1152.42 283.536 1152.42 284.736C1152.42 285.936 1151.6 286.392 1150.07 286.392H1145.63V283.056ZM1164.8 280.68C1160.36 280.68 1157.58 283.416 1157.58 287.568C1157.58 291.72 1160.36 294.36 1164.8 294.36C1169.24 294.36 1172 291.72 1172 287.568C1172 283.416 1169.24 280.68 1164.8 280.68ZM1164.8 282.84C1167.75 282.84 1169.53 284.592 1169.53 287.52C1169.53 290.448 1167.75 292.2 1164.8 292.2C1161.85 292.2 1160.05 290.448 1160.05 287.52C1160.05 284.592 1161.85 282.84 1164.8 282.84ZM1183.19 281.088V286.752L1176.37 281.088H1172.92L1179.06 286.032L1172.48 294H1175.63L1180.79 287.448L1183.19 289.344V294H1185.52V289.344L1187.92 287.448L1193.08 294H1196.22L1189.64 286.032L1195.79 281.088H1192.33L1185.52 286.752V281.088H1183.19ZM1208.35 283.056V292.032H1200.43C1201.36 290.544 1201.94 289.008 1201.94 285.72V283.056H1208.35ZM1199.73 281.088V285.552C1199.73 289.008 1198.96 290.712 1197.93 292.032H1196.66V297.816H1198.87V294H1209.79V297.816H1212V292.032H1210.68V281.088H1199.73ZM1227.47 288.024V287.568C1227.47 283.272 1224.85 280.68 1220.44 280.68C1216.12 280.68 1213.36 283.392 1213.36 287.568C1213.36 291.72 1216.09 294.36 1220.44 294.36C1223.87 294.36 1226.34 292.776 1227.25 289.992H1224.54C1224.01 291.408 1222.48 292.2 1220.44 292.2C1217.68 292.2 1215.83 290.544 1215.83 288.024H1227.47ZM1215.88 286.368C1216.26 284.16 1217.96 282.84 1220.44 282.84C1222.93 282.84 1224.61 284.184 1224.97 286.368H1215.88ZM1232.42 281.088H1230.09V294H1232.42V288.216H1240.29V294H1242.62V281.088H1240.29V286.248H1232.42V281.088ZM1248.4 281.088H1246.07V294H1248.64L1256.54 283.968V294H1258.86V281.088H1256.27L1248.4 291.144V281.088ZM1273.91 281.088H1266.61C1263.51 281.088 1261.67 282.36 1261.67 284.952C1261.67 287.16 1263.15 288.48 1265.07 288.792L1261.71 294H1264.33L1267.64 288.84H1271.58V294H1273.91V281.088ZM1271.58 286.872H1266.73C1264.79 286.872 1264.14 286.32 1264.14 284.976C1264.14 283.656 1264.88 283.056 1266.66 283.056H1271.58V286.872ZM1069.01 308.68C1064.57 308.68 1061.79 311.416 1061.79 315.568C1061.79 319.72 1064.57 322.36 1069.01 322.36C1073.45 322.36 1076.21 319.72 1076.21 315.568C1076.21 311.416 1073.45 308.68 1069.01 308.68ZM1069.01 310.84C1071.96 310.84 1073.74 312.592 1073.74 315.52C1073.74 318.448 1071.96 320.2 1069.01 320.2C1066.06 320.2 1064.26 318.448 1064.26 315.52C1064.26 312.592 1066.06 310.84 1069.01 310.84ZM1089.21 304.6C1088.83 305.32 1088.3 305.464 1085.49 305.824C1079.97 306.544 1077.98 309.976 1077.98 314.968C1077.98 319.6 1080.48 322.36 1084.99 322.36C1089.24 322.36 1092.33 319.984 1092.33 315.904C1092.33 312.064 1089.5 309.76 1085.71 309.76C1083.69 309.76 1081.49 310.696 1080.29 312.136C1080.69 309.496 1082.28 308.248 1086.38 307.696C1089.48 307.288 1090.58 307.12 1091.59 304.6H1089.21ZM1085.23 311.488C1088.04 311.488 1090.01 313.024 1090.01 315.904C1090.01 318.544 1088.16 320.632 1085.23 320.632C1082.21 320.632 1080.41 319 1080.41 315.952C1080.41 313.24 1082.37 311.488 1085.23 311.488ZM1092.82 309.088L1098.68 322C1098.15 323.824 1097.45 324.424 1095.77 324.424C1095.44 324.424 1095 324.376 1094.4 324.28V326.488C1095.12 326.56 1095.65 326.584 1096.01 326.584C1099.2 326.584 1099.73 325.408 1101.29 321.904L1107 309.088H1104.29L1100 319.96L1095.6 309.088H1092.82ZM1108.68 309.088V312.352C1108.68 316.336 1110.96 317.584 1114.13 317.584C1116.03 317.584 1117.54 317.368 1118.88 316.84V322H1121.21V309.088H1118.88V314.8C1117.44 315.376 1115.79 315.616 1114.44 315.616C1112.79 315.616 1111.01 314.968 1111.01 312.256V309.088H1108.68ZM1137.94 316.024V315.568C1137.94 311.272 1135.32 308.68 1130.91 308.68C1126.59 308.68 1123.83 311.392 1123.83 315.568C1123.83 319.72 1126.56 322.36 1130.91 322.36C1134.34 322.36 1136.81 320.776 1137.72 317.992H1135.01C1134.48 319.408 1132.95 320.2 1130.91 320.2C1128.15 320.2 1126.3 318.544 1126.3 316.024H1137.94ZM1126.35 314.368C1126.73 312.16 1128.43 310.84 1130.91 310.84C1133.4 310.84 1135.08 312.184 1135.44 314.368H1126.35ZM1142.88 309.088H1140.56V322H1142.88V316.216H1150.76V322H1153.08V309.088H1150.76V314.248H1142.88V309.088ZM1158.87 309.088H1156.54V322H1159.11L1167 311.968V322H1169.33V309.088H1166.74L1158.87 319.144V309.088ZM1184.37 309.088H1177.08C1173.98 309.088 1172.13 310.36 1172.13 312.952C1172.13 315.16 1173.62 316.48 1175.54 316.792L1172.18 322H1174.8L1178.11 316.84H1182.05V322H1184.37V309.088ZM1182.05 314.872H1177.2C1175.25 314.872 1174.61 314.32 1174.61 312.976C1174.61 311.656 1175.35 311.056 1177.13 311.056H1182.05V314.872Z" fill="#171C28"/>
<line x1="627.5" y1="126" x2="627.5" y2="187" stroke="black"/>
<line x1="627.5" y1="187" x2="627.5" y2="238" stroke="black"/>
<line x1="205.5" y1="187" x2="205.5" y2="238" stroke="black"/>
<line x1="1123.5" y1="187" x2="1123.5" y2="238" stroke="black"/>
<line x1="205" y1="186.5" x2="1124" y2="186.5" stroke="black"/>
</svg>
