<svg width="1328" height="366" fill="none" xmlns="http://www.w3.org/2000/svg"><path fill="#EAEEF3" d="M315 0h608v128H315zM0 238h410v128H0zm447 0h410v128H447zm471 0h410v128H918z"/><path d="M394.464 52.576h-2.472V70h2.472v-5.784l3.408-2.928L404.928 70h2.904l-8.304-10.176 8.28-7.248h-3.168l-10.176 8.952v-8.952zm13.912 8.712c0 5.544 3.6 9.168 9.528 9.168 5.952 0 9.552-3.624 9.552-9.168 0-5.544-3.6-9.168-9.528-9.168-5.952 0-9.552 3.624-9.552 9.168zm2.568 0c0-4.272 2.544-6.84 6.96-6.84 4.44 0 6.984 2.568 6.984 6.84 0 4.248-2.52 6.84-6.96 6.84-4.44 0-6.984-2.568-6.984-6.84zm22.004 1.536h5.52c4.296 0 6.456-1.584 6.456-5.112 0-3.504-2.112-5.136-6.408-5.136h-8.04V70h2.472v-7.176zm0-8.208h4.752c3.24 0 4.752.72 4.752 3.168 0 2.208-1.56 3-4.92 3h-4.584v-6.168zm14.989-2.04V70h2.472V54.856h10.608V70h2.472V52.576h-15.552zm18.587 8.712c0 5.544 3.6 9.168 9.528 9.168 5.952 0 9.552-3.624 9.552-9.168 0-5.544-3.6-9.168-9.528-9.168-5.952 0-9.552 3.624-9.552 9.168zm2.568 0c0-4.272 2.544-6.84 6.96-6.84 4.44 0 6.984 2.568 6.984 6.84 0 4.248-2.52 6.84-6.96 6.84-4.44 0-6.984-2.568-6.984-6.84zm22.005 1.536h5.52c4.296 0 6.456-1.584 6.456-5.112 0-3.504-2.112-5.136-6.408-5.136h-8.04V70h2.472v-7.176zm0-8.208h4.752c3.24 0 4.752.72 4.752 3.168 0 2.208-1.56 3-4.92 3h-4.584v-6.168zM502.289 70h2.616l2.304-4.968h8.904L518.321 70h2.568l-7.752-17.424h-2.568L502.289 70zm5.952-7.248l3.528-7.416 3.336 7.416h-6.864zm10.689-10.176v2.28h6.648V70h2.472V54.856h6.648v-2.28H518.93zm17.765 0V70h3.336l10.944-14.856V70h2.4V52.576h-3.312l-10.968 14.856V52.576h-2.4zM557.367 70h9.456c4.152 0 6.144-1.608 6.144-5.088 0-2.256-1.176-3.672-3.36-4.104 1.824-.72 2.76-1.992 2.76-3.84 0-2.76-1.872-4.392-5.304-4.392h-9.696V70zm2.472-15.144h6.72c2.28 0 3.336.696 3.336 2.496 0 1.968-1.224 2.544-3.864 2.544h-6.192v-5.04zm0 7.32h6.768c2.592 0 3.792.84 3.792 2.928 0 1.92-1.368 2.616-4.152 2.616h-6.408v-5.544zm18.75-9.6h-2.472V70h2.472v-8.232h10.608V70h2.472V52.576h-2.472v6.912h-10.608v-6.912zm19.547 0h-2.472V70h8.04c4.296 0 6.384-1.632 6.384-5.136 0-3.528-2.16-5.376-6.456-5.376h-5.496v-6.912zm0 9.192h4.584c3.36 0 4.896.6 4.896 3.024s-1.512 2.928-4.752 2.928h-4.728v-5.952zm18-9.192h-2.472V70h2.472V52.576zm3.973 0V70h3.336l10.944-14.856V70h2.4V52.576h-3.312l-10.968 14.856V52.576h-2.4zm3.984-4.656c.24 2.328 1.608 3.432 4.176 3.432s3.936-1.104 4.176-3.432h-1.632c-.072 1.08-.936 1.608-2.544 1.608s-2.472-.528-2.544-1.608h-1.632zm22.64 4.656l7.584 14.184c-.888 1.416-1.152 1.656-2.16 1.656-.648 0-1.08-.024-1.536-.096v1.968c.552.096 1.248.168 1.92.168 1.584 0 2.928-.552 4.248-3.216l7.32-14.664h-2.832l-5.688 11.904-6.024-11.904h-2.832zm21.786 0h-2.472V70h2.472v-8.232h10.608V70h2.472V52.576h-2.472v6.912h-10.608v-6.912zm17.075 0V70h3.336l10.944-14.856V70h2.4V52.576h-3.312l-10.968 14.856V52.576h-2.4zM706.265 70h9.456c4.152 0 6.144-1.608 6.144-5.088 0-2.256-1.176-3.672-3.36-4.104 1.824-.72 2.76-1.992 2.76-3.84 0-2.76-1.872-4.392-5.304-4.392h-9.696V70zm2.472-15.144h6.72c2.28 0 3.336.696 3.336 2.496 0 1.968-1.224 2.544-3.864 2.544h-6.192v-5.04zm0 7.32h6.768c2.592 0 3.792.84 3.792 2.928 0 1.92-1.368 2.616-4.152 2.616h-6.408v-5.544zM725.015 70h14.016v-2.28h-11.544v-5.496h10.68v-2.28h-10.68v-5.088h11.376v-2.28h-13.848V70zm19.629-7.176h5.52c4.296 0 6.456-1.584 6.456-5.112 0-3.504-2.112-5.136-6.408-5.136h-8.04V70h2.472v-7.176zm0-8.208h4.752c3.24 0 4.752.72 4.752 3.168 0 2.208-1.56 3-4.92 3h-4.584v-6.168zm32.389 8.64h-2.568c-.408 2.928-2.808 4.872-6.24 4.872-4.416 0-6.984-2.568-6.984-6.84s2.544-6.84 6.96-6.84c3.336 0 5.592 1.68 6.072 4.464h2.568c-.36-4.032-3.744-6.792-8.616-6.792-5.952 0-9.552 3.624-9.552 9.168 0 5.544 3.6 9.168 9.528 9.168 4.944 0 8.376-2.856 8.832-7.2zm2.85-10.68V70h3.336l10.944-14.856V70h2.4V52.576h-3.312l-10.968 14.856V52.576h-2.4zm18.679 0v2.28h6.649V70h2.472V54.856h6.648v-2.28h-15.769zM816.328 70h14.016v-2.28H818.8v-5.496h10.68v-2.28H818.8v-5.088h11.376v-2.28h-13.848V70zm15.164-17.424v2.28h6.648V70h2.472V54.856h6.648v-2.28h-15.768zm-775.919 224h-2.472V294h14.856v4.944h2.424v-7.224h-1.728v-15.144h-2.472v15.144H55.573v-15.144zm30.27 11.448v-.456c0-4.296-2.615-6.888-7.031-6.888-4.32 0-7.08 2.712-7.08 6.888 0 4.152 2.736 6.792 7.08 6.792 3.432 0 5.904-1.584 6.816-4.368h-2.712c-.528 1.416-2.064 2.208-4.104 2.208-2.76 0-4.608-1.656-4.608-4.176h11.64zm-11.591-1.656c.384-2.208 2.088-3.528 4.56-3.528 2.496 0 4.176 1.344 4.536 3.528h-9.096zm16.538-5.28h-2.328V294h2.328v-5.784h7.872V294h2.328v-12.912h-2.328v5.16H90.79v-5.16zm12.121 0v1.968h5.256V294h2.328v-10.944h5.256v-1.968h-12.84zm17.083 0h-2.328v17.496h2.328v-6.48c1.32 1.512 2.904 2.256 4.968 2.256 4.104 0 6.936-2.784 6.936-6.792 0-4.032-2.832-6.888-6.912-6.888-2.184 0-3.912.912-4.992 2.352v-1.944zm4.728 1.752c2.928 0 4.704 1.824 4.704 4.728 0 2.88-1.776 4.632-4.704 4.632s-4.728-1.776-4.728-4.632c0-2.88 1.8-4.728 4.728-4.728zm20.139-1.752h-2.328V294h2.328v-4.656l2.4-1.92 5.16 6.576h3.144l-6.576-7.992 6.12-4.92h-3.456l-6.792 5.64v-5.64zm18.774-.408c-4.44 0-7.224 2.736-7.224 6.888 0 4.152 2.784 6.792 7.224 6.792s7.2-2.64 7.2-6.792c0-4.152-2.76-6.888-7.2-6.888zm0 2.16c2.952 0 4.728 1.752 4.728 4.68s-1.776 4.68-4.728 4.68-4.752-1.752-4.752-4.68 1.8-4.68 4.752-4.68zm12.14-1.752h-2.328v17.496h2.328v-6.48c1.32 1.512 2.904 2.256 4.968 2.256 4.104 0 6.936-2.784 6.936-6.792 0-4.032-2.832-6.888-6.912-6.888-2.184 0-3.912.912-4.992 2.352v-1.944zm4.728 1.752c2.928 0 4.704 1.824 4.704 4.728 0 2.88-1.776 4.632-4.704 4.632s-4.728-1.776-4.728-4.632c0-2.88 1.8-4.728 4.728-4.728zm9.795-1.752V294h2.328v-10.944h7.872V294h2.328v-12.912h-12.528zm22.369-.408c-4.44 0-7.224 2.736-7.224 6.888 0 4.152 2.784 6.792 7.224 6.792s7.2-2.64 7.2-6.792c0-4.152-2.76-6.888-7.2-6.888zm0 2.16c2.952 0 4.728 1.752 4.728 4.68s-1.776 4.68-4.728 4.68-4.752-1.752-4.752-4.68 1.8-4.68 4.752-4.68zm12.139-1.752h-2.328v17.496h2.328v-6.48c1.32 1.512 2.904 2.256 4.968 2.256 4.104 0 6.936-2.784 6.936-6.792 0-4.032-2.832-6.888-6.912-6.888-2.184 0-3.912.912-4.992 2.352v-1.944zm4.728 1.752c2.928 0 4.704 1.824 4.704 4.728 0 2.88-1.776 4.632-4.704 4.632s-4.728-1.776-4.728-4.632c0-2.88 1.8-4.728 4.728-4.728zm19.636 4.536v1.92c0 1.632-1.992 3.096-4.968 3.096-1.824 0-2.856-.816-2.856-2.04 0-1.584 1.392-1.8 3.912-2.088 1.944-.216 3.24-.48 3.912-.888zm.072 4.632c.24 1.392.912 2.136 2.256 2.136.432 0 1.104-.048 1.848-.168v-1.872a4.267 4.267 0 01-.696.072c-.912 0-1.152-.648-1.152-1.992v-5.232c0-3.144-1.608-4.272-5.904-4.272-3.96 0-6.048 1.512-6.216 4.56h2.424c.12-1.848 1.344-2.592 3.96-2.592 2.328 0 3.408.6 3.408 1.992 0 1.56-1.488 1.488-4.344 1.8-3.672.408-5.952 1.032-5.952 4.032 0 2.4 1.704 3.888 4.944 3.888 2.376 0 4.248-.864 5.424-2.352zm4.208-10.92v1.968h5.256V294h2.328v-10.944h5.256v-1.968h-12.84zm17.083 0h-2.328V294h2.568l7.896-10.032V294h2.328v-12.912h-2.592l-7.872 10.056v-10.056zM284.447 294h7.056c3.072 0 5.064-1.176 5.064-3.6 0-1.608-.888-2.784-2.544-3.24.792-.408 1.752-1.296 1.752-2.76 0-2.016-1.512-3.312-4.272-3.312h-7.056V294zm2.328-5.808h4.632c1.944 0 2.832.576 2.832 1.92 0 1.32-.816 1.92-2.592 1.92h-4.872v-3.84zm0-5.136h4.464c1.776 0 2.328.48 2.328 1.68s-.816 1.656-2.352 1.656h-4.44v-3.336zm15.117-1.968h-2.328V294h2.328v-5.784h7.872V294h2.328v-12.912h-2.328v5.16h-7.872v-5.16zm20.04-.408c-4.44 0-7.224 2.736-7.224 6.888 0 4.152 2.784 6.792 7.224 6.792s7.2-2.64 7.2-6.792c0-4.152-2.76-6.888-7.2-6.888zm0 2.16c2.952 0 4.728 1.752 4.728 4.68s-1.776 4.68-4.728 4.68-4.752-1.752-4.752-4.68 1.8-4.68 4.752-4.68zm9.812-1.752V294h2.328v-10.944h8.376v-1.968h-10.704zm19.063-.408c-4.44 0-7.224 2.736-7.224 6.888 0 4.152 2.784 6.792 7.224 6.792s7.2-2.64 7.2-6.792c0-4.152-2.76-6.888-7.2-6.888zm0 2.16c2.952 0 4.728 1.752 4.728 4.68s-1.776 4.68-4.728 4.68-4.752-1.752-4.752-4.68 1.8-4.68 4.752-4.68zM150.51 308.68c-4.44 0-7.224 2.736-7.224 6.888 0 4.152 2.784 6.792 7.224 6.792s7.2-2.64 7.2-6.792c0-4.152-2.76-6.888-7.2-6.888zm0 2.16c2.952 0 4.728 1.752 4.728 4.68s-1.776 4.68-4.728 4.68-4.752-1.752-4.752-4.68 1.8-4.68 4.752-4.68zm20.204-6.24c-.384.72-.912.864-3.72 1.224-5.52.72-7.512 4.152-7.512 9.144 0 4.632 2.496 7.392 7.008 7.392 4.248 0 7.344-2.376 7.344-6.456 0-3.84-2.832-6.144-6.624-6.144-2.016 0-4.224.936-5.424 2.376.408-2.64 1.992-3.888 6.096-4.44 3.096-.408 4.2-.576 5.208-3.096h-2.376zm-3.984 6.888c2.808 0 4.776 1.536 4.776 4.416 0 2.64-1.848 4.728-4.776 4.728-3.024 0-4.824-1.632-4.824-4.68 0-2.712 1.968-4.464 4.824-4.464zm7.589-2.4L180.175 322c-.528 1.824-1.224 2.424-2.904 2.424-.336 0-.768-.048-1.368-.144v2.208c.72.072 1.248.096 1.608.096 3.192 0 3.72-1.176 5.28-4.68l5.712-12.816h-2.712l-4.296 10.872-4.392-10.872h-2.784zm15.862 0v3.264c0 3.984 2.28 5.232 5.448 5.232 1.896 0 3.408-.216 4.752-.744V322h2.328v-12.912h-2.328v5.712c-1.44.576-3.096.816-4.44.816-1.656 0-3.432-.648-3.432-3.36v-3.168h-2.328zm29.257 6.936v-.456c0-4.296-2.616-6.888-7.032-6.888-4.32 0-7.08 2.712-7.08 6.888 0 4.152 2.736 6.792 7.08 6.792 3.432 0 5.904-1.584 6.816-4.368h-2.712c-.528 1.416-2.064 2.208-4.104 2.208-2.76 0-4.608-1.656-4.608-4.176h11.64zm-11.592-1.656c.384-2.208 2.088-3.528 4.56-3.528 2.496 0 4.176 1.344 4.536 3.528h-9.096zm16.538-5.28h-2.328V322h2.328v-5.784h7.872V322h2.328v-12.912h-2.328v5.16h-7.872v-5.16zm15.985 0h-2.328V322h2.568l7.896-10.032V322h2.328v-12.912h-2.592l-7.872 10.056v-10.056zm25.506 0h-7.296c-3.096 0-4.944 1.272-4.944 3.864 0 2.208 1.488 3.528 3.408 3.84l-3.36 5.208h2.616l3.312-5.16h3.936V322h2.328v-12.912zm-2.328 5.784h-4.848c-1.944 0-2.592-.552-2.592-1.896 0-1.32.744-1.92 2.52-1.92h4.92v3.816zm216.14-38.296h-2.472V294h14.856v4.944h2.424v-7.224h-1.728v-15.144h-2.472v15.144h-10.608v-15.144zm30.27 11.448v-.456c0-4.296-2.616-6.888-7.032-6.888-4.32 0-7.08 2.712-7.08 6.888 0 4.152 2.736 6.792 7.08 6.792 3.432 0 5.904-1.584 6.816-4.368h-2.712c-.528 1.416-2.064 2.208-4.104 2.208-2.76 0-4.608-1.656-4.608-4.176h11.64zm-11.592-1.656c.384-2.208 2.088-3.528 4.56-3.528 2.496 0 4.176 1.344 4.536 3.528h-9.096zm16.539-5.28h-2.328V294h2.328v-5.784h7.872V294h2.328v-12.912h-2.328v5.16h-7.872v-5.16zm12.12 0v1.968h5.256V294h2.328v-10.944h5.256v-1.968h-12.84zm17.083 0h-2.328v17.496h2.328v-6.48c1.32 1.512 2.904 2.256 4.968 2.256 4.104 0 6.936-2.784 6.936-6.792 0-4.032-2.832-6.888-6.912-6.888-2.184 0-3.912.912-4.992 2.352v-1.944zm4.728 1.752c2.928 0 4.704 1.824 4.704 4.728 0 2.88-1.776 4.632-4.704 4.632s-4.728-1.776-4.728-4.632c0-2.88 1.8-4.728 4.728-4.728zm17.811-1.752V294h2.328v-10.944h7.872V294h2.328v-12.912h-12.528zm18.312 0h-2.328v17.496h2.328v-6.48c1.32 1.512 2.904 2.256 4.968 2.256 4.104 0 6.936-2.784 6.936-6.792 0-4.032-2.832-6.888-6.912-6.888-2.184 0-3.912.912-4.992 2.352v-1.944zm4.728 1.752c2.928 0 4.704 1.824 4.704 4.728 0 2.88-1.776 4.632-4.704 4.632s-4.728-1.776-4.728-4.632c0-2.88 1.8-4.728 4.728-4.728zm16.18-2.16c-4.44 0-7.224 2.736-7.224 6.888 0 4.152 2.784 6.792 7.224 6.792s7.2-2.64 7.2-6.792c0-4.152-2.76-6.888-7.2-6.888zm0 2.16c2.952 0 4.728 1.752 4.728 4.68s-1.776 4.68-4.728 4.68-4.752-1.752-4.752-4.68 1.8-4.68 4.752-4.68zm12.139-1.752h-2.328V294h2.568l7.896-10.032V294h2.328v-12.912h-2.592l-7.872 10.056v-10.056zm16.026 3.672c.336-1.44 1.368-2.112 3.576-2.112 1.416 0 3.144.576 3.144 1.944 0 1.272-.816 1.824-3.048 1.824h-1.416v1.8h1.56c1.872 0 3.576.432 3.576 2.088 0 1.464-1.92 2.088-3.792 2.088-2.688 0-3.792-.744-4.032-2.496h-2.52c.288 2.232 1.584 4.464 6.648 4.464 3.384 0 6.024-1.488 6.024-3.816 0-2.136-1.704-2.904-3.072-3.288 1.296-.288 2.4-1.296 2.4-2.736 0-2.16-2.04-3.84-5.496-3.84-4.296 0-5.784 2.472-6 4.08h2.448zm12.326 9.24h7.056c3.072 0 5.064-1.176 5.064-3.6 0-1.608-.888-2.784-2.544-3.24.792-.408 1.752-1.296 1.752-2.76 0-2.016-1.512-3.312-4.272-3.312h-7.056V294zm2.328-5.808h4.632c1.944 0 2.832.576 2.832 1.92 0 1.32-.816 1.92-2.592 1.92h-4.872v-3.84zm0-5.136h4.464c1.776 0 2.328.48 2.328 1.68s-.816 1.656-2.352 1.656h-4.44v-3.336zm19.173-2.376c-4.44 0-7.224 2.736-7.224 6.888 0 4.152 2.784 6.792 7.224 6.792s7.2-2.64 7.2-6.792c0-4.152-2.76-6.888-7.2-6.888zm0 2.16c2.952 0 4.728 1.752 4.728 4.68s-1.776 4.68-4.728 4.68-4.752-1.752-4.752-4.68 1.8-4.68 4.752-4.68zm20.251.216v8.976h-7.92c.936-1.488 1.512-3.024 1.512-6.312v-2.664h6.408zm-8.616-1.968v4.464c0 3.456-.768 5.16-1.8 6.48h-1.272v5.784h2.208V294h10.92v3.816h2.208v-5.784h-1.32v-10.944h-10.944zm27.041 4.296c-.552-2.88-3-4.704-6.408-4.704-4.176 0-7.008 2.784-7.008 6.888s2.856 6.792 6.96 6.792c3.528 0 6-1.92 6.552-5.184h-2.448c-.312 1.896-1.872 3.024-4.008 3.024-2.712 0-4.584-1.704-4.584-4.608 0-2.928 1.8-4.752 4.752-4.752 1.896 0 3.312.96 3.768 2.544h2.424zm1.17-4.296v1.968h5.256V294h2.328v-10.944h5.256v-1.968h-12.84zM722.458 294h7.056c3.072 0 5.064-1.176 5.064-3.6 0-1.608-.888-2.784-2.544-3.24.792-.408 1.752-1.296 1.752-2.76 0-2.016-1.512-3.312-4.272-3.312h-7.056V294zm2.328-5.808h4.632c1.944 0 2.832.576 2.832 1.92 0 1.32-.816 1.92-2.592 1.92h-4.872v-3.84zm0-5.136h4.464c1.776 0 2.328.48 2.328 1.68s-.816 1.656-2.352 1.656h-4.44v-3.336zm26.062 4.968v-.456c0-4.296-2.616-6.888-7.032-6.888-4.32 0-7.08 2.712-7.08 6.888 0 4.152 2.736 6.792 7.08 6.792 3.432 0 5.904-1.584 6.816-4.368h-2.712c-.528 1.416-2.064 2.208-4.104 2.208-2.76 0-4.608-1.656-4.608-4.176h11.64zm-11.592-1.656c.384-2.208 2.088-3.528 4.56-3.528 2.496 0 4.176 1.344 4.536 3.528h-9.096zm16.538-5.28h-2.328V294h2.328v-5.784h7.872V294h2.328v-12.912h-2.328v5.16h-7.872v-5.16zm15.985 0h-2.328V294h2.328v-5.784h7.872V294h2.328v-12.912h-2.328v5.16h-7.872v-5.16zm20.04-.408c-4.44 0-7.224 2.736-7.224 6.888 0 4.152 2.784 6.792 7.224 6.792s7.2-2.64 7.2-6.792c0-4.152-2.76-6.888-7.2-6.888zm0 2.16c2.952 0 4.728 1.752 4.728 4.68s-1.776 4.68-4.728 4.68-4.752-1.752-4.752-4.68 1.8-4.68 4.752-4.68zm9.811-1.752V294h2.328v-10.944h8.376v-1.968H801.63zm19.064-.408c-4.44 0-7.224 2.736-7.224 6.888 0 4.152 2.784 6.792 7.224 6.792s7.2-2.64 7.2-6.792c0-4.152-2.76-6.888-7.2-6.888zm0 2.16c2.952 0 4.728 1.752 4.728 4.68s-1.776 4.68-4.728 4.68-4.752-1.752-4.752-4.68 1.8-4.68 4.752-4.68zM597.51 308.68c-4.44 0-7.224 2.736-7.224 6.888 0 4.152 2.784 6.792 7.224 6.792s7.2-2.64 7.2-6.792c0-4.152-2.76-6.888-7.2-6.888zm0 2.16c2.952 0 4.728 1.752 4.728 4.68s-1.776 4.68-4.728 4.68-4.752-1.752-4.752-4.68 1.8-4.68 4.752-4.68zm20.204-6.24c-.384.72-.912.864-3.72 1.224-5.52.72-7.512 4.152-7.512 9.144 0 4.632 2.496 7.392 7.008 7.392 4.248 0 7.344-2.376 7.344-6.456 0-3.84-2.832-6.144-6.624-6.144-2.016 0-4.224.936-5.424 2.376.408-2.64 1.992-3.888 6.096-4.44 3.096-.408 4.2-.576 5.208-3.096h-2.376zm-3.984 6.888c2.808 0 4.776 1.536 4.776 4.416 0 2.64-1.848 4.728-4.776 4.728-3.024 0-4.824-1.632-4.824-4.68 0-2.712 1.968-4.464 4.824-4.464zm7.589-2.4L627.175 322c-.528 1.824-1.224 2.424-2.904 2.424-.336 0-.768-.048-1.368-.144v2.208c.72.072 1.248.096 1.608.096 3.192 0 3.72-1.176 5.28-4.68l5.712-12.816h-2.712l-4.296 10.872-4.392-10.872h-2.784zm15.862 0v3.264c0 3.984 2.28 5.232 5.448 5.232 1.896 0 3.408-.216 4.752-.744V322h2.328v-12.912h-2.328v5.712c-1.44.576-3.096.816-4.44.816-1.656 0-3.432-.648-3.432-3.36v-3.168h-2.328zm29.257 6.936v-.456c0-4.296-2.616-6.888-7.032-6.888-4.32 0-7.08 2.712-7.08 6.888 0 4.152 2.736 6.792 7.08 6.792 3.432 0 5.904-1.584 6.816-4.368h-2.712c-.528 1.416-2.064 2.208-4.104 2.208-2.76 0-4.608-1.656-4.608-4.176h11.64zm-11.592-1.656c.384-2.208 2.088-3.528 4.56-3.528 2.496 0 4.176 1.344 4.536 3.528h-9.096zm16.538-5.28h-2.328V322h2.328v-5.784h7.872V322h2.328v-12.912h-2.328v5.16h-7.872v-5.16zm15.985 0h-2.328V322h2.568l7.896-10.032V322h2.328v-12.912h-2.592l-7.872 10.056v-10.056zm25.506 0h-7.296c-3.096 0-4.944 1.272-4.944 3.864 0 2.208 1.488 3.528 3.408 3.84l-3.36 5.208h2.616l3.312-5.16h3.936V322h2.328v-12.912zm-2.328 5.784h-4.848c-1.944 0-2.592-.552-2.592-1.896 0-1.32.744-1.92 2.52-1.92h4.92v3.816zm265.284-38.296h-2.472V294h14.856v4.944h2.424v-7.224h-1.728v-15.144h-2.472v15.144h-10.608v-15.144zm30.269 11.448v-.456c0-4.296-2.61-6.888-7.03-6.888-4.32 0-7.08 2.712-7.08 6.888 0 4.152 2.736 6.792 7.08 6.792 3.43 0 5.9-1.584 6.82-4.368h-2.72c-.52 1.416-2.06 2.208-4.1 2.208-2.76 0-4.608-1.656-4.608-4.176h11.638zm-11.59-1.656c.384-2.208 2.088-3.528 4.56-3.528 2.5 0 4.18 1.344 4.54 3.528h-9.1zm16.54-5.28h-2.33V294h2.33v-5.784h7.87V294h2.33v-12.912h-2.33v5.16h-7.87v-5.16zm12.12 0v1.968h5.25V294h2.33v-10.944h5.26v-1.968h-12.84zm17.08 0h-2.33v17.496h2.33v-6.48c1.32 1.512 2.91 2.256 4.97 2.256 4.1 0 6.94-2.784 6.94-6.792 0-4.032-2.84-6.888-6.92-6.888-2.18 0-3.91.912-4.99 2.352v-1.944zm4.73 1.752c2.93 0 4.7 1.824 4.7 4.728 0 2.88-1.77 4.632-4.7 4.632s-4.73-1.776-4.73-4.632c0-2.88 1.8-4.728 4.73-4.728zm30.39 2.544c-.56-2.88-3-4.704-6.41-4.704-4.18 0-7.01 2.784-7.01 6.888s2.86 6.792 6.96 6.792c3.53 0 6-1.92 6.55-5.184h-2.45c-.31 1.896-1.87 3.024-4 3.024-2.72 0-4.59-1.704-4.59-4.608 0-2.928 1.8-4.752 4.75-4.752 1.9 0 3.32.96 3.77 2.544h2.43zm9.09-4.704c-4.44 0-7.23 2.736-7.23 6.888 0 4.152 2.79 6.792 7.23 6.792s7.2-2.64 7.2-6.792c0-4.152-2.76-6.888-7.2-6.888zm0 2.16c2.95 0 4.72 1.752 4.72 4.68s-1.77 4.68-4.72 4.68c-2.96 0-4.76-1.752-4.76-4.68s1.8-4.68 4.76-4.68zm9.81-1.752V294h2.33v-10.944h7.87V294h2.33v-12.912h-12.53zm18.31 0h-2.33v17.496h2.33v-6.48c1.32 1.512 2.9 2.256 4.97 2.256 4.1 0 6.93-2.784 6.93-6.792 0-4.032-2.83-6.888-6.91-6.888-2.18 0-3.91.912-4.99 2.352v-1.944zm4.73 1.752c2.93 0 4.7 1.824 4.7 4.728 0 2.88-1.77 4.632-4.7 4.632s-4.73-1.776-4.73-4.632c0-2.88 1.8-4.728 4.73-4.728zm16.18-2.16c-4.44 0-7.23 2.736-7.23 6.888 0 4.152 2.79 6.792 7.23 6.792s7.2-2.64 7.2-6.792c0-4.152-2.76-6.888-7.2-6.888zm0 2.16c2.95 0 4.73 1.752 4.73 4.68s-1.78 4.68-4.73 4.68-4.75-1.752-4.75-4.68 1.8-4.68 4.75-4.68zm9.81 11.16h7.05c3.08 0 5.07-1.176 5.07-3.6 0-1.608-.89-2.784-2.55-3.24.8-.408 1.76-1.296 1.76-2.76 0-2.016-1.52-3.312-4.28-3.312h-7.05V294zm2.33-5.808h4.63c1.94 0 2.83.576 2.83 1.92 0 1.32-.82 1.92-2.59 1.92h-4.87v-3.84zm0-5.136h4.46c1.78 0 2.33.48 2.33 1.68s-.82 1.656-2.35 1.656h-4.44v-3.336zm19.17-2.376c-4.44 0-7.22 2.736-7.22 6.888 0 4.152 2.78 6.792 7.22 6.792 4.44 0 7.2-2.64 7.2-6.792 0-4.152-2.76-6.888-7.2-6.888zm0 2.16c2.95 0 4.73 1.752 4.73 4.68s-1.78 4.68-4.73 4.68-4.75-1.752-4.75-4.68 1.8-4.68 4.75-4.68zm18.39-1.752v5.664l-6.82-5.664h-3.45l6.14 4.944-6.58 7.968h3.15l5.16-6.552 2.4 1.896V294h2.33v-4.656l2.4-1.896 5.16 6.552h3.14l-6.58-7.968 6.15-4.944h-3.46l-6.81 5.664v-5.664h-2.33zm25.16 1.968v8.976h-7.92c.93-1.488 1.51-3.024 1.51-6.312v-2.664h6.41zm-8.62-1.968v4.464c0 3.456-.77 5.16-1.8 6.48h-1.27v5.784h2.21V294h10.92v3.816h2.21v-5.784h-1.32v-10.944h-10.95zm27.74 6.936v-.456c0-4.296-2.62-6.888-7.03-6.888-4.32 0-7.08 2.712-7.08 6.888 0 4.152 2.73 6.792 7.08 6.792 3.43 0 5.9-1.584 6.81-4.368h-2.71c-.53 1.416-2.06 2.208-4.1 2.208-2.76 0-4.61-1.656-4.61-4.176h11.64zm-11.59-1.656c.38-2.208 2.08-3.528 4.56-3.528 2.49 0 4.17 1.344 4.53 3.528h-9.09zm16.54-5.28h-2.33V294h2.33v-5.784h7.87V294h2.33v-12.912h-2.33v5.16h-7.87v-5.16zm15.98 0h-2.33V294h2.57l7.9-10.032V294h2.32v-12.912h-2.59l-7.87 10.056v-10.056zm25.51 0h-7.3c-3.1 0-4.94 1.272-4.94 3.864 0 2.208 1.48 3.528 3.4 3.84l-3.36 5.208h2.62l3.31-5.16h3.94V294h2.33v-12.912zm-2.33 5.784h-4.85c-1.94 0-2.59-.552-2.59-1.896 0-1.32.74-1.92 2.52-1.92h4.92v3.816zm-202.57 21.808c-4.44 0-7.22 2.736-7.22 6.888 0 4.152 2.78 6.792 7.22 6.792 4.44 0 7.2-2.64 7.2-6.792 0-4.152-2.76-6.888-7.2-6.888zm0 2.16c2.95 0 4.73 1.752 4.73 4.68s-1.78 4.68-4.73 4.68-4.75-1.752-4.75-4.68 1.8-4.68 4.75-4.68zm20.2-6.24c-.38.72-.91.864-3.72 1.224-5.52.72-7.51 4.152-7.51 9.144 0 4.632 2.5 7.392 7.01 7.392 4.25 0 7.34-2.376 7.34-6.456 0-3.84-2.83-6.144-6.62-6.144-2.02 0-4.22.936-5.42 2.376.4-2.64 1.99-3.888 6.09-4.44 3.1-.408 4.2-.576 5.21-3.096h-2.38zm-3.98 6.888c2.81 0 4.78 1.536 4.78 4.416 0 2.64-1.85 4.728-4.78 4.728-3.02 0-4.82-1.632-4.82-4.68 0-2.712 1.96-4.464 4.82-4.464zm7.59-2.4l5.86 12.912c-.53 1.824-1.23 2.424-2.91 2.424-.33 0-.77-.048-1.37-.144v2.208c.72.072 1.25.096 1.61.096 3.19 0 3.72-1.176 5.28-4.68l5.71-12.816h-2.71L1100 319.96l-4.4-10.872h-2.78zm15.86 0v3.264c0 3.984 2.28 5.232 5.45 5.232 1.9 0 3.41-.216 4.75-.744V322h2.33v-12.912h-2.33v5.712c-1.44.576-3.09.816-4.44.816-1.65 0-3.43-.648-3.43-3.36v-3.168h-2.33zm29.26 6.936v-.456c0-4.296-2.62-6.888-7.03-6.888-4.32 0-7.08 2.712-7.08 6.888 0 4.152 2.73 6.792 7.08 6.792 3.43 0 5.9-1.584 6.81-4.368h-2.71c-.53 1.416-2.06 2.208-4.1 2.208-2.76 0-4.61-1.656-4.61-4.176h11.64zm-11.59-1.656c.38-2.208 2.08-3.528 4.56-3.528 2.49 0 4.17 1.344 4.53 3.528h-9.09zm16.53-5.28h-2.32V322h2.32v-5.784h7.88V322h2.32v-12.912h-2.32v5.16h-7.88v-5.16zm15.99 0h-2.33V322h2.57l7.89-10.032V322h2.33v-12.912h-2.59l-7.87 10.056v-10.056zm25.5 0h-7.29c-3.1 0-4.95 1.272-4.95 3.864 0 2.208 1.49 3.528 3.41 3.84l-3.36 5.208h2.62l3.31-5.16h3.94V322h2.32v-12.912zm-2.32 5.784h-4.85c-1.95 0-2.59-.552-2.59-1.896 0-1.32.74-1.92 2.52-1.92h4.92v3.816z" fill="#171C28"/><path stroke="#000" d="M627.5 126v61m0 0v51m-422-51v51m918-51v51M205 186.5h919"/></svg>