<svg width="280" height="148" fill="none" xmlns="http://www.w3.org/2000/svg"><circle cx="95.405" cy="111.843" r="9.833" fill="#A0A1A2"/><path fill-rule="evenodd" clip-rule="evenodd" d="M95.106 134.789c12.507 0 22.646-10.139 22.646-22.646 0-12.508-10.139-22.647-22.646-22.647-12.508 0-22.647 10.14-22.647 22.647 0 12.507 10.14 22.646 22.647 22.646zm0 13.111c19.748 0 35.757-16.009 35.757-35.757 0-19.749-16.009-35.758-35.757-35.758-19.749 0-35.758 16.01-35.758 35.758S75.358 147.9 95.106 147.9zm140.469-13.111c12.508 0 22.647-10.139 22.647-22.647 0-12.507-10.139-22.646-22.647-22.646-12.507 0-22.646 10.139-22.646 22.646 0 12.508 10.139 22.647 22.646 22.647zm0 13.111c19.749 0 35.758-16.009 35.758-35.758 0-19.748-16.009-35.757-35.758-35.757-19.748 0-35.757 16.009-35.757 35.757 0 19.749 16.009 35.758 35.757 35.758z" fill="#A0A1A2"/><circle cx="235.874" cy="111.843" r="9.833" fill="#A0A1A2"/><path fill-rule="evenodd" clip-rule="evenodd" d="M36.277 100.224h16.389c8.58-24.315 29.4-29.004 38.738-28.309 31.943-.238 40.128 27.514 40.227 41.42h13.706-3.151c-1.669-36.95-31.686-47.18-46.485-47.38-25.746.24-39.93 22.945-43.803 34.269h-3.874c3.64-10.516 8.984-18.24 14.902-23.839h-23.84v-2.384h26.546a50.31 50.31 0 013.15-2.382H39.083v-2.384h33.468a49.845 49.845 0 014.743-2.385h-38.21v-2.384h41.12V41.224h2.98v23.482c4.87-1.425 9.264-1.871 12.516-1.73 5.302.16 10.087.895 14.397 2.088h13.786V32.88h-.769v-9.833h-2.682v9.833h-4.767V11.427h8.218V5.466h1.192v6.21c.856.362 1.795 1.056 1.615 2.135v.037c.6-2.16 2.118-2.722 2.853-2.722h18.475c2.383.238 2.979 2.285 2.979 3.278V32.58H126.69v.3h-1.615v32.183h28.008V5.466h1.192v59.598h21.283v-24.15l-3.999-5.948-4.767-28.01V4.572h1.192v-2.98h-62.576v2.98l1.192 1.192v2.384l1.49 1.49V34.37c-1.431.239-1.987 2.88-2.086 4.172h-7.45V6.956h-4.172V.4h-6.257v38.142H84.55V24.537h-2.086v14.005c-2.622-.477-3.476 1.788-3.575 2.98H5.288v3.276h73.898v2.384H5.288v7.151h72.706v2.384H33.125v26.225H53.56v2.384H33.125v15.495h3.152v-.597zm141.07-56.652v21.492h5.835V52.249l-5.835-8.677zm-1.788 23.875h-9.537v45.888h5.538v-7.152h23.243c4.011-14.75 10.114-27.42 19.015-32.265.932-.507 2.019-.928 3.217-1.276 1.279-.142 3.043-.33 5.112-.526 10.263-.797 21.671-.716 21.671-.716a115.7 115.7 0 01-3.179-.103h-.004c-1.264-.05-2.735-.109-4.335-.151-5.921-.158-13.602-.092-19.062 1.439-.834.097-1.643.202-2.42.315-.5-2.137-13.883 8.987-16.44 12.127h-2.854v12.515c0 .993-.417 2.979-2.086 2.979h-11.025v-2.085h9.237c.497-.1 1.43-.716 1.192-2.384v-3.874h-8.939c-.894.1-2.682-.358-2.682-2.98v-6.853h-3.874v8.343h-1.788v-8.343h-2.211V70.128h2.211v-2.68zm15.966 17.58h1.019v4.171h-8.641v-6.81l7.622 2.639zm-14.178-14.9v-2.68h9.708v2.68h-9.708zm-32.01-2.68v41.242c-.848-9.954-5.411-23.682-16.405-33.497h12.831v-2.98h-13.111v2.732a45.448 45.448 0 00-11.818-7.497h28.503zm18.301 0h-15.917v45.888h15.917V67.447zM5.288 56.717h26.05v26.225H5.287V56.717zm-.001 28.61h26.05v15.494h-2.382v2.98h7.322v1.786h-7.322v4.172h7.322v2.384h-7.322v4.767h7.322v2.384h-13.41v-19.07h-11.62v1.788c-1.49.794-3.755 3.039-.895 5.661 1.391.497 4.351.596 5.067-2.98.794-.298 2.205-.119 1.49 2.98-.994 2.185-5.663 5.662-9.834 1.49-1.092-1.093-2.622-4.052 0-7.151v-1.788H.818V84.729h4.469v.597zm19.666-26.822h-2.98v13.111h2.98V58.505zm31.712-5.958v-2.98h-13.11v2.98h13.11zm99.696-19.965V11.724h7.747l3.576 20.858h-5.066v-5.96h-2.085v5.96h-4.172zm5.067 45.59V75.79h-10.131v2.384h10.131zm0 11.92v2.384h-10.131v-2.384h10.131zm0 15.495v-2.384h-10.131v2.384h10.131z" fill="#A0A1A2"/><path d="M235.318 71.4c-18.5 0-33 15-42 34.999l3.5-21.5c14.5-13.5 22-18.498 38.5-18.499 32 0 42 27.5 44.5 37.499h-4c-7.2-28-31.5-32.5-40.5-32.5z" fill="#A0A1A2"/></svg>