<svg width="316" height="173" fill="none" xmlns="http://www.w3.org/2000/svg"><path d="M99.205 137.008c0 5.378-4.36 9.738-9.738 9.738-5.378 0-9.737-4.36-9.737-9.738 0-5.378 4.36-9.738 9.737-9.738 5.379 0 9.738 4.36 9.738 9.738z" fill="#A0A1A2"/><path fill-rule="evenodd" clip-rule="evenodd" d="M89.565 159.729c12.386 0 22.427-10.041 22.427-22.427s-10.041-22.426-22.427-22.426-22.427 10.04-22.427 22.426 10.041 22.427 22.427 22.427zm0 12.983c19.557 0 35.41-15.853 35.41-35.41 0-19.556-15.853-35.41-35.41-35.41-19.556 0-35.41 15.854-35.41 35.41 0 19.557 15.853 35.41 35.41 35.41z" fill="#A0A1A2"/><path d="M255.073 137.008c0 5.378-4.36 9.738-9.738 9.738-5.378 0-9.738-4.36-9.738-9.738 0-5.378 4.36-9.738 9.738-9.738 5.378 0 9.738 4.36 9.738 9.738z" fill="#A0A1A2"/><path fill-rule="evenodd" clip-rule="evenodd" d="M245.431 159.729c12.385 0 22.426-10.041 22.426-22.427s-10.041-22.426-22.426-22.426c-12.386 0-22.427 10.04-22.427 22.426s10.041 22.427 22.427 22.427zm0 12.983c19.556 0 35.41-15.853 35.41-35.41 0-19.556-15.854-35.41-35.41-35.41-19.557 0-35.411 15.854-35.411 35.41 0 19.557 15.854 35.41 35.411 35.41z" fill="#A0A1A2"/><path d="M61.735 98.574l2.369 2.843 3.553 4.027c4.738-5.496 17.292-6.317 22.03-6.87 29.752 1.706 38.295 25.899 39.796 38.612h4.5c-1.705-24.446-18.397-41.296-26.53-46.666H73.105c-7.959.19-10.896 5.449-11.37 8.054zm143.312 33.639h-4.974c1.705-21.794 17.292-38.454 24.872-44.06h43.586l11.133 2.606v8.29c4.927 4.549 12.002 16.425 14.924 21.794h-1.895l-6.396-10.423-3.316-.948c-11.56-17.055-33.242-17.845-42.639-16.108-25.962 4.738-34.347 27.873-35.295 38.849z" fill="#A0A1A2"/><path d="M209.075 102.601V84.599h24.873l5.922 2.368h-15.635l-15.16 15.634zm7.58-26.292h3.316v7.106h-3.316zm66.325 18.949h-3.316l-1.185 4.264 3.08 3.79 3.79-2.606v-2.605l4.5-4.5-.947 4.5v13.265l3.553 6.633V98.101c.758-1.706-.316-4.343-.947-5.448l2.132-2.37 4.737-3.552 3.08-3.79c3.979-.758 3.079-3.949 2.131-5.449-3.411-2.085-4.895 1.658-5.211 3.79h-1.895l-4.974 7.106-8.528 6.87zm19.662 29.611l-18.714 10.423-4.027 18.477h5.685l1.185-1.895h8.764v1.895h16.819v-1.895h-1.422v-3.79h1.422v-1.659h-3.317v-1.895h-3.79v1.895l-9.712.474v1.185l-7.58-1.185h-4.974v-3.553l23.214-14.213c5.685.19 7.896-1.816 8.291-2.842 1.705-3.032-.711-4.896-2.132-5.449 1.137 3.98-.474 4.343-1.422 4.027l-1.895-2.368-2.842-2.843-3.553 1.184v4.027zm-110.624-5.922v-4.974l10.659-.948-.947 2.606h-4.027l-1.184 3.316h-4.501zm11.844-28.427h4.264v7.106h-4.264z" fill="#A0A1A2"/><path fill-rule="evenodd" clip-rule="evenodd" d="M47.285 131.028h3.317c3.41-12.697 12.002-21.714 15.87-24.635-4.358-.569-6.553-5.291-7.106-7.58.38-5.306 8.528-9.476 12.555-10.897l36.479 1.658c2.839 1.273 5.441 3.069 7.817 5.23v-.967h46.902v-.473h.948v55.43h13.028v-3.079l8.291-1.895 6.87-7.817h4.027l7.58-26.057v-7.343h-9.949l-4.501-1.895-5.922 1.895h-5.211l8.44-11.135h-55.817v-.947h56.536l1.974-2.605V59.49h-4.027l-1.895 2.133-2.369-2.133-5.448 3.554V59.49l-1.658-1.184-2.103-34.11H132.8v-1.422h42.874v-4.738l-2.369-2.368-11.607-.71c0-4.36-2.053-5.133-3.079-4.975-2.274-.19-2.685 3.237-2.606 4.974l-25.109-.71V5.481l2.132-2.132c-1.137-2.274-4.896-2.685-6.633-2.606-3.79-.379-6.001 1.58-6.632 2.606l2.605 2.132v9.475l-13.976 3.08-8.527 1.184v2.605l.144.948h21.886v1.422h-21.67l1.298 8.527h-13.74c-3.6 5.685 2.133 14.529 5.45 18.24l-.948-12.792h-2.37v-3.79h11.608l.71 1.658 2.369.711 6.159 43.586h-4.974v-13.74c-1.895-5.305-6.317-6.948-8.291-7.106-31.647.569-76.354 12.24-94.752 18.003l-.71 1.659-.038.861 16.618-4.653-7.58 31.979v4.264l-6.632 1.895-3.554-1.895v-2.606l3.554 2.606 4.974-1.422v-2.842l7.343-29.847-14.795 4.196-1.312 30.39v11.72l25.582-6.744 2.843-4.501v4.501L.898 125.82l3.038 5.208 26.531 2.606v6.159h16.818v-8.765zm88.357 2.606c-1.804-9.47-7.824-27.898-18.934-38.375h46.411v54.483h.001v2.132h-19.898v-4.264l-5.449-1.895-2.131-12.081zm-103.755-1.423h13.739v6.633h-13.74v-6.633zm129.81 14.688h-17.055v3.79h17.055v-3.79zm8.055-9.003V131.5l6.632 1.422V131.5h3.79l2.132 4.027-5.922 4.264-3.553-1.895h-3.079zm-9.477-108.254h-24.872v54.956h30.321l-5.449-54.956zm-40.504-1.183H103.9l9.002 50.218 3.553-6.396V56.647l3.316-4.5V28.458zm40.978 97.592h-16.107v11.37h16.107v-11.37zm-16.107-21.792h16.107v9.476h-16.107v-9.476zM30.467 80.098v-3.553l43.822-7.107-.947 3.08-42.875 7.58zm-.948 2.368v3.554l42.876-7.58.947-3.08-43.823 7.106zm0 10.187V89.1l43.823-7.107-.947 3.08-42.876 7.58zm0 1.817v3.159l34.764-6.738.769-2.738-35.533 6.317zm5.212 13.342l22.504-6.869v2.132l-21.32 6.632-2.605 1.422v2.842h9.238c1.137 0 .474 1.579 0 2.369H30.941v-6.633l3.79-1.895zm82.433-25.819H97.74v4.264h19.424v-4.264zm10.424-52.113h1.422V89.1h-1.422V29.88zM87.556 62.33L74.054 87.674h1.895L89.214 62.33h-1.658z" fill="#A0A1A2"/></svg>