<svg width="299" height="170" fill="none" xmlns="http://www.w3.org/2000/svg"><path d="M101.624 125.442c0 6.646-5.388 12.034-12.034 12.034-6.645 0-12.033-5.388-12.033-12.034 0-6.645 5.388-12.033 12.033-12.033 6.646 0 12.034 5.388 12.034 12.033z" fill="#A0A1A2"/><path fill-rule="evenodd" clip-rule="evenodd" d="M89.224 153.52c15.306 0 27.713-12.408 27.713-27.713 0-15.306-12.407-27.713-27.713-27.713-15.305 0-27.713 12.407-27.713 27.713 0 15.305 12.408 27.713 27.713 27.713zm0 16.044c24.167 0 43.757-19.591 43.757-43.757 0-24.166-19.59-43.757-43.757-43.757-24.166 0-43.757 19.591-43.757 43.757 0 24.166 19.591 43.757 43.757 43.757z" fill="#A0A1A2"/><path d="M269.945 129.985c0 5.962-4.833 10.794-10.795 10.794-5.961 0-10.794-4.832-10.794-10.794 0-5.962 4.833-10.795 10.794-10.795 5.962 0 10.795 4.833 10.795 10.795z" fill="#A0A1A2"/><path fill-rule="evenodd" clip-rule="evenodd" d="M258.82 155.17c13.729 0 24.86-11.13 24.86-24.86 0-13.73-11.131-24.86-24.86-24.86-13.73 0-24.86 11.13-24.86 24.86 0 13.73 11.13 24.86 24.86 24.86zm0 14.393c21.678 0 39.252-17.574 39.252-39.253 0-21.678-17.574-39.252-39.252-39.252-21.679 0-39.253 17.574-39.253 39.252 0 21.679 17.574 39.253 39.253 39.253z" fill="#A0A1A2"/><path d="M54.77 82.53l2.413 1.609h8.366c-3.733.515-11.53 10.403-14.962 15.283h-5.952c-2.059 0-2.895-1.287-3.056-1.93L49.46 84.46l5.31-1.93zm-7.405 18.02h-7.4l-2.574 3.7h7.722l2.252-3.7zm57.736-76.095l8.847 2.252.483 1.448-8.526-2.252-1.126 1.126 4.343 13.996h-1.608l-4.505-14.318 2.092-2.252z" fill="#A0A1A2"/><path fill-rule="evenodd" clip-rule="evenodd" d="M.875 115.348l9.492-3.056v-6.757l.965-.644-.251-2.02 1.699 1.699.804 1.126 5.63-1.126 5.31-11.261L9.24 75.935H7.793l.643 4.021h2.413L22.432 93.31l-3.861 9.33-4.344.805-1.447-2.413h-1.928l-3.22-25.9L6.345 73.2l1.287-4.505c14.264-5.362 55.018-16.087 103.923-16.087v8.044h2.574l-2.574-27.51-3.539-11.421v-4.344h61.613v-.965h-61.613v-4.665c7.346-.965 29.954-2.317 61.613 0V5.634l-2.574-1.93V.807h14.318v2.895l-2.896 1.93v6.114h6.596v3.86h-6.596v37.001h1.287v3.379l8.687 7.078V75.13l-.379.483H121.69V76.9h65.371l-.379.482 1.769 3.54h-7.078c.965 1.662 2.317 6.338 0 11.743h12.87l11.743-11.743h7.241c-6.088 6.198-17.734 22.605-18.176 41.504h-6.6l-9.974 10.779h-9.009v3.378h-10.617l-1.93-3.378h-12.066v-35.07h-2.252v35.07h-1.609c2.896-20.592-6.596-37.966-6.596-37.966s-11.003-20.88-26.061-25.9l-30.726 2.413H62.167v2.252h-1.126v3.7l-2.735 1.287-.008.029-11.253 1.902-14.317 24.613h12.226c-1.502 4.022-4.054 13.449-2.252 18.983v17.052H24.04v-13.513l-5.47 2.252v-2.252l-9.652 2.252v-2.252l-6.596-3.539-2.252-8.205.804-.965zM219.34 80.6l.482-.322c12.548-6.917 32.496-10.94 56.949.644l8.043 4.987 1.77 6.756c2.788 3.11 8.558 9.91 9.33 12.226l-3.539-.321c-7.775-11.744-30.662-30.051-60.005-9.33-4.665 3.431-14.575 13.673-16.891 27.186h-17.367c.425-9.042 5.236-29.8 21.228-41.826zm-161.248-.818l-1.233 2.588h9.01c10.81-7.208 28.098-5.256 35.391-3.379 26.016 7.116 34.936 31.472 36.778 47.409.017-.073.038-.113.062-.113h1.769c1.673-9.781-4.129-24.452-7.239-30.565-4.118-11.326-17.91-21.343-24.292-24.935L77.611 73.2H63.293v2.252h-1.126v2.896l-4.343 2.413.267-.98zm-17.48 47.631H26.131v12.548H40.61v-12.548zm73.196-107.462l.185 1.037 1.906 30.494 3.688.773.495 2.766h15.122v-35.07h-21.396zm53.57 29.279v3.54H141.96V19.95h25.418v29.28zM23.397 70.465l.322-.483 17.535-4.504h1.448l-8.044 12.87-11.26-7.883zm28.635-1.609l-8.848 1.93c-1.673.366-1.34-.598-.965-1.125l3.539-5.31 8.848-1.447c1.126-.322 1.394.268 1.287.804l-3.861 5.148zm4.108-1.351l7.32-1.542 3.194-4.113c.088-.428-.133-.9-1.065-.643l-7.32 1.157-2.928 4.241c-.31.422-.586 1.191.799.9zm17.096-3.553l-6.303 1.31c-1.192.248-.955-.406-.688-.764l2.522-3.605 6.303-.983c.802-.219.993.182.917.546l-2.75 3.495zm3.445-.786l5.539-.893 2.54-2.967c.081-.318-.068-.679-.775-.52l-5.525.605-2.345 3.073c-.248.304-.481.871.566.702zm10.26-4.123l-1.447 1.448c-3.217 2.445 3.807.59 7.722-.644 2.445-.772 1.662-1.287.965-1.447l-7.24.643zm65.636 32.014h-13.835v5.147h13.835v-5.147zm-24.131-9.01h20.592v2.575h-20.592v-2.574zm38.931 40.219h-12.548v5.791h12.548v-5.791zm-4.826-17.375h12.548v14.801h-12.548v-14.801zm25.739-41.826h-73.357v1.93h73.357v-1.93z" fill="#A0A1A2"/><path d="M117.325 21.238h54.696v2.253h-54.696v-2.253z" fill="#A0A1A2"/></svg>