<svg width="280" height="165" fill="none" xmlns="http://www.w3.org/2000/svg"><circle cx="76.751" cy="133.324" r="8.501" fill="#A0A1A2"/><path fill-rule="evenodd" clip-rule="evenodd" d="M76.495 153.158c10.813 0 19.578-8.766 19.578-19.578 0-10.813-8.765-19.578-19.578-19.578-10.813 0-19.578 8.765-19.578 19.578 0 10.812 8.765 19.578 19.578 19.578zm0 11.335c17.073 0 30.913-13.841 30.913-30.913 0-17.073-13.84-30.913-30.913-30.913s-30.913 13.84-30.913 30.913c0 17.072 13.84 30.913 30.913 30.913z" fill="#A0A1A2"/><circle cx="239.899" cy="132.639" r="8.687" fill="#A0A1A2"/><path fill-rule="evenodd" clip-rule="evenodd" d="M239.638 152.909c11.049 0 20.007-8.958 20.007-20.008 0-11.05-8.958-20.007-20.007-20.007-11.05 0-20.008 8.957-20.008 20.007s8.958 20.008 20.008 20.008zm0 11.583c17.447 0 31.59-14.144 31.59-31.591 0-17.447-14.143-31.59-31.59-31.59s-31.591 14.143-31.591 31.59 14.144 31.591 31.591 31.591z" fill="#A0A1A2"/><path d="M41.632 113.998v8.072h4.293v-7.385l13.568-14.255h34.69l12.709 12.709v7.557h4.637v-9.102L94.184 95.278H57.432l-15.8 18.72zm96.688 6.527h2.748v29.539h-2.748zm13.396 0h2.748v29.539h-2.748z" fill="#A0A1A2"/><path fill="#A0A1A2" d="M138.32 147.662h16.143v2.404H138.32zm51.866-74.539h7.557v27.822h-7.557z"/><path fill-rule="evenodd" clip-rule="evenodd" d="M5.223 121.902L.414 64.712l30.054-8.93h80.546l-3.607-48.258h25.933V.31h8.415v7.213h55.815l-8.93 51.865v48.087h11.678l19.406-19.064h41.218l18.376 22.327v5.072h-6.526v-5.072l-11.85-14.77h-37.955l-13.91 14.77-5.668 13.395-5.839 2.576h-14.941l-13.567 13.224h-42.935l-3.091-13.224-8.072-6.182v-9.789L96.073 91.847H55.199L37.68 114.002v7.9H5.223zM9.86 67.285H2.132l9.274-2.06 7.9 48.773L9.86 67.285zm10.477 27.14l2.919 18.204h8.415l18.892-23.013-30.227 4.809zm123.479-83.122h21.639v44.652h-21.639V11.303zm-10.647 0h-21.296l3.435 44.652h17.861V11.303zm36.408 44.48V11.646h22.498l-9.102 44.137h-13.396zm1.031 37.614h-21.983v13.395h21.983V93.397zm-21.983-16.148h9.617v13.395h-9.617V77.25zm-65.26-17.516l11.334 27.134h4.98L87.315 59.733h-3.95zm57.704 69.378h10.648v8.244h-10.648v-8.244zm10.648-10.3h-10.648v8.243h10.648v-8.243zM123.036 90.99l-9.617-25.933h4.122l10.132 25.933h-4.637zM31.842 58.014h-2.748v12.022h2.748v-.001h47.401v-12.02h-2.748v9.273H31.842v-9.273z" fill="#A0A1A2"/></svg>