<svg width="299" height="167" fill="none" xmlns="http://www.w3.org/2000/svg"><circle cx="94.832" cy="128.572" r="30.325" stroke="#A0A1A2" stroke-width="13.952"/><circle cx="94.519" cy="128.887" r="17.993" stroke="#A0A1A2" stroke-width="6.644"/><circle cx="95.772" cy="117.603" r="1.254" fill="#A0A1A2"/><circle cx="90.757" cy="118.857" r="1.254" fill="#A0A1A2"/><circle cx="90.757" cy="138.92" r="1.254" fill="#A0A1A2"/><circle cx="86.996" cy="136.412" r="1.254" fill="#A0A1A2"/><circle cx="104.551" cy="135.784" r="1.254" fill="#A0A1A2"/><circle cx="106.43" cy="130.768" r="1.254" fill="#A0A1A2"/><circle r="1.254" transform="matrix(-1 0 0 1 84.488 131.395)" fill="#A0A1A2"/><circle cx="106.43" cy="125.752" r="1.254" fill="#A0A1A2"/><circle r="1.254" transform="matrix(-1 0 0 1 84.488 126.38)" fill="#A0A1A2"/><circle cx="104.551" cy="121.99" r="1.254" fill="#A0A1A2"/><circle r="1.254" transform="matrix(-1 0 0 1 86.367 121.99)" fill="#A0A1A2"/><circle cx="100.789" cy="118.857" r="1.254" fill="#A0A1A2"/><circle cx="100.789" cy="138.92" r="1.254" fill="#A0A1A2"/><circle cx="95.772" cy="140.174" r="1.254" fill="#A0A1A2"/><circle cx="248.519" cy="129.102" r="17.993" stroke="#A0A1A2" stroke-width="6.644"/><circle cx="248.832" cy="128.787" r="30.325" stroke="#A0A1A2" stroke-width="13.952"/><circle cx="248.519" cy="117.818" r="1.254" fill="#A0A1A2"/><circle cx="243.503" cy="119.072" r="1.254" fill="#A0A1A2"/><circle cx="243.504" cy="139.135" r="1.254" fill="#A0A1A2"/><circle cx="239.742" cy="136.627" r="1.254" fill="#A0A1A2"/><circle cx="257.297" cy="135.998" r="1.254" fill="#A0A1A2"/><circle cx="259.176" cy="130.983" r="1.254" fill="#A0A1A2"/><circle r="1.254" transform="matrix(-1 0 0 1 237.234 131.61)" fill="#A0A1A2"/><circle cx="259.176" cy="125.967" r="1.254" fill="#A0A1A2"/><circle r="1.254" transform="matrix(-1 0 0 1 237.234 126.595)" fill="#A0A1A2"/><circle cx="257.297" cy="122.205" r="1.254" fill="#A0A1A2"/><circle r="1.254" transform="matrix(-1 0 0 1 239.113 122.205)" fill="#A0A1A2"/><circle cx="253.535" cy="119.072" r="1.254" fill="#A0A1A2"/><circle cx="253.535" cy="139.135" r="1.254" fill="#A0A1A2"/><circle cx="248.518" cy="140.389" r="1.254" fill="#A0A1A2"/><path fill-rule="evenodd" clip-rule="evenodd" d="M4.825 125.966C.31 125.716.227 121.265.75 119.07l6.27-47.331 35.524-7.944-1.673.419v.313l-.94 7.523-29.779 4.389v39.495c.314 1.253 1.756 3.573 5.016 2.821l45.45-12.852.94-2.194-24.006 6.488 4.572-36.579h-.002.003l1.25-10.008 64.577-14.44-4.389-33.226-3.448-5.642h-3.448V9.048h29.778V.271h5.016v8.777h-1.017v6.582h-22.883l.314 2.821h22.255v2.822h-3.134V78.32h-10.031l-5.015-29.15-3.448.627 5.642 33.54-6.269-2.508H93.456v3.134h14.419l25.076 18.181 6.583 15.986v11.284h3.448v-11.598l-7.21-16.613-20.688-16.3h67.156l4.702 18.808h20.374l18.181-22.882h34.793l2.821-7.836V68.29l3.761-7.836h2.195l1.88 1.253v3.448l2.508 5.956 3.448 9.717 3.134 4.075v3.761l8.777 8.777-.627 1.254h-3.032L274.32 83.023h-44.197l-17.24 22.256v9.615c-.085.248-.164.491-.238.728h-22.882v8.464c0 3.761-3.971 5.119-5.956 5.328h-18.493v9.717h-18.808v-9.717h-11.911c-1.505-28.837-22.36-38.554-32.599-39.808H86.01l-9.09 3.448-4.389.94-2.513 3.388 4.944-15.614-5.955.94-2.195 17.867h.837l-2.327 3.136H61.56l-8.15 23.509h-3.447v3.762H30.842v-5.016H4.825zM39.84 74.258l-27.18 4.061v36.674c0 1.505 1.672 1.463 2.508 1.254l19.559-5.286 5.114-36.703zm252.032 34.155l-.907-1.312 5.998-3.39 1.567 2.194-8.15 5.016-.626 2.507-4.389-.627v-1.88c-9.78-17.303-28.315-21.42-36.36-21.315-16.468-.74-26.894 8.827-32.362 17.545v-1.872l15.673-19.748h38.868l12.538 17.553 5.642 7.837 2.508-2.508zM134.832 15.63V9.048h31.108l1.519 6.582h-32.627zm0 2.821h33.278l8.174 35.421 4.363 1.493 6.218 25.464-.784.627h-.08l-.546.5-.157.126h-47.332v-60.81h-3.134v-2.82zm55.481 62.378l-6.545-24.397 4.428 1.515 3.134 23.509h-1.644l.627-.627zM79.351 90.232h.94l8.15-11.598 2.82-1.253 20.062-2.195V73.62l-20.061 2.194-4.075 1.568-7.836 12.851zm58.692-70.527H163.2l7.569 59.556h-32.726V19.705zm1.881 1.88V77.38h28.71l-7.091-55.794h-21.619zm3.131 2.822h16.613V46.35h-5.016v20.688h-11.597v-42.63zm119.742 56.107l1.881-6.896.94-2.194 1.567-.314 1.568-2.508.94-1.253 5.015 12.224v1.254l-11.911-.313zm1.88-10.658l-.314-1.567 2.508-5.33 1.881-.626 1.253.94-.313 2.194-3.135 4.389h-1.88zM149.011 88.352h-2.506V129.1h2.506v7.521h13.165V129.1h2.507V88.35h-15.672zm13.165 2.507h-13.164v8.15h13.164v-8.15zm0 10.657v7.524h-13.164v-7.524h13.164zm0 10.032h-13.164v7.522h13.164v-7.522zm0 10.03h-13.164v7.521h13.164v-7.521zM34.6 86.47h-2.507l-2.195 21.001 2.195-.627L34.6 86.47zm15.674-1.88l-5.642.627-2.507 19.121 6.269-1.567 1.88-18.18zm8.702-.627l5.642-.627-1.88 18.181-6.27 1.567 2.508-19.12zm9.09-7.21v-2.508l21.629-1.88v2.507l-21.629 1.88z" fill="#A0A1A2"/><path d="M75.531 81.772l-30.5 3.5-2.5 18.999 27.5-7.5 5.5-15zm45.5-60.001l-12.5-1.5 3 25.5h2.5l4.5 29.5h2.5v-53.5z" fill="#fff"/></svg>