<svg width="299" height="167" fill="none" xmlns="http://www.w3.org/2000/svg"><circle cx="94.832" cy="129.217" r="30.325" stroke="#A0A1A2" stroke-width="13.952"/><circle cx="94.519" cy="129.532" r="17.993" stroke="#A0A1A2" stroke-width="6.644"/><circle cx="95.772" cy="118.248" r="1.254" fill="#A0A1A2"/><circle cx="90.757" cy="119.502" r="1.254" fill="#A0A1A2"/><circle cx="90.757" cy="139.564" r="1.254" fill="#A0A1A2"/><circle cx="86.996" cy="137.057" r="1.254" fill="#A0A1A2"/><circle cx="104.551" cy="136.428" r="1.254" fill="#A0A1A2"/><circle cx="106.43" cy="131.413" r="1.254" fill="#A0A1A2"/><circle r="1.254" transform="matrix(-1 0 0 1 84.488 132.04)" fill="#A0A1A2"/><circle cx="106.43" cy="126.396" r="1.254" fill="#A0A1A2"/><circle r="1.254" transform="matrix(-1 0 0 1 84.488 127.025)" fill="#A0A1A2"/><circle cx="104.551" cy="122.635" r="1.254" fill="#A0A1A2"/><circle r="1.254" transform="matrix(-1 0 0 1 86.367 122.635)" fill="#A0A1A2"/><circle cx="100.789" cy="119.502" r="1.254" fill="#A0A1A2"/><circle cx="100.789" cy="139.564" r="1.254" fill="#A0A1A2"/><circle cx="95.772" cy="140.818" r="1.254" fill="#A0A1A2"/><circle cx="248.519" cy="129.746" r="17.993" stroke="#A0A1A2" stroke-width="6.644"/><circle cx="248.832" cy="129.432" r="30.325" stroke="#A0A1A2" stroke-width="13.952"/><circle cx="248.519" cy="118.463" r="1.254" fill="#A0A1A2"/><circle cx="243.503" cy="119.717" r="1.254" fill="#A0A1A2"/><circle cx="243.504" cy="139.779" r="1.254" fill="#A0A1A2"/><circle cx="239.742" cy="137.271" r="1.254" fill="#A0A1A2"/><circle cx="257.297" cy="136.643" r="1.254" fill="#A0A1A2"/><circle cx="259.176" cy="131.628" r="1.254" fill="#A0A1A2"/><circle r="1.254" transform="matrix(-1 0 0 1 237.234 132.255)" fill="#A0A1A2"/><circle cx="259.176" cy="126.611" r="1.254" fill="#A0A1A2"/><circle r="1.254" transform="matrix(-1 0 0 1 237.234 127.24)" fill="#A0A1A2"/><circle cx="257.297" cy="122.85" r="1.254" fill="#A0A1A2"/><circle r="1.254" transform="matrix(-1 0 0 1 239.113 122.85)" fill="#A0A1A2"/><circle cx="253.535" cy="119.717" r="1.254" fill="#A0A1A2"/><circle cx="253.535" cy="139.779" r="1.254" fill="#A0A1A2"/><circle cx="248.518" cy="141.033" r="1.254" fill="#A0A1A2"/><path fill-rule="evenodd" clip-rule="evenodd" d="M4.825 126.611C.31 126.36.227 121.909.75 119.715l6.27-47.332 35.524-7.943-1.673.418v.314l-.94 7.523-29.779 4.388v39.495c.314 1.254 1.756 3.574 5.016 2.821l45.45-12.851.94-2.195-24.006 6.489 4.572-36.58h-.002.003l1.25-10.008 64.577-14.44-4.389-33.225-3.448-5.642h-3.448V9.693h29.778V.916h5.016v8.776h-1.017v6.583h-22.883l.314 2.821h22.255v2.821h-3.134v57.049h-10.031l-5.015-29.152-3.448.627 5.642 33.54-6.269-2.508H93.456v3.135h14.419l25.076 18.18 6.583 15.986v11.285h3.448v-11.598l-7.21-16.613-20.688-16.3h67.156l4.702 18.808h20.374l18.181-22.882h34.793l2.821-7.837v-4.702l3.761-7.836h2.195l1.88 1.254V65.8l2.508 5.956 3.448 9.717 3.134 4.075v3.76l8.777 8.778-.627 1.253h-3.032L274.32 83.668h-44.197l-17.24 22.255v9.615c-.085.249-.164.492-.238.729h-22.882v8.463c0 3.762-3.971 5.12-5.956 5.329h-18.493v9.717h-18.808v-9.717h-11.911c-1.505-28.838-22.36-38.555-32.599-39.809H86.01l-9.09 3.448-4.389.94-2.513 3.388 4.944-15.614-5.955.94-2.195 17.868h.837l-2.327 3.136H61.56l-8.15 23.509h-3.447v3.761H30.842v-5.015H4.825zM39.84 74.902l-27.18 4.062v36.674c0 1.504 1.672 1.463 2.508 1.254l19.559-5.287 5.114-36.703zm252.032 34.156l-.907-1.312 5.998-3.39 1.567 2.194-8.15 5.015-.626 2.508-4.389-.627v-1.881c-9.78-17.302-28.315-21.42-36.36-21.315-16.468-.74-26.894 8.827-32.362 17.546v-1.873l15.673-19.747h38.868l12.538 17.553 5.642 7.836 2.508-2.507zm-157.04-92.783V9.693h31.108l1.519 6.582h-32.627zm0 2.821h33.278l8.174 35.42 4.363 1.493 6.218 25.464-.784.627h-.08l-.546.502-.157.125h-47.332v-60.81h-3.134v-2.821zm55.481 62.377l-6.545-24.396 4.428 1.515L191.33 82.1h-1.644l.627-.627zM79.351 90.877h.94l8.15-11.598 2.82-1.254 20.062-2.194v-1.567l-20.061 2.194-4.075 1.567-7.836 12.852zm58.692-70.527H163.2l7.569 59.556h-32.726V20.35zm1.881 1.88v55.795h28.71l-7.091-55.795h-21.619zm3.131 2.822h16.613v21.941h-5.016v20.688h-11.597v-42.63zm119.742 56.106l1.881-6.896.94-2.194 1.567-.313 1.568-2.508.94-1.254 5.015 12.225v1.254l-11.911-.314zm1.88-10.658l-.314-1.567 2.508-5.329 1.881-.627 1.253.94-.313 2.195-3.135 4.388h-1.88zM149.011 88.996h-2.506v40.749h2.506v7.521h13.165v-7.521h2.507V88.996h-15.672zm13.165 2.508h-13.164v8.15h13.164v-8.15zm0 10.657v7.524h-13.164v-7.524h13.164zm0 10.031h-13.164v7.523h13.164v-7.523zm0 10.03h-13.164v7.521h13.164v-7.521zM34.6 87.114h-2.507l-2.195 21.002 2.195-.627L34.6 87.114zm15.674-1.88l-5.642.628-2.507 19.12 6.269-1.567 1.88-18.18zm8.702-.626l5.642-.627-1.88 18.18-6.27 1.568 2.508-19.121zm9.09-7.21V74.89l21.629-1.881v2.507l-21.629 1.881z" fill="#A0A1A2"/></svg>