<svg width="335" height="169" fill="none" xmlns="http://www.w3.org/2000/svg"><path d="M111.683 134.707a9.258 9.258 0 11-18.516 0 9.258 9.258 0 0118.516 0z" fill="#A0A1A2"/><path fill-rule="evenodd" clip-rule="evenodd" d="M102.517 156.308c11.776 0 21.322-9.546 21.322-21.322 0-11.775-9.546-21.321-21.322-21.321s-21.322 9.546-21.322 21.321c0 11.776 9.546 21.322 21.322 21.322zm0 12.344c18.593 0 33.666-15.072 33.666-33.666 0-18.593-15.073-33.666-33.666-33.666-18.593 0-33.666 15.073-33.666 33.666 0 18.594 15.073 33.666 33.666 33.666z" fill="#A0A1A2"/><path d="M263.57 134.703a9.258 9.258 0 11-18.516 0 9.258 9.258 0 0118.516 0z" fill="#A0A1A2"/><path fill-rule="evenodd" clip-rule="evenodd" d="M254.401 156.304c11.776 0 21.322-9.546 21.322-21.322 0-11.775-9.546-21.321-21.322-21.321s-21.322 9.546-21.322 21.321c0 11.776 9.546 21.322 21.322 21.322zm0 12.344c18.593 0 33.666-15.072 33.666-33.666 0-18.593-15.073-33.666-33.666-33.666-18.593 0-33.666 15.073-33.666 33.666 0 18.594 15.073 33.666 33.666 33.666z" fill="#A0A1A2"/><path d="M90.656 96.273l-10.81 5.585 2.342 3.063c4.513-5.22 15.896-6.239 20.409-6.764 28.342 1.62 36.48 24.598 37.909 36.672h4.288c-1.625-23.218-17.526-39.221-25.273-44.32l-25.442-1.442c-9.729 2.342-2.972 4.732-3.423 7.206zm125.25 36.753h-4.722c1.619-20.853 16.415-36.795 23.611-42.159h41.376l10.568 2.493v7.934c4.678 4.352 11.394 15.715 14.167 20.852h-1.799l-6.071-9.973-6.297 2.836c-10.568-16.034-28.44-17.697-37.36-16.034-24.645 4.533-32.573 23.549-33.473 34.051z" fill="#A0A1A2"/><path d="M219.834 104.561V87.626h23.574l5.612 2.228h-14.817l-14.369 14.707zm7.204-24.862h2.883v6.486h-2.883zm-23.421 40.355v-4.842l10.089-.923-.897 2.537h-3.811l-1.121 3.228h-4.26zm11.171-27.023h4.324v6.846h-4.324z" fill="#A0A1A2"/><path fill-rule="evenodd" clip-rule="evenodd" d="M22.192 139.873v-7.567l-3.964-1.801-9.008-3.604-1.802-3.243H5.617l-1.081-3.603c-3.46.577-4.444-2.642-4.504-4.324h2.342l-.9-3.423.9-2.342H.032v-1.261h2.342L6.518 81.5v-5.585C23.093 69.14 74.079 61.922 97.5 59.159l.9 23.602h2.163l-2.162-52.067-7.027.9-13.152-.9v3.603c.288-1.73 2.282-1.562 3.243-1.261v14.413c-2.018.72-3.843-2.462-4.504-4.144V29.252l4.504-1.621h13.332l2.703-1.622-2.703-2.702v-5.225h18.017V17H94.798v-.9h-2.522v2.882l-3.063 1.08-1.08-5.404 1.08-.901 10.27-.9 4.324-.902c1.297-4.9 3.423-2.041 4.324 0-.145-4.9 4.984-9.729 7.567-11.53V6.37c2.882-.576 5.164 1.562 5.945 2.703l52.788 1.801 4.865 1.081v6.126h-4.865v46.122h18.737V93.57h7.567l10.27-10.81h4.684l16.935 7.027-6.666 3.783-10.269-3.783h-4.684l-7.027 9.368 7.027 7.387c-4.314.686-6.149 13.083-6.787 25.042h-19.699v3.964h19.528a207.795 207.795 0 00-.069 11.351h-56.572c.777-30.487-9.467-46.607-19.816-54.23h42.518v-2.162h-45.762v.039c-3.892-2.243-7.635-3.35-10.63-3.642h-21.44l-9.368 2.883 5.585 6.486c-20.611 3.315-29.487 25.403-31.349 36.032H42.19v7.567H22.192zM117.86 37.721V25.109h2.522v12.612h-2.522zm-.001 4.143v19.818h2.523V41.864h-2.523zm.001 43.958V66.004h2.522v19.818h-2.522zm12.252-57.471h13.152l3.243 26.664h-15.314l-1.081-26.664zm-27.746-3.063l-1.982 4.144-1.08 2.342 3.062 50.446h10.45V25.288h-10.45zM7.779 81.5l-3.062 23.24h5.405c3.243-5.945 10.125-19.818 11.71-27.745L7.78 81.5zm16.395 51.168H40.39v5.405H24.174v-5.405zm133.5-19.277l1.442 10.089h16.034l-2.702-2.342h-11.17l-2.162-7.747h-1.442zm3.424 22.159l-1.441-10.089h1.441l2.162 7.747h11.17l2.703 2.342h-16.035zm0 1.442l1.456 9.008h16.2l-2.73-2.091h-11.285l-2.185-6.917h-1.456zm-34.95-113.867h31.491l6.091 63.778h-37.582V23.125zm2.162 2.162v59.454h33.042l-5.679-59.454H128.31zm-98.73 93.327h-3.604v2.882h3.603v-2.882zm2.882-2.161h4.685v5.045h-4.685v-5.045zm15.854-15.137h-2.162v5.766h2.162v-5.766zm3.604-2.16h2.162v5.765H51.92v-5.765zm6.847-.722h-2.162v5.765h2.162v-5.765zm4.682-2.16h2.162v5.764h-2.162v-5.765zm9.008-1.801h-2.162v5.765h2.162v-5.765zM35.526 77.176l-1.081 3.783 58.193-9.188-.9-4.684-56.212 10.089zm-3.784 12.07l1.441-4.683 59.455-10.27v4.504l-60.896 10.45zm149.534 8.469h6.486v6.125h-6.486v-6.125zm-12.97-74.59h3.603v33.51h-3.603v-33.51zm6.846-6.124h-57.293v1.08h57.293v-1.08zm-1.441 62.335h-1.801v12.251h1.801V79.336zm-5.405 18.379h3.603v12.972h-14.053v-3.964h9.369v-5.045h-9.369v-3.963h10.45zm5.405-12.25h18.738v2.522h-18.738v-2.522zM3.275 112.488H7.24l3.963 10.99H7.24l-3.964-10.99z" fill="#A0A1A2"/><path d="M296.223 104.2v8.107l-8.648 4.324 1.801 1.621 4.504 4.505-3.062 16.935 13.692 3.783 1.982-20.718 5.405-14.774-3.063-3.783h-9.008V84.922l-1.622-7.387h-1.981l-2.343 3.243 2.343 4.144V104.2zM206.5 134.829h8.288v12.251H206.5z" fill="#A0A1A2"/><path fill-rule="evenodd" clip-rule="evenodd" d="M311.537 113.027l-2.702 6.847 2.702 11.71 1.802 10.63v6.306l-23.422-6.306-.716 2.355 9.681 2.646-.855 3.128-9.732-2.66.369-1.35-1.269 4.169 14.954 3.603 18.737 4.504 7.026 3.783c2.102-.36 6.234-1.981 5.946-5.585l-4.685-1.261v-3.243l-3.603-1.801-2.342 1.801-5.945-1.801v-8.288l-1.982-3.783v-6.847l-2.162-11.71-1.802-6.847z" fill="#A0A1A2"/></svg>