<svg  viewBox="0 0 186 47" fill="none" xmlns="http://www.w3.org/2000/svg">
<path d="M131.278 46.0093C128.485 46.0093 126.213 43.7419 126.213 40.9539C126.213 38.1659 128.485 35.8984 131.278 35.8984C134.072 35.8984 136.344 38.1659 136.344 40.9539C136.344 43.7419 134.072 46.0093 131.278 46.0093ZM131.278 36.4068C128.766 36.4068 126.722 38.4465 126.722 40.9539C126.722 43.4612 128.766 45.5009 131.278 45.5009C133.791 45.5009 135.835 43.4612 135.835 40.9539C135.835 38.4465 133.791 36.4068 131.278 36.4068Z" fill="black" stroke="#516981" stroke-width="0.2"/>
<path d="M178.627 31.728H128.998L124.404 31.0935L59.3662 31.0956L55.9939 31.724L8.59845 31.728C8.45786 31.728 8.34375 31.6141 8.34375 31.4738V28.4417C8.34375 28.3014 8.45786 28.1875 8.59845 28.1875H178.625C178.766 28.1875 178.88 28.3014 178.88 28.4417V31.4738C178.882 31.6141 178.768 31.728 178.627 31.728ZM65.5708 30.5872H124.44L129.035 31.2217L178.372 31.2196V28.6959H8.8552V31.2196H55.9491L59.3214 30.5912L65.5708 30.5872Z" fill="black" stroke="#516981" stroke-width="0.2"/>
<path d="M12.3336 28.6957C12.3152 28.6957 12.2949 28.6937 12.2765 28.6896C12.14 28.6571 12.0544 28.5208 12.087 28.3846L12.8471 25.1001C12.8735 24.9842 12.9754 24.9028 13.0956 24.9028H16.7023V4.55934C16.7023 4.47188 16.7471 4.39054 16.8245 4.34376L19.2921 2.8266C19.3329 2.80219 19.3777 2.78795 19.4245 2.78795H23.4733V1.59008C23.4733 1.49246 23.5283 1.40298 23.618 1.36027C23.6893 1.3257 25.4356 0.514236 30.2464 0.5C30.2811 0.5 30.3137 0.5 30.3483 0.5C35.0247 0.5 35.5097 1.51483 35.5606 1.72024L35.5667 2.85304H36.6406V1.52704C36.6406 1.41925 36.7078 1.32367 36.8097 1.28706C36.883 1.26062 38.668 0.64033 42.9002 0.510171C47.1976 0.388147 48.5261 1.47416 48.5811 1.52297C48.6382 1.56974 48.6708 1.64093 48.6708 1.71617V2.59882H49.9341V1.59008C49.9341 1.50263 49.9789 1.42128 50.0523 1.37654C50.1032 1.344 51.3686 0.577281 56.0083 0.516269C60.6378 0.44102 61.8645 1.21994 61.9134 1.25248C61.9847 1.29926 62.0275 1.37857 62.0275 1.46399V2.27545L62.4187 2.53577H63.2908V1.52704C63.2908 1.45179 63.3255 1.37858 63.3825 1.3318C63.4416 1.28299 63.515 1.26265 63.5924 1.27892L64.9352 1.53517V1.08571C64.9352 1.0125 64.9658 0.945388 65.0208 0.896578C65.0738 0.849802 65.1471 0.827435 65.2184 0.833536L69.2081 1.27485C69.3365 1.28909 69.4343 1.39891 69.4343 1.52704V2.34663H70.445V1.84227C70.4409 1.80769 70.449 1.6999 70.5591 1.57991C71.1317 0.959621 73.9456 0.829463 76.2054 0.829463C81.4034 0.829463 82.1797 1.52907 82.2735 1.83006C82.2796 1.85447 82.2836 1.87887 82.2836 1.90531V2.34663H83.0416V1.84227C83.0416 1.73448 83.1089 1.63889 83.2108 1.60228C83.2963 1.57178 85.3829 0.829463 89.0568 0.829463C92.7286 0.829463 94.6277 1.44772 94.7071 1.47416C94.811 1.50873 94.8803 1.60635 94.8803 1.71617V2.22054H100.07L105.517 0.839634C105.58 0.823364 105.643 0.833536 105.7 0.862008L107.862 2.03344L109.947 2.09039L110.819 0.933188C110.866 0.870143 110.943 0.831495 111.022 0.831495H126.091C126.142 0.831495 126.193 0.847772 126.233 0.876244L127.372 1.65313H130.268C130.409 1.65313 130.523 1.76702 130.523 1.90735V2.34867H132.053L132.611 1.73651C132.66 1.68363 132.729 1.65313 132.801 1.65313H155.863C155.977 1.65313 156.075 1.72838 156.107 1.83617L157.479 6.5951C157.511 6.70899 157.46 6.83102 157.356 6.88796L156.117 7.57334V11.6347H169.008C169.05 11.6347 169.091 11.6449 169.13 11.6652L171.942 13.1824C172.023 13.2251 172.074 13.3125 172.074 13.4061V28.4435C172.074 28.5839 171.96 28.6978 171.82 28.6978C171.679 28.6978 171.565 28.5839 171.565 28.4435V13.5586L168.944 12.1452H155.863C155.722 12.1452 155.608 12.0313 155.608 11.891V7.4269C155.608 7.33539 155.657 7.24997 155.738 7.20523L156.933 6.5463L155.671 2.16563H132.909L132.35 2.77778C132.302 2.83066 132.232 2.86117 132.161 2.86117H130.262C130.121 2.86117 130.007 2.74728 130.007 2.60695V2.16563H127.287C127.236 2.16563 127.185 2.14936 127.144 2.12089L126.005 1.344H111.145L110.271 2.50526C110.224 2.56831 110.146 2.60695 110.067 2.60695C110.065 2.60695 110.063 2.60695 110.059 2.60695L107.781 2.54391C107.74 2.54391 107.703 2.5317 107.667 2.5134L105.539 1.36027L100.127 2.7249L94.6215 2.73304C94.4809 2.73304 94.3668 2.61915 94.3668 2.47882V1.91141C93.8228 1.76295 92.0154 1.344 89.0506 1.344C86.0512 1.344 84.1073 1.86057 83.5449 2.0314V2.60492C83.5449 2.74524 83.4308 2.85913 83.2902 2.85913H82.0269C81.8863 2.85913 81.7722 2.74524 81.7722 2.60492V1.97853C81.6723 1.90938 80.8308 1.344 76.2033 1.344C71.8835 1.344 71.0766 1.80769 70.9503 1.91141V2.60492C70.9503 2.74524 70.8362 2.85913 70.6956 2.85913H69.1755C69.0349 2.85913 68.9208 2.74524 68.9208 2.60492V1.75685L65.4405 1.37247V1.84633C65.4405 1.92158 65.4059 1.9948 65.3488 2.04157C65.2897 2.09038 65.2144 2.10869 65.139 2.09445L63.7962 1.8382V2.79405C63.7962 2.93438 63.682 3.04827 63.5415 3.04827H62.3392C62.2883 3.04827 62.2394 3.03403 62.1986 3.00556L61.6301 2.62729C61.5588 2.58052 61.516 2.5012 61.516 2.41578V1.62262C61.133 1.45585 59.6659 0.967757 56.0144 1.02674C52.3222 1.07555 50.8429 1.57992 50.4415 1.75278V2.8571C50.4415 2.99743 50.3274 3.11132 50.1868 3.11132H48.414C48.2734 3.11132 48.1593 2.99743 48.1593 2.8571V1.85244C47.8109 1.63686 46.3805 0.925051 42.9144 1.02267C39.4912 1.12842 37.6797 1.56568 37.1479 1.71821V3.11132C37.1479 3.25165 37.0338 3.36554 36.8932 3.36554H35.31C35.1694 3.36554 35.0553 3.25165 35.0553 3.11132V1.84633C34.9513 1.7121 34.2198 1.0125 30.3463 1.0125C30.3116 1.0125 30.279 1.0125 30.2464 1.0125C26.326 1.0247 24.4799 1.58195 23.9807 1.76702V3.04827C23.9807 3.1886 23.8666 3.30249 23.726 3.30249H19.4938L17.2076 4.70577V25.1611C17.2076 25.3014 17.0935 25.4153 16.9529 25.4153H13.2953L12.5801 28.5046C12.5536 28.6144 12.4497 28.6957 12.3336 28.6957ZM70.9503 1.82193V1.86057C70.9523 1.84836 70.9523 1.83617 70.9503 1.82193Z" fill="black" stroke="#516981" stroke-width="0.2"/>
<path d="M154.616 6.41455H135.456C135.329 6.41455 135.224 6.32304 135.205 6.20103L134.529 1.94684C134.506 1.80856 134.6 1.67842 134.741 1.65605C134.898 1.63571 135.01 1.73129 135.032 1.86754L135.674 5.90616H154.294L153.354 1.96515C153.322 1.8289 153.407 1.69265 153.544 1.66011C153.683 1.62961 153.821 1.71298 153.852 1.84923L154.864 6.10342C154.883 6.17866 154.864 6.25797 154.815 6.31897C154.767 6.37794 154.693 6.41455 154.616 6.41455Z" fill="black" stroke="#516981" stroke-width="0.2"/>
<path d="M149.379 15.5972H139.927C139.786 15.5972 139.672 15.4833 139.672 15.343V10.0359C139.672 9.89561 139.786 9.78174 139.927 9.78174H149.379C149.52 9.78174 149.634 9.89561 149.634 10.0359V15.341C149.634 15.4813 149.522 15.5972 149.379 15.5972ZM140.183 15.0888H149.127V10.2921H140.183V15.0888Z" fill="black" stroke="#516981" stroke-width="0.2"/>
<path d="M145.036 15.5972C144.895 15.5972 144.781 15.4833 144.781 15.343V10.0359C144.781 9.89561 144.895 9.78174 145.036 9.78174C145.177 9.78174 145.291 9.89561 145.291 10.0359V15.341C145.291 15.4813 145.177 15.5972 145.036 15.5972Z" fill="black" stroke="#516981" stroke-width="0.2"/>
<path d="M154.614 15.5957H149.382C149.241 15.5957 149.127 15.4822 149.127 15.3423C149.127 15.2024 149.241 15.0889 149.382 15.0889H154.614C154.755 15.0889 154.869 15.2024 154.869 15.3423C154.869 15.4822 154.755 15.5957 154.614 15.5957Z" fill="black" stroke="#516981" stroke-width="0.2"/>
<path d="M139.929 15.5957H135.454C135.313 15.5957 135.199 15.4822 135.199 15.3423C135.199 15.2024 135.313 15.0889 135.454 15.0889H139.927C140.067 15.0889 140.181 15.2024 140.181 15.3423C140.181 15.4822 140.069 15.5957 139.929 15.5957Z" fill="black" stroke="#516981" stroke-width="0.2"/>
<path d="M154.614 23.769H135.454C135.313 23.769 135.199 23.6552 135.199 23.5148V6.16061C135.199 6.06095 135.256 5.97146 135.348 5.92875C135.438 5.89011 135.544 5.90028 135.621 5.96943L140.094 9.84377C140.2 9.93529 140.212 10.096 140.12 10.2017C140.024 10.3075 139.863 10.3176 139.759 10.2261L135.709 6.71582V23.2586H154.357V6.66498L149.53 10.2383C149.418 10.3217 149.259 10.2993 149.173 10.1855C149.09 10.0716 149.114 9.91292 149.226 9.82953L154.459 5.95519C154.536 5.89824 154.636 5.89011 154.726 5.93282C154.811 5.97553 154.864 6.06298 154.864 6.16061V23.5148C154.869 23.6552 154.754 23.769 154.614 23.769Z" fill="black" stroke="#516981" stroke-width="0.2"/>
<path d="M169.003 28.6968C168.862 28.6968 168.748 28.5829 168.748 28.4426V11.89C168.748 11.7496 168.862 11.6357 169.003 11.6357C169.143 11.6357 169.257 11.7496 169.257 11.89V28.4426C169.257 28.5829 169.145 28.6968 169.003 28.6968Z" fill="black" stroke="#516981" stroke-width="0.2"/>
<path d="M166.949 23.5083H156.282C156.141 23.5083 156.027 23.3946 156.027 23.2544C156.027 23.1142 156.141 23.0005 156.282 23.0005H166.949C167.09 23.0005 167.204 23.1142 167.204 23.2544C167.204 23.3946 167.092 23.5083 166.949 23.5083Z" fill="black" stroke="#516981" stroke-width="0.2"/>
<path d="M8.59845 28.6968C8.45786 28.6968 8.34375 28.5829 8.34375 28.4426V19.8927C8.34375 19.7523 8.45786 19.6385 8.59845 19.6385H130.339L135.244 12.3902C135.325 12.2722 135.48 12.2437 135.598 12.321C135.714 12.4003 135.745 12.5569 135.666 12.6729L130.686 20.033C130.639 20.1042 130.559 20.1449 130.474 20.1449H8.85316V28.4405C8.85316 28.5829 8.73701 28.6968 8.59845 28.6968Z" fill="black" stroke="#516981" stroke-width="0.2"/>
<path d="M13.9988 28.6943C13.8582 28.6943 13.7441 28.5805 13.7441 28.4401V19.8909C13.7441 19.7506 13.8582 19.6367 13.9988 19.6367C14.1394 19.6367 14.2536 19.7506 14.2536 19.8909V28.4401C14.2536 28.5805 14.1394 28.6943 13.9988 28.6943Z" fill="black" stroke="#516981" stroke-width="0.2"/>
<path d="M23.7137 28.6943C23.5731 28.6943 23.459 28.5805 23.459 28.4401V19.8909C23.459 19.7506 23.5731 19.6367 23.7137 19.6367C23.8543 19.6367 23.9684 19.7506 23.9684 19.8909V28.4401C23.9684 28.5805 23.8543 28.6943 23.7137 28.6943Z" fill="black" stroke="#516981" stroke-width="0.2"/>
<path d="M33.4266 28.6943C33.286 28.6943 33.1719 28.5805 33.1719 28.4401V19.8909C33.1719 19.7506 33.286 19.6367 33.4266 19.6367C33.5672 19.6367 33.6813 19.7506 33.6813 19.8909V28.4401C33.6813 28.5805 33.5652 28.6943 33.4266 28.6943Z" fill="black" stroke="#516981" stroke-width="0.2"/>
<path d="M43.1395 28.6943C42.9989 28.6943 42.8848 28.5805 42.8848 28.4401V19.8909C42.8848 19.7506 42.9989 19.6367 43.1395 19.6367C43.2801 19.6367 43.3942 19.7506 43.3942 19.8909V28.4401C43.3942 28.5805 43.2801 28.6943 43.1395 28.6943Z" fill="black" stroke="#516981" stroke-width="0.2"/>
<path d="M52.8524 28.6943C52.7118 28.6943 52.5977 28.5805 52.5977 28.4401V19.8909C52.5977 19.7506 52.7118 19.6367 52.8524 19.6367C52.993 19.6367 53.1071 19.7506 53.1071 19.8909V28.4401C53.1071 28.5805 52.993 28.6943 52.8524 28.6943Z" fill="black" stroke="#516981" stroke-width="0.2"/>
<path d="M62.5672 28.6943C62.4266 28.6943 62.3125 28.5805 62.3125 28.4401V19.8909C62.3125 19.7506 62.4266 19.6367 62.5672 19.6367C62.7078 19.6367 62.8219 19.7506 62.8219 19.8909V28.4401C62.8219 28.5805 62.7078 28.6943 62.5672 28.6943Z" fill="black" stroke="#516981" stroke-width="0.2"/>
<path d="M72.2801 28.6943C72.1395 28.6943 72.0254 28.5805 72.0254 28.4401V19.8909C72.0254 19.7506 72.1395 19.6367 72.2801 19.6367C72.4207 19.6367 72.5348 19.7506 72.5348 19.8909V28.4401C72.5348 28.5805 72.4207 28.6943 72.2801 28.6943Z" fill="black" stroke="#516981" stroke-width="0.2"/>
<path d="M81.993 28.6943C81.8524 28.6943 81.7383 28.5805 81.7383 28.4401V19.8909C81.7383 19.7506 81.8524 19.6367 81.993 19.6367C82.1336 19.6367 82.2477 19.7506 82.2477 19.8909V28.4401C82.2477 28.5805 82.1336 28.6943 81.993 28.6943Z" fill="black" stroke="#516981" stroke-width="0.2"/>
<path d="M92.577 28.8398C92.4364 28.8398 92.3223 28.726 92.3223 28.5856V20.0355C92.3223 19.8951 92.4364 19.7812 92.577 19.7812C92.7176 19.7812 92.8317 19.8951 92.8317 20.0355V28.5856C92.8317 28.726 92.7176 28.8398 92.577 28.8398Z" fill="black" stroke="#516981" stroke-width="0.2"/>
<path d="M101.419 28.6943C101.278 28.6943 101.164 28.5805 101.164 28.4401V19.8909C101.164 19.7506 101.278 19.6367 101.419 19.6367C101.559 19.6367 101.674 19.7506 101.674 19.8909V28.4401C101.674 28.5805 101.561 28.6943 101.419 28.6943Z" fill="black" stroke="#516981" stroke-width="0.2"/>
<path d="M111.132 28.6943C110.991 28.6943 110.877 28.5805 110.877 28.4401V19.8909C110.877 19.7506 110.991 19.6367 111.132 19.6367C111.272 19.6367 111.386 19.7506 111.386 19.8909V28.4401C111.386 28.5805 111.272 28.6943 111.132 28.6943Z" fill="black" stroke="#516981" stroke-width="0.2"/>
<path d="M120.845 28.6943C120.704 28.6943 120.59 28.5805 120.59 28.4401V19.8909C120.59 19.7506 120.704 19.6367 120.845 19.6367C120.985 19.6367 121.099 19.7506 121.099 19.8909V28.4401C121.099 28.5805 120.987 28.6943 120.845 28.6943Z" fill="black" stroke="#516981" stroke-width="0.2"/>
<path d="M130.557 28.6943C130.417 28.6943 130.303 28.5805 130.303 28.4401V19.8909C130.303 19.7506 130.417 19.6367 130.557 19.6367C130.698 19.6367 130.812 19.7506 130.812 19.8909V28.4401C130.812 28.5805 130.698 28.6943 130.557 28.6943Z" fill="black" stroke="#516981" stroke-width="0.2"/>
<path d="M100.176 34.5508H66.4164C65.6319 34.5508 65.094 34.3087 64.8189 33.8308C64.1852 32.7284 65.3038 30.7962 65.3507 30.7148C65.422 30.5928 65.5769 30.5521 65.6991 30.6253C65.8214 30.6945 65.8621 30.8511 65.7908 30.9731C65.5056 31.4572 64.8576 32.8769 65.261 33.5786C65.4383 33.8857 65.8275 34.0443 66.4164 34.0443H100.176C101.427 34.0443 102.26 33.6803 102.466 33.0477C102.66 32.4477 102.234 31.6626 101.378 31.0525C101.264 30.9711 101.24 30.8125 101.321 30.6965C101.401 30.5847 101.56 30.5582 101.678 30.6396C102.731 31.3942 103.22 32.3765 102.951 33.2064C102.674 34.0586 101.661 34.5508 100.176 34.5508Z" fill="black" stroke="#516981" stroke-width="0.2"/>
<path d="M120.598 43.646H65.4417C65.3928 43.646 65.3439 43.6318 65.3031 43.6033C65.2155 43.5464 63.1249 42.1473 62.9517 38.857C62.7764 35.5118 66.2832 34.07 66.3199 34.0578C66.4483 34.0049 66.597 34.0679 66.65 34.1981C66.703 34.3282 66.6398 34.4767 66.5094 34.5296C66.4768 34.5418 63.3042 35.8514 63.4611 38.8285C63.6037 41.5535 65.1992 42.8895 65.5252 43.1356H120.529C120.778 42.9688 122.009 41.9642 121.864 38.6862C121.719 35.3308 120.266 34.6333 120.048 34.5479H100.173C100.033 34.5479 99.9185 34.434 99.9185 34.2937C99.9185 34.1534 100.033 34.0395 100.173 34.0395H120.091C120.114 34.0395 120.136 34.0435 120.158 34.0496C120.242 34.072 122.196 34.6495 122.371 38.6638C122.544 42.6577 120.788 43.583 120.713 43.6196C120.676 43.6358 120.639 43.646 120.598 43.646Z" fill="black" stroke="#516981" stroke-width="0.2"/>
<path d="M131.28 42.7236C130.464 42.7236 129.727 42.1581 129.543 41.3301V41.3281C129.334 40.376 129.941 39.43 130.896 39.2205C131.832 39.015 132.802 39.6151 133.009 40.5713C133.219 41.5234 132.612 42.4714 131.659 42.6809C131.532 42.7094 131.404 42.7236 131.28 42.7236ZM130.041 41.2223C130.191 41.8997 130.862 42.331 131.548 42.1866C132.227 42.036 132.661 41.3606 132.512 40.6811C132.364 40.0017 131.689 39.5704 131.006 39.7189C130.326 39.8694 129.892 40.5428 130.041 41.2223Z" fill="black" stroke="#516981" stroke-width="0.2"/>
<path d="M151.05 46.0093C148.256 46.0093 145.984 43.7419 145.984 40.9539C145.984 38.1659 148.256 35.8984 151.05 35.8984C153.841 35.8984 156.113 38.1659 156.113 40.9539C156.113 43.7419 153.841 46.0093 151.05 46.0093ZM151.05 36.4068C148.538 36.4068 146.494 38.4465 146.494 40.9539C146.494 43.4612 148.538 45.5009 151.05 45.5009C153.56 45.5009 155.604 43.4612 155.604 40.9539C155.604 38.4465 153.56 36.4068 151.05 36.4068Z" fill="black" stroke="#516981" stroke-width="0.2"/>
<path d="M151.047 42.7236C150.711 42.7236 150.383 42.628 150.093 42.4409C149.694 42.1867 149.419 41.7921 149.317 41.3284C149.107 40.3765 149.714 39.4307 150.668 39.2212C151.621 39.0097 152.571 39.6178 152.783 40.5697C152.993 41.5236 152.386 42.4714 151.43 42.6809C151.304 42.7094 151.173 42.7236 151.047 42.7236ZM151.049 39.689C150.959 39.689 150.87 39.6992 150.778 39.7195C150.099 39.87 149.665 40.5433 149.814 41.2226C149.963 41.904 150.635 42.3311 151.32 42.1867C152 42.0362 152.434 41.3609 152.286 40.6816C152.155 40.0917 151.63 39.689 151.049 39.689Z" fill="black" stroke="#516981" stroke-width="0.2"/>
<path d="M171.214 46.0093C168.42 46.0093 166.148 43.7419 166.148 40.9539C166.148 38.1659 168.42 35.8984 171.214 35.8984C174.008 35.8984 176.28 38.1659 176.28 40.9539C176.28 43.7419 174.008 46.0093 171.214 46.0093ZM171.214 36.4068C168.702 36.4068 166.658 38.4465 166.658 40.9539C166.658 43.4612 168.702 45.5009 171.214 45.5009C173.726 45.5009 175.77 43.4612 175.77 40.9539C175.77 38.4465 173.728 36.4068 171.214 36.4068Z" fill="black" stroke="#516981" stroke-width="0.2"/>
<path d="M171.211 42.7236C170.875 42.7236 170.547 42.628 170.257 42.4409C169.858 42.1867 169.583 41.7921 169.481 41.3284C169.271 40.3765 169.878 39.4307 170.832 39.2212C171.788 39.0097 172.737 39.6178 172.947 40.5697C173.157 41.5236 172.55 42.4714 171.594 42.6809C171.468 42.7094 171.339 42.7236 171.211 42.7236ZM171.213 39.689C171.123 39.689 171.034 39.6992 170.942 39.7195C170.263 39.87 169.829 40.5433 169.978 41.2226C170.127 41.904 170.797 42.3311 171.484 42.1867C172.164 42.0362 172.598 41.3609 172.45 40.6816C172.319 40.0917 171.794 39.689 171.213 39.689Z" fill="black" stroke="#516981" stroke-width="0.2"/>
<path d="M14.5949 46.0093C11.8013 46.0093 9.5293 43.7419 9.5293 40.9539C9.5293 38.1659 11.8013 35.8984 14.5949 35.8984C17.3885 35.8984 19.6604 38.1659 19.6604 40.9539C19.6604 43.7419 17.3885 46.0093 14.5949 46.0093ZM14.5949 36.4068C12.0825 36.4068 10.0387 38.4465 10.0387 40.9539C10.0387 43.4612 12.0825 45.5009 14.5949 45.5009C17.1073 45.5009 19.151 43.4612 19.151 40.9539C19.151 38.4465 17.1073 36.4068 14.5949 36.4068Z" fill="black" stroke="#516981" stroke-width="0.2"/>
<path d="M14.5958 42.7236C13.7808 42.7236 13.0431 42.1583 12.8618 41.3286C12.6519 40.3768 13.2591 39.4312 14.2148 39.2217C15.1786 39.0082 16.1179 39.6203 16.3278 40.5721C16.5377 41.5238 15.9305 42.4715 14.9748 42.6809C14.8485 42.7094 14.7201 42.7236 14.5958 42.7236ZM13.359 41.2228C13.5098 41.9041 14.1863 42.3311 14.8648 42.1867C15.5453 42.0363 15.9773 41.3631 15.8286 40.6819C15.6778 40.0026 14.9972 39.5654 14.3228 39.72C13.6442 39.8705 13.2102 40.5436 13.359 41.2228Z" fill="black" stroke="#516981" stroke-width="0.2"/>
<path d="M34.3664 46.0093C31.5728 46.0093 29.3008 43.7419 29.3008 40.9539C29.3008 38.1659 31.5728 35.8984 34.3664 35.8984C37.16 35.8984 39.4319 38.1659 39.4319 40.9539C39.4319 43.7419 37.16 46.0093 34.3664 46.0093ZM34.3664 36.4068C31.8539 36.4068 29.8102 38.4465 29.8102 40.9539C29.8102 43.4612 31.8539 45.5009 34.3664 45.5009C36.8788 45.5009 38.9225 43.4612 38.9225 40.9539C38.9225 38.4465 36.8788 36.4068 34.3664 36.4068Z" fill="black" stroke="#516981" stroke-width="0.2"/>
<path d="M34.3632 42.7236C34.027 42.7236 33.699 42.628 33.4096 42.443C33.0102 42.1867 32.7352 41.7921 32.6333 41.3284C32.4234 40.3765 33.0306 39.4307 33.9863 39.2212C34.9379 39.0097 35.8894 39.6178 36.0993 40.5697C36.3092 41.5236 35.702 42.4714 34.7463 42.6809C34.6179 42.7094 34.4916 42.7236 34.3632 42.7236ZM34.3653 39.689C34.2777 39.689 34.186 39.6992 34.0963 39.7195C33.4157 39.87 32.9838 40.5433 33.1325 41.2206C33.1325 41.2226 33.1325 41.2226 33.1325 41.2226C33.2059 41.5501 33.4015 41.8328 33.6847 42.0158C33.9679 42.1948 34.3041 42.2579 34.6363 42.1867C35.3169 42.0362 35.7488 41.3629 35.6021 40.6816C35.4697 40.0917 34.946 39.689 34.3653 39.689Z" fill="black" stroke="#516981" stroke-width="0.2"/>
<path d="M54.5324 46.0093C51.7388 46.0093 49.4668 43.7419 49.4668 40.9539C49.4668 38.1659 51.7388 35.8984 54.5324 35.8984C57.326 35.8984 59.5979 38.1659 59.5979 40.9539C59.5979 43.7419 57.328 46.0093 54.5324 46.0093ZM54.5324 36.4068C52.02 36.4068 49.9762 38.4465 49.9762 40.9539C49.9762 43.4612 52.02 45.5009 54.5324 45.5009C57.0448 45.5009 59.0885 43.4612 59.0885 40.9539C59.0885 38.4465 57.0448 36.4068 54.5324 36.4068Z" fill="black" stroke="#516981" stroke-width="0.2"/>
<path d="M54.5332 42.7236C54.1969 42.7236 53.8689 42.628 53.5795 42.443C53.1802 42.1867 52.9051 41.7921 52.8032 41.3284C52.5933 40.3765 53.2005 39.4307 54.1562 39.2212C55.1118 39.0097 56.0593 39.6178 56.2692 40.5697C56.4791 41.5236 55.8719 42.4714 54.9162 42.6809C54.7879 42.7094 54.6595 42.7236 54.5332 42.7236ZM54.5332 39.689C54.4455 39.689 54.3538 39.6992 54.2642 39.7195C53.5836 39.87 53.1516 40.5433 53.3004 41.2206C53.3004 41.2226 53.3004 41.2226 53.3004 41.2226C53.3737 41.5501 53.5694 41.8328 53.8526 42.0158C54.1358 42.1948 54.4741 42.2579 54.8042 42.1867C55.4847 42.0362 55.9167 41.3629 55.77 40.6816C55.6396 40.0917 55.1139 39.689 54.5332 39.689Z" fill="black" stroke="#516981" stroke-width="0.2"/>
<path d="M146.238 41.2065H136.089C135.948 41.2065 135.834 41.0929 135.834 40.9529C135.834 40.8129 135.948 40.6992 136.089 40.6992H146.238C146.379 40.6992 146.493 40.8129 146.493 40.9529C146.493 41.0929 146.381 41.2065 146.238 41.2065Z" fill="black" stroke="#516981" stroke-width="0.2"/>
<path d="M166.403 41.2065H155.858C155.718 41.2065 155.604 41.0929 155.604 40.9529C155.604 40.8129 155.718 40.6992 155.858 40.6992H166.403C166.544 40.6992 166.658 40.8129 166.658 40.9529C166.658 41.0929 166.544 41.2065 166.403 41.2065Z" fill="black" stroke="#516981" stroke-width="0.2"/>
<path d="M126.632 39.954C126.506 39.954 126.398 39.8605 126.38 39.7343C126.363 39.6123 125.997 36.7321 127.388 35.109C127.975 34.4256 128.784 34.0655 129.795 34.0452C129.868 34.0432 129.942 34.0432 130.013 34.0432C132.35 34.0432 134.879 34.8263 136.922 35.4568C138.308 35.886 139.504 36.2562 140.368 36.3192C141.073 36.3721 141.607 36.4474 142.039 36.5104C143.017 36.6508 143.51 36.7199 144.566 36.3355C145.049 36.1565 145.566 35.8229 146.114 35.467C147.365 34.6595 148.782 33.7381 150.603 34.0493C152.282 34.3279 153.906 34.8344 155.337 35.2778C156.091 35.5117 156.802 35.7355 157.462 35.9063C159.224 36.368 162.485 37.0271 164.484 36.307C165.297 36.0121 166.018 35.6683 166.652 35.3612C167.624 34.8934 168.461 34.4886 169.351 34.3849C170.798 34.2079 176.502 34.6269 176.744 34.6432C176.885 34.6534 176.991 34.7754 176.98 34.9158C176.97 35.0561 176.85 35.17 176.707 35.1517C176.648 35.1476 170.808 34.7307 169.411 34.8893C168.604 34.9849 167.801 35.3714 166.872 35.8189C166.228 36.1301 165.494 36.484 164.655 36.785C162.523 37.56 159.151 36.8745 157.331 36.4006C156.659 36.2257 155.94 36.0019 155.182 35.766C153.766 35.3266 152.162 34.8263 150.516 34.5517C148.885 34.2934 147.559 35.1395 146.389 35.8962C145.817 36.2684 145.275 36.6162 144.737 36.8135C143.561 37.2447 142.958 37.1572 141.962 37.0169C141.54 36.9559 141.012 36.8806 140.327 36.8298C139.402 36.7626 138.18 36.3823 136.766 35.945C134.587 35.2676 132.134 34.5029 129.801 34.5537C128.941 34.572 128.258 34.871 127.769 35.4426C126.524 36.8969 126.877 39.6408 126.879 39.6693C126.897 39.8076 126.799 39.9357 126.661 39.9561C126.655 39.954 126.645 39.954 126.632 39.954Z" fill="black" stroke="#516981" stroke-width="0.2"/>
<path d="M184.746 42.3013H176.029C175.958 42.3013 175.888 42.2708 175.84 42.2179C175.791 42.165 175.768 42.0918 175.776 42.0226L176.813 31.4513C176.826 31.311 176.956 31.1788 177.091 31.2235C177.231 31.2357 177.333 31.3598 177.319 31.5001L176.31 41.7949H184.487L183.996 19.8285L182.122 20.4081C182.097 20.4163 182.073 20.4203 182.046 20.4203H178.627C178.486 20.4203 178.372 20.3065 178.372 20.1661V16.6925H171.817C171.677 16.6925 171.562 16.5786 171.562 16.4383C171.562 16.298 171.677 16.1841 171.817 16.1841H178.627C178.768 16.1841 178.882 16.298 178.882 16.4383V19.9119H182.005L184.165 19.2388C184.237 19.2143 184.322 19.2265 184.389 19.2754C184.453 19.3221 184.493 19.3974 184.495 19.4767L185.001 42.0409C185.003 42.1101 184.976 42.1752 184.929 42.224C184.878 42.2728 184.813 42.3013 184.746 42.3013Z" fill="black" stroke="#516981" stroke-width="0.2"/>
<path d="M175.04 28.6958C174.899 28.6958 174.785 28.5819 174.785 28.4416V16.4378C174.785 16.2975 174.899 16.1836 175.04 16.1836C175.18 16.1836 175.295 16.2975 175.295 16.4378V28.4416C175.295 28.5819 175.18 28.6958 175.04 28.6958Z" fill="black" stroke="#516981" stroke-width="0.2"/>
<path d="M178.626 28.6973C178.485 28.6973 178.371 28.5834 178.371 28.443V20.1673C178.371 20.027 178.485 19.9131 178.626 19.9131C178.766 19.9131 178.88 20.027 178.88 20.1673V28.443C178.88 28.5834 178.766 28.6973 178.626 28.6973Z" fill="black" stroke="#516981" stroke-width="0.2"/>
<path d="M184.458 29.4971H178.626C178.485 29.4971 178.371 29.3831 178.371 29.2427C178.371 29.1023 178.485 28.9883 178.626 28.9883H184.458C184.598 28.9883 184.712 29.1023 184.712 29.2427C184.712 29.3831 184.6 29.4971 184.458 29.4971Z" fill="black" stroke="#516981" stroke-width="0.2"/>
<path d="M177.738 42.3013C177.732 42.3013 177.724 42.3013 177.715 42.3013C177.577 42.2891 177.473 42.167 177.483 42.0247L178.369 31.4535C178.382 31.3234 178.494 31.2217 178.624 31.2217C178.63 31.2217 178.638 31.2217 178.647 31.2217C178.785 31.2339 178.889 31.3559 178.879 31.4983L177.993 42.0694C177.98 42.1996 177.87 42.3013 177.738 42.3013Z" fill="black" stroke="#516981" stroke-width="0.2"/>
<path d="M184.457 33.2861H178.495C178.354 33.2861 178.24 33.1724 178.24 33.0322C178.24 32.8921 178.354 32.7783 178.495 32.7783H184.457C184.598 32.7783 184.712 32.8921 184.712 33.0322C184.712 33.1724 184.6 33.2861 184.457 33.2861Z" fill="black" stroke="#516981" stroke-width="0.2"/>
<path d="M184.635 37.4155H178.149C178.009 37.4155 177.895 37.3017 177.895 37.1614C177.895 37.0211 178.009 36.9072 178.149 36.9072H184.635C184.776 36.9072 184.89 37.0211 184.89 37.1614C184.89 37.3017 184.776 37.4155 184.635 37.4155Z" fill="black" stroke="#516981" stroke-width="0.2"/>
<path d="M138.833 38.8477C138.46 38.8477 138.156 38.5446 138.156 38.1724C138.156 37.8001 138.46 37.4971 138.833 37.4971C139.206 37.4971 139.509 37.8001 139.509 38.1724C139.509 38.5446 139.204 38.8477 138.833 38.8477ZM138.833 38.0056C138.741 38.0056 138.666 38.0808 138.666 38.1724C138.666 38.3554 139 38.3554 139 38.1724C139 38.0808 138.924 38.0056 138.833 38.0056Z" fill="black" stroke="#516981" stroke-width="0.2"/>
<path d="M144.231 38.8477C143.858 38.8477 143.555 38.5446 143.555 38.1724C143.555 37.8001 143.858 37.4971 144.231 37.4971C144.604 37.4971 144.908 37.8001 144.908 38.1724C144.908 38.5446 144.604 38.8477 144.231 38.8477ZM144.231 38.0056C144.14 38.0056 144.064 38.0808 144.064 38.1724C144.064 38.3554 144.398 38.3554 144.398 38.1724C144.398 38.0808 144.323 38.0056 144.231 38.0056Z" fill="black" stroke="#516981" stroke-width="0.2"/>
<path d="M159.005 38.8477C158.632 38.8477 158.328 38.5446 158.328 38.1724C158.328 37.8001 158.632 37.4971 159.005 37.4971C159.378 37.4971 159.681 37.8001 159.681 38.1724C159.681 38.5446 159.378 38.8477 159.005 38.8477ZM159.005 38.0056C158.911 38.0056 158.838 38.0788 158.838 38.1724C158.838 38.3575 159.172 38.3575 159.172 38.1724C159.172 38.0808 159.096 38.0056 159.005 38.0056Z" fill="black" stroke="#516981" stroke-width="0.2"/>
<path d="M164.233 38.8477C163.86 38.8477 163.557 38.5446 163.557 38.1724C163.557 37.8001 163.86 37.4971 164.233 37.4971C164.606 37.4971 164.91 37.8001 164.91 38.1724C164.91 38.5446 164.606 38.8477 164.233 38.8477ZM164.233 38.0056C164.141 38.0056 164.066 38.0808 164.066 38.1724C164.066 38.3554 164.4 38.3554 164.4 38.1724C164.4 38.0808 164.325 38.0056 164.233 38.0056Z" fill="black" stroke="#516981" stroke-width="0.2"/>
<path d="M115.917 32.9067L102.813 32.8254C102.675 32.8254 102.561 32.7095 102.561 32.5691C102.561 32.4308 102.677 32.3169 102.815 32.3169H102.817L115.919 32.3982C116.058 32.3982 116.172 32.5142 116.172 32.6545C116.172 32.7928 116.056 32.9067 115.917 32.9067Z" fill="black" stroke="#516981" stroke-width="0.2"/>
<path d="M126.467 41.2075H122.133C122.039 41.2075 121.954 41.1587 121.911 41.0774C121.866 40.996 121.868 40.8964 121.919 40.8191L123.631 38.104C123.569 37.9271 123.519 37.7461 123.478 37.559C122.763 34.3497 125.122 30.9777 125.222 30.8333C125.301 30.7174 125.456 30.693 125.577 30.7743C125.693 30.8537 125.717 31.0123 125.638 31.1282C125.613 31.1628 123.307 34.4636 123.975 37.4512C123.981 37.4776 123.987 37.5 123.993 37.5264L127.965 31.2258C128.038 31.1058 128.197 31.0692 128.315 31.1465C128.435 31.2197 128.47 31.3763 128.395 31.4963L124.195 38.1589C124.613 39.2002 125.418 40.0625 126.593 40.7316C126.695 40.7865 126.744 40.9065 126.716 41.0184C126.687 41.1302 126.583 41.2075 126.467 41.2075ZM122.595 40.6991H125.605C124.827 40.1296 124.246 39.4544 123.867 38.6796L122.595 40.6991Z" fill="black" stroke="#516981" stroke-width="0.2"/>
<path d="M19.4227 28.6968C19.2821 28.6968 19.168 28.5829 19.168 28.4426V3.04328C19.168 2.90295 19.2821 2.78906 19.4227 2.78906C19.5633 2.78906 19.6774 2.90295 19.6774 3.04328V28.4405C19.6774 28.5829 19.5633 28.6968 19.4227 28.6968Z" fill="black" stroke="#516981" stroke-width="0.2"/>
<path d="M134.779 3.29785H23.7274C23.5868 3.29785 23.4727 3.18388 23.4727 3.04346C23.4727 2.90303 23.5868 2.78906 23.7274 2.78906H134.779C134.919 2.78906 135.033 2.90303 135.033 3.04346C135.033 3.18388 134.921 3.29785 134.779 3.29785Z" fill="black" stroke="#516981" stroke-width="0.2"/>
<path d="M40.2489 11.4678H21.1746C21.034 11.4678 20.9199 11.3539 20.9199 11.2136V6.15997C20.9199 6.01965 21.034 5.90576 21.1746 5.90576H40.2489C40.3895 5.90576 40.5036 6.01965 40.5036 6.15997V11.2136C40.5036 11.3539 40.3895 11.4678 40.2489 11.4678ZM21.4273 10.9594H39.9922V6.41417H21.4273V10.9594Z" fill="black" stroke="#516981" stroke-width="0.2"/>
<path d="M60.8427 11.4678H41.7684C41.6278 11.4678 41.5137 11.3539 41.5137 11.2136V6.15997C41.5137 6.01965 41.6278 5.90576 41.7684 5.90576H60.8427C60.9833 5.90576 61.0974 6.01965 61.0974 6.15997V11.2136C61.0974 11.3539 60.9812 11.4678 60.8427 11.4678ZM42.021 10.9594H60.5859V6.41417H42.021V10.9594Z" fill="black" stroke="#516981" stroke-width="0.2"/>
<path d="M130.561 11.3008H111.487C111.347 11.3008 111.232 11.1869 111.232 11.0465V4.64388C111.232 4.50355 111.347 4.38965 111.487 4.38965H130.561C130.702 4.38965 130.816 4.50355 130.816 4.64388V11.0465C130.816 11.1869 130.702 11.3008 130.561 11.3008ZM111.742 10.7923H130.307V4.89812H111.742V10.7923Z" fill="black" stroke="#516981" stroke-width="0.2"/>
<path d="M95.2707 8.94434H68.6082C68.4676 8.94434 68.3535 8.83044 68.3535 8.69011V4.94173C68.3535 4.8014 68.4676 4.6875 68.6082 4.6875H95.2686C95.4092 4.6875 95.5233 4.8014 95.5233 4.94173V8.69011C95.5254 8.82841 95.4113 8.94434 95.2707 8.94434ZM68.8629 8.43588H95.0139V5.19596H68.8629V8.43588Z" fill="black" stroke="#516981" stroke-width="0.2"/>
<path d="M7.67017 42.8086H1.25569C1.18233 42.8086 1.11509 42.7781 1.06619 42.7252C1.01729 42.6723 0.994872 42.5991 1.00098 42.5259L2.35194 29.9333C2.3662 29.8052 2.47623 29.7076 2.60664 29.7076H4.71559V21.6644C4.71559 21.524 4.8297 21.4102 4.9703 21.4102H8.59933C8.73992 21.4102 8.85403 21.524 8.85403 21.6644C8.85403 21.8047 8.73992 21.9186 8.59933 21.9186H5.225V29.9618C5.225 30.1021 5.1109 30.216 4.9703 30.216H2.83486L1.53892 42.3002H7.43584L8.34462 31.4545C8.35481 31.3284 8.45466 31.2329 8.58099 31.2227C8.68898 31.2207 8.81939 31.2979 8.84792 31.422L10.5208 38.7941C10.5514 38.9304 10.4658 39.0666 10.3293 39.0971C10.1887 39.1276 10.0542 39.0422 10.0236 38.9039L8.71547 33.1405L7.92283 42.5768C7.91265 42.7069 7.80261 42.8086 7.67017 42.8086Z" fill="black" stroke="#516981" stroke-width="0.2"/>
<path d="M7.66989 42.8081C7.59246 42.8081 7.51707 42.7735 7.46613 42.7064C7.38055 42.5945 7.40296 42.4359 7.51503 42.3505L9.62809 40.7497C9.74016 40.6623 9.89909 40.6847 9.98468 40.7986C10.0703 40.9104 10.0478 41.0691 9.93577 41.1545L7.82272 42.7552C7.77789 42.7918 7.72287 42.8081 7.66989 42.8081Z" fill="black" stroke="#516981" stroke-width="0.2"/>
<path d="M8.36427 34.5474H2.14338C2.00278 34.5474 1.88867 34.4335 1.88867 34.2932C1.88867 34.1529 2.00278 34.0391 2.14338 34.0391H8.36427C8.50487 34.0391 8.61897 34.1529 8.61897 34.2932C8.61897 34.4335 8.50487 34.5474 8.36427 34.5474Z" fill="black" stroke="#516981" stroke-width="0.2"/>
<path d="M8.05534 38.1831H1.74885C1.60825 38.1831 1.49414 38.0695 1.49414 37.9294C1.49414 37.7894 1.60825 37.6758 1.74885 37.6758H8.05534C8.19594 37.6758 8.31004 37.7894 8.31004 37.9294C8.31004 38.0695 8.19594 38.1831 8.05534 38.1831Z" fill="black" stroke="#516981" stroke-width="0.2"/>
<path d="M27.3363 35.6426C24.1494 35.6426 21.8224 34.1662 21.1867 33.7168C20.7201 34.0909 19.2591 35.0976 16.6163 35.5185C13.3092 36.0717 10.7662 31.7869 10.6582 31.6059C10.5869 31.4838 10.6277 31.3293 10.7479 31.2581C10.8701 31.191 11.025 31.2276 11.0963 31.3476C11.1187 31.3883 13.3173 35.0549 16.0559 35.0549C16.2148 35.0549 16.3717 35.0406 16.5327 35.0162C19.5688 34.5302 20.9829 33.2206 20.9972 33.2063C21.0868 33.1209 21.2295 33.1107 21.3314 33.1921C21.3599 33.2145 24.4265 35.5653 28.569 35.0549C32.7177 34.5261 34.1807 33.2531 34.195 33.2409C34.2622 33.1839 34.3519 33.1656 34.4374 33.186C34.4762 33.1982 38.4149 34.339 41.7444 34.0421C45.0026 33.7615 46.6001 31.3598 46.6164 31.3354C46.6938 31.2195 46.8507 31.1869 46.9689 31.2622C47.0871 31.3374 47.1217 31.494 47.0443 31.614C46.973 31.7218 45.2899 34.2496 41.7872 34.5505C38.6676 34.821 35.1445 33.912 34.4211 33.7106C33.9973 34.032 32.3611 35.0854 28.6302 35.5592C28.188 35.6161 27.754 35.6426 27.3363 35.6426Z" fill="black" stroke="#516981" stroke-width="0.2"/>
<path d="M34.366 33.6865C34.2254 33.6865 34.1113 33.5726 34.1113 33.4323V31.4759C34.1113 31.3356 34.2254 31.2217 34.366 31.2217C34.5066 31.2217 34.6207 31.3356 34.6207 31.4759V33.4323C34.6207 33.5726 34.5066 33.6865 34.366 33.6865Z" fill="black" stroke="#516981" stroke-width="0.2"/>
<path d="M21.1746 33.646C21.034 33.646 20.9199 33.5321 20.9199 33.3918V31.4759C20.9199 31.3356 21.034 31.2217 21.1746 31.2217C21.3152 31.2217 21.4293 31.3356 21.4293 31.4759V33.3918C21.4293 33.5321 21.3152 33.646 21.1746 33.646Z" fill="black" stroke="#516981" stroke-width="0.2"/>
<path d="M21.7553 39.7124C21.2948 39.7124 20.9199 39.338 20.9199 38.8781C20.9199 38.4183 21.2948 38.0459 21.7553 38.0459C22.2158 38.0459 22.5908 38.4203 22.5908 38.8781C22.5908 39.338 22.2158 39.7124 21.7553 39.7124ZM21.7553 38.5526C21.576 38.5526 21.4293 38.697 21.4293 38.8761C21.4293 39.0552 21.576 39.2017 21.7553 39.2017C21.9347 39.2017 22.0814 39.0552 22.0814 38.8761C22.0814 38.697 21.9347 38.5526 21.7553 38.5526Z" fill="black" stroke="#516981" stroke-width="0.2"/>
<path d="M14.5952 41.7852C14.1347 41.7852 13.7598 41.4109 13.7598 40.9512C13.7598 40.4915 14.1347 40.1172 14.5952 40.1172C15.0557 40.1172 15.4306 40.4915 15.4306 40.9512C15.4306 41.4109 15.0557 41.7852 14.5952 41.7852ZM14.5952 40.6257C14.4159 40.6257 14.2692 40.7722 14.2692 40.9512C14.2692 41.1302 14.4159 41.2766 14.5952 41.2766C14.7745 41.2766 14.9212 41.1302 14.9212 40.9512C14.9212 40.7722 14.7745 40.6257 14.5952 40.6257Z" fill="black" stroke="#516981" stroke-width="0.2"/>
<path d="M34.3686 41.7852C33.9081 41.7852 33.5332 41.4109 33.5332 40.9512C33.5332 40.4915 33.9081 40.1172 34.3686 40.1172C34.8291 40.1172 35.2041 40.4915 35.2041 40.9512C35.2041 41.4109 34.8291 41.7852 34.3686 41.7852ZM34.3686 40.6257C34.1893 40.6257 34.0426 40.7722 34.0426 40.9512C34.0426 41.1302 34.1893 41.2766 34.3686 41.2766C34.5479 41.2766 34.6946 41.1302 34.6946 40.9512C34.6946 40.7722 34.5479 40.6257 34.3686 40.6257Z" fill="black" stroke="#516981" stroke-width="0.2"/>
<path d="M54.5307 41.7852C54.0702 41.7852 53.6953 41.4109 53.6953 40.9512C53.6953 40.4915 54.0702 40.1172 54.5307 40.1172C54.9912 40.1172 55.3662 40.4915 55.3662 40.9512C55.3662 41.4109 54.9933 41.7852 54.5307 41.7852ZM54.5307 40.6257C54.3514 40.6257 54.2047 40.7722 54.2047 40.9512C54.2047 41.1302 54.3514 41.2766 54.5307 41.2766C54.71 41.2766 54.8568 41.1302 54.8568 40.9512C54.8568 40.7722 54.7121 40.6257 54.5307 40.6257Z" fill="black" stroke="#516981" stroke-width="0.2"/>
<path d="M26.7029 39.8164C26.2138 39.8164 25.8145 39.4197 25.8145 38.9294C25.8145 38.4392 26.2138 38.0425 26.7029 38.0425C27.1919 38.0425 27.5913 38.4392 27.5913 38.9294C27.5913 39.4197 27.1919 39.8164 26.7029 39.8164ZM26.7029 38.5531C26.493 38.5531 26.3239 38.7219 26.3239 38.9315C26.3239 39.141 26.493 39.3099 26.7029 39.3099C26.9127 39.3099 27.0819 39.141 27.0819 38.9315C27.0819 38.7219 26.9107 38.5531 26.7029 38.5531Z" fill="black" stroke="#516981" stroke-width="0.2"/>
<path d="M41.7573 39.7124C41.2968 39.7124 40.9219 39.338 40.9219 38.8781C40.9219 38.4183 41.2968 38.0459 41.7573 38.0459C42.2178 38.0459 42.5928 38.4203 42.5928 38.8781C42.5928 39.338 42.2178 39.7124 41.7573 39.7124ZM41.7573 38.5526C41.578 38.5526 41.4313 38.697 41.4313 38.8761C41.4313 39.0552 41.578 39.2017 41.7573 39.2017C41.9366 39.2017 42.0833 39.0552 42.0833 38.8761C42.0833 38.697 41.9366 38.5526 41.7573 38.5526Z" fill="black" stroke="#516981" stroke-width="0.2"/>
<path d="M46.7048 39.8164C46.2158 39.8164 45.8164 39.4197 45.8164 38.9294C45.8164 38.4392 46.2137 38.0425 46.7048 38.0425C47.1959 38.0425 47.5932 38.4392 47.5932 38.9294C47.5932 39.4197 47.1939 39.8164 46.7048 39.8164ZM46.7048 38.5531C46.4949 38.5531 46.3258 38.7219 46.3258 38.9315C46.3258 39.141 46.4949 39.3099 46.7048 39.3099C46.9147 39.3099 47.0838 39.141 47.0838 38.9315C47.0838 38.7219 46.9147 38.5531 46.7048 38.5531Z" fill="black" stroke="#516981" stroke-width="0.2"/>
<path d="M29.5555 42.0049H19.3367C19.1961 42.0049 19.082 41.8909 19.082 41.7505C19.082 41.6101 19.1961 41.4961 19.3367 41.4961H29.5555C29.6961 41.4961 29.8102 41.6101 29.8102 41.7505C29.8102 41.8909 29.6961 42.0049 29.5555 42.0049Z" fill="black" stroke="#516981" stroke-width="0.2"/>
<path d="M49.7222 42.0049H39.1102C38.9696 42.0049 38.8555 41.8909 38.8555 41.7505C38.8555 41.6101 38.9696 41.4961 39.1102 41.4961H49.7222C49.8628 41.4961 49.9769 41.6101 49.9769 41.7505C49.9769 41.8909 49.8608 42.0049 49.7222 42.0049Z" fill="black" stroke="#516981" stroke-width="0.2"/>
<path d="M63.7255 41.2065H59.3445C59.204 41.2065 59.0898 41.0929 59.0898 40.9529C59.0898 40.8129 59.204 40.6992 59.3445 40.6992H63.7255C63.8661 40.6992 63.9802 40.8129 63.9802 40.9529C63.9802 41.0929 63.8661 41.2065 63.7255 41.2065Z" fill="black" stroke="#516981" stroke-width="0.2"/>
<path d="M60.8461 41.2059C60.7096 41.2059 60.5954 41.0961 60.5914 40.9598C60.4691 37.0434 58.3724 35.1421 54.1789 35.1421C52.5998 35.1421 51.8458 35.8904 51.1164 36.6143C50.7088 37.019 50.3217 37.4033 49.8225 37.6046C48.4633 38.1537 43.8155 37.9259 41.7351 37.6209C40.9159 37.4989 40.1294 37.1634 39.298 36.8095C38.0225 36.2646 36.5778 35.6484 34.6196 35.6443C34.6094 35.6443 34.5993 35.6443 34.5911 35.6443C32.5086 35.6443 31.5754 36.0571 30.4955 36.535C29.9127 36.7933 29.3095 37.0596 28.4843 37.2833C26.1818 37.8995 25.328 37.6961 20.5681 36.5635L19.8773 36.4008C14.6773 35.1604 9.77471 36.3866 9.72784 36.3988C9.59336 36.4374 9.45276 36.354 9.41812 36.2158C9.38348 36.0775 9.46499 35.9392 9.60151 35.9067C9.65041 35.8945 14.6813 34.6418 19.9935 35.9046L20.6842 36.0693C25.3362 37.1796 26.1757 37.3789 28.3498 36.7912C29.1384 36.5797 29.7232 36.3215 30.2876 36.0714C31.3737 35.5915 32.4006 35.136 34.5911 35.136C34.5993 35.136 34.6094 35.136 34.6196 35.136C36.6838 35.14 38.1794 35.7786 39.4998 36.3439C40.3006 36.6855 41.0565 37.0068 41.8105 37.1186C43.8318 37.4175 48.4185 37.627 49.6309 37.1349C50.0364 36.9722 50.3706 36.6407 50.7577 36.2544C51.4852 35.5345 52.3899 34.6357 54.1789 34.6357C58.6414 34.6357 60.9704 36.7587 61.1008 40.9476C61.1049 41.088 60.9948 41.2059 60.8542 41.21C60.8502 41.2059 60.8481 41.2059 60.8461 41.2059Z" fill="black" stroke="#516981" stroke-width="0.2"/>
<path d="M59.0485 33.9839H44.0067C43.8661 33.9839 43.752 33.87 43.752 33.7297C43.752 33.5894 43.8661 33.4756 44.0067 33.4756H59.0485C59.1891 33.4756 59.3032 33.5894 59.3032 33.7297C59.3032 33.87 59.1891 33.9839 59.0485 33.9839Z" fill="black" stroke="#516981" stroke-width="0.2"/>
<path d="M61.8351 36.4043H59.0496C58.909 36.4043 58.7949 36.2904 58.7949 36.1501V31.9808C58.7949 31.8405 58.909 31.7266 59.0496 31.7266H62.911C63.0516 31.7266 63.1657 31.8405 63.1657 31.9808V34.8871C63.1657 35.0274 63.0516 35.1413 62.911 35.1413H62.0898V36.1501C62.0898 36.2904 61.9757 36.4043 61.8351 36.4043ZM59.3043 35.8958H61.5804V34.8871C61.5804 34.7468 61.6945 34.6329 61.8351 34.6329H62.6563V32.235H59.3043V35.8958Z" fill="black" stroke="#516981" stroke-width="0.2"/>
<path d="M65.0526 33.9839H62.909C62.7684 33.9839 62.6543 33.87 62.6543 33.7297C62.6543 33.5894 62.7684 33.4756 62.909 33.4756H65.0526C65.1932 33.4756 65.3073 33.5894 65.3073 33.7297C65.3073 33.87 65.1932 33.9839 65.0526 33.9839Z" fill="black" stroke="#516981" stroke-width="0.2"/>
<path d="M182.046 29.4951C181.905 29.4951 181.791 29.3812 181.791 29.2409V20.1644C181.791 20.024 181.905 19.9102 182.046 19.9102C182.186 19.9102 182.3 20.024 182.3 20.1644V29.2409C182.3 29.3812 182.186 29.4951 182.046 29.4951Z" fill="black" stroke="#516981" stroke-width="0.2"/>
<path d="M173.69 28.6948C173.549 28.6948 173.435 28.5809 173.435 28.4406V18.9655H171.817C171.677 18.9655 171.562 18.8516 171.562 18.7112C171.562 18.5709 171.677 18.457 171.817 18.457H173.69C173.83 18.457 173.944 18.5709 173.944 18.7112V28.4406C173.944 28.5809 173.83 28.6948 173.69 28.6948Z" fill="black" stroke="#516981" stroke-width="0.2"/>
<path d="M178.625 30.2158H4.96955C4.82895 30.2158 4.71484 30.1019 4.71484 29.9614C4.71484 29.821 4.82895 29.707 4.96955 29.707H178.625C178.766 29.707 178.88 29.821 178.88 29.9614C178.88 30.1019 178.766 30.2158 178.625 30.2158Z" fill="black" stroke="#516981" stroke-width="0.2"/>
<path d="M159.889 16.6919H156.091C155.95 16.6919 155.836 16.5781 155.836 16.438C155.836 16.2978 155.95 16.1841 156.091 16.1841H159.889C160.029 16.1841 160.143 16.2978 160.143 16.438C160.143 16.5781 160.029 16.6919 159.889 16.6919Z" fill="black" stroke="#516981" stroke-width="0.2"/>
<path d="M163.811 20.4189H156.089C155.948 20.4189 155.834 20.305 155.834 20.1646C155.834 20.0241 155.948 19.9102 156.089 19.9102H163.811C163.952 19.9102 164.066 20.0241 164.066 20.1646C164.066 20.305 163.954 20.4189 163.811 20.4189Z" fill="black" stroke="#516981" stroke-width="0.2"/>
<path d="M114.48 34.5513C114.421 34.5513 114.359 34.5309 114.313 34.4902C114.207 34.3967 114.194 34.236 114.286 34.1302L115.574 32.6555L115.001 32.029H102.557C102.417 32.029 102.303 31.9151 102.303 31.7748C102.303 31.6344 102.417 31.5205 102.557 31.5205H115.115C115.187 31.5205 115.254 31.551 115.305 31.6039L116.106 32.4806C116.191 32.5762 116.193 32.7206 116.11 32.8182L114.675 34.4638C114.622 34.5228 114.553 34.5513 114.48 34.5513Z" fill="black" stroke="#516981" stroke-width="0.2"/>
<path d="M121.525 33.6675H118.909C118.768 33.6675 118.654 33.5536 118.654 33.4133V31.4758C118.654 31.3355 118.768 31.2217 118.909 31.2217H121.525C121.666 31.2217 121.78 31.3355 121.78 31.4758V33.4133C121.78 33.5536 121.668 33.6675 121.525 33.6675ZM119.164 33.1592H121.271V31.73H119.164V33.1592Z" fill="black" stroke="#516981" stroke-width="0.2"/>
<path d="M125.917 35.1987C125.776 35.1987 125.662 35.0848 125.662 34.9445V31.0477C125.662 30.9074 125.776 30.7935 125.917 30.7935C126.057 30.7935 126.172 30.9074 126.172 31.0477V34.9445C126.172 35.0848 126.057 35.1987 125.917 35.1987Z" fill="black" stroke="#516981" stroke-width="0.2"/>
<path d="M147.844 35.0044H133.485C133.345 35.0044 133.23 34.8905 133.23 34.7502C133.23 34.6099 133.345 34.496 133.485 34.496H147.111C143.696 31.966 139.798 31.7321 139.757 31.7301C139.618 31.722 139.508 31.604 139.517 31.4617C139.525 31.3274 139.637 31.2217 139.771 31.2217C139.775 31.2217 139.779 31.2217 139.786 31.2217C139.969 31.2318 144.342 31.4922 148.01 34.557C148.091 34.6241 148.124 34.738 148.085 34.8397C148.048 34.9373 147.952 35.0044 147.844 35.0044Z" fill="black" stroke="#516981" stroke-width="0.2"/>
<path d="M156.342 34.0894H154.104C153.964 34.0894 153.85 33.9755 153.85 33.8351V31.4759C153.85 31.3356 153.964 31.2217 154.104 31.2217C154.245 31.2217 154.359 31.3356 154.359 31.4759V33.5809H156.087V31.4759C156.087 31.3356 156.201 31.2217 156.342 31.2217C156.482 31.2217 156.596 31.3356 156.596 31.4759V33.8351C156.596 33.9755 156.484 34.0894 156.342 34.0894Z" fill="black" stroke="#516981" stroke-width="0.2"/>
<path d="M168.14 35.2212H153.432C153.292 35.2212 153.178 35.1072 153.178 34.9669C153.178 34.8265 153.292 34.7125 153.432 34.7125H157.834C158.058 34.3524 158.8 33.5771 160.99 33.5771C161.037 33.5771 161.086 33.5792 161.135 33.5792C162.6 33.6016 163.645 33.86 164.752 34.1326C165.742 34.3768 166.767 34.6291 168.154 34.7105C168.291 34.7186 168.397 34.8366 168.393 34.973C168.389 35.1093 168.279 35.2212 168.14 35.2212ZM158.512 34.7125H164.98C164.862 34.684 164.747 34.6555 164.633 34.6271C163.555 34.3605 162.537 34.1102 161.129 34.0879C159.574 34.0695 158.859 34.4256 158.512 34.7125Z" fill="black" stroke="#516981" stroke-width="0.2"/>
<path d="M146.906 43.5879H135.454C135.313 43.5879 135.199 43.4737 135.199 43.333C135.199 43.1923 135.313 43.0781 135.454 43.0781H146.906C147.046 43.0781 147.16 43.1923 147.16 43.333C147.16 43.4737 147.048 43.5879 146.906 43.5879Z" fill="black" stroke="#516981" stroke-width="0.2"/>
<path d="M50.3549 43.5879H38.5672C38.4266 43.5879 38.3125 43.4737 38.3125 43.333C38.3125 43.1923 38.4266 43.0781 38.5672 43.0781H50.3549C50.4955 43.0781 50.6096 43.1923 50.6096 43.333C50.6096 43.4737 50.4955 43.5879 50.3549 43.5879Z" fill="black" stroke="#516981" stroke-width="0.2"/>
<path d="M30.191 43.5879H18.7762C18.6356 43.5879 18.5215 43.4737 18.5215 43.333C18.5215 43.1923 18.6356 43.0781 18.7762 43.0781H30.191C30.3316 43.0781 30.4457 43.1923 30.4457 43.333C30.4457 43.4737 30.3316 43.5879 30.191 43.5879Z" fill="black" stroke="#516981" stroke-width="0.2"/>
<path d="M166.952 43.5879H155.229C155.089 43.5879 154.975 43.4737 154.975 43.333C154.975 43.1923 155.089 43.0781 155.229 43.0781H166.952C167.092 43.0781 167.207 43.1923 167.207 43.333C167.207 43.4737 167.095 43.5879 166.952 43.5879Z" fill="black" stroke="#516981" stroke-width="0.2"/>
<path d="M145.035 42.3018H137.565C137.425 42.3018 137.311 42.188 137.311 42.0479C137.311 41.9077 137.425 41.7939 137.565 41.7939H145.035C145.176 41.7939 145.29 41.9077 145.29 42.0479C145.29 42.188 145.176 42.3018 145.035 42.3018Z" fill="black" stroke="#516981" stroke-width="0.2"/>
<path d="M165.332 42.3018H156.597C156.456 42.3018 156.342 42.188 156.342 42.0479C156.342 41.9077 156.456 41.7939 156.597 41.7939H165.332C165.472 41.7939 165.587 41.9077 165.587 42.0479C165.587 42.188 165.474 42.3018 165.332 42.3018Z" fill="black" stroke="#516981" stroke-width="0.2"/>
<path d="M165.332 39.7305H156.597C156.456 39.7305 156.342 39.6167 156.342 39.4766C156.342 39.3364 156.456 39.2227 156.597 39.2227H165.332C165.472 39.2227 165.587 39.3364 165.587 39.4766C165.587 39.6167 165.474 39.7305 165.332 39.7305Z" fill="black" stroke="#516981" stroke-width="0.2"/>
<path d="M145.035 39.9551H137.565C137.425 39.9551 137.311 39.8411 137.311 39.7007C137.311 39.5603 137.425 39.4463 137.565 39.4463H145.035C145.176 39.4463 145.29 39.5603 145.29 39.7007C145.29 39.8411 145.176 39.9551 145.035 39.9551Z" fill="black" stroke="#516981" stroke-width="0.2"/>
<path d="M51.8162 35.896H36.7703C36.6297 35.896 36.5156 35.7821 36.5156 35.6418C36.5156 35.5016 36.6297 35.3877 36.7703 35.3877H51.8162C51.9568 35.3877 52.0709 35.5016 52.0709 35.6418C52.0709 35.7821 51.9568 35.896 51.8162 35.896Z" fill="black" stroke="#516981" stroke-width="0.2"/>
<path d="M131.277 41.7852C130.814 41.7852 130.441 41.4109 130.441 40.9512C130.441 40.4915 130.816 40.1172 131.277 40.1172C131.737 40.1172 132.112 40.4915 132.112 40.9512C132.112 41.4109 131.737 41.7852 131.277 41.7852ZM131.277 40.6257C131.098 40.6257 130.951 40.7722 130.951 40.9512C130.951 41.1302 131.098 41.2766 131.277 41.2766C131.456 41.2766 131.603 41.1302 131.603 40.9512C131.603 40.7722 131.454 40.6257 131.277 40.6257Z" fill="black" stroke="#516981" stroke-width="0.2"/>
<path d="M151.05 41.7852C150.588 41.7852 150.215 41.4109 150.215 40.9512C150.215 40.4915 150.59 40.1172 151.05 40.1172C151.511 40.1172 151.884 40.4915 151.884 40.9512C151.884 41.4109 151.509 41.7852 151.05 41.7852ZM151.05 40.6257C150.871 40.6257 150.724 40.7722 150.724 40.9512C150.724 41.1302 150.871 41.2766 151.05 41.2766C151.23 41.2766 151.374 41.1302 151.374 40.9512C151.374 40.7722 151.23 40.6257 151.05 40.6257Z" fill="black" stroke="#516981" stroke-width="0.2"/>
<path d="M171.214 41.7852C170.752 41.7852 170.379 41.4109 170.379 40.9512C170.379 40.4915 170.754 40.1172 171.214 40.1172C171.675 40.1172 172.048 40.4915 172.048 40.9512C172.048 41.4109 171.675 41.7852 171.214 41.7852ZM171.214 40.6257C171.035 40.6257 170.888 40.7722 170.888 40.9512C170.888 41.1302 171.035 41.2766 171.214 41.2766C171.394 41.2766 171.538 41.1302 171.538 40.9512C171.538 40.7722 171.394 40.6257 171.214 40.6257Z" fill="black" stroke="#516981" stroke-width="0.2"/>
<path d="M28.5989 42.7671H20.159C20.0184 42.7671 19.9043 42.6532 19.9043 42.5129C19.9043 42.3726 20.0184 42.2588 20.159 42.2588H28.5989C28.7395 42.2588 28.8536 42.3726 28.8536 42.5129C28.8536 42.6532 28.7395 42.7671 28.5989 42.7671Z" fill="black" stroke="#516981" stroke-width="0.2"/>
<path d="M49.3218 42.7671H39.7C39.5594 42.7671 39.4453 42.6532 39.4453 42.5129C39.4453 42.3726 39.5594 42.2588 39.7 42.2588H49.3218C49.4624 42.2588 49.5765 42.3726 49.5765 42.5129C49.5765 42.6532 49.4624 42.7671 49.3218 42.7671Z" fill="black" stroke="#516981" stroke-width="0.2"/>
<path d="M28.5989 40.626H20.159C20.0184 40.626 19.9043 40.512 19.9043 40.3716C19.9043 40.2312 20.0184 40.1172 20.159 40.1172H28.5989C28.7395 40.1172 28.8536 40.2312 28.8536 40.3716C28.8536 40.512 28.7395 40.626 28.5989 40.626Z" fill="black" stroke="#516981" stroke-width="0.2"/>
<path d="M49.3218 40.4023H39.7C39.5594 40.4023 39.4453 40.2886 39.4453 40.1484C39.4453 40.0083 39.5594 39.8945 39.7 39.8945H49.3218C49.4624 39.8945 49.5765 40.0083 49.5765 40.1484C49.5765 40.2886 49.4624 40.4023 49.3218 40.4023Z" fill="black" stroke="#516981" stroke-width="0.2"/>
<path d="M31.6846 34.6367H29.5594C29.4188 34.6367 29.3047 34.5228 29.3047 34.3825V31.474C29.3047 31.3336 29.4188 31.2197 29.5594 31.2197C29.7 31.2197 29.8141 31.3336 29.8141 31.474V34.1282H31.4299V31.474C31.4299 31.3336 31.544 31.2197 31.6846 31.2197C31.8252 31.2197 31.9393 31.3336 31.9393 31.474V34.3825C31.9393 34.5249 31.8232 34.6367 31.6846 34.6367Z" fill="black" stroke="#516981" stroke-width="0.2"/>
<path d="M65.4436 43.6484H58.6746C58.534 43.6484 58.4199 43.5348 58.4199 43.3948C58.4199 43.2548 58.534 43.1411 58.6746 43.1411H65.4436C65.5842 43.1411 65.6983 43.2548 65.6983 43.3948C65.6983 43.5348 65.5842 43.6484 65.4436 43.6484Z" fill="black" stroke="#516981" stroke-width="0.2"/>
<path d="M127.1 43.5879H120.6C120.46 43.5879 120.346 43.4737 120.346 43.333C120.346 43.1923 120.46 43.0781 120.6 43.0781H127.098C127.239 43.0781 127.353 43.1923 127.353 43.333C127.353 43.4737 127.241 43.5879 127.1 43.5879Z" fill="black" stroke="#516981" stroke-width="0.2"/>
</svg>
