<svg width="134" height="135" fill="none" xmlns="http://www.w3.org/2000/svg"><mask id="path-1-outside-1" maskUnits="userSpaceOnUse" x="1" y="30.334" width="63" height="79" fill="#000"><path fill="#fff" d="M1 30.334h63v79H1z"/><path d="M12.706 31.334c-2.792 0-5.07 2.27-5.07 5.053 0 2.768 2.278 5 5.07 5 1.918 0 3.673-1.057 4.53-2.727h16.127a5.042 5.042 0 004.504 2.727c2.791 0 5.08-2.232 5.096-5 0-2.783-2.29-5.053-5.096-5.053a5.078 5.078 0 00-4.504 2.727H17.236c-.857-1.67-2.612-2.727-4.53-2.727zm-.027 1.07c1.606 0 3.07.963 3.695 2.432l.134.321h17.556l.135-.32c.64-1.47 2.077-2.434 3.668-2.434 2.199 0 3.99 1.804 3.99 3.984 0 2.18-1.791 3.93-3.99 3.93a3.96 3.96 0 01-3.668-2.406l-.135-.32H16.508l-.134.32c-.624 1.469-2.089 2.406-3.695 2.406-2.199 0-3.964-1.75-3.964-3.93s1.765-3.984 3.964-3.984zm14.832 6.71v8.743l.405.107a9.87 9.87 0 015.447 3.85l.162.214h.458c13.943 0 25.291 11.255 25.323 25.078v.562h.647c1.076 0 1.941.858 1.941 1.925a1.951 1.951 0 01-1.941 1.951H48.087c-1.076 0-1.969-.885-1.969-1.951 0-1.067.893-1.925 1.97-1.925h.62v-.562c-.032-8.164-6.517-14.544-14.752-14.544h-.458l-.135.214A9.807 9.807 0 0125.3 67a9.8 9.8 0 01-8.037-4.224l-.161-.214h-8.36l-.162.24c-.92 1.454-2.25 2.664-3.856 3.53l-.297.16v.32c0 .372-.273.67-.647.67s-.647-.298-.647-.67V47.778c0-.356.288-.642.647-.642.374 0 .647.27.647.642v.32l.297.16a10.357 10.357 0 013.856 3.557l.162.24h8.333l.162-.24a9.913 9.913 0 015.447-3.85l.377-.107V39.14h-1.078v7.914a11.016 11.016 0 00-5.475 3.93h-7.2a11.67 11.67 0 00-3.856-3.53 1.706 1.706 0 00-1.7-1.39c-.966 0-1.752.78-1.752 1.738v19.01c0 .974.77 1.738 1.753 1.738.858 0 1.543-.587 1.699-1.39a11.244 11.244 0 003.856-3.53h7.2a10.912 10.912 0 008.792 4.44c3.493 0 6.737-1.655 8.764-4.438 7.408.062 13.257 5.685 13.538 12.967a3.022 3.022 0 00-2.562 2.995 3.055 3.055 0 003.047 3.048h11.866A3.055 3.055 0 0063 79.593c-.016-1.516-1.15-2.763-2.616-2.995-.296-14.147-11.976-25.578-26.293-25.64-1.357-1.855-3.29-3.207-5.474-3.903v-7.94H27.51zm26.509 44.49l-.513 1.443c-.701 1.994-2.178 3.965-3.613 5.882-2.152 2.845-4.352 5.794-4.18 9.01v.027c0 4.623 3.72 8.368 8.306 8.368 4.554 0 8.275-3.75 8.306-8.342v-.026c.171-3.216-2.017-6.139-4.153-8.984-1.435-1.917-2.939-3.898-3.64-5.908l-.513-1.47zm-.027 3.02c.842 1.717 2.09 3.376 3.29 5 2.105 2.814 4.093 5.459 3.937 8.288v.08c-.015 4.02-3.266 7.273-7.227 7.273-3.977 0-7.227-3.279-7.227-7.3v-.053c-.156-2.845 1.843-5.512 3.964-8.342 1.2-1.608 2.436-3.245 3.263-4.946z"/></mask><path d="M12.706 31.334c-2.792 0-5.07 2.27-5.07 5.053 0 2.768 2.278 5 5.07 5 1.918 0 3.673-1.057 4.53-2.727h16.127a5.042 5.042 0 004.504 2.727c2.791 0 5.08-2.232 5.096-5 0-2.783-2.29-5.053-5.096-5.053a5.078 5.078 0 00-4.504 2.727H17.236c-.857-1.67-2.612-2.727-4.53-2.727zm-.027 1.07c1.606 0 3.07.963 3.695 2.432l.134.321h17.556l.135-.32c.64-1.47 2.077-2.434 3.668-2.434 2.199 0 3.99 1.804 3.99 3.984 0 2.18-1.791 3.93-3.99 3.93a3.96 3.96 0 01-3.668-2.406l-.135-.32H16.508l-.134.32c-.624 1.469-2.089 2.406-3.695 2.406-2.199 0-3.964-1.75-3.964-3.93s1.765-3.984 3.964-3.984zm14.832 6.71v8.743l.405.107a9.87 9.87 0 015.447 3.85l.162.214h.458c13.943 0 25.291 11.255 25.323 25.078v.562h.647c1.076 0 1.941.858 1.941 1.925a1.951 1.951 0 01-1.941 1.951H48.087c-1.076 0-1.969-.885-1.969-1.951 0-1.067.893-1.925 1.97-1.925h.62v-.562c-.032-8.164-6.517-14.544-14.752-14.544h-.458l-.135.214A9.807 9.807 0 0125.3 67a9.8 9.8 0 01-8.037-4.224l-.161-.214h-8.36l-.162.24c-.92 1.454-2.25 2.664-3.856 3.53l-.297.16v.32c0 .372-.273.67-.647.67s-.647-.298-.647-.67V47.778c0-.356.288-.642.647-.642.374 0 .647.27.647.642v.32l.297.16a10.357 10.357 0 013.856 3.557l.162.24h8.333l.162-.24a9.913 9.913 0 015.447-3.85l.377-.107V39.14h-1.078v7.914a11.016 11.016 0 00-5.475 3.93h-7.2a11.67 11.67 0 00-3.856-3.53 1.706 1.706 0 00-1.7-1.39c-.966 0-1.752.78-1.752 1.738v19.01c0 .974.77 1.738 1.753 1.738.858 0 1.543-.587 1.699-1.39a11.244 11.244 0 003.856-3.53h7.2a10.912 10.912 0 008.792 4.44c3.493 0 6.737-1.655 8.764-4.438 7.408.062 13.257 5.685 13.538 12.967a3.022 3.022 0 00-2.562 2.995 3.055 3.055 0 003.047 3.048h11.866A3.055 3.055 0 0063 79.593c-.016-1.516-1.15-2.763-2.616-2.995-.296-14.147-11.976-25.578-26.293-25.64-1.357-1.855-3.29-3.207-5.474-3.903v-7.94H27.51zm26.509 44.49l-.513 1.443c-.701 1.994-2.178 3.965-3.613 5.882-2.152 2.845-4.352 5.794-4.18 9.01v.027c0 4.623 3.72 8.368 8.306 8.368 4.554 0 8.275-3.75 8.306-8.342v-.026c.171-3.216-2.017-6.139-4.153-8.984-1.435-1.917-2.939-3.898-3.64-5.908l-.513-1.47zm-.027 3.02c.842 1.717 2.09 3.376 3.29 5 2.105 2.814 4.093 5.459 3.937 8.288v.08c-.015 4.02-3.266 7.273-7.227 7.273-3.977 0-7.227-3.279-7.227-7.3v-.053c-.156-2.845 1.843-5.512 3.964-8.342 1.2-1.608 2.436-3.245 3.263-4.946z" fill="#fff"/><path d="M12.706 31.334c-2.792 0-5.07 2.27-5.07 5.053 0 2.768 2.278 5 5.07 5 1.918 0 3.673-1.057 4.53-2.727h16.127a5.042 5.042 0 004.504 2.727c2.791 0 5.08-2.232 5.096-5 0-2.783-2.29-5.053-5.096-5.053a5.078 5.078 0 00-4.504 2.727H17.236c-.857-1.67-2.612-2.727-4.53-2.727zm-.027 1.07c1.606 0 3.07.963 3.695 2.432l.134.321h17.556l.135-.32c.64-1.47 2.077-2.434 3.668-2.434 2.199 0 3.99 1.804 3.99 3.984 0 2.18-1.791 3.93-3.99 3.93a3.96 3.96 0 01-3.668-2.406l-.135-.32H16.508l-.134.32c-.624 1.469-2.089 2.406-3.695 2.406-2.199 0-3.964-1.75-3.964-3.93s1.765-3.984 3.964-3.984zm14.832 6.71v8.743l.405.107a9.87 9.87 0 015.447 3.85l.162.214h.458c13.943 0 25.291 11.255 25.323 25.078v.562h.647c1.076 0 1.941.858 1.941 1.925a1.951 1.951 0 01-1.941 1.951H48.087c-1.076 0-1.969-.885-1.969-1.951 0-1.067.893-1.925 1.97-1.925h.62v-.562c-.032-8.164-6.517-14.544-14.752-14.544h-.458l-.135.214A9.807 9.807 0 0125.3 67a9.8 9.8 0 01-8.037-4.224l-.161-.214h-8.36l-.162.24c-.92 1.454-2.25 2.664-3.856 3.53l-.297.16v.32c0 .372-.273.67-.647.67s-.647-.298-.647-.67V47.778c0-.356.288-.642.647-.642.374 0 .647.27.647.642v.32l.297.16a10.357 10.357 0 013.856 3.557l.162.24h8.333l.162-.24a9.913 9.913 0 015.447-3.85l.377-.107V39.14h-1.078v7.914a11.016 11.016 0 00-5.475 3.93h-7.2a11.67 11.67 0 00-3.856-3.53 1.706 1.706 0 00-1.7-1.39c-.966 0-1.752.78-1.752 1.738v19.01c0 .974.77 1.738 1.753 1.738.858 0 1.543-.587 1.699-1.39a11.244 11.244 0 003.856-3.53h7.2a10.912 10.912 0 008.792 4.44c3.493 0 6.737-1.655 8.764-4.438 7.408.062 13.257 5.685 13.538 12.967a3.022 3.022 0 00-2.562 2.995 3.055 3.055 0 003.047 3.048h11.866A3.055 3.055 0 0063 79.593c-.016-1.516-1.15-2.763-2.616-2.995-.296-14.147-11.976-25.578-26.293-25.64-1.357-1.855-3.29-3.207-5.474-3.903v-7.94H27.51zm26.509 44.49l-.513 1.443c-.701 1.994-2.178 3.965-3.613 5.882-2.152 2.845-4.352 5.794-4.18 9.01v.027c0 4.623 3.72 8.368 8.306 8.368 4.554 0 8.275-3.75 8.306-8.342v-.026c.171-3.216-2.017-6.139-4.153-8.984-1.435-1.917-2.939-3.898-3.64-5.908l-.513-1.47zm-.027 3.02c.842 1.717 2.09 3.376 3.29 5 2.105 2.814 4.093 5.459 3.937 8.288v.08c-.015 4.02-3.266 7.273-7.227 7.273-3.977 0-7.227-3.279-7.227-7.3v-.053c-.156-2.845 1.843-5.512 3.964-8.342 1.2-1.608 2.436-3.245 3.263-4.946z" stroke="#fff" mask="url(#path-1-outside-1)"/></svg>