<svg width="134" height="134" viewBox="0 0 134 134" fill="none" xmlns="http://www.w3.org/2000/svg">
<g clip-path="url(#clip0)">
<path d="M15 131.5H8.5L25 96.5V44.5L35 18H42.5L51.5 44.5V96.5L15 131.5Z" stroke="white" stroke-width="3"/>
<path d="M25 97L59 131H66.5L52 97L25 70.5H52L25 44L51.5 44.5" stroke="white" stroke-width="3"/>
<path d="M24 98L51.5 70.5" stroke="white" stroke-width="3"/>
<path d="M52 45L25 69.5" stroke="white" stroke-width="3"/>
<path d="M55.5 47.5L73 65H55.5" stroke="white" stroke-width="3"/>
<path d="M19.5 47.5L2 65H19.5" stroke="white" stroke-width="3"/>
<path d="M55.5 75.5L73 93H55.5" stroke="white" stroke-width="3"/>
<path d="M19.5 75.5L2 93H19.5" stroke="white" stroke-width="3"/>
<path d="M65 93V97.5" stroke="white" stroke-width="3"/>
<path d="M65 65.5V70" stroke="white" stroke-width="3"/>
<path d="M5 65.5V70" stroke="white" stroke-width="3"/>
<path d="M5 92.5V97" stroke="white" stroke-width="3"/>
<path d="M71 93V97.5" stroke="white" stroke-width="3"/>
<path d="M71 65.5V70" stroke="white" stroke-width="3"/>
<path d="M11 65.5V70" stroke="white" stroke-width="3"/>
<path d="M11 92.5V97" stroke="white" stroke-width="3"/>
<path d="M82.7043 87.7253H77.8522L90.1691 61.5986V22.7817L97.6339 3H103.232L109.951 22.7817V61.5986L82.7043 87.7253Z" stroke="white" stroke-width="3"/>
<path d="M90.1691 61.9718L115.549 87.3521H121.148L110.324 61.9718L90.1691 42.1901H110.324L90.1691 22.4084L109.951 22.7817" stroke="white" stroke-width="3"/>
<path d="M89.4225 62.7184L109.951 42.1902" stroke="white" stroke-width="3"/>
<path d="M110.324 23.155L90.1691 41.4438" stroke="white" stroke-width="3"/>
<path d="M112.937 25.0212L126 38.0846H112.937" stroke="white" stroke-width="3"/>
<path d="M86.0634 25.0212L73 38.0846H86.0634" stroke="white" stroke-width="3"/>
<path d="M112.937 45.9226L126 58.986H112.937" stroke="white" stroke-width="3"/>
<path d="M86.0634 45.9226L73 58.986H86.0634" stroke="white" stroke-width="3"/>
<path d="M120.028 58.9858V62.345" stroke="white" stroke-width="3"/>
<path d="M120.028 38.4578V41.8169" stroke="white" stroke-width="3"/>
<path d="M75.2394 38.4578V41.8169" stroke="white" stroke-width="3"/>
<path d="M75.2394 58.6128V61.9719" stroke="white" stroke-width="3"/>
<path d="M124.507 58.9858V62.345" stroke="white" stroke-width="3"/>
<path d="M124.507 38.4578V41.8169" stroke="white" stroke-width="3"/>
<path d="M79.7183 38.4578V41.8169" stroke="white" stroke-width="3"/>
<path d="M79.7183 58.6128V61.9719" stroke="white" stroke-width="3"/>
</g>
<defs>
<clipPath id="clip0">
<rect width="134" height="134" fill="white"/>
</clipPath>
</defs>
</svg>
