<svg width="135" height="135" viewBox="0 0 135 135" fill="none" xmlns="http://www.w3.org/2000/svg">
<g clip-path="url(#clip0)">
<path d="M62.4506 110.582C62.5796 110.595 62.6957 110.608 62.8247 110.608C64.0244 110.633 64.0244 110.633 63.9986 111.875C63.9857 112.237 63.9986 112.599 63.9986 113C61.9604 113 59.9995 113 58 113C58 112.224 58 111.487 58 110.659C58.8901 110.659 59.7544 110.659 60.5414 110.659C66.411 98.8016 72.229 87.0343 78.1244 75.1248C77.7761 75.1248 77.5439 75.1248 77.3246 75.1248C73.8157 75.1248 70.3197 75.1378 66.8109 75.1378C66.4884 75.1378 66.1401 75.1895 65.8563 75.099C65.5724 74.9955 65.1983 74.7757 65.1338 74.53C65.0693 74.2843 65.2757 73.8576 65.495 73.6766C65.9337 73.3016 66.4626 73.03 66.9528 72.7197C70.6035 70.4179 74.2672 68.1162 77.918 65.8016C78.0857 65.6981 78.2534 65.4524 78.2534 65.2714C78.2792 63.3576 78.2663 61.4438 78.2663 59.4136C78.0083 59.4136 77.7761 59.4136 77.5568 59.4136C73.7512 59.4136 69.9456 59.4136 66.1401 59.4136C65.6886 59.4136 65.2499 59.3878 65.108 58.8576C64.9661 58.3533 65.2499 58.0688 65.6628 57.8102C69.7392 55.2498 73.8157 52.6895 77.8793 50.1033C78.0599 49.9869 78.2534 49.7283 78.2534 49.5343C78.2792 47.6205 78.2663 45.7067 78.2663 43.7542C78.0728 43.7412 77.9051 43.7154 77.7503 43.7154C73.906 43.7154 70.0488 43.7154 66.2046 43.7154C65.7015 43.7154 65.2241 43.6636 65.0951 43.0688C64.979 42.5128 65.366 42.2671 65.7918 42.0602C70.8874 39.461 75.9701 36.8619 81.0528 34.2369C81.3237 34.0947 81.543 33.7197 81.672 33.4093C82.8975 30.2671 84.0972 27.099 85.2969 23.9438C85.3227 23.8791 85.3485 23.8274 85.3614 23.7628C85.5033 23.3619 85.6839 23.0128 86.2 22.9998C86.7547 22.9869 86.9224 23.3619 87.0772 23.7757C87.7996 25.6636 88.522 27.5516 89.2573 29.4395C89.7733 30.7843 90.3151 32.1162 90.8053 33.474C90.973 33.9136 91.244 34.1723 91.6439 34.3791C96.6621 36.9395 101.667 39.5128 106.686 42.0731C107.111 42.2929 107.511 42.5257 107.369 43.0817C107.227 43.6766 106.737 43.7024 106.247 43.7024C102.532 43.7024 98.8035 43.7024 95.0882 43.7024C94.8173 43.7024 94.5335 43.7024 94.1723 43.7024C94.1723 45.0731 94.1723 46.405 94.1723 47.724C94.1723 47.7886 94.1981 47.8533 94.1852 47.9179C93.8498 49.4697 94.6367 50.2455 95.9267 51.0085C99.6162 53.2067 103.215 55.5602 106.853 57.849C107.227 58.0817 107.511 58.3404 107.382 58.8317C107.253 59.3231 106.866 59.4007 106.428 59.4007C102.725 59.4007 99.0357 59.4007 95.3333 59.4007C94.9979 59.4007 94.6496 59.4007 94.2626 59.4007C94.2368 59.5688 94.1981 59.711 94.1981 59.8533C94.1981 61.6248 94.1852 63.3835 94.211 65.155C94.211 65.3748 94.3787 65.6852 94.5722 65.8145C98.6487 68.4136 102.751 70.9869 106.84 73.5602C107.227 73.8059 107.511 74.0516 107.395 74.53C107.266 75.0473 106.853 75.1378 106.389 75.1378C102.609 75.1378 98.8164 75.1378 95.0366 75.1378C94.8431 75.1378 94.6625 75.1507 94.3529 75.1636C100.197 86.9826 106.015 98.7369 111.884 110.595C112.504 110.595 113.252 110.595 114.039 110.595C114.039 111.422 114.039 112.185 114.039 112.987C112.052 112.987 110.091 112.987 108.092 112.987C108.092 112.224 108.092 111.474 108.092 110.633C108.75 110.633 109.369 110.633 110.156 110.633C109.782 109.845 109.498 109.172 109.124 108.565C109.008 108.383 108.621 108.371 108.363 108.254C106.569 107.465 104.789 106.664 102.996 105.875C97.7586 103.547 92.5082 101.22 87.2707 98.905C86.5999 98.6076 85.942 98.7111 85.284 99.0085C81.1431 100.896 76.9892 102.784 72.8482 104.659C69.7392 106.069 66.6045 107.427 63.5213 108.901C63.0053 109.146 62.7215 109.871 62.3345 110.362C62.3474 110.452 62.399 110.517 62.4506 110.582ZM83.0523 98.8792C83.0394 98.8404 83.0265 98.7886 83.0265 98.7498C78.2147 98.7498 73.4158 98.7498 68.604 98.7757C68.3847 98.7757 68.0751 99.0214 67.9719 99.2412C66.7335 101.672 65.5337 104.129 64.3211 106.573C64.1792 106.858 64.0502 107.155 63.8309 107.608C70.3584 104.633 76.7054 101.763 83.0523 98.8792ZM98.2617 91.9869C90.199 91.9869 82.317 91.9869 74.422 91.9869C78.1115 93.7197 81.8268 95.3619 85.5162 97.0171C86.0968 97.2757 86.5999 97.2886 87.1804 97.03C89.3992 96.0085 91.6439 95.0128 93.8756 94.0042C95.2817 93.3576 96.6879 92.6981 98.2617 91.9869ZM108.401 107.168C107.047 104.427 105.783 101.866 104.531 99.293C104.325 98.8662 104.08 98.724 103.602 98.724C100.106 98.7498 96.5976 98.7369 93.1016 98.7369C92.0051 98.7369 90.9085 98.7369 89.812 98.7369C89.812 98.7886 89.7991 98.8404 89.7991 98.8921C95.9396 101.633 102.093 104.375 108.401 107.168ZM83.1297 97.224C83.1426 97.1852 83.1555 97.1464 83.1684 97.0947C79.3112 95.3878 75.4669 93.6809 71.5453 91.9352C70.668 93.7067 69.8295 95.4266 68.9523 97.2111C73.777 97.224 78.4598 97.224 83.1297 97.224ZM89.5411 97.0947C89.554 97.1335 89.5669 97.1723 89.5798 97.1981C94.1723 97.1981 98.7648 97.1981 103.46 97.1981C102.583 95.4136 101.745 93.7067 100.893 91.9611C97.062 93.6938 93.308 95.3878 89.5411 97.0947ZM94.985 82.8835C94.7915 82.7671 94.7399 82.7283 94.6625 82.6895C91.9406 81.4611 89.2186 80.2326 86.4967 79.03C86.3161 78.9524 86.0323 78.9524 85.8516 79.0429C84.4971 79.6248 83.1426 80.2326 81.7881 80.8404C80.3432 81.4869 78.9113 82.1335 77.4794 82.78C77.4923 82.8059 77.4923 82.8447 77.5052 82.8705C83.2845 82.8835 89.0638 82.8835 94.985 82.8835ZM103.602 73.5473C103.615 73.5085 103.628 73.4567 103.654 73.4179C100.532 71.4395 97.3974 69.474 94.1981 67.4567C94.1981 69.5645 94.1981 71.5429 94.1981 73.5473C97.3587 73.5473 100.481 73.5473 103.602 73.5473ZM78.2405 67.4567C75.0154 69.4869 71.8936 71.4654 68.7717 73.4309C68.7975 73.4697 68.8104 73.5085 68.8362 73.5343C71.9581 73.5343 75.0799 73.5343 78.2405 73.5343C78.2405 71.53 78.2405 69.5645 78.2405 67.4567ZM103.564 57.836C103.589 57.7843 103.602 57.7455 103.628 57.6938C100.506 55.7283 97.3845 53.7498 94.1852 51.7326C94.1852 53.8404 94.1852 55.8188 94.1852 57.8231C97.3587 57.836 100.455 57.836 103.564 57.836ZM78.2276 51.7455C75.0154 53.7757 71.8936 55.7412 68.7717 57.7197C68.7846 57.7585 68.8104 57.7973 68.8233 57.836C71.9452 57.836 75.067 57.836 78.2276 57.836C78.2276 55.8317 78.2276 53.8533 78.2276 51.7455ZM76.4216 90.2542C76.4345 90.28 76.4345 90.3059 76.4474 90.3317C82.9749 90.3317 89.5153 90.3317 96.1719 90.3317C95.9525 90.2412 95.8622 90.1895 95.759 90.1636C92.9081 89.4266 90.0571 88.7154 87.232 87.9524C86.458 87.7455 85.7484 87.7326 84.9744 87.9524C82.7685 88.5731 80.5496 89.1421 78.3308 89.7369C77.6729 89.905 77.0537 90.0861 76.4216 90.2542ZM97.2942 84.6809C94.2626 85.4826 91.2956 86.2714 88.135 87.1119C92.1728 88.1593 96.017 89.155 99.9903 90.1895C99.0615 88.2886 98.1843 86.5171 97.2942 84.6809ZM103.048 42.1507C103.061 42.099 103.073 42.0473 103.086 41.9955C99.3969 40.1076 95.6945 38.2067 91.9406 36.28C91.9664 36.4481 91.9535 36.5128 91.9793 36.5774C92.6372 38.2973 93.3209 40.0171 93.9659 41.7498C94.1078 42.1248 94.34 42.1507 94.6496 42.1507C97.0749 42.1378 99.5001 42.1507 101.925 42.1507C102.299 42.1507 102.674 42.1507 103.048 42.1507ZM69.3393 42.0085C69.3522 42.0602 69.3651 42.099 69.3909 42.1507C72.2419 42.1507 75.0928 42.1507 77.9438 42.1378C78.1115 42.1378 78.3566 41.9309 78.434 41.7628C78.7178 41.1421 78.9629 40.4955 79.208 39.849C79.6466 38.6981 80.0852 37.5473 80.5754 36.2541C76.7312 38.2197 73.0288 40.1076 69.3393 42.0085ZM83.8521 87.1766C83.8521 87.1378 83.8521 87.1119 83.8521 87.0731C81.4656 86.4524 79.079 85.8447 76.6925 85.2369C76.1765 85.1076 75.5443 84.7455 75.1702 84.9266C74.7703 85.1205 74.5897 85.8188 74.3446 86.3102C73.7254 87.5645 73.1062 88.8317 72.4225 90.2412C76.3313 89.1809 80.0852 88.1852 83.8521 87.1766ZM86.2129 25.8705C85.1808 28.5602 84.2262 31.0688 83.2587 33.6291C85.2582 33.6291 87.1804 33.6291 89.1799 33.6291C88.1995 31.0688 87.232 28.5602 86.2129 25.8705ZM87.4771 78.293C90.3538 79.599 93.1016 80.8404 96.0299 82.1723C94.9334 79.9481 93.9272 77.905 92.9081 75.8361C91.0892 76.6636 89.3347 77.4524 87.4771 78.293ZM91.5536 42.1119C89.7733 40.7929 88.1479 39.5774 86.4967 38.3878C86.3806 38.3102 86.0968 38.3619 85.9549 38.4654C85.155 39.0343 84.3681 39.6421 83.5812 40.2369C82.7814 40.8317 81.9945 41.4266 81.0657 42.1248C84.6132 42.1119 87.9802 42.1119 91.5536 42.1119ZM84.9099 78.28C83.0136 77.4266 81.285 76.6378 79.5176 75.8361C78.4856 77.918 77.5052 79.9223 76.5119 81.9136C76.5506 81.9395 76.5893 81.9783 76.628 82.0042C79.337 80.8016 82.0461 79.5731 84.9099 78.28ZM87.2062 54.28C89.038 55.3662 90.7795 56.4007 92.534 57.4481C92.534 55.2757 92.534 53.2197 92.534 51.0731C90.7408 52.1593 89.0251 53.1938 87.2062 54.28ZM92.5727 73.2498C92.5727 71.0774 92.5727 69.0214 92.5727 66.849C90.7666 67.9352 89.0251 68.9697 87.2191 70.0559C89.0122 71.1421 90.7408 72.1636 92.5727 73.2498ZM79.853 57.5128C81.6591 56.4136 83.3748 55.3792 85.155 54.2929C83.3361 53.2067 81.6333 52.1981 79.853 51.1378C79.853 53.2843 79.853 55.3404 79.853 57.5128ZM79.853 66.9136C79.853 69.0861 79.853 71.1292 79.853 73.2757C81.6462 72.1895 83.349 71.155 85.155 70.0688C83.349 68.9955 81.6333 67.974 79.853 66.9136ZM93.3467 84.6292C93.3467 84.6033 93.3338 84.5904 93.3338 84.5645C88.4575 84.5645 83.5812 84.5645 78.7178 84.5645C81.0786 85.2757 83.4393 85.8964 85.8 86.4912C86.0581 86.5559 86.3548 86.5042 86.6257 86.4395C88.1608 86.0516 89.6959 85.6378 91.2311 85.224C91.9277 85.043 92.6372 84.8361 93.3467 84.6292ZM91.6439 75.2542C91.631 75.2283 91.631 75.2024 91.6181 75.1766C87.9931 75.1766 84.381 75.1766 80.7431 75.1766C80.7818 75.2283 80.7818 75.28 80.8205 75.2929C82.5234 76.0688 84.2133 76.8317 85.9161 77.5947C86.0581 77.6593 86.2645 77.6852 86.3935 77.6205C88.1479 76.8447 89.9023 76.0429 91.6439 75.2542ZM90.9085 57.836C90.9214 57.7973 90.9343 57.7585 90.9472 57.7197C89.4766 56.8404 88.006 55.9481 86.5096 55.1076C86.3161 55.0042 85.929 55.0559 85.7226 55.1852C84.4455 55.9223 83.1813 56.711 81.9171 57.474C81.7881 57.5516 81.672 57.655 81.4398 57.836C84.7035 57.836 87.8125 57.836 90.9085 57.836ZM87.3352 46.586C89.1412 47.5171 90.8311 48.3964 92.5727 49.2886C92.5727 47.4524 92.5727 45.7197 92.5727 43.8835C90.8311 44.7757 89.1412 45.6421 87.3352 46.586ZM79.8401 65.0386C81.6075 64.1205 83.2845 63.2542 85.0389 62.3361C83.2587 61.405 81.5817 60.5386 79.8401 59.6335C79.8401 61.4567 79.8401 63.1895 79.8401 65.0386ZM92.5598 59.6335C90.7924 60.5516 89.1283 61.4179 87.361 62.3361C89.1541 63.2671 90.8182 64.1335 92.5598 65.0257C92.5598 63.2154 92.5598 61.4697 92.5598 59.6335ZM90.7924 73.5602C90.8053 73.5214 90.8311 73.4826 90.844 73.4438C89.3734 72.5645 87.9157 71.6852 86.4322 70.8317C86.2774 70.7412 85.942 70.8317 85.7484 70.9481C84.4713 71.6981 83.1942 72.4611 81.93 73.2369C81.8139 73.3016 81.7236 73.405 81.543 73.5602C84.7035 73.5602 87.748 73.5602 90.7924 73.5602ZM85.026 46.586C83.2587 45.6679 81.5817 44.8016 79.8659 43.9093C79.8659 45.7455 79.8659 47.4654 79.8659 49.2628C81.6075 48.3576 83.2716 47.4912 85.026 46.586ZM81.5688 66.7067C82.6782 67.3662 83.7102 67.8705 84.6003 68.5429C85.7097 69.3964 86.6515 69.4093 87.7609 68.5559C88.6381 67.8705 89.6572 67.3662 90.7537 66.7067C87.619 66.7067 84.6777 66.7067 81.5688 66.7067ZM81.672 50.9955C82.7427 51.6292 83.7231 52.1205 84.5874 52.7542C85.6581 53.5559 86.587 53.6981 87.6964 52.8059C88.5607 52.1205 89.5798 51.6292 90.6376 50.9826C87.5932 50.9955 84.7164 50.9955 81.672 50.9955ZM90.457 59.5429C90.4312 59.5171 90.4183 59.4783 90.3925 59.4524C87.5803 59.4524 84.768 59.4524 81.7623 59.4524C83.2716 60.2283 84.6003 60.9266 85.9291 61.6119C86.0452 61.6766 86.2387 61.7154 86.3548 61.6636C87.7351 60.9654 89.0896 60.2542 90.457 59.5429ZM82.5492 35.4524C81.7881 37.4309 81.0786 39.3059 80.3561 41.1809C80.3948 41.2067 80.4335 41.2197 80.4722 41.2455C82.0977 40.03 83.7231 38.8145 85.4001 37.5731C84.4455 36.8619 83.5296 36.1895 82.5492 35.4524ZM89.9023 35.53C88.9606 36.2283 88.0963 36.8748 87.1675 37.5602C88.7929 38.7628 90.3538 39.9136 91.9148 41.0645C91.9535 41.0386 91.9793 41.0128 92.018 40.9998C91.3214 39.2024 90.6376 37.4179 89.9023 35.53ZM90.3796 43.8447C90.3796 43.8059 90.3667 43.78 90.3667 43.7412C87.5803 43.7412 84.7938 43.7412 81.8268 43.7412C83.3103 44.5042 84.6261 45.1895 85.9678 45.849C86.1226 45.9266 86.3806 45.8748 86.5483 45.7843C87.8254 45.1507 89.1025 44.4912 90.3796 43.8447ZM90.2248 49.3792C90.2377 49.3404 90.2506 49.3145 90.2635 49.2757C88.9864 48.6033 87.7093 47.9309 86.4064 47.2843C86.2387 47.2067 85.9549 47.2973 85.7613 47.3878C84.8583 47.8274 83.9682 48.3059 83.0781 48.7714C82.7556 48.9395 82.4331 49.1205 81.9558 49.3792C84.8583 49.3792 87.5416 49.3792 90.2248 49.3792ZM82.2267 64.9869C82.2396 65.0257 82.2525 65.0645 82.2654 65.0904C84.897 65.0904 87.5287 65.0904 90.1732 65.0904C88.9348 64.3274 87.6706 63.6679 86.4064 63.0085C86.3032 62.9567 86.1355 62.9567 86.0323 63.0085C84.7551 63.6679 83.4909 64.3274 82.2267 64.9869ZM88.4704 35.2843C86.9611 35.2843 85.5936 35.2843 84.0843 35.2843C84.8196 35.8274 85.413 36.28 86.0323 36.6938C86.1484 36.7714 86.4064 36.7973 86.5225 36.7197C87.1417 36.2929 87.748 35.8274 88.4704 35.2843Z" fill="white"/>
</g>
<g clip-path="url(#clip1)">
<path d="M7.45059 110.582C7.57959 110.595 7.69569 110.608 7.8247 110.608C9.02442 110.633 9.02442 110.633 8.99862 111.875C8.98572 112.237 8.99862 112.599 8.99862 113C6.96038 113 4.99954 113 3 113C3 112.224 3 111.487 3 110.659C3.89012 110.659 4.75443 110.659 5.54135 110.659C11.411 98.8016 17.229 87.0343 23.1244 75.1248C22.7761 75.1248 22.5439 75.1248 22.3246 75.1248C18.8157 75.1248 15.3197 75.1378 11.8109 75.1378C11.4884 75.1378 11.1401 75.1895 10.8563 75.099C10.5724 74.9955 10.1983 74.7757 10.1338 74.53C10.0693 74.2843 10.2757 73.8576 10.495 73.6766C10.9337 73.3016 11.4626 73.03 11.9528 72.7197C15.6035 70.4179 19.2672 68.1162 22.918 65.8016C23.0857 65.6981 23.2534 65.4524 23.2534 65.2714C23.2792 63.3576 23.2663 61.4438 23.2663 59.4136C23.0083 59.4136 22.7761 59.4136 22.5568 59.4136C18.7512 59.4136 14.9456 59.4136 11.1401 59.4136C10.6886 59.4136 10.2499 59.3878 10.108 58.8576C9.96614 58.3533 10.2499 58.0688 10.6628 57.8102C14.7392 55.2498 18.8157 52.6895 22.8793 50.1033C23.0599 49.9869 23.2534 49.7283 23.2534 49.5343C23.2792 47.6205 23.2663 45.7067 23.2663 43.7542C23.0728 43.7412 22.9051 43.7154 22.7503 43.7154C18.906 43.7154 15.0488 43.7154 11.2046 43.7154C10.7015 43.7154 10.2241 43.6636 10.0951 43.0688C9.97904 42.5128 10.366 42.2671 10.7918 42.0602C15.8874 39.461 20.9701 36.8619 26.0528 34.2369C26.3237 34.0947 26.543 33.7197 26.672 33.4093C27.8975 30.2671 29.0972 27.099 30.2969 23.9438C30.3227 23.8791 30.3485 23.8274 30.3614 23.7628C30.5033 23.3619 30.6839 23.0128 31.2 22.9998C31.7547 22.9869 31.9224 23.3619 32.0772 23.7757C32.7996 25.6636 33.522 27.5516 34.2573 29.4395C34.7733 30.7843 35.3151 32.1162 35.8053 33.474C35.973 33.9136 36.244 34.1723 36.6439 34.3791C41.6621 36.9395 46.6674 39.5128 51.6856 42.0731C52.1113 42.2929 52.5112 42.5257 52.3693 43.0817C52.2274 43.6766 51.7372 43.7024 51.247 43.7024C47.5317 43.7024 43.8035 43.7024 40.0882 43.7024C39.8173 43.7024 39.5335 43.7024 39.1723 43.7024C39.1723 45.0731 39.1723 46.405 39.1723 47.724C39.1723 47.7886 39.1981 47.8533 39.1852 47.9179C38.8498 49.4697 39.6367 50.2455 40.9267 51.0085C44.6162 53.2067 48.2154 55.5602 51.8533 57.849C52.2274 58.0817 52.5112 58.3404 52.3822 58.8317C52.2532 59.3231 51.8662 59.4007 51.4276 59.4007C47.7252 59.4007 44.0357 59.4007 40.3333 59.4007C39.9979 59.4007 39.6496 59.4007 39.2626 59.4007C39.2368 59.5688 39.1981 59.711 39.1981 59.8533C39.1981 61.6248 39.1852 63.3835 39.211 65.155C39.211 65.3748 39.3787 65.6852 39.5722 65.8145C43.6487 68.4136 47.751 70.9869 51.8404 73.5602C52.2274 73.8059 52.5112 74.0516 52.3951 74.53C52.2661 75.0473 51.8533 75.1378 51.3889 75.1378C47.6091 75.1378 43.8164 75.1378 40.0366 75.1378C39.8431 75.1378 39.6625 75.1507 39.3529 75.1636C45.1967 86.9826 51.0147 98.7369 56.8844 110.595C57.5036 110.595 58.2518 110.595 59.0387 110.595C59.0387 111.422 59.0387 112.185 59.0387 112.987C57.0521 112.987 55.0912 112.987 53.0917 112.987C53.0917 112.224 53.0917 111.474 53.0917 110.633C53.7496 110.633 54.3688 110.633 55.1557 110.633C54.7816 109.845 54.4978 109.172 54.1237 108.565C54.0076 108.383 53.6206 108.371 53.3626 108.254C51.5695 107.465 49.7892 106.664 47.9961 105.875C42.7586 103.547 37.5082 101.22 32.2707 98.905C31.5999 98.6076 30.942 98.7111 30.284 99.0085C26.1431 100.896 21.9892 102.784 17.8482 104.659C14.7392 106.069 11.6045 107.427 8.52131 108.901C8.0053 109.146 7.72149 109.871 7.33449 110.362C7.34739 110.452 7.39899 110.517 7.45059 110.582ZM28.0523 98.8792C28.0394 98.8404 28.0265 98.7886 28.0265 98.7498C23.2147 98.7498 18.4158 98.7498 13.604 98.7757C13.3847 98.7757 13.0751 99.0214 12.9719 99.2412C11.7335 101.672 10.5337 104.129 9.32112 106.573C9.17922 106.858 9.05022 107.155 8.83091 107.608C15.3584 104.633 21.7054 101.763 28.0523 98.8792ZM43.2617 91.9869C35.199 91.9869 27.317 91.9869 19.422 91.9869C23.1115 93.7197 26.8268 95.3619 30.5162 97.0171C31.0968 97.2757 31.5999 97.2886 32.1804 97.03C34.3992 96.0085 36.6439 95.0128 38.8756 94.0042C40.2817 93.3576 41.6879 92.6981 43.2617 91.9869ZM53.4013 107.168C52.0468 104.427 50.7825 101.866 49.5312 99.293C49.3248 98.8662 49.0797 98.724 48.6024 98.724C45.1064 98.7498 41.5976 98.7369 38.1016 98.7369C37.0051 98.7369 35.9085 98.7369 34.812 98.7369C34.812 98.7886 34.7991 98.8404 34.7991 98.8921C40.9396 101.633 47.0931 104.375 53.4013 107.168ZM28.1297 97.224C28.1426 97.1852 28.1555 97.1464 28.1684 97.0947C24.3112 95.3878 20.4669 93.6809 16.5453 91.9352C15.668 93.7067 14.8295 95.4266 13.9523 97.2111C18.777 97.224 23.4598 97.224 28.1297 97.224ZM34.5411 97.0947C34.554 97.1335 34.5669 97.1723 34.5798 97.1981C39.1723 97.1981 43.7648 97.1981 48.4605 97.1981C47.5833 95.4136 46.7448 93.7067 45.8933 91.9611C42.062 93.6938 38.308 95.3878 34.5411 97.0947ZM39.985 82.8835C39.7915 82.7671 39.7399 82.7283 39.6625 82.6895C36.9406 81.4611 34.2186 80.2326 31.4967 79.03C31.3161 78.9524 31.0323 78.9524 30.8516 79.0429C29.4971 79.6248 28.1426 80.2326 26.7881 80.8404C25.3432 81.4869 23.9113 82.1335 22.4794 82.78C22.4923 82.8059 22.4923 82.8447 22.5052 82.8705C28.2845 82.8835 34.0638 82.8835 39.985 82.8835ZM48.6024 73.5473C48.6153 73.5085 48.6282 73.4567 48.654 73.4179C45.5321 71.4395 42.3974 69.474 39.1981 67.4567C39.1981 69.5645 39.1981 71.5429 39.1981 73.5473C42.3587 73.5473 45.4805 73.5473 48.6024 73.5473ZM23.2405 67.4567C20.0154 69.4869 16.8936 71.4654 13.7717 73.4309C13.7975 73.4697 13.8104 73.5085 13.8362 73.5343C16.9581 73.5343 20.0799 73.5343 23.2405 73.5343C23.2405 71.53 23.2405 69.5645 23.2405 67.4567ZM48.5637 57.836C48.5895 57.7843 48.6024 57.7455 48.6282 57.6938C45.5063 55.7283 42.3845 53.7498 39.1852 51.7326C39.1852 53.8404 39.1852 55.8188 39.1852 57.8231C42.3587 57.836 45.4547 57.836 48.5637 57.836ZM23.2276 51.7455C20.0154 53.7757 16.8936 55.7412 13.7717 57.7197C13.7846 57.7585 13.8104 57.7973 13.8233 57.836C16.9452 57.836 20.067 57.836 23.2276 57.836C23.2276 55.8317 23.2276 53.8533 23.2276 51.7455ZM21.4216 90.2542C21.4345 90.28 21.4345 90.3059 21.4474 90.3317C27.9749 90.3317 34.5153 90.3317 41.1719 90.3317C40.9525 90.2412 40.8622 90.1895 40.759 90.1636C37.9081 89.4266 35.0571 88.7154 32.232 87.9524C31.458 87.7455 30.7484 87.7326 29.9744 87.9524C27.7685 88.5731 25.5496 89.1421 23.3308 89.7369C22.6729 89.905 22.0537 90.0861 21.4216 90.2542ZM42.2942 84.6809C39.2626 85.4826 36.2956 86.2714 33.135 87.1119C37.1728 88.1593 41.017 89.155 44.9903 90.1895C44.0615 88.2886 43.1843 86.5171 42.2942 84.6809ZM48.0477 42.1507C48.0606 42.099 48.0735 42.0473 48.0864 41.9955C44.3969 40.1076 40.6945 38.2067 36.9406 36.28C36.9664 36.4481 36.9535 36.5128 36.9793 36.5774C37.6372 38.2973 38.3209 40.0171 38.9659 41.7498C39.1078 42.1248 39.34 42.1507 39.6496 42.1507C42.0749 42.1378 44.5001 42.1507 46.9254 42.1507C47.2995 42.1507 47.6736 42.1507 48.0477 42.1507ZM14.3393 42.0085C14.3522 42.0602 14.3651 42.099 14.3909 42.1507C17.2419 42.1507 20.0928 42.1507 22.9438 42.1378C23.1115 42.1378 23.3566 41.9309 23.434 41.7628C23.7178 41.1421 23.9629 40.4955 24.208 39.849C24.6466 38.6981 25.0852 37.5473 25.5754 36.2541C21.7312 38.2197 18.0288 40.1076 14.3393 42.0085ZM28.8521 87.1766C28.8521 87.1378 28.8521 87.1119 28.8521 87.0731C26.4656 86.4524 24.079 85.8447 21.6925 85.2369C21.1765 85.1076 20.5443 84.7455 20.1702 84.9266C19.7703 85.1205 19.5897 85.8188 19.3446 86.3102C18.7254 87.5645 18.1062 88.8317 17.4225 90.2412C21.3313 89.1809 25.0852 88.1852 28.8521 87.1766ZM31.2129 25.8705C30.1808 28.5602 29.2262 31.0688 28.2587 33.6291C30.2582 33.6291 32.1804 33.6291 34.1799 33.6291C33.1995 31.0688 32.232 28.5602 31.2129 25.8705ZM32.4771 78.293C35.3538 79.599 38.1016 80.8404 41.0299 82.1723C39.9334 79.9481 38.9272 77.905 37.9081 75.8361C36.0892 76.6636 34.3347 77.4524 32.4771 78.293ZM36.5536 42.1119C34.7733 40.7929 33.1479 39.5774 31.4967 38.3878C31.3806 38.3102 31.0968 38.3619 30.9549 38.4654C30.155 39.0343 29.3681 39.6421 28.5812 40.2369C27.7814 40.8317 26.9945 41.4266 26.0657 42.1248C29.6132 42.1119 32.9802 42.1119 36.5536 42.1119ZM29.9099 78.28C28.0136 77.4266 26.285 76.6378 24.5176 75.8361C23.4856 77.918 22.5052 79.9223 21.5119 81.9136C21.5506 81.9395 21.5893 81.9783 21.628 82.0042C24.337 80.8016 27.0461 79.5731 29.9099 78.28ZM32.2062 54.28C34.038 55.3662 35.7795 56.4007 37.534 57.4481C37.534 55.2757 37.534 53.2197 37.534 51.0731C35.7408 52.1593 34.0251 53.1938 32.2062 54.28ZM37.5727 73.2498C37.5727 71.0774 37.5727 69.0214 37.5727 66.849C35.7666 67.9352 34.0251 68.9697 32.2191 70.0559C34.0122 71.1421 35.7408 72.1636 37.5727 73.2498ZM24.853 57.5128C26.6591 56.4136 28.3748 55.3792 30.155 54.2929C28.3361 53.2067 26.6333 52.1981 24.853 51.1378C24.853 53.2843 24.853 55.3404 24.853 57.5128ZM24.853 66.9136C24.853 69.0861 24.853 71.1292 24.853 73.2757C26.6462 72.1895 28.349 71.155 30.155 70.0688C28.349 68.9955 26.6333 67.974 24.853 66.9136ZM38.3467 84.6292C38.3467 84.6033 38.3338 84.5904 38.3338 84.5645C33.4575 84.5645 28.5812 84.5645 23.7178 84.5645C26.0786 85.2757 28.4393 85.8964 30.8 86.4912C31.0581 86.5559 31.3548 86.5042 31.6257 86.4395C33.1608 86.0516 34.6959 85.6378 36.2311 85.224C36.9277 85.043 37.6372 84.8361 38.3467 84.6292ZM36.6439 75.2542C36.631 75.2283 36.631 75.2024 36.6181 75.1766C32.9931 75.1766 29.381 75.1766 25.7431 75.1766C25.7818 75.2283 25.7818 75.28 25.8205 75.2929C27.5234 76.0688 29.2133 76.8317 30.9161 77.5947C31.0581 77.6593 31.2645 77.6852 31.3935 77.6205C33.1479 76.8447 34.9023 76.0429 36.6439 75.2542ZM35.9085 57.836C35.9214 57.7973 35.9343 57.7585 35.9472 57.7197C34.4766 56.8404 33.006 55.9481 31.5096 55.1076C31.3161 55.0042 30.929 55.0559 30.7226 55.1852C29.4455 55.9223 28.1813 56.711 26.9171 57.474C26.7881 57.5516 26.672 57.655 26.4398 57.836C29.7035 57.836 32.8125 57.836 35.9085 57.836ZM32.3352 46.586C34.1412 47.5171 35.8311 48.3964 37.5727 49.2886C37.5727 47.4524 37.5727 45.7197 37.5727 43.8835C35.8311 44.7757 34.1412 45.6421 32.3352 46.586ZM24.8401 65.0386C26.6075 64.1205 28.2845 63.2542 30.0389 62.3361C28.2587 61.405 26.5817 60.5386 24.8401 59.6335C24.8401 61.4567 24.8401 63.1895 24.8401 65.0386ZM37.5598 59.6335C35.7924 60.5516 34.1283 61.4179 32.361 62.3361C34.1541 63.2671 35.8182 64.1335 37.5598 65.0257C37.5598 63.2154 37.5598 61.4697 37.5598 59.6335ZM35.7924 73.5602C35.8053 73.5214 35.8311 73.4826 35.844 73.4438C34.3734 72.5645 32.9157 71.6852 31.4322 70.8317C31.2774 70.7412 30.942 70.8317 30.7484 70.9481C29.4713 71.6981 28.1942 72.4611 26.93 73.2369C26.8139 73.3016 26.7236 73.405 26.543 73.5602C29.7035 73.5602 32.748 73.5602 35.7924 73.5602ZM30.026 46.586C28.2587 45.6679 26.5817 44.8016 24.8659 43.9093C24.8659 45.7455 24.8659 47.4654 24.8659 49.2628C26.6075 48.3576 28.2716 47.4912 30.026 46.586ZM26.5688 66.7067C27.6782 67.3662 28.7102 67.8705 29.6003 68.5429C30.7097 69.3964 31.6515 69.4093 32.7609 68.5559C33.6381 67.8705 34.6572 67.3662 35.7537 66.7067C32.619 66.7067 29.6777 66.7067 26.5688 66.7067ZM26.672 50.9955C27.7427 51.6292 28.7231 52.1205 29.5874 52.7542C30.6581 53.5559 31.587 53.6981 32.6964 52.8059C33.5607 52.1205 34.5798 51.6292 35.6376 50.9826C32.5932 50.9955 29.7164 50.9955 26.672 50.9955ZM35.457 59.5429C35.4312 59.5171 35.4183 59.4783 35.3925 59.4524C32.5803 59.4524 29.768 59.4524 26.7623 59.4524C28.2716 60.2283 29.6003 60.9266 30.9291 61.6119C31.0452 61.6766 31.2387 61.7154 31.3548 61.6636C32.7351 60.9654 34.0896 60.2542 35.457 59.5429ZM27.5492 35.4524C26.7881 37.4309 26.0786 39.3059 25.3561 41.1809C25.3948 41.2067 25.4335 41.2197 25.4722 41.2455C27.0977 40.03 28.7231 38.8145 30.4001 37.5731C29.4455 36.8619 28.5296 36.1895 27.5492 35.4524ZM34.9023 35.53C33.9606 36.2283 33.0963 36.8748 32.1675 37.5602C33.7929 38.7628 35.3538 39.9136 36.9148 41.0645C36.9535 41.0386 36.9793 41.0128 37.018 40.9998C36.3214 39.2024 35.6376 37.4179 34.9023 35.53ZM35.3796 43.8447C35.3796 43.8059 35.3667 43.78 35.3667 43.7412C32.5803 43.7412 29.7938 43.7412 26.8268 43.7412C28.3103 44.5042 29.6261 45.1895 30.9678 45.849C31.1226 45.9266 31.3806 45.8748 31.5483 45.7843C32.8254 45.1507 34.1025 44.4912 35.3796 43.8447ZM35.2248 49.3792C35.2377 49.3404 35.2506 49.3145 35.2635 49.2757C33.9864 48.6033 32.7093 47.9309 31.4064 47.2843C31.2387 47.2067 30.9549 47.2973 30.7613 47.3878C29.8583 47.8274 28.9682 48.3059 28.0781 48.7714C27.7556 48.9395 27.4331 49.1205 26.9558 49.3792C29.8583 49.3792 32.5416 49.3792 35.2248 49.3792ZM27.2267 64.9869C27.2396 65.0257 27.2525 65.0645 27.2654 65.0904C29.897 65.0904 32.5287 65.0904 35.1732 65.0904C33.9348 64.3274 32.6706 63.6679 31.4064 63.0085C31.3032 62.9567 31.1355 62.9567 31.0323 63.0085C29.7551 63.6679 28.4909 64.3274 27.2267 64.9869ZM33.4704 35.2843C31.9611 35.2843 30.5936 35.2843 29.0843 35.2843C29.8196 35.8274 30.413 36.28 31.0323 36.6938C31.1484 36.7714 31.4064 36.7973 31.5225 36.7197C32.1417 36.2929 32.748 35.8274 33.4704 35.2843Z" fill="white"/>
</g>
<defs>
<clipPath id="clip0">
<rect width="56" height="90" fill="white" transform="translate(58 23)"/>
</clipPath>
<clipPath id="clip1">
<rect width="56" height="90" fill="white" transform="translate(3 23)"/>
</clipPath>
</defs>
</svg>
