<svg width="135" height="135" viewBox="0 0 135 135" fill="none" xmlns="http://www.w3.org/2000/svg">
<rect x="7.12561" y="30" width="9" height="75" rx="4.5" stroke="white" stroke-width="2"/>
<rect x="23.6259" y="30" width="9" height="75" rx="4.5" stroke="white" stroke-width="2"/>
<rect x="40.1241" y="30" width="9" height="75" rx="4.5" stroke="white" stroke-width="2"/>
<rect x="56.6244" y="30" width="9" height="75" rx="4.5" stroke="white" stroke-width="2"/>
<path d="M61.1259 29.6874V104.625" stroke="white" stroke-width="2"/>
<path d="M44.6256 29.6874V104.625" stroke="white" stroke-width="2"/>
<path d="M28.1253 29.6874V104.625" stroke="white" stroke-width="2"/>
<path d="M11.625 29.6874V104.625" stroke="white" stroke-width="2"/>
<path d="M16.4375 37.2501H23.3125" stroke="white" stroke-width="2"/>
<path d="M16.4375 85.3751H23.3125" stroke="white" stroke-width="2"/>
<path d="M33.6247 85.3751H40.4997" stroke="white" stroke-width="2"/>
<path d="M50.125 85.3751H57" stroke="white" stroke-width="2"/>
<path d="M65.2494 85.3751H72.1244" stroke="white" stroke-width="2"/>
<path d="M65.2494 37.2501H72.1244" stroke="white" stroke-width="2"/>
<path d="M16.4375 48.25H23.3125" stroke="white" stroke-width="2"/>
<path d="M16.4375 96.375H23.3125" stroke="white" stroke-width="2"/>
<path d="M33.6247 96.375H40.4997" stroke="white" stroke-width="2"/>
<path d="M50.125 96.375H57" stroke="white" stroke-width="2"/>
<path d="M65.2494 96.375H72.1244" stroke="white" stroke-width="2"/>
<path d="M65.2494 48.25H72.1244" stroke="white" stroke-width="2"/>
<path d="M32.9378 48.25H39.8128" stroke="white" stroke-width="2"/>
<path d="M32.9378 37.2501H39.1253" stroke="white" stroke-width="2"/>
<path d="M49.4381 37.2501H56.3131" stroke="white" stroke-width="2"/>
<path d="M49.4381 46.8751H56.3131" stroke="white" stroke-width="2"/>
<path d="M6.125 48.2501H2V37.2501H6.125" stroke="white" stroke-width="2"/>
<path d="M6.125 97.7501H2V85.3751H6.125" stroke="white" stroke-width="2"/>
<rect x="73.1247" y="35.4999" width="4.875" height="14.5" stroke="white" stroke-width="2"/>
<rect x="73.1247" y="83.6249" width="4.875" height="14.5" stroke="white" stroke-width="2"/>
<rect x="78.6241" y="87.75" width="15.875" height="6.25" stroke="white" stroke-width="2"/>
<path d="M79 40.8796H89.0435V29H95.5V40.8796C95.5 43.107 94.2087 47.4133 89.0435 46.8193H79" stroke="white" stroke-width="2"/>
</svg>
