<svg width="135" height="135" fill="none" xmlns="http://www.w3.org/2000/svg"><rect x="7.126" y="30" width="9" height="75" rx="4.5" stroke="#fff" stroke-width="2"/><rect x="23.626" y="30" width="9" height="75" rx="4.5" stroke="#fff" stroke-width="2"/><rect x="40.124" y="30" width="9" height="75" rx="4.5" stroke="#fff" stroke-width="2"/><rect x="56.624" y="30" width="9" height="75" rx="4.5" stroke="#fff" stroke-width="2"/><path d="M61.126 29.687v74.938m-16.5-74.938v74.938M28.125 29.687v74.938m-16.5-74.938v74.938m4.813-67.375h6.875m-6.875 48.125h6.875m10.312 0H40.5m9.625 0H57m8.25 0h6.874M65.25 37.25h6.874m-55.686 11h6.875m-6.875 48.125h6.875m10.312 0H40.5m9.625 0H57m8.25 0h6.874M65.25 48.25h6.874m-39.186 0h6.875m-6.875-11h6.187m10.313 0h6.875m-6.875 9.625h6.875M6.125 48.25H2v-11h4.125m0 60.5H2V85.375h4.125m67-49.875H78V50h-4.875zm0 48.125H78v14.5h-4.875zm5.499 4.125h15.875V94H78.624zM79 40.88h10.043V29H95.5v11.88c0 2.227-1.291 6.533-6.457 5.94H79" stroke="#fff" stroke-width="2"/></svg>