<svg width="135" height="135" fill="none" xmlns="http://www.w3.org/2000/svg"><g clip-path="url(#clip0)"><path d="M62.45 110.582c.13.013.246.026.375.026 1.2.025 1.2.025 1.174 1.267-.013.362 0 .724 0 1.125H58v-2.341h2.541c5.87-11.857 11.688-23.625 17.583-35.534h-.8c-3.508 0-7.004.013-10.513.013-.323 0-.67.051-.955-.039-.284-.103-.658-.323-.722-.569-.065-.246.142-.672.361-.853.439-.375.968-.647 1.458-.957 3.65-2.302 7.314-4.604 10.965-6.918.168-.104.335-.35.335-.53.026-1.914.013-3.828.013-5.858H66.14c-.451 0-.89-.026-1.032-.556-.142-.505.142-.79.555-1.048 4.076-2.56 8.153-5.12 12.216-7.707.18-.116.374-.375.374-.569.026-1.913.013-3.827.013-5.78-.193-.013-.36-.039-.516-.039H66.205c-.504 0-.98-.051-1.11-.646-.116-.556.271-.802.697-1.009a3372.246 3372.246 0 0015.26-7.823c.272-.142.491-.517.62-.828 1.225-3.142 2.425-6.31 3.625-9.465.026-.065.052-.117.064-.181.142-.401.323-.75.839-.763.555-.013.722.362.877.776.723 1.888 1.445 3.776 2.18 5.663.516 1.345 1.058 2.677 1.548 4.035.168.44.439.698.839.905 5.018 2.56 10.023 5.134 15.042 7.694.425.22.825.453.683 1.009-.142.595-.632.62-1.122.62H94.172v4.022c0 .065.026.13.013.194-.335 1.552.452 2.328 1.742 3.09 3.69 2.199 7.288 4.552 10.926 6.841.374.233.658.491.529.983-.129.491-.516.569-.954.569H94.263c-.026.168-.065.31-.065.452 0 1.772-.013 3.53.013 5.302 0 .22.168.53.361.66 4.077 2.599 8.179 5.172 12.268 7.745.387.246.671.492.555.97-.129.517-.542.608-1.006.608H95.037c-.194 0-.375.013-.684.026 5.844 11.819 11.662 23.573 17.531 35.431h2.155v2.392h-5.947v-2.354h2.064c-.374-.788-.658-1.461-1.032-2.068-.116-.182-.503-.194-.761-.311-1.794-.789-3.574-1.59-5.367-2.379a8269.911 8269.911 0 00-15.725-6.97c-.671-.297-1.329-.194-1.987.103a5445.12 5445.12 0 01-12.436 5.651c-3.109 1.41-6.243 2.768-9.327 4.242-.516.245-.8.97-1.187 1.461.013.09.065.155.117.22zm20.602-11.703a.461.461 0 01-.026-.13c-4.811 0-9.61 0-14.422.027-.22 0-.529.245-.632.465-1.238 2.431-2.438 4.888-3.65 7.332-.143.285-.272.582-.491 1.035 6.527-2.975 12.874-5.845 19.221-8.729zm15.21-6.892h-23.84c3.69 1.733 7.405 3.375 11.094 5.03.58.259 1.084.272 1.664.013 2.22-1.022 4.464-2.017 6.696-3.026 1.406-.646 2.812-1.306 4.386-2.017zm10.139 15.181a1470.565 1470.565 0 01-3.87-7.875c-.206-.427-.451-.569-.929-.569-3.496.026-7.004.013-10.5.013h-3.29c0 .052-.013.103-.013.155 6.14 2.741 12.294 5.483 18.602 8.276zM83.13 97.224c.013-.039.026-.078.038-.13a5774.793 5774.793 0 01-11.623-5.159c-.877 1.772-1.716 3.492-2.593 5.276 4.825.013 9.508.013 14.178.013zm6.411-.13a.83.83 0 00.039.104h13.88c-.877-1.784-1.715-3.491-2.567-5.237-3.831 1.733-7.585 3.427-11.352 5.134zm5.444-14.21c-.194-.117-.245-.156-.323-.195a1149.092 1149.092 0 00-8.165-3.659.857.857 0 00-.645.013c-1.355.582-2.71 1.19-4.064 1.797-1.445.647-2.877 1.293-4.309 1.94.013.026.013.065.026.09 5.78.013 11.559.013 17.48.013zm8.617-9.337c.013-.038.026-.09.052-.13-3.122-1.978-6.257-3.943-9.456-5.96v6.09h9.404zm-25.362-6.09c-3.225 2.03-6.346 4.008-9.468 5.974.025.039.038.078.064.103h9.404v-6.077zm25.324-9.621c.025-.052.038-.09.064-.142-3.122-1.966-6.243-3.944-9.443-5.961v6.09c3.174.013 6.27.013 9.379.013zm-25.336-6.09c-3.213 2.03-6.334 3.995-9.456 5.974.013.038.038.077.051.116h9.405v-6.09zm-1.806 38.508c.013.026.013.052.025.078h19.725c-.22-.09-.31-.142-.413-.168-2.85-.737-5.702-1.449-8.527-2.212-.774-.206-1.484-.22-2.258 0-2.206.621-4.424 1.19-6.643 1.785-.658.168-1.277.35-1.91.517zm20.872-5.573c-3.031.802-5.998 1.59-9.159 2.43 4.038 1.048 7.882 2.044 11.855 3.078-.928-1.9-1.806-3.672-2.696-5.508zm5.754-42.53l.038-.156c-3.69-1.887-7.391-3.788-11.145-5.715.025.168.013.233.038.297.658 1.72 1.342 3.44 1.987 5.173.142.375.374.4.684.4 2.425-.012 4.85 0 7.275 0h1.123zm-33.709-.143a.634.634 0 00.052.143c2.85 0 5.702 0 8.553-.013.168 0 .413-.207.49-.375.284-.62.529-1.267.774-1.914.439-1.15.877-2.302 1.367-3.595-3.844 1.966-7.546 3.854-11.236 5.755zm14.513 45.169v-.104c-2.386-.62-4.773-1.228-7.16-1.836-.515-.13-1.148-.491-1.522-.31-.4.194-.58.892-.825 1.383a623.427 623.427 0 00-1.922 3.931c3.908-1.06 7.662-2.056 11.43-3.064zm2.36-61.307c-1.031 2.69-1.986 5.199-2.953 7.76h5.92c-.98-2.561-1.947-5.07-2.966-7.76zm1.265 52.423c2.877 1.306 5.625 2.547 8.553 3.88l-3.122-6.337c-1.819.828-3.573 1.616-5.43 2.457zm4.077-36.181c-1.78-1.32-3.406-2.535-5.057-3.724-.116-.078-.4-.026-.542.077-.8.57-1.587 1.177-2.374 1.772-.8.595-1.587 1.19-2.515 1.888 3.547-.013 6.914-.013 10.488-.013zM84.91 78.28c-1.896-.853-3.625-1.642-5.392-2.444-1.032 2.082-2.013 4.086-3.006 6.078.039.025.077.064.116.09 2.709-1.202 5.418-2.43 8.282-3.724zm2.296-24a1914.16 1914.16 0 015.328 3.168v-6.375a972.554 972.554 0 01-5.328 3.207zm5.367 18.97v-6.401c-1.806 1.086-3.548 2.12-5.354 3.207 1.793 1.086 3.522 2.108 5.354 3.194zm-12.72-15.737c1.806-1.1 3.522-2.134 5.302-3.22-1.819-1.086-3.522-2.095-5.302-3.155v6.375zm0 9.4v6.363c1.793-1.087 3.496-2.121 5.302-3.207a6167.781 6167.781 0 01-5.302-3.155zM93.347 84.63c0-.026-.013-.039-.013-.065H78.718c2.36.712 4.721 1.332 7.082 1.927.258.065.555.013.826-.052 1.535-.387 3.07-.801 4.605-1.215a75.08 75.08 0 002.116-.595zm-1.703-9.375c-.013-.026-.013-.052-.026-.077H80.743c.039.051.039.103.078.116 1.702.776 3.392 1.539 5.095 2.302.142.064.349.09.478.026 1.754-.776 3.508-1.578 5.25-2.367zm-.736-17.418l.04-.116c-1.471-.88-2.942-1.772-4.438-2.612-.194-.104-.581-.052-.787.077-1.278.737-2.542 1.526-3.806 2.289-.129.078-.245.181-.477.362h9.469zm-3.573-11.25c1.806.931 3.496 1.81 5.238 2.703v-5.406a705.323 705.323 0 00-5.238 2.703zM79.84 65.039c1.767-.918 3.444-1.785 5.199-2.703-1.78-.931-3.457-1.797-5.199-2.703v5.406zm12.72-5.406l-5.199 2.703c1.793.931 3.457 1.797 5.199 2.69v-5.392zM90.792 73.56c.013-.039.04-.077.052-.116-1.47-.88-2.928-1.759-4.412-2.612-.155-.09-.49 0-.684.116-1.277.75-2.554 1.513-3.818 2.289-.116.065-.206.168-.387.323h9.25zm-5.766-26.974c-1.767-.918-3.444-1.784-5.16-2.677v5.354c1.742-.905 3.406-1.772 5.16-2.677zm-3.457 20.12c1.11.66 2.141 1.165 3.031 1.837 1.11.853 2.052.866 3.16.013.878-.685 1.897-1.19 2.994-1.85h-9.185zm.103-15.71c1.07.633 2.051 1.124 2.915 1.758 1.071.802 2 .944 3.11.052.864-.685 1.883-1.177 2.94-1.823-3.044.013-5.92.013-8.965.013zm8.785 8.547c-.026-.026-.039-.065-.064-.09h-8.63c1.509.775 2.837 1.474 4.166 2.159.116.065.31.103.426.052 1.38-.699 2.735-1.41 4.102-2.121zm-7.908-24.09c-.76 1.978-1.47 3.853-2.193 5.728.039.026.078.039.116.065 1.626-1.216 3.251-2.431 4.928-3.673-.955-.711-1.87-1.383-2.85-2.12zm7.353.077c-.941.698-1.806 1.345-2.734 2.03a3040.26 3040.26 0 004.747 3.505c.038-.026.064-.052.103-.065-.697-1.798-1.38-3.582-2.116-5.47zm.478 8.315c0-.04-.013-.065-.013-.104h-8.54c1.483.763 2.8 1.449 4.14 2.108.156.078.414.026.581-.065 1.277-.633 2.555-1.293 3.832-1.94zm-.155 5.534c.013-.039.026-.064.038-.103a180.697 180.697 0 00-3.857-1.992c-.167-.077-.451.013-.645.104-.903.44-1.793.918-2.683 1.383-.322.169-.645.35-1.122.608h8.269zm-7.998 15.608a.896.896 0 00.038.103h7.908c-1.238-.763-2.502-1.422-3.767-2.082a.47.47 0 00-.374 0c-1.277.66-2.541 1.32-3.805 1.979zm6.243-29.703h-4.386c.736.543 1.329.996 1.948 1.41.116.077.374.103.49.026.62-.427 1.226-.893 1.948-1.436z" fill="#fff"/></g><g clip-path="url(#clip1)"><path d="M7.45 110.582c.13.013.246.026.375.026 1.2.025 1.2.025 1.174 1.267-.013.362 0 .724 0 1.125H3v-2.341h2.541c5.87-11.857 11.688-23.625 17.583-35.534h-.8c-3.508 0-7.004.013-10.513.013-.323 0-.67.051-.955-.039-.284-.103-.658-.323-.722-.569-.065-.246.142-.672.361-.853.439-.375.968-.647 1.458-.957 3.65-2.302 7.314-4.604 10.965-6.918.168-.104.335-.35.335-.53.026-1.914.013-3.828.013-5.858H11.14c-.451 0-.89-.026-1.032-.556-.142-.505.142-.79.555-1.048 4.076-2.56 8.153-5.12 12.216-7.707.18-.116.374-.375.374-.569.026-1.913.013-3.827.013-5.78-.193-.013-.36-.039-.516-.039H11.205c-.504 0-.98-.051-1.11-.646-.116-.556.271-.802.697-1.009a3372.246 3372.246 0 0015.26-7.823c.272-.142.491-.517.62-.828 1.226-3.142 2.425-6.31 3.625-9.465.026-.065.052-.117.064-.181.142-.401.323-.75.839-.763.555-.013.722.362.877.776.723 1.888 1.445 3.776 2.18 5.663.516 1.345 1.058 2.677 1.548 4.035.168.44.439.698.839.905 5.018 2.56 10.023 5.134 15.042 7.694.425.22.825.453.683 1.009-.142.595-.632.62-1.122.62H39.172v4.022c0 .065.026.13.013.194-.335 1.552.452 2.328 1.742 3.09 3.69 2.199 7.288 4.552 10.926 6.841.374.233.658.491.53.983-.13.491-.517.569-.955.569H39.263c-.026.168-.065.31-.065.452 0 1.772-.013 3.53.013 5.302 0 .22.168.53.361.66 4.077 2.599 8.179 5.172 12.268 7.745.387.246.671.492.555.97-.129.517-.542.608-1.006.608H40.037c-.194 0-.374.013-.684.026a88687.208 88687.208 0 0017.531 35.431h2.155v2.392h-5.947v-2.354h2.064c-.374-.788-.658-1.461-1.032-2.068-.116-.182-.503-.194-.761-.311-1.794-.789-3.574-1.59-5.367-2.379a8298.187 8298.187 0 00-15.725-6.97c-.671-.297-1.329-.194-1.987.103a5445.12 5445.12 0 01-12.436 5.651c-3.109 1.41-6.243 2.768-9.327 4.242-.516.245-.8.97-1.187 1.461.013.09.065.155.117.22zm20.602-11.703a.461.461 0 01-.026-.13c-4.811 0-9.61 0-14.422.027-.22 0-.529.245-.632.465-1.239 2.431-2.438 4.888-3.65 7.332-.143.285-.272.582-.491 1.035 6.527-2.975 12.874-5.845 19.221-8.729zm15.21-6.892h-23.84c3.69 1.733 7.405 3.375 11.094 5.03.58.259 1.084.272 1.664.013 2.22-1.022 4.464-2.017 6.696-3.026 1.406-.646 2.812-1.306 4.386-2.017zm10.14 15.181a1385.23 1385.23 0 01-3.87-7.875c-.207-.427-.452-.569-.93-.569-3.496.026-7.004.013-10.5.013h-3.29c0 .052-.013.103-.013.155 6.14 2.741 12.294 5.483 18.602 8.276zM28.13 97.224c.013-.039.026-.078.038-.13a5774.793 5774.793 0 01-11.623-5.159c-.877 1.772-1.716 3.492-2.593 5.276 4.825.013 9.508.013 14.178.013zm6.411-.13a.83.83 0 00.039.104h13.88c-.877-1.784-1.715-3.491-2.567-5.237-3.831 1.733-7.585 3.427-11.352 5.134zm5.444-14.21c-.194-.117-.245-.156-.322-.195-2.722-1.228-5.444-2.456-8.166-3.659a.857.857 0 00-.645.013c-1.355.582-2.71 1.19-4.064 1.797-1.445.647-2.877 1.293-4.309 1.94.013.026.013.065.026.09 5.78.013 11.559.013 17.48.013zm8.617-9.337c.013-.038.026-.09.052-.13-3.122-1.978-6.257-3.943-9.456-5.96v6.09h9.404zm-25.361-6.09c-3.226 2.03-6.347 4.008-9.47 5.974.026.039.04.078.065.103h9.405v-6.077zm25.323-9.621c.026-.052.038-.09.064-.142-3.122-1.966-6.243-3.944-9.443-5.961v6.09c3.174.013 6.27.013 9.379.013zm-25.336-6.09c-3.213 2.03-6.334 3.995-9.456 5.974.013.038.038.077.051.116h9.405v-6.09zm-1.806 38.508c.012.026.012.052.025.078h19.725c-.22-.09-.31-.142-.413-.168-2.85-.737-5.702-1.449-8.527-2.212-.774-.206-1.484-.22-2.258 0-2.206.621-4.424 1.19-6.643 1.785-.658.168-1.277.35-1.91.517zm20.872-5.573c-3.031.802-5.998 1.59-9.159 2.43 4.038 1.048 7.882 2.044 11.855 3.078-.928-1.9-1.806-3.672-2.696-5.508zm5.754-42.53l.038-.156c-3.69-1.887-7.392-3.788-11.145-5.715.025.168.012.233.038.297.658 1.72 1.342 3.44 1.987 5.173.142.375.374.4.684.4 2.425-.012 4.85 0 7.275 0h1.123zm-33.709-.143a.634.634 0 00.052.143c2.85 0 5.702 0 8.553-.013.168 0 .413-.207.49-.375.284-.62.529-1.267.774-1.914.439-1.15.877-2.302 1.367-3.595-3.844 1.966-7.546 3.854-11.236 5.755zm14.513 45.169v-.104c-2.386-.62-4.773-1.228-7.16-1.836-.515-.13-1.148-.491-1.522-.31-.4.194-.58.892-.825 1.383a623.427 623.427 0 00-1.922 3.931c3.908-1.06 7.662-2.056 11.43-3.064zm2.36-61.307c-1.031 2.69-1.986 5.199-2.953 7.76h5.92c-.98-2.561-1.947-5.07-2.966-7.76zm1.265 52.423c2.877 1.306 5.625 2.547 8.553 3.88l-3.122-6.337c-1.819.828-3.573 1.616-5.43 2.457zm4.077-36.181c-1.78-1.32-3.406-2.535-5.057-3.724-.116-.078-.4-.026-.542.077-.8.57-1.587 1.177-2.374 1.772-.8.595-1.587 1.19-2.515 1.888 3.547-.013 6.914-.013 10.488-.013zM29.91 78.28c-1.896-.853-3.625-1.642-5.392-2.444-1.032 2.082-2.013 4.086-3.006 6.078.039.025.077.064.116.09 2.709-1.202 5.418-2.43 8.282-3.724zm2.296-24a1914.16 1914.16 0 015.328 3.168v-6.375a972.554 972.554 0 01-5.328 3.207zm5.367 18.97v-6.401c-1.806 1.086-3.548 2.12-5.354 3.207 1.793 1.086 3.522 2.108 5.354 3.194zm-12.72-15.737c1.806-1.1 3.522-2.134 5.302-3.22-1.819-1.086-3.522-2.095-5.302-3.155v6.375zm0 9.4v6.363c1.793-1.087 3.496-2.121 5.302-3.207a6167.781 6167.781 0 01-5.302-3.155zM38.347 84.63c0-.026-.013-.039-.013-.065H23.718c2.36.712 4.721 1.332 7.082 1.927.258.065.555.013.826-.052 1.535-.387 3.07-.801 4.605-1.215a75.08 75.08 0 002.116-.595zm-1.703-9.375c-.013-.026-.013-.052-.026-.077H25.743c.039.051.039.103.078.116 1.702.776 3.392 1.539 5.095 2.302.142.064.349.09.477.026 1.755-.776 3.51-1.578 5.25-2.367zm-.736-17.418l.04-.116c-1.471-.88-2.942-1.772-4.438-2.612-.194-.104-.581-.052-.787.077-1.277.737-2.542 1.526-3.806 2.289-.129.078-.245.181-.477.362h9.468zm-3.573-11.25c1.806.931 3.496 1.81 5.238 2.703v-5.406a705.323 705.323 0 00-5.238 2.703zM24.84 65.039c1.768-.918 3.445-1.785 5.199-2.703-1.78-.931-3.457-1.797-5.199-2.703v5.406zm12.72-5.406l-5.199 2.703c1.793.931 3.457 1.797 5.199 2.69v-5.392zM35.792 73.56c.013-.039.04-.077.052-.116-1.47-.88-2.928-1.759-4.412-2.612-.155-.09-.49 0-.684.116-1.277.75-2.554 1.513-3.818 2.289-.116.065-.206.168-.387.323h9.25zm-5.766-26.974c-1.767-.918-3.444-1.784-5.16-2.677v5.354c1.742-.905 3.406-1.772 5.16-2.677zm-3.457 20.12c1.11.66 2.141 1.165 3.031 1.837 1.11.853 2.051.866 3.16.013.878-.685 1.897-1.19 2.994-1.85h-9.185zm.103-15.71c1.07.633 2.051 1.124 2.915 1.758 1.071.802 2 .944 3.11.052.864-.685 1.883-1.177 2.94-1.823-3.044.013-5.92.013-8.965.013zm8.785 8.547c-.026-.026-.039-.065-.065-.09h-8.63c1.51.775 2.838 1.474 4.167 2.159.116.065.31.103.426.052 1.38-.699 2.735-1.41 4.102-2.121zm-7.908-24.09c-.76 1.978-1.47 3.853-2.193 5.728.039.026.077.039.116.065 1.626-1.216 3.251-2.431 4.928-3.673-.954-.711-1.87-1.383-2.85-2.12zm7.353.077c-.941.698-1.806 1.345-2.735 2.03 1.626 1.203 3.187 2.354 4.748 3.505.038-.026.064-.052.103-.065-.697-1.798-1.38-3.582-2.116-5.47zm.478 8.315c0-.04-.013-.065-.013-.104h-8.54c1.483.763 2.8 1.449 4.14 2.108.156.078.414.026.581-.065 1.277-.633 2.555-1.293 3.832-1.94zm-.155 5.534c.013-.039.026-.064.038-.103a180.697 180.697 0 00-3.857-1.992c-.167-.077-.451.013-.645.104-.903.44-1.793.918-2.683 1.383-.322.169-.645.35-1.122.608h8.269zm-7.998 15.608a.896.896 0 00.038.103h7.908c-1.238-.763-2.502-1.422-3.767-2.082a.47.47 0 00-.374 0c-1.277.66-2.541 1.32-3.805 1.979zm6.243-29.703h-4.386c.736.543 1.329.996 1.948 1.41.116.077.374.103.49.026.62-.427 1.226-.893 1.948-1.436z" fill="#fff"/></g><defs><clipPath id="clip0"><path fill="#fff" transform="translate(58 23)" d="M0 0h56v90H0z"/></clipPath><clipPath id="clip1"><path fill="#fff" transform="translate(3 23)" d="M0 0h56v90H0z"/></clipPath></defs></svg>