<svg width="134" height="87" fill="none" xmlns="http://www.w3.org/2000/svg"><path fill-rule="evenodd" clip-rule="evenodd" d="M43.48 84.558c22.675 0 41.057-18.382 41.057-41.058S66.155 2.442 43.48 2.442 2.421 20.824 2.421 43.5 20.803 84.558 43.48 84.558zm0 1.979c23.768 0 43.036-19.268 43.036-43.037C86.516 19.732 67.248.463 43.479.463 19.711.463.442 19.732.442 43.5c0 23.769 19.269 43.037 43.037 43.037z" fill="#fff"/><path fill-rule="evenodd" clip-rule="evenodd" d="M43.48 81.59c21.036 0 38.09-17.054 38.09-38.09 0-21.037-17.054-38.09-38.09-38.09-21.037 0-38.09 17.053-38.09 38.09 0 21.036 17.053 38.09 38.09 38.09zm0 .99c21.583 0 39.08-17.497 39.08-39.08S65.062 4.42 43.48 4.42 4.4 21.917 4.4 43.5s17.497 39.08 39.08 39.08z" fill="#fff"/><path fill-rule="evenodd" clip-rule="evenodd" d="M47.407 10.218c7.336 1.073 13.281 4.742 16.54 7.83l.696.659-16.917 19.032-.636-.238c-2.868-1.076-6.038-.444-7.22 0l-.626.234L21.77 18.672l.793-.665c8.73-7.308 17.465-8.867 24.844-7.789zM24.635 18.87l15.187 16.567c1.606-.456 4.482-.863 7.31-.01l14.744-16.585c-3.131-2.705-8.387-5.735-14.755-6.666-6.614-.966-14.474.322-22.486 6.694zm22.772 58.406c7.336-1.072 13.281-4.741 16.54-7.829l.696-.66-16.917-19.031-.636.238c-2.868 1.076-6.038.443-7.22 0l-.626-.234L21.77 68.823l.793.664c8.73 7.309 17.465 8.868 24.844 7.79zm-22.772-8.651l15.187-16.568c1.606.457 4.482.864 7.31.01l14.744 16.586c-3.131 2.705-8.387 5.735-14.755 6.665-6.614.967-14.474-.321-22.486-6.693zM9.655 47.428c1.072 7.336 4.741 13.28 7.83 16.54l.658.696 19.032-16.918-.238-.636c-1.075-2.868-.443-6.038 0-7.22l.235-.625L18.108 21.79l-.664.794c-7.309 8.729-8.868 17.464-7.79 24.844zm8.651-22.772l16.568 15.187c-.457 1.606-.864 4.482-.01 7.31L18.278 61.896c-2.705-3.13-5.735-8.387-6.665-14.755-.967-6.613.321-14.474 6.693-22.485zm58.949 15.411c-1.072-7.336-4.741-13.28-7.829-16.54l-.66-.696-19.03 16.919.238.636c1.076 2.868.443 6.038 0 7.22l-.234.625 19.063 17.475.664-.793c7.309-8.73 8.868-17.465 7.79-24.845zM68.604 62.84L52.036 47.652c.457-1.606.864-4.482.01-7.31l16.586-14.743c2.705 3.13 5.735 8.387 6.665 14.755.967 6.613-.321 14.474-6.693 22.485z" fill="#fff"/><path d="M120.155 63.782C113.031 55.075 96.41 51.58 88.99 50.92c15.434 2.374 24.569 11.872 27.207 16.324l-2.968 3.463 11.378 1.979-1.484-11.873-2.968 2.968zm0-38.585c-7.124 8.706-23.745 12.202-31.165 12.862 15.434-2.375 24.569-11.873 27.207-16.325l-2.968-3.463 11.378-1.978-1.484 11.872-2.968-2.968zm4.946 16.819l-37.595 2.968 37.595 2.473v3.463l9.399-6.925-9.399-5.442v3.463z" fill="#fff"/></svg>