<svg width="134" height="134" fill="none" xmlns="http://www.w3.org/2000/svg"><path d="M15.074 8.803h85.114v68.503c1.029-1.127 1.617-1.764 2.156-2.401 5.047-6.125 9.996-12.3 15.141-18.326.98-1.127 2.843-1.47 4.313-2.156.686-.343 1.47-.54 2.009-1.078 1.127-1.078 2.009-2.352 3.136-3.43 1.617-1.52 3.773-1.568 5.39-.294 1.666 1.323 2.107 3.577.931 5.488-.441.784-1.078 1.42-1.666 2.107-1.274 1.519-2.891 2.744-1.715 5.243.343.735-.588 2.254-1.225 3.234-.784 1.225-1.911 2.205-2.891 3.283 2.499 4.851 2.45 5.292-1.176 9.506l-10.879 12.642a35.315 35.315 0 01-1.911 2.058 103.367 103.367 0 00-2.156-1.813c2.842-3.332 5.586-6.517 8.33-9.75 1.863-2.157 3.774-4.313 5.587-6.518 1.225-1.47 1.176-1.666-.098-3.479-.539.49-1.078.931-1.519 1.47-6.861 7.546-13.721 15.092-20.483 22.736-.784.882-1.274 2.303-1.274 3.43-.098 6.763-.049 13.525-.049 20.679H91.27c-3.822.049-8.134-.98-11.368.392-3.136 1.323-5.194 5.243-7.89 7.84-.93.931-2.253 1.568-3.478 2.156-2.548 1.176-5.194 2.254-8.478 3.675 1.422-4.998 2.696-9.408 3.97-13.965H15.025c.049-37.24.049-74.09.049-111.232zm2.89 108.096c.54.098.785.147 1.03.147 15.73 0 31.507.049 47.237-.049.882 0 1.96-.686 2.548-1.372a3435.48 3435.48 0 0027-32.929c.832-1.029 1.371-2.597 1.371-3.92.098-21.462.05-42.925.05-64.387v-2.548H17.915c.049 35.085.049 69.973.049 105.058zm52.97 8.281c16.808-18.62 33.517-37.045 50.374-55.665-2.156-1.911-4.117-3.675-6.224-5.537-15.974 19.404-31.752 38.661-47.726 58.066a109.1 109.1 0 013.577 3.136zm11.418-8.33h14.651v-16.22c-4.998 5.538-9.653 10.732-14.651 16.22zm41.063-49.344c1.274-1.813 2.401-3.43 3.528-5.047-1.911-1.715-3.871-3.43-5.782-5.145-1.421 1.372-2.843 2.695-4.411 4.214 2.352 2.107 4.313 3.87 6.665 5.978zm3.528-9.408c1.225-1.47 2.45-2.744 3.479-4.165.294-.441.098-1.274.098-1.911-.637.098-1.519-.098-1.862.294-1.323 1.274-2.45 2.744-3.675 4.165a48.345 48.345 0 001.96 1.617zm-62.33 70.757c1.618-.735 2.647-1.176 4.019-1.764a76.03 76.03 0 01-2.891-2.499c-.441 1.47-.686 2.548-1.127 4.263z" fill="#fff"/><path d="M10.467 124.2h30.234v2.793H7.82V52.119a68.026 68.026 0 002.646-.196V124.2zm-.097-83.89H7.773V21.788c.833-.049 1.617-.147 2.597-.196V40.31zm29.596 58.41a244.02 244.02 0 01-.784 2.94c5.831-.588 10.045-4.313 14.994-6.322 1.372 3.038-1.372 4.607-2.058 7.498 1.225-.637 2.205-.98 2.892-1.568 1.224-1.078 2.303-2.303 3.43-3.48 1.813-1.813 3.38-3.282 6.615-2.694 2.89.538 6.174-.294 9.114-1.03 1.715-.44 2.597-.244 3.43 1.667-1.225.49-2.45 1.273-3.724 1.47-3.136.44-6.321.539-9.457 1.029-1.323.195-2.695.784-3.774 1.568-1.322.931-2.204 2.401-3.478 3.43-.98.833-2.107 1.617-3.284 2.009-3.185 1.078-4.753-.049-4.998-3.675-4.263 1.666-8.33 4.361-13.132 2.401 1.078-9.506 6.37-15.975 14.75-18.278 1.763-.49 3.674-.93 4.9.833 1.224 1.764.343 3.528-.785 4.95-3.479 4.311-8.28 6.418-13.426 8.036-.196.049-.44-.05-.686-.147-.098-.098-.196-.294-.539-.638zm13.28-10.34c-4.803-.049-10.683 3.97-11.712 7.988 4.46-1.813 8.722-3.528 11.711-7.988zm29.449-59.34v2.597H32.37V29.04h50.324zM32.37 57.608v-2.646h50.325v2.646H32.37zm50.373 10.486v2.499H32.37c-.049-.784-.098-1.519-.147-2.499h50.52zm-50.274-23.52c-.588-1.912-.196-2.696 1.813-2.696 15.484.05 30.968.05 46.501 0 2.01 0 2.45.784 1.813 2.696H32.47z" fill="#fff"/></svg>