<svg width="87" height="104" fill="none" xmlns="http://www.w3.org/2000/svg"><path fill-rule="evenodd" clip-rule="evenodd" d="M43.243.508l20.039 34.648.017.035c6.454 13.487 5.234 22.248.174 27.727-4.938 5.345-13.24 7.199-20.12 7.661l-.05.004-.051-.002c-6.723-.234-11.7-1.757-15.257-4.19-3.572-2.443-5.636-5.753-6.601-9.403-1.912-7.229.48-15.76 3.72-21.833l.002-.003L43.243.508zm.087 4.147L26.88 36.093c-3.127 5.859-5.281 13.846-3.553 20.383.855 3.233 2.659 6.119 5.797 8.265 3.146 2.15 7.704 3.608 14.146 3.84 6.762-.462 14.356-2.282 18.734-7.02 4.261-4.614 5.77-12.364-.493-25.472L43.331 4.655z" fill="#fff"/><path d="M58.501 46.954C60.3 57 50.111 61.873 47.713 61.568c5.035-2.922 1.798-6.394 3.596-11.874.72-3.654 5.095-3.35 7.192-2.74z" fill="#fff"/><path fill-rule="evenodd" clip-rule="evenodd" d="M67.086 95.441c-1.694.41-3.185 1.873-4.034 3.184l-.027.042-.032.04c-2.602 3.252-5.464 4.064-8.03 3.542-2.452-.499-4.438-2.177-5.529-3.54-2.42-2.976-4.601-3.418-6.269-3.05-1.786.392-3.295 1.778-4.128 2.99l-.017.023-.018.024c-2.944 3.785-5.896 4.836-8.508 4.181-2.44-.613-4.21-2.638-5.12-4.247-1.112-1.468-2.175-2.29-3.127-2.707a4.178 4.178 0 00-2.674-.266c-1.709.39-3.197 1.77-4.036 2.991l-.01.014-.01.013c-1.469 1.995-2.98 3.275-4.502 3.968-1.537.7-3.029.776-4.387.448-2.655-.639-4.69-2.781-5.76-4.475l1.69-1.068c.93 1.472 2.594 3.131 4.539 3.599.942.227 1.975.183 3.089-.324 1.125-.512 2.385-1.524 3.712-3.322.996-1.443 2.854-3.252 5.23-3.794a6.177 6.177 0 013.922.384c1.357.594 2.688 1.691 3.963 3.39l.04.055.034.06c.767 1.382 2.182 2.911 3.894 3.341 1.568.393 3.777-.052 6.425-3.447 1.005-1.451 2.888-3.248 5.33-3.785 2.573-.566 5.474.326 8.253 3.746l.005.006c.91 1.137 2.522 2.457 4.368 2.832 1.727.352 3.852-.081 6.04-2.795.992-1.515 2.838-3.421 5.213-3.997 1.23-.298 2.579-.23 3.956.411 1.35.63 2.67 1.782 3.93 3.557.913 1.052 2.49 2.263 4.255 2.611a4.769 4.769 0 002.718-.234c.933-.368 1.94-1.09 2.952-2.378L86 98.7c-1.188 1.512-2.468 2.481-3.791 3.003a6.76 6.76 0 01-3.838.335c-2.367-.466-4.325-2.032-5.417-3.305l-.03-.036-.027-.039c-1.131-1.602-2.211-2.49-3.17-2.937-.943-.439-1.825-.477-2.64-.28z" fill="#fff"/><path fill-rule="evenodd" clip-rule="evenodd" d="M68.086 88.695c-1.694.411-3.185 1.873-4.034 3.184l-.027.043-.032.039c-2.602 3.252-5.464 4.065-8.03 3.543-2.452-.5-4.438-2.178-5.529-3.54-2.42-2.977-4.601-3.418-6.269-3.051-1.786.393-3.295 1.778-4.128 2.99l-.017.024-.018.023c-2.944 3.785-5.896 4.837-8.508 4.181-2.44-.612-4.21-2.638-5.12-4.247-1.112-1.468-2.175-2.29-3.127-2.707a4.178 4.178 0 00-2.674-.266c-1.709.39-3.197 1.77-4.036 2.992l-.01.013-.01.013c-1.469 1.995-2.98 3.275-4.502 3.969-1.537.7-3.029.775-4.387.448-2.655-.64-4.69-2.782-5.76-4.476l1.69-1.068c.93 1.472 2.594 3.13 4.539 3.6.942.226 1.975.183 3.089-.324 1.125-.513 2.385-1.525 3.712-3.323.996-1.443 2.854-3.252 5.23-3.794a6.178 6.178 0 013.922.384c1.357.595 2.688 1.692 3.963 3.391l.04.055.034.06c.767 1.38 2.182 2.91 3.894 3.34 1.568.394 3.777-.052 6.425-3.447 1.005-1.45 2.888-3.247 5.33-3.784 2.573-.567 5.474.325 8.253 3.746l.005.005c.91 1.138 2.522 2.457 4.368 2.833 1.727.351 3.852-.081 6.04-2.795.992-1.515 2.838-3.422 5.213-3.997 1.23-.298 2.579-.23 3.956.41 1.35.63 2.67 1.782 3.93 3.557.913 1.053 2.49 2.264 4.255 2.611a4.764 4.764 0 002.718-.233c.933-.368 1.94-1.09 2.952-2.379L87 91.954c-1.188 1.512-2.468 2.482-3.791 3.003a6.764 6.764 0 01-3.838.335c-2.367-.465-4.325-2.032-5.417-3.305l-.03-.036-.027-.038c-1.131-1.602-2.211-2.491-3.17-2.938-.943-.439-1.825-.477-2.64-.28z" fill="#fff"/><path fill-rule="evenodd" clip-rule="evenodd" d="M68.086 81.695c-1.694.411-3.185 1.873-4.034 3.184l-.027.043-.032.039c-2.602 3.252-5.464 4.065-8.03 3.543-2.452-.5-4.438-2.178-5.529-3.54-2.42-2.977-4.601-3.418-6.269-3.051-1.786.393-3.295 1.778-4.128 2.99l-.017.024-.018.023c-2.944 3.785-5.896 4.837-8.508 4.181-2.44-.612-4.21-2.638-5.12-4.247-1.112-1.468-2.175-2.29-3.127-2.707a4.178 4.178 0 00-2.674-.266c-1.709.39-3.197 1.77-4.036 2.992l-.01.013-.01.013c-1.469 1.995-2.98 3.275-4.502 3.969-1.537.7-3.029.775-4.387.448-2.655-.64-4.69-2.782-5.76-4.476l1.69-1.068c.93 1.472 2.594 3.13 4.539 3.6.942.226 1.975.183 3.089-.324 1.125-.513 2.385-1.525 3.712-3.323.996-1.443 2.854-3.252 5.23-3.794a6.178 6.178 0 013.922.384c1.357.595 2.688 1.692 3.963 3.391l.04.055.034.06c.767 1.38 2.182 2.91 3.894 3.34 1.568.394 3.777-.052 6.425-3.447 1.005-1.45 2.888-3.247 5.33-3.784 2.573-.567 5.474.325 8.253 3.746l.005.005c.91 1.138 2.522 2.457 4.368 2.833 1.727.351 3.852-.081 6.04-2.795.992-1.515 2.838-3.422 5.213-3.997 1.23-.298 2.579-.23 3.956.41 1.35.63 2.67 1.782 3.93 3.557.913 1.053 2.49 2.264 4.255 2.611a4.764 4.764 0 002.718-.233c.933-.368 1.94-1.09 2.952-2.379L87 84.954c-1.188 1.512-2.468 2.482-3.791 3.003a6.764 6.764 0 01-3.838.335c-2.367-.465-4.325-2.032-5.417-3.305l-.03-.036-.027-.038c-1.131-1.602-2.211-2.491-3.17-2.938-.943-.439-1.825-.477-2.64-.28z" fill="#fff"/><path fill-rule="evenodd" clip-rule="evenodd" d="M68.086 75.695c-1.694.411-3.185 1.873-4.034 3.184l-.027.043-.032.039c-2.602 3.252-5.464 4.065-8.03 3.543-2.452-.5-4.438-2.178-5.529-3.54-2.42-2.977-4.601-3.418-6.269-3.051-1.786.393-3.295 1.778-4.128 2.99l-.017.024-.018.023c-2.944 3.785-5.896 4.837-8.508 4.181-2.44-.612-4.21-2.638-5.12-4.247-1.112-1.468-2.175-2.29-3.127-2.707a4.178 4.178 0 00-2.674-.266c-1.709.39-3.197 1.77-4.036 2.992l-.01.013-.01.013c-1.469 1.995-2.98 3.275-4.502 3.969-1.537.7-3.029.775-4.387.448-2.655-.64-4.69-2.782-5.76-4.476l1.69-1.068c.93 1.472 2.594 3.13 4.539 3.6.942.226 1.975.183 3.089-.324 1.125-.513 2.385-1.525 3.712-3.323.996-1.443 2.854-3.252 5.23-3.794a6.178 6.178 0 013.922.384c1.357.595 2.688 1.692 3.963 3.391l.04.055.034.06c.767 1.38 2.182 2.91 3.894 3.34 1.568.394 3.777-.052 6.425-3.447 1.005-1.45 2.888-3.247 5.33-3.784 2.573-.567 5.474.325 8.253 3.746l.005.005c.91 1.138 2.522 2.457 4.368 2.833 1.727.351 3.852-.081 6.04-2.795.992-1.515 2.838-3.422 5.213-3.997 1.23-.298 2.579-.23 3.956.41 1.35.63 2.67 1.782 3.93 3.557.913 1.053 2.49 2.264 4.255 2.611a4.764 4.764 0 002.718-.233c.933-.368 1.94-1.09 2.952-2.379L87 78.954c-1.188 1.512-2.468 2.482-3.791 3.003a6.764 6.764 0 01-3.838.335c-2.367-.465-4.325-2.032-5.417-3.305l-.03-.036-.027-.038c-1.131-1.602-2.211-2.491-3.17-2.938-.943-.439-1.825-.477-2.64-.28z" fill="#fff"/><path fill-rule="evenodd" clip-rule="evenodd" d="M34.697 73.382c-1.463.97-2.719 1.06-3.716.81-1.712-.43-3.127-1.96-3.894-3.341l-.033-.06-.041-.055c-1.275-1.7-2.606-2.796-3.963-3.39a6.178 6.178 0 00-3.922-.385c-2.376.542-4.234 2.351-5.23 3.794-1.327 1.798-2.587 2.81-3.712 3.323-1.114.507-2.147.55-3.09.323-1.944-.468-3.608-2.127-4.538-3.599L.868 71.87c1.07 1.694 3.105 3.836 5.76 4.476 1.358.327 2.85.252 4.387-.448 1.522-.694 3.033-1.974 4.503-3.969l.01-.013.009-.013c.84-1.222 2.327-2.602 4.036-2.992a4.178 4.178 0 012.674.266c.952.417 2.015 1.239 3.126 2.707.91 1.609 2.682 3.635 5.121 4.247 2.107.529 4.435-.053 6.802-2.285l-2.6-.464zm16.235.1c1.076.896 2.458 1.701 4.031 2.022 2.566.522 5.428-.29 8.03-3.543l.032-.04.027-.042c.849-1.31 2.34-2.773 4.034-3.184.815-.197 1.697-.159 2.64.28.959.447 2.039 1.336 3.17 2.938l.027.038.03.036c1.092 1.273 3.05 2.84 5.417 3.305a6.764 6.764 0 003.838-.335c1.323-.521 2.603-1.491 3.791-3.003l-1.573-1.236c-1.012 1.288-2.019 2.01-2.952 2.379a4.764 4.764 0 01-2.718.233c-1.765-.347-3.341-1.558-4.255-2.61-1.26-1.776-2.58-2.928-3.93-3.558-1.377-.64-2.726-.709-3.956-.41-2.375.575-4.221 2.482-5.213 3.997-2.188 2.714-4.313 3.146-6.04 2.795a6.47 6.47 0 01-1.817-.685l-2.613.623z" fill="#fff"/></svg>