<svg width="132" height="92" viewBox="0 0 132 92" fill="none" xmlns="http://www.w3.org/2000/svg">
<path fill-rule="evenodd" clip-rule="evenodd" d="M72.5367 37.0371C72.0113 37.1755 71.5187 37.6849 71.2283 38.1725L71.2158 38.1935L71.2013 38.2131C70.746 38.8315 70.2554 39.2399 69.7409 39.4631C69.2215 39.6883 68.7095 39.7108 68.2423 39.6076C67.3344 39.4068 66.6169 38.74 66.2296 38.2146C65.8137 37.659 65.4297 37.3599 65.1021 37.2123C64.7814 37.0678 64.4901 37.0567 64.225 37.1201C63.6657 37.2538 63.1685 37.7374 62.8859 38.184L62.8783 38.1961L62.87 38.2077C61.8358 39.6522 60.7479 40.1183 59.7358 39.8423C58.8256 39.5941 58.1878 38.7891 57.8666 38.1752C57.49 37.6364 57.1398 37.3491 56.843 37.2078C56.5501 37.0684 56.2816 37.0574 56.0326 37.1191C55.5005 37.251 55.0101 37.7322 54.7242 38.184L54.72 38.1907L54.7155 38.1973C54.1982 38.9601 53.6564 39.4648 53.0952 39.7425C52.5236 40.0255 51.9611 40.0579 51.4488 39.9237C50.4628 39.6657 49.7306 38.8148 49.3545 38.1679L50.219 37.6653C50.5375 38.2133 51.0903 38.7962 51.702 38.9563C51.9885 39.0313 52.3029 39.0189 52.6516 38.8463C53.0097 38.6691 53.4302 38.3092 53.8837 37.6422C54.2358 37.0887 54.9069 36.3678 55.7921 36.1485C56.2536 36.0341 56.7601 36.0608 57.2729 36.305C57.7771 36.545 58.257 36.9804 58.7072 37.6326L58.7259 37.6597L58.7409 37.689C59.004 38.2035 59.4715 38.7337 59.9988 38.8775C60.4383 38.9973 61.142 38.8983 62.049 37.6365C62.4054 37.0787 63.0856 36.3643 63.9925 36.1475C64.464 36.0348 64.9824 36.0615 65.5129 36.3006C66.0363 36.5364 66.5448 36.9664 67.0315 37.6172L67.0337 37.6202C67.3413 38.0379 67.8735 38.5019 68.4582 38.6311C68.7376 38.6929 69.0331 38.68 69.343 38.5457C69.6538 38.4108 70.0093 38.1403 70.3825 37.6386C70.7325 37.0598 71.3977 36.3029 72.282 36.0701C72.7502 35.9468 73.2638 35.9763 73.7806 36.2377C74.2815 36.4911 74.7552 36.9465 75.1987 37.6238C75.5069 38.0079 76.0245 38.4311 76.5817 38.5502C76.8522 38.6081 77.1321 38.5951 77.4188 38.4723C77.7092 38.3479 78.0397 38.0964 78.3816 37.6236L79.1919 38.2096C78.7698 38.7934 78.3058 39.1802 77.8126 39.3915C77.3157 39.6043 76.8228 39.6244 76.3726 39.5281C75.4967 39.3409 74.7883 38.7182 74.4002 38.2263L74.386 38.2083L74.3735 38.1891C73.9873 37.5947 73.629 37.2817 73.3292 37.1301C73.0404 36.9839 72.779 36.9733 72.5367 37.0371Z" fill="white"/>
<path fill-rule="evenodd" clip-rule="evenodd" d="M76.3356 13.0553C75.5643 13.2566 74.8715 13.9812 74.4719 14.6463L74.4593 14.6673L74.4447 14.687C73.8452 15.4941 73.2078 16.0159 72.5506 16.2985C71.8889 16.583 71.2386 16.6113 70.6434 16.4809C69.4791 16.2257 68.5459 15.3714 68.0383 14.6885C67.4671 13.9317 66.9293 13.5105 66.4546 13.2984C65.9866 13.0893 65.5547 13.0718 65.1617 13.1649C64.3474 13.3579 63.6469 14.0442 63.2552 14.6579L63.2475 14.67L63.2391 14.6816C61.8685 16.5797 60.4718 17.1365 59.2119 16.7958C58.0516 16.4822 57.2219 15.4514 56.8005 14.6487C56.2805 13.9087 55.7864 13.4996 55.3508 13.294C54.9184 13.0899 54.5154 13.0724 54.143 13.1639C53.3649 13.3551 52.6742 14.0389 52.2791 14.6579L52.2748 14.6646L52.2703 14.6712C51.5849 15.6731 50.8768 16.3216 50.1571 16.6748C49.4274 17.0329 48.7147 17.0725 48.0656 16.904C46.8051 16.5769 45.851 15.4885 45.3545 14.6418L46.2171 14.136C46.6548 14.8823 47.4288 15.7056 48.3168 15.9361C48.742 16.0464 49.2086 16.0263 49.7166 15.777C50.2335 15.5234 50.8199 15.0187 51.4407 14.1129C51.9031 13.3913 52.775 12.4703 53.9044 12.1928C54.4875 12.0495 55.1266 12.0824 55.7777 12.3897C56.4206 12.6932 57.0449 13.2496 57.6393 14.1031L57.6581 14.1303L57.6733 14.1597C58.0355 14.862 58.6941 15.62 59.4729 15.8305C60.1654 16.0177 61.179 15.8211 62.4203 14.1073C62.887 13.3814 63.771 12.4668 64.9311 12.1919C65.5288 12.0502 66.1857 12.083 66.8625 12.3854C67.5323 12.6846 68.1949 13.2356 68.8377 14.0878L68.8399 14.0907C69.2667 14.6653 70.0144 15.3192 70.8575 15.5041C71.2666 15.5937 71.7022 15.5748 72.1556 15.3798C72.6095 15.1847 73.1114 14.7998 73.6279 14.1095C74.0882 13.3523 74.9542 12.3824 76.083 12.0877C76.6727 11.9338 77.3189 11.9697 77.9741 12.2983C78.6139 12.6192 79.232 13.2035 79.8195 14.0946C80.2473 14.6255 80.9773 15.2256 81.7835 15.3964C82.179 15.4803 82.593 15.4617 83.0155 15.2823C83.4413 15.1014 83.9086 14.743 84.3819 14.0942L85.1898 14.6835C84.6355 15.4434 84.0343 15.936 83.4064 16.2027C82.775 16.4709 82.1498 16.4963 81.5761 16.3747C80.4527 16.1366 79.5317 15.3391 79.0233 14.7002L79.009 14.6822L78.9964 14.6629C78.4669 13.855 77.9646 13.4123 77.5257 13.1921C77.0974 12.9773 76.7014 12.9598 76.3356 13.0553Z" fill="white"/>
<path fill-rule="evenodd" clip-rule="evenodd" d="M72.5855 34.63C72.3369 34.923 72.1269 35.2747 71.9772 35.5986L71.9682 35.6182L71.9575 35.6369C71.5 36.4376 71.003 36.9761 70.4672 37.2756C69.9164 37.5835 69.361 37.6179 68.8534 37.4733C67.8919 37.1994 67.16 36.3053 66.7787 35.6384C66.3358 34.8755 65.9286 34.4699 65.5917 34.2743C65.2722 34.0887 64.9979 34.0798 64.7499 34.1562C64.4828 34.2385 64.2114 34.4324 63.9575 34.7086C63.7063 34.9817 63.4969 35.3089 63.3494 35.6092L63.3439 35.6206L63.3377 35.6317C62.8153 36.5721 62.282 37.2 61.731 37.551C61.1574 37.9163 60.5781 37.9708 60.0492 37.7849C59.5477 37.6087 59.1438 37.2353 58.8379 36.8419C58.5348 36.4522 58.2985 36.0051 58.1355 35.6008C57.731 34.8521 57.3556 34.4573 57.0472 34.268C56.7559 34.0893 56.5063 34.0811 56.2758 34.1547C56.0233 34.2353 55.7602 34.4272 55.5098 34.7049C55.2628 34.9789 55.0545 35.3073 54.9063 35.6092L54.9001 35.6218L54.9 35.6217C54.3771 36.6154 53.8281 37.2779 53.2489 37.6474C52.6469 38.0314 52.0359 38.0823 51.4773 37.8938C50.9443 37.714 50.5001 37.3313 50.1544 36.9207C49.8047 36.5053 49.5257 36.0259 49.3311 35.5944L50.2426 35.1833C50.4073 35.5484 50.6403 35.9452 50.9193 36.2766C51.2023 36.6127 51.5037 36.8474 51.797 36.9463C52.0647 37.0366 52.3609 37.0278 52.711 36.8044C53.0831 36.5671 53.53 36.0762 54.0119 35.162C54.1928 34.7948 54.449 34.3881 54.7671 34.0353C55.0837 33.6842 55.4889 33.3562 55.9715 33.2021C56.4761 33.0409 57.0281 33.083 57.5702 33.4157C58.092 33.7359 58.5771 34.3073 59.03 35.1528L59.0435 35.1779L59.054 35.2045C59.1901 35.5476 59.3871 35.9191 59.6273 36.228C59.8715 36.5421 60.1307 36.7536 60.3808 36.8415C60.6034 36.9197 60.8639 36.9176 61.1938 36.7075C61.5447 36.484 61.9764 36.0205 62.4576 35.1567C62.6392 34.7893 62.8978 34.3836 63.2214 34.0317C63.5456 33.679 63.9606 33.353 64.4555 33.2006C64.9695 33.0422 65.5327 33.0836 66.0939 33.4095C66.6374 33.7252 67.1535 34.2919 67.6445 35.1379L67.6461 35.1408C67.9836 35.7316 68.5448 36.3456 69.1274 36.5116C69.3924 36.5871 69.6722 36.5744 69.9792 36.4027C70.2985 36.2243 70.6779 35.8557 71.079 35.1587C71.2581 34.7753 71.5103 34.3515 71.8231 33.9829C72.1372 33.6128 72.5423 33.2631 73.0289 33.098C73.542 32.9239 74.1027 32.971 74.6477 33.3264C75.1651 33.6638 75.6443 34.2619 76.0919 35.1446C76.4284 35.6877 76.9739 36.2502 77.5304 36.4036C77.7869 36.4742 78.051 36.4609 78.3337 36.3048C78.6301 36.1412 78.9829 35.7999 79.3508 35.1442L80.2229 35.6335C79.8004 36.3866 79.3313 36.8963 78.8171 37.1802C78.2891 37.4717 77.7538 37.5024 77.2648 37.3676C76.3361 37.1117 75.6116 36.2755 75.2287 35.6499L75.2179 35.6323L75.2086 35.6139C74.7967 34.7967 74.4138 34.3676 74.1015 34.164C73.8131 33.976 73.5721 33.9697 73.3502 34.045C73.1018 34.1293 72.8384 34.332 72.5855 34.63Z" fill="white"/>
<path fill-rule="evenodd" clip-rule="evenodd" d="M76.3356 11.0553C75.5643 11.2566 74.8715 11.9812 74.4719 12.6463L74.4593 12.6673L74.4447 12.687C73.8452 13.4941 73.2078 14.0159 72.5506 14.2985C71.8889 14.583 71.2386 14.6113 70.6434 14.4809C69.4791 14.2257 68.5459 13.3714 68.0383 12.6885C67.4671 11.9317 66.9293 11.5105 66.4546 11.2984C65.9866 11.0893 65.5547 11.0718 65.1617 11.1649C64.3474 11.3579 63.6469 12.0442 63.2552 12.6579L63.2475 12.67L63.2391 12.6816C61.8685 14.5797 60.4718 15.1365 59.2119 14.7958C58.0516 14.4822 57.2219 13.4514 56.8005 12.6487C56.2805 11.9087 55.7864 11.4996 55.3508 11.294C54.9184 11.0899 54.5154 11.0724 54.143 11.1639C53.3649 11.3551 52.6742 12.0389 52.2791 12.6579L52.2748 12.6646L52.2703 12.6712C51.5849 13.6731 50.8768 14.3216 50.1571 14.6748C49.4274 15.0329 48.7147 15.0725 48.0656 14.904C46.8051 14.5769 45.851 13.4885 45.3545 12.6418L46.2171 12.136C46.6548 12.8823 47.4288 13.7056 48.3168 13.9361C48.742 14.0464 49.2086 14.0263 49.7166 13.777C50.2335 13.5234 50.8199 13.0187 51.4407 12.1129C51.9031 11.3913 52.775 10.4703 53.9044 10.1928C54.4875 10.0495 55.1266 10.0824 55.7777 10.3897C56.4206 10.6932 57.0449 11.2496 57.6393 12.1031L57.6581 12.1303L57.6733 12.1597C58.0355 12.862 58.6941 13.62 59.4729 13.8305C60.1654 14.0177 61.179 13.8211 62.4203 12.1073C62.887 11.3814 63.771 10.4668 64.9311 10.1919C65.5288 10.0502 66.1857 10.083 66.8625 10.3854C67.5323 10.6846 68.1949 11.2356 68.8377 12.0878L68.8399 12.0907C69.2667 12.6653 70.0144 13.3192 70.8575 13.5041C71.2666 13.5937 71.7022 13.5748 72.1556 13.3798C72.6095 13.1847 73.1114 12.7998 73.6279 12.1095C74.0882 11.3523 74.9542 10.3824 76.083 10.0877C76.6727 9.93375 77.3189 9.96967 77.9741 10.2983C78.6139 10.6192 79.232 11.2035 79.8195 12.0946C80.2473 12.6255 80.9773 13.2256 81.7835 13.3964C82.179 13.4803 82.593 13.4617 83.0155 13.2823C83.4413 13.1014 83.9086 12.743 84.3819 12.0942L85.1898 12.6835C84.6355 13.4434 84.0343 13.936 83.4064 14.2027C82.775 14.4709 82.1498 14.4963 81.5761 14.3747C80.4527 14.1366 79.5317 13.3391 79.0233 12.7002L79.009 12.6822L78.9964 12.6629C78.4669 11.855 77.9646 11.4123 77.5257 11.1921C77.0974 10.9773 76.7014 10.9598 76.3356 11.0553Z" fill="white"/>
<path fill-rule="evenodd" clip-rule="evenodd" d="M73.3129 32.0382C72.7593 32.1791 72.248 32.6939 71.9491 33.1789L71.9361 33.2L71.9212 33.2196C71.4498 33.8383 70.9439 34.2444 70.4166 34.4655C69.8854 34.6882 69.3629 34.7102 68.886 34.6083C67.9565 34.4097 67.217 33.7477 66.8155 33.2212C65.9665 32.1246 65.2371 32.0004 64.7153 32.121C64.1266 32.257 63.61 32.746 63.319 33.1905L63.3111 33.2026L63.3025 33.2142C62.2304 34.6618 61.114 35.1139 60.0876 34.8434C59.1565 34.5979 58.498 33.7985 58.164 33.1817C57.7748 32.6434 57.4113 32.354 57.0997 32.2106C56.7906 32.0683 56.505 32.0566 56.2402 32.12C55.6797 32.2543 55.1703 32.7408 54.8759 33.1905L54.8715 33.1972L54.8668 33.2038C54.3312 33.9673 53.7719 34.4698 53.1958 34.7455C52.6106 35.0255 52.0369 35.0569 51.5145 34.9248C50.5048 34.6693 49.749 33.8239 49.3584 33.1743L50.2154 32.659C50.5433 33.2042 51.1169 33.7926 51.7598 33.9553C52.0638 34.0322 52.3973 34.0189 52.7642 33.8434C53.139 33.6641 53.5752 33.302 54.0439 32.6357C54.4094 32.0802 55.1015 31.3645 56.0072 31.1475C56.4774 31.0349 56.9935 31.0609 57.5178 31.3022C58.0348 31.5402 58.53 31.9733 58.9962 32.6261L59.0156 32.6533L59.0312 32.6828C59.3016 33.194 59.7864 33.7298 60.3425 33.8764C60.8176 34.0016 61.5547 33.8888 62.4907 32.63C62.8607 32.0703 63.562 31.3611 64.4902 31.1466C65.4921 30.9151 66.5887 31.2938 67.6075 32.6107L67.6098 32.6137C67.9271 33.0302 68.4805 33.4991 69.095 33.6304C69.3905 33.6935 69.7034 33.6802 70.0299 33.5433C70.3564 33.4064 70.7257 33.1336 71.1115 32.6321C71.4751 32.051 72.1614 31.2994 73.0662 31.0691C73.5429 30.9477 74.0658 30.9763 74.5943 31.2347C75.1081 31.486 75.597 31.9393 76.0563 32.6173C76.3747 33.0008 76.9132 33.4285 77.4989 33.5495C77.7848 33.6086 78.0814 33.5953 78.3841 33.4699C78.6896 33.3434 79.0331 33.0896 79.3865 32.6171L80.1872 33.2162C79.7503 33.8002 79.2719 34.1847 78.7667 34.3938C78.2588 34.6042 77.756 34.6238 77.2965 34.5288C76.3997 34.3435 75.6699 33.7255 75.2678 33.2328L75.2531 33.2148L75.2402 33.1956C74.8412 32.602 74.4695 32.2869 74.155 32.1331C73.85 31.9839 73.5713 31.9724 73.3129 32.0382Z" fill="white"/>
<path fill-rule="evenodd" clip-rule="evenodd" d="M76.3356 9.05527C75.5643 9.25663 74.8715 9.98125 74.4719 10.6463L74.4593 10.6673L74.4447 10.687C73.8452 11.4941 73.2078 12.0159 72.5506 12.2985C71.8889 12.583 71.2386 12.6113 70.6434 12.4809C69.4791 12.2257 68.5459 11.3714 68.0383 10.6885C67.4671 9.9317 66.9293 9.51047 66.4546 9.2984C65.9866 9.08929 65.5547 9.07179 65.1617 9.16491C64.3474 9.35791 63.6469 10.0442 63.2552 10.6579L63.2475 10.67L63.2391 10.6816C61.8685 12.5797 60.4718 13.1365 59.2119 12.7958C58.0516 12.4822 57.2219 11.4514 56.8005 10.6487C56.2805 9.90871 55.7864 9.49963 55.3508 9.29403C54.9184 9.08992 54.5154 9.07243 54.143 9.16393C53.3649 9.3551 52.6742 10.0389 52.2791 10.6579L52.2748 10.6646L52.2703 10.6712C51.5849 11.6731 50.8768 12.3216 50.1571 12.6748C49.4274 13.0329 48.7147 13.0725 48.0656 12.904C46.8051 12.5769 45.851 11.4885 45.3545 10.6418L46.2171 10.136C46.6548 10.8823 47.4288 11.7056 48.3168 11.9361C48.742 12.0464 49.2086 12.0263 49.7166 11.777C50.2335 11.5234 50.8199 11.0187 51.4407 10.1129C51.9031 9.39126 52.775 8.47029 53.9044 8.19281C54.4875 8.04955 55.1266 8.08237 55.7777 8.38972C56.4206 8.6932 57.0449 9.24962 57.6393 10.1031L57.6581 10.1303L57.6733 10.1597C58.0355 10.862 58.6941 11.62 59.4729 11.8305C60.1654 12.0177 61.179 11.8211 62.4203 10.1073C62.887 9.38142 63.771 8.46682 64.9311 8.19187C65.5288 8.05022 66.1857 8.08302 66.8625 8.38538C67.5323 8.68464 68.1949 9.23564 68.8377 10.0878L68.8399 10.0907C69.2667 10.6653 70.0144 11.3192 70.8575 11.5041C71.2666 11.5937 71.7022 11.5748 72.1556 11.3798C72.6095 11.1847 73.1114 10.7998 73.6279 10.1095C74.0882 9.35226 74.9542 8.38238 76.083 8.0877C76.6727 7.93375 77.3189 7.96967 77.9741 8.29827C78.6139 8.61918 79.232 9.20346 79.8195 10.0946C80.2473 10.6255 80.9773 11.2256 81.7835 11.3964C82.179 11.4803 82.593 11.4617 83.0155 11.2823C83.4413 11.1014 83.9086 10.743 84.3819 10.0942L85.1898 10.6835C84.6355 11.4434 84.0343 11.936 83.4064 12.2027C82.775 12.4709 82.1498 12.4963 81.5761 12.3747C80.4527 12.1366 79.5317 11.3391 79.0233 10.7002L79.009 10.6822L78.9964 10.6629C78.4669 9.85499 77.9646 9.41225 77.5257 9.19214C77.0974 8.97731 76.7014 8.95978 76.3356 9.05527Z" fill="white"/>
<path fill-rule="evenodd" clip-rule="evenodd" d="M24.2869 0H32.7869V6.41724L46.9674 91.5H10.1064L24.2869 6.41724V0ZM26.2869 2V6.58276L12.4674 89.5H44.6064L30.7869 6.58276V2H26.2869Z" fill="white"/>
<path fill-rule="evenodd" clip-rule="evenodd" d="M98.2869 0H106.787V6.41724L120.967 91.5H84.1064L98.2869 6.41724V0ZM100.287 2V6.58276L86.4674 89.5H118.606L104.787 6.58276V2H100.287Z" fill="white"/>
<path fill-rule="evenodd" clip-rule="evenodd" d="M43.1256 8.5H12.2871V6.5H48.4485L24.4485 27.5H54.1631L20.6631 54H57.5744L12.9228 90.7719L11.6514 89.2281L51.9997 56H14.9111L48.4111 29.5H19.1256L43.1256 8.5Z" fill="white"/>
<path fill-rule="evenodd" clip-rule="evenodd" d="M117.126 8.5H86.2871V6.5H122.449L98.4485 27.5H128.163L94.6631 54H131.574L86.9228 90.7719L85.6514 89.2281L126 56H88.9111L122.411 29.5H93.1256L117.126 8.5Z" fill="white"/>
<path fill-rule="evenodd" clip-rule="evenodd" d="M14.4486 8.5H45.2871V6.5H9.12569L33.1257 27.5H3.41114L36.9111 54H-0.00019455L44.6514 90.7719L45.9229 89.2281L5.57448 56H42.6632L9.16315 29.5H38.4486L14.4486 8.5Z" fill="white"/>
<path fill-rule="evenodd" clip-rule="evenodd" d="M88.4486 8.5H119.287V6.5H83.1257L107.126 27.5H77.4111L110.911 54H73.9998L118.651 90.7719L119.923 89.2281L79.5745 56H116.663L83.1632 29.5H112.449L88.4486 8.5Z" fill="white"/>
<path fill-rule="evenodd" clip-rule="evenodd" d="M15.4131 54.5H40.4488L30.1821 61.7145L39.3314 67.6616L38.2415 69.3384L28.4187 62.9536L19.3614 69.3182L18.2115 67.6818L26.6116 61.779L15.4131 54.5ZM28.375 60.5399L34.1241 56.5H22.1598L28.375 60.5399Z" fill="white"/>
<path fill-rule="evenodd" clip-rule="evenodd" d="M89.4131 54.5H114.449L104.182 61.7145L113.331 67.6616L112.241 69.3384L102.419 62.9536L93.3614 69.3182L92.2115 67.6818L100.612 61.779L89.4131 54.5ZM102.375 60.5399L108.124 56.5H96.1598L102.375 60.5399Z" fill="white"/>
<path fill-rule="evenodd" clip-rule="evenodd" d="M17.5674 27.5H38.6089L30.1944 33.754L37.3536 38.676L36.2205 40.324L28.498 35.0148L21.3836 40.3026L20.1905 38.6974L26.7563 33.8174L17.5674 27.5ZM28.4527 32.5566L32.5652 29.5H24.0067L28.4527 32.5566Z" fill="white"/>
<path fill-rule="evenodd" clip-rule="evenodd" d="M91.5674 27.5H112.609L104.194 33.754L111.354 38.676L110.221 40.324L102.498 35.0148L95.3836 40.3026L94.1905 38.6974L100.756 33.8174L91.5674 27.5ZM102.453 32.5566L106.565 29.5H98.0067L102.453 32.5566Z" fill="white"/>
<path fill-rule="evenodd" clip-rule="evenodd" d="M15.7861 24.5V28H14.7861V24.5H15.7861Z" fill="white"/>
<path fill-rule="evenodd" clip-rule="evenodd" d="M13.2861 24.5V28H12.2861V24.5H13.2861Z" fill="white"/>
<path fill-rule="evenodd" clip-rule="evenodd" d="M89.7861 24.5V28H88.7861V24.5H89.7861Z" fill="white"/>
<path fill-rule="evenodd" clip-rule="evenodd" d="M87.2861 24.5V28H86.2861V24.5H87.2861Z" fill="white"/>
<path fill-rule="evenodd" clip-rule="evenodd" d="M45.7861 24.5V28H44.7861V24.5H45.7861Z" fill="white"/>
<path fill-rule="evenodd" clip-rule="evenodd" d="M43.2861 24.5V28H42.2861V24.5H43.2861Z" fill="white"/>
<path fill-rule="evenodd" clip-rule="evenodd" d="M119.786 24.5V28H118.786V24.5H119.786Z" fill="white"/>
<path fill-rule="evenodd" clip-rule="evenodd" d="M117.286 24.5V28H116.286V24.5H117.286Z" fill="white"/>
<path fill-rule="evenodd" clip-rule="evenodd" d="M42.7861 3.5V7H41.7861V3.5H42.7861Z" fill="white"/>
<path fill-rule="evenodd" clip-rule="evenodd" d="M40.2861 3.5V7H39.2861V3.5H40.2861Z" fill="white"/>
<path fill-rule="evenodd" clip-rule="evenodd" d="M116.786 3.5V7H115.786V3.5H116.786Z" fill="white"/>
<path fill-rule="evenodd" clip-rule="evenodd" d="M114.286 3.5V7H113.286V3.5H114.286Z" fill="white"/>
<path fill-rule="evenodd" clip-rule="evenodd" d="M17.7861 3.5V7H16.7861V3.5H17.7861Z" fill="white"/>
<path fill-rule="evenodd" clip-rule="evenodd" d="M15.2861 3.5V7H14.2861V3.5H15.2861Z" fill="white"/>
<path fill-rule="evenodd" clip-rule="evenodd" d="M91.7861 3.5V7H90.7861V3.5H91.7861Z" fill="white"/>
<path fill-rule="evenodd" clip-rule="evenodd" d="M89.2861 3.5V7H88.2861V3.5H89.2861Z" fill="white"/>
<path fill-rule="evenodd" clip-rule="evenodd" d="M13.7861 50.5V54H12.7861V50.5H13.7861Z" fill="white"/>
<path fill-rule="evenodd" clip-rule="evenodd" d="M11.2861 50.5V54H10.2861V50.5H11.2861Z" fill="white"/>
<path fill-rule="evenodd" clip-rule="evenodd" d="M87.7861 50.5V54H86.7861V50.5H87.7861Z" fill="white"/>
<path fill-rule="evenodd" clip-rule="evenodd" d="M85.2861 50.5V54H84.2861V50.5H85.2861Z" fill="white"/>
<path fill-rule="evenodd" clip-rule="evenodd" d="M47.7861 50.5V54H46.7861V50.5H47.7861Z" fill="white"/>
<path fill-rule="evenodd" clip-rule="evenodd" d="M44.999 3V6.5H43.999V3H44.999Z" fill="white"/>
<path fill-rule="evenodd" clip-rule="evenodd" d="M121.786 50.5V54H120.786V50.5H121.786Z" fill="white"/>
<path fill-rule="evenodd" clip-rule="evenodd" d="M118.999 50.5V54H117.999V50.5H118.999Z" fill="white"/>
</svg>
