<svg width="312" height="134" fill="none" xmlns="http://www.w3.org/2000/svg"><path fill-rule="evenodd" clip-rule="evenodd" d="M71.147 42.936C78.432 49.61 83 59.2 83 69.86c0 20.158-16.342 36.5-36.5 36.5S10 90.017 10 69.859c0-10.509 4.44-19.98 11.547-26.64l-1.396-1.431C12.67 48.81 8 58.789 8 69.858c0 21.263 17.237 38.501 38.5 38.501S85 91.122 85 69.859c0-11.23-4.807-21.336-12.476-28.374l-1.377 1.451z" fill="#fff"/><path fill-rule="evenodd" clip-rule="evenodd" d="M75.198 38.168C84.273 46.14 90 57.831 90 70.859c0 24.024-19.476 43.5-43.5 43.5S3 94.883 3 70.859c0-12.849 5.57-24.397 14.43-32.36l-1.399-1.433C6.801 45.394 1 57.45 1 70.86c0 25.129 20.371 45.5 45.5 45.5S92 95.988 92 70.859c0-13.6-5.966-25.805-15.424-34.143l-1.378 1.452z" fill="#fff"/><path fill-rule="evenodd" clip-rule="evenodd" d="M71.811 23.822l-13.005 14.91 8.29 7.23L80.1 31.052l-8.29-7.23zM55.984 38.924l11.304 9.86L82.923 30.86 71.619 21 55.984 38.924z" fill="#fff"/><path fill-rule="evenodd" clip-rule="evenodd" d="M60.086 34.273l-4.5-4.5 2.828-2.829 4.5 4.5-2.828 2.829zm5-5l-4.5-4.5 2.828-2.829 4.5 4.5-2.828 2.829zm-28.57 50.982c12.357-1.286 17.424-4.65 19.05-7.928 1.623-3.27.07-7.02-2.193-9.665-3.468-1.745-6.15-1.975-8.224-1.363-2.113.624-3.786 2.178-5.092 4.35-2.438 4.057-3.409 9.971-3.541 14.606zm8.067-20.874c2.748-.811 6.025-.388 9.874 1.588l.169.087.125.143c2.503 2.848 4.814 7.57 2.607 12.017-2.184 4.4-8.531 7.935-21.767 9.139l-1.091.099v-1.095c0-4.902.93-11.894 3.843-16.74 1.47-2.445 3.496-4.428 6.24-5.238z" fill="#fff"/><path d="M51 69.359a4 4 0 11-8 0 4 4 0 018 0z" fill="#fff"/><path fill-rule="evenodd" clip-rule="evenodd" d="M46.5 44.359v-5h1v5h-1zm0 59v-5h1v5h-1zm-7.206-57.968l-1.542-4.756.951-.309 1.542 4.757-.951.308zm0 51.939l-1.542 4.757.951.308 1.542-4.756-.951-.308zm14.183 0l1.543 4.757-.952.308-1.542-4.756.951-.308zM32.594 48.663L29.6 44.657l.8-.599 2.995 4.005-.801.599zm0 45.397L29.6 98.063l.8.598 2.995-4.004-.801-.599zm27.584 0l2.994 4.004-.801.598-2.994-4.004.8-.599zm-33.32-40.568l-3.239-3.81.762-.647 3.239 3.809-.762.648zm0 35.793l-3.239 3.809.762.648 3.239-3.81-.762-.647zm37.522-.25l3.24 3.809-.763.648-3.239-3.81.762-.647zM22.756 58.656L18.113 56.8l.371-.928 4.643 1.855-.37.929zm0 25.465l-4.643 1.856.371.928 4.643-1.855-.37-.929zm47.429-25.465l4.643-1.856-.37-.928-4.644 1.855.371.929zm0 25.465l4.643 1.856-.37.928-4.644-1.855.371-.929zM20.792 64.917l-4.993-.263.053-.999 4.993.264-.053.998zm0 12.943l-4.993.263.053.998 4.993-.263-.053-.999zM72.15 64.917l4.993-.263-.053-.999-4.993.264.053.998zm0 12.943l4.993.263-.053.998-4.993-.263.053-.999zm-52.158-5.854l-5-.031.006-1 5 .031-.006 1zm52.958 0l5-.031-.007-1-5 .031.006 1z" fill="#fff"/><rect x="135.135" y="25" width="28" height="5" rx="1" stroke="#fff" stroke-width="2"/><path d="M138.635 30.5v15l-26.5 49c-3.167 6-5.2 18.3 12 19.5h49c8.5 0 19.5-4.7 13.5-19.5l-26.5-49v-15" stroke="#fff" stroke-width="2"/><path d="M117.635 85c-.5 1.5-.1 4.5 5.5 4.5 3.166-.833 9.9-1.5 11.5 2.5m28.5 1.5c1.833.333 5.8.3 7-2.5 1.833-2.667 6.7-7.2 11.5-4m-42.003-8l9.5-18 10.501 18c6.999 14.5-2.998 18-10.501 18.5-14.497-.5-13-12-9.5-18.5z" stroke="#fff" stroke-width="2"/><path d="M157.135 85c1 5.5-4.667 8.167-6 8 2.8-1.6 1-3.5 2-6.5.4-2 2.833-1.833 4-1.5z" fill="#fff"/></svg>