<svg width="132" height="92" fill="none" xmlns="http://www.w3.org/2000/svg"><path fill-rule="evenodd" clip-rule="evenodd" d="M72.537 37.037c-.526.139-1.018.648-1.309 1.136l-.012.02-.015.02c-.455.618-.946 1.027-1.46 1.25a2.404 2.404 0 01-1.499.145c-.908-.201-1.625-.868-2.012-1.393-.416-.556-.8-.855-1.128-1.003a1.323 1.323 0 00-.877-.092c-.56.134-1.056.617-1.34 1.064l-.007.012-.008.012c-1.034 1.444-2.122 1.91-3.134 1.634-.91-.248-1.548-1.053-1.87-1.667-.376-.539-.726-.826-1.023-.967a1.168 1.168 0 00-.81-.089c-.532.132-1.023.613-1.309 1.065l-.004.007-.005.006c-.517.763-1.059 1.268-1.62 1.545a2.312 2.312 0 01-1.646.182c-.986-.258-1.718-1.11-2.094-1.756l.864-.503c.319.548.871 1.131 1.483 1.291.287.075.6.063.95-.11.358-.177.778-.537 1.232-1.204.352-.553 1.023-1.274 1.908-1.494a2.166 2.166 0 011.48.157c.505.24.985.675 1.435 1.328l.019.027.015.029c.263.514.73 1.045 1.258 1.188.44.12 1.143.021 2.05-1.24.356-.558 1.037-1.273 1.944-1.49.471-.112.99-.085 1.52.154.523.235 1.032.665 1.518 1.316l.003.003c.307.418.84.882 1.424 1.011.28.062.575.049.885-.085.31-.135.666-.406 1.04-.907.35-.58 1.015-1.336 1.899-1.569a2.078 2.078 0 011.499.168c.5.253.974.709 1.418 1.386.308.384.826.807 1.383.926.27.058.55.045.837-.078.29-.124.62-.376.963-.848l.81.586c-.422.583-.886.97-1.38 1.181-.496.213-.99.233-1.44.137-.875-.187-1.584-.81-1.972-1.302l-.014-.018-.012-.019c-.387-.594-.745-.907-1.045-1.059a1.079 1.079 0 00-.792-.093zm3.799-23.982c-.772.202-1.465.926-1.864 1.591l-.013.021-.014.02c-.6.807-1.237 1.329-1.894 1.612a3.08 3.08 0 01-1.908.182c-1.164-.255-2.097-1.11-2.605-1.793-.57-.756-1.109-1.178-1.583-1.39a1.97 1.97 0 00-1.293-.133c-.815.193-1.515.88-1.907 1.493l-.008.012-.008.012c-1.37 1.898-2.767 2.455-4.027 2.114-1.16-.314-1.99-1.345-2.412-2.147-.52-.74-1.014-1.15-1.45-1.355a1.76 1.76 0 00-1.207-.13c-.778.191-1.469.875-1.864 1.494l-.004.007-.005.006c-.685 1.002-1.393 1.65-2.113 2.004-.73.358-1.442.398-2.091.229-1.26-.327-2.215-1.415-2.712-2.262l.863-.506c.438.746 1.212 1.57 2.1 1.8.425.11.892.09 1.4-.159.517-.254 1.103-.758 1.724-1.664.462-.722 1.334-1.643 2.463-1.92a2.76 2.76 0 011.874.197c.643.303 1.267.86 1.861 1.713l.02.027.014.03c.362.702 1.021 1.46 1.8 1.67.692.188 1.706-.009 2.947-1.723.467-.726 1.351-1.64 2.511-1.915a2.969 2.969 0 011.931.193c.67.3 1.333.85 1.976 1.703l.002.003c.427.574 1.174 1.228 2.017 1.413.41.09.845.07 1.299-.124.453-.195.955-.58 1.472-1.27.46-.758 1.326-1.728 2.455-2.022a2.639 2.639 0 011.891.21c.64.321 1.258.905 1.846 1.797.427.53 1.157 1.13 1.964 1.301.395.084.809.066 1.231-.114.426-.18.894-.539 1.367-1.188l.808.59c-.555.76-1.156 1.252-1.784 1.519a3.011 3.011 0 01-1.83.172c-1.123-.238-2.044-1.036-2.553-1.675l-.014-.018-.013-.02c-.53-.807-1.031-1.25-1.47-1.47a1.64 1.64 0 00-1.19-.137z" fill="#fff"/><path fill-rule="evenodd" clip-rule="evenodd" d="M72.585 34.63a4.37 4.37 0 00-.608.969l-.009.02-.01.018c-.458.8-.955 1.34-1.49 1.639a2.065 2.065 0 01-1.615.197c-.961-.274-1.693-1.168-2.074-1.835-.443-.762-.85-1.168-1.187-1.364-.32-.185-.594-.194-.842-.118-.267.083-.539.276-.792.553-.252.273-.461.6-.609.9l-.005.012-.006.01c-.523.941-1.056 1.569-1.607 1.92-.574.365-1.153.42-1.682.234-.501-.176-.905-.55-1.211-.943a5.27 5.27 0 01-.703-1.241c-.404-.749-.78-1.144-1.088-1.333-.291-.179-.54-.187-.771-.113-.253.08-.516.272-.766.55a4.05 4.05 0 00-.604.904l-.006.013c-.523.993-1.072 1.656-1.651 2.025-.602.384-1.213.435-1.772.247-.533-.18-.977-.563-1.323-.973a5.811 5.811 0 01-.823-1.327l.912-.41c.164.364.397.761.676 1.093.283.336.585.57.878.67.268.09.564.08.914-.143.372-.237.819-.728 1.3-1.642a5.1 5.1 0 01.756-1.127c.317-.35.722-.679 1.204-.833.505-.161 1.057-.119 1.6.214.521.32 1.006.891 1.459 1.737l.014.025.01.027c.136.343.333.714.573 1.023.244.314.504.526.754.614.222.078.483.076.813-.134.35-.224.782-.688 1.264-1.551.181-.368.44-.773.763-1.125.325-.353.74-.679 1.235-.831.513-.159 1.077-.117 1.638.209.543.315 1.06.882 1.55 1.728l.002.003c.338.59.899 1.205 1.481 1.37.265.076.545.063.852-.108.32-.179.699-.547 1.1-1.244.18-.384.431-.807.744-1.176.314-.37.72-.72 1.206-.885.513-.174 1.074-.127 1.619.228.517.338.996.936 1.444 1.819.336.543.882 1.105 1.438 1.259.257.07.521.057.804-.1.296-.163.649-.504 1.017-1.16l.872.49c-.423.753-.892 1.262-1.406 1.546a2.022 2.022 0 01-1.552.188c-.929-.256-1.653-1.093-2.036-1.718l-.011-.018-.01-.018c-.411-.817-.794-1.246-1.106-1.45-.289-.188-.53-.194-.752-.119-.248.084-.512.287-.764.585zm3.751-23.575c-.772.202-1.465.926-1.864 1.591l-.013.021-.014.02c-.6.807-1.237 1.329-1.894 1.612a3.08 3.08 0 01-1.908.182c-1.164-.255-2.097-1.11-2.605-1.793-.57-.756-1.109-1.178-1.583-1.39a1.97 1.97 0 00-1.293-.133c-.815.193-1.515.88-1.907 1.493l-.008.012-.008.012c-1.37 1.898-2.767 2.454-4.027 2.114-1.16-.314-1.99-1.345-2.412-2.147-.52-.74-1.014-1.15-1.45-1.355a1.76 1.76 0 00-1.207-.13c-.778.191-1.469.875-1.864 1.494l-.004.007-.005.006c-.685 1.002-1.393 1.65-2.113 2.004-.73.358-1.442.397-2.091.229-1.26-.327-2.215-1.415-2.712-2.262l.863-.506c.438.746 1.212 1.57 2.1 1.8.425.11.892.09 1.4-.159.517-.254 1.103-.758 1.724-1.664.462-.722 1.334-1.643 2.463-1.92a2.76 2.76 0 011.874.197c.643.303 1.267.86 1.861 1.713l.02.027.014.03c.362.702 1.021 1.46 1.8 1.67.692.188 1.706-.009 2.947-1.723.467-.726 1.351-1.64 2.511-1.915a2.969 2.969 0 011.931.193c.67.3 1.333.85 1.976 1.703l.002.003c.427.574 1.174 1.228 2.017 1.413.41.09.845.07 1.299-.124.453-.195.955-.58 1.472-1.27.46-.758 1.326-1.728 2.455-2.022a2.638 2.638 0 011.891.21c.64.321 1.258.905 1.846 1.797.427.53 1.157 1.13 1.964 1.301.395.084.809.066 1.231-.114.426-.18.894-.539 1.367-1.188l.808.59c-.555.76-1.156 1.252-1.784 1.519a3.011 3.011 0 01-1.83.172c-1.123-.238-2.044-1.036-2.553-1.675l-.014-.018-.013-.02c-.53-.807-1.031-1.25-1.47-1.47a1.64 1.64 0 00-1.19-.137z" fill="#fff"/><path fill-rule="evenodd" clip-rule="evenodd" d="M73.313 32.038c-.554.141-1.065.656-1.364 1.14l-.013.022-.015.02c-.471.618-.977 1.024-1.504 1.245a2.532 2.532 0 01-1.531.143c-.93-.198-1.669-.86-2.07-1.387-.85-1.096-1.579-1.22-2.1-1.1-.59.136-1.106.625-1.397 1.07l-.008.012-.008.011c-1.073 1.448-2.189 1.9-3.215 1.63-.931-.246-1.59-1.046-1.924-1.662-.39-.539-.753-.828-1.064-.971a1.28 1.28 0 00-.86-.091c-.56.134-1.07.62-1.364 1.07l-.005.007-.004.007c-.536.763-1.095 1.266-1.671 1.541a2.435 2.435 0 01-1.681.18c-1.01-.256-1.766-1.101-2.157-1.75l.857-.516c.328.545.902 1.134 1.545 1.296.304.077.637.064 1.004-.112.375-.179.811-.541 1.28-1.207.365-.556 1.058-1.272 1.963-1.489.47-.112.986-.086 1.51.155.518.238 1.013.671 1.48 1.324l.019.027.015.03c.27.511.755 1.047 1.312 1.193.475.126 1.212.013 2.148-1.246.37-.56 1.071-1.269 2-1.483 1.001-.232 2.098.147 3.117 1.464l.002.003c.317.416.87.885 1.485 1.016.296.063.608.05.935-.087.326-.137.696-.41 1.082-.91.363-.582 1.05-1.334 1.954-1.564.477-.121 1-.093 1.528.166.514.251 1.003.704 1.462 1.382.319.384.857.812 1.443.933.286.059.582.045.885-.08.306-.127.65-.38 1.002-.853l.801.6c-.437.583-.915.968-1.42 1.177a2.48 2.48 0 01-1.47.135c-.897-.186-1.627-.804-2.03-1.296l-.014-.018-.013-.02c-.399-.593-.77-.908-1.085-1.062a1.183 1.183 0 00-.842-.095zm3.023-22.983c-.772.202-1.465.926-1.864 1.591l-.013.021-.014.02c-.6.807-1.237 1.329-1.894 1.612a3.08 3.08 0 01-1.908.182c-1.164-.255-2.097-1.11-2.605-1.793-.57-.756-1.109-1.178-1.583-1.39a1.97 1.97 0 00-1.293-.133c-.815.193-1.515.88-1.907 1.493l-.008.012-.008.012c-1.37 1.898-2.767 2.454-4.027 2.114-1.16-.314-1.99-1.345-2.412-2.147-.52-.74-1.014-1.15-1.45-1.355a1.76 1.76 0 00-1.207-.13c-.778.191-1.469.875-1.864 1.494l-.004.007-.005.006c-.685 1.002-1.393 1.65-2.113 2.004-.73.358-1.442.397-2.091.229-1.26-.327-2.215-1.415-2.712-2.262l.863-.506c.438.746 1.212 1.57 2.1 1.8.425.11.892.09 1.4-.159.517-.254 1.103-.758 1.724-1.664.462-.722 1.334-1.643 2.463-1.92a2.759 2.759 0 011.874.197c.643.303 1.267.86 1.861 1.713l.02.027.014.03c.362.702 1.021 1.46 1.8 1.67.692.188 1.706-.009 2.947-1.723.467-.726 1.351-1.64 2.511-1.915a2.97 2.97 0 011.931.193c.67.3 1.333.85 1.976 1.703l.002.003c.427.574 1.174 1.228 2.017 1.413.41.09.845.07 1.299-.124.453-.195.955-.58 1.472-1.27.46-.758 1.326-1.728 2.455-2.022a2.638 2.638 0 011.891.21c.64.321 1.258.905 1.846 1.797.427.53 1.157 1.13 1.964 1.301.395.084.809.066 1.231-.114.426-.18.894-.539 1.367-1.188l.808.59c-.555.76-1.156 1.252-1.784 1.519a3.011 3.011 0 01-1.83.172c-1.123-.238-2.044-1.036-2.553-1.675l-.014-.018-.013-.02c-.53-.807-1.031-1.25-1.47-1.47a1.64 1.64 0 00-1.19-.137zM24.287 0h8.5v6.417L46.967 91.5h-36.86l14.18-85.083V0zm2 2v4.583L12.467 89.5h32.14L30.786 6.583V2h-4.5zm72-2h8.5v6.417l14.18 85.083h-36.86l14.18-85.083V0zm2 2v4.583L86.467 89.5h32.139L104.787 6.583V2h-4.5z" fill="#fff"/><path fill-rule="evenodd" clip-rule="evenodd" d="M43.126 8.5H12.287v-2H48.45l-24 21h29.714L20.663 54h36.911L12.923 90.772l-1.272-1.544L52 56H14.91l33.5-26.5H19.126l24-21zm74 0H86.287v-2h36.162l-24 21h29.714L94.663 54h36.911L86.923 90.772l-1.272-1.544L126 56H88.911l33.5-26.5H93.126l24-21z" fill="#fff"/><path fill-rule="evenodd" clip-rule="evenodd" d="M14.449 8.5h30.838v-2H9.126l24 21H3.41L36.91 54H0l44.65 36.772 1.272-1.544L5.574 56h37.09l-33.5-26.5h29.285l-24-21zm74 0h30.838v-2H83.126l24 21H77.411l33.5 26.5H74l44.651 36.772 1.272-1.544L79.574 56h37.089l-33.5-26.5h29.286l-24-21z" fill="#fff"/><path fill-rule="evenodd" clip-rule="evenodd" d="M15.413 54.5H40.45l-10.267 7.215 9.15 5.947-1.09 1.676-9.823-6.384-9.058 6.364-1.15-1.636 8.4-5.903L15.414 54.5zm12.962 6.04l5.75-4.04H22.16l6.215 4.04zm61.038-6.04h25.036l-10.267 7.215 9.149 5.947-1.09 1.676-9.822-6.384-9.058 6.364-1.15-1.636 8.401-5.903L89.413 54.5zm12.962 6.04l5.749-4.04H96.16l6.215 4.04zM17.567 27.5H38.61l-8.415 6.254 7.16 4.922-1.133 1.648-7.723-5.31-7.114 5.289-1.194-1.606 6.566-4.88-9.189-6.317zm10.886 5.057l4.112-3.057h-8.558l4.446 3.057zM91.567 27.5h21.042l-8.415 6.254 7.16 4.922-1.133 1.648-7.723-5.31-7.114 5.289-1.194-1.606 6.566-4.88-9.189-6.317zm10.886 5.057l4.112-3.057h-8.558l4.446 3.057zM15.786 24.5V28h-1v-3.5h1zm-2.5 0V28h-1v-3.5h1zm76.5 0V28h-1v-3.5h1zm-2.5 0V28h-1v-3.5h1zm-41.5 0V28h-1v-3.5h1zm-2.5 0V28h-1v-3.5h1zm76.5 0V28h-1v-3.5h1zm-2.5 0V28h-1v-3.5h1zm-74.5-21V7h-1V3.5h1zm-2.5 0V7h-1V3.5h1zm76.5 0V7h-1V3.5h1zm-2.5 0V7h-1V3.5h1zm-96.5 0V7h-1V3.5h1zm-2.5 0V7h-1V3.5h1zm76.5 0V7h-1V3.5h1zm-2.5 0V7h-1V3.5h1zm-75.5 47V54h-1v-3.5h1zm-2.5 0V54h-1v-3.5h1zm76.5 0V54h-1v-3.5h1zm-2.5 0V54h-1v-3.5h1zm-37.5 0V54h-1v-3.5h1zM44.999 3v3.5h-1V3h1zm76.787 47.5V54h-1v-3.5h1zm-2.787 0V54h-1v-3.5h1z" fill="#fff"/></svg>