<svg width="134" height="134" fill="none" xmlns="http://www.w3.org/2000/svg"><g clip-path="url(#clip0)" stroke="#fff" stroke-width="3"><path d="M15 131.5H8.5l16.5-35v-52L35 18h7.5l9 26.5v52l-36.5 35z"/><path d="M25 97l34 34h7.5L52 97 25 70.5h27L25 44l26.5.5M24 98l27.5-27.5M52 45L25 69.5m30.5-22L73 65H55.5m-36-17.5L2 65h17.5"/><path d="M55.5 75.5L73 93H55.5m-36-17.5L2 93h17.5M65 93v4.5m0-32V70M5 65.5V70m0 22.5V97m66-4v4.5m0-32V70m-60-4.5V70m0 22.5V97m71.704-9.275h-4.852L90.17 61.6V22.782L97.634 3h5.598l6.719 19.782v38.817L82.704 87.725z"/><path d="M90.17 61.972l25.379 25.38h5.599l-10.824-25.38L90.169 42.19h20.155L90.169 22.408l19.782.374M89.422 62.718l20.529-20.528m.373-19.035L90.169 41.444m22.768-16.423L126 38.085h-13.063M86.063 25.021L73 38.085h13.063"/><path d="M112.937 45.923L126 58.986h-13.063M86.063 45.923L73 58.986h13.063m33.965 0v3.359m0-23.887v3.359M75.24 38.458v3.359m0 16.796v3.359m49.267-2.986v3.359m0-23.887v3.359m-44.789-3.359v3.359m0 16.796v3.359"/></g><defs><clipPath id="clip0"><path fill="#fff" d="M0 0h134v134H0z"/></clipPath></defs></svg>