<svg width="134" height="134" fill="none" xmlns="http://www.w3.org/2000/svg"><g clip-path="url(#clip0)"><path d="M133.883 17.342c0-5.379-1.579-6.9-7.016-6.9H8.467c-5.378 0-6.957 1.521-6.957 6.9v80.395c0 5.379 1.579 6.957 6.958 6.957h48.646c-.351 3.742-.643 6.9-.936 10.115-.409 4.386-2.28 6.783-6.49 7.835-1.695.409-3.508.351-5.145.76-.526.117-.994.585-1.403 1.053.058.234.058.409.058.643v.526c.468.409.936.877 1.52 1.169.059.059.117.059.234.059h1.812c14.033 0 28.066 0 42.098-.059.234 0 .526 0 .819.059h2.222c.584-.175.994-.585 1.052-1.52.175-2.748-2.397-1.754-3.976-1.988-3.859-.585-7.951-1.403-9.062-5.672-1.053-4.034-1.053-8.361-1.58-12.921h48.705c5.379 0 6.958-1.579 6.958-6.958-.117-26.896-.117-53.674-.117-80.453zM4.96 82.36V18.102c.058-4.151.058-4.151 3.976-4.151h117.463c3.976 0 3.976 0 3.976 3.8v67.882H4.96V82.36zm74.08 40.753H56.412c4.736-5.496 2.807-12.22 4.444-18.242h13.681c1.696 6.022-.292 12.746 4.502 18.242zm51.218-24.09c-.058.76-1.228 1.638-2.046 2.106-.585.351-1.521.058-2.281.058H9.403c-4.385 0-4.385 0-4.385-4.327v-7.366h125.415c-.058 3.332.117 6.431-.175 9.53z" fill="#fff"/><path d="M71.964 52.014c0 3.625.059 6.607 0 9.647-.058 3.45-2.514 4.911-5.379 3.04-8.068-5.262-16.079-10.64-24.089-16.078-1.754-1.17-2.456-2.865-1.11-4.736 1.344-1.871 3.156-1.696 4.852-.527 5.438 3.567 10.875 7.192 16.371 10.817.76.468 1.52.935 2.982 1.813 0-3.158-.175-5.847.059-8.537.117-1.52.643-3.742 1.637-4.21 1.228-.526 3.391.059 4.677.877 7.367 4.678 14.559 9.648 21.868 14.5.467.293.935.585 1.344.936 1.52 1.287 2.105 2.865.877 4.62-1.227 1.695-2.923 1.812-4.619.7-5.379-3.566-10.7-7.132-16.078-10.699-1.053-.585-1.93-1.228-3.392-2.163z" stroke="#fff" stroke-width="4" stroke-miterlimit="10"/></g><defs><clipPath id="clip0"><path fill="#fff" d="M0 0h134v134H0z"/></clipPath></defs></svg>