<svg width="134" height="134" fill="none" xmlns="http://www.w3.org/2000/svg"><path d="M92.182 98.698V85.381c1.783-.768 3.028-2.63 3.028-4.772V69.08c0-2.842-2.15-5.155-4.793-5.155h-7.562v-2.57c0-2.624-2.17-4.758-4.837-4.758H56.99c-2.672 0-4.845 2.138-4.845 4.765v2.563h-7.562c-2.643 0-4.792 2.313-4.792 5.155v11.528c0 2.141 1.244 4.003 3.028 4.771v13.318c0 2.313 1.607 4.195 3.581 4.195h42.2c1.975 0 3.582-1.882 3.582-4.195zM54.813 61.363c0-1.18.977-2.14 2.177-2.14h21.028c1.196 0 2.17.956 2.17 2.133v2.57H54.813v-2.563zm-10.471 21.76c-1.073-.152-1.883-1.232-1.883-2.514V69.08c0-1.396.953-2.53 2.124-2.53h45.834c1.171 0 2.125 1.134 2.125 2.53v11.528c0 1.282-.81 2.363-1.881 2.514-.052.007-.108.008-.163.01-.028.002-.055.006-.082.006H44.585a1.75 1.75 0 01-.243-.016zm26.826 2.641v2.252a1.1 1.1 0 01-1.109 1.089h-5.118a1.1 1.1 0 01-1.108-1.089v-2.252h7.335zM45.487 98.698V85.764h15.678v2.252c0 2.048 1.694 3.714 3.776 3.714h5.118c2.082 0 3.776-1.666 3.776-3.714v-2.252h15.679v12.934c0 .884-.492 1.57-.914 1.57H46.4c-.421 0-.913-.686-.913-1.57z" fill="#fff"/><path d="M71.713 74.913c.738 0 1.334-.588 1.334-1.313 0-.724-.596-1.312-1.334-1.312h-8.426c-.738 0-1.334.588-1.334 1.312 0 .725.596 1.313 1.333 1.313h8.427z" fill="#fff"/><path d="M118.294 57.66v-7.596C118.294 22.53 95.501.127 67.485.127c-28 0-50.778 22.402-50.778 49.937v7.597c-4.38.149-7.902 3.677-7.902 8.02v31.434c0 4.438 3.67 8.048 8.182 8.048h12.557c3.254 0 5.9-2.603 5.9-5.803V63.436c0-3.2-2.646-5.803-5.9-5.803H27.54v-7.569c0-21.66 17.934-39.28 39.976-39.28 22.024 0 39.944 17.62 39.944 39.28v7.569h-2.004c-3.253 0-5.9 2.603-5.9 5.803V99.36c0 2.747 1.956 5.042 4.566 5.641v5.06a6.624 6.624 0 01-2 4.751l-6.983 6.867a6.849 6.849 0 01-4.832 1.968h-7.452v-3.679c0-2.414-1.997-4.379-4.452-4.379h-7.011c-2.881 0-5.226 2.306-5.226 5.14v.403c0 2.834 2.345 5.14 5.226 5.14h18.915a9.517 9.517 0 006.718-2.737l6.982-6.867a9.2 9.2 0 002.783-6.607v-4.898h11.223c4.512 0 8.183-3.61 8.183-8.048V65.68c0-4.343-3.522-7.871-7.902-8.02zm-102.64 44.7c-2.395-.59-4.181-2.708-4.181-5.244V65.68c0-2.536 1.786-4.654 4.18-5.244v41.922zm64.534 21.288h-8.796c-1.411 0-2.558-1.128-2.558-2.515v-.403c0-1.387 1.147-2.515 2.558-2.515h7.01c.985 0 1.786.787 1.786 1.754v3.679zm-50.644-63.39c1.782 0 3.232 1.426 3.232 3.18V99.36c0 1.753-1.45 3.178-3.232 3.178H18.321v-42.28h11.223zM67.516 8.159c-23.514 0-42.643 18.799-42.643 41.906v7.569h-5.498v-7.569c0-26.088 21.583-47.312 48.11-47.312 26.544 0 48.141 21.224 48.141 47.312v7.569h-5.498v-7.569c0-23.107-19.116-41.906-42.612-41.906zm49.163 94.38h-11.223c-1.781 0-3.232-1.425-3.232-3.178V63.436c0-1.753 1.451-3.178 3.232-3.178h11.223v42.28zm6.849-5.423c0 2.536-1.786 4.654-4.181 5.244V60.437c2.395.59 4.181 2.708 4.181 5.244v31.434z" fill="#fff"/></svg>