<svg width="2500" height="960" fill="none" xmlns="http://www.w3.org/2000/svg"><g clip-path="url(#clip0)"><path d="M-170.5 768c-14-12.5 278-4 813-14.5s844.03 52.176 1319.5-15c30.45-4.302 534 0 534 0l43 214H-22s-134.5-172-148.5-184.5z" fill="#fff"/><path d="M-109 600.998H64.017C7.66 586.517-49.313 572.676-109 570.625v30.373z" fill="#CCC"/><path d="M2546.3 715.94c-.51-2.399 10.48-5.332 2.07-15.927-5.26-3.994-13.69.929-20.21-1.279.57-2.553-.21-6.177.39-8.635-19.38-17.485-29.71-24.072-51.77-10.181-7.07-10.672-19.86-10.055-26.99.755-9.96-11-23.7-5.946-32.3 4.1-9.57-12.38-32.81-2.294-33.66 12.073-8.05-1.6-16.55 4.37-18.55 13.188-11.2-.901-19.83 5.009-20.41 16.238-6.68 2.366-26.64 19.068-28.62 25.226 29.4 9.85 188.87 39.991 213.63 44.357l16.42-79.915z" fill="#C4C4C4"/><path d="M2372.47 719.298c-.46-2.184 9.55-4.854 1.9-14.499-4.8-3.636-12.47.845-18.4-1.165.51-2.324-.2-5.623.35-7.86-17.65-15.918-27.05-21.915-47.13-9.268-6.44-9.716-18.08-9.154-24.57.686-9.07-10.014-21.58-5.412-29.4 3.733-8.72-11.27-29.87-2.088-30.65 10.991-7.33-1.457-15.06 3.978-16.89 12.006-10.19-.821-18.05 4.56-18.58 14.782-6.08 2.154-24.25 17.359-26.05 22.965 26.76 8.967 171.94 36.407 194.48 40.381l14.94-72.752z" fill="#C4C4C4"/><path d="M1304 755.301c599.45 131.587 1434.2 198 1813.5 386.999l395-162.499s-283.5-134.5-664.5-204.5-1544-20-1544-20z" fill="#C4C4C4"/><path d="M1464.5 736.5c599.45 131.587 1164.2 248 1543.5 437l395-162.5s-283.5-134.5-664.5-204.5-1274-70-1274-70z" fill="#E9E9E9"/><path d="M1064 719.5C1663.45 851.087 1943.7 972 2323 1161l395-162.5S2434.5 864 2053.5 794 1064 719.5 1064 719.5z" fill="#F2F4F7"/><path d="M719.5 784.007c599.45 131.587 921.7 164.493 1301 353.493l164-51.5S1971 854.007 1590 784.007s-870.5 0-870.5 0z" fill="#C4C4C4"/><path d="M-10 960.017l2.892-194.883c4.36 1.727 700.095-41.918 1155.048 42.974C1602.89 893 1558 911 1669 983.5L-10 960.017z" fill="url(#paint0_linear)"/><path d="M1363.29 747.789h-2.45v15.545h2.45v-15.545z" fill="#DDD"/><path d="M1355.84 755.448c-2.73 2.099-6.33-1.872-7.09-4.652-.35-1.588.18-3.858-.29-5.162-.52-1.589-2.32-1.475-3.02-3.177-1.8-4.255 3.02-6.921 1.8-9.871-.29-.851-.93-.624-.99-1.759-.06-.965.58-1.702 1.05-2.383.81-1.418 1.74-2.496 2.15-4.141.41-1.589.58-2.553 1.45-3.744 1.34-1.872 1.05-2.894 1.75-4.879.58-1.702 1.68-3.971 2.73-5.276 1.57-1.986 2.09-.284 3.84-.965 1.51-.624 1.62-2.439 3.66-2.439 1.1 0 1.22.397 2.09.794.99.397.93.341 1.98.227 1.63-.113 3.49-.51 5.06.17 2.03.851 2.26 2.61 3.19 4.596.88 1.872 2.04 1.872 2.5 4.027.47 2.27.18 3.915-.52 6.014-.58 1.815-1.69 4.085-1.86 5.957-.06.68-.06 2.212.23 2.836.35.851 1.22.965 1.4 1.986.23 1.361-1.28 3.233-1.46 4.595-.17 1.759.76 3.461.53 5.049-.41 2.666-2.15 1.475-3.49 2.439-1.34.908-.64 2.667-1.28 4.142-1.98 4.992-4.94-1.192-7.67 2.382-1.34 1.759-.41 2.724-2.85 3.234-1.11.17-3.37.681-4.25-.17-.29 0-.4.057-.75-.057.17.227.35.284.58.397l-.47-.17zm-14.59-7.659h-2.44v15.545h2.44v-15.545z" fill="#DDD"/><path d="M1333.81 755.448c-2.73 2.099-6.34-1.872-7.03-4.652-.41-1.588.11-3.858-.35-5.162-.52-1.589-2.33-1.475-3.02-3.234-1.75-4.198 3.02-6.864 1.86-9.871-.35-.794-.99-.567-1.05-1.702-.06-.965.64-1.702 1.05-2.383.81-1.418 1.74-2.496 2.15-4.141.4-1.589.64-2.553 1.45-3.744 1.34-1.872 1.05-2.894 1.74-4.879.59-1.702 1.69-3.971 2.74-5.276 1.57-1.986 2.09-.284 3.83-.965 1.51-.624 1.63-2.439 3.72-2.439 1.11 0 1.22.397 2.1.794.98.397.87.341 1.97.227 1.63-.113 3.49-.51 5.06.17 2.04.851 2.21 2.61 3.14 4.596.87 1.872 2.03 1.872 2.5 4.027.46 2.27.17 3.915-.52 6.014-.59 1.815-1.69 4.085-1.86 6.013-.06.624-.06 2.156.23 2.78.35.851 1.28 1.021 1.39 1.986.24 1.361-1.28 3.233-1.45 4.595-.17 1.759.76 3.461.52 5.049-.4 2.666-2.15 1.475-3.48 2.439-1.34.908-.64 2.667-1.23 4.142-2.03 4.992-4.99-1.192-7.73 2.382-1.33 1.759-.4 2.724-2.85 3.234-1.04.17-3.37.681-4.24-.17-.29-.057-.41.057-.75-.057.17.227.34.284.58.397l-.47-.17zm50.81-4.992h-2.44V766h2.44v-15.544z" fill="#DDD"/><path d="M1377.18 758.058c-2.73 2.099-6.34-1.816-7.03-4.652-.41-1.532.11-3.801-.35-5.163-.53-1.532-2.33-1.475-3.03-3.177-1.74-4.198 3.03-6.864 1.86-9.871-.34-.794-.93-.567-1.04-1.702-.06-.964.64-1.702 1.04-2.382.82-1.419 1.75-2.497 2.16-4.142.4-1.532.63-2.496 1.45-3.687 1.34-1.872 1.04-2.894 1.74-4.879.58-1.702 1.69-3.971 2.73-5.276 1.57-2.042 2.1-.397 3.84-1.078 1.51-.624 1.63-2.439 3.66-2.439 1.11 0 1.22.397 2.1.794.98.397.87.34 1.97.227 1.63-.114 3.49-.511 5.06.17 2.04.851 2.27 2.61 3.2 4.595.87 1.872 2.03 1.872 2.5 4.028.46 2.269.17 3.914-.53 6.013-.58 1.816-1.68 4.085-1.86 6.014-.05.624-.05 2.212.18 2.78.35.851 1.28 1.021 1.39 1.985.24 1.362-1.28 3.234-1.45 4.595-.23 1.759.7 3.461.52 4.993-.4 2.666-2.15 1.475-3.48 2.439-1.34.908-.64 2.723-1.23 4.142-2.03 4.992-4.94-1.192-7.73 2.382-1.28 1.816-.29 2.837-2.79 3.291-1.04.227-3.31.737-4.24-.171-.29 0-.41.057-.76-.056.18.227.35.283.58.397l-.46-.17zm30.17-9.928h-2.44v15.544h2.44V748.13z" fill="#DDD"/><path d="M1399.97 755.788c-2.73 2.099-6.34-1.872-7.09-4.652-.35-1.531.11-3.801-.35-5.162-.53-1.589-2.33-1.475-3.03-3.177-1.74-4.198 3.03-6.864 1.86-9.871-.34-.794-.93-.624-1.04-1.759-.06-.964.58-1.702 1.04-2.383.82-1.418 1.75-2.496 2.16-4.141.4-1.532.58-2.496 1.45-3.687 1.34-1.873 1.1-2.894 1.74-4.879.58-1.702 1.69-3.971 2.74-5.276 1.56-1.986 2.09-.284 3.83-.965 1.51-.624 1.63-2.439 3.66-2.439 1.11 0 1.22.397 2.1.794.99.397.87.341 1.97.227 1.63-.113 3.49-.51 5.06.17 2.04.851 2.27 2.61 3.2 4.595.87 1.873 2.03 1.873 2.5 4.028.46 2.27.17 3.915-.53 6.014-.58 1.815-1.68 4.084-1.86 6.013-.05.681-.05 2.213.18 2.78.35.851 1.28 1.021 1.39 1.986.24 1.361-1.27 3.233-1.45 4.595-.23 1.759.7 3.46.47 4.992-.41 2.667-2.16 1.475-3.49 2.44-1.34.907-.64 2.723-1.22 4.141-2.04 4.992-4.94-1.191-7.73 2.383-1.34 1.758-.41 2.723-2.85 3.233-1.05.227-3.37.738-4.25-.17-.29 0-.4.057-.75-.057.17.227.35.284.58.397l-.29-.17z" fill="#DDD"/><path d="M467.589 755.445h-61.694v11.552h61.694v-11.552z" fill="#C4C4C4"/><path d="M456.577 757.462h-39.881c-.22 0-.661-.184-.881-.367-.221-.183-.221-.55-.221-.733h1.102v-.917.917h-1.102l19.831-183.912c0-.55.44-.917 1.101-.917s1.102.367 1.102.917l19.83 183.912c0 .183 0 .55-.22.733 0 .183-.22.367-.661.367zm-1.102-2.017l-18.728-172.36-18.729 172.36h37.457z" fill="#C4C4C4"/><path d="M457.23 756.911c.22-.184.22-.734 0-.917l-35.915-29.888 29.965-24.937c.221-.184.221-.734 0-.917l-24.898-20.72 20.712-17.236c.22-.183.22-.734 0-.917l-17.186-14.302 14.322-11.919c.22-.183.22-.733 0-.916l-11.899-9.902 9.695-8.068c.221-.183.221-.733 0-.917l-8.152-6.784 6.61-5.501c.22-.183.22-.733 0-.917l-5.509-4.584 4.407-3.667c.221-.183.221-.733 0-.917l-4.186-3.484c-.221-.183-.882-.183-1.102 0-.22.184-.22.734 0 .917l3.746 3.117-4.407 3.668c-.22.183-.22.366-.22.366 0 .184 0 .367.22.367l5.509 4.584-6.611 5.501c-.22.183-.22.367-.22.367 0 .183 0 .366.22.366l8.153 6.785-9.695 8.068c-.22.183-.22.366-.22.366 0 .184 0 .367.22.367l11.898 9.902-14.322 11.918c-.22.183-.22.367-.22.367 0 .183 0 .367.22.367l17.187 14.302-20.712 17.236c-.22.183-.22.366-.22.366 0 .184 0 .367.22.367l24.898 20.72-30.186 25.671c-.22.183-.22.366-.22.366 0 .184 0 .367.22.367l36.576 30.438c.22.184.441.184.441.184.22.183.44.183.661 0z" fill="#C4C4C4"/><path d="M417.351 756.913l36.576-30.438c.22-.183.22-.733 0-.917l-29.966-24.937 24.898-20.72c.22-.183.22-.733 0-.916l-20.712-17.236 17.187-14.303c.22-.183.22-.733 0-.916-.221-.184-.882-.184-1.102 0l-17.627 14.668c-.22.184-.22.367-.22.367 0 .184 0 .367.22.367l20.712 17.236-24.898 21.086c-.221.184-.221.367-.221.367 0 .184 0 .367.221.367l29.965 24.937-35.915 29.888c-.22.183-.22.734 0 .917a.757.757 0 00.441.183c.22.184.22.184.441 0z" fill="#C4C4C4"/><path d="M454.811 740.593c.441 0 .661-.367.661-.551 0-.366-.44-.55-.661-.55h-36.135c-.441 0-.661.367-.661.55 0 .367.441.551.661.551h36.135zm-2.867-27.688c.441 0 .661-.367.661-.55 0-.367-.44-.55-.661-.55h-30.186c-.44 0-.661.367-.661.55 0 .367.441.55.661.55h30.186zm-2.643-23.104c.44 0 .661-.366.661-.55 0-.366-.441-.55-.661-.55h-25.339c-.441 0-.661.367-.661.55 0 .367.44.55.661.55h25.339zm-1.983-19.253c.441 0 .661-.366.661-.55 0-.366-.44-.55-.661-.55h-21.152c-.441 0-.661.367-.661.55 0 .367.441.55.661.55h21.152zm-1.765-16.135c.441 0 .661-.367.661-.55 0-.367-.441-.551-.661-.551h-17.627c-.441 0-.661.367-.661.551 0 .366.441.55.661.55h17.627zm30.63-6.784h-78.44c-.441 0-.661-.183-.661-.55 0-.367 0-.55.44-.734l32.39-12.285h.22v.55l.22.55-.22-.55v-.55h13.661l32.39 12.285c.22.184.44.367.44.734.221.367-.22.55-.44.55zm-3.526-1.284l-29.084-11.001h-13.221l-29.084 11.001h71.389zm-5.287-29.889h-61.253c-.441 0-.661-.184-.661-.551 0-.366.22-.55.44-.733l26.661-7.151h.22v.55l.221.55-.221-.55v-.55h8.153l26.661 7.151c.44.183.661.367.44.733 0 .367-.22.551-.661.551zm-4.847-1.284l-22.034-5.868h-7.712l-22.033 5.868h51.779z" fill="#C4C4C4"/><path d="M445.115 647.444l11.458-6.601v6.234c0 .367.22.55.661.55.44 0 .661-.183.661-.55v-7.151c0-.183-.221-.367-.221-.367h-.661l-12.559 7.151c-.22.184-.44.55-.22.734.22.183.22.183.441.183.22 0 .44-.183.44-.183zm-28.42-.368v-6.051l11.457 6.418a.6.6 0 00.881-.184c.221-.183.221-.55-.22-.733l-12.559-6.968c-.22-.183-.441-.183-.661 0-.22 0-.22.184-.22.367v6.968c0 .366.22.55.661.55a.449.449 0 00.661-.367zm34.146-31.168v-4.584c0-.184-.22-.367-.22-.367h-.661l-8.814 4.584c-.22.183-.441.55-.22.733.22.184.661.367.881.184l7.712-4.034v3.667c0 .367.22.55.661.55.22-.183.661-.55.661-.733zm-18.287.182c.221-.183 0-.55-.22-.733l-8.814-4.584c-.22-.184-.44-.184-.661 0-.22 0-.22.183-.22.366v4.584c0 .367.22.55.661.55.441 0 .661-.183.661-.55v-3.667l7.712 4.034h.22c.441.367.661.183.661 0zm-22.471 10.085c.44.55 0 1.1-.661 1.1h-4.187c-.881 0-1.101-.55-.661-1.1l1.763-2.567h2.203l1.543 2.567z" fill="#C4C4C4"/><path d="M410.083 622.509c.44.551 0 1.101-.661 1.101h-4.187c-.881 0-1.101-.55-.661-1.101l1.763-2.567h2.203l1.543 2.567z" fill="#C4C4C4"/><path d="M410.082 619.024c.441.55 0 1.1-.661 1.1h-4.186c-.881 0-1.102-.55-.661-1.1l1.763-2.567h2.203l1.542 2.567zm-2.422 8.251h-1.102v3.484h1.102v-3.484z" fill="#C4C4C4"/><path d="M407.217 632.226c.973 0 1.762-.657 1.762-1.467s-.789-1.467-1.762-1.467c-.974 0-1.763.657-1.763 1.467s.789 1.467 1.763 1.467zm61.913-6.051c.44.55 0 1.1-.661 1.1h-4.187c-.881 0-1.101-.55-.661-1.1l1.763-2.567h2.203l1.543 2.567z" fill="#C4C4C4"/><path d="M469.13 622.509c.44.551 0 1.101-.661 1.101h-4.187c-.881 0-1.101-.55-.661-1.101l1.763-2.567h2.203l1.543 2.567z" fill="#C4C4C4"/><path d="M469.131 619.024c.44.55 0 1.1-.661 1.1h-4.187c-.881 0-1.101-.55-.661-1.1l1.763-2.567h2.203l1.543 2.567zm-2.425 8.251h-1.102v3.484h1.102v-3.484z" fill="#C4C4C4"/><path d="M466.263 632.226c.974 0 1.763-.657 1.763-1.467s-.789-1.467-1.763-1.467c-.973 0-1.763.657-1.763 1.467s.79 1.467 1.763 1.467zm-64.554 25.122c.441.55 0 1.1-.661 1.1h-4.186c-.882 0-1.102-.55-.661-1.1l1.762-2.568h2.204l1.542 2.568z" fill="#C4C4C4"/><path d="M401.708 653.682c.441.55 0 1.1-.661 1.1h-4.186c-.882 0-1.102-.55-.661-1.1l1.763-2.567h2.203l1.542 2.567z" fill="#C4C4C4"/><path d="M401.709 650.196c.44.551 0 1.101-.661 1.101h-4.187c-.881 0-1.101-.55-.661-1.101l1.763-2.567h2.203l1.543 2.567zm-2.204 8.252h-1.102v3.484h1.102v-3.484z" fill="#C4C4C4"/><path d="M398.845 663.398c.974 0 1.763-.656 1.763-1.467 0-.81-.789-1.467-1.763-1.467-.973 0-1.762.657-1.762 1.467 0 .811.789 1.467 1.762 1.467zm79.1-6.05c.441.55 0 1.1-.661 1.1h-4.186c-.882 0-1.102-.55-.661-1.1l1.762-2.568h2.204l1.542 2.568z" fill="#C4C4C4"/><path d="M477.945 653.682c.441.55 0 1.1-.661 1.1h-4.186c-.882 0-1.102-.55-.661-1.1l1.762-2.567h2.204l1.542 2.567z" fill="#C4C4C4"/><path d="M477.945 650.196c.441.55 0 1.101-.661 1.101h-4.186c-.882 0-1.102-.551-.661-1.101l1.762-2.567h2.204l1.542 2.567zm-2.423 8.252h-1.102v3.484h1.102v-3.484z" fill="#C4C4C4"/><path d="M475.081 663.398c.974 0 1.763-.656 1.763-1.466 0-.811-.789-1.467-1.763-1.467-.973 0-1.763.656-1.763 1.467 0 .81.79 1.466 1.763 1.466zm-93.427 97.734h-31.949V767h31.949v-5.868z" fill="#C4C4C4"/><path d="M375.92 762.049h-20.712c-.22 0-.22 0-.44-.183-.221-.184-.221-.184-.221-.367h.661v-.55.55h-.661l10.356-95.165c0-.183.221-.366.661-.366.221 0 .661.183.661.366l10.356 95.165c0 .183 0 .183-.22.367 0 .183-.221.183-.441.183zm-.661-.917l-9.695-89.297-9.695 89.297h19.39z" fill="#C4C4C4"/><path d="M376.143 761.684c.221-.184.221-.367 0-.55l-18.728-15.586 15.423-12.835c.221-.184.221-.367 0-.55l-12.999-10.819 10.796-8.984c.22-.184.22-.367 0-.551l-8.813-7.334 7.491-6.234c.22-.184.22-.367 0-.55l-6.169-5.134 5.067-4.218c.221-.183.221-.367 0-.55l-4.186-3.484 3.525-2.934c.221-.183.221-.366 0-.55l-2.864-2.383 2.203-2.017c.221-.184.221-.367 0-.55l-2.203-1.834c-.22-.183-.441-.183-.661 0-.22.183-.22.367 0 .55l1.983 1.65-2.424 1.834-.22.183s0 .184.22.184l2.865 2.383-3.526 2.934-.22.184s0 .183.22.183l4.187 3.484-5.068 4.217-.22.183s0 .184.22.184l6.169 5.134-7.491 6.234-.22.184s0 .183.22.183l8.813 7.334-10.796 8.985-.221.183s.001.184.221.184l13 10.818-15.424 12.835-.22.184s0 .183.22.183l18.949 15.769.22.184c.661 1.283.661 1.283.661 1.1z" fill="#C4C4C4"/><path d="M355.652 761.684l18.949-15.769c.22-.183.22-.367 0-.55l-15.424-12.836 13-10.818c.221-.183.221-.367 0-.55l-10.796-8.985 8.813-7.334c.221-.183.221-.367 0-.55-.22-.184-.44-.184-.661 0l-9.254 7.701-.22.183s0 .184.22.184l10.797 8.984-13 10.819-.221.183s0 .183.221.183l15.423 12.836-18.728 15.586c-.221.183-.221.366 0 .55l.22.183c.441.183.441.183.661 0z" fill="#C4C4C4"/><path d="M375.042 753.246c.221 0 .441-.183.441-.367 0-.183-.22-.367-.441-.367h-18.728c-.221 0-.441.184-.441.367 0 .184.22.367.441.367h18.728zm-1.539-14.299c.22 0 .44-.183.44-.367 0-.183-.22-.367-.44-.367h-15.644c-.221 0-.441.184-.441.367 0 .184.22.367.441.367h15.644zm-1.323-11.921c.221 0 .441-.183.441-.367 0-.183-.22-.366-.441-.366h-13c-.22 0-.44.183-.44.366 0 .184.22.367.44.367h13zm-1.1-9.899c.22 0 .44-.183.44-.367 0-.183-.22-.366-.44-.366h-11.017c-.221 0-.441.183-.441.366 0 .184.22.367.441.367h11.017zm-.882-8.435c.22 0 .441-.183.441-.367 0-.183-.221-.366-.441-.366h-9.034c-.22 0-.44.183-.44.366 0 .184.22.367.44.367h9.034zm15.861-3.485h-40.542c-.22 0-.44-.183-.44-.183 0-.184 0-.367.22-.367l16.746-6.418h.22v.367l.22.367-.22-.367v-.367h7.271l16.746 6.418c.22 0 .22.183.22.367-.22.183-.22.183-.441.183zm-1.762-.55l-14.983-5.684h-6.831l-14.983 5.684h36.797zm-2.866-15.586h-31.729c-.22 0-.44-.183-.44-.367 0-.183 0-.366.22-.366l13.881-3.667h.221v.366l.22.367-.22-.367v-.366h4.186l13.881 3.667c.221 0 .221.183.221.366 0 .367-.221.367-.441.367zm-2.424-.55l-11.457-3.117h-3.966l-11.458 3.117h26.881z" fill="#C4C4C4"/><path d="M369.971 705.209l5.949-3.484v3.117c0 .184.22.184.22.184.22 0 .22-.184.22-.184v-3.667c0-.183 0-.183-.22-.183h-.22l-6.39 3.667c-.22 0-.22.183 0 .367 0 .183.22.183.441.183zm-14.759-.367v-3.117l5.949 3.301h.44v-.367l-6.389-3.667h-.221l-.22.183v3.667c0 .184.22.184.22.184.221.183.221 0 .221-.184zm17.629-16.136v-2.384c0-.183 0-.183-.221-.183h-.22l-4.407 2.384c-.22 0-.22.183 0 .366 0 .184.221.184.441 0l3.966-2.2v1.834c0 .183.22.183.22.183.221.367.221.183.221 0zm-9.254.183v-.366l-4.407-2.384h-.22l-.22.183v2.384c0 .183.22.183.22.183.22 0 .22-.183.22-.183v-1.834l3.966 2.201h.221l.22-.184zm-11.68 5.316c.22.367 0 .55-.441.55h-2.204c-.44 0-.661-.183-.44-.55l.881-1.283h1.102l1.102 1.283zm0-2.017c.22.367 0 .55-.441.55h-2.204c-.44 0-.661-.183-.44-.55l.881-1.283h1.102l1.102 1.283zm0-1.833c.22.366 0 .55-.441.55h-2.204c-.44 0-.661-.184-.44-.55l.881-1.284h1.102l1.102 1.284zm-1.106 4.4h-.661v1.833h.661v-1.833z" fill="#C4C4C4"/><path d="M350.365 697.139c.487 0 .882-.328.882-.733 0-.405-.395-.734-.882-.734-.486 0-.881.329-.881.734 0 .405.395.733.881.733zm31.951-2.934c.221.367 0 .55-.44.55h-2.204c-.441 0-.661-.183-.441-.55l.882-1.283h1.102l1.101 1.283zm0-2.017c.221.367 0 .55-.44.55h-2.204c-.441 0-.661-.183-.441-.55l.882-1.283h1.102l1.101 1.283z" fill="#C4C4C4"/><path d="M382.317 690.354c.22.367 0 .551-.441.551h-2.203c-.441 0-.661-.184-.441-.551l.881-1.283h1.102l1.102 1.283zm-1.101 4.401h-.661v1.834h.661v-1.834z" fill="#C4C4C4"/><path d="M381 697.14c.487 0 .881-.328.881-.734 0-.405-.394-.733-.881-.733s-.881.328-.881.733c0 .406.394.734.881.734zm-33.5 13.017c.22.366 0 .55-.441.55h-2.203c-.441 0-.661-.184-.441-.55l.881-1.284h1.102l1.102 1.284z" fill="#C4C4C4"/><path d="M347.5 708.324c.22.367 0 .55-.441.55h-2.203c-.441 0-.661-.183-.441-.55l.881-1.283h1.102l1.102 1.283zm-.001-1.833c.221.366 0 .55-.44.55h-2.204c-.44 0-.661-.184-.44-.55l.881-1.284h1.102l1.101 1.284zm-1.102 4.4h-.661v1.834h.661v-1.834z" fill="#C4C4C4"/><path d="M346.18 713.276c.486 0 .881-.328.881-.733 0-.405-.395-.734-.881-.734-.487 0-.882.329-.882.734 0 .405.395.733.882.733zm40.763-3.119c.22.366 0 .55-.441.55h-2.203c-.441 0-.661-.184-.441-.55l.882-1.284h1.101l1.102 1.284z" fill="#C4C4C4"/><path d="M386.943 708.324c.22.367 0 .55-.441.55h-2.203c-.441 0-.661-.183-.441-.55l.882-1.283h1.101l1.102 1.283zm0-1.833c.22.366 0 .55-.441.55h-2.203c-.441 0-.661-.184-.441-.55l.882-1.284h1.101l1.102 1.284zm-1.106 4.4h-.661v1.833h.661v-1.833z" fill="#C4C4C4"/><path d="M385.404 713.276c.487 0 .882-.328.882-.733 0-.405-.395-.734-.882-.734-.486 0-.881.329-.881.734 0 .405.395.733.881.733zm-4.634-15.772c14.982 2.017 31.287-.184 44.067-7.518 12.78-7.151 22.254-17.786 29.084-28.971 3.526-5.684 6.39-11.552 8.594-17.603 1.101-2.934 2.203-6.051 3.084-9.168l1.322-4.584c-1.322 1.1 2.865 1.283 3.966 1.833 14.543 4.401 31.509 2.934 44.949-3.117 27.542-12.468 44.288-35.572 58.169-57.759 13.661-22.92 24.017-46.757 31.949-71.511l-3.525-.733c-7.492 24.387-17.627 48.224-30.847 70.961-13.441 22.187-29.966 44.923-56.407 57.209-13 6.051-29.084 7.334-43.406 3.3-2.204-.183-2.644-1.833-6.39-.733l-1.102 4.767c-.881 3.117-1.983 6.051-3.084 9.168-2.424 6.051-5.068 11.919-8.373 17.42-11.898 22.736-40.542 41.623-71.61 36.305l-.44.734z" fill="#C4C4C4"/><path d="M385.4 712.907c27.102 4.217 56.627-4.951 72.932-23.654a83.838 83.838 0 0011.017-14.485c1.542-2.567 3.085-5.134 4.186-7.885l1.763-4.034c-1.983-.733 2.424 0 3.305 0 13.661 1.284 27.542.55 40.983-2.384 54.864-13.202 86.813-57.758 103.338-100.115l-3.525-.733c-15.865 41.623-47.153 85.996-100.474 99.015-13 2.934-26.661 3.85-40.102 2.567-1.762.55-3.305-1.834-5.067 1.1l-1.763 4.034c-1.322 2.567-2.644 5.134-4.186 7.701-3.085 4.951-6.611 9.902-10.797 14.302-16.085 18.52-44.728 27.871-71.61 23.837v.734zm-35.036-16.134c24.458-4.034 45.831-19.62 52.881-39.79 1.983-4.951 3.305-10.085 4.187-15.219.441-2.567.661-5.134.661-7.701 0-.733.22-3.667-.22-2.75l4.406-1.284c11.678-3.667 22.695-9.168 31.729-16.319 36.796-29.521 46.05-74.262 45.61-114.968l-3.526.183c.882 39.973-7.932 84.347-43.627 113.501-8.813 7.151-19.389 12.469-30.847 16.136l-4.406 1.284c-2.204 2.017-.441 2.75-1.102 4.217 0 2.567-.221 5.134-.661 7.701-.661 5.134-1.983 10.085-3.966 15.036-6.61 19.986-27.322 35.389-51.559 39.606l.44.367z" fill="#C4C4C4"/><path d="M345.965 712.908c21.593.55 34.593-16.686 43.406-30.438 2.204-3.667 4.407-7.334 6.17-11.185l2.644-5.684 1.322-2.934c-1.763 0 1.763-.183 2.203-.183 10.356-.367 19.39-5.501 26.22-11.552 26.441-25.487 36.576-58.859 45.39-90.581l-3.526-.55c-8.152 31.538-18.067 64.91-43.406 89.847-6.61 5.868-14.983 10.635-24.678 11.185-1.322.551-1.983-.916-3.966 1.284l-1.102 2.934-2.644 5.684c-1.762 3.851-3.966 7.518-5.949 11.185-8.593 13.752-21.152 30.621-41.864 30.255l-.22.733z" fill="#C4C4C4"/><path d="M1057.21 706.671c-87.034 12.102-176.271 6.784-262.643-7.151-43.186-7.152-85.931-16.32-127.795-27.871l-15.644-4.584c-6.17-1.651-11.017.55-16.746.55-11.017 1.1-21.813 2.2-32.83 2.933-21.814 1.834-43.847 2.751-65.881 3.484-176.05 4.768-353.201-17.602-519.776-64.543l-1.322 2.75c167.457 46.574 344.828 68.578 521.098 63.444 22.034-.734 44.067-1.834 66.101-3.668 11.017-.733 22.034-1.833 32.83-2.933 5.288-.184 11.458-2.017 15.865-.734l15.644 4.584c41.864 11.552 84.609 20.72 128.016 27.688 86.372 13.752 175.829 18.886 263.083 6.601v-.55z" fill="#C4C4C4"/><path d="M1077.92 702.454c-84.387 11.919-171.42 6.601-254.708-8.068-41.864-7.518-83.067-17.236-123.168-29.521-5.068-1.467-9.915-3.117-14.983-4.767-6.17-1.284-10.797.55-16.305.733a891.483 891.483 0 01-31.949 2.75 1241.293 1241.293 0 01-63.898 3.301c-170.761 4.584-343.065-18.336-503.03-68.211l-1.322 2.751c160.846 49.691 333.37 72.244 504.352 67.294 21.373-.734 42.746-1.834 64.118-3.484 10.576-.734 21.373-1.834 31.949-2.934 5.068-.183 11.237-1.834 15.424-.917 5.067 1.65 9.915 3.301 14.983 4.767 40.321 12.286 81.524 22.004 123.389 29.338 83.728 14.486 170.761 19.803 255.148 7.518v-.55z" fill="#C4C4C4"/><path d="M1097.97 697.686c-81.97 11.735-166.577 6.418-247.221-9.351-40.321-7.885-80.202-18.336-118.541-31.355a447.06 447.06 0 01-14.322-5.134c-6.169-.734-10.576.733-15.864.917a887.068 887.068 0 01-31.068 2.75 1175.089 1175.089 0 01-62.135 3.301c-165.694 4.217-333.591-19.253-486.505-72.428l-1.542 2.75c154.016 53.175 322.133 76.279 488.267 71.695 20.712-.55 41.644-1.651 62.356-3.301a886.797 886.797 0 0031.067-2.75c4.848-.367 11.017-1.467 14.983-1.101a448.844 448.844 0 0014.322 5.135c38.559 13.018 78.44 23.47 118.982 31.171 80.864 15.402 165.691 20.537 247.661 8.801l-.44-1.1z" fill="#C4C4C4"/><path d="M1121.11 692.37c-79.32 11.369-161.066 6.235-238.624-10.451-38.78-8.252-76.898-19.437-113.254-33.556-4.627-1.833-9.034-3.667-13.44-5.5-6.17-.184-10.356.733-15.424 1.1-9.915 1.1-19.83 2.017-29.966 2.567-20.051 1.467-40.101 2.567-60.152 3.117-159.965 4.034-322.794-19.803-467.556-77.195l-1.762 2.75c145.863 57.392 308.912 80.679 469.318 76.279 20.051-.55 40.101-1.651 60.152-3.301a825.98 825.98 0 0029.966-2.75c4.627-.367 10.576-1.1 14.322-1.284 4.407 2.017 9.034 3.851 13.44 5.501 36.576 14.119 74.695 25.121 113.695 33.372 77.779 16.502 159.745 21.453 239.065 9.901l.22-.55z" fill="#C4C4C4"/><path d="M1151.96 686.134c-75.58 11.002-154.019 5.868-227.392-12.468-36.576-9.168-72.27-21.27-105.762-36.856-4.186-2.017-8.372-4.034-12.338-6.234-6.17 0-9.916.733-14.983 1.1-9.475.917-18.949 1.834-28.644 2.567-19.17 1.467-38.119 2.384-57.288 2.934-152.473 3.667-309.353-20.353-442.437-83.613l-1.983 2.567c134.626 63.443 291.506 86.913 444.64 82.88 19.17-.551 38.339-1.467 57.508-3.118 9.475-.55 19.17-1.65 28.644-2.567 4.407-.55 10.136-.917 13.661-1.467 3.966 2.201 8.153 4.218 12.339 6.235 33.491 15.585 69.406 27.687 106.203 36.855 73.592 18.153 152.252 23.104 228.052 11.919l-.22-.734zM32.422 561.266c-.441 0-.661 0-.882-.183-.22-.183-.44-.367-.44-.55l-5.289-33.555c0-.367.22-.55.441-.734.22-.183.661-.183 1.102 0l54.864 25.671c.44.183.66.55.44.917 0 .367-.44.55-.88.733l-49.356 7.701zm46.49-9.351l-50.677-23.654 4.848 31.172 45.83-7.518z" fill="#C4C4C4"/><path d="M56.435 553.2c.44-.367.44-.917 0-1.1l-28.644-25.487c-.44-.367-1.102-.367-1.322 0-.44.366-.44.916 0 1.1L55.113 553.2c.22.183.44.183.661.183.22 0 .44-.183.661-.183zm-24.013 74.445h-.22c-.22 0-.441 0-.441-.183-.22-.183-.44-.367-.44-.55v-19.436c0-.367.22-.551.66-.734l.22.734-.22-.734 9.475-2.567c.22 0 .44 0 .66.183.221.184.441.367.441.55v19.803c0 .367-.22.551-.66.734l-9.475 2.2zm8.373-3.484v-18.152l-7.712 2.017v17.969l7.712-1.834z" fill="#C4C4C4"/><path d="M32.422 608.21h-.22c-.22 0-.441 0-.441-.183-.22-.183-.44-.367-.44-.55v-19.253c0-.367.22-.55.44-.733l.22.733-.22-.733 9.475-2.934h.88c.221.183.441.366.441.55v19.803c0 .367-.22.55-.66.733l-9.475 2.567zm8.373-3.85v-18.153l-7.712 2.384v17.786l7.712-2.017z" fill="#C4C4C4"/><path d="M32.642 588.956h-.22c-.22 0-.441 0-.441-.183-.22-.184-.441-.367-.441-.55v-19.987c0-.367.22-.55.44-.733l.221.733-.22-.733 9.474-3.118h.882c.22.184.44.367.44.551v19.986c0 .367-.22.55-.44.733l-9.695 3.301zm8.152-4.217v-18.52l-7.712 2.567v18.52l7.712-2.567zm-8.373 62.711s-.22 0 0 0c-.44 0-.66 0-.66-.184-.221-.183-.221-.366-.221-.55v-19.803c0-.366.22-.55.661-.733l.22.733-.22-.733 9.475-2.384c.22 0 .44 0 .66.184.22.183.441.366.441.55v20.536c0 .367-.22.55-.66.734l-9.696 1.65zm8.373-2.751V625.63l-7.712 1.833V645.8l7.712-1.101zm-8.373 43.454s-.22 0 0 0c-.22 0-.44 0-.66-.183-.221-.184-.221-.367-.221-.55v-21.454c0-.366.22-.733.661-.733v.733-.733l9.475-.734c.22 0 .44 0 .66.184.22.183.22.367.22.55v21.453c0 .367-.22.734-.66.734l-9.475.733zm8.373-2.384v-19.986l-7.712.733v20.17l7.712-.917zm-8.592 45.294c-.22 0-.441 0-.661-.184-.22-.183-.22-.366-.22-.55v-22.003c0-.367.44-.734.88-.734v.734-.734l9.475-.183c.22 0 .44 0 .661.183.22.184.22.367.22.55v21.82c0 .367-.44.734-.88.734l-9.475.367zm8.593-1.834v-20.353l-7.712.183v20.537l7.712-.367z" fill="#C4C4C4"/><path d="M41.676 752.515h-9.474c-.22 0-.441 0-.661-.184-.22-.183-.22-.367-.22-.55v-21.453c0-.367.44-.734.88-.734l9.475-.366c.22 0 .44 0 .661.183.22.183.22.367.22.55v22.003c0 .184 0 .367-.22.551h-.66zm-.881-1.284v-20.536l-7.712.366v20.17h7.712zm.881-20.536v-.734.734zm-9.255-64.179c-.22 0-.22 0 0 0-.22 0-.44 0-.66-.183-.221-.184-.221-.367-.221-.55v-19.07c0-.367.22-.55.661-.733l.22.733-.22-.733 9.475-1.467c.22 0 .44 0 .66.183.22.183.22.367.22.55v19.803c0 .367-.22.734-.66.734l-9.475.733zm8.373-2.2V645.98l-7.712 1.283v17.603l7.712-.55zm-8.592 44.741c-.22 0-.441 0-.661-.184-.22-.183-.22-.367-.22-.55V687.42c0-.367.22-.734.66-.734v.734-.734l9.475-.916c.22 0 .44 0 .66.183.221.183.221.367.221.55v21.637c0 .366-.44.733-.881.733l-9.254.184zm8.593-1.651v-20.169l-7.712.733v19.62l7.712-.184z" fill="#C4C4C4"/><path d="M33.081 752.149l9.475-22.003c.22-.367 0-.733-.44-.917a.87.87 0 00-1.102.367l-9.475 22.003c-.22.367 0 .734.44.917h.221c.44 0 .661-.183.881-.367zm0-21.636l9.475-22.187c.22-.366 0-.733-.44-.916a.87.87 0 00-1.102.366l-9.475 22.187c-.22.367 0 .733.44.917h.221c.44.183.661 0 .881-.367zm0-21.822l9.475-22.003c.22-.367 0-.734-.44-.917a.87.87 0 00-1.102.367l-9.475 22.003c-.22.367 0 .734.44.917h.221c.44 0 .661-.183.881-.367zm0-21.084l9.475-22.371c.22-.366 0-.733-.44-.916a.87.87 0 00-1.102.366l-9.475 22.371c-.22.366 0 .733.44.916h.221c.44.184.661 0 .881-.366zm0-21.456l9.475-20.536c.22-.367 0-.734-.44-.917a.87.87 0 00-1.102.367l-9.475 20.536c-.22.367 0 .734.44.917h.221c.44 0 .661-.183.881-.367zm0-19.069l9.475-22.187c.22-.367 0-.734-.44-.917a.87.87 0 00-1.102.367l-9.475 22.187c-.22.366 0 .733.44.916h.221c.44 0 .661-.183.881-.366zm0-19.987l9.475-22.003c.22-.367 0-.734-.44-.917a.87.87 0 00-1.102.367l-9.475 22.003c-.22.367 0 .734.44.917h.221c.44.183.661 0 .881-.367zm0-19.436l9.475-22.37c.22-.367 0-.734-.44-.917a.87.87 0 00-1.102.367l-9.475 22.37c-.22.367 0 .733.44.917h.221c.44.183.661 0 .881-.367zm0-19.251l9.475-22.92c.22-.367 0-.734-.44-.917a.87.87 0 00-1.102.366l-9.475 23.104c-.22.367 0 .733.44.917h.221c.44 0 .661-.184.881-.55z" fill="#C4C4C4"/><path d="M51.587 626.362c-.22.183-.44.183-.66.183h-.221l-9.475-1.1c-.44 0-.66-.367-.66-.733v-19.804c0-.183.22-.366.22-.55.22-.183.44-.183.66-.183l9.475 1.284c.44 0 .661.366.661.733v19.62c.44.183.22.366 0 .55zm-1.322-1.284v-18.153l-7.712-1.1v18.336l7.712.917z" fill="#C4C4C4"/><path d="M51.587 606.742c-.22.183-.44.183-.66.183h-.221l-9.475-1.283c-.44 0-.66-.367-.66-.734v-19.803c0-.183.22-.366.22-.55.22-.183.44-.183.66-.183l9.475 1.65c.44 0 .661.367.661.734v19.619c.44.184.22.367 0 .367zm-1.322-1.283v-17.97l-7.712-1.283v18.336l7.712.917z" fill="#C4C4C4"/><path d="M51.59 587.306a.755.755 0 01-.44.183h-.22l-9.475-1.65c-.44 0-.661-.367-.661-.734v-19.986c0-.183.22-.367.22-.55.22-.184.441-.184.661-.184l9.475 1.467c.44 0 .66.367.66.734v20.17c.221.366 0 .55-.22.55zm-1.322-1.284v-18.703l-7.711-1.1v18.52l7.711 1.283zm1.322 60.691c-.22.184-.44.184-.66.184l-9.475-.917c-.44 0-.661-.367-.661-.734V624.71c0-.183 0-.367.22-.55.22-.184.441-.183.661-.183l9.475 1.1c.44 0 .66.366.66.733v20.353c.221.184 0 .55-.22.55zm-1.322-1.283v-19.07l-7.711-.917v19.07l7.711.917zm1.542 42.359c-.22.184-.44.184-.66.184l-9.475-.734c-.441 0-.661-.367-.661-.733v-21.454c0-.183 0-.366.22-.55.22-.183.44-.183.661-.183l9.474.917c.441 0 .662.367.662.733v21.27c0 .184-.22.367-.22.55zm-1.542-1.467v-19.803l-7.712-.733v19.986l7.712.55zm1.542 44.739c-.22.184-.44.184-.66.184l-9.475-.734c-.44 0-.881-.366-.881-.733v-21.82c0-.184 0-.367.22-.55.22-.184.441-.184.661-.184l9.475.734c.44 0 .881.367.881.733v21.82c0 .184-.22.55-.22.55zm-1.542-1.283v-20.353l-7.711-.55v20.353l7.711.55z" fill="#C4C4C4"/><path d="M51.15 752.514h-9.475c-.22 0-.44 0-.66-.183-.221-.183-.221-.367-.221-.55v-22.003c0-.184 0-.367.22-.551.22-.183.441-.183.661-.183l9.475.734c.44 0 .881.366.881.733v21.27c0 .183 0 .367-.22.55-.22.183-.44.183-.661.183zm-.882-21.27l-7.711-.55v20.537h7.711v-19.987zm1.542-64.908c-.22.183-.44.183-.66.183l-9.475-.917c-.441 0-.661-.366-.661-.733v-19.803c0-.184 0-.367.22-.55.22-.184.44-.184.661-.184l9.474.917c.441 0 .662.367.662.734v19.619c0 .55-.22.734-.22.734zm-1.542-1.284v-18.153l-7.712-.733v18.336l7.712.55zm1.542 44.191c-.22.183-.44.183-.66.183l-9.475-.733c-.44 0-.881-.367-.881-.734v-21.636c0-.184 0-.367.22-.55.22-.184.441-.184.661-.184l9.475.734c.44 0 .881.366.881.733v21.637c0 .367-.22.55-.22.55zm-1.542-1.284V687.79l-7.711-.55v20.169l7.711.55z" fill="#C4C4C4"/><path d="M51.37 752.516c.44-.183.66-.55.44-.917l-9.474-22.003a.87.87 0 00-1.102-.367c-.44.184-.66.55-.44.917l9.474 22.003c.22.367.44.551.881.551 0-.184.22-.184.22-.184zm0-21.269c.44-.184.66-.55.44-.917l-9.474-22.554a.87.87 0 00-1.102-.366c-.44.183-.66.55-.44.916l9.474 22.554c.22.367.44.55.881.55 0-.183.22-.183.22-.183zm0-21.823c.44-.183.66-.55.44-.917l-9.474-22.37a.87.87 0 00-1.102-.367c-.44.184-.66.55-.44.917l9.474 22.37c.22.367.44.55.881.55 0-.183.22-.183.22-.183zm0-21.634c.44-.183.66-.55.44-.917l-9.474-22.187a.87.87 0 00-1.102-.366c-.44.183-.66.55-.44.916l9.474 22.187c.22.367.44.55.881.55 0 0 .22 0 .22-.183zm0-21.273c.44-.184.66-.55.44-.917l-9.474-20.72a.87.87 0 00-1.102-.367c-.44.184-.66.55-.44.917l9.474 20.72c.22.367.44.367.881.367h.22zm0-19.618c.44-.184.66-.551.44-.917l-9.474-21.454a.87.87 0 00-1.102-.366c-.44.183-.66.55-.44.916l9.474 21.454c.22.367.44.55.881.55 0-.183.22-.183.22-.183zm0-20.536c.44-.183.66-.55.44-.917l-9.474-20.72a.87.87 0 00-1.102-.366c-.44.183-.66.55-.44.916l9.474 20.72c.22.367.44.367.881.367h.22zm0-19.435c.44-.184.66-.551.44-.917l-9.474-21.087a.87.87 0 00-1.102-.367c-.44.184-.66.55-.44.917l9.474 21.087c.22.367.44.55.881.55 0-.183.22-.183.22-.183zm0-19.437c.44-.183.66-.55.44-.917l-9.474-21.637a.87.87 0 00-1.102-.366c-.44.183-.66.55-.44.917l9.474 21.636c.22.367.44.55.881.55 0-.183.22-.183.22-.183zm151.373 1.465h-.22c-.221 0-.441 0-.661-.183-.221-.184-.441-.367-.441-.734v-24.753c0-.367.22-.734.661-.917l.22.917-.22-.917 11.898-3.117c.22 0 .661 0 .881.183.221.183.441.367.441.733v24.938c0 .366-.22.733-.881.916l-11.678 2.934zm10.576-4.584v-23.103l-9.695 2.567v22.92l9.695-2.384z" fill="#C4C4C4"/><path d="M202.743 564.203h-.22c-.221 0-.441 0-.661-.183-.221-.183-.441-.367-.441-.733v-24.754c0-.367.22-.734.661-.917l.441.917-.441-.917 11.898-3.301c.22 0 .661 0 .881.184.221.183.441.366.441.733v24.937c0 .367-.22.734-.661.917l-11.898 3.117zm10.576-4.767v-23.104l-9.695 2.751v22.92l9.695-2.567z" fill="#C4C4C4"/><path d="M202.744 539.265h-.441c-.22 0-.44 0-.661-.183-.22-.183-.44-.367-.44-.734v-24.57c0-.367.22-.733.661-.917l.44.917-.22-.917 11.898-3.85c.441-.184.661 0 1.102.183.22.183.441.367.441.733v25.304c0 .367-.221.734-.661.917l-12.119 3.117zm10.576-4.767v-23.287l-9.695 3.117v22.92l9.695-2.75zm-10.577 79.394c-.22 0-.22 0 0 0-.441 0-.661 0-.881-.183-.221-.183-.441-.367-.441-.733v-24.938c0-.366.22-.733.661-.916l.22.916-.22-.916 11.898-2.934c.22 0 .661 0 .881.183.221.184.441.367.441.734v26.037c0 .367-.441.733-.881.917l-11.678 1.833zm10.576-3.484v-24.203l-9.695 2.383v23.287l9.695-1.467zm-10.796 55.926c-.44 0-.661 0-.881-.184-.22-.183-.441-.366-.441-.733v-27.138c0-.55.441-.917.882-.917l.22.917-.22-.917 11.898-1.1c.22 0 .661 0 .881.184.22.183.441.366.441.733v27.138c0 .366-.441.916-.882.916l-11.898 1.101zm10.797-2.934v-25.304l-9.695.917V664.5l9.695-1.1zm-10.797 58.31c-.44 0-.661 0-.881-.183-.22-.184-.441-.367-.441-.734v-28.971c0-.55.441-.917 1.102-.917v.917-.917l11.898-.366c.22 0 .661 0 .881.183.221.183.441.367.441.733v28.605c0 .55-.441.917-1.102.917l-11.898.733zm10.797-2.384v-26.77l-9.695.366v27.138l9.695-.734z" fill="#C4C4C4"/><path d="M214.42 752.698h-11.899c-.22 0-.661 0-.661-.183-.22-.184-.22-.367-.22-.55v-30.988c0-.55.441-.917 1.102-.917l11.898-.55c.22 0 .661 0 .881.183.221.183.441.367.441.734v31.721c0 .183 0 .55-.22.55h-1.322zm-1.102-1.65v-29.705l-9.695.55v29.338h9.695v-.183zm1.102-29.888v-.917.917zm-11.897-82.146c-.44 0-.661 0-.881-.183-.22-.184-.441-.367-.441-.734v-25.12c0-.367.441-.734.882-.917l.22.917-.22-.917 11.898-2.017c.22 0 .661 0 .881.183.22.184.441.367.441.734v26.037c0 .55-.441.917-.882.917l-11.898 1.1zm10.797-2.75V612.06l-9.695 1.65v23.47l9.695-.916zm-10.797 56.657c-.221 0-.661 0-.882-.184-.22-.183-.22-.366-.22-.733v-26.588c0-.366.441-.916.881-.916l.221.916-.221-.916 11.898-1.284c.221 0 .661 0 .882.183.22.184.44.367.44.734v27.321c0 .55-.44.916-1.101.916l-11.898.551zm10.796-2.201v-25.487l-9.695.917v24.754l9.695-.184z" fill="#C4C4C4"/><path d="M203.624 752.147l11.898-31.538c.22-.55-.22-.917-.661-1.1-.661-.184-1.102.183-1.322.55l-11.898 31.538c-.221.55.22.917.661 1.1h.22c.441 0 .881-.183 1.102-.55zm-.216-30.987l11.899-29.154c.22-.55-.221-.917-.661-1.101-.661-.183-1.102 0-1.322.551l-11.899 29.154c-.22.55.221.917.661 1.1h.441c.441 0 .881-.183.881-.55zm-.004-28.97l11.898-27.688c.22-.55 0-.916-.661-1.1-.661-.183-1.102 0-1.322.55l-11.898 27.688c-.221.55 0 .917.661 1.1h.44c.441.183.882-.183.882-.55zm0-26.404l11.898-28.237c.22-.55 0-.917-.661-1.101-.661-.183-1.102 0-1.322.551l-11.898 28.237c-.221.55 0 .917.661 1.1h.44c.441 0 .882-.183.882-.55zm0-27.324l11.898-27.137c.22-.55 0-.917-.661-1.1-.661-.184-1.102 0-1.322.55l-11.898 27.137c-.221.55 0 .917.661 1.1h.44c.441 0 .882-.183.882-.55zm0-25.117l11.898-27.871c.22-.55 0-.917-.661-1.1-.661-.183-1.102 0-1.322.55l-11.898 28.054c-.221.551 0 .917.661 1.101h.44c.441-.184.882-.367.882-.734zm0-24.94l11.898-27.871c.22-.55 0-.917-.661-1.1-.661-.184-1.102 0-1.322.55l-11.898 27.871c-.221.55 0 .916.661 1.1h.44c.441 0 .882-.184.882-.55zm0-24.753l11.898-28.054c.22-.55 0-.917-.661-1.101-.661-.183-1.102 0-1.322.551l-11.898 28.054c-.221.55 0 .917.661 1.1h.44c.441 0 .882-.183.882-.55zm0-24.936l11.898-28.604c.22-.55 0-.917-.661-1.1-.661-.184-1.102 0-1.322.55l-11.898 28.604c-.221.55 0 .917.661 1.1h.44c.441 0 .882-.183.882-.55z" fill="#C4C4C4"/><path d="M226.982 587.121c-.221.184-.441.184-.661.184h-.221l-11.898-1.467a.9.9 0 01-.881-.917v-24.937c0-.183.22-.55.44-.734.221-.183.661-.183.882-.183l11.898 1.65a.9.9 0 01.881.917v24.754c0 .367 0 .55-.44.733zm-1.763-1.65v-22.92l-9.695-1.467v23.287l9.695 1.1z" fill="#C4C4C4"/><path d="M226.982 562.553c-.221.183-.441.183-.661.183h-.221l-11.898-1.65a.9.9 0 01-.881-.917v-24.937c0-.183.22-.55.44-.733.221-.184.661-.184.882-.184l11.898 2.017a.9.9 0 01.881.917v24.571c0 .183 0 .55-.44.733zm-1.763-1.834v-22.736l-9.695-1.651v23.104l9.695 1.283z" fill="#C4C4C4"/><path d="M226.982 537.798c-.221.183-.441.183-.661.183h-.221l-11.898-2.017a.9.9 0 01-.881-.917v-25.12c0-.367.22-.55.44-.734.221-.183.661-.183.882-.183l11.898 2.567c.441.184.881.55.881.917v24.754c0 .183-.22.55-.44.55zm-1.763-1.65v-22.921l-9.695-2.2v23.47l9.695 1.651zm1.98 76.831c-.22.183-.441.183-.661.183h-.22l-11.899-1.284a.9.9 0 01-.881-.916v-26.038c0-.183.22-.55.441-.733.22-.184.661-.184.881-.184l11.898 1.467c.441 0 .882.367.882.917v25.854c-.221.367-.221.55-.441.734zm-1.983-1.651v-24.02l-9.695-1.1v24.203l9.695.917zm1.981 54.459c-.22.183-.44.183-.661.183l-11.898-.917a.9.9 0 01-.881-.917v-27.137c0-.184.22-.55.441-.734.22-.183.44-.183.881-.183l11.898 1.1a.9.9 0 01.881.917v26.954c-.44.367-.44.55-.661.734zm-1.983-1.651v-25.12l-9.694-.917v25.304l9.694.733zm1.983 57.574c-.22.184-.44.184-.661.184l-11.898-.917c-.661 0-.881-.367-.881-.917v-28.604c0-.184.22-.55.441-.734.22-.183.44-.183.881-.183l11.898.917c.661 0 .881.366.881.917v28.604c-.44.367-.44.55-.661.733zm-1.983-1.65v-26.771l-9.694-.733v26.771l9.694.733z" fill="#C4C4C4"/><path d="M226.317 752.697h-11.899c-.22 0-.661 0-.661-.183-.22-.183-.22-.367-.22-.55v-31.722c0-.183.22-.55.441-.733.22-.183.44-.183.881-.183l11.898.916c.661 0 .882.367.882.917v30.805c0 .183-.221.55-.221.55-.44.183-.661.183-1.101.183zm-1.102-30.804l-9.695-.734v29.705h9.695v-28.971zm1.983-83.063c-.22.184-.441.184-.661.184h-.22l-11.899-1.1a.901.901 0 01-.881-.917v-26.038c0-.183.22-.55.441-.733.22-.183.44-.183.881-.183l11.898 1.283c.441 0 .882.367.882.917v25.854c-.221.367-.221.55-.441.733zm-1.983-1.65v-24.204l-9.695-1.1v24.204l9.695 1.1zm1.982 55.924c-.22.183-.44.183-.661.183l-11.898-.917c-.661 0-.881-.366-.881-.916v-27.321c0-.184.22-.55.441-.734.22-.183.44-.183.881-.183l11.898.917c.661 0 .881.367.881.917v27.504c-.44.183-.44.367-.661.55zm-1.983-1.65v-25.488l-9.694-.733v25.671l9.694.55z" fill="#C4C4C4"/><path d="M226.76 752.696c.661-.183.882-.733.661-1.1l-11.898-31.538c-.22-.55-.881-.734-1.322-.55-.661.183-.881.733-.661 1.1l11.898 31.538c.221.367.661.55 1.102.55h.22zm0-30.803c.661-.183.882-.733.661-1.1l-11.898-29.521c-.22-.55-.881-.733-1.322-.55-.661.183-.881.733-.661 1.1l11.898 29.521c.221.367.661.55 1.102.55 0 .184 0 .184.22 0zm0-28.603c.661-.183.882-.733.661-1.1l-11.898-28.238c-.22-.55-.881-.733-1.322-.55-.661.184-.881.734-.661 1.1l11.898 28.238c.221.367.661.55 1.102.55 0 .184 0 0 .22 0zm0-27.322c.661-.183.882-.733.661-1.1l-11.898-28.054c-.22-.55-.881-.734-1.322-.55-.661.183-.881.733-.661 1.1l11.898 28.054c.221.367.661.55 1.102.55 0 .183 0 0 .22 0zm0-26.956c.661-.183.882-.733.661-1.1l-11.898-27.137c-.22-.55-.881-.734-1.322-.55-.661.183-.881.733-.661 1.1l11.898 27.137c.221.367.661.55 1.102.55 0 .184 0 .184.22 0zm0-25.852c.661-.183.882-.733.661-1.1l-11.898-27.321c-.22-.55-.881-.734-1.322-.55-.661.183-.881.733-.661 1.1l11.898 27.321c.221.367.661.55 1.102.55h.22zm0-26.036c.661-.183.882-.733.661-1.1l-11.898-26.221c-.22-.55-.881-.733-1.322-.55-.661.184-.881.734-.661 1.1l11.898 26.221c.221.367.661.55 1.102.55 0 .184 0 .184.22 0zm0-24.388c.661-.184.882-.734.661-1.101l-11.898-26.587c-.22-.55-.881-.733-1.322-.55-.661.183-.881.733-.661 1.1l11.898 26.588c.221.366.661.55 1.102.55h.22zm0-24.753c.661-.183.882-.734.661-1.1l-11.898-27.321c-.22-.55-.881-.734-1.322-.55-.661.183-.881.733-.661 1.1l11.898 27.321c.221.367.661.55 1.102.55 0 .183 0 0 .22 0zm-56.847-23.288h-.441c-.22 0-.661-.184-.881-.367-.22-.367-.22-.734 0-1.1l50.017-55.926c.22-.366.881-.366 1.322-.183.44.183.661.55.44.917l-.881-.184.881.184-17.186 44.74c0 .183-.22.367-.661.55l-32.61 11.369zm31.729-12.652l15.203-39.607-44.288 49.508 29.085-9.901z" fill="#C4C4C4"/><path d="M215.081 510.112l5.508-52.075a.901.901 0 00-.881-.917c-.661 0-1.102.367-1.102.734l-5.508 52.074a.9.9 0 00.881.917c.661 0 1.102-.367 1.102-.733zm-235.54 256.887H286.25v-6.785l-59.931-8.251H32.202l-52.661 8.251v6.785z" fill="#C4C4C4"/><path d="M52.47 751.966V567.688c0-.55-.662-1.1-1.323-1.1-.66 0-1.322.55-1.322 1.1v184.278c0 .55.661 1.101 1.322 1.101.661-.184 1.322-.551 1.322-1.101zm215.271-207.752c.881 1.1.22 2.017-1.542 2.017h-8.153c-1.542 0-2.203-.917-1.542-2.017l3.305-4.768h4.407l3.525 4.768zm0-6.785c.881 1.101.22 2.017-1.542 2.017h-8.153c-1.542 0-2.203-.916-1.542-2.017l3.305-4.767h4.407l3.525 4.767zm.001-6.966c.881 1.1.22 2.017-1.542 2.017h-8.153c-1.542 0-2.203-.917-1.542-2.017l3.305-4.767h4.407l3.525 4.767zm-.001-6.786c.881 1.1.22 2.017-1.542 2.017h-8.153c-1.542 0-2.203-.917-1.542-2.017l3.305-4.767h4.407l3.525 4.767zm0-6.967c.881 1.1.22 2.017-1.542 2.017h-8.153c-1.542 0-2.203-.917-1.542-2.017l3.305-4.768h4.407l3.525 4.768zm-4.405 29.702h-2.204v8.618h2.204v-8.618z" fill="#C4C4C4"/><path d="M262.234 557.601c1.825 0 3.305-1.231 3.305-2.75s-1.48-2.751-3.305-2.751c-1.826 0-3.305 1.232-3.305 2.751s1.479 2.75 3.305 2.75zm2.204-53.725h-4.407v8.068h4.407v-8.068zm-77.558 60.33c.661 1.1.22 1.833-1.322 1.833h-7.272c-1.322 0-1.983-.917-1.322-1.833l2.865-4.401h3.966l3.085 4.401z" fill="#C4C4C4"/><path d="M186.88 558.153c.661 1.1.22 1.833-1.322 1.833h-7.272c-1.322 0-1.983-.917-1.322-1.833l2.865-4.401h3.966l3.085 4.401z" fill="#C4C4C4"/><path d="M186.88 551.92c.661 1.1.22 1.834-1.322 1.834h-7.272c-1.322 0-1.983-.917-1.322-1.834l2.865-4.401h3.966l3.085 4.401zm0-6.237c.661 1.1.22 1.833-1.322 1.833h-7.272c-1.322 0-1.983-.916-1.322-1.833l2.865-4.401h3.966l3.085 4.401z" fill="#C4C4C4"/><path d="M186.881 539.45c.661 1.1.22 1.833-1.322 1.833h-7.271c-1.322 0-1.983-.916-1.322-1.833l2.864-4.401h3.966l3.085 4.401zm-3.963 26.772h-1.983v7.702h1.983v-7.702z" fill="#C4C4C4"/><path d="M182.034 576.304c1.582 0 2.865-1.067 2.865-2.383 0-1.317-1.283-2.384-2.865-2.384-1.582 0-2.864 1.067-2.864 2.384 0 1.316 1.282 2.383 2.864 2.383zm1.98-48.406h-3.966v7.334h3.966v-7.334zm-58.171 50.972c.661.917.221 1.651-1.101 1.651h-6.611c-1.322 0-1.762-.734-1.101-1.651l2.644-3.85h3.525l2.644 3.85zm0-5.684c.661.917.221 1.65-1.101 1.65h-6.611c-1.322 0-1.762-.733-1.101-1.65l2.644-3.851h3.525l2.644 3.851z" fill="#C4C4C4"/><path d="M125.843 567.687c.661.917.221 1.65-1.101 1.65h-6.611c-1.322 0-1.762-.733-1.101-1.65l2.644-3.851h3.525l2.644 3.851zm0-5.503c.661.917.221 1.651-1.101 1.651h-6.611c-1.322 0-1.762-.734-1.101-1.651l2.644-3.85h3.525l2.644 3.85zm0-5.684c.661.917.221 1.65-1.101 1.65h-6.611c-1.322 0-1.762-.733-1.101-1.65l2.644-3.85h3.525l2.644 3.85zm-3.523 24.022h-1.762v6.968h1.762v-6.968z" fill="#C4C4C4"/><path d="M121.437 589.687c1.46 0 2.644-.985 2.644-2.2 0-1.215-1.184-2.2-2.644-2.2-1.46 0-2.644.985-2.644 2.2 0 1.215 1.184 2.2 2.644 2.2zm1.76-43.64h-3.526v6.601h3.526v-6.601zm-49.792 46.028c.661.917 0 1.467-1.101 1.467h-5.95c-1.101 0-1.542-.733-1.101-1.467l2.424-3.484h3.305l2.423 3.484z" fill="#C4C4C4"/><path d="M73.405 587.126c.661.917 0 1.467-1.101 1.467h-5.95c-1.101 0-1.542-.734-1.101-1.467l2.424-3.484h3.305l2.423 3.484zm0-4.954c.661.917 0 1.467-1.101 1.467h-5.95c-1.101 0-1.542-.733-1.101-1.467l2.424-3.484h3.305l2.423 3.484zm0-5.134c.661.917 0 1.467-1.101 1.467h-5.95c-1.101 0-1.542-.733-1.101-1.467l2.424-3.484h3.305l2.423 3.484z" fill="#C4C4C4"/><path d="M73.407 572.089c.66.917 0 1.467-1.102 1.467h-5.949c-1.102 0-1.542-.734-1.102-1.467l2.424-3.484h3.305l2.424 3.484zm-3.305 21.636H68.56v6.235h1.542v-6.235z" fill="#C4C4C4"/><path d="M69.222 601.975c1.34 0 2.424-.903 2.424-2.017 0-1.114-1.085-2.017-2.424-2.017-1.338 0-2.423.903-2.423 2.017 0 1.114 1.085 2.017 2.423 2.017zm1.761-39.238h-3.305v5.868h3.305v-5.868zm-52.004 41.255c.44.733 0 1.283-.882 1.283H12.81c-1.102 0-1.542-.55-.881-1.283l2.203-3.118h2.864l1.984 3.118zm0-4.401c.44.733 0 1.283-.882 1.283H12.81c-1.102 0-1.542-.55-.881-1.283l2.203-3.117h2.864l1.984 3.117zm0-4.584c.44.733 0 1.283-.882 1.283H12.81c-1.102 0-1.542-.55-.881-1.283l2.203-3.117h2.864l1.984 3.117zm0-4.401c.44.734 0 1.284-.882 1.284H12.81c-1.102 0-1.542-.55-.881-1.284l2.203-3.117h2.864l1.984 3.117zm-.002-4.584c.44.734 0 1.284-.881 1.284h-5.288c-1.102 0-1.543-.55-.882-1.284l2.204-3.117h2.864l1.983 3.117zm-2.863 19.437h-1.322v5.684h1.322v-5.684z" fill="#C4C4C4"/><path d="M15.451 612.976c1.217 0 2.204-.821 2.204-1.833 0-1.013-.987-1.834-2.204-1.834-1.216 0-2.203.821-2.203 1.834 0 1.012.987 1.833 2.203 1.833zm1.324-38.322h-2.864v8.251h2.864v-8.251zM285.146 760.58h-.22c-.22 0-.22 0-.441-.183L110.199 616.825-18.919 760.58c-.22.184-.44.184-.661.184-.22 0-.44-.367-.22-.55l51.559-191.98c0-.183.22-.367.44-.367v.367-.367l18.95-.55c.22 0 .22 0 .44.184l58.61 48.407 91.88-102.499c0-.183.221-.183.441-.183l23.796-1.284c.221 0 .441.183.441.367l58.61 247.905c.22.183 0 .366-.221.366zm-.881-1.466l-58.389-246.255-23.136 1.283-91.88 102.133 173.405 142.839zm-302.523-.551l127.796-142.105-58.61-48.224-18.288.55-50.898 189.779z" fill="#C4C4C4"/><path d="M12.81 575.755h-.44c-.441 0-.882-.183-1.102-.55-.441-.55-.22-1.1.22-1.467l20.05-14.119.441-.183 170.101-57.759h.44v1.1l.441 1.1-.441-1.1v-1.1l35.254-.183c.661 0 1.102.366 1.322.916.221.551-.22 1.101-.881 1.284L12.81 575.755zm6.39-4.584l211.303-67.66-27.762.183-169.88 57.759-13.661 9.718z" fill="#C4C4C4"/><path d="M33.084 568.235v-6.968l22.694.184c.22 0 .44 0 .661-.184.22-.183.22-.367.22-.55v-7.518l25.119-.183c.44 0 .881-.367.881-.734v-7.884l26.661-.183c.441 0 .882-.367.882-.734v-8.435l28.423-.183c.441 0 .881-.367.881-.733v-8.985l30.187-.183c.44 0 .881-.367.881-.734v-9.718l31.949-.183c.441 0 .881-.367.881-.734v-10.268l34.373-.183c.441 0 .881-.367.881-.734s-.44-.733-.881-.733l-35.254.183c-.441 0-.881.367-.881.733v10.269l-31.949.183c-.441 0-.882.367-.882.733v9.719l-30.186.183c-.441 0-.881.367-.881.733v8.985l-28.424.184c-.44 0-.881.366-.881.733v8.435l-26.661.183c-.44 0-.881.367-.881.733v7.885l-25.119.183c-.44 0-.881.367-.881.734v7.518l-22.695-.184c-.22 0-.44 0-.66.184-.221.183-.221.366-.221.55v7.701c0 .367.44.733.881.733.44 0 .882-.366.882-.733z" fill="#C4C4C4"/><path d="M27.133 575.936h-.441l-14.322-.367c-.661 0-1.102-.366-1.322-.916 0-.551.22-1.101.881-1.284l225.405-72.244h.661l26.881 1.466c.661 0 1.102.367 1.322.917 0 .55-.22 1.1-.881 1.284L27.132 575.936zm-.662-2.017l231.575-69.311-20.051-1.1L19.2 573.552l7.271.367z" fill="#C4C4C4"/><path d="M27.358 575.386l5.508-6.418 23.136-2.017c.44 0 .881-.366.881-.733v-4.767L80.02 559.8c.44 0 .66-.183.88-.55l1.763-6.234 25.56-1.65c.44 0 .661-.367.881-.55l1.322-6.601 28.644-2.017c.441 0 .881-.367.881-.734v-6.601l30.186-1.834c.441 0 .882-.366.882-.733v-7.334l32.169-1.834c.441 0 .881-.367.881-.734v-8.067l34.373-1.834c.441 0 .881-.367.881-.733v-9.352c0-.367-.44-.733-.881-.733s-.881.366-.881.733v8.801l-34.373 1.834c-.441 0-.881.367-.881.733v8.068l-32.17 1.834c-.44 0-.881.367-.881.733v7.335l-30.186 1.834c-.441 0-.881.366-.881.733v6.601l-28.424 2.017c-.441 0-.661.367-.881.55l-1.322 6.601-25.56 1.65c-.44 0-.66.184-.88.55l-1.763 6.235-23.356 1.65c-.441 0-.882.367-.882.733v4.951l-22.694 2.017c-.22 0-.441.184-.661.367l-5.73 6.784c-.22.367-.22.734.221 1.1.22 0 .44.184.44.184.221-.55.441-.734.662-.917z" fill="#C4C4C4"/><path d="M33.526 751.966V568.237c0-.55-.661-1.1-1.322-1.1s-1.322.55-1.322 1.1v183.729c0 .55.66 1.1 1.322 1.1.66-.183 1.322-.55 1.322-1.1zm194.334 0v-239.47c0-.734-.661-1.284-1.543-1.284-.881 0-1.542.55-1.542 1.284v239.47c0 .733.661 1.284 1.542 1.284.882-.184 1.543-.734 1.543-1.284zm-24.014 0V513.779c0-.733-.661-1.283-1.542-1.283s-1.542.55-1.542 1.283v238.187c0 .734.661 1.284 1.542 1.284 1.102-.184 1.542-.734 1.542-1.284zm11.896 0l.661-242.221c0-.55-.661-1.1-1.322-1.1s-1.322.55-1.322 1.1l-.661 242.221c0 .55.661 1.1 1.322 1.1.661-.183 1.322-.55 1.322-1.1zm-172.746-.003V565.301c0-.55-.661-1.1-1.322-1.1s-1.322.55-1.322 1.1v186.662c0 .551.66 1.101 1.322 1.101.66-.184 1.322-.55 1.322-1.101zm616.281-116.617h-.441c-.22 0-.22-.183-.22-.366l-3.305-21.637c0-.183 0-.367.22-.55.221-.184.441-.184.661 0l35.034 16.319c.22.183.441.367.22.55 0 .183-.22.367-.44.367l-31.729 5.317zm29.746-5.867l-32.39-15.219 3.085 19.986 29.305-4.767z" fill="#C4C4C4"/><path d="M674.701 630.026a.49.49 0 000-.734l-18.288-16.319c-.22-.183-.661-.183-.881 0a.49.49 0 000 .734l18.288 16.319c.22.183.22.183.441.183.22 0 .22 0 .44-.183zm-15.423 47.859h-.441c-.22 0-.22-.184-.22-.367v-12.469c0-.183.22-.366.44-.366l.221.366-.221-.366 5.949-1.651h.441c.22 0 .22.184.22.367v12.652c0 .183-.22.367-.44.367l-5.949 1.467zm5.508-2.384v-11.735l-4.847 1.283v11.552l4.847-1.1z" fill="#C4C4C4"/><path d="M659.278 665.414h-.441c-.22 0-.22-.183-.22-.367v-12.285c0-.183.22-.367.44-.367l.221.367-.221-.367 5.949-1.833h.441c.22 0 .22.183.22.366v12.652c0 .184-.22.367-.44.367l-5.949 1.467zm5.508-2.384v-11.552l-4.847 1.651v11.368l4.847-1.467z" fill="#C4C4C4"/><path d="M659.498 652.947c-.22 0-.22 0 0 0h-.44c-.221 0-.221-.183-.221-.366v-12.836c0-.183.221-.366.441-.366l.22.366-.22-.366 5.949-2.017h.441c.22 0 .22.183.22.366v12.836c0 .183-.22.366-.44.366l-5.95 2.017zm5.289-2.567v-11.735l-4.848 1.65v11.736l4.848-1.651zm-5.509 40.158c-.221 0-.441 0-.441-.184-.22 0-.22-.183-.22-.366v-12.652c0-.184.22-.367.44-.367l.221.367-.221-.367 5.949-1.467h.441c.22 0 .22.183.22.367v13.202c0 .183-.22.367-.44.367l-5.949 1.1zm5.508-1.834v-12.102l-4.847 1.284v11.735l4.847-.917zm-5.508 27.872c-.221 0-.221 0-.441-.184-.22 0-.22-.183-.22-.366v-13.752c0-.184.22-.367.44-.367v.367-.367l5.949-.55c.221 0 .221 0 .441.183.22 0 .22.184.22.367v13.752c0 .183-.22.367-.44.367l-5.949.55zm5.508-1.467v-12.835l-4.847.366v12.836l4.847-.367zm-5.508 28.969c-.221 0-.221 0-.441-.183 0 0-.22-.184-.22-.367v-14.119c0-.183.22-.367.44-.367v.367-.367l5.949-.183c.221 0 .221 0 .441.183 0 0 .22.184.22.367v13.936c0 .183-.22.366-.44.366l-5.949.367zm5.508-1.283v-13.019l-4.847.183v13.202l4.847-.366z" fill="#C4C4C4"/><path d="M665.227 757.83h-5.949c-.221 0-.221 0-.441-.183 0 0-.22-.183-.22-.367v-13.752c0-.183.22-.367.44-.367l5.949-.366c.221 0 .221 0 .441.183 0 0 .22.183.22.367v14.119c0 .183 0 .183-.22.366 0-.183 0 0-.22 0zm-.441-.917v-13.202l-4.847.184v12.835h4.847v.183zm.441-13.202v-.366.366zm-5.949-41.073c-.221 0-.221 0-.441-.183-.22 0-.22-.183-.22-.367v-12.102c0-.183.22-.366.44-.366v.366-.366l5.949-.917c.221 0 .221 0 .441.183.22 0 .22.184.22.367v12.652c0 .183-.22.367-.44.367l-5.949.366zm5.508-1.283V689.62l-4.847.733v11.369l4.847-.367zm-5.508 28.604c-.221 0-.221 0-.441-.183 0 0-.22-.183-.22-.367v-13.385c0-.184.22-.367.44-.367v.367-.367l5.949-.55c.221 0 .221 0 .441.183.22 0 .22.184.22.367v13.936c0 .183-.22.366-.44.366h-5.949zm5.508-1.1v-12.835l-4.847.55v12.652l4.847-.367z" fill="#C4C4C4"/><path d="M659.718 757.464l5.949-14.119c0-.184 0-.55-.44-.55-.221 0-.661 0-.661.183l-5.949 14.119c0 .183 0 .55.44.55h.221c.22.183.44 0 .44-.183zm0-13.753l5.949-14.302c0-.183 0-.55-.44-.55-.221 0-.661 0-.661.367l-5.949 14.302c0 .183 0 .55.44.55h.221c.22 0 .44-.183.44-.367zm0-14.12l5.949-14.119c0-.183 0-.55-.44-.55-.221 0-.661 0-.661.183l-5.949 14.119c0 .183 0 .55.44.55h.221c.22.183.44 0 .44-.183zm0-13.382l5.949-14.302c0-.183 0-.55-.44-.55-.221 0-.661 0-.661.367l-5.949 14.302c0 .183 0 .55.44.55h.221c.22 0 .44-.184.44-.367zm.001-13.754l5.949-13.202c0-.183 0-.55-.22-.55-.221 0-.661 0-.661.183l-5.95 13.202c0 .184 0 .55.221.55h.22c.22 0 .441 0 .441-.183zm-.001-12.284l5.949-14.119c0-.183 0-.55-.44-.55-.221 0-.661 0-.661.183l-5.949 14.119c0 .184 0 .55.44.55h.221c.22.184.44 0 .44-.183zm0-12.655l5.949-14.119c0-.183 0-.55-.44-.55-.221 0-.661 0-.661.184l-5.949 14.119c0 .183 0 .55.44.55h.221c.22 0 .44 0 .44-.184zm0-12.467l5.949-14.302c0-.183 0-.55-.44-.55-.221 0-.661 0-.661.367l-5.949 14.302c0 .183 0 .55.44.55h.221c.22 0 .44-.183.44-.367zm0-12.285l5.949-14.669c0-.183 0-.55-.44-.55-.221 0-.661 0-.661.367l-5.949 14.669c0 .183 0 .55.44.55h.221c.22-.183.44-.183.44-.367z" fill="#C4C4C4"/><path d="M671.62 676.969s-.221.184-.441.184l-5.949-.734c-.221 0-.441-.183-.441-.367v-12.835c0-.183 0-.183.22-.367.221 0 .221-.183.441-.183l5.949.917c.221 0 .441.183.441.366v12.469c0 .367 0 .55-.22.55zm-.882-.917v-11.551l-4.847-.734v11.735l4.847.55z" fill="#C4C4C4"/><path d="M671.62 664.499s-.221.184-.441.184l-5.949-.917c-.221 0-.441-.184-.441-.367v-12.652c0-.183 0-.183.22-.367.221 0 .221-.183.441-.183l5.949 1.1c.221 0 .441.184.441.367v12.468c0 .184 0 .184-.22.367zm-.882-.917v-11.551l-4.847-.917v11.735l4.847.733z" fill="#C4C4C4"/><path d="M671.62 652.031s-.221.183-.441.183l-5.949-1.1c-.221 0-.441-.184-.441-.367v-12.835c0-.184 0-.184.22-.367.221 0 .221-.183.441-.183l5.949.916c.221 0 .441.184.441.367v12.836c0 .366 0 .55-.22.55zm-.882-.917v-11.919l-4.847-.733v11.918l4.847.734zm.882 38.874s-.221.183-.441.183l-5.949-.55c-.221 0-.441-.183-.441-.367v-13.202c0-.183 0-.183.22-.367.221 0 .221-.183.441-.183l5.949.734c.221 0 .441.183.441.366v13.019c0 .183 0 .367-.22.367zm-.882-.734v-12.102l-4.847-.55v12.285l4.847.367zm.882 26.953s-.221.184-.441.184l-5.949-.551c-.221 0-.441-.183-.441-.366v-13.752c0-.184 0-.184.22-.367.221 0 .221-.184.441-.184l5.949.551c.221 0 .441.183.441.366v13.569c0 .367 0 .55-.22.55zm-.882-.733v-12.652l-4.847-.367v12.835l4.847.184zm.882 28.604s-.221.184-.441.184l-5.949-.367c-.221 0-.441-.184-.441-.367v-14.302c0-.183 0-.183.22-.367.221 0 .221-.183.441-.183l5.949.55c.221 0 .441.183.441.367v13.935c0 .367 0 .367-.22.55zm-.882-.917v-13.018l-4.847-.367v13.019l4.847.366z" fill="#C4C4C4"/><path d="M671.399 757.829h-5.949c-.22 0-.22 0-.441-.184 0 0-.22-.183-.22-.367V743.16c0-.184 0-.184.22-.367.221 0 .221-.183.441-.183l5.949.366c.221 0 .441.184.441.367v13.569c0 .183 0 .183-.22.366 0 .367-.221.551-.221.551zm-.661-13.753l-4.847-.366v13.202h4.847v-12.836zm.882-41.438s-.221.184-.441.184l-5.949-.55c-.221 0-.441-.184-.441-.367v-12.652c0-.183 0-.183.22-.367.221 0 .221-.183.441-.183l5.949.55c.221 0 .441.183.441.367v12.652c0 .183 0 .183-.22.366zm-.882-.916v-11.736l-4.847-.55v11.735l4.847.551zm.882 28.419s-.221.183-.441.183l-5.949-.55c-.221 0-.441-.183-.441-.367v-13.935c0-.183 0-.183.22-.367.221 0 .221-.183.441-.183l5.949.55c.221 0 .441.183.441.367v13.752c0 .366 0 .366-.22.55zm-.882-.917v-12.835l-4.847-.367v13.019l4.847.183z" fill="#C4C4C4"/><path d="M671.394 757.831c.22 0 .44-.366.22-.55l-5.949-14.118c0-.184-.441-.367-.661-.184-.22 0-.441.367-.22.55l5.949 14.119c.22 0 .44.183.661.183zm.005-13.753c.221 0 .441-.367.441-.55l-5.949-14.486c0-.183-.441-.366-.661-.366-.221 0-.441.367-.441.55l5.949 14.485c.221.367.441.367.661.367zm-.004-13.937c.22 0 .441-.367.441-.55l-5.949-14.302c0-.184-.441-.367-.661-.367-.221 0-.441.367-.221.55l5.949 14.302c0 .367.221.367.441.367zm-.001-13.748c.22 0 .44-.367.22-.551l-5.949-14.118c0-.184-.441-.367-.661-.367-.22 0-.441.367-.22.55l5.949 14.119c.22.183.44.367.661.367zm0-13.755c.22 0 .44-.366.22-.55l-5.949-13.202c0-.183-.441-.366-.661-.183-.22 0-.441.367-.22.55l5.949 13.202c.22.183.44.367.661.183 0 .184 0 .184 0 0zm0-12.47c.22 0 .44-.366.22-.55l-5.949-13.752c0-.183-.441-.366-.661-.183-.22 0-.441.367-.22.55l5.949 13.752c.22 0 .44.183.661.183zm0-13.2c.22-.184.44-.367.22-.55l-5.949-13.202c0-.184-.441-.367-.661-.184-.22 0-.441.367-.22.55l5.949 13.202c.22.184.44.184.661.184zm0-12.469c.22 0 .44-.367.22-.55l-5.949-13.569c0-.183-.441-.366-.661-.183-.22 0-.441.367-.22.55l5.949 13.569c.22.183.44.367.661.183 0 .184 0 .184 0 0zm0-12.467c.22 0 .44-.366.22-.55l-5.949-13.752c0-.183-.441-.367-.661-.183-.22 0-.441.366-.22.55l5.949 13.752c.22.183.44.367.661.183 0 .184 0 .184 0 0zm96.949.914h-.661c-.221-.184-.221-.367-.221-.55v-15.769c0-.184.221-.55.441-.55l.22.55-.22-.55 7.712-2.017h.661c.22.183.22.366.22.55v15.952c0 .184-.22.55-.44.55l-7.712 1.834zm6.83-2.751v-14.852l-6.169 1.65v14.669l6.169-1.467z" fill="#C4C4C4"/><path d="M768.343 637.177h-.661c-.221-.184-.221-.367-.221-.55v-15.953c0-.183.221-.55.441-.55l.22.55-.22-.55 7.712-2.2h.661c.22.183.22.366.22.55v15.952c0 .184-.22.55-.44.55l-7.712 2.201zm6.83-2.934v-14.669l-6.169 1.65v14.669l6.169-1.65z" fill="#C4C4C4"/><path d="M768.343 621.225h-.661c-.221-.184-.221-.367-.221-.55v-15.77c0-.183.221-.366.441-.55l.22.55-.22-.55 7.712-2.383h.661c.22.183.22.366.22.55v16.136c0 .183-.22.55-.44.55l-7.712 2.017zm6.83-2.934v-14.853l-6.169 2.017v14.669l6.169-1.833zm-6.83 50.791s-.221 0 0 0c-.221 0-.441 0-.661-.184-.221-.183-.221-.183-.221-.366v-15.953c0-.183.221-.55.441-.55l.22.55-.22-.55 7.712-1.834h.661c.22.184.22.367.22.55v16.686c0 .367-.22.55-.661.55l-7.491 1.101zm6.83-2.384v-15.402l-6.169 1.466v14.853l6.169-.917zm-6.83 35.757c-.22.184-.22.184 0 0-.22 0-.441 0-.441-.183-.22-.183-.22-.183-.22-.367v-17.419c0-.367.22-.55.661-.55v.55-.55l7.712-.734c.22 0 .441 0 .441.184.22.183.22.183.22.366v17.236c0 .367-.22.55-.661.55l-7.712.917zm6.831-1.833v-16.136l-6.17.55v16.319l6.17-.733zm-7.052 37.404c-.22 0-.44 0-.44-.184-.221-.183-.221-.183-.221-.366v-18.52c0-.367.221-.55.661-.55v.55-.55l7.712-.183c.221 0 .441 0 .441.183.22.183.22.183.22.367v18.336c0 .367-.22.55-.661.55l-7.712.367zm7.051-1.467v-17.236l-6.169.183v17.236l6.169-.183z" fill="#C4C4C4"/><path d="M775.834 757.83h-7.712c-.22 0-.44 0-.44-.183-.221-.184-.221-.184-.221-.367v-19.803c0-.367.221-.55.661-.55l7.712-.367c.221 0 .441 0 .441.184.22.183.22.183.22.366v20.17c0 .183 0 .367-.22.367 0 .183-.22.183-.441.183zm-.661-1.1v-19.07l-6.169.367v18.703h6.169zm.661-19.07v-.55.55zm-7.491-52.624c-.22 0-.22 0 0 0-.22 0-.441 0-.441-.183-.22-.184-.22-.184-.22-.367V668.35c0-.183.22-.55.661-.55l.22.55-.22-.55 7.712-1.283c.22 0 .441 0 .661.183.22.183.22.183.22.367v16.686c0 .366-.22.55-.661.55l-7.932.733zm6.831-1.65v-15.402l-6.17 1.1v15.035l6.17-.733zm-7.052 36.122c-.22 0-.44 0-.44-.183-.221-.184-.221-.184-.221-.367v-17.053c0-.366.221-.55.661-.55v.55-.55l7.712-.733c.221 0 .441 0 .441.183.22.184.22.184.22.367v17.603c0 .366-.22.55-.661.55l-7.712.183zm7.051-1.283v-16.32l-6.169.551v15.952l6.169-.183z" fill="#C4C4C4"/><path d="M768.786 757.46l7.712-20.17c.22-.367 0-.55-.441-.733-.441-.184-.661 0-.881.366l-7.712 20.17c-.22.367 0 .55.441.734h.22c.441 0 .661 0 .661-.367zm0-19.801l7.712-18.703c.22-.367 0-.55-.441-.733-.441-.184-.661 0-.881.366l-7.712 18.703c-.22.367 0 .55.441.734h.22c.441 0 .661-.184.661-.367zm0-18.521l7.712-17.786c.22-.367 0-.55-.441-.734-.441-.183-.661 0-.881.367l-7.712 17.786c-.22.367 0 .55.441.734h.22c.441 0 .661-.184.661-.367zm0-17.053l7.712-18.153c.22-.367 0-.55-.441-.733-.441-.184-.661 0-.881.366l-7.712 18.153c-.22.367 0 .55.441.734h.22c.441.183.661 0 .661-.367zm0-17.419l7.712-17.42c.22-.366 0-.55-.441-.733-.441-.183-.661 0-.881.367l-7.712 17.419c-.22.367 0 .55.441.734h.22c.441 0 .661 0 .661-.367zm0-15.951l7.712-17.97c.22-.366 0-.55-.441-.733-.441-.183-.661 0-.881.367l-7.712 17.969c-.22.367 0 .55.441.734h.22c.441 0 .661-.184.661-.367zm0-16.136l7.712-17.786c.22-.367 0-.55-.441-.733-.441-.184-.661 0-.881.366l-7.712 17.786c-.22.367 0 .55.441.734h.22c.441 0 .661 0 .661-.367zm0-15.767l7.712-17.97c.22-.367 0-.55-.441-.733-.441-.184-.661 0-.881.366l-7.712 17.97c-.22.367 0 .55.441.733h.22c.441 0 .661-.183.661-.366zm0-15.954l7.712-18.337c.22-.366 0-.55-.441-.733-.441-.183-.661 0-.881.367l-7.712 18.336c-.22.367 0 .55.441.733h.22c.441 0 .661 0 .661-.366z" fill="#C4C4C4"/><path d="M783.991 651.846c-.22.183-.22.183-.44.183l-7.712-.917c-.441 0-.661-.366-.661-.55V634.61c0-.184 0-.367.22-.367.22-.183.441-.183.661-.183l7.712 1.1c.441 0 .661.366.661.55v15.769l-.441.367zm-1.322-1.101v-14.668l-6.169-.917v14.852l6.169.733z" fill="#C4C4C4"/><path d="M783.99 636.077c-.22 0-.22.183-.441.183h-.22l-7.712-1.1c-.441 0-.661-.367-.661-.55v-15.953c0-.183 0-.367.22-.367.221-.183.441-.183.661-.183l7.712 1.284c.221 0 .661.366.661.55v15.769c0 .183-.22.367-.22.367zm-1.322-1.101v-14.669l-6.17-1.1v14.853l6.17.916z" fill="#C4C4C4"/><path d="M783.991 620.307c-.22 0-.22.184-.44.184h-.221l-7.712-1.284c-.22 0-.44-.366-.44-.55v-16.136c0-.183 0-.366.22-.366.22-.184.441-.184.661-.184l7.712 1.651c.22 0 .441.366.441.55v15.769c0 .183-.221.366-.221.366zm-1.322-1.1v-14.669l-6.169-1.283v15.035l6.169.917zm1.322 49.141c-.22.184-.22.184-.44.184l-7.712-.734c-.441 0-.661-.367-.661-.55v-16.686c0-.183 0-.367.22-.367.22-.183.441-.183.661-.183l7.712.917c.441 0 .661.367.661.55v16.503l-.441.366zm-1.322-.917v-15.402l-6.169-.733v15.402l6.169.733zm1.322 34.839c-.22.183-.22.183-.44.183l-7.712-.55c-.441 0-.661-.183-.661-.55v-17.236c0-.183 0-.366.22-.366.22-.184.441-.184.441-.184l7.712.734c.44 0 .661.366.661.55v17.236c0-.184-.221 0-.221.183zm-1.322-1.1v-16.136l-6.169-.55v16.136l6.169.55zm1.322 36.856c-.22.183-.22.183-.44.183l-7.712-.55c-.441 0-.661-.183-.661-.55v-18.336c0-.184 0-.367.22-.367.22-.183.441-.183.441-.183l7.712.55c.44 0 .661.366.661.55v18.336c0 .183-.221.367-.221.367zm-1.322-1.101V719.69l-6.169-.551v17.236l6.169.55z" fill="#C4C4C4"/><path d="M783.551 757.83h-7.712c-.221 0-.441 0-.441-.183-.22-.184-.22-.184-.22-.367v-20.17c0-.183 0-.366.22-.366.22-.184.441-.184.441-.184l7.712.55c.44 0 .661.184.661.55v19.62c0 .183 0 .367-.221.367-.22.183-.44.183-.44.183zm-.882-19.619l-6.169-.367v18.886h6.169v-18.519zm1.322-53.177c-.22.183-.22.184-.44.184l-7.712-.734c-.441 0-.661-.367-.661-.55v-16.686c0-.183 0-.367.22-.367.22-.183.441-.183.441-.183l7.712.733c.44 0 .661.367.661.551v16.502c0 .183-.221.367-.221.55zm-1.322-1.1v-15.402l-6.169-.734v15.586l6.169.55zm1.322 35.758c-.22.183-.22.183-.44.183l-7.712-.55c-.441 0-.661-.367-.661-.55v-17.603c0-.183 0-.367.22-.367.22-.183.441-.183.441-.183l7.712.55c.44 0 .661.367.661.55v17.419a.737.737 0 01-.221.551zm-1.322-.917v-16.319l-6.169-.551v16.32l6.169.55z" fill="#C4C4C4"/><path d="M783.772 757.827c.441-.184.661-.367.441-.734l-7.712-20.17c-.22-.366-.44-.55-.881-.366-.441.183-.661.366-.441.733l7.712 20.17c0 .367.22.367.881.367-.22 0-.22 0 0 0zm0-19.618c.441-.183.661-.367.441-.733l-7.712-18.887c-.22-.366-.44-.55-.881-.366-.441.183-.661.366-.441.733l7.712 18.886c0 .184.22.367.881.367-.22 0-.22 0 0 0zm-.001-18.334c.441-.183.441-.367.441-.734l-7.712-18.152c-.221-.367-.441-.367-.882-.367-.44.183-.44.367-.44.733l7.712 18.153c0 .184.44.367.661.367h.22zm0-17.423c.441-.183.441-.367.441-.733l-7.712-17.97c-.221-.366-.441-.366-.882-.366-.44.183-.44.366-.44.733l7.712 17.969c0 .184.44.367.661.367h.22zm0-17.416c.441-.183.441-.367.441-.733l-7.712-17.42c-.221-.366-.441-.366-.882-.366-.44.183-.44.366-.44.733l7.712 17.419c0 .184.44.367.661.367 0 .183 0 .183.22 0zm0-16.504c.441-.184.441-.367.441-.734l-7.712-17.419c-.221-.367-.441-.367-.882-.367-.44.183-.44.367-.44.734l7.712 17.419c0 .183.44.367.661.367h.22zm0-16.687c.441-.184.441-.367.441-.734l-7.712-16.869c-.221-.367-.441-.367-.882-.367-.44.184-.44.367-.44.734l7.712 16.869c0 .183.44.367.661.367 0 .183 0 .183.22 0zm0-15.585c.441-.183.441-.367.441-.734l-7.712-17.052c-.221-.367-.441-.367-.882-.367-.44.183-.44.367-.44.734l7.712 17.052c0 .184.44.367.661.367h.22zm0-15.769c.441-.184.441-.367.441-.734l-7.712-17.419c-.221-.367-.441-.367-.882-.367-.44.184-.44.367-.44.734l7.712 17.419c0 .183.44.367.661.367h.22zm-36.354-15.034h-.22c-.221 0-.441 0-.441-.184a.49.49 0 010-.733l32.169-35.756c.221-.183.441-.366.882-.183.22.183.44.367.22.734l-.661-.184.661.184-11.017 28.604c0 .183-.22.183-.441.367l-21.152 7.151zm20.271-8.068l9.695-25.304-28.424 31.538 18.729-6.234z" fill="#C4C4C4"/><path d="M776.278 602.523l3.525-33.188c0-.367-.22-.551-.661-.551-.441 0-.661.184-.661.551l-3.525 33.188c0 .367.22.55.661.55.22 0 .661-.183.661-.55zM625.566 766.998h196.101v-4.217l-38.119-5.501h-124.27l-33.712 5.501v4.217z" fill="#C4C4C4"/><path d="M672.059 757.28V639.379c0-.367-.441-.734-.882-.734-.44 0-.881.367-.881.734V757.28c0 .367.441.734.881.734.661 0 .882-.367.882-.734zM810.26 624.53c.44.734 0 1.284-.882 1.284h-5.067c-1.102 0-1.543-.55-.882-1.284l2.204-3.117h2.864l1.763 3.117zm0-4.404c.44.734 0 1.284-.882 1.284h-5.067c-1.102 0-1.543-.55-.882-1.284l2.204-3.117h2.864l1.763 3.117z" fill="#C4C4C4"/><path d="M810.26 615.726c.44.734 0 1.284-.882 1.284h-5.067c-1.102 0-1.543-.55-.882-1.284l2.204-3.117h2.864l1.763 3.117z" fill="#C4C4C4"/><path d="M810.26 611.327c.44.733 0 1.283-.882 1.283h-5.067c-1.102 0-1.543-.55-.882-1.283l2.204-3.117h2.864l1.763 3.117zm0-4.401c.44.734 0 1.284-.882 1.284h-5.067c-1.102 0-1.543-.55-.882-1.284l2.204-3.117h2.864l1.763 3.117zm-2.862 18.886h-1.322v5.501h1.322v-5.501z" fill="#C4C4C4"/><path d="M806.732 633.147c1.217 0 2.203-.821 2.203-1.834 0-1.012-.986-1.833-2.203-1.833-1.217 0-2.204.821-2.204 1.833 0 1.013.987 1.834 2.204 1.834zm1.542-34.657h-2.865v5.135h2.865v-5.135zm-50.063 38.689c.441.734 0 1.284-.881 1.284h-4.627c-.882 0-1.322-.55-.882-1.284l1.983-2.75h2.424l1.983 2.75z" fill="#C4C4C4"/><path d="M758.211 633.329c.441.733 0 1.283-.881 1.283h-4.627c-.882 0-1.322-.55-.882-1.283l1.983-2.751h2.424l1.983 2.751z" fill="#C4C4C4"/><path d="M758.211 629.298c.441.733 0 1.283-.881 1.283h-4.627c-.882 0-1.322-.55-.882-1.283l1.983-2.751h2.424l1.983 2.751z" fill="#C4C4C4"/><path d="M758.211 625.447c.441.734 0 1.284-.881 1.284h-4.627c-.882 0-1.322-.55-.882-1.284l1.983-2.75h2.424l1.983 2.75zm-.001-4.035c.441.734 0 1.284-.881 1.284h-4.627c-.882 0-1.322-.55-.882-1.284l1.983-2.75h2.424l1.983 2.75zm-2.42 17.053h-1.322v4.951h1.322v-4.951z" fill="#C4C4C4"/><path d="M755.124 645.066c1.095 0 1.983-.739 1.983-1.65 0-.912-.888-1.651-1.983-1.651-1.096 0-1.983.739-1.983 1.651 0 .911.887 1.65 1.983 1.65zm1.101-31.173h-2.424v4.767h2.424v-4.767zm-37.018 32.636c.44.55 0 1.1-.661 1.1h-4.187c-.881 0-1.101-.55-.661-1.1l1.763-2.567h2.203l1.543 2.567z" fill="#C4C4C4"/><path d="M719.207 643.045c.44.55 0 1.1-.661 1.1h-4.187c-.881 0-1.101-.55-.661-1.1l1.763-2.567h2.203l1.543 2.567z" fill="#C4C4C4"/><path d="M719.207 639.378c.44.55 0 1.1-.661 1.1h-4.187c-.881 0-1.101-.55-.661-1.1l1.763-2.567h2.203l1.543 2.567z" fill="#C4C4C4"/><path d="M719.207 635.893c.44.55 0 1.1-.661 1.1h-4.187c-.881 0-1.101-.55-.661-1.1l1.763-2.567h2.203l1.543 2.567z" fill="#C4C4C4"/><path d="M719.208 632.227c.441.55 0 1.1-.661 1.1h-4.186c-.882 0-1.102-.55-.661-1.1l1.763-2.567h2.203l1.542 2.567zm-2.425 15.402h-1.101v4.401h1.101v-4.401z" fill="#C4C4C4"/><path d="M716.346 653.499c.973 0 1.762-.657 1.762-1.467s-.789-1.467-1.762-1.467c-.974 0-1.763.657-1.763 1.467s.789 1.467 1.763 1.467zm.879-27.874h-2.204v4.217h2.204v-4.217zm-31.723 29.523c.441.55 0 .916-.661.916h-3.745c-.661 0-1.102-.366-.661-.916l1.542-2.201h1.983l1.542 2.201zm0-3.301c.441.55 0 .917-.661.917h-3.745c-.661 0-1.102-.367-.661-.917l1.542-2.2h1.983l1.542 2.2z" fill="#C4C4C4"/><path d="M685.502 648.73c.441.55 0 .917-.661.917h-3.745c-.661 0-1.102-.367-.661-.917l1.542-2.2h1.983l1.542 2.2zm0-3.3c.441.55 0 .916-.661.916h-3.745c-.661 0-1.102-.366-.661-.916l1.542-2.201h1.983l1.542 2.201zm.001-3.118c.441.55 0 .917-.661.917h-3.745c-.661 0-1.102-.367-.661-.917l1.542-2.2h1.983l1.542 2.2zm-1.984 13.752h-1.102v4.034h1.102v-4.034z" fill="#C4C4C4"/><path d="M682.858 661.382c.852 0 1.543-.575 1.543-1.284 0-.708-.691-1.283-1.543-1.283s-1.542.575-1.542 1.283c0 .709.69 1.284 1.542 1.284zm1.1-25.121h-1.983v3.851h1.983v-3.851zm-33.275 26.404c.441.551 0 .917-.661.917h-3.305c-.661 0-.882-.366-.661-.917l1.322-2.017h1.762l1.543 2.017z" fill="#C4C4C4"/><path d="M650.683 659.914c.441.55 0 .917-.661.917h-3.305c-.661 0-.882-.367-.661-.917l1.322-2.017h1.762l1.543 2.017z" fill="#C4C4C4"/><path d="M650.683 656.981c.441.55 0 .917-.661.917h-3.305c-.661 0-.882-.367-.661-.917l1.322-2.017h1.762l1.543 2.017zm0-2.935c.441.55 0 .917-.661.917h-3.305c-.661 0-.882-.367-.661-.917l1.322-2.017h1.762l1.543 2.017z" fill="#C4C4C4"/><path d="M650.684 651.114c.441.55 0 .917-.661.917h-3.305c-.661 0-.881-.367-.661-.917l1.322-2.017h1.763l1.542 2.017zm-1.764 12.466h-.881v3.668h.881v-3.668z" fill="#C4C4C4"/><path d="M648.479 668.348c.73 0 1.322-.493 1.322-1.101 0-.607-.592-1.1-1.322-1.1-.73 0-1.322.493-1.322 1.1 0 .608.592 1.101 1.322 1.101zm.884-24.385H647.6v5.317h1.763v-5.317zm171.862 119c-.22 0-.22 0 0 0h-.44l-111.711-91.864-82.627 91.864c0 .183-.22.183-.441 0-.22 0-.22-.184-.22-.367l33.051-122.852c0-.184.22-.184.22-.184v.184-.184l12.119-.366h.22l37.457 30.988 58.83-65.46.221-.184 15.203-.733c.22 0 .22 0 .441.183l37.457 158.608c.22.183.22.367.22.367zm-.661-1.1l-37.237-157.508-14.762.733-59.051 65.461 111.05 91.314zm-193.676-.367l81.745-90.947-37.457-30.989-11.678.367-32.61 121.569z" fill="#C4C4C4"/><path d="M646.718 644.515h-.22c-.22 0-.661-.183-.661-.367-.22-.366-.22-.733.22-.916l12.78-8.985.22-.183 109.067-37.039h.221v.733l.22.733-.22-.733v-.733l22.474-.184c.441 0 .661.184.881.55 0 .367-.22.734-.44.734l-144.542 46.39zm4.187-2.75l135.287-43.274-17.627.184-108.626 36.855-9.034 6.235z" fill="#C4C4C4"/><path d="M659.719 639.745v-4.4l14.543.183c.22 0 .22 0 .44-.183 0 0 .221-.184.221-.367v-4.767h16.084c.221 0 .661-.184.661-.551v-5.134h17.187c.22 0 .661-.183.661-.55v-5.501h18.067c.221 0 .661-.183.661-.55v-5.867l19.39-.184c.22 0 .661-.183.661-.55v-6.234l20.491-.183c.221 0 .661-.184.661-.55v-6.601l22.034-.184c.22 0 .661-.183.661-.55 0-.183-.22-.55-.661-.55l-22.474.183c-.221 0-.661.184-.661.55v6.601l-20.492.184c-.22 0-.661.183-.661.55v6.234l-19.389.184c-.221 0-.661.183-.661.55v5.867h-18.068c-.22 0-.661.184-.661.55v5.501h-17.186c-.221 0-.661.184-.661.55v5.134h-16.085c-.22 0-.661.184-.661.55v4.768l-14.542-.183c-.221 0-.221 0-.441.183 0 0-.22.183-.22.367v4.95c0 .184.22.55.661.55.22 0 .44-.183.44-.55z" fill="#C4C4C4"/><path d="M655.971 644.696h-.221l-9.254-.184c-.441 0-.661-.183-.881-.55 0-.367.22-.733.44-.733l144.321-46.208h.441l17.186.917c.441 0 .661.367.882.55 0 .367-.221.734-.661.734l-152.253 45.474zm-.441-1.284l148.067-44.374-12.78-.733-140.134 44.924 4.847.183z" fill="#C4C4C4"/><path d="M655.974 644.331l3.526-4.218 14.762-1.283c.221 0 .441-.184.441-.55v-3.117l14.983-1.101c.22 0 .441-.183.441-.366l1.101-3.851 16.305-1.1c.221 0 .441-.183.441-.367l.881-4.217 18.288-1.284c.221 0 .441-.183.441-.55v-4.217l19.39-1.284c.22 0 .44-.183.44-.55v-4.584l20.492-1.1c.22 0 .44-.183.44-.55v-5.134l22.034-1.1c.221 0 .441-.184.441-.55v-6.051c0-.184-.22-.55-.661-.55-.221 0-.661.183-.661.55v5.501l-22.034 1.1c-.22 0-.441.183-.441.55v5.134l-20.491 1.1c-.22 0-.441.183-.441.55v4.584l-19.389 1.284c-.221 0-.441.183-.441.55v4.217l-18.288 1.284c-.22 0-.441.183-.441.366l-.881 4.218-16.305 1.1c-.22 0-.441.183-.441.367l-1.101 3.85-14.983 1.1c-.221 0-.441.184-.441.55v3.118l-14.542 1.283c-.221 0-.221 0-.441.183l-3.525 4.218c-.221.183-.221.55.22.733h.22c.441.367.661.367.661.184z" fill="#C4C4C4"/><path d="M659.94 757.282V639.747c0-.367-.441-.734-.881-.734-.441 0-.882.367-.882.734v117.535c0 .366.441.733.882.733.661 0 .881-.367.881-.733zm124.49-.002V603.99c0-.367-.441-.734-.882-.734-.44 0-.881.367-.881.734v153.29c0 .367.441.734.881.734.441 0 .882-.184.882-.734zm-15.425 0V604.907c0-.367-.44-.734-.881-.734s-.881.367-.881.734V757.28c0 .367.44.734.881.734.661 0 .881-.184.881-.734zm7.713 0l.441-154.94c0-.367-.441-.734-.881-.734-.441 0-.882.367-.882.734l-.44 154.94c0 .367.44.734.881.734s.881-.367.881-.734zm-110.612 0V637.728c0-.366-.441-.733-.881-.733-.441 0-.882.367-.882.733V757.28c0 .367.441.734.882.734.44 0 .881-.367.881-.734zm397.714-69.309h-.22l-.22-.184-1.98-13.018c0-.184 0-.184.22-.367h.44l21.15 9.902c.22 0 .22.183.22.366 0 .184-.22.184-.22.184l-19.39 3.117zm17.85-3.484l-19.39-9.168 1.98 11.918 17.41-2.75z" fill="#C4C4C4"/><path d="M1073.07 684.851c.22-.183.22-.367 0-.367l-11.02-9.718c-.22-.183-.44-.183-.44 0-.22.184-.22.367 0 .367l11.02 9.718.22.183.22-.183zm-9.25 28.608h-.22l-.22-.184v-7.518c0-.183 0-.183.22-.183v.183-.183l3.52-.917h.22l.22.184v7.517c0 .184 0 .184-.22.184l-3.52.917zm3.3-1.284v-6.968l-2.86.734v6.968l2.86-.734z" fill="#C4C4C4"/><path d="M1063.82 705.941h-.22l-.22-.184v-7.334c0-.183 0-.183.22-.183l.22.183-.22-.367 3.52-1.1h.22l.22.183v7.518c0 .184 0 .184-.22.184l-3.52 1.1zm3.3-1.284v-6.967l-2.86.916v6.785l2.86-.734z" fill="#C4C4C4"/><path d="M1063.82 698.606h-.22l-.22-.183v-7.701c0-.184 0-.184.22-.184l.22.184-.22-.184 3.52-1.1h.22l.22.184v7.701c0 .183 0 .183-.22.183l-3.52 1.1zm3.3-1.65v-7.151l-2.86.917v7.151l2.86-.917zm-3.3 24.204h-.22l-.22-.184v-7.517c0-.184 0-.184.22-.184v.184-.184l3.52-.917h.22l.22.184v7.884c0 .184-.22.184-.22.184l-3.52.55zm3.3-1.1v-7.335l-2.86.734v7.151l2.86-.55zm-3.3 16.685h-.22v-8.434c0-.184.22-.184.22-.184v.184-.184l3.52-.366h.22v8.434c0 .184-.22.184-.22.184l-3.52.366zm3.3-.916v-7.702l-2.86.184v7.701l2.86-.183zm-3.3 17.417h-.22v-8.618c0-.183.22-.183.22-.183v.183-.183l3.52-.184h.22v8.618c0 .184-.22.184-.22.184l-3.52.183zm3.3-.734v-7.884h-2.86v7.884h2.86z" fill="#C4C4C4"/><path d="M1067.34 761.498h-3.74v-8.435c0-.183.22-.183.22-.183l3.52-.184h.22v8.802h-.22zm-.22-.55v-7.885l-2.86.183v7.702h2.86zm.22-7.885v-.183.183zm-3.52-24.569h-.22v-7.518c0-.183 0-.183.22-.183v.183-.183l3.52-.55h.22l.22.183v7.518c0 .184-.22.184-.22.184l-3.74.366zm3.3-.917v-6.967l-2.86.55v6.784l2.86-.367zm-3.3 17.235h-.22v-8.251c0-.184.22-.184.22-.184v.184-.184l3.52-.366h.22l.22.183v8.251c0 .184-.22.184-.22.184l-3.74.183zm3.3-.733v-7.702l-2.86.367v7.518l2.86-.183z" fill="#C4C4C4"/><path d="M1064.04 761.317l3.52-8.434c0-.184 0-.367-.22-.367s-.44 0-.44.183l-3.52 8.435c0 .183 0 .367.22.367h.22l.22-.184zm0-8.252l3.52-8.618c0-.184 0-.367-.22-.367s-.44 0-.44.183l-3.52 8.618c0 .184 0 .367.22.367h.22l.22-.183zm0-8.433l3.52-8.435c0-.183 0-.367-.22-.367s-.44 0-.44.184l-3.52 8.434c0 .184 0 .367.22.367h.22l.22-.183zm0-8.072l3.52-8.618c0-.183 0-.366-.22-.366s-.44 0-.44.183l-3.52 8.618c0 .183 0 .367.22.367s.44-.184.44-.184zm0-8.249l3.52-7.885c0-.183 0-.366-.22-.366s-.44 0-.44.183l-3.52 7.884c0 .184 0 .367.22.367h.22l.22-.183zm0-7.336l3.52-8.435c0-.183 0-.367-.22-.367s-.44 0-.44.184l-3.52 8.434c0 .184 0 .367.22.367h.22l.22-.183zm0-7.701l3.52-8.435c0-.183 0-.367-.22-.367s-.44 0-.44.184l-3.52 8.434c0 .184 0 .367.22.367h.22s.22 0 .22-.183zm0-7.518l3.52-8.618c0-.183 0-.367-.22-.367s-.44 0-.44.184l-3.52 8.618c0 .183 0 .366.22.366s.44 0 .44-.183zm0-7.333l3.52-8.801c0-.184 0-.367-.22-.367s-.44 0-.44.183l-3.52 8.802c0 .183 0 .366.22.366s.44 0 .44-.183z" fill="#C4C4C4"/><path d="M1071.31 712.909c-.22.183-.22.183 0 0h-.22l-3.53-.367c-.22 0-.22-.184-.22-.184v-7.517s0-.184.22-.184h.22l3.53.55c.22 0 .22.184.22.184v7.518h-.22zm-.66-.367v-6.968l-2.87-.367v6.968l2.87.367z" fill="#C4C4C4"/><path d="M1071.31 705.574c-.22 0-.22 0 0 0h-.22l-3.53-.55c-.22 0-.22-.183-.22-.183v-7.518s0-.184.22-.184h.22l3.53.55c.22 0 .22.184.22.184v7.518c-.22 0-.22 0-.22.183zm-.66-.55v-6.968l-2.87-.55v6.968l2.87.55z" fill="#C4C4C4"/><path d="M1071.31 698.057c-.22 0-.22 0 0 0h-.22l-3.53-.55c-.22 0-.22-.183-.22-.183v-7.701s0-.184.22-.184h.22l3.53.55c.22 0 .22.184.22.184v7.701c-.22 0-.22.183-.22.183zm-.66-.55v-7.151l-2.87-.367v7.152l2.87.366zm.66 23.284c-.22 0-.22.184 0 0h-.22l-3.53-.366c-.22 0-.22-.184-.22-.184v-7.884s0-.184.22-.184h.22l3.53.367c.22 0 .22.184.22.184v7.884l-.22.183zm-.66-.55v-7.334l-2.87-.367v7.335l2.87.366zm.66 16.319h-.22l-3.53-.366c-.22 0-.22-.184-.22-.184v-8.434h.22l3.53.366c.22 0 .22.184.22.184v8.434zm-.66-.55v-7.701l-2.87-.183v7.701l2.87.183zm.66 17.236c-.22 0-.22 0 0 0h-.22l-3.53-.183c-.22 0-.22-.184-.22-.184v-8.618h.22l3.53.367c.22 0 .22.183.22.183v8.435s0-.183 0 0zm-.66-.55v-7.885l-2.87-.183v7.884l2.87.184z" fill="#C4C4C4"/><path d="M1071.09 761.498h-3.75v-8.802h.22l3.53.184c.22 0 .22.183.22.183v8.435h-.22zm-.44-8.252l-2.87-.183v7.885h2.87v-7.702zm.66-24.935h-.22l-3.53-.367c-.22 0-.22-.183-.22-.183v-7.518s0-.183.22-.183h.22l3.53.366c.22 0 .22.184.22.184v7.517l-.22.184zm-.66-.367v-6.968l-2.87-.366v6.967l2.87.367zm.66 16.871h-.22l-3.53-.367c-.22 0-.22-.183-.22-.183v-8.435h.22l3.53.367c.22 0 .22.183.22.183v8.435zm-.66-.55v-7.701l-2.87-.184v7.702l2.87.183z" fill="#C4C4C4"/><path d="M1071.09 761.501c.22 0 .22-.184.22-.367l-3.53-8.435c0-.183-.22-.183-.44-.183s-.22.183-.22.367l3.53 8.434c.22 0 .22.184.44.184zm0-8.253c.22 0 .22-.183.22-.367l-3.53-8.618c0-.183-.22-.183-.44-.183s-.22.183-.22.367l3.53 8.618c0 .183.22.183.44.183zm0-8.25c.22 0 .22-.183.22-.366l-3.53-8.618c0-.184-.22-.184-.44-.184s-.22.184-.22.367l3.53 8.618s.22.183.44.183zm0-8.438c.22 0 .22-.183.22-.366l-3.53-8.435c0-.183-.22-.183-.44-.183s-.22.183-.22.366l3.53 8.435c0 .183.22.183.44.183zm0-8.066c.22 0 .22-.183.22-.367l-3.53-7.884c0-.183-.22-.183-.44-.183s-.22.183-.22.366l3.53 7.885c.22 0 .22.183.44.183zm0-7.519c.22 0 .22-.184.22-.367l-3.53-8.251c0-.184-.22-.184-.44-.184s-.22.184-.22.367l3.53 8.251c.22 0 .22.184.44.184zm0-7.883c.22 0 .22-.184.22-.367l-3.53-7.884c0-.184-.22-.184-.44-.184s-.22.184-.22.367l3.53 7.885c.22 0 .22.183.44.183zm0-7.518c.22 0 .22-.183.22-.367l-3.53-8.068c0-.183-.22-.183-.44-.183s-.22.183-.22.367l3.53 8.068c.22.183.22.183.44.183zm0-7.518c.22 0 .22-.183.22-.367l-3.53-8.251c0-.183-.22-.183-.44-.183s-.22.183-.22.366l3.53 8.252c.22.183.22.183.44.183zm58.17.548h-.44s-.22-.183-.22-.366v-9.535c0-.183.22-.367.22-.367l.22.367-.22-.367 4.62-1.283h.44s.23.183.23.366v9.535c0 .184-.23.367-.23.367l-4.62 1.283zm3.96-1.65v-8.801l-3.74.917v8.801l3.74-.917z" fill="#C4C4C4"/><path d="M1129.26 689.07h-.44s-.22-.184-.22-.367v-9.535c0-.183.22-.367.22-.367l.22.367-.22-.367 4.62-1.283h.44s.23.183.23.367v9.534c0 .184-.23.367-.23.367l-4.62 1.284zm3.96-1.834v-8.801l-3.74 1.1v8.801l3.74-1.1z" fill="#C4C4C4"/><path d="M1129.26 679.535h-.44s-.22-.184-.22-.367v-9.535c0-.183 0-.183.22-.366l.22.366-.22-.366 4.62-1.467h.44c.23 0 .23.183.23.366v9.719c0 .183-.23.366-.23.366l-4.62 1.284zm3.96-1.834v-8.985l-3.74 1.284v8.801l3.74-1.1zm-3.96 30.44h-.44l-.22-.184v-9.535c0-.183.22-.366.22-.366l.22.366-.22-.366 4.62-1.1h.44s.23.183.23.366v9.902c0 .183-.23.367-.45.367l-4.4.55zm3.96-1.284v-9.168l-3.74.917v8.985l3.74-.734zm-3.96 21.454h-.22l-.22-.184v-10.451c0-.184.22-.367.44-.367v.367-.367l4.63-.367h.22l.22.184v10.451c0 .184-.22.367-.44.367l-4.63.367zm3.97-1.101v-9.718l-3.75.367v9.718l3.75-.367zm-3.97 22.367c-.22 0-.22 0-.22-.183l-.22-.183v-11.002c0-.184.22-.367.44-.367v.367-.367l4.63-.183c.22 0 .22 0 .22.183l.22.184v11.001c0 .184-.22.367-.44.367l-4.63.183zm3.97-.917v-10.268l-3.75.184v10.451l3.75-.367z" fill="#C4C4C4"/><path d="M1133.66 761.496h-4.62s-.22 0-.22-.183l-.22-.184v-11.918c0-.183.22-.367.44-.367l4.62-.183c.22 0 .22 0 .22.183l.23.184v12.101c0 .184 0 .184-.23.184 0 .183 0 .183-.22.183zm-.44-.733v-11.369l-3.74.184v11.185h3.74zm.44-11.369v-.366.366zm-4.4-31.538h-.22l-.22-.183v-9.718c0-.184.22-.367.44-.367v.367-.367l4.63-.733h.44l.22.183v10.085c0 .183-.22.367-.44.367l-4.85.366zm3.97-1.1v-9.351l-3.75.55v8.984l3.75-.183zm-3.97 21.821s-.22 0 0 0c-.22 0-.22 0-.22-.183l-.22-.183v-10.269c0-.183.22-.366.44-.366v.366-.366l4.63-.55h.22l.22.183v10.452c0 .183-.22.366-.44.366l-4.63.55zm3.97-.916v-9.719l-3.75.367v9.535l3.75-.183z" fill="#C4C4C4"/><path d="M1129.48 761.314l4.63-12.102c0-.183 0-.366-.22-.366s-.44 0-.44.183l-4.63 12.102c0 .183 0 .367.22.367h.22s.22 0 .22-.184zm0-11.918l4.63-11.185c0-.184 0-.367-.22-.367s-.44 0-.44.183l-4.63 11.185c0 .184 0 .367.22.367h.22s.22 0 .22-.183zm0-11.184l4.63-10.635c0-.183 0-.367-.22-.367s-.44 0-.44.184l-4.63 10.635c0 .183 0 .366.22.366h.22c0 .184.22 0 .22-.183zm0-10.085l4.63-10.818c0-.183 0-.367-.22-.367s-.44 0-.44.184l-4.63 10.818c0 .183 0 .367.22.367h.22s.22 0 .22-.184zm0-10.454l4.63-10.452c0-.183 0-.366-.22-.366s-.44 0-.44.183l-4.63 10.452c0 .183 0 .366.22.366h.22s.22 0 .22-.183zm0-9.717l4.63-10.818c0-.184 0-.367-.22-.367s-.44 0-.44.183l-4.63 10.819c0 .183 0 .366.22.366h.22s.22 0 .22-.183zm0-9.533l4.63-10.635c0-.183 0-.367-.22-.367s-.44 0-.44.184l-4.63 10.635c0 .183 0 .367.22.367h.22s.22 0 .22-.184zm0-9.535l4.63-10.818c0-.184 0-.367-.22-.367s-.44 0-.44.183l-4.63 10.819c0 .183 0 .366.22.366h.22s.22 0 .22-.183zm0-9.536l4.63-11.002c0-.183 0-.367-.22-.367s-.44 0-.44.184l-4.63 11.001c0 .184 0 .367.22.367h.22s.22 0 .22-.183z" fill="#C4C4C4"/><path d="M1138.51 697.869h-.22l-4.62-.55c-.23 0-.45-.183-.45-.366v-9.535c0-.183 0-.183.23-.183 0 0 .22-.184.44 0l4.62.733c.22 0 .44.183.44.367v9.534h-.44zm-.66-.55v-8.801l-3.74-.55v8.801l3.74.55z" fill="#C4C4C4"/><path d="M1138.51 688.521h-.22l-4.62-.733c-.23 0-.45-.184-.45-.367v-9.535c0-.183 0-.183.23-.183h.44l4.62.733c.22 0 .44.184.44.367v9.535c-.22 0-.22 0-.44.183zm-.66-.733v-8.802l-3.74-.733v8.801l3.74.734z" fill="#C4C4C4"/><path d="M1138.51 678.986h-.22l-4.62-.734c-.23 0-.45-.183-.45-.366v-9.718c0-.184 0-.184.23-.184h.44l4.62.917c.22 0 .22.183.22.367v9.535s0 .183-.22.183zm-.66-.734v-8.801l-3.74-.733v8.984l3.74.55zm.66 29.522h-.22l-4.62-.55c-.23 0-.45-.183-.45-.366v-9.902c0-.183 0-.183.23-.183 0 0 .22-.184.44 0l4.62.55c.22 0 .44.183.44.367v9.901c-.22.183-.22.183-.44.183zm-.66-.55v-9.168l-3.74-.366v9.351l3.74.183zm.66 20.9h-.22l-4.62-.367c-.23 0-.45-.183-.45-.367v-10.451c0-.184 0-.184.23-.184 0 0 .22-.183.22 0l4.62.367c.22 0 .44.183.44.367v10.268c0 .183 0 .367-.22.367zm-.66-.55v-9.719l-3.74-.366v9.718l3.74.367zm.66 22.005h-.22l-4.62-.367c-.23 0-.45-.183-.45-.366v-11.002c0-.183 0-.183.23-.183 0 0 .22-.184.22 0l4.62.366c.22 0 .44.184.44.367v11.002s0 .183-.22.183zm-.66-.55v-10.268l-3.74-.367v10.268l3.74.367z" fill="#C4C4C4"/><path d="M1138.29 761.499h-4.62s-.22 0-.22-.183l-.23-.184v-12.101c0-.184 0-.184.23-.184 0 0 .22-.183.22 0l4.62.367c.22 0 .44.183.44.367v11.735c0 .183 0 .183-.22.183h-.22zm-.44-11.735l-3.74-.367v11.369h3.74v-11.002zm.66-31.907h-.22l-4.62-.366c-.23 0-.45-.184-.45-.367v-10.085c0-.183 0-.183.23-.183 0 0 .22-.184.22 0l4.62.55c.22 0 .44.183.44.367v9.901l-.22.183zm-.66-.733v-9.351l-3.74-.367v9.351l3.74.367zm.66 21.453h-.22l-4.62-.366c-.23 0-.45-.184-.45-.367v-10.452c0-.183 0-.183.23-.183 0 0 .22-.183.22 0l4.62.367c.22 0 .44.183.44.366v10.452c0 .183 0 .183-.22.183zm-.66-.55v-9.718l-3.74-.367v9.902l3.74.183z" fill="#C4C4C4"/><path d="M1138.51 761.498c.22 0 .44-.184.22-.367l-4.63-12.102c0-.183-.22-.367-.44-.183-.22 0-.44.183-.22.366l4.63 12.102c0 .184 0 .184.44.184-.22 0-.22 0 0 0zm0-11.736c.22 0 .44-.183.22-.366l-4.63-11.369c0-.183-.22-.366-.44-.183-.22 0-.44.183-.22.367l4.63 11.368s0 .183.44.183c-.22 0-.22 0 0 0zm0-11c.22 0 .22-.183.22-.367l-4.63-11.001c0-.184-.22-.184-.44-.184s-.44.184-.22.367l4.63 10.818c0 .184 0 .367.44.367 0 0-.22 0 0 0zm0-10.451c.22 0 .22-.184.22-.367l-4.63-10.818c0-.184-.22-.184-.44-.184s-.22.184-.22.367l4.63 10.818s0 .184.44.184c0 0-.22 0 0 0zm0-10.455c.22 0 .22-.183.22-.366l-4.63-10.452c0-.183-.22-.183-.44-.183s-.22.183-.22.366l4.63 10.452c0 .183 0 .183.44.183 0 0-.22 0 0 0zm0-9.899c.22 0 .22-.183.22-.366l-4.63-10.452c0-.183-.22-.183-.44-.183s-.22.183-.22.366l4.63 10.452s0 .183.44.183c0 0-.22 0 0 0zm0-10.086c.22 0 .22-.183.22-.367l-4.63-10.085c0-.183-.22-.183-.44-.183s-.22.183-.22.367l4.63 10.085c0 .183 0 .366.44.183 0 .183-.22.183 0 0zm0-9.35c.22 0 .22-.183.22-.367l-4.63-10.268c0-.183-.22-.183-.44-.183s-.22.183-.22.367l4.63 10.268c0 .183 0 .183.44.183 0 0-.22 0 0 0zm0-9.535c.22 0 .22-.183.22-.367l-4.63-10.451c0-.184-.22-.184-.44-.184s-.22.184-.22.367l4.63 10.452c0 .183 0 .366.44.183 0 .183-.22.183 0 0zM1116.7 670c0 .183-.22.183 0 0-.22 0-.44 0-.44-.183v-.367l19.17-21.453c.22-.184.22-.184.44-.184s.22.184.22.367l-.44-.183.44.183-6.61 17.236-.22.183L1116.7 670zm12.11-4.767l5.73-15.219-16.96 18.886 11.23-3.667z" fill="#C4C4C4"/><path d="M1133.89 668.351l2.2-19.986c0-.184-.22-.367-.44-.367s-.44.183-.44.367l-2.21 19.986c0 .183.23.367.45.367.44-.184.44-.184.44-.367zm-90.34 98.647h117.66v-2.567l-22.92-3.3h-74.47l-20.27 3.3v2.567z" fill="#C4C4C4"/><path d="M1071.53 761.129v-70.778c0-.183-.22-.366-.44-.366s-.44.183-.44.366v70.778c0 .183.22.367.44.367.22.183.44 0 .44-.367zm82.63-79.579c.22.367 0 .733-.66.733h-3.09c-.66 0-.88-.366-.66-.733l1.32-1.834h1.76l1.33 1.834zm0-2.749c.22.367 0 .734-.66.734h-3.09c-.66 0-.88-.367-.66-.734l1.32-1.833h1.76l1.33 1.833zm0-2.567c.22.367 0 .734-.66.734h-3.09c-.66 0-.88-.367-.66-.734l1.32-1.833h1.76l1.33 1.833zm0-2.75c.22.367 0 .733-.66.733h-3.09c-.66 0-.88-.366-.66-.733l1.32-1.834h1.76l1.33 1.834zm0-2.567c.22.367 0 .733-.66.733h-3.09c-.66 0-.88-.366-.66-.733l1.32-1.834h1.76l1.33 1.834zm-1.54 11.366h-.89v3.301h.89v-3.301z" fill="#C4C4C4"/><path d="M1152.17 686.686c.73 0 1.32-.493 1.32-1.1 0-.608-.59-1.1-1.32-1.1-.73 0-1.32.492-1.32 1.1 0 .607.59 1.1 1.32 1.1zm.89-20.72h-1.77v3.117h1.77v-3.117zm-29.97 23.102c.22.367 0 .733-.44.733h-2.86c-.66 0-.89-.366-.44-.733l1.1-1.65h1.54l1.1 1.65z" fill="#C4C4C4"/><path d="M1123.09 686.869c.22.367 0 .734-.44.734h-2.86c-.66 0-.89-.367-.44-.734l1.1-1.65h1.54l1.1 1.65z" fill="#C4C4C4"/><path d="M1123.09 684.487c.22.367 0 .734-.44.734h-2.86c-.66 0-.89-.367-.44-.734l1.1-1.65h1.54l1.1 1.65zm0-2.386c.22.367 0 .733-.44.733h-2.86c-.66 0-.89-.366-.44-.733l1.1-1.65h1.54l1.1 1.65z" fill="#C4C4C4"/><path d="M1123.09 679.718c.22.367 0 .734-.44.734h-2.86c-.66 0-.88-.367-.44-.734l1.1-1.65h1.54l1.1 1.65zm-1.54 10.085h-.66v2.934h.66v-2.934z" fill="#C4C4C4"/><path d="M1121.33 693.836c.61 0 1.1-.411 1.1-.917s-.49-.917-1.1-.917c-.61 0-1.1.411-1.1.917s.49.917 1.1.917zm.66-18.7h-1.54v2.751h1.54v-2.751zm-22.25 19.621c.22.367 0 .733-.44.733h-2.65c-.44 0-.66-.366-.44-.733l1.1-1.467h1.32l1.11 1.467zm0-2.202c.22.367 0 .733-.44.733h-2.65c-.44 0-.66-.366-.44-.733l1.1-1.467h1.32l1.11 1.467z" fill="#C4C4C4"/><path d="M1099.74 690.538c.22.367 0 .733-.44.733h-2.65c-.44 0-.66-.366-.44-.733l1.1-1.467h1.32l1.11 1.467z" fill="#C4C4C4"/><path d="M1099.74 688.339c.22.367 0 .734-.44.734h-2.65c-.44 0-.66-.367-.44-.734l1.1-1.467h1.32l1.11 1.467zm0-2.202c.22.367 0 .734-.44.734h-2.65c-.44 0-.66-.367-.44-.734l1.1-1.467h1.32l1.11 1.467zm-1.33 9.166h-.66v2.751h.66v-2.751z" fill="#C4C4C4"/><path d="M1097.97 698.974c.61 0 1.11-.41 1.11-.917 0-.506-.5-.917-1.11-.917-.6 0-1.1.411-1.1.917 0 .507.5.917 1.1.917zm.66-16.871h-1.32v2.567h1.32v-2.567zm-19.17 17.785c.22.367 0 .55-.44.55h-2.2c-.44 0-.66-.183-.44-.55l.88-1.284h1.32l.88 1.284zm0-2.017c.22.367 0 .55-.44.55h-2.2c-.44 0-.66-.183-.44-.55l.88-1.284h1.32l.88 1.284zm0-1.834c.22.367 0 .55-.44.55h-2.2c-.44 0-.66-.183-.44-.55l.88-1.283h1.32l.88 1.283zm0-2.017c.22.367 0 .55-.44.55h-2.2c-.44 0-.66-.183-.44-.55l.88-1.283h1.32l.88 1.283zm0-1.833c.22.366 0 .55-.44.55h-2.2c-.44 0-.66-.184-.44-.55l.88-1.284h1.32l.88 1.284zm-1.1 8.251h-.66v2.384h.66v-2.384z" fill="#C4C4C4"/><path d="M1077.92 703.557c.49 0 .88-.329.88-.734 0-.405-.39-.733-.88-.733s-.88.328-.88.733c0 .405.39.734.88.734zm.88-15.036h-1.32v2.2h1.32v-2.2zm-20.05 15.953c.22.366 0 .55-.44.55h-1.99c-.44 0-.66-.184-.44-.55l.88-1.284h1.11l.88 1.284zm0-1.834c.22.367 0 .55-.44.55h-1.99c-.44 0-.66-.183-.44-.55l.88-1.283h1.11l.88 1.283z" fill="#C4C4C4"/><path d="M1058.75 700.992c.22.366 0 .55-.44.55h-1.99c-.44 0-.66-.184-.44-.55l.88-1.284h1.11l.88 1.284zm0-1.838c.22.367 0 .551-.44.551h-1.99c-.44 0-.66-.184-.44-.551l.88-1.283h1.11l.88 1.283z" fill="#C4C4C4"/><path d="M1058.75 697.506c.22.367 0 .55-.44.55h-1.98c-.44 0-.66-.183-.44-.55l.88-1.283h1.1l.88 1.283zm-1.1 7.517h-.66v2.2h.66v-2.2z" fill="#C4C4C4"/><path d="M1057.43 707.773c.49 0 .88-.328.88-.734 0-.405-.39-.733-.88-.733s-.88.328-.88.733c0 .406.39.734.88.734zm.44-14.668h-1.1v3.117h1.1v-3.117zm103.12 71.51s-.22 0 0 0h-.22l-66.98-55.192-49.58 55.192h-.22s-.22-.184 0-.184l19.83-73.711s0-.183.22-.183v.183-.183l7.27-.184h.22l22.48 18.52 35.25-39.24h.22l9.25-.55s.22 0 .22.184l22.04 95.348s0-.184 0 0zm-.44-.734l-22.26-94.431-8.81.55-35.25 39.24 66.32 54.641zm-116.12-.183l49.13-54.642-22.47-18.519-7.05.183-19.61 72.978z" fill="#C4C4C4"/><path d="M1056.33 693.47s-.22.184 0 0c-.44 0-.44 0-.67-.183-.22-.183 0-.367 0-.55l7.72-5.501h.22l65.44-22.187h.22v.367l.22.367-.22-.367v-.367l13.44-.183c.22 0 .44.183.44.367 0 .183 0 .367-.22.55l-86.59 27.687zm2.42-1.65l81.08-26.037h-10.57l-65.22 22.187-5.29 3.85z" fill="#C4C4C4"/><path d="M1064.04 690.72v-2.751h8.81v-3.117h9.7c.22 0 .44-.183.44-.366v-2.934h10.13c.22 0 .45-.184.45-.367v-3.3h10.79c.22 0 .44-.184.44-.367v-3.484h11.68c.22 0 .44-.183.44-.367V670h12.34c.22 0 .44-.183.44-.367v-4.034l13.22-.183c.22 0 .44-.183.44-.367 0-.183-.22-.366-.44-.366l-13.44.183c-.22 0-.44.183-.44.367v4.034h-12.34c-.22 0-.44.183-.44.366v3.668h-11.68c-.22 0-.44.183-.44.366v3.484h-10.8c-.22 0-.44.184-.44.367v3.3h-10.35c-.22 0-.44.184-.44.367v3.117h-9.7c-.22 0-.44.184-.44.367v2.934h-8.81v3.117c0 .183.22.367.44.367.44-.184.44-.184.44-.367z" fill="#C4C4C4"/><path d="M1061.84 693.654l-5.73-.184c-.22 0-.44-.183-.44-.366 0-.184 0-.367.22-.55l86.59-27.688h.22l10.36.55c.22 0 .44.184.44.367s0 .367-.44.55l-91.22 27.321zm-.22-.734l89.01-26.587-7.71-.367-83.95 26.954h2.65z" fill="#C4C4C4"/><path d="M1061.84 693.47l1.98-2.567 8.81-.733c.22 0 .22-.184.22-.367v-1.834l9.04-.55c.22 0 .22-.183.22-.183l.66-2.384 9.91-.733c.22 0 .22-.183.22-.183l.44-2.568 11.02-.733c.22 0 .22-.183.22-.367v-2.383l11.68-.734c.22 0 .22-.183.22-.367v-2.75l12.34-.733c.22 0 .22-.184.22-.367v-3.117l13.22-.734c.22 0 .22-.183.22-.366v-3.668c0-.183-.22-.366-.44-.366s-.44.183-.44.366v3.301l-13.22.733c-.22 0-.22.184-.22.367v3.117l-12.34.734c-.22 0-.22.183-.22.366v2.751l-11.68.733c-.22 0-.22.184-.22.367v2.567l-11.02.733c-.22 0-.22.184-.22.184l-.44 2.567-9.69.733c-.22 0-.22.184-.22.184l-.66 2.383-9.04.55c-.22 0-.22.184-.22.367v1.834l-8.81.733s-.22 0-.22.184l-2.21 2.567v.366h.89z" fill="#C4C4C4"/><path d="M1064.26 761.131V690.72c0-.183-.22-.367-.44-.367s-.44.184-.44.367v70.594c0 .183.22.367.44.367s.44-.184.44-.55zm74.69.002v-91.864c0-.184-.22-.55-.66-.55-.22 0-.66.183-.66.55v91.864c0 .183.22.55.66.55.22 0 .66-.183.66-.55zm-9.25-.002v-91.498c0-.183-.22-.55-.66-.55-.22 0-.66.184-.66.55v91.498c0 .183.22.55.66.55.44 0 .66-.183.66-.55zm4.63 0l.22-92.965c0-.183-.22-.366-.44-.366s-.44.183-.44.366l-.22 92.965c0 .183.22.367.44.367.22.183.44-.001.44-.367zm-66.55 0v-71.695c0-.183-.22-.366-.44-.366s-.44.183-.44.366v71.695c0 .183.22.367.44.367.22.183.44 0 .44-.367zm-461.379-16.685H485.215V767h121.186v-22.554z" fill="#C4C4C4"/><path d="M585.244 748.112h-78.44c-.661 0-1.322-.183-1.763-.55-.44-.367-.661-.917-.661-1.467l2.204.183v-1.833 1.833l-2.204-.183 39.441-398.445c.22-.917 1.101-1.65 2.203-1.65 1.102 0 2.204.733 2.204 1.65l39.22 398.445c0 .55-.221 1.1-.661 1.467-.221.367-.882.55-1.543.55zm-2.424-3.667l-36.796-339.219-36.796 339.219h73.592z" fill="#C4C4C4"/><path d="M586.345 747.195c.661-.55.661-1.283 0-1.833l-70.728-58.859 58.83-48.958c.661-.55.661-1.284 0-1.834l-48.915-40.706 40.762-33.922c.661-.55.661-1.283 0-1.833l-33.932-28.238 27.983-23.287c.661-.55.661-1.284 0-1.834l-23.356-19.436 19.17-15.952c.661-.551.661-1.284 0-1.834l-15.865-13.202 13-10.818c.661-.551.661-1.284 0-1.834l-10.796-8.985 8.813-7.334c.661-.55.661-1.284 0-1.834l-8.152-6.784c-.661-.55-1.542-.55-2.203 0-.662.55-.662 1.283 0 1.833l7.271 6.051-8.814 7.335c-.22.183-.441.55-.441.917 0 .366.221.733.441.916l10.797 8.985-13 10.818c-.221.184-.441.55-.441.917s.22.734.441.917l15.864 13.202-19.169 15.953c-.221.183-.441.55-.441.916 0 .367.22.734.441.917l23.355 19.436-27.982 23.287c-.221.184-.441.55-.441.917s.22.734.441.917l33.932 28.238-40.763 33.922c-.22.183-.441.55-.441.916 0 .367.221.734.441.917l48.915 40.707-58.83 48.957c-.22.183-.441.55-.441.917s.221.733.441.917l71.83 59.776c.22.183.661.366 1.102.366.22-.183.661-.366.881-.55z" fill="#C4C4C4"/><path d="M507.911 747.193l71.83-59.776c.661-.55.661-1.283 0-1.833l-58.83-48.958 48.915-40.706c.661-.55.661-1.284 0-1.834l-40.762-33.922 33.932-28.237c.661-.55.661-1.284 0-1.834s-1.543-.55-2.204 0l-34.813 29.155c-.22.183-.441.55-.441.916 0 .367.221.734.441.917l40.762 33.922-48.914 40.706c-.221.184-.441.55-.441.917s.22.734.441.917l58.83 48.958-70.729 58.859c-.661.55-.661 1.283 0 1.833.221.184.661.367 1.102.367.22 0 .661-.183.881-.367z" fill="#C4C4C4"/><path d="M581.722 714.926c.881 0 1.542-.55 1.542-1.284 0-.733-.661-1.283-1.542-1.283h-71.169c-.882 0-1.543.55-1.543 1.283 0 .734.661 1.284 1.543 1.284h71.169zm-5.948-54.461c.881 0 1.542-.55 1.542-1.283 0-.734-.661-1.284-1.542-1.284h-59.491c-.882 0-1.543.55-1.543 1.284 0 .733.661 1.283 1.543 1.283h59.491zm-4.852-45.474c.882 0 1.543-.55 1.543-1.283 0-.734-.661-1.284-1.543-1.284h-49.575c-.882 0-1.543.55-1.543 1.284 0 .733.661 1.283 1.543 1.283h49.575zm-4.183-37.955c.881 0 1.542-.55 1.542-1.284 0-.733-.661-1.283-1.542-1.283h-41.424c-.881 0-1.542.55-1.542 1.283 0 .734.661 1.284 1.542 1.284h41.424zm-3.306-31.539c.881 0 1.543-.55 1.543-1.283 0-.734-.662-1.284-1.543-1.284H528.84c-.881 0-1.542.55-1.542 1.284 0 .733.661 1.283 1.542 1.283h34.593zm60.151-13.202H469.568c-.661 0-1.322-.366-1.542-.916-.22-.55.22-1.101.881-1.467l63.898-24.204.661-.183v1.283l.661 1.1-.661-1.1v-1.283h26.441l.661.183 63.898 24.204c.661.183 1.101.917.881 1.467-.441.55-1.102.916-1.763.916zm-6.83-2.567l-57.288-21.82h-25.779l-57.288 21.82h140.355zm-10.355-58.859H485.654c-.661 0-1.322-.366-1.542-1.1-.221-.55.22-1.283 1.101-1.467l52.661-14.119h.441v1.284l.44 1.1-.44-1.1v-1.284h15.864l52.661 14.119c.661.184 1.101.734 1.101 1.467-.22.734-.661 1.1-1.542 1.1zm-9.474-2.383l-43.407-11.552h-14.983l-43.406 11.552h101.796z" fill="#C4C4C4"/><path d="M562.551 531.929l22.695-13.019v12.102c0 .55.44.917 1.101.917s1.102-.367 1.102-.917v-14.119c0-.367-.22-.733-.661-.917a1.66 1.66 0 00-1.322 0l-24.678 14.119c-.441.367-.661.917-.22 1.467.22.367.661.367 1.102.367.44.183.881 0 .881 0zm-55.747-.917v-11.919l22.695 12.652c.661.367 1.322.184 1.763-.183.44-.55.22-1.1-.221-1.467l-24.678-13.569a1.66 1.66 0 00-1.322 0c-.44.184-.661.55-.661.917v13.752c0 .55.441.917 1.102.917.881 0 1.322-.55 1.322-1.1zm66.984-61.245v-9.168c0-.367-.22-.734-.661-.917a1.66 1.66 0 00-1.322 0l-17.186 9.168c-.661.367-.661.917-.441 1.467.441.55 1.102.55 1.763.367l15.203-8.068v7.334c0 .55.441.917 1.102.917.881-.183 1.542-.55 1.542-1.1zm-35.914.55c.44-.55.22-1.1-.441-1.467l-17.186-9.168a1.66 1.66 0 00-1.322 0c-.441.183-.661.55-.661.917v9.168c0 .55.44.917 1.101.917s1.102-.367 1.102-.917v-7.334l15.203 8.067c.221.184.441.184.661.184.882 0 1.322-.184 1.543-.367zm-44.289 19.622c.881 1.1.22 2.2-1.543 2.2h-8.372c-1.543 0-2.204-.917-1.543-2.2l3.305-4.951h4.627l3.526 4.951z" fill="#C4C4C4"/><path d="M493.585 482.971c.881 1.1.22 2.2-1.543 2.2h-8.372c-1.543 0-2.204-.916-1.543-2.2l3.305-4.951h4.627l3.526 4.951zm0-7.151c.882 1.1.221 2.2-1.542 2.2h-8.373c-1.542 0-2.203-.916-1.542-2.2l3.305-4.951h4.627l3.525 4.951zm-4.402 16.319h-2.204v6.785h2.204v-6.785z" fill="#C4C4C4"/><path d="M488.081 501.491c1.825 0 3.305-1.232 3.305-2.751s-1.48-2.75-3.305-2.75c-1.825 0-3.305 1.231-3.305 2.75s1.48 2.751 3.305 2.751zm121.841-11.552c.882 1.1.221 2.2-1.542 2.2h-8.373c-1.542 0-2.203-.917-1.542-2.2l3.305-4.951h4.627l3.525 4.951z" fill="#C4C4C4"/><path d="M609.922 482.971c.882 1.1.221 2.2-1.542 2.2h-8.373c-1.542 0-2.203-.916-1.542-2.2l3.305-4.951h4.627l3.525 4.951zm.001-7.151c.882 1.1.221 2.2-1.542 2.2h-8.373c-1.542 0-2.203-.916-1.542-2.2l3.305-4.951h4.627l3.525 4.951zm-4.624 16.319h-2.204v6.785h2.204v-6.785z" fill="#C4C4C4"/><path d="M604.197 501.491c1.825 0 3.305-1.232 3.305-2.751s-1.48-2.75-3.305-2.75c-1.826 0-3.305 1.231-3.305 2.75s1.479 2.751 3.305 2.751zM477.28 551.363c.881 1.1.22 2.201-1.543 2.201h-8.373c-1.542 0-2.203-.917-1.542-2.201l3.305-4.951h4.627l3.526 4.951zm0-7.151c.881 1.1.22 2.2-1.543 2.2h-8.373c-1.542 0-2.203-.916-1.542-2.2l3.305-4.951h4.627l3.526 4.951z" fill="#C4C4C4"/><path d="M477.28 537.244c.882 1.101.22 2.201-1.542 2.201h-8.373c-1.542 0-2.203-.917-1.542-2.201l3.305-4.95h4.627l3.525 4.95zm-4.405 16.136h-2.204v6.601h2.204v-6.601z" fill="#C4C4C4"/><path d="M471.773 562.915c1.825 0 3.305-1.231 3.305-2.75s-1.48-2.751-3.305-2.751c-1.826 0-3.305 1.232-3.305 2.751s1.479 2.75 3.305 2.75zm155.118-11.552c.882 1.1.221 2.201-1.542 2.201h-8.373c-1.542 0-2.203-.917-1.542-2.201l3.305-4.951h4.627l3.525 4.951z" fill="#C4C4C4"/><path d="M626.891 544.212c.882 1.1.221 2.201-1.542 2.201h-8.373c-1.542 0-2.203-.917-1.542-2.201l3.305-4.951h4.627l3.525 4.951z" fill="#C4C4C4"/><path d="M626.893 537.244c.881 1.101.22 2.201-1.542 2.201h-8.373c-1.543 0-2.204-.917-1.543-2.201l3.305-4.95h4.628l3.525 4.95zm-4.407 16.136h-2.204v6.601h2.204v-6.601z" fill="#C4C4C4"/><path d="M621.384 562.915c1.825 0 3.305-1.231 3.305-2.75s-1.48-2.751-3.305-2.751c-1.826 0-3.305 1.232-3.305 2.751s1.479 2.75 3.305 2.75zm546.346 194.546H-22v9.168h1189.73v-9.168z" fill="#C4C4C4"/></g><defs><linearGradient id="paint0_linear" x1="796" y1="1153.5" x2="837.5" y2="872" gradientUnits="userSpaceOnUse"><stop stop-color="#CCC"/><stop offset="1" stop-color="#E9E9E9"/></linearGradient><clipPath id="clip0"><path fill="#fff" d="M0 0h2500v960H0z"/></clipPath></defs></svg>