<svg width="2500" height="960" viewBox="0 0 2500 960" fill="none" xmlns="http://www.w3.org/2000/svg">
<g clip-path="url(#clip0)">
<path d="M-32 702H2500V739H-32V702Z" fill="#A0A1A2"/>
<rect x="-2" y="726" width="2504" height="234" fill="white"/>
<path d="M1954.3 709.592L1967.48 709.477L1963.4 543.539L1955.49 543.608L1954.3 709.592Z" fill="#A0A1A2"/>
<path d="M1940.18 571.908C1939.13 571.917 1939.15 574.517 1937.83 574.528C1936.78 574.538 1936.76 572.154 1935.44 572.382L1935.42 569.999C1936.48 569.99 1936.45 567.39 1937.77 567.379C1938.83 567.369 1938.85 569.753 1940.16 569.741L1940.18 571.908Z" fill="#A0A1A2"/>
<path d="M1944.66 571.652C1943.61 571.661 1943.63 574.261 1942.31 574.273C1941.26 574.282 1941.24 571.898 1939.92 572.127L1939.9 569.743C1940.96 569.734 1940.93 567.134 1942.25 567.123C1943.31 567.114 1943.33 569.497 1944.64 569.269L1944.66 571.652Z" fill="#A0A1A2"/>
<path d="M1949.14 571.179C1948.09 571.189 1948.11 573.789 1946.79 573.8C1945.74 573.809 1945.72 571.426 1944.4 571.438L1944.38 569.054C1945.43 569.045 1945.41 566.445 1946.73 566.434C1947.78 566.424 1947.81 568.808 1949.12 568.58L1949.14 571.179Z" fill="#A0A1A2"/>
<path d="M1964.69 569.96L1949.14 571.18L1949.12 568.796L1964.67 567.577L1964.69 569.96Z" fill="#A0A1A2"/>
<path d="M1935.44 572.382L1891.71 575.798L1891.69 573.414L1935.42 569.999L1935.44 572.382Z" fill="#A0A1A2"/>
<path d="M1987.97 580.158C1987.98 581.025 1990.88 580.999 1990.89 581.866C1990.9 582.733 1988 582.975 1988.01 584.058L1985.11 584.3C1985.1 583.433 1982.2 583.458 1982.2 582.592C1982.19 581.509 1985.09 581.483 1985.08 580.4L1987.97 580.158Z" fill="#A0A1A2"/>
<path d="M1987.94 576.26C1987.95 577.344 1990.85 577.102 1990.86 577.968C1990.86 578.835 1987.96 579.077 1987.97 580.16L1985.08 580.402C1985.07 579.535 1982.17 579.561 1982.16 578.694C1982.15 577.611 1985.05 577.585 1985.04 576.502L1987.94 576.26Z" fill="#A0A1A2"/>
<path d="M1987.91 572.358C1987.91 573.225 1990.81 573.2 1990.82 574.066C1990.83 574.933 1987.93 575.175 1987.94 576.258L1985.04 576.5C1985.03 575.417 1982.14 575.659 1982.13 574.792C1982.12 573.709 1985.02 573.684 1985.01 572.6L1987.91 572.358Z" fill="#A0A1A2"/>
<path d="M1988.01 584.06L1988.04 587.526L1985.14 587.768L1985.11 584.302L1988.01 584.06Z" fill="#A0A1A2"/>
<path d="M1942.84 603.521C1941.78 603.097 1940.21 605.061 1939.42 604.634C1938.36 604.21 1940.19 602.027 1939.13 601.603L1940.69 599.423C1941.75 599.847 1943.31 597.883 1944.11 598.31C1945.17 598.734 1943.34 600.916 1944.4 601.34L1942.84 603.521Z" fill="#A0A1A2"/>
<path d="M1946.54 605.44C1945.48 605.016 1943.92 607.196 1943.12 606.553C1942.06 606.129 1943.89 603.946 1942.83 603.522L1944.4 601.342C1945.45 601.766 1947.02 599.802 1947.81 600.229C1948.87 600.653 1947.05 602.836 1948.1 603.26L1946.54 605.44Z" fill="#A0A1A2"/>
<path d="M1950.25 607.354C1949.19 606.93 1947.62 608.894 1946.83 608.467C1945.77 608.043 1947.6 605.861 1946.54 605.437L1948.1 603.256C1949.16 603.68 1950.72 601.717 1951.52 602.143C1952.58 602.567 1950.75 604.75 1951.81 605.174L1950.25 607.354Z" fill="#A0A1A2"/>
<path d="M1955.02 609.915L1950.25 607.356L1951.82 605.393L1954.99 607.098L1955.02 609.915Z" fill="#A0A1A2"/>
<path d="M1938.86 601.606L1883.51 572.837L1885.07 570.873L1940.42 599.642L1938.86 601.606Z" fill="#A0A1A2"/>
<path d="M1935.94 599.466L1876.93 604.097L1876.92 602.581L1935.93 597.732L1935.94 599.466Z" fill="#A0A1A2"/>
<path d="M1988.96 572.35L1954.71 575.033L1954.7 573.516L1988.95 570.617L1988.96 572.35Z" fill="#A0A1A2"/>
<path d="M1884.02 602.084L1891.18 575.804L1891.97 575.797L1884.82 602.294L1884.02 602.084Z" fill="#A0A1A2"/>
<path d="M1914.42 610.269C1914.41 609.619 1913.35 608.762 1911.77 608.559L1888.02 606.599C1885.65 606.403 1883.53 605.122 1883.51 603.388L1885.62 603.153C1885.63 603.803 1886.69 604.661 1888.27 604.864L1912.02 606.823C1914.39 607.019 1916.51 608.301 1916.53 610.251L1914.42 610.269Z" fill="#A0A1A2"/>
<path d="M1961.84 545.717L1962.36 545.279L1988.16 571.272L1987.38 571.929L1961.84 545.717Z" fill="#A0A1A2"/>
<path d="M1957.43 675.549L1957.46 709.567L1963.53 709.514L1962.7 675.503L1957.43 675.549Z" fill="white"/>
<path d="M1965.56 609.173L1955.02 609.915L1954.99 607.098L1965.53 606.14L1965.56 609.173Z" fill="#A0A1A2"/>
<path d="M1764.76 711.246L1752.9 711.35L1753.98 562.917L1761.09 562.855L1764.76 711.246Z" fill="#A0A1A2"/>
<path d="M1775.26 585.269C1776.32 585.26 1776.34 587.427 1777.39 587.201C1778.44 587.192 1778.42 585.025 1779.48 584.799L1779.46 582.633C1778.4 582.642 1778.39 580.475 1777.33 580.701C1776.28 580.71 1776.3 582.877 1775.24 583.103L1775.26 585.269Z" fill="#A0A1A2"/>
<path d="M1771.05 585.738C1772.11 585.728 1772.13 587.895 1773.18 587.669C1774.23 587.66 1774.22 585.493 1775.27 585.267L1775.25 583.101C1774.19 583.11 1774.18 580.943 1773.12 581.169C1772.07 581.179 1772.09 583.345 1771.03 583.571L1771.05 585.738Z" fill="#A0A1A2"/>
<path d="M1767.1 585.991C1768.15 585.982 1768.17 588.148 1769.23 587.922C1770.28 587.913 1770.26 585.747 1771.31 585.521L1771.29 583.354C1770.24 583.363 1770.22 581.197 1769.17 581.423C1768.11 581.432 1768.13 583.598 1767.08 583.824L1767.1 585.991Z" fill="#A0A1A2"/>
<path d="M1753.13 586.977L1767.1 585.989L1767.08 583.822L1753.12 585.027L1753.13 586.977Z" fill="#A0A1A2"/>
<path d="M1779.22 585.016L1818.48 581.857L1818.46 579.69L1779.2 582.85L1779.22 585.016Z" fill="#A0A1A2"/>
<path d="M1732.68 599.507C1732.68 600.373 1730.05 600.613 1730.06 601.48C1730.07 602.346 1732.7 602.107 1732.71 602.973L1735.08 602.736C1735.07 601.869 1737.71 601.63 1737.7 600.763C1737.69 599.896 1735.06 600.136 1735.05 599.269L1732.68 599.507Z" fill="#A0A1A2"/>
<path d="M1732.65 596.04C1732.65 596.907 1730.02 597.146 1730.03 598.013C1730.04 598.88 1732.67 598.64 1732.68 599.507L1735.05 599.269C1735.04 598.403 1737.67 598.163 1737.67 597.296C1737.66 596.43 1735.03 596.669 1735.02 595.803L1732.65 596.04Z" fill="#A0A1A2"/>
<path d="M1732.62 592.574C1732.62 593.44 1729.99 593.68 1730 594.547C1730 595.413 1732.64 595.173 1732.65 596.04L1735.02 595.803C1735.01 594.936 1737.64 594.696 1737.64 593.83C1737.63 592.963 1734.99 593.203 1734.99 592.336L1732.62 592.574Z" fill="#A0A1A2"/>
<path d="M1732.71 602.973L1732.74 606.223L1735.11 605.986L1735.08 602.953L1732.71 602.973Z" fill="#A0A1A2"/>
<path d="M1773.4 613.883C1774.19 613.226 1775.78 614.946 1776.57 614.506C1777.36 613.849 1776.02 612.344 1776.81 611.687L1775.48 609.965C1774.69 610.622 1773.09 608.902 1772.31 609.343C1771.52 609.999 1772.85 611.505 1772.07 612.161L1773.4 613.883Z" fill="#A0A1A2"/>
<path d="M1770 616.296C1770.78 615.64 1772.38 617.359 1773.17 616.919C1773.95 616.262 1772.62 614.757 1773.41 614.1L1772.07 612.378C1771.29 613.035 1769.69 611.316 1768.9 611.756C1768.12 612.413 1769.45 613.918 1768.67 614.575L1770 616.296Z" fill="#A0A1A2"/>
<path d="M1766.85 618.489C1767.64 617.832 1769.23 619.552 1770.02 619.112C1770.81 618.455 1769.47 616.95 1770.26 616.293L1768.93 614.571C1768.14 615.228 1766.54 613.508 1765.76 613.949C1764.97 614.606 1766.3 616.111 1765.52 616.768L1766.85 618.489Z" fill="#A0A1A2"/>
<path d="M1762.4 621.348L1766.85 618.492L1765.26 616.773L1762.37 618.748L1762.4 621.348Z" fill="#A0A1A2"/>
<path d="M1776.55 611.689L1825.82 577.891L1824.23 576.388L1775.22 609.967L1776.55 611.689Z" fill="#A0A1A2"/>
<path d="M1779.42 609.281L1832.11 604.921L1832.1 603.621L1779.41 607.764L1779.42 609.281Z" fill="#A0A1A2"/>
<path d="M1731.56 592.797L1762.12 590.147L1762.11 588.847L1731.55 591.281L1731.56 592.797Z" fill="#A0A1A2"/>
<path d="M1825.78 604.107L1819 581.632L1818.21 581.856L1824.99 604.331L1825.78 604.107Z" fill="#A0A1A2"/>
<path d="M1798.74 616.046C1798.73 615.612 1799.78 614.52 1801.09 614.075L1822.4 608.906C1824.51 608.454 1826.34 606.921 1826.32 605.188L1824.48 605.421C1824.49 605.854 1823.44 606.946 1822.13 607.391L1800.82 612.561C1798.71 613.012 1796.88 614.545 1796.89 616.278L1798.74 616.046Z" fill="#A0A1A2"/>
<path d="M1755.31 565.07L1754.78 564.642L1732.34 591.705L1732.88 592.134L1755.31 565.07Z" fill="#A0A1A2"/>
<path d="M1761.33 680.727L1761.86 711.274L1756.32 711.322L1756.58 680.768L1761.33 680.727Z" fill="white"/>
<path d="M1752.91 622.077L1762.39 621.344L1762.37 618.744L1752.88 619.694L1752.91 622.077Z" fill="#A0A1A2"/>
<path d="M1761.47 665.772C1761.47 665.988 1761.21 666.207 1760.94 666.209L1757.25 666.242C1756.99 666.244 1756.72 666.03 1756.72 665.813L1756.7 662.78C1756.69 662.563 1756.96 662.344 1757.22 662.342L1760.91 662.31C1761.17 662.307 1761.44 662.522 1761.44 662.738L1761.47 665.772Z" fill="white"/>
<path d="M1962.3 658.819C1962.31 659.035 1962.04 659.254 1961.78 659.257L1957.56 659.293C1957.3 659.296 1957.03 659.081 1957.03 658.865L1957 655.398C1957 655.181 1957.26 654.963 1957.52 654.96L1961.74 654.923C1962.01 654.921 1962.27 655.135 1962.27 655.352L1962.3 658.819Z" fill="white"/>
<path d="M1619.51 712.514L1635.85 712.371L1630.88 505.056L1620.86 505.143L1619.51 712.514Z" fill="#A0A1A2"/>
<path d="M1601.65 540.411C1600.33 540.422 1600.36 543.672 1598.78 543.686C1597.46 543.697 1597.44 540.664 1595.86 540.894L1595.83 537.861C1597.15 537.85 1597.12 534.6 1598.7 534.586C1600.02 534.575 1600.05 537.608 1601.63 537.377L1601.65 540.411Z" fill="#A0A1A2"/>
<path d="M1607.45 539.928C1606.13 539.94 1606.16 543.19 1604.58 543.204C1603.26 543.215 1603.23 540.182 1601.65 540.412L1601.62 537.379C1602.94 537.368 1602.91 534.118 1604.5 534.104C1605.81 534.092 1605.84 537.126 1607.42 536.895L1607.45 539.928Z" fill="#A0A1A2"/>
<path d="M1612.98 539.445C1611.66 539.457 1611.69 542.706 1610.1 542.72C1608.79 542.732 1608.76 539.699 1607.18 539.929L1607.15 536.896C1608.47 536.884 1608.44 533.634 1610.02 533.621C1611.34 533.609 1611.37 536.642 1612.95 536.412L1612.98 539.445Z" fill="#A0A1A2"/>
<path d="M1632.48 537.975L1612.98 539.445L1612.96 536.412L1632.45 534.942L1632.48 537.975Z" fill="#A0A1A2"/>
<path d="M1596.12 540.892L1541.06 545.273L1541.03 542.24L1596.09 537.859L1596.12 540.892Z" fill="#A0A1A2"/>
<path d="M1661.32 550.723C1661.34 552.023 1664.76 551.56 1664.77 552.86C1664.78 554.16 1661.36 554.407 1661.37 555.49L1657.94 555.736C1657.93 554.436 1654.51 554.9 1654.49 553.6C1654.48 552.3 1657.91 552.053 1657.9 550.97L1661.32 550.723Z" fill="#A0A1A2"/>
<path d="M1661.28 545.957C1661.29 547.257 1664.72 546.794 1664.73 548.093C1664.74 549.393 1661.32 549.64 1661.32 550.723L1657.9 550.97C1657.89 549.67 1654.46 550.133 1654.45 548.833C1654.44 547.533 1657.87 547.287 1657.86 546.203L1661.28 545.957Z" fill="#A0A1A2"/>
<path d="M1661.24 540.974C1661.25 542.274 1664.67 541.81 1664.69 543.11C1664.7 544.41 1661.27 544.657 1661.28 545.74L1657.86 545.987C1657.84 544.687 1654.42 545.15 1654.41 543.85C1654.4 542.55 1657.82 542.303 1657.81 541.22L1661.24 540.974Z" fill="#A0A1A2"/>
<path d="M1661.37 555.706L1661.41 560.04L1657.98 560.286L1657.95 555.953L1661.37 555.706Z" fill="#A0A1A2"/>
<path d="M1604.9 580.035C1603.84 579.395 1601.76 582.013 1600.44 581.591C1599.37 580.95 1601.2 578.334 1600.14 577.694L1602.22 575.075C1603.28 575.716 1605.37 573.098 1606.69 573.52C1607.75 574.16 1605.93 576.776 1606.99 577.417L1604.9 580.035Z" fill="#A0A1A2"/>
<path d="M1609.66 582.379C1608.6 581.738 1606.52 584.357 1605.2 583.935C1604.14 583.294 1605.96 580.678 1604.9 580.037L1606.98 577.419C1608.04 578.06 1610.13 575.442 1611.45 575.863C1612.51 576.504 1610.69 579.12 1611.75 579.761L1609.66 582.379Z" fill="#A0A1A2"/>
<path d="M1614.17 584.722C1613.11 584.081 1611.02 586.699 1609.7 586.277C1608.64 585.637 1610.46 583.021 1609.4 582.38L1611.49 579.761C1612.55 580.402 1614.63 577.784 1615.96 578.206C1617.02 578.846 1615.19 581.462 1616.25 582.103L1614.17 584.722Z" fill="#A0A1A2"/>
<path d="M1620.26 587.919L1614.17 584.722L1616.25 582.103L1620.23 584.235L1620.26 587.919Z" fill="#A0A1A2"/>
<path d="M1600.4 577.475L1531.01 541.679L1532.83 539.063L1602.22 574.859L1600.4 577.475Z" fill="#A0A1A2"/>
<path d="M1596.42 574.693L1522.65 580.753L1522.63 578.803L1596.4 572.743L1596.42 574.693Z" fill="#A0A1A2"/>
<path d="M1662.83 540.96L1620.14 544.366L1620.13 542.199L1662.81 538.793L1662.83 540.96Z" fill="#A0A1A2"/>
<path d="M1531.59 578.292L1540.53 545.279L1541.59 545.27L1532.65 578.283L1531.59 578.292Z" fill="#A0A1A2"/>
<path d="M1569.64 588.362C1569.63 587.712 1568.3 586.423 1566.19 586.225L1536.38 583.885C1533.48 583.694 1530.83 581.983 1530.81 579.817L1533.44 579.577C1533.45 580.227 1534.78 581.516 1536.89 581.714L1566.7 584.054C1569.6 584.245 1572.26 585.955 1572.27 588.122L1569.64 588.362Z" fill="#A0A1A2"/>
<path d="M1628.79 507.674L1629.57 507.017L1661.76 539.671L1660.97 540.328L1628.79 507.674Z" fill="#A0A1A2"/>
<path d="M1623.61 670.008L1623.46 712.478L1630.84 712.413L1629.94 669.953L1623.61 670.008Z" fill="white"/>
<path d="M1633.44 586.937L1620.26 587.918L1620.23 584.235L1633.4 583.254L1633.44 586.937Z" fill="#A0A1A2"/>
<path d="M1382.51 714.582L1367.75 714.711L1369.03 529.008L1377.73 528.932L1382.51 714.582Z" fill="#A0A1A2"/>
<path d="M1395.63 557.163C1396.95 557.151 1396.97 559.751 1398.29 559.74C1399.61 559.728 1399.58 556.911 1400.9 556.9L1400.88 554.3C1399.56 554.312 1399.54 551.712 1398.22 551.723C1396.9 551.735 1396.93 554.551 1395.61 554.563L1395.63 557.163Z" fill="#A0A1A2"/>
<path d="M1390.62 557.638C1391.94 557.626 1391.97 560.226 1393.28 560.214C1394.6 560.203 1394.58 557.386 1395.89 557.375L1395.87 554.775C1394.55 554.787 1394.53 552.187 1393.21 552.198C1391.9 552.21 1391.92 555.026 1390.6 555.038L1390.62 557.638Z" fill="#A0A1A2"/>
<path d="M1385.35 557.898C1386.67 557.887 1386.7 560.487 1388.01 560.475C1389.33 560.464 1389.31 557.647 1390.63 557.635L1390.6 555.036C1389.28 555.047 1389.26 552.447 1387.94 552.459C1386.63 552.47 1386.65 555.287 1385.33 555.298L1385.35 557.898Z" fill="#A0A1A2"/>
<path d="M1367.97 559.35L1385.35 557.898L1385.33 555.298L1367.94 556.75L1367.97 559.35Z" fill="#A0A1A2"/>
<path d="M1400.64 556.683L1449.64 552.789L1449.62 550.189L1400.62 554.084L1400.64 556.683Z" fill="#A0A1A2"/>
<path d="M1342.26 574.957C1342.27 576.041 1339.11 576.285 1339.12 577.368C1339.13 578.451 1342.29 578.207 1342.3 579.291L1345.46 579.046C1345.45 577.963 1348.62 577.719 1348.61 576.635C1348.6 575.552 1345.44 575.796 1345.43 574.713L1342.26 574.957Z" fill="#A0A1A2"/>
<path d="M1342.23 570.626C1342.24 571.709 1339.07 571.953 1339.08 573.036C1339.09 574.12 1342.26 573.876 1342.26 574.959L1345.43 574.715C1345.42 573.631 1348.58 573.387 1348.57 572.304C1348.56 571.22 1345.4 571.465 1345.39 570.381L1342.23 570.626Z" fill="#A0A1A2"/>
<path d="M1342.19 566.292C1342.2 567.376 1339.04 567.62 1339.05 568.703C1339.06 569.787 1342.22 569.542 1342.23 570.626L1345.39 570.381C1345.38 569.298 1348.54 569.054 1348.53 567.97C1348.52 566.887 1345.36 567.131 1345.35 566.048L1342.19 566.292Z" fill="#A0A1A2"/>
<path d="M1342.31 579.29L1342.34 583.19L1345.5 582.945L1345.47 579.045L1342.31 579.29Z" fill="#A0A1A2"/>
<path d="M1393.31 592.934C1394.36 592.274 1396.22 594.208 1397.27 593.549C1398.32 592.89 1396.45 590.739 1397.5 590.08L1395.64 587.93C1394.59 588.589 1392.73 586.655 1391.68 587.314C1390.63 587.973 1392.49 590.124 1391.45 590.783L1393.31 592.934Z" fill="#A0A1A2"/>
<path d="M1389.11 595.787C1390.16 595.128 1392.03 597.062 1393.07 596.402C1394.12 595.743 1392.26 593.593 1393.31 592.934L1391.44 590.783C1390.4 591.442 1388.53 589.508 1387.48 590.168C1386.44 590.827 1388.3 592.977 1387.25 593.636L1389.11 595.787Z" fill="#A0A1A2"/>
<path d="M1384.92 598.64C1385.97 597.981 1387.83 599.915 1388.88 599.256C1389.93 598.597 1388.07 596.446 1389.12 595.787L1387.25 593.636C1386.2 594.296 1384.34 592.362 1383.29 593.021C1382.24 593.68 1384.11 595.831 1383.06 596.49L1384.92 598.64Z" fill="#A0A1A2"/>
<path d="M1379.68 602.367L1384.92 598.638L1383.06 596.704L1379.66 599.117L1379.68 602.367Z" fill="#A0A1A2"/>
<path d="M1397.5 590.078L1458.83 547.941L1456.97 546.007L1395.64 588.144L1397.5 590.078Z" fill="#A0A1A2"/>
<path d="M1400.9 587.018L1466.77 581.676L1466.75 579.943L1400.89 585.284L1400.9 587.018Z" fill="#A0A1A2"/>
<path d="M1341.14 566.303L1379.34 563.37L1379.32 561.42L1341.12 564.57L1341.14 566.303Z" fill="#A0A1A2"/>
<path d="M1458.85 580.879L1450.17 552.57L1449.38 553.01L1457.8 581.105L1458.85 580.879Z" fill="#A0A1A2"/>
<path d="M1424.96 595.471C1424.96 594.821 1426.26 593.51 1428.11 593.06L1454.68 586.545C1457.31 585.872 1459.66 584.118 1459.65 581.951L1457.27 582.189C1457.28 582.839 1455.97 584.15 1454.13 584.6L1427.56 591.115C1424.93 591.788 1422.57 593.542 1422.59 595.709L1424.96 595.471Z" fill="#A0A1A2"/>
<path d="M1370.89 531.807L1370.09 531.381L1341.92 565.211L1342.71 565.638L1370.89 531.807Z" fill="#A0A1A2"/>
<path d="M1378.21 676.486L1378.81 714.616L1371.95 714.675L1372.41 676.536L1378.21 676.486Z" fill="white"/>
<path d="M1367.82 603.339L1379.68 602.368L1379.65 599.119L1367.8 600.089L1367.82 603.339Z" fill="#A0A1A2"/>
<path d="M1378.59 657.849C1378.59 658.066 1378.33 658.501 1377.8 658.506L1373.06 658.548C1372.79 658.55 1372.26 658.338 1372.26 657.904L1372.23 654.005C1372.22 653.788 1372.48 653.352 1373.01 653.348L1377.76 653.306C1378.02 653.304 1378.55 653.516 1378.55 653.949L1378.59 657.849Z" fill="white"/>
<path d="M1629.5 649.159C1629.5 649.375 1629.24 649.811 1628.71 649.815L1623.44 649.861C1623.18 649.864 1622.65 649.652 1622.64 649.218L1622.61 644.885C1622.6 644.669 1622.86 644.233 1623.39 644.228L1628.66 644.182C1628.93 644.18 1629.46 644.392 1629.46 644.825L1629.5 649.159Z" fill="white"/>
<path d="M1417.57 714.274L1438.14 714.094L1431.66 455.006L1419.53 455.112L1417.57 714.274Z" fill="#A0A1A2"/>
<path d="M1395.39 499.091C1393.55 499.324 1393.58 503.007 1392 503.238C1390.16 503.47 1390.12 499.571 1388.54 499.801L1388.51 496.118C1390.35 495.885 1390.32 492.202 1391.9 491.971C1393.74 491.739 1393.78 495.639 1395.36 495.408L1395.39 499.091Z" fill="#A0A1A2"/>
<path d="M1402.51 498.598C1400.67 498.83 1400.7 502.514 1399.12 502.744C1397.28 502.977 1397.24 499.077 1395.66 499.307L1395.63 495.624C1397.48 495.391 1397.44 491.708 1399.02 491.478C1400.87 491.245 1400.9 495.145 1402.48 494.914L1402.51 498.598Z" fill="#A0A1A2"/>
<path d="M1409.63 498.1C1407.78 498.333 1407.82 502.016 1406.24 502.247C1404.39 502.48 1404.36 498.58 1402.78 498.81L1402.75 495.127C1404.59 494.894 1404.56 491.211 1406.14 490.981C1407.98 490.748 1408.01 494.648 1409.59 494.417L1409.63 498.1Z" fill="#A0A1A2"/>
<path d="M1433.86 496.155L1409.62 498.1L1409.59 494.201L1433.83 492.256L1433.86 496.155Z" fill="#A0A1A2"/>
<path d="M1388.28 499.805L1319.78 505.17L1319.75 501.486L1388.25 495.905L1388.28 499.805Z" fill="#A0A1A2"/>
<path d="M1470.12 512.088C1470.13 513.605 1474.61 513.349 1474.62 514.866C1474.64 516.382 1470.16 516.638 1470.17 518.371L1465.69 518.627C1465.68 517.11 1461.2 517.366 1461.19 515.85C1461.17 514.333 1465.65 514.077 1465.64 512.344L1470.12 512.088Z" fill="#A0A1A2"/>
<path d="M1470.07 506.023C1470.08 507.54 1474.56 507.284 1474.57 508.801C1474.59 510.317 1470.11 510.79 1470.12 512.306L1465.64 512.562C1465.63 511.046 1461.15 511.301 1461.13 509.785C1461.12 508.268 1465.6 507.796 1465.59 506.279L1470.07 506.023Z" fill="#A0A1A2"/>
<path d="M1470.01 499.955C1470.03 501.472 1474.51 501.216 1474.52 502.733C1474.53 504.249 1470.05 504.505 1470.07 506.238L1465.59 506.494C1465.57 504.977 1461.09 505.233 1461.08 503.717C1461.07 502.2 1465.55 501.944 1465.53 500.211L1470.01 499.955Z" fill="#A0A1A2"/>
<path d="M1470.17 518.155L1470.22 523.571L1465.74 523.827L1465.69 518.41L1470.17 518.155Z" fill="#A0A1A2"/>
<path d="M1399.52 548.674C1397.93 547.821 1395.59 551.309 1394 550.456C1392.41 549.603 1395.02 546.33 1393.69 545.692L1396.04 542.421C1397.63 543.274 1399.97 539.786 1401.56 540.639C1402.88 541.494 1400.54 544.765 1401.86 545.404L1399.52 548.674Z" fill="#A0A1A2"/>
<path d="M1405.34 551.657C1403.75 550.804 1401.41 554.291 1399.82 553.438C1398.23 552.586 1400.84 549.313 1399.51 548.674L1401.86 545.404C1403.45 546.256 1405.79 542.769 1407.38 543.622C1408.97 544.475 1406.36 547.748 1407.68 548.386L1405.34 551.657Z" fill="#A0A1A2"/>
<path d="M1411.17 554.642C1409.84 553.787 1407.24 557.276 1405.65 556.423C1404.06 555.57 1406.67 552.298 1405.34 551.659L1407.69 548.388C1409.27 549.241 1411.62 545.754 1413.21 546.607C1414.53 547.462 1412.19 550.733 1413.51 551.371L1411.17 554.642Z" fill="#A0A1A2"/>
<path d="M1418.59 558.475L1411.17 554.639L1413.52 551.369L1418.81 553.923L1418.59 558.475Z" fill="#A0A1A2"/>
<path d="M1393.69 545.475L1307.09 500.729L1309.43 497.458L1396.03 542.204L1393.69 545.475Z" fill="#A0A1A2"/>
<path d="M1388.91 542.05L1296.44 549.574L1296.42 546.974L1388.89 539.667L1388.91 542.05Z" fill="#A0A1A2"/>
<path d="M1471.59 499.725L1418.38 504.089L1418.35 501.489L1471.57 497.125L1471.59 499.725Z" fill="#A0A1A2"/>
<path d="M1307.75 546.442L1318.99 505.175L1320.31 505.38L1309.07 546.43L1307.75 546.442Z" fill="#A0A1A2"/>
<path d="M1355.32 559.244C1355.58 558.375 1353.45 556.66 1351.08 556.681L1313.88 553.538C1310.18 553.137 1307 551.215 1306.72 548.401L1310.14 548.154C1309.88 549.023 1312.01 550.738 1314.38 550.717L1351.58 553.859C1355.28 554.261 1358.46 556.183 1358.75 558.997L1355.32 559.244Z" fill="#A0A1A2"/>
<path d="M1429.31 458.275L1430.35 457.399L1470.52 498.217L1469.47 499.093L1429.31 458.275Z" fill="#A0A1A2"/>
<path d="M1422.65 661.144L1422.58 714.23L1431.81 714.15L1430.82 661.073L1422.65 661.144Z" fill="white"/>
<path d="M1435.19 557.247L1418.59 558.475L1418.81 553.923L1435.15 552.697L1435.19 557.247Z" fill="#A0A1A2"/>
<path d="M1121.26 716.858L1102.81 717.019L1104.47 484.944L1115.55 484.847L1121.26 716.858Z" fill="#A0A1A2"/>
<path d="M1137.74 519.974C1139.32 519.743 1139.35 523.21 1140.93 523.196C1142.51 522.966 1142.48 519.716 1144.06 519.485L1144.03 516.236C1142.45 516.466 1142.42 512.999 1140.84 513.013C1139.26 513.244 1139.29 516.494 1137.71 516.724L1137.74 519.974Z" fill="#A0A1A2"/>
<path d="M1131.41 520.675C1132.99 520.444 1133.02 523.911 1134.6 523.897C1136.18 523.667 1136.15 520.417 1137.73 520.186L1137.71 516.937C1136.13 517.167 1136.09 513.7 1134.51 513.714C1132.93 513.945 1132.96 517.195 1131.38 517.425L1131.41 520.675Z" fill="#A0A1A2"/>
<path d="M1125.09 521.166C1126.67 520.935 1126.7 524.402 1128.28 524.388C1129.86 524.157 1129.83 520.907 1131.41 520.677L1131.38 517.427C1129.8 517.658 1129.77 514.191 1128.19 514.205C1126.61 514.435 1126.64 517.685 1125.06 517.916L1125.09 521.166Z" fill="#A0A1A2"/>
<path d="M1103.48 522.871L1125.09 521.166L1125.06 517.699L1103.45 519.404L1103.48 522.871Z" fill="#A0A1A2"/>
<path d="M1144.06 519.483L1205.44 514.614L1205.42 511.364L1144.03 516.233L1144.06 519.483Z" fill="#A0A1A2"/>
<path d="M1071.22 542.436C1071.24 543.736 1067.29 544.204 1067.3 545.504C1067.31 546.804 1071.26 546.553 1071.27 547.853L1075.22 547.602C1075.21 546.302 1079.16 545.834 1079.15 544.534C1079.14 543.234 1075.19 543.485 1075.18 542.185L1071.22 542.436Z" fill="#A0A1A2"/>
<path d="M1071.18 537.019C1071.19 538.319 1067.24 538.786 1067.25 540.086C1067.26 541.386 1071.21 541.135 1071.22 542.435L1075.18 542.184C1075.17 540.884 1079.12 540.416 1079.1 539.116C1079.09 537.816 1075.14 538.067 1075.13 536.768L1071.18 537.019Z" fill="#A0A1A2"/>
<path d="M1071.13 531.385C1071.14 532.685 1067.19 533.153 1067.2 534.453C1067.21 535.753 1071.17 535.502 1071.18 536.802L1075.13 536.551C1075.12 535.251 1079.07 534.783 1079.06 533.483C1079.05 532.183 1075.09 532.434 1075.08 531.134L1071.13 531.385Z" fill="#A0A1A2"/>
<path d="M1071.28 547.85L1071.32 552.616L1075.27 552.365L1075.23 547.599L1071.28 547.85Z" fill="#A0A1A2"/>
<path d="M1134.95 564.844C1136.27 563.966 1138.66 566.545 1139.71 565.669C1141.02 564.791 1138.62 562.212 1139.93 561.334L1137.8 558.752C1136.49 559.63 1134.1 557.051 1133.05 557.927C1131.74 558.805 1134.13 561.384 1132.82 562.262L1134.95 564.844Z" fill="#A0A1A2"/>
<path d="M1129.71 568.357C1131.02 567.479 1133.42 570.058 1134.47 569.182C1135.78 568.304 1133.38 565.725 1134.69 564.846L1132.56 562.265C1131.25 563.143 1128.85 560.564 1127.81 561.44C1126.5 562.318 1128.89 564.897 1127.58 565.775L1129.71 568.357Z" fill="#A0A1A2"/>
<path d="M1124.47 571.87C1125.78 570.992 1128.17 573.571 1129.22 572.695C1130.53 571.817 1128.14 569.238 1129.45 568.359L1127.32 565.778C1126 566.656 1123.61 564.077 1122.56 564.953C1121.25 565.831 1123.65 568.41 1122.34 569.288L1124.47 571.87Z" fill="#A0A1A2"/>
<path d="M1117.92 576.48L1124.47 571.873L1122.34 569.291L1117.62 572.366L1117.92 576.48Z" fill="#A0A1A2"/>
<path d="M1139.93 561.336L1216.72 508.663L1214.59 506.082L1137.8 558.754L1139.93 561.336Z" fill="#A0A1A2"/>
<path d="M1144.39 557.615L1226.85 550.829L1226.83 548.662L1144.36 555.232L1144.39 557.615Z" fill="#A0A1A2"/>
<path d="M1069.55 531.617L1117.23 527.734L1117.22 525.568L1069.53 529.234L1069.55 531.617Z" fill="#A0A1A2"/>
<path d="M1216.82 549.616L1205.97 514.393L1204.92 514.835L1215.51 549.844L1216.82 549.616Z" fill="#A0A1A2"/>
<path d="M1174.53 567.967C1174.53 567.101 1176.09 565.57 1178.2 564.902L1211.35 556.812C1214.77 555.916 1217.38 553.726 1217.62 551.124L1214.46 551.368C1214.47 552.235 1212.9 553.765 1210.8 554.434L1177.65 562.523C1174.23 563.42 1171.61 565.609 1171.37 568.212L1174.53 567.967Z" fill="#A0A1A2"/>
<path d="M1106.88 488.39L1105.82 487.749L1070.6 530.092L1071.66 530.732L1106.88 488.39Z" fill="#A0A1A2"/>
<path d="M1115.83 669.236L1116.77 716.897L1108.34 716.97L1108.71 669.298L1115.83 669.236Z" fill="white"/>
<path d="M1103.17 577.691L1117.93 576.478L1117.63 572.364L1103.14 573.574L1103.17 577.691Z" fill="#A0A1A2"/>
<path d="M1116.42 645.834C1116.42 646.267 1116.16 646.486 1115.63 646.491L1109.83 646.541C1109.31 646.546 1109.04 646.332 1109.04 645.898L1108.99 641.132C1108.99 640.699 1109.25 640.48 1109.78 640.475L1115.58 640.424C1116.11 640.42 1116.37 640.634 1116.38 641.067L1116.42 645.834Z" fill="white"/>
<path d="M1430.06 635.077C1430.07 635.51 1429.8 635.729 1429.28 635.734L1422.69 635.791C1422.16 635.796 1421.89 635.581 1421.89 635.148L1421.84 629.732C1421.84 629.298 1422.1 629.079 1422.63 629.075L1429.22 629.017C1429.74 629.013 1430.01 629.227 1430.01 629.66L1430.06 635.077Z" fill="white"/>
<path d="M1735.11 606.419L1456.83 590.647C1410.4 587.368 1363.99 586.69 1317.81 581.459L1179.52 565.982L1110.38 558.352L1075.81 554.537C1063.93 552.907 1053.61 548.88 1042.25 546.162L909.854 510.266L645.057 438.474L646.346 435.212L910.886 507.657L1043.02 543.772C1054.12 546.492 1065.23 550.512 1076.05 552.151L1110.62 556.183L1179.77 564.03L1318.05 579.724C1363.98 585.173 1410.65 585.849 1457.08 589.344L1735.37 605.767L1735.11 606.419Z" fill="#A0A1A2"/>
<path d="M1796.62 616.499L1546.31 603.083C1504.63 600.846 1462.96 598.61 1421.02 596.376L1296.73 582.943L1172.43 569.511C1132.26 558.161 1093.66 546.364 1054.02 534.792L817.976 465.132L819.529 461.869L1055.31 532.181C1094.43 543.757 1134.08 555.761 1172.94 567.123L1297.24 580.989L1421.53 594.855C1463.21 597.308 1504.89 599.544 1546.56 601.997L1796.88 616.063L1796.62 616.499Z" fill="#A0A1A2"/>
<path d="M1825.82 578.539L1580.18 557.498L1457.24 547.087C1416.58 540.509 1376.45 533.925 1336.05 527.344L1214.87 507.601C1178.07 491.021 1142.87 474.428 1106.86 457.624L891.914 357.879L893.997 354.827L1108.42 455.227C1143.9 471.818 1180.17 489.053 1215.37 505.213L1336.3 525.392C1376.69 531.973 1417.09 538.771 1457.22 545.354L1579.91 556.201L1825.55 577.891L1825.82 578.539Z" fill="#A0A1A2"/>
<path d="M1876.67 604.746L1681.23 594.968L1583.64 590.186C1550.93 588.088 1519.24 582.081 1486.77 578.247L1390.17 565.223L1366.15 561.966C1361.92 561.136 1358.5 561.383 1353.74 559.908L1343.41 554.581L1301.83 533.493L1135.27 449.359L1137.61 446.305L1303.66 531.093L1345.23 552.181L1355.56 557.508C1358.21 558.352 1363.22 558.741 1366.92 559.359L1390.94 562.616L1487.28 575.86C1519.48 579.695 1551.43 585.917 1583.88 588.017L1681.47 593.232L1876.66 603.663L1876.67 604.746Z" fill="#A0A1A2"/>
<path d="M1883.51 573.269L1659.77 553.771L1547.9 543.913C1510.44 540.34 1474.5 531.553 1437.54 525.592L1327.69 505.75C1318.7 503.011 1308.96 504.613 1300.74 498.618L1278.21 484.947L1232.62 457.611L1051.34 348.471L1053.95 345.631L1234.71 455.426L1280.04 482.765L1302.56 496.435C1308.41 501.801 1320 500.833 1328.2 503.362L1438.05 523.637C1474.75 529.601 1510.95 538.602 1547.89 542.396L1659.76 552.471L1883.51 572.619L1883.51 573.269Z" fill="#A0A1A2"/>
<path d="M1985.15 588.202C1925.02 586.344 1864.89 584.485 1804.5 582.412L1715.54 569.538C1686.5 564.808 1654.07 564.224 1630.72 547.094L1325.88 388.547L1328.23 385.709L1632.02 545.565C1655.64 562.693 1686.22 562.86 1716.06 568.016L1805.02 581.107C1864.89 583.402 1925.28 585.258 1985.41 587.55L1985.15 588.202Z" fill="#A0A1A2"/>
<path d="M2671.84 694.249L605.938 712.278L606.027 722.488L2671.93 704.459L2671.84 694.249Z" fill="#A0A1A2"/>
<path d="M1243.58 715.795L1279.16 715.484L1268.08 261.211L1246.73 261.397L1243.58 715.795Z" fill="#A0A1A2"/>
<path d="M1205.28 344.31C1202.11 344.555 1202.17 351.054 1199.27 351.296C1196.11 351.541 1196.05 345.041 1193.16 345.283L1193.1 338.783C1196.26 338.539 1196.2 332.039 1199.1 331.797C1202.26 331.553 1202.32 338.053 1205.22 337.811L1205.28 344.31Z" fill="#A0A1A2"/>
<path d="M1217.66 343.338C1214.49 343.582 1214.55 350.082 1211.65 350.324C1208.49 350.568 1208.44 344.068 1205.54 344.31L1205.48 337.81C1208.64 337.566 1208.59 331.066 1211.48 330.824C1214.64 330.58 1214.7 337.08 1217.6 336.838L1217.66 343.338Z" fill="#A0A1A2"/>
<path d="M1229.78 342.365C1226.62 342.609 1226.67 349.109 1223.77 349.351C1220.61 349.596 1220.56 343.096 1217.66 343.338L1217.6 336.838C1220.76 336.594 1220.71 330.094 1223.6 329.852C1226.77 329.608 1226.82 336.107 1229.72 335.865L1229.78 342.365Z" fill="#A0A1A2"/>
<path d="M1271.67 338.964L1229.78 342.363L1229.72 335.863L1271.61 332.464L1271.67 338.964Z" fill="#A0A1A2"/>
<path d="M1193.16 345.283L1074.6 354.984L1074.55 348.485L1193.1 338.783L1193.16 345.283Z" fill="#A0A1A2"/>
<path d="M1334.39 366.587C1334.41 369.187 1342.05 368.687 1342.07 371.287C1342.1 373.887 1334.46 374.603 1334.48 377.203L1326.84 377.703C1326.82 375.103 1319.17 375.603 1319.15 373.003C1319.13 370.403 1326.77 369.687 1326.75 367.087L1334.39 366.587Z" fill="#A0A1A2"/>
<path d="M1334.3 356.187C1334.32 358.787 1341.96 358.287 1341.98 360.887C1342.01 363.487 1334.37 364.204 1334.39 366.804L1326.75 367.52C1326.73 364.92 1319.09 365.42 1319.06 362.82C1319.04 360.22 1326.68 359.504 1326.66 356.904L1334.3 356.187Z" fill="#A0A1A2"/>
<path d="M1334.2 345.571C1334.23 348.171 1341.87 347.671 1341.89 350.271C1341.91 352.871 1334.27 353.587 1334.3 356.187L1326.66 356.904C1326.63 354.304 1318.99 354.804 1318.97 352.204C1318.95 349.604 1326.59 348.888 1326.56 346.288L1334.2 345.571Z" fill="#A0A1A2"/>
<path d="M1334.49 377.203L1334.57 386.519L1326.93 387.02L1326.84 377.703L1334.49 377.203Z" fill="#A0A1A2"/>
<path d="M1212.34 429.623C1209.69 428.346 1205.52 434.016 1202.88 432.739C1200.23 431.462 1204.66 425.79 1202.28 424.294L1206.44 418.624C1209.09 419.901 1213.26 414.231 1215.91 415.508C1218.29 416.787 1214.12 422.457 1216.51 423.953L1212.34 429.623Z" fill="#A0A1A2"/>
<path d="M1222.67 434.946C1220.03 433.67 1215.86 439.339 1213.21 438.063C1210.56 436.786 1214.99 431.113 1212.61 429.617L1216.78 423.947C1219.43 425.224 1223.59 419.554 1226.24 420.831C1228.89 422.108 1224.46 427.781 1226.84 429.277L1222.67 434.946Z" fill="#A0A1A2"/>
<path d="M1232.74 440.06C1230.09 438.783 1225.92 444.453 1223.28 443.177C1220.63 441.9 1225.06 436.227 1222.67 434.731L1226.84 429.061C1229.49 430.338 1233.66 424.668 1236.31 425.945C1238.69 427.225 1234.52 432.895 1236.91 434.39L1232.74 440.06Z" fill="#A0A1A2"/>
<path d="M1245.45 446.883L1232.73 440.061L1236.9 434.607L1245.64 439.081L1245.45 446.883Z" fill="#A0A1A2"/>
<path d="M1202.28 424.509L1052.64 346.945L1057.08 341.272L1206.71 418.837L1202.28 424.509Z" fill="#A0A1A2"/>
<path d="M1194.05 418.516L1034.66 431.391L1034.62 427.058L1194.01 414.183L1194.05 418.516Z" fill="#A0A1A2"/>
<path d="M1337.1 345.328L1244.89 352.849L1244.85 348.299L1337.06 340.994L1337.1 345.328Z" fill="#A0A1A2"/>
<path d="M1053.87 425.806L1073.55 354.781L1075.92 354.977L1056.24 426.219L1053.87 425.806Z" fill="#A0A1A2"/>
<path d="M1136.31 448.054C1136.56 446.535 1133.37 443.746 1128.89 443.569L1064.51 438.28C1058.18 437.685 1052.61 434.484 1052.3 429.286L1058.1 428.802C1057.85 430.321 1061.04 433.11 1065.52 433.288L1129.9 438.576C1136.23 439.171 1141.79 442.373 1142.1 447.57L1136.31 448.054Z" fill="#A0A1A2"/>
<path d="M1263.71 273.601L1265.81 272.282L1334.97 342.965L1333.14 344.281L1263.71 273.601Z" fill="#A0A1A2"/>
<path d="M1252.53 623.845L1252.54 715.715L1268.36 715.577L1266.51 623.723L1252.53 623.845Z" fill="white"/>
<path d="M1274.17 444.68L1245.45 446.881L1245.64 439.079L1274.1 436.664L1274.17 444.68Z" fill="#A0A1A2"/>
<path d="M732.15 720.256L700.252 720.534L703.083 319.875L722.327 319.707L732.15 720.256Z" fill="#A0A1A2"/>
<path d="M760.554 380.479C763.189 380.239 763.24 386.089 766.138 385.847C768.772 385.607 768.721 379.757 771.619 379.515L771.568 373.666C768.933 373.905 768.882 368.055 765.984 368.297C763.35 368.537 763.401 374.387 760.503 374.629L760.554 380.479Z" fill="#A0A1A2"/>
<path d="M749.492 381.442C752.126 381.202 752.177 387.052 755.075 386.81C757.709 386.57 757.658 380.721 760.556 380.479L760.505 374.629C757.871 374.869 757.82 369.019 754.922 369.261C752.288 369.5 752.339 375.35 749.441 375.592L749.492 381.442Z" fill="#A0A1A2"/>
<path d="M738.69 382.186C741.324 381.947 741.375 387.796 744.273 387.554C746.908 387.315 746.857 381.465 749.755 381.223L749.704 375.373C747.069 375.613 747.018 369.763 744.12 370.005C741.486 370.245 741.537 376.094 738.639 376.336L738.69 382.186Z" fill="#A0A1A2"/>
<path d="M701.016 385.33L738.69 382.184L738.641 376.551L700.965 379.48L701.016 385.33Z" fill="#A0A1A2"/>
<path d="M771.356 379.518L877.531 371.007L877.48 365.158L771.307 373.885L771.356 379.518Z" fill="#A0A1A2"/>
<path d="M645.683 418.965C645.704 421.348 638.854 421.842 638.874 424.225C638.895 426.608 645.746 426.115 645.764 428.282L652.615 427.788C652.594 425.405 659.445 424.912 659.424 422.529C659.403 420.146 652.553 420.639 652.534 418.472L645.683 418.965Z" fill="#A0A1A2"/>
<path d="M645.602 409.651C645.623 412.034 638.773 412.527 638.793 414.911C638.814 417.294 645.664 416.801 645.683 418.967L652.534 418.474C652.513 416.091 659.363 415.598 659.343 413.214C659.322 410.831 652.472 411.324 652.453 409.158L645.602 409.651Z" fill="#A0A1A2"/>
<path d="M645.52 400.116C645.541 402.499 638.69 402.992 638.711 405.375C638.732 407.759 645.582 407.266 645.601 409.432L652.452 408.939C652.431 406.556 659.281 406.063 659.261 403.679C659.24 401.296 652.389 401.789 652.371 399.623L645.52 400.116Z" fill="#A0A1A2"/>
<path d="M645.767 428.498L645.839 436.731L652.426 436.241L652.352 427.791L645.767 428.498Z" fill="#A0A1A2"/>
<path d="M755.437 457.875C757.796 456.337 761.527 460.855 763.886 459.318C766.245 457.78 762.251 453.265 764.347 451.73L760.353 447.215C758.257 448.75 754.263 444.234 751.904 445.772C749.544 447.309 753.538 451.824 751.443 453.359L755.437 457.875Z" fill="#A0A1A2"/>
<path d="M746.525 463.803C748.884 462.265 752.615 466.783 754.974 465.246C757.333 463.708 753.339 459.193 755.435 457.658L751.441 453.143C749.081 454.68 745.351 450.162 742.992 451.7C740.632 453.237 744.626 457.752 742.531 459.287L746.525 463.803Z" fill="#A0A1A2"/>
<path d="M737.606 469.949C739.965 468.411 743.696 472.929 746.055 471.392C748.414 469.854 744.42 465.339 746.516 463.804L742.522 459.289C740.163 460.826 736.432 456.308 734.073 457.846C731.713 459.383 735.707 463.898 733.612 465.433L737.606 469.949Z" fill="#A0A1A2"/>
<path d="M726.079 477.847L737.61 469.946L733.881 465.645L726.018 470.914L726.079 477.847Z" fill="#A0A1A2"/>
<path d="M764.34 451.73L896.949 360.652L892.957 356.353L760.61 447.212L764.34 451.73Z" fill="#A0A1A2"/>
<path d="M771.671 445.167L914.464 433.521L914.43 429.621L771.637 441.268L771.671 445.167Z" fill="#A0A1A2"/>
<path d="M642.88 400.354L725.08 393.787L725.046 389.887L642.846 396.454L642.88 400.354Z" fill="#A0A1A2"/>
<path d="M897.046 431.506L878.588 370.782L876.483 371.233L894.941 431.958L897.046 431.506Z" fill="#A0A1A2"/>
<path d="M823.761 463.129C823.486 461.831 826.36 458.772 830.309 458.088L887.661 444.154C893.448 442.586 898.163 439.078 898.385 434.309L893.116 434.789C893.391 436.086 890.518 439.145 886.569 439.83L829.216 453.764C823.43 455.331 818.715 458.839 818.493 463.608L823.761 463.129Z" fill="#A0A1A2"/>
<path d="M707.084 325.691L705.494 324.838L644.44 397.957L646.293 398.808L707.084 325.691Z" fill="#A0A1A2"/>
<path d="M722.731 637.999L724.24 720.323L709.741 720.45L710.341 638.107L722.731 637.999Z" fill="white"/>
<path d="M700.527 480.021L726.081 477.848L726.021 470.915L700.464 472.872L700.527 480.021Z" fill="#A0A1A2"/>
<path d="M723.7 597.693C723.706 598.343 722.92 599 722.13 599.007L712.112 599.094C711.321 599.101 710.524 598.458 710.519 597.808L710.447 589.575C710.441 588.925 711.227 588.268 712.017 588.261L722.035 588.174C722.826 588.167 723.622 588.81 723.628 589.46L723.7 597.693Z" fill="white"/>
<path d="M1265.32 578.88C1265.33 579.53 1264.54 580.187 1263.75 580.194L1252.41 580.293C1251.62 580.3 1250.83 579.657 1250.82 579.007L1250.74 569.691C1250.73 569.041 1251.52 568.384 1252.31 568.377L1263.65 568.278C1264.44 568.271 1265.23 568.914 1265.24 569.564L1265.32 578.88Z" fill="white"/>
</g>
<defs>
<clipPath id="clip0">
<rect width="2500" height="960" fill="white"/>
</clipPath>
</defs>
</svg>
