<svg width="2500" height="960" fill="none" xmlns="http://www.w3.org/2000/svg"><g clip-path="url(#clip0)"><path d="M1464.5 755.5c599.45 131.587 1164.2 248 1543.5 437l395-162.5s-283.5-134.5-664.5-204.5-1274-70-1274-70z" fill="#E9E9E9"/><path d="M1064 738.5C1663.45 870.087 1943.7 991 2323 1180l395-162.5S2434.5 883 2053.5 813 1064 738.5 1064 738.5z" fill="#F2F4F7"/><path d="M2341.44 733.167h.21l2.79-.353c.22 0 .22-.176.22-.176v-.705l-3.44.881v.353h.22z" fill="#fff"/><path d="M2344.44 731.582l-15.43 3.172v.881l10.93-2.643v.353c0 .176.22.352.64.176l3.86-.529c.43 0 .65-.352.65-.529v-.705s-.22-.176-.65-.176zm.43 1.234s-.21 0 0 0l-.21.176-2.79.353h-.21v-.353l3.43-.881v.705h-.22zm-3.43-.002l3.43-.881-3.43.881zm-12.43.885h-1.29v44.936h1.29v-44.936zm126.51-165.298l12.22-3.701-12.22 3.701z" fill="#D6D6D6"/><path d="M2457.66 572.105c0 .176.43.352 1.08.176l9.22-1.762c.43-.177.64-.353.64-.705v-3.348l-10.94 3.7v1.939z" fill="#fff"/><path d="M2467.74 564.702l-12.22 3.7-36.45 10.75.21 4.229 34.1-11.807v1.234c0 .881.85 1.41 2.14 1.057l12.22-2.291c1.07-.176 2.15-1.233 2.15-2.467v-3.348c0-.705-1.08-1.41-2.15-1.057zm.86 5.11c0 .352-.21.705-.64.705l-9.22 1.762c-.65.176-1.08-.176-1.08-.176v-1.762l10.94-3.701v3.172zm-10.94.53l10.94-3.876-10.94 3.876z" fill="#D6D6D6"/><path d="M2364.6 568.932c0 .353.22.705.65.881h.21l10.51 1.939c.64.176 1.07-.177 1.07-.353v-1.41l-12.22-4.229v3.172h-.22z" fill="#fff"/><path d="M2416.28 579.328l-40.1-12.336-13.51-4.229c-1.28-.352-2.36.352-2.36 1.586v3.701c0 1.233 1.08 2.467 2.36 2.643l13.51 2.643c1.29.177 2.36-.352 2.36-1.233v-1.234l37.74 12.864v-4.405zm-39.24-7.754c0 .176-.43.353-1.07.353l-10.51-1.939h-.21c-.43-.176-.65-.529-.65-.881v-3.172l12.22 4.229v1.41h.22z" fill="#D6D6D6"/><path d="M2419.07 577.388c0-.176-.65-.353-1.29-.353-.86 0-1.29.177-1.29.353l-6.64 201.246h15.86l-6.64-201.246zm-44.39 41.058l9.44-2.82-9.44 2.82z" fill="#D6D6D6"/><path d="M2376.39 621.089s.22.352.86.176l7.08-1.41c.21-.176.43-.352.43-.528v-2.467l-8.37 2.819v1.41z" fill="#fff"/><path d="M2384.11 615.628l-9.22 2.819-27.87 8.283v3.172l25.94-8.987v1.057c0 .705.65 1.057 1.72.881l9.43-1.762c.86-.176 1.72-1.058 1.72-1.939v-2.467c0-.881-.86-1.41-1.72-1.057zm.65 3.701c0 .352-.22.528-.43.528l-7.08 1.41c-.43.176-.85-.176-.85-.176v-1.41l8.36-2.82v2.468zm-8.37.526l8.37-2.995-8.37 2.995z" fill="#D6D6D6"/><path d="M2305.64 618.801c0 .352.21.529.43.705l7.93 1.586c.43.176.86-.176.86-.176v-1.058l-9.44-3.172v2.115h.22z" fill="#fff"/><path d="M2344.88 626.554l-30.67-9.34-10.29-3.172c-1.07-.353-1.71.176-1.71 1.233v2.82c0 .881.85 1.938 1.71 2.115l10.29 1.938c1.08.176 1.72-.176 1.72-.881v-1.057l28.73 9.868.22-3.524zm-30.02-5.816c0 .177-.22.353-.86.177l-7.93-1.586c-.22-.177-.43-.353-.43-.705v-2.291l9.43 3.172-.21 1.233z" fill="#D6D6D6"/><path d="M2347.02 625.145c0-.176-.42-.352-1.07-.352-.64 0-1.07.176-1.07.352l-4.93 153.314h12.01l-4.94-153.314zm-49.1 28.723l7.29-2.115-7.29 2.115z" fill="#D6D6D6"/><path d="M2299.2 656.162s.22.176.65.176l5.57-1.058c.22 0 .43-.176.43-.528v-1.939l-6.43 2.291-.22 1.058z" fill="#fff"/><path d="M2305.2 651.755l-7.29 2.291-21.65 6.344v2.467l20.15-7.049v.705c0 .528.64.881 1.29.705l7.29-1.41c.64-.176 1.28-.705 1.28-1.41v-1.938c0-.529-.42-.882-1.07-.705zm.43 2.995c0 .177-.21.353-.43.529l-5.57 1.057c-.43 0-.65 0-.65-.176v-1.057l6.44-2.291v1.938h.21zm-6.43.178l6.44-2.115-6.44 2.115z" fill="#D6D6D6"/><path d="M2244.09 654.221c0 .176.22.352.43.529l6.22 1.233c.43 0 .65-.176.65-.176v-.881l-7.3-2.467v1.762z" fill="#fff"/><path d="M2274.54 660.39l-23.8-7.225-7.93-2.468c-.86-.176-1.29.177-1.29.882v2.114c0 .705.64 1.41 1.29 1.586l7.93 1.586c.86.177 1.29-.176 1.29-.705v-.705l22.3 7.578.21-2.643zm-23.16-4.582s-.21.176-.64.176l-6.22-1.233c-.21 0-.43-.177-.43-.529v-1.938l7.29 2.467v1.057z" fill="#D6D6D6"/><path d="M2276.26 659.157c0-.176-.43-.176-.86-.176s-.86.176-.86.176l-3.86 119.303h9.44l-3.86-119.303zm-46.74 11.454l6.22-1.763-6.22 1.763z" fill="#D6D6D6"/><path d="M2230.59 672.548s.21.176.42.176l4.72-.881c.22 0 .22-.176.22-.353v-1.586l-5.58 1.939v.705h.22z" fill="#fff"/><path d="M2235.73 668.845l-6.22 1.939-18.65 5.463v2.114l17.58-5.991v.705c0 .352.43.704 1.07.528l6.22-1.233c.65-.177 1.07-.705 1.07-1.234v-1.762c0-.529-.42-.881-1.07-.529zm.43 2.467c0 .177-.21.353-.21.353l-4.72.881c-.43 0-.43 0-.43-.176v-.881l5.58-1.939v1.762h-.22zm-5.57.355l5.57-1.939-5.57 1.939z" fill="#D6D6D6"/><path d="M2182.99 670.962c0 .176.21.352.43.352l5.36 1.058c.43 0 .64 0 .64-.177v-.705l-6.22-2.114v1.586h-.21z" fill="#fff"/><path d="M2209.36 676.248l-20.59-6.344-6.86-2.114c-.64-.176-1.28.176-1.28.705v1.938c0 .705.64 1.234 1.28 1.41l6.86 1.41c.65.176 1.29-.177 1.29-.705v-.705l19.3 6.52v-2.115zm-20.16-4.053s-.21.177-.64.177l-5.36-1.058c-.22 0-.43-.176-.43-.352v-1.586l6.22 2.114v.705h.21zm21.66 2.997c0-.176-.21-.176-.64-.176-.43 0-.65.176-.65.176l-3.43 103.267h8.15l-3.43-103.267zm-51.46 5.816l5.79-1.762-5.79 1.762z" fill="#D6D6D6"/><path d="M2160.47 682.594s.21.176.43.176l4.29-.881c.21 0 .21-.176.21-.353v-1.586l-5.14 1.763v.881h.21z" fill="#fff"/><path d="M2165.19 679.244l-5.57 1.762-16.94 4.935v1.938l15.86-5.463v.529c0 .352.43.705 1.08.529l5.79-1.058c.64-.176 1.07-.528 1.07-1.057v-1.586c-.43-.353-.86-.705-1.29-.529zm.43 2.291c0 .176 0 .353-.21.353l-4.29.881c-.22 0-.43 0-.43-.176v-.882l5.15-1.762v1.586h-.22zm-5.15.18l5.15-1.586-5.15 1.586z" fill="#D6D6D6"/><path d="M2117.16 681.182c0 .177.22.353.22.353l4.93.881c.21 0 .43 0 .43-.176v-.705l-5.79-1.939v1.586h.21z" fill="#fff"/><path d="M2141.17 685.942l-18.65-5.639-6.22-1.939c-.64-.176-1.07.177-1.07.705v1.763c0 .528.43 1.057 1.07 1.233l6.22 1.234c.64.176 1.07-.177 1.07-.529v-.529l17.58 5.992v-2.291zm-18.22-3.524s-.22.176-.43.176l-4.93-.881c-.22 0-.22-.177-.22-.353v-1.41l5.79 1.939v.529h-.21z" fill="#D6D6D6"/><path d="M2142.46 685.061c0-.176-.21-.176-.64-.176-.43 0-.65 0-.65.176l-3 93.398h7.29l-3-93.398zm-60.9 5.108v.176l5.36-1.586-5.36 1.41z" fill="#D6D6D6"/><path d="M2082.63 691.755s.22.176.43.176l3.86-.705c.22 0 .22-.176.22-.352v-1.41l-4.51 1.586v.705z" fill="#fff"/><path d="M2086.92 688.761l-5.14 1.586-15.44 4.582v1.762l14.37-4.934v.528c0 .353.42.529.85.529l5.15-1.057c.43-.177.86-.529.86-1.058v-1.409c.21-.529-.22-.705-.65-.529zm.22 2.115c0 .176 0 .352-.22.352l-3.86.705c-.21 0-.42 0-.42-.176v-.705l4.5-1.586v1.41zm-4.51.174l4.51-1.586-4.51 1.586z" fill="#D6D6D6"/><path d="M2043.62 690.52c0 .176 0 .352.21.352l4.29.881c.21 0 .43 0 .43-.176v-.705l-5.15-1.762v1.41h.22z" fill="#fff"/><path d="M2065.27 694.751l-16.94-5.111-5.79-1.762c-.64-.176-1.07.176-1.07.705v1.586c0 .528.43 1.057 1.07 1.057l5.79 1.057c.64.177 1.07-.176 1.07-.528v-.529l15.87 5.463v-1.938zm-16.51-3.172s-.22.176-.43.176l-4.29-.881c-.21 0-.21-.177-.21-.353v-1.233l5.14 1.762-.21.529z" fill="#D6D6D6"/><path d="M2066.34 694.047c0-.176-.22-.176-.65-.176-.21 0-.64 0-.64.176l-2.79 84.587h6.65l-2.57-84.587zm-76.12.704l4.72-1.586-4.72 1.586z" fill="#D6D6D6"/><path d="M1991.08 696.163s.21.176.43.176l3.64-.705c.22 0 .22-.176.22-.352v-1.234l-4.29 1.586v.529z" fill="#fff"/><path d="M1994.94 693.167l-4.93 1.41-14.58 4.229v1.763l13.72-4.758v.528c0 .353.43.529.86.529l4.93-.881c.43-.176.86-.529.86-1.057v-1.234c0-.352-.22-.705-.86-.529zm.43 1.939c0 .176 0 .176-.22.352l-3.64.705c-.22 0-.43 0-.43-.176v-.705l4.29-1.586v1.41zm-4.29.351l4.29-1.586-4.29 1.586z" fill="#D6D6D6"/><path d="M1953.99 694.931c0 .176 0 .353.21.353l4.08.881c.21 0 .43 0 .43-.177v-.528l-4.94-1.762v1.233h.22z" fill="#fff"/><path d="M1974.36 698.983l-16.09-4.935-5.36-1.586c-.43-.176-.85.177-.85.529v1.41c0 .529.42 1.057.85 1.057l5.36 1.058c.43.176.86-.177.86-.529v-.529l15.01 5.111.22-1.586zm-15.66-3.172s-.21.176-.43.176l-4.07-.881c-.21 0-.21-.176-.21-.353v-1.233l4.93 1.762-.22.529z" fill="#D6D6D6"/><path d="M1975.64 698.28c0-.177-.21-.176-.64-.176-.22 0-.65-.001-.65.176l-2.57 80.357h6.22l-2.36-80.357zm-91.77.523l4.51-1.41-4.51 1.41z" fill="#D6D6D6"/><path d="M1884.51 700.214s.22.176.43.176l3.43-.705c.22 0 .22-.176.22-.352v-1.234l-4.08 1.41v.705z" fill="#fff"/><path d="M1888.37 697.393l-4.71 1.41-13.94 4.053v1.586l12.86-4.405v.528c0 .353.43.529.86.353l4.72-.881c.43 0 .86-.529.86-.882v-1.233c.21-.353-.22-.705-.65-.529zm.43 1.939c0 .176 0 .176-.21.352l-3.43.705c-.22 0-.43 0-.43-.176v-.705l4.07-1.41v1.234zm-4.29.177l4.29-1.41-4.29 1.41z" fill="#D6D6D6"/><path d="M1849.35 698.979c0 .176 0 .353.21.353l3.86.705c.22 0 .43 0 .43-.177v-.528l-4.71-1.586v1.233h.21z" fill="#fff"/><path d="M1868.86 703.032l-15.22-4.581-5.15-1.587c-.43-.176-.85.177-.85.529v1.41c0 .529.42.881.85 1.057l5.15 1.058c.43.176.86-.177.86-.529v-.529l14.36 4.935v-1.763zm-14.79-2.995s-.22.176-.43.176l-3.86-.705c-.21 0-.21-.176-.21-.353v-1.233l4.71 1.586-.21.529zm15.87 2.29s-.22-.176-.43-.176c-.22 0-.43 0-.43.176l-2.57 76.305h6l-2.57-76.305zm-97.78.531l4.5-1.41-4.5 1.41z" fill="#D6D6D6"/><path d="M1773.02 704.091s.21.177.42.177l3.44-.705c.21 0 .21-.176.21-.353v-1.233l-3.86 1.41-.21.704z" fill="#fff"/><path d="M1776.66 701.448l-4.51 1.41-13.07 3.877v1.586l12.22-4.229v.528c0 .353.43.529.85.353l4.51-.881c.43 0 .86-.529.86-.882v-1.233c-.22-.353-.43-.529-.86-.529zm.21 1.939c0 .176 0 .176-.21.352l-3.43.705c-.22 0-.43 0-.43-.176v-.705l3.86-1.41v1.234h.21zm-3.85.177l3.86-1.409-3.86 1.409z" fill="#D6D6D6"/><path d="M1739.57 703.034c0 .177 0 .177.21.353l3.86.705c.21 0 .43 0 .43-.177v-.528l-4.5-1.586v1.233z" fill="#fff"/><path d="M1758.01 706.735l-14.37-4.406-4.93-1.409c-.43-.177-.86.176-.86.528v1.234c0 .528.43.881.86.881l4.93.881c.43.176.86-.176.86-.529v-.528l13.51 4.581v-1.233zm-14.16-2.82s-.21.177-.42.177l-3.86-.705c-.22 0-.22-.177-.22-.353v-1.057l4.5 1.586v.352zm15.23 2.116s-.22-.176-.43-.176c-.22 0-.43 0-.43.176l-2.36 72.428h5.79l-2.57-72.428zm-99.5 4.404l3.86-1.234-3.86 1.234z" fill="#D6D6D6"/><path d="M1660.23 711.496s.21.176.43 0l3-.529c.21 0 .21-.176.21-.176v-1.057l-3.64 1.233v.529z" fill="#fff"/><path d="M1663.44 709.203l-3.86 1.234-11.79 3.524v1.41l11.15-3.877v.353c0 .352.21.352.64.352l4.08-.705c.43 0 .64-.352.64-.705v-1.057c0-.529-.43-.705-.86-.529zm.43 1.586c0 .177 0 .177-.21.177l-3.01.528h-.42v-.528l3.64-1.234v1.057zm-3.64.178l3.64-1.233-3.64 1.233z" fill="#D6D6D6"/><path d="M1630.21 710.613c0 .176 0 .176.21.353l3.43.704c.22 0 .43 0 .43-.176v-.528l-4.07-1.41v1.057z" fill="#fff"/><path d="M1646.72 713.961l-13.08-4.053-4.29-1.41c-.43-.176-.86.177-.86.529v1.234c0 .352.43.705.86.881l4.29.881c.43 0 .86-.176.86-.353v-.528l12.22 4.229v-1.41zm-12.65-2.467s-.22.176-.43.176l-3.43-.704c-.22 0-.22-.177-.22-.353v-1.057l4.08 1.41v.528zm13.72 1.762s-.22-.176-.43-.176-.43 0-.43.176l-2.14 65.203h5.14l-2.14-65.203zm-95.2 1.938l3.86-1.058-3.86 1.058z" fill="#D6D6D6"/><path d="M1553.44 716.249s.22.177.22 0l2.79-.528c.21 0 .21-.177.21-.177v-.881l-3.22 1.058v.528z" fill="#fff"/><path d="M1556.45 714.136l-3.64 1.058-10.94 3.172v1.233l10.29-3.524v.352c0 .176.22.353.65.353l3.64-.705c.43 0 .64-.353.64-.705v-1.058c0-.176-.42-.352-.64-.176zm.22 1.41c0 .176 0 .176-.22.176l-2.79.529h-.21v-.529l3.22-1.057v.881zm-3.23.175l3.22-1.058-3.22 1.058z" fill="#D6D6D6"/><path d="M1525.35 715.37c0 .176 0 .176.22.176l3.22.529h.42v-.529l-3.64-1.234v1.058h-.22z" fill="#fff"/><path d="M1540.8 718.366l-12.01-3.701-4.07-1.234c-.43-.176-.65 0-.65.529v1.057c0 .353.22.705.65.881l4.07.705c.43 0 .64-.176.64-.352v-.353l11.37 3.877v-1.409zm-11.8-2.291s-.21.176-.42 0l-3.22-.529c-.21 0-.21-.176-.21-.176v-.881l3.64 1.233.21.353z" fill="#D6D6D6"/><path d="M1541.65 717.839s-.21-.177-.43-.177c-.21 0-.43 0-.43.177l-1.93 60.62h4.72l-1.93-60.62zm-108.92 3.699l3.43-1.057-3.43 1.057z" fill="#D6D6D6"/><path d="M1433.37 722.595s0 .176.22 0l2.57-.529.21-.176v-.881l-3 1.057v.529z" fill="#fff"/><path d="M1436.16 720.481l-3.22 1.057-9.86 2.996v1.233l9.22-3.172v.353c0 .176.21.352.64.352l3.43-.705c.22 0 .65-.352.65-.705v-.881c-.43-.352-.65-.528-.86-.528zm.21 1.409c0 .177 0 .177-.21.177l-2.58.528h-.21v-.528l3-1.058v.881zm-3 .176l3-1.057-3 1.057z" fill="#D6D6D6"/><path d="M1408.07 721.712c0 .177 0 .177.21.177l2.79.528h.22v-.352l-3.44-1.234v.881h.22z" fill="#fff"/><path d="M1422.22 724.532l-10.93-3.348-3.65-1.058c-.43-.176-.64 0-.64.353v1.057c0 .353.21.705.64.705l3.65.705c.43 0 .64 0 .64-.353v-.352l10.29 3.525v-1.234zm-10.72-2.115s-.21.176-.21 0l-2.79-.528c-.21 0-.21-.177-.21-.177v-.881l3.43 1.234-.22.352z" fill="#D6D6D6"/><path d="M1422.86 724.003s-.21-.176-.43-.176c-.21 0-.42 0-.42.176l-1.72 54.629h4.29l-1.72-54.629z" fill="#D6D6D6"/><path d="M1970.92 541.967c0 .176.65.352 1.72.352l15.01-2.114h.21c.65-.177.86-.529.86-.881v-3.701l-17.8 4.229v2.115z" fill="#fff"/><path d="M1987.44 533.684l-19.73 4.23-60.68 12.688v4.934l57.03-13.922v1.41c0 .881 1.5 1.586 3.43 1.234l19.95-2.644c1.93-.176 3.43-1.586 3.43-2.819v-3.701c0-1.233-1.5-1.938-3.43-1.41zm1.28 5.64c0 .352-.43.704-.86.881h-.21l-15.01 2.114c-1.07.177-1.72-.176-1.72-.352v-2.115l17.8-4.229v3.701zm-81.91 4.757h-6.86v234.553h6.86V544.081z" fill="#D6D6D6"/><path d="M1962.13 615.626c0 .176.43.353 1.07.176l10.29-1.409h.22c.43-.177.64-.353.64-.529v-2.643l-12.22 2.995v1.41z" fill="#fff"/><path d="M1973.28 609.811l-13.72 2.996-41.81 8.811v3.348l39.24-9.516v1.057c0 .705 1.07 1.058 2.35.881l13.73-1.938c1.28-.176 2.36-1.057 2.36-1.939v-2.643c.21-.705-.86-1.233-2.15-1.057zm1.07 4.053c0 .352-.21.529-.64.529h-.21l-10.3 1.409c-.64.177-1.07-.176-1.07-.176v-1.41l12.22-2.995v2.643z" fill="#D6D6D6"/><path d="M1917.96 617.036h-4.71v161.42h4.71v-161.42z" fill="#D6D6D6"/><path d="M1964.5 664.089s.21.176.85.176l7.29-1.057c.22 0 .43-.176.43-.352v-1.763l-8.57 2.115v.881z" fill="#fff"/><path d="M1972.43 660.038l-9.65 2.114-29.38 6.168v2.467l27.66-6.696v.705c0 .528.64.705 1.72.528l9.65-1.233c.85-.176 1.71-.705 1.71-1.41v-1.762c0-.705-.86-1.058-1.71-.881zm.64 2.819c0 .177-.22.353-.43.353l-7.29 1.057c-.43 0-.86 0-.86-.176v-1.058l8.58-2.114v1.938z" fill="#D6D6D6"/><path d="M1933.62 665.148h-3.43v113.488h3.43V665.148z" fill="#D6D6D6"/><path d="M1971.99 686.995s.22.176.65.176l5.79-.705c.21 0 .43-.176.43-.352v-1.41l-6.87 1.586v.705z" fill="#fff"/><path d="M1978.43 683.824l-7.72 1.586-23.59 4.934v1.939l22.09-5.287v.529c0 .352.64.529 1.28.529l7.72-1.058c.64-.176 1.29-.528 1.29-1.057v-1.41c.21-.705-.43-.881-1.07-.705zm.42 2.115c0 .176-.21.352-.42.352l-5.79.705c-.43 0-.65 0-.65-.176v-.881l6.86-1.586v1.586zm-31.73 1.938h-2.57v90.755h2.57v-90.755z" fill="#D6D6D6"/><path d="M1982.72 700.741s.21.176.42.176l4.94-.704c.21 0 .21-.177.21-.353v-1.233l-5.79 1.409.22.705z" fill="#fff"/><path d="M1988.08 697.924l-6.43 1.409-19.95 4.23v1.586l18.87-4.582v.529c0 .352.43.528 1.08.352l6.64-.881c.65 0 1.07-.529 1.07-.881v-1.234c-.21-.352-.64-.705-1.28-.528zm.43 1.938c0 .176-.22.176-.22.353l-4.93.704c-.43 0-.43 0-.43-.176v-.705l5.79-1.409v1.233h-.21z" fill="#D6D6D6"/><path d="M1961.71 701.448h-2.36v77.186h2.36v-77.186z" fill="#D6D6D6"/><path d="M2001.59 708.497s.22.176.43 0l4.5-.529c.22 0 .22-.176.22-.176v-1.057l-5.36 1.233.21.529z" fill="#fff"/><path d="M2006.31 706.03l-5.79 1.234-18.02 3.7v1.41l16.94-4.053v.529c0 .352.43.528 1.08.352l6-.881c.64 0 1.07-.529 1.07-.881v-1.057c-.21-.353-.64-.529-1.28-.353zm.42 1.762c0 .177-.21.177-.21.177l-4.5.528h-.43v-.528l5.36-1.234v1.057h-.22zm-24.23 1.41h-1.93v69.432h1.93v-69.432z" fill="#D6D6D6"/><path d="M2018.09 713.435s.22.176.43 0l4.08-.529c.21 0 .21-.176.21-.176v-1.057l-4.93 1.233.21.529z" fill="#fff"/><path d="M2022.6 711.142l-5.36 1.234-16.73 3.524v1.41l15.66-3.877v.352c0 .353.42.353.85.353l5.58-.705c.43 0 .86-.353.86-.705v-1.057c.21-.529-.22-.705-.86-.529zm.43 1.586c0 .176 0 .176-.22.176l-4.07.529h-.43v-.529l4.93-1.233v1.057h-.21zm-22.52 1.234h-1.93v64.497h1.93v-64.497z" fill="#D6D6D6"/><path d="M2046.19 718.012s.22.176.43 0l3.86-.529c.22 0 .22-.176.22-.176v-.881l-4.51 1.057v.529z" fill="#fff"/><path d="M2050.48 715.898l-5.15 1.058-15.44 3.172v1.233l14.59-3.524v.352c0 .177.42.353.85.353l5.15-.705c.43 0 .86-.353.86-.705v-.881c0-.353-.43-.529-.86-.353zm.43 1.41c0 .176 0 .176-.22.176l-3.86.529h-.42v-.529l4.5-1.057v.881z" fill="#D6D6D6"/><path d="M2029.89 718.542h-1.71v60.092h1.71v-60.092z" fill="#D6D6D6"/><path d="M2104.51 722.244s.22.177.43 0l3.65-.528c.21 0 .21-.176.21-.176v-.882l-4.29 1.058v.528z" fill="#fff"/><path d="M2108.37 720.13l-4.72 1.057-14.36 2.996v1.234l13.5-3.349v.353c0 .176.43.352.86.352l4.72-.705c.43 0 .86-.352.86-.705v-.881c0-.176-.43-.352-.86-.352zm.43 1.41c0 .176 0 .176-.22.176l-3.64.529h-.43v-.529l4.29-1.057v.881zm-19.52 1.234h-1.71v55.863h1.71v-55.863z" fill="#D6D6D6"/><path d="M2172.69 726.121s.22.177.43 0l3.22-.528c.21 0 .21-.176.21-.176v-.882l-3.86.882v.704z" fill="#fff"/><path d="M2176.34 724.359l-4.29.881-13.51 2.82v1.057l12.65-2.996v.353c0 .176.43.352.86.352l4.5-.528c.43 0 .86-.353.86-.705v-.881a.847.847 0 00-1.07-.353zm.21 1.234c0 .176 0 .176-.21.176l-3.22.529h-.43v-.529l3.86-.881v.705zm-18.01 1.055h-1.5v51.986h1.5v-51.986z" fill="#D6D6D6"/><path d="M2252.46 729.821h.43l3-.352c.21 0 .21-.176.21-.176v-.705l-3.64.881v.352z" fill="#fff"/><path d="M2255.89 728.059l-4.08.881-12.43 2.644v1.057l11.79-2.82v.353c0 .176.21.352.64.176l4.08-.529c.43 0 .64-.352.64-.528v-.705c0-.353-.43-.529-.64-.529zm.21 1.234s0 .176-.21.176l-3.01.352h-.42v-.352l3.64-.881v.705zm-16.72.883h-1.5v48.285h1.5v-48.285z" fill="#D6D6D6"/><path d="M2442.44 736.339h.21l2.58-.353s.21 0 .21-.176v-.705l-3.22.705v.529h.22z" fill="#fff"/><path d="M2445.23 734.929l-3.43.705-10.73 2.29v.882l10.08-2.468v.353c0 .176.22.352.65.176l3.64-.529c.43 0 .64-.352.64-.528v-.705c-.21-.176-.43-.353-.85-.176zm.42 1.057s-.21 0 0 0l-2.78.529h-.22v-.353l3.22-.705v.529h-.22z" fill="#D6D6D6"/><path d="M2431.08 736.691h-1.29v41.765h1.29v-41.765z" fill="#D6D6D6"/><path d="M1788.46 500.2c0 .352-1.51 1.057-4.08.705l-37.09-4.935h-.43c-1.5-.352-2.36-1.233-2.36-2.114v-9.34l43.96 10.75v4.934z" fill="#fff"/><path d="M1739.35 483.283v9.34c0 3.172 3.86 6.344 8.58 6.873l49.31 6.696c4.72.705 8.58-.705 8.58-3.172v-3.7l8.79 2.114v-7.753l-17.58-3.701-49.1-10.573c-4.72-1.058-8.58.528-8.58 3.876zm5.15 1.058l43.95 10.749v5.111c0 .352-1.5 1.057-4.07.705l-37.1-4.935h-.42c-1.51-.352-2.36-1.233-2.36-2.114v-9.516zm79.12-.704h-8.79v207.238h8.79V483.637zm3 212.173h-14.79v82.824h14.79V695.81zm-3-4.76h-8.79l-3 4.758h14.79l-3-4.758z" fill="#D6D6D6"/><path d="M1799.39 435.176c0 .352-1.93 1.233-4.93.881l-45.67-6.168-.65-.176c-1.71-.352-3-1.41-3-2.643v-11.455l54.25 13.217v6.344z" fill="#fff"/><path d="M1738.71 414.205v11.455c0 3.877 4.72 7.754 10.5 8.459l60.9 8.282c5.79.705 10.51-.881 10.51-3.877v-4.582l10.93 2.644v-9.692l-82.34-17.623c-5.78-1.057-10.5 1.058-10.5 4.934zm6.43 1.41l54.25 13.217v6.344c0 .352-1.93 1.234-4.93.881l-45.67-6.168-.65-.176c-1.71-.352-3-1.41-3-2.643v-11.455z" fill="#D6D6D6"/><path d="M1842.49 414.732h-10.94v255.699h10.94V414.732zm3.86 261.693h-18.23v102.209h18.23V676.425zm-3.86-5.992h-10.94l-3.43 5.992h18.01l-3.64-5.992z" fill="#D6D6D6"/><path d="M1778.16 555.89c0 .177-1.29.882-3.22.529l-29.59-4.053h-.43c-1.07-.176-1.92-.881-1.92-1.762v-7.402l35.16 8.635v4.053z" fill="#fff"/><path d="M1738.92 542.319v7.402c0 2.467 3 4.934 6.86 5.462l39.46 5.287c3.86.529 6.86-.705 6.86-2.467v-2.996l7.07 1.763v-6.168l-14.15-2.996-39.24-8.459c-3.86-.881-6.86.529-6.86 3.172zm4.07.881l35.17 8.635v4.053c0 .177-1.29.881-3.22.529l-29.59-4.053h-.43c-1.07-.176-1.93-.881-1.93-1.762V543.2zm63.26-.53h-7.08v165.826h7.08V542.67zm2.36 169.704h-11.8v66.26h11.8v-66.26zm-2.36-3.877h-7.08l-2.36 3.877h11.8l-2.36-3.877z" fill="#D6D6D6"/><path d="M1764.44 600.475c0 .176-1.07.705-2.58.528l-23.8-3.172h-.21c-.86-.176-1.5-.705-1.5-1.41v-5.991l28.09 6.873v3.172z" fill="#fff"/><path d="M1733.13 589.547v5.991c0 2.115 2.36 4.054 5.57 4.406l31.52 4.229c3.01.353 5.37-.528 5.37-2.114v-2.291l5.57 1.41v-4.935l-11.36-2.291-31.52-6.872c-2.79-.705-5.15.352-5.15 2.467zm3.22.705l28.09 6.872v3.349c0 .176-1.08.705-2.58.528l-23.8-3.172h-.21c-.86-.176-1.5-.705-1.5-1.409v-6.168zm50.82-.354h-5.79v132.695h5.79V589.898zm1.71 135.693h-9.43v53.043h9.43v-53.043z" fill="#D6D6D6"/><path d="M1786.95 722.419h-5.57l-1.93 3.172h9.43l-1.93-3.172z" fill="#D6D6D6"/><path d="M1748.14 640.475c0 .176-.86.529-1.93.353l-18.44-2.468h-.21c-.65-.176-1.29-.528-1.29-1.057v-4.582l21.87 5.287v2.467z" fill="#fff"/><path d="M1723.7 632.016v4.582c0 1.586 1.93 3.172 4.28 3.348l24.45 3.349c2.36.352 4.29-.353 4.29-1.586v-1.763l4.29 1.058v-3.877l-8.8-1.762-24.44-5.287c-2.14-.529-4.07.352-4.07 1.938zm2.57.529l21.87 5.287v2.467c0 .176-.86.529-1.93.352l-18.44-2.467h-.21c-.65-.176-1.29-.528-1.29-1.057v-4.582z" fill="#D6D6D6"/><path d="M1765.51 632.194H1761v102.914h4.51V632.194zm1.5 105.205h-7.29v41.06h7.29v-41.06z" fill="#D6D6D6"/><path d="M1765.51 735.107h-4.5l-1.29 2.291h7.29l-1.5-2.291z" fill="#D6D6D6"/><path d="M1724.34 672.546c0 .176-.64.353-1.5.353l-14.15-1.939h-.22c-.64-.176-.85-.352-.85-.881v-3.524l16.72 4.053v1.938z" fill="#fff"/><path d="M1705.69 666.204v3.524c0 1.234 1.5 2.467 3.21 2.643l18.87 2.468c1.72.176 3.22-.353 3.22-1.234v-1.41l3.43.881v-2.995l-6.65-1.41-18.65-4.053c-1.93-.353-3.43.352-3.43 1.586zm1.93.352l16.72 4.053v1.939c0 .176-.64.352-1.5.352l-14.15-1.938h-.22c-.64-.177-.85-.353-.85-.881v-3.525z" fill="#D6D6D6"/><path d="M1737.85 666.381h-3.43v78.948h3.43v-78.948zm.86 80.709h-5.58v31.544h5.58V747.09z" fill="#D6D6D6"/><path d="M1737.63 745.151h-3.21l-1.29 1.939h5.58l-1.08-1.939z" fill="#D6D6D6"/><path d="M1698.4 695.457c0 .176-.43.352-1.29.176l-11.15-1.41h-.21c-.43-.176-.65-.352-.65-.705v-2.819l13.08 3.172.22 1.586z" fill="#fff"/><path d="M1683.82 690.346v2.82c0 .881 1.07 1.938 2.57 2.114l14.8 1.939c1.5.176 2.57-.176 2.57-.881v-1.058l2.57.705v-2.467l-5.36-1.057-14.58-3.172c-1.5-.353-2.57.176-2.57 1.057zm1.5.353l13.08 3.172v1.586c0 .176-.43.352-1.29.176l-11.15-1.41h-.21c-.43-.176-.65-.352-.65-.705v-2.819h.22zm23.59-.178h-2.58v61.854h2.58v-61.854zm.86 63.265h-4.51v24.671h4.51v-24.671zm-.86-1.411h-2.57l-1.08 1.41h4.51l-.86-1.41z" fill="#D6D6D6"/><path d="M1669.88 712.018s-.43.176-.86.176l-8.79-1.233c-.43 0-.64-.353-.64-.529v-2.291l10.5 2.643-.21 1.234z" fill="#fff"/><path d="M1658.09 707.967v2.291c0 .704.85 1.586 2.14 1.586l11.79 1.586c1.08.176 2.15-.177 2.15-.705v-.881l2.14.528v-1.938l-4.29-.881-11.79-2.467c-1.07-.177-2.14.176-2.14.881zm1.28.352l10.51 2.643v1.234s-.43.176-.86.176l-8.79-1.233c-.43 0-.64-.353-.64-.529v-2.291h-.22z" fill="#D6D6D6"/><path d="M1678.24 708.141h-2.14v49.519h2.14v-49.519zm.64 50.579h-3.43v19.737h3.43V758.72zm-.64-1.06h-2.14l-.65 1.057h3.43l-.64-1.057z" fill="#D6D6D6"/><path d="M1634.07 725.413s-.21.176-.86.176l-7.07-.881c-.22 0-.43-.176-.43-.352v-1.763l8.36 2.115v.705z" fill="#fff"/><path d="M1624.64 722.066v1.762c0 .529.64 1.234 1.71 1.41l9.44 1.234c.85.176 1.71-.176 1.71-.529v-.705l1.72.353v-1.41l-3.43-.705-9.44-2.115c-1.07-.176-1.71.177-1.71.705zm.85.353l8.37 2.114v1.058s-.22.176-.86.176l-7.08-.881c-.21 0-.43-.176-.43-.353v-2.114z" fill="#D6D6D6"/><path d="M1640.71 722.242H1639v39.651h1.71v-39.651zm.44 40.53h-2.79v15.86h2.79v-15.86z" fill="#D6D6D6"/><path d="M1640.72 761.893h-1.71l-.65.881h2.79l-.43-.881z" fill="#D6D6D6"/><path d="M1597.62 735.987s-.22.176-.65.176l-5.57-.705c-.21 0-.43-.176-.43-.353v-1.409l6.65 1.586v.705z" fill="#fff"/><path d="M1590.11 733.343v1.41c0 .529.65.881 1.29 1.057l7.5 1.058c.65.176 1.29-.177 1.29-.529v-.529l1.29.353v-1.234l-2.79-.529-7.5-1.586c-.43-.176-1.08.177-1.08.529zm.86.176l6.65 1.586v.705s-.22.176-.65.176l-5.57-.704c-.21 0-.43-.177-.43-.353v-1.41zm12.01-.002h-1.29v31.72h1.29v-31.72zm.64 32.427h-2.36v12.688h2.36v-12.688zm-.65-.705h-1.28l-.43.705h2.14l-.43-.705z" fill="#D6D6D6"/><path d="M1557.74 744.448s-.22.177-.43 0l-4.51-.528c-.21 0-.21-.177-.21-.353v-1.057l5.36 1.233-.21.705z" fill="#fff"/><path d="M1551.73 742.508v1.057c0 .353.43.705 1.07.882l6.01.881c.64 0 1.07-.177 1.07-.353v-.528l1.07.176v-.881l-2.14-.529-6.01-1.234c-.64-.176-1.07 0-1.07.529zm.64 0l5.36 1.234v.705s-.21.176-.42 0l-4.51-.529c-.21 0-.21-.176-.21-.353v-1.057h-.22zm9.66.002h-1.08v25.376h1.08V742.51zm.21 25.904h-1.72v10.045h1.72v-10.045z" fill="#D6D6D6"/><path d="M1562.02 767.882h-1.07l-.43.529h1.72l-.22-.529z" fill="#D6D6D6"/><path opacity=".66" d="M-39.768 896.236v-34.7h10.675v-50.251h46.716v8.108h54.726v34.046h6.671v43.269h18.885v-23.295h41.313v-18.912h56.123v-28.373h16.015v-95.655h21.952v-84.309h45.25v64.854h26.231v69.714h6.671v85.015h13.351v26.852h30.697v-52.965h13.347v-47.552h17.35v-11.35h85.425v11.35h34.703v26.752h9.344v33.855h13.084V653.461h14.685V638.87h60.063v-34.051h48.05v103.764h8.006v168.319-10.885l-.001-102.265v-166.79h10.678V548.32h18.688V490h32.311v58.32h14.402v28.374h9.343v157.268h28.029v35.368h117.457V522.383h8.01v-12.975h64.066v12.975h9.341V769.33h42.711V666.676h6.57v-48.638h22.79v-11.35h48.05v11.35h29.37v27.563h12.01v88.361h18.69v10.396h22.69v-66.332h2.38v-37.823h36.04v32.425h32.03v5.398h4.29v66.332h27.75v67.477H1295V1121H-57V896.236h17.232z" fill="#E9E9E9"/></g><defs><clipPath id="clip0"><path fill="#fff" d="M0 0h2500v960H0z"/></clipPath></defs></svg>