<svg width="2500" height="960" viewBox="0 0 2500 960" fill="none" xmlns="http://www.w3.org/2000/svg">
<g clip-path="url(#clip0)">
<path d="M1464.5 755.5C2063.95 887.087 2628.7 1003.5 3008 1192.5L3403 1030C3403 1030 3119.5 895.5 2738.5 825.5C2357.5 755.5 1464.5 755.5 1464.5 755.5Z" fill="#E9E9E9"/>
<path d="M1064 738.5C1663.45 870.087 1943.7 991 2323 1180L2718 1017.5C2718 1017.5 2434.5 883 2053.5 813C1672.5 743 1064 738.5 1064 738.5Z" fill="#F2F4F7"/>
<path d="M2341.44 733.167H2341.65L2344.44 732.814C2344.66 732.814 2344.66 732.638 2344.66 732.638V731.933L2341.22 732.814V733.167H2341.44Z" fill="white"/>
<path d="M2344.44 731.582L2329.01 734.754V735.635L2339.94 732.992V733.345C2339.94 733.521 2340.16 733.697 2340.58 733.521L2344.44 732.992C2344.87 732.992 2345.09 732.64 2345.09 732.463V731.758C2345.09 731.758 2344.87 731.582 2344.44 731.582ZM2344.87 732.816C2344.87 732.816 2344.66 732.816 2344.87 732.816L2344.66 732.992L2341.87 733.345C2341.66 733.345 2341.66 733.345 2341.66 733.345V732.992L2345.09 732.111V732.816H2344.87Z" fill="#D6D6D6"/>
<path d="M2341.44 732.814L2344.87 731.933L2341.44 732.814Z" fill="#D6D6D6"/>
<path d="M2329.01 733.699H2327.72V778.635H2329.01V733.699Z" fill="#D6D6D6"/>
<path d="M2455.52 568.401L2467.74 564.7L2455.52 568.401Z" fill="#D6D6D6"/>
<path d="M2457.66 572.105C2457.66 572.281 2458.09 572.457 2458.74 572.281L2467.96 570.519C2468.39 570.342 2468.6 570.166 2468.6 569.814V566.466L2457.66 570.166V572.105Z" fill="white"/>
<path d="M2467.74 564.702L2455.52 568.402L2419.07 579.152L2419.28 583.381L2453.38 571.574V572.808C2453.38 573.689 2454.23 574.218 2455.52 573.865L2467.74 571.574C2468.81 571.398 2469.89 570.341 2469.89 569.107V565.759C2469.89 565.054 2468.81 564.349 2467.74 564.702ZM2468.6 569.812C2468.6 570.164 2468.39 570.517 2467.96 570.517L2458.74 572.279C2458.09 572.455 2457.66 572.103 2457.66 572.103V570.341L2468.6 566.64V569.812Z" fill="#D6D6D6"/>
<path d="M2457.66 570.342L2468.6 566.466L2457.66 570.342Z" fill="#D6D6D6"/>
<path d="M2364.6 568.932C2364.6 569.285 2364.82 569.637 2365.25 569.813H2365.46L2375.97 571.752C2376.61 571.928 2377.04 571.575 2377.04 571.399V569.989L2364.82 565.76V568.932H2364.6Z" fill="white"/>
<path d="M2416.28 579.328L2376.18 566.992L2362.67 562.763C2361.39 562.411 2360.31 563.115 2360.31 564.349V568.05C2360.31 569.283 2361.39 570.517 2362.67 570.693L2376.18 573.336C2377.47 573.513 2378.54 572.984 2378.54 572.103V570.869L2416.28 583.733V579.328ZM2377.04 571.574C2377.04 571.75 2376.61 571.927 2375.97 571.927L2365.46 569.988H2365.25C2364.82 569.812 2364.6 569.459 2364.6 569.107V565.935L2376.82 570.164V571.574H2377.04Z" fill="#D6D6D6"/>
<path d="M2419.07 577.388C2419.07 577.212 2418.42 577.035 2417.78 577.035C2416.92 577.035 2416.49 577.212 2416.49 577.388L2409.85 778.634H2425.71L2419.07 577.388Z" fill="#D6D6D6"/>
<path d="M2374.68 618.446L2384.12 615.626L2374.68 618.446Z" fill="#D6D6D6"/>
<path d="M2376.39 621.089C2376.39 621.089 2376.61 621.441 2377.25 621.265L2384.33 619.855C2384.54 619.679 2384.76 619.503 2384.76 619.327V616.86L2376.39 619.679V621.089Z" fill="white"/>
<path d="M2384.11 615.628L2374.89 618.447L2347.02 626.73V629.902L2372.96 620.915V621.972C2372.96 622.677 2373.61 623.029 2374.68 622.853L2384.11 621.091C2384.97 620.915 2385.83 620.033 2385.83 619.152V616.685C2385.83 615.804 2384.97 615.275 2384.11 615.628ZM2384.76 619.329C2384.76 619.681 2384.54 619.857 2384.33 619.857L2377.25 621.267C2376.82 621.443 2376.4 621.091 2376.4 621.091V619.681L2384.76 616.861V619.329Z" fill="#D6D6D6"/>
<path d="M2376.39 619.855L2384.76 616.86L2376.39 619.855Z" fill="#D6D6D6"/>
<path d="M2305.64 618.801C2305.64 619.153 2305.85 619.33 2306.07 619.506L2314 621.092C2314.43 621.268 2314.86 620.916 2314.86 620.916V619.858L2305.42 616.686V618.801H2305.64Z" fill="white"/>
<path d="M2344.88 626.554L2314.21 617.214L2303.92 614.042C2302.85 613.689 2302.21 614.218 2302.21 615.275V618.095C2302.21 618.976 2303.06 620.033 2303.92 620.21L2314.21 622.148C2315.29 622.324 2315.93 621.972 2315.93 621.267V620.21L2344.66 630.078L2344.88 626.554ZM2314.86 620.738C2314.86 620.915 2314.64 621.091 2314 620.915L2306.07 619.329C2305.85 619.152 2305.64 618.976 2305.64 618.624V616.333L2315.07 619.505L2314.86 620.738Z" fill="#D6D6D6"/>
<path d="M2347.02 625.145C2347.02 624.969 2346.6 624.793 2345.95 624.793C2345.31 624.793 2344.88 624.969 2344.88 625.145L2339.95 778.459H2351.96L2347.02 625.145Z" fill="#D6D6D6"/>
<path d="M2297.92 653.868L2305.21 651.753L2297.92 653.868Z" fill="#D6D6D6"/>
<path d="M2299.2 656.162C2299.2 656.162 2299.42 656.338 2299.85 656.338L2305.42 655.28C2305.64 655.28 2305.85 655.104 2305.85 654.752V652.813L2299.42 655.104L2299.2 656.162Z" fill="white"/>
<path d="M2305.2 651.755L2297.91 654.046L2276.26 660.39V662.857L2296.41 655.808V656.513C2296.41 657.041 2297.05 657.394 2297.7 657.218L2304.99 655.808C2305.63 655.632 2306.27 655.103 2306.27 654.398V652.46C2306.27 651.931 2305.85 651.578 2305.2 651.755ZM2305.63 654.75C2305.63 654.927 2305.42 655.103 2305.2 655.279L2299.63 656.336C2299.2 656.336 2298.98 656.336 2298.98 656.16V655.103L2305.42 652.812V654.75H2305.63Z" fill="#D6D6D6"/>
<path d="M2299.2 654.928L2305.64 652.813L2299.2 654.928Z" fill="#D6D6D6"/>
<path d="M2244.09 654.221C2244.09 654.397 2244.31 654.573 2244.52 654.75L2250.74 655.983C2251.17 655.983 2251.39 655.807 2251.39 655.807V654.926L2244.09 652.459V654.221Z" fill="white"/>
<path d="M2274.54 660.39L2250.74 653.165L2242.81 650.697C2241.95 650.521 2241.52 650.874 2241.52 651.579V653.693C2241.52 654.398 2242.16 655.103 2242.81 655.279L2250.74 656.865C2251.6 657.042 2252.03 656.689 2252.03 656.16V655.455L2274.33 663.033L2274.54 660.39ZM2251.38 655.808C2251.38 655.808 2251.17 655.984 2250.74 655.984L2244.52 654.751C2244.31 654.751 2244.09 654.574 2244.09 654.222V652.284L2251.38 654.751V655.808Z" fill="#D6D6D6"/>
<path d="M2276.26 659.157C2276.26 658.981 2275.83 658.981 2275.4 658.981C2274.97 658.981 2274.54 659.157 2274.54 659.157L2270.68 778.46H2280.12L2276.26 659.157Z" fill="#D6D6D6"/>
<path d="M2229.52 670.611L2235.74 668.848L2229.52 670.611Z" fill="#D6D6D6"/>
<path d="M2230.59 672.548C2230.59 672.548 2230.8 672.724 2231.01 672.724L2235.73 671.843C2235.95 671.843 2235.95 671.667 2235.95 671.49V669.904L2230.37 671.843V672.548H2230.59Z" fill="white"/>
<path d="M2235.73 668.845L2229.51 670.784L2210.86 676.247V678.361L2228.44 672.37V673.075C2228.44 673.427 2228.87 673.779 2229.51 673.603L2235.73 672.37C2236.38 672.193 2236.8 671.665 2236.8 671.136V669.374C2236.8 668.845 2236.38 668.493 2235.73 668.845ZM2236.16 671.312C2236.16 671.489 2235.95 671.665 2235.95 671.665L2231.23 672.546C2230.8 672.546 2230.8 672.546 2230.8 672.37V671.489L2236.38 669.55V671.312H2236.16Z" fill="#D6D6D6"/>
<path d="M2230.59 671.667L2236.16 669.728L2230.59 671.667Z" fill="#D6D6D6"/>
<path d="M2182.99 670.962C2182.99 671.138 2183.2 671.314 2183.42 671.314L2188.78 672.372C2189.21 672.372 2189.42 672.372 2189.42 672.195V671.49L2183.2 669.376V670.962H2182.99Z" fill="white"/>
<path d="M2209.36 676.248L2188.77 669.904L2181.91 667.79C2181.27 667.614 2180.63 667.966 2180.63 668.495V670.433C2180.63 671.138 2181.27 671.667 2181.91 671.843L2188.77 673.253C2189.42 673.429 2190.06 673.076 2190.06 672.548V671.843L2209.36 678.363V676.248ZM2189.2 672.195C2189.2 672.195 2188.99 672.372 2188.56 672.372L2183.2 671.314C2182.98 671.314 2182.77 671.138 2182.77 670.962V669.376L2188.99 671.49V672.195H2189.2Z" fill="#D6D6D6"/>
<path d="M2210.86 675.192C2210.86 675.016 2210.65 675.016 2210.22 675.016C2209.79 675.016 2209.57 675.192 2209.57 675.192L2206.14 778.459H2214.29L2210.86 675.192Z" fill="#D6D6D6"/>
<path d="M2159.4 681.008L2165.19 679.246L2159.4 681.008Z" fill="#D6D6D6"/>
<path d="M2160.47 682.594C2160.47 682.594 2160.68 682.77 2160.9 682.77L2165.19 681.889C2165.4 681.889 2165.4 681.713 2165.4 681.536V679.95L2160.26 681.713V682.594H2160.47Z" fill="white"/>
<path d="M2165.19 679.244L2159.62 681.006L2142.68 685.941V687.879L2158.54 682.416V682.945C2158.54 683.297 2158.97 683.65 2159.62 683.474L2165.41 682.416C2166.05 682.24 2166.48 681.888 2166.48 681.359V679.773C2166.05 679.42 2165.62 679.068 2165.19 679.244ZM2165.62 681.535C2165.62 681.711 2165.62 681.888 2165.41 681.888L2161.12 682.769C2160.9 682.769 2160.69 682.769 2160.69 682.593V681.711L2165.84 679.949V681.535H2165.62Z" fill="#D6D6D6"/>
<path d="M2160.47 681.715L2165.62 680.129L2160.47 681.715Z" fill="#D6D6D6"/>
<path d="M2117.16 681.182C2117.16 681.359 2117.38 681.535 2117.38 681.535L2122.31 682.416C2122.52 682.416 2122.74 682.416 2122.74 682.24V681.535L2116.95 679.596V681.182H2117.16Z" fill="white"/>
<path d="M2141.17 685.942L2122.52 680.303L2116.3 678.364C2115.66 678.188 2115.23 678.541 2115.23 679.069V680.832C2115.23 681.36 2115.66 681.889 2116.3 682.065L2122.52 683.299C2123.16 683.475 2123.59 683.122 2123.59 682.77V682.241L2141.17 688.233V685.942ZM2122.95 682.418C2122.95 682.418 2122.73 682.594 2122.52 682.594L2117.59 681.713C2117.37 681.713 2117.37 681.536 2117.37 681.36V679.95L2123.16 681.889V682.418H2122.95Z" fill="#D6D6D6"/>
<path d="M2142.46 685.061C2142.46 684.885 2142.25 684.885 2141.82 684.885C2141.39 684.885 2141.17 684.885 2141.17 685.061L2138.17 778.459H2145.46L2142.46 685.061Z" fill="#D6D6D6"/>
<path d="M2081.56 690.169V690.345L2086.92 688.759L2081.56 690.169Z" fill="#D6D6D6"/>
<path d="M2082.63 691.755C2082.63 691.755 2082.85 691.931 2083.06 691.931L2086.92 691.226C2087.14 691.226 2087.14 691.05 2087.14 690.874V689.464L2082.63 691.05V691.755Z" fill="white"/>
<path d="M2086.92 688.761L2081.78 690.347L2066.34 694.929V696.691L2080.71 691.757V692.285C2080.71 692.638 2081.13 692.814 2081.56 692.814L2086.71 691.757C2087.14 691.58 2087.57 691.228 2087.57 690.699V689.29C2087.78 688.761 2087.35 688.585 2086.92 688.761ZM2087.14 690.876C2087.14 691.052 2087.14 691.228 2086.92 691.228L2083.06 691.933C2082.85 691.933 2082.64 691.933 2082.64 691.757V691.052L2087.14 689.466V690.876Z" fill="#D6D6D6"/>
<path d="M2082.63 691.05L2087.14 689.464L2082.63 691.05Z" fill="#D6D6D6"/>
<path d="M2043.62 690.52C2043.62 690.696 2043.62 690.872 2043.83 690.872L2048.12 691.753C2048.33 691.753 2048.55 691.753 2048.55 691.577V690.872L2043.4 689.11V690.52H2043.62Z" fill="white"/>
<path d="M2065.27 694.751L2048.33 689.64L2042.54 687.878C2041.9 687.702 2041.47 688.054 2041.47 688.583V690.169C2041.47 690.697 2041.9 691.226 2042.54 691.226L2048.33 692.283C2048.97 692.46 2049.4 692.107 2049.4 691.755V691.226L2065.27 696.689V694.751ZM2048.76 691.579C2048.76 691.579 2048.54 691.755 2048.33 691.755L2044.04 690.874C2043.83 690.874 2043.83 690.697 2043.83 690.521V689.288L2048.97 691.05L2048.76 691.579Z" fill="#D6D6D6"/>
<path d="M2066.34 694.047C2066.34 693.871 2066.12 693.871 2065.69 693.871C2065.48 693.871 2065.05 693.871 2065.05 694.047L2062.26 778.634H2068.91L2066.34 694.047Z" fill="#D6D6D6"/>
<path d="M1990.22 694.751L1994.94 693.165L1990.22 694.751Z" fill="#D6D6D6"/>
<path d="M1991.08 696.163C1991.08 696.163 1991.29 696.339 1991.51 696.339L1995.15 695.634C1995.37 695.634 1995.37 695.458 1995.37 695.282V694.048L1991.08 695.634V696.163Z" fill="white"/>
<path d="M1994.94 693.167L1990.01 694.577L1975.43 698.806V700.569L1989.15 695.811V696.339C1989.15 696.692 1989.58 696.868 1990.01 696.868L1994.94 695.987C1995.37 695.811 1995.8 695.458 1995.8 694.93V693.696C1995.8 693.344 1995.58 692.991 1994.94 693.167ZM1995.37 695.106C1995.37 695.282 1995.37 695.282 1995.15 695.458L1991.51 696.163C1991.29 696.163 1991.08 696.163 1991.08 695.987V695.282L1995.37 693.696V695.106Z" fill="#D6D6D6"/>
<path d="M1991.08 695.457L1995.37 693.871L1991.08 695.457Z" fill="#D6D6D6"/>
<path d="M1953.99 694.931C1953.99 695.107 1953.99 695.284 1954.2 695.284L1958.28 696.165C1958.49 696.165 1958.71 696.165 1958.71 695.988V695.46L1953.77 693.698V694.931H1953.99Z" fill="white"/>
<path d="M1974.36 698.983L1958.27 694.048L1952.91 692.462C1952.48 692.286 1952.06 692.639 1952.06 692.991V694.401C1952.06 694.93 1952.48 695.458 1952.91 695.458L1958.27 696.516C1958.7 696.692 1959.13 696.339 1959.13 695.987V695.458L1974.14 700.569L1974.36 698.983ZM1958.7 695.811C1958.7 695.811 1958.49 695.987 1958.27 695.987L1954.2 695.106C1953.99 695.106 1953.99 694.93 1953.99 694.753V693.52L1958.92 695.282L1958.7 695.811Z" fill="#D6D6D6"/>
<path d="M1975.64 698.28C1975.64 698.103 1975.43 698.104 1975 698.104C1974.78 698.104 1974.35 698.103 1974.35 698.28L1971.78 778.637H1978L1975.64 698.28Z" fill="#D6D6D6"/>
<path d="M1883.87 698.803L1888.38 697.393L1883.87 698.803Z" fill="#D6D6D6"/>
<path d="M1884.51 700.214C1884.51 700.214 1884.73 700.39 1884.94 700.39L1888.37 699.685C1888.59 699.685 1888.59 699.509 1888.59 699.333V698.099L1884.51 699.509V700.214Z" fill="white"/>
<path d="M1888.37 697.393L1883.66 698.803L1869.72 702.856V704.442L1882.58 700.037V700.565C1882.58 700.918 1883.01 701.094 1883.44 700.918L1888.16 700.037C1888.59 700.037 1889.02 699.508 1889.02 699.155V697.922C1889.23 697.569 1888.8 697.217 1888.37 697.393ZM1888.8 699.332C1888.8 699.508 1888.8 699.508 1888.59 699.684L1885.16 700.389C1884.94 700.389 1884.73 700.389 1884.73 700.213V699.508L1888.8 698.098V699.332V699.332Z" fill="#D6D6D6"/>
<path d="M1884.51 699.509L1888.8 698.099L1884.51 699.509Z" fill="#D6D6D6"/>
<path d="M1849.35 698.979C1849.35 699.155 1849.35 699.332 1849.56 699.332L1853.42 700.037C1853.64 700.037 1853.85 700.037 1853.85 699.86V699.332L1849.14 697.746V698.979H1849.35Z" fill="white"/>
<path d="M1868.86 703.032L1853.64 698.451L1848.49 696.864C1848.06 696.688 1847.64 697.041 1847.64 697.393V698.803C1847.64 699.332 1848.06 699.684 1848.49 699.86L1853.64 700.918C1854.07 701.094 1854.5 700.741 1854.5 700.389V699.86L1868.86 704.795V703.032ZM1854.07 700.037C1854.07 700.037 1853.85 700.213 1853.64 700.213L1849.78 699.508C1849.57 699.508 1849.57 699.332 1849.57 699.155V697.922L1854.28 699.508L1854.07 700.037Z" fill="#D6D6D6"/>
<path d="M1869.94 702.327C1869.94 702.327 1869.72 702.151 1869.51 702.151C1869.29 702.151 1869.08 702.151 1869.08 702.327L1866.51 778.632H1872.51L1869.94 702.327Z" fill="#D6D6D6"/>
<path d="M1772.16 702.858L1776.66 701.448L1772.16 702.858Z" fill="#D6D6D6"/>
<path d="M1773.02 704.091C1773.02 704.091 1773.23 704.268 1773.44 704.268L1776.88 703.563C1777.09 703.563 1777.09 703.387 1777.09 703.21V701.977L1773.23 703.387L1773.02 704.091Z" fill="white"/>
<path d="M1776.66 701.448L1772.15 702.858L1759.08 706.735V708.321L1771.3 704.092V704.62C1771.3 704.973 1771.73 705.149 1772.15 704.973L1776.66 704.092C1777.09 704.092 1777.52 703.563 1777.52 703.21V701.977C1777.3 701.624 1777.09 701.448 1776.66 701.448ZM1776.87 703.387C1776.87 703.563 1776.87 703.563 1776.66 703.739L1773.23 704.444C1773.01 704.444 1772.8 704.444 1772.8 704.268V703.563L1776.66 702.153V703.387H1776.87Z" fill="#D6D6D6"/>
<path d="M1773.02 703.564L1776.88 702.155L1773.02 703.564Z" fill="#D6D6D6"/>
<path d="M1739.57 703.034C1739.57 703.211 1739.57 703.211 1739.78 703.387L1743.64 704.092C1743.85 704.092 1744.07 704.092 1744.07 703.915V703.387L1739.57 701.801V703.034Z" fill="white"/>
<path d="M1758.01 706.735L1743.64 702.329L1738.71 700.92C1738.28 700.743 1737.85 701.096 1737.85 701.448V702.682C1737.85 703.21 1738.28 703.563 1738.71 703.563L1743.64 704.444C1744.07 704.62 1744.5 704.268 1744.5 703.915V703.387L1758.01 707.968V706.735ZM1743.85 703.915C1743.85 703.915 1743.64 704.092 1743.43 704.092L1739.57 703.387C1739.35 703.387 1739.35 703.21 1739.35 703.034V701.977L1743.85 703.563V703.915Z" fill="#D6D6D6"/>
<path d="M1759.08 706.031C1759.08 706.031 1758.86 705.855 1758.65 705.855C1758.43 705.855 1758.22 705.855 1758.22 706.031L1755.86 778.459H1761.65L1759.08 706.031Z" fill="#D6D6D6"/>
<path d="M1659.58 710.435L1663.44 709.201L1659.58 710.435Z" fill="#D6D6D6"/>
<path d="M1660.23 711.496C1660.23 711.496 1660.44 711.672 1660.66 711.496L1663.66 710.967C1663.87 710.967 1663.87 710.791 1663.87 710.791V709.734L1660.23 710.967V711.496Z" fill="white"/>
<path d="M1663.44 709.203L1659.58 710.437L1647.79 713.961V715.371L1658.94 711.494V711.847C1658.94 712.199 1659.15 712.199 1659.58 712.199L1663.66 711.494C1664.09 711.494 1664.3 711.142 1664.3 710.789V709.732C1664.3 709.203 1663.87 709.027 1663.44 709.203ZM1663.87 710.789C1663.87 710.966 1663.87 710.966 1663.66 710.966L1660.65 711.494C1660.44 711.494 1660.44 711.494 1660.23 711.494V710.966L1663.87 709.732V710.789Z" fill="#D6D6D6"/>
<path d="M1660.23 710.967L1663.87 709.734L1660.23 710.967Z" fill="#D6D6D6"/>
<path d="M1630.21 710.613C1630.21 710.789 1630.21 710.789 1630.42 710.966L1633.85 711.67C1634.07 711.67 1634.28 711.67 1634.28 711.494V710.966L1630.21 709.556V710.613V710.613Z" fill="white"/>
<path d="M1646.72 713.961L1633.64 709.908L1629.35 708.498C1628.92 708.322 1628.49 708.675 1628.49 709.027V710.261C1628.49 710.613 1628.92 710.966 1629.35 711.142L1633.64 712.023C1634.07 712.023 1634.5 711.847 1634.5 711.67V711.142L1646.72 715.371V713.961ZM1634.07 711.494C1634.07 711.494 1633.85 711.67 1633.64 711.67L1630.21 710.966C1629.99 710.966 1629.99 710.789 1629.99 710.613V709.556L1634.07 710.966V711.494Z" fill="#D6D6D6"/>
<path d="M1647.79 713.256C1647.79 713.256 1647.57 713.08 1647.36 713.08C1647.15 713.08 1646.93 713.08 1646.93 713.256L1644.79 778.459H1649.93L1647.79 713.256Z" fill="#D6D6D6"/>
<path d="M1552.59 715.194L1556.45 714.136L1552.59 715.194Z" fill="#D6D6D6"/>
<path d="M1553.44 716.249C1553.44 716.249 1553.66 716.426 1553.66 716.249L1556.45 715.721C1556.66 715.721 1556.66 715.544 1556.66 715.544V714.663L1553.44 715.721V716.249Z" fill="white"/>
<path d="M1556.45 714.136L1552.81 715.194L1541.87 718.366V719.599L1552.16 716.075V716.427C1552.16 716.603 1552.38 716.78 1552.81 716.78L1556.45 716.075C1556.88 716.075 1557.09 715.722 1557.09 715.37V714.312C1557.09 714.136 1556.67 713.96 1556.45 714.136ZM1556.67 715.546C1556.67 715.722 1556.67 715.722 1556.45 715.722L1553.66 716.251C1553.45 716.251 1553.45 716.251 1553.45 716.251V715.722L1556.67 714.665V715.546V715.546Z" fill="#D6D6D6"/>
<path d="M1553.44 715.721L1556.66 714.663L1553.44 715.721Z" fill="#D6D6D6"/>
<path d="M1525.35 715.37C1525.35 715.546 1525.35 715.546 1525.57 715.546L1528.79 716.075C1529 716.075 1529.21 716.075 1529.21 716.075V715.546L1525.57 714.312V715.37H1525.35Z" fill="white"/>
<path d="M1540.8 718.366L1528.79 714.665L1524.72 713.431C1524.29 713.255 1524.07 713.431 1524.07 713.96V715.017C1524.07 715.37 1524.29 715.722 1524.72 715.898L1528.79 716.603C1529.22 716.603 1529.43 716.427 1529.43 716.251V715.898L1540.8 719.775V718.366ZM1529 716.075C1529 716.075 1528.79 716.251 1528.58 716.075L1525.36 715.546C1525.15 715.546 1525.15 715.37 1525.15 715.37V714.489L1528.79 715.722L1529 716.075Z" fill="#D6D6D6"/>
<path d="M1541.65 717.839C1541.65 717.839 1541.44 717.662 1541.22 717.662C1541.01 717.662 1540.79 717.662 1540.79 717.839L1538.86 778.459H1543.58L1541.65 717.839Z" fill="#D6D6D6"/>
<path d="M1432.73 721.538L1436.16 720.481L1432.73 721.538Z" fill="#D6D6D6"/>
<path d="M1433.37 722.595C1433.37 722.595 1433.37 722.771 1433.59 722.595L1436.16 722.066L1436.37 721.89V721.009L1433.37 722.066V722.595Z" fill="white"/>
<path d="M1436.16 720.481L1432.94 721.538L1423.08 724.534V725.767L1432.3 722.595V722.948C1432.3 723.124 1432.51 723.3 1432.94 723.3L1436.37 722.595C1436.59 722.595 1437.02 722.243 1437.02 721.89V721.009C1436.59 720.657 1436.37 720.481 1436.16 720.481ZM1436.37 721.89C1436.37 722.067 1436.37 722.067 1436.16 722.067L1433.58 722.595C1433.37 722.595 1433.37 722.595 1433.37 722.595V722.067L1436.37 721.009V721.89V721.89Z" fill="#D6D6D6"/>
<path d="M1433.37 722.066L1436.37 721.009L1433.37 722.066Z" fill="#D6D6D6"/>
<path d="M1408.07 721.712C1408.07 721.889 1408.07 721.889 1408.28 721.889L1411.07 722.417C1411.29 722.417 1411.29 722.417 1411.29 722.417V722.065L1407.85 720.831V721.712H1408.07Z" fill="white"/>
<path d="M1422.22 724.532L1411.29 721.184L1407.64 720.126C1407.21 719.95 1407 720.126 1407 720.479V721.536C1407 721.889 1407.21 722.241 1407.64 722.241L1411.29 722.946C1411.72 722.946 1411.93 722.946 1411.93 722.593V722.241L1422.22 725.766V724.532ZM1411.5 722.417C1411.5 722.417 1411.29 722.593 1411.29 722.417L1408.5 721.889C1408.29 721.889 1408.29 721.712 1408.29 721.712V720.831L1411.72 722.065L1411.5 722.417Z" fill="#D6D6D6"/>
<path d="M1422.86 724.003C1422.86 724.003 1422.65 723.827 1422.43 723.827C1422.22 723.827 1422.01 723.827 1422.01 724.003L1420.29 778.632H1424.58L1422.86 724.003Z" fill="#D6D6D6"/>
<path d="M1970.92 541.967C1970.92 542.143 1971.57 542.319 1972.64 542.319L1987.65 540.205H1987.86C1988.51 540.028 1988.72 539.676 1988.72 539.324V535.623L1970.92 539.852V541.967Z" fill="white"/>
<path d="M1987.44 533.684L1967.71 537.914L1907.03 550.602V555.536L1964.06 541.614V543.024C1964.06 543.905 1965.56 544.61 1967.49 544.258L1987.44 541.614C1989.37 541.438 1990.87 540.028 1990.87 538.795V535.094C1990.87 533.861 1989.37 533.156 1987.44 533.684ZM1988.72 539.324C1988.72 539.676 1988.29 540.028 1987.86 540.205H1987.65L1972.64 542.319C1971.57 542.496 1970.92 542.143 1970.92 541.967V539.852L1988.72 535.623V539.324Z" fill="#D6D6D6"/>
<path d="M1906.81 544.081H1899.95V778.634H1906.81V544.081Z" fill="#D6D6D6"/>
<path d="M1962.13 615.626C1962.13 615.802 1962.56 615.979 1963.2 615.802L1973.49 614.393H1973.71C1974.14 614.216 1974.35 614.04 1974.35 613.864V611.221L1962.13 614.216V615.626Z" fill="white"/>
<path d="M1973.28 609.811L1959.56 612.807L1917.75 621.618V624.966L1956.99 615.45V616.507C1956.99 617.212 1958.06 617.565 1959.34 617.388L1973.07 615.45C1974.35 615.274 1975.43 614.393 1975.43 613.511V610.868C1975.64 610.163 1974.57 609.635 1973.28 609.811ZM1974.35 613.864C1974.35 614.216 1974.14 614.393 1973.71 614.393H1973.5L1963.2 615.802C1962.56 615.979 1962.13 615.626 1962.13 615.626V614.216L1974.35 611.221V613.864V613.864Z" fill="#D6D6D6"/>
<path d="M1917.96 617.036H1913.25V778.456H1917.96V617.036Z" fill="#D6D6D6"/>
<path d="M1964.5 664.089C1964.5 664.089 1964.71 664.265 1965.35 664.265L1972.64 663.208C1972.86 663.208 1973.07 663.032 1973.07 662.856V661.093L1964.5 663.208V664.089Z" fill="white"/>
<path d="M1972.43 660.038L1962.78 662.152L1933.4 668.32V670.787L1961.06 664.091V664.796C1961.06 665.324 1961.7 665.501 1962.78 665.324L1972.43 664.091C1973.28 663.915 1974.14 663.386 1974.14 662.681V660.919C1974.14 660.214 1973.28 659.861 1972.43 660.038ZM1973.07 662.857C1973.07 663.034 1972.85 663.21 1972.64 663.21L1965.35 664.267C1964.92 664.267 1964.49 664.267 1964.49 664.091V663.033L1973.07 660.919V662.857V662.857Z" fill="#D6D6D6"/>
<path d="M1933.62 665.148H1930.19V778.636H1933.62V665.148Z" fill="#D6D6D6"/>
<path d="M1971.99 686.995C1971.99 686.995 1972.21 687.171 1972.64 687.171L1978.43 686.466C1978.64 686.466 1978.86 686.29 1978.86 686.114V684.704L1971.99 686.29V686.995Z" fill="white"/>
<path d="M1978.43 683.824L1970.71 685.41L1947.12 690.344V692.283L1969.21 686.996V687.525C1969.21 687.877 1969.85 688.054 1970.49 688.054L1978.21 686.996C1978.85 686.82 1979.5 686.468 1979.5 685.939V684.529C1979.71 683.824 1979.07 683.648 1978.43 683.824ZM1978.85 685.939C1978.85 686.115 1978.64 686.291 1978.43 686.291L1972.64 686.996C1972.21 686.996 1971.99 686.996 1971.99 686.82V685.939L1978.85 684.353V685.939Z" fill="#D6D6D6"/>
<path d="M1947.12 687.877H1944.55V778.632H1947.12V687.877Z" fill="#D6D6D6"/>
<path d="M1982.72 700.741C1982.72 700.741 1982.93 700.917 1983.14 700.917L1988.08 700.213C1988.29 700.213 1988.29 700.036 1988.29 699.86V698.627L1982.5 700.036L1982.72 700.741Z" fill="white"/>
<path d="M1988.08 697.924L1981.65 699.333L1961.7 703.563V705.149L1980.57 700.567V701.096C1980.57 701.448 1981 701.624 1981.65 701.448L1988.29 700.567C1988.94 700.567 1989.36 700.038 1989.36 699.686V698.452C1989.15 698.1 1988.72 697.747 1988.08 697.924ZM1988.51 699.862C1988.51 700.038 1988.29 700.038 1988.29 700.215L1983.36 700.919C1982.93 700.919 1982.93 700.919 1982.93 700.743V700.038L1988.72 698.629V699.862H1988.51Z" fill="#D6D6D6"/>
<path d="M1961.71 701.448H1959.35V778.634H1961.71V701.448Z" fill="#D6D6D6"/>
<path d="M2001.59 708.497C2001.59 708.497 2001.81 708.673 2002.02 708.497L2006.52 707.968C2006.74 707.968 2006.74 707.792 2006.74 707.792V706.735L2001.38 707.968L2001.59 708.497Z" fill="white"/>
<path d="M2006.31 706.03L2000.52 707.264L1982.5 710.964V712.374L1999.44 708.321V708.85C1999.44 709.202 1999.87 709.378 2000.52 709.202L2006.52 708.321C2007.16 708.321 2007.59 707.792 2007.59 707.44V706.383C2007.38 706.03 2006.95 705.854 2006.31 706.03ZM2006.73 707.792C2006.73 707.969 2006.52 707.969 2006.52 707.969L2002.02 708.497C2001.8 708.497 2001.59 708.497 2001.59 708.497V707.969L2006.95 706.735V707.792H2006.73Z" fill="#D6D6D6"/>
<path d="M1982.5 709.202H1980.57V778.634H1982.5V709.202Z" fill="#D6D6D6"/>
<path d="M2018.09 713.435C2018.09 713.435 2018.31 713.611 2018.52 713.435L2022.6 712.906C2022.81 712.906 2022.81 712.73 2022.81 712.73V711.673L2017.88 712.906L2018.09 713.435Z" fill="white"/>
<path d="M2022.6 711.142L2017.24 712.376L2000.51 715.9V717.31L2016.17 713.433V713.785C2016.17 714.138 2016.59 714.138 2017.02 714.138L2022.6 713.433C2023.03 713.433 2023.46 713.08 2023.46 712.728V711.671C2023.67 711.142 2023.24 710.966 2022.6 711.142ZM2023.03 712.728C2023.03 712.904 2023.03 712.904 2022.81 712.904L2018.74 713.433C2018.52 713.433 2018.31 713.433 2018.31 713.433V712.904L2023.24 711.671V712.728H2023.03Z" fill="#D6D6D6"/>
<path d="M2000.51 713.962H1998.58V778.459H2000.51V713.962Z" fill="#D6D6D6"/>
<path d="M2046.19 718.012C2046.19 718.012 2046.41 718.188 2046.62 718.012L2050.48 717.483C2050.7 717.483 2050.7 717.307 2050.7 717.307V716.426L2046.19 717.483V718.012Z" fill="white"/>
<path d="M2050.48 715.898L2045.33 716.956L2029.89 720.128V721.361L2044.48 717.837V718.189C2044.48 718.366 2044.9 718.542 2045.33 718.542L2050.48 717.837C2050.91 717.837 2051.34 717.484 2051.34 717.132V716.251C2051.34 715.898 2050.91 715.722 2050.48 715.898ZM2050.91 717.308C2050.91 717.484 2050.91 717.484 2050.69 717.484L2046.83 718.013C2046.62 718.013 2046.41 718.013 2046.41 718.013V717.484L2050.91 716.427V717.308Z" fill="#D6D6D6"/>
<path d="M2029.89 718.542H2028.18V778.634H2029.89V718.542Z" fill="#D6D6D6"/>
<path d="M2104.51 722.244C2104.51 722.244 2104.73 722.421 2104.94 722.244L2108.59 721.716C2108.8 721.716 2108.8 721.54 2108.8 721.54V720.658L2104.51 721.716V722.244Z" fill="white"/>
<path d="M2108.37 720.13L2103.65 721.187L2089.29 724.183V725.417L2102.79 722.068V722.421C2102.79 722.597 2103.22 722.773 2103.65 722.773L2108.37 722.068C2108.8 722.068 2109.23 721.716 2109.23 721.363V720.482C2109.23 720.306 2108.8 720.13 2108.37 720.13ZM2108.8 721.54C2108.8 721.716 2108.8 721.716 2108.58 721.716L2104.94 722.245C2104.72 722.245 2104.51 722.245 2104.51 722.245V721.716L2108.8 720.659V721.54Z" fill="#D6D6D6"/>
<path d="M2089.28 722.774H2087.57V778.637H2089.28V722.774Z" fill="#D6D6D6"/>
<path d="M2172.69 726.121C2172.69 726.121 2172.91 726.298 2173.12 726.121L2176.34 725.593C2176.55 725.593 2176.55 725.417 2176.55 725.417V724.535L2172.69 725.417V726.121Z" fill="white"/>
<path d="M2176.34 724.359L2172.05 725.24L2158.54 728.06V729.117L2171.19 726.121V726.474C2171.19 726.65 2171.62 726.826 2172.05 726.826L2176.55 726.298C2176.98 726.298 2177.41 725.945 2177.41 725.593V724.712C2177.2 724.359 2176.77 724.183 2176.34 724.359ZM2176.55 725.593C2176.55 725.769 2176.55 725.769 2176.34 725.769L2173.12 726.298C2172.91 726.298 2172.69 726.298 2172.69 726.298V725.769L2176.55 724.888V725.593Z" fill="#D6D6D6"/>
<path d="M2158.54 726.648H2157.04V778.634H2158.54V726.648Z" fill="#D6D6D6"/>
<path d="M2252.46 729.821C2252.46 729.821 2252.67 729.821 2252.89 729.821L2255.89 729.469C2256.1 729.469 2256.1 729.293 2256.1 729.293V728.588L2252.46 729.469V729.821Z" fill="white"/>
<path d="M2255.89 728.059L2251.81 728.94L2239.38 731.584V732.641L2251.17 729.821V730.174C2251.17 730.35 2251.38 730.526 2251.81 730.35L2255.89 729.821C2256.32 729.821 2256.53 729.469 2256.53 729.293V728.588C2256.53 728.235 2256.1 728.059 2255.89 728.059ZM2256.1 729.293C2256.1 729.293 2256.1 729.469 2255.89 729.469L2252.88 729.821C2252.67 729.821 2252.46 729.821 2252.46 729.821V729.469L2256.1 728.588V729.293Z" fill="#D6D6D6"/>
<path d="M2239.38 730.176H2237.88V778.461H2239.38V730.176Z" fill="#D6D6D6"/>
<path d="M2442.44 736.339C2442.44 736.339 2442.44 736.339 2442.65 736.339L2445.23 735.986C2445.23 735.986 2445.44 735.986 2445.44 735.81V735.105L2442.22 735.81V736.339H2442.44Z" fill="white"/>
<path d="M2445.23 734.929L2441.8 735.634L2431.07 737.924V738.806L2441.15 736.338V736.691C2441.15 736.867 2441.37 737.043 2441.8 736.867L2445.44 736.338C2445.87 736.338 2446.08 735.986 2446.08 735.81V735.105C2445.87 734.929 2445.65 734.752 2445.23 734.929ZM2445.65 735.986C2445.65 735.986 2445.44 735.986 2445.65 735.986L2442.87 736.515C2442.65 736.515 2442.65 736.515 2442.65 736.515V736.162L2445.87 735.457V735.986H2445.65Z" fill="#D6D6D6"/>
<path d="M2431.08 736.691H2429.79V778.456H2431.08V736.691Z" fill="#D6D6D6"/>
<path d="M1788.46 500.2C1788.46 500.552 1786.95 501.257 1784.38 500.905L1747.29 495.97H1746.86C1745.36 495.618 1744.5 494.737 1744.5 493.856V484.516L1788.46 495.266V500.2Z" fill="white"/>
<path d="M1739.35 483.283V492.623C1739.35 495.795 1743.21 498.967 1747.93 499.496L1797.24 506.192C1801.96 506.897 1805.82 505.487 1805.82 503.02V499.32L1814.61 501.434V493.681L1797.03 489.98L1747.93 479.407C1743.21 478.349 1739.35 479.935 1739.35 483.283ZM1744.5 484.341L1788.45 495.09V500.201C1788.45 500.553 1786.95 501.258 1784.38 500.906L1747.28 495.971H1746.86C1745.35 495.619 1744.5 494.738 1744.5 493.857V484.341Z" fill="#D6D6D6"/>
<path d="M1823.62 483.637H1814.83V690.875H1823.62V483.637Z" fill="#D6D6D6"/>
<path d="M1826.62 695.81H1811.83V778.634H1826.62V695.81Z" fill="#D6D6D6"/>
<path d="M1823.62 691.05H1814.83L1811.83 695.808H1826.62L1823.62 691.05Z" fill="#D6D6D6"/>
<path d="M1799.39 435.176C1799.39 435.528 1797.46 436.409 1794.46 436.057L1748.79 429.889L1748.14 429.713C1746.43 429.361 1745.14 428.303 1745.14 427.07V415.615L1799.39 428.832V435.176Z" fill="white"/>
<path d="M1738.71 414.205V425.66C1738.71 429.537 1743.43 433.414 1749.21 434.119L1810.11 442.401C1815.9 443.106 1820.62 441.52 1820.62 438.524V433.942L1831.55 436.586V426.894L1749.21 409.271C1743.43 408.214 1738.71 410.329 1738.71 414.205ZM1745.14 415.615L1799.39 428.832V435.176C1799.39 435.528 1797.46 436.41 1794.46 436.057L1748.79 429.889L1748.14 429.713C1746.43 429.361 1745.14 428.303 1745.14 427.07V415.615Z" fill="#D6D6D6"/>
<path d="M1842.49 414.732H1831.55V670.431H1842.49V414.732Z" fill="#D6D6D6"/>
<path d="M1846.35 676.425H1828.12V778.634H1846.35V676.425Z" fill="#D6D6D6"/>
<path d="M1842.49 670.433H1831.55L1828.12 676.425H1846.13L1842.49 670.433Z" fill="#D6D6D6"/>
<path d="M1778.16 555.89C1778.16 556.067 1776.87 556.772 1774.94 556.419L1745.35 552.366H1744.92C1743.85 552.19 1743 551.485 1743 550.604V543.202L1778.16 551.837V555.89Z" fill="white"/>
<path d="M1738.92 542.319V549.721C1738.92 552.188 1741.92 554.655 1745.78 555.183L1785.24 560.47C1789.1 560.999 1792.1 559.765 1792.1 558.003V555.007L1799.17 556.77V550.602L1785.02 547.606L1745.78 539.147C1741.92 538.266 1738.92 539.676 1738.92 542.319ZM1742.99 543.2L1778.16 551.835V555.888C1778.16 556.065 1776.87 556.769 1774.94 556.417L1745.35 552.364H1744.92C1743.85 552.188 1742.99 551.483 1742.99 550.602V543.2Z" fill="#D6D6D6"/>
<path d="M1806.25 542.67H1799.17V708.496H1806.25V542.67Z" fill="#D6D6D6"/>
<path d="M1808.61 712.374H1796.81V778.634H1808.61V712.374Z" fill="#D6D6D6"/>
<path d="M1806.25 708.497H1799.17L1796.81 712.374H1808.61L1806.25 708.497Z" fill="#D6D6D6"/>
<path d="M1764.44 600.475C1764.44 600.651 1763.37 601.18 1761.86 601.003L1738.06 597.831H1737.85C1736.99 597.655 1736.35 597.126 1736.35 596.421V590.43L1764.44 597.303V600.475Z" fill="white"/>
<path d="M1733.13 589.547V595.538C1733.13 597.653 1735.49 599.592 1738.7 599.944L1770.22 604.173C1773.23 604.526 1775.59 603.645 1775.59 602.059V599.768L1781.16 601.178V596.243L1769.8 593.952L1738.28 587.08C1735.49 586.375 1733.13 587.432 1733.13 589.547ZM1736.35 590.252L1764.44 597.124V600.473C1764.44 600.649 1763.36 601.178 1761.86 601.001L1738.06 597.829H1737.85C1736.99 597.653 1736.35 597.124 1736.35 596.42V590.252Z" fill="#D6D6D6"/>
<path d="M1787.17 589.898H1781.38V722.593H1787.17V589.898Z" fill="#D6D6D6"/>
<path d="M1788.88 725.591H1779.45V778.634H1788.88V725.591Z" fill="#D6D6D6"/>
<path d="M1786.95 722.419H1781.38L1779.45 725.591H1788.88L1786.95 722.419Z" fill="#D6D6D6"/>
<path d="M1748.14 640.475C1748.14 640.651 1747.28 641.004 1746.21 640.828L1727.77 638.36H1727.56C1726.91 638.184 1726.27 637.832 1726.27 637.303V632.721L1748.14 638.008V640.475Z" fill="white"/>
<path d="M1723.7 632.016V636.598C1723.7 638.184 1725.63 639.77 1727.98 639.946L1752.43 643.295C1754.79 643.647 1756.72 642.942 1756.72 641.709V639.946L1761.01 641.004V637.127L1752.21 635.365L1727.77 630.078C1725.63 629.549 1723.7 630.43 1723.7 632.016ZM1726.27 632.545L1748.14 637.832V640.299C1748.14 640.475 1747.28 640.828 1746.21 640.651L1727.77 638.184H1727.56C1726.91 638.008 1726.27 637.656 1726.27 637.127V632.545V632.545Z" fill="#D6D6D6"/>
<path d="M1765.51 632.194H1761V735.108H1765.51V632.194Z" fill="#D6D6D6"/>
<path d="M1767.01 737.399H1759.72V778.459H1767.01V737.399Z" fill="#D6D6D6"/>
<path d="M1765.51 735.107H1761.01L1759.72 737.398H1767.01L1765.51 735.107Z" fill="#D6D6D6"/>
<path d="M1724.34 672.546C1724.34 672.722 1723.7 672.899 1722.84 672.899L1708.69 670.96H1708.47C1707.83 670.784 1707.62 670.608 1707.62 670.079V666.555L1724.34 670.608V672.546Z" fill="white"/>
<path d="M1705.69 666.204V669.728C1705.69 670.962 1707.19 672.195 1708.9 672.371L1727.77 674.839C1729.49 675.015 1730.99 674.486 1730.99 673.605V672.195L1734.42 673.076V670.081L1727.77 668.671L1709.12 664.618C1707.19 664.265 1705.69 664.97 1705.69 666.204ZM1707.62 666.556L1724.34 670.609V672.548C1724.34 672.724 1723.7 672.9 1722.84 672.9L1708.69 670.962H1708.47C1707.83 670.785 1707.62 670.609 1707.62 670.081V666.556Z" fill="#D6D6D6"/>
<path d="M1737.85 666.381H1734.42V745.329H1737.85V666.381Z" fill="#D6D6D6"/>
<path d="M1738.71 747.09H1733.13V778.634H1738.71V747.09Z" fill="#D6D6D6"/>
<path d="M1737.63 745.151H1734.42L1733.13 747.09H1738.71L1737.63 745.151Z" fill="#D6D6D6"/>
<path d="M1698.4 695.457C1698.4 695.633 1697.97 695.809 1697.11 695.633L1685.96 694.223H1685.75C1685.32 694.047 1685.1 693.871 1685.1 693.518V690.699L1698.18 693.871L1698.4 695.457Z" fill="white"/>
<path d="M1683.82 690.346V693.166C1683.82 694.047 1684.89 695.104 1686.39 695.28L1701.19 697.219C1702.69 697.395 1703.76 697.043 1703.76 696.338V695.28L1706.33 695.985V693.518L1700.97 692.461L1686.39 689.289C1684.89 688.936 1683.82 689.465 1683.82 690.346ZM1685.32 690.699L1698.4 693.871V695.457C1698.4 695.633 1697.97 695.809 1697.11 695.633L1685.96 694.223H1685.75C1685.32 694.047 1685.1 693.871 1685.1 693.518V690.699H1685.32Z" fill="#D6D6D6"/>
<path d="M1708.91 690.521H1706.33V752.375H1708.91V690.521Z" fill="#D6D6D6"/>
<path d="M1709.77 753.786H1705.26V778.457H1709.77V753.786Z" fill="#D6D6D6"/>
<path d="M1708.91 752.375H1706.34L1705.26 753.785H1709.77L1708.91 752.375Z" fill="#D6D6D6"/>
<path d="M1669.88 712.018C1669.88 712.018 1669.45 712.194 1669.02 712.194L1660.23 710.961C1659.8 710.961 1659.59 710.608 1659.59 710.432V708.141L1670.09 710.784L1669.88 712.018Z" fill="white"/>
<path d="M1658.09 707.967V710.258C1658.09 710.962 1658.94 711.844 1660.23 711.844L1672.02 713.43C1673.1 713.606 1674.17 713.253 1674.17 712.725V711.844L1676.31 712.372V710.434L1672.02 709.553L1660.23 707.086C1659.16 706.909 1658.09 707.262 1658.09 707.967ZM1659.37 708.319L1669.88 710.962V712.196C1669.88 712.196 1669.45 712.372 1669.02 712.372L1660.23 711.139C1659.8 711.139 1659.59 710.786 1659.59 710.61V708.319H1659.37Z" fill="#D6D6D6"/>
<path d="M1678.24 708.141H1676.1V757.66H1678.24V708.141Z" fill="#D6D6D6"/>
<path d="M1678.88 758.72H1675.45V778.457H1678.88V758.72Z" fill="#D6D6D6"/>
<path d="M1678.24 757.66H1676.1L1675.45 758.717H1678.88L1678.24 757.66Z" fill="#D6D6D6"/>
<path d="M1634.07 725.413C1634.07 725.413 1633.86 725.589 1633.21 725.589L1626.14 724.708C1625.92 724.708 1625.71 724.532 1625.71 724.356V722.593L1634.07 724.708V725.413Z" fill="white"/>
<path d="M1624.64 722.066V723.828C1624.64 724.357 1625.28 725.062 1626.35 725.238L1635.79 726.472C1636.64 726.648 1637.5 726.296 1637.5 725.943V725.238L1639.22 725.591V724.181L1635.79 723.476L1626.35 721.361C1625.28 721.185 1624.64 721.538 1624.64 722.066ZM1625.49 722.419L1633.86 724.533V725.591C1633.86 725.591 1633.64 725.767 1633 725.767L1625.92 724.886C1625.71 724.886 1625.49 724.71 1625.49 724.533V722.419Z" fill="#D6D6D6"/>
<path d="M1640.71 722.242H1639V761.893H1640.71V722.242Z" fill="#D6D6D6"/>
<path d="M1641.15 762.772H1638.36V778.632H1641.15V762.772Z" fill="#D6D6D6"/>
<path d="M1640.72 761.893H1639.01L1638.36 762.774H1641.15L1640.72 761.893Z" fill="#D6D6D6"/>
<path d="M1597.62 735.987C1597.62 735.987 1597.4 736.163 1596.97 736.163L1591.4 735.458C1591.19 735.458 1590.97 735.282 1590.97 735.105V733.696L1597.62 735.282V735.987Z" fill="white"/>
<path d="M1590.11 733.343V734.753C1590.11 735.282 1590.76 735.634 1591.4 735.81L1598.9 736.868C1599.55 737.044 1600.19 736.691 1600.19 736.339V735.81L1601.48 736.163V734.929L1598.69 734.4L1591.19 732.814C1590.76 732.638 1590.11 732.991 1590.11 733.343ZM1590.97 733.519L1597.62 735.105V735.81C1597.62 735.81 1597.4 735.986 1596.97 735.986L1591.4 735.282C1591.19 735.282 1590.97 735.105 1590.97 734.929V733.519Z" fill="#D6D6D6"/>
<path d="M1602.98 733.517H1601.69V765.237H1602.98V733.517Z" fill="#D6D6D6"/>
<path d="M1603.62 765.944H1601.26V778.632H1603.62V765.944Z" fill="#D6D6D6"/>
<path d="M1602.97 765.239H1601.69L1601.26 765.944H1603.4L1602.97 765.239Z" fill="#D6D6D6"/>
<path d="M1557.74 744.448C1557.74 744.448 1557.52 744.625 1557.31 744.448L1552.8 743.92C1552.59 743.92 1552.59 743.743 1552.59 743.567V742.51L1557.95 743.743L1557.74 744.448Z" fill="white"/>
<path d="M1551.73 742.508V743.565C1551.73 743.918 1552.16 744.27 1552.8 744.447L1558.81 745.328C1559.45 745.328 1559.88 745.151 1559.88 744.975V744.447L1560.95 744.623V743.742L1558.81 743.213L1552.8 741.979C1552.16 741.803 1551.73 741.979 1551.73 742.508ZM1552.37 742.508L1557.73 743.742V744.447C1557.73 744.447 1557.52 744.623 1557.31 744.447L1552.8 743.918C1552.59 743.918 1552.59 743.742 1552.59 743.565V742.508H1552.37Z" fill="#D6D6D6"/>
<path d="M1562.03 742.51H1560.95V767.886H1562.03V742.51Z" fill="#D6D6D6"/>
<path d="M1562.24 768.414H1560.52V778.459H1562.24V768.414Z" fill="#D6D6D6"/>
<path d="M1562.02 767.882H1560.95L1560.52 768.411H1562.24L1562.02 767.882Z" fill="#D6D6D6"/>
<path opacity="0.66" d="M-39.7682 896.236V861.536H-29.0931V811.285H17.6228V819.393H72.3486V853.439H79.0204V896.708H97.9053V873.413H139.218V854.501H195.341V826.128H211.356V730.473H233.308V646.164H278.558V711.018H304.789V780.732H311.46V865.747H324.811V892.599H355.508V839.634H368.855V792.082H386.205V780.732H471.63V792.082H506.333V818.834H515.677V852.689H528.761V653.461H543.446V638.87H603.509V604.819H651.559V653.461V672.916V708.583H659.565V876.902V866.017L659.564 763.752V596.962H670.242V548.32H688.93V490H721.241V548.32H735.643V576.694H744.986V733.962H773.015V769.33H890.472V522.383H898.482V509.408H962.548V522.383H971.889V769.33H1014.6V666.676H1021.17V618.038H1043.96V606.688H1092.01V618.038H1121.38V645.601H1133.39V733.962H1152.08V744.358H1174.77V678.026H1177.15V640.203H1213.19V672.628H1245.22V678.026H1249.51V744.358H1277.26V811.835H1295V1121H-57V896.236H-39.7682Z" fill="#E9E9E9"/>
</g>
<defs>
<clipPath id="clip0">
<rect width="2500" height="960" fill="white"/>
</clipPath>
</defs>
</svg>
