<svg width="2500" height="960" fill="none" xmlns="http://www.w3.org/2000/svg"><g clip-path="url(#clip0)"><path d="M-32 702h2532v37H-32v-37z" fill="#A0A1A2"/><path fill="#fff" d="M-2 726h2504v234H-2z"/><path d="M1954.3 709.592l13.18-.115-4.08-165.938-7.91.069-1.19 165.984zm-14.12-137.684c-1.05.009-1.03 2.609-2.35 2.62-1.05.01-1.07-2.374-2.39-2.146l-.02-2.383c1.06-.009 1.03-2.609 2.35-2.62 1.06-.01 1.08 2.374 2.39 2.362l.02 2.167z" fill="#A0A1A2"/><path d="M1944.66 571.652c-1.05.009-1.03 2.609-2.35 2.621-1.05.009-1.07-2.375-2.39-2.146l-.02-2.384c1.06-.009 1.03-2.609 2.35-2.62 1.06-.009 1.08 2.374 2.39 2.146l.02 2.383z" fill="#A0A1A2"/><path d="M1949.14 571.179c-1.05.01-1.03 2.61-2.35 2.621-1.05.009-1.07-2.374-2.39-2.362l-.02-2.384c1.05-.009 1.03-2.609 2.35-2.62 1.05-.01 1.08 2.374 2.39 2.146l.02 2.599z" fill="#A0A1A2"/><path d="M1964.69 569.96l-15.55 1.22-.02-2.384 15.55-1.219.02 2.383zm-29.25 2.422l-43.73 3.416-.02-2.384 43.73-3.415.02 2.383zm52.53 7.776c.01.867 2.91.841 2.92 1.708.01.867-2.89 1.109-2.88 2.192l-2.9.242c-.01-.867-2.91-.842-2.91-1.708-.01-1.083 2.89-1.109 2.88-2.192l2.89-.242z" fill="#A0A1A2"/><path d="M1987.94 576.26c.01 1.084 2.91.842 2.92 1.708 0 .867-2.9 1.109-2.89 2.192l-2.89.242c-.01-.867-2.91-.841-2.92-1.708-.01-1.083 2.89-1.109 2.88-2.192l2.9-.242zm-.03-3.902c0 .867 2.9.842 2.91 1.708.01.867-2.89 1.109-2.88 2.192l-2.9.242c-.01-1.083-2.9-.841-2.91-1.708-.01-1.083 2.89-1.108 2.88-2.192l2.9-.242zm.1 11.702l.03 3.466-2.9.242-.03-3.466 2.9-.242zm-45.17 19.461c-1.06-.424-2.63 1.54-3.42 1.113-1.06-.424.77-2.607-.29-3.031l1.56-2.18c1.06.424 2.62-1.54 3.42-1.113 1.06.424-.77 2.606.29 3.03l-1.56 2.181z" fill="#A0A1A2"/><path d="M1946.54 605.44c-1.06-.424-2.62 1.756-3.42 1.113-1.06-.424.77-2.607-.29-3.031l1.57-2.18c1.05.424 2.62-1.54 3.41-1.113 1.06.424-.76 2.607.29 3.031l-1.56 2.18z" fill="#A0A1A2"/><path d="M1950.25 607.354c-1.06-.424-2.63 1.54-3.42 1.113-1.06-.424.77-2.606-.29-3.03l1.56-2.181c1.06.424 2.62-1.539 3.42-1.113 1.06.424-.77 2.607.29 3.031l-1.56 2.18zm4.77 2.561l-4.77-2.559 1.57-1.963 3.17 1.705.03 2.817zm-16.16-8.309l-55.35-28.769 1.56-1.964 55.35 28.769-1.56 1.964z" fill="#A0A1A2"/><path d="M1935.94 599.466l-59.01 4.631-.01-1.516 59.01-4.849.01 1.734zm53.02-27.116l-34.25 2.683-.01-1.517 34.25-2.899.01 1.733z" fill="#A0A1A2"/><path d="M1884.02 602.084l7.16-26.28.79-.007-7.15 26.497-.8-.21zm30.4 8.185c-.01-.65-1.07-1.507-2.65-1.71l-23.75-1.96c-2.37-.196-4.49-1.477-4.51-3.211l2.11-.235c.01.65 1.07 1.508 2.65 1.711l23.75 1.959c2.37.196 4.49 1.478 4.51 3.428l-2.11.018zm47.42-64.552l.52-.438 25.8 25.993-.78.657-25.54-26.212z" fill="#A0A1A2"/><path d="M1957.43 675.549l.03 34.018 6.07-.053-.83-34.011-5.27.046z" fill="#fff"/><path d="M1965.56 609.173l-10.54.742-.03-2.817 10.54-.958.03 3.033zm-200.8 102.073l-11.86.104 1.08-148.433 7.11-.062 3.67 148.391zm10.5-125.977c1.06-.009 1.08 2.158 2.13 1.932 1.05-.009 1.03-2.176 2.09-2.402l-.02-2.166c-1.06.009-1.07-2.158-2.13-1.932-1.05.009-1.03 2.176-2.09 2.402l.02 2.166z" fill="#A0A1A2"/><path d="M1771.05 585.738c1.06-.01 1.08 2.157 2.13 1.931 1.05-.009 1.04-2.176 2.09-2.402l-.02-2.166c-1.06.009-1.07-2.158-2.13-1.932-1.05.01-1.03 2.176-2.09 2.402l.02 2.167z" fill="#A0A1A2"/><path d="M1767.1 585.991c1.05-.009 1.07 2.157 2.13 1.931 1.05-.009 1.03-2.175 2.08-2.401l-.02-2.167c-1.05.009-1.07-2.157-2.12-1.931-1.06.009-1.04 2.175-2.09 2.401l.02 2.167z" fill="#A0A1A2"/><path d="M1753.13 586.977l13.97-.988-.02-2.167-13.96 1.205.01 1.95zm26.09-1.961l39.26-3.159-.02-2.167-39.26 3.16.02 2.166zm-46.54 14.491c0 .866-2.63 1.106-2.62 1.973.01.866 2.64.627 2.65 1.493l2.37-.237c-.01-.867 2.63-1.106 2.62-1.973-.01-.867-2.64-.627-2.65-1.494l-2.37.238z" fill="#A0A1A2"/><path d="M1732.65 596.04c0 .867-2.63 1.106-2.62 1.973.01.867 2.64.627 2.65 1.494l2.37-.238c-.01-.866 2.62-1.106 2.62-1.973-.01-.866-2.64-.627-2.65-1.493l-2.37.237z" fill="#A0A1A2"/><path d="M1732.62 592.574c0 .866-2.63 1.106-2.62 1.973 0 .866 2.64.626 2.65 1.493l2.37-.237c-.01-.867 2.62-1.107 2.62-1.973-.01-.867-2.65-.627-2.65-1.494l-2.37.238zm.09 10.399l.03 3.25 2.37-.237-.03-3.033-2.37.02zm40.69 10.91c.79-.657 2.38 1.063 3.17.623.79-.657-.55-2.162.24-2.819l-1.33-1.722c-.79.657-2.39-1.063-3.17-.622-.79.656.54 2.162-.24 2.818l1.33 1.722zm-3.4 2.413c.78-.656 2.38 1.063 3.17.623.78-.657-.55-2.162.24-2.819l-1.34-1.722c-.78.657-2.38-1.062-3.17-.622-.78.657.55 2.162-.23 2.819l1.33 1.721z" fill="#A0A1A2"/><path d="M1766.85 618.489c.79-.657 2.38 1.063 3.17.623.79-.657-.55-2.162.24-2.819l-1.33-1.722c-.79.657-2.39-1.063-3.17-.622-.79.657.54 2.162-.24 2.819l1.33 1.721zm-4.45 2.859l4.45-2.856-1.59-1.719-2.89 1.975.03 2.6zm14.15-9.659l49.27-33.798-1.59-1.503-49.01 33.579 1.33 1.722z" fill="#A0A1A2"/><path d="M1779.42 609.281l52.69-4.36-.01-1.3-52.69 4.143.01 1.517zm-47.86-16.484l30.56-2.65-.01-1.3-30.56 2.434.01 1.516z" fill="#A0A1A2"/><path d="M1825.78 604.107l-6.78-22.475-.79.224 6.78 22.475.79-.224zm-27.04 11.939c-.01-.434 1.04-1.526 2.35-1.971l21.31-5.169c2.11-.452 3.94-1.985 3.92-3.718l-1.84.233c.01.433-1.04 1.525-2.35 1.97l-21.31 5.17c-2.11.451-3.94 1.984-3.93 3.717l1.85-.232zm-43.43-50.976l-.53-.428-22.44 27.063.54.429 22.43-27.064z" fill="#A0A1A2"/><path d="M1761.33 680.727l.53 30.547-5.54.048.26-30.554 4.75-.041z" fill="#fff"/><path d="M1752.91 622.077l9.48-.733-.02-2.6-9.49.95.03 2.383z" fill="#A0A1A2"/><path d="M1761.47 665.772c0 .216-.26.435-.53.437l-3.69.033c-.26.002-.53-.212-.53-.429l-.02-3.033c-.01-.217.26-.436.52-.438l3.69-.032c.26-.003.53.212.53.428l.03 3.034zm200.83-6.953c.01.216-.26.435-.52.438l-4.22.036c-.26.003-.53-.212-.53-.428l-.03-3.467c0-.217.26-.435.52-.438l4.22-.037c.27-.002.53.212.53.429l.03 3.467z" fill="#fff"/><path d="M1619.51 712.514l16.34-.143-4.97-207.315-10.02.087-1.35 207.371zm-17.86-172.103c-1.32.011-1.29 3.261-2.87 3.275-1.32.011-1.34-3.022-2.92-2.792l-.03-3.033c1.32-.011 1.29-3.261 2.87-3.275 1.32-.011 1.35 3.022 2.93 2.791l.02 3.034z" fill="#A0A1A2"/><path d="M1607.45 539.928c-1.32.012-1.29 3.262-2.87 3.276-1.32.011-1.35-3.022-2.93-2.792l-.03-3.033c1.32-.011 1.29-3.261 2.88-3.275 1.31-.012 1.34 3.022 2.92 2.791l.03 3.033z" fill="#A0A1A2"/><path d="M1612.98 539.445c-1.32.012-1.29 3.261-2.88 3.275-1.31.012-1.34-3.021-2.92-2.791l-.03-3.033c1.32-.012 1.29-3.262 2.87-3.275 1.32-.012 1.35 3.021 2.93 2.791l.03 3.033zm19.5-1.47l-19.5 1.47-.02-3.033 19.49-1.47.03 3.033zm-36.36 2.917l-55.06 4.381-.03-3.033 55.06-4.381.03 3.033zm65.2 9.831c.02 1.3 3.44.837 3.45 2.137.01 1.3-3.41 1.547-3.4 2.63l-3.43.246c-.01-1.3-3.43-.836-3.45-2.136-.01-1.3 3.42-1.547 3.41-2.63l3.42-.247zm-.04-4.766c.01 1.3 3.44.837 3.45 2.136.01 1.3-3.41 1.547-3.41 2.63l-3.42.247c-.01-1.3-3.44-.837-3.45-2.137-.01-1.3 3.42-1.546 3.41-2.63l3.42-.246zm-.04-4.983c.01 1.3 3.43.836 3.45 2.136.01 1.3-3.42 1.547-3.41 2.63l-3.42.247c-.02-1.3-3.44-.837-3.45-2.137-.01-1.3 3.41-1.547 3.4-2.63l3.43-.246zm.13 14.732l.04 4.334-3.43.246-.03-4.333 3.42-.247zm-56.47 24.329c-1.06-.64-3.14 1.978-4.46 1.556-1.07-.641.76-3.257-.3-3.897l2.08-2.619c1.06.641 3.15-1.977 4.47-1.555 1.06.64-.76 3.256.3 3.897l-2.09 2.618z" fill="#A0A1A2"/><path d="M1609.66 582.379c-1.06-.641-3.14 1.978-4.46 1.556-1.06-.641.76-3.257-.3-3.898l2.08-2.618c1.06.641 3.15-1.977 4.47-1.556 1.06.641-.76 3.257.3 3.898l-2.09 2.618z" fill="#A0A1A2"/><path d="M1614.17 584.722c-1.06-.641-3.15 1.977-4.47 1.555-1.06-.64.76-3.256-.3-3.897l2.09-2.619c1.06.641 3.14-1.977 4.47-1.555 1.06.64-.77 3.256.29 3.897l-2.08 2.619z" fill="#A0A1A2"/><path d="M1620.26 587.919l-6.09-3.197 2.08-2.619 3.98 2.132.03 3.684zm-19.86-10.444l-69.39-35.796 1.82-2.616 69.39 35.796-1.82 2.616z" fill="#A0A1A2"/><path d="M1596.42 574.693l-73.77 6.06-.02-1.95 73.77-6.06.02 1.95zm66.41-33.733l-42.69 3.406-.01-2.167 42.68-3.406.02 2.167z" fill="#A0A1A2"/><path d="M1531.59 578.292l8.94-33.013 1.06-.009-8.94 33.013-1.06.009zm38.05 10.07c-.01-.65-1.34-1.939-3.45-2.137l-29.81-2.34c-2.9-.191-5.55-1.902-5.57-4.068l2.63-.24c.01.65 1.34 1.939 3.45 2.137l29.81 2.34c2.9.191 5.56 1.901 5.57 4.068l-2.63.24zm59.15-80.688l.78-.657 32.19 32.654-.79.657-32.18-32.654z" fill="#A0A1A2"/><path d="M1623.61 670.008l-.15 42.47 7.38-.065-.9-42.46-6.33.055z" fill="#fff"/><path d="M1633.44 586.937l-13.18.981-.03-3.683 13.17-.981.04 3.683zm-250.93 127.645l-14.76.129 1.28-185.703 8.7-.076 4.78 185.65zm13.12-157.419c1.32-.012 1.34 2.588 2.66 2.577 1.32-.012 1.29-2.829 2.61-2.84l-.02-2.6c-1.32.012-1.34-2.588-2.66-2.577-1.32.012-1.29 2.828-2.61 2.84l.02 2.6z" fill="#A0A1A2"/><path d="M1390.62 557.638c1.32-.012 1.35 2.588 2.66 2.576 1.32-.011 1.3-2.828 2.61-2.839l-.02-2.6c-1.32.012-1.34-2.588-2.66-2.577-1.31.012-1.29 2.828-2.61 2.84l.02 2.6z" fill="#A0A1A2"/><path d="M1385.35 557.898c1.32-.011 1.35 2.589 2.66 2.577 1.32-.011 1.3-2.828 2.62-2.84l-.03-2.599c-1.32.011-1.34-2.589-2.66-2.577-1.31.011-1.29 2.828-2.61 2.839l.02 2.6z" fill="#A0A1A2"/><path d="M1367.97 559.35l17.38-1.452-.02-2.6-17.39 1.452.03 2.6zm32.67-2.667l49-3.894-.02-2.6-49 3.895.02 2.599zm-58.38 18.274c.01 1.084-3.15 1.328-3.14 2.411.01 1.083 3.17.839 3.18 1.923l3.16-.245c-.01-1.083 3.16-1.327 3.15-2.411-.01-1.083-3.17-.839-3.18-1.922l-3.17.244z" fill="#A0A1A2"/><path d="M1342.23 570.626c.01 1.083-3.16 1.327-3.15 2.41.01 1.084 3.18.84 3.18 1.923l3.17-.244c-.01-1.084 3.15-1.328 3.14-2.411-.01-1.084-3.17-.839-3.18-1.923l-3.16.245z" fill="#A0A1A2"/><path d="M1342.19 566.292c.01 1.084-3.15 1.328-3.14 2.411.01 1.084 3.17.839 3.18 1.923l3.16-.245c-.01-1.083 3.15-1.327 3.14-2.411-.01-1.083-3.17-.839-3.18-1.922l-3.16.244zm.12 12.998l.03 3.9 3.16-.245-.03-3.9-3.16.245zm51 13.644c1.05-.66 2.91 1.274 3.96.615 1.05-.659-.82-2.81.23-3.469l-1.86-2.15c-1.05.659-2.91-1.275-3.96-.616-1.05.659.81 2.81-.23 3.469l1.86 2.151zm-4.2 2.853c1.05-.659 2.92 1.275 3.96.615 1.05-.659-.81-2.809.24-3.468l-1.87-2.151c-1.04.659-2.91-1.275-3.96-.615-1.04.659.82 2.809-.23 3.468l1.86 2.151z" fill="#A0A1A2"/><path d="M1384.92 598.64c1.05-.659 2.91 1.275 3.96.616 1.05-.659-.81-2.81.24-3.469l-1.87-2.151c-1.05.66-2.91-1.274-3.96-.615-1.05.659.82 2.81-.23 3.469l1.86 2.15z" fill="#A0A1A2"/><path d="M1379.68 602.367l5.24-3.729-1.86-1.934-3.4 2.413.02 3.25zm17.82-12.289l61.33-42.137-1.86-1.934-61.33 42.137 1.86 1.934z" fill="#A0A1A2"/><path d="M1400.9 587.018l65.87-5.342-.02-1.733-65.86 5.341.01 1.734zm-59.76-20.715l38.2-2.933-.02-1.95-38.2 3.15.02 1.733z" fill="#A0A1A2"/><path d="M1458.85 580.879l-8.68-28.309-.79.44 8.42 28.095 1.05-.226zm-33.89 14.592c0-.65 1.3-1.961 3.15-2.411l26.57-6.515c2.63-.673 4.98-2.427 4.97-4.594l-2.38.238c.01.65-1.3 1.961-3.14 2.411l-26.57 6.515c-2.63.673-4.99 2.427-4.97 4.594l2.37-.238zm-54.07-63.664l-.8-.426-28.17 33.83.79.427 28.18-33.831z" fill="#A0A1A2"/><path d="M1378.21 676.486l.6 38.13-6.86.059.46-38.139 5.8-.05z" fill="#fff"/><path d="M1367.82 603.339l11.86-.971-.03-3.249-11.85.97.02 3.25z" fill="#A0A1A2"/><path d="M1378.59 657.849c0 .217-.26.652-.79.657l-4.74.042c-.27.002-.8-.21-.8-.644l-.03-3.899c-.01-.217.25-.653.78-.657l4.75-.042c.26-.002.79.21.79.643l.04 3.9zm250.91-8.69c0 .216-.26.652-.79.656l-5.27.046c-.26.003-.79-.209-.8-.643l-.03-4.333c-.01-.216.25-.652.78-.657l5.27-.046c.27-.002.8.21.8.643l.04 4.334z" fill="#fff"/><path d="M1417.57 714.274l20.57-.18-6.48-259.088-12.13.106-1.96 259.162zm-22.18-215.183c-1.84.233-1.81 3.916-3.39 4.147-1.84.232-1.88-3.667-3.46-3.437l-.03-3.683c1.84-.233 1.81-3.916 3.39-4.147 1.84-.232 1.88 3.668 3.46 3.437l.03 3.683zm7.12-.493c-1.84.232-1.81 3.916-3.39 4.146-1.84.233-1.88-3.667-3.46-3.437l-.03-3.683c1.85-.233 1.81-3.916 3.39-4.146 1.85-.233 1.88 3.667 3.46 3.436l.03 3.684zm7.12-.498c-1.85.233-1.81 3.916-3.39 4.147-1.85.233-1.88-3.667-3.46-3.437l-.03-3.683c1.84-.233 1.81-3.916 3.39-4.146 1.84-.233 1.87 3.667 3.45 3.436l.04 3.683z" fill="#A0A1A2"/><path d="M1433.86 496.155l-24.24 1.945-.03-3.899 24.24-1.945.03 3.899zm-45.58 3.65l-68.5 5.365-.03-3.684 68.5-5.581.03 3.9zm81.84 12.283c.01 1.517 4.49 1.261 4.5 2.778.02 1.516-4.46 1.772-4.45 3.505l-4.48.256c-.01-1.517-4.49-1.261-4.5-2.777-.02-1.517 4.46-1.773 4.45-3.506l4.48-.256z" fill="#A0A1A2"/><path d="M1470.07 506.023c.01 1.517 4.49 1.261 4.5 2.778.02 1.516-4.46 1.989-4.45 3.505l-4.48.256c-.01-1.516-4.49-1.261-4.51-2.777-.01-1.517 4.47-1.989 4.46-3.506l4.48-.256z" fill="#A0A1A2"/><path d="M1470.01 499.955c.02 1.517 4.5 1.261 4.51 2.778.01 1.516-4.47 1.772-4.45 3.505l-4.48.256c-.02-1.517-4.5-1.261-4.51-2.777-.01-1.517 4.47-1.773 4.45-3.506l4.48-.256zm.16 18.2l.05 5.416-4.48.256-.05-5.417 4.48-.255zm-70.65 30.519c-1.59-.853-3.93 2.635-5.52 1.782-1.59-.853 1.02-4.126-.31-4.764l2.35-3.271c1.59.853 3.93-2.635 5.52-1.782 1.32.855-1.02 4.126.3 4.765l-2.34 3.27z" fill="#A0A1A2"/><path d="M1405.34 551.657c-1.59-.853-3.93 2.634-5.52 1.781-1.59-.852 1.02-4.125-.31-4.764l2.35-3.27c1.59.852 3.93-2.635 5.52-1.782 1.59.853-1.02 4.126.3 4.764l-2.34 3.271zm5.83 2.985c-1.33-.855-3.93 2.634-5.52 1.781-1.59-.853 1.02-4.125-.31-4.764l2.35-3.271c1.58.853 3.93-2.634 5.52-1.781 1.32.855-1.02 4.126.3 4.764l-2.34 3.271z" fill="#A0A1A2"/><path d="M1418.59 558.475l-7.42-3.836 2.35-3.27 5.29 2.554-.22 4.552zm-24.9-13l-86.6-44.746 2.34-3.271 86.6 44.746-2.34 3.271z" fill="#A0A1A2"/><path d="M1388.91 542.05l-92.47 7.524-.02-2.6 92.47-7.307.02 2.383zm82.68-42.325l-53.21 4.364-.03-2.6 53.22-4.364.02 2.6z" fill="#A0A1A2"/><path d="M1307.75 546.442l11.24-41.267 1.32.205-11.24 41.05-1.32.012zm47.57 12.802c.26-.869-1.87-2.584-4.24-2.563l-37.2-3.143c-3.7-.401-6.88-2.323-7.16-5.137l3.42-.247c-.26.869 1.87 2.584 4.24 2.563l37.2 3.142c3.7.402 6.88 2.324 7.17 5.138l-3.43.247zm73.99-100.969l1.04-.876 40.17 40.818-1.05.876-40.16-40.818z" fill="#A0A1A2"/><path d="M1422.65 661.144l-.07 53.086 9.23-.08-.99-53.077-8.17.071z" fill="#fff"/><path d="M1435.19 557.247l-16.6 1.228.22-4.552 16.34-1.226.04 4.55zm-313.93 159.611l-18.45.161 1.66-232.075 11.08-.097 5.71 232.011zm16.48-196.884c1.58-.231 1.61 3.236 3.19 3.222 1.58-.23 1.55-3.48 3.13-3.711l-.03-3.249c-1.58.23-1.61-3.237-3.19-3.223-1.58.231-1.55 3.481-3.13 3.711l.03 3.25zm-6.33.701c1.58-.231 1.61 3.236 3.19 3.222 1.58-.23 1.55-3.48 3.13-3.711l-.02-3.249c-1.58.23-1.62-3.237-3.2-3.223-1.58.231-1.55 3.481-3.13 3.711l.03 3.25zm-6.32.491c1.58-.231 1.61 3.236 3.19 3.222 1.58-.231 1.55-3.481 3.13-3.711l-.03-3.25c-1.58.231-1.61-3.236-3.19-3.222-1.58.23-1.55 3.48-3.13 3.711l.03 3.25z" fill="#A0A1A2"/><path d="M1103.48 522.871l21.61-1.705-.03-3.467-21.61 1.705.03 3.467zm40.58-3.388l61.38-4.869-.02-3.25-61.39 4.869.03 3.25zm-72.84 22.953c.02 1.3-3.93 1.768-3.92 3.068.01 1.3 3.96 1.049 3.97 2.349l3.95-.251c-.01-1.3 3.94-1.768 3.93-3.068-.01-1.3-3.96-1.049-3.97-2.349l-3.96.251zm-.04-5.417c.01 1.3-3.94 1.767-3.93 3.067.01 1.3 3.96 1.049 3.97 2.349l3.96-.251c-.01-1.3 3.94-1.768 3.92-3.068-.01-1.3-3.96-1.049-3.97-2.348l-3.95.251zm-.05-5.634c.01 1.3-3.94 1.768-3.93 3.068.01 1.3 3.97 1.049 3.98 2.349l3.95-.251c-.01-1.3 3.94-1.768 3.93-3.068-.01-1.3-3.97-1.049-3.98-2.349l-3.95.251z" fill="#A0A1A2"/><path d="M1071.28 547.85l.04 4.766 3.95-.251-.04-4.766-3.95.251zm63.67 16.994c1.32-.878 3.71 1.701 4.76.825 1.31-.878-1.09-3.457.22-4.335l-2.13-2.582c-1.31.878-3.7-1.701-4.75-.825-1.31.878 1.08 3.457-.23 4.335l2.13 2.582zm-5.24 3.513c1.31-.878 3.71 1.701 4.76.825 1.31-.878-1.09-3.457.22-4.336l-2.13-2.581c-1.31.878-3.71-1.701-4.75-.825-1.31.878 1.08 3.457-.23 4.335l2.13 2.582zm-5.24 3.513c1.31-.878 3.7 1.701 4.75.825 1.31-.878-1.08-3.457.23-4.336l-2.13-2.581c-1.32.878-3.71-1.701-4.76-.825-1.31.878 1.09 3.457-.22 4.335l2.13 2.582zm-6.55 4.61l6.55-4.607-2.13-2.582-4.72 3.075.3 4.114z" fill="#A0A1A2"/><path d="M1139.93 561.336l76.79-52.673-2.13-2.581-76.79 52.672 2.13 2.582z" fill="#A0A1A2"/><path d="M1144.39 557.615l82.46-6.786-.02-2.167-82.47 6.57.03 2.383zm-74.84-25.998l47.68-3.883-.01-2.166-47.69 3.666.02 2.383z" fill="#A0A1A2"/><path d="M1216.82 549.616l-10.85-35.223-1.05.442 10.59 35.009 1.31-.228zm-42.29 18.351c0-.866 1.56-2.397 3.67-3.065l33.15-8.09c3.42-.896 6.03-3.086 6.27-5.688l-3.16.244c.01.867-1.56 2.397-3.66 3.066l-33.15 8.089c-3.42.897-6.04 3.086-6.28 5.689l3.16-.245zm-67.65-79.577l-1.06-.641-35.22 42.343 1.06.64 35.22-42.342z" fill="#A0A1A2"/><path d="M1115.83 669.236l.94 47.661-8.43.073.37-47.672 7.12-.062z" fill="#fff"/><path d="M1103.17 577.691l14.76-1.213-.3-4.114-14.49 1.21.03 4.117z" fill="#A0A1A2"/><path d="M1116.42 645.834c0 .433-.26.652-.79.657l-5.8.05c-.52.005-.79-.209-.79-.643l-.05-4.766c0-.433.26-.652.79-.657l5.8-.051c.53-.004.79.21.8.643l.04 4.767zm313.64-10.757c.01.433-.26.652-.78.657l-6.59.057c-.53.005-.8-.21-.8-.643l-.05-5.416c0-.434.26-.653.79-.657l6.59-.058c.52-.004.79.21.79.643l.05 5.417z" fill="#fff"/><path d="M1735.11 606.419l-278.28-15.772c-46.43-3.279-92.84-3.957-139.02-9.188l-138.29-15.477-69.14-7.63-34.57-3.815c-11.88-1.63-22.2-5.657-33.56-8.375l-132.396-35.896-264.797-71.792 1.289-3.262 264.54 72.445 132.134 36.115c11.1 2.72 22.21 6.74 33.03 8.379l34.57 4.032 69.15 7.847 138.28 15.694c45.93 5.449 92.6 6.125 139.03 9.62l278.29 16.423-.26.652z" fill="#A0A1A2"/><path d="M1796.62 616.499l-250.31-13.416c-41.68-2.237-83.35-4.473-125.29-6.707l-124.29-13.433-124.3-13.432c-40.17-11.35-78.77-23.147-118.41-34.719l-236.044-69.66 1.553-3.263 235.781 70.312c39.12 11.576 78.77 23.58 117.63 34.942l124.3 13.866 124.29 13.866c41.68 2.453 83.36 4.689 125.03 7.142l250.32 14.066-.26.436zm29.2-37.96l-245.64-21.041-122.94-10.411c-40.66-6.578-80.79-13.162-121.19-19.743l-121.18-19.743c-36.8-16.58-72-33.173-108.01-49.977l-214.946-99.745 2.083-3.052 214.423 100.4c35.48 16.591 71.75 33.826 106.95 49.986l120.93 20.179c40.39 6.581 80.79 13.379 120.92 19.962l122.69 10.847 245.64 21.69.27.648z" fill="#A0A1A2"/><path d="M1876.67 604.746l-195.44-9.778-97.59-4.782c-32.71-2.098-64.4-8.105-96.87-11.939l-96.6-13.024-24.02-3.257c-4.23-.83-7.65-.583-12.41-2.058l-10.33-5.327-41.58-21.088-166.56-84.134 2.34-3.054 166.05 84.788 41.57 21.088 10.33 5.327c2.65.844 7.66 1.233 11.36 1.851l24.02 3.257 96.34 13.244c32.2 3.835 64.15 10.057 96.6 12.157l97.59 5.215 195.19 10.431.01 1.083z" fill="#A0A1A2"/><path d="M1883.51 573.269l-223.74-19.498-111.87-9.858c-37.46-3.573-73.4-12.36-110.36-18.321l-109.85-19.842c-8.99-2.739-18.73-1.137-26.95-7.132l-22.53-13.671-45.59-27.336-181.28-109.14 2.61-2.84 180.76 109.795 45.33 27.339 22.52 13.67c5.85 5.366 17.44 4.398 25.64 6.927l109.85 20.275c36.7 5.964 72.9 14.965 109.84 18.759l111.87 10.075 223.75 20.148v.65z" fill="#A0A1A2"/><path d="M1985.15 588.202c-60.13-1.858-120.26-3.717-180.65-5.79l-88.96-12.874c-29.04-4.73-61.47-5.314-84.82-22.444l-304.84-158.547 2.35-2.838 303.79 159.856c23.62 17.128 54.2 17.295 84.04 22.451l88.96 13.091c59.87 2.295 120.26 4.151 180.39 6.443l-.26.652zm686.69 106.047L605.938 712.278l.089 10.21 2065.903-18.029-.09-10.21z" fill="#A0A1A2"/><path d="M1243.58 715.795l35.58-.311-11.08-454.273-21.35.186-3.15 454.398zm-38.3-371.485c-3.17.245-3.11 6.744-6.01 6.986-3.16.245-3.22-6.255-6.11-6.013l-.06-6.5c3.16-.244 3.1-6.744 6-6.986 3.16-.244 3.22 6.256 6.12 6.014l.06 6.499zm12.38-.972c-3.17.244-3.11 6.744-6.01 6.986-3.16.244-3.21-6.256-6.11-6.014l-.06-6.5c3.16-.244 3.11-6.744 6-6.986 3.16-.244 3.22 6.256 6.12 6.014l.06 6.5z" fill="#A0A1A2"/><path d="M1229.78 342.365c-3.16.244-3.11 6.744-6.01 6.986-3.16.245-3.21-6.255-6.11-6.013l-.06-6.5c3.16-.244 3.11-6.744 6-6.986 3.17-.244 3.22 6.255 6.12 6.013l.06 6.5zm41.89-3.401l-41.89 3.399-.06-6.5 41.89-3.399.06 6.5zm-78.51 6.319l-118.56 9.701-.05-6.499 118.55-9.702.06 6.5zm141.23 21.304c.02 2.6 7.66 2.1 7.68 4.7.03 2.6-7.61 3.316-7.59 5.916l-7.64.5c-.02-2.6-7.67-2.1-7.69-4.7-.02-2.6 7.62-3.316 7.6-5.916l7.64-.5z" fill="#A0A1A2"/><path d="M1334.3 356.187c.02 2.6 7.66 2.1 7.68 4.7.03 2.6-7.61 3.317-7.59 5.917l-7.64.716c-.02-2.6-7.66-2.1-7.69-4.7-.02-2.6 7.62-3.316 7.6-5.916l7.64-.717z" fill="#A0A1A2"/><path d="M1334.2 345.571c.03 2.6 7.67 2.1 7.69 4.7.02 2.6-7.62 3.316-7.59 5.916l-7.64.717c-.03-2.6-7.67-2.1-7.69-4.7-.02-2.6 7.62-3.316 7.59-5.916l7.64-.717zm.29 31.632l.08 9.316-7.64.501-.09-9.317 7.65-.5zm-122.15 52.42c-2.65-1.277-6.82 4.393-9.46 3.116-2.65-1.277 1.78-6.949-.6-8.445l4.16-5.67c2.65 1.277 6.82-4.393 9.47-3.116 2.38 1.279-1.79 6.949.6 8.445l-4.17 5.67zm10.33 5.323c-2.64-1.276-6.81 4.393-9.46 3.117-2.65-1.277 1.78-6.95-.6-8.446l4.17-5.67c2.65 1.277 6.81-4.393 9.46-3.116 2.65 1.277-1.78 6.95.6 8.446l-4.17 5.669z" fill="#A0A1A2"/><path d="M1232.74 440.06c-2.65-1.277-6.82 4.393-9.46 3.117-2.65-1.277 1.78-6.95-.61-8.446l4.17-5.67c2.65 1.277 6.82-4.393 9.47-3.116 2.38 1.28-1.79 6.95.6 8.445l-4.17 5.67z" fill="#A0A1A2"/><path d="M1245.45 446.883l-12.72-6.822 4.17-5.454 8.74 4.474-.19 7.802zm-43.17-22.374l-149.64-77.564 4.44-5.673 149.63 77.565-4.43 5.672z" fill="#A0A1A2"/><path d="M1194.05 418.516l-159.39 12.875-.04-4.333 159.39-12.875.04 4.333zm143.05-73.188l-92.21 7.521-.04-4.55 92.21-7.305.04 4.334z" fill="#A0A1A2"/><path d="M1053.87 425.806l19.68-71.025 2.37.196-19.68 71.242-2.37-.413zm82.44 22.248c.25-1.519-2.94-4.308-7.42-4.485l-64.38-5.289c-6.33-.595-11.9-3.796-12.21-8.994l5.8-.484c-.25 1.519 2.94 4.308 7.42 4.486l64.38 5.288c6.33.595 11.89 3.797 12.2 8.994l-5.79.484zm127.4-174.453l2.1-1.319 69.16 70.683-1.83 1.316-69.43-70.68z" fill="#A0A1A2"/><path d="M1252.53 623.845l.01 91.87 15.82-.138-1.85-91.854-13.98.122z" fill="#fff"/><path d="M1274.17 444.68l-28.72 2.201.19-7.802 28.46-2.415.07 8.016zM732.15 720.256l-31.898.278 2.831-400.659 19.244-.168 9.823 400.549zm28.404-339.777c2.635-.24 2.686 5.61 5.584 5.368 2.634-.24 2.583-6.09 5.481-6.332l-.051-5.849c-2.635.239-2.686-5.611-5.584-5.369-2.634.24-2.583 6.09-5.481 6.332l.051 5.85z" fill="#A0A1A2"/><path d="M749.492 381.442c2.634-.24 2.685 5.61 5.583 5.368 2.634-.24 2.583-6.089 5.481-6.331l-.051-5.85c-2.634.24-2.685-5.61-5.583-5.368-2.634.239-2.583 6.089-5.481 6.331l.051 5.85z" fill="#A0A1A2"/><path d="M738.69 382.186c2.634-.239 2.685 5.61 5.583 5.368 2.635-.239 2.584-6.089 5.482-6.331l-.051-5.85c-2.635.24-2.686-5.61-5.584-5.368-2.634.24-2.583 6.089-5.481 6.331l.051 5.85z" fill="#A0A1A2"/><path d="M701.016 385.33l37.674-3.146-.049-5.633-37.676 2.929.051 5.85zm70.34-5.812l106.175-8.511-.051-5.849-106.173 8.727.049 5.633zm-125.673 39.447c.021 2.383-6.829 2.877-6.809 5.26.021 2.383 6.872 1.89 6.89 4.057l6.851-.494c-.021-2.383 6.83-2.876 6.809-5.259-.021-2.383-6.871-1.89-6.89-4.057l-6.851.493z" fill="#A0A1A2"/><path d="M645.602 409.651c.021 2.383-6.829 2.876-6.809 5.26.021 2.383 6.871 1.89 6.89 4.056l6.851-.493c-.021-2.383 6.829-2.876 6.809-5.26-.021-2.383-6.871-1.89-6.89-4.056l-6.851.493zm-.082-9.535c.021 2.383-6.83 2.876-6.809 5.259.021 2.384 6.871 1.891 6.89 4.057l6.851-.493c-.021-2.383 6.829-2.876 6.809-5.26-.021-2.383-6.872-1.89-6.89-4.056l-6.851.493zm.247 28.382l.072 8.233 6.587-.49-.074-8.45-6.585.707zm109.67 29.377c2.359-1.538 6.09 2.98 8.449 1.443 2.359-1.538-1.635-6.053.461-7.588l-3.994-4.515c-2.096 1.535-6.09-2.981-8.449-1.443-2.36 1.537 1.634 6.052-.461 7.587l3.994 4.516z" fill="#A0A1A2"/><path d="M746.525 463.803c2.359-1.538 6.09 2.98 8.449 1.443 2.359-1.538-1.635-6.053.461-7.588l-3.994-4.515c-2.36 1.537-6.09-2.981-8.449-1.443-2.36 1.537 1.634 6.052-.461 7.587l3.994 4.516zm-8.919 6.146c2.359-1.538 6.09 2.98 8.449 1.443 2.359-1.538-1.635-6.053.461-7.588l-3.994-4.515c-2.359 1.537-6.09-2.981-8.449-1.443-2.36 1.537 1.634 6.052-.461 7.587l3.994 4.516z" fill="#A0A1A2"/><path d="M726.079 477.847l11.531-7.901-3.729-4.301-7.863 5.269.061 6.933zm38.261-26.117l132.609-91.078-3.992-4.299-132.347 90.859 3.73 4.518z" fill="#A0A1A2"/><path d="M771.671 445.167l142.793-11.646-.034-3.9-142.793 11.647.034 3.899zM642.88 400.354l82.2-6.567-.034-3.9-82.2 6.567.034 3.9z" fill="#A0A1A2"/><path d="M897.046 431.506l-18.458-60.724-2.105.451 18.458 60.725 2.105-.452zm-73.285 31.623c-.275-1.298 2.599-4.357 6.548-5.041l57.352-13.934c5.787-1.568 10.502-5.076 10.724-9.845l-5.269.48c.275 1.297-2.598 4.356-6.547 5.041l-57.353 13.934c-5.786 1.567-10.501 5.075-10.723 9.844l5.268-.479zM707.084 325.691l-1.59-.853-61.054 73.119 1.853.851 60.791-73.117z" fill="#A0A1A2"/><path d="M722.731 637.999l1.509 82.324-14.499.127.6-82.343 12.39-.108z" fill="#fff"/><path d="M700.527 480.021l25.554-2.173-.06-6.933-25.557 1.957.063 7.149z" fill="#A0A1A2"/><path d="M723.7 597.693c.006.65-.78 1.307-1.57 1.314l-10.018.087c-.791.007-1.588-.636-1.593-1.286l-.072-8.233c-.006-.65.78-1.307 1.57-1.314l10.018-.087c.791-.007 1.587.636 1.593 1.286l.072 8.233zm541.62-18.813c.01.65-.78 1.307-1.57 1.314l-11.34.099c-.79.007-1.58-.636-1.59-1.286l-.08-9.316c-.01-.65.78-1.307 1.57-1.314l11.34-.099c.79-.007 1.58.636 1.59 1.286l.08 9.316z" fill="#fff"/></g><defs><clipPath id="clip0"><path fill="#fff" d="M0 0h2500v960H0z"/></clipPath></defs></svg>