<svg width="286" height="136" fill="none" xmlns="http://www.w3.org/2000/svg"><path d="M59.223 117.262h-7.596c0 6.511 5.942 13.218 8.681 14.65 23.875 12.48 58.42-6.873 72.166-14.65h-14.65c-41.238 14.758-56.25 6.149-58.601 0z" fill="#ACACAC"/><path d="M7.618 58.66H5.087v-7.242H2.524v7.243H0v-9.297h7.618v9.297zm9.146-6.339c0 1.039-.307 1.842-.922 2.41-.61.564-1.48.846-2.607.846h-.706v3.084h-2.511v-9.297h3.217c1.174 0 2.056.257 2.645.77.59.513.884 1.242.884 2.187zM12.53 53.53h.458c.377 0 .676-.106.897-.318.224-.212.337-.504.337-.877 0-.627-.348-.941-1.043-.941h-.649v2.136zm14.805.47c0 1.564-.384 2.753-1.15 3.567-.768.814-1.891 1.221-3.371 1.221-1.458 0-2.577-.41-3.357-1.227-.776-.818-1.164-2.01-1.164-3.574 0-1.547.386-2.728 1.157-3.542.776-.818 1.902-1.227 3.377-1.227 1.48 0 2.6.405 3.363 1.215.763.81 1.145 1.998 1.145 3.567zm-6.397 0c0 1.797.626 2.696 1.876 2.696.636 0 1.106-.218 1.412-.655.31-.437.464-1.117.464-2.041 0-.928-.157-1.613-.47-2.054-.31-.445-.774-.668-1.393-.668-1.26 0-1.889.908-1.889 2.722zm12.517 4.66l-1.901-6.695h-.058c.09 1.14.134 2.026.134 2.658v4.038h-2.226v-9.297h3.345l1.94 6.6h.05l1.902-6.6h3.35v9.297h-2.308v-4.076c0-.212.002-.447.007-.706.008-.258.038-.892.089-1.901h-.058l-1.875 6.683h-2.391zm15.569-3.083c0 .992-.34 1.755-1.018 2.289-.674.53-1.632.795-2.874.795h-2.747v-9.297h2.525v3.307h.127c1.297 0 2.285.246 2.963.738.682.487 1.024 1.21 1.024 2.168zM44.91 56.72h.101c.984 0 1.475-.364 1.475-1.093 0-.704-.495-1.056-1.487-1.056h-.09v2.15zm7.49 1.94h-2.53v-9.297h2.53v9.297zm14.558 0H54.794v-9.295h2.524V56.6h2.32v-7.236h2.474V56.6h2.315v-7.236h2.53v9.296zm10.31 0h-2.525v-7.242H72.97a56.096 56.096 0 01-.394 3.224c-.16 1.094-.316 1.861-.464 2.302-.148.44-.337.793-.566 1.055a2.174 2.174 0 01-.84.592c-.334.131-.739.197-1.214.197-.36 0-.689-.047-.985-.14v-1.94c.254.086.462.128.623.128.22 0 .388-.091.502-.273.119-.187.227-.5.324-.942.098-.445.234-1.267.407-2.467.174-1.204.335-2.467.484-3.79h6.422v9.297zm7.926 0h-5.52v-9.295h5.52v2.015h-3.008v1.463h2.785v2.015h-2.785v1.755h3.007v2.048zm9.986 0h-2.525v-3.789h-2.919v3.79h-2.524v-9.297h2.524v3.447h2.919v-3.447h2.524v9.297zm10.373 0h-2.524v-3.789h-2.919v3.79h-2.524v-9.297h2.524v3.447h2.919v-3.447h2.524v9.297zm9.045-3.083c0 .992-.339 1.755-1.017 2.289-.674.53-1.633.795-2.875.795h-2.747v-9.297h2.525v3.307h.127c1.297 0 2.285.246 2.963.738.683.487 1.024 1.21 1.024 2.168zm-4.114 1.144h.102c.983 0 1.475-.364 1.475-1.093 0-.704-.496-1.056-1.488-1.056h-.089v2.15zm7.49 1.94h-2.53v-9.297h2.53v9.297zm2.394-9.297h2.238v3.994c0 .424-.034 1.271-.102 2.543h.051l3.707-6.537h3.103v9.297h-2.225v-3.892c0-.589.038-1.47.114-2.645h-.05l-3.739 6.537h-3.097v-9.297zm4.476-.743c-1.013 0-1.771-.198-2.276-.592-.5-.394-.78-1.005-.839-1.831h2.073c.021.415.112.716.273.903.161.186.418.28.769.28.636 0 .984-.395 1.043-1.183h2.105c-.174 1.615-1.223 2.422-3.148 2.422zm18.828 10.039h-2.843l-2.759-4.71v4.71h-2.525v-9.295h2.525v4.501l2.658-4.502h2.759l-2.868 4.439 3.053 4.858zM153.715 54c0 1.564-.384 2.753-1.151 3.567-.767.814-1.891 1.221-3.37 1.221-1.459 0-2.578-.41-3.358-1.227-.775-.818-1.163-2.01-1.163-3.574 0-1.547.385-2.728 1.157-3.542.776-.818 1.901-1.227 3.376-1.227 1.48 0 2.601.405 3.364 1.215.763.81 1.145 1.998 1.145 3.567zm-6.397 0c0 1.797.625 2.696 1.876 2.696.636 0 1.106-.218 1.411-.655.31-.437.465-1.117.465-2.041 0-.928-.157-1.613-.471-2.054-.309-.445-.774-.668-1.393-.668-1.259 0-1.888.908-1.888 2.722zm12.517 4.66l-1.902-6.695h-.057c.089 1.14.134 2.026.134 2.658v4.038h-2.226v-9.297h3.345l1.939 6.6h.051l1.901-6.6h3.351v9.297h-2.308v-4.076c0-.212.002-.447.006-.706.009-.258.039-.892.089-1.901h-.057l-1.876 6.683h-2.39zm16.547 0h-2.53v-7.242h-2.563v7.243h-2.524v-9.297h7.617v9.297zm10.317 0h-2.524v-7.242h-1.774a55.932 55.932 0 01-.395 3.224c-.161 1.094-.315 1.861-.464 2.302-.148.44-.337.793-.566 1.055a2.167 2.167 0 01-.839.592c-.335.131-.74.197-1.215.197-.36 0-.688-.047-.985-.14v-1.94c.254.086.462.128.623.128.22 0 .388-.091.502-.273.119-.187.227-.5.325-.942.097-.445.233-1.267.407-2.467.173-1.204.334-2.467.483-3.79h6.422v9.297zm7.926 0h-5.52v-9.295h5.52v2.015h-3.008v1.463h2.785v2.015h-2.785v1.755h3.008v2.048zm10.144 0h-2.842l-2.759-4.71v4.71h-2.525v-9.295h2.525v4.501l2.657-4.502h2.76l-2.868 4.439 3.052 4.858zm5.484-7.369c-.597 0-1.064.246-1.398.738-.335.487-.503 1.161-.503 2.022 0 1.789.681 2.683 2.041 2.683.412 0 .81-.057 1.196-.172.386-.114.773-.252 1.163-.413v2.124c-.775.343-1.653.515-2.632.515-1.403 0-2.48-.407-3.23-1.22-.746-.815-1.119-1.991-1.119-3.53 0-.962.18-1.808.54-2.537a3.899 3.899 0 011.564-1.679c.683-.394 1.484-.591 2.404-.591 1.005 0 1.965.218 2.88.655l-.769 1.977a8.643 8.643 0 00-1.03-.407 3.604 3.604 0 00-1.107-.165z" fill="#2A437E"/><path fill-rule="evenodd" clip-rule="evenodd" d="M255.097 53.73h-3.663l-7.875 4.213.384 1.531h7.32l3.736 4.36h-3.512l-11.866 4.544.279 1.574 11.175.17 4.559 6.32-4.476 3.265.96 1.315 5.784-4.22-4.699-6.511 14.943-.34.281-1.57-11.172-4.416-3.848-4.49h13.434l-9.82-5.517-3.186-6.508-1.462.716 2.724 5.564zm-1.272 4.116h.516l-.248-.232-.268.232zm1.507-1.302l1.391 1.302h3.896l-4.118-2.313-1.169 1.011zm-1.117-1.186l-.078.067-.072-.067h.15zm-2.474.054l1.157 1.084-1.563 1.35h-4.145l4.551-2.434zm2.986 10.05h-1.012l.512.473.5-.474zm-1.683 1.596l-1.588-1.47-7.312 2.8 7.377.114 1.523-1.444zm.805 1.48l.392-.372.414.384-.806-.013zm3.23.037l-1.655-1.532 1.527-1.448 7.135 2.82-7.007.16zm-29.311-6.836h-3.277l-7.28 3.797.376 1.535h6.735l3.305 3.761h-3.084l-10.961 4.093.272 1.576 10.29.154 4.134 5.586-4.059 2.887.943 1.327 5.411-3.849-4.294-5.803 13.65-.302.275-1.573-10.299-3.97-3.416-3.886h9.364l.39-1.528-6.542-3.583-2.93-5.835-1.455.73 2.452 4.883zm-.848 3.705h.069l-.034-.03-.035.03zm1.291-1.088l1.192 1.088h3.269l-3.486-1.91-.975.822zm-3.434-.93l.966.88-1.35 1.138h-3.485l3.869-2.019zm2.57 9.034h-.54l.273.247.267-.247zm-1.467 1.356l-1.368-1.234-6.312 2.356 6.364.095 1.316-1.217zm1.043 1.252l.17-.157.18.163-.35-.006zm2.808.03l-1.437-1.296 1.312-1.214 6.168 2.377-6.043.134z" fill="#2C4377"/><path fill-rule="evenodd" clip-rule="evenodd" d="M251.768 75.21h5.588l9.564 5.328h-9.827l-3.375 3.102 5.244 3.004-7.954 6.296-1.01-1.276 6.068-4.803-5.087-2.915 3.708-3.409h-12.483l9.564-5.327zm5.285 3.7h3.6l-3.72-2.072h-2.566l2.686 2.072zm-5.146-1.914l2.481 1.914h-5.917l3.436-1.914zm-26.962 4.725h4.974l6.043 3.307-.391 1.527h-5.872l-2.835 2.56 4.639 2.61-7.152 5.56-1-1.284 5.22-4.059-4.478-2.52 3.176-2.867h-7.976l-.391-1.527 6.043-3.307zm4.714 3.207h2.729l-2.885-1.579h-1.928l2.084 1.579zm-4.577-1.426l1.881 1.426h-4.487l2.606-1.426z" fill="#2C4377"/><path fill-rule="evenodd" clip-rule="evenodd" d="M252.947 47.028h2.832l.244.322c.109.143.17.302.205.406.041.12.074.252.103.389.059.274.11.619.157 1.016.095.799.178 1.872.252 3.146.148 2.55.26 5.953.344 9.67.167 7.4.224 16.078.224 21.85l.728 3.233 1.194 5.89-12.158 16.121-1.448-.647 4.834-24.586c.001-19.236.373-28.268.749-32.497.186-2.089.378-3.089.563-3.577.049-.128.114-.268.21-.394a.936.936 0 01.584-.363.853.853 0 01.383.021zm.255 1.628c-.099.429-.234 1.264-.374 2.829-.369 4.157-.742 13.144-.742 32.432v.08l-4.182 21.267 9.585-12.71-1.045-5.154-.764-3.392v-.091c0-5.764-.056-14.481-.223-21.903-.084-3.712-.196-7.092-.342-9.613a54.1 54.1 0 00-.243-3.048 12 12 0 00-.1-.697h-1.57zm-27.967 7.051h2.601l.245.322c.106.14.164.293.197.39.038.113.069.237.096.363.053.252.101.569.144.932.086.729.162 1.708.229 2.869.134 2.324.236 5.423.313 8.81.152 6.735.203 14.635.203 19.891l.661 2.938 1.091 5.396-11.072 14.708-1.449-.647 4.394-22.383c.001-17.515.339-25.74.681-29.596.169-1.9.344-2.82.516-3.275.046-.12.108-.256.201-.378a.924.924 0 01.578-.358.847.847 0 01.371.018zm.281 1.627c-.087.4-.205 1.15-.325 2.51-.336 3.783-.675 11.965-.675 29.53v.08l-3.742 19.061 8.501-11.292-.943-4.661-.696-3.097v-.09c0-5.249-.051-13.188-.204-19.946-.076-3.38-.177-6.457-.31-8.753a49.431 49.431 0 00-.221-2.77 11.496 11.496 0 00-.079-.572h-1.306z" fill="#2C4377"/><path fill-rule="evenodd" clip-rule="evenodd" d="M248.072 91.488h11.445l2.901 16.955-1.459.619-12.887-17.574zm3.213 1.628l8.946 12.201-2.087-12.2h-6.859zm-30.318 2.713h10.591l2.645 15.873-1.465.607-11.771-16.48zm3.163 1.628l7.89 11.045-1.841-11.045h-6.049z" fill="#2C4377"/><path d="M115.964 22.577l-14.686 14.686-14.597-14.686L101.278 7.98l14.686 14.597zm-2.404-12.282L108.042.059H94.513l-5.518 10.236-10.235 5.518V29.34l10.235 5.519 5.518 10.235h13.529l5.518-10.235 10.236-5.518v-13.53l-10.236-5.517z" fill="#D32B27"/><path d="M104.396 7.981l17.089 9.257v7.832L104.396 7.981zm2.314 34.89h-7.832l17.089-17.089-9.257 17.089zM80.988 28.007v-7.921l17.09 17.089-17.09-9.168zM95.852 2.285h7.832l-17 17.178 9.168-17.178z" fill="#fff"/><path fill-rule="evenodd" clip-rule="evenodd" d="M285.49 3.675c-1.622 3.495-9.061 9.66-25.835 6.365-3.744-.874-11.982-2.471-14.977-1.872-1.747.125-5.242 2.022-5.242 8.612-.998-4.743-1.498-14.678 4.493-16.475 2.496-.5 9.735-.749 18.721 2.247 5.242 1.747 17.149 4.418 22.84 1.123zm-3.369 1.872c-2.871.749-11.907 1.123-25.086-3.37-6.615-1.997-19.321-3.07-17.224 8.612.874-1.872 4.493-5.092 11.982-2.995 8.861 2.121 27.333 4.642 30.328-2.247z" fill="#2C4377"/><path d="M119.453 46.181h-5.968c40.803-27.78 81.39-38.525 98.211-33.099 21.27 4.775 12.48 24.056 5.426 33.1 9.55-18.666-6.873-24.418-16.278-24.96-28.216-2.17-66.017 15.735-81.391 24.96z" fill="#ACACAC"/><path d="M242.624 88.504h-9.766v6.51l3.255 16.279h8.139v-27.13h-1.628v4.34z" fill="#2C447F"/><path fill-rule="evenodd" clip-rule="evenodd" d="M243.167 77.652v2.713h1.085l-3.255-61.314h-6.512l-2.17 59.686h1.085l1.085-17.363h7.054l1.628 16.278zm-7.596-41.238h4.883l1.085 12.48h-7.054l1.086-12.48z" fill="#2C447F"/><path d="M43.879 61.916H33.72v48.823h10.16V89.345h7.9v22.491h10.158v-49.92H51.779v19.2h-7.9v-19.2zm44.646 0H66.821v49.377h21.704v-7.596H77.13V88.504h11.395V81.45H77.13V70.055h11.395v-8.139zm59.144 0h-21.704v48.835h9.224V69.513h12.48v-7.597zm3.255 48.835V61.916h10.31v27.13l8.681-27.13h10.31v48.835h-10.31V85.248l-8.681 25.503h-10.31zM11.476 78.737H1.165v-9.224c0-6.078 9.043-8.32 13.565-8.682 10.852 0 14.65 7.235 15.193 10.852v30.386c-.434 9.116-8.863 10.671-13.023 10.309H9.848C1.166 111.076.443 98.813 1.166 92.845h10.31v9.224c3.038 5.643 5.968 2.351 7.053 0V88.504h-5.426V81.45h5.426v-9.767c-3.038-5.643-5.968-2.351-7.053 0v7.054z" fill="#2C447F"/><path fill-rule="evenodd" clip-rule="evenodd" d="M93.408 61.916h19.533c2.713 2.17 8.14 8.356 8.14 15.736.18 3.436-1.194 11.177-8.14 14.65h-9.224v18.991h-10.31V61.916zm9.224 6.512v16.278c2.894 1.085 8.682 1.302 8.682-6.512 0-4.16-1.737-11.937-8.682-9.766zm81.952 42.865h9.767l7.054-16.82v16.82h10.309V61.916h-17.363c-3.256.543-9.767 4.016-9.767 13.566-.181 4.16.977 13.13 7.054 15.735l-7.054 20.076zm18.431-42.865v16.278c-2.894 1.085-8.682 1.302-8.682-6.512 0-4.16 1.737-11.937 8.682-9.766z" fill="#2C447F"/></svg>