<svg width="355" height="136" viewBox="0 0 355 136" fill="none" xmlns="http://www.w3.org/2000/svg">
<path fill-rule="evenodd" clip-rule="evenodd" d="M208.029 79.3066H229.552L223.077 93.6964L221.851 93.1448L227.473 80.6508H210.015L215.023 93.171L213.775 93.6702L208.029 79.3066Z" fill="#085399"/>
<path fill-rule="evenodd" clip-rule="evenodd" d="M227.396 80.4857L211.266 66.3717L212.151 65.3601L228.281 79.4741L227.396 80.4857Z" fill="#085399"/>
<path fill-rule="evenodd" clip-rule="evenodd" d="M208.566 78.8105L224.025 64.6965L224.931 65.6892L209.473 79.8032L208.566 78.8105Z" fill="#085399"/>
<path fill-rule="evenodd" clip-rule="evenodd" d="M224.023 65.014L214.613 56.2768L215.528 55.2917L224.937 64.029L224.023 65.014Z" fill="#085399"/>
<path fill-rule="evenodd" clip-rule="evenodd" d="M223.592 56.2756L213.511 65.685L212.594 64.7023L222.675 55.293L223.592 56.2756Z" fill="#085399"/>
<path fill-rule="evenodd" clip-rule="evenodd" d="M204.796 100.836L213.46 92.7487H222.032L232.114 101.052L218.43 41.9602L204.796 100.836ZM217.775 38.8296H219.085L234.318 104.608L221.549 94.0929H213.99L202.492 104.824L217.775 38.8296Z" fill="#085399"/>
<path fill-rule="evenodd" clip-rule="evenodd" d="M199.869 64.5212H237.093L232.449 72.2601L231.297 71.5685L234.718 65.8654H202.044L204.918 71.6137L203.716 72.2148L199.869 64.5212Z" fill="#085399"/>
<path fill-rule="evenodd" clip-rule="evenodd" d="M197.754 55.1121H239.682L235.835 62.8057L234.633 62.2045L237.507 56.4562H200.128L203.55 62.1593L202.397 62.8509L197.754 55.1121Z" fill="#085399"/>
<path fill-rule="evenodd" clip-rule="evenodd" d="M205.818 49.0632H230.849L229.136 53.3454L227.888 52.8462L228.864 50.4074H208.192L209.598 52.75L208.445 53.4416L205.818 49.0632Z" fill="#085399"/>
<path d="M28.2284 108.208H24.8679C13.5767 129.177 29.5726 135.315 38.9819 135.763C69.0917 138.452 108.432 117.617 124.338 106.863V102.831C45.2996 141.006 27.3323 122.322 28.2284 108.208Z" fill="#BEBFC1"/>
<path d="M148.534 49.0632H128.371V103.503H148.534V90.0609L158.615 81.9958L176.09 103.503H200.285L176.09 69.226L196.253 49.0632H167.353L148.534 67.8818V49.0632Z" fill="#085399"/>
<path d="M90.7316 45.0303H87.3711C140.601 5.24246 179 2.91241 191.546 6.72087C209.998 15.1991 205.206 29.7294 199.588 37.3326C199.214 37.9648 198.77 38.5213 198.267 38.9814C198.705 38.4782 199.149 37.9265 199.588 37.3326C203.031 31.5004 200.459 19.2277 183.48 16.8024C164.662 14.1141 111.566 32.9326 90.7316 45.0303Z" fill="#BEBFC1"/>
<path d="M135.275 119.633L134.85 118.014H132.044L131.607 119.633H129.043L131.861 110.961H134.974L137.827 119.633H135.275ZM134.365 116.1L133.993 114.683C133.906 114.368 133.8 113.96 133.674 113.46C133.552 112.96 133.471 112.601 133.432 112.385C133.396 112.586 133.326 112.917 133.219 113.377C133.117 113.838 132.887 114.746 132.528 116.1H134.365Z" fill="#085399"/>
<path d="M147.21 115.303C147.21 116.756 146.853 117.861 146.141 118.617C145.428 119.373 144.384 119.751 143.01 119.751C141.655 119.751 140.616 119.371 139.891 118.611C139.17 117.851 138.81 116.744 138.81 115.291C138.81 113.854 139.168 112.757 139.885 112.001C140.606 111.241 141.651 110.861 143.022 110.861C144.396 110.861 145.438 111.237 146.147 111.989C146.855 112.741 147.21 113.846 147.21 115.303ZM141.267 115.303C141.267 116.973 141.848 117.808 143.01 117.808C143.601 117.808 144.038 117.605 144.321 117.199C144.609 116.794 144.752 116.161 144.752 115.303C144.752 114.441 144.607 113.805 144.315 113.395C144.028 112.981 143.597 112.775 143.022 112.775C141.852 112.775 141.267 113.617 141.267 115.303Z" fill="#085399"/>
<path d="M154.971 112.798C154.687 112.798 154.347 112.848 153.949 112.946C153.551 113.044 153.191 113.172 152.868 113.33L152.189 111.505C152.724 111.272 153.219 111.111 153.671 111.02C154.124 110.93 154.585 110.884 155.054 110.884C156.369 110.884 157.385 111.268 158.102 112.036C158.822 112.8 159.183 113.885 159.183 115.291C159.183 116.744 158.824 117.851 158.108 118.611C157.395 119.371 156.353 119.751 154.983 119.751C153.963 119.751 153.051 119.588 152.248 119.261V117.3C153.185 117.662 154.097 117.843 154.983 117.843C155.511 117.843 155.922 117.713 156.217 117.453C156.513 117.193 156.678 116.815 156.714 116.319H153.264V114.441H156.714C156.678 113.913 156.507 113.507 156.2 113.224C155.896 112.94 155.487 112.798 154.971 112.798Z" fill="#085399"/>
<path d="M168.507 119.633H166.162V116.112H163.45V119.633H161.105V110.997H163.45V114.198H166.162V110.997H168.507V119.633Z" fill="#085399"/>
<path d="M175.87 119.633H170.742V110.997H175.87V112.869H173.075V114.228H175.663V116.1H173.075V117.731H175.87V119.633Z" fill="#085399"/>
<path d="M184.012 113.743C184.012 114.708 183.727 115.455 183.156 115.982C182.588 116.506 181.781 116.768 180.734 116.768H180.078V119.633H177.745V110.997H180.734C181.824 110.997 182.644 111.235 183.191 111.711C183.738 112.188 184.012 112.865 184.012 113.743ZM180.078 114.866H180.503C180.854 114.866 181.131 114.767 181.336 114.57C181.545 114.374 181.649 114.102 181.649 113.755C181.649 113.172 181.326 112.881 180.68 112.881H180.078V114.866Z" fill="#085399"/>
<path d="M191.511 110.997V112.881H188.096V119.633H185.751V110.997H191.511Z" fill="#085399"/>
<path d="M201.189 115.303C201.189 116.756 200.833 117.861 200.12 118.617C199.407 119.373 198.364 119.751 196.989 119.751C195.634 119.751 194.595 119.371 193.87 118.611C193.15 117.851 192.789 116.744 192.789 115.291C192.789 113.854 193.148 112.757 193.864 112.001C194.585 111.241 195.631 110.861 197.001 110.861C198.375 110.861 199.417 111.237 200.126 111.989C200.835 112.741 201.189 113.846 201.189 115.303ZM195.247 115.303C195.247 116.973 195.827 117.808 196.989 117.808C197.58 117.808 198.017 117.605 198.301 117.199C198.588 116.794 198.732 116.161 198.732 115.303C198.732 114.441 198.586 113.805 198.295 113.395C198.007 112.981 197.576 112.775 197.001 112.775C195.831 112.775 195.247 113.617 195.247 115.303Z" fill="#085399"/>
<path d="M206.957 112.787C206.402 112.787 205.969 113.015 205.657 113.472C205.346 113.925 205.191 114.551 205.191 115.35C205.191 117.012 205.823 117.843 207.087 117.843C207.469 117.843 207.839 117.79 208.197 117.684C208.556 117.577 208.916 117.449 209.278 117.3V119.273C208.558 119.591 207.743 119.751 206.833 119.751C205.529 119.751 204.529 119.373 203.832 118.617C203.139 117.861 202.793 116.768 202.793 115.338C202.793 114.444 202.96 113.659 203.295 112.981C203.633 112.304 204.118 111.784 204.748 111.422C205.382 111.056 206.126 110.873 206.981 110.873C207.914 110.873 208.806 111.075 209.657 111.481L208.942 113.318C208.623 113.169 208.304 113.043 207.985 112.94C207.666 112.838 207.323 112.787 206.957 112.787Z" fill="#085399"/>
<path d="M217.716 116.827C217.716 117.733 217.405 118.428 216.783 118.912C216.165 119.393 215.271 119.633 214.101 119.633H211.331V110.997H217.013V112.869H213.676V114.187H214.013C215.222 114.187 216.141 114.407 216.771 114.848C217.401 115.285 217.716 115.945 217.716 116.827ZM213.676 117.831H213.989C214.477 117.831 214.828 117.75 215.04 117.589C215.253 117.428 215.359 117.189 215.359 116.874C215.359 116.559 215.245 116.327 215.017 116.177C214.792 116.028 214.446 115.953 213.977 115.953H213.676V117.831Z" fill="#085399"/>
<path d="M225.694 116.768C225.694 117.689 225.378 118.398 224.748 118.894C224.122 119.387 223.232 119.633 222.078 119.633H219.527V110.997H221.872V114.068H221.99C223.195 114.068 224.112 114.297 224.742 114.754C225.377 115.206 225.694 115.878 225.694 116.768ZM221.872 117.831H221.966C222.88 117.831 223.337 117.493 223.337 116.815C223.337 116.161 222.876 115.835 221.954 115.835H221.872V117.831ZM228.83 119.633H226.479V110.997H228.83V119.633Z" fill="#085399"/>
<path d="M234.864 119.633H232.531V112.905H230.422V110.997H236.967V112.905H234.864V119.633Z" fill="#085399"/>
<path d="M246.645 115.303C246.645 116.756 246.289 117.861 245.576 118.617C244.863 119.373 243.82 119.751 242.445 119.751C241.091 119.751 240.051 119.371 239.326 118.611C238.606 117.851 238.245 116.744 238.245 115.291C238.245 113.854 238.604 112.757 239.32 112.001C240.041 111.241 241.087 110.861 242.457 110.861C243.831 110.861 244.873 111.237 245.582 111.989C246.291 112.741 246.645 113.846 246.645 115.303ZM240.703 115.303C240.703 116.973 241.284 117.808 242.445 117.808C243.036 117.808 243.473 117.605 243.757 117.199C244.044 116.794 244.188 116.161 244.188 115.303C244.188 114.441 244.042 113.805 243.751 113.395C243.463 112.981 243.032 112.775 242.457 112.775C241.287 112.775 240.703 113.617 240.703 115.303Z" fill="#085399"/>
<path d="M248.568 110.997H251.58C252.754 110.997 253.624 111.172 254.191 111.522C254.762 111.869 255.048 112.41 255.048 113.147C255.048 113.631 254.924 114.045 254.676 114.387C254.427 114.73 254.101 114.951 253.695 115.049V115.108C254.231 115.25 254.618 115.486 254.859 115.817C255.099 116.148 255.219 116.577 255.219 117.105C255.219 117.888 254.924 118.507 254.333 118.959C253.746 119.408 252.945 119.633 251.929 119.633H248.568V110.997ZM250.901 114.311H251.604C251.939 114.311 252.197 114.242 252.378 114.104C252.563 113.966 252.655 113.761 252.655 113.489C252.655 113.005 252.289 112.763 251.557 112.763H250.901V114.311ZM250.901 116.018V117.831H251.722C252.451 117.831 252.815 117.524 252.815 116.91C252.815 116.622 252.716 116.402 252.519 116.248C252.326 116.095 252.045 116.018 251.675 116.018H250.901Z" fill="#085399"/>
<path d="M262.381 119.633L261.956 118.014H259.15L258.713 119.633H256.149L258.967 110.961H262.08L264.933 119.633H262.381ZM261.471 116.1L261.099 114.683C261.012 114.368 260.906 113.96 260.78 113.46C260.658 112.96 260.577 112.601 260.538 112.385C260.502 112.586 260.432 112.917 260.325 113.377C260.223 113.838 259.993 114.746 259.634 116.1H261.471Z" fill="#085399"/>
<path d="M269.537 116.49L267.83 119.633H265.183L267.552 115.858C267.115 115.614 266.78 115.293 266.548 114.895C266.316 114.494 266.199 114.045 266.199 113.549C266.199 111.847 267.373 110.997 269.72 110.997H272.585V119.633H270.252V116.49H269.537ZM270.252 112.763H269.756C269.381 112.763 269.088 112.838 268.875 112.987C268.663 113.137 268.556 113.36 268.556 113.655C268.556 114.013 268.657 114.283 268.858 114.464C269.062 114.645 269.381 114.736 269.815 114.736H270.252V112.763Z" fill="#085399"/>
<path d="M285.875 119.633H283.235L280.671 115.256V119.633H278.326V110.997H280.671V115.179L283.14 110.997H285.704L283.04 115.12L285.875 119.633Z" fill="#085399"/>
<path d="M295.205 115.303C295.205 116.756 294.849 117.861 294.136 118.617C293.423 119.373 292.38 119.751 291.005 119.751C289.65 119.751 288.611 119.371 287.886 118.611C287.166 117.851 286.805 116.744 286.805 115.291C286.805 113.854 287.164 112.757 287.88 112.001C288.601 111.241 289.647 110.861 291.017 110.861C292.391 110.861 293.433 111.237 294.142 111.989C294.851 112.741 295.205 113.846 295.205 115.303ZM289.263 115.303C289.263 116.973 289.843 117.808 291.005 117.808C291.596 117.808 292.033 117.605 292.317 117.199C292.604 116.794 292.748 116.161 292.748 115.303C292.748 114.441 292.602 113.805 292.311 113.395C292.023 112.981 291.592 112.775 291.017 112.775C289.847 112.775 289.263 113.617 289.263 115.303Z" fill="#085399"/>
<path d="M300.89 119.633L299.124 113.413H299.071C299.154 114.472 299.195 115.295 299.195 115.882V119.633H297.128V110.997H300.235L302.036 117.128H302.084L303.85 110.997H306.963V119.633H304.819V115.846C304.819 115.65 304.82 115.431 304.824 115.191C304.832 114.951 304.86 114.362 304.907 113.425H304.854L303.111 119.633H300.89Z" fill="#085399"/>
<path d="M316.263 119.633H313.912V112.905H311.532V119.633H309.186V110.997H316.263V119.633Z" fill="#085399"/>
<path d="M323.791 119.633L323.366 118.014H320.56L320.123 119.633H317.559L320.377 110.961H323.49L326.343 119.633H323.791ZM322.882 116.1L322.509 114.683C322.423 114.368 322.317 113.96 322.191 113.46C322.068 112.96 321.988 112.601 321.948 112.385C321.913 112.586 321.842 112.917 321.736 113.377C321.633 113.838 321.403 114.746 321.045 116.1H322.882Z" fill="#085399"/>
<path d="M335.047 119.633H332.702V116.112H329.99V119.633H327.645V110.997H329.99V114.198H332.702V110.997H335.047V119.633Z" fill="#085399"/>
<path d="M337.282 110.997H339.362V114.706C339.362 115.1 339.33 115.888 339.267 117.069H339.314L342.758 110.997H345.641V119.633H343.573V116.018C343.573 115.47 343.609 114.651 343.68 113.56H343.632L340.159 119.633H337.282V110.997Z" fill="#085399"/>
<path d="M351.178 116.49L349.471 119.633H346.825L349.194 115.858C348.756 115.614 348.422 115.293 348.189 114.895C347.957 114.494 347.841 114.045 347.841 113.549C347.841 111.847 349.014 110.997 351.362 110.997H354.226V119.633H351.893V116.49H351.178ZM351.893 112.763H351.397C351.023 112.763 350.729 112.838 350.517 112.987C350.304 113.137 350.198 113.36 350.198 113.655C350.198 114.013 350.298 114.283 350.499 114.464C350.704 114.645 351.023 114.736 351.456 114.736H351.893V112.763Z" fill="#085399"/>
<path d="M136.549 132.772H133.909L131.345 128.395V132.772H129V124.136H131.345V128.318L133.814 124.136H136.378L133.714 128.259L136.549 132.772Z" fill="#085399"/>
<path d="M142.637 124.136H144.717V127.846C144.717 128.239 144.685 129.027 144.622 130.208H144.669L148.113 124.136H150.996V132.772H148.928V129.157C148.928 128.609 148.964 127.79 149.035 126.7H148.987L145.514 132.772H142.637V124.136Z" fill="#085399"/>
<path d="M164.338 126.883C164.338 127.847 164.052 128.594 163.481 129.121C162.914 129.645 162.107 129.907 161.059 129.907H160.404V132.772H158.07V124.136H161.059C162.15 124.136 162.969 124.374 163.517 124.851C164.064 125.327 164.338 126.004 164.338 126.883ZM160.404 128.005H160.829C161.179 128.005 161.457 127.907 161.662 127.71C161.871 127.513 161.975 127.241 161.975 126.894C161.975 126.312 161.652 126.02 161.006 126.02H160.404V128.005Z" fill="#085399"/>
<path d="M178.997 128.442C178.997 129.895 178.641 131 177.928 131.756C177.215 132.512 176.171 132.89 174.797 132.89C173.442 132.89 172.403 132.51 171.678 131.75C170.957 130.99 170.597 129.883 170.597 128.43C170.597 126.993 170.955 125.896 171.672 125.14C172.393 124.38 173.438 124 174.809 124C176.183 124 177.225 124.376 177.934 125.128C178.643 125.88 178.997 126.985 178.997 128.442ZM173.054 128.442C173.054 130.112 173.635 130.947 174.797 130.947C175.388 130.947 175.825 130.744 176.108 130.338C176.396 129.933 176.54 129.301 176.54 128.442C176.54 127.58 176.394 126.944 176.103 126.534C175.815 126.121 175.384 125.914 174.809 125.914C173.639 125.914 173.054 126.757 173.054 128.442Z" fill="#085399"/>
<path d="M185.758 124.136H188.771C189.945 124.136 190.815 124.311 191.382 124.662C191.953 125.008 192.239 125.55 192.239 126.286C192.239 126.77 192.114 127.184 191.866 127.527C191.618 127.869 191.291 128.09 190.886 128.188V128.247C191.421 128.389 191.809 128.625 192.049 128.956C192.29 129.287 192.41 129.716 192.41 130.244C192.41 131.027 192.114 131.646 191.524 132.099C190.937 132.548 190.136 132.772 189.12 132.772H185.758V124.136ZM188.092 127.45H188.795C189.129 127.45 189.387 127.381 189.569 127.243C189.754 127.105 189.846 126.9 189.846 126.629C189.846 126.144 189.48 125.902 188.747 125.902H188.092V127.45ZM188.092 129.157V130.97H188.913C189.641 130.97 190.006 130.663 190.006 130.049C190.006 129.761 189.907 129.541 189.71 129.387C189.517 129.234 189.236 129.157 188.866 129.157H188.092Z" fill="#085399"/>
<path d="M202.958 125.926C202.402 125.926 201.969 126.154 201.658 126.611C201.347 127.064 201.191 127.69 201.191 128.489C201.191 130.151 201.824 130.982 203.088 130.982C203.47 130.982 203.84 130.929 204.198 130.823C204.557 130.716 204.917 130.588 205.279 130.439V132.412C204.559 132.731 203.743 132.89 202.834 132.89C201.53 132.89 200.53 132.512 199.833 131.756C199.14 131 198.793 129.907 198.793 128.478C198.793 127.584 198.961 126.798 199.295 126.121C199.634 125.443 200.118 124.923 200.748 124.561C201.382 124.195 202.127 124.012 202.981 124.012C203.915 124.012 204.807 124.215 205.657 124.62L204.942 126.457C204.624 126.308 204.305 126.182 203.986 126.079C203.667 125.977 203.324 125.926 202.958 125.926Z" fill="#085399"/>
<path d="M219.72 132.772H217.079L214.516 128.395V132.772H212.171V124.136H214.516V128.318L216.985 124.136H219.549L216.884 128.259L219.72 132.772Z" fill="#085399"/>
<path d="M233.889 128.442C233.889 129.895 233.532 131 232.82 131.756C232.107 132.512 231.063 132.89 229.689 132.89C228.334 132.89 227.295 132.51 226.57 131.75C225.849 130.99 225.489 129.883 225.489 128.43C225.489 126.993 225.847 125.896 226.564 125.14C227.285 124.38 228.33 124 229.701 124C231.075 124 232.117 124.376 232.826 125.128C233.534 125.88 233.889 126.985 233.889 128.442ZM227.946 128.442C227.946 130.112 228.527 130.947 229.689 130.947C230.28 130.947 230.717 130.744 231 130.338C231.288 129.933 231.431 129.301 231.431 128.442C231.431 127.58 231.286 126.944 230.994 126.534C230.707 126.121 230.276 125.914 229.701 125.914C228.531 125.914 227.946 126.757 227.946 128.442Z" fill="#085399"/>
<path d="M246.41 124.136V126.02H242.995V132.772H240.65V124.136H246.41Z" fill="#085399"/>
<path d="M260.927 128.442C260.927 129.895 260.571 131 259.858 131.756C259.145 132.512 258.102 132.89 256.727 132.89C255.373 132.89 254.333 132.51 253.608 131.75C252.888 130.99 252.527 129.883 252.527 128.43C252.527 126.993 252.886 125.896 253.602 125.14C254.323 124.38 255.369 124 256.739 124C258.113 124 259.155 124.376 259.864 125.128C260.573 125.88 260.927 126.985 260.927 128.442ZM254.985 128.442C254.985 130.112 255.565 130.947 256.727 130.947C257.318 130.947 257.755 130.744 258.039 130.338C258.326 129.933 258.47 129.301 258.47 128.442C258.47 127.58 258.324 126.944 258.033 126.534C257.745 126.121 257.314 125.914 256.739 125.914C255.569 125.914 254.985 126.757 254.985 128.442Z" fill="#085399"/>
<path d="M282.259 126.156C282.259 127.294 281.582 127.979 280.227 128.212V128.259C281.007 128.326 281.596 128.535 281.993 128.885C282.391 129.236 282.59 129.708 282.59 130.303C282.59 130.823 282.444 131.279 282.153 131.673C281.865 132.063 281.448 132.364 280.901 132.577C280.353 132.786 279.705 132.89 278.957 132.89C277.583 132.89 276.486 132.735 275.667 132.423V130.415C276.002 130.584 276.427 130.722 276.943 130.829C277.463 130.931 277.933 130.982 278.355 130.982C279.02 130.982 279.493 130.913 279.772 130.775C280.052 130.638 280.192 130.407 280.192 130.084C280.192 129.505 279.53 129.216 278.207 129.216H277.191V127.326H278.101C278.557 127.326 278.914 127.304 279.17 127.261C279.43 127.213 279.619 127.139 279.737 127.036C279.855 126.934 279.914 126.78 279.914 126.575C279.914 126.142 279.499 125.926 278.668 125.926C277.884 125.926 277.195 126.127 276.6 126.528L275.62 124.922C276.136 124.591 276.659 124.356 277.191 124.219C277.723 124.081 278.364 124.012 279.117 124.012C280.066 124.012 280.826 124.209 281.397 124.603C281.972 124.996 282.259 125.514 282.259 126.156Z" fill="#085399"/>
<path d="M294.591 132.772L294.166 131.153H291.36L290.923 132.772H288.359L291.177 124.1H294.29L297.143 132.772H294.591ZM293.681 129.24L293.309 127.822C293.223 127.507 293.116 127.099 292.99 126.599C292.868 126.099 292.787 125.741 292.748 125.524C292.713 125.725 292.642 126.056 292.535 126.516C292.433 126.977 292.203 127.885 291.844 129.24H293.681Z" fill="#085399"/>
<path d="M303.284 124.136H306.297C307.47 124.136 308.341 124.311 308.908 124.662C309.479 125.008 309.764 125.55 309.764 126.286C309.764 126.77 309.64 127.184 309.392 127.527C309.144 127.869 308.817 128.09 308.411 128.188V128.247C308.947 128.389 309.335 128.625 309.575 128.956C309.815 129.287 309.935 129.716 309.935 130.244C309.935 131.027 309.64 131.646 309.049 132.099C308.463 132.548 307.661 132.772 306.645 132.772H303.284V124.136ZM305.617 127.45H306.32C306.655 127.45 306.913 127.381 307.094 127.243C307.279 127.105 307.372 126.9 307.372 126.629C307.372 126.144 307.006 125.902 306.273 125.902H305.617V127.45ZM305.617 129.157V130.97H306.438C307.167 130.97 307.531 130.663 307.531 130.049C307.531 129.761 307.433 129.541 307.236 129.387C307.043 129.234 306.761 129.157 306.391 129.157H305.617Z" fill="#085399"/>
<path d="M324.719 128.442C324.719 129.895 324.362 131 323.65 131.756C322.937 132.512 321.893 132.89 320.519 132.89C319.164 132.89 318.124 132.51 317.4 131.75C316.679 130.99 316.319 129.883 316.319 128.43C316.319 126.993 316.677 125.896 317.394 125.14C318.115 124.38 319.16 124 320.531 124C321.905 124 322.947 124.376 323.655 125.128C324.364 125.88 324.719 126.985 324.719 128.442ZM318.776 128.442C318.776 130.112 319.357 130.947 320.519 130.947C321.11 130.947 321.547 130.744 321.83 130.338C322.118 129.933 322.261 129.301 322.261 128.442C322.261 127.58 322.116 126.944 321.824 126.534C321.537 126.121 321.106 125.914 320.531 125.914C319.361 125.914 318.776 126.757 318.776 128.442Z" fill="#085399"/>
<path d="M340.175 135.46H337.901V132.772H332.868V135.46H330.594V130.858H331.309C331.825 129.984 332.25 128.974 332.585 127.828C332.92 126.678 333.136 125.447 333.235 124.136H338.994V130.858H340.175V135.46ZM336.643 130.858V126.044H335.107C334.946 127.729 334.503 129.334 333.778 130.858H336.643Z" fill="#085399"/>
<path d="M351.834 132.772L351.409 131.153H348.603L348.166 132.772H345.602L348.42 124.1H351.533L354.386 132.772H351.834ZM350.924 129.24L350.552 127.822C350.465 127.507 350.359 127.099 350.233 126.599C350.111 126.099 350.03 125.741 349.991 125.524C349.955 125.725 349.885 126.056 349.778 126.516C349.676 126.977 349.445 127.885 349.087 129.24H350.924Z" fill="#085399"/>
<path d="M78.8669 22.5151L64.1831 37.1989L49.5883 22.5151L64.1831 7.92034L78.8669 22.5151ZM76.4641 10.2342L70.9465 0H57.4197L51.9021 10.2342L41.668 15.7517V29.2786L51.9021 34.7961L57.4197 45.0303H70.9465L76.4641 34.7961L86.6982 29.2786V15.7517L76.4641 10.2342Z" fill="#D32B27"/>
<path d="M67.3035 7.92038L84.3901 17.1756V25.007L67.3035 7.92038ZM69.6173 42.8055H61.786L78.8725 25.7189L69.6173 42.8055ZM43.8984 27.9437V20.0234L60.985 37.11L43.8984 27.9437ZM58.7602 2.22485H66.5915L49.594 19.4004L58.7602 2.22485Z" fill="white"/>
<path d="M22.8512 70.5691H0C6.4521 51.2129 25.0915 46.8219 33.6047 47.0459C43.8205 44.8953 57.1279 51.5265 62.5047 55.1109C65.7307 49.7342 81.3233 47.494 88.7163 47.0459C116.675 45.4329 124.561 62.056 125.009 70.5691H103.502C100.814 63.0416 92.5249 60.2637 88.7163 59.8157C73.1238 61.4287 73.7062 75.7219 75.9466 82.6669C86.7001 99.3348 98.7977 89.6119 103.502 82.6669H125.009C125.547 90.1943 118.961 96.5568 115.6 98.7971C96.7815 110.088 72.3621 103.502 62.5047 98.7971C24.3298 118.153 4.92869 96.1088 0 82.6669H24.1954C30.1098 97.7218 43.6861 91.6281 49.7349 86.6994V81.9948H31.5884V70.5691H49.7349V65.8645C35.7554 51.8849 25.9876 63.1761 22.8512 70.5691Z" fill="#085399"/>
<path fill-rule="evenodd" clip-rule="evenodd" d="M228.204 80.5431L205.353 95.3291L204.623 94.2006L227.474 79.4146L228.204 80.5431Z" fill="#085399"/>
<path fill-rule="evenodd" clip-rule="evenodd" d="M230.851 93.9957L208.672 80.5538L209.369 79.4043L231.548 92.8462L230.851 93.9957Z" fill="#085399"/>
</svg>
