<svg width="286" height="136" viewBox="0 0 286 136" fill="none" xmlns="http://www.w3.org/2000/svg">
<path d="M59.2229 117.262H51.6265C51.6265 123.773 57.5691 130.48 60.3081 131.912C84.1827 144.392 118.728 125.039 132.474 117.262H117.824C76.5862 132.02 61.5742 123.411 59.2229 117.262Z" fill="#ACACAC"/>
<path d="M7.61765 58.6608H5.08691V51.4183H2.52438V58.6608H0V49.3645H7.61765V58.6608Z" fill="#2A437E"/>
<path d="M16.7642 52.3212C16.7642 53.3598 16.4568 54.1631 15.8422 54.7312C15.2317 55.295 14.3627 55.5769 13.2351 55.5769H12.5293V58.6608H10.0177V49.3645H13.2351C14.4094 49.3645 15.2911 49.6209 15.8803 50.1339C16.4695 50.6468 16.7642 51.3759 16.7642 52.3212ZM12.5293 53.5294H12.9871C13.3644 53.5294 13.6633 53.4234 13.8837 53.2115C14.1084 52.9995 14.2207 52.707 14.2207 52.334C14.2207 51.7066 13.8731 51.3929 13.1779 51.3929H12.5293V53.5294Z" fill="#2A437E"/>
<path d="M27.335 53.9999C27.335 55.5641 26.9514 56.7532 26.1841 57.5671C25.4168 58.381 24.2935 58.788 22.814 58.788C21.3558 58.788 20.2367 58.3789 19.4567 57.5608C18.6809 56.7426 18.293 55.5514 18.293 53.9872C18.293 52.4399 18.6788 51.2594 19.4503 50.4454C20.2261 49.6273 21.3515 49.2182 22.8267 49.2182C24.3062 49.2182 25.4274 49.6231 26.1905 50.4327C26.9535 51.2424 27.335 52.4315 27.335 53.9999ZM20.9382 53.9999C20.9382 55.7973 21.5635 56.696 22.814 56.696C23.4499 56.696 23.9204 56.4777 24.2256 56.041C24.5351 55.6044 24.6898 54.924 24.6898 53.9999C24.6898 53.0716 24.533 52.3869 24.2193 51.9461C23.9098 51.501 23.4457 51.2784 22.8267 51.2784C21.5677 51.2784 20.9382 52.1856 20.9382 53.9999Z" fill="#2A437E"/>
<path d="M33.4548 58.6608L31.5536 51.9652H31.4964C31.5854 53.1055 31.6299 53.9914 31.6299 54.6231V58.6608H29.4044V49.3645H32.749L34.6884 55.9647H34.7393L36.6405 49.3645H39.9915V58.6608H37.6833V54.5849C37.6833 54.373 37.6854 54.1377 37.6897 53.8791C37.6982 53.6205 37.7278 52.9868 37.7787 51.9779H37.7215L35.8457 58.6608H33.4548Z" fill="#2A437E"/>
<path d="M49.0236 55.5769C49.0236 56.5688 48.6844 57.3318 48.0062 57.866C47.3322 58.3959 46.3741 58.6608 45.1321 58.6608H42.3851V49.3645H44.9095V52.671H45.0367C46.3339 52.671 47.3216 52.9168 47.9998 53.4086C48.6823 53.8961 49.0236 54.6188 49.0236 55.5769ZM44.9095 56.7214H45.0113C45.9947 56.7214 46.4865 56.3569 46.4865 55.6277C46.4865 54.924 45.9905 54.5722 44.9985 54.5722H44.9095V56.7214ZM52.4 58.6608H49.8693V49.3645H52.4V58.6608Z" fill="#2A437E"/>
<path d="M66.9577 58.6608H54.7937V49.3645H57.318V56.6006H59.6389V49.3645H62.1124V56.6006H64.427V49.3645H66.9577V58.6608Z" fill="#2A437E"/>
<path d="M77.2679 58.6608H74.7435V51.4183H72.9694C72.8719 52.4739 72.7405 53.5485 72.5752 54.6421C72.4141 55.7358 72.2594 56.5031 72.111 56.944C71.9627 57.3848 71.774 57.7367 71.5451 57.9995C71.3204 58.2581 71.0407 58.4552 70.7058 58.5909C70.3709 58.7223 69.966 58.788 69.4913 58.788C69.1309 58.788 68.8024 58.7413 68.5057 58.6481V56.7087C68.76 56.7935 68.9677 56.8359 69.1288 56.8359C69.3493 56.8359 69.5167 56.7447 69.6312 56.5625C69.7498 56.3759 69.8579 56.0622 69.9554 55.6214C70.0529 55.1763 70.1886 54.3539 70.3624 53.1542C70.5362 51.9503 70.6973 50.6871 70.8457 49.3645H77.2679V58.6608Z" fill="#2A437E"/>
<path d="M85.1935 58.6608H79.6742V49.3645H85.1935V51.3802H82.1859V52.8427H84.971V54.8583H82.1859V56.6133H85.1935V58.6608Z" fill="#2A437E"/>
<path d="M95.1794 58.6608H92.655V54.8711H89.7364V58.6608H87.212V49.3645H89.7364V52.8109H92.655V49.3645H95.1794V58.6608Z" fill="#2A437E"/>
<path d="M105.553 58.6608H103.029V54.8711H100.11V58.6608H97.5858V49.3645H100.11V52.8109H103.029V49.3645H105.553V58.6608Z" fill="#2A437E"/>
<path d="M114.598 55.5769C114.598 56.5688 114.259 57.3318 113.581 57.866C112.907 58.3959 111.948 58.6608 110.706 58.6608H107.959V49.3645H110.484V52.671H110.611C111.908 52.671 112.896 52.9168 113.574 53.4086C114.257 53.8961 114.598 54.6188 114.598 55.5769ZM110.484 56.7214H110.586C111.569 56.7214 112.061 56.3569 112.061 55.6277C112.061 54.924 111.565 54.5722 110.573 54.5722H110.484V56.7214ZM117.974 58.6608H115.444V49.3645H117.974V58.6608Z" fill="#2A437E"/>
<path d="M120.368 49.3645H122.606V53.3577C122.606 53.7816 122.572 54.6294 122.504 55.9012H122.555L126.262 49.3645H129.365V58.6608H127.14V54.7693C127.14 54.1801 127.178 53.2984 127.254 52.1241H127.204L123.465 58.6608H120.368V49.3645ZM124.844 48.6205C123.831 48.6205 123.073 48.4234 122.568 48.0292C122.068 47.6349 121.788 47.0245 121.729 46.1979H123.802C123.823 46.6133 123.914 46.9143 124.075 47.1008C124.236 47.2873 124.493 47.3806 124.844 47.3806C125.48 47.3806 125.828 46.9863 125.887 46.1979H127.992C127.818 47.813 126.769 48.6205 124.844 48.6205Z" fill="#2A437E"/>
<path d="M143.672 58.6608H140.829L138.07 53.9491V58.6608H135.545V49.3645H138.07V53.8664L140.728 49.3645H143.487L140.619 53.8028L143.672 58.6608Z" fill="#2A437E"/>
<path d="M153.715 53.9999C153.715 55.5641 153.331 56.7532 152.564 57.5671C151.797 58.381 150.673 58.788 149.194 58.788C147.735 58.788 146.616 58.3789 145.836 57.5608C145.061 56.7426 144.673 55.5514 144.673 53.9872C144.673 52.4399 145.058 51.2594 145.83 50.4454C146.606 49.6273 147.731 49.2182 149.206 49.2182C150.686 49.2182 151.807 49.6231 152.57 50.4327C153.333 51.2424 153.715 52.4315 153.715 53.9999ZM147.318 53.9999C147.318 55.7973 147.943 56.696 149.194 56.696C149.83 56.696 150.3 56.4777 150.605 56.041C150.915 55.6044 151.07 54.924 151.07 53.9999C151.07 53.0716 150.913 52.3869 150.599 51.9461C150.29 51.501 149.825 51.2784 149.206 51.2784C147.947 51.2784 147.318 52.1856 147.318 53.9999Z" fill="#2A437E"/>
<path d="M159.835 58.6608L157.933 51.9652H157.876C157.965 53.1055 158.01 53.9914 158.01 54.6231V58.6608H155.784V49.3645H159.129L161.068 55.9647H161.119L163.02 49.3645H166.371V58.6608H164.063V54.5849C164.063 54.373 164.065 54.1377 164.069 53.8791C164.078 53.6205 164.108 52.9868 164.158 51.9779H164.101L162.225 58.6608H159.835Z" fill="#2A437E"/>
<path d="M176.382 58.6608H173.852V51.4183H171.289V58.6608H168.765V49.3645H176.382V58.6608Z" fill="#2A437E"/>
<path d="M186.699 58.6608H184.175V51.4183H182.401C182.303 52.4739 182.172 53.5485 182.006 54.6421C181.845 55.7358 181.691 56.5031 181.542 56.944C181.394 57.3848 181.205 57.7367 180.976 57.9995C180.752 58.2581 180.472 58.4552 180.137 58.5909C179.802 58.7223 179.397 58.788 178.922 58.788C178.562 58.788 178.234 58.7413 177.937 58.6481V56.7087C178.191 56.7935 178.399 56.8359 178.56 56.8359C178.78 56.8359 178.948 56.7447 179.062 56.5625C179.181 56.3759 179.289 56.0622 179.387 55.6214C179.484 55.1763 179.62 54.3539 179.794 53.1542C179.967 51.9503 180.128 50.6871 180.277 49.3645H186.699V58.6608Z" fill="#2A437E"/>
<path d="M194.625 58.6608H189.105V49.3645H194.625V51.3802H191.617V52.8427H194.402V54.8583H191.617V56.6133H194.625V58.6608Z" fill="#2A437E"/>
<path d="M204.769 58.6608H201.927L199.168 53.9491V58.6608H196.643V49.3645H199.168V53.8664L201.825 49.3645H204.585L201.717 53.8028L204.769 58.6608Z" fill="#2A437E"/>
<path d="M210.253 51.2911C209.656 51.2911 209.189 51.537 208.855 52.0287C208.52 52.5162 208.352 53.1903 208.352 54.0508C208.352 55.8397 209.033 56.7341 210.393 56.7341C210.805 56.7341 211.203 56.6769 211.589 56.5625C211.975 56.448 212.362 56.3102 212.752 56.1491V58.2729C211.977 58.6163 211.099 58.788 210.12 58.788C208.717 58.788 207.64 58.381 206.89 57.5671C206.144 56.7532 205.771 55.5769 205.771 54.0381C205.771 53.0758 205.951 52.2301 206.311 51.501C206.676 50.7719 207.197 50.2123 207.875 49.8223C208.558 49.4281 209.359 49.2309 210.279 49.2309C211.284 49.2309 212.244 49.4493 213.159 49.8859L212.39 51.8634C212.047 51.7023 211.703 51.5667 211.36 51.4565C211.016 51.3463 210.648 51.2911 210.253 51.2911Z" fill="#2A437E"/>
<path fill-rule="evenodd" clip-rule="evenodd" d="M255.097 53.73H251.434L243.559 57.9426L243.943 59.4741H251.263L254.999 63.8337H251.487L239.621 68.378L239.9 69.9519L251.075 70.1228L255.634 76.4419L251.158 79.7068L252.118 81.0219L257.902 76.8027L253.203 70.2909L268.146 69.9518L268.427 68.3812L257.255 63.9648L253.407 59.4741H266.841L257.021 53.9584L253.835 47.4503L252.373 48.1661L255.097 53.73ZM253.825 57.8463H254.341L254.093 57.6142L253.825 57.8463ZM255.332 56.544L256.723 57.8463H260.619L256.501 55.5334L255.332 56.544ZM254.215 55.3578L254.137 55.4253L254.065 55.3578H254.215ZM251.741 55.412L252.898 56.4955L251.335 57.8463H247.19L251.741 55.412ZM254.727 65.4615H253.715L254.227 65.9352L254.727 65.4615ZM253.044 67.0577L251.456 65.5886L244.144 68.3888L251.521 68.5016L253.044 67.0577ZM253.849 68.5372L254.241 68.1658L254.655 68.5496L253.849 68.5372ZM257.079 68.5747L255.424 67.0433L256.951 65.5953L264.086 68.4157L257.079 68.5747Z" fill="#2C4377"/>
<path fill-rule="evenodd" clip-rule="evenodd" d="M227.768 61.739H224.491L217.211 65.536L217.587 67.0715H224.322L227.627 70.8323H224.543L213.582 74.9252L213.854 76.5015L224.144 76.6549L228.278 82.2409L224.219 85.1281L225.162 86.4546L230.573 82.606L226.279 76.8034L239.929 76.5014L240.204 74.9282L229.905 70.9587L226.489 67.0715H235.853L236.243 65.5437L229.701 61.9609L226.771 56.1255L225.316 56.856L227.768 61.739ZM226.92 65.4437H226.989L226.955 65.4135L226.92 65.4437ZM228.211 64.3557L229.403 65.4437H232.672L229.186 63.5346L228.211 64.3557ZM224.777 63.4255L225.743 64.3067L224.393 65.4437H220.908L224.777 63.4255ZM227.347 72.4601H226.807L227.08 72.7065L227.347 72.4601ZM225.88 73.8161L224.512 72.5816L218.2 74.9383L224.564 75.0332L225.88 73.8161ZM226.923 75.0684L227.093 74.9112L227.273 75.0736L226.923 75.0684ZM229.731 75.0988L228.294 73.8016L229.606 72.588L235.774 74.9651L229.731 75.0988Z" fill="#2C4377"/>
<path fill-rule="evenodd" clip-rule="evenodd" d="M251.768 75.2101H257.356L266.92 80.5375H257.093L253.718 83.6398L258.962 86.6445L251.008 92.9403L249.998 91.664L256.066 86.8611L250.979 83.9465L254.687 80.5375H242.204L251.768 75.2101ZM257.053 78.9097H260.653L256.933 76.838H254.367L257.053 78.9097ZM251.907 76.9961L254.388 78.9097H248.471L251.907 76.9961Z" fill="#2C4377"/>
<path fill-rule="evenodd" clip-rule="evenodd" d="M224.945 81.7214H229.919L235.962 85.0276L235.571 86.5555H229.699L226.864 89.1143L231.503 91.7247L224.351 97.2856L223.351 96.0005L228.571 91.9425L224.093 89.4228L227.269 86.5555H219.293L218.902 85.0276L224.945 81.7214ZM229.659 84.9277H232.388L229.503 83.3492H227.575L229.659 84.9277ZM225.082 83.5022L226.963 84.9277H222.476L225.082 83.5022Z" fill="#2C4377"/>
<path fill-rule="evenodd" clip-rule="evenodd" d="M252.947 47.0281H255.779L256.023 47.3495C256.132 47.4929 256.193 47.6519 256.228 47.7563C256.269 47.8758 256.302 48.0085 256.331 48.145C256.39 48.4188 256.441 48.7638 256.488 49.1614C256.583 49.9597 256.666 51.0331 256.74 52.3066C256.888 54.8572 257 58.2598 257.084 61.9776C257.251 69.3768 257.308 78.0554 257.308 83.8265L258.036 87.0598L259.23 92.9492L247.072 109.071L245.624 108.424L250.458 83.8378C250.459 64.6017 250.831 55.5704 251.207 51.3406C251.393 49.2522 251.585 48.2521 251.77 47.7645C251.819 47.6362 251.884 47.4956 251.98 47.3704C252.072 47.2506 252.259 47.0589 252.564 47.0073C252.709 46.9828 252.838 46.9965 252.947 47.0281ZM253.202 48.6559C253.103 49.0847 252.968 49.9205 252.828 51.4848C252.459 55.6422 252.086 64.6294 252.086 83.917V83.9963L247.904 105.264L257.489 92.5543L256.444 87.4003L255.68 84.0076V83.917C255.68 78.1535 255.624 69.4358 255.457 62.0143C255.373 58.3023 255.261 54.9224 255.115 52.4007C255.042 51.1382 254.961 50.1029 254.872 49.3531C254.839 49.0723 254.805 48.8402 254.772 48.6559H253.202Z" fill="#2C4377"/>
<path fill-rule="evenodd" clip-rule="evenodd" d="M225.235 55.7067H227.836L228.081 56.0286C228.187 56.1687 228.245 56.3224 228.278 56.4197C228.316 56.5321 228.347 56.6559 228.374 56.7817C228.427 57.0341 228.475 57.3507 228.518 57.7138C228.604 58.4429 228.68 59.4221 228.747 60.5825C228.881 62.9066 228.983 66.0064 229.06 69.3924C229.212 76.1283 229.263 84.0281 229.263 89.2843L229.924 92.2219L231.015 97.6177L219.943 112.326L218.494 111.679L222.888 89.2955C222.889 71.7815 223.227 63.5555 223.569 59.7005C223.738 57.7995 223.913 56.8792 224.085 56.4247C224.131 56.3046 224.193 56.1693 224.286 56.0474C224.375 55.9311 224.56 55.7402 224.864 55.6888C225.004 55.6651 225.129 55.6772 225.235 55.7067ZM225.516 57.3345C225.429 57.7336 225.311 58.4844 225.191 59.8444C224.855 63.6272 224.516 71.8092 224.516 89.3746V89.4537L220.774 108.515L229.275 97.2233L228.332 92.5618L227.636 89.465V89.3746C227.636 84.126 227.585 76.1873 227.432 69.4291C227.356 66.0488 227.255 62.9717 227.122 60.6764C227.055 59.5271 226.982 58.5859 226.901 57.9051C226.875 57.68 226.848 57.49 226.822 57.3345H225.516Z" fill="#2C4377"/>
<path fill-rule="evenodd" clip-rule="evenodd" d="M248.072 91.4884H259.517L262.418 108.443L260.959 109.062L248.072 91.4884ZM251.285 93.1162L260.231 105.317L258.144 93.1162H251.285Z" fill="#2C4377"/>
<path fill-rule="evenodd" clip-rule="evenodd" d="M220.967 95.8288H231.558L234.203 111.702L232.738 112.309L220.967 95.8288ZM224.13 97.4566L232.02 108.502L230.179 97.4566H224.13Z" fill="#2C4377"/>
<path d="M115.964 22.5771L101.278 37.2628L86.6811 22.5771L101.278 7.98045L115.964 22.5771ZM113.56 10.2946L108.042 0.059082H94.5135L88.9952 10.2946L78.7598 15.8128V29.3415L88.9952 34.8597L94.5135 45.0952H108.042L113.56 34.8597L123.796 29.3415V15.8128L113.56 10.2946Z" fill="#D32B27"/>
<path d="M104.396 7.98118L121.485 17.2376V25.07L104.396 7.98118ZM106.71 42.8708H98.8781L115.967 25.782L106.71 42.8708ZM80.9883 28.0071V20.0857L98.0771 37.1745L80.9883 28.0071ZM95.852 2.28491H103.684L86.6845 19.4627L95.852 2.28491Z" fill="white"/>
<path fill-rule="evenodd" clip-rule="evenodd" d="M285.49 3.6749C283.868 7.16952 276.429 13.335 259.655 10.0401C255.911 9.16645 247.673 7.56891 244.678 8.16799C242.931 8.2928 239.436 10.1899 239.436 16.7797C238.438 12.037 237.938 2.10232 243.929 0.305086C246.425 -0.194146 253.664 -0.443761 262.65 2.55163C267.892 4.29892 279.799 6.96979 285.49 3.6749ZM282.121 5.5471C279.25 6.29595 270.214 6.67037 257.035 2.17728C250.42 0.180357 237.714 -0.892992 239.811 10.789C240.685 8.91694 244.304 5.69695 251.793 7.79372C260.654 9.9154 279.126 12.4364 282.121 5.5471Z" fill="#2C4377"/>
<path d="M119.453 46.1814H113.485C154.288 18.4001 194.875 7.65636 211.696 13.0824C232.966 17.8573 224.176 37.1379 217.122 46.1814C226.672 27.5159 210.249 21.7642 200.844 21.2216C172.628 19.0512 134.827 36.9571 119.453 46.1814Z" fill="#ACACAC"/>
<path d="M242.624 88.5037H232.858V95.0149L236.113 111.293H244.252V110.208V84.1628H242.624V88.5037Z" fill="#2C447F"/>
<path fill-rule="evenodd" clip-rule="evenodd" d="M243.167 77.6518V80.3648H244.252L240.997 19.0506H234.485L232.315 78.737H233.4L234.485 61.3737H241.539L243.167 77.6518ZM235.571 36.4139H240.454L241.539 48.8938H234.485L235.571 36.4139Z" fill="#2C447F"/>
<path d="M43.8787 61.9164H33.7212V110.739H43.8787V89.3447H51.779V111.836H61.9366V61.9164H51.779V81.1162H43.8787V61.9164Z" fill="#2C447F"/>
<path d="M88.5252 61.9164H66.821V111.293H88.5252V103.697H77.1305V88.504H88.5252V81.4501H77.1305V70.0554H88.5252V61.9164Z" fill="#2C447F"/>
<path d="M147.669 61.9164H125.965V110.751H135.189V69.5128H147.669V61.9164Z" fill="#2C447F"/>
<path d="M150.924 110.751V61.9164H161.234V89.0466L169.915 61.9164H180.225V110.751H169.915V85.2483L161.234 110.751H150.924Z" fill="#2C447F"/>
<path d="M11.4755 78.737H1.16606V69.5127C1.16606 63.4355 10.2094 61.1927 14.731 60.831C25.583 60.831 29.3813 68.0658 29.9239 71.6832V102.069C29.4898 111.185 21.0614 112.74 16.9014 112.378H9.84772C1.16606 111.076 0.442586 98.8133 1.16606 92.8446H11.4755V102.069C14.5141 107.712 17.4442 104.42 18.5294 102.069V88.5038H13.1033V81.4499H18.5294V71.6832C15.4908 66.0401 12.5607 69.3319 11.4755 71.6832V78.737Z" fill="#2C447F"/>
<path fill-rule="evenodd" clip-rule="evenodd" d="M93.4077 61.9164H112.941C115.654 64.0868 121.081 70.2725 121.081 77.6519C121.261 81.0884 119.887 88.8295 112.941 92.3022H103.717V111.293H93.4077V61.9164ZM102.632 68.4276V84.7057C105.526 85.7909 111.314 86.0079 111.314 78.1944C111.314 74.0345 109.577 66.2571 102.632 68.4276Z" fill="#2C447F"/>
<path fill-rule="evenodd" clip-rule="evenodd" d="M184.584 111.293H194.351L201.405 94.4726V111.293H211.714V61.9164H194.351C191.095 62.459 184.584 65.9316 184.584 75.4815C184.403 79.6414 185.561 88.6125 191.638 91.217L184.584 111.293ZM203.015 68.4276V84.7057C200.121 85.7909 194.333 86.0079 194.333 78.1944C194.333 74.0345 196.07 66.2571 203.015 68.4276Z" fill="#2C447F"/>
</svg>
