<svg width="355" height="136" fill="none" xmlns="http://www.w3.org/2000/svg"><path fill-rule="evenodd" clip-rule="evenodd" d="M208.029 79.307h21.523l-6.475 14.39-1.226-.552 5.622-12.494h-17.458l5.008 12.52-1.248.5-5.746-14.364z" fill="#085399"/><path fill-rule="evenodd" clip-rule="evenodd" d="M227.396 80.486l-16.13-14.114.885-1.012 16.13 14.114-.885 1.012z" fill="#085399"/><path fill-rule="evenodd" clip-rule="evenodd" d="M208.566 78.81l15.459-14.114.906.993-15.458 14.114-.907-.992z" fill="#085399"/><path fill-rule="evenodd" clip-rule="evenodd" d="M224.023 65.014l-9.41-8.737.915-.985 9.409 8.737-.914.985z" fill="#085399"/><path fill-rule="evenodd" clip-rule="evenodd" d="M223.592 56.276l-10.081 9.409-.917-.983 10.081-9.409.917.983z" fill="#085399"/><path fill-rule="evenodd" clip-rule="evenodd" d="M204.796 100.836l8.664-8.087h8.572l10.082 8.303L218.43 41.96l-13.634 58.876zm12.979-62.006h1.31l15.233 65.778-12.769-10.515h-7.559l-11.498 10.731 15.283-65.994z" fill="#085399"/><path fill-rule="evenodd" clip-rule="evenodd" d="M199.869 64.521h37.224l-4.644 7.74-1.152-.692 3.421-5.704h-32.674l2.874 5.749-1.202.6-3.847-7.693zm-2.115-9.409h41.928l-3.847 7.694-1.202-.601 2.874-5.749h-37.379l3.422 5.703-1.153.692-4.643-7.739zm8.064-6.049h25.031l-1.713 4.282-1.248-.499.976-2.439h-20.672l1.406 2.343-1.153.692-2.627-4.379z" fill="#085399"/><path d="M28.228 108.208h-3.36c-11.291 20.969 4.705 27.107 14.114 27.555 30.11 2.689 69.45-18.146 85.356-28.9v-4.032c-79.038 38.175-97.006 19.491-96.11 5.377z" fill="#BEBFC1"/><path d="M148.534 49.063h-20.163v54.44h20.163V90.061l10.081-8.065 17.475 21.507h24.195L176.09 69.226l20.163-20.163h-28.9l-18.819 18.819V49.063z" fill="#085399"/><path d="M90.732 45.03h-3.36C140.6 5.242 179 2.912 191.545 6.72c18.452 8.48 13.66 23.01 8.042 30.613a7.18 7.18 0 01-1.321 1.648c.438-.503.882-1.055 1.321-1.648 3.443-5.833.871-18.105-16.108-20.53-18.818-2.689-71.914 16.13-92.748 28.227z" fill="#BEBFC1"/><path d="M135.275 119.633l-.425-1.619h-2.806l-.437 1.619h-2.564l2.818-8.672h3.113l2.853 8.672h-2.552zm-.91-3.533l-.372-1.417a58.72 58.72 0 01-.319-1.223c-.122-.5-.203-.859-.242-1.075-.036.201-.106.532-.213.992a83.829 83.829 0 01-.691 2.723h1.837zm12.845-.797c0 1.453-.357 2.558-1.069 3.314-.713.756-1.757 1.134-3.131 1.134-1.355 0-2.394-.38-3.119-1.14-.721-.76-1.081-1.867-1.081-3.32 0-1.437.358-2.534 1.075-3.29.721-.76 1.766-1.14 3.137-1.14 1.374 0 2.416.376 3.125 1.128.708.752 1.063 1.857 1.063 3.314zm-5.943 0c0 1.67.581 2.505 1.743 2.505.591 0 1.028-.203 1.311-.609.288-.405.431-1.038.431-1.896 0-.862-.145-1.498-.437-1.908-.287-.414-.718-.62-1.293-.62-1.17 0-1.755.842-1.755 2.528zm13.704-2.505c-.284 0-.624.05-1.022.148a5.382 5.382 0 00-1.081.384l-.679-1.825a7.42 7.42 0 011.482-.485 7.08 7.08 0 011.383-.136c1.315 0 2.331.384 3.048 1.152.72.764 1.081 1.849 1.081 3.255 0 1.453-.359 2.56-1.075 3.32-.713.76-1.755 1.14-3.125 1.14-1.02 0-1.932-.163-2.735-.49V117.3c.937.362 1.849.543 2.735.543.528 0 .939-.13 1.234-.39.296-.26.461-.638.497-1.134h-3.45v-1.878h3.45c-.036-.528-.207-.934-.514-1.217-.304-.284-.713-.426-1.229-.426zm13.536 6.835h-2.345v-3.521h-2.712v3.521h-2.345v-8.636h2.345v3.201h2.712v-3.201h2.345v8.636zm7.363 0h-5.128v-8.636h5.128v1.872h-2.795v1.359h2.588v1.872h-2.588v1.631h2.795v1.902zm8.142-5.89c0 .965-.285 1.712-.856 2.239-.568.524-1.375.786-2.422.786h-.656v2.865h-2.333v-8.636h2.989c1.09 0 1.91.238 2.457.714.547.477.821 1.154.821 2.032zm-3.934 1.123h.425c.351 0 .628-.099.833-.296.209-.196.313-.468.313-.815 0-.583-.323-.874-.969-.874h-.602v1.985zm11.433-3.869v1.884h-3.415v6.752h-2.345v-8.636h5.76zm9.678 4.306c0 1.453-.356 2.558-1.069 3.314-.713.756-1.756 1.134-3.131 1.134-1.355 0-2.394-.38-3.119-1.14-.72-.76-1.081-1.867-1.081-3.32 0-1.437.359-2.534 1.075-3.29.721-.76 1.767-1.14 3.137-1.14 1.374 0 2.416.376 3.125 1.128.709.752 1.063 1.857 1.063 3.314zm-5.942 0c0 1.67.58 2.505 1.742 2.505.591 0 1.028-.203 1.312-.609.287-.405.431-1.038.431-1.896 0-.862-.146-1.498-.437-1.908-.288-.414-.719-.62-1.294-.62-1.17 0-1.754.842-1.754 2.528zm11.71-2.516c-.555 0-.988.228-1.3.685-.311.453-.466 1.079-.466 1.878 0 1.662.632 2.493 1.896 2.493a3.89 3.89 0 001.11-.159c.359-.107.719-.235 1.081-.384v1.973c-.72.318-1.535.478-2.445.478-1.304 0-2.304-.378-3.001-1.134-.693-.756-1.039-1.849-1.039-3.279 0-.894.167-1.679.502-2.357a3.614 3.614 0 011.453-1.559c.634-.366 1.378-.549 2.233-.549a6.14 6.14 0 012.676.608l-.715 1.837a8.256 8.256 0 00-.957-.378 3.358 3.358 0 00-1.028-.153zm10.759 4.04c0 .906-.311 1.601-.933 2.085-.618.481-1.512.721-2.682.721h-2.77v-8.636h5.682v1.872h-3.337v1.318h.337c1.209 0 2.128.22 2.758.661.63.437.945 1.097.945 1.979zm-4.04 1.004h.313c.488 0 .839-.081 1.051-.242.213-.161.319-.4.319-.715 0-.315-.114-.547-.342-.697-.225-.149-.571-.224-1.04-.224h-.301v1.878zm12.018-1.063c0 .921-.316 1.63-.946 2.126-.626.493-1.516.739-2.67.739h-2.551v-8.636h2.345v3.071h.118c1.205 0 2.122.229 2.752.686.635.452.952 1.124.952 2.014zm-3.822 1.063h.094c.914 0 1.371-.338 1.371-1.016 0-.654-.461-.98-1.383-.98h-.082v1.996zm6.958 1.802h-2.351v-8.636h2.351v8.636zm6.034 0h-2.333v-6.728h-2.109v-1.908h6.545v1.908h-2.103v6.728zm11.781-4.33c0 1.453-.356 2.558-1.069 3.314-.713.756-1.756 1.134-3.131 1.134-1.354 0-2.394-.38-3.119-1.14-.72-.76-1.081-1.867-1.081-3.32 0-1.437.359-2.534 1.075-3.29.721-.76 1.767-1.14 3.137-1.14 1.374 0 2.416.376 3.125 1.128.709.752 1.063 1.857 1.063 3.314zm-5.942 0c0 1.67.581 2.505 1.742 2.505.591 0 1.028-.203 1.312-.609.287-.405.431-1.038.431-1.896 0-.862-.146-1.498-.437-1.908-.288-.414-.719-.62-1.294-.62-1.17 0-1.754.842-1.754 2.528zm7.865-4.306h3.012c1.174 0 2.044.175 2.611.525.571.347.857.888.857 1.625 0 .484-.124.898-.372 1.24a1.66 1.66 0 01-.981.662v.059c.536.142.923.378 1.164.709.24.331.36.76.36 1.288 0 .783-.295 1.402-.886 1.854-.587.449-1.388.674-2.404.674h-3.361v-8.636zm2.333 3.314h.703c.335 0 .593-.069.774-.207.185-.138.277-.343.277-.615 0-.484-.366-.726-1.098-.726h-.656v1.548zm0 1.707v1.813h.821c.729 0 1.093-.307 1.093-.921 0-.288-.099-.508-.296-.662-.193-.153-.474-.23-.844-.23h-.774zm11.48 3.615l-.425-1.619h-2.806l-.437 1.619h-2.564l2.818-8.672h3.113l2.853 8.672h-2.552zm-.91-3.533l-.372-1.417a58.72 58.72 0 01-.319-1.223c-.122-.5-.203-.859-.242-1.075-.036.201-.106.532-.213.992a83.829 83.829 0 01-.691 2.723h1.837zm8.066.39l-1.707 3.143h-2.647l2.369-3.775a2.596 2.596 0 01-1.004-.963 2.64 2.64 0 01-.349-1.346c0-1.702 1.174-2.552 3.521-2.552h2.865v8.636h-2.333v-3.143h-.715zm.715-3.727h-.496c-.375 0-.668.075-.881.224-.212.15-.319.373-.319.668 0 .358.101.628.302.809.204.181.523.272.957.272h.437v-1.973zm15.623 6.87h-2.64l-2.564-4.377v4.377h-2.345v-8.636h2.345v4.182l2.469-4.182h2.564l-2.664 4.123 2.835 4.513zm9.33-4.33c0 1.453-.356 2.558-1.069 3.314-.713.756-1.756 1.134-3.131 1.134-1.355 0-2.394-.38-3.119-1.14-.72-.76-1.081-1.867-1.081-3.32 0-1.437.359-2.534 1.075-3.29.721-.76 1.767-1.14 3.137-1.14 1.374 0 2.416.376 3.125 1.128.709.752 1.063 1.857 1.063 3.314zm-5.942 0c0 1.67.58 2.505 1.742 2.505.591 0 1.028-.203 1.312-.609.287-.405.431-1.038.431-1.896 0-.862-.146-1.498-.437-1.908-.288-.414-.719-.62-1.294-.62-1.17 0-1.754.842-1.754 2.528zm11.627 4.33l-1.766-6.22h-.053c.083 1.059.124 1.882.124 2.469v3.751h-2.067v-8.636h3.107l1.801 6.131h.048l1.766-6.131h3.113v8.636h-2.144v-3.787c0-.196.001-.415.005-.655.008-.24.036-.829.083-1.766h-.053l-1.743 6.208h-2.221zm15.373 0h-2.351v-6.728h-2.38v6.728h-2.346v-8.636h7.077v8.636zm7.528 0l-.425-1.619h-2.806l-.437 1.619h-2.564l2.818-8.672h3.113l2.853 8.672h-2.552zm-.909-3.533l-.373-1.417a67.02 67.02 0 01-.318-1.223c-.123-.5-.203-.859-.243-1.075-.035.201-.106.532-.212.992a89.74 89.74 0 01-.691 2.723h1.837zm12.165 3.533h-2.345v-3.521h-2.712v3.521h-2.345v-8.636h2.345v3.201h2.712v-3.201h2.345v8.636zm2.235-8.636h2.08v3.709c0 .394-.032 1.182-.095 2.363h.047l3.444-6.072h2.883v8.636h-2.068v-3.615c0-.548.036-1.367.107-2.458h-.048l-3.473 6.073h-2.877v-8.636zm13.896 5.493l-1.707 3.143h-2.646l2.369-3.775a2.599 2.599 0 01-1.005-.963 2.64 2.64 0 01-.348-1.346c0-1.702 1.173-2.552 3.521-2.552h2.864v8.636h-2.333v-3.143h-.715zm.715-3.727h-.496c-.374 0-.668.075-.88.224-.213.15-.319.373-.319.668 0 .358.1.628.301.809.205.181.524.272.957.272h.437v-1.973zm-215.344 20.009h-2.64l-2.564-4.377v4.377H129v-8.636h2.345v4.182l2.469-4.182h2.564l-2.664 4.123 2.835 4.513zm6.088-8.636h2.08v3.71c0 .393-.032 1.181-.095 2.362h.047l3.444-6.072h2.883v8.636h-2.068v-3.615c0-.548.036-1.367.107-2.457h-.048l-3.473 6.072h-2.877v-8.636zm21.701 2.747c0 .964-.286 1.711-.857 2.238-.567.524-1.374.786-2.422.786h-.655v2.865h-2.334v-8.636h2.989c1.091 0 1.91.238 2.458.715.547.476.821 1.153.821 2.032zm-3.934 1.122h.425c.35 0 .628-.098.833-.295.209-.197.313-.469.313-.816 0-.582-.323-.874-.969-.874h-.602v1.985zm18.593.437c0 1.453-.356 2.558-1.069 3.314-.713.756-1.757 1.134-3.131 1.134-1.355 0-2.394-.38-3.119-1.14-.721-.76-1.081-1.867-1.081-3.32 0-1.437.358-2.534 1.075-3.29.721-.76 1.766-1.14 3.137-1.14 1.374 0 2.416.376 3.125 1.128.709.752 1.063 1.857 1.063 3.314zm-5.943 0c0 1.67.581 2.505 1.743 2.505.591 0 1.028-.203 1.311-.609.288-.405.432-1.037.432-1.896 0-.862-.146-1.498-.437-1.908-.288-.413-.719-.62-1.294-.62-1.17 0-1.755.843-1.755 2.528zm12.704-4.306h3.013c1.174 0 2.044.175 2.611.526.571.346.857.888.857 1.624 0 .484-.125.898-.373 1.241a1.66 1.66 0 01-.98.661v.059c.535.142.923.378 1.163.709.241.331.361.76.361 1.288 0 .783-.296 1.402-.886 1.855-.587.449-1.388.673-2.404.673h-3.362v-8.636zm2.334 3.314h.703c.334 0 .592-.069.774-.207.185-.138.277-.343.277-.614 0-.485-.366-.727-1.099-.727h-.655v1.548zm0 1.707v1.813h.821c.728 0 1.093-.307 1.093-.921 0-.288-.099-.508-.296-.662-.193-.153-.474-.23-.844-.23h-.774zm14.866-3.231c-.556 0-.989.228-1.3.685-.311.453-.467 1.079-.467 1.878 0 1.662.633 2.493 1.897 2.493a3.89 3.89 0 001.11-.159c.359-.107.719-.235 1.081-.384v1.973c-.72.319-1.536.478-2.445.478-1.304 0-2.304-.378-3.001-1.134-.693-.756-1.04-1.849-1.04-3.278 0-.894.168-1.68.502-2.357a3.617 3.617 0 011.453-1.56c.634-.366 1.379-.549 2.233-.549.934 0 1.826.203 2.676.608l-.715 1.837a8.172 8.172 0 00-.956-.378 3.358 3.358 0 00-1.028-.153zm16.762 6.846h-2.641l-2.563-4.377v4.377h-2.345v-8.636h2.345v4.182l2.469-4.182h2.564l-2.665 4.123 2.836 4.513zm14.169-4.33c0 1.453-.357 2.558-1.069 3.314-.713.756-1.757 1.134-3.131 1.134-1.355 0-2.394-.38-3.119-1.14-.721-.76-1.081-1.867-1.081-3.32 0-1.437.358-2.534 1.075-3.29.721-.76 1.766-1.14 3.137-1.14 1.374 0 2.416.376 3.125 1.128.708.752 1.063 1.857 1.063 3.314zm-5.943 0c0 1.67.581 2.505 1.743 2.505.591 0 1.028-.203 1.311-.609.288-.405.431-1.037.431-1.896 0-.862-.145-1.498-.437-1.908-.287-.413-.718-.62-1.293-.62-1.17 0-1.755.843-1.755 2.528zm18.464-4.306v1.884h-3.415v6.752h-2.345v-8.636h5.76zm14.517 4.306c0 1.453-.356 2.558-1.069 3.314-.713.756-1.756 1.134-3.131 1.134-1.354 0-2.394-.38-3.119-1.14-.72-.76-1.081-1.867-1.081-3.32 0-1.437.359-2.534 1.075-3.29.721-.76 1.767-1.14 3.137-1.14 1.374 0 2.416.376 3.125 1.128.709.752 1.063 1.857 1.063 3.314zm-5.942 0c0 1.67.58 2.505 1.742 2.505.591 0 1.028-.203 1.312-.609.287-.405.431-1.037.431-1.896 0-.862-.146-1.498-.437-1.908-.288-.413-.719-.62-1.294-.62-1.17 0-1.754.843-1.754 2.528zm27.274-2.286c0 1.138-.677 1.823-2.032 2.056v.047c.78.067 1.369.276 1.766.626.398.351.597.823.597 1.418 0 .52-.146.976-.437 1.37-.288.39-.705.691-1.252.904-.548.209-1.196.313-1.944.313-1.374 0-2.471-.155-3.29-.467v-2.008c.335.169.76.307 1.276.414.52.102.99.153 1.412.153.665 0 1.138-.069 1.417-.207.28-.137.42-.368.42-.691 0-.579-.662-.868-1.985-.868h-1.016v-1.89h.91c.456 0 .813-.022 1.069-.065.26-.048.449-.122.567-.225.118-.102.177-.256.177-.461 0-.433-.415-.649-1.246-.649-.784 0-1.473.201-2.068.602l-.98-1.606a5.408 5.408 0 011.571-.703c.532-.138 1.173-.207 1.926-.207.949 0 1.709.197 2.28.591.575.393.862.911.862 1.553zm12.332 6.616l-.425-1.619h-2.806l-.437 1.619h-2.564l2.818-8.672h3.113l2.853 8.672h-2.552zm-.91-3.532l-.372-1.418a65.832 65.832 0 01-.319-1.223c-.122-.5-.203-.858-.242-1.075-.035.201-.106.532-.213.992a84.35 84.35 0 01-.691 2.724h1.837zm9.603-5.104h3.013c1.173 0 2.044.175 2.611.526.571.346.856.888.856 1.624 0 .484-.124.898-.372 1.241a1.66 1.66 0 01-.981.661v.059c.536.142.924.378 1.164.709.24.331.36.76.36 1.288 0 .783-.295 1.402-.886 1.855-.586.449-1.388.673-2.404.673h-3.361v-8.636zm2.333 3.314h.703c.335 0 .593-.069.774-.207.185-.138.278-.343.278-.614 0-.485-.366-.727-1.099-.727h-.656v1.548zm0 1.707v1.813h.821c.729 0 1.093-.307 1.093-.921 0-.288-.098-.508-.295-.662-.193-.153-.475-.23-.845-.23h-.774zm19.102-.715c0 1.453-.357 2.558-1.069 3.314-.713.756-1.757 1.134-3.131 1.134-1.355 0-2.395-.38-3.119-1.14-.721-.76-1.081-1.867-1.081-3.32 0-1.437.358-2.534 1.075-3.29.721-.76 1.766-1.14 3.137-1.14 1.374 0 2.416.376 3.124 1.128.709.752 1.064 1.857 1.064 3.314zm-5.943 0c0 1.67.581 2.505 1.743 2.505.591 0 1.028-.203 1.311-.609.288-.405.431-1.037.431-1.896 0-.862-.145-1.498-.437-1.908-.287-.413-.718-.62-1.293-.62-1.17 0-1.755.843-1.755 2.528zm21.399 7.018h-2.274v-2.688h-5.033v2.688h-2.274v-4.602h.715c.516-.874.941-1.884 1.276-3.03.335-1.15.551-2.381.65-3.692h5.759v6.722h1.181v4.602zm-3.532-4.602v-4.814h-1.536a14.285 14.285 0 01-1.329 4.814h2.865zm15.191 1.914l-.425-1.619h-2.806l-.437 1.619h-2.564l2.818-8.672h3.113l2.853 8.672h-2.552zm-.91-3.532l-.372-1.418a58.72 58.72 0 01-.319-1.223c-.122-.5-.203-.858-.242-1.075-.036.201-.106.532-.213.992a87.24 87.24 0 01-.691 2.724h1.837z" fill="#085399"/><path d="M78.867 22.515L64.183 37.2 49.588 22.515 64.183 7.92l14.684 14.595zm-2.403-12.28L70.947 0H57.42l-5.518 10.234-10.234 5.518v13.527l10.234 5.517L57.42 45.03h13.526l5.518-10.234 10.234-5.517V15.752l-10.234-5.518z" fill="#D32B27"/><path d="M67.303 7.92l17.087 9.256v7.831L67.303 7.92zm2.314 34.886h-7.831l17.087-17.087-9.256 17.087zM43.898 27.944v-7.92L60.985 37.11l-17.087-9.166zM58.76 2.224h7.831L49.594 19.4 58.76 2.225z" fill="#fff"/><path d="M22.851 70.57H0c6.452-19.357 25.091-23.748 33.605-23.524 10.216-2.15 23.523 4.48 28.9 8.065 3.226-5.377 18.818-7.617 26.211-8.065 27.959-1.613 35.845 15.01 36.293 23.523h-21.507c-2.688-7.527-10.977-10.305-14.786-10.753-15.592 1.613-15.01 15.906-12.77 22.85 10.754 16.669 22.852 6.946 27.556 0h21.507c.538 7.528-6.048 13.89-9.409 16.131-18.819 11.291-43.238 4.705-53.095 0C24.33 118.153 4.929 96.11 0 82.667h24.195c5.915 15.055 19.491 8.961 25.54 4.032v-4.704H31.588V70.569h18.147v-4.704c-13.98-13.98-23.747-2.689-26.884 4.704z" fill="#085399"/><path fill-rule="evenodd" clip-rule="evenodd" d="M228.204 80.543L205.353 95.33l-.73-1.128 22.851-14.786.73 1.128z" fill="#085399"/><path fill-rule="evenodd" clip-rule="evenodd" d="M230.851 93.996l-22.179-13.442.697-1.15 22.179 13.442-.697 1.15z" fill="#085399"/></svg>