<svg width="2500" height="960" viewBox="0 0 2500 960" fill="none" xmlns="http://www.w3.org/2000/svg">
<mask id="mask0" mask-type="alpha" maskUnits="userSpaceOnUse" x="0" y="52" width="2500" height="908">
<rect y="52" width="2500" height="908" fill="#C4C4C4"/>
</mask>
<g mask="url(#mask0)">
<path fill-rule="evenodd" clip-rule="evenodd" d="M2387 517.547H2370.49V408.682H2347.85V312.729H2301.2V386.541H2274.15V465.881H2267.27V562.637H2253.51V593.198H2221.86V532.918H2208.1V478.799H2190.21V465.881H2102.13V478.799H2066.35V509.245H2056.72V547.775H2043.23V321.035H2028.09V304.428H1966.16V265.676H1916.62V321.035V343.176V383.769H1908.36L1908.36 256.734H1897.35V201.374H1878.08V135H1844.77V201.374H1829.92V233.666H1820.29V412.653H1791.39V452.904H1670.28V171.855H1662.03V157.088H1595.97V171.855H1586.34V452.904H1542.3V336.074H1535.53V280.72H1512.03V267.802H1462.48V280.72H1432.21V312.089H1419.82V412.653H1400.56V424.484H1377.16V348.992H1374.7V305.946H1337.54V342.849H1304.52V348.992H1300.09V424.484H1271.49V501.28H1253.2V529.924H1239.07V474.798H1216.37V420.608H1212.86V416.199H1186.65V389.709H1157.17V420.608H1155.21V474.798H1136.65V466.305H1121.36V394.118H1111.53V371.601H1087.5V362.328H1048.19V371.601H1029.53V411.336H1024.16V495.199H989.212V293.455H981.569V282.855H929.148V293.455H922.595V495.199H826.488V466.305H803.555V337.825H795.909V314.645H784.125V267H757.688V314.645H742.397V354.383H733.659L733.661 445.572H727.11V416.433V400.54V360.802H687.794V388.619H638.649V400.54H626.633V563.299H615.928V535.642H608.282V513.786H579.887V504.514H509.99V513.786H495.794V552.634H484.873V595.904H0L0.00012207 954.303L1253.2 962.997V992.5H2387L2387 990.5H3520.81V597.337V549.838V517.547H3504.29V408.682H3481.66V312.729H3435V386.541H3407.96V465.881H3401.08V562.637H3387.31V593.198H3355.66V532.918H3341.9V478.799H3324.01V465.881H3235.94V478.799H3200.16V509.245H3190.52V547.775H3177.03V321.035H3161.89V304.428H3099.96V265.676H3050.42V321.035V343.176V383.769H3042.17L3042.17 256.734H3031.16V201.374H3011.89V135H2978.58V201.374H2963.73V233.666H2954.09V412.653H2925.19V452.904H2804.09V171.855H2795.83V157.088H2729.78V171.855H2720.14V452.904H2676.11V336.074H2669.33V280.72H2645.83V267.802H2596.29V280.72H2566.01V312.089H2553.62V412.653H2534.36V424.484H2510.96V348.992H2508.5V305.946H2471.35V342.849H2438.32V348.992H2433.9V424.484H2405.29V501.28H2387L2387 517.547ZM3042.17 383.769L3042.17 446.557L3042.17 562.945V383.769ZM733.661 445.572V574.188L733.659 490.642L733.661 445.572ZM1908.36 383.769L1908.36 446.557L1908.36 562.945V383.769Z" fill="#F8F8F8"/>
</g>
</svg>
