<svg width="20" height="21" viewBox="0 0 20 21" fill="none" xmlns="http://www.w3.org/2000/svg">
<path fill-rule="evenodd" clip-rule="evenodd" d="M10 19.4141C14.9706 19.4141 19 15.3846 19 10.4141C19 5.4435 14.9706 1.41406 10 1.41406C5.02944 1.41406 1 5.4435 1 10.4141C1 15.3846 5.02944 19.4141 10 19.4141ZM10 20.4141C15.5228 20.4141 20 15.9369 20 10.4141C20 4.89121 15.5228 0.414062 10 0.414062C4.47715 0.414062 0 4.89121 0 10.4141C0 15.9369 4.47715 20.4141 10 20.4141Z" fill="black"/>
<path fill-rule="evenodd" clip-rule="evenodd" d="M9 4.91406H10V9.70696L14.8536 14.5605L14.1464 15.2676L9 10.1212V4.91406Z" fill="black"/>
</svg>
