<svg width="44" height="51" viewBox="0 0 44 51" fill="none" xmlns="http://www.w3.org/2000/svg">
<path fill-rule="evenodd" clip-rule="evenodd" d="M3.99157 0.59375C2.20013 0.59375 0.723633 1.90713 0.723633 3.50065V47.687C0.723633 49.2806 2.20013 50.5938 3.99157 50.5938H39.9675C41.759 50.5938 43.2355 49.2806 43.2355 47.687V12.9902L42.9222 12.7062L29.5631 0.59375H3.99157ZM3.99157 2.54113H28.0089V11.4064C28.0089 13.0116 29.4742 14.3618 31.2986 14.3617H41.0462V47.687C41.0462 48.2354 40.584 48.6466 39.9675 48.6466H3.99157C3.37505 48.6466 2.91288 48.2354 2.91288 47.687V3.50065C2.91288 2.95224 3.37505 2.54113 3.99157 2.54113ZM30.1981 3.95025L39.5335 12.4144H31.2986C30.715 12.4144 30.1982 11.9431 30.1981 11.4064V3.95025ZM21.8517 28.0156C21.0489 28.0156 20.3403 28.1314 19.7259 28.3628C19.264 28.5343 18.8381 28.7976 18.4479 29.1526C18.0622 29.5077 17.7573 29.9086 17.533 30.3554C17.2326 30.9617 17.0823 31.7117 17.0823 32.6053C17.0823 34.0015 17.515 35.0986 18.3805 35.8965C19.2461 36.6903 20.4121 37.0871 21.8786 37.0871C23.3271 37.0871 24.4842 36.6882 25.3497 35.8904C26.2153 35.0885 26.6482 33.9795 26.6482 32.5633C26.6482 31.1352 26.2109 30.0204 25.3364 29.2185C24.4664 28.4167 23.3047 28.0156 21.8517 28.0156ZM32.4604 28.0156C31.0791 28.0156 29.9645 28.4206 29.1169 29.2304C28.2693 30.0362 27.8455 31.1692 27.8455 32.6292C27.8455 34.0095 28.2671 35.0986 29.1102 35.8965C29.9533 36.6903 31.0296 37.0871 32.3392 37.0871C33.3976 37.0871 34.2698 36.8557 34.9559 36.393C35.6466 35.9263 36.1399 35.2142 36.4359 34.2568L34.5054 33.7122C34.3395 34.3545 34.0658 34.8252 33.6846 35.1244C33.3034 35.4236 32.8481 35.5733 32.3189 35.5733C31.6014 35.5733 31.0184 35.338 30.5699 34.8673C30.1214 34.3965 29.8972 33.6067 29.8972 32.4977C29.8972 31.4525 30.1238 30.6965 30.5768 30.2297C31.0342 29.763 31.6284 29.5297 32.3594 29.5297C32.8886 29.5297 33.3371 29.6612 33.7048 29.9245C34.077 30.1878 34.3214 30.5468 34.438 31.0016L36.409 30.5828C36.1847 29.8807 35.8485 29.3421 35.4 28.9671C34.6466 28.3328 33.6668 28.0156 32.4604 28.0156ZM7.52321 28.1654V36.9376H11.2701C12.0056 36.9376 12.5932 36.8757 13.0327 36.752C13.6202 36.5845 14.0866 36.3512 14.4319 36.052C14.8894 35.657 15.2414 35.1404 15.488 34.5021C15.6898 33.9795 15.7907 33.3572 15.7907 32.6351C15.7907 31.8134 15.683 31.1233 15.4678 30.5648C15.2525 30.0023 14.9386 29.5275 14.526 29.1406C14.1134 28.7536 13.6179 28.4845 13.0394 28.3329C12.6088 28.2212 11.9832 28.1654 11.1625 28.1654H7.52321ZM21.8719 29.5297C22.6926 29.5297 23.3496 29.777 23.8429 30.2717C24.3407 30.7663 24.5896 31.5163 24.5896 32.5216C24.5896 33.5388 24.3341 34.3026 23.8229 34.8133C23.3161 35.3199 22.6657 35.5733 21.8719 35.5733C21.0781 35.5733 20.4234 35.3179 19.9076 34.8073C19.3919 34.2927 19.134 33.5388 19.134 32.5455C19.134 31.5363 19.3851 30.7822 19.8874 30.2835C20.3897 29.7809 21.0512 29.5297 21.8719 29.5297ZM9.51441 29.6494H10.4091C11.2208 29.6494 11.7657 29.6772 12.0438 29.733C12.416 29.8048 12.7232 29.9424 12.9653 30.1459C13.2075 30.3493 13.3959 30.6326 13.5304 30.9957C13.6649 31.3587 13.7323 31.8792 13.7323 32.5574C13.7323 33.2356 13.6649 33.7721 13.5304 34.167C13.3959 34.5579 13.2211 34.8393 13.0058 35.0109C12.795 35.1824 12.5281 35.304 12.2052 35.3758C11.9586 35.4317 11.5571 35.4595 11.001 35.4595H9.51441V29.6494Z" fill="#1076BE"/>
</svg>
