<svg width="38" height="50" viewBox="0 0 38 50" fill="none" xmlns="http://www.w3.org/2000/svg">
<path fill-rule="evenodd" clip-rule="evenodd" d="M2.88267 0C1.30243 0 0 1.31338 0 2.9069V47.0933C0 48.6868 1.30243 50 2.88267 50H34.6173C36.1976 50 37.5 48.6868 37.5 47.0933V12.3964L37.2237 12.1124L25.4395 0H2.88267ZM2.88267 1.94738H24.0685V10.8127C24.0685 12.4179 25.3611 13.768 26.9704 13.768H35.5689V47.0933C35.5689 47.6417 35.1612 48.0528 34.6173 48.0528H2.88267C2.33883 48.0528 1.93115 47.6417 1.93115 47.0933V2.9069C1.93115 2.35849 2.33883 1.94738 2.88267 1.94738ZM25.9997 3.3565L34.2345 11.8206H26.9704C26.4556 11.8206 25.9997 11.3493 25.9997 10.8127V3.3565Z" fill="#374150"/>
<path d="M10.156 27.6V29.22H12.736V36H14.524V29.22H17.104V27.6H10.156ZM17.8056 27.6V36H19.6056V27.6H17.8056ZM21.0433 27.6V36H22.8433V32.796H26.6233V31.176H22.8433V29.22H26.9713V27.6H21.0433Z" fill="#2878C8"/>
</svg>
