<svg width="44" height="51" viewBox="0 0 44 51" fill="none" xmlns="http://www.w3.org/2000/svg">
<path fill-rule="evenodd" clip-rule="evenodd" d="M3.99157 0.539062C2.20013 0.539062 0.723633 1.85244 0.723633 3.44596V47.6324C0.723633 49.2259 2.20013 50.5391 3.99157 50.5391H39.9675C41.759 50.5391 43.2355 49.2259 43.2355 47.6324V12.9355L42.9222 12.6515L29.5631 0.539062H3.99157ZM3.99157 2.48644H28.0089V11.3517C28.0089 12.957 29.4742 14.3071 31.2986 14.3071H41.0462V47.6324C41.0462 48.1808 40.584 48.5919 39.9675 48.5919H3.99157C3.37505 48.5919 2.91288 48.1808 2.91288 47.6324V3.44596C2.91288 2.89755 3.37505 2.48644 3.99157 2.48644ZM30.1981 3.89557L39.5335 12.3597H31.2986C30.715 12.3597 30.1982 11.8884 30.1981 11.3517V3.89557ZM30.9871 27.8916C30.2292 27.8916 29.581 27.9934 29.0428 28.1968C28.5091 28.4003 28.099 28.6974 27.8119 29.0884C27.5294 29.4753 27.3881 29.8924 27.3881 30.3392C27.3881 31.0333 27.6908 31.6215 28.2963 32.1042C28.7268 32.4473 29.4756 32.7367 30.543 32.972C31.3727 33.1555 31.9043 33.2832 32.1375 33.355C32.4783 33.4627 32.7159 33.5904 32.8504 33.738C32.9895 33.8816 33.059 34.0571 33.059 34.2646C33.059 34.5877 32.8954 34.8708 32.568 35.1142C32.2451 35.3535 31.7629 35.4732 31.1216 35.4732C30.5162 35.4732 30.034 35.3376 29.6753 35.0663C29.321 34.795 29.0856 34.3702 28.969 33.7918L27.0316 33.9593C27.1617 34.9407 27.5607 35.6887 28.2289 36.2033C28.8971 36.7139 29.8547 36.9692 31.1014 36.9692C31.958 36.9692 32.6733 36.8634 33.2474 36.652C33.8214 36.4365 34.2653 36.1094 34.5792 35.6706C34.8932 35.2318 35.0502 34.7611 35.0502 34.2584C35.0502 33.7039 34.9179 33.2392 34.6533 32.8642C34.3932 32.4853 34.0298 32.1881 33.5634 31.9727C33.1015 31.7533 32.3863 31.5418 31.4176 31.3383C30.4489 31.1349 29.839 30.9395 29.5879 30.752C29.3905 30.6044 29.2919 30.4269 29.2919 30.2195C29.2919 29.9921 29.3973 29.8105 29.6081 29.6749C29.9355 29.4635 30.3883 29.3578 30.9669 29.3578C31.5274 29.3578 31.9468 29.4574 32.2249 29.6569C32.5074 29.8524 32.6912 30.1756 32.7764 30.6264L34.7676 30.5484C34.7362 29.7426 34.4065 29.0985 33.7787 28.6158C33.1553 28.1331 32.2249 27.8916 30.9871 27.8916ZM9.22509 28.0414L12.2793 32.236L8.90887 36.8136H11.297L13.4899 33.7797L15.6764 36.8136H18.0779L14.7077 32.3019L17.7752 28.0414H15.4678L13.5304 30.8596L11.5525 28.0414H9.22509ZM19.1678 28.1132V36.8136H26.1101V35.3355H21.159V28.1132H19.1678Z" fill="#099145"/>
</svg>
