<svg width="38" height="50" viewBox="0 0 38 50" fill="none" xmlns="http://www.w3.org/2000/svg">
<path fill-rule="evenodd" clip-rule="evenodd" d="M2.88267 0C1.30243 0 0 1.31338 0 2.9069V47.0933C0 48.6868 1.30243 50 2.88267 50H34.6173C36.1976 50 37.5 48.6868 37.5 47.0933V12.3964L37.2237 12.1124L25.4395 0H2.88267ZM2.88267 1.94738H24.0685V10.8127C24.0685 12.4179 25.3611 13.768 26.9704 13.768H35.5689V47.0933C35.5689 47.6417 35.1612 48.0528 34.6173 48.0528H2.88267C2.33883 48.0528 1.93115 47.6417 1.93115 47.0933V2.9069C1.93115 2.35849 2.33883 1.94738 2.88267 1.94738ZM25.9997 3.3565L34.2345 11.8206H26.9704C26.4556 11.8206 25.9997 11.3493 25.9997 10.8127V3.3565Z" fill="#F7B761"/>
<path d="M15.1432 36V34.3374H10.8203L14.9954 28.7091V27.3789H8.57884V29.0416H12.5568L8.39411 34.6699V36H15.1432ZM17.7203 27.3789V36H19.5677V27.3789H17.7203ZM22.6442 27.3789V36H24.4916V33.1674H25.8956C27.977 33.1674 29.615 32.5023 29.615 30.2732C29.615 28.044 27.977 27.3789 25.8956 27.3789H22.6442ZM27.7307 30.2732C27.7307 31.2831 26.9301 31.5417 25.9818 31.5417H24.4916V29.0046H25.9818C26.9301 29.0046 27.7307 29.2509 27.7307 30.2732Z" fill="#F7B761"/>
</svg>
