<svg width="2500" height="960" viewBox="0 0 2500 960" fill="none" xmlns="http://www.w3.org/2000/svg">
<g clip-path="url(#clip0)">
<rect y="803" width="2500" height="577" fill="white"/>
<g clip-path="url(#clip1)">
<path d="M878.514 811H928.758C925.243 810.68 921.809 810.52 918.294 810.44C905.273 810.039 892.253 810.36 878.514 810.36V811V811Z" fill="#C4C4C4"/>
<path d="M1039.47 810.998C1038.75 810.438 1037.79 810.117 1036.27 810.117C1021.26 810.277 1006.16 810.277 991.142 810.117C989.625 810.117 988.586 810.357 987.947 810.918H1039.47V810.998Z" fill="#C4C4C4"/>
<path d="M622.02 810.999H663.956C663.317 810.839 662.678 810.679 662.039 810.518C648.62 806.914 635.12 806.434 622.02 810.999Z" fill="#C4C4C4"/>
<path d="M1017.98 806.033C1020.7 805.632 1023.42 805.152 1026.13 805.072C1030.52 804.832 1032.04 803.23 1030.84 798.985C1030.13 796.342 1030.84 795.221 1033.16 794.019C1037.55 791.617 1041.87 788.814 1044.02 783.848C1044.5 782.807 1045.46 782.006 1046.42 780.805C1051.61 783.528 1056.49 786.731 1061.76 788.653C1069.83 791.537 1074.06 796.983 1075.1 805.312C1075.58 809.557 1075.26 810.358 1071.02 810.278C1069.59 810.278 1068.71 810.518 1068.15 811.079H1103.93C1103.93 810.758 1103.93 810.438 1103.93 810.118H1079.49C1081.09 804.671 1082.45 799.946 1083.88 795.141C1084.84 791.857 1083.41 790.255 1080.37 789.214C1077.73 788.253 1075.1 786.891 1072.7 785.29C1068.55 782.406 1064.95 778.802 1060.64 776.32C1056.88 774.157 1055.69 769.512 1058.8 766.228C1062.96 761.823 1067.27 757.418 1071.1 752.693C1072.86 750.451 1074.54 747.647 1074.94 744.924C1076.46 734.513 1077.17 724.021 1078.61 713.609C1079.97 704.159 1078.37 706.001 1087.64 705.841C1091.07 705.76 1092.43 707.362 1093.71 710.326C1096.51 716.813 1096.35 723.06 1093.15 729.547C1092.51 729.387 1091.47 729.227 1090.04 728.987C1092.59 732.43 1095.07 732.43 1096.74 729.227C1101.22 720.978 1099.38 712.328 1098.02 703.838C1097.78 702.477 1096.03 700.875 1094.67 700.154C1091.63 698.552 1088.44 697.031 1085.16 696.31C1080.13 695.189 1074.94 694.788 1069.83 694.067C1065.91 693.507 1064.47 691.424 1064.07 687.74C1063.75 684.857 1062.64 681.894 1061.12 679.331C1059.28 676.127 1055.61 675.326 1052.57 676.768C1049.14 678.37 1045.46 683.576 1046.26 686.299C1047.46 690.303 1049.14 694.147 1050.57 697.992C1048.34 700.635 1045.7 703.678 1043.15 706.722C1041.55 708.724 1040.19 708.724 1038.27 706.962C1034.6 703.678 1033.08 699.754 1033.56 694.868C1033.88 691.585 1033 688.541 1029.33 687.82C1028.05 687.58 1026.29 688.301 1025.09 689.182C1024.37 689.662 1023.73 691.585 1024.13 692.225C1028.37 700.154 1032.76 708.083 1037.31 715.852C1039.39 719.296 1041.23 719.456 1044.58 717.053C1046.26 715.852 1047.86 714.65 1050.25 712.808C1050.25 716.332 1050.33 718.735 1050.25 721.218C1050.18 723.06 1049.78 724.902 1049.54 726.744C1049.06 730.668 1048.74 734.593 1048.02 738.437C1046.98 743.803 1045.38 749.009 1044.34 754.375C1043.7 757.819 1044.42 761.823 1043.07 764.947C1040.43 771.034 1038.35 777.201 1033.56 782.647C1028.45 788.413 1023.26 793.859 1017.18 798.504C1014.63 800.427 1011.83 802.109 1008.96 803.951C1011.75 806.433 1014.79 806.513 1017.98 806.033Z" fill="#C4C4C4"/>
<path d="M1121.03 711.05C1121.11 711.851 1121.27 712.732 1121.83 713.292C1123.26 714.654 1124.86 715.855 1126.38 717.137C1127.58 715.375 1129.26 713.773 1129.97 711.851C1130.69 710.009 1130.53 707.846 1130.77 705.123C1133.65 710.009 1133.65 715.615 1132.13 720.821C1128.62 733.155 1128.86 745.568 1132.37 757.902C1133.49 761.827 1135.17 765.831 1135.25 769.836C1135.49 777.604 1138.44 784.012 1143 789.938C1147.07 795.224 1147.07 799.709 1143.39 805.316C1142.36 806.837 1141.48 808.439 1140.52 810.041C1139 810.201 1137.32 810.441 1135.25 810.682C1135.25 810.842 1135.25 810.922 1135.25 811.002H1170.87C1170.15 810.361 1169.12 810.121 1167.36 810.121C1161.05 810.361 1154.66 810.201 1148.03 810.201C1153.22 802.432 1156.26 800.75 1150.74 791.86C1148.91 788.817 1148.43 784.813 1147.55 781.289C1146.67 778.005 1146.11 774.561 1145.31 771.277C1144.11 766.392 1144.91 761.747 1146.99 756.701C1148.11 757.262 1148.75 758.223 1149.07 759.184C1150.18 762.788 1151.3 766.392 1152.18 770.076C1152.74 772.399 1152.66 774.881 1153.22 777.204C1153.38 778.085 1154.34 779.286 1155.06 779.446C1155.78 779.607 1157.29 778.806 1157.53 778.085C1158.57 775.282 1160.17 772.238 1159.77 769.515C1158.97 764.149 1156.97 758.944 1155.38 753.257C1158.09 751.575 1155.78 749.493 1155.14 748.372C1157.37 741.964 1159.93 736.438 1161.05 730.672C1161.85 726.427 1161.53 721.381 1159.93 717.377C1156.49 708.407 1157.61 699.517 1158.65 690.547C1158.65 690.226 1159.21 689.986 1159.13 690.066C1163.52 691.908 1167.68 693.43 1171.75 695.352C1172.79 695.833 1173.59 697.114 1174.23 698.235C1175.51 700.558 1176.46 703.041 1177.74 705.283C1179.98 709.208 1181.1 713.052 1178.78 717.377C1177.9 719.139 1177.58 721.141 1176.7 724.104C1178.62 721.942 1179.66 720.741 1180.78 719.539C1181.98 721.542 1183.09 723.624 1184.13 725.386C1184.21 724.345 1184.37 722.823 1184.53 721.221C1184.85 721.141 1185.09 721.061 1185.41 720.981C1186.45 722.583 1187.49 724.104 1189.09 726.507C1188.53 723.944 1188.21 722.262 1187.65 719.699C1189.8 721.061 1191 721.862 1192.84 723.063C1191.24 721.061 1190.12 719.78 1188.77 718.098C1190.36 717.777 1191.32 717.617 1192.2 717.457C1190.6 716.416 1188.69 715.855 1187.89 714.574C1185.89 711.37 1183.65 708.006 1182.94 704.482C1181.18 695.592 1177.34 688.785 1169.6 683.739C1163.6 679.815 1157.93 675.49 1150.82 674.048C1145.31 672.927 1143.47 670.364 1144.35 664.357C1145.31 658.351 1142.04 653.866 1137.72 653.786C1135.25 653.705 1131.73 654.747 1130.53 656.589C1128.38 659.872 1126.94 664.037 1129.18 668.202C1131.89 673.247 1131.57 675.25 1127.5 678.934C1125.5 680.696 1123.74 682.698 1121.67 684.38C1119.27 686.302 1118.15 688.705 1118.55 691.748C1119.51 698.155 1120.23 704.563 1121.03 711.05Z" fill="#C4C4C4"/>
<path d="M759.892 811.001C746.712 806.276 733.452 806.276 720.271 811.001H759.892Z" fill="#C4C4C4"/>
<path d="M758.773 657.308C762.607 661.072 766.681 663.475 772.192 662.914C773.87 662.754 775.627 663.154 777.385 663.314C789.606 664.516 801.828 664.916 813.65 660.431C815.248 659.79 816.925 659.47 818.842 658.909C819.242 660.351 819.641 661.472 819.801 662.594C821.239 672.605 822.676 682.616 824.114 692.707C824.833 697.673 824.833 702.238 821.079 706.563C819.561 708.325 819.641 711.849 819.721 714.492C819.721 715.533 821.718 716.574 822.836 717.535C824.594 719.057 825.632 720.579 824.434 723.061C823.954 724.022 823.954 725.464 824.354 726.505C825.872 730.269 827.23 734.194 829.306 737.638C835.058 746.848 837.854 756.779 839.451 767.511C840.41 773.998 844.404 780.085 847.12 786.653C845.442 787.694 842.247 789.296 843.765 792.82C845.043 795.863 846.88 799.147 849.436 801.069C853.909 804.433 859.102 806.755 865.013 810.039H824.194C828.428 798.506 827.469 791.778 820.919 786.492C815.327 781.927 806.86 781.207 801.109 785.211C791.683 791.778 790.964 800.428 796.556 810.119C795.517 810.279 795.038 810.439 794.559 810.359C792.721 810.039 791.523 810.279 790.804 811.08H869.007C868.687 810.439 868.288 809.719 867.968 808.918C871.882 804.192 871.643 804.433 867.249 798.586C865.172 795.863 864.054 792.259 863.096 788.895C861.258 782.408 860.859 775.28 857.903 769.433C854.229 762.145 853.989 754.857 853.59 747.168C853.27 740.921 855.347 735.796 859.421 730.99C863.255 734.674 869.566 736.036 871.563 742.283C872.122 744.045 873.081 745.647 873.879 747.409C876.755 753.576 880.669 758.781 886.98 761.825C891.533 763.987 894.009 762.546 894.808 757.66C895.048 756.379 894.888 754.537 895.687 753.896C899.84 750.452 898.882 745.647 899.042 741.322C899.201 736.677 894.169 729.549 891.373 728.507C890.574 725.704 890.015 723.622 889.296 721.54C888.577 719.537 886.9 717.535 887.139 715.693C887.938 709.206 884.743 704.24 881.548 699.435C878.832 695.35 875.157 691.826 871.882 687.982C875.317 683.016 875.237 680.774 871.323 677.971C870.684 677.49 870.045 676.93 869.326 676.689C864.454 675.088 863.016 670.923 861.897 666.598C861.258 664.035 860.46 661.392 860.46 658.749C860.46 655.065 861.099 651.301 861.578 646.576C867.968 650.74 873.081 654.184 878.353 657.468C880.749 658.989 881.708 660.992 881.628 663.795C881.388 670.843 882.427 677.891 878.273 684.378C877.554 685.419 879.151 689.584 879.631 689.584C882.746 689.584 886.261 689.904 888.817 687.261C889.696 686.3 890.335 684.858 891.373 684.378C894.808 682.616 894.089 680.454 892.172 678.291C890.255 676.049 890.335 674.046 891.453 671.403C893.61 666.198 893.53 660.832 890.175 656.186C888.497 653.864 888.657 652.342 890.415 650.26C891.772 648.658 893.61 646.656 891.054 644.413C879.471 634.162 867.169 625.592 850.554 627.354C846.481 627.754 844.324 625.192 846.081 621.347C848.238 616.622 847.679 612.617 846.001 607.972C844.164 602.847 841.688 598.762 836.096 597.561C830.425 596.359 825.872 599.082 822.197 602.847C821.159 603.888 821.079 606.611 821.558 608.293C823.635 616.222 825.951 623.99 828.268 632.079C828.108 632.239 827.629 632.72 827.23 632.72C819.721 633.04 815.727 638.246 811.733 643.692C809.976 646.095 807.499 648.097 805.183 650.1C804.144 650.98 802.627 651.621 801.269 651.861C793.36 652.983 785.452 653.784 777.544 655.065C771.633 656.026 766.84 655.385 763.485 649.699C762.127 647.376 756.136 646.095 754.459 647.617C752.142 649.699 750.785 652.422 751.503 654.665C754.299 655.466 757.175 655.706 758.773 657.308Z" fill="#C4C4C4"/>
<path d="M591.505 810.998C590.786 810.357 589.588 810.117 587.91 810.117C570.337 810.197 552.763 810.197 535.19 809.957C533.272 809.957 531.994 810.277 531.275 810.998H591.505Z" fill="#C4C4C4"/>
<path d="M620.102 735.472C620.981 736.994 622.419 739.237 623.777 739.317C625.854 739.477 629.209 738.756 629.927 737.315C632.803 731.628 638.954 730.427 643.108 725.942C645.744 736.193 648.38 745.564 650.377 755.014C651.096 758.378 652.214 760.941 654.77 763.184C655.888 764.225 656.927 765.506 657.486 766.948C659.163 770.952 660.601 774.957 662.039 779.041C662.838 781.364 663.956 783.767 664.196 786.169C664.835 792.096 665.154 798.023 665.554 803.949C665.714 806.192 665.554 808.434 665.554 810.917H673.142C673.861 808.915 674.5 806.993 674.341 805.231C673.861 800.265 672.264 795.38 670.826 790.574C668.669 783.526 669.468 776.478 669.388 769.831C674.66 769.831 679.373 770.231 683.926 769.671C686.482 769.35 689.039 767.829 691.355 766.467C693.991 764.865 696.228 762.463 698.944 761.181C706.372 757.657 710.287 752.131 710.047 743.962C709.967 741.559 710.686 740.118 712.443 738.596C715.079 736.353 717.715 733.39 716.357 729.626C714.52 724.66 712.363 719.374 706.293 718.253C704.296 717.933 701.739 718.573 699.982 719.695C697.905 720.976 696.467 723.219 694.71 725.061C693.991 725.862 693.192 726.582 691.754 728.024C691.435 722.658 691.195 718.333 690.956 713.848C689.518 714.409 688.4 714.649 687.601 715.21C686.962 715.69 686.083 717.212 686.323 717.452C688.479 719.935 686.882 721.377 685.124 723.059C683.607 724.66 682.329 726.502 680.971 728.264C680.651 728.024 680.252 727.864 679.932 727.624C680.092 726.022 680.172 724.34 680.252 723.459C678.654 724.5 676.977 725.701 675.219 726.743C673.142 727.944 670.666 728.745 669.069 730.347C666.433 733.15 664.276 736.434 661.959 739.557C661.48 739.477 661.081 739.477 660.601 739.397C657.965 731.788 655.409 724.1 652.693 716.491C650.536 710.404 644.705 708.722 640.232 713.288C637.356 716.171 635.12 719.695 632.883 723.139C630.007 727.624 628.569 727.864 625.215 723.619C623.377 721.377 622.019 718.734 620.182 716.491C619.383 715.45 617.945 714.969 616.827 714.249C616.108 715.45 614.91 716.651 614.83 717.933C614.59 722.097 614.111 726.182 617.626 729.706C619.064 731.067 619.064 733.71 620.102 735.472ZM672.903 733.951C673.542 732.99 675.379 732.669 676.737 732.429C680.491 731.788 684.326 731.388 688.719 730.827C688.639 731.388 688.719 733.23 688.08 733.63C683.048 736.594 677.855 739.317 672.743 742.04C671.385 742.761 669.947 743.161 667.391 744.122C669.548 740.118 670.986 736.834 672.903 733.951Z" fill="#C4C4C4"/>
<path d="M568.66 714.49C568.819 716.972 568.819 719.215 569.219 721.377C570.896 731.469 569.698 741.4 568.819 751.411C568.66 752.853 568.1 754.214 567.541 755.576C565.305 760.781 567.621 765.747 568.18 770.873C568.739 776.239 568.18 781.685 568.02 787.131C568.02 787.772 567.701 788.412 567.302 788.973C565.544 791.216 564.106 794.98 560.831 793.298C559.393 792.497 559.314 788.493 559.314 785.85C559.234 783.207 560.033 780.564 560.352 778.001C560.672 775.278 559.953 773.275 558.036 770.953C556.278 768.871 556.198 765.266 555.399 762.383C555 760.862 554.84 759.26 554.121 757.898C553.722 757.257 552.124 756.617 551.485 756.857C550.607 757.257 549.728 758.539 549.648 759.42C549.568 762.624 549.728 765.827 549.968 769.031C550.447 775.278 550.926 781.445 551.565 787.692C551.885 790.415 552.524 793.138 553.003 795.861C553.562 799.385 554.681 802.909 554.521 806.433C554.281 811.078 550.207 809.156 547.651 809.316C544.855 809.476 543.817 807.794 544.616 805.151C545.015 803.79 545.974 802.428 546.133 801.067C546.453 798.103 546.932 794.98 546.373 792.177C545.414 787.531 543.258 783.046 542.219 778.401C541.5 775.198 541.82 771.834 541.66 768.47C541.5 765.987 541.58 763.424 541.181 760.942C541.021 759.9 540.142 758.219 539.423 758.138C535.589 757.578 535.589 754.695 535.11 751.891C533.592 743.082 534.072 734.912 537.666 726.183C540.702 718.894 542.619 710.165 539.104 701.515C538.705 703.197 538.225 704.799 537.826 706.481C537.187 709.764 536.708 713.048 535.909 716.251C535.749 716.972 534.87 717.613 534.151 718.013C532.234 719.055 530.317 720.016 528.16 721.137C528.16 720.656 527.921 719.215 528.001 717.853C528.16 715.611 528.24 713.368 528.72 711.206C530.317 703.838 531.755 696.389 533.992 689.181C534.631 687.019 537.347 685.417 539.344 683.815C540.542 682.854 542.219 682.373 543.577 681.653C547.571 679.57 548.051 678.289 545.974 674.124C543.817 669.639 544.775 665.475 547.252 661.71C549.968 657.546 555.879 657.305 558.115 661.71C559.793 664.914 560.192 669.319 559.553 672.923C558.994 675.966 558.595 677.728 561.87 678.689C570.577 681.172 575.529 688.06 580.002 695.108C581.92 698.151 583.118 701.755 584.476 705.199C585.834 708.563 584.156 710.725 581.041 711.606C577.207 712.567 573.213 713.368 568.66 714.49ZM576.408 704.558C574.73 702.957 573.532 701.835 571.615 699.993C571.056 703.117 570.657 705.279 570.177 707.442C570.497 707.602 570.896 707.762 571.216 707.922C572.733 706.881 574.331 705.92 576.408 704.558Z" fill="#C4C4C4"/>
<path d="M667.869 663.716C667.709 669.002 663.156 673.246 657.964 673.006C652.692 672.846 648.378 668.361 648.458 663.155C648.538 657.789 653.331 653.304 658.603 653.544C663.875 653.945 668.029 658.43 667.869 663.716Z" fill="#C4C4C4"/>
<path d="M1011.43 783.368C1011.35 788.413 1007.6 792.258 1002.65 792.338C997.214 792.418 993.3 788.413 993.38 783.047C993.46 777.761 997.294 773.997 1002.57 774.157C1007.84 774.317 1011.51 778.082 1011.43 783.368Z" fill="#C4C4C4"/>
</g>
<g clip-path="url(#clip2)">
<path d="M2246.99 660.676C2246.99 660.676 2280.03 667.726 2283.65 668.636C2287.05 669.773 2299.27 676.823 2299.27 684.783C2299.27 692.743 2293.61 689.559 2294.52 692.97C2292.71 693.88 2293.16 691.606 2293.16 691.606C2293.16 691.606 2303.12 687.739 2295.2 680.234C2288.41 672.502 2289.09 672.047 2281.39 670.682C2273.7 669.318 2247.21 664.315 2247.21 664.315L2246.99 660.676Z" fill="#C4C4C4"/>
<path d="M2232.73 718.668C2232.73 718.668 2235.22 722.079 2235.22 726.173C2235.22 730.267 2235.45 737.544 2238.84 749.143C2239.07 754.146 2239.07 755.283 2239.07 755.283C2239.07 755.283 2239.52 759.377 2239.97 760.742C2239.07 763.016 2239.07 768.247 2239.07 768.247C2239.07 768.247 2239.07 785.303 2238.39 785.758C2237.71 787.123 2237.48 795.538 2238.39 801.451C2236.13 802.588 2235.9 803.497 2235.9 803.497C2235.9 803.497 2234.99 807.364 2239.97 805.772C2243.82 804.407 2242.01 800.541 2242.01 800.541C2242.01 800.541 2242.24 796.22 2245.86 795.083C2248.35 791.899 2244.5 789.17 2244.5 789.17C2244.5 789.17 2245.41 774.614 2247.44 772.113C2248.8 766.2 2247.44 758.24 2247.44 758.24C2247.44 758.24 2248.35 753.919 2247.67 749.825C2249.03 744.822 2248.57 733.905 2248.57 733.905L2249.03 724.126C2249.03 724.126 2245.63 725.036 2240.2 721.624C2235.45 720.26 2232.73 718.668 2232.73 718.668Z" fill="#C4C4C4"/>
<path d="M2249.25 704.57C2249.25 704.57 2252.42 707.754 2256.49 708.209C2260.79 709.346 2277.09 713.44 2277.09 713.44C2277.09 713.44 2280.48 714.35 2284.33 713.44C2288.41 712.985 2298.59 715.942 2298.59 715.942C2298.59 715.942 2306.97 718.443 2307.19 717.306C2309 717.079 2311.94 717.534 2311.94 717.534C2311.94 717.534 2317.15 716.624 2318.73 717.306C2320.32 717.761 2323.49 721.4 2318.51 722.992C2313.76 723.219 2312.62 722.764 2312.62 722.764C2312.62 722.764 2308.55 723.219 2307.87 721.855C2306.06 720.49 2300.63 720.945 2300.63 720.945C2300.63 720.945 2291.35 721.172 2289.09 720.49C2284.56 722.082 2278 721.4 2278 721.4C2278 721.4 2261.25 722.309 2259.89 721.627C2258.98 721.855 2252.65 721.855 2251.74 720.717C2250.38 720.263 2244.05 712.985 2249.25 704.57Z" fill="#C4C4C4"/>
<path d="M2232.73 718.67C2232.73 718.67 2227.53 708.664 2225.71 707.299C2223.9 704.797 2222.09 690.697 2222.09 690.697C2222.09 690.697 2220.06 685.921 2220.74 679.098C2219.38 673.868 2216.44 671.593 2216.44 671.593C2216.44 671.593 2208.51 658.403 2208.51 657.493C2208.51 656.583 2208.97 643.848 2209.65 641.801C2211.91 642.028 2213.72 642.256 2213.72 642.256C2213.72 642.256 2213.49 657.038 2216.66 659.995C2218.7 663.406 2222.09 668.637 2222.09 668.637C2222.09 668.637 2227.3 672.958 2227.53 674.777C2228.88 675.005 2229.56 675.232 2229.56 675.232L2228.88 683.874L2240.2 677.961C2240.2 677.961 2242.24 679.326 2243.6 679.326C2245.63 680.008 2249.93 683.874 2249.93 683.874C2249.93 683.874 2252.65 685.921 2256.5 685.921C2260.57 687.513 2263.06 692.062 2263.06 692.062L2267.13 695.018C2267.13 695.018 2264.19 695.018 2263.51 699.339C2261.02 696.838 2255.36 692.971 2255.36 692.971C2255.36 692.971 2250.61 690.47 2249.03 690.925C2247.44 691.152 2244.05 688.878 2244.05 688.878C2244.05 688.878 2240.88 697.52 2244.27 701.841C2247.67 702.978 2249.03 704.797 2249.03 704.797C2249.03 704.797 2243.6 711.62 2251.06 721.399C2250.84 723.446 2249.03 724.129 2249.03 724.129C2249.03 724.129 2245.63 725.266 2240.2 721.627C2236.35 720.717 2232.73 718.67 2232.73 718.67Z" fill="#C4C4C4"/>
<path d="M2267.13 695.016C2267.13 695.016 2269.4 698.2 2270.98 699.109C2272.57 700.019 2275.73 703.885 2275.73 703.885C2275.73 703.885 2281.85 706.387 2281.85 705.932C2282.3 706.842 2281.17 707.297 2281.17 707.297C2281.17 707.297 2281.62 708.206 2280.49 707.751C2279.13 707.979 2275.73 705.932 2275.73 705.932C2275.73 705.932 2277.32 710.708 2278.22 711.39C2278.22 712.755 2276.19 710.708 2276.19 710.708L2274.15 705.932C2274.15 705.932 2273.92 704.567 2271.66 704.795C2271.21 705.477 2270.3 710.48 2270.3 710.48C2270.3 710.48 2269.62 711.39 2268.94 709.798C2269.17 707.751 2268.49 703.203 2268.49 703.203C2268.49 703.203 2266.68 698.654 2263.96 699.109C2264.19 695.925 2267.13 695.016 2267.13 695.016Z" fill="#C4C4C4"/>
<path d="M2210.1 641.573C2210.1 641.573 2211 632.931 2210.1 631.112C2208.96 628.383 2212.36 628.155 2212.36 628.155C2212.36 628.155 2211.23 627.018 2212.36 626.563C2212.36 625.426 2213.72 625.199 2213.72 625.199L2213.94 623.152C2213.94 623.152 2214.62 622.47 2215.08 623.379C2215.08 624.289 2214.62 625.881 2214.62 625.881C2214.62 625.881 2215.98 625.881 2215.75 627.928C2215.53 630.202 2217.11 629.975 2214.62 635.205C2213.72 639.981 2213.72 641.801 2213.72 641.801C2213.72 641.801 2212.81 643.62 2210.1 641.573Z" fill="#C4C4C4"/>
<path d="M2229.79 675.456C2229.79 675.456 2230.92 672.045 2228.66 669.543C2226.39 667.042 2225.26 666.359 2226.39 664.313C2226.39 664.313 2226.17 663.63 2226.85 663.175C2226.62 662.493 2227.3 662.038 2227.3 662.038L2227.52 659.992C2227.52 659.992 2228.2 659.537 2229.11 659.537C2229.79 657.035 2233.64 653.851 2233.64 653.851C2233.64 653.851 2239.07 651.122 2238.62 663.175C2240.88 662.266 2241.56 664.54 2241.56 664.54C2241.56 664.54 2244.05 667.497 2239.07 670.908C2237.48 674.319 2240.43 677.731 2240.43 677.731L2229.11 683.644L2229.79 675.456Z" fill="#C4C4C4"/>
<path d="M2226.85 604.957C2226.85 604.957 2259.67 605.866 2256.72 628.154C2257.4 643.164 2246.31 634.294 2246.31 634.294C2246.31 634.294 2227.3 624.742 2192.9 637.023C2184.07 642.027 2179.32 646.12 2179.32 646.12C2179.32 646.12 2167.78 651.806 2168 657.264C2168.23 662.95 2180.22 660.676 2180.22 660.676C2180.22 660.676 2205.35 656.355 2228.21 660.903C2228.88 659.311 2229.79 657.719 2229.79 657.719C2229.79 657.719 2199.01 654.535 2178.41 657.719C2162.12 659.993 2172.08 653.625 2172.08 653.625L2180 647.03C2180 647.03 2202.18 636.114 2212.59 636.341C2219.6 634.067 2226.39 633.839 2243.37 637.706C2243.37 637.706 2253.33 642.936 2257.4 636.341C2260.12 626.789 2257.85 615.418 2252.42 610.642C2246.76 605.866 2225.72 602 2225.72 602C2225.72 602 2224.81 603.137 2226.85 604.957Z" fill="#C4C4C4"/>
<path d="M2234.09 653.624C2234.09 653.624 2242.69 651.577 2247.22 660.902C2254.68 664.086 2247.22 666.815 2247.22 666.815C2247.22 666.815 2246.08 671.136 2243.59 671.363C2241.1 671.591 2238.84 674.32 2238.84 674.32C2238.84 674.32 2238.16 672.273 2239.07 670.908C2239.97 669.544 2245.86 663.858 2238.84 662.721C2238.61 652.714 2234.09 653.624 2234.09 653.624Z" fill="#C4C4C4"/>
<path d="M2214.17 622.923L2225.71 602L2227.75 602.91L2215.3 623.151L2214.17 622.923Z" fill="#C4C4C4"/>
</g>
<g clip-path="url(#clip3)">
<path d="M1617.24 641.403C1617.24 641.403 1612.37 650.603 1615.87 664.003C1606.15 663.203 1598.18 664.603 1598.18 664.603C1598.18 664.603 1590.4 663.003 1590.01 667.603C1588.65 671.403 1584.37 677.203 1584.37 677.203C1584.37 677.203 1578.73 688.203 1576.78 690.603C1575.03 692.803 1569.78 692.603 1567.64 690.603C1565.5 688.603 1562.39 690.003 1562 692.803C1562.58 696.003 1568.61 699.403 1568.61 699.403C1568.61 699.403 1572.31 704.603 1573.67 704.803C1575.03 705.003 1577.95 705.203 1578.53 701.803C1579.12 698.403 1583.78 689.203 1584.95 688.603C1586.12 688.003 1589.23 683.603 1590.59 681.803C1592.15 680.003 1594.67 677.203 1595.84 674.203C1598.76 674.203 1609.65 679.803 1609.65 679.803C1609.65 679.803 1610.23 693.203 1609.07 696.603C1611.01 699.803 1622.1 700.603 1622.1 700.603L1624.63 709.003C1624.63 709.003 1625.02 711.803 1630.66 714.403C1636.3 717.203 1641.35 722.803 1641.35 722.803C1641.35 722.803 1642.13 723.403 1643.49 724.203C1644.66 725.003 1646.41 726.403 1647.97 727.803C1649.52 729.203 1651.08 730.803 1652.05 732.203C1654.97 736.803 1657.5 740.203 1656.33 746.003C1658.08 751.803 1662.16 747.203 1662.16 747.203C1662.16 747.203 1664.3 743.803 1664.89 739.203C1667.03 736.203 1668.39 729.603 1668.39 729.603C1668.39 729.603 1667.61 728.403 1665.28 727.603C1664.11 727.203 1662.36 726.803 1660.22 726.803C1652.63 725.003 1648.55 717.403 1643.3 712.403C1642.33 711.403 1641.16 710.203 1639.8 709.203C1638.44 708.203 1637.07 707.403 1635.52 706.803C1632.41 700.803 1634.55 694.203 1634.55 694.203C1634.55 694.203 1634.35 684.203 1635.91 682.203C1636.1 681.803 1636.3 681.203 1636.49 680.603C1636.49 679.803 1636.69 678.803 1636.49 677.803C1636.49 673.203 1635.71 668.603 1635.32 664.403C1634.93 659.403 1636.49 655.203 1638.82 651.403C1639.41 650.403 1639.8 649.403 1640.19 648.603C1641.55 645.803 1642.71 643.603 1642.71 643.403C1642.71 642.803 1649.72 633.803 1649.91 632.403C1650.1 631.003 1654.19 624.003 1654.97 624.003C1655.94 623.403 1663.91 608.603 1663.91 608.603C1663.91 608.603 1667.03 605.803 1668.19 606.003C1669.17 606.003 1673.25 606.003 1673.25 606.003C1673.25 606.003 1674.22 605.003 1672.67 604.603C1671.11 604.403 1668.58 603.803 1668.58 603.803L1674.81 602.003C1674.81 602.003 1675.58 600.603 1673.83 600.403C1672.28 600.603 1668.78 601.603 1668.78 601.603L1675 597.403C1675 597.403 1675.58 596.003 1673.25 596.203C1670.92 597.003 1668.19 599.603 1668.19 599.603L1671.69 594.803C1671.69 594.803 1671.3 593.803 1669.94 594.403C1668.58 595.003 1665.86 600.003 1664.89 599.803C1663.72 599.603 1664.11 595.803 1664.11 595.803C1664.11 595.803 1662.75 594.403 1661.97 596.203C1661.77 598.403 1660.8 600.603 1660.8 600.603C1660.8 600.603 1659.64 604.003 1660.02 605.603C1660.41 607.403 1652.05 618.803 1650.88 619.203C1649.91 620.003 1646.6 624.603 1646.6 624.603C1646.6 624.603 1643.3 629.003 1642.71 630.603C1642.91 626.203 1639.21 624.003 1639.21 624.003C1639.21 624.003 1634.74 620.603 1631.63 623.603C1629.49 623.803 1629.1 625.403 1629.1 625.403C1629.1 625.403 1628.32 628.203 1628.32 628.803C1628.32 629.403 1627.54 632.803 1627.54 633.603C1626.96 633.803 1623.27 633.403 1623.27 634.203C1623.27 634.803 1620.74 632.203 1616.26 632.003C1613.35 628.203 1608.48 626.403 1608.48 626.403C1608.48 626.403 1604.98 614.603 1605.96 610.003C1607.12 605.403 1609.07 601.003 1609.07 601.003C1609.07 601.003 1608.29 600.203 1608.29 601.203C1607.71 600.403 1607.12 601.803 1607.12 601.803C1607.12 601.803 1604.98 606.203 1604.4 606.403C1603.82 606.603 1600.12 607.203 1598.56 605.403C1597.4 605.603 1598.37 606.403 1598.37 606.403L1601.68 608.603L1601.87 623.803C1601.87 623.803 1601.09 628.003 1605.18 631.203C1608.68 634.403 1611.21 637.803 1611.21 637.803C1611.21 637.803 1616.65 641.203 1617.24 641.403Z" fill="#D4D4D4"/>
<path d="M1602.45 609.4C1609.11 609.4 1614.51 603.938 1614.51 597.2C1614.51 590.462 1609.11 585 1602.45 585C1595.8 585 1590.4 590.462 1590.4 597.2C1590.4 603.938 1595.8 609.4 1602.45 609.4Z" fill="#D4D4D4"/>
<path d="M1593.31 605.403C1593.31 605.403 1591.17 597.003 1601.29 588.203C1602.26 588.603 1601.87 588.003 1601.68 588.603C1601.68 588.603 1592.34 595.603 1593.7 605.803C1593.51 605.803 1593.31 605.403 1593.31 605.403Z" fill="#D4D4D4"/>
<path d="M1595.84 587C1595.84 587 1599.34 585.2 1604.98 590.4C1604.79 590.6 1604.6 590.8 1604.6 590.8C1604.6 590.8 1600.51 586.6 1595.84 587Z" fill="#D4D4D4"/>
<path d="M1604.01 590.199C1604.01 590.199 1601.29 591.799 1602.07 598.999C1602.65 606.199 1602.65 609.199 1602.65 609.199C1602.65 609.199 1603.23 609.399 1603.62 609.199C1603.43 608.799 1602.84 598.999 1602.84 598.999C1602.84 598.999 1601.87 592.599 1604.4 590.799C1604.2 590.199 1604.01 590.199 1604.01 590.199Z" fill="#D4D4D4"/>
<path d="M1601.68 588.002C1601.68 588.002 1603.82 585.602 1607.32 586.202C1607.51 586.202 1607.71 586.202 1607.71 586.202C1607.71 586.202 1604.4 586.202 1601.87 588.202C1601.29 588.402 1601.68 588.002 1601.68 588.002Z" fill="#D4D4D4"/>
<path d="M1604.4 589.801C1604.4 589.801 1609.07 585.401 1613.93 594.001C1608.68 586.601 1604.79 590.201 1604.79 590.201L1604.4 589.801Z" fill="#D4D4D4"/>
<path d="M1604.98 590.402C1604.98 590.402 1612.76 597.402 1612.18 604.602L1611.79 605.002C1611.79 605.002 1612.96 599.002 1604.4 590.802C1604.59 590.602 1604.98 590.402 1604.98 590.402Z" fill="#D4D4D4"/>
<path d="M1599.15 587C1599.15 587 1601.09 585.6 1601.29 585C1601.68 585 1602.07 585 1602.07 585C1602.07 585 1600.7 586.6 1599.93 587C1599.54 587 1599.15 587 1599.15 587Z" fill="#D4D4D4"/>
<path d="M1599.15 587.199L1593.9 590.799C1593.9 590.799 1590.79 593.199 1590.79 594.599C1591.17 592.799 1593.7 591.399 1593.7 591.399L1599.54 587.599L1599.15 587.199Z" fill="#D4D4D4"/>
</g>
<g clip-path="url(#clip4)">
<path d="M1988.9 701.994C1988.9 701.994 1988.74 703.579 1988.26 703.579C1987.95 703.579 1987.31 703.104 1987.31 703.104C1987.31 703.104 1985.56 703.104 1986.03 702.311C1986.51 701.519 1987.95 701.202 1988.9 701.994Z" fill="#C4C4C4"/>
<path d="M1994.16 702.785C1994.16 702.785 1992.88 701.2 1991.29 702.468C1992.24 702.785 1994.16 702.785 1994.16 702.785Z" fill="#C4C4C4"/>
<path d="M1984.28 702.152L1984.92 705.64L2001.16 705.323L2001.01 702.469L1984.28 702.152Z" fill="#C4C4C4"/>
<path d="M2001.01 702.469C2003.71 703.895 2013.43 698.348 2013.43 698.348C2013.43 698.348 2012 704.212 2014.38 709.919C2011.04 706.59 2001.01 705.164 2001.01 705.164V702.469Z" fill="#C4C4C4"/>
<path d="M2011.84 700.883C2011.84 700.883 2010.56 705.797 2012.16 707.223C2011.36 707.065 2002.44 704.053 2002.44 704.053C2002.44 704.053 2011.2 701.358 2011.84 700.883Z" fill="#C4C4C4"/>
<path d="M2036.86 705.875C2037.61 700.498 2032.56 695.361 2025.59 694.401C2018.62 693.441 2012.36 697.021 2011.62 702.398C2010.87 707.774 2015.91 712.911 2022.88 713.871C2029.86 714.831 2036.11 711.251 2036.86 705.875Z" fill="#C4C4C4"/>
<path d="M1949.56 786.635C1949.56 786.635 1947.65 787.428 1948.28 791.073C1946.69 793.609 1947.65 796.463 1947.65 796.463C1947.65 796.463 1951.15 799.474 1955.29 796.304C1957.2 794.561 1954.97 791.39 1954.97 791.39C1954.97 791.39 1955.13 786.952 1954.34 786.16C1953.54 785.05 1951.47 782.672 1949.56 786.635Z" fill="#C4C4C4"/>
<path d="M1953.38 722.124C1953.38 722.124 1954.18 710.87 1954.5 708.651C1954.82 706.431 1954.02 697.872 1954.02 697.872L1956.41 683.606C1956.41 683.606 1959.59 683.289 1963.1 682.18C1963.26 686.142 1966.6 689.947 1966.6 689.947C1966.6 689.947 1972.34 686.776 1972.49 682.814C1975.84 685.033 1979.03 687.252 1979.03 687.252C1979.03 687.252 1976 694.86 1977.91 699.14C1979.82 703.578 1980.14 722.441 1980.14 722.441C1980.14 722.441 1973.45 727.672 1953.22 722.282L1953.38 722.124Z" fill="#C4C4C4"/>
<path d="M1949.56 786.005C1949.56 786.005 1947.97 768.252 1947.97 767.143C1947.97 765.875 1948.6 761.12 1950.2 757.791C1952.11 753.353 1950.04 743.208 1950.04 743.208C1950.04 743.208 1953.86 741.94 1963.89 743.208C1960.71 748.439 1959.91 755.889 1959.91 755.889C1959.91 755.889 1958.8 761.278 1958.48 762.705C1958 764.131 1957.05 771.898 1957.05 771.898C1957.05 771.898 1955.13 780.775 1954.97 781.884C1954.82 782.994 1955.13 786.481 1955.13 786.481C1955.13 786.481 1951.95 782.994 1949.56 786.005Z" fill="#C4C4C4"/>
<path d="M2005.94 775.066C2005.94 775.066 2001.17 769.835 1997.98 762.069C1994.63 756.204 1989.38 753.985 1989.38 753.985C1989.38 753.985 1986.83 748.595 1984.12 738.609C1981.41 740.987 1973.45 743.206 1973.45 743.206L1980.3 757.313C1980.3 757.313 1980.62 759.215 1986.99 763.812C1993.36 768.567 1997.82 773.481 1997.82 773.481L2001.48 778.712L2005.94 775.066Z" fill="#C4C4C4"/>
<path d="M2000.21 777.125C2000.21 777.125 2000.37 776.967 2000.69 776.808C2001.32 773.004 2003.87 774.114 2006.58 774.748C2006.74 774.906 2006.74 774.906 2006.9 775.065C2008.33 776.967 2010.08 779.979 2010.08 779.979C2010.08 779.979 2013.43 782.515 2012.31 788.062C2009.92 792.659 2006.42 787.745 2006.42 787.745L2003.08 781.722C2003.08 781.564 2000.21 778.076 2000.21 777.125Z" fill="#C4C4C4"/>
<path d="M1949.56 743.999C1949.56 743.999 1951.31 730.209 1951.31 729.416C1951.31 728.624 1953.38 722.125 1953.38 722.125C1953.38 722.125 1965.96 726.246 1980.3 722.601C1984.12 730.367 1983.96 738.451 1983.96 738.451C1983.96 738.451 1980.3 742.89 1966.76 743.682C1953.22 744.633 1949.56 743.999 1949.56 743.999Z" fill="#C4C4C4"/>
<path d="M1956.57 683.765C1956.57 683.765 1952.27 680.595 1950.99 686.935C1951.15 692.959 1955.93 699.458 1955.93 699.458C1955.93 699.458 1961.03 705.639 1962.3 706.273C1964.05 706.749 1976.48 704.213 1976.48 704.213C1976.48 704.213 1973.45 714.357 1978.55 715.784C1983.96 715.625 1987.15 707.383 1987.15 707.383C1987.15 707.383 1988.58 708.017 1989.06 707.858C1989.7 708.175 1991.29 708.017 1991.29 708.017C1991.29 708.017 1993.2 708.809 1993.52 707.858C1994.63 708.175 1995.43 708.017 1995.43 707.541C1995.43 707.066 1998.93 707.066 1995.27 704.847C1994 702.469 1993.84 701.835 1993.84 701.835C1993.84 701.835 1988.1 700.409 1988.1 701.677C1987.78 699.616 1983.33 699.775 1983.33 699.775C1983.33 699.775 1983.48 689.789 1982.05 689.154C1980.78 687.411 1978.87 687.569 1978.87 687.569C1978.87 687.569 1975.04 690.898 1976.32 697.08C1973.13 697.714 1964.69 698.982 1964.69 698.982C1964.69 698.982 1958.32 688.837 1956.57 683.765Z" fill="#C4C4C4"/>
<path d="M1982.21 703.738V706.908C1982.21 706.908 1983.17 707.067 1983.49 706.274C1983.8 705.482 1982.85 704.055 1982.85 704.055L1982.21 703.738Z" fill="#C4C4C4"/>
<path d="M1963.42 682.815C1963.42 682.815 1964.05 680.595 1962.94 677.425C1961.82 674.255 1961.19 664.586 1967.4 666.33C1971.38 666.33 1974.88 665.696 1973.45 676.95C1971.7 678.693 1973.61 682.18 1973.61 682.18C1973.61 682.18 1974.25 685.509 1966.76 690.264C1963.89 687.728 1963.42 682.815 1963.42 682.815Z" fill="#C4C4C4"/>
<path d="M1962.14 668.231C1962.14 668.231 1962.3 665.061 1965.64 663.951C1969.95 661.257 1973.93 664.744 1973.93 664.744L1974.56 665.854C1974.56 665.854 1976.79 665.378 1977.27 666.805C1977.75 668.073 1979.5 667.914 1981.57 681.229C1982.21 692.483 1980.46 693.117 1980.46 693.117C1980.46 693.117 1980.78 689.63 1979.82 688.837C1978.86 687.886 1979.18 691.215 1979.18 691.215C1979.18 691.215 1979.18 689.154 1978.23 688.203C1977.27 687.252 1975.68 691.532 1975.68 691.532C1975.68 691.532 1973.45 685.826 1972.81 684.399C1971.06 681.07 1972.65 682.655 1971.86 677.583C1971.86 677.583 1972.97 675.206 1972.33 671.084C1965.8 666.488 1964.69 667.597 1964.69 667.597C1964.69 667.597 1961.34 667.756 1963.57 674.73C1963.57 678.217 1965.96 680.753 1965.96 680.753C1965.96 680.753 1967.08 685.033 1964.53 688.362C1958.8 687.728 1960.71 693.117 1960.71 693.117C1960.71 693.117 1957.84 692.483 1958.96 686.618C1957.52 682.814 1957.04 680.436 1957.68 680.119C1958.32 679.802 1956.41 675.047 1959.43 674.572C1957.36 669.024 1962.14 668.231 1962.14 668.231Z" fill="#C4C4C4"/>
<path d="M1843.8 713.089C1843.8 713.089 1853.04 719.271 1854.63 734.488C1845.55 740.194 1841.57 748.754 1841.57 748.754C1841.57 748.754 1838.86 753.667 1840.61 756.838C1841.41 760.166 1845.55 780.614 1845.55 780.614C1845.55 780.614 1844.44 782.516 1843.16 784.735C1843 784.893 1843 785.21 1842.84 785.369C1841.41 788.539 1839.02 790.758 1836.15 792.66C1835.84 792.977 1835.68 793.136 1835.36 793.453C1833.76 795.514 1833.29 797.891 1838.86 798.684C1848.58 799.793 1849.85 794.562 1849.85 794.562C1849.85 794.562 1850.33 794.404 1851.13 794.087C1851.44 794.087 1851.6 793.928 1851.92 793.928C1852.24 793.77 1852.56 793.611 1852.88 793.453C1853.2 793.294 1853.51 792.977 1853.83 792.819C1856.06 791.234 1854.47 788.856 1853.51 787.113C1853.36 786.796 1853.2 786.479 1853.2 786.162C1852.72 784.735 1852.56 783.308 1852.4 781.882C1852.4 781.565 1852.4 781.406 1852.24 781.089C1851.92 778.553 1851.92 776.176 1851.92 776.176C1851.92 776.176 1854.15 763.812 1850.01 757.472C1854.79 758.106 1856.22 754.46 1856.22 754.46C1856.22 754.46 1859.25 751.765 1859.41 749.705C1861.64 748.278 1867.21 745.583 1867.21 745.583L1877.09 761.434C1877.09 761.434 1880.27 768.726 1884.1 765.872C1888.56 764.604 1897.32 762.702 1897.32 762.702C1897.32 762.702 1904.48 759.849 1908.15 761.276C1911.81 762.544 1914.36 765.08 1914.36 765.08C1914.36 765.08 1918.02 766.507 1915.63 759.691C1911.97 753.35 1910.69 749.388 1910.69 749.388C1910.69 749.388 1905.92 743.681 1903.21 752.082C1903.21 754.46 1898.91 754.143 1898.91 754.143C1898.91 754.143 1894.45 751.29 1887.76 754.935C1885.69 755.886 1885.85 752.241 1885.85 752.241C1885.85 752.241 1884.26 744.791 1882.18 740.987C1883.14 733.695 1879.16 726.087 1879.16 726.087C1879.16 726.087 1871.83 714.199 1871.83 713.723C1871.83 713.089 1872.15 707.383 1872.15 706.749C1872.15 706.115 1880.91 707.858 1885.37 705.322C1889.83 710.395 1899.39 712.138 1899.39 712.138C1899.39 712.138 1902.25 714.516 1902.25 716.101C1902.25 717.686 1905.92 721.49 1905.92 721.49C1905.92 721.49 1906.87 721.332 1906.39 720.064C1905.92 718.796 1904.64 717.845 1905.28 716.735C1905.92 715.625 1911.65 718.637 1911.65 718.637C1911.65 718.637 1912.92 718.32 1911.33 717.21C1911.49 716.101 1910.54 715.308 1910.54 715.308C1910.54 715.308 1910.38 714.674 1909.74 714.357C1909.1 714.04 1908.15 712.614 1905.92 711.187C1903.69 709.761 1895.09 704.847 1895.09 704.371C1895.09 704.371 1888.71 701.36 1884.57 699.616C1884.41 699.458 1884.1 699.458 1883.94 699.299C1881.23 697.555 1877.88 697.397 1874.7 696.287C1874.38 696.129 1874.06 695.97 1873.74 695.97C1873.42 695.812 1873.27 695.812 1873.11 695.653C1871.83 695.178 1859.89 693.751 1859.41 694.227C1858.93 694.544 1857.18 694.068 1857.18 694.068L1856.38 692.008C1856.38 692.008 1861.32 676.632 1848.42 675.84C1837.27 678.534 1843.32 689.947 1843.32 689.947C1843.32 689.947 1843.64 690.74 1844.12 691.849C1844.28 692.008 1844.28 692.325 1844.44 692.483C1845.23 694.385 1846.51 696.129 1847.14 698.189C1845.71 698.189 1844.44 698.982 1843.16 699.299C1843 699.458 1842.84 699.458 1842.52 699.616C1841.25 700.409 1839.66 701.677 1837.91 703.579C1832.97 708.651 1829.78 712.455 1828.19 712.614C1825.32 711.663 1818.95 714.674 1818.95 714.674C1818.95 714.674 1810.83 715.467 1809.87 714.516C1808.92 713.565 1806.69 713.248 1806.69 713.248C1806.69 713.248 1807.48 715.308 1806.85 715.308C1806.21 715.308 1804.46 717.686 1805.25 718.32C1806.21 718.003 1807.8 716.893 1807.8 716.893L1810.03 719.588C1810.03 719.588 1817.04 719.113 1821.02 720.064C1825 721.332 1829.78 718.479 1829.78 718.479L1837.11 715.942C1837.11 715.942 1841.89 712.297 1843.8 713.089Z" fill="#C4C4C4"/>
<path d="M1806.21 718.795C1806.21 718.795 1807.48 718.319 1807.64 718.636C1807.8 718.953 1807.64 719.429 1807.64 719.429C1807.64 719.429 1808.28 720.697 1807.48 720.697C1806.69 720.697 1805.89 719.746 1806.21 718.795Z" fill="#C4C4C4"/>
<path d="M1804.78 714.516C1804.78 714.516 1804.14 716.101 1805.57 716.735C1805.41 715.942 1804.78 714.516 1804.78 714.516Z" fill="#C4C4C4"/>
<path d="M1808.12 722.122L1810.51 720.379L1803.82 708.332L1801.91 709.442L1808.12 722.122Z" fill="#C4C4C4"/>
<path d="M1801.91 709.445C1801.91 706.908 1793.95 701.836 1793.95 701.836C1793.95 701.836 1798.88 700.568 1802.23 696.605C1800.95 700.41 1803.98 708.335 1803.98 708.335L1801.91 709.445Z" fill="#C4C4C4"/>
<path d="M1796.33 702.312C1796.33 702.312 1800.48 701.361 1800.95 699.617C1801.11 700.251 1802.39 708.018 1802.39 708.018C1802.39 708.018 1797.13 702.47 1796.33 702.312Z" fill="#C4C4C4"/>
<path d="M1797.56 701.696C1801.87 700.151 1803.73 694.426 1801.73 688.909C1799.73 683.391 1794.62 680.171 1790.32 681.715C1786.02 683.26 1784.15 688.985 1786.15 694.502C1788.15 700.019 1793.26 703.24 1797.56 701.696Z" fill="#C4C4C4"/>
<path d="M1785.34 700.724C1787.19 700.724 1788.69 699.163 1788.69 697.237C1788.69 695.311 1787.19 693.75 1785.34 693.75C1783.5 693.75 1782 695.311 1782 697.237C1782 699.163 1783.5 700.724 1785.34 700.724Z" fill="#C4C4C4"/>
<path d="M1783.12 695.02C1783.12 695.02 1783.43 695.337 1783.59 696.129C1783.59 696.288 1783.59 696.288 1783.59 696.446C1783.59 697.08 1783.27 697.714 1783.27 698.348V698.507C1783.27 698.824 1783.27 699.141 1783.27 699.458C1783.43 699.775 1783.59 700.092 1783.59 700.092V699.616C1783.59 699.616 1783.59 699.458 1783.59 699.141C1783.59 698.982 1783.59 698.982 1783.59 698.824C1783.75 697.873 1784.23 697.08 1783.91 696.129C1783.91 695.971 1783.91 695.971 1783.75 695.812C1783.59 695.02 1783.12 695.02 1783.12 695.02Z" fill="#C4C4C4"/>
<path d="M1787.57 694.859C1787.57 694.859 1787.26 695.176 1787.1 695.969V696.127C1786.94 696.761 1787.26 697.396 1787.26 698.03C1787.26 698.188 1787.26 698.188 1787.26 698.347C1787.41 698.822 1787.41 699.139 1787.26 699.615C1787.1 699.932 1786.94 700.249 1786.94 700.249L1787.1 699.456C1787.1 699.456 1787.1 699.139 1787.1 698.505V698.347C1786.94 697.554 1786.62 696.761 1786.78 695.969V695.81C1787.1 695.018 1787.57 694.859 1787.57 694.859Z" fill="#C4C4C4"/>
</g>
<path d="M1404.87 775.939L1411.92 766.745C1411.92 766.745 1410 766.111 1412.56 764.685C1415.12 763.258 1420.4 757.711 1422 756.76C1421.68 757.235 1421.04 755.809 1421.04 755.809C1421.04 755.809 1419.44 755.016 1419.12 754.065C1418.64 753.114 1418.64 751.687 1419.28 751.37C1419.76 751.053 1419.6 749.31 1419.6 749.31C1419.6 749.31 1416.88 748.042 1416.72 747.249C1416.56 746.457 1411.6 745.347 1411.76 742.494C1406.95 738.214 1409.68 732.984 1409.68 732.984C1409.68 732.984 1411.92 730.13 1411.92 729.179C1411.92 728.228 1410.16 728.545 1410.96 727.119C1411.6 725.692 1414 718.401 1416.88 714.597C1419.76 710.793 1419.6 708.891 1422.64 706.354C1425.69 703.66 1427.61 704.928 1430.49 701.599C1430.65 700.49 1430.97 698.112 1430.97 698.112C1430.97 698.112 1428.89 698.588 1429.05 696.527C1429.21 694.625 1426.33 690.504 1433.85 688.443C1441.21 686.383 1444.26 693.357 1444.26 693.357C1444.26 693.357 1446.82 694.784 1444.58 695.259C1441.85 695.418 1442.98 697.637 1442.98 697.637C1442.98 697.637 1442.5 701.124 1442.34 701.599C1442.17 702.075 1441.05 703.66 1441.05 704.769C1441.05 705.879 1440.73 706.672 1438.97 706.672C1437.21 706.672 1436.09 708.732 1436.25 709.208C1436.41 709.683 1438.65 713.012 1438.65 714.28C1438.65 715.548 1442.34 721.888 1443.3 722.681C1444.26 723.473 1450.18 728.862 1450.82 729.655C1451.46 730.289 1455.14 734.093 1456.58 734.093C1457.86 734.093 1461.23 734.569 1461.71 735.361C1462.19 736.154 1463.15 738.056 1463.15 738.056C1463.15 738.056 1462.67 740.116 1461.39 740.275C1459.95 740.433 1461.23 742.335 1459.46 741.86C1457.7 741.384 1454.02 745.03 1454.02 745.03L1455.62 749.785C1455.62 749.785 1456.58 751.053 1456.58 752.321C1456.58 753.589 1460.11 763.417 1460.11 763.417C1460.11 763.417 1458.82 762.941 1459.62 764.526C1460.27 766.111 1463.95 775.78 1467.79 782.438C1469.39 784.34 1467.79 784.657 1467.79 784.657C1467.79 784.657 1466.67 785.608 1466.03 783.389C1465.39 781.17 1456.42 767.538 1457.22 759.771C1455.62 759.454 1455.78 757.711 1455.78 757.711L1440.89 774.354C1440.89 774.354 1444.9 776.414 1439.61 777.999C1437.53 776.414 1434.17 782.596 1434.17 782.596C1434.17 782.596 1437.37 786.559 1432.41 791.631C1433.05 792.582 1437.05 793.058 1437.05 793.058C1437.05 793.058 1437.69 794.801 1436.09 795.752C1434.81 795.594 1429.21 795.435 1429.21 795.435C1429.21 795.435 1427.45 796.862 1426.33 795.752C1425.37 794.643 1424.88 794.96 1424.88 794.96C1424.88 794.96 1422.96 794.009 1423.6 793.216C1424.24 792.265 1420.24 792.582 1420.24 792.582L1422.16 785.608L1406.15 782.755C1406.15 782.755 1404.87 784.815 1403.75 784.815C1404.39 786.4 1400.23 787.193 1400.23 787.193C1400.23 787.193 1399.75 788.936 1397.35 787.827C1396.07 786.717 1397.03 784.815 1397.03 784.815C1397.03 784.815 1395.43 783.547 1396.87 780.853C1398.63 777.682 1400.23 775.939 1404.87 775.939Z" fill="#D4D4D4"/>
<path d="M1424.24 779.111L1425.84 773.88L1422.64 772.137C1422.64 772.137 1424.72 776.733 1424.24 779.111Z" stroke="#C4C4C4"/>
<path d="M1418.32 764.682C1418.32 764.682 1431.93 777.204 1418.48 794.799C1402.95 809.223 1388.22 794.165 1388.22 794.165C1388.22 794.165 1384.7 790.836 1383.1 785.605C1383.1 785.288 1382.94 785.13 1382.94 784.813C1382.3 782.118 1382.3 779.423 1382.62 776.729C1382.62 776.412 1382.78 776.095 1382.78 775.778C1382.94 774.827 1383.26 773.876 1383.58 772.925C1383.58 772.766 1383.74 772.608 1383.9 772.291C1384.22 771.498 1384.7 770.547 1385.18 769.755C1385.34 769.596 1385.34 769.438 1385.5 769.279C1386.14 768.328 1386.78 767.535 1387.42 766.584C1387.58 766.426 1387.74 766.267 1387.9 766.109C1388.06 765.95 1388.22 765.792 1388.38 765.633C1390.14 763.414 1392.7 761.829 1395.27 760.72C1395.43 760.561 1395.75 760.561 1395.91 760.561C1396.07 760.561 1396.39 760.403 1396.55 760.403C1410.47 755.172 1418.32 764.682 1418.32 764.682Z" fill="#D4D4D4"/>
<path d="M1430.97 726.166C1430.97 726.166 1431.13 728.226 1430.01 729.653C1428.89 731.238 1428.25 733.932 1429.21 734.249C1430.17 734.566 1444.58 737.578 1447.46 741.065C1450.34 744.552 1446.82 747.722 1446.82 747.722C1446.82 747.722 1444.74 752.319 1444.1 754.38C1448.58 754.063 1453.7 752.953 1453.7 752.953C1453.7 752.953 1453.38 751.21 1453.54 750.576C1453.7 749.942 1452.42 745.503 1452.42 745.503C1452.42 745.503 1451.78 743.601 1453.06 743.126C1454.35 742.65 1456.27 741.224 1456.27 741.224C1456.27 741.224 1453.06 740.59 1453.06 739.639C1453.06 738.846 1451.62 741.224 1451.62 741.224C1451.62 741.224 1450.34 741.699 1450.34 740.907C1450.34 740.114 1451.62 738.529 1451.62 738.529C1451.62 738.529 1450.34 737.42 1450.02 736.786C1449.7 736.152 1442.66 732.981 1442.34 732.981C1442.02 732.981 1435.61 729.177 1435.61 728.385C1434.97 727.909 1433.21 726.641 1433.21 725.849C1433.21 725.215 1432.25 725.373 1432.25 725.373C1432.25 725.373 1431.13 725.373 1430.97 726.166Z" fill="white"/>
<path d="M1434.17 746.775C1434.17 746.775 1437.54 746.616 1438.5 746.141C1437.22 746.616 1435.77 750.103 1435.77 750.103L1434.17 746.775Z" fill="white"/>
<path d="M1437.38 771.972C1437.38 771.972 1442.02 766.266 1442.82 767.059C1443.78 767.693 1452.11 755.805 1452.11 755.805L1442.18 756.756L1440.58 759.133C1440.58 759.133 1441.38 761.511 1439.62 762.937C1437.86 764.206 1437.54 765.632 1437.54 766.742C1437.38 767.851 1436.42 771.655 1436.42 771.655L1437.38 771.972Z" fill="white"/>
<path d="M1428.09 765.473C1428.09 765.473 1425.53 765.948 1425.37 766.899C1425.21 767.85 1424.25 761.51 1423.77 759.291C1424.41 758.815 1424.41 758.815 1424.41 758.815L1427.61 758.34C1427.61 758.34 1427.29 759.608 1430.97 760.083C1428.89 763.254 1427.93 764.997 1427.93 764.997L1428.09 765.473Z" fill="white"/>
<path d="M1417.84 764.521L1422.17 759.766L1424.09 770.703C1424.09 770.703 1422.49 771.495 1422.49 771.971C1422.81 772.605 1421.53 767.849 1417.84 764.521Z" fill="white"/>
<path d="M1399.27 778C1399.27 778 1398.15 780.219 1399.43 782.438C1399.27 782.914 1398.31 782.755 1398.31 782.755C1398.31 782.755 1396.71 782.914 1397.03 781.963C1397.35 780.853 1398.31 778.159 1399.27 778Z" fill="white"/>
<path d="M1404.07 761.039L1403.27 798.764L1404.07 761.039Z" stroke="#C4C4C4"/>
<path d="M1409.67 761.988L1397.83 797.811L1409.67 761.988Z" stroke="#C4C4C4"/>
<path d="M1418.64 768.172L1389.34 792.582L1418.64 768.172Z" stroke="#C4C4C4"/>
<path d="M1415.76 766.745C1415.76 766.745 1427.6 777.841 1415.92 793.216C1402.47 805.897 1389.66 792.741 1389.66 792.741C1389.66 792.741 1386.62 789.887 1385.18 785.132C1385.18 784.974 1385.02 784.657 1385.02 784.498C1384.54 782.121 1384.54 779.743 1384.86 777.365C1384.86 777.048 1385.02 776.89 1385.02 776.573C1385.18 775.78 1385.5 774.988 1385.66 774.037C1385.82 773.72 1385.82 773.561 1385.98 773.244C1386.3 772.452 1386.62 771.818 1387.1 771.025C1387.26 770.867 1387.26 770.708 1387.42 770.55C1387.9 769.757 1388.54 768.965 1389.02 768.172C1389.18 768.014 1389.34 767.855 1389.34 767.697C1389.5 767.538 1389.66 767.379 1389.66 767.221C1391.1 765.16 1393.34 763.892 1395.75 762.783C1395.91 762.783 1396.07 762.624 1396.23 762.624C1396.39 762.624 1396.55 762.466 1396.71 762.466C1409.03 758.345 1415.76 766.745 1415.76 766.745Z" fill="white" stroke="#C4C4C4"/>
<path d="M1403.59 761.359L1402.79 799.084L1403.59 761.359Z" fill="#D4D4D4"/>
<path d="M1421.2 780.221L1384.54 780.062L1421.2 780.221Z" fill="#D4D4D4"/>
<path d="M1415.44 765.637L1391.1 794.168L1415.44 765.637Z" fill="#D4D4D4"/>
<path d="M1417.2 791.472L1389.18 768.488L1417.2 791.472Z" fill="#D4D4D4"/>
<path d="M1420.4 771.977L1386.62 788.303L1420.4 771.977Z" fill="#D4D4D4"/>
<path d="M1411.6 796.386L1395.11 764.051L1411.6 796.386Z" fill="#D4D4D4"/>
<path d="M1421.04 786.726L1385.34 773.57L1421.04 786.726Z" fill="#D4D4D4"/>
<path d="M1396.87 797.503L1409.19 762.473L1396.87 797.503Z" fill="#D4D4D4"/>
<path d="M1422.32 777.367L1385.02 782.915L1422.32 777.367Z" fill="#D4D4D4"/>
<path d="M1406.47 797.973L1400.55 762.309L1406.47 797.973Z" fill="#D4D4D4"/>
<path d="M1483 767.854C1483 767.854 1496.76 780.534 1483.16 798.287C1467.47 812.87 1452.58 797.653 1452.58 797.653C1452.58 797.653 1449.06 794.325 1447.46 788.935C1447.46 788.618 1447.3 788.46 1447.3 788.143C1446.66 785.448 1446.66 782.754 1446.98 780.059C1446.98 779.742 1447.14 779.425 1447.14 779.108C1447.3 778.157 1447.62 777.206 1447.94 776.255C1448.1 775.938 1448.26 775.621 1448.26 775.304C1448.58 774.511 1449.06 773.56 1449.54 772.768C1449.7 772.609 1449.7 772.451 1449.86 772.292C1450.5 771.341 1451.14 770.549 1451.78 769.598C1451.94 769.439 1452.1 769.281 1452.26 769.122C1452.42 768.964 1452.58 768.805 1452.74 768.646C1454.5 766.269 1457.06 764.842 1459.78 763.574C1459.94 763.416 1460.26 763.416 1460.42 763.416C1460.58 763.416 1460.9 763.257 1461.06 763.257C1475.15 758.344 1483 767.854 1483 767.854Z" fill="#D4D4D4"/>
<path d="M1480.43 769.917C1480.43 769.917 1492.28 781.171 1480.59 796.705C1466.99 809.544 1454.18 796.229 1454.18 796.229C1454.18 796.229 1451.14 793.376 1449.7 788.621C1449.7 788.462 1449.54 788.145 1449.54 787.987C1449.06 785.609 1449.06 783.232 1449.38 780.854C1449.38 780.537 1449.54 780.22 1449.54 780.061C1449.7 779.269 1450.02 778.318 1450.18 777.525C1450.34 777.208 1450.34 777.05 1450.5 776.733C1450.82 775.94 1451.14 775.148 1451.62 774.514C1451.78 774.355 1451.78 774.197 1451.94 774.038C1452.42 773.246 1453.06 772.453 1453.7 771.661C1453.86 771.502 1454.02 771.344 1454.02 771.185C1454.18 771.027 1454.34 770.868 1454.34 770.71C1455.78 768.649 1458.02 767.381 1460.42 766.271C1460.58 766.271 1460.74 766.113 1460.9 766.113C1461.06 766.113 1461.22 765.954 1461.38 765.954C1473.71 761.516 1480.43 769.917 1480.43 769.917Z" fill="white" stroke="#C4C4C4"/>
<path d="M1468.27 764.367L1467.47 802.567L1468.27 764.367Z" fill="#D4D4D4"/>
<path d="M1485.88 783.547L1448.9 783.23L1485.88 783.547Z" fill="#D4D4D4"/>
<path d="M1480.12 768.805L1455.62 797.653L1480.12 768.805Z" fill="#D4D4D4"/>
<path d="M1482.04 794.957L1453.54 771.656L1482.04 794.957Z" fill="#D4D4D4"/>
<path d="M1485.24 775.301L1450.98 791.785L1485.24 775.301Z" fill="#D4D4D4"/>
<path d="M1476.11 799.871L1459.62 767.219L1476.11 799.871Z" fill="#D4D4D4"/>
<path d="M1485.88 790.049L1449.7 776.734L1485.88 790.049Z" fill="#D4D4D4"/>
<path d="M1461.38 800.984L1473.71 765.637L1461.38 800.984Z" fill="#D4D4D4"/>
<path d="M1487 780.691L1449.38 786.239L1487 780.691Z" fill="#D4D4D4"/>
<path d="M1470.99 801.456L1465.06 765.316L1470.99 801.456Z" fill="#D4D4D4"/>
<path d="M1430.97 698.271L1444.57 695.418C1444.57 695.418 1446.65 695.101 1444.25 693.516C1439.61 684.481 1430.81 690.029 1430.81 690.029C1430.81 690.029 1428.56 690.822 1428.56 695.418C1429.36 698.747 1430.97 698.271 1430.97 698.271Z" fill="#D4D4D4"/>
<rect x="-61" y="803" width="2621" height="9" fill="#C4C4C4"/>
<g clip-path="url(#clip5)">
<path d="M2488.39 657.458C2490 657.378 2491.84 659.453 2493.28 656.899C2493.76 656.101 2494.32 657.298 2494.88 657.298C2495.44 657.378 2496.8 657.777 2496.4 656.899C2495.84 655.463 2496.8 655.303 2497.44 654.744C2497.84 654.425 2498.32 653.946 2498 653.468C2497.6 652.909 2497.04 653.148 2496.56 653.547C2495.04 654.665 2493.36 654.904 2491.6 654.824C2491.12 654.824 2490.88 654.585 2490.64 654.106C2490.16 653.148 2491.28 653.547 2491.44 652.989C2491.68 652.191 2492 652.909 2492.08 653.068C2492.56 653.946 2493.12 653.308 2493.04 652.989C2492.32 650.674 2498.16 649.318 2494 646.604C2494 646.524 2494.08 646.524 2494.08 646.445C2494.4 645.088 2497.6 644.05 2499.04 644.848C2500.96 643.332 2499.6 642.534 2498.24 642.374C2496.16 642.135 2495.92 640.858 2496.08 639.342C2496.16 638.464 2495.6 637.985 2495.2 638.224C2493.2 639.661 2491.92 637.506 2490.24 637.347C2489.36 636.947 2488.96 638.464 2488.07 637.905C2487.43 637.586 2486.47 637.666 2486.31 636.788C2486.23 636.469 2486.79 635.91 2487.19 635.591C2486.95 634.713 2486.87 634.473 2486.95 634.394C2487.03 634.234 2487.35 634.154 2487.51 633.995C2487.59 634.154 2487.75 634.394 2487.75 634.553C2487.75 634.713 2487.67 634.952 2487.51 635.431C2488.07 635.192 2488.55 635.75 2489.04 636.07C2489.36 636.309 2489.68 636.469 2490 636.628C2491.36 634.234 2492.96 634.234 2494.96 635.91C2495.6 636.469 2496.24 635.671 2496.88 635.272C2495.2 634.473 2492.16 634.713 2494.96 631.68C2496.24 630.244 2494.56 630.563 2493.84 630.483C2493.2 631.361 2492.56 631.84 2491.52 630.882C2492.08 630.563 2492.64 630.324 2493.2 630.084C2493.04 629.206 2493.76 629.366 2494.24 629.206C2495.12 628.967 2495.52 627.849 2494.8 627.61C2492.88 627.131 2492.72 626.094 2493.52 624.338C2492.96 624.577 2492.64 624.817 2492.48 624.737C2491.76 624.338 2491.04 626.652 2490.32 624.737C2489.68 623.061 2490.8 622.981 2492 622.901C2492.24 622.901 2492.72 622.502 2492.72 622.502C2491.76 620.826 2493.52 620.108 2494.16 618.831C2492 618.911 2490 618.831 2488.72 620.906C2488.39 621.385 2487.83 621.385 2487.35 621.146C2487.19 621.066 2487.19 620.507 2487.27 620.427C2488.8 619.39 2488.72 617.714 2489.04 616.198C2489.12 615.799 2489.6 615.24 2488.96 615.08C2488.64 615.001 2487.91 615.4 2487.75 615.799C2487.27 616.916 2486.71 617.874 2485.51 618.273C2485.27 618.592 2484.95 618.831 2484.71 619.151C2484.71 619.151 2484.47 618.991 2484.31 618.911C2484.55 618.592 2484.87 618.273 2485.11 618.033C2484.31 617.794 2483.43 617.554 2482.63 617.315C2481.19 616.996 2481.11 615.16 2479.75 614.681C2480.95 613.325 2480.31 612.846 2478.87 613.085C2477.67 613.245 2477.75 611.329 2476.31 611.968C2474.71 612.686 2475.83 610.372 2474.63 610.132C2474.31 610.053 2474.31 609.334 2474.87 608.776C2475.67 608.057 2476.63 606.302 2476.47 606.062C2474.15 603.668 2474.47 600.875 2474.95 597.922C2470.79 600.156 2470.79 600.156 2470.71 598.401C2470.23 598.88 2469.83 599.358 2469.43 599.757C2468.79 599.279 2469.83 597.603 2468.07 598.081C2467.27 599.598 2466.63 598.481 2465.99 598.401C2465.34 599.438 2464.78 599.438 2463.98 598.481C2463.74 598.241 2463.26 598.161 2462.86 598.081C2462.62 598.321 2462.38 598.56 2462.14 598.8C2461.1 599.757 2462.22 600.795 2462.46 601.354C2463.1 603.109 2461.02 603.748 2461.42 605.184C2461.74 605.504 2462.14 605.903 2461.74 606.222C2461.58 606.381 2461.02 606.062 2460.62 605.982C2459.18 605.424 2457.42 606.78 2456.22 605.184C2455.58 606.381 2456.54 607.259 2456.38 608.377C2455.74 608.137 2454.94 607.419 2454.46 607.978C2453.98 608.616 2454.94 609.175 2455.42 609.574C2455.98 610.053 2456.06 611.17 2457.18 611.01C2457.26 611.01 2457.42 611.489 2457.58 611.728C2456.46 612.287 2455.18 612.527 2454.06 611.968C2452.62 611.329 2454.62 610.93 2454.3 610.132C2452.46 610.292 2450.54 610.372 2448.62 610.531C2448.06 610.691 2447.42 610.851 2446.86 610.93C2446.86 610.93 2446.86 610.93 2446.86 611.01C2446.86 611.01 2446.86 611.01 2446.78 611.01C2447.02 612.367 2446.14 612.846 2445.1 613.165C2444.86 613.245 2444.54 612.846 2444.3 612.606C2445.26 612.287 2445.26 610.452 2446.78 611.01C2446.78 611.01 2446.78 611.01 2446.86 611.01C2446.7 610.452 2447.26 610.212 2447.5 609.893C2448.14 609.574 2448.86 609.254 2449.5 608.935C2449.9 608.696 2450.3 608.057 2449.66 608.057C2445.02 608.217 2448.46 605.583 2448.14 604.147C2447.74 604.067 2447.26 604.306 2446.7 604.386C2445.5 604.705 2443.58 605.743 2443.66 602.95C2443.42 602.87 2443.09 602.71 2442.85 602.63C2442.21 602.551 2442.21 602.231 2442.05 601.673C2441.65 600.316 2440.53 599.199 2439.33 598.88C2438.45 598.72 2436.69 599.199 2437.41 601.194C2437.57 601.753 2436.93 602.471 2436.05 601.832C2435.89 601.912 2435.81 602.072 2435.65 602.152C2434.29 605.025 2432.77 602.551 2431.25 602.311C2430.77 603.349 2431.73 605.184 2429.49 605.105C2429.65 605.743 2429.81 606.381 2429.97 607.02C2429.81 607.179 2429.73 607.419 2429.57 607.579C2429.41 607.259 2429.33 606.94 2429.17 606.621C2429.01 606.381 2428.93 606.142 2428.77 605.903C2428.53 606.062 2428.13 606.142 2428.05 606.302C2427.57 607.818 2427.89 610.372 2424.93 608.377C2424.37 607.978 2424.37 608.536 2424.45 609.095C2424.61 611.09 2425.01 613.325 2424.53 614.921C2423.49 618.273 2426.61 619.31 2427.33 621.545C2427.41 621.864 2428.69 621.704 2427.97 622.582C2427.49 623.141 2427.01 622.662 2426.53 622.423C2424.93 621.625 2423.49 620.507 2421.57 620.587C2421.57 620.587 2421.57 620.587 2421.65 620.587C2421.65 620.587 2421.65 620.587 2421.57 620.587C2421.57 621.146 2421.33 621.545 2420.53 621.625C2420.53 620.826 2420.93 620.587 2421.57 620.587C2420.04 620.507 2419.32 619.31 2418.44 618.273C2417.88 617.634 2417.32 618.432 2417.48 618.672C2418.6 619.789 2416.92 620.587 2417.24 621.784C2417.64 622.981 2416.6 624.099 2414.92 623.38C2414.44 623.221 2413.64 622.582 2413.32 623.38C2413.16 623.62 2413.96 624.338 2414.28 624.817C2414.84 625.455 2415.32 626.174 2415.88 626.812C2416.28 627.131 2417.08 626.812 2417.08 627.61C2417.08 627.77 2416.92 627.929 2416.84 628.089C2416.52 627.849 2416.2 627.61 2415.8 627.371C2414.84 627.051 2414.52 626.094 2413.96 625.455C2412.04 626.253 2410.68 624.737 2409 624.338C2409 625.056 2409 625.854 2409.08 626.573C2409.4 626.732 2409.8 626.892 2410.12 627.051C2411 626.732 2411.8 626.573 2412.36 627.53C2413.48 628.488 2414.92 630.403 2415.72 630.164C2417.8 629.525 2417.64 630.882 2418.04 631.92C2418.2 631.999 2418.36 632.159 2418.52 632.239C2419.24 632.398 2420.2 632.319 2420.12 633.356C2420.12 633.675 2419.08 634.154 2419.08 634.154C2418.6 633.596 2417.4 633.436 2417.88 632.239C2417 632.877 2415.96 632.798 2415.32 632.319C2413.72 630.962 2412.36 629.605 2412.12 633.197C2412.84 633.117 2413.56 632.558 2414.12 633.516C2414.28 633.675 2414.36 633.835 2414.52 633.995C2414.12 634.074 2413.72 634.234 2413.4 634.314C2414.04 634.873 2414.68 635.431 2415.24 635.91C2415.64 635.591 2416.04 635.351 2417.08 634.633C2416.44 635.591 2416.2 635.91 2415.96 636.229C2416.44 637.107 2415.48 637.666 2415.48 638.464C2417.72 637.267 2417.72 637.187 2418.6 639.182C2418.84 639.821 2419.32 639.661 2419.4 639.501C2420.36 638.304 2421.41 638.783 2422.45 639.262C2422.69 638.943 2422.85 638.703 2423.09 638.304C2423.57 638.863 2423.17 639.262 2422.85 639.581C2421.49 640.299 2419.88 641.896 2418.84 641.576C2416.68 640.938 2414.68 639.422 2412.76 638.065C2412.28 637.746 2411.64 637.107 2411.24 637.506C2410.76 637.985 2411.48 638.464 2411.88 638.783C2412.44 639.182 2412.6 639.581 2411.88 639.9C2412.04 640.379 2411 640.459 2411.56 641.018C2412.44 640.619 2412.6 641.496 2413.08 641.816C2414.04 642.374 2413 643.013 2413.08 643.571C2413.16 644.769 2413.48 645.088 2414.52 644.449C2415.08 644.609 2415.64 644.689 2416.2 644.848C2417.48 644.848 2416.52 645.567 2416.52 645.886C2417.24 645.806 2417.96 645.726 2418.76 645.567C2418.04 646.445 2417.48 647.163 2416.6 648.2C2417.08 647.961 2417.24 647.801 2417.4 647.801C2418.04 647.721 2418.44 646.764 2419.16 647.322C2419.4 647.562 2419.64 648.2 2419.56 648.44C2419.16 649.158 2418.52 648.759 2417.88 648.679C2417.24 648.599 2416.76 649.158 2417 649.876C2417.08 650.116 2418.12 649.717 2417.56 650.515C2417.24 650.994 2416.76 650.594 2416.36 650.515C2414.6 650.195 2412.84 649.956 2410.76 649.557C2411.88 650.914 2412.84 651.712 2413.64 652.669C2414.28 653.468 2414.6 653.148 2414.12 653.946C2413.96 654.266 2414.04 654.824 2414.04 655.223C2416.04 654.505 2415.88 659.214 2418.68 656.66C2415.64 659.932 2415.32 661.847 2417.72 662.725C2416.68 663.284 2415.88 664.002 2414.6 663.922C2413.32 664.241 2413.16 664.96 2413.88 665.838C2414.92 665.758 2415.96 665.758 2416.76 666.795C2415.96 667.354 2415.4 666.556 2414.76 666.636C2414.28 668.471 2412.84 669.429 2410.68 670.307C2413.48 670.546 2415.16 668.711 2417.32 669.11C2418.92 669.429 2420.36 669.748 2421.97 668.551C2423.01 667.753 2424.61 667.833 2425.65 669.11C2425.25 667.833 2426.29 667.833 2427.09 667.434C2428.05 666.955 2428.05 668.152 2428.77 668.152C2429.09 668.152 2428.77 668.711 2428.53 668.79C2427.65 669.03 2427.01 670.786 2425.81 669.269C2425.97 670.466 2424.69 670.865 2424.29 671.823C2424.37 672.063 2424.45 672.302 2424.61 672.621H2426.05C2425.25 673.18 2424.69 673.499 2424.21 673.818V673.978C2424.29 675.255 2423.41 674.138 2423.09 674.457H2422.93H2422.77C2422.37 674.616 2421.97 674.776 2421.65 674.936C2421.49 675.175 2421.41 675.414 2421.25 675.654C2421.25 676.372 2423.01 676.213 2422.29 676.771C2421.25 677.649 2419.88 676.851 2418.68 676.452C2418.28 676.292 2418.2 675.414 2417.4 675.813C2417.08 676.372 2416.6 676.771 2415.88 676.771C2415.4 677.09 2414.28 676.771 2414.6 677.729C2414.92 678.607 2415.88 678.447 2416.68 678.367C2418.04 678.128 2419.16 677.489 2420.69 678.208C2422.37 679.086 2420.53 681.001 2422.13 681.799C2422.37 681.4 2422.13 680.522 2423.25 680.841C2423.73 681.001 2424.77 680.522 2424.85 679.644C2424.93 679.006 2425.25 678.607 2425.73 678.288C2425.97 678.687 2426.21 679.165 2426.53 679.564C2427.81 678.048 2428.37 675.494 2431.01 676.213C2432.53 676.612 2431.81 678.208 2431.73 679.405C2432.29 679.405 2432.77 679.405 2433.33 679.405C2434.53 677.968 2434.53 679.405 2434.93 680.043C2435.41 680.283 2435.89 680.442 2436.45 680.682C2436.77 680.442 2437.33 680.362 2437.49 680.043C2437.73 679.564 2437.81 679.485 2438.37 679.724C2438.93 679.963 2438.85 680.442 2438.85 680.841C2438.77 681.48 2438.29 681.4 2437.89 681.32C2437.41 681.24 2436.93 681.161 2436.45 681.001C2436.45 681.081 2436.45 681.24 2436.45 681.32C2436.85 682.038 2437.57 681.56 2438.13 681.799C2439.97 682.437 2439.01 684.433 2438.69 684.672C2437.09 685.71 2436.53 688.583 2433.97 687.944C2433.09 687.705 2432.13 687.545 2431.25 687.386C2430.61 688.503 2429.81 689.061 2428.69 687.864C2427.65 687.625 2427.33 688.503 2426.69 689.061C2428.21 689.54 2429.17 690.977 2430.21 691.456C2433.01 692.812 2430.29 694.329 2430.77 695.606C2431.81 694.808 2432.69 693.77 2434.93 694.967C2432.93 694.887 2432.69 696.164 2431.73 696.563C2431.73 696.643 2431.73 696.803 2431.73 696.883C2432.05 696.962 2432.45 696.962 2432.77 697.122C2435.33 697.92 2439.09 696.803 2439.25 701.352C2439.25 702.15 2439.25 702.788 2438.45 703.187C2440.13 706.3 2439.17 709.652 2439.33 712.924C2439.41 714.919 2440.21 717.074 2438.61 718.909C2438.45 719.548 2439.49 719.867 2439.01 720.505C2439.17 720.904 2439.25 721.303 2439.41 721.703C2439.09 722.022 2438.77 722.421 2438.45 722.74C2438.53 722.82 2438.61 722.979 2438.69 723.059C2439.81 723.777 2440.29 724.735 2439.25 725.852C2438.13 726.97 2440.21 728.167 2439.01 729.204C2438.93 729.284 2438.93 729.364 2438.93 729.444C2440.45 730.561 2440.69 731.599 2438.77 732.556C2438.69 733.354 2438.45 734.152 2439.01 734.871C2439.33 734.791 2439.73 734.791 2439.65 735.19C2439.57 735.509 2439.25 735.669 2439.01 735.988C2439.09 737.903 2439.57 739.899 2439.33 741.734C2438.69 745.804 2439.01 749.874 2439.09 753.945C2439.17 757.376 2439.17 760.888 2439.17 764.319C2439.09 772.619 2438.61 780.919 2438.61 789.219C2438.53 796.242 2439.33 803.265 2437.73 810.208C2437.41 811.725 2437.81 812.443 2438.93 812.842C2440.69 813.401 2442.45 813.321 2443.98 812.204C2445.34 811.166 2443.98 810.049 2443.66 809.011C2443.26 807.734 2442.69 806.378 2442.61 805.021C2442.21 796.801 2442.45 788.501 2442.21 780.201C2442.05 774.295 2442.21 768.31 2442.45 762.324C2442.77 754.104 2442.13 745.804 2442.37 737.504C2442.45 732.716 2441.81 727.848 2442.61 723.059C2442.61 722.82 2442.61 722.501 2442.61 722.261C2442.45 717.233 2442.29 712.285 2442.21 707.257C2442.21 703.586 2442.45 699.995 2442.53 696.324C2442.61 694.887 2443.18 694.887 2444.14 695.685C2445.18 696.483 2446.3 697.282 2447.34 698.08C2448.22 698.798 2449.1 698.319 2449.5 697.84C2449.9 697.361 2449.02 696.962 2448.46 696.643C2446.54 695.606 2444.94 694.249 2443.42 692.653C2445.34 692.094 2447.98 692.653 2447.5 689.301C2446.54 689.54 2445.58 689.86 2444.54 690.099C2444.46 689.939 2444.38 689.78 2444.38 689.7C2445.42 689.221 2446.54 688.662 2447.58 688.184C2448.7 688.822 2449.5 688.662 2450.06 687.386C2450.46 686.508 2451.02 687.226 2451.34 687.705C2452.3 689.061 2452.86 690.817 2454.62 691.535C2454.94 691.695 2455.1 692.653 2455.66 692.334C2456.3 691.934 2456.78 691.136 2457.26 690.498C2457.34 690.418 2456.54 689.86 2456.14 689.46C2456.7 689.141 2457.26 688.742 2457.82 688.662C2458.46 688.583 2458.38 689.78 2459.42 689.54C2460.46 689.381 2461.66 689.78 2462.7 690.099C2462.94 690.179 2463.02 691.057 2462.94 691.535C2462.94 691.934 2462.54 691.855 2462.22 691.695C2461.26 691.296 2461.18 691.855 2461.1 692.653C2460.86 694.089 2461.74 693.69 2462.46 693.61C2462.62 693.371 2462.7 693.132 2462.86 692.812C2462.86 693.052 2462.86 693.371 2462.86 693.61C2463.18 694.169 2463.82 694.568 2463.02 695.446C2462.62 695.925 2462.22 696.404 2461.74 696.164C2458.78 694.648 2456.3 696.084 2453.74 697.441C2453.1 698.399 2452.46 697.521 2451.82 697.361C2451.5 697.361 2451.02 697.521 2451.26 697.84C2451.98 698.558 2452.86 699.197 2453.74 699.756C2453.82 699.835 2455.02 699.516 2455.26 698.718C2456.06 695.446 2457.58 699.197 2458.86 698.479C2459.5 698.08 2458.86 699.596 2459.5 699.995C2458.3 701.192 2459.58 701.91 2459.98 702.788C2460.22 702.629 2460.38 702.549 2460.62 702.389C2460.86 702.07 2461.02 701.511 2461.58 701.99C2461.98 702.15 2462.38 702.309 2462.78 702.469H2462.94C2463.66 702.389 2464.22 702.629 2464.54 703.267C2464.78 702.948 2465.1 702.708 2465.34 702.389C2465.82 702.469 2466.47 702.07 2466.87 702.788C2467.83 702.708 2469.11 702.788 2468.63 704.065C2468.39 704.863 2469.75 707.577 2467.03 706.38C2464.62 705.342 2462.62 706.3 2460.46 706.858C2460.22 706.779 2459.9 706.619 2459.66 706.539C2457.5 707.098 2455.74 707.896 2456.94 710.769C2457.58 710.131 2458.22 709.971 2459.26 709.971C2460.38 709.971 2462.7 711.168 2463.18 708.375C2463.34 707.497 2464.54 707.896 2465.26 707.896C2465.1 710.051 2466.87 709.093 2467.75 709.173C2469.11 709.253 2468.47 710.21 2468.71 710.769C2468.87 711.168 2469.11 712.205 2468.31 712.126C2465.34 711.886 2462.7 713.562 2459.82 713.323C2459.66 713.323 2459.5 713.323 2459.34 713.403C2459.42 713.802 2459.42 714.121 2458.86 714.121C2458.3 714.201 2458.14 713.802 2458.22 713.403C2456.54 713.802 2454.78 711.008 2453.18 713.562C2454.06 714.28 2456.14 713.323 2456.3 714.759C2456.54 716.914 2457.66 716.276 2458.78 716.036C2459.34 715.956 2460.06 715.637 2460.54 716.196C2461.66 717.553 2462.62 717.233 2463.5 715.956C2463.34 715.398 2462.22 715.478 2462.54 714.6C2462.62 714.36 2463.18 714.201 2463.5 714.201C2464.62 714.36 2464.14 715.318 2464.22 715.956C2464.86 716.196 2465.5 716.515 2466.15 715.797C2466.71 716.515 2468.47 713.881 2468.39 716.675C2468.31 718.351 2466.95 716.914 2466.55 717.872C2467.11 718.67 2467.75 719.548 2468.31 720.426C2468.47 720.745 2468.55 721.144 2468.63 721.463C2468.31 721.463 2467.99 721.623 2467.75 721.543C2466.15 721.224 2464.54 720.745 2462.86 720.426C2462.7 720.027 2462.54 719.707 2462.38 719.308C2460.86 719.228 2458.86 718.75 2458.3 720.186C2457.9 721.144 2459.98 721.623 2461.18 721.942C2462.22 721.064 2462.7 721.543 2462.86 722.66C2463.74 723.618 2465.18 721.543 2465.91 723.219C2467.19 722.421 2468.31 723.219 2468.07 724.256C2467.75 725.613 2466.31 725.054 2465.26 724.735C2464.94 724.576 2464.3 724.256 2464.14 724.815C2464.06 725.294 2464.7 725.533 2465.02 725.852C2466.15 726.97 2468.63 726.172 2468.63 728.486C2468.63 733.115 2468.47 737.664 2468.47 742.293C2468.47 743.011 2467.91 743.57 2467.51 743.41C2465.42 742.532 2463.74 745.086 2461.66 743.889C2461.26 744.448 2460.78 745.006 2460.38 745.565C2461.02 746.602 2462.62 745.645 2463.1 746.842C2463.26 747.321 2463.98 748.438 2463.18 748.597C2462.22 748.837 2461.34 750.194 2460.06 749.316C2459.26 748.757 2458.38 748.278 2457.5 749.316C2457.34 749.555 2457.18 749.874 2457.1 750.114C2457.74 750.752 2458.94 750.194 2459.42 751.231C2460.06 751.391 2460.78 751.391 2461.18 752.189C2460.86 752.109 2460.54 752.109 2460.22 752.029C2459.1 752.827 2457.82 751.311 2456.78 752.348C2456.78 752.508 2456.78 752.668 2456.78 752.747C2457.42 752.747 2458.38 752.348 2458.06 753.705C2457.66 755.221 2458.7 754.663 2459.42 754.583C2459.82 754.423 2460.3 754.344 2460.7 754.184C2461.34 754.104 2461.5 752.508 2462.46 753.705C2463.5 754.583 2464.54 755.461 2465.5 756.419C2466.79 756.498 2466.79 756.498 2466.23 753.865C2465.91 753.785 2465.58 753.625 2464.54 753.386C2465.82 753.466 2466.39 752.668 2467.03 753.466C2467.43 753.226 2467.99 753.226 2468.07 753.705C2468.23 754.822 2468.63 755.94 2467.83 756.977C2467.51 757.456 2467.03 757.935 2466.71 758.414C2467.75 758.414 2468.23 758.733 2468.15 759.93C2468.07 762.005 2468.39 764 2467.67 765.995C2467.67 766.235 2467.75 766.474 2467.75 766.714C2467.83 767.831 2468.31 769.028 2467.75 770.145C2467.59 771.342 2467.51 772.46 2467.35 773.657C2468.15 782.835 2466.95 792.012 2467.99 801.11C2468.31 803.984 2467.91 806.777 2466.55 809.331C2466.23 809.969 2466.15 810.767 2466.79 811.007C2467.67 811.246 2467.99 812.842 2469.27 811.964C2470.79 810.927 2472.55 810.847 2474.39 810.847C2474.87 810.847 2475.59 811.086 2475.75 810.448C2475.83 810.049 2475.51 809.41 2475.19 809.171C2473.27 808.133 2472.79 805.899 2472.55 804.383C2471.75 800.073 2471.51 795.604 2471.75 791.214C2471.83 788.661 2472.07 786.107 2471.83 783.553C2471.11 775.173 2471.75 766.714 2471.59 758.334C2471.59 757.855 2471.59 757.376 2472.31 757.456C2472.71 757.456 2473.03 757.456 2473.43 757.456C2474.31 757.456 2475.19 757.376 2474.23 756.179C2473.91 755.78 2473.59 755.301 2474.47 755.221C2475.03 754.982 2475.51 754.663 2476.07 755.142C2476.47 755.142 2477.03 755.381 2477.19 754.822C2477.35 754.344 2477.19 753.945 2476.63 753.625C2475.35 752.747 2474.39 753.945 2473.27 753.945C2472.55 753.945 2472.07 755.301 2471.59 754.423C2471.19 753.625 2471.27 752.508 2471.67 751.55C2472.07 750.593 2473.19 751.63 2473.59 750.752C2473.03 749.954 2470.87 750.273 2471.83 748.438C2471.83 747.959 2471.19 747.4 2471.91 747.161C2472.87 746.842 2473.83 747.081 2474.79 747.56C2475.03 747.72 2475.35 747.64 2475.67 747.72C2475.59 745.804 2479.19 748.997 2478.23 745.884C2478.95 746.123 2479.27 745.884 2479.19 745.086C2479.03 743.969 2477.83 743.889 2477.35 743.969C2475.11 744.128 2476.31 743.25 2476.79 742.532C2476.15 742.452 2475.59 742.373 2474.95 742.213C2475.19 741.894 2475.43 741.574 2475.67 741.255C2475.27 741.096 2474.87 740.936 2474.47 740.856C2474.07 740.856 2473.59 740.856 2473.51 740.218C2474.31 740.138 2475.19 740.298 2475.75 739.499C2474.39 739.26 2472.95 737.025 2471.83 740.936C2471.43 736.866 2471.91 733.753 2471.59 730.721C2471.35 728.087 2472.47 727.369 2474.47 726.571C2475.67 726.092 2476.31 728.007 2477.51 726.81C2478.23 726.092 2479.27 725.693 2480.47 726.092C2481.35 726.411 2481.83 725.533 2482.07 724.895C2482.23 724.576 2482.55 723.937 2481.83 723.857C2481.11 723.698 2479.91 723.777 2480.15 722.9C2480.31 722.261 2481.67 722.102 2482.63 722.501C2483.19 722.74 2483.43 722.421 2483.67 722.022C2483.67 721.623 2483.67 721.144 2483.67 720.745C2483.35 720.665 2482.71 720.665 2482.71 720.585C2482.55 719.707 2483.67 720.346 2483.75 719.707C2482.63 719.468 2481.67 718.271 2480.31 718.989C2480.55 720.505 2479.51 720.904 2478.39 721.224C2478.15 721.383 2477.91 721.543 2477.75 721.703C2477.67 721.463 2477.51 721.303 2477.43 721.064C2477.67 721.064 2477.83 720.984 2478.07 720.984C2478.07 720.585 2478.07 720.106 2478.07 719.707C2477.83 719.707 2477.51 719.707 2477.27 719.707C2475.67 719.787 2476.95 718.51 2476.55 717.952C2476.95 718.271 2477.35 718.67 2477.75 718.989C2477.83 718.829 2477.91 718.75 2478.07 718.59C2478.07 718.111 2478.07 717.553 2478.15 717.074C2480.31 715.877 2476.55 715.238 2477.83 714.041C2477.43 713.802 2477.11 713.323 2476.71 713.403C2475.67 713.482 2475.19 714.36 2474.47 714.919C2473.83 715.398 2473.19 716.036 2472.31 715.717C2471.27 715.318 2471.67 714.44 2471.67 713.722C2471.59 711.008 2471.59 708.215 2471.75 705.502C2471.91 702.15 2474.39 700.633 2477.67 701.91C2480.15 702.15 2478.23 703.347 2478.15 704.065C2478.47 704.863 2478.63 705.981 2479.59 705.981C2480.15 705.981 2481.03 705.182 2481.27 704.544C2481.91 702.868 2480.71 701.751 2479.59 700.633C2478.95 700.234 2477.99 700.155 2478.07 699.117C2478.63 698.878 2479.19 698.638 2479.67 698.399C2478.15 697.361 2476.07 698.399 2474.63 696.883C2474.31 696.723 2473.99 696.643 2473.59 696.483C2472.95 696.164 2472.87 695.685 2473.03 695.047C2474.39 693.451 2475.91 693.85 2477.51 694.648C2478.47 695.127 2479.59 695.446 2480.71 695.765C2480.71 695.606 2480.79 695.366 2480.79 695.207C2480.63 694.488 2482.55 694.089 2481.19 693.132C2482.15 692.653 2482.63 691.216 2483.99 691.535C2484.71 691.695 2483.75 693.531 2485.11 692.972C2485.67 692.733 2484.55 691.535 2485.35 690.817C2485.43 690.737 2485.59 690.737 2485.67 690.658C2485.91 690.338 2486.15 690.019 2486.39 689.7C2486.15 689.381 2485.91 689.141 2485.67 688.822C2485.51 688.662 2485.43 688.583 2485.27 688.423C2483.83 687.785 2482.47 686.667 2480.71 686.907C2478.47 687.226 2476.23 687.226 2474.07 687.785C2472.79 688.104 2470.87 687.864 2471.67 685.47C2471.83 685.231 2471.91 684.911 2472.07 684.672C2471.51 683.236 2473.19 681.639 2471.83 680.123C2471.75 680.043 2472.47 679.963 2472.95 680.043C2474.39 680.283 2475.19 681.48 2476.63 682.198C2476.31 681.161 2475.99 680.362 2475.91 679.485C2475.91 679.165 2475.27 678.527 2476.07 678.288C2476.55 678.048 2477.11 677.809 2477.59 678.367C2478.95 680.123 2480.87 679.485 2482.63 679.485C2482.79 679.405 2482.95 679.245 2483.03 679.165C2482.31 678.447 2483.03 678.447 2483.43 678.288C2483.43 678.048 2483.43 677.809 2483.43 677.569C2482.55 677.25 2481.83 676.292 2480.71 676.532C2479.19 676.851 2478.47 676.292 2478.47 674.537C2478.55 673.26 2479.43 671.424 2477.43 670.786C2476.47 670.466 2475.35 670.626 2474.31 670.626C2473.27 671.185 2472.39 671.105 2472.07 669.748C2470.63 668.072 2471.35 666.396 2471.99 664.641C2472.79 663.683 2472.87 664.401 2473.11 665.04C2473.83 666.476 2474.47 665.439 2474.47 664.8C2474.55 664.002 2474.71 663.763 2475.43 663.922C2476.79 664.241 2478.47 665.598 2478.95 662.885C2479.27 662.965 2479.67 663.044 2479.99 663.124C2480.31 663.364 2480.71 663.603 2481.03 663.842C2482.23 663.364 2482.39 660.81 2484.55 662.326C2485.03 662.725 2485.75 662.166 2484.95 661.528C2483.51 660.331 2484.31 658.974 2484.55 657.697C2484.63 657.378 2484.79 656.5 2485.51 657.139C2486.63 658.256 2487.51 657.378 2488.39 656.819C2488.07 656.261 2488.23 656.819 2488.39 657.458ZM2487.03 628.727C2486.79 628.568 2486.71 628.488 2486.55 628.408C2486.71 628.169 2486.87 627.929 2487.11 627.77C2487.11 627.77 2487.35 627.929 2487.51 628.009C2487.35 628.169 2487.19 628.408 2487.03 628.727ZM2487.19 625.056C2488.07 625.056 2488.07 624.178 2488.72 623.62C2489.04 625.056 2488.47 625.615 2487.19 625.695C2486.95 625.854 2486.79 626.014 2486.55 626.174C2486.39 625.615 2486.71 625.296 2487.19 625.056ZM2420.77 637.666C2420.53 637.586 2420.28 637.426 2419.96 637.267C2420.04 637.107 2420.2 636.868 2420.2 636.868C2420.53 636.947 2420.77 637.107 2421.17 637.187C2421.01 637.426 2420.85 637.666 2420.77 637.666ZM2422.37 623.221C2422.13 622.822 2422.05 622.582 2421.89 622.343C2421.89 622.263 2422.05 622.183 2422.13 622.024C2422.29 622.263 2422.53 622.502 2422.61 622.742C2422.77 622.822 2422.53 622.981 2422.37 623.221ZM2418.92 660.81C2418.68 660.81 2418.52 660.73 2418.28 660.65C2418.44 660.491 2418.6 660.251 2418.76 660.171C2418.84 660.092 2419 660.331 2419.32 660.411C2419.16 660.65 2419 660.81 2418.92 660.81ZM2420.61 660.331C2420.04 660.092 2419.4 659.613 2419.16 658.974C2419 658.655 2419.64 658.176 2420.2 658.176C2420.77 658.575 2421.73 658.416 2421.81 659.293C2421.81 660.012 2420.77 660.411 2420.61 660.331ZM2438.21 664.162C2438.21 664.162 2438.29 664.241 2438.29 664.321C2438.21 664.401 2438.13 664.481 2438.05 664.481C2438.05 664.401 2437.97 664.401 2437.97 664.321C2438.05 664.241 2438.13 664.241 2438.21 664.162ZM2437.65 627.849C2437.73 627.929 2437.81 628.009 2437.81 628.089C2437.81 628.169 2437.73 628.328 2437.65 628.328C2437.57 628.328 2437.49 628.169 2437.41 628.169C2437.49 628.009 2437.57 627.929 2437.65 627.849ZM2435.65 663.204C2435.81 663.284 2435.97 663.443 2436.13 663.603C2436.13 663.603 2435.97 663.842 2435.73 664.082C2435.57 663.842 2435.41 663.683 2435.33 663.523C2435.33 663.364 2435.57 663.124 2435.65 663.204ZM2431.73 657.697C2432.13 657.538 2432.69 657.857 2433.33 658.017C2432.69 659.214 2431.49 658.894 2430.69 659.533C2430.13 660.012 2429.57 659.214 2429.65 658.894C2429.89 657.857 2431.01 658.017 2431.73 657.697ZM2430.69 650.036C2431.33 649.238 2431.97 648.919 2432.69 649.238C2433.09 649.397 2432.93 649.956 2432.69 650.195C2431.97 650.994 2431.41 650.275 2430.69 650.036ZM2432.13 656.341H2433.73C2433.33 657.139 2432.85 657.059 2432.13 656.341ZM2432.69 633.356C2432.77 633.356 2432.93 633.516 2433.25 633.675C2432.93 633.835 2432.69 633.995 2432.53 633.995C2432.45 633.995 2432.29 633.835 2432.13 633.675C2432.29 633.516 2432.45 633.356 2432.69 633.356ZM2430.77 608.137C2430.93 608.057 2431.17 608.297 2431.57 608.456C2431.17 608.696 2431.01 608.935 2430.77 608.935C2430.61 608.935 2430.45 608.776 2430.21 608.616C2430.45 608.456 2430.61 608.217 2430.77 608.137ZM2430.45 631.92C2430.53 631.999 2430.61 632.079 2430.69 632.159C2430.61 632.239 2430.53 632.319 2430.45 632.319L2430.29 632.239C2430.37 632.079 2430.45 631.999 2430.45 631.92ZM2430.21 638.384C2430.37 638.783 2430.61 639.102 2430.61 639.501C2430.61 639.661 2430.21 639.98 2430.05 639.98C2429.73 639.9 2429.49 639.661 2429.17 639.501C2429.41 639.262 2429.57 639.022 2430.21 638.384ZM2423.49 623.3C2423.81 623.939 2424.05 624.178 2424.13 624.498C2424.13 624.577 2423.89 624.817 2423.81 624.976C2423.57 624.817 2423.33 624.657 2423.17 624.418C2423.09 624.258 2423.25 624.019 2423.49 623.3ZM2426.45 655.463C2426.29 655.463 2426.21 655.223 2426.13 655.064C2426.29 654.904 2426.37 654.824 2426.53 654.744C2426.61 654.904 2426.77 655.064 2426.85 655.223C2426.85 655.303 2426.53 655.543 2426.45 655.463ZM2423.17 636.628C2424.85 636.788 2426.13 635.032 2428.05 635.75C2426.69 638.224 2424.93 637.107 2423.17 636.628ZM2428.85 649.397C2428.85 648.44 2427.81 648.041 2427.65 647.163C2427.65 647.003 2428.13 646.684 2428.37 646.445C2429.01 647.243 2430.21 646.764 2431.09 647.243C2430.61 648.599 2429.81 649.078 2428.85 649.397ZM2438.61 670.865C2438.77 671.743 2437.65 671.264 2437.17 671.584C2437.49 671.743 2437.81 671.823 2438.37 671.983C2436.77 672.861 2435.57 672.621 2434.93 670.945C2434.77 670.865 2434.61 670.706 2434.53 670.626C2433.17 670.307 2433.33 671.823 2432.53 672.142C2433.01 672.462 2433.57 672.781 2434.21 673.18C2432.77 673.898 2432.21 673.659 2432.53 672.142C2431.01 673.1 2429.49 673.739 2427.65 672.94C2427.25 672.621 2426.61 672.462 2426.69 671.743C2427.01 671.823 2427.33 671.823 2427.73 671.903C2427.97 671.584 2428.21 671.344 2428.45 671.025C2428.29 670.865 2428.21 670.786 2428.05 670.626C2428.29 669.269 2430.21 669.748 2430.45 668.391C2430.21 667.992 2429.73 667.673 2429.97 667.115C2430.05 666.955 2430.21 666.955 2430.37 666.875C2430.45 667.274 2430.61 667.593 2430.69 667.992C2431.57 667.753 2433.01 668.232 2432.85 666.316C2432.77 665.598 2434.13 665.838 2434.85 665.838C2435.73 665.838 2436.61 666.237 2437.49 666.476C2437.65 666.476 2437.81 666.476 2437.97 666.476C2439.41 667.753 2438.45 669.429 2438.61 670.865ZM2436.05 688.024C2436.21 687.705 2436.53 687.465 2436.85 687.306C2436.93 687.226 2437.25 687.705 2437.41 687.864C2437.17 688.104 2436.85 688.343 2436.69 688.503C2436.21 688.503 2435.89 688.423 2436.05 688.024ZM2438.29 697.84C2437.25 697.76 2437.01 696.962 2436.85 696.164C2436.77 695.765 2436.77 695.207 2437.57 695.127C2439.25 694.967 2438.37 696.404 2439.01 696.962C2439.01 697.521 2439.01 697.92 2438.29 697.84ZM2467.43 748.039C2466.95 749.156 2465.91 748.438 2465.18 748.677C2464.7 749.076 2464.46 750.273 2463.58 749.555C2462.7 748.757 2464.14 748.278 2464.14 747.56C2464.7 746.682 2465.26 746.123 2466.31 746.922C2467.51 746.443 2467.59 747.161 2467.43 748.039ZM2467.75 652.111C2467.83 652.27 2467.91 652.35 2468.07 652.59C2467.91 652.749 2467.75 652.829 2467.59 652.909C2467.51 652.749 2467.35 652.59 2467.35 652.43C2467.43 652.35 2467.59 652.27 2467.75 652.111ZM2468.31 671.584C2467.75 671.664 2467.59 671.743 2467.43 671.743C2467.27 671.664 2467.27 671.504 2467.19 671.344C2467.27 671.264 2467.43 671.185 2467.51 671.264C2467.75 671.264 2467.91 671.344 2468.31 671.584ZM2461.74 612.686C2461.9 612.926 2462.06 613.005 2462.14 613.165C2462.06 613.245 2461.9 613.404 2461.82 613.404C2461.74 613.404 2461.58 613.245 2461.58 613.165C2461.58 613.085 2461.66 612.926 2461.74 612.686ZM2460.94 608.377C2461.26 608.456 2461.66 608.855 2461.66 609.095C2461.66 609.654 2461.1 609.494 2460.78 609.334C2460.46 609.175 2459.98 609.334 2459.98 608.616C2460.3 608.536 2460.7 608.297 2460.94 608.377ZM2461.26 614.921C2461.1 615.08 2460.94 615.24 2460.86 615.24C2460.78 615.24 2460.62 615.08 2460.46 615.001C2460.54 614.921 2460.62 614.681 2460.78 614.681C2460.86 614.681 2461.02 614.841 2461.26 614.921ZM2460.14 637.586C2460.3 637.666 2460.46 637.825 2460.62 637.905C2460.54 638.065 2460.38 638.145 2460.06 638.544C2459.98 638.304 2459.82 638.145 2459.82 637.985C2459.9 637.905 2460.06 637.746 2460.14 637.586ZM2459.74 646.844C2460.3 646.844 2460.38 647.482 2460.22 648.041C2459.74 649.557 2458.46 649.078 2457.26 649.078C2457.9 647.961 2458.46 646.923 2459.74 646.844ZM2459.18 645.646C2459.18 646.604 2458.38 646.604 2457.9 646.365C2457.5 646.125 2457.42 645.407 2457.98 644.928C2458.46 645.008 2458.94 645.088 2459.18 645.646ZM2458.46 624.577C2458.38 624.657 2458.38 624.817 2458.3 624.897C2458.22 624.817 2458.06 624.737 2457.98 624.737C2458.06 624.657 2458.14 624.498 2458.22 624.498C2458.22 624.418 2458.38 624.577 2458.46 624.577ZM2457.9 616.437C2457.98 616.437 2458.06 616.517 2458.14 616.597C2458.06 616.677 2457.98 616.756 2457.9 616.756C2457.82 616.756 2457.74 616.677 2457.66 616.597C2457.74 616.517 2457.82 616.437 2457.9 616.437ZM2456.86 615.08C2457.1 615.16 2457.26 615.24 2457.58 615.479C2457.34 615.639 2457.18 615.799 2457.02 615.719C2456.86 615.719 2456.7 615.559 2456.62 615.4C2456.62 615.4 2456.78 615.08 2456.86 615.08ZM2453.5 613.165C2453.66 613.165 2453.82 613.404 2454.06 613.484C2453.34 614.043 2453.18 615.24 2451.58 615.719C2452.38 614.522 2452.46 613.484 2453.5 613.165ZM2451.5 619.789C2451.42 619.23 2451.74 618.751 2452.22 618.911C2452.78 619.071 2453.66 619.789 2453.58 619.949C2453.26 620.826 2454.3 620.747 2454.3 621.226C2456.3 620.747 2455.98 622.183 2456.3 623.38C2456.86 625.296 2455.9 625.455 2454.62 626.333C2453.18 627.371 2452.22 626.892 2450.94 626.732C2450.62 626.732 2450.3 626.812 2450.22 626.413C2450.22 626.174 2450.22 625.934 2450.38 625.775C2452.3 624.019 2452.22 623.7 2449.58 622.502C2450.7 621.864 2451.9 621.305 2451.5 619.789ZM2453.9 636.947C2453.34 636.309 2452.46 635.83 2452.7 634.793C2452.7 634.713 2453.34 634.553 2453.58 634.713C2454.7 635.272 2453.74 636.149 2453.9 636.947ZM2454.3 643.651C2454.46 643.971 2455.34 643.492 2455.02 644.29C2454.86 644.769 2454.46 644.609 2454.14 644.29C2453.66 644.21 2452.78 644.449 2452.94 643.731C2453.02 643.332 2453.74 642.773 2454.3 643.651ZM2454.86 644.928C2454.94 644.848 2455.26 645.008 2455.74 645.168C2455.26 645.487 2455.1 645.646 2454.86 645.726C2454.78 645.806 2454.54 645.646 2454.38 645.567C2454.54 645.407 2454.62 645.088 2454.86 644.928ZM2455.58 635.591C2455.58 635.431 2455.82 635.272 2456.06 634.952C2456.22 635.351 2456.38 635.591 2456.38 635.75C2456.38 635.91 2456.06 636.07 2455.98 636.149C2455.74 635.99 2455.58 635.75 2455.58 635.591ZM2452.06 636.788C2451.98 636.868 2451.9 636.947 2451.82 636.947C2451.74 636.947 2451.66 636.788 2451.5 636.788C2451.58 636.708 2451.74 636.628 2451.82 636.548C2451.9 636.628 2451.98 636.708 2452.06 636.788ZM2449.9 643.811C2450.06 643.891 2450.22 644.05 2450.38 644.21C2450.14 644.529 2450.06 644.689 2449.9 644.848C2449.74 644.689 2449.5 644.529 2449.5 644.37C2449.58 644.21 2449.82 644.05 2449.9 643.811ZM2448.86 654.345C2449.5 654.026 2450.06 653.707 2451.02 653.308C2450.54 654.744 2449.1 654.106 2448.94 655.143C2448.54 656.021 2450.3 655.782 2449.66 656.261C2448.14 657.458 2447.26 655.702 2445.1 655.143C2446.94 654.744 2447.9 654.585 2448.86 654.345ZM2445.26 654.505C2444.22 654.824 2443.01 655.862 2442.21 654.824C2441.65 654.106 2443.82 653.547 2443.18 652.27C2444.3 652.35 2445.5 651.792 2446.46 652.59C2446.94 652.989 2447.34 653.308 2448.06 653.468C2447.1 653.867 2446.22 654.266 2445.26 654.505ZM2443.74 656.42C2443.18 656.819 2442.69 657.218 2441.73 657.937C2441.73 657.777 2441.57 657.538 2441.57 657.298C2441.65 656.42 2442.45 656.341 2443.01 656.021C2443.18 655.942 2443.5 656.261 2443.74 656.42ZM2443.98 649.238C2443.98 649.158 2444.06 649.078 2444.14 648.998C2444.22 649.078 2444.38 649.078 2444.46 649.158L2444.22 649.477C2444.14 649.397 2443.98 649.318 2443.98 649.238ZM2447.98 645.088C2447.1 645.646 2446.06 645.327 2445.1 645.008C2446.06 644.848 2446.94 644.769 2447.9 644.609C2447.9 644.609 2447.98 645.008 2447.98 645.088ZM2446.78 636.389C2446.38 637.746 2445.74 637.985 2444.94 637.666C2444.54 637.506 2443.5 637.347 2444.22 636.389C2444.94 637.027 2445.66 637.187 2446.78 636.389ZM2443.34 629.446C2443.18 629.286 2443.01 629.047 2442.93 628.807C2443.09 628.727 2443.42 628.488 2443.5 628.488C2443.74 628.648 2443.9 628.887 2444.22 629.286C2443.74 629.366 2443.42 629.525 2443.34 629.446ZM2444.46 624.897C2444.3 624.976 2444.06 625.216 2443.98 625.216C2443.82 625.056 2443.66 624.897 2443.58 624.657C2443.58 624.657 2443.82 624.498 2443.98 624.338C2444.14 624.577 2444.3 624.737 2444.46 624.897ZM2443.58 604.705C2443.74 604.785 2443.9 605.504 2443.82 605.903C2443.42 607.02 2442.61 605.743 2441.97 606.062C2442.53 605.583 2442.53 604.386 2443.58 604.705ZM2441.49 628.009C2441.65 628.009 2441.73 628.169 2441.97 628.249C2441.65 628.408 2441.49 628.568 2441.41 628.488C2441.25 628.488 2441.17 628.328 2441.09 628.169C2441.25 628.169 2441.41 628.009 2441.49 628.009ZM2440.13 643.013C2441.01 641.975 2441.09 640.938 2442.29 641.257C2442.61 641.337 2443.09 641.816 2443.09 641.816C2442.45 642.694 2441.49 642.614 2440.13 643.013ZM2443.18 643.013C2443.42 642.933 2443.58 642.933 2443.82 642.853C2443.98 643.412 2443.82 643.891 2443.26 644.21C2442.77 644.529 2442.61 645.567 2441.73 645.088C2441.49 644.928 2441.09 644.529 2441.09 644.529C2441.49 643.651 2442.13 643.093 2443.18 643.013ZM2441.81 665.997C2442.77 665.598 2443.82 666.476 2444.14 667.115C2444.86 668.391 2442.77 667.514 2442.77 668.471C2443.58 669.03 2444.46 669.589 2445.26 670.067C2445.74 670.387 2445.66 670.466 2445.42 671.025C2445.02 671.983 2443.42 672.222 2443.58 673.739C2443.58 674.138 2441.89 674.138 2441.81 673.339C2441.65 671.664 2440.69 669.908 2441.65 668.152C2441.97 667.434 2440.29 666.556 2441.81 665.997ZM2444.7 667.035C2444.86 666.955 2445.1 666.715 2445.1 666.715C2445.34 666.955 2445.5 667.194 2445.74 667.434C2445.5 667.514 2445.34 667.673 2445.26 667.593C2445.1 667.514 2444.94 667.274 2444.7 667.035ZM2443.26 679.644C2442.13 679.724 2442.69 680.921 2441.73 682.118C2441.73 680.522 2441.49 679.564 2441.81 678.766C2441.97 678.447 2442.93 679.006 2443.26 679.644ZM2445.5 687.146C2444.7 688.104 2443.58 687.146 2442.61 686.986C2441.25 686.747 2441.89 685.789 2441.73 685.071C2441.73 684.113 2440.85 682.757 2442.37 682.517C2443.42 682.358 2445.26 682.038 2445.1 684.273C2445.1 684.433 2445.1 684.592 2445.18 684.832C2445.5 685.55 2445.98 686.587 2445.5 687.146ZM2451.1 686.587C2450.62 686.428 2450.38 686.109 2450.54 685.39C2451.1 685.789 2451.26 686.109 2451.1 686.587ZM2462.38 689.54C2463.02 688.583 2463.34 688.184 2463.9 688.263C2463.98 688.263 2464.06 688.662 2464.06 688.742C2463.66 688.902 2463.26 689.061 2462.38 689.54ZM2466.79 693.69C2466.23 694.329 2465.74 695.127 2465.02 695.526C2464.78 695.685 2463.26 696.005 2463.34 694.568C2463.74 694.009 2463.58 692.493 2464.94 693.77C2465.5 693.371 2466.15 693.211 2466.79 693.69ZM2465.82 690.498C2466.07 690.259 2466.23 690.019 2466.31 690.099C2466.55 690.179 2466.71 690.338 2466.87 690.498C2466.79 690.578 2466.63 690.817 2466.55 690.817C2466.31 690.737 2466.15 690.578 2465.82 690.498ZM2467.43 699.436C2467.11 699.915 2467.27 700.713 2466.55 700.873C2465.1 701.272 2464.06 700.394 2462.94 699.915C2462.06 699.596 2461.5 697.84 2460.22 699.277C2460.14 699.357 2459.42 699.037 2459.34 698.798C2459.18 698.479 2459.18 697.84 2459.42 697.601C2459.74 697.202 2460.3 696.883 2460.94 697.122C2461.42 697.361 2462.14 697.521 2462.38 697.76C2463.74 698.798 2465.18 698.159 2466.55 698.319C2467.11 698.399 2467.59 698.638 2467.43 699.436ZM2466.63 675.255C2465.82 675.335 2465.66 676.213 2465.58 677.25C2466.39 676.691 2467.03 675.893 2467.67 676.452C2468.15 676.851 2467.99 677.649 2467.67 678.208C2467.19 679.086 2466.47 678.687 2465.74 678.687C2464.7 678.766 2463.02 676.771 2462.54 679.405C2462.54 679.724 2462.46 680.123 2462.46 680.442C2462.78 681.24 2462.38 681.639 2461.66 681.959C2461.34 682.757 2459.82 682.837 2460.3 684.193C2461.1 686.348 2462.7 684.752 2463.34 684.433C2464.78 683.794 2465.42 683.794 2465.82 685.311C2465.82 685.39 2465.99 685.55 2465.99 685.55C2467.19 685.071 2467.91 685.231 2467.75 686.747C2467.67 687.146 2467.51 687.944 2467.35 687.785C2466.47 687.146 2464.94 688.423 2464.54 686.667C2464.54 686.587 2464.22 686.508 2464.06 686.587C2461.02 687.226 2457.9 685.63 2454.86 687.306C2453.82 687.864 2452.38 687.226 2452.54 685.39C2450.86 685.39 2449.66 684.672 2449.18 682.996C2447.66 683.315 2446.22 683.076 2445.02 682.038C2444.62 681.639 2443.42 681.32 2444.7 680.442C2445.42 679.963 2444.54 679.884 2444.38 679.644C2443.9 678.926 2442.29 678.846 2443.09 677.41C2442.77 677.33 2442.37 677.33 2442.05 677.25C2442.13 677.09 2442.29 676.851 2442.37 676.691C2442.61 676.372 2441.49 676.053 2442.29 675.734C2442.21 676.931 2444.3 674.936 2443.74 676.771C2445.58 676.532 2444.46 678.208 2445.18 678.846C2445.66 678.128 2446.14 677.489 2446.62 676.771C2447.34 677.809 2446.14 679.884 2448.78 679.884C2450.54 679.963 2450.94 680.043 2450.14 678.288C2449.98 677.888 2450.46 676.771 2450.78 676.771C2451.66 676.612 2452.22 677.809 2452.22 678.208C2452.22 680.123 2453.66 680.602 2454.94 681.161C2455.66 681.56 2456.38 681.959 2457.98 682.916C2457.1 681.879 2456.94 681.48 2456.7 681.32C2454.46 680.123 2455.1 679.165 2456.86 678.208C2457.26 677.968 2457.98 678.208 2457.82 677.41C2457.58 676.532 2456.94 677.25 2456.62 677.25C2455.02 677.17 2453.58 676.691 2452.3 675.813C2451.9 675.494 2450.94 675.574 2451.1 674.856C2451.26 674.297 2451.82 673.739 2452.3 673.579C2453.82 673.1 2454.94 673.26 2452.54 671.743C2450.46 670.387 2449.02 667.833 2447.58 665.678C2446.7 664.321 2445.66 663.364 2444.46 662.326C2443.98 662.007 2443.42 661.847 2443.5 661.129C2443.5 660.969 2443.74 660.81 2443.9 660.81C2444.38 660.89 2444.7 661.129 2444.62 661.688C2445.26 661.927 2445.9 662.087 2446.54 662.326C2446.46 662.007 2446.46 661.608 2446.38 661.289C2446.54 661.289 2446.7 661.289 2446.86 661.209C2446.86 661.688 2446.86 662.166 2446.86 662.645C2447.98 662.406 2449.1 662.166 2450.22 661.847C2449.98 661.688 2449.74 661.528 2449.5 661.448C2449.02 661.368 2448.46 661.368 2448.62 660.57C2448.7 660.331 2448.62 660.012 2448.7 659.932C2449.34 659.613 2449.5 660.092 2449.74 660.57C2449.74 660.65 2450.06 660.65 2450.22 660.57C2450.3 660.57 2450.3 660.331 2450.3 660.251C2451.34 659.772 2452.7 659.533 2452.54 657.857C2452.54 657.617 2453.34 657.538 2453.26 658.096C2453.02 659.613 2456.86 657.298 2455.02 660.092C2454.7 660.491 2453.5 660.411 2454.22 661.448C2454.54 662.007 2454.86 662.645 2455.58 662.486C2456.54 662.246 2455.66 661.209 2456.3 660.73C2456.78 661.129 2457.26 661.528 2457.74 662.007C2457.82 661.209 2459.02 661.129 2458.62 659.852C2458.62 659.533 2460.22 659.692 2461.02 659.293C2460.3 656.979 2459.18 654.984 2456.62 654.186C2457.42 654.266 2458.22 654.266 2459.02 654.345C2459.18 653.547 2457.74 653.627 2458.22 652.749C2458.78 651.632 2459.9 652.27 2460.78 652.111C2461.02 651.472 2459.9 650.994 2460.54 650.515C2461.26 650.036 2461.02 651.313 2461.5 651.233C2461.74 651.153 2461.98 650.834 2462.22 650.594C2462.46 650.355 2462.7 649.876 2462.94 649.876C2463.42 649.876 2463.42 650.275 2463.42 650.674C2463.42 651.153 2463.26 651.871 2464.3 651.632C2464.78 651.552 2464.62 652.191 2464.54 652.43C2464.38 652.909 2464.14 653.468 2463.5 653.068C2462.7 652.669 2462.06 653.068 2461.34 653.228C2460.86 653.308 2460.46 653.308 2460.38 653.867C2460.38 654.585 2460.86 654.585 2461.42 654.665C2462.22 654.665 2463.1 654.744 2463.9 654.904C2464.94 655.064 2465.26 656.101 2465.42 656.819C2465.58 657.538 2464.78 657.937 2463.98 657.697C2463.18 657.458 2463.34 658.336 2462.94 658.416C2462.94 658.735 2462.94 658.974 2462.94 659.293C2463.18 659.692 2463.5 660.012 2463.74 660.411C2463.66 661.767 2462.86 661.927 2461.58 662.326C2458.62 663.124 2455.82 664.561 2452.78 665.838C2453.9 666.556 2454.86 667.115 2455.5 668.232C2455.82 668.79 2457.66 668.87 2458.7 668.711C2460.3 668.471 2461.74 667.753 2463.26 668.79C2463.66 669.03 2464.46 669.03 2464.38 668.072C2464.3 666.316 2465.42 667.035 2466.23 667.115C2466.71 666.955 2467.27 666.636 2467.75 667.115C2467.27 667.833 2466.71 667.035 2466.23 667.354C2467.11 668.072 2469.11 668.471 2466.79 669.908C2466.55 670.067 2466.39 671.664 2467.19 672.621C2467.91 673.499 2469.67 675.095 2466.63 675.255ZM2464.54 680.283C2464.38 680.442 2464.22 680.602 2463.98 680.602C2463.9 680.602 2463.74 680.442 2463.66 680.283C2463.82 680.123 2464.06 679.963 2464.3 679.804C2464.38 679.963 2464.54 680.203 2464.54 680.283ZM2448.7 675.175C2448.94 675.973 2449.1 676.691 2449.26 677.33C2448.54 676.691 2447.66 676.213 2448.7 675.175ZM2472.55 743.171C2472.63 743.33 2472.71 743.49 2472.87 743.649C2472.71 743.729 2472.55 743.889 2472.47 743.889C2472.31 743.809 2472.23 743.649 2472.07 743.57C2472.23 743.41 2472.39 743.33 2472.55 743.171ZM2474.39 724.895C2474.95 724.256 2475.43 725.054 2476.31 724.815C2475.59 725.374 2475.27 725.932 2474.55 725.374C2474.47 725.294 2474.31 724.975 2474.39 724.895ZM2475.67 690.977C2475.27 691.615 2474.87 691.855 2474.07 691.376C2474.63 690.658 2475.11 690.817 2475.67 690.977ZM2471.03 699.756C2470.23 699.516 2470.87 699.277 2471.11 699.037C2471.27 698.958 2471.43 698.878 2471.59 698.798C2471.67 698.878 2471.75 698.958 2471.83 699.117C2471.51 699.357 2471.19 699.835 2471.03 699.756ZM2470.71 689.381C2471.11 690.817 2472.79 689.62 2472.95 691.057C2472.95 691.456 2472.39 691.775 2471.91 691.615C2471.03 691.376 2470.31 690.897 2470.71 689.381ZM2472.15 724.496C2471.91 724.256 2471.67 724.097 2471.03 723.618C2472.23 723.538 2473.11 723.139 2473.75 723.777C2474.23 724.097 2472.71 724.895 2472.15 724.496ZM2471.91 719.149C2471.99 719.149 2472.23 718.989 2472.23 718.909C2472.23 718.351 2471.67 717.553 2472.71 717.553C2473.03 717.553 2473.75 718.271 2473.67 718.51C2473.43 719.308 2474.39 720.585 2472.79 720.825C2472.79 721.064 2472.79 721.303 2472.79 721.623C2472.79 722.341 2472.39 722.66 2471.67 722.341C2471.51 722.341 2471.43 722.341 2471.27 722.341C2470.63 722.102 2470.39 721.703 2470.87 721.144C2470.87 721.064 2470.87 720.984 2470.87 720.904C2470.95 719.947 2469.35 718.271 2471.91 719.149ZM2470.95 676.532C2470.79 676.372 2470.55 676.133 2470.55 676.053C2470.63 675.813 2470.87 675.654 2471.03 675.414C2471.19 675.574 2471.27 675.734 2471.51 675.973C2471.19 676.213 2471.03 676.372 2470.95 676.532ZM2470.71 672.142C2471.75 672.063 2471.11 673.1 2471.27 673.579C2471.35 673.818 2471.51 673.978 2471.59 674.217C2471.75 674.138 2471.83 674.138 2471.99 674.058C2472.47 673.18 2473.19 673.898 2473.75 673.898C2473.75 673.898 2473.91 674.297 2473.83 674.377C2473.43 674.856 2472.95 674.696 2472.47 674.616C2471.83 675.414 2471.19 675.095 2470.47 674.616C2470.39 674.297 2470.31 673.978 2470.39 673.659C2470.47 673.02 2469.99 672.222 2470.71 672.142ZM2472.95 658.815C2472.71 658.575 2472.55 658.416 2472.39 658.176L2472.63 657.857C2472.79 657.937 2473.03 658.096 2473.11 658.256C2473.19 658.336 2473.03 658.575 2472.95 658.815ZM2492.96 641.257C2493.68 641.337 2494.16 642.135 2494.64 642.374C2494.72 642.374 2494.88 642.374 2494.96 642.454C2494.88 642.454 2494.72 642.454 2494.64 642.374C2493.84 642.534 2492.72 644.05 2491.76 642.694C2490.32 640.938 2492.24 641.097 2492.96 641.257ZM2490.64 647.243C2490.24 647.642 2489.68 647.881 2489.44 647.322C2489.2 646.844 2489.84 646.844 2490.24 646.764V645.168C2491.12 645.886 2491.2 646.524 2490.64 647.243ZM2483.35 626.174C2483.99 625.455 2484.71 625.535 2486.15 625.934C2484.95 626.413 2484.31 626.972 2483.43 626.652C2483.35 626.573 2483.35 626.253 2483.35 626.174ZM2483.83 628.727C2483.91 628.727 2484.07 628.887 2484.39 629.047C2484.07 629.206 2483.91 629.446 2483.67 629.446C2483.51 629.446 2483.35 629.206 2483.19 629.126C2483.43 628.967 2483.67 628.807 2483.83 628.727ZM2483.83 635.91C2483.75 635.431 2483.99 635.192 2484.47 635.112C2484.55 635.112 2484.79 635.272 2484.79 635.351C2484.71 635.91 2484.31 635.83 2483.83 635.91C2483.91 635.91 2483.91 635.91 2483.83 635.91C2483.35 636.628 2482.87 636.469 2482.15 635.99C2482.79 635.591 2483.27 635.351 2483.83 635.91ZM2478.87 629.605C2479.67 628.807 2480.71 629.845 2481.67 629.446C2481.91 629.366 2482.31 629.446 2482.23 630.084C2481.43 630.324 2480.55 630.643 2479.67 630.723C2479.03 630.802 2478.63 629.845 2478.87 629.605ZM2478.39 643.571C2478.23 642.773 2477.75 642.055 2477.43 641.257C2479.67 640.619 2479.19 642.853 2479.99 643.731C2480.23 643.971 2479.83 644.21 2479.51 644.21C2479.03 644.13 2478.55 644.449 2478.39 643.571ZM2480.39 652.59C2479.43 653.148 2479.03 652.35 2477.99 651.792C2479.19 651.792 2479.83 651.871 2480.39 652.59ZM2478.87 635.431C2478.95 635.272 2479.19 635.112 2479.35 635.032C2479.43 635.192 2479.67 635.431 2479.67 635.591C2479.67 635.75 2479.43 635.91 2479.19 636.309C2479.03 635.83 2478.87 635.671 2478.87 635.431ZM2479.99 636.947C2480.07 636.548 2480.39 636.309 2480.63 635.91C2481.03 636.149 2481.43 636.469 2481.75 636.708C2481.59 637.347 2481.27 637.586 2480.79 637.586C2480.39 637.666 2479.91 637.586 2479.99 636.947ZM2477.99 627.45C2478.15 627.45 2478.31 627.69 2478.71 628.009C2478.07 628.169 2477.75 628.249 2477.43 628.249C2477.27 628.249 2477.11 627.929 2477.03 627.77C2477.35 627.61 2477.67 627.45 2477.99 627.45ZM2476.71 623.779C2477.35 623.779 2477.43 624.178 2477.27 624.657C2477.27 624.817 2477.03 624.976 2476.79 625.296C2476.47 624.737 2476.23 624.418 2476.07 624.099C2476.31 623.939 2476.47 623.779 2476.71 623.779ZM2473.67 645.567C2473.67 645.008 2474.15 644.769 2474.79 644.769C2475.27 644.769 2475.91 644.689 2475.83 645.487C2475.75 646.524 2475.11 645.646 2474.79 645.806C2474.31 645.646 2473.67 646.684 2473.67 645.567ZM2477.75 659.692C2477.43 660.092 2477.11 660.331 2476.63 660.092C2475.59 660.65 2475.19 659.293 2473.83 659.613C2475.11 658.655 2475.91 658.974 2476.63 659.293C2477.03 659.453 2477.35 659.613 2477.75 659.692C2477.75 659.214 2477.99 658.894 2478.55 659.134C2478.71 659.214 2478.95 659.533 2478.87 659.613C2478.55 660.092 2478.15 659.772 2477.75 659.692ZM2480.31 660.73C2479.99 660.171 2479.83 660.012 2479.75 659.852C2479.75 659.772 2480.07 659.533 2480.07 659.533C2480.23 659.613 2480.47 659.772 2480.55 660.012C2480.55 660.092 2480.39 660.331 2480.31 660.73ZM2481.51 659.852C2481.51 659.852 2481.27 659.613 2481.27 659.533C2481.35 659.373 2481.51 659.293 2481.67 659.214C2481.75 659.214 2481.91 659.373 2482.15 659.533C2481.83 659.613 2481.67 659.772 2481.51 659.852ZM2482.23 647.003C2481.35 647.642 2480.39 648.2 2479.35 648.759C2478.71 646.125 2480.63 646.205 2482.15 645.886C2482.31 645.886 2482.63 646.125 2482.63 646.285C2482.55 646.524 2482.47 646.844 2482.23 647.003ZM2485.75 654.744C2485.59 654.744 2485.43 654.425 2485.35 654.266C2485.67 654.186 2485.99 654.026 2486.31 654.026C2486.47 654.026 2486.63 654.186 2487.11 654.505C2486.39 654.665 2486.07 654.744 2485.75 654.744ZM2486.87 647.322C2486.39 647.961 2485.83 647.243 2485.27 646.923C2484.71 646.604 2483.59 647.322 2483.59 646.524C2483.51 645.567 2484.95 646.524 2485.35 645.806C2485.91 645.567 2486.55 644.848 2486.95 645.567C2487.27 645.966 2487.19 646.923 2486.87 647.322ZM2483.03 644.13C2482.79 644.29 2482.55 644.449 2482.23 644.529C2481.99 645.487 2481.11 645.567 2480.55 645.247C2479.83 644.769 2480.63 644.13 2480.95 643.971C2482.15 643.332 2480.79 640.539 2483.19 641.097C2485.27 641.656 2487.03 639.422 2489.2 640.619C2489.76 640.938 2490 641.177 2490.08 641.656C2490.16 642.295 2489.52 642.215 2489.12 642.295C2487.19 642.933 2485.11 643.571 2483.03 644.13Z" fill="#ACABAB"/>
</g>
</g>
<defs>
<clipPath id="clip0">
<rect width="2500" height="960" fill="white"/>
</clipPath>
<clipPath id="clip1">
<rect width="665" height="214" fill="white" transform="translate(528 597)"/>
</clipPath>
<clipPath id="clip2">
<rect width="153" height="204" fill="white" transform="translate(2168 602)"/>
</clipPath>
<clipPath id="clip3">
<rect width="113" height="164" fill="white" transform="translate(1562 585)"/>
</clipPath>
<clipPath id="clip4">
<rect width="255" height="136" fill="white" transform="translate(1782 663)"/>
</clipPath>
<clipPath id="clip5">
<rect width="91" height="215" fill="white" transform="translate(2409 598)"/>
</clipPath>
</defs>
</svg>
