<svg width="2500" height="960" viewBox="0 0 2500 960" fill="none" xmlns="http://www.w3.org/2000/svg">
<g clip-path="url(#clip0)">
<path d="M2498.88 959.5C2541.5 834.73 2140.28 793.804 1752.91 783.95C1522.29 778.083 1240.92 824.617 1149.5 820.889C904.51 810.899 733.5 833.999 733.5 833.999L492.64 823.752C491.2 823.609 489.759 823.537 488.215 823.394C486.26 823.251 484.202 823.108 482.144 822.964C477.925 822.678 473.294 822.32 468.354 821.962C465.885 821.747 463.415 821.604 460.739 821.389C458.167 821.246 455.491 821.031 452.713 820.888C447.156 820.529 441.393 820.171 435.321 819.813C429.25 819.527 422.973 819.24 416.387 818.882C409.903 818.524 403.112 818.309 396.114 818.023C389.219 817.736 382.016 817.521 374.709 817.378L374.409 817.372C370.902 817.303 367.3 817.231 363.698 817.092C361.846 817.02 359.994 817.02 358.039 816.948C356.186 816.948 354.231 816.877 352.379 816.877C348.571 816.805 344.764 816.805 340.956 816.734C337.149 816.662 333.239 816.662 329.33 816.662H329.328H317.596H305.659C289.709 816.805 273.552 817.02 257.396 817.521C253.383 817.665 249.369 817.736 245.253 817.88L245.252 817.88C241.239 818.023 237.226 818.166 233.213 818.381C229.2 818.524 225.186 818.667 221.173 818.882C217.16 819.097 213.146 819.312 209.236 819.455C207.281 819.527 205.325 819.67 203.267 819.742C201.312 819.885 199.357 819.956 197.402 820.1C193.491 820.315 189.581 820.601 185.67 820.816C177.952 821.317 170.234 821.89 162.722 822.392C155.21 822.964 147.801 823.537 140.597 824.182C136.995 824.468 133.394 824.827 129.895 825.113C126.396 825.471 122.897 825.758 119.398 826.116C112.504 826.76 105.815 827.548 99.4346 828.193C92.9515 828.909 86.777 829.625 80.8084 830.341C68.8713 831.774 57.9632 833.278 48.3929 834.638C38.7197 835.999 30.3843 837.36 23.4896 838.434C16.5977 839.58 11.2482 840.51 7.54376 841.155L7.53909 841.156C3.83446 841.8 -343.495 916.211 -425 977.999C-411.401 977.999 2215.56 944.7 2498.88 959.5Z" fill="#EFEFEF"/>
<path d="M2383.89 672C2380.67 673.622 2380.53 677.646 2379.08 680.561C2381.31 681 2383.53 681.463 2385.72 681.951C2384.73 684.329 2382.78 686.012 2380.82 687.609C2381.34 687.999 2382.35 688.755 2382.86 689.146C2380.69 690.475 2378.53 691.829 2376.37 693.243C2379.37 694.292 2382.51 693.633 2385.53 693.292C2381.67 694.792 2377.47 695.694 2374.18 698.377C2371.98 698.194 2369.78 697.987 2367.56 697.779C2367.26 699.389 2366.9 701.035 2366.55 702.67C2367.26 703.048 2368.67 703.779 2369.38 704.157C2368.78 704.73 2368.16 705.328 2367.51 705.925C2368.54 706.401 2369.54 706.889 2370.5 707.389C2371.31 708.913 2370.73 711.889 2373.05 711.998C2375.42 710.999 2377.58 709.645 2379.8 708.413C2379.92 709.413 2380.03 710.425 2380.1 711.45C2380.91 711.718 2382.51 712.242 2383.3 712.511C2380.09 713.718 2376.99 715.254 2374.1 717.145C2376.03 717.462 2377.95 717.754 2379.79 718.279C2377.46 720.913 2373.78 721.815 2370.82 723.632C2372.54 724.388 2374.22 725.157 2375.91 725.937C2373.96 726.852 2372 727.766 2370.03 728.681C2369.88 729.461 2369.59 731.022 2369.44 731.803C2364.49 731.754 2359.52 731.827 2354.58 732.364C2356.7 733.095 2358.85 733.79 2360.96 734.498C2361.24 734.937 2361.82 735.827 2362.1 736.266C2361.21 736.473 2359.42 736.9 2358.53 737.107C2359.8 737.388 2361.05 737.68 2362.27 737.973C2362.07 738.583 2361.69 739.802 2361.5 740.412C2362.82 739.656 2364.1 738.9 2365.37 738.156C2365.65 738.9 2366.21 740.388 2366.49 741.144C2368.81 741.083 2371.12 740.753 2373.22 739.766C2373.43 740.741 2373.67 741.717 2373.83 742.729C2374.59 742.863 2376.09 743.131 2376.83 743.266C2374.02 743.546 2371.21 744.107 2368.48 744.961C2368.55 747.07 2368.84 749.241 2368.44 751.351C2366.9 753.875 2363.69 754.143 2361.12 754.997C2361.24 754.229 2361.49 752.704 2361.62 751.936C2363.55 750.57 2365.33 749.021 2366.9 747.29C2361.99 747.265 2357.08 747.704 2352.23 748.522C2354.86 749.485 2357.63 750.192 2360.03 751.655C2358.94 751.79 2357.81 751.924 2356.67 752.07C2354.98 752.826 2353.29 753.582 2351.54 754.326C2352.8 754.79 2354.03 755.265 2355.23 755.777C2352.3 756.07 2349.32 755.777 2346.54 754.68L2345.7 754.765C2345.72 755.387 2345.78 756.619 2345.81 757.228C2345.37 757.716 2344.49 758.692 2344.05 759.18C2345.38 761.045 2346.7 762.911 2347.97 764.801C2344.75 764.667 2341.49 764.582 2338.24 764.362C2338.99 764.789 2340.49 765.655 2341.23 766.082C2340.79 766.387 2339.9 766.984 2339.46 767.289C2339.9 769.057 2340.33 770.838 2340.72 772.643C2341.93 772.338 2343.12 772.057 2344.28 771.777C2344.29 773.46 2344.28 775.155 2344.25 776.862C2343.58 777.106 2342.22 777.569 2341.54 777.813C2343.97 778.057 2346.38 778.203 2348.78 778.02C2350.58 779.167 2352.25 780.496 2353.82 781.923C2350.87 783.532 2347.63 784.41 2344.34 785.191C2345.78 786.996 2346.63 790.861 2349.68 790.008C2352.2 788.105 2353.1 784.837 2355.25 782.593C2355.34 783.264 2355.52 784.605 2355.61 785.276C2356.92 786.093 2358.25 786.91 2359.52 787.752C2358.57 792.447 2354.84 795.556 2351.01 798.02C2353.95 798.837 2356.89 799.641 2359.81 800.459C2359.25 800.995 2358.13 802.068 2357.57 802.593C2357.69 803.141 2357.94 804.239 2358.06 804.788C2352.47 803.849 2346.76 803.836 2341.11 804.422C2342.88 805.836 2344.71 807.141 2346.6 808.361C2341.88 808.178 2337.55 806.117 2332.9 805.458C2332.57 806.58 2332.22 807.727 2331.85 808.885C2334.11 810.812 2334.71 813.726 2335.46 816.446C2333.48 816.312 2331.53 816.165 2329.51 816.043C2329.9 816.726 2330.65 818.092 2331.04 818.775C2331.54 818.738 2332.55 818.677 2333.05 818.641C2332.61 820.007 2332.15 821.397 2331.68 822.787C2335.49 822.799 2339.52 822.189 2343 824.104C2341.39 825.689 2339.89 827.506 2337.85 828.64C2336.41 828.201 2334.96 827.677 2333.51 827.177C2333.63 827.677 2333.89 828.689 2334.01 829.201C2330.24 828.579 2326.64 830.031 2323.31 831.677C2323.07 832.287 2322.57 833.518 2322.32 834.128C2324.24 834.421 2326.14 834.738 2328.03 835.043C2326.43 835.957 2324.82 836.884 2323.2 837.847C2326.42 838.86 2329.78 838.969 2333.08 838.457C2333.18 839.213 2333.4 840.725 2333.51 841.494C2331.47 842.847 2329.41 844.225 2327.34 845.591C2328.2 846.164 2329.04 846.762 2329.86 847.359C2328.81 847.603 2326.71 848.091 2325.66 848.323C2327.12 850.81 2330.08 850.957 2332.46 851.944C2333.83 853.237 2334.94 854.749 2336.14 856.176C2334.42 856.542 2332.69 856.92 2330.93 857.31C2330.69 856.542 2330.22 855.005 2329.97 854.249C2327.19 853.615 2324.46 852.725 2321.88 851.469C2322.11 850.896 2322.58 849.749 2322.82 849.176C2320.92 849.042 2318.99 848.993 2317.06 848.688C2315.13 848.225 2315.62 845.92 2315.21 844.481C2310.72 842.859 2306.7 840.225 2302.41 838.152C2300.99 839.75 2299.47 841.311 2297.88 842.798C2299.72 843.298 2301.55 843.823 2303.35 844.359C2302.8 845.737 2302.23 847.127 2301.63 848.53C2303.1 848.213 2304.57 847.896 2306 847.603C2305.87 848.688 2305.7 849.798 2305.53 850.908C2304.15 851.286 2302.74 851.676 2301.31 852.091C2304.43 853.2 2307.63 854.005 2310.88 854.542C2310.84 855.164 2310.77 856.408 2310.73 857.03C2309.01 856.749 2307.26 856.469 2305.48 856.213C2305.5 856.761 2305.51 857.847 2305.52 858.383C2303.46 858.176 2301.38 857.981 2299.3 857.798C2298.92 859.53 2298.6 861.346 2297.92 863.029C2295.02 863.505 2292 862.468 2289.06 862.151C2291.75 865.493 2293.88 869.2 2295.92 872.956C2295.53 873.151 2294.76 873.566 2294.37 873.761C2296.43 874.261 2297.91 875.358 2297.89 877.614C2296.7 877.992 2295.48 878.37 2294.23 878.773C2297.96 879.553 2301.62 880.529 2305.23 881.687C2303.68 884.163 2302.36 887.358 2299.27 888.297C2296.45 888.809 2293.55 888.443 2290.68 888.358C2290.26 888.76 2289.43 889.589 2289 890.004C2289.67 890.065 2290.99 890.175 2291.65 890.236C2292.42 890.309 2293.95 890.443 2294.72 890.504C2294.09 891.541 2293.42 892.589 2292.73 893.65C2324.42 894.382 2356.12 893.699 2387.82 893.943C2416.73 893.931 2445.65 893.894 2474.57 893.906C2478.97 893.882 2483.58 894.431 2487.68 892.492C2490.65 890.858 2493.59 893.223 2496.53 893.626C2501.05 894.296 2505.65 893.809 2510.19 893.833C2509.75 891.577 2509.25 889.333 2508.87 887.065C2507.51 886.65 2506.1 886.236 2504.69 885.846C2504.56 885.053 2504.41 884.272 2504.24 883.516C2502.79 883.151 2501.31 882.797 2499.81 882.455C2501.46 878.834 2505.31 879.541 2508.47 880.297C2508.68 876.224 2508.83 872.139 2508.85 868.078C2503.88 867.7 2498.97 868.505 2494.07 869.322C2488.56 868.749 2483.2 870.358 2477.7 870.566C2478.36 868.98 2479.92 868.493 2481.34 867.956C2480.79 866.956 2480.17 866.005 2479.64 865.005C2481.01 864.224 2482.58 864.237 2484.06 864.139C2485.75 862.798 2487.41 861.407 2489.04 860.042C2486.89 857.81 2484.36 855.993 2481.75 854.335C2484.12 853.42 2486.58 852.713 2489.12 852.871C2493.26 853.005 2497.73 851.81 2501.41 854.274C2504.36 853.7 2507.34 853.579 2510.22 854.432C2510.53 850.249 2509.97 845.993 2511.09 841.908C2508.94 840.689 2506.82 839.347 2504.51 838.445C2502.54 838.652 2500.71 839.518 2498.82 840.152C2498.53 838.884 2498.22 837.616 2497.89 836.372C2502.4 836.128 2506.84 836.933 2511.17 838.03C2511.22 838.64 2511.31 839.872 2511.36 840.481C2513.47 825.823 2516.3 811.263 2517 796.459C2515.74 796.532 2514.45 796.617 2513.13 796.715C2512.67 797.41 2511.73 798.8 2511.27 799.483C2507.69 798.922 2504.1 798.264 2500.58 797.337C2500.71 795.325 2500.85 793.3 2500.93 791.313C2499.08 791.483 2497.2 791.691 2495.29 791.886C2495.55 790.813 2495.78 789.764 2496 788.727C2496.34 788.508 2497.04 788.081 2497.38 787.861C2496.95 786.374 2496.5 784.874 2496.03 783.41C2498.26 782.703 2500.42 781.91 2502.16 780.35C2504.87 777.996 2508.54 777.423 2511.57 775.63C2513.21 777.301 2514.82 778.984 2516.43 780.654C2516 773.691 2514.56 766.777 2514.86 759.777C2514.72 753.802 2515.94 747.753 2514.55 741.875C2514.04 739.51 2514.54 737.107 2514.69 734.766C2512.8 734.851 2510.91 734.778 2509.01 734.498C2510.73 732.376 2512.68 730.498 2514.82 728.852C2515.87 720.962 2514.45 713.035 2515.56 705.182C2514.29 704.45 2512.97 703.73 2511.66 703.035C2509.58 704.95 2507.28 706.608 2504.76 707.938C2502.55 704.852 2500.25 709.181 2498.54 710.584C2496.84 710.462 2495.15 710.328 2493.42 710.291L2492.51 710.316C2492.93 711.657 2493.29 713.035 2493.66 714.413C2491.79 715.328 2489.96 716.437 2487.9 716.95C2486.67 716.413 2486.11 715.059 2485.23 714.12C2487.16 713.84 2489.07 713.584 2490.96 713.34C2489.67 712.486 2488.34 711.633 2487 710.791C2486.84 710.023 2486.52 708.499 2486.36 707.73C2484.09 709.913 2481.45 709.816 2479.08 707.791C2477.75 709.194 2476.49 710.645 2475.22 712.157C2475.54 712.877 2476.16 714.328 2476.48 715.059C2478.42 715.645 2480.38 716.169 2482.21 716.974C2483.78 719.12 2481.32 720.01 2479.7 720.913C2477.66 718.547 2475 717.035 2471.77 717.364C2472.97 719.12 2474.2 720.852 2475.53 722.51C2480.78 722.632 2485.16 726.242 2487.84 730.51C2486.22 730.12 2484.58 729.717 2482.93 729.315C2482.17 730.254 2481.39 731.193 2480.58 732.144C2479.75 731.229 2478.91 730.315 2478.04 729.425C2473.47 729.315 2468.79 729.864 2464.68 732.047C2463.84 734.827 2461.19 735.961 2458.74 737.071C2459.77 738.01 2460.83 738.912 2461.72 739.949C2461.1 741.571 2460.33 743.119 2459.57 744.717C2457.58 745.412 2455.54 746.107 2453.49 746.741C2455.49 747.302 2457.46 747.863 2459.26 748.826C2457.84 752.265 2452.75 750.241 2449.8 751.887C2453.16 752.79 2456.65 752.777 2460.08 752.668C2457.02 755.009 2453.91 757.289 2450.94 759.777C2453.16 760.899 2455.42 760.277 2457.39 759.021C2457.93 757.143 2459.13 755.643 2460.91 754.826C2461.68 756.082 2462.42 757.35 2463.14 758.619C2459.84 760.789 2456.01 762.875 2454.87 767.009C2458.5 764.094 2462.16 760.911 2466.98 760.399C2466.88 761.082 2466.67 762.436 2466.56 763.118C2468.34 762.875 2470.12 762.631 2471.86 762.411C2472.28 763.46 2472.69 764.521 2473.06 765.594C2466.39 767.594 2459.3 768.277 2452.96 771.362C2453.4 771.655 2454.29 772.264 2454.73 772.557C2453.14 773.533 2451.53 774.508 2449.88 775.472C2452.33 775.362 2454.74 775.362 2457.14 775.679C2459.18 775.191 2461.25 774.96 2463.32 775.094C2462.55 776.216 2461.74 777.35 2460.91 778.496C2455.79 777.801 2451.35 780.691 2447.63 783.874C2449.72 784.801 2451.85 785.654 2453.8 786.825C2454.76 788.593 2454.03 790.715 2454.09 792.654C2455.48 790.337 2456.91 788.057 2458.33 785.801C2460.12 786.044 2461.89 786.288 2463.63 786.544C2466.17 784.618 2468.89 782.959 2471.81 781.728C2475.32 783.191 2479.57 784.13 2482.31 780.789C2482.36 783.288 2482.95 785.727 2483.9 788.044C2482.31 791.459 2479.95 794.593 2475.83 794.764C2474.16 792.264 2471.39 790.813 2468.32 790.959C2463 790.922 2456.3 791.459 2453.35 796.617C2454.65 796.386 2455.93 796.154 2457.2 795.922C2458.12 797.032 2459.01 798.166 2459.89 799.3C2458.3 799.471 2456.54 799.263 2455.03 800.007C2454.48 801.19 2454.18 802.471 2453.77 803.739C2450.98 805.641 2448.09 807.385 2445.17 809.117C2443.83 808.824 2442.45 808.544 2441.05 808.275C2440.54 803.995 2441.05 799.666 2443.49 796.02C2445.61 795.861 2448 796.032 2449.41 794.142C2445.4 793.191 2440.96 792.252 2437.11 794.288C2435.02 795.593 2432.68 795.142 2430.42 794.495C2428.59 794.776 2426.75 795.093 2424.87 795.325L2424.43 796.276C2424.26 797.971 2423.17 800.995 2420.89 799.898C2420.45 799.727 2419.58 799.385 2419.14 799.215C2419.01 798.642 2418.77 797.507 2418.65 796.934C2416.92 796.568 2415.17 796.19 2413.43 795.788C2414.87 793.886 2416.77 792.434 2419.26 792.422C2420.78 789.739 2418.93 786.825 2418.45 784.106C2420.49 783.41 2422.61 783.045 2424.58 784.093C2424.09 785.691 2423.59 787.3 2423.06 788.922C2423.97 788.874 2425.79 788.776 2426.7 788.727C2426.88 786.727 2427.05 784.727 2427.18 782.752C2428.82 782.959 2430.43 783.167 2432.03 783.374C2435.2 782.069 2438.84 782.423 2441.77 780.459C2441.95 778.325 2442.55 776.24 2444.4 774.984C2443.99 774.094 2443.54 773.216 2443.07 772.35C2441.88 772.618 2440.67 772.886 2439.41 773.191C2439.69 772.057 2439.95 770.935 2440.18 769.826C2438.1 769.618 2435.99 769.399 2433.86 769.155C2435.24 767.35 2437.17 766.155 2439.08 765.045C2437.88 765.362 2436.63 765.692 2435.38 766.021C2434.79 765.338 2434.18 764.655 2433.53 763.997C2430.51 766.24 2427.69 768.752 2424.71 771.082C2424.49 769.265 2424.26 767.448 2424 765.655C2424.57 765.594 2425.69 765.46 2426.25 765.399C2426.21 764.606 2426.14 763.838 2426.04 763.07C2427.92 761.728 2429.76 760.375 2431.61 759.033C2426.88 758.826 2420.87 759.07 2417.74 754.875C2418.82 754.472 2419.88 754.229 2420.94 753.997C2421.71 754.802 2422.45 755.619 2423.19 756.436C2425.05 755.326 2426.9 754.229 2428.74 753.143C2427.96 751.412 2427.16 749.704 2426.35 747.997C2428.4 747.485 2430.4 746.997 2432.2 745.948C2428.15 746.058 2423.91 746.497 2420.58 749.07C2414.5 747.448 2408.86 744.692 2403.47 741.461C2402.69 739.351 2401.92 737.241 2401.22 735.095C2403.81 736.193 2405.14 738.632 2406.36 740.985C2408.02 740.814 2409.69 740.644 2411.3 740.497C2411.39 738.997 2411.46 737.51 2411.5 736.034C2413.85 736.071 2416.22 736.107 2418.55 736.095C2418.34 735.681 2417.92 734.851 2417.7 734.437C2413.8 733.681 2409.68 733.778 2406.11 731.742C2408.37 729.217 2411.75 730.059 2414.68 730.242C2414.13 729.925 2413.02 729.278 2412.47 728.961C2413.73 728.242 2414.98 727.534 2416.17 726.827C2411.22 726.193 2406.2 726.559 2401.37 727.839C2401.42 727.132 2401.49 725.73 2401.54 725.035C2403.29 724.132 2405.01 723.242 2406.72 722.352C2406.32 721.705 2405.56 720.413 2405.17 719.754C2406.78 719.498 2408.33 719.254 2409.89 719.023C2404.34 717.571 2397.22 717.962 2393.5 712.84C2394.53 712.547 2396.6 711.962 2397.64 711.669C2395.17 710.328 2392.21 709.364 2390.87 706.682C2394.27 707.608 2397.63 708.657 2401.03 709.523C2400.08 708.328 2399.14 707.133 2398.13 705.962C2400.41 705.023 2402.65 704.096 2404.93 703.206C2402.52 702.56 2400.1 701.84 2397.74 700.974C2399.44 699.926 2401.13 698.914 2402.81 697.901C2400.05 695.938 2397.45 693.743 2395.11 691.28C2392.14 690.377 2389.15 689.329 2386.64 687.39C2388.18 687.243 2389.69 687.121 2391.2 687.012C2390.46 686.438 2389 685.28 2388.27 684.707C2389.33 683.902 2390.38 683.109 2391.4 682.329C2389.91 682.207 2388.4 682.097 2386.86 682C2386.34 679.109 2385.74 676.244 2385.03 673.402L2383.89 672ZM2385.05 708.657C2381.45 706.657 2384.69 712.645 2385.05 708.657ZM2392.32 712.401C2391.95 713.937 2391.01 714.145 2389.51 713.023C2389.91 711.462 2390.85 711.255 2392.32 712.401ZM2504.6 715.071C2505.53 717.547 2499.25 718.218 2500.22 715.474C2501.5 714.803 2503.29 714.437 2504.6 715.071ZM2496.64 715.145C2497.8 718.742 2501.87 718.852 2504.9 719.949C2502.22 721.693 2499.2 721.327 2496.23 720.718C2493.64 721.937 2491.21 723.718 2488.12 723.132C2488.32 722.51 2488.71 721.291 2488.9 720.669C2490.77 720.388 2492.63 720.108 2494.46 719.852L2494.5 718.242C2493.72 718.132 2492.15 717.925 2491.35 717.815C2493 716.669 2494.81 715.828 2496.64 715.145ZM2382.84 716.084C2379.26 714.096 2382.46 720.096 2382.84 716.084ZM2399.75 719.706C2396.06 717.876 2399.66 723.742 2399.75 719.706ZM2505.34 721.693C2505.21 723.364 2505.04 725.047 2504.85 726.742C2503.92 726.742 2502.07 726.73 2501.14 726.717C2502.11 724.718 2503.07 722.474 2505.34 721.693ZM2484.98 722.144C2484.72 723.705 2483.81 723.961 2482.25 722.925C2482.56 721.327 2483.47 721.059 2484.98 722.144ZM2397.1 723.376C2398.41 723.62 2400.87 724.754 2399.88 726.413C2397.99 728.278 2393.28 723.157 2397.1 723.376ZM2492.4 724.766C2493.4 726.23 2490.76 727.62 2489.65 726.62C2488.68 725.096 2491.32 723.742 2492.4 724.766ZM2478.99 733.046C2479.14 735.034 2479.27 737.034 2479.36 739.058C2476.13 739.668 2475.35 736.119 2474.03 733.998C2475.69 733.583 2477.35 733.278 2478.99 733.046ZM2486.01 741.644C2483.92 741.534 2481.81 741.388 2479.69 741.241C2479.95 740.607 2480.47 739.363 2480.73 738.729C2482.7 739.156 2485.4 739.254 2486.01 741.644ZM2510.61 741.827C2511.75 743.607 2508.56 747.741 2506.29 746.253C2506.92 744.497 2508.09 740.253 2510.61 741.827ZM2373.14 747.961C2375.66 748.607 2373.28 752.351 2371.41 750.973C2370.62 749.802 2371.8 747.912 2373.14 747.961ZM2478.51 752.314C2476.04 752.412 2473.55 752.387 2471.05 752.302C2470.58 751.131 2470.07 749.973 2469.56 748.814C2472.65 749.29 2477.38 748.448 2478.51 752.314ZM2415.94 750.436C2415.95 750.838 2416 751.643 2416.01 752.046C2413 752.046 2407.84 753.412 2408.07 748.68C2410.58 749.765 2413.21 750.509 2415.94 750.436ZM2403.4 750.131C2406.84 751.765 2402.26 753.96 2400.83 751.655C2399.3 750.021 2402.38 749.143 2403.4 750.131ZM2507.35 752.424C2507.04 753.521 2506.71 754.619 2506.37 755.741C2508.06 755.911 2509.87 755.741 2511.2 756.936C2508.5 758.241 2505.51 758.631 2502.81 757.021C2503.24 755.241 2503.65 753.46 2504.04 751.704C2505.17 751.936 2506.26 752.18 2507.35 752.424ZM2474.28 755.314C2474.83 756.741 2475.5 758.119 2476.5 759.289C2476.37 761.24 2476.15 763.179 2475.85 765.143C2472.49 763.643 2472.41 759.68 2471.34 756.643C2472.34 756.192 2473.33 755.753 2474.28 755.314ZM2354.95 757.302C2354.76 761.009 2349.85 760.448 2347.41 762.131C2347.05 758.192 2352.21 758.082 2354.95 757.302ZM2496.05 758.765C2497.12 760.265 2494.46 761.582 2493.44 760.362C2492.29 758.838 2495.09 757.509 2496.05 758.765ZM2427.25 759.972C2424.97 762.448 2417.06 763.74 2418.17 758.582C2421.2 759.131 2424.16 760.009 2427.25 759.972ZM2485.13 760.241C2486.39 760.814 2487.77 761.375 2488.56 762.533C2488.45 764.387 2488.03 766.204 2487.67 768.057C2484.92 767.789 2482.17 767.46 2479.46 766.838C2480.21 763.862 2482.34 761.436 2485.13 760.241ZM2493.48 762.314C2494.66 763.936 2491.83 765.545 2490.67 764.192C2489.36 762.521 2492.37 760.777 2493.48 762.314ZM2365.27 762.777C2365.32 764.326 2365.68 765.96 2365.16 767.484C2362.74 768.252 2360.23 768.899 2357.67 769.167C2356.4 768.301 2355.24 767.265 2354.03 766.277C2356.03 765.033 2358.03 763.838 2360.08 762.753C2361.83 762.875 2363.56 762.862 2365.27 762.777ZM2354.7 762.899C2355.42 764.46 2352.76 765.74 2351.71 764.521C2351.12 762.96 2353.71 761.814 2354.7 762.899ZM2393.54 763.74C2393.31 765.35 2392.42 765.631 2390.89 764.57C2391.18 762.948 2392.06 762.667 2393.54 763.74ZM2372.99 763.789C2371.95 765.618 2369.99 766.899 2369.51 769.069C2370.56 769.167 2372.65 769.35 2373.69 769.435C2372.49 774.081 2368.06 770.569 2365.61 769.204C2368.22 767.765 2369.87 763.094 2372.99 763.789ZM2420.72 766.557C2424.22 769.179 2415.16 769.289 2416.39 766.094C2417.81 765.338 2419.29 766.472 2420.72 766.557ZM2412.16 770.923C2415.22 768.338 2418.57 770.484 2421.73 771.435C2422.99 771.691 2426.37 772.472 2424.27 774.191C2418.39 775.838 2410.67 776.167 2406.57 770.801C2407.67 769.813 2408.74 768.838 2409.8 767.874C2410.61 768.874 2411.4 769.899 2412.16 770.923ZM2366.87 771.033C2367.66 772.96 2367.03 773.618 2364.94 773.021C2364.19 771.069 2364.84 770.411 2366.87 771.033ZM2501.1 777.35C2501.52 779.02 2500.86 779.654 2499.14 779.228C2498.77 777.533 2499.43 776.898 2501.1 777.35ZM2491.13 782.569C2490.13 783.41 2489.11 784.252 2488.05 785.105C2489.23 785.764 2490.38 786.422 2491.51 787.105C2490.8 787.935 2490.07 788.764 2489.3 789.581C2487.93 787.496 2486.64 785.349 2485.48 783.13C2486.62 781.654 2487.61 780.093 2488.44 778.472C2489.27 779.886 2490.17 781.252 2491.13 782.569ZM2362 782.24C2363.12 783.349 2361.6 785.874 2360.1 784.996C2359.09 783.862 2360.56 781.362 2362 782.24ZM2486.09 794.264C2485.36 796.105 2481.74 796.532 2479.86 796.081C2480.34 793.971 2484.31 793.191 2486.09 794.264ZM2370.98 795.093C2371.08 796.629 2372.27 798.629 2370.6 799.763C2367.39 801.093 2363.93 801.629 2360.55 802.471C2360.39 799.727 2363.22 798.824 2365.4 799.263C2367.26 797.837 2369.1 796.422 2370.98 795.093ZM2438.95 796.654C2441.22 796.922 2440.68 800.837 2438.33 799.849C2436.25 799.385 2436.69 795.922 2438.95 796.654ZM2474.11 801.385C2475.88 800.239 2477.73 798.654 2479.95 799.507C2479.42 801.202 2478.76 802.971 2478.71 804.8C2477.49 804.8 2476.25 804.8 2474.98 804.824C2474.44 801.885 2471.38 802.8 2469.22 802.495C2469.47 800.934 2469.7 799.385 2469.89 797.861C2471.31 799.044 2472.72 800.215 2474.11 801.385ZM2506.32 802.995C2502.57 804.41 2498.54 804.532 2494.55 804.275C2493.55 805.629 2492.48 807.202 2490.68 805.763C2490.67 803.824 2492.26 801.434 2494.38 801.824C2498.38 802.141 2502.53 801.385 2506.32 802.995ZM2470.88 805.763C2469.16 806.153 2467.45 806.483 2465.67 806.861C2467.84 807.105 2469.99 807.336 2472.11 807.568C2471.28 808.288 2470.43 809.019 2469.56 809.775C2468.42 809.324 2467.24 808.897 2466.05 808.483C2463.3 808.934 2457.43 811.909 2457.24 807.458C2458.74 807.263 2460.22 807.092 2461.68 806.922C2461.57 805.08 2461.69 803.239 2463.24 802.02C2465.78 803.324 2468.34 804.532 2470.88 805.763ZM2361.83 803.714C2358.17 801.861 2361.64 807.727 2361.83 803.714ZM2510.61 809.007C2512.02 810.629 2509.47 813.556 2507.73 812.031C2506.25 810.385 2508.96 807.617 2510.61 809.007ZM2457.56 816.921C2452.14 818.007 2447.89 814.458 2443.94 811.397C2445.43 810.3 2447.11 809.361 2448.98 809.373C2451.99 811.714 2454.7 814.409 2457.56 816.921ZM2480.42 823.47C2481.95 824.445 2480.69 827.872 2478.92 826.311C2477.53 825.287 2478.65 822.007 2480.42 823.47ZM2504.53 824.628C2505.64 826.287 2502.66 827.616 2501.52 826.397C2500.17 824.641 2503.46 823.238 2504.53 824.628ZM2469.43 825.909C2470.2 827.872 2469.56 828.531 2467.51 827.86C2466.81 825.86 2467.44 825.214 2469.43 825.909ZM2466.95 829.762C2468.84 829.36 2470.01 832.018 2467.74 832.457C2465.66 833.665 2464.66 829.884 2466.95 829.762ZM2510.69 830.592C2511.72 832.201 2508.94 833.86 2507.69 832.665C2506.62 830.994 2509.48 829.262 2510.69 830.592ZM2337.89 831.787C2336.63 834.079 2334.85 836.323 2332.03 836.591C2331.68 835.482 2331.3 834.372 2330.89 833.287C2331.85 833.348 2332.78 833.409 2333.68 833.494C2334.88 832.36 2336.17 831.348 2337.89 831.787ZM2493.23 835.128C2494.59 838.969 2488.22 838.116 2485.83 838.908C2485.81 838.067 2485.79 836.36 2485.78 835.506C2488.22 835.335 2490.94 834.03 2493.23 835.128ZM2475.69 837.067C2475.32 838.164 2474.94 839.286 2474.54 840.42C2472.53 839.25 2468.72 838.738 2469.6 835.579C2471.65 836.043 2473.69 836.53 2475.69 837.067ZM2475.58 842.811C2472.54 845.274 2475.1 848.42 2474.8 851.566C2472.87 850.298 2470.98 848.944 2469.01 847.688C2465.55 849.079 2464.55 845.798 2463.6 843.201C2465.96 843.054 2468.31 842.908 2470.62 842.713C2472.3 842.457 2473.94 842.494 2475.58 842.811ZM2492.57 844.359C2491.38 849.274 2485.79 849.14 2481.75 848.627C2484.24 845.03 2488.41 843.847 2492.57 844.359ZM2494.5 848.445L2493.94 849.884C2490.29 851.383 2486.29 851.615 2482.36 851.554L2483.12 850.03C2487 850.03 2490.85 849.798 2494.5 848.445ZM2471.92 851.542C2472.59 852.493 2473.1 853.53 2473.44 854.652C2470.92 854.7 2467.84 856.274 2465.65 854.371C2467.78 853.444 2469.87 852.554 2471.92 851.542ZM2343.59 855.237C2345.03 857.054 2341.75 858.786 2340.5 857.188C2339.1 855.347 2342.42 853.639 2343.59 855.237ZM2497.87 875.651C2496.33 875.553 2494.78 875.456 2493.2 875.37C2492.68 874.2 2492.15 873.041 2491.6 871.895C2494.51 871.358 2496.26 873.675 2497.87 875.651ZM2490.77 877.065C2490.61 877.663 2490.32 878.846 2490.17 879.443C2487.25 878.468 2482.36 878.943 2481.39 875.358C2484.55 875.797 2487.63 876.602 2490.77 877.065ZM2496.31 877.431C2497.6 879.138 2494.43 880.638 2493.29 879.224C2492.26 877.529 2495.21 876.175 2496.31 877.431ZM2498.61 884.59C2498.22 884.919 2497.44 885.565 2497.05 885.882C2495.7 885.87 2494.33 885.858 2492.94 885.846C2494.78 885.187 2496.72 884.833 2498.61 884.59Z" fill="#EFEFEF"/>
<path d="M810.06 829.14V808.014H803.566V777.42H775.145V782.356H741.851V803.084H737.792V829.427H726.303V815.245H701.169V803.731H667.026V786.457H657.282V728.22H643.928V676.891H616.399V716.376H600.441V758.819H596.382V810.578H588.26V826.926H569.585V794.679H561.465V765.729H550.909V758.819H498.939V765.729H477.826V782.016H472.142V802.627H464.182V681.335H455.248V672.451H418.707V651.72H389.475V681.335V693.179V714.893H384.604V817.369V810.742L384.605 748.481V646.937H378.109V617.323H366.74V581.816H347.082V617.323H338.321V634.597H332.636V730.345H315.584V751.877H244.126V601.531H239.254V593.632H200.277V601.531H194.595V751.877H168.609V689.38H164.614V659.768H150.746V652.858H121.513V659.768H103.648V676.549H96.3397V730.345H84.9725V736.674H71.168V696.29H69.7164V673.263H47.7919V693.004H28.3048V696.29H25.6955V736.674H8.81574V777.755H-1.97754V838.128H820.543V829.14H810.06Z" fill="#EFEFEF"/>
<path d="M840.551 821.163V807.909H844.61V788.715H862.37V791.812H883.175V804.817H885.712V821.343H892.891V812.445H908.598V805.222H929.934V794.385H936.023V757.849H944.368V725.647H961.572V750.418H971.544V777.046H974.08V809.518H979.156V819.774H990.826V799.544H995.9V781.381H1002.5V777.046H1034.97V781.381H1048.17V791.599H1051.72V804.53H1056.69V728.435H1062.28V722.861H1085.11V709.856H1103.38V728.435V735.865V749.488H1106.42V813.778V809.621L1106.42 770.56V706.855H1110.48V688.276H1117.59V666H1129.87V688.276H1135.34V699.113H1138.9V759.182H1149.55V772.691H1194.21V678.369H1197.25V673.413H1221.61V678.369H1225.16V772.691H1241.4V733.482H1243.9V714.904H1252.56V710.569H1270.83V714.904H1281.99V725.432H1286.56V759.182H1293.66V763.153H1302.29V737.817H1303.2V723.37H1316.9V735.755H1329.08V737.817H1330.71V763.153H1341.26V788.926H1348V826.802H834V821.163H840.551Z" fill="#EFEFEF"/>
<path d="M1350.57 820.477V805.146H1355.26V782.945H1375.79V786.528H1399.83V801.569H1402.76V820.686H1411.06V810.394H1429.21V802.038H1453.87V789.503H1460.9V747.242H1470.55V709.994H1490.43V738.647H1501.95V769.447H1504.88V807.007H1510.75V818.871H1524.23V795.47H1530.1V774.461H1537.72V769.447H1575.25V774.461H1590.5V786.281H1594.61V801.238H1600.35V713.218H1606.81V706.771H1633.19V691.728H1654.3V713.218V721.813V737.571H1657.82V811.935V807.126L1657.82 761.945V688.257H1662.51V666.766H1670.72V641H1684.92V666.766H1691.25V679.302H1695.35V748.784H1707.67V764.409H1759.27V655.307H1762.79V649.574H1790.94V655.307H1795.04V764.409H1813.81V719.056H1816.69V697.568H1826.71V692.553H1847.82V697.568H1860.72V709.745H1866V748.784H1874.21V753.377H1884.18V724.071H1885.22V707.36H1901.06V721.686H1915.13V724.071H1917.02V753.377H1929.21V783.189H1937V827H1343V820.477H1350.57Z" fill="#EFEFEF"/>
</g>
<defs>
<clipPath id="clip0">
<rect width="2500" height="960" fill="white"/>
</clipPath>
</defs>
</svg>
