<svg width="43" height="51" viewBox="0 0 43 51" fill="none" xmlns="http://www.w3.org/2000/svg">
<path fill-rule="evenodd" clip-rule="evenodd" d="M3.56774 0.539062C1.7763 0.539062 0.299805 1.85244 0.299805 3.44596V47.6324C0.299805 49.2259 1.7763 50.5391 3.56774 50.5391H39.5437C41.3351 50.5391 42.8116 49.2259 42.8116 47.6324V12.9355L42.4984 12.6515L29.1393 0.539062H3.56774ZM3.56774 2.48644H27.5851V11.3517C27.5851 12.957 29.0503 14.3071 30.8748 14.3071H40.6224V47.6324C40.6224 48.1808 40.1602 48.5919 39.5437 48.5919H3.56774C2.95122 48.5919 2.48905 48.1808 2.48905 47.6324V3.44596C2.48905 2.89755 2.95122 2.48644 3.56774 2.48644ZM29.7743 3.89557L39.1097 12.3597H30.8748C30.2912 12.3597 29.7743 11.8884 29.7743 11.3517V3.89557ZM17.5006 28.716C16.8583 28.716 16.2915 28.8085 15.8 28.9936C15.4304 29.1308 15.0896 29.3415 14.7775 29.6255C14.4689 29.9095 14.2249 30.2303 14.0456 30.5877C13.8052 31.0728 13.6852 31.6728 13.6852 32.3876C13.6852 33.5046 14.0312 34.3823 14.7236 35.0205C15.4161 35.6556 16.3489 35.9732 17.5221 35.9732C18.6809 35.9732 19.6066 35.654 20.299 35.0157C20.9914 34.3743 21.3379 33.4871 21.3379 32.3541C21.3379 31.2116 20.9878 30.3196 20.2882 29.6782C19.5922 29.0367 18.663 28.716 17.5006 28.716ZM25.9876 28.716C24.8826 28.716 23.9908 29.0399 23.3127 29.6877C22.6346 30.3324 22.2958 31.2387 22.2958 32.4068C22.2958 33.511 22.633 34.3823 23.3075 35.0205C23.982 35.6556 24.8431 35.9732 25.8907 35.9732C26.7374 35.9732 27.435 35.7881 27.984 35.4179C28.5365 35.0445 28.9311 34.4748 29.1679 33.7089L27.6236 33.2732C27.4909 33.7871 27.272 34.1636 26.9671 34.403C26.6621 34.6423 26.2977 34.762 25.8744 34.762C25.3003 34.762 24.8339 34.5737 24.4751 34.1972C24.1164 33.8206 23.937 33.1887 23.937 32.3015C23.937 31.4653 24.1184 30.8606 24.4807 30.4872C24.8467 30.1138 25.3219 29.9271 25.9067 29.9271C26.33 29.9271 26.6888 30.0324 26.983 30.243C27.2808 30.4537 27.4765 30.7409 27.5698 31.1047L29.1464 30.7696C28.967 30.2079 28.6979 29.7771 28.3391 29.4771C27.7364 28.9697 26.9527 28.716 25.9876 28.716ZM6.03769 28.8356V35.8535H9.03547C9.62387 35.8535 10.0939 35.804 10.4455 35.7051C10.9155 35.571 11.2886 35.3843 11.5648 35.145C11.9308 34.829 12.2122 34.4158 12.4095 33.9051C12.571 33.4871 12.6519 32.9892 12.6519 32.4116C12.6519 31.7541 12.5658 31.202 12.3936 30.7552C12.2214 30.3053 11.9703 29.9255 11.6402 29.6159C11.3101 29.3064 10.9134 29.0909 10.4506 28.9697C10.1062 28.8803 9.60593 28.8356 8.94937 28.8356H6.03769ZM29.9915 28.8356L32.4348 32.1914L29.7384 35.8535H31.6491L33.4035 33.4264L35.1523 35.8535H37.0737L34.3773 32.244L36.8314 28.8356H34.9857L33.4358 31.0903L31.8536 28.8356H29.9915ZM17.5169 29.9271C18.1735 29.9271 18.6989 30.1249 19.0935 30.5207C19.4918 30.9164 19.6911 31.5164 19.6911 32.3206C19.6911 33.1344 19.4866 33.7456 19.0776 34.1541C18.6722 34.5594 18.1519 34.762 17.5169 34.762C16.8819 34.762 16.3581 34.5578 15.9455 34.1493C15.5329 33.7376 15.3264 33.1344 15.3264 32.3398C15.3264 31.5323 15.5273 30.9292 15.9291 30.5303C16.3309 30.1281 16.8604 29.9271 17.5169 29.9271ZM7.63065 30.0228H8.34663C8.99601 30.0228 9.43171 30.0452 9.65415 30.0898C9.95193 30.1473 10.1979 30.2574 10.3916 30.4202C10.5854 30.5829 10.7361 30.8095 10.8437 31.0999C10.9513 31.3903 11.0051 31.8068 11.0051 32.3493C11.0051 32.8919 10.9513 33.3211 10.8437 33.6371C10.7361 33.9498 10.5961 34.1748 10.4239 34.312C10.2553 34.4493 10.0416 34.5466 9.78331 34.6041C9.58598 34.6487 9.26509 34.6711 8.82021 34.6711H7.63065V30.0228Z" fill="#008FCA"/>
</svg>
