<svg width="38" height="50" viewBox="0 0 38 50" fill="none" xmlns="http://www.w3.org/2000/svg">
<path fill-rule="evenodd" clip-rule="evenodd" d="M0 2.9069C0 1.31338 1.30243 0 2.88267 0H25.4395L37.2237 12.1124L37.5 12.3964V47.0933C37.5 48.6868 36.1976 50 34.6173 50H2.88267C1.30243 50 0 48.6868 0 47.0933V2.9069ZM2.88267 1.94738H24.0685L35.5689 13.768V47.0933C35.5689 47.6417 35.1612 48.0528 34.6173 48.0528H2.88267C2.33883 48.0528 1.93115 47.6417 1.93115 47.0933V2.9069C1.93115 2.35849 2.33883 1.94738 2.88267 1.94738ZM12.9415 12.3574C12.7241 12.1356 12.423 12 12.091 12C11.7589 12 11.4579 12.1356 11.2404 12.3574C11.0221 12.5777 10.8874 12.8846 10.8874 13.2244C10.8874 13.5624 11.0203 13.8665 11.2383 14.0859C11.4555 14.3048 11.7568 14.44 12.0909 14.44C12.4229 14.44 12.7264 14.3048 12.9415 14.0859C13.1594 13.8665 13.294 13.5624 13.294 13.2244C13.2941 12.8846 13.1594 12.5777 12.9415 12.3574ZM11.3482 20.1681H26.1723V16.3199L23.1148 13.0105L18.5324 16.6634C18.3858 16.7805 18.1863 16.7819 18.0406 16.6796L15.8437 15.2112L11.3482 20.1681ZM27.1107 33.3825H29.1748V34.4634C28.9038 34.6659 28.5759 34.8379 28.1962 34.9791C27.8166 35.1204 27.4405 35.1919 27.0608 35.1919C26.2979 35.1919 25.6812 34.94 25.2089 34.4327C24.7383 33.9272 24.503 33.1681 24.503 32.1553C24.503 31.2157 24.7365 30.5076 25.2017 30.0327C25.6669 29.5544 26.2926 29.3161 27.0804 29.3161C27.6027 29.3161 28.034 29.437 28.3816 29.6804C28.7292 29.9238 28.9662 30.2523 29.091 30.671L30.8806 30.351C30.7023 29.568 30.3031 28.9536 29.6792 28.5093C29.0554 28.065 28.1891 27.8438 27.0786 27.8438C26.2248 27.8438 25.5137 27.985 24.9415 28.2676C24.1911 28.6369 23.6207 29.1646 23.2304 29.8557C22.84 30.5468 22.6457 31.3365 22.6457 32.2251C22.6457 33.0421 22.8204 33.8013 23.1698 34.4974C23.5173 35.1936 24.0396 35.7298 24.7347 36.1026C25.4299 36.4753 26.2445 36.6643 27.1767 36.6643C27.911 36.6643 28.6383 36.5315 29.3566 36.266C30.0749 36.0004 30.6203 35.6923 31 35.3434V31.9459H27.1107V33.3825ZM10.6683 34.8616C10.834 34.642 10.9178 34.1876 10.9178 33.4982L10.916 27.9867H12.7145V33.3859C12.7145 34.0922 12.6485 34.6335 12.5202 35.0148C12.3455 35.5118 12.0283 35.9084 11.5702 36.2097C11.1103 36.511 10.5043 36.6625 9.75387 36.6625C8.86978 36.6625 8.19423 36.4259 7.71832 35.9544C7.2442 35.4829 7.00356 34.7918 7 33.8795L8.69866 33.6939C8.72005 34.1824 8.79491 34.528 8.92503 34.7305C9.11932 35.0369 9.41521 35.1901 9.81447 35.1901C10.2173 35.1901 10.5007 35.0812 10.6683 34.8616ZM17.531 27.9886C18.6272 27.9886 19.3402 28.0312 19.6753 28.1163C20.1868 28.244 20.6146 28.5214 20.9604 28.9521C21.3062 29.381 21.4791 29.9359 21.4791 30.615C21.4791 31.1359 21.3793 31.5768 21.1796 31.9342C20.98 32.2917 20.7287 32.5708 20.4221 32.7751C20.1155 32.9776 19.8036 33.1121 19.4863 33.1785C19.0568 33.2602 18.4329 33.2993 17.6165 33.2993H16.4401V36.5181H14.6363V27.9886H17.531ZM18.8518 31.7163C19.0906 31.6278 19.2796 31.4882 19.415 31.2976C19.5505 31.1087 19.6182 30.8874 19.6182 30.6355C19.6182 30.3257 19.522 30.0687 19.333 29.8678C19.1423 29.6652 18.8999 29.5376 18.6076 29.4882C18.3919 29.4508 17.9588 29.4304 17.31 29.4304H16.4384V31.8508H17.4258C18.1388 31.8508 18.6129 31.8065 18.8518 31.7163Z" fill="#47A4A5"/>
</svg>
