<svg width="44" height="51" viewBox="0 0 44 51" fill="none" xmlns="http://www.w3.org/2000/svg">
<path fill-rule="evenodd" clip-rule="evenodd" d="M3.99157 0.445312C2.20013 0.445312 0.723633 1.75869 0.723633 3.35221V47.5386C0.723633 49.1321 2.20013 50.4453 3.99157 50.4453H39.9675C41.759 50.4453 43.2355 49.1321 43.2355 47.5386V12.8417L42.9222 12.5578L29.5631 0.445312H3.99157ZM3.99157 2.39269H28.0089V11.258C28.0089 12.8632 29.4742 14.2133 31.2986 14.2133H41.0462V47.5386C41.0462 48.087 40.584 48.4981 39.9675 48.4981H3.99157C3.37505 48.4981 2.91288 48.087 2.91288 47.5386V3.35221C2.91288 2.8038 3.37505 2.39269 3.99157 2.39269ZM30.1981 3.80182L39.5335 12.2659H31.2986C30.715 12.2659 30.1982 11.7947 30.1981 11.258V3.80182ZM9.01327 27.9476V36.7198H11.0045V33.4108H12.3027C13.2042 33.4108 13.8926 33.369 14.368 33.2852C14.7178 33.2174 15.0608 33.0796 15.3972 32.8722C15.738 32.6607 16.0182 32.3716 16.238 32.0046C16.4577 31.6375 16.5676 31.1847 16.5676 30.6462C16.5676 29.9481 16.377 29.3796 15.9958 28.9408C15.6146 28.498 15.1414 28.2108 14.5764 28.0792C14.2086 27.9914 13.4193 27.9476 12.2085 27.9476H9.01327ZM18.209 27.9476V36.7198H21.9561C22.6916 36.7198 23.279 36.6579 23.7185 36.5343C24.306 36.3667 24.7724 36.1334 25.1177 35.8342C25.5751 35.4393 25.9271 34.9226 26.1738 34.2844C26.3756 33.7618 26.4766 33.1394 26.4766 32.4174C26.4766 31.5956 26.369 30.9056 26.1537 30.3471C25.9385 29.7846 25.6246 29.3098 25.212 28.9228C24.7994 28.5359 24.3037 28.2668 23.7251 28.1152C23.2946 28.0035 22.6691 27.9476 21.8484 27.9476H18.209ZM28.1852 27.9476V36.7198H30.1764V32.9918H34.2934V31.5079H30.1764V29.4316H34.9458V27.9476H28.1852ZM11.0045 29.4316H11.9663C12.6838 29.4316 13.1616 29.4515 13.3993 29.4913C13.7222 29.5432 13.9889 29.6728 14.1997 29.8802C14.4104 30.0877 14.5159 30.351 14.5159 30.6701C14.5159 30.9294 14.4397 31.1569 14.2873 31.3524C14.1393 31.5478 13.933 31.6915 13.6684 31.7832C13.4038 31.875 12.879 31.9209 12.0941 31.9209H11.0045V29.4316ZM20.2002 29.4316H21.095C21.9067 29.4316 22.4515 29.4594 22.7295 29.5153C23.1018 29.5871 23.4091 29.7247 23.6513 29.9281C23.8935 30.1316 24.0818 30.4149 24.2164 30.7779C24.3509 31.1409 24.4181 31.6615 24.4181 32.3397C24.4181 33.0178 24.3509 33.5543 24.2164 33.9493C24.0818 34.3402 23.9068 34.6216 23.6915 34.7931C23.4808 34.9647 23.2139 35.0863 22.891 35.1581C22.6443 35.2139 22.2431 35.2418 21.687 35.2418H20.2002V29.4316Z" fill="#E51C26"/>
</svg>
