<svg width="38" height="50" viewBox="0 0 38 50" fill="none" xmlns="http://www.w3.org/2000/svg">
<path fill-rule="evenodd" clip-rule="evenodd" d="M2.88267 0C1.30243 0 0 1.31338 0 2.9069V47.0933C0 48.6868 1.30243 50 2.88267 50H34.6173C36.1976 50 37.5 48.6868 37.5 47.0933V12.3964L37.2237 12.1124L25.4395 0H2.88267ZM2.88267 1.94738H24.0685V10.8127C24.0685 12.4179 25.3611 13.768 26.9704 13.768H35.5689V47.0933C35.5689 47.6417 35.1612 48.0528 34.6173 48.0528H2.88267C2.33883 48.0528 1.93115 47.6417 1.93115 47.0933V2.9069C1.93115 2.35849 2.33883 1.94738 2.88267 1.94738ZM25.9997 3.3565L34.2345 11.8206H26.9704C26.4556 11.8206 25.9997 11.3493 25.9997 10.8127V3.3565Z" fill="#5D147D"/>
<path d="M8.7 36V33.06H10.02L12.288 36H14.364L11.856 32.832C12.876 32.508 13.692 31.776 13.692 30.336C13.692 28.212 11.988 27.6 10.356 27.6H6.9V36H8.7ZM8.7 29.184H10.44C11.196 29.184 11.856 29.508 11.856 30.372C11.856 31.224 11.196 31.56 10.44 31.56H8.7V29.184ZM16.0087 36L16.6327 34.428H20.4727L21.0847 36H22.9447L19.5247 27.6H17.5807L14.1487 36H16.0087ZM18.3607 29.928C18.4327 29.76 18.4927 29.592 18.5527 29.268C18.6127 29.592 18.6727 29.76 18.7327 29.928L19.9087 32.94H17.1967L18.3607 29.928ZM25.3238 36V33.06H26.6438L28.9118 36H30.9878L28.4798 32.832C29.4998 32.508 30.3158 31.776 30.3158 30.336C30.3158 28.212 28.6118 27.6 26.9798 27.6H23.5238V36H25.3238ZM25.3238 29.184H27.0638C27.8198 29.184 28.4798 29.508 28.4798 30.372C28.4798 31.224 27.8198 31.56 27.0638 31.56H25.3238V29.184Z" fill="#5D147D"/>
</svg>
