<svg width="284" height="284" viewBox="0 0 284 284" fill="none" xmlns="http://www.w3.org/2000/svg">
<path fill-rule="evenodd" clip-rule="evenodd" d="M154.298 16.7602C157.439 17.0739 160.545 17.5033 163.613 18.0444C163.211 17.9202 162.819 17.7988 162.436 17.6804C164.325 18.0972 167.061 17.933 168.311 15.1097C169.846 11.6434 172.594 5.75422 173.776 3.24291L185.848 6.34742L184.533 19.2814C184.464 20.5418 184.981 23.3173 187.509 24.769C190.176 25.8162 192.798 26.952 195.372 28.1729C196.548 28.0868 197.756 27.5578 198.759 26.2322C201.171 23.0453 205.407 17.6628 207.223 15.3699L218.367 21.3021L213.735 34.2037C213.413 35.2461 213.218 37.4192 214.332 39.304C216.312 40.7134 218.25 42.1789 220.142 43.6982C220.136 43.6903 220.13 43.6824 220.124 43.6745C220.135 43.6862 220.146 43.6979 220.157 43.7096C220.944 44.3417 221.723 44.9831 222.495 45.6337C223.857 46.3146 225.568 46.5203 227.301 45.2568C230.364 43.0233 235.69 39.2986 237.969 37.7155L246.869 46.4424L239.26 56.9837C238.697 57.8468 237.966 59.7797 238.513 61.8329C240.844 64.6606 243.053 67.5922 245.133 70.6197C244.589 69.616 244.068 68.6522 243.581 67.7509C244.638 69.3707 246.707 71.1696 249.576 70.029C253.099 68.6288 259.184 66.3479 261.787 65.3825L268.232 76.051L258.237 84.3649C257.26 85.2586 255.576 87.7932 256.654 90.7826C256.836 91.2888 256.709 91.1992 256.348 90.656C257.396 93.0135 258.374 95.4093 259.278 97.8408C260.202 98.8609 261.575 99.5767 263.53 99.2865C267.483 98.6995 274.276 97.822 277.178 97.4567L280.982 109.495L268.641 115.463C267.542 116.057 265.523 117.826 265.346 120.493C265.717 122.686 266.031 124.899 266.286 127.13C266.294 127.051 266.302 126.975 266.312 126.902L266.298 127.238C266.398 128.113 266.488 128.991 266.57 129.872C267.035 131.351 268.098 132.759 270.261 133.1C274.005 133.691 280.404 134.83 283.135 135.326L283.242 147.79L270.406 149.848C269.456 150.047 267.731 150.809 266.642 152.43C266.378 155.51 266.002 158.557 265.519 161.569C265.598 163.4 266.32 165.44 268.457 166.365C271.937 167.87 277.849 170.566 280.371 171.727L277.371 183.825L264.426 182.621C263.276 182.569 260.872 183.013 259.373 185.018C258.253 188.048 257.02 191.024 255.678 193.94C255.857 194.984 256.415 196.029 257.597 196.908C260.805 199.292 266.224 203.481 268.532 205.277L262.696 216.472L249.755 211.951C248.826 211.673 247.002 211.503 245.291 212.264C242.925 215.725 240.389 219.061 237.697 222.261C237.473 224.053 238.098 225.695 238.598 226.495L246.383 237.778L237.132 246.369C234.788 244.618 229.314 240.501 226.167 238.039C225.122 237.222 224.081 236.928 223.115 236.954C220.424 239.253 217.635 241.44 214.754 243.508C213.676 245.352 213.876 247.42 214.195 248.404L218.782 260.569L207.909 266.664C206.123 264.54 201.957 259.552 199.585 256.595C198.49 255.23 197 254.803 195.569 254.847C192.175 256.465 188.696 257.934 185.142 259.247C184.314 260.571 184.123 262.028 184.174 262.845L185.586 275.769L173.538 278.964C172.337 276.462 169.545 270.593 167.984 267.138C167.389 265.821 166.473 265.089 165.473 264.727C161.418 265.506 157.293 266.089 153.11 266.467C151.549 267.575 150.771 269.283 150.548 270.244L148.059 283.724L135.444 283.243C135.028 280.347 134.076 273.564 133.596 269.597C133.433 268.25 132.885 267.293 132.159 266.624C128.612 266.358 125.106 265.944 121.648 265.389C119.592 265.932 118.275 267.528 117.806 268.446L112.434 280.285L100.44 276.893C100.682 274.128 101.271 267.656 101.689 263.888C101.889 262.082 101.181 260.813 100.189 259.954C96.5069 258.663 92.9031 257.206 89.3868 255.591C87.9748 255.972 86.8961 256.808 86.3802 257.391L78.229 267.519L67.4577 261.247C68.3809 258.629 70.5632 252.508 71.9063 248.963C72.3545 247.78 72.3116 246.739 71.9923 245.852C68.2782 243.365 64.7044 240.685 61.2852 237.827C59.7304 237.799 58.3605 238.354 57.6537 238.804L46.4386 246.687L37.7682 237.51C39.4985 235.151 43.5679 229.642 46.0029 226.473C46.6828 225.588 46.9921 224.709 47.0528 223.876C44.5271 220.975 42.1325 217.957 39.8784 214.831C38.1829 214.093 36.4188 214.299 35.5351 214.594L23.4106 219.286L17.2216 208.466C19.3305 206.662 24.2823 202.453 27.2187 200.055C28.5063 199.004 28.9367 197.741 28.9188 196.532C26.3435 191.259 24.1271 185.779 22.3014 180.124C20.9499 179.146 19.3749 178.851 18.4887 178.853L4.7964 179.513L2.38025 167.122C5.10392 166.055 11.4894 163.577 15.242 162.202C16.3955 161.78 17.1656 161.123 17.6611 160.365C17.1195 156.764 16.7311 153.112 16.5026 149.418C15.483 147.668 13.7205 146.805 12.7536 146.566L-2.6659e-06 144.044L0.559104 131.592C3.30625 131.195 9.74142 130.289 13.5049 129.834C15.1912 129.63 16.3239 128.643 17.0446 127.452C17.4739 123.616 18.0763 119.832 18.8437 116.108C18.1531 114.738 17.0369 113.826 16.3255 113.443L4.602 107.824L8.24488 95.9037C11.0042 96.2039 17.4624 96.9285 21.2206 97.4254C22.6356 97.6124 23.7313 97.2323 24.5625 96.5887C26.0675 92.6716 27.7633 88.849 29.6385 85.1325C29.5172 83.2281 28.4797 81.6715 27.7823 80.9766L17.6443 71.7498L24.7099 61.2873C27.389 62.4618 33.653 65.2321 37.2767 66.9176C38.5398 67.5051 39.6679 67.531 40.6356 67.2443C42.6777 64.4722 44.8311 61.7872 47.0892 59.1958C47.8263 57.089 47.1383 55.024 46.5881 54.1103L39.3658 43.3004L48.5755 34.9015C50.7965 36.5662 55.9836 40.4813 58.9638 42.8242C60.5429 44.0657 62.1504 44.0183 63.4866 43.4886C66.368 41.188 69.3531 39.0117 72.4337 36.9679C72.9394 35.4913 72.7954 34.0299 72.5611 33.2456L68.2588 20.9775L79.2702 15.1371C81.0066 17.3025 85.055 22.3862 87.3577 25.3976C88.1925 26.4893 89.1903 27 90.194 27.156C94.1229 25.3849 98.1593 23.8103 102.291 22.4447C103.238 21.0923 103.515 19.533 103.505 18.654L102.727 4.96791L115.097 2.44467C116.187 5.15901 118.72 11.5228 120.127 15.2634C120.561 16.4164 121.227 17.1819 121.992 17.6706C125.409 17.1318 128.872 16.731 132.374 16.474C133.636 15.9377 134.75 14.8979 135.063 13.018C135.686 9.27868 136.881 2.89066 137.4 0.164062H149.864L151.812 13.018C152 13.9567 152.73 15.6555 154.298 16.7602ZM243.581 67.7509C243.388 67.3933 243.201 67.0455 243.02 66.709C243.153 67.0225 243.341 67.382 243.581 67.7509ZM162.436 17.6804C162.048 17.5602 161.671 17.4432 161.306 17.3298C161.62 17.4604 162.006 17.5855 162.436 17.6804ZM62.2234 118.961L92.6296 103.744V213.228C92.6296 213.228 113.297 202.355 127.165 190.589C137.424 181.885 144.058 173.517 144.058 173.517C144.058 173.517 158.235 188.645 166.581 195.043C181.016 206.108 195.861 213.228 195.861 213.228L207.122 203.579C207.122 203.579 189.479 195.043 177.467 186.136C165.454 177.228 152.316 162.383 152.316 162.383C152.316 162.383 169.208 140.857 176.716 111.538C184.224 82.2186 180.845 54.7549 180.845 54.7549L165.83 48.0745C168.324 85.138 160.95 114.136 155.319 125.641C149.688 137.146 137.676 159.043 124.913 171.661C120.784 175.744 110.612 185.694 109.147 185.393V78.1362L68.9803 98.9196L62.2234 118.961ZM253.086 141.167C253.086 202.477 203.385 252.179 142.075 252.179C80.765 252.179 31.0635 202.477 31.0635 141.167C31.0635 79.8574 80.765 30.1559 142.075 30.1559C203.385 30.1559 253.086 79.8574 253.086 141.167Z" fill="#F4F3F4"/>
</svg>
