<svg width="292" height="293" viewBox="0 0 292 293" fill="none" xmlns="http://www.w3.org/2000/svg">
<path fill-rule="evenodd" clip-rule="evenodd" d="M168.688 18.601C165.52 18.042 162.313 17.5984 159.071 17.2745C157.453 16.1357 156.699 14.3834 156.506 13.4154L154.498 0.164062H141.648C141.113 2.97495 139.881 9.56044 139.239 13.4154C138.916 15.3545 137.766 16.4266 136.465 16.9792C132.855 17.2441 129.286 17.6572 125.765 18.2124C124.975 17.7087 124.288 16.9192 123.841 15.7296C122.39 11.8734 119.779 5.3129 118.654 2.51465L105.902 5.11589L106.704 19.225C106.715 20.1316 106.429 21.7401 105.451 23.1348C101.193 24.5424 97.0328 26.1653 92.9833 27.9907C91.9487 27.8298 90.9202 27.3032 90.0597 26.178C87.6859 23.0735 83.5123 17.8327 81.7222 15.6003L70.3703 21.6212L74.8057 34.2686C75.0472 35.077 75.1956 36.5832 74.6746 38.1051C71.4983 40.2124 68.4205 42.4562 65.4495 44.8282C64.0719 45.3744 62.4147 45.4234 60.7867 44.1434C57.7144 41.728 52.367 37.6919 50.0773 35.9757L40.5828 44.6343L48.0284 55.7784C48.5956 56.7203 49.3048 58.8491 48.5451 61.0209C46.2169 63.6926 43.9967 66.4609 41.8913 69.319C40.894 69.614 39.7317 69.587 38.4303 68.9817C34.6946 67.2441 28.2368 64.3881 25.475 63.1773L18.1909 73.9633L28.6424 83.4753C29.361 84.1914 30.4299 85.795 30.5558 87.7572C28.6218 91.5899 26.873 95.5319 25.321 99.5715C24.4642 100.234 23.3351 100.626 21.8771 100.433C18.0027 99.9208 11.3448 99.1738 8.50018 98.8643L4.74469 111.153L16.8306 116.946C17.5638 117.341 18.7141 118.28 19.426 119.692C18.6348 123.531 18.0137 127.433 17.571 131.388C16.828 132.616 15.6604 133.633 13.9224 133.843C10.0426 134.312 3.40847 135.247 0.576398 135.656L2.00864e-06 148.492L13.1479 151.093C14.1445 151.339 15.9611 152.228 17.0123 154.031C17.2478 157.841 17.6483 161.606 18.2067 165.319C17.6959 166.1 16.9019 166.777 15.7126 167.213C11.844 168.63 5.26111 171.185 2.45324 172.285L4.94409 185.059L19.0596 184.379C19.9733 184.376 21.5973 184.681 22.9908 185.689C24.873 191.519 27.1581 197.169 29.8131 202.605C29.8311 203.85 29.3872 205.152 28.0604 206.235C25.0332 208.707 19.9283 213.046 17.7543 214.906L24.1346 226.06L36.6339 221.223C37.5447 220.919 39.3627 220.707 41.1102 221.467C43.4344 224.691 45.9035 227.803 48.508 230.794C48.4451 231.652 48.1262 232.557 47.4257 233.469C44.9155 236.736 40.7202 242.416 38.9364 244.847L47.8748 254.308L59.4367 246.181C60.165 245.717 61.5765 245.146 63.1786 245.174C66.7034 248.121 70.3877 250.884 74.2164 253.447C74.5456 254.362 74.5897 255.434 74.1278 256.654C72.7431 260.308 70.4934 266.619 69.5416 269.318L80.6458 275.784L89.0491 265.343C89.5809 264.742 90.6927 263.88 92.1481 263.487C95.7746 265.153 99.4915 266.656 103.289 267.987C104.311 268.872 105.04 270.181 104.834 272.041C104.403 275.926 103.796 282.598 103.546 285.448L115.911 288.945L121.449 276.74C121.933 275.794 123.29 274.149 125.409 273.589C128.975 274.161 132.589 274.588 136.246 274.862C136.994 275.552 137.559 276.538 137.727 277.926C138.222 282.017 139.203 289.009 139.632 291.994L152.637 292.491L155.203 278.594C155.433 277.603 156.234 275.842 157.843 274.7C162.156 274.311 166.407 273.709 170.587 272.907C171.619 273.28 172.565 274.034 173.179 275.394C174.788 278.955 177.667 285.005 178.905 287.585L191.325 284.291L189.869 270.968C189.817 270.125 190.014 268.621 190.868 267.256C194.531 265.903 198.115 264.389 201.612 262.722C203.089 262.675 204.628 263.115 205.758 264.523C208.204 267.572 212.498 272.714 214.34 274.904L225.548 268.621L220.82 256.08C220.491 255.064 220.284 252.929 221.4 251.027C224.367 248.896 227.24 246.643 230.011 244.275C231.008 244.249 232.082 244.551 233.16 245.394C236.405 247.932 242.048 252.177 244.464 253.981L254.001 245.125L245.975 233.493C245.459 232.668 244.814 230.974 245.047 229.125C247.822 225.827 250.434 222.389 252.873 218.822C254.638 218.036 256.518 218.212 257.477 218.499L270.818 223.16L276.834 211.618C274.455 209.766 268.868 205.448 265.561 202.99C264.342 202.084 263.766 201.006 263.582 199.928C264.965 196.925 266.235 193.859 267.389 190.737C268.934 188.667 271.416 188.209 272.601 188.263L285.946 189.503L289.039 177.031C286.44 175.835 280.344 173.055 276.757 171.503C274.551 170.549 273.808 168.442 273.728 166.552C274.225 163.451 274.612 160.312 274.884 157.141C276.007 155.467 277.788 154.68 278.767 154.475L292.001 152.353L291.89 139.504C289.074 138.993 282.478 137.818 278.618 137.209C276.382 136.856 275.286 135.398 274.809 133.868C274.726 132.971 274.633 132.076 274.532 131.184L274.547 130.819C274.536 130.899 274.527 130.982 274.519 131.069C274.256 128.766 273.932 126.483 273.549 124.219C273.729 121.467 275.812 119.64 276.946 119.027L289.669 112.875L285.747 100.465C282.755 100.841 275.752 101.746 271.677 102.351C269.661 102.65 268.244 101.911 267.291 100.858C266.358 98.3479 265.349 95.8751 264.267 93.4419C264.645 94.0121 264.779 94.1094 264.59 93.584C263.478 90.5022 265.215 87.8892 266.222 86.9679L276.526 78.397L269.881 67.3987C267.198 68.3939 260.925 70.7454 257.293 72.1889C254.335 73.3646 252.202 71.5102 251.113 69.8403C250.914 69.4716 250.721 69.1131 250.534 68.7662C250.671 69.0893 250.865 69.46 251.113 69.8403C251.618 70.7751 252.159 71.7751 252.723 72.8166C250.576 69.6899 248.295 66.6623 245.888 63.7422C245.322 61.6245 246.076 59.6304 246.657 58.7402L254.501 47.8731L245.326 38.8763C242.976 40.5084 237.486 44.3483 234.328 46.6509C232.54 47.9548 230.773 47.7408 229.368 47.037C228.577 46.3692 227.777 45.7108 226.969 45.0619L226.929 45.0196L226.952 45.0482C225.001 43.482 223.003 41.9711 220.962 40.5181C219.81 38.5738 220.011 36.3305 220.343 35.2549L225.119 21.9545L213.63 15.8388C211.758 18.2026 207.391 23.7516 204.905 27.037C203.869 28.4054 202.622 28.9504 201.408 29.038C198.76 27.7822 196.063 26.6137 193.32 25.5362C190.702 24.0417 190.167 21.173 190.238 19.8714L191.594 6.53761L179.149 3.33713C177.931 5.92607 175.098 11.9973 173.515 15.5707C172.227 18.4814 169.405 18.6506 167.458 18.2209C167.058 18.097 166.669 17.9763 166.293 17.8595C166.617 17.9941 167.015 18.123 167.458 18.2209C167.858 18.3445 168.268 18.4714 168.688 18.601ZM146.468 259.97C209.673 259.97 260.911 208.732 260.911 145.527C260.911 82.3218 209.673 31.0839 146.468 31.0839C83.2627 31.0839 32.0248 82.3218 32.0248 145.527C32.0248 208.732 83.2627 259.97 146.468 259.97ZM85.9581 107.72H57.0174C60.3068 103.418 62.7656 100.601 65.2245 97.7848C67.6833 94.9681 70.1421 92.1515 73.4315 87.8499L106.26 87.418L106.692 141.412C123.875 118.84 129.896 97.7701 129.153 54.5898L148.159 75.7553C148.159 75.7553 148.159 97.3528 139.088 118.518C130.017 139.684 123.106 146.595 123.106 146.595L156.798 197.133L158.526 85.6902L220.727 84.8263L235.413 107.72L224.182 109.447V205.34L201.289 225.642L202.585 106.424H176.236C175.948 149.763 175.372 236.614 175.372 237.305C175.372 237.996 173.644 237.593 172.78 237.305L111.875 176.832C108.541 182.689 105.736 187.719 103.092 192.459C97.7301 202.07 93.0352 210.486 85.9581 222.186V107.72Z" fill="#F4F3F4"/>
</svg>
