<svg width="20" height="21" viewBox="0 0 20 21" fill="none" xmlns="http://www.w3.org/2000/svg">
<path fill-rule="evenodd" clip-rule="evenodd" d="M0 5.41406V15.4141C0 16.5186 0.895431 17.4141 2 17.4141H18C19.1046 17.4141 20 16.5186 20 15.4141V5.41406C20 4.30949 19.1046 3.41406 18 3.41406H2C0.895431 3.41406 0 4.30949 0 5.41406ZM19 5.43097V5.41406C19 4.86178 18.5523 4.41406 18 4.41406H2C1.44772 4.41406 1 4.86178 1 5.41406V5.43097L9.22826 10.3679C9.70328 10.6529 10.2967 10.6529 10.7717 10.3679L19 5.43097ZM1 6.59716V15.4141C1 15.9663 1.44772 16.4141 2 16.4141H18C18.5523 16.4141 19 15.9663 19 15.4141V6.59716L11.2862 11.2254C10.4945 11.7004 9.50547 11.7004 8.71376 11.2254L1 6.59716Z" fill="#616161"/>
</svg>
