<svg width="20" height="21" fill="none" xmlns="http://www.w3.org/2000/svg"><path fill-rule="evenodd" clip-rule="evenodd" d="M10 .514a9.901 9.901 0 10.753 19.772A9.901 9.901 0 0010 .514zm.188 1.102c.276.385.622.924.97 1.619.745 1.49 1.499 3.7 1.584 6.629H7.258c.085-2.93.838-5.138 1.584-6.629.347-.695.693-1.234.97-1.619a8.985 8.985 0 01.376 0zm-2.93 9.348h5.484c-.085 2.93-.839 5.138-1.584 6.63a11.887 11.887 0 01-.97 1.618 9.045 9.045 0 01-.377 0 11.884 11.884 0 01-.97-1.619c-.745-1.49-1.498-3.699-1.583-6.629zm-1.1-1.1c.085-3.123.888-5.498 1.7-7.12.183-.367.367-.695.542-.985a8.804 8.804 0 00-7.183 8.105h4.94zm-4.941 1.1h4.94c.086 3.123.889 5.498 1.7 7.121.184.367.368.695.543.984a8.804 8.804 0 01-7.183-8.105zm10.382 8.105a8.804 8.804 0 007.184-8.105h-4.94c-.086 3.123-.89 5.498-1.701 7.121-.184.367-.367.695-.543.984zm2.243-9.205c-.085-3.123-.889-5.498-1.7-7.12a13.71 13.71 0 00-.543-.985 8.804 8.804 0 017.184 8.105h-4.94z" fill="#000"/></svg>