<svg width="23" height="23" fill="none" xmlns="http://www.w3.org/2000/svg"><path d="M21.001 16.372v3.005a2.006 2.006 0 01-1.359 1.906c-.264.09-.543.123-.82.098a19.767 19.767 0 01-8.63-3.076 19.516 19.516 0 01-6-6.01 19.846 19.846 0 01-3.07-8.685 2.007 2.007 0 011.183-2.013 2 2 0 01.806-.17h3a1.998 1.998 0 012 1.722c.127.962.362 1.906.7 2.815a2.007 2.007 0 01-.45 2.114L7.091 9.35a16.014 16.014 0 006 6.01l1.27-1.272a2 2 0 012.11-.45c.908.338 1.85.574 2.81.7a1.999 1.999 0 011.72 2.034z" stroke="#3C3D40" stroke-width="2" stroke-linecap="round" stroke-linejoin="round"/></svg>