<svg width="20" height="19" fill="none" xmlns="http://www.w3.org/2000/svg"><g clip-path="url(#clip0)" fill-rule="evenodd" clip-rule="evenodd" fill="#3C3D40"><path d="M10 1.687a6.182 6.182 0 00-6.18 6.181c0 2.394 1.558 4.717 3.265 6.52a22.736 22.736 0 002.917 2.577 22.73 22.73 0 002.916-2.577c1.708-1.803 3.266-4.126 3.266-6.52A6.182 6.182 0 0010 1.687zm0 16.227l-.428.642-.003-.001-.005-.003-.017-.012a8.474 8.474 0 01-.298-.21 24.283 24.283 0 01-3.287-2.88c-1.769-1.867-3.689-4.567-3.689-7.582a7.727 7.727 0 1115.455 0c0 3.015-1.92 5.715-3.69 7.583a24.271 24.271 0 01-3.52 3.045 8.092 8.092 0 01-.063.044l-.018.012-.005.003-.002.001-.43-.642zm0 0l.43.643a.773.773 0 01-.858 0l.429-.643z"/><path d="M10.001 6.323a1.545 1.545 0 100 3.09 1.545 1.545 0 000-3.09zm-3.09 1.545a3.09 3.09 0 116.181 0 3.09 3.09 0 01-6.182 0z"/></g><defs><clipPath id="clip0"><path fill="#fff" transform="translate(.727 .141)" d="M0 0h18.546v18.546H0z"/></clipPath></defs></svg>