<svg width="2500" height="960" viewBox="0 0 2500 960" fill="none" xmlns="http://www.w3.org/2000/svg">
<g clip-path="url(#clip0)">
<path d="M2746 1061.88C2788.62 893.262 2387.39 837.954 2000 824.637C1769.37 816.708 1505.93 829.675 1414.5 824.637C1169.5 811.137 967.5 869.812 967.5 869.812L739.679 878.426C738.238 878.233 736.797 878.136 735.254 877.942C733.298 877.749 731.24 877.555 729.182 877.362C724.962 876.975 720.332 876.491 715.392 876.007C712.922 875.716 710.452 875.523 707.776 875.232C705.204 875.039 702.528 874.748 699.749 874.555C694.192 874.071 688.429 873.587 682.357 873.103C676.286 872.716 670.008 872.329 663.422 871.845C656.938 871.361 650.146 871.071 643.148 870.683C636.253 870.296 629.05 870.006 621.743 869.812L621.443 869.804C617.935 869.71 614.333 869.613 610.732 869.425C608.879 869.328 607.027 869.328 605.071 869.232C603.219 869.232 601.264 869.135 599.411 869.135C595.604 869.038 591.796 869.038 587.988 868.941C584.181 868.844 580.271 868.844 576.361 868.844H576.359H564.627H552.69C536.739 869.038 520.582 869.328 504.425 870.006C500.411 870.2 496.398 870.296 492.281 870.49L492.28 870.49C488.267 870.683 484.254 870.877 480.241 871.167C476.227 871.361 472.214 871.555 468.2 871.845C464.187 872.135 460.173 872.426 456.262 872.619C454.307 872.716 452.352 872.91 450.294 873.006C448.338 873.2 446.383 873.297 444.428 873.49C440.517 873.781 436.606 874.168 432.696 874.458C424.977 875.136 417.259 875.91 409.747 876.587C402.234 877.362 394.825 878.136 387.621 879.007C384.019 879.394 380.417 879.878 376.918 880.265C373.419 880.749 369.92 881.136 366.421 881.62C359.526 882.491 352.837 883.556 346.457 884.427C339.973 885.395 333.798 886.363 327.83 887.331C315.892 889.266 304.983 891.299 295.413 893.138C285.739 894.977 277.403 896.816 270.508 898.268C263.616 899.816 258.266 901.073 254.562 901.944L254.557 901.945C250.852 902.817 -96.4916 1003.38 -178 1086.88C-164.4 1086.88 2462.67 1041.88 2746 1061.88Z" fill="#EBEBEB"/>
<path d="M2292.43 682.202C2293.05 682.879 2293.25 683.654 2293.05 684.525C2292.84 686.267 2293.87 687.041 2295.62 686.46C2296.86 686.073 2297.99 685.493 2299.22 685.105C2303.03 684.041 2306.94 683.17 2310.85 682.105C2311.26 682.008 2311.68 681.524 2311.68 681.137C2311.68 680.847 2311.26 680.266 2310.96 680.266C2309.82 680.169 2308.79 680.073 2307.66 680.169C2306.53 680.266 2305.4 680.46 2303.85 680.653C2303.03 680.363 2301.8 680.073 2300.87 679.395C2300.46 679.105 2300.87 677.943 2300.77 677.169C2300.77 676.782 2300.56 676.298 2300.36 676.104C2300.25 676.008 2299.63 676.104 2299.33 676.201C2298.61 676.491 2297.78 676.879 2297.06 677.363C2296.24 677.846 2295.72 677.653 2295 677.072C2292.74 675.04 2290.48 673.104 2288.21 671.168C2288.01 670.975 2287.49 670.975 2287.29 671.071C2287.08 671.265 2286.87 671.652 2286.87 671.942C2286.98 672.523 2287.29 673.007 2287.49 673.491C2288.83 676.491 2290.17 679.589 2292.43 682.202Z" fill="#EEEEEE"/>
<path d="M2218.03 638.647C2218.34 638.937 2218.54 639.421 2218.85 639.615C2221.11 640.389 2222.14 642.034 2222.97 643.97C2223.79 646.002 2224.82 646.196 2226.47 644.551C2226.57 644.357 2226.77 644.26 2226.88 644.067C2227.91 642.615 2229.35 641.744 2231.1 641.26C2231.51 641.163 2231.82 640.873 2232.13 640.679C2231.71 640.389 2231.41 640.002 2230.99 639.808C2229.45 639.324 2228.11 639.808 2226.88 640.679C2226.26 641.066 2225.85 641.066 2225.23 640.486C2224.72 639.808 2224 639.227 2223.28 638.743C2222.56 638.26 2221.84 637.969 2221.01 637.582L2220.91 637.776C2220.29 637.872 2219.67 637.872 2219.06 638.066C2218.75 638.163 2218.34 638.453 2218.03 638.647Z" fill="#EEEEEE"/>
<path d="M2202.69 635.936C2205.58 635.549 2208.35 635.743 2210.82 637.485C2211.65 638.066 2212.16 637.872 2212.57 637.098C2213.19 635.84 2213.71 634.581 2214.32 633.323C2215.35 631.194 2216.69 629.258 2219.16 628.29C2219.47 628.193 2219.57 627.71 2219.78 627.419C2219.47 627.322 2219.16 627.032 2218.85 627.032C2216.59 626.838 2214.84 627.516 2213.5 629.258C2212.68 630.323 2211.65 631.387 2210.62 632.452C2210.31 632.839 2209.69 633.13 2209.18 633.13C2208.25 633.226 2207.22 633.033 2206.3 633.033C2205.27 633.033 2204.24 633.13 2203.31 633.323C2202.08 633.614 2200.94 634.194 2199.81 634.678C2199.5 634.775 2199.2 635.065 2198.89 635.356C2199.92 636.13 2200.94 636.227 2202.69 635.936Z" fill="#EEEEEE"/>
<path d="M2330 758.759C2330 756.823 2330 754.984 2330 753.049C2330 752.081 2329.58 751.694 2328.66 751.694C2328.45 751.694 2328.14 751.694 2327.94 751.694C2327.01 751.597 2326.6 751.887 2326.6 752.758C2326.6 756.243 2326.5 759.824 2326.5 763.308C2326.5 766.018 2326.29 765.437 2328.86 765.534C2329.89 765.534 2330.1 765.244 2330.1 764.373C2330 762.437 2330 760.598 2330 758.759Z" fill="#EEEEEE"/>
<path d="M2464.4 747.433C2464.71 747.24 2464.91 746.562 2464.81 746.175C2464.4 744.917 2463.37 744.239 2461.82 744.143C2461.52 744.143 2461.21 744.143 2460.9 744.046C2459.15 743.755 2458.53 742.788 2459.35 741.336C2459.77 740.561 2460.18 739.884 2460.8 738.916C2459.97 739.013 2459.56 739.013 2459.05 739.11C2457.3 739.594 2455.65 739.4 2454.11 738.722C2452.77 738.142 2452.77 738.142 2452.15 739.4C2451.53 740.658 2450.61 741.239 2449.17 741.239C2448.55 741.239 2447.93 741.045 2447.31 741.142C2446.9 741.239 2446.49 741.529 2446.18 741.82C2446.08 742.013 2446.39 742.594 2446.59 742.788C2448.34 744.239 2450.3 745.11 2452.77 744.433C2453.08 744.336 2453.8 744.53 2453.9 744.82C2455.55 747.724 2458.43 748.401 2461.62 748.304C2462.65 748.304 2463.57 747.82 2464.4 747.433Z" fill="#EEEEEE"/>
<path d="M2493.73 742.596C2493.11 741.821 2491.77 741.628 2490.85 742.015C2490.54 742.209 2490.02 742.209 2489.61 742.112C2487.35 741.531 2486.21 740.079 2485.49 738.144C2485.08 736.885 2484.67 735.724 2483.13 735.143C2481.79 734.659 2481.58 734.562 2481.17 735.917C2480.86 736.982 2480.25 737.466 2479.11 737.563C2477.78 737.756 2476.44 737.853 2475.2 738.24C2473.15 738.918 2472.22 740.37 2472.73 742.209C2472.94 742.886 2473.35 743.176 2474.17 742.789C2475.41 742.112 2476.85 742.209 2478.08 742.596C2479.32 742.983 2480.45 743.08 2481.58 742.596C2482.2 742.305 2482.72 742.402 2482.92 743.176C2483.13 743.757 2483.44 744.338 2483.85 744.822C2485.49 747.435 2488.27 747.725 2491.46 748.306C2492.29 747.919 2493.42 747.629 2494.34 747.048C2495.48 746.37 2495.48 745.693 2494.86 744.628C2494.65 743.951 2494.24 743.273 2493.73 742.596Z" fill="#EEEEEE"/>
<path d="M2352.43 707.751C2352.12 706.202 2352.12 706.202 2350.27 706.105C2350.17 707.073 2349.96 708.041 2349.96 709.009C2349.86 709.977 2349.75 710.945 2349.75 711.913C2349.65 714.816 2349.65 714.816 2352.84 714.719C2353.46 714.719 2353.66 714.526 2353.56 713.945C2353.15 711.816 2352.84 709.783 2352.43 707.751Z" fill="#EEEEEE"/>
<path d="M1725.19 741.145C1725.09 741.435 1724.99 741.628 1724.88 741.919C1725.09 741.628 1725.09 741.338 1725.19 741.145Z" fill="#EEEEEE"/>
<path d="M1716.85 767.373C1716.85 767.179 1716.96 766.986 1716.96 766.695C1716.85 766.986 1716.85 767.179 1716.85 767.373Z" fill="#EEEEEE"/>
<path d="M1507.12 843.933C1514.02 842.578 1522.46 841.029 1532.13 839.384C1541.8 837.738 1552.71 836.093 1564.65 834.448C1570.62 833.576 1576.9 832.802 1583.28 832.028C1589.76 831.254 1596.45 830.479 1603.24 829.705C1606.64 829.318 1610.14 828.931 1613.74 828.64C1617.24 828.35 1620.84 827.963 1624.44 827.576C1631.64 826.898 1639.05 826.317 1646.57 825.64C1654.08 825.059 1661.69 824.575 1669.52 824.091C1673.43 823.898 1677.34 823.607 1681.25 823.414C1683.2 823.317 1685.16 823.22 1687.11 823.124C1689.07 823.027 1691.02 822.93 1693.08 822.833C1696.99 822.64 1701.01 822.446 1705.02 822.349C1709.03 822.156 1713.05 822.059 1716.96 821.962C1720.97 821.865 1724.98 821.672 1729 821.575C1733.01 821.478 1737.03 821.478 1741.04 821.381C1757.09 821.091 1773.15 821.188 1789 821.381C1792.91 821.381 1796.92 821.478 1800.83 821.672C1804.74 821.769 1808.65 821.865 1812.56 821.962C1816.47 822.059 1820.28 822.252 1824.09 822.349C1827.9 822.543 1831.7 822.64 1835.51 822.833C1837.36 822.93 1839.22 823.027 1841.17 823.027C1843.02 823.124 1844.88 823.22 1846.73 823.317C1850.43 823.511 1854.03 823.704 1857.74 823.995C1864.94 824.382 1872.04 824.866 1878.94 825.446C1885.83 825.93 1892.52 826.414 1899.01 827.092C1905.49 827.673 1911.66 828.253 1917.74 828.834C1923.71 829.511 1929.47 830.092 1934.92 830.673C1937.6 830.963 1940.27 831.254 1942.85 831.544C1945.42 831.834 1947.89 832.125 1950.36 832.512C1954.48 832.996 1958.28 833.48 1961.89 833.964L2015.71 814.51L1976.09 822.543C1974.65 822.349 1973.21 822.252 1971.66 822.059C1969.71 821.865 1967.65 821.672 1965.59 821.478C1961.37 821.091 1956.74 820.607 1951.8 820.123C1949.33 819.833 1946.86 819.639 1944.18 819.349C1941.61 819.155 1938.94 818.865 1936.16 818.671C1930.6 818.187 1924.84 817.703 1918.77 817.22C1912.69 816.832 1906.42 816.445 1899.83 815.961C1893.35 815.477 1886.55 815.187 1879.56 814.8C1872.66 814.413 1865.46 814.122 1858.15 813.929C1854.55 813.832 1850.84 813.735 1847.14 813.542C1845.29 813.445 1843.43 813.445 1841.48 813.348C1839.63 813.348 1837.67 813.251 1835.82 813.251C1832.01 813.154 1828.2 813.155 1824.4 813.058C1820.59 812.961 1816.68 812.961 1812.77 812.961C1808.86 812.961 1804.95 812.961 1801.04 812.961C1797.12 812.961 1793.11 812.961 1789.1 812.961C1773.15 813.155 1756.99 813.445 1740.83 814.122C1736.82 814.316 1732.81 814.413 1728.69 814.606C1724.68 814.8 1720.66 814.993 1716.65 815.284C1712.64 815.477 1708.62 815.671 1704.61 815.961C1700.59 816.252 1696.58 816.542 1692.67 816.736C1690.72 816.832 1688.76 817.026 1686.7 817.123C1684.75 817.316 1682.79 817.413 1680.84 817.607C1676.93 817.897 1673.01 818.284 1669.1 818.575C1661.39 819.252 1653.67 820.026 1646.15 820.704C1638.64 821.478 1631.23 822.252 1624.03 823.124C1620.43 823.511 1616.83 823.995 1613.33 824.382C1609.83 824.866 1606.33 825.253 1602.83 825.737C1595.93 826.608 1589.25 827.673 1582.86 828.544C1576.38 829.511 1570.21 830.479 1564.24 831.447C1552.3 833.383 1541.39 835.415 1531.82 837.254C1522.15 839.093 1513.81 840.932 1506.92 842.384C1500.02 843.933 1494.67 845.191 1490.97 846.062C1487.26 846.933 1485.41 847.514 1485.41 847.514L1485.72 848.482C1485.72 848.482 1487.67 847.998 1491.38 847.223C1494.77 846.449 1500.23 845.288 1507.12 843.933Z" fill="#EEEEEE"/>
<path opacity="0.5" d="M1685.37 912.243L1651.62 906.111L1615.89 877.443L1591.17 879.998L1557.08 859.916L1495.29 847.191L1476.88 829.255L1435.49 814.436L1420.36 781.629L1383.11 774.219L1368.81 749.895L1291.51 726.082L1262.08 696.085L1231.32 693.07L1196.23 662.307L1175.01 684.332L1146.84 679.222L1118.06 698.691L1063.27 677.178L1019.54 689.698L950.019 654.387L929.883 681.266L911.044 673.345L853.444 684.077L818.833 657.453L764.734 686.632L731.549 680.755L717.937 707.787L668.116 720.716L609.004 689.187L596.862 666.651L519.603 630.063L496.615 597L466.324 582.692L457.942 556.886L393.558 485.088L365.817 482.533L330.99 440.579L312.15 445.689L310.595 428.008L253.687 363.723L239.817 370.622L198.032 333.522L163.81 347.064L131.316 316.352L112.908 328.157L65.4635 301.584L45.0251 317.17L17.2409 300L-7 310.629V952H1717L1685.37 912.243Z" fill="#EBEBEB"/>
<path opacity="0.25" d="M854.939 930.196L869.727 916.028H896.113L939.181 853.122L968.71 866.852L987.287 842.752L1019.96 841.145L1079.8 794.745L1104.75 816.801L1124.81 808.329L1147.27 818.456L1229.15 780.138L1253.74 812.273L1274.3 800.441L1297.5 829.947L1297.64 829.557L1387.33 776L1406.6 778.58L1447.55 761.053L1479.85 762.951L1508.54 741.821L1529.62 734.615L1540.29 714.75L1564.74 724.877L1583.78 691.039L1611.87 684.076L1627.31 667.814L1707.2 646.002L1728.88 618.542L1748.93 622.339L1779.43 598.871L1819.17 617.909L1829.2 613.868L1853.55 628.62L1864.37 610.751L1935.76 623.654L1956 605.25L1973.1 610.703L2018.43 596.973L2039.32 618.931L2112.98 597.995L2172.36 619.467L2200.64 607.733L2228.14 642.204C2228.14 642.204 2247.18 634.171 2246.62 633.927C2246.02 633.732 2274.63 643.616 2274.63 643.616L2321.07 612.163L2344.96 609.826L2381.1 579.153L2426.24 564.984L2452.22 531.779L2470.01 522.041L2490.48 474.278L2544.45 459.671L2561.5 436.642L2580.96 434.11L2608.04 402.414L2630.31 397.545L2645.56 362.003L2676.06 356.939L2705.77 323.733L2730.45 333.861L2757.58 318.232L2781.65 320.569L2803.33 297.929L2836.87 306.887C2836.87 306.887 2876.57 290.869 2889 286V1008H1135.67H897.222H792L820.697 950.645L854.939 930.196Z" fill="#EBEBEB"/>
</g>
<defs>
<clipPath id="clip0">
<rect width="2500" height="960" fill="white"/>
</clipPath>
</defs>
</svg>
