<svg width="1280" height="622" viewBox="0 0 1280 622" fill="none" xmlns="http://www.w3.org/2000/svg">
<g clip-path="url(#clip0)">
<path opacity="0.66" d="M1357.04 607.324V586.197H1350.54V555.604H1322.12V560.54H1288.83V581.268H1284.77V607.611H1273.28V593.428H1248.15V581.915H1214V564.64H1204.26V506.404H1190.91V455.075H1163.38V494.56H1147.42V537.002H1143.36V588.761H1135.24V605.109H1116.56V572.863H1108.44V543.913H1097.89V537.002H1045.92V543.913H1024.8V560.2H1019.12V580.811H1011.16V459.518H1002.23V450.634H965.685V429.904H936.452V459.518V471.362V493.077H931.581V595.552V588.926L931.583 526.665V425.121H925.086V395.506H913.717V360H894.06V395.506H885.298V412.781H879.614V508.528H862.562V530.061H791.104V379.715H786.231V371.816H747.255V379.715H741.572V530.061H715.587V467.563H711.592V437.952H697.723V431.041H668.491V437.952H650.625V454.732H643.317V508.528H631.95V514.857H618.146V474.473H616.694V451.446H594.769V471.187H575.282V474.473H572.673V514.857H555.793V555.939H545V616.312H1367.52V607.324H1357.04Z" fill="#F2F2F2"/>
<path d="M604.87 604.094C609.391 604.094 609.391 604.847 613.761 604.847C618.282 604.847 618.282 604.094 622.652 604.094C627.173 604.094 627.173 604.847 631.543 604.847C636.064 604.847 636.064 604.094 640.434 604.094C644.955 604.094 644.955 604.847 649.326 604.847C653.846 604.847 653.846 604.094 658.217 604.094C662.737 604.094 662.737 604.847 667.108 604.847C671.629 604.847 671.629 604.094 675.999 604.094V615.999H586.938V604.094C591.458 604.094 591.458 604.847 595.829 604.847C600.349 604.847 600.349 604.094 604.87 604.094Z" fill="#D4D4D4"/>
<path d="M595.981 595.957C600.502 595.957 600.502 595.203 604.872 595.203C609.393 595.203 609.393 595.957 613.763 595.957C618.284 595.957 618.284 595.203 622.654 595.203C627.175 595.203 627.175 595.957 631.545 595.957C636.066 595.957 636.066 595.203 640.436 595.203C644.957 595.203 644.957 595.957 649.327 595.957C653.848 595.957 653.848 595.203 658.218 595.203C662.739 595.203 662.739 595.957 667.109 595.957C671.63 595.957 671.63 595.203 676 595.203V596.559C671.48 596.559 671.479 597.313 667.109 597.313C662.588 597.313 662.588 596.559 658.218 596.559C653.697 596.559 653.697 597.313 649.327 597.313C644.806 597.313 644.806 596.559 640.436 596.559C635.915 596.559 635.915 597.313 631.545 597.313C627.024 597.313 627.024 596.559 622.654 596.559C618.133 596.559 618.133 597.313 613.763 597.313C609.242 597.313 609.242 596.559 604.872 596.559C600.351 596.559 600.351 597.313 595.981 597.313C591.46 597.313 591.46 596.559 587.09 596.559V595.203C591.46 595.203 591.46 595.957 595.981 595.957Z" fill="#D4D4D4"/>
<path d="M595.981 606.203C600.502 606.203 600.502 605.449 604.872 605.449C609.393 605.449 609.393 606.203 613.763 606.203C618.284 606.203 618.284 605.449 622.654 605.449C627.175 605.449 627.175 606.203 631.545 606.203C636.066 606.203 636.066 605.449 640.436 605.449C644.957 605.449 644.957 606.203 649.327 606.203C653.848 606.203 653.848 605.449 658.218 605.449C662.739 605.449 662.739 606.203 667.109 606.203C671.63 606.203 671.63 605.449 676 605.449V606.805C671.48 606.805 671.479 607.559 667.109 607.559C662.588 607.559 662.588 606.805 658.218 606.805C653.697 606.805 653.697 607.559 649.327 607.559C644.806 607.559 644.806 606.805 640.436 606.805C635.915 606.805 635.915 607.559 631.545 607.559C627.024 607.559 627.024 606.805 622.654 606.805C618.133 606.805 618.133 607.559 613.763 607.559C609.242 607.559 609.242 606.805 604.872 606.805C600.351 606.805 600.351 607.559 595.981 607.559C591.46 607.559 591.46 606.805 587.09 606.805V605.449C591.46 605.449 591.46 606.203 595.981 606.203Z" fill="white"/>
<path d="M595.981 597.462C600.502 597.462 600.502 596.708 604.872 596.708C609.393 596.708 609.393 597.462 613.763 597.462C618.284 597.462 618.284 596.708 622.654 596.708C627.175 596.708 627.175 597.462 631.545 597.462C636.066 597.462 636.066 596.708 640.436 596.708C644.957 596.708 644.957 597.462 649.327 597.462C653.848 597.462 653.848 596.708 658.218 596.708C662.739 596.708 662.739 597.462 667.109 597.462C671.63 597.462 671.63 596.708 676 596.708V604.092C671.48 604.092 671.479 604.846 667.109 604.846C662.588 604.846 662.588 604.092 658.218 604.092C653.697 604.092 653.697 604.846 649.327 604.846C644.806 604.846 644.806 604.092 640.436 604.092C635.915 604.092 635.915 604.846 631.545 604.846C627.024 604.846 627.024 604.092 622.654 604.092C618.133 604.092 618.133 604.846 613.763 604.846C609.242 604.846 609.242 604.092 604.872 604.092C600.351 604.092 600.351 604.846 595.981 604.846C591.46 604.846 591.46 604.092 587.09 604.092V596.708C591.46 596.558 591.46 597.462 595.981 597.462Z" fill="white"/>
<path d="M10.5259 546.678L-11.9277 550.897V548.486L10.5259 545.773V546.678Z" fill="#D4D4D4"/>
<path d="M-11.7754 543.214L-11.6247 542.461L8.71923 546.078L8.56853 546.831L-11.7754 543.214Z" fill="#D4D4D4"/>
<path d="M40.9667 541.252L38.1035 539.293V564.007L50.0085 568.377L40.9667 541.252Z" fill="#D4D4D4"/>
<path d="M38.1044 539.293H29.9668V564.007H38.1044V539.293Z" fill="#D4D4D4"/>
<path d="M40.9667 558.431H6.15601L4.34766 552.855H39.1584L40.9667 558.431Z" fill="#D4D4D4"/>
<path d="M39.4609 557.376H6.91065L5.70508 553.91H38.2554L39.4609 557.376Z" fill="white"/>
<path d="M45.7908 557.678L39.1602 552.855L40.9685 558.431L45.7908 560.692V557.678Z" fill="#D4D4D4"/>
<path d="M16.5543 560.694H45.7892L40.967 558.434H6.15625L16.5543 560.694Z" fill="#D4D4D4"/>
<path d="M36.1447 559.188H10.9785V573.956H36.1447V559.188Z" fill="#D4D4D4"/>
<path d="M34.9386 572.75H12.1836V560.996H34.9386V571.545V572.75Z" fill="white"/>
<path d="M45.4896 566.722L50.0105 568.38L53.3258 570.49V577.422L36.1465 573.956V559.188L40.6674 560.694L45.4896 566.722Z" fill="#D4D4D4"/>
<path d="M39.1577 556.324L39.4591 557.379H6.90882L6.60742 556.324H39.1577Z" fill="#D4D4D4"/>
<path d="M-87.878 601.078C-100.838 601.078 -102.797 601.078 -102.797 601.078C-102.797 601.078 -93.9058 582.391 -96.4676 578.624C-102.646 569.733 -112.441 561.143 -130.525 550.444L-138.512 545.32H-128.264C-126.305 545.32 -79.439 547.731 -49.9026 554.362L57.6941 576.966V579.528C57.6941 588.57 50.6114 600.324 33.8842 601.078H-87.878Z" fill="#D4D4D4"/>
<path d="M-114.398 557.676C-104.754 564.457 -98.8768 570.033 -94.9587 575.609C-85.0128 574.554 52.7231 587.966 52.7231 587.966C54.3808 585.404 55.1343 582.842 55.285 581.486L-53.3667 563.252C-79.437 559.635 -96.9177 557.826 -114.398 557.676Z" fill="#D4D4D4"/>
<path d="M55.284 579.679C55.284 578.474 55.284 578.474 55.284 578.474L-50.6551 557.075C-79.438 551.047 -128.414 548.938 -128.414 548.938C-125.702 550.595 -124.044 551.499 -121.783 553.006C-105.207 553.157 -79.5886 555.116 -51.8606 559.486L55.284 579.679Z" fill="white"/>
<path d="M55.284 579.677L-51.71 559.484C-79.438 555.114 -105.056 553.155 -121.633 553.004C-119.372 554.511 -116.358 556.47 -114.399 557.826C-97.0694 557.977 -79.438 559.785 -53.3676 563.402L55.284 581.636C55.284 581.335 55.284 581.184 55.284 581.033C55.284 580.431 55.284 579.978 55.284 579.677Z" fill="#D4D4D4"/>
<path d="M52.1181 588.875C52.2688 588.574 52.5702 588.272 52.7209 587.971C52.7209 587.971 -85.015 574.559 -94.9609 575.614C-94.5089 576.217 -94.0568 576.97 -93.6047 577.573C-93.3033 578.025 -93.1526 578.477 -93.0019 579.08C-81.3983 578.628 52.1181 588.875 52.1181 588.875Z" fill="#D4D4D4"/>
<path d="M-97.6738 597.314L33.8835 599.273C40.9662 599.273 49.4052 595.204 52.7205 588.875C52.7205 588.875 -81.3987 578.477 -92.8516 579.08C-91.7967 584.656 -97.6738 597.314 -97.6738 597.314Z" fill="white"/>
<path d="M37.5001 544.117H30.7188V545.624H37.5001V544.117Z" fill="white"/>
<path d="M61.6117 510.511L47.8984 454.754L53.1728 461.535L61.6117 490.318V510.511Z" fill="#D4D4D4"/>
<path d="M105.164 558.434L96.4238 528.145V518.5L111.041 558.434H105.164Z" fill="#D4D4D4"/>
<path d="M67.3378 558.434L76.2288 528.145V518.5L61.6113 558.434H67.3378Z" fill="#D4D4D4"/>
<path d="M-8.1601 438.027L26.3492 418.436L44.5834 415.121L33.1305 402.613L-14.9414 438.027H-8.1601Z" fill="#D4D4D4"/>
<path d="M111.039 568.98H105.162V578.324H111.039V568.98Z" fill="#D4D4D4"/>
<path d="M26.348 418.438L110.888 510.513L89.7909 507.649L21.375 421.301L26.348 418.438Z" fill="#D4D4D4"/>
<path d="M-2.28321 455.509L-10.4208 463.948H-11.9277L-2.28321 453.852L7.36131 463.948H5.85436L-2.28321 455.509Z" fill="#D4D4D4"/>
<path d="M7.36131 463.945H-11.9277V481.275H7.36131V463.945Z" fill="#D4D4D4"/>
<path d="M111.04 558.434H61.6113V568.982H111.04V558.434Z" fill="#D4D4D4"/>
<path d="M103.656 590.38H112.397L108.026 578.324L103.656 590.38Z" fill="#D4D4D4"/>
<path d="M67.4885 568.98H61.6113V578.324H67.4885V568.98Z" fill="#D4D4D4"/>
<path d="M60.1055 590.38H68.8458L64.4757 578.324L60.1055 590.38Z" fill="#D4D4D4"/>
<path d="M40.666 415.875L44.5841 415.121L109.986 433.807L109.082 436.369L40.666 415.875Z" fill="#D4D4D4"/>
<path d="M90.5464 510.059H82.1074V558.432H90.5464V510.059Z" fill="#D4D4D4"/>
<path d="M61.6113 490.32L86.3254 483.84V507.198L61.6113 510.513V490.32Z" fill="#D4D4D4"/>
<path d="M111.04 490.32V510.513L86.3262 507.198V483.84L111.04 490.32Z" fill="#D4D4D4"/>
<path d="M86.3254 512.771L111.04 510.511L86.3254 507.195L61.6113 510.511L86.3254 512.771Z" fill="#D4D4D4"/>
<path d="M76.2305 518.496L86.3271 517.441V529.346L76.2305 528.141V518.496Z" fill="#D4D4D4"/>
<path d="M96.4247 518.496V528.141L86.3281 529.346V517.441L96.4247 518.496Z" fill="#D4D4D4"/>
<path d="M86.3281 483.84L109.987 433.809H112.549L102.453 488.059L86.3281 483.84Z" fill="#D4D4D4"/>
<path d="M106.07 489.114L102.453 488.059L112.55 433.809L115.714 438.48L106.07 489.114Z" fill="#D4D4D4"/>
<path d="M7.51301 481.277H4.95117V483.538H7.51301V481.277Z" fill="#D4D4D4"/>
<path d="M180.512 531.461H165.141V546.531H180.512V531.461Z" fill="#D4D4D4"/>
<path d="M167.1 546.527H165.141V548.486H167.1V546.527Z" fill="#D4D4D4"/>
<path d="M173.731 546.527H171.771V548.486H173.731V546.527Z" fill="#D4D4D4"/>
<path d="M180.512 546.527H178.553V548.486H180.512V546.527Z" fill="#D4D4D4"/>
<path d="M180.512 551.352H165.141V566.421H180.512V551.352Z" fill="#D4D4D4"/>
<path d="M167.1 566.422H165.141V568.381H167.1V566.422Z" fill="#D4D4D4"/>
<path d="M173.731 566.422H171.771V568.381H173.731V566.422Z" fill="#D4D4D4"/>
<path d="M180.512 566.422H178.553V568.381H180.512V566.422Z" fill="#D4D4D4"/>
<path d="M180.512 571.094H165.141V586.163H180.512V571.094Z" fill="#D4D4D4"/>
<path d="M167.1 586.16H165.141V588.119H167.1V586.16Z" fill="#D4D4D4"/>
<path d="M173.731 586.16H171.771V588.119H173.731V586.16Z" fill="#D4D4D4"/>
<path d="M180.512 586.16H178.553V588.119H180.512V586.16Z" fill="#D4D4D4"/>
<path d="M202.062 521.664H184.129V539.295H202.062V521.664Z" fill="#D4D4D4"/>
<path d="M186.389 539.297H184.129V541.557H186.389V539.297Z" fill="#D4D4D4"/>
<path d="M194.225 539.297H191.965V541.557H194.225V539.297Z" fill="#D4D4D4"/>
<path d="M202.061 539.297H199.801V541.557H202.061V539.297Z" fill="#D4D4D4"/>
<path d="M202.062 544.871H184.129V562.502H202.062V544.871Z" fill="#D4D4D4"/>
<path d="M186.389 562.652H184.129V564.913H186.389V562.652Z" fill="#D4D4D4"/>
<path d="M194.225 562.652H191.965V564.913H194.225V562.652Z" fill="#D4D4D4"/>
<path d="M202.061 562.652H199.801V564.913H202.061V562.652Z" fill="#D4D4D4"/>
<path d="M202.062 568.23H184.129V585.862H202.062V568.23Z" fill="#D4D4D4"/>
<path d="M186.389 585.859H184.129V588.12H186.389V585.859Z" fill="#D4D4D4"/>
<path d="M194.225 585.859H191.965V588.12H194.225V585.859Z" fill="#D4D4D4"/>
<path d="M202.061 585.859H199.801V588.12H202.061V585.859Z" fill="#D4D4D4"/>
<path d="M162.278 555.27H148.564V568.681H162.278V555.27Z" fill="#D4D4D4"/>
<path d="M150.373 568.68H148.564V570.488H150.373V568.68Z" fill="#D4D4D4"/>
<path d="M156.4 568.68H154.592V570.488H156.4V568.68Z" fill="#D4D4D4"/>
<path d="M162.279 568.68H160.471V570.488H162.279V568.68Z" fill="#D4D4D4"/>
<path d="M162.278 572.902H148.564V586.314H162.278V572.902Z" fill="#D4D4D4"/>
<path d="M150.373 586.465H148.564V588.273H150.373V586.465Z" fill="#D4D4D4"/>
<path d="M156.4 586.465H154.592V588.273H156.4V586.465Z" fill="#D4D4D4"/>
<path d="M162.279 586.465H160.471V588.273H162.279V586.465Z" fill="#D4D4D4"/>
<path d="M559.962 456.562H385.004V460.631H559.962V456.562Z" fill="white"/>
<path d="M566.894 447.219H378.072V456.562H566.894V447.219Z" fill="#D4D4D4"/>
<path d="M566.894 460.633H378.072V475.401H566.894V460.633Z" fill="#D4D4D4"/>
<path d="M452.215 520.004L422.227 483.837V475.398L452.215 511.415V520.004Z" fill="#D4D4D4"/>
<path d="M452.213 520.004H422.225V525.128H452.213V520.004Z" fill="#D4D4D4"/>
<path d="M452.213 569.584L422.225 533.568V525.129L452.213 561.145V569.584Z" fill="#D4D4D4"/>
<path d="M385.155 569.584L415.143 533.568V525.129L378.072 569.584H385.155Z" fill="#D4D4D4"/>
<path d="M422.225 447.219L452.214 411.956V402.613L418.91 447.219H422.225Z" fill="#D4D4D4"/>
<path d="M559.811 447.219L459.447 411.203V402.613L566.893 447.219H559.811Z" fill="#D4D4D4"/>
<path d="M422.225 470.277H415.143V579.682H422.225V470.277Z" fill="#D4D4D4"/>
<path d="M385.155 575.16H378.072V579.681H385.155V575.16Z" fill="#D4D4D4"/>
<path d="M459.298 402.613H452.215V579.681H459.298V402.613Z" fill="#D4D4D4"/>
<path d="M459.297 569.586H378.072V575.162H459.297V569.586Z" fill="#D4D4D4"/>
<path d="M422.225 590.379H415.143L418.759 579.68L422.225 590.379Z" fill="#D4D4D4"/>
<path d="M385.306 590.379H378.072L381.689 579.68L385.306 590.379Z" fill="#D4D4D4"/>
<path d="M459.448 590.379H452.215L455.832 579.68L459.448 590.379Z" fill="#D4D4D4"/>
<path d="M516.26 460.633H491.244V475.401H516.26V460.633Z" fill="white"/>
<path d="M513.096 464.098H494.41V475.4H513.096V464.098Z" fill="#D4D4D4"/>
<path d="M385.004 456.562H378.072V460.631H385.004V456.562Z" fill="#D4D4D4"/>
<path d="M504.656 475.398H502.848V493.934H504.656V475.398Z" fill="#D4D4D4"/>
<path d="M503.753 494.236L519.426 501.318H522.892L503.753 492.578L484.766 501.318H488.232L503.753 494.236Z" fill="#D4D4D4"/>
<path d="M522.892 501.32H484.766V518.198H522.892V501.32Z" fill="#D4D4D4"/>
<path d="M503.753 477.96L494.41 475.398H513.096L503.753 477.96Z" fill="#D4D4D4"/>
<path d="M520.632 502.977H517.92V504.484H520.632V502.977Z" fill="white"/>
<path d="M520.632 515.031H517.92V516.538H520.632V515.031Z" fill="white"/>
<path d="M489.287 515.031H486.574V516.538H489.287V515.031Z" fill="white"/>
<path d="M489.287 502.977H486.574V504.484H489.287V502.977Z" fill="white"/>
<path d="M346.881 568.98H301.672V588.27H346.881V568.98Z" fill="#D4D4D4"/>
<path d="M344.467 570.789H341.303V572.447H344.467V570.789Z" fill="white"/>
<path d="M344.467 584.652H341.303V586.31H344.467V584.652Z" fill="white"/>
<path d="M307.096 584.652H303.932V586.31H307.096V584.652Z" fill="white"/>
<path d="M307.096 570.789H303.932V572.447H307.096V570.789Z" fill="white"/>
<path d="M346.881 546.98H301.672V566.27H346.881V546.98Z" fill="#D4D4D4"/>
<path d="M344.467 548.938H341.303V550.595H344.467V548.938Z" fill="white"/>
<path d="M344.467 562.805H341.303V564.462H344.467V562.805Z" fill="white"/>
<path d="M307.096 562.805H303.932V564.462H307.096V562.805Z" fill="white"/>
<path d="M307.096 548.938H303.932V550.595H307.096V548.938Z" fill="white"/>
<path d="M346.881 525.129H301.672V544.418H346.881V525.129Z" fill="#D4D4D4"/>
<path d="M344.467 526.938H341.303V528.595H344.467V526.938Z" fill="white"/>
<path d="M344.467 540.953H341.303V542.611H344.467V540.953Z" fill="white"/>
<path d="M307.096 540.953H303.932V542.611H307.096V540.953Z" fill="white"/>
<path d="M307.096 526.938H303.932V528.595H307.096V526.938Z" fill="white"/>
<path d="M297.903 564.762H242.598V588.12H297.903V564.762Z" fill="#D4D4D4"/>
<path d="M294.738 567.023H290.971V569.133H294.738V567.023Z" fill="white"/>
<path d="M294.738 583.902H290.971V586.012H294.738V583.902Z" fill="white"/>
<path d="M248.928 583.902H245.16V586.012H248.928V583.902Z" fill="white"/>
<path d="M248.928 567.023H245.16V569.133H248.928V567.023Z" fill="white"/>
<path d="M297.903 538.09H242.598V561.448H297.903V538.09Z" fill="#D4D4D4"/>
<path d="M294.738 540.199H290.971V542.309H294.738V540.199Z" fill="white"/>
<path d="M294.738 557.078H290.971V559.188H294.738V557.078Z" fill="white"/>
<path d="M248.928 557.078H245.16V559.188H248.928V557.078Z" fill="white"/>
<path d="M248.928 540.199H245.16V542.309H248.928V540.199Z" fill="white"/>
<path d="M297.903 511.266H242.598V534.623H297.903V511.266Z" fill="#D4D4D4"/>
<path d="M294.738 513.375H290.971V515.485H294.738V513.375Z" fill="white"/>
<path d="M294.738 530.254H290.971V532.364H294.738V530.254Z" fill="white"/>
<path d="M248.928 530.254H245.16V532.364H248.928V530.254Z" fill="white"/>
<path d="M248.928 513.375H245.16V515.485H248.928V513.375Z" fill="white"/>
<path d="M492.148 544.417L493.655 571.995H490.189L491.696 544.417C491.546 544.116 492.148 544.116 492.148 544.417Z" fill="#D4D4D4"/>
<path d="M581.514 522.867H624.613V530.854L637.874 540.499V556.924H581.514V522.867Z" fill="#D4D4D4"/>
<path d="M572.773 526.785L581.514 522.867V530.854L575.787 532.361L572.773 526.785Z" fill="#D4D4D4"/>
<path d="M622.654 525.129H581.514V528.294H622.654V525.129Z" fill="white"/>
<path d="M634.708 540.5H594.773V550.597H634.708V540.5Z" fill="white"/>
<path d="M578.048 532.362H575.787L578.048 531.91V532.362Z" fill="#D4D4D4"/>
<path d="M484.917 601.079C485.52 598.367 489.739 580.585 468.943 574.255C468.943 574.255 474.519 572.146 482.205 570.639L580.006 551.35C590.253 548.788 598.692 547.582 609.995 546.527C611.954 554.966 620.845 562.049 631.996 565.515C636.366 566.871 641.189 567.625 646.011 567.625C650.682 567.625 654.902 567.323 658.519 566.118C658.519 566.118 620.242 581.187 620.242 600.929H484.917V601.079Z" fill="#D4D4D4"/>
<path d="M662.436 546.527H672.532C673.888 556.473 668.463 562.802 658.819 566.118C655.202 567.323 650.832 567.625 646.311 567.625C641.489 567.625 636.667 566.871 632.297 565.515C621.145 562.049 612.254 554.816 610.295 546.527H662.436Z" fill="#D4D4D4"/>
<path d="M646.913 564.912C642.844 564.912 638.776 564.309 634.707 563.104C626.117 560.542 619.336 555.268 616.473 549.391H662.284H668.764C669.367 555.418 665.147 560.693 657.613 563.255C654.448 564.309 650.831 564.912 646.913 564.912Z" fill="white"/>
<path d="M474.82 574.559L483.109 572.298L580.91 553.009C590.555 550.598 598.391 549.543 608.186 548.488C610.899 556.626 619.639 563.558 631.243 567.175C634.859 568.229 638.476 568.983 642.243 569.284C636.818 571.846 630.64 575.011 625.064 578.477C616.324 577.573 603.515 577.723 581.513 579.23L487.177 584.957C485.369 580.436 480.999 576.97 474.82 574.559Z" fill="#D4D4D4"/>
<path d="M622.199 580.284C622.953 579.681 623.857 579.229 624.61 578.626C624.761 578.476 624.912 578.476 625.062 578.325C616.322 577.421 603.513 577.572 581.511 579.079L487.176 584.805C487.176 584.805 487.326 585.257 487.477 586.011L571.867 581.49C595.978 579.983 611.349 579.681 622.199 580.284Z" fill="#D4D4D4"/>
<path d="M613.762 597.766C614.364 595.053 616.926 583.902 622.201 580.285C611.35 579.682 596.13 579.833 572.019 581.49L487.629 586.011C488.684 590.532 487.479 599.423 487.479 599.423L613.762 597.766Z" fill="white"/>
<path d="M642.544 569.133L642.393 569.284C642.393 569.284 642.393 569.284 642.242 569.284C642.242 569.284 642.393 569.133 642.544 569.133Z" fill="#D4D4D4"/>
<path d="M484.615 577.269C485.218 578.173 486.423 578.775 487.327 578.474C488.231 578.173 488.533 577.118 487.93 576.214C487.327 575.309 486.122 574.707 485.218 575.008C484.464 575.159 484.163 576.214 484.615 577.269Z" fill="white"/>
<path d="M581.514 530.855H621.599L634.709 540.5H594.775L581.514 530.855Z" fill="white"/>
<path d="M600.049 497.703L598.24 499.662V530.856L611.652 540.501L600.049 497.703Z" fill="#D4D4D4"/>
<path d="M611.652 540.501H621.146L609.543 497.703H600.049L611.652 540.501Z" fill="#D4D4D4"/>
<path d="M578.047 531.91L581.513 530.855V556.926H578.047V531.91Z" fill="#D4D4D4"/>
<path d="M611.048 509.156H604.719L603.664 505.539H610.144L611.048 509.156Z" fill="white"/>
<path d="M553.336 540.352H540.979V549.845H553.336V540.352Z" fill="#D4D4D4"/>
<path d="M541.732 548.942H552.432V541.105H541.732V548.942Z" fill="white"/>
<path d="M565.691 540.352H553.334V549.845H565.691V540.352Z" fill="#D4D4D4"/>
<path d="M554.088 548.942H564.787V541.105H554.088V548.942Z" fill="#D4D4D4"/>
<path d="M578.048 540.352H565.691V549.845H578.048V540.352Z" fill="#D4D4D4"/>
<path d="M566.445 548.942H577.145V541.105H566.445V548.942Z" fill="white"/>
<path d="M578.049 551.955L562.527 554.969V544.27H578.049V551.955Z" fill="#D4D4D4"/>
<path d="M563.281 553.914L577.145 551.202V545.023H563.281V553.914Z" fill="white"/>
<path d="M562.528 544.27V554.969L540.979 559.188V549.695L562.528 544.27Z" fill="#D4D4D4"/>
<path d="M541.732 558.284L561.624 554.366V545.324L541.732 550.297V558.284Z" fill="white"/>
<path d="M495.468 568.231L486.125 570.039V563.56L495.468 561.148V568.231Z" fill="#D4D4D4"/>
<path d="M487.029 568.984L494.715 567.477V562.203L487.029 564.162V568.984Z" fill="white"/>
<path d="M522.742 554.367V562.806L507.371 565.82V558.135L522.742 554.367Z" fill="#D4D4D4"/>
<path d="M508.277 564.914L521.84 562.202V555.27L508.277 558.736V564.914Z" fill="white"/>
<path d="M507.374 558.133V565.818L495.469 568.229V561.147L507.374 558.133Z" fill="#D4D4D4"/>
<path d="M496.373 567.174L506.62 565.215V559.188L496.373 561.749V567.174Z" fill="#D4D4D4"/>
<path d="M540.978 549.695V559.189L522.744 562.806V554.367L540.978 549.695Z" fill="#D4D4D4"/>
<path d="M523.648 561.751L540.074 558.586V550.75L523.648 554.969V561.751Z" fill="#D4D4D4"/>
<path d="M495.468 554.215V561.147L486.125 563.558V557.078L495.468 554.215Z" fill="#D4D4D4"/>
<path d="M487.029 562.503L494.715 560.544V555.27L487.029 557.53V562.503Z" fill="white"/>
<path d="M522.744 554.366V545.777L540.978 540.352V549.695L522.744 554.366Z" fill="#D4D4D4"/>
<path d="M523.648 553.311L540.074 549.092V541.406L523.648 546.379V553.311Z" fill="white"/>
<path d="M507.371 558.134V550.449L522.742 545.777V554.367L507.371 558.134Z" fill="#D4D4D4"/>
<path d="M508.277 557.077L521.84 553.762V546.98L508.277 551.049V557.077Z" fill="#D4D4D4"/>
<path d="M495.469 561.149V554.217L507.374 550.449V558.135L495.469 561.149Z" fill="#D4D4D4"/>
<path d="M496.373 560.091L506.62 557.529V551.652L496.373 554.666V560.091Z" fill="white"/>
<path d="M587.088 590.379H-65.123V615.997H587.088V590.379Z" fill="#D4D4D4"/>
<g clip-path="url(#clip1)">
<path d="M1658.01 586.198C1659.37 585.113 1660.18 583.215 1660.18 583.215L1650.94 583.486L1650.67 579.96C1650.67 579.96 1650.67 579.96 1650.94 579.96V579.689L1650.67 575.892C1650.67 575.892 1650.94 575.892 1650.94 575.621C1650.94 575.621 1650.94 575.349 1650.67 575.349V573.451L1650.4 573.722V575.078L1640.88 575.349C1640.88 575.349 1640.61 575.349 1640.61 575.621L1640.34 575.892L1620.77 550.126C1621.04 549.855 1621.04 549.583 1621.04 549.312C1621.31 548.227 1619.41 548.227 1619.41 548.227V545.515L1618.59 542.26V540.904L1621.31 539.277V539.006H1621.04V533.581C1621.04 533.31 1621.04 533.31 1620.77 533.31C1620.5 533.31 1620.5 533.31 1620.5 533.581V535.751L1619.95 536.022V533.852C1619.95 533.581 1619.95 533.581 1619.68 533.581C1619.41 533.581 1619.41 533.581 1619.41 533.852V536.293L1618.86 536.836C1618.86 536.565 1618.32 536.293 1618.32 536.293C1618.32 536.293 1619.41 535.209 1618.59 534.124C1617.78 533.039 1616.69 534.395 1616.69 534.395H1615.87C1614.79 532.768 1613.43 534.666 1613.43 534.666H1604.46V534.124H1604.19V534.395H1594.4V534.124H1594.13V534.395H1584.07V533.852H1583.8V534.395H1573.74V533.852H1573.47V534.395H1563.95C1563.95 534.124 1563.95 533.852 1563.95 533.852H1563.68C1563.68 534.124 1563.68 534.124 1563.68 534.395H1553.62V533.852H1553.35V534.395H1543.29L1542.48 534.666L1526.71 534.395C1526.17 533.852 1525.9 534.124 1525.08 534.395C1523.72 534.937 1524.54 536.565 1524.54 536.565H1522.63V539.548L1523.72 539.819L1523.99 548.227C1522.91 549.041 1523.99 550.126 1523.99 550.126L1523.72 551.753C1522.36 552.024 1523.99 552.838 1523.99 552.838L1524.27 555.279L1524.54 572.908L1490.01 573.18L1484.58 573.451V572.908H1481.86V564.772H1481.59V556.093H1481.04V547.956H1447.34L1445.71 548.498V572.908L1444.07 573.18V587.012L1443.26 581.316V572.908H1441.9V564.772H1441.63L1441.36 556.093H1406.83L1404.93 556.906V585.927H1404.39L1403.84 572.908L1368.78 573.18L1368.23 572.908L1367.69 573.722L1367.42 581.045L1367.69 581.859L1367.14 582.13V589.995L1364.7 590.267L1364.15 547.956L1364.7 545.244C1365.79 544.973 1364.7 544.43 1364.7 544.43V542.532L1364.97 542.26V541.175L1364.7 540.904V532.768L1365.79 532.496V529.513H1363.61C1363.61 529.513 1364.7 528.699 1363.61 527.614C1363.07 526.801 1362.25 527.343 1361.71 527.614L1345.94 527.886H1335.61V527.343C1335.61 527.343 1335.61 527.072 1335.34 527.072C1335.34 527.072 1335.07 527.072 1335.07 527.343V527.886H1325.55V527.072C1325.55 527.072 1325.55 526.801 1325.28 526.801C1325.28 526.801 1325.01 526.801 1325.01 527.072V527.614H1322.56V526.529C1322.56 526.529 1322.56 526.258 1322.29 526.258C1322.29 526.258 1322.02 526.258 1322.02 526.529V527.614H1317.94H1315.22V527.343C1315.22 527.343 1315.22 527.072 1314.95 527.072C1314.95 527.072 1314.68 527.072 1314.68 527.343V527.614H1312.23V526.801C1312.23 526.801 1312.23 526.529 1311.96 526.529C1311.96 526.529 1311.69 526.529 1311.69 526.801V527.614H1304.62V526.258C1304.62 526.258 1304.62 525.987 1304.35 525.987C1304.35 525.987 1304.08 525.987 1304.08 526.258V527.614H1301.63V526.801C1301.63 526.801 1301.63 526.529 1301.36 526.529C1301.09 526.529 1301.09 526.529 1301.09 526.801V527.614L1294.29 527.343V526.258C1294.29 526.258 1294.29 525.987 1294.02 525.987C1294.02 525.987 1293.75 525.987 1293.75 526.258V527.886L1273.09 527.343C1271.46 527.614 1272.27 529.784 1272.27 529.784H1270.37V532.768L1271.46 533.039V541.175L1271.19 541.447V542.532L1271.46 542.803V545.244C1270.37 545.515 1271.46 546.057 1271.46 546.057L1272.27 548.227V590.267H1271.73V582.401H1270.37L1270.91 575.078H1270.37V574.264L1234.49 574.536L1234.22 575.349H1233.13V582.672H1230.95V587.283L1230.41 587.554V582.672H1227.69L1196.98 582.944V582.401H1197.79C1197.79 582.401 1198.06 582.401 1198.06 582.13C1198.06 582.13 1198.06 581.859 1197.79 581.859H1194.8L1194.53 576.705L1193.99 576.163V579.146L1193.17 578.875V540.904L1194.8 536.836V533.581L1195.07 532.225H1194.26V529.513L1191.81 529.242L1191.54 527.072L1190.45 525.987L1190.72 523.275L1190.99 522.732L1190.72 521.919L1189.64 521.648L1189.09 522.19L1189.64 523.546V525.445L1186.65 524.089L1186.37 519.207V517.308C1186.37 517.308 1186.37 516.766 1186.1 516.223L1185.29 506.188L1185.83 515.952C1185.56 515.952 1185.56 515.681 1185.29 515.681L1184.47 506.188L1185.01 515.681C1184.74 515.681 1184.74 515.681 1184.47 515.681C1182.84 515.681 1182.84 517.308 1182.84 517.308V519.478H1183.66L1184.2 520.02V521.919H1182.84V520.834L1183.11 522.19H1182.3L1180.67 515.952L1180.94 515.138H1182.3V513.511C1182.3 513.511 1182.02 511.884 1180.67 511.612C1179.03 511.612 1178.76 513.511 1178.76 513.511V515.409H1180.12L1180.39 516.223L1179.58 521.648C1179.03 519.478 1178.76 517.579 1178.76 517.579C1178.76 517.579 1179.03 519.207 1179.03 521.105C1178.22 519.749 1177.67 518.393 1176.86 517.037C1176.59 514.053 1176.59 511.612 1176.59 511.341C1176.59 511.341 1176.59 513.782 1176.86 516.494C1176.04 514.867 1175.5 513.24 1174.96 511.884C1175.23 511.884 1175.5 511.884 1175.5 511.612C1175.5 511.341 1175.5 511.341 1175.5 511.07C1175.5 511.07 1175.5 511.07 1175.23 510.799C1175.5 510.527 1175.5 510.527 1175.5 510.256C1175.5 509.714 1174.68 509.714 1174.41 509.714V508.629H1174.68C1174.96 508.629 1174.96 508.629 1175.23 508.358C1175.23 508.358 1175.5 508.086 1175.23 507.815C1175.5 507.815 1175.5 507.544 1175.77 507.544C1176.04 507.273 1176.04 507.273 1175.77 507.002C1175.77 507.002 1175.5 506.73 1175.23 506.73C1175.23 506.73 1174.96 506.73 1174.68 506.73L1174.96 506.459L1181.21 504.018L1181.48 503.476C1181.48 503.476 1181.75 503.476 1181.75 503.204C1182.02 503.204 1182.02 502.933 1182.3 502.933C1182.3 502.933 1182.3 502.933 1182.3 502.662H1182.57V502.391C1182.3 502.391 1182.02 502.391 1181.48 502.391V502.12H1180.94V503.476H1180.39L1179.85 501.306L1180.39 500.221L1179.85 499.407H1178.76L1178.49 500.221C1178.49 500.221 1178.49 500.221 1178.22 500.492C1178.22 501.306 1178.22 501.848 1178.49 502.12L1177.13 503.747H1174.68V499.407L1175.5 499.136V498.051L1175.23 497.78L1176.59 497.238V496.153L1175.5 495.881L1171.97 496.695V497.238H1173.87V497.78C1173.6 497.78 1173.33 497.78 1173.33 498.051V498.322C1173.33 498.322 1173.6 498.594 1173.87 498.594C1173.87 498.594 1173.87 498.594 1174.14 498.594V499.136V500.763C1174.14 500.763 1174.14 500.763 1173.87 500.763L1172.51 502.933H1172.24L1170.61 503.204V501.848C1170.61 501.848 1170.61 501.848 1170.88 501.848C1170.88 501.848 1171.15 501.577 1171.15 501.306C1171.15 501.035 1170.88 501.035 1170.88 501.035C1170.88 501.035 1170.61 501.035 1170.61 501.306V501.577V503.476L1170.34 502.933C1170.34 502.662 1170.34 502.12 1170.34 501.848L1170.06 501.577C1169.79 501.577 1169.79 501.577 1169.79 501.848V502.12L1169.52 501.306C1169.79 501.306 1169.79 501.306 1169.79 501.035C1169.79 500.763 1169.79 500.763 1169.52 500.763C1169.52 500.763 1169.52 500.763 1169.25 500.763L1168.7 499.136C1168.7 499.136 1168.7 498.865 1168.43 498.865C1168.43 498.865 1168.16 498.865 1168.16 499.136L1168.43 500.492H1168.16L1167.62 496.424L1167.89 495.881V495.61H1168.98C1168.98 495.61 1169.25 495.61 1169.25 495.339C1169.25 495.339 1169.25 495.339 1169.25 495.068C1169.25 495.068 1169.25 494.525 1169.25 494.254C1169.25 494.254 1169.25 494.254 1169.25 493.983C1169.25 493.983 1169.25 493.983 1168.98 493.983C1168.98 493.983 1168.98 493.983 1168.98 494.254C1168.98 494.525 1168.98 494.797 1168.98 495.068H1167.89V494.254V493.983C1168.16 493.983 1168.16 493.983 1168.43 493.983H1168.7V493.712C1168.43 493.712 1168.16 493.712 1167.89 493.712V493.169C1167.89 493.169 1167.89 493.169 1167.89 492.898C1167.89 492.356 1167.62 491.271 1167.62 490.728C1167.62 490.728 1167.62 490.457 1167.35 490.457C1167.35 490.457 1167.07 490.457 1167.07 490.728C1167.07 490.999 1167.07 491.542 1167.07 491.813H1166.8L1166.53 493.44L1165.99 493.712V495.068L1166.26 495.339V496.424C1166.26 496.424 1165.17 501.848 1164.63 503.204C1164.08 504.561 1165.71 505.917 1165.71 505.917C1165.17 506.188 1165.44 507.273 1165.44 507.273V508.086C1165.71 507.815 1165.99 507.815 1165.99 507.815L1166.26 512.697L1165.17 512.426H1164.35C1164.63 509.985 1163 509.171 1163 509.171C1162.18 506.73 1160.55 506.188 1160.55 506.188L1157.29 509.443C1158.92 510.799 1158.92 512.697 1158.92 512.697H1158.37C1158.1 509.443 1155.38 509.171 1155.38 509.171L1154.3 508.629L1153.48 509.714V497.509L1152.94 512.697H1151.58L1151.31 525.173H1150.76C1150.49 523.546 1148.86 523.546 1148.86 523.546C1148.32 523.546 1148.04 523.546 1147.77 524.089L1137.72 524.36V522.461L1132.01 521.376H1127.39H1104.82H1087.7H1070.84H1065.68H1065.41L1061.33 523.817C1060.24 523.004 1059.15 523.004 1059.15 524.902C1059.15 525.445 1059.15 525.716 1059.43 525.716L1060.51 544.43H1057.8L1057.52 552.296L1058.07 552.838L1057.8 553.109V560.975L1058.34 561.246L1058.07 561.788V569.654V570.196V577.79L1058.34 578.062L1058.07 578.333V584.3H1055.08V586.741H1054.26L1053.99 586.469V584.571V586.198L1053.72 585.656V584.571V586.741H1052.63V584.571H1052.09C1052.09 584.3 1052.09 584.028 1052.09 584.028C1052.09 584.028 1052.09 584.028 1052.09 583.757V583.486C1052.09 583.486 1052.09 583.486 1052.09 583.215C1052.36 582.944 1052.36 582.401 1052.36 582.13C1052.36 581.859 1052.09 581.859 1051.81 581.859C1051.54 581.859 1051.27 582.13 1051.27 582.13V582.401C1051.27 582.401 1051.27 582.672 1051.54 582.944C1051.54 582.944 1051.54 582.944 1051.81 582.944C1051.81 582.944 1051.81 583.215 1052.09 583.215C1052.09 583.486 1052.09 583.757 1052.09 584.028H1051.54V586.198H1051.27C1051.27 586.198 1051 597.861 1051.27 604.099C1051.54 610.337 1054.53 611.422 1054.53 611.422L1062.42 612.778C1063.5 615.219 1064.32 612.778 1064.32 612.778L1072.75 614.676V617.931C1452.77 627.153 1661.27 617.931 1661.27 617.931C1660.46 613.049 1651.21 613.049 1648.22 613.049C1645.23 613.049 1642.24 612.236 1642.24 612.236L1641.97 609.523C1641.97 608.438 1643.33 606.269 1643.33 606.269L1658.01 586.198ZM1620.5 539.006L1620.22 537.921H1620.5V539.006ZM1620.5 536.565V537.378H1620.22V536.836L1620.5 536.565ZM1619.41 539.006H1618.32V538.463L1619.41 538.192V539.006ZM1618.86 537.378H1619.41L1618.32 537.65V537.378H1618.86ZM1181.21 503.204H1181.48C1181.48 502.933 1181.48 503.204 1181.21 503.204ZM1178.76 501.306L1178.49 501.577C1178.49 501.306 1178.22 501.035 1178.22 500.763L1178.76 501.306ZM1174.14 507.273C1174.41 507.273 1174.68 507.273 1174.96 507.273C1174.68 507.544 1174.41 507.544 1173.87 507.544L1174.14 507.273ZM1174.14 508.086C1174.41 508.086 1174.41 508.086 1174.68 508.086C1174.41 508.358 1174.14 508.358 1174.14 508.086ZM1052.09 582.13H1052.36C1052.09 582.401 1051.81 582.401 1052.09 582.13C1051.81 582.401 1051.81 582.401 1051.81 582.401C1051.81 582.401 1051.81 582.13 1052.09 582.13ZM1051.81 582.672L1052.09 582.401C1052.09 582.672 1051.81 582.672 1051.81 582.672ZM1052.36 586.741H1051.81V584.571H1052.09V584.842V584.571H1052.36V586.741ZM1053.99 586.741H1053.45V585.927L1053.99 586.741ZM1132.28 521.376L1137.72 522.461V524.089L1132.28 522.461V521.376ZM1140.43 532.496L1140.71 534.395L1132.01 530.055V529.784L1140.71 529.513L1140.16 530.327L1140.43 532.496ZM1134.45 524.631H1137.44V525.716H1137.17L1136.9 525.173L1134.45 524.631ZM1132.01 522.732L1137.44 524.36H1133.91L1132.01 523.817H1131.73L1132.01 522.732ZM1127.39 521.376H1132.01V522.732H1127.39V521.376ZM1127.39 522.732H1132.01V523.817H1127.66L1127.39 522.732ZM1130.92 530.055C1130.92 530.327 1130.65 530.327 1130.65 530.327C1130.38 530.327 1130.38 530.055 1130.38 530.055C1130.38 529.784 1130.65 529.784 1130.65 529.784C1130.65 529.513 1130.92 529.784 1130.92 530.055ZM1121.95 521.376H1127.39V522.732H1126.84V521.648V522.732H1122.22V521.376H1121.95ZM1127.11 522.732V523.817H1126.84V522.732H1127.11ZM1121.95 522.732H1126.57V523.817H1121.95V522.732ZM1121.4 521.376H1121.68V522.732H1121.4V521.376ZM1121.4 522.732H1121.68V523.817H1121.4V522.732ZM1116.51 521.376H1121.13V522.732H1116.51V521.376ZM1116.51 522.732H1121.13V523.817H1116.51V522.732ZM1111.08 521.105H1116.24V522.461H1115.7V521.376V522.461H1111.08V521.105ZM1116.24 522.732V523.817H1115.7V522.732H1116.24ZM1111.08 522.732H1115.7V523.817H1111.08V522.732ZM1104.82 521.105H1111.08V522.461H1110.53V521.376V522.461H1105.09V521.105H1104.82ZM1110.8 522.732V523.817H1110.26V522.732H1110.8ZM1104.82 522.732H1110.26V523.817H1104.82V522.732ZM1104.55 521.105V522.461H1099.39V521.105H1104.55ZM1104.55 522.732V523.817H1099.39V522.732H1104.55ZM1099.39 521.105V522.461H1098.84V521.105H1099.39ZM1099.39 522.732V523.817H1098.84V522.732H1099.39ZM1098.57 521.105V522.461H1093.13V521.376L1098.57 521.105ZM1098.57 522.732V523.817H1093.13V522.732H1098.57ZM1087.43 521.105H1092.86V522.19H1090.96H1087.7V521.105H1087.43ZM1091.23 522.732H1092.86V523.817H1091.23V522.732ZM1091.23 522.732V523.817H1090.96V522.732H1091.23ZM1087.43 522.461H1090.69V523.546H1087.43V522.461ZM1082.26 521.105H1087.43V522.461H1082.26V521.105ZM1082.26 522.461H1087.43V523.546H1082.26V522.461ZM1081.44 521.105H1082.26V522.461H1081.44V521.105ZM1081.44 522.461H1082.26V523.546H1081.44V522.461ZM1081.17 521.105V522.461H1080.9H1076.28V521.376V522.461H1071.12V521.105H1081.17ZM1081.17 522.461V523.546H1080.9V522.461H1081.17ZM1080.63 522.461V523.546H1076.01V522.461H1080.63ZM1076.01 522.461V523.546H1070.84V522.461H1076.01ZM1070.57 523.817L1070.03 524.089H1065.41V522.461H1070.57V523.817ZM1065.41 521.105H1070.3V522.461H1065.13L1065.41 521.105ZM1065.13 521.105L1064.86 524.089H1061.87C1061.6 523.817 1061.6 523.546 1061.33 523.546L1065.13 521.105ZM1065.41 522.732V524.089H1065.13L1065.41 522.732ZM1060.51 544.43L1059.43 525.987H1059.7V528.699L1060.51 544.159V544.43ZM1141.79 546.329V544.701L1133.91 543.074H1132.55L1098.84 543.345L1098.03 543.888H1097.21L1096.94 544.159H1092.86H1061.06L1060.24 528.97V526.258C1061.06 526.258 1061.6 525.716 1061.6 525.716L1128.74 529.784C1129.83 531.411 1130.92 530.869 1130.92 530.869L1143.15 537.378V538.463L1143.7 539.548L1144.24 546.871L1141.79 546.329ZM1146.96 526.258C1146.41 526.529 1146.69 527.343 1146.69 527.343L1137.72 525.716V524.631L1147.5 524.36C1147.23 525.173 1146.96 526.258 1146.96 526.258ZM1154.84 512.968H1153.75V509.985L1154.84 511.07V512.968ZM1160.82 536.565H1162.18V538.192H1160.82V536.565ZM1162.45 547.142H1161.09V545.515H1162.45V547.142ZM1183.11 522.461L1183.38 524.902H1182.84L1182.02 522.461H1183.11ZM1182.57 524.902H1182.02C1182.02 524.36 1181.75 523.817 1181.48 523.004H1182.02L1182.57 524.902ZM1180.39 523.817V523.004H1181.21C1181.48 523.817 1181.48 524.36 1181.75 524.902H1181.21C1180.94 524.631 1180.67 524.36 1180.39 523.817ZM1180.94 524.902H1180.67V524.36C1180.67 524.631 1180.94 524.902 1180.94 524.902ZM1180.12 523.546C1180.12 523.546 1180.12 523.817 1180.39 523.817V524.902H1180.12V523.546ZM1179.85 522.732C1179.85 522.732 1179.85 522.461 1179.58 522.461H1179.85V522.732ZM1180.39 523.275V523.546C1180.39 523.546 1180.12 523.546 1180.39 523.275ZM1180.39 521.648V520.291C1180.67 520.834 1180.67 521.376 1180.94 522.19H1180.39V521.648ZM1180.39 522.461H1180.94V522.732H1180.12L1180.39 522.461ZM1181.75 522.732H1181.48V522.461H1182.02L1181.75 522.732ZM1181.75 522.19H1181.21C1180.94 521.376 1180.67 520.563 1180.67 520.02V518.664L1181.75 522.19ZM1180.12 517.037L1180.39 518.122V519.478C1180.12 518.935 1180.12 518.393 1180.12 518.122V517.037ZM1179.85 518.664C1179.85 519.207 1180.12 519.478 1180.12 520.02V520.834V520.02V521.919V522.461H1179.58C1179.58 522.461 1179.58 522.19 1179.31 522.19L1179.85 518.664ZM1179.31 522.461C1179.58 522.461 1179.58 522.732 1179.58 522.732H1179.03L1179.31 522.461ZM1179.85 523.275C1179.85 523.275 1180.12 523.275 1179.85 523.275V525.173H1179.31C1179.31 524.631 1179.31 524.089 1179.03 523.275H1179.85ZM1179.31 523.817C1179.31 524.36 1179.31 524.631 1179.31 524.902H1179.03L1179.31 523.817ZM1178.76 524.902H1177.4C1177.4 524.36 1177.4 523.546 1177.4 522.461H1179.31L1178.76 524.902ZM1179.03 521.376C1179.03 521.648 1179.03 521.919 1179.03 522.19H1177.13C1177.13 520.563 1176.86 518.935 1176.86 517.037C1177.67 518.664 1178.22 520.02 1179.03 521.376ZM1175.77 522.732H1177.13C1177.13 523.817 1177.13 524.631 1177.13 525.173H1176.32L1175.77 522.732ZM1176.04 525.173H1173.6V522.732H1175.5L1176.04 525.173ZM1174.96 511.341L1174.68 511.612C1174.68 511.612 1174.68 511.341 1174.41 511.341C1174.41 511.341 1174.41 511.341 1174.68 511.341C1174.68 511.07 1174.68 511.07 1174.96 511.341ZM1173.87 509.985C1174.41 509.985 1174.68 509.985 1174.68 510.256C1174.68 510.256 1174.68 510.527 1174.41 510.527H1174.14H1173.87C1174.14 510.527 1174.14 510.256 1173.87 509.985ZM1173.87 510.527C1173.87 510.799 1173.87 510.799 1173.87 510.527C1173.87 510.799 1173.87 510.799 1173.87 510.527ZM1173.87 511.07C1174.14 511.07 1174.14 511.07 1173.87 511.07C1174.14 511.07 1174.14 511.341 1174.41 511.341H1174.14L1173.87 511.07ZM1173.87 512.968C1174.14 512.968 1174.14 512.968 1174.41 512.968C1174.41 512.968 1174.41 512.968 1174.41 513.24C1174.41 513.24 1174.41 513.24 1174.14 513.24C1174.14 513.24 1173.87 513.24 1173.87 513.511C1173.87 513.511 1173.87 513.782 1174.14 513.782H1173.87V512.968ZM1173.33 498.322C1173.6 498.322 1173.6 498.322 1173.33 498.322C1173.6 498.322 1173.6 498.322 1173.33 498.322ZM1174.41 516.494V514.867L1173.87 514.053C1174.14 514.053 1174.41 514.325 1174.96 514.325C1175.23 514.325 1175.23 514.325 1175.5 514.325C1175.5 514.325 1175.5 514.325 1175.5 514.053C1175.23 513.782 1174.96 513.782 1174.96 513.782C1174.68 513.782 1174.68 513.782 1174.68 513.782C1174.68 513.782 1174.96 513.782 1174.96 513.511C1174.96 513.24 1174.96 513.24 1174.96 512.968C1174.41 512.697 1174.14 512.697 1173.87 512.697V511.884C1174.14 511.884 1174.14 511.884 1174.41 511.884C1174.96 513.511 1175.77 515.138 1176.59 516.766C1176.59 518.664 1176.86 520.563 1176.86 522.19H1175.5L1175.23 521.105L1175.5 522.19H1173.87V516.766L1174.41 516.494ZM1173.6 501.306V503.476L1172.51 503.204L1173.6 501.306ZM1169.52 501.848C1169.52 502.12 1169.52 502.12 1169.52 501.848C1169.52 502.12 1169.52 502.12 1169.52 501.848ZM1168.43 501.577L1168.7 502.12H1168.43V501.577ZM1167.62 507.544V506.188C1168.98 506.188 1169.52 507.273 1169.52 507.273C1169.52 508.086 1169.52 510.527 1169.25 513.511C1168.7 511.07 1167.89 508.9 1167.35 507.273C1167.62 507.273 1167.62 507.544 1167.62 507.544ZM1169.52 513.782C1169.52 515.138 1169.25 516.766 1169.25 518.122L1167.35 508.086H1167.62C1168.16 509.985 1168.7 511.884 1169.52 513.782ZM1167.35 507.273C1167.35 507.544 1167.62 507.815 1167.62 508.086C1167.35 507.815 1167.35 507.815 1167.35 507.815V507.273C1167.07 507.273 1167.07 507.273 1167.35 507.273ZM1168.7 522.461H1168.43L1167.89 513.511L1166.8 512.968L1166.53 507.815C1166.8 507.815 1167.07 507.815 1167.07 507.815L1168.98 518.393C1168.7 520.834 1168.7 522.461 1168.7 522.461ZM1170.06 545.515V546.329H1169.52V545.515H1170.06ZM1169.52 537.378V536.836H1170.06V537.378H1169.52ZM1170.06 554.194V554.737H1169.52V554.194H1170.06ZM1170.06 562.873V563.416H1169.52V562.873H1170.06ZM1170.88 582.401H1169.79V579.96H1170.88V582.401ZM1172.78 530.055H1168.98V527.886H1172.78V530.055ZM1173.6 527.886H1177.4V530.055H1173.6V527.886ZM1177.13 544.973H1178.49V547.142H1177.13V544.973ZM1179.85 582.13H1178.49V579.96H1179.85V582.13ZM1183.93 529.513H1179.31V527.886H1183.93V529.513ZM1184.47 524.902H1183.66L1183.38 522.461H1184.74V524.902H1184.47ZM1190.99 537.378L1191.27 539.548H1190.99V537.378ZM1190.18 528.157H1190.45L1189.91 530.598H1189.64L1190.18 528.157ZM1189.91 554.194L1190.18 556.364H1189.91V554.194ZM1189.64 547.685V545.515H1189.91L1189.64 547.685ZM1189.91 539.548V537.107H1190.18L1189.91 539.548ZM1189.09 527.886L1188.55 530.327H1188.28L1188.82 527.886H1189.09ZM1188.82 536.836V539.006H1188.55L1188.82 536.836ZM1188.28 553.923V556.093H1188L1188.28 553.923ZM1186.1 519.478L1186.37 524.089L1186.1 523.817L1185.83 519.478H1186.1ZM1185.56 519.749L1185.83 523.817L1185.29 523.546V522.461C1185.29 522.461 1185.56 522.461 1185.56 522.19C1185.56 522.19 1185.56 521.919 1185.29 521.919L1185.01 520.291L1185.56 519.749ZM1185.01 529.784L1185.56 527.343H1185.83L1185.29 529.784H1185.01ZM1185.83 529.784L1186.37 527.343H1186.65L1186.1 529.784H1185.83ZM1186.65 538.463L1186.37 536.293H1186.65V538.463ZM1187.19 527.614H1187.46L1186.92 530.055H1186.65L1187.19 527.614ZM1186.65 544.973H1186.92V547.142H1186.65V544.973ZM1187.19 553.652V555.821H1186.92L1187.19 553.652ZM1187.19 572.366L1186.92 569.925H1187.19V572.366ZM1187.19 563.958H1186.92V561.788H1187.19V563.958ZM1187.19 538.734L1186.92 536.565H1187.19V538.734ZM1187.46 530.055L1188 527.614H1188.28L1187.73 530.055H1187.46ZM1187.73 536.836H1188V539.006H1187.73V536.836ZM1188 545.244H1188.28V547.414H1188V545.244ZM1188 562.06H1188.28V564.229H1188V562.06ZM1188.28 572.637H1188V570.467H1188.28V572.637ZM1188.55 545.244H1188.82V547.414H1188.55V545.244ZM1188.55 553.923H1188.82V556.093H1188.55V553.923ZM1188.82 572.637L1188.55 570.467H1188.82V572.637ZM1188.82 564.229H1188.55V562.06H1188.82V564.229ZM1189.36 528.157H1189.64L1189.09 530.598H1188.82L1189.36 528.157ZM1189.36 539.277L1189.09 537.107H1189.36V539.277ZM1189.64 581.587H1189.36V579.418H1189.64V581.587ZM1189.91 562.331H1190.18V564.501H1189.91V562.331ZM1189.91 570.739L1190.18 572.908H1189.91V570.739ZM1190.18 581.859H1189.91V579.689H1190.18V581.859ZM1190.72 539.548L1190.45 537.378H1190.72V539.548ZM1190.72 545.786L1190.99 547.956H1190.72V545.786ZM1190.72 554.465L1190.99 556.635H1190.72V554.465ZM1190.72 562.602L1190.99 564.772H1190.72V562.602ZM1190.99 573.18L1190.72 571.01H1190.99V573.18ZM1191.27 545.786H1191.54V547.956H1191.27V545.786ZM1191.27 554.737L1191.54 556.906H1191.27V554.737ZM1191.27 562.602L1191.54 564.772H1191.27V562.602ZM1191.54 573.18L1191.27 571.01H1191.54V573.18ZM1192.35 539.819L1192.08 537.65H1192.35V539.819ZM1192.35 546.057L1192.63 548.227H1192.35V546.057ZM1192.35 555.008L1192.63 557.178H1192.35V555.008ZM1192.63 562.873V565.043H1192.35L1192.63 562.873ZM1192.63 582.13L1192.35 579.96H1192.63V582.13ZM1192.63 573.451H1192.35V571.281H1192.63V573.451ZM1192.9 540.091L1192.63 537.921H1192.9V540.091ZM1196.7 582.944H1194.8V582.401H1196.7V582.944ZM1344.85 533.039C1345.13 533.039 1345.4 533.31 1345.4 533.581C1345.4 533.852 1345.13 534.124 1344.85 534.124C1344.58 534.124 1344.31 533.852 1344.31 533.581C1344.31 533.31 1344.85 533.039 1344.85 533.039ZM1275.54 527.614L1294.02 527.886H1276.08C1276.08 527.886 1275.81 527.614 1275.54 527.614ZM1292.93 533.852C1292.93 534.124 1292.66 534.124 1292.66 534.124C1292.39 534.124 1292.39 533.852 1292.39 533.852C1292.39 533.581 1292.66 533.581 1292.66 533.581C1292.93 533.581 1292.93 533.581 1292.93 533.852ZM1276.62 537.921H1276.08V537.107H1276.62V537.921ZM1276.9 531.14C1276.9 530.327 1276.35 530.327 1276.35 530.327V529.784L1282.6 530.327L1276.9 531.14C1276.9 531.14 1276.9 531.954 1276.9 531.14ZM1291.57 533.581V534.124H1291.03L1281.52 539.006L1280.43 538.734L1279.89 533.039L1291.57 533.581ZM1356 589.995L1355.46 573.993L1354.91 573.451L1319.57 573.722L1319.3 581.859L1319.57 582.13L1319.3 589.995L1318.76 585.927L1318.49 573.722L1315.77 573.451L1280.43 573.722V582.13L1280.16 582.401L1279.89 590.538H1279.61V548.498L1280.16 545.786C1280.97 545.515 1280.16 544.973 1280.16 544.973V543.074C1280.7 542.803 1280.43 541.175 1280.43 541.175H1280.7C1280.97 541.989 1281.24 542.26 1281.24 541.989C1281.24 541.718 1280.97 540.633 1280.97 540.633L1282.6 539.548C1283.42 540.091 1283.15 539.277 1283.15 539.277L1291.3 535.48L1292.39 534.395C1292.93 534.937 1294.56 533.039 1294.56 533.039L1320.93 531.683L1343.22 532.768C1344.31 534.395 1345.4 534.124 1345.4 534.124L1345.94 534.937L1356.54 540.091C1356.27 540.633 1357.09 541.447 1357.09 541.447C1357.09 541.447 1357.63 541.175 1357.09 541.447C1356.54 541.718 1357.36 542.532 1357.36 542.532V544.43C1356.54 544.973 1357.63 545.244 1357.63 545.244L1358.17 547.414L1358.45 589.453L1356 589.995ZM1345.67 533.039L1356.54 532.768L1357.36 533.039V538.734L1346.21 533.581L1345.67 533.039ZM1345.94 528.157L1361.16 527.614C1360.89 527.886 1360.62 527.886 1360.62 527.886L1345.94 528.157ZM1361.71 537.378H1361.16V536.293H1361.71V537.378ZM1616.69 539.548H1616.96L1616.69 542.532C1616.42 543.888 1616.15 545.244 1615.87 546.329C1616.15 544.159 1616.42 541.175 1616.69 539.548ZM1616.15 546.6C1616.15 545.786 1616.42 544.973 1616.69 544.159V544.973L1616.96 552.296H1615.87L1616.15 549.041C1616.15 548.77 1616.15 547.142 1616.15 546.6ZM1615.6 551.211V549.583V551.211ZM1615.6 552.567H1616.69V553.109L1615.6 555.279H1615.33V553.923L1615.6 552.567ZM1616.69 556.906L1616.96 563.144H1615.87L1616.69 556.906ZM1616.42 539.548C1616.42 539.548 1616.42 539.819 1616.42 539.548C1616.15 540.633 1616.15 541.718 1615.87 542.803L1615.6 544.973L1615.87 539.277L1616.42 539.548ZM1615.87 539.548L1615.6 546.6H1615.33C1615.33 544.973 1615.6 541.989 1615.87 539.548ZM1544.93 540.091C1545.2 540.091 1545.2 540.362 1545.2 540.362C1545.2 540.633 1544.93 540.633 1544.93 540.633C1544.65 540.633 1544.65 540.362 1544.65 540.362C1544.65 540.362 1544.65 540.091 1544.93 540.091ZM1543.29 540.091V540.362L1532.96 545.515C1532.96 544.973 1532.15 545.515 1532.15 545.515L1531.88 539.819L1543.29 540.091ZM1528.62 544.973H1528.07V544.159H1528.62V544.973ZM1528.34 537.107C1528.07 536.022 1527.8 535.209 1527.53 534.666L1542.48 534.937L1528.89 537.921C1528.89 536.836 1528.34 537.107 1528.34 537.107ZM1607.72 573.993L1577.55 574.264H1574.83V572.637H1539.49L1531.88 572.908L1531.61 555.008L1531.88 549.583L1532.42 549.312V548.227C1532.42 548.227 1532.96 548.77 1533.24 548.227C1533.51 547.685 1532.96 547.142 1532.96 547.142L1543.84 541.718L1544.65 541.175C1544.65 541.175 1545.74 541.447 1546.56 539.819L1612.88 536.022L1613.7 535.751C1613.7 535.751 1614.24 537.107 1615.6 536.022V539.277H1615.87C1615.87 540.091 1615.6 541.175 1615.6 542.26C1615.33 544.43 1615.33 545.515 1615.33 546.329C1614.79 546.6 1615.06 547.414 1615.06 547.956C1615.06 548.498 1615.06 548.77 1615.6 549.041V552.296H1614.24V555.008H1613.7L1613.97 555.55L1615.6 556.906L1612.61 572.908H1607.99L1607.72 573.993ZM1615.33 552.567V555.008H1614.79V552.567H1615.33ZM1614.24 552.567V555.008H1613.97V552.567H1614.24ZM1613.16 572.637L1614.79 564.772L1613.7 572.637H1613.16ZM1614.24 572.637L1615.6 563.687H1616.96L1617.23 572.637H1614.24ZM1650.13 575.349V578.875L1641.43 575.349H1650.13ZM1640.34 575.621L1649.85 579.418V583.215H1645.5L1640.07 575.892L1640.34 575.621ZM1639.8 575.892L1635.17 579.689L1620.5 550.397L1639.8 575.892ZM1620.5 554.465H1619.41V552.567H1619.95L1620.5 554.465ZM1619.95 552.567H1620.77V554.194L1619.95 552.567ZM1619.14 552.296V551.211L1619.68 552.296H1619.14ZM1619.95 580.774C1619.68 580.774 1619.68 580.774 1619.68 580.774C1619.68 580.774 1619.68 577.79 1619.68 574.536H1619.95V580.774ZM1619.95 574.264H1619.68C1619.68 570.467 1619.68 566.128 1619.68 566.128H1619.95V574.264ZM1621.04 562.06V563.144H1619.95C1619.95 563.144 1619.95 565.043 1619.68 565.043V562.873L1621.04 562.06ZM1630.83 581.859C1630.55 581.045 1630.01 581.587 1629.74 581.316C1629.47 581.316 1629.74 580.774 1629.47 580.774C1629.19 580.774 1628.92 581.045 1628.92 581.045C1628.92 580.503 1628.65 580.231 1628.38 580.231C1628.11 580.231 1628.11 580.503 1627.84 580.231C1627.84 580.231 1627.56 579.96 1627.29 579.689C1626.75 579.418 1626.48 579.689 1625.93 579.689C1625.66 579.689 1625.39 579.418 1624.85 579.418C1624.57 579.418 1623.76 579.689 1623.49 579.96C1623.21 580.231 1623.49 580.503 1623.21 580.774C1622.94 581.045 1621.58 581.587 1621.31 581.316C1621.04 581.316 1621.31 581.045 1621.04 581.045C1620.77 581.045 1620.77 581.045 1620.5 580.774C1620.5 580.774 1620.5 580.774 1620.22 580.774V574.536H1621.58C1621.58 574.536 1621.85 574.536 1621.85 574.264C1621.85 574.264 1621.85 573.993 1621.58 573.993H1621.04V565.857H1621.31V565.585H1620.22L1621.58 564.501H1623.49C1623.49 564.501 1623.76 564.501 1623.76 564.229C1623.76 564.229 1623.76 563.958 1623.49 563.958H1621.85V562.873C1622.67 562.873 1623.49 562.602 1623.76 562.873C1623.76 562.873 1623.76 562.873 1623.76 563.144C1623.76 563.144 1623.76 563.416 1624.03 563.416C1624.03 563.416 1624.3 563.416 1624.3 563.144C1624.3 562.873 1624.3 562.873 1624.03 562.602C1623.76 562.331 1622.67 562.331 1622.13 562.602V562.331H1621.85L1622.13 561.246C1622.13 561.246 1622.13 561.246 1622.13 560.975H1621.58H1620.22L1619.95 556.364L1621.58 555.008L1631.64 579.96C1630.55 580.774 1630.83 581.316 1630.83 581.859ZM1620.5 574.264V566.128V574.264ZM1621.04 574.264L1620.77 566.128H1621.04V574.264ZM1621.04 554.465H1620.5V552.567H1620.77L1621.04 554.465ZM1631.37 581.859V581.587V581.859ZM1632.46 581.587C1632.18 581.587 1631.91 581.587 1631.64 581.587L1631.37 580.774V580.503L1621.31 555.279L1622.13 554.465V554.194H1621.31V552.024H1619.95L1619.14 550.668C1619.14 550.668 1619.68 550.397 1620.22 550.126L1635.17 579.96L1632.73 581.859C1632.46 581.859 1632.46 581.587 1632.46 581.587ZM1634.63 583.215C1633.82 583.486 1634.09 581.859 1633.27 581.587L1635.17 579.96L1636.81 583.215H1634.63ZM1637.08 583.215L1635.45 579.96L1640.07 576.163L1645.5 583.486H1637.08V583.215Z" fill="#D4D4D4"/>
</g>
<rect x="-191" y="616" width="1967" height="8" fill="#C4C4C4"/>
<path fill-rule="evenodd" clip-rule="evenodd" d="M1021.07 536.56H1021.45V554.202H1021.07V536.56ZM1030.56 442.464V442.155H1030.36L1028.04 442L965.861 460.262L937 460.881V461.036L965.28 460.417L964.118 460.726L939.518 461.345H938.743H937V461.5H938.743C938.55 461.81 938.356 462.119 937.968 462.738H937.194V462.893H937.775C937.581 463.202 937.387 463.512 937.194 463.821L937.387 465.524C937.581 465.679 937.775 465.833 937.968 465.988C937.968 465.988 937.969 465.988 938.162 465.988H937.387V466.143H938.743C940.487 466.452 944.167 466.452 944.748 465.988C949.009 465.833 953.271 465.679 957.726 465.679L958.888 465.833H959.469H960.631L960.825 465.679C971.866 465.369 983.294 465.214 994.141 464.905C994.916 465.214 993.56 464.75 994.529 465.06C996.272 465.369 999.952 465.369 1000.53 464.905C1004.79 464.75 1009.06 464.75 1013.51 464.595L1014.67 464.75H1015.25H1016.42L1016.61 464.595L1023.97 464.44L1023.78 466.298H1023L1023.39 471.56L1020.48 537.024H1020.87L1023.58 474.036L1024.36 475.738H1025.52V476.512C1025.33 476.512 1025.13 476.512 1025.13 476.512L1024.36 477.905L1025.52 478.06L1025.33 484.405L1024.94 485.024C1024.94 485.024 1025.13 485.024 1025.33 485.024L1024.75 507L1024.36 507.619H1024.75L1024.16 536.714L1024.36 571.071H1024.55V536.714L1025.13 507.619H1025.71V509.786H1025.52L1025.71 509.94V510.095V511.179H1025.52L1025.33 511.488H1025.71V514.429L1025.52 514.583L1025.71 514.893V515.667L1025.52 515.821V516.131V516.286L1025.71 516.595V520.774H1025.52V521.083V521.238L1025.71 521.548V526.345H1025.52V526.655V526.81L1025.71 526.964L1025.52 536.714V537.643H1025.33V537.952V538.107L1025.52 538.417V543.214H1025.33V543.524V543.679L1025.52 543.833L1025.13 555.905V560.702H1024.94V561.012V561.167L1025.13 561.321V571.69V570.607H1024.75L1024.36 587.321L1023.58 623.536H1023.97L1024.75 587.167L1025.13 571.69H1025.52V571.845V576.643H1025.33V576.952V577.107L1025.52 577.262L1025.33 587.012V587.94H1025.13V588.25V588.405L1025.33 588.714V593.512H1025.13V593.821V593.976L1025.33 594.131L1024.94 606.202V611H1024.75V611.31V611.464L1024.94 611.619V621.988L1024.75 622.298C1024.75 622.298 1024.75 622.298 1024.94 622.298V622.917H1025.33V622.452C1025.91 622.452 1027.07 622.607 1028.23 622.762V623.071H1028.62V622.917C1029.39 622.917 1030.17 623.071 1030.94 623.071H1035.21C1035.59 623.071 1035.98 622.917 1036.37 622.917H1036.56V623.071H1036.95V622.607C1037.72 622.143 1038.3 620.905 1036.95 620.75C1036.95 619.357 1036.75 617.964 1036.75 616.726L1037.14 616.417V616.262V615.952L1036.75 615.798C1036.56 612.393 1037.14 608.679 1036.95 605.274C1037.72 604.964 1036.56 605.429 1037.14 605.119C1037.92 604.655 1038.5 603.417 1037.14 603.262C1037.14 601.869 1037.14 600.476 1037.14 599.238L1037.53 598.929V598.774V598.464L1037.14 598.31C1037.14 594.75 1036.95 591.036 1036.95 587.476C1037.53 587.167 1038.5 586.548 1037.14 586.238C1037.14 584.845 1037.14 583.452 1037.14 582.214L1037.34 581.905V581.75V581.44L1036.95 581.286C1036.95 578.19 1036.75 575.095 1036.75 572V572.155H1037.14V571.69C1037.92 571.226 1038.5 569.988 1037.14 569.833C1037.14 568.44 1036.95 567.048 1036.95 565.81L1037.34 565.5V565.345V565.036L1036.95 564.881C1036.75 561.476 1037.34 557.762 1037.14 554.357C1037.92 554.048 1036.75 554.512 1037.34 554.202C1038.11 553.738 1038.69 552.5 1037.34 552.345C1037.34 550.952 1037.34 549.56 1037.14 548.321L1037.53 548.012V547.857V547.548L1037.14 547.393C1037.14 543.833 1036.95 540.119 1036.95 536.56C1037.53 536.25 1038.5 535.631 1037.14 535.321C1037.14 533.929 1037.14 532.536 1037.14 531.298L1037.34 530.988V530.833V530.524L1036.95 530.369C1036.95 526.81 1036.75 523.095 1036.75 519.536C1036.95 519.381 1036.95 519.381 1036.95 519.226C1036.95 519.071 1036.95 519.071 1036.75 519.071C1036.75 516.595 1036.56 513.964 1036.56 511.488L1036.75 511.333V511.179V510.869L1036.56 510.714C1036.56 509.476 1036.56 508.238 1036.37 507C1036.95 506.536 1037.34 505.607 1036.37 505.298C1036.37 504.06 1036.37 502.821 1036.17 501.583C1036.37 501.429 1036.56 501.274 1036.56 501.119C1036.56 500.964 1036.37 500.81 1036.17 500.655C1036.17 498.798 1035.98 497.095 1035.98 495.238V494.929H1035.79C1035.59 491.833 1035.4 488.738 1035.21 485.798H1035.4L1035.21 485.488H1035.01C1035.01 484.869 1035.01 484.405 1034.82 483.786C1034.82 483.476 1035.01 483.321 1035.01 483.321H1034.82C1034.62 481.619 1034.62 479.762 1034.43 478.06H1034.62C1035.59 477.905 1036.75 476.048 1034.43 476.048H1034.24V475.274H1036.17L1035.4 465.369H1033.27L1033.46 465.06L1034.04 465.214L1035.4 465.369V465.524L1035.79 465.679L1037.53 463.667L1050.7 463.357C1051.86 463.512 1053.8 463.821 1054.58 463.357C1058.84 463.202 1063.1 463.202 1067.55 463.048L1068.72 463.202H1069.3H1070.46L1070.65 463.048L1102.23 462.274H1101.45V462.429H1102.81C1104.55 462.738 1108.23 462.738 1108.81 462.274C1113.07 462.119 1117.33 461.964 1121.79 461.964L1122.95 462.119H1123.53H1124.69L1124.89 461.964C1135.93 461.655 1147.36 461.5 1158.2 461.19C1158.98 461.5 1157.62 461.036 1158.59 461.345C1160.33 461.655 1164.02 461.655 1164.6 461.19C1168.86 461.036 1173.12 461.036 1177.57 460.881L1178.74 461.036H1179.32H1180.48L1180.67 460.881C1192.1 460.571 1203.34 460.262 1214.76 459.952C1215.93 460.107 1217.86 460.417 1218.64 459.952C1222.9 459.798 1227.16 459.798 1231.62 459.643L1232.78 459.798H1233.36H1234.52L1234.72 459.643C1246.14 459.333 1257.38 459.024 1268.81 458.714H1269L1268.42 454.69C1268.23 454.69 1268.03 454.69 1267.64 454.69C1267.45 454.69 1267.26 454.69 1267.06 454.845L1266.68 454.69H1268.42V454.536H1266.29H1266.09H1264.93H1264.35L1263.58 454.69L1248.47 455H1248.27H1247.11H1246.53H1245.95L1215.15 455.619H1212.05L1211.86 455.464H1210.7H1210.12L1209.34 455.619L1194.23 455.929H1194.04H1192.88L1190.55 455.774L1215.15 455.31L1268.03 454.226V454.071L1215.15 455.155L1189.39 455.774C1173.89 454.536 1114.23 450.202 1092.54 448.5C1068.13 446.024 1030.56 442.464 1030.56 442.464ZM1037.14 463.667H1037.34L1035.79 465.369L1035.59 464.595L1035.4 463.667H1037.14ZM1032.69 463.821L1031.72 464.286V463.976L1032.69 463.821ZM1031.14 463.821L1031.33 464.131V464.44L1030.94 464.595L1030.36 464.75L1030.94 465.214L1031.53 465.524H1030.56L1028.62 465.214V464.44L1030.75 463.667L1031.14 463.821ZM1029.59 463.821L1028.43 464.286V463.976L1029.59 463.821ZM1027.84 463.976V464.44L1026.49 464.905V464.44V464.595L1027.84 463.976ZM1027.26 463.976L1026.68 464.286V463.976H1027.26ZM1025.91 463.976V465.833H1024.75L1024.94 463.976H1025.91ZM1027.46 444.321C1027.07 445.869 1026.68 447.571 1026.68 448.19L1026.49 448.345L1026.3 448.655H1026.49V448.81V450.667C1026.3 450.667 1026.3 450.667 1026.3 450.667L1025.33 451.75L1024.36 452.833L1025.13 452.988L1024.75 459.024L970.704 460.107L1025.71 443.548L1027.46 444.321ZM1025.13 459.024L1025.52 453.143L1026.3 453.298L1026.1 459.024H1025.13ZM1026.68 458.869H1027.46H1026.68ZM1029.2 458.869L1030.75 458.56V458.869H1029.2ZM1031.33 458.869V458.405L1032.49 458.095V458.714L1031.33 458.869ZM1032.88 458.869L1032.69 456.548L1032.49 456.238L1032.3 454.536V454.381V454.226H1032.11V453.917L1034.04 451.44L1031.91 451.131H1032.11L1031.91 450.821L1031.72 449.583L1031.53 449.274V449.119L1031.33 448.5H1031.53C1031.53 448.5 1031.53 448.345 1031.53 448.19H1031.14L1030.17 443.548L1029.98 443.083L1036.56 443.548C1043.15 444.012 1058.06 445.56 1066.39 446.179C1074.72 446.798 1092.35 447.881 1095.83 448.655C1099.32 449.274 1127.6 450.976 1138.06 451.905C1147.36 452.679 1178.93 454.845 1186.1 455.464L1100.48 457.321V457.476L1187.45 455.619L1193.07 455.774H1192.49H1191.91L1153.56 456.548L1138.45 456.857H1138.25H1137.09H1136.51H1135.93L1103 457.631H1102.61H1103.77V457.476L1050.89 458.56L1036.95 458.869V458.56L1036.75 458.869H1035.79L1035.4 458.714L1036.95 458.25V457.94L1035.21 458.56L1036.17 457.476L1036.95 458.095V457.631V457.167L1036.56 457.321L1036.95 456.857V455.929L1034.24 459.024L1032.88 458.869ZM965.28 460.726L967.798 460.417L1024.94 459.179V459.488L990.655 460.107L975.546 460.417H975.352H974.19H973.609H973.028L965.28 460.726ZM1025.13 459.333V459.024H1026.1V459.333H1025.13ZM1026.68 459.333V459.024H1027.65L1026.88 459.333H1026.68ZM1027.26 459.333L1028.04 459.179V459.333H1027.26ZM1028.23 459.333V459.024L1029.39 459.179H1029.2H1028.62L1028.23 459.333ZM1031.53 459.179H1031.33V458.869H1032.69V459.179H1031.53ZM1033.07 459.179V458.869H1035.01L1034.82 459.179H1033.07ZM1036.37 459.179L1036.17 459.024L1037.53 459.179H1036.37ZM1037.92 459.179V458.869L1051.86 458.56L1103 457.476H1101.26V457.631H1100.87L1100.09 457.786L1084.99 458.095H1084.79H1083.63H1083.05H1082.47L1051.67 458.714H1048.57L1048.38 458.56H1047.21H1046.63L1045.86 458.714L1037.92 459.179ZM1037.53 458.869L1037.34 459.024L1036.95 458.869H1037.53ZM1030.75 459.024V459.179L1029.98 459.024H1030.75ZM968.186 460.107L986.587 454.536L986.974 454.845L969.735 460.107H968.186ZM963.73 460.881L971.091 460.726L960.05 462.119H959.082L956.37 461.036L963.73 460.881ZM1102.61 457.631H1102.81H1102.61ZM994.141 464.595L982.132 464.905L984.65 463.512L993.173 463.357L993.366 463.512L992.01 463.357H989.88L993.56 463.667V464.131C993.754 464.131 994.141 464.44 994.141 464.595ZM980.776 464.905C974.578 465.06 967.798 465.06 961.6 465.214L964.118 463.976C970.51 463.821 976.902 463.667 983.294 463.512L981.357 464.595L970.51 463.667L968.96 463.821L980.776 464.905ZM959.856 465.214H958.501L946.685 464.286C951.915 464.131 957.145 463.976 962.375 463.821L959.856 465.214ZM956.564 465.369C952.883 465.524 949.203 465.524 945.523 465.679C945.523 465.679 945.523 465.679 945.523 465.524C945.523 465.06 945.329 464.75 945.135 464.44L956.564 465.369ZM992.979 463.048L984.844 463.202H983.488L978.258 463.357L977.289 463.202L980.97 461.81L986.781 462.893L986.006 463.202H987.168L987.749 463.048L988.524 463.202H990.267L988.33 462.893L991.429 461.655L992.592 461.81C992.592 461.964 992.592 462.274 992.785 462.429C992.592 462.583 992.785 462.893 992.979 463.048ZM969.541 463.667H969.929L967.411 463.202L971.478 462.119L976.321 463.202L975.934 463.357L969.541 463.667ZM968.767 463.667L964.505 463.821H962.762L957.532 463.976L961.6 462.429L966.055 463.202L964.312 463.667H965.474L966.83 463.357L968.767 463.667ZM955.208 463.976C951.721 464.131 948.428 464.131 944.942 464.286L948.622 462.893L955.208 463.976ZM944.942 463.821C944.748 463.512 944.554 463.202 944.554 462.893C944.554 462.738 944.554 462.738 944.554 462.583L958.113 462.274H959.082L980.389 461.655L976.902 463.048L972.06 461.964H971.672H970.897L966.636 463.048L961.987 462.274H961.212H960.825L956.37 463.976L949.009 462.583H948.235H947.847L944.942 463.821ZM981.744 461.655L990.461 461.5L987.362 462.738L981.744 461.655ZM991.817 461.345H992.592V461.5L991.817 461.345ZM992.592 461.19L980.001 461.5L990.461 460.262H991.623L992.979 460.726C992.785 460.881 992.592 461.036 992.592 461.19ZM976.515 461.655L961.987 461.964L972.834 460.571H973.803L976.515 461.655ZM957.532 462.119L944.361 462.429V462.274L954.82 461.036L957.532 462.119ZM944.167 462.119C943.973 461.655 943.779 461.345 943.779 461.345H942.424L952.883 461.036L944.167 462.119ZM975.74 460.571L988.911 460.262L978.452 461.5L975.74 460.571ZM993.56 460.262H994.335C994.141 460.262 993.948 460.262 993.56 460.262ZM994.529 460.262C994.722 460.262 994.722 460.262 994.529 460.262V460.262ZM1051.86 459.024V459.488C1051.28 459.179 1050.7 459.024 1050.12 459.179C1049.93 459.179 1049.73 459.179 1049.54 459.333L1049.15 459.179L1051.86 459.024ZM1044.5 459.179L1037.92 459.952V459.333L1044.5 459.179ZM1036.56 460.107H1036.17H1036.56ZM1034.82 460.262H1034.62L1035.4 459.179H1035.98L1036.56 459.643L1034.82 460.262ZM1033.85 460.262L1033.07 459.952V459.333H1034.62L1033.85 460.262ZM1032.69 459.798L1032.3 459.643L1032.69 459.798ZM1036.56 459.333H1037.14L1036.95 459.643L1036.56 459.333ZM1027.07 459.488H1026.68H1027.07ZM1026.1 459.643L1025.13 459.798V459.643H1026.1ZM1024.75 459.798L1016.03 460.881H1015.06L1012.35 459.798L1024.94 459.488L1024.75 459.798ZM1008.86 459.952L1000.15 461.036C999.952 460.571 999.758 460.262 999.758 460.262L1008.86 459.952ZM1000.15 461.19L1010.61 459.952L1013.32 461.036L1000.15 461.19ZM1013.7 461.036H1014.67L1024.55 460.726V461.19L1022.23 461.81L1017.58 460.881H1016.8H1016.42L1011.96 462.583L1004.6 461.19H1003.83H1003.44L1000.34 462.429C1000.15 462.119 999.952 461.81 999.952 461.5C999.952 461.345 999.952 461.345 999.952 461.19L1013.7 461.036ZM1024.94 460.726H1025.91V460.881L1024.94 461.19V460.726ZM1026.68 460.726H1027.84H1027.46H1026.68ZM1028.23 460.726H1028.62H1028.23ZM1030.17 460.726H1030.94V461.036H1029.78L1030.17 460.726ZM1031.33 460.571H1032.69V460.881H1031.33V460.571ZM1033.07 460.571H1033.46L1033.07 461.036V460.571ZM1034.82 460.571H1036.17L1035.4 460.881L1034.82 460.571ZM1034.82 461.036L1034.43 461.19L1034.24 461.036H1034.82ZM1034.24 461.345L1033.66 461.655L1034.04 461.19L1034.24 461.345ZM1032.49 461.81L1031.91 461.655L1032.69 461.19V461.036V460.881V461.5L1032.49 461.81ZM1031.53 461.655V461.345H1032.3L1031.53 461.655ZM1030.94 461.5L1029.78 461.19H1030.94V461.5ZM1017.77 460.881L1024.75 460.107V460.726L1017.77 460.881ZM1025.13 459.952L1026.1 459.798V460.571H1025.13V459.952ZM1026.68 459.798L1027.84 459.643V460.571H1026.68V459.798ZM1028.23 459.488H1028.62H1029.59L1030.75 459.952V460.107L1029.01 460.571H1028.04L1028.23 459.488ZM1031.33 460.107L1032.3 460.417H1031.33V460.107ZM1030.94 460.417H1030.56H1030.94ZM1035.79 460.417H1036.17H1035.79ZM1037.92 460.107L1046.25 459.024H1047.41L1048.76 459.488C1048.57 459.643 1048.38 459.798 1048.38 459.952L1037.92 460.262V460.107ZM1048.38 460.262H1047.6H1048.38ZM1046.44 460.262L1043.34 461.5L1038.11 460.571L1046.44 460.262ZM1000.92 463.048L1004.6 461.655L1011.19 462.893C1007.7 462.893 1004.41 462.893 1000.92 463.048ZM1013.32 462.738L1017.39 461.19L1021.84 461.964L1020.1 462.429H1021.26L1022.61 462.119L1024.55 462.429L1020.29 462.583H1018.55L1013.32 462.738ZM1025.33 462.429H1025.71L1024.94 462.274V461.5L1026.1 461.19V462.429H1025.33ZM1024.55 462.274L1023 461.964L1024.55 461.655V462.274ZM1026.68 461.036L1027.07 461.19L1026.68 461.345V461.036ZM1029.01 461.345L1031.14 461.81L1030.17 462.274H1028.43V461.5L1029.01 461.345ZM1031.53 461.964L1032.3 462.119L1031.91 462.274H1032.11H1031.53V461.964ZM1031.14 462.274H1030.75L1031.14 462.119V462.274ZM1027.84 462.429H1026.68L1027.84 461.81V462.429ZM1034.24 462.274L1034.62 461.81L1033.66 462.119H1033.46L1034.62 461.655L1035.01 461.964L1034.82 462.274V462.429L1034.24 462.274ZM1035.01 461.345L1035.59 461.036L1035.21 461.5L1035.01 461.345ZM1037.72 460.726L1042.76 461.655L1041.98 461.964H1043.15L1043.73 461.81L1044.89 461.964H1045.86L1043.92 461.655L1047.02 460.417L1048.18 460.571C1048.18 460.726 1048.18 461.036 1048.38 461.19C1048.38 461.345 1048.57 461.655 1048.76 461.81L1040.63 461.964H1039.27H1036.95L1036.75 461.5L1037.92 461.655V461.345L1036.95 461.19L1037.34 460.881L1038.11 461.345V460.881L1037.53 460.571L1037.72 460.726ZM1036.75 462.119H1036.56L1036.75 461.964V462.119ZM1048.96 462.119L1049.15 462.274L1047.41 462.119H1045.86L1049.35 462.429C1049.73 462.738 1050.12 463.048 1050.7 463.202L1038.3 463.512L1040.44 462.274L1048.96 462.119ZM1036.17 463.512H1035.4H1035.79H1036.17ZM1033.66 463.667L1033.46 463.357H1033.85L1033.66 463.667ZM1032.3 463.667H1031.72L1031.91 463.357L1032.3 463.667ZM1029.98 463.667H1028.23V463.512L1029.2 462.893L1030.94 463.048V463.202L1029.98 463.667ZM1027.46 463.821H1026.49V462.893L1027.84 463.048V463.667L1027.46 463.821ZM1025.91 463.821H1024.75V462.583H1025.91V462.738H1025.33H1025.91V463.821ZM1024.55 463.821L1017.58 463.976L1020.1 462.738L1024.75 462.583L1024.55 463.821ZM1026.68 462.583H1028.04V462.738L1026.68 462.583ZM1028.23 462.583H1029.59L1029.01 462.893H1028.23V462.583ZM1030.36 462.429H1031.14V462.893L1029.59 462.738L1030.36 462.429ZM1031.53 462.429H1031.91L1031.72 462.583L1031.33 462.738L1031.53 462.429ZM1033.27 462.429H1034.43L1033.85 463.202H1033.27H1033.66L1033.27 463.048V462.429ZM1036.37 462.429H1036.75L1036.95 463.202L1035.98 462.738L1036.37 462.429ZM1037.14 462.274H1039.08L1038.11 462.738L1037.34 463.202L1037.14 462.274ZM1032.88 463.202H1032.49H1032.88ZM1028.23 462.893H1028.81L1028.23 463.202V462.893ZM1032.49 463.202H1032.88V463.512L1032.49 463.202ZM1015.64 464.131H1014.29L1002.47 463.202C1007.7 463.048 1012.93 462.893 1018.16 462.893L1015.64 464.131ZM1012.54 464.131C1008.86 464.286 1005.18 464.286 1001.5 464.44C1001.5 464.44 1001.5 464.44 1001.5 464.286C1001.5 463.821 1001.31 463.512 1001.11 463.202L1012.54 464.131ZM1092.15 462.119L1094.28 460.881L1101.64 460.726H1100.48L1101.84 460.881V461.5C1102.03 461.655 1102.03 461.655 1102.23 461.81L1092.15 462.119ZM1094.67 460.881H1093.51L1088.28 461.036L1087.31 460.881L1090.99 459.488L1096.8 460.571L1096.03 460.881H1097.19L1097.77 460.726L1098.54 460.881H1099.71L1098.35 460.726L1101.64 459.488L1102.42 459.643C1102.23 459.798 1102.23 460.107 1102.03 460.262L1102.23 461.036L1094.67 460.881ZM1093.12 461.036L1091.18 462.119L1080.53 461.345H1077.63L1090.41 462.119C1084.21 462.274 1077.82 462.429 1071.62 462.583L1074.14 461.345C1080.34 461.345 1086.73 461.19 1093.12 461.036ZM1098.54 457.94L1088.09 459.179L1085.37 458.25L1098.54 457.94ZM1080.92 458.405L1069.88 459.643H1068.91L1066.2 458.714L1080.92 458.405ZM1062.9 458.714L1054.19 459.798C1053.99 459.333 1053.8 459.024 1053.8 459.024H1052.44L1062.9 458.714ZM1053.99 459.952L1064.45 458.714L1067.17 459.643L1053.99 459.952ZM1067.75 459.798H1068.72L1090.02 459.333L1086.54 460.571L1081.69 459.488H1081.31H1080.53L1076.27 460.571L1071.62 459.798H1070.85H1070.46L1066 461.5L1058.45 460.107H1057.09L1057.48 460.262L1054.38 461.345C1054.19 461.036 1053.99 460.726 1053.99 460.417C1053.99 460.417 1053.99 460.262 1053.99 460.107L1067.75 459.798ZM1071.81 459.643L1082.66 458.405H1083.63L1086.34 459.333L1071.81 459.643ZM1089.83 459.179L1100.29 457.94H1101.45L1102.61 458.405L1102.23 458.869H1101.45L1089.83 459.179ZM1102.03 459.179L1101.45 459.024L1102.03 459.179ZM1100.29 459.024L1097 460.262L1091.38 459.333L1100.29 459.024ZM1054.96 461.655L1058.64 460.262L1065.23 461.345C1061.74 461.655 1058.26 461.655 1054.96 461.655ZM1067.36 461.5L1071.43 459.952L1075.88 460.726L1073.75 461.345H1075.3L1076.66 460.881L1078.59 461.19L1074.33 461.345H1072.59L1067.36 461.5ZM1079.37 461.19H1079.76L1077.24 460.726L1081.31 459.798L1086.15 460.881L1085.76 461.036H1086.92H1087.12L1079.37 461.19ZM1072.2 461.5L1069.68 462.738H1068.33L1056.51 461.81C1061.55 461.81 1066.97 461.655 1072.2 461.5ZM1054.96 461.964L1066.39 462.893C1062.71 463.048 1059.03 463.048 1055.35 463.202C1055.35 463.202 1055.35 463.202 1055.35 463.048C1055.16 462.583 1055.16 462.274 1054.96 461.964ZM1158.2 460.726L1146.19 461.036L1148.71 459.643L1157.24 459.488L1157.43 459.643L1156.07 459.488H1153.94L1157.62 459.798V460.262C1157.82 460.417 1158.2 460.726 1158.2 460.726ZM1144.84 461.036C1138.64 461.19 1131.86 461.19 1125.66 461.345L1128.18 460.107C1134.57 459.952 1140.96 459.798 1147.36 459.643L1145.42 460.726L1134.57 459.798L1133.02 459.952L1144.84 461.036ZM1123.92 461.5H1122.56L1110.75 460.571C1115.98 460.417 1121.21 460.262 1126.44 460.107L1123.92 461.5ZM1120.63 461.655C1116.95 461.81 1113.27 461.81 1109.59 461.964C1109.59 461.964 1109.59 461.964 1109.59 461.81C1109.59 461.345 1109.39 461.036 1109.2 460.726L1120.63 461.655ZM1157.04 459.333L1148.91 459.488H1147.55L1142.32 459.643L1141.35 459.488L1145.03 458.095L1150.84 459.179L1150.07 459.488H1151.23L1151.81 459.333L1152.59 459.488H1154.33L1152.39 459.179L1155.49 457.94L1156.65 458.095C1156.65 458.25 1156.65 458.56 1156.85 458.714C1156.65 458.869 1156.85 459.024 1157.04 459.333ZM1133.6 459.798H1133.99L1131.47 459.333L1135.54 458.25L1140.38 459.333L1140 459.488L1133.6 459.798ZM1132.64 459.952L1128.37 460.107H1126.63L1121.4 460.262L1125.47 458.714L1129.92 459.488L1128.18 459.952H1129.34L1130.7 459.643L1132.64 459.952ZM1119.27 460.262C1115.78 460.417 1112.49 460.417 1109 460.571L1112.68 459.179L1119.27 460.262ZM1109 460.107C1108.81 459.798 1108.62 459.488 1108.62 459.179C1108.62 459.024 1108.62 459.024 1108.62 458.869L1122.18 458.56H1123.14L1144.45 457.94L1140.96 459.333L1136.12 458.25H1135.74H1134.96L1130.7 459.333L1126.05 458.56H1125.28H1124.89L1120.43 460.262L1113.07 458.869H1112.3H1111.91L1109 460.107ZM1145.81 457.94L1154.52 457.786L1151.42 459.024L1145.81 457.94ZM1155.69 457.631H1156.46V457.786L1155.69 457.631ZM1156.65 457.476L1144.06 457.786L1154.52 456.548H1155.69L1157.04 457.012C1156.85 457.012 1156.65 457.321 1156.65 457.476ZM1140.58 457.786L1126.05 458.095L1136.9 456.702H1137.87L1140.58 457.786ZM1124.31 458.25H1123.34L1120.63 457.167L1135.35 456.857L1124.31 458.25ZM1121.6 458.405L1108.42 458.714V458.56L1118.88 457.321L1121.6 458.405ZM1108.23 458.405C1108.04 457.94 1107.84 457.631 1107.84 457.631H1106.49L1116.95 457.321L1108.23 458.405ZM1139.61 456.857L1152.78 456.548L1142.32 457.786L1139.61 456.857ZM1157.62 456.548H1158.4C1158.01 456.548 1158.01 456.548 1157.62 456.548ZM1158.59 456.393C1158.79 456.393 1158.59 456.393 1158.59 456.393V456.393ZM1215.93 455.155V455.619C1215.35 455.31 1214.76 455.155 1214.18 455.31C1213.99 455.31 1213.8 455.31 1213.6 455.464L1213.21 455.31L1215.93 455.155ZM1208.57 455.31L1198.11 456.548L1195.39 455.619L1208.57 455.31ZM1191.13 455.774L1180.09 457.167H1179.12L1176.41 456.083L1191.13 455.774ZM1172.93 456.083L1164.21 457.167C1164.02 456.702 1163.82 456.393 1163.82 456.393L1172.93 456.083ZM1164.21 457.321L1174.67 456.083L1177.38 457.167L1164.21 457.321ZM1177.77 457.321H1178.74L1200.04 456.857L1196.56 458.25L1191.71 457.167H1191.33H1190.55L1186.29 458.25L1181.64 457.321H1180.87H1180.48L1176.02 459.024L1168.66 457.631H1167.89H1167.5L1164.4 458.869C1164.21 458.56 1164.02 458.25 1164.02 457.94C1164.02 457.786 1164.02 457.786 1164.02 457.631L1177.77 457.321ZM1181.84 457.012L1192.68 455.619H1193.65L1196.36 456.548L1181.84 457.012ZM1199.85 456.548L1210.31 455.31H1211.47L1212.83 455.774C1212.63 455.929 1212.44 456.083 1212.44 456.238L1199.85 456.548ZM1212.44 456.393C1212.25 456.548 1212.25 456.548 1212.44 456.393H1211.67H1212.44ZM1210.31 456.548L1207.21 457.786L1201.59 456.702L1210.31 456.548ZM1164.98 459.179L1168.66 457.786L1175.25 459.024C1171.76 459.179 1168.28 459.179 1164.98 459.179ZM1177.38 459.024L1181.45 457.476L1185.9 458.25L1184.16 458.714H1185.32L1186.68 458.405L1188.61 458.714L1184.35 458.869H1182.61L1177.38 459.024ZM1189.39 458.714H1189.78L1187.26 458.25L1191.33 457.167L1196.17 458.25L1195.78 458.405H1196.94H1197.14L1189.39 458.714ZM1198.3 458.405L1197.33 458.25L1201.01 456.857L1206.82 457.94L1206.05 458.25H1207.21L1207.79 458.095L1208.95 458.25H1209.92L1207.98 457.94L1211.08 456.702L1212.25 456.857C1212.25 457.012 1212.25 457.321 1212.44 457.476C1212.44 457.631 1212.63 457.94 1212.83 458.095L1204.69 458.25H1203.34L1198.3 458.405ZM1213.02 458.25L1213.21 458.405L1211.47 458.25H1209.92L1213.41 458.56C1213.8 458.869 1214.18 459.179 1214.76 459.333L1202.37 459.643L1204.5 458.405L1213.02 458.25ZM1200.24 459.798C1194.04 459.952 1187.65 460.107 1181.45 460.262L1183.97 459.024C1190.36 458.869 1196.75 458.714 1203.14 458.56L1201.21 459.643L1190.75 458.869L1189.58 459.024L1200.24 459.798ZM1179.7 460.262H1178.35L1166.53 459.333C1171.76 459.179 1176.99 459.024 1182.22 459.024L1179.7 460.262ZM1176.61 460.417C1172.93 460.571 1169.25 460.571 1165.56 460.726C1165.56 460.726 1165.56 460.726 1165.56 460.571C1165.56 460.107 1165.37 459.798 1165.18 459.488L1176.61 460.417ZM1256.22 458.405L1258.35 457.167L1266.87 457.012L1267.06 457.167L1265.71 457.012H1264.54L1267.26 457.167C1267.64 457.476 1268.03 457.631 1268.61 457.94L1256.22 458.405ZM1258.73 457.012H1257.57L1252.34 457.167L1251.37 457.012L1255.05 455.619L1260.86 456.702L1260.09 457.012H1261.25L1261.83 456.857L1262.41 457.012H1263.58L1262.22 456.857L1265.51 455.619L1266.68 455.774C1266.68 455.929 1266.68 456.238 1266.87 456.393C1266.87 456.548 1267.06 456.702 1267.26 457.012H1258.73ZM1257.18 457.321L1255.25 458.405L1244.59 457.631H1241.69L1254.47 458.405C1248.27 458.56 1241.88 458.714 1235.68 458.869L1238.2 457.631C1244.4 457.631 1250.79 457.476 1257.18 457.321ZM1262.61 454.226L1252.15 455.464L1249.44 454.536L1262.61 454.226ZM1244.98 454.536L1233.94 455.774H1232.97L1230.26 454.845L1244.98 454.536ZM1226.77 455L1218.06 456.083C1217.86 455.619 1217.67 455.31 1217.67 455.31H1216.31L1226.77 455ZM1218.06 456.238L1228.52 455L1231.23 455.929L1218.06 456.238ZM1231.81 456.083H1232.78L1254.09 455.619L1250.6 456.857L1245.76 455.774H1245.37H1244.59L1240.33 456.857L1235.68 456.083H1234.91H1234.52L1230.07 457.786L1222.51 456.393H1221.16L1221.54 456.548L1218.44 457.631C1218.25 457.321 1218.06 457.012 1218.06 456.702C1218.06 456.702 1218.06 456.548 1218.06 456.393L1231.81 456.083ZM1235.88 455.774L1246.72 454.536H1247.69L1250.4 455.464L1235.88 455.774ZM1253.89 455.464L1264.35 454.226H1265.51L1266.87 454.69C1266.68 454.845 1266.48 455 1266.48 455.155L1253.89 455.464ZM1266.29 455.31H1265.51H1266.29ZM1264.35 455.31L1261.06 456.548L1255.44 455.619L1264.35 455.31ZM1219.03 457.94L1222.71 456.548L1229.29 457.631C1225.81 457.786 1222.32 457.94 1219.03 457.94ZM1231.42 457.631L1235.49 456.083L1239.95 456.857L1237.81 457.476H1239.36L1240.72 457.012L1242.66 457.321L1238.4 457.476H1236.65L1231.42 457.631ZM1243.24 457.476H1243.63L1241.11 457.012L1245.18 456.083L1250.02 457.167L1249.63 457.321H1250.79H1250.99L1243.24 457.476ZM1236.26 457.786L1233.75 459.024H1232.39L1220.58 458.095C1225.61 457.94 1231.04 457.94 1236.26 457.786ZM1219.03 458.25L1230.45 459.179C1226.77 459.333 1223.09 459.333 1219.41 459.488C1219.41 459.488 1219.41 459.488 1219.41 459.333C1219.22 458.869 1219.22 458.56 1219.03 458.25ZM1020.48 587.786H1020.87L1020.48 605.429H1020.1L1020.48 587.786ZM1021.45 570.917H1021.84L1021.07 587.631H1020.68L1021.45 570.917ZM1020.1 605.429H1020.48L1019.52 624H1019.13L1020.1 605.429ZM1036.17 606.202V610.071L1032.69 609.143V606.512C1032.88 606.512 1033.07 606.512 1033.07 606.512L1032.69 606.976L1032.49 607.595L1033.46 606.512H1033.66H1035.01C1035.4 606.357 1036.17 606.202 1036.17 606.202ZM1036.17 610.381C1036.17 612.393 1035.98 614.405 1035.98 616.417L1032.88 615.643C1032.88 613.631 1032.88 611.619 1032.88 609.607L1035.59 610.226L1032.69 613.631L1032.88 614.095L1036.17 610.381ZM1035.98 617.036V617.5L1032.88 621.214C1032.88 619.512 1032.88 617.964 1032.88 616.262L1035.98 617.036ZM1036.17 618.119C1036.17 619.357 1036.17 620.44 1036.37 621.679H1036.17C1035.01 621.679 1034.04 621.679 1033.27 621.679L1036.17 618.119ZM1032.3 606.512V608.988V609.452V611.155L1031.72 611.464L1028.23 610.226L1031.33 608.524L1032.11 608.833V608.524L1031.72 608.369L1032.11 608.214L1032.3 607.595L1031.33 608.214L1028.23 607.131L1028.81 606.821C1029.39 606.821 1029.98 606.821 1030.56 606.821C1031.33 606.667 1031.91 606.512 1032.3 606.512ZM1032.49 613.94L1031.14 614.56L1028.62 613.167L1031.72 611.619L1032.11 611.774L1032.49 613.94ZM1032.49 614.25V615.643V616.107V617.81L1028.62 616.417L1030.94 615.024L1031.91 615.643L1032.11 615.333L1031.33 614.869L1032.49 614.25ZM1032.49 618.429C1032.49 619.512 1032.49 620.595 1032.49 621.679H1032.3L1028.81 620.44L1032.49 618.429ZM1031.53 621.679C1030.56 621.679 1029.78 621.833 1029.01 621.833C1028.81 621.833 1028.62 621.833 1028.43 621.833V617.5V617.19L1028.23 610.381L1031.53 611.464L1028.43 612.857V613.012V613.321L1030.94 614.714L1028.43 616.107V616.262V616.417L1032.69 617.964L1028.81 620.286V620.44V620.595L1031.53 621.679ZM1028.04 610.071V607.286L1031.14 608.369L1028.04 610.071ZM1028.04 606.821V606.512C1028.23 606.512 1028.23 606.512 1028.43 606.512L1028.04 606.821ZM1027.65 606.512V610.536L1024.94 607.131V606.821L1026.3 606.512C1026.68 606.512 1027.07 606.512 1027.65 606.512ZM1027.65 611.619V616.262L1024.75 612.702V612.393L1027.65 611.619ZM1027.84 616.881V617.19L1024.94 617.964V613.321L1027.84 616.881ZM1027.84 617.655V621.833H1027.65L1024.94 618.429L1027.84 617.655ZM1027.26 621.833C1026.1 621.833 1025.13 621.988 1025.13 621.988L1024.94 622.452V619.202L1027.26 621.833ZM1024.94 611.929V607.75L1027.65 611.155L1024.94 611.929ZM1025.13 606.202V606.048C1025.13 606.048 1025.33 606.048 1025.13 606.202ZM1025.33 587.786H1026.68C1025.91 587.94 1025.52 588.095 1025.52 588.405C1025.52 588.405 1025.52 588.56 1025.71 588.56L1025.33 588.714V587.786ZM1025.33 590.107L1028.04 593.512L1025.33 594.286V590.107ZM1025.33 595.679L1028.04 599.238V599.548L1025.13 600.321L1025.33 595.679ZM1025.13 601.405L1027.26 604.19C1026.1 604.19 1025.13 604.345 1025.13 604.345V601.405ZM1027.84 604.19L1025.13 600.786L1028.04 600.012V604.19H1027.84ZM1028.43 599.857V599.548V592.738L1031.72 593.821L1028.62 595.214V595.369V595.679L1031.14 597.071L1028.62 598.464V598.619V598.774L1032.88 600.321L1029.01 602.643V602.798V602.952L1031.91 604.036C1030.94 604.036 1030.17 604.19 1029.39 604.19C1029.2 604.19 1029.01 604.19 1028.81 604.19L1028.43 599.857ZM1028.04 598.619L1025.33 595.06V594.75L1028.04 593.976V598.619ZM1028.04 592.893L1025.33 589.488V589.179L1026.68 588.869C1027.07 588.869 1027.46 589.024 1028.04 589.024V592.893ZM1028.43 588.869C1028.62 588.869 1028.62 588.869 1028.81 588.869L1028.43 589.024V588.869ZM1028.43 589.488L1031.53 590.571L1028.62 592.274L1028.43 589.488ZM1032.69 604.036L1029.2 602.798L1032.69 600.786C1032.88 601.869 1032.88 602.952 1032.69 604.036ZM1032.88 600.012L1029.01 598.619L1031.33 597.226L1032.3 597.845L1032.49 597.536L1031.72 597.071L1032.69 596.452V597.845V598.31L1032.88 600.012ZM1032.69 596.298L1031.33 596.917L1028.81 595.524L1032.11 593.976L1032.49 594.131V593.821H1032.69V596.298ZM1032.69 593.512L1032.11 593.821L1028.81 592.583L1031.91 590.881L1032.69 591.19V590.881L1032.3 590.726L1032.88 590.262V589.952L1031.91 590.571L1028.81 589.488L1029.39 589.179C1029.98 589.179 1030.56 589.179 1031.14 589.179C1031.72 589.179 1032.11 589.179 1032.69 589.024V591.5V591.964V593.512ZM1033.27 588.869C1033.46 588.869 1033.66 588.869 1033.66 588.869L1033.27 589.488V589.952L1034.24 588.869C1035.01 588.714 1035.79 588.56 1036.17 588.56V592.429L1033.27 591.655V588.869ZM1036.17 592.893C1036.17 594.905 1036.17 596.917 1036.37 598.929L1033.27 598.155C1033.27 596.143 1033.27 594.131 1033.27 592.119L1035.98 592.738L1033.46 595.988L1033.66 596.298L1036.17 592.893ZM1036.37 599.393V599.857L1033.27 603.571C1033.27 601.869 1033.27 600.321 1033.27 598.619L1036.37 599.393ZM1036.37 600.476C1036.37 601.714 1036.37 602.798 1036.37 604.036H1036.17C1035.01 604.036 1034.04 604.036 1033.27 604.036L1036.37 600.476ZM1035.98 575.25L1033.07 574.476V572.929H1035.01C1035.4 572.929 1035.59 572.774 1035.98 572.774V575.25ZM1032.69 574.321V574.786V576.488L1032.11 576.798L1028.81 575.56L1031.72 573.857L1032.49 574.167V573.857L1032.11 573.702L1032.49 573.548V573.238L1031.91 573.702L1030.75 573.238H1030.94H1032.88L1032.69 574.321ZM1033.27 574.94L1035.98 575.56L1033.27 578.81V579.738L1036.17 575.714C1036.17 577.726 1036.17 579.738 1036.37 581.75L1033.27 580.976C1033.27 578.964 1033.27 576.952 1033.27 574.94ZM1025.71 572.929L1028.23 576.333L1025.71 577.107V572.929ZM1025.52 578.5L1028.23 582.06V582.369L1025.52 583.143V578.5ZM1025.52 584.226L1027.65 587.012C1026.49 587.012 1025.52 587.167 1025.52 587.167V587.631V584.226ZM1028.04 587.167L1025.52 583.762L1028.23 582.988V587.167H1028.04ZM1028.62 582.833V582.524V575.714L1031.72 576.798L1028.62 578.19V578.345V578.655L1030.94 580.048L1028.62 581.44V581.595V581.75L1032.69 583.298L1028.62 585.619V586.083L1029.01 585.929L1031.72 587.012C1030.75 587.012 1029.98 587.167 1029.2 587.167C1029.01 587.167 1028.81 587.167 1028.62 587.167V582.833ZM1028.23 581.44L1025.52 577.881V577.571L1028.23 576.798V581.44ZM1028.23 575.869L1025.71 572.464L1028.23 572.619V572.929V575.869ZM1029.2 572.774L1031.33 573.548L1028.43 575.25V572.619L1029.2 572.774ZM1032.69 587.012L1029.39 585.774L1032.69 583.762C1032.69 584.845 1032.88 585.929 1032.69 587.012ZM1032.69 582.988L1029.01 581.595L1031.33 580.202L1032.69 580.976V580.512L1031.72 580.048L1032.69 579.429V580.821V581.286V582.988ZM1032.69 579.274L1031.33 579.893L1029.01 578.5L1032.11 576.952L1032.49 577.107V576.798H1032.69V579.274ZM1033.27 581.44L1036.37 582.214V582.679L1033.27 586.393C1033.27 584.845 1033.27 583.143 1033.27 581.44ZM1033.27 586.857L1036.17 583.298C1036.17 584.536 1036.17 585.619 1036.17 586.857H1035.98C1035.01 586.857 1034.04 586.857 1033.27 586.857ZM1021.26 554.202L1021.45 570.917H1021.84L1021.65 554.202H1021.26ZM1036.37 555.131V559L1032.88 558.071V555.44C1033.07 555.44 1033.27 555.44 1033.27 555.44L1032.88 555.905L1032.69 556.524L1033.66 555.44H1033.85H1035.21C1035.59 555.131 1036.37 555.131 1036.37 555.131ZM1036.37 559.31C1036.37 561.321 1036.17 563.333 1036.17 565.345L1033.07 564.571C1033.07 562.56 1033.07 560.548 1033.07 558.536L1035.79 559.155L1032.88 562.56L1033.07 563.024L1036.37 559.31ZM1036.17 565.964V566.429L1033.07 570.143C1033.07 568.44 1033.07 566.893 1033.07 565.19L1036.17 565.964ZM1036.37 566.893C1036.37 568.131 1036.37 569.214 1036.56 570.452H1036.37C1035.21 570.452 1034.24 570.452 1033.46 570.452L1036.37 566.893ZM1032.49 555.44V557.917V558.381V560.083L1031.91 560.393L1028.43 559.155L1031.53 557.452L1032.3 557.762V557.452L1031.91 557.298L1032.3 557.143L1032.49 556.524L1031.53 557.143L1028.43 556.06L1029.01 555.75C1029.59 555.75 1030.17 555.75 1030.75 555.75C1031.53 555.44 1032.11 555.44 1032.49 555.44ZM1032.69 562.869L1031.33 563.488L1028.81 562.095L1031.91 560.548L1032.3 560.702L1032.69 562.869ZM1032.69 563.024V564.417V564.881V566.583L1028.81 565.19L1031.14 563.798L1032.11 564.417L1032.3 564.107L1031.53 563.643L1032.69 563.024ZM1032.69 567.357C1032.69 568.44 1032.69 569.524 1032.69 570.607H1032.49L1029.01 569.369L1032.69 567.357ZM1031.72 570.607C1030.75 570.607 1029.98 570.762 1029.2 570.762C1029.01 570.762 1028.81 570.762 1028.62 570.762V566.429V566.119L1028.43 559.31L1031.72 560.393L1028.62 561.786V561.94V562.25L1031.14 563.643L1028.62 565.036V565.19V565.345L1032.88 566.893L1029.01 569.214V569.369V569.524L1031.72 570.607ZM1028.23 558.845V556.06L1031.33 557.143L1028.23 558.845ZM1028.23 555.75V555.44C1028.43 555.44 1028.43 555.44 1028.62 555.44L1028.23 555.75ZM1027.65 555.44V559.464L1024.94 556.06V555.75L1026.3 555.44C1026.88 555.286 1027.26 555.44 1027.65 555.44ZM1027.84 560.548V565.19L1024.94 561.631V561.321L1027.84 560.548ZM1028.04 565.655V565.964L1025.13 566.738V562.095L1028.04 565.655ZM1028.04 566.583V570.762H1027.84L1025.13 567.357L1028.04 566.583ZM1027.46 570.762C1026.3 570.762 1025.33 570.917 1025.33 570.917L1025.13 571.381V568.131L1027.46 570.762ZM1025.13 560.702V556.524L1027.84 559.929L1025.13 560.702ZM1025.33 555.131V554.976C1025.33 554.976 1025.33 554.976 1025.33 555.131ZM1025.52 536.56H1026.88C1026.1 536.714 1025.71 536.869 1025.71 537.179C1025.71 537.179 1025.71 537.333 1025.91 537.333L1025.52 537.488V536.56ZM1025.52 538.881L1028.23 542.286L1025.52 543.06V538.881ZM1025.52 544.452L1028.23 548.012V548.321L1025.33 549.095L1025.52 544.452ZM1025.33 550.179L1027.46 552.964C1026.3 552.964 1025.33 553.119 1025.33 553.119V550.179ZM1028.04 552.964L1025.33 549.56L1028.23 548.786V552.964H1028.04ZM1028.62 548.786V548.476V541.667L1031.91 542.75L1028.81 544.143V544.298V544.607L1031.33 546L1028.81 547.393V547.548V547.702L1033.07 549.25L1029.2 551.571V551.726V551.881L1032.11 552.964C1031.14 552.964 1030.36 553.119 1029.59 553.119C1029.39 553.119 1029.2 553.119 1029.01 553.119L1028.62 548.786ZM1028.23 547.393L1025.52 543.833V543.524L1028.23 542.75V547.393ZM1028.23 541.667L1025.52 538.262V537.952L1026.88 537.643C1027.26 537.643 1027.65 537.798 1028.23 537.798V541.667ZM1028.62 537.798C1028.81 537.798 1028.81 537.798 1029.01 537.798L1028.62 537.952V537.798ZM1028.62 538.417L1031.72 539.5L1028.81 541.202L1028.62 538.417ZM1032.88 552.81L1029.39 551.571L1032.88 549.56C1032.88 550.643 1032.88 551.726 1032.88 552.81ZM1032.88 548.94L1029.01 547.548L1031.33 546.155L1032.3 546.774L1032.49 546.464L1031.72 546L1032.69 545.381V546.774V547.238L1032.88 548.94ZM1032.88 545.071L1031.53 545.69L1029.01 544.298L1032.3 542.75L1032.69 542.905V542.595H1032.88V545.071ZM1032.88 542.286L1032.3 542.595L1029.01 541.357L1032.11 539.655L1032.88 539.964V539.655L1032.49 539.5L1033.07 539.036V538.726L1032.11 539.345L1029.01 538.262L1029.59 537.952C1030.17 537.952 1030.75 537.952 1031.33 537.952C1031.91 537.952 1032.3 537.952 1032.88 537.798V540.274V540.738V542.286ZM1033.46 537.643C1033.66 537.643 1033.85 537.643 1033.85 537.643L1033.46 538.262V538.726L1034.43 537.643C1035.21 537.488 1035.98 537.333 1036.37 537.333V541.202L1033.46 540.429V537.643ZM1036.37 541.667C1036.37 543.679 1036.37 545.69 1036.56 547.702L1033.46 546.929C1033.46 544.917 1033.46 542.905 1033.46 540.893L1036.17 541.512L1033.66 544.762L1033.85 545.071L1036.37 541.667ZM1036.56 548.321V548.786L1033.46 552.5C1033.46 550.798 1033.46 549.25 1033.46 547.548L1036.56 548.321ZM1036.56 549.25C1036.56 550.488 1036.56 551.571 1036.56 552.81H1036.37C1035.21 552.81 1034.24 552.81 1033.46 552.81L1036.56 549.25ZM1025.91 475.738V476.357H1025.71L1025.91 475.738ZM1025.91 478.06V482.238L1025.71 482.393V482.702V483.786C1025.71 483.94 1025.52 484.095 1025.52 484.095L1025.91 478.06ZM1025.71 484.869H1025.91L1025.71 502.667H1025.52L1025.71 502.821V505.917C1025.52 505.917 1025.33 505.917 1025.33 505.917L1025.13 506.071L1025.71 484.869ZM1031.72 449.274L1031.91 450.821L1030.94 451.286V449.893L1031.72 449.274ZM1032.11 454.69L1032.3 456.238L1031.14 456.702V455.31L1032.11 454.69ZM1032.3 456.548V457.321L1031.14 457.786V457.012L1032.3 456.548ZM1032.88 462.583L1032.69 462.738H1032.49L1032.88 462.583ZM1033.07 464.131V464.286L1032.88 464.595L1033.07 464.905L1032.88 465.06H1033.07V465.524H1031.91L1031.53 465.369V465.06H1032.49L1032.11 464.75L1031.72 464.595V464.44L1033.07 464.131ZM1034.04 475.429V476.202C1033.46 476.202 1032.88 476.202 1032.3 476.202V475.429H1034.04ZM1030.94 455V454.381H1031.91L1030.94 455ZM1030.94 454.226H1031.14H1030.94ZM1030.94 452.988V451.595L1031.91 451.286L1030.94 452.988ZM1030.75 449.583C1030.75 449.429 1030.75 449.429 1030.75 449.583V449.583ZM1030.17 448.19H1029.78C1029.78 448.19 1029.98 448.19 1030.17 448.19V448.655H1028.23V448.345C1028.23 447.571 1028.23 446.333 1028.62 446.024C1029.01 445.56 1029.78 446.024 1029.78 446.024C1029.78 446.024 1029.98 446.952 1030.17 448.19ZM1030.17 448.964V449.738L1028.23 450.821C1028.23 450.821 1028.23 450.821 1028.04 450.821V448.964H1030.17ZM1030.36 450.048V451.44L1028.23 452.214V451.75C1028.43 451.44 1028.43 451.131 1028.43 450.976L1030.36 450.048ZM1030.36 451.75V452.833L1028.43 452.524L1030.36 451.75ZM1030.56 454.071L1028.23 454.226V453.607L1030.56 454.071ZM1030.56 454.536V455.31L1028.23 456.548V454.536H1030.56ZM1030.56 455.619V456.857L1028.23 457.786V456.857L1030.56 455.619ZM1030.75 457.167V457.94L1028.43 458.714H1028.23V458.095L1030.75 457.167ZM1031.91 475.583V476.357C1030.36 476.357 1029.59 476.512 1028.62 476.512C1028.62 476.512 1028.62 476.512 1028.43 476.512V475.738L1031.91 475.583ZM1027.84 448.964V450.821C1027.46 450.821 1027.07 450.821 1026.88 450.821V448.964H1027.84ZM1027.84 453.452V454.071H1026.68V453.143L1027.84 453.452ZM1027.84 454.536V456.857L1026.68 457.476V454.536H1027.84ZM1027.84 457.167V457.94L1026.68 458.405V457.786L1027.84 457.167ZM1027.84 458.25V458.714L1027.07 458.56L1027.84 458.25ZM1027.84 464.75V465.369L1026.68 465.214L1027.84 464.75ZM1027.84 465.679L1026.49 465.833V465.524L1027.84 465.679ZM1028.04 475.583V476.357C1027.46 476.357 1027.07 476.357 1026.49 476.357L1028.04 475.583ZM1026.49 476.202V475.738H1027.46L1026.49 476.202ZM1028.62 494.31V491.369L1032.69 489.202C1032.69 490.44 1032.69 491.524 1032.88 492.762L1028.62 494.31ZM1033.07 492.762C1033.07 491.369 1033.07 489.976 1032.88 488.583L1035.01 489.202C1035.21 491.214 1035.21 493.226 1035.4 495.238L1033.07 495.083C1033.07 494.464 1033.07 493.845 1033.07 493.226L1035.01 492.607L1034.82 492.298L1033.07 492.762ZM1032.69 493.226C1032.69 493.845 1032.69 494.31 1032.69 494.929L1029.01 494.619L1032.69 493.226ZM1035.4 495.548C1035.4 496.321 1035.4 497.095 1035.59 497.869V497.714L1033.46 498.488C1033.46 497.405 1033.46 496.321 1033.46 495.238L1035.4 495.548ZM1032.69 495.238V496.012L1028.62 496.167V494.774L1032.69 495.238ZM1028.43 486.726V485.024C1029.78 485.179 1031.33 485.333 1032.3 485.488V486.107L1028.43 486.726ZM1032.88 486.107V485.643C1033.27 485.643 1033.66 485.798 1033.66 485.798C1034.04 485.952 1034.43 485.643 1034.82 485.024V485.798L1032.88 486.107ZM1034.82 486.107C1034.82 487.036 1035.01 487.964 1035.01 488.893L1032.88 488.274C1032.88 487.655 1032.88 487.036 1032.88 486.417L1034.82 486.107ZM1032.49 486.571C1032.49 487.036 1032.49 487.655 1032.49 488.119L1028.81 487.036L1032.49 486.571ZM1032.49 488.429V488.893L1028.43 489.048V487.19L1032.49 488.429ZM1026.68 480.845L1026.88 481V481.155L1027.65 481.31L1026.49 481.929V479.143H1028.04V480.536L1026.68 480.845ZM1028.43 480.381V479.143H1032.11L1030.56 479.917L1028.43 480.381ZM1026.49 478.679V477.905C1027.07 477.905 1027.46 478.06 1028.04 478.06V478.524L1026.49 478.679ZM1028.43 478.679V478.214C1029.01 478.214 1029.59 478.369 1029.98 478.369C1030.75 478.369 1031.33 478.524 1031.91 478.524V478.679H1028.43ZM1032.49 478.679V478.524C1033.27 478.524 1033.85 478.369 1034.24 478.369V478.833L1032.49 479.298V479.143L1032.69 478.988V478.833V478.679H1032.49ZM1032.11 479.298L1031.91 479.452L1032.11 479.298ZM1034.24 479.143C1034.24 480.226 1034.43 481.155 1034.43 482.238L1032.49 481.929C1032.49 481.155 1032.49 480.381 1032.3 479.762L1034.24 479.143ZM1032.11 479.762C1032.11 480.381 1032.11 481.155 1032.3 481.774L1028.62 481.155L1030.36 480.226L1032.11 479.762ZM1034.62 482.548V483.631C1034.24 483.631 1033.46 483.476 1032.69 483.476V482.857L1033.07 482.702V482.548V482.393H1032.69V482.238L1034.62 482.548ZM1032.11 482.083V482.393H1028.43V481.464L1032.11 482.083ZM1028.04 481.31V482.393H1026.49L1026.3 482.702H1026.49C1026.49 482.702 1026.3 482.702 1026.3 482.857V482.238L1028.04 481.31ZM1027.65 500.5L1027.84 500.655V500.81H1028.04C1027.07 500.964 1026.49 501.274 1026.3 501.583V496.631H1028.23V498.643L1026.3 499.571L1026.49 499.881L1028.23 498.952V500.345L1027.65 500.5ZM1028.62 500.19V498.643L1032.69 496.476C1032.69 497.25 1032.69 498.024 1032.69 498.643L1028.62 500.19ZM1035.59 498.179C1035.59 499.107 1035.59 500.036 1035.79 500.964C1035.21 500.81 1034.43 500.655 1033.46 500.5C1033.46 500.036 1033.46 499.417 1033.46 498.952L1035.59 498.179ZM1032.88 499.107C1032.88 499.571 1032.88 500.036 1032.88 500.5C1032.3 500.5 1031.72 500.5 1031.14 500.5C1030.36 500.5 1029.78 500.655 1029.01 500.655H1028.62L1032.88 499.107ZM1035.59 502.202C1035.59 502.667 1035.59 503.286 1035.59 503.75L1033.07 503.44V502.667C1034.24 502.667 1035.01 502.512 1035.59 502.202ZM1032.88 502.821V503.44L1028.62 502.976V502.821C1029.39 502.976 1030.36 502.976 1031.33 502.976C1031.91 502.976 1032.3 502.821 1032.88 502.821ZM1028.23 502.821V502.976L1026.1 502.667V502.048C1026.3 502.357 1027.07 502.667 1028.23 502.821ZM1029.01 480.536L1028.43 480.845V480.69L1029.01 480.536ZM1028.04 480.845V481L1027.65 480.845H1028.04ZM1028.04 489.048H1026.3V485.952L1028.04 485.024V489.048ZM1026.3 489.357H1028.04V491.369L1026.1 492.452L1026.3 489.357ZM1028.62 489.357H1032.11L1028.62 491.214V489.357ZM1026.3 492.452V492.607L1028.04 491.679V496.167H1026.1L1026.3 492.452ZM1026.3 484.869C1026.68 484.869 1027.26 484.869 1027.65 485.024L1026.3 485.798V484.869ZM1032.3 483.321H1031.91L1032.3 483.012V483.321ZM1027.65 482.702H1028.04C1027.84 482.702 1027.84 482.702 1027.65 482.702ZM1028.43 482.702H1032.11L1031.14 483.167C1030.36 483.167 1029.39 483.012 1028.43 482.702ZM1028.62 496.476L1032.3 496.321L1028.62 498.179V496.476ZM1026.1 502.976L1028.23 503.286V505.917C1027.46 505.917 1026.68 505.917 1026.1 506.071V502.976ZM1028.62 503.286L1032.88 503.75V504.833L1030.36 505.762C1029.78 505.762 1029.39 505.762 1028.81 505.762H1028.62V503.286ZM1033.27 503.905L1035.21 504.06L1033.46 504.679L1033.27 503.905ZM1031.72 505.762L1032.88 505.298V505.607C1032.49 505.607 1032.11 505.762 1031.72 505.762ZM1033.27 505.143L1035.79 504.214V505.607C1035.59 505.607 1035.59 505.607 1035.4 505.607C1034.62 505.607 1033.85 505.607 1033.27 505.607V505.143ZM1032.88 510.869L1028.62 511.024V510.095L1032.88 510.25V510.869ZM1028.23 511.024L1025.91 511.179V510.095H1028.23V511.024ZM1025.91 511.488L1028.23 511.333V513.036L1025.91 514.119V511.488ZM1028.62 511.333L1032.11 511.179L1028.62 512.881V511.333ZM1025.91 514.583L1028.23 513.5V514.738L1025.91 515.512V514.583ZM1028.62 513.19L1032.88 511.179C1032.88 513.036 1032.88 514.738 1032.88 516.595H1032.69V517.06H1032.88V519.071H1032.69L1032.88 518.917V518.607L1032.11 519.071C1031.91 519.071 1031.72 519.071 1031.53 519.071C1031.33 519.071 1031.33 519.071 1031.14 519.071L1029.39 517.988L1032.49 516.44L1032.88 516.595V516.286L1033.07 516.131V515.821L1032.49 516.131L1029.2 514.893L1032.88 512.726V512.417L1029.01 514.738V514.583L1028.62 513.19ZM1025.91 509.631V507.619C1026.49 507.619 1027.26 507.774 1028.23 507.774V508.857L1025.91 509.631ZM1028.62 508.857V507.929C1029.2 507.929 1029.78 508.083 1030.36 508.083C1030.56 508.083 1030.94 508.083 1031.14 508.083L1028.62 508.857ZM1032.11 508.083C1032.3 508.083 1032.69 508.083 1032.88 508.083V509.94L1028.62 509.786V509.012L1032.11 508.083ZM1028.23 509.321V509.94H1026.49L1028.23 509.321ZM1033.27 509.94V508.083C1034.24 508.083 1035.01 507.929 1035.4 507.774C1035.59 507.774 1035.59 507.774 1035.79 507.619C1035.79 508.393 1035.79 509.167 1035.79 509.94H1033.27ZM1035.98 510.25V510.869L1034.24 510.095L1035.98 510.25ZM1035.98 512.262C1035.98 513.964 1035.98 515.667 1036.17 517.369L1033.46 516.595V514.583L1035.98 512.262ZM1033.27 514.274C1033.27 512.881 1033.27 511.643 1033.27 510.25V510.405L1035.98 511.333V511.798L1033.27 514.274ZM1036.17 524.024L1033.27 523.25V520.619C1033.46 520.619 1033.66 520.619 1033.66 520.619L1033.27 521.083L1033.46 521.393L1034.04 520.464C1034.82 520.31 1035.4 520.155 1035.98 520.155L1036.17 524.024ZM1032.88 523.25V523.714V525.417L1032.3 525.726L1029.01 524.488L1031.91 522.786L1032.69 523.095V522.786L1032.3 522.631L1032.69 522.476V522.167L1032.11 522.631L1029.2 521.548L1029.78 521.238C1030.36 521.238 1030.94 521.238 1031.53 521.238C1032.11 521.238 1032.49 521.238 1033.07 521.083L1032.88 523.25ZM1033.46 523.714L1036.17 524.333L1033.46 527.583V528.512L1036.37 524.488C1036.37 526.5 1036.37 528.512 1036.56 530.524L1033.46 529.75C1033.46 527.738 1033.46 525.726 1033.46 523.714ZM1033.27 517.06L1035.79 517.679L1034.82 519.071C1034.43 519.071 1033.85 518.917 1033.27 518.917V517.06ZM1025.91 516.905L1027.84 519.381C1026.68 519.536 1026.1 519.845 1026.1 520.155C1026.1 520.155 1026.1 520.31 1026.3 520.31L1025.91 520.464V516.905ZM1025.91 521.857L1028.43 525.262L1025.91 526.036V521.857ZM1025.71 527.429L1028.43 530.988V531.298L1025.71 532.071V527.429ZM1025.71 533.155L1027.84 535.94C1026.68 535.94 1025.71 536.095 1025.71 536.095V536.56V533.155ZM1028.23 535.94L1025.71 532.536L1028.43 531.762V535.94H1028.23ZM1028.81 531.607V531.298V524.488L1031.91 525.571L1028.81 526.964V527.119V527.429L1031.14 528.821L1028.81 530.214V530.369V530.524L1032.88 532.071L1028.81 534.393V534.857L1029.2 534.702L1031.91 535.786C1030.94 535.786 1030.17 535.94 1029.39 535.94C1029.2 535.94 1029.01 535.94 1028.81 535.94V531.607ZM1028.43 530.369L1025.71 526.81V526.5L1028.43 525.726V530.369ZM1028.43 524.643L1025.91 521.238V520.929L1027.26 520.619C1027.65 520.619 1028.04 520.774 1028.43 520.774V524.643ZM1028.81 520.774C1029.01 520.774 1029.01 520.774 1029.2 520.774L1028.81 520.929V520.774ZM1028.81 521.393L1031.72 522.476L1028.81 524.179V521.393ZM1032.88 535.786L1029.59 534.548L1032.88 532.536C1032.88 533.619 1032.88 534.702 1032.88 535.786ZM1032.88 531.917L1029.2 530.524L1031.53 529.131L1032.88 529.905V529.44L1031.91 528.976L1032.88 528.357V529.75V530.214V531.917ZM1032.88 528.048L1031.53 528.667L1029.2 527.274L1032.3 525.726L1032.69 525.881V525.571H1032.88V528.048ZM1036.17 519.381C1035.98 519.381 1035.59 519.226 1035.4 519.226L1036.17 518.143V519.381ZM1033.46 530.369L1036.56 531.143V531.607L1033.46 535.321C1033.46 533.619 1033.46 532.071 1033.46 530.369ZM1033.46 535.786L1036.37 532.226C1036.37 533.464 1036.37 534.548 1036.37 535.786H1036.17C1035.21 535.786 1034.24 535.786 1033.46 535.786ZM1028.23 515.202V519.381H1028.04L1025.71 516.44V515.976L1028.23 515.202ZM1028.81 519.226V518.143L1030.36 519.071C1029.78 519.071 1029.2 519.226 1028.81 519.226ZM1028.81 517.988V515.202L1031.91 516.286L1028.81 517.679V517.988ZM1034.62 464.44L1035.01 463.821L1035.4 464.75L1034.62 464.44ZM1034.43 464.595L1035.21 465.06L1034.24 464.905L1034.43 464.595ZM1035.59 463.202L1035.98 462.893L1036.75 463.357L1035.59 463.202Z" fill="#D4D4D4"/>
</g>
<defs>
<clipPath id="clip0">
<rect width="1280" height="622" fill="white"/>
</clipPath>
<clipPath id="clip1">
<rect width="610" height="131" fill="white" transform="translate(1051 491)"/>
</clipPath>
</defs>
</svg>
