<svg width="30" height="35" fill="none" xmlns="http://www.w3.org/2000/svg"><path d="M24.265 0c-3.152 0-5.736 2.59-5.736 5.75a5.8 5.8 0 00.276 1.77L9.334 12.8a5.69 5.69 0 00-3.599-1.3C2.583 11.5 0 14.09 0 17.25S2.583 23 5.735 23a5.678 5.678 0 003.599-1.285l9.485 5.28a5.664 5.664 0 00-.29 1.755c0 3.16 2.584 5.75 5.736 5.75 3.151 0 5.735-2.59 5.735-5.75S27.416 23 24.265 23a5.728 5.728 0 00-4.067 1.714l-9.224-5.142a5.668 5.668 0 000-4.644l9.21-5.142a5.717 5.717 0 004.08 1.714C27.417 11.5 30 8.91 30 5.75S27.416 0 24.265 0zm0 2.654a3.072 3.072 0 013.088 3.096 3.072 3.072 0 01-3.088 3.096 3.072 3.072 0 01-3.088-3.096 3.072 3.072 0 013.088-3.096zm-18.53 11.5a3.072 3.072 0 013.089 3.096 3.072 3.072 0 01-3.089 3.096 3.072 3.072 0 01-3.088-3.096 3.072 3.072 0 013.088-3.096zm18.53 11.5a3.072 3.072 0 013.088 3.096 3.072 3.072 0 01-3.088 3.096 3.072 3.072 0 01-3.088-3.096 3.072 3.072 0 013.088-3.096z" fill="#333"/></svg>