<svg width="2500" height="960" viewBox="0 0 2500 960" fill="none" xmlns="http://www.w3.org/2000/svg">
<g clip-path="url(#clip0)">
<rect x="-70" y="791" width="2657" height="9" fill="#C4C4C4"/>
<rect x="205" y="799" width="2202" height="9" fill="#C4C4C4"/>
<path d="M1280.61 794.789C1279.22 793.872 1277.83 793.413 1276.44 793.413C1275.05 792.955 1274.12 792.496 1272.73 791.579C1272.27 791.579 1271.81 791.12 1271.34 791.12C1271.81 791.12 1271.81 791.12 1272.27 790.662C1273.66 789.744 1274.59 787.91 1274.12 786.075C1273.66 783.782 1272.27 783.323 1270.88 782.864H1270.42C1271.34 779.195 1270.88 774.15 1270.88 770.022C1270.88 764.06 1271.34 757.639 1271.34 751.217C1271.34 747.548 1270.88 744.338 1270.88 740.669C1271.34 736.999 1271.34 733.33 1271.81 729.661C1272.27 724.157 1271.81 718.195 1271.34 712.691C1270.42 700.307 1271.34 687.465 1271.81 675.081C1271.81 662.239 1270.88 649.855 1270.88 637.013C1270.88 637.013 1270.88 637.013 1270.88 636.555C1270.88 636.096 1270.88 635.637 1270.88 635.179C1270.88 634.72 1270.42 634.72 1270.42 634.72C1270.42 634.72 1269.95 634.72 1269.95 634.261C1269.49 634.261 1269.03 634.261 1268.56 634.261C1268.1 633.803 1267.17 633.344 1266.71 634.261C1266.25 633.803 1265.78 633.344 1265.78 633.344C1265.78 632.885 1264.86 632.885 1264.86 633.344C1264.39 633.344 1264.39 633.803 1264.39 633.803C1264.39 634.261 1264.39 634.261 1264.39 634.72C1264.39 634.72 1263.93 635.179 1264.39 635.637C1264.39 639.306 1264.86 642.517 1264.86 646.186C1264.86 649.855 1264.86 653.066 1264.86 656.735C1264.86 658.57 1265.32 660.404 1265.32 662.239C1265.32 668.202 1265.32 673.705 1265.32 679.668C1264.86 685.63 1263.47 691.134 1262.54 697.097C1262.08 703.976 1262.08 709.48 1262.54 716.36C1263 723.698 1263 731.954 1262.54 739.293C1262.08 746.172 1263 753.052 1263 760.391C1263 767.27 1263 774.609 1262.54 781.489C1262.54 782.406 1262.54 783.323 1262.54 783.782C1261.61 783.323 1260.22 783.323 1259.3 782.864C1256.52 781.947 1254.2 780.113 1251.88 779.654C1251.42 779.654 1250.96 780.571 1251.42 781.489C1252.35 783.323 1253.74 783.323 1255.13 784.24C1253.27 783.782 1250.96 783.323 1249.1 783.323C1248.64 783.323 1248.17 784.699 1248.64 785.158C1248.17 785.158 1248.17 786.075 1248.17 786.534C1248.17 786.534 1248.17 786.534 1248.17 786.992C1246.32 786.075 1244.47 785.616 1242.61 786.075C1242.15 786.075 1242.15 786.992 1242.15 787.91C1242.61 788.368 1243.08 788.827 1243.54 789.286C1242.15 788.368 1240.3 787.451 1238.91 786.992C1238.44 786.992 1237.98 787.451 1237.98 787.91C1237.05 787.91 1236.13 787.91 1235.2 787.451C1234.74 787.451 1234.74 787.91 1234.74 787.91C1234.27 787.91 1233.81 788.368 1233.35 788.827C1232.88 789.286 1232.88 790.203 1233.35 790.662C1233.35 791.12 1233.35 791.579 1233.81 792.038C1234.27 792.038 1234.74 792.038 1235.2 792.496C1235.2 792.496 1235.2 792.955 1235.66 792.955C1236.59 793.413 1237.05 793.413 1237.98 793.872C1239.37 794.331 1240.76 794.331 1242.61 794.331C1243.08 794.331 1243.54 794.331 1244 794.789C1247.25 796.624 1250.49 798 1253.27 797.083C1253.74 797.083 1253.74 795.707 1253.74 795.248H1254.2C1254.2 796.165 1254.66 797.083 1255.59 797.083C1260.69 797.083 1266.25 798 1271.34 797.541C1272.27 797.541 1273.2 798 1274.12 798C1274.59 798 1275.05 796.624 1274.59 796.165C1274.12 795.707 1273.66 795.707 1273.2 795.707C1275.51 796.624 1277.83 797.083 1280.15 797.541C1280.61 797.541 1280.61 797.541 1280.61 797.083C1281.07 797.083 1281.54 797.541 1282 797.541C1280.61 797.083 1281.54 795.248 1280.61 794.789ZM1247.71 789.744C1247.25 789.744 1247.25 789.744 1246.78 789.744C1246.32 789.744 1246.32 789.744 1246.32 790.203C1245.39 789.744 1244 788.827 1243.08 787.91C1244.47 787.91 1246.32 788.827 1247.71 789.744ZM1269.49 637.013C1269.95 649.855 1270.88 662.698 1270.88 675.54C1270.88 681.502 1270.88 687.465 1270.42 692.969C1270.42 696.179 1269.95 699.39 1269.95 702.6C1269.49 693.886 1269.49 684.713 1269.49 675.999C1269.49 663.156 1269.03 649.855 1269.49 637.013C1269.03 637.013 1269.03 637.013 1269.49 637.013ZM1264.86 780.571C1264.39 780.571 1263.93 781.03 1263.47 781.489C1263.47 777.819 1263.47 774.15 1263.47 770.94C1263.47 764.06 1263.93 757.18 1263.47 750.3C1262.54 738.375 1264.39 726.909 1263.47 714.984C1263.47 715.901 1263.47 716.819 1263.47 717.736C1263.47 718.653 1263.47 720.029 1263.47 720.946C1263.47 720.946 1263.47 720.946 1263.47 721.405C1263.47 722.322 1264.39 722.322 1264.39 721.864C1264.39 727.368 1265.32 732.871 1265.32 738.375C1265.32 743.879 1265.32 749.842 1265.32 755.345C1265.78 756.721 1264.86 771.857 1264.86 780.571ZM1268.56 774.609C1268.56 775.985 1268.56 778.278 1268.1 780.113C1267.17 780.113 1266.71 780.113 1265.78 780.113C1265.78 777.819 1265.78 775.526 1265.78 773.233C1265.78 768.188 1266.25 763.142 1266.25 758.556C1266.25 753.052 1266.25 747.09 1266.25 741.586C1266.25 735.165 1265.78 729.661 1265.32 723.24C1265.32 719.112 1264.86 714.984 1264.86 710.856C1264.86 709.48 1264.86 708.563 1264.86 707.187C1264.86 700.766 1264.86 694.345 1265.32 687.924C1265.32 685.63 1265.32 683.337 1265.78 681.044C1265.78 679.209 1266.25 676.916 1266.25 675.081C1266.25 670.953 1266.25 666.826 1265.78 662.698C1265.78 661.322 1265.78 659.946 1265.78 658.111C1266.25 658.111 1266.25 657.653 1266.25 657.194V656.277C1266.25 652.607 1266.25 648.938 1265.78 645.269C1265.78 643.893 1265.78 642.058 1265.32 640.224H1265.78C1265.78 651.231 1266.25 662.698 1266.25 673.705C1266.25 686.089 1266.25 698.473 1267.17 710.856C1268.1 723.24 1268.1 735.623 1268.56 748.007C1269.03 753.969 1268.56 759.932 1268.56 765.894C1268.56 769.105 1269.03 771.857 1268.56 774.609ZM1270.42 718.195C1270.42 719.571 1270.42 721.405 1270.88 722.781C1270.88 721.405 1270.42 719.571 1270.42 718.195Z" fill="#CBCCCE"/>
<path d="M1481.84 769.343C1479.07 769.343 1476.77 769.803 1474.92 770.264C1473.08 765.198 1467.09 761.053 1460.18 761.053C1456.03 761.053 1451.89 762.435 1449.12 764.737C1447.74 757.829 1439.91 752.764 1430.23 752.764C1428.39 752.764 1426.55 752.764 1424.7 753.224C1422.86 751.382 1418.71 746.777 1410.88 744.474C1397.98 741.25 1385.08 747.237 1379.09 751.382C1367.11 759.671 1366.65 775.329 1379.09 789.145C1413.19 789.145 1447.74 789.606 1481.84 789.606C1491.05 789.606 1498.42 785.001 1498.42 779.474C1498.42 772.106 1485.06 769.343 1481.84 769.343Z" fill="#CBCCCE"/>
<path d="M1473.54 773.029C1471.24 773.029 1468.93 773.49 1467.09 773.95C1465.25 768.884 1459.72 765.2 1453.27 765.2C1449.12 765.2 1445.44 766.582 1443.13 768.884C1441.29 762.437 1433.92 757.832 1425.16 757.832C1423.32 757.832 1421.94 757.832 1420.1 758.292C1418.71 756.45 1414.57 752.305 1407.2 750.463C1395.22 747.24 1382.78 752.766 1377.25 756.911C1366.19 764.74 1365.73 779.476 1377.25 792.371C1409.5 792.371 1441.75 792.832 1474 792.832C1482.3 792.832 1489.21 788.227 1489.21 783.161C1488.75 775.792 1476.31 773.029 1473.54 773.029Z" fill="#CBCCCE"/>
<path d="M1489.67 794.67H1378.63C1378.17 794.21 1377.71 793.749 1377.25 793.289C1367.11 781.776 1367.57 769.341 1377.25 762.433C1381.86 759.21 1392.45 754.144 1403.05 756.907C1409.5 758.289 1412.73 761.973 1414.11 763.815C1415.49 763.355 1416.87 763.355 1418.25 763.355C1426.09 763.355 1432.54 767.499 1433.46 773.026C1435.76 771.184 1438.99 769.802 1442.21 769.802C1447.74 769.802 1452.81 773.026 1454.19 777.17C1456.03 776.71 1457.88 776.249 1459.72 776.249C1461.56 776.249 1467.55 777.17 1470.78 780.394C1472.16 780.394 1473.54 779.934 1475.38 779.934C1477.23 779.934 1487.82 781.315 1490.13 787.302C1490.59 788.223 1491.05 790.065 1489.67 792.828C1491.05 793.289 1490.59 793.749 1489.67 794.67Z" fill="#CBCCCE"/>
<path d="M1491.51 772.106C1494.27 772.106 1496.58 772.567 1498.42 773.027C1500.26 767.962 1506.25 763.817 1513.16 763.817C1517.31 763.817 1521.46 765.198 1524.22 767.501C1525.6 760.593 1533.44 755.527 1543.11 755.527C1544.96 755.527 1546.8 755.527 1548.64 755.988C1550.48 754.146 1554.63 749.54 1562.46 747.238C1575.36 744.014 1588.26 750.001 1594.25 754.146C1606.23 762.435 1606.69 778.093 1594.25 791.909C1560.16 791.909 1525.6 792.369 1491.51 792.369C1482.3 792.369 1474.92 787.764 1474.92 782.238C1474.92 774.869 1488.29 772.106 1491.51 772.106Z" fill="#CBCCCE"/>
<path d="M1494.74 773.947C1497.04 773.947 1499.34 774.407 1501.19 774.868C1503.03 769.802 1508.56 766.118 1515.01 766.118C1519.15 766.118 1522.84 767.499 1525.14 769.802C1526.06 763.354 1533.9 758.289 1542.65 758.289C1544.49 758.289 1545.88 758.289 1547.72 758.749C1549.1 756.907 1553.25 752.762 1560.62 750.92C1572.6 747.697 1585.04 753.223 1590.57 757.368C1601.63 765.197 1602.09 779.933 1590.57 792.828C1558.32 792.828 1526.06 793.289 1493.81 793.289C1485.52 793.289 1478.61 788.684 1478.61 783.618C1479.07 776.249 1491.97 773.947 1494.74 773.947Z" fill="#CBCCCE"/>
<path d="M1598.86 789.145C1596.56 790.987 1594.25 792.829 1591.95 794.671H1491.97C1488.75 792.369 1486.9 790.066 1485.52 789.145C1484.14 786.382 1484.6 784.54 1485.06 783.619C1487.36 777.632 1497.96 776.25 1499.8 776.25C1501.19 776.25 1503.03 776.25 1504.41 776.711C1507.64 773.947 1513.63 772.566 1515.47 772.566C1517.31 772.566 1519.62 773.026 1521 773.487C1522.38 769.342 1527.45 766.119 1532.98 766.119C1536.66 766.119 1539.43 767.5 1541.73 769.342C1542.65 763.816 1549.1 759.671 1556.93 759.671C1558.32 759.671 1559.7 759.671 1561.08 760.132C1562.46 758.29 1565.69 754.605 1572.14 753.224C1582.74 750.461 1593.33 755.066 1597.94 758.75C1608.54 765.197 1609 777.632 1598.86 789.145Z" fill="#CBCCCE"/>
<path d="M1485.98 781.317C1484.6 781.317 1483.22 781.317 1482.3 781.778C1481.37 779.015 1478.15 776.712 1474.46 776.712C1472.16 776.712 1469.86 777.633 1468.47 778.554C1468.01 774.87 1463.41 772.107 1458.34 772.107C1457.42 772.107 1456.49 772.107 1455.57 772.567C1454.65 771.646 1452.35 768.883 1448.2 767.962C1441.29 766.12 1434.38 769.343 1431.15 771.646C1424.7 776.251 1424.7 784.541 1431.15 791.909C1449.58 791.909 1468.01 791.909 1485.98 791.909C1491.05 791.909 1494.74 789.146 1494.74 786.383C1494.74 782.699 1487.82 781.317 1485.98 781.317Z" fill="#CBCCCE"/>
<path d="M1481.37 783.159C1479.99 783.159 1479.07 783.158 1477.69 783.619C1476.77 780.856 1474 779.014 1470.32 779.014C1468.01 779.014 1466.17 779.935 1464.79 780.856C1464.33 777.632 1460.18 774.869 1455.57 774.869C1454.65 774.869 1453.73 774.869 1452.81 775.33C1451.89 774.408 1450.04 772.106 1445.9 771.185C1439.45 769.343 1433 772.566 1429.77 774.408C1423.78 778.553 1423.32 786.382 1429.77 793.29C1446.82 793.29 1464.33 793.29 1481.37 793.29C1485.98 793.29 1489.67 790.987 1489.67 788.224C1489.67 784.54 1483.22 783.159 1481.37 783.159Z" fill="#CBCCCE"/>
<path d="M1490.13 794.671H1430.69C1430.23 794.21 1430.23 794.21 1429.77 793.75C1424.24 787.763 1424.7 780.855 1429.77 777.171C1432.54 775.329 1438.06 773.026 1443.59 774.408C1446.82 775.329 1448.66 777.171 1449.58 778.092C1450.5 778.092 1450.96 777.631 1451.89 777.631C1456.03 777.631 1459.72 779.934 1460.18 782.697C1461.56 781.776 1462.94 780.855 1464.79 780.855C1468.01 780.855 1470.32 782.697 1471.24 785C1472.16 784.539 1473.08 784.539 1474.46 784.539C1475.38 784.539 1478.61 785 1480.45 786.842C1481.37 786.842 1481.83 786.842 1482.75 786.842C1483.68 786.842 1489.67 787.763 1490.59 790.526C1490.59 790.987 1491.05 791.908 1490.59 793.289C1491.05 794.21 1490.59 794.21 1490.13 794.671Z" fill="#CBCCCE"/>
<path d="M1491.05 782.698C1492.43 782.698 1493.81 782.698 1494.73 783.159C1495.66 780.395 1498.88 778.093 1502.57 778.093C1504.87 778.093 1507.17 779.014 1508.56 779.935C1509.02 776.251 1513.62 773.487 1518.69 773.487C1519.61 773.487 1520.54 773.487 1521.46 773.948C1522.38 773.027 1524.68 770.264 1528.83 769.343C1535.74 767.501 1542.65 770.724 1545.88 773.027C1552.33 777.632 1552.33 785.922 1545.88 793.29C1527.45 793.29 1509.02 793.29 1491.05 793.29C1485.98 793.29 1482.29 790.527 1482.29 787.764C1482.29 784.08 1489.21 782.698 1491.05 782.698Z" fill="#CBCCCE"/>
<path d="M1492.89 783.618C1494.28 783.618 1495.2 783.618 1496.58 784.078C1497.5 781.315 1500.26 779.473 1503.95 779.473C1506.25 779.473 1508.1 780.394 1509.48 781.315C1509.94 778.091 1514.09 775.328 1518.69 775.328C1519.62 775.328 1520.54 775.328 1521.46 775.789C1522.38 774.867 1524.22 772.565 1528.37 771.644C1534.82 769.802 1541.27 773.025 1544.49 774.867C1550.48 779.012 1550.95 786.841 1544.49 793.749C1527.45 793.749 1509.94 793.749 1492.89 793.749C1488.29 793.749 1484.6 791.446 1484.6 788.683C1484.6 784.999 1491.51 783.618 1492.89 783.618Z" fill="#CBCCCE"/>
<path d="M1542.65 794.674H1489.21C1487.36 793.292 1486.44 792.371 1485.98 791.911C1485.06 790.529 1485.52 789.608 1485.98 789.148C1487.36 785.924 1492.89 785.463 1493.81 785.463C1494.74 785.463 1495.66 785.463 1496.12 785.463C1497.96 784.082 1501.19 783.161 1502.11 783.161C1503.03 783.161 1504.41 783.161 1505.33 783.621C1506.25 781.319 1508.56 779.477 1511.78 779.477C1513.63 779.477 1515.47 779.937 1516.39 781.319C1516.85 778.555 1520.54 776.253 1524.68 776.253C1525.6 776.253 1526.07 776.253 1526.99 776.713C1528.37 775.792 1530.21 774.411 1532.98 773.029C1544.49 767.042 1563.38 764.279 1570.3 773.029C1572.14 775.792 1573.52 779.937 1572.6 783.621C1569.83 790.529 1558.32 796.516 1542.65 794.674Z" fill="#CBCCCE"/>
<path d="M1304.45 634.408H1302.61V694.737H1304.45V634.408Z" fill="#CBCCCE"/>
<path d="M1319.66 634.408H1317.81V694.737H1319.66V634.408Z" fill="#CBCCCE"/>
<path d="M1318.27 639.475H1304.45V640.396H1318.27V639.475Z" fill="#CBCCCE"/>
<path d="M1318.27 643.158H1304.45V644.079H1318.27V643.158Z" fill="#CBCCCE"/>
<path d="M1318.27 647.305H1304.45V648.226H1318.27V647.305Z" fill="#CBCCCE"/>
<path d="M1318.27 650.986H1304.45V651.907H1318.27V650.986Z" fill="#CBCCCE"/>
<path d="M1318.27 654.67H1304.45V655.591H1318.27V654.67Z" fill="#CBCCCE"/>
<path d="M1318.27 658.355H1304.45V659.277H1318.27V658.355Z" fill="#CBCCCE"/>
<path d="M1318.27 662.041H1304.45V662.962H1318.27V662.041Z" fill="#CBCCCE"/>
<path d="M1318.27 665.725H1304.45V666.646H1318.27V665.725Z" fill="#CBCCCE"/>
<path d="M1318.27 669.41H1304.45V670.331H1318.27V669.41Z" fill="#CBCCCE"/>
<path d="M1318.27 673.553H1304.45V674.474H1318.27V673.553Z" fill="#CBCCCE"/>
<path d="M1318.27 677.238H1304.45V678.159H1318.27V677.238Z" fill="#CBCCCE"/>
<path d="M1318.27 680.922H1304.45V681.843H1318.27V680.922Z" fill="#CBCCCE"/>
<path d="M1334.86 642.234H1330.71V780.393H1334.86V642.234Z" fill="#CBCCCE"/>
<path d="M1368.96 642.234H1364.81V780.393H1368.96V642.234Z" fill="#CBCCCE"/>
<path d="M1365.73 653.748H1333.94V655.59H1365.73V653.748Z" fill="#CBCCCE"/>
<path d="M1365.73 662.496H1333.94V664.338H1365.73V662.496Z" fill="#CBCCCE"/>
<path d="M1365.73 670.787H1333.94V672.629H1365.73V670.787Z" fill="#CBCCCE"/>
<path d="M1365.73 679.537H1333.94V681.379H1365.73V679.537Z" fill="#CBCCCE"/>
<path d="M1365.73 688.287H1333.94V690.129H1365.73V688.287Z" fill="#CBCCCE"/>
<path d="M1365.73 697.037H1333.94V698.879H1365.73V697.037Z" fill="#CBCCCE"/>
<path d="M1365.73 705.326H1333.94V707.168H1365.73V705.326Z" fill="#CBCCCE"/>
<path d="M1365.73 714.078H1333.94V715.92H1365.73V714.078Z" fill="#CBCCCE"/>
<path d="M1365.73 722.828H1333.94V724.67H1365.73V722.828Z" fill="#CBCCCE"/>
<path d="M1365.73 731.576H1333.94V733.418H1365.73V731.576Z" fill="#CBCCCE"/>
<path d="M1365.73 739.867H1333.94V741.709H1365.73V739.867Z" fill="#CBCCCE"/>
<path d="M1365.73 748.617H1333.94V750.459H1365.73V748.617Z" fill="#CBCCCE"/>
<path d="M1317.57 756.619C1318.48 756.619 1319.4 756.159 1319.86 756.159C1321.68 755.698 1323.06 755.238 1323.97 754.777C1323.06 760.764 1322.14 767.211 1320.77 773.198C1321.68 772.737 1322.6 772.277 1323.51 771.816C1322.14 776.421 1320.31 781.487 1318.94 787.013C1318.48 788.855 1318.03 790.697 1317.57 793H1326.71C1327.17 792.079 1327.63 791.158 1327.63 790.697C1329 787.934 1330.37 784.711 1332.65 779.645C1331.74 783.329 1330.83 787.934 1330.37 793H1338.6C1338.6 792.079 1338.6 791.158 1338.6 790.237C1338.6 783.329 1341.34 779.645 1341.8 771.816C1341.8 770.895 1341.8 769.974 1341.8 769.514C1342.25 769.053 1343.62 768.593 1344.08 767.672C1345 766.29 1344.54 764.908 1344.54 764.448C1344.08 759.382 1346.37 752.014 1343.62 736.356C1343.17 734.054 1342.71 730.83 1339.97 728.988C1338.14 727.607 1337.68 728.528 1336.31 727.146C1333.11 724.383 1335.85 719.317 1332.65 716.554C1331.28 715.173 1329 714.712 1327.17 715.173C1323.97 716.094 1323.06 718.857 1322.6 719.317C1321.68 719.778 1321.23 720.699 1321.23 720.699C1321.23 721.159 1322.14 721.159 1323.06 720.699C1322.14 723.001 1322.6 724.383 1323.06 725.304C1323.97 726.686 1324.88 726.686 1325.8 728.528C1326.26 729.449 1326.26 730.37 1325.8 731.751C1325.8 733.593 1325.34 735.435 1324.88 735.896C1323.97 738.659 1321.68 743.264 1317.57 747.869C1315.29 747.409 1313 749.711 1313 752.014C1313.91 754.317 1315.29 756.159 1317.57 756.619Z" fill="#CBCCCE"/>
<path d="M1107.46 752.424C1107.46 752.88 1107.46 754.248 1107.92 755.615C1108.83 756.983 1109.75 757.439 1110.66 757.895C1110.66 758.351 1110.66 759.263 1110.66 760.63C1111.12 771.572 1111.58 778.867 1112.03 782.97C1112.03 785.705 1112.49 789.353 1112.49 793H1121.18C1121.64 790.72 1121.64 787.985 1122.09 785.705C1122.55 781.602 1123.01 777.499 1123.01 773.852C1124.38 776.587 1125.75 778.867 1126.67 781.146C1128.95 786.617 1129.87 788.897 1129.87 790.265C1130.33 791.176 1130.33 792.088 1130.33 793H1139.93C1138.56 787.985 1137.64 782.514 1135.81 777.043C1133.98 771.116 1132.61 765.645 1130.78 760.63C1131.7 761.086 1132.61 761.542 1133.98 761.998C1133.07 755.16 1131.7 748.777 1130.78 741.938C1132.16 742.394 1133.53 743.306 1135.36 743.762C1136.27 743.762 1137.19 743.762 1138.1 744.218C1138.56 743.762 1139.01 743.762 1139.01 743.762L1179.26 793H1182L1140.84 742.394C1141.76 741.482 1142.22 740.57 1142.22 739.203C1142.22 736.923 1139.93 734.644 1137.19 735.1C1132.61 730.085 1129.87 725.07 1128.95 721.878C1128.5 720.966 1128.5 719.143 1128.04 717.319C1128.04 715.495 1127.58 714.584 1128.04 713.672C1128.5 711.848 1129.87 711.848 1130.78 710.025C1131.24 709.113 1131.7 707.745 1130.78 705.01C1131.7 705.466 1132.61 705.01 1133.07 704.554C1133.07 704.098 1132.61 703.186 1131.7 702.73C1131.7 702.274 1130.33 699.083 1126.67 698.171C1124.84 697.715 1122.55 698.171 1120.72 699.539C1117.52 702.73 1120.27 707.745 1116.61 710.936C1115.24 712.304 1114.32 711.392 1112.49 712.76C1109.75 715.04 1108.83 718.231 1108.38 720.966C1105.63 738.747 1107.92 746.497 1107.46 752.424Z" fill="#CBCCCE"/>
<path d="M1318.17 754.591C1318.17 755.05 1318.17 756.427 1317.71 757.344C1317.25 758.262 1316.32 758.72 1315.39 759.179C1315.39 759.638 1315.39 760.556 1315.39 761.473C1314.92 771.108 1314.46 776.613 1314.46 780.283C1314.46 782.577 1313.99 785.33 1314.46 789H1307.03C1307.03 787.165 1306.56 784.871 1306.56 782.577C1306.1 779.366 1306.1 775.695 1305.63 772.484C1304.24 774.778 1303.31 777.072 1302.85 778.448C1300.52 783.036 1300.06 785.33 1300.06 786.247C1300.06 787.165 1299.59 788.082 1299.59 788.541H1291.23C1292.16 784.412 1293.55 779.824 1294.48 775.237C1295.88 770.19 1297.27 765.602 1298.66 761.473C1297.74 761.932 1296.81 762.391 1295.88 762.391C1296.81 756.885 1297.74 750.921 1298.66 745.416C1297.74 745.875 1296.34 746.333 1294.95 746.792C1294.02 746.792 1293.09 747.251 1292.63 747.251C1292.16 747.251 1292.16 747.251 1291.7 746.792L1257.32 788.541H1255L1290.3 745.875C1289.84 744.957 1289.37 744.039 1289.37 743.122C1289.37 740.828 1291.23 739.452 1294.02 739.452C1298.2 734.864 1300.52 730.735 1300.99 728.441C1300.99 727.523 1301.45 726.147 1301.92 724.312C1301.92 722.935 1301.92 722.018 1301.92 721.1C1301.45 719.724 1300.06 719.265 1299.59 718.348C1299.13 717.43 1298.66 716.054 1299.59 714.219C1298.66 714.677 1297.74 714.219 1297.74 714.219C1297.74 713.76 1298.2 713.301 1299.13 712.842C1299.13 712.384 1300.52 709.631 1303.31 709.172C1305.17 708.713 1307.03 709.172 1308.42 710.548C1311.21 713.301 1308.88 717.889 1311.67 720.183C1313.06 721.1 1313.53 720.642 1314.92 722.018C1317.25 723.853 1317.71 726.606 1318.17 728.9C1320.03 743.122 1318.17 750.004 1318.17 754.591Z" fill="#CBCCCE"/>
<path d="M1605.31 790.525H1204.01V794.67H1605.31V790.525Z" fill="#CBCCCE"/>
<path d="M1204.93 794.671C1220.46 794.671 1233.04 782.093 1233.04 766.579C1233.04 751.064 1220.46 738.486 1204.93 738.486C1189.41 738.486 1176.83 751.064 1176.83 766.579C1176.83 782.093 1189.41 794.671 1204.93 794.671Z" fill="#CBCCCE"/>
<path d="M1204.93 792.368C1219.18 792.368 1230.73 780.822 1230.73 766.579C1230.73 752.335 1219.18 740.789 1204.93 740.789C1190.68 740.789 1179.13 752.335 1179.13 766.579C1179.13 780.822 1190.68 792.368 1204.93 792.368Z" fill="#CBCCCE"/>
<path d="M1204.93 790.524C1218.17 790.524 1228.89 779.802 1228.89 766.576C1228.89 753.351 1218.17 742.629 1204.93 742.629C1191.7 742.629 1180.98 753.351 1180.98 766.576C1180.98 779.802 1191.7 790.524 1204.93 790.524Z" fill="#CBCCCE"/>
<path d="M1204.93 788.221C1216.89 788.221 1226.59 778.531 1226.59 766.576C1226.59 754.622 1216.89 744.932 1204.93 744.932C1192.97 744.932 1183.28 754.622 1183.28 766.576C1183.28 778.531 1192.97 788.221 1204.93 788.221Z" fill="#CBCCCE"/>
<path d="M1204.93 786.381C1215.88 786.381 1224.75 777.515 1224.75 766.578C1224.75 755.641 1215.88 746.775 1204.93 746.775C1193.99 746.775 1185.12 755.641 1185.12 766.578C1185.12 777.515 1193.99 786.381 1204.93 786.381Z" fill="#CBCCCE"/>
<path d="M1204.94 784.078C1214.6 784.078 1222.44 776.243 1222.44 766.578C1222.44 756.913 1214.6 749.078 1204.94 749.078C1195.27 749.078 1187.43 756.913 1187.43 766.578C1187.43 776.243 1195.27 784.078 1204.94 784.078Z" fill="#CBCCCE"/>
<path d="M1204.93 782.696C1213.84 782.696 1221.06 775.479 1221.06 766.577C1221.06 757.675 1213.84 750.459 1204.93 750.459C1196.03 750.459 1188.81 757.675 1188.81 766.577C1188.81 775.479 1196.03 782.696 1204.93 782.696Z" fill="#CBCCCE"/>
<path d="M1204.94 781.778C1213.33 781.778 1220.14 774.974 1220.14 766.58C1220.14 758.187 1213.33 751.383 1204.94 751.383C1196.54 751.383 1189.73 758.187 1189.73 766.58C1189.73 774.974 1196.54 781.778 1204.94 781.778Z" fill="#CBCCCE"/>
<path d="M1204.93 780.395C1212.57 780.395 1218.76 774.21 1218.76 766.58C1218.76 758.949 1212.57 752.764 1204.93 752.764C1197.3 752.764 1191.11 758.949 1191.11 766.58C1191.11 774.21 1197.3 780.395 1204.93 780.395Z" fill="#CBCCCE"/>
<path d="M1204.94 779.013C1211.81 779.013 1217.38 773.446 1217.38 766.579C1217.38 759.712 1211.81 754.145 1204.94 754.145C1198.07 754.145 1192.5 759.712 1192.5 766.579C1192.5 773.446 1198.07 779.013 1204.94 779.013Z" fill="#CBCCCE"/>
<path d="M1204.93 778.091C1211.29 778.091 1216.45 772.936 1216.45 766.578C1216.45 760.219 1211.29 755.064 1204.93 755.064C1198.57 755.064 1193.41 760.219 1193.41 766.578C1193.41 772.936 1198.57 778.091 1204.93 778.091Z" fill="#CBCCCE"/>
<path d="M1204.93 776.709C1210.53 776.709 1215.07 772.173 1215.07 766.577C1215.07 760.981 1210.53 756.445 1204.93 756.445C1199.34 756.445 1194.8 760.981 1194.8 766.577C1194.8 772.173 1199.34 776.709 1204.93 776.709Z" fill="#CBCCCE"/>
<path d="M1959.62 784.539H1676.27V788.684H1959.62V784.539Z" fill="#CBCCCE"/>
<path d="M1677.19 789.143C1692.71 789.143 1705.29 776.566 1705.29 761.051C1705.29 745.536 1692.71 732.959 1677.19 732.959C1661.66 732.959 1649.08 745.536 1649.08 761.051C1649.08 776.566 1661.66 789.143 1677.19 789.143Z" fill="#CBCCCE"/>
<path d="M1677.19 786.841C1691.44 786.841 1702.99 775.294 1702.99 761.051C1702.99 746.808 1691.44 735.262 1677.19 735.262C1662.94 735.262 1651.38 746.808 1651.38 761.051C1651.38 775.294 1662.94 786.841 1677.19 786.841Z" fill="#CBCCCE"/>
<path d="M1677.19 784.996C1690.42 784.996 1701.14 774.275 1701.14 761.049C1701.14 747.823 1690.42 737.102 1677.19 737.102C1663.95 737.102 1653.23 747.823 1653.23 761.049C1653.23 774.275 1663.95 784.996 1677.19 784.996Z" fill="#CBCCCE"/>
<path d="M1677.19 782.694C1689.15 782.694 1698.84 773.003 1698.84 761.049C1698.84 749.095 1689.15 739.404 1677.19 739.404C1665.23 739.404 1655.53 749.095 1655.53 761.049C1655.53 773.003 1665.23 782.694 1677.19 782.694Z" fill="#CBCCCE"/>
<path d="M1677.19 780.853C1688.13 780.853 1697 771.987 1697 761.051C1697 750.114 1688.13 741.248 1677.19 741.248C1666.24 741.248 1657.38 750.114 1657.38 761.051C1657.38 771.987 1666.24 780.853 1677.19 780.853Z" fill="#CBCCCE"/>
<path d="M1677.19 778.551C1686.86 778.551 1694.7 770.716 1694.7 761.051C1694.7 751.386 1686.86 743.551 1677.19 743.551C1667.52 743.551 1659.68 751.386 1659.68 761.051C1659.68 770.716 1667.52 778.551 1677.19 778.551Z" fill="#CBCCCE"/>
<path d="M1677.19 777.169C1686.09 777.169 1693.31 769.952 1693.31 761.05C1693.31 752.148 1686.09 744.932 1677.19 744.932C1668.28 744.932 1661.06 752.148 1661.06 761.05C1661.06 769.952 1668.28 777.169 1677.19 777.169Z" fill="#CBCCCE"/>
<path d="M1677.19 776.25C1685.59 776.25 1692.39 769.446 1692.39 761.053C1692.39 752.66 1685.59 745.855 1677.19 745.855C1668.79 745.855 1661.98 752.66 1661.98 761.053C1661.98 769.446 1668.79 776.25 1677.19 776.25Z" fill="#CBCCCE"/>
<path d="M1677.19 774.868C1684.82 774.868 1691.01 768.682 1691.01 761.052C1691.01 753.422 1684.82 747.236 1677.19 747.236C1669.55 747.236 1663.36 753.422 1663.36 761.052C1663.36 768.682 1669.55 774.868 1677.19 774.868Z" fill="#CBCCCE"/>
<path d="M1677.19 773.486C1684.06 773.486 1689.63 767.919 1689.63 761.051C1689.63 754.184 1684.06 748.617 1677.19 748.617C1670.32 748.617 1664.75 754.184 1664.75 761.051C1664.75 767.919 1670.32 773.486 1677.19 773.486Z" fill="#CBCCCE"/>
<path d="M1677.18 772.564C1683.55 772.564 1688.7 767.409 1688.7 761.05C1688.7 754.692 1683.55 749.537 1677.18 749.537C1670.82 749.537 1665.67 754.692 1665.67 761.05C1665.67 767.409 1670.82 772.564 1677.18 772.564Z" fill="#CBCCCE"/>
<path d="M1677.19 771.181C1682.78 771.181 1687.32 766.645 1687.32 761.05C1687.32 755.454 1682.78 750.918 1677.19 750.918C1671.59 750.918 1667.05 755.454 1667.05 761.05C1667.05 766.645 1671.59 771.181 1677.19 771.181Z" fill="#CBCCCE"/>
<path d="M1959.61 774.408H1764.26V778.092H1959.61V774.408Z" fill="#CBCCCE"/>
<path d="M1765.19 778.553C1778.93 778.553 1790.07 767.419 1790.07 753.685C1790.07 739.95 1778.93 728.816 1765.19 728.816C1751.45 728.816 1740.31 739.95 1740.31 753.685C1740.31 767.419 1751.45 778.553 1765.19 778.553Z" fill="#CBCCCE"/>
<path d="M1765.19 776.711C1777.91 776.711 1788.22 766.402 1788.22 753.685C1788.22 740.967 1777.91 730.658 1765.19 730.658C1752.46 730.658 1742.15 740.967 1742.15 753.685C1742.15 766.402 1752.46 776.711 1765.19 776.711Z" fill="#CBCCCE"/>
<path d="M1765.19 774.871C1776.89 774.871 1786.38 765.386 1786.38 753.686C1786.38 741.986 1776.89 732.502 1765.19 732.502C1753.48 732.502 1743.99 741.986 1743.99 753.686C1743.99 765.386 1753.48 774.871 1765.19 774.871Z" fill="#CBCCCE"/>
<path d="M1765.19 773.028C1775.87 773.028 1784.54 764.368 1784.54 753.686C1784.54 743.004 1775.87 734.344 1765.19 734.344C1754.5 734.344 1745.84 743.004 1745.84 753.686C1745.84 764.368 1754.5 773.028 1765.19 773.028Z" fill="#CBCCCE"/>
<path d="M1765.19 770.724C1774.6 770.724 1782.23 763.095 1782.23 753.684C1782.23 744.273 1774.6 736.645 1765.19 736.645C1755.77 736.645 1748.14 744.273 1748.14 753.684C1748.14 763.095 1755.77 770.724 1765.19 770.724Z" fill="#CBCCCE"/>
<path d="M1765.19 768.881C1773.58 768.881 1780.39 762.077 1780.39 753.684C1780.39 745.29 1773.58 738.486 1765.19 738.486C1756.79 738.486 1749.98 745.29 1749.98 753.684C1749.98 762.077 1756.79 768.881 1765.19 768.881Z" fill="#CBCCCE"/>
<path d="M1765.19 767.961C1773.08 767.961 1779.47 761.569 1779.47 753.685C1779.47 745.8 1773.08 739.408 1765.19 739.408C1757.3 739.408 1750.9 745.8 1750.9 753.685C1750.9 761.569 1757.3 767.961 1765.19 767.961Z" fill="#CBCCCE"/>
<path d="M1765.19 767.041C1772.56 767.041 1778.55 761.061 1778.55 753.685C1778.55 746.309 1772.56 740.33 1765.19 740.33C1757.81 740.33 1751.82 746.309 1751.82 753.685C1751.82 761.061 1757.81 767.041 1765.19 767.041Z" fill="#CBCCCE"/>
<path d="M1765.19 765.66C1771.8 765.66 1777.17 760.3 1777.17 753.687C1777.17 747.074 1771.8 741.713 1765.19 741.713C1758.57 741.713 1753.21 747.074 1753.21 753.687C1753.21 760.3 1758.57 765.66 1765.19 765.66Z" fill="#CBCCCE"/>
<path d="M1765.18 764.738C1771.29 764.738 1776.24 759.79 1776.24 753.686C1776.24 747.581 1771.29 742.633 1765.18 742.633C1759.08 742.633 1754.13 747.581 1754.13 753.686C1754.13 759.79 1759.08 764.738 1765.18 764.738Z" fill="#CBCCCE"/>
<path d="M1765.19 763.814C1770.78 763.814 1775.32 759.278 1775.32 753.682C1775.32 748.087 1770.78 743.551 1765.19 743.551C1759.59 743.551 1755.05 748.087 1755.05 753.682C1755.05 759.278 1759.59 763.814 1765.19 763.814Z" fill="#CBCCCE"/>
<path d="M1765.19 762.436C1770.02 762.436 1773.94 758.518 1773.94 753.686C1773.94 748.853 1770.02 744.936 1765.19 744.936C1760.35 744.936 1756.43 748.853 1756.43 753.686C1756.43 758.518 1760.35 762.436 1765.19 762.436Z" fill="#CBCCCE"/>
<rect x="-36" y="796" width="2535" height="160" fill="white"/>
<g clip-path="url(#clip1)">
<path d="M2460.37 697.229H2457.46V791.31H2460.37V697.229Z" fill="#E7E7E7"/>
<path d="M2465.87 697.229H2461.87V791.31H2465.87V697.229Z" fill="#E7E7E7"/>
<path d="M2455.05 757.092H2441.15V760.006H2455.05V757.092Z" fill="#E7E7E7"/>
<path d="M2455.05 717.377H2441.15V732.53H2455.05V717.377Z" fill="#E7E7E7"/>
<path d="M2455.05 747.932H2441.15V750.846H2455.05V747.932Z" fill="#E7E7E7"/>
<path d="M2455.05 752.512H2441.15V755.426H2455.05V752.512Z" fill="#E7E7E7"/>
<path d="M2455.05 738.773H2441.15V741.687H2455.05V738.773Z" fill="#E7E7E7"/>
<path d="M2455.05 761.67H2441.15V791.226H2455.05V761.67Z" fill="#E7E7E7"/>
<path d="M2455.05 734.195H2441.15V737.109H2455.05V734.195Z" fill="#E7E7E7"/>
<path d="M2455.05 743.354H2441.15V746.268H2455.05V743.354Z" fill="#E7E7E7"/>
<path d="M2467.37 699.477V710.467H2538.95C2540.53 710.467 2541.78 711.882 2541.78 713.63V713.714C2541.78 715.462 2540.53 716.877 2538.95 716.877H2467.37V744.852H2547.11C2548.19 744.852 2549.1 745.851 2549.1 747.183C2549.1 748.432 2548.19 749.514 2547.11 749.514H2467.37V763.751H2544.94C2545.44 763.751 2545.86 764.251 2545.86 764.751C2545.86 765.25 2545.44 765.75 2544.94 765.75H2467.37V791.31H2573.08V744.852V716.877V710.467V704.972V699.477H2467.37ZM2490.26 706.553H2487.92C2487.09 706.553 2486.43 705.804 2486.43 704.888C2486.43 703.972 2487.09 703.223 2487.92 703.223H2490.26C2491.09 703.223 2491.75 703.972 2491.75 704.888C2491.75 705.804 2491.09 706.553 2490.26 706.553ZM2502.32 706.553H2499.99C2499.16 706.553 2498.5 705.804 2498.5 704.888C2498.5 703.972 2499.16 703.223 2499.99 703.223H2502.32C2503.16 703.223 2503.82 703.972 2503.82 704.888C2503.74 705.804 2503.07 706.553 2502.32 706.553ZM2514.31 706.553H2511.98C2511.15 706.553 2510.48 705.804 2510.48 704.888C2510.48 703.972 2511.15 703.223 2511.98 703.223H2514.31C2515.14 703.223 2515.81 703.972 2515.81 704.888C2515.81 705.804 2515.14 706.553 2514.31 706.553ZM2526.38 706.553H2524.05C2523.22 706.553 2522.55 705.804 2522.55 704.888C2522.55 703.972 2523.22 703.223 2524.05 703.223H2526.38C2527.21 703.223 2527.88 703.972 2527.88 704.888C2527.88 705.804 2527.21 706.553 2526.38 706.553ZM2538.37 706.553H2536.04C2535.2 706.553 2534.54 705.804 2534.54 704.888C2534.54 703.972 2535.2 703.223 2536.04 703.223H2538.37C2539.2 703.223 2539.86 703.972 2539.86 704.888C2539.86 705.804 2539.2 706.553 2538.37 706.553ZM2478.19 739.107H2475.86C2475.02 739.107 2474.36 738.358 2474.36 737.442C2474.36 736.526 2475.02 735.777 2475.86 735.777H2478.19C2479.02 735.777 2479.68 736.526 2479.68 737.442C2479.68 738.358 2479.02 739.107 2478.19 739.107ZM2490.26 739.107H2487.92C2487.09 739.107 2486.43 738.358 2486.43 737.442C2486.43 736.526 2487.09 735.777 2487.92 735.777H2490.26C2491.09 735.777 2491.75 736.526 2491.75 737.442C2491.75 738.358 2491.09 739.107 2490.26 739.107ZM2502.32 739.107H2499.99C2499.16 739.107 2498.5 738.358 2498.5 737.442C2498.5 736.526 2499.16 735.777 2499.99 735.777H2502.32C2503.16 735.777 2503.82 736.526 2503.82 737.442C2503.74 738.358 2503.07 739.107 2502.32 739.107ZM2514.31 739.107H2511.98C2511.15 739.107 2510.48 738.358 2510.48 737.442C2510.48 736.526 2511.15 735.777 2511.98 735.777H2514.31C2515.14 735.777 2515.81 736.526 2515.81 737.442C2515.81 738.358 2515.14 739.107 2514.31 739.107ZM2526.38 739.107H2524.05C2523.22 739.107 2522.55 738.358 2522.55 737.442C2522.55 736.526 2523.22 735.777 2524.05 735.777H2526.38C2527.21 735.777 2527.88 736.526 2527.88 737.442C2527.88 738.358 2527.21 739.107 2526.38 739.107ZM2538.37 739.107H2536.04C2535.2 739.107 2534.54 738.358 2534.54 737.442C2534.54 736.526 2535.2 735.777 2536.04 735.777H2538.37C2539.2 735.777 2539.86 736.526 2539.86 737.442C2539.86 738.358 2539.2 739.107 2538.37 739.107ZM2550.44 739.107H2548.1C2547.27 739.107 2546.61 738.358 2546.61 737.442C2546.61 736.526 2547.27 735.777 2548.1 735.777H2550.44C2551.27 735.777 2551.93 736.526 2551.93 737.442C2551.93 738.358 2551.27 739.107 2550.44 739.107ZM2551.52 730.199H2474.02C2473.03 730.199 2472.19 729.283 2472.19 728.117C2472.19 726.952 2473.03 726.036 2474.02 726.036H2551.52C2552.52 726.036 2553.35 726.952 2553.35 728.117C2553.35 729.283 2552.52 730.199 2551.52 730.199Z" fill="#E7E7E7"/>
<path d="M2384.38 715.463H2337.76C2336.85 715.463 2336.02 716.295 2336.02 717.378C2336.02 718.46 2336.76 719.293 2337.76 719.293H2384.38V715.463Z" fill="#CBCCCE"/>
<path d="M2384.38 721.707H2342.43V725.537L2350.42 730.699V751.93H2336.77V768.331H2384.38V721.707ZM2356.24 750.514C2356.24 751.597 2355.49 752.429 2354.58 752.429C2353.66 752.429 2352.91 751.597 2352.91 750.514V731.864C2352.91 730.782 2353.66 729.95 2354.58 729.95C2355.49 729.95 2356.24 730.782 2356.24 731.864V750.514ZM2360.74 752.429C2359.82 752.429 2359.07 751.597 2359.07 750.514V731.864C2359.07 730.782 2359.82 729.95 2360.74 729.95C2361.65 729.95 2362.4 730.782 2362.4 731.864V750.514C2362.4 751.597 2361.65 752.429 2360.74 752.429ZM2366.9 752.429C2365.98 752.429 2365.23 751.597 2365.23 750.514V731.864C2365.23 730.782 2365.98 729.95 2366.9 729.95C2367.81 729.95 2368.56 730.782 2368.56 731.864V750.514C2368.56 751.597 2367.81 752.429 2366.9 752.429ZM2373.06 752.429C2372.14 752.429 2371.39 751.597 2371.39 750.514V731.864C2371.39 730.782 2372.14 729.95 2373.06 729.95C2373.97 729.95 2374.72 730.782 2374.72 731.864V750.514C2374.72 751.597 2373.97 752.429 2373.06 752.429ZM2379.22 752.429C2378.3 752.429 2377.55 751.597 2377.55 750.514V731.864C2377.55 730.782 2378.3 729.95 2379.22 729.95C2380.13 729.95 2380.88 730.782 2380.88 731.864V750.514C2380.88 751.597 2380.13 752.429 2379.22 752.429Z" fill="#CBCCCE"/>
<path d="M2331.77 770.746L2326.53 791.311H2384.38V770.746H2331.77Z" fill="#CBCCCE"/>
<path d="M2212.83 781.902L2213.99 786.815C2216.41 786.815 2218.82 786.731 2221.15 786.731L2221.57 781.986C2219.07 781.986 2216.57 781.986 2214.08 781.902C2213.66 781.902 2213.24 781.902 2212.83 781.902Z" fill="#CBCCCE"/>
<path d="M2222.48 781.986L2222.9 786.732C2225.31 786.732 2227.73 786.732 2230.06 786.815L2231.22 781.986C2228.31 781.986 2225.4 781.986 2222.48 781.986Z" fill="#CBCCCE"/>
<path d="M2198.76 781.486L2200.42 787.148C2202.01 787.065 2203.67 786.981 2205.25 786.981L2204.5 781.736C2202.67 781.653 2200.67 781.57 2198.76 781.486Z" fill="#CBCCCE"/>
<path d="M2205.17 781.736L2206.5 786.898C2208.5 786.815 2210.5 786.815 2212.58 786.815L2212.08 781.903C2209.75 781.82 2207.5 781.82 2205.17 781.736Z" fill="#CBCCCE"/>
<path d="M2240.21 781.154L2239.8 779.572L2239.55 781.154C2239.8 781.154 2239.96 781.154 2240.21 781.154Z" fill="#CBCCCE"/>
<path d="M2231.97 781.902L2231.47 786.731C2233.47 786.731 2235.47 786.814 2237.55 786.814L2238.88 781.652C2236.55 781.819 2234.3 781.902 2231.97 781.902Z" fill="#CBCCCE"/>
<path d="M2240.38 781.736C2240.05 781.736 2239.8 781.736 2239.46 781.736L2238.71 786.898C2239.71 786.898 2240.71 786.982 2241.79 787.065L2240.38 781.736Z" fill="#CBCCCE"/>
<path d="M2241.88 787.398C2240.8 787.481 2239.71 787.481 2238.63 787.565L2238.3 790.229H2236.72L2237.38 787.648C2235.38 787.731 2233.39 787.731 2231.39 787.731L2231.14 790.229H2229.23L2229.81 787.731C2227.56 787.731 2225.23 787.814 2222.98 787.814L2223.23 790.229H2220.9L2221.15 787.814C2218.9 787.814 2216.57 787.814 2214.33 787.731L2214.91 790.229H2212.99L2212.74 787.731C2210.75 787.731 2208.75 787.648 2206.75 787.648L2207.42 790.229H2205.84L2205.5 787.565C2203.92 787.481 2202.26 787.481 2200.67 787.398L2201.51 790.229H2200.26L2199.68 787.315C2199.26 787.315 2198.76 787.232 2198.34 787.232C2198.76 787.232 2199.26 787.148 2199.68 787.148L2198.43 781.404C2198.09 781.404 2197.84 781.404 2197.51 781.32C2197.84 781.32 2198.09 781.32 2198.43 781.237L2197.43 776.491L2198.84 781.154C2200.76 781.071 2202.67 780.987 2204.59 780.904L2203.92 776.491L2205.09 780.904C2207.42 780.821 2209.75 780.821 2212 780.738L2211.58 776.491L2212.58 780.738C2215.57 780.738 2218.65 780.654 2221.65 780.738L2221.98 776.491L2222.32 780.738C2224.9 780.738 2227.39 780.738 2229.97 780.821C2230.47 780.821 2230.97 780.821 2231.47 780.821L2232.47 776.491L2232.06 780.821C2234.39 780.821 2236.72 780.904 2238.96 780.987L2239.55 778.823L2238.13 773.494H2193.18L2197.93 791.145H2242.88L2241.88 787.398Z" fill="#CBCCCE"/>
<path d="M2239.13 627.875L2262.27 610.225L2279.5 612.972L2257.61 629.291L2239.13 627.875Z" fill="#CBCCCE"/>
<path d="M2261.6 684.492C2261.69 688.488 2258.52 688.655 2257.36 686.657C2256.69 685.491 2256.78 683.826 2256.94 682.66C2256.19 683.409 2255.78 684.575 2255.78 685.741C2255.78 688.155 2257.53 690.07 2259.61 690.07C2260.69 690.07 2261.94 689.571 2262.52 688.488C2263.02 687.656 2263.1 686.573 2262.69 685.657C2262.6 685.408 2262.44 685.158 2262.19 684.908C2262.19 684.908 2261.6 684.492 2261.6 684.492Z" fill="#CBCCCE"/>
<path d="M2236.3 688.821C2236.3 688.821 2240.46 677.498 2245.54 671.254C2245.54 671.254 2242.04 682.993 2239.46 688.405C2239.38 688.322 2237.8 687.406 2236.3 688.821Z" fill="#CBCCCE"/>
<path d="M2239.05 688.905C2239.05 688.905 2233.14 688.156 2226.73 700.478C2226.73 700.478 2232.89 693.651 2235.39 697.314C2235.39 697.314 2238.22 691.903 2239.05 688.905Z" fill="#CBCCCE"/>
<path d="M2231.39 773.578C2231.22 766.251 2232.06 710.052 2233.22 700.561C2233.22 700.561 2227.81 733.031 2229.23 773.578H2231.39Z" fill="#CBCCCE"/>
<path d="M2251.2 672.587C2250.62 670.672 2249.12 665.344 2248.95 662.68C2248.54 657.518 2250.2 650.441 2250.2 650.441L2254.94 621.717L2248.62 626.129L2245.96 649.275C2245.87 649.775 2245.79 650.357 2245.79 650.94C2245.04 658.517 2246.29 665.76 2247.12 669.257L2251.2 672.587Z" fill="#CBCCCE"/>
<path d="M2227.73 773.577C2227.23 759.673 2228.48 710.634 2231.56 699.395C2231.56 699.395 2226.73 699.728 2223.9 773.577H2227.73Z" fill="#CBCCCE"/>
<path d="M2221.73 773.577C2225.98 711.634 2226.4 702.808 2230.23 698.979C2230.23 698.979 2221.73 699.228 2218.32 773.577H2221.73Z" fill="#CBCCCE"/>
<path d="M2215.74 773.578C2216.41 764.17 2219.07 713.382 2226.15 701.477C2215.57 712.966 2212.25 768.499 2211.91 773.578H2215.74Z" fill="#CBCCCE"/>
<path d="M2240.38 703.225C2239.8 704.14 2239.22 704.89 2238.8 705.389L2239.55 705.639C2240.13 704.806 2240.63 704.14 2241.05 703.474L2240.38 703.225Z" fill="#CBCCCE"/>
<path d="M2260.44 711.135L2262.35 711.801C2262.52 711.551 2262.69 711.385 2262.94 711.135L2261.02 710.469C2260.86 710.719 2260.69 710.885 2260.44 711.135Z" fill="#CBCCCE"/>
<path d="M2251.62 675.5L2252.7 676.333C2252.53 677.748 2252.03 680.496 2251.45 682.161C2251.45 682.161 2253.12 679.081 2253.61 676.999L2258.28 680.579C2260.36 679.996 2262.85 680.662 2263.85 682.994C2264.85 685.408 2264.44 688.655 2262.69 690.57C2259.94 693.567 2254.45 692.985 2252.95 688.738C2252.53 687.406 2252.37 685.908 2252.53 684.575C2249.7 688.156 2250.2 693.817 2253.53 696.731C2256.28 699.146 2260.36 699.229 2263.27 697.314C2263.69 697.064 2264.1 696.731 2264.44 696.398C2269.85 691.153 2266.18 682.827 2262.69 676.333C2259.69 670.755 2261.27 660.264 2261.27 660.264L2263.69 646.194L2270.18 612.225L2261.61 617.47L2257.78 646.777L2256.36 660.014C2256.36 660.014 2255.11 668.507 2259.27 679.414L2246.96 669.09C2244.29 681.578 2236.8 697.231 2236.8 697.231L2238.8 696.148C2238.8 696.148 2245.71 682.078 2248.04 672.836L2250.78 674.918C2249.87 678.081 2245.96 691.319 2241.21 700.061L2242.13 700.311C2246.71 691.902 2250.53 679.247 2251.62 675.5Z" fill="#CBCCCE"/>
<path d="M2240.3 705.973L2258.28 712.384C2258.53 712.134 2258.78 711.801 2259.11 711.468L2240.96 705.141C2240.71 705.39 2240.55 705.723 2240.3 705.973Z" fill="#CBCCCE"/>
<path d="M2270.34 688.822C2268.26 697.231 2263.6 706.972 2263.6 706.972C2263.6 706.972 2262.69 708.221 2261.44 709.886L2263.35 710.553C2269.26 702.477 2271.84 690.154 2271.84 690.154L2270.34 688.822Z" fill="#CBCCCE"/>
<path d="M2241.46 704.475L2259.69 710.885C2259.86 710.636 2260.02 710.469 2260.27 710.219L2242.04 703.809C2241.71 704.058 2241.54 704.225 2241.46 704.475Z" fill="#CBCCCE"/>
<path d="M2238.71 702.642C2238.55 702.559 2238.47 702.392 2238.47 702.142C2238.55 701.976 2238.71 701.809 2238.88 701.892L2239.96 702.226C2240.71 700.893 2241.21 699.894 2241.21 699.894L2240.38 699.645L2236.55 700.81C2236.3 702.808 2235.88 704.224 2235.88 704.224L2238.05 704.973C2238.63 704.307 2239.13 703.558 2239.55 702.808L2238.71 702.642Z" fill="#CBCCCE"/>
<path d="M2259.19 712.717L2261.02 713.383C2261.27 713.05 2261.61 712.8 2261.86 712.467L2260.02 711.801C2259.69 712.051 2259.44 712.384 2259.19 712.717Z" fill="#CBCCCE"/>
<path d="M2248.95 689.238C2247.2 693.068 2243.87 698.896 2242.96 700.561L2243.87 700.811C2246.54 695.982 2248.95 689.238 2248.95 689.238Z" fill="#CBCCCE"/>
<path d="M2241.54 702.892C2242.46 701.393 2242.96 700.56 2242.96 700.56L2242.13 700.311C2241.71 701.143 2241.21 701.976 2240.79 702.642L2241.54 702.892Z" fill="#CBCCCE"/>
<path d="M2260.69 709.553C2261.44 708.554 2262.19 707.555 2262.69 706.639L2259.52 705.64C2260.52 703.059 2260.77 700.229 2260.77 700.229L2255.03 700.562C2254.86 701.81 2254.36 703.143 2254.11 703.975L2243.79 700.811C2243.38 701.644 2242.88 702.393 2242.38 703.143L2260.69 709.553ZM2257.44 701.644L2258.69 701.311C2258.69 701.311 2258.36 702.81 2257.78 703.892L2256.78 703.642L2257.44 701.644Z" fill="#CBCCCE"/>
<path d="M2262.19 602.482L2239.13 621.881V626.461L2262.19 608.061L2279.5 611.058V605.48L2262.19 602.482Z" fill="#CBCCCE"/>
<path d="M2194.93 633.371L2196.6 631.539H1870.56V633.371H2135.92L2139 638.2H1870.56V640.031H2140.16L2174.29 693.649V692.067L2141.16 640.031H2153.89L2174.29 684.408V682.409L2154.81 640.031H2188.85L2190.52 638.2H2139.99L2136.91 633.371H2194.93Z" fill="#CBCCCE"/>
<path d="M2390.95 626.377H2385.71V632.205H2390.95V626.377Z" fill="#E7E7E7"/>
<path d="M2390.95 633.953H2385.71V684.407H2390.95V633.953Z" fill="#E7E7E7"/>
<path d="M2390.95 686.156H2385.71V691.984H2390.95V686.156Z" fill="#E7E7E7"/>
<path d="M2406.69 626.377H2401.44V632.205H2406.69V626.377Z" fill="#E7E7E7"/>
<path d="M2406.69 686.156H2401.44V691.984H2406.69V686.156Z" fill="#E7E7E7"/>
<path d="M2406.69 633.953H2401.44V651.354L2406.69 656.516V633.953Z" fill="#E7E7E7"/>
<path d="M2406.69 665.675L2407.68 666.59L2411.18 664.009L2406.69 659.597L2401.44 654.352V660.429L2406.69 665.675Z" fill="#E7E7E7"/>
<path d="M2434.65 684.158L2439.98 689.403V646.525L2434.65 650.355V684.158Z" fill="#E7E7E7"/>
<path d="M2438.9 691.402L2412.34 665.176L2408.76 667.757L2433.65 692.318L2432.57 693.067L2407.68 668.506L2406.18 669.588L2401.36 673.085V684.408H2406.6V671.587L2430.16 694.816L2406.68 711.967V693.733H2401.44V724.122L2406.68 720.292L2434.65 699.894V747.351L2408.93 721.958L2406.6 723.623L2403.44 725.871L2401.86 727.036L2401.27 727.453V791.311H2406.52V779.988L2434.48 759.59V791.228H2439.73V692.401L2438.9 691.402ZM2406.68 771.746V731.699L2429.99 754.761L2406.68 771.746ZM2432.4 753.013L2406.68 727.536V725.704L2433.49 752.18L2432.4 753.013Z" fill="#E7E7E7"/>
<path d="M2401.44 662.262V671.17L2406.6 667.424L2401.44 662.262Z" fill="#E7E7E7"/>
<path d="M2390.95 693.732H2385.71V791.31H2390.95V693.732Z" fill="#E7E7E7"/>
<path d="M2406.69 554.775H2401.44V566.182H2406.69V554.775Z" fill="#E7E7E7"/>
<path d="M2406.69 567.848H2401.44V573.676H2406.69V567.848Z" fill="#E7E7E7"/>
<path d="M2434.65 554.775V558.772L2406.69 579.087V575.423H2401.44V624.629H2406.69V608.893H2434.65V638.699L2408.18 658.015L2413.01 662.844L2437.32 645.11L2439.98 643.195V554.775H2434.65ZM2434.65 600.317H2406.69V587.412L2434.65 567.014V600.317Z" fill="#E7E7E7"/>
<path d="M2390.95 575.424H2385.71V624.629H2390.95V575.424Z" fill="#E7E7E7"/>
<path d="M2390.95 567.848H2385.71V573.676H2390.95V567.848Z" fill="#E7E7E7"/>
<path d="M2390.95 554.775H2385.71V566.182H2390.95V554.775Z" fill="#E7E7E7"/>
<path d="M2355.99 689.819L2359.24 690.985C2359.74 690.402 2360.24 689.903 2360.74 689.32L2357.41 688.154C2356.91 688.737 2356.41 689.32 2355.99 689.819Z" fill="#CBCCCE"/>
<path d="M2269.68 775.908L2271.59 783.901C2275.5 783.818 2279.42 783.818 2283.33 783.818L2283.99 776.075C2279.92 776.075 2275.84 775.991 2271.68 775.991C2271.01 775.908 2270.34 775.908 2269.68 775.908Z" fill="#CBCCCE"/>
<path d="M2285.49 776.073L2286.16 783.816C2290.07 783.816 2293.98 783.816 2297.89 783.9L2299.81 775.99C2295.06 776.073 2290.24 776.073 2285.49 776.073Z" fill="#CBCCCE"/>
<path d="M2246.79 775.242L2249.53 784.484C2252.2 784.317 2254.78 784.234 2257.44 784.151L2256.28 775.658C2253.11 775.575 2249.95 775.409 2246.79 775.242Z" fill="#CBCCCE"/>
<path d="M2257.19 775.658L2259.36 784.067C2262.69 783.984 2265.93 783.901 2269.26 783.901L2268.43 775.908C2264.68 775.825 2260.94 775.825 2257.19 775.658Z" fill="#CBCCCE"/>
<path d="M2237.71 762.42L2245.46 791.31H2324.03L2331.77 762.42H2237.71V762.42ZM2323.45 775.242L2321.45 784.566C2322.2 784.566 2322.87 784.65 2323.62 784.65C2322.87 784.733 2322.12 784.733 2321.37 784.733L2320.37 789.479H2318.45L2319.87 784.816C2317.21 784.983 2314.54 785.066 2311.96 785.149L2311.38 789.479H2308.88L2309.96 785.233C2306.72 785.316 2303.47 785.399 2300.23 785.399L2299.81 789.479H2296.65L2297.65 785.482C2293.9 785.566 2290.15 785.566 2286.41 785.566L2286.74 789.562H2282.91L2283.25 785.566C2279.5 785.566 2275.75 785.566 2272.01 785.482L2273.01 789.479H2269.84L2269.43 785.399C2266.18 785.316 2262.94 785.316 2259.69 785.233L2260.77 789.479H2258.27L2257.69 785.149C2255.03 785.066 2252.36 784.983 2249.78 784.816L2251.2 789.479H2249.28L2248.29 784.733C2247.54 784.733 2246.79 784.65 2246.04 784.65C2246.79 784.566 2247.45 784.566 2248.2 784.566L2246.21 775.242C2245.71 775.242 2245.21 775.158 2244.71 775.158C2245.21 775.158 2245.71 775.075 2246.21 775.075L2244.54 767.332L2246.87 774.992C2250.03 774.825 2253.11 774.659 2256.28 774.576L2255.28 767.332L2257.11 774.576C2260.85 774.492 2264.68 774.409 2268.43 774.326L2267.76 767.332L2269.43 774.326C2274.42 774.243 2279.33 774.243 2284.33 774.243L2284.91 767.332L2285.49 774.243C2289.65 774.243 2293.82 774.326 2297.98 774.326C2298.81 774.326 2299.56 774.326 2300.39 774.326L2302.06 767.332L2301.39 774.409C2305.14 774.492 2308.97 774.492 2312.71 774.659L2314.54 767.415L2313.54 774.742C2316.71 774.825 2319.79 774.992 2322.95 775.158L2325.28 767.499L2323.62 775.242C2324.11 775.242 2324.61 775.325 2325.11 775.325C2324.45 775.158 2323.95 775.242 2323.45 775.242Z" fill="#CBCCCE"/>
<path d="M2301.06 775.991L2300.23 783.901C2303.56 783.984 2306.8 783.984 2310.13 784.067L2312.3 775.658C2308.55 775.825 2304.8 775.908 2301.06 775.991Z" fill="#CBCCCE"/>
<path d="M2312.04 784.151C2314.71 784.234 2317.29 784.317 2319.95 784.484L2322.7 775.242C2319.54 775.409 2316.37 775.575 2313.21 775.658L2312.04 784.151Z" fill="#CBCCCE"/>
<path d="M2292.4 762.421H2295.9C2295.07 747.018 2295.57 731.366 2296.06 715.963C2294.48 731.366 2293.23 746.851 2292.4 762.421Z" fill="#CBCCCE"/>
<path d="M2360.32 639.198C2360.57 646.358 2354.74 646.691 2352.66 643.111C2351.5 641.03 2351.58 638.033 2351.91 635.951C2350.67 637.367 2349.83 639.281 2349.83 641.529C2349.83 645.776 2352.91 649.272 2356.66 649.272C2358.57 649.272 2360.82 648.44 2361.9 646.525C2362.74 645.026 2362.9 643.111 2362.24 641.529C2361.99 641.03 2361.74 640.53 2361.4 640.197C2361.32 639.948 2360.32 639.198 2360.32 639.198Z" fill="#CBCCCE"/>
<path d="M2314.79 646.859C2314.79 646.859 2322.28 626.46 2331.36 615.221C2331.36 615.221 2325.11 636.285 2320.45 645.943C2320.37 646.026 2317.46 644.444 2314.79 646.859Z" fill="#CBCCCE"/>
<path d="M2319.79 647.192C2319.79 647.192 2309.96 644.029 2295.4 668.256C2295.4 668.256 2308.72 655.685 2313.21 662.262C2313.21 662.262 2318.21 652.521 2319.79 647.192Z" fill="#CBCCCE"/>
<path d="M2255.19 754.927C2256.61 756.009 2257.86 757.341 2258.86 758.923C2258.03 758.507 2257.11 758.423 2256.19 758.59C2255.61 758.673 2255.03 758.923 2254.61 759.506C2254.28 760.005 2254.28 760.921 2254.78 761.337C2255.28 761.587 2255.78 761.337 2256.28 761.004C2257.28 760.422 2258.44 759.922 2259.52 760.005C2259.94 760.838 2260.36 761.67 2260.77 762.503H2271.84C2272.42 761.92 2272.92 761.254 2273.42 760.671C2274.84 759.006 2276 757.008 2276.42 754.76C2276.5 754.094 2276.42 753.178 2275.84 753.012C2275.5 752.928 2275.26 753.095 2274.92 753.261C2273.01 754.51 2271.76 756.675 2270.68 758.923C2281 705.805 2293.48 671.336 2293.48 671.336C2275.92 695.814 2267.43 740.357 2263.44 759.756C2263.44 756.925 2263.1 754.094 2262.27 751.347C2262.02 750.514 2261.52 749.515 2260.77 749.681C2260.27 749.765 2259.94 750.347 2259.94 750.93C2259.94 751.513 2260.11 752.013 2260.27 752.595C2260.77 754.177 2261.27 755.842 2261.77 757.508C2261.44 756.675 2261.02 755.926 2260.61 755.093C2259.27 752.845 2257.19 750.93 2254.86 750.431C2254.53 750.347 2254.11 750.347 2253.78 750.514C2252.95 750.93 2252.86 752.262 2253.36 753.095C2253.61 753.928 2254.45 754.427 2255.19 754.927Z" fill="#CBCCCE"/>
<path d="M2302.56 762.419C2302.56 761.92 2302.56 761.337 2302.47 760.754C2302.81 760.838 2303.14 760.921 2303.39 761.087C2303.64 761.254 2303.89 761.42 2304.05 761.67C2304.3 761.92 2304.47 762.17 2304.72 762.419H2311.13C2311.38 762.253 2311.63 762.086 2311.88 761.92C2313.04 761.254 2314.21 760.754 2315.37 760.088C2316.04 759.755 2316.79 759.089 2316.62 758.257C2316.54 757.84 2316.21 757.507 2315.79 757.341C2315.37 757.258 2314.96 757.258 2314.63 757.341C2312.63 757.757 2310.8 758.839 2309.46 760.421C2309.13 748.848 2308.05 688.57 2310.05 671.003C2310.05 671.003 2302.64 687.071 2305.55 761.67C2305.14 760.838 2304.64 760.005 2303.97 759.256C2303.55 758.756 2303.06 758.423 2302.47 758.173C2301.97 741.106 2301.47 687.821 2306.3 665.924C2306.3 665.924 2296.23 684.907 2296.98 762.419H2302.56Z" fill="#CBCCCE"/>
<path d="M2278.75 760.921C2280.17 761.087 2281.75 761.42 2282.83 762.419H2290.57C2291.65 745.019 2295.32 683.908 2303.89 665.258C2303.89 665.258 2284.66 696.646 2284.41 760.671C2283.75 760.005 2283.16 759.422 2282.41 758.923C2281.33 758.173 2280 757.674 2278.67 757.84C2278.17 757.924 2277.75 758.09 2277.34 758.423C2277 758.756 2276.75 759.339 2276.92 759.839C2277.17 760.671 2278 760.838 2278.75 760.921Z" fill="#CBCCCE"/>
<path d="M2322.2 672.834C2321.12 674.499 2320.12 675.831 2319.45 676.747L2320.87 677.247C2321.87 675.831 2322.78 674.499 2323.53 673.334L2322.2 672.834Z" fill="#CBCCCE"/>
<path d="M2358.24 687.071L2361.65 688.237C2361.99 687.82 2362.32 687.404 2362.65 686.988L2359.24 685.822C2358.91 686.239 2358.58 686.655 2358.24 687.071Z" fill="#CBCCCE"/>
<path d="M2322.03 677.663L2354.33 689.236C2354.75 688.736 2355.24 688.153 2355.74 687.57L2323.12 676.164C2322.78 676.747 2322.37 677.246 2322.03 677.663Z" fill="#CBCCCE"/>
<path d="M2375.89 647.275C2372.06 662.428 2363.9 679.579 2363.9 679.579C2363.9 679.579 2362.32 681.827 2360.07 684.741L2363.48 685.907C2374.14 671.42 2378.72 649.523 2378.72 649.523L2375.89 647.275Z" fill="#CBCCCE"/>
<path d="M2324.03 675.083L2356.74 686.572C2357.08 686.156 2357.41 685.74 2357.74 685.324L2324.95 673.834C2324.61 674.25 2324.28 674.667 2324.03 675.083Z" fill="#CBCCCE"/>
<path d="M2319.12 671.835C2318.79 671.752 2318.62 671.336 2318.7 671.003C2318.79 670.669 2319.12 670.42 2319.45 670.586L2321.37 671.252C2322.7 668.921 2323.62 667.089 2323.62 667.089L2322.12 666.59L2315.29 668.671C2314.79 672.251 2314.04 674.832 2314.04 674.832L2318.04 676.248C2319.04 674.999 2319.95 673.667 2320.7 672.335L2319.12 671.835Z" fill="#CBCCCE"/>
<path d="M2337.52 647.691C2334.35 654.602 2328.36 665.092 2326.7 668.006L2328.28 668.506C2333.27 659.764 2337.52 647.691 2337.52 647.691Z" fill="#CBCCCE"/>
<path d="M2324.2 672.169C2325.86 669.505 2326.69 668.006 2326.69 668.006L2325.28 667.59C2324.53 669.088 2323.7 670.504 2322.95 671.753L2324.2 672.169Z" fill="#CBCCCE"/>
<path d="M2358.58 684.241C2359.99 682.493 2361.24 680.661 2362.15 678.996L2356.49 677.248C2358.33 672.585 2358.74 667.59 2358.74 667.59L2348.42 668.173C2348.09 670.421 2347.25 672.835 2346.76 674.334L2328.19 668.589C2327.36 670.004 2326.53 671.503 2325.61 672.835L2358.58 684.241ZM2352.75 670.004L2355 669.338C2355 669.338 2354.33 672.003 2353.33 674.084L2351.5 673.668L2352.75 670.004Z" fill="#CBCCCE"/>
<path d="M2360.41 554.775L2355.99 590.576C2355.99 590.659 2355.99 590.743 2355.99 590.743C2355.99 590.743 2356.08 590.826 2356.16 590.826C2356.24 590.826 2356.24 590.826 2356.24 590.826C2356.24 590.826 2356.24 590.826 2356.33 590.659L2364.4 554.775H2360.41Z" fill="#CBCCCE"/>
<path d="M2359.91 595.572L2364.65 575.423L2369.31 554.775H2365.98L2357.83 591.076C2357.24 593.573 2354 592.824 2354.33 590.326L2358.74 554.775H2355.5L2353.08 575.423L2350.92 595.072C2350.92 595.072 2348.67 610.308 2356.16 629.957L2334.02 611.474C2329.19 633.953 2315.79 662.011 2315.79 662.011L2319.37 660.013C2319.37 660.013 2331.77 634.703 2335.93 618.134L2340.85 621.881C2339.26 627.543 2332.11 651.354 2323.62 667.007L2325.2 667.506C2333.44 652.437 2340.35 629.707 2342.26 622.963L2344.17 624.462C2343.84 626.96 2343.01 632.039 2341.93 634.953C2341.93 634.953 2344.92 629.458 2345.84 625.711L2354.25 632.205C2358.08 631.123 2362.57 632.288 2364.32 636.618C2366.15 641.03 2365.4 646.775 2362.24 650.189C2357.33 655.6 2347.34 654.518 2344.76 646.858C2344.01 644.527 2343.76 641.863 2344.01 639.365C2338.93 645.776 2339.76 655.933 2345.84 661.179C2350.75 665.425 2358.08 665.675 2363.32 662.178C2364.07 661.678 2364.73 661.179 2365.4 660.513C2375.14 651.188 2368.56 636.035 2362.32 624.545C2357.08 614.554 2359.91 595.572 2359.91 595.572ZM2367.31 649.439C2367.31 649.439 2365.48 661.595 2354.91 660.929C2346.26 660.346 2343.93 651.188 2343.93 651.188C2343.93 651.188 2347.59 657.765 2356.24 656.849C2361.82 656.266 2367.31 649.439 2367.31 649.439Z" fill="#CBCCCE"/>
<path d="M2337.52 575.423L2340.68 554.775H2328.44L2328.53 575.423H2328.44C2328.36 594.906 2332.6 611.307 2333.44 614.388C2333.69 613.389 2333.94 612.39 2334.1 611.474L2342.34 618.384C2341.09 614.138 2337.18 600.401 2336.68 593.49C2336.18 587.745 2336.77 581.085 2337.52 575.423Z" fill="#CBCCCE"/>
<path d="M2328.86 575.423L2324.61 578.253C2318.2 592.157 2310.21 605.229 2300.31 616.052C2296.73 619.966 2292.9 623.546 2288.82 626.793C2284.74 630.123 2280.25 633.037 2275.42 634.702C2271.01 636.284 2266.01 636.617 2261.85 633.953C2260.02 632.787 2258.44 631.122 2257.19 629.207L2254.94 629.041C2255.19 629.457 2255.36 629.79 2255.61 630.206C2257.69 633.453 2260.44 635.951 2263.77 637.283C2268.43 639.032 2273.51 638.199 2278 636.367C2282.66 634.452 2287.07 631.622 2291.15 628.375C2299.48 621.88 2306.72 613.888 2313.13 605.062C2319.7 595.987 2325.86 584.581 2330.61 574.174L2328.86 575.423Z" fill="#CBCCCE"/>
<path d="M2351.91 560.103C2349.67 566.431 2342.84 579.336 2341.68 581.084C2329.77 599.651 2315.21 615.886 2298.73 629.29C2290.74 635.784 2281.33 642.029 2271.17 641.529C2263.52 641.196 2256.77 636.118 2252.7 628.957L2250.62 628.791C2251.36 630.206 2252.2 631.538 2253.03 632.787C2255.11 635.784 2257.69 638.449 2260.69 640.364C2269.59 646.108 2280.16 643.694 2288.99 638.948C2293.65 636.451 2297.81 633.12 2302.06 629.873C2306.3 626.543 2310.3 622.88 2314.29 619.133C2321.95 611.973 2329.19 603.98 2335.52 595.321C2350.83 574.507 2354 565.515 2357.57 556.273L2351.91 560.103Z" fill="#CBCCCE"/>
<path d="M2350.25 554.775L2324.7 572.426L2294.23 569.096L2310.38 554.775H2299.23L2288.66 564.6V554.775H2284.66V568.346L2277 575.423L2257.28 593.823V576.839L2258.61 575.507L2278.58 554.775H2266.43L2247.62 575.423L2171.13 659.514C2170.29 660.429 2170.21 661.928 2170.96 662.927C2171.79 664.009 2173.21 664.093 2174.12 663.177L2174.21 663.01V716.379H2176.45V672.585L2186.36 663.926V767.998L2187.69 767.832L2189.27 768.248V763.669L2204 755.843V773.66H2208.08V656.017L2249.04 628.708H2248.95L2243.62 628.292L2240.05 630.79L2219.82 634.536L2232.97 622.963L2239.05 623.879V622.048L2234.72 621.465L2255.61 603.065L2258.11 605.979L2260.19 604.23L2257.69 601.316L2257.77 601.233L2278.25 604.563L2277.09 605.396L2279.33 605.812V608.726L2328.69 575.84L2359.82 554.775H2350.25ZM2180.95 664.925L2176.54 669.005V660.679L2180.95 656.1V664.925ZM2182.53 663.427V654.518L2195.18 641.363V651.687L2182.53 663.427ZM2204.09 752.762L2189.35 760.588V743.187L2204.09 752.679V752.762ZM2204.09 749.515L2189.35 740.024V739.774L2204.09 731.948V749.515ZM2204.09 728.95L2189.35 736.777V719.376L2204.09 728.867V728.95ZM2204.09 725.703L2189.35 716.212V715.213L2204.09 707.387V725.703ZM2204.09 704.306L2189.35 712.132V694.732L2204.09 704.223V704.306ZM2204.09 701.059L2189.35 691.568V690.902L2204.09 683.075V701.059ZM2204.09 679.995L2189.35 687.821V670.42L2204.09 679.912V679.995ZM2204.09 676.748L2189.35 667.256V666.757L2204.09 658.931V676.748ZM2204.09 655.85L2189.35 663.676V661.428L2204.09 648.44V655.85ZM2196.85 650.189V639.698L2211.16 624.795V636.784L2196.85 650.189ZM2208.17 652.77V644.86L2212.33 641.197L2216.99 646.692L2208.17 652.77ZM2218.4 645.693L2213.58 640.031L2213.83 639.781L2225.31 640.781L2218.4 645.693ZM2236.38 633.287L2227.73 639.199L2215.74 638.116L2217.16 636.867L2236.38 633.287ZM2230.64 618.717L2212.83 635.369V623.13L2230.64 604.563V618.717ZM2254.11 596.821L2233.05 616.386V602.066L2254.11 580.252V596.821V596.821ZM2281.91 601.899L2260.77 598.486L2263.6 595.988L2298.89 590.16L2281.91 601.899ZM2267.76 592.325L2286.91 575.423L2290.24 572.509L2319.79 575.756L2304.55 586.247L2267.76 592.325Z" fill="#E7E7E7"/>
<path d="M2129.51 682.825L2130.01 691.234L2146.07 689.569L2141.58 680.91L2129.51 682.825Z" fill="#CBCCCE"/>
<path d="M2124.35 683.657L2123.85 691.9L2128.42 691.4L2127.84 683.074L2124.35 683.657Z" fill="#CBCCCE"/>
<path d="M2063.33 698.145L2122.18 692.067L2122.68 683.908L2063.5 693.4L2063.33 698.145Z" fill="#CBCCCE"/>
<path d="M2059.5 758.174C2060.84 757.841 2062.08 757.508 2063.17 757.175L2063.33 750.348L2060 751.097L2059.5 758.174Z" fill="#CBCCCE"/>
<path d="M2154.73 763.418L2156.14 770.162L2163.72 769.163L2162.97 762.086L2154.73 763.418Z" fill="#CBCCCE"/>
<path d="M2164.63 761.837L2165.3 768.997L2184.36 766.416L2182.94 758.84L2164.63 761.837Z" fill="#CBCCCE"/>
<path d="M2063.08 703.973L2121.6 701.308L2122.1 693.898L2063.25 699.477L2063.08 703.973Z" fill="#CBCCCE"/>
<path d="M2123.68 693.732L2123.26 701.225L2129.09 700.975L2128.59 693.232L2123.68 693.732Z" fill="#CBCCCE"/>
<path d="M2151.15 691.15L2130.17 693.149L2130.67 700.892L2150.9 699.976L2150.32 696.312L2152.65 694.481L2151.15 691.15Z" fill="#CBCCCE"/>
<path d="M2123.1 703.389L2122.68 709.467H2129.67L2129.26 703.223L2123.1 703.389Z" fill="#CBCCCE"/>
<path d="M2062.92 709.55L2121.1 709.467L2121.43 703.473L2063.08 705.554L2062.92 709.55Z" fill="#CBCCCE"/>
<path d="M2144.9 705.638L2150.98 702.391L2130.84 703.14L2131.25 709.468H2153.15L2155.89 707.469L2145.49 706.72L2144.9 705.638Z" fill="#CBCCCE"/>
<path d="M2122.43 714.797L2122.02 720.458L2130.42 720.791L2130.01 715.047L2122.43 714.797Z" fill="#CBCCCE"/>
<path d="M2131.67 715.045L2132 720.873L2176.7 722.871L2176.53 716.46L2131.67 715.045Z" fill="#CBCCCE"/>
<path d="M2062.58 717.876L2120.43 720.374L2120.77 714.713L2062.75 712.881L2062.58 717.876Z" fill="#CBCCCE"/>
<path d="M2061.17 712.797L2046.27 712.381V717.127L2060.92 717.793L2061.17 712.797Z" fill="#CBCCCE"/>
<path d="M2156.47 724.037L2156.64 727.118L2179.28 727.617L2179.11 725.036L2156.47 724.037Z" fill="#CBCCCE"/>
<path d="M2057.17 719.293L2046.27 718.793V724.538L2057.42 724.787L2057.17 719.293Z" fill="#CBCCCE"/>
<path d="M2062.33 724.87L2120.02 726.285L2120.27 722.289L2062.5 719.541L2062.33 724.87Z" fill="#CBCCCE"/>
<path d="M2059 724.87H2060.67L2060.92 719.458L2058.84 719.375L2059 724.87Z" fill="#CBCCCE"/>
<path d="M2121.93 722.373L2121.68 726.286L2154.98 727.035L2154.81 723.955L2121.93 722.373Z" fill="#CBCCCE"/>
<path d="M2156.72 728.783L2156.89 733.029L2180.36 732.28L2179.95 729.366L2156.72 728.783Z" fill="#CBCCCE"/>
<path d="M2059.09 726.203L2059.5 736.527L2155.31 733.03L2155.06 728.784L2059.09 726.203Z" fill="#CBCCCE"/>
<path d="M2182.03 744.769L2180.2 733.779L2161.97 735.528L2163.13 747.434C2169.46 746.434 2175.7 745.435 2182.03 744.769Z" fill="#CBCCCE"/>
<path d="M2163.38 749.265L2163.88 754.094C2165.05 753.928 2166.3 753.761 2167.46 753.678C2169.96 753.345 2172.46 753.095 2174.87 752.845C2171.21 753.512 2167.54 754.178 2163.88 754.76L2164.38 759.673L2183.94 756.675L2182.11 745.436C2175.95 747.017 2169.63 748.183 2163.38 749.265Z" fill="#CBCCCE"/>
<path d="M2153.39 756.592L2154.31 761.337L2162.72 759.922L2162.22 755.01C2159.3 755.593 2156.39 756.092 2153.39 756.592Z" fill="#CBCCCE"/>
<path d="M2161.8 749.598C2158.64 750.097 2155.48 750.597 2152.31 751.096L2153.23 755.509C2156.22 755.093 2159.22 754.76 2162.3 754.427L2161.8 749.598Z" fill="#CBCCCE"/>
<path d="M2158.64 742.77C2156.14 743.436 2153.56 744.019 2151.06 744.685L2152.06 749.597C2155.23 748.931 2158.47 748.349 2161.64 747.766L2160.47 735.693L2149.57 736.776L2150.98 743.853C2153.48 743.52 2156.06 743.103 2158.64 742.77Z" fill="#CBCCCE"/>
<path d="M2059.17 763.086L2058.76 769.83C2075.15 766.916 2091.55 764.335 2107.95 761.837C2122.43 759.672 2137 757.591 2151.56 755.759L2150.73 751.346C2147.24 751.846 2143.74 752.262 2140.24 752.512C2143.66 751.596 2147.07 750.764 2150.48 750.014L2149.48 745.102C2134.17 748.765 2118.6 751.679 2103.2 754.593C2093.72 756.342 2084.23 758.09 2074.74 759.339C2093.05 754.593 2111.69 751.013 2130.26 747.6C2136.58 746.434 2142.99 745.269 2149.4 744.27L2147.99 737.109L2065 745.435L2064.92 749.265L2077.73 747.1L2064.92 750.098L2064.75 756.841C2066.75 756.342 2068 756.009 2068 756.009L2067.58 760.921L2059.17 763.086Z" fill="#CBCCCE"/>
<path d="M2121.27 761.587C2101.46 764.585 2081.65 767.249 2061.75 769.663C2060.75 769.747 2059.67 769.913 2058.67 769.997L2058.26 777.073L2152.73 761.587L2151.81 756.842C2141.66 758.507 2131.5 760.089 2121.27 761.587Z" fill="#CBCCCE"/>
<path d="M2050.93 729.116L2051.6 736.859L2057.92 736.609L2057.42 726.202L2046.27 725.869V728.367L2050.93 729.116Z" fill="#CBCCCE"/>
<path d="M2198.93 770.829L2187.77 767.832L2053.1 786.232L2053.51 791.311H2195.43L2189.94 770.829H2198.93Z" fill="#CBCCCE"/>
<path d="M2047.02 695.98L2047.19 699.809L2061.67 698.311L2061.84 693.648L2047.02 695.98Z" fill="#CBCCCE"/>
<path d="M2047.27 701.058L2047.44 704.638L2061.5 704.055L2061.67 699.643L2047.27 701.058Z" fill="#CBCCCE"/>
<path d="M2047.52 706.055L2047.68 709.635L2061.25 709.552L2061.42 705.639L2047.52 706.055Z" fill="#CBCCCE"/>
<path d="M2052.35 746.684L2052.76 751.346L2058.34 750.347L2058.51 747.433L2060.17 747.6L2060 750.098L2063.25 749.515L2063.33 745.602L2052.35 746.684Z" fill="#CBCCCE"/>
<path d="M2052.85 752.845L2053.43 759.838C2054.93 759.422 2056.42 759.006 2057.84 758.673L2058.26 751.596L2052.85 752.845Z" fill="#CBCCCE"/>
<path d="M2057.51 763.502L2053.76 764.501L2054.84 777.739L2056.59 777.406L2057.01 770.246C2056.09 770.329 2055.18 770.496 2054.26 770.579C2055.18 770.412 2056.09 770.246 2057.01 770.079L2057.51 763.502Z" fill="#CBCCCE"/>
<path d="M2055.34 783.65L2154.48 770.412L2153.15 763.668L2055.01 779.487L2055.34 783.65Z" fill="#CBCCCE"/>
<path d="M2014.64 722.955V712.381H2010.31V722.205L2014.64 722.955Z" fill="#CBCCCE"/>
<path d="M2023.71 680.827V724.537L2030.79 725.703H2033.87V726.202L2036.78 726.702V725.703H2042.27V727.617L2043.85 727.867V709.551H2045.1V708.218H2045.19L2044.44 693.565L2045.1 693.482V690.818H2050.6V692.566L2053.51 692.066V690.734H2059V691.151L2071.99 689.069V680.66H2023.71V680.827ZM2033.78 715.712H2028.29V708.302H2033.78V715.712ZM2033.78 698.311H2028.29V690.901H2033.78V698.311ZM2042.19 715.712H2036.7V708.302H2042.19V715.712ZM2042.19 698.311H2036.7V690.901H2042.19V698.311Z" fill="#CBCCCE"/>
<path d="M2038.53 745.768L2027.21 744.52L2027.29 749.348L2038.94 750.348L2038.53 745.768Z" fill="#CBCCCE"/>
<path d="M2050.76 757.34L2050.35 752.345L2027.29 750.43V757.59L2050.76 757.34Z" fill="#CBCCCE"/>
<path d="M1926.57 729.116L2037.95 739.773L2037.61 736.026L1926.91 722.705L1926.57 729.116Z" fill="#CBCCCE"/>
<path d="M2039.61 739.94L2049.43 740.856L2049.18 737.359L2039.28 736.193L2039.61 739.94Z" fill="#CBCCCE"/>
<path d="M1925.99 740.107L2025.63 749.182V744.353L1971.36 738.692L2025.63 742.855L2025.54 739.691L1926.49 731.115L1925.99 740.107Z" fill="#CBCCCE"/>
<path d="M2027.21 743.019L2038.36 743.852L2038.03 740.771L2027.21 739.855V743.019Z" fill="#CBCCCE"/>
<path d="M2050.85 758.256L2027.29 758.672L2027.37 765.749L2051.35 764.667L2050.85 758.256Z" fill="#CBCCCE"/>
<path d="M2025.79 765.833L2025.71 758.756L1917.5 760.837V760.921H1915.92L1899.69 761.254L1898.11 771.328L2025.79 765.833Z" fill="#CBCCCE"/>
<path d="M2039.94 743.937L2049.77 744.686L2049.52 741.772L2039.69 740.939L2039.94 743.937Z" fill="#CBCCCE"/>
<path d="M2040.53 750.513H2040.44L2050.26 751.429L2049.93 746.933L2040.11 745.934L2040.53 750.513Z" fill="#CBCCCE"/>
<path d="M1917.83 728.284L1924.99 728.95L1925.33 722.54L1918.67 721.707L1917.83 728.284Z" fill="#CBCCCE"/>
<path d="M1896.19 782.734L1894.86 791.31H2053.51L2052.84 782.984L1896.19 782.734Z" fill="#CBCCCE"/>
<path d="M2051.43 765.666L1897.61 773.409L1896.53 780.652L2052.76 782.068L2051.43 765.666Z" fill="#CBCCCE"/>
<path d="M2037.53 734.944L2037.03 729.532L1920.16 709.717L1918.92 719.624L2037.53 734.944Z" fill="#CBCCCE"/>
<path d="M2049.1 736.443L2048.68 731.53L2038.69 729.865L2039.19 735.194L2049.1 736.443Z" fill="#CBCCCE"/>
<path d="M1877.71 782.734L1871.97 791.31H1893.2L1894.53 782.734H1877.71Z" fill="#CBCCCE"/>
<path d="M1917.33 719.375L1918.58 709.384L1909.84 707.969L1907.76 718.126L1917.33 719.375Z" fill="#CBCCCE"/>
<path d="M1954.29 750.098L1917.67 750.264L1917.5 758.757L2025.71 757.591L2025.63 750.348L1903.27 740.273L1902.44 744.103L1954.29 750.098Z" fill="#CBCCCE"/>
<path d="M1894.86 780.652L1896.03 773.492L1883.46 774.158L1879.21 780.486L1894.86 780.652Z" fill="#CBCCCE"/>
<path d="M1924.41 739.94L1924.83 731.032L1905.43 729.283L1903.68 738.109L1924.41 739.94Z" fill="#CBCCCE"/>
<path d="M1905.93 727.119L1916.17 728.118L1917 721.541L1907.26 720.375L1905.93 727.119Z" fill="#CBCCCE"/>
<path d="M1915.84 758.839L1916 750.264L1899.36 750.43L1893.53 759.089L1915.84 758.839Z" fill="#CBCCCE"/>
<path d="M1896.36 771.327L1897.94 761.17L1892.03 761.336L1885.04 771.827L1896.36 771.327Z" fill="#CBCCCE"/>
<path d="M2492.59 654.934V697.645H2572.99V600.566H2542.69V623.629H2516.89V615.719C2516.89 615.719 2517.22 613.305 2511.9 613.305C2507.32 613.305 2507.23 615.719 2507.23 615.719V646.025L2488.92 652.103V654.934H2492.59ZM2556.84 670.836H2562.59V690.901H2556.84V670.836ZM2543.11 670.836H2548.85V690.901H2543.11V670.836ZM2535.12 690.901H2529.38V670.836H2535.12V690.901ZM2516.97 630.622H2542.78V655.017C2534.12 653.102 2525.46 651.687 2516.97 650.688V630.622ZM2516.97 655.433C2525.46 656.432 2534.04 657.848 2542.78 659.763V663.093C2532.96 660.928 2524.22 659.596 2516.97 658.764V655.433ZM2515.64 670.836H2521.39V690.901H2515.64V670.836ZM2501.91 670.836H2507.65V690.901H2501.91V670.836Z" fill="#E7E7E7"/>
<rect x="1870.43" y="631.955" width="1.13825" height="162.771" fill="#CBCCCE"/>
</g>
<rect x="2268.82" y="550" width="171.877" height="4.55302" fill="#E7E7E7"/>
<path d="M353.126 614H0V627.26H353.126V614Z" fill="#CBCCCE"/>
<path d="M340.199 658.763H335.915V664.89H334.714L335.75 635.75C335.797 634.744 334.078 633.926 331.936 633.926H291.326C289.184 633.926 287.466 634.744 287.513 635.75L288.549 664.89H286.83V658.763H282.545V664.89H280.238V667.019H282.545V673.567H286.83V667.019H288.619L289.066 679.928C289.114 681.402 291.279 682.594 293.892 682.594H329.346C331.96 682.594 334.125 681.402 334.172 679.928L334.62 667.019H335.891V673.567H340.176V667.019H342.6V664.89H340.176V658.763H340.199Z" fill="#CBCCCE"/>
<path d="M110.932 694.898C111.661 694.968 112.462 695.132 113.309 695.342C113.239 694.991 113.168 694.64 113.074 694.29C112.132 693.915 111.238 693.658 110.39 693.448C110.202 693.074 110.014 692.699 109.755 692.349C110.461 692.185 111.261 692.068 112.156 692.021C112.015 691.74 111.85 691.483 111.685 691.226C110.673 691.179 109.731 691.179 108.884 691.249C108.766 691.132 108.648 691.015 108.53 690.899C108.366 690.735 108.201 690.594 108.013 690.454C108.648 690.127 109.425 689.823 110.32 689.542C110.249 689.472 110.155 689.378 110.084 689.308C109.943 689.168 109.778 689.028 109.613 688.887C108.578 689.098 107.659 689.355 106.859 689.636C106.506 689.425 106.153 689.261 105.8 689.121C106.341 688.63 107 688.139 107.801 687.624C107.471 687.437 107.141 687.274 106.812 687.133C105.847 687.648 105.046 688.139 104.364 688.677C103.94 688.583 103.516 688.513 103.092 688.49C103.21 688.256 103.351 688.022 103.493 687.788C103.869 687.835 104.222 687.882 104.575 687.975L105.517 684.163C101.021 683.087 96.1004 684.35 92.6633 687.882C87.4841 693.214 87.6253 701.727 92.9929 706.872C98.3604 712.04 106.906 711.877 112.085 706.544C112.25 706.357 112.415 706.194 112.58 706.007L111.638 705.188C111.756 705.071 111.873 704.978 111.991 704.861C112.109 704.744 112.203 704.627 112.297 704.51C112.179 704.229 112.038 703.949 111.92 703.691C111.779 703.855 111.638 704.042 111.473 704.206C111.355 704.323 111.238 704.44 111.12 704.557C111.12 704.627 111.12 704.697 111.12 704.767L110.696 704.416C110.72 704.369 110.767 704.346 110.814 704.299C110.602 703.27 110.343 702.358 110.061 701.563C110.273 701.212 110.437 700.861 110.579 700.511C111.073 701.049 111.567 701.703 112.085 702.499C112.274 702.171 112.438 701.844 112.58 701.516C112.085 700.557 111.567 699.762 111.026 699.084C111.12 698.663 111.191 698.242 111.214 697.821C111.85 698.149 112.556 698.593 113.286 699.154C113.357 698.78 113.404 698.382 113.427 697.985C112.65 697.26 111.897 696.675 111.167 696.207C111.144 695.763 111.049 695.319 110.932 694.898ZM108.766 703.247C108.931 703.083 109.072 702.919 109.213 702.732C109.354 702.99 109.472 703.27 109.59 703.551C109.496 703.668 109.378 703.785 109.284 703.902C109.025 704.159 108.742 704.416 108.46 704.65C108.46 704.299 108.436 703.925 108.413 703.598C108.53 703.457 108.648 703.364 108.766 703.247ZM107.471 705.352C106.977 705.656 106.459 705.936 105.917 706.147C106.035 705.796 106.129 705.422 106.2 705.094C106.576 704.907 106.953 704.697 107.306 704.463C107.353 704.744 107.424 705.048 107.471 705.352ZM103.445 706.755C103.375 706.732 103.281 706.732 103.21 706.708C103.186 706.732 103.139 706.755 103.116 706.778C102.998 706.778 102.857 706.802 102.739 706.802C102.975 706.474 103.21 706.17 103.422 705.866C103.869 705.819 104.316 705.726 104.74 705.609C104.717 705.913 104.67 706.217 104.599 706.544C104.222 706.638 103.822 706.708 103.445 706.755ZM94.8762 692.746C94.6643 693.097 94.4996 693.448 94.3583 693.799C94.1464 693.588 93.9581 693.331 93.7462 693.074C93.9816 692.606 94.2406 692.161 94.5466 691.717C94.6408 692.068 94.7585 692.419 94.8762 692.746ZM93.8875 695.249C93.7933 695.669 93.7227 696.09 93.6991 696.511C93.4166 696.371 93.1341 696.207 92.8516 696.02C92.9222 695.436 93.0635 694.874 93.2283 694.313C93.4402 694.64 93.652 694.968 93.8875 695.249ZM93.7227 698.102C93.7698 698.546 93.8639 698.99 93.9816 699.411C93.6756 699.388 93.346 699.341 92.9929 699.271C92.8516 698.663 92.781 698.032 92.781 697.424C93.087 697.681 93.4166 697.915 93.7227 698.102ZM94.4995 700.861C94.6879 701.236 94.8762 701.61 95.1352 701.961C94.8291 702.031 94.4996 702.078 94.1464 702.148C93.8404 701.633 93.5814 701.119 93.3695 700.557C93.7462 700.698 94.1229 700.791 94.4995 700.861ZM95.7002 704.112C95.3706 703.808 95.0881 703.481 94.8291 703.153C95.2293 703.153 95.6295 703.13 96.0062 703.107C96.1239 703.224 96.2416 703.34 96.3593 703.457C96.5241 703.621 96.6889 703.761 96.8773 703.902C96.5948 704.042 96.2887 704.182 95.9356 704.323C95.8414 704.253 95.7708 704.182 95.7002 704.112ZM103.94 695.623C104.105 695.786 104.246 695.974 104.34 696.184C104.058 696.301 103.799 696.465 103.563 696.675C102.904 697.353 102.786 698.336 103.21 699.131C102.457 699.411 101.562 699.271 100.95 698.686C100.102 697.868 100.079 696.511 100.903 695.669C101.727 694.828 103.092 694.804 103.94 695.623ZM101.633 706.194C101.327 706.053 100.997 705.913 100.715 705.726C101.068 705.796 101.444 705.843 101.821 705.89C101.75 705.983 101.68 706.077 101.633 706.194ZM100.691 705.726C100.573 705.773 100.432 705.819 100.314 705.866C100.385 705.819 100.456 705.749 100.526 705.703C100.573 705.703 100.644 705.703 100.691 705.726ZM101.491 688.466C101.044 688.513 100.597 688.607 100.173 688.724C100.197 688.466 100.244 688.186 100.291 687.905C100.879 687.788 101.468 687.694 102.056 687.694C101.868 687.952 101.656 688.209 101.491 688.466ZM98.7135 689.238C98.3369 689.425 97.9602 689.636 97.6071 689.869C97.5364 689.612 97.4894 689.308 97.4423 689.028C97.9366 688.747 98.431 688.49 98.9725 688.303C98.8783 688.607 98.7842 688.934 98.7135 689.238ZM97.9837 704.72C98.1014 704.861 98.2427 705.001 98.3839 705.141C98.4546 705.211 98.5252 705.282 98.5958 705.352C98.7135 705.305 98.8312 705.258 98.9725 705.188C99.0196 705.211 99.0431 705.235 99.0902 705.235C98.8548 705.445 98.5958 705.679 98.2898 705.89C97.7954 705.656 97.3246 705.375 96.8773 705.071C97.2539 704.954 97.6306 704.837 97.9837 704.72ZM99.7494 706.24C99.9377 706.357 100.126 706.474 100.314 706.591C100.055 706.544 99.7964 706.474 99.5375 706.381C99.6081 706.334 99.6787 706.287 99.7494 706.24ZM101.185 706.732C101.256 706.661 101.35 706.591 101.421 706.544C101.374 706.615 101.327 706.685 101.303 706.755C101.256 706.732 101.232 706.732 101.185 706.732ZM96.43 689.706C96.43 690.057 96.4535 690.407 96.4771 690.735C96.3593 690.852 96.2416 690.969 96.1239 691.086C95.9591 691.249 95.8179 691.413 95.6766 691.6C95.5354 691.343 95.4177 691.062 95.3 690.782C95.347 690.711 95.3941 690.665 95.4648 690.594C95.7708 690.267 96.1004 689.986 96.43 689.706Z" fill="#CBCCCE"/>
<path d="M228.473 691.435C225.083 689.985 221.175 691.529 219.715 694.897C219.409 695.622 219.244 696.37 219.197 697.118L185.98 724.294V686.688C187.628 686.08 189.017 685.144 189.935 683.975L191.936 671.089H197.068C197.68 676.421 202.224 680.56 207.733 680.56C213.665 680.56 218.468 675.766 218.468 669.872C218.468 663.979 213.665 659.184 207.733 659.184C202.506 659.184 198.151 662.903 197.186 667.814H192.43L194.29 655.793H191.442C191.206 653.759 190.335 651.911 189.064 650.461V644.38H207.356V633.763H353.126V629.343H207.379V629.296H156.435V629.343H70.484V628.781H25.9195V629.343H3.53125V633.763H25.9195V641.995H41.2216V647.327C40.1152 648.614 39.3618 650.227 39.1499 652.005H36.6545C36.9606 653.993 37.2666 655.887 37.5256 657.711C38.7262 665.546 39.6914 671.697 40.4447 676.655C41.1981 677.614 42.281 678.385 43.5758 678.9C43.67 678.947 43.7641 678.97 43.8348 678.993C43.8583 678.993 43.8818 679.017 43.8818 679.017V712.39C43.2227 712.764 42.6106 713.209 42.0691 713.723C42.0927 713.7 42.0927 713.676 42.1162 713.653C42.0927 713.676 42.0691 713.723 42.022 713.747C40.3741 715.337 39.3618 717.559 39.3618 720.014C39.3618 724.832 43.2933 728.738 48.1429 728.738C50.6619 728.738 52.9219 727.685 54.5227 726.001C54.7817 725.744 55.0406 725.487 55.276 725.206C55.2054 725.276 55.1113 725.347 55.0406 725.417C56.1471 724.014 56.8298 722.283 56.924 720.389L81.8312 709.981C81.9018 710.005 81.9489 710.028 82.0195 710.051C82.043 710.075 82.0666 710.075 82.1137 710.098C82.2314 710.145 82.3491 710.192 82.4668 710.239C82.4903 710.239 82.5139 710.262 82.561 710.262C82.7022 710.309 82.8435 710.332 82.9612 710.355C82.9847 710.355 82.9847 710.355 83.0082 710.355C83.173 710.379 83.3143 710.402 83.4791 710.426C83.6203 710.449 83.7616 710.449 83.9028 710.449C83.9499 710.449 83.997 710.449 84.0676 710.449C84.1618 710.449 84.256 710.449 84.3501 710.449C84.4208 710.449 84.4914 710.426 84.562 710.426C84.6326 710.426 84.7033 710.402 84.7974 710.402C84.868 710.379 84.9387 710.379 85.0328 710.355C85.1035 710.332 85.1506 710.332 85.2212 710.309C85.3153 710.285 85.386 710.262 85.4801 710.239C85.5272 710.215 85.5743 710.215 85.5978 710.192C85.9274 710.075 86.257 709.935 86.5631 709.747C86.5866 709.724 86.6101 709.724 86.6337 709.724C86.7278 709.677 86.822 709.607 86.9162 709.537C86.9397 709.514 86.9633 709.514 86.9868 709.49C87.3164 709.256 87.5989 708.999 87.8814 708.672C89.647 706.567 89.3645 703.433 87.2693 701.679C85.1505 699.925 82.0195 700.205 80.2539 702.287C79.8772 702.731 79.5947 703.246 79.4064 703.76L54.664 714.097C53.8635 713.232 52.8748 712.507 51.7683 712.016V678.993C52.0273 678.9 52.2627 678.806 52.4981 678.689C52.4981 678.689 52.4981 678.689 52.5217 678.689C52.7806 678.572 53.0396 678.432 53.275 678.292C54.0519 677.824 54.7346 677.263 55.2525 676.608L56.6886 667.37H61.6559C62.0796 671.182 65.3284 674.152 69.2834 674.152C73.5209 674.152 76.958 670.738 76.958 666.505C76.958 662.295 73.5209 658.857 69.2834 658.857C65.5403 658.857 62.4327 661.523 61.75 665.031H57.0417L59.0663 651.958H56.5708C56.359 650.18 55.6056 648.567 54.4992 647.28V641.948H70.5076V633.763H156.459V644.38H173.95V650.461C173.809 650.625 173.668 650.812 173.526 650.976C173.597 650.882 173.644 650.765 173.715 650.672C172.561 652.098 171.808 653.876 171.572 655.793H168.747C168.983 657.314 169.218 658.787 169.43 660.214C169.642 661.64 169.854 663.02 170.066 664.353C170.16 665.008 170.278 665.663 170.372 666.318C170.56 667.604 170.772 668.843 170.96 670.059C171.808 675.485 172.514 680.046 173.103 683.975C173.22 684.115 173.314 684.255 173.456 684.372C173.809 684.77 174.233 685.121 174.703 685.448C174.868 685.565 175.009 685.659 175.174 685.752C175.551 685.986 175.951 686.197 176.375 686.384C176.563 686.501 176.799 686.594 177.034 686.664V724.809C173.95 726.516 171.878 729.79 171.878 733.532C171.878 733.555 171.878 733.555 171.878 733.579V733.602C171.878 739.122 176.375 743.589 181.907 743.589C185.415 743.589 188.499 741.788 190.288 739.075C190.194 739.192 190.076 739.332 189.982 739.449C191.206 737.789 191.936 735.754 191.936 733.532C191.936 732.737 191.842 731.942 191.654 731.217L224.8 704.064C225.624 704.181 226.448 704.158 227.249 703.994L232.969 715.735L238.69 712.975L232.169 699.574C233.228 696.347 231.675 692.792 228.473 691.435Z" fill="#CBCCCE"/>
<path d="M261.806 735.825C261.053 734.305 259.264 733.603 257.71 734.188L246.057 724.622C246.01 724.389 245.916 724.178 245.821 723.968C245.021 722.354 243.067 721.676 241.443 722.447C239.818 723.243 239.136 725.184 239.912 726.821C240.713 728.435 242.667 729.113 244.291 728.341C244.762 728.107 245.162 727.78 245.445 727.406L255.85 735.942C255.474 736.784 255.45 737.789 255.897 738.701C256.015 738.935 256.156 739.146 256.321 739.333L250.812 751.12C250.012 751.518 249.659 752.477 250.059 753.295C250.459 754.114 251.424 754.441 252.248 754.043C253.072 753.646 253.402 752.664 253.002 751.868C253.002 751.845 252.978 751.822 252.955 751.798L261.665 739.006H261.641C262.206 738.047 262.301 736.877 261.806 735.825Z" fill="#CBCCCE"/>
<path d="M272.615 723.008C271.909 721.582 270.308 720.88 268.825 721.278L253.452 718.915C253.405 718.658 253.311 718.424 253.193 718.167C252.393 716.553 250.439 715.875 248.815 716.647C248.179 716.951 247.685 717.442 247.379 718.003L246.672 716.553L243.377 718.144L240.975 713.232L231.7 717.699L234.101 722.611L230.805 724.201L231.37 725.347C230.947 725.37 230.523 725.464 230.123 725.674C228.498 726.47 227.815 728.411 228.592 730.048C228.687 730.258 228.828 730.469 228.969 730.632L221.906 743.051C221.389 743.028 220.871 743.145 220.376 743.378C218.752 744.174 218.069 746.115 218.846 747.752C219.435 748.945 220.659 749.646 221.93 749.599L234.902 758.861C234.925 759.024 234.972 759.188 235.043 759.352C235.184 759.632 235.49 759.82 235.843 759.936C236.573 760.17 237.373 759.749 237.609 759.024C237.868 758.299 237.515 757.481 236.785 757.224C236.573 757.13 236.338 757.107 236.126 757.107L225.061 746.746C225.132 746.138 225.038 745.507 224.755 744.922C224.614 744.618 224.425 744.361 224.214 744.127L231.182 731.895C231.794 731.965 232.406 731.872 232.995 731.591C234.619 730.796 235.302 728.855 234.525 727.218C234.313 726.797 234.03 726.423 233.677 726.142L246.955 719.734C246.978 720.178 247.073 720.623 247.285 721.044C248.085 722.657 250.039 723.336 251.663 722.564C252.228 722.307 252.652 721.886 252.982 721.418L266.518 723.499C266.283 724.271 266.306 725.113 266.683 725.908C266.965 726.516 267.436 726.984 267.978 727.288L268.19 739.216C267.695 739.683 267.53 740.455 267.836 741.11C268.237 741.928 269.202 742.256 270.026 741.858C270.85 741.461 271.179 740.478 270.779 739.683C270.685 739.496 270.567 739.332 270.403 739.192L272.003 726.727C272.969 725.721 273.228 724.271 272.615 723.008Z" fill="#CBCCCE"/>
<path d="M189.674 732.313C189.556 731.471 188.261 731.822 188.379 732.664C188.873 736.242 187.202 739.469 183.459 740.147C182.046 740.405 180.469 740.592 179.056 740.218C177.314 739.75 176.067 737.996 175.596 736.289C175.36 735.47 174.089 735.821 174.301 736.639C174.772 738.323 175.973 740.288 177.573 741.106C179.433 742.042 181.834 741.785 183.812 741.41C188.355 740.615 190.262 736.616 189.674 732.313Z" fill="#CBCCCE"/>
<path d="M184.85 736.011C184.12 736.713 183.366 737.344 182.472 737.835C181.718 738.233 182.401 739.402 183.155 738.981C184.143 738.443 184.991 737.742 185.815 736.97C186.427 736.362 185.485 735.426 184.85 736.011Z" fill="#CBCCCE"/>
<path d="M228.002 699.409C227.861 699.924 227.743 700.766 227.155 700.953C226.495 701.163 225.318 700.859 224.683 700.719C223.835 700.532 223.482 701.818 224.33 702.005C225.342 702.239 226.872 702.59 227.861 702.099C228.779 701.654 229.038 700.672 229.297 699.76C229.509 698.942 228.238 698.591 228.002 699.409Z" fill="#CBCCCE"/>
<path d="M226.001 698.122C225.718 697.958 225.224 698.029 225.083 698.356C225.059 698.403 225.036 698.45 225.012 698.496C224.989 698.496 224.965 698.496 224.942 698.496C224.588 698.45 224.212 698.59 224.118 698.964C224.047 699.291 224.212 699.712 224.588 699.783C224.894 699.829 225.2 699.923 225.507 699.829C225.883 699.712 226.072 699.385 226.236 699.058C226.401 698.707 226.33 698.333 226.001 698.122Z" fill="#CBCCCE"/>
<path d="M236.667 758.345C236.549 758.065 236.196 757.901 235.89 757.971C235.537 758.065 235.348 758.439 235.419 758.79C235.513 759.187 235.796 759.445 236.172 759.538C236.502 759.632 236.902 759.421 236.996 759.07C237.067 758.79 236.926 758.486 236.667 758.345Z" fill="#CBCCCE"/>
<path d="M252.392 751.796C252.133 751.539 251.71 751.539 251.451 751.796C251.38 751.867 251.286 751.937 251.215 752.007C251.215 752.007 251.192 752.03 251.168 752.03C250.815 752.007 250.485 752.358 250.509 752.685C250.533 753.059 250.791 753.34 251.168 753.34C251.663 753.363 252.039 753.013 252.392 752.709C252.651 752.498 252.651 752.054 252.392 751.796Z" fill="#CBCCCE"/>
<path d="M269.6 739.096C269.224 739.003 268.918 739.213 268.776 739.564C268.729 739.705 268.682 739.798 268.635 739.892C268.541 740.009 268.47 740.149 268.447 740.313V740.406C268.423 740.687 268.682 740.991 268.941 741.038C269.224 741.108 269.553 740.991 269.695 740.734C269.836 740.453 269.953 740.172 270.071 739.892C270.189 739.588 269.93 739.167 269.6 739.096Z" fill="#CBCCCE"/>
<path d="M230.144 753.432C229.132 752.52 228.002 751.795 226.895 751.023C225.977 750.392 224.682 749.948 223.929 749.152C223.34 748.544 222.399 749.48 222.987 750.088C223.693 750.836 224.682 751.094 225.53 751.655C226.777 752.497 228.096 753.362 229.226 754.368C229.838 754.929 230.779 753.994 230.144 753.432Z" fill="#CBCCCE"/>
<path d="M261.245 736.011C260.845 735.263 259.691 735.918 260.092 736.69C260.751 737.953 259.079 737.859 258.326 738.023C258.114 738.069 257.902 738.28 257.855 738.49C257.502 740.385 256.89 742.069 256.066 743.823C255.218 745.6 254.465 747.635 253.241 749.178C252.723 749.833 253.641 750.792 254.183 750.114C256.584 747.097 257.573 743.191 259.056 739.73C259.15 739.473 258.75 739.496 258.915 739.356C259.009 739.262 259.527 739.332 259.691 739.286C260.209 739.122 260.845 739.005 261.269 738.607C262.069 737.836 261.716 736.877 261.245 736.011Z" fill="#CBCCCE"/>
<path d="M270.681 721.979C270.281 721.933 270.022 722.073 269.857 722.447C269.834 722.494 269.81 722.541 269.81 722.587C269.622 723.032 269.952 723.336 270.352 723.383C270.422 723.78 270.493 724.201 270.54 724.599C270.352 724.716 270.163 724.833 269.975 724.95C269.904 725.043 269.716 725.113 269.645 725.207C269.292 725.675 269.339 726.025 269.339 726.61C269.316 729.019 269.104 731.404 269.057 733.837C269.033 734.702 270.375 734.702 270.399 733.837C270.422 732.036 270.705 730.235 270.705 728.434C270.705 727.873 270.446 726.704 270.728 726.189C270.964 725.768 271.458 725.698 271.811 725.371C273.012 724.154 272.4 722.237 270.681 721.979Z" fill="#CBCCCE"/>
<path d="M198.553 669.287C196.835 669.029 195.093 668.912 193.398 668.632C192.88 668.538 192.291 669.076 192.644 669.614L192.691 669.684C192.856 669.941 193.139 670.012 193.374 669.965C194.975 670.222 196.599 670.339 198.2 670.573C199.048 670.69 199.401 669.404 198.553 669.287Z" fill="#CBCCCE"/>
<path d="M202.954 677.777C200.859 676.21 198.975 674.643 199.281 671.79C199.376 670.948 198.034 670.948 197.94 671.79C197.586 675.134 199.799 677.075 202.271 678.923C202.954 679.437 203.637 678.268 202.954 677.777Z" fill="#CBCCCE"/>
<path d="M204.954 673.848C203.847 673.123 202.294 671.86 202.246 670.433C202.223 669.591 200.881 669.568 200.905 670.433C200.975 672.398 202.717 673.988 204.271 674.994C205.001 675.461 205.66 674.315 204.954 673.848Z" fill="#CBCCCE"/>
<path d="M214.536 667.605C214.183 666.903 213.806 666.249 213.312 665.617C213.1 665.337 212.605 665.383 212.37 665.617C212.087 665.898 212.158 666.272 212.37 666.553C212.77 667.067 213.076 667.675 213.382 668.26C213.759 669.032 214.912 668.377 214.536 667.605Z" fill="#CBCCCE"/>
<path d="M176.538 684.934C175.667 684.56 174.913 683.998 174.301 683.25C173.76 682.595 172.818 683.531 173.36 684.185C174.113 685.097 175.078 685.752 176.185 686.197C176.514 686.337 176.914 686.056 177.009 685.729C177.103 685.378 176.867 685.074 176.538 684.934Z" fill="#CBCCCE"/>
<path d="M189.087 683.177C188.569 683.668 188.074 684.183 187.415 684.487C187.062 684.65 186.709 684.744 186.356 684.908C186.05 685.048 185.767 685.282 185.438 685.375C184.614 685.609 184.967 686.896 185.791 686.662C186.144 686.568 186.426 686.358 186.756 686.194C187.18 685.984 187.627 685.843 188.051 685.656C188.804 685.305 189.416 684.721 190.005 684.136C190.64 683.528 189.699 682.592 189.087 683.177Z" fill="#CBCCCE"/>
<path d="M184.476 645.012C181.58 644.474 178.496 644.661 175.554 644.544C174.706 644.497 174.706 645.83 175.554 645.877C178.355 645.994 181.368 645.784 184.123 646.298C184.97 646.462 185.323 645.176 184.476 645.012Z" fill="#CBCCCE"/>
<path d="M109.729 704.718C106.951 709.583 98.7111 707.548 95.274 704.578C94.6383 704.017 93.6731 704.952 94.3323 705.514C98.4521 709.045 107.61 711.08 110.882 705.373C111.306 704.648 110.152 703.97 109.729 704.718Z" fill="#CBCCCE"/>
<path d="M104.408 686.546C104.173 686.452 103.867 686.358 103.655 686.242C103.631 686.242 103.608 686.218 103.608 686.218C103.537 686.171 103.49 686.125 103.419 686.078C103.255 685.984 103.066 685.938 102.878 685.938C102.525 685.961 102.219 686.242 102.219 686.592C102.219 686.896 102.478 687.2 102.784 687.247C102.807 687.271 102.831 687.294 102.878 687.317C102.972 687.364 103.043 687.411 103.137 687.458C103.325 687.528 103.584 687.621 103.749 687.692C104.079 687.832 104.455 687.785 104.667 687.458C104.808 687.177 104.738 686.686 104.408 686.546Z" fill="#CBCCCE"/>
<path d="M85.7152 707.946C84.8912 708.32 84.1614 708.484 83.2904 708.274C82.8902 708.18 82.5135 708.016 82.1133 707.899C82.0427 707.502 81.5954 707.128 81.1245 707.361C73.3557 711.407 65.3751 715.032 57.1825 718.143C56.3821 718.447 56.7353 719.733 57.5357 719.429C65.5634 716.389 73.4264 712.834 81.0539 708.905C81.1716 709.022 81.3129 709.115 81.5247 709.139C82.3722 709.186 83.1491 709.723 84.0437 709.747C84.8677 709.77 85.6446 709.466 86.3979 709.115C87.1748 708.741 86.4921 707.595 85.7152 707.946Z" fill="#CBCCCE"/>
<path d="M84.3513 705.864C84.2572 705.864 84.1394 705.864 84.0453 705.864C83.9982 705.864 83.9511 705.864 83.904 705.864C83.9511 705.864 83.9511 705.864 83.904 705.864C83.7392 705.817 83.6921 705.817 83.5744 705.7C83.3155 705.466 82.8917 705.443 82.6328 705.7C82.3973 705.957 82.3738 706.402 82.6328 706.635C83.1271 707.08 83.7157 707.22 84.3749 707.197C85.1988 707.173 85.1988 705.84 84.3513 705.864Z" fill="#CBCCCE"/>
<path d="M54.0285 722.446C52.8749 725.159 51.1093 726.375 48.096 726.164C46.1185 726.024 44.0703 725.79 42.9403 723.989C42.493 723.264 41.3395 723.943 41.7868 724.668C43.317 727.076 46.0714 727.451 48.7316 727.544C52.1216 727.661 54.0285 725.813 55.2997 722.82C55.6529 722.001 54.3581 721.651 54.0285 722.446Z" fill="#CBCCCE"/>
<path d="M49.9558 720.364C49.6497 721.627 48.1902 721.955 47.0837 721.44C46.3068 721.089 45.6241 722.235 46.401 722.586C48.2608 723.451 50.7091 722.89 51.227 720.715C51.4389 719.897 50.1677 719.546 49.9558 720.364Z" fill="#CBCCCE"/>
<path d="M51.4847 711.315C51.4847 711.245 51.4611 711.175 51.4376 711.105C50.9903 709.491 51.0374 707.597 51.0374 705.936C51.0374 705.071 49.6955 705.071 49.6955 705.936C49.6955 707.737 49.6719 709.795 50.1663 711.549C50.3782 712.251 51.5082 712.134 51.4847 711.362V711.315Z" fill="#CBCCCE"/>
<path d="M339.541 671.135C339.047 671.322 338.529 671.509 337.988 671.556C337.47 671.603 336.952 671.509 336.434 671.603C336.151 671.649 335.939 671.977 335.939 672.234C335.939 672.304 335.939 672.374 335.939 672.445C335.939 673.123 336.787 673.263 337.14 672.842C337.564 672.842 337.988 672.889 338.411 672.842C338.929 672.772 339.424 672.608 339.918 672.421C340.671 672.094 340.342 670.808 339.541 671.135Z" fill="#CBCCCE"/>
<path d="M331.515 678.784C331.304 679.486 327.607 679.743 326.948 679.836C325.183 680.094 323.652 679.836 321.887 679.743C318.614 679.602 315.177 680.094 311.929 680.398C311.081 680.468 311.081 681.801 311.929 681.731C314.236 681.52 316.543 681.403 318.85 681.216C320.945 681.029 322.899 681.333 324.994 681.356C326.901 681.38 328.926 680.959 330.809 680.725C331.986 680.585 332.481 680.234 332.81 679.135C333.046 678.316 331.751 677.989 331.515 678.784Z" fill="#CBCCCE"/>
<path d="M291.661 679.741C291.402 679.717 291.143 679.694 290.907 679.6C290.695 679.507 290.507 679.366 290.272 679.32C289.448 679.133 289.071 680.395 289.919 680.606C290.178 680.653 290.413 680.84 290.648 680.91C290.978 681.003 291.308 681.05 291.637 681.074C291.99 681.097 292.296 680.746 292.296 680.419C292.343 680.021 292.037 679.764 291.661 679.741Z" fill="#CBCCCE"/>
<path d="M61.7727 665.894C61.0194 665.87 60.2896 665.707 59.5598 665.66C58.8536 665.636 58.1002 665.753 57.3704 665.683C56.9702 665.426 56.3111 665.613 56.3346 666.198V666.291C56.3346 666.549 56.5465 666.876 56.829 666.923C57.6059 667.04 58.4063 666.946 59.2067 666.946C60.0777 666.946 60.9252 667.157 61.7963 667.18C62.6202 667.25 62.6202 665.917 61.7727 665.894Z" fill="#CBCCCE"/>
<path d="M75.0063 667.231C74.8886 669.967 73.0523 672.189 70.1802 672.329C67.8025 672.423 64.5302 671.3 64.0829 668.611C63.9416 667.769 62.6468 668.12 62.7881 668.962C63.4002 672.47 67.6848 673.92 70.7923 673.639C74.2294 673.312 76.2069 670.482 76.3482 667.231C76.3717 666.389 75.0298 666.389 75.0063 667.231Z" fill="#CBCCCE"/>
<path d="M71.4242 666.131C71.1888 666.692 70.9063 667.44 70.3177 667.698C69.5644 668.048 68.7404 667.534 68.0106 667.464C67.1631 667.37 67.1631 668.68 68.0106 668.797C68.5992 668.867 69.1406 669.148 69.7527 669.148C70.1765 669.148 70.6238 669.077 71.0004 668.867C71.8009 668.423 72.2481 667.627 72.5777 666.809C72.9073 666.014 71.7538 665.335 71.4242 666.131Z" fill="#CBCCCE"/>
<path d="M44.0238 677.332C43.2469 677.051 42.423 676.701 41.8815 676.069C41.3165 675.414 40.3748 676.373 40.9398 677.005C41.6461 677.823 42.6819 678.268 43.6707 678.618C44.4947 678.899 44.8478 677.613 44.0238 677.332Z" fill="#CBCCCE"/>
<path d="M54.3122 674.853C53.6059 675.39 53.0409 676.045 52.3818 676.63C52.0757 676.911 51.6991 677.191 51.2989 677.355C50.9928 677.472 50.7339 677.472 50.4984 677.729C49.9334 678.361 50.8751 679.296 51.4401 678.665C51.3695 678.758 51.5578 678.665 51.652 678.618C51.8168 678.571 51.958 678.501 52.0993 678.431C52.4524 678.267 52.7584 678.033 53.0409 677.799C53.7237 677.238 54.2416 676.536 54.9478 675.998C55.6541 675.484 54.9949 674.338 54.3122 674.853Z" fill="#CBCCCE"/>
<path d="M56.7133 653.639C53.8176 653.007 50.8985 652.914 47.9322 652.563C44.5893 652.142 41.1993 652.165 37.8563 652.516C37.0088 652.61 37.0088 653.943 37.8563 653.849C40.9168 653.522 44.0714 653.452 47.1318 653.802C50.2158 654.13 53.3468 654.27 56.3602 654.925C57.2077 655.112 57.5608 653.826 56.7133 653.639Z" fill="#CBCCCE"/>
<path d="M51.4178 643C48.169 642.579 45.0144 642.322 41.7421 642.345C40.8946 642.345 40.8711 643.678 41.7421 643.678C45.0144 643.655 48.169 643.912 51.4178 644.333C52.2653 644.427 52.2653 643.117 51.4178 643Z" fill="#CBCCCE"/>
<path d="M43.623 646.323C42.8697 646.37 42.1399 646.44 41.4101 646.44C40.5626 646.44 40.5391 647.773 41.4101 647.773C42.1634 647.773 42.8932 647.703 43.623 647.657C44.4941 647.61 44.4941 646.277 43.623 646.323Z" fill="#CBCCCE"/>
<path d="M70.0386 636.428C70.0386 635.563 68.6967 635.563 68.6967 636.428C68.6967 637.06 68.7203 637.668 68.6967 638.299C68.6732 638.673 68.6026 639.071 68.579 639.445C68.5319 639.445 68.4849 639.469 68.4613 639.469C67.6373 639.773 66.6957 639.936 65.8482 639.609C65.0478 639.305 64.6946 640.591 65.495 640.895C66.5544 641.293 67.7786 641.129 68.8144 640.755C68.9321 640.708 69.0028 640.661 69.0734 640.591C69.4501 640.685 69.9209 640.474 69.8974 639.983C69.8738 639.422 70.0151 638.861 70.0386 638.323C70.0621 637.691 70.0386 637.06 70.0386 636.428Z" fill="#CBCCCE"/>
<path d="M181.669 656.283C177.808 656.213 173.382 655.254 169.592 656.307C168.768 656.541 169.121 657.827 169.945 657.593C173.571 656.587 177.973 657.546 181.669 657.616C182.516 657.616 182.516 656.307 181.669 656.283Z" fill="#CBCCCE"/>
<path d="M175.103 652.074C175.103 651.7 174.797 651.442 174.444 651.419C173.596 651.349 173.266 652.495 172.984 653.08C172.819 653.407 172.89 653.805 173.219 653.992C173.502 654.155 173.973 654.085 174.138 653.758C174.232 653.547 174.326 653.313 174.444 653.103C174.514 652.986 174.585 652.846 174.655 652.729C174.891 652.635 175.103 652.355 175.103 652.074Z" fill="#CBCCCE"/>
<path d="M232.829 729.742C231.958 730.14 230.098 730.584 230.051 729.088C230.028 728.246 228.686 728.222 228.709 729.088C228.756 730.093 229.227 730.935 230.24 731.263C231.417 731.66 232.429 731.379 233.512 730.865C234.265 730.538 233.606 729.392 232.829 729.742Z" fill="#CBCCCE"/>
<path d="M244.389 726.33C243.871 726.588 243.306 726.962 242.718 726.892C242.412 726.845 242.223 726.705 241.988 726.518C241.917 726.447 241.823 726.401 241.729 726.33C241.706 726.307 241.706 726.307 241.682 726.307C241.447 725.605 240.293 725.956 240.411 726.751C240.481 727.126 240.693 727.243 240.999 727.453C241.4 727.734 241.729 728.014 242.2 728.155C243.236 728.435 244.177 727.944 245.072 727.5C245.825 727.079 245.166 725.933 244.389 726.33Z" fill="#CBCCCE"/>
<path d="M250.932 719.571C250.532 719.969 250.508 720.437 250.343 720.951C250.273 721.185 249.92 721.489 249.661 721.232C249.025 720.647 248.083 721.583 248.719 722.167C249.284 722.705 250.273 722.729 250.932 722.308C251.262 722.097 251.473 721.746 251.615 721.372C251.709 721.092 251.685 720.694 251.897 720.484C252.462 719.876 251.521 718.94 250.932 719.571Z" fill="#CBCCCE"/>
<path d="M237.653 712.085C236.17 712.53 234.334 713.091 233.251 714.237C232.662 714.868 233.604 715.804 234.192 715.172C235.111 714.19 236.759 713.722 238.006 713.348C238.83 713.114 238.477 711.852 237.653 712.085Z" fill="#CBCCCE"/>
<path d="M219.457 704.833C214.607 709.183 209.64 713.346 204.531 717.416C199.776 721.204 194.644 724.829 190.312 729.062C189.7 729.67 190.642 730.606 191.254 729.998C195.585 725.765 200.741 722.116 205.473 718.351C210.581 714.282 215.525 710.119 220.398 705.769C221.034 705.207 220.092 704.272 219.457 704.833Z" fill="#CBCCCE"/>
</g>
<defs>
<clipPath id="clip0">
<rect width="2500" height="960" fill="white"/>
</clipPath>
<clipPath id="clip1">
<rect width="760.618" height="236.535" fill="white" transform="translate(1812.38 554.775)"/>
</clipPath>
</defs>
</svg>
