<svg width="1280" height="672" viewBox="0 0 1280 672" fill="none" xmlns="http://www.w3.org/2000/svg">
<g clip-path="url(#clip0)">
<path opacity="0.66" d="M230.484 659.324V638.197H236.978V607.604H265.399V612.54H298.693V633.268H302.752V659.611H314.241V645.428H339.375V633.915H373.518V616.64H383.261V558.404H396.616V507.075H424.145V546.56H440.103V589.002H444.162V640.761H452.284V657.109H470.959V624.863H479.079V595.913H489.635V589.002H541.605V595.913H562.718V612.2H568.402V632.811H576.362V511.518H585.296V502.634H621.837V481.904H651.069V511.518V523.362V545.077H655.94V647.552V640.926L655.939 578.665V477.121H662.435V447.506H673.804V412H693.461V447.506H702.223V464.781H707.908V560.528H724.96V582.061H796.418V431.715H801.29V423.816H840.266V431.715H845.949V582.061H871.934V519.563H875.93V489.952H889.798V483.041H919.031V489.952H936.896V506.732H944.204V560.528H955.571V566.857H969.376V526.473H970.828V503.446H992.752V523.187H1012.24V526.473H1014.85V566.857H1031.73V607.939H1042.52V668.312H220.001V659.324H230.484Z" fill="#E0E5ED" fill-opacity="0.38"/>
<rect x="-536" y="667" width="1935" height="7" fill="#C4C4C4"/>
<rect x="-544" y="667" width="1943" height="7" fill="#C4C4C4"/>
<g clip-path="url(#clip1)">
<path d="M1281.61 638.938H1269.4V641.498H1281.61V638.938Z" fill="#E7E7E7"/>
<path d="M1281.61 604.047H1269.4V617.359H1281.61V604.047Z" fill="#E7E7E7"/>
<path d="M1281.61 630.891H1269.4V633.451H1281.61V630.891Z" fill="#E7E7E7"/>
<path d="M1281.61 634.914H1269.4V637.474H1281.61V634.914Z" fill="#E7E7E7"/>
<path d="M1281.61 622.846H1269.4V625.406H1281.61V622.846Z" fill="#E7E7E7"/>
<path d="M1281.61 642.961H1269.4V668.927H1281.61V642.961Z" fill="#E7E7E7"/>
<path d="M1281.61 618.822H1269.4V621.382H1281.61V618.822Z" fill="#E7E7E7"/>
<path d="M1281.61 626.867H1269.4V629.427H1281.61V626.867Z" fill="#E7E7E7"/>
<path d="M1219.53 602.365H1178.57C1177.77 602.365 1177.04 603.097 1177.04 604.048C1177.04 604.998 1177.7 605.73 1178.57 605.73H1219.53V602.365Z" fill="#CBCCCE"/>
<path d="M1219.53 607.852H1182.67V611.216L1189.69 615.751V634.403H1177.7V648.813H1219.53V607.852ZM1194.81 633.16C1194.81 634.111 1194.15 634.842 1193.35 634.842C1192.54 634.842 1191.88 634.111 1191.88 633.16V616.775C1191.88 615.824 1192.54 615.093 1193.35 615.093C1194.15 615.093 1194.81 615.824 1194.81 616.775V633.16ZM1198.76 634.842C1197.95 634.842 1197.3 634.111 1197.3 633.16V616.775C1197.3 615.824 1197.95 615.093 1198.76 615.093C1199.56 615.093 1200.22 615.824 1200.22 616.775V633.16C1200.22 634.111 1199.56 634.842 1198.76 634.842ZM1204.17 634.842C1203.36 634.842 1202.71 634.111 1202.71 633.16V616.775C1202.71 615.824 1203.36 615.093 1204.17 615.093C1204.97 615.093 1205.63 615.824 1205.63 616.775V633.16C1205.63 634.111 1204.97 634.842 1204.17 634.842ZM1209.58 634.842C1208.78 634.842 1208.12 634.111 1208.12 633.16V616.775C1208.12 615.824 1208.78 615.093 1209.58 615.093C1210.38 615.093 1211.04 615.824 1211.04 616.775V633.16C1211.04 634.111 1210.38 634.842 1209.58 634.842ZM1214.99 634.842C1214.19 634.842 1213.53 634.111 1213.53 633.16V616.775C1213.53 615.824 1214.19 615.093 1214.99 615.093C1215.8 615.093 1216.45 615.824 1216.45 616.775V633.16C1216.45 634.111 1215.8 634.842 1214.99 634.842Z" fill="#CBCCCE"/>
<path d="M1173.31 650.934L1168.7 669H1219.53V650.934H1173.31Z" fill="#CBCCCE"/>
<path d="M1068.81 660.734L1069.84 665.05C1071.96 665.05 1074.08 664.977 1076.13 664.977L1076.49 660.808C1074.3 660.808 1072.1 660.808 1069.91 660.734C1069.54 660.734 1069.18 660.734 1068.81 660.734Z" fill="#CBCCCE"/>
<path d="M1077.29 660.809L1077.66 664.978C1079.78 664.978 1081.9 664.978 1083.95 665.051L1084.97 660.809C1082.41 660.809 1079.85 660.809 1077.29 660.809Z" fill="#CBCCCE"/>
<path d="M1056.46 660.369L1057.92 665.343C1059.31 665.27 1060.77 665.197 1062.16 665.197L1061.5 660.589C1059.89 660.515 1058.14 660.442 1056.46 660.369Z" fill="#CBCCCE"/>
<path d="M1062.08 660.59L1063.25 665.125C1065.01 665.052 1066.76 665.052 1068.59 665.052L1068.15 660.736C1066.11 660.663 1064.13 660.663 1062.08 660.59Z" fill="#CBCCCE"/>
<path d="M1092.87 660.077L1092.51 658.688L1092.29 660.077C1092.51 660.077 1092.65 660.077 1092.87 660.077Z" fill="#CBCCCE"/>
<path d="M1085.63 660.735L1085.19 664.977C1086.95 664.977 1088.7 665.051 1090.53 665.051L1091.7 660.516C1089.65 660.662 1087.68 660.735 1085.63 660.735Z" fill="#CBCCCE"/>
<path d="M1093.02 660.59C1092.72 660.59 1092.51 660.59 1092.21 660.59L1091.55 665.125C1092.43 665.125 1093.31 665.198 1094.26 665.271L1093.02 660.59Z" fill="#CBCCCE"/>
<path d="M1094.33 665.563C1093.38 665.636 1092.43 665.636 1091.48 665.709L1091.19 668.05H1089.8L1090.38 665.782C1088.63 665.855 1086.87 665.855 1085.12 665.855L1084.9 668.05H1083.22L1083.73 665.855C1081.76 665.855 1079.71 665.929 1077.73 665.929L1077.95 668.05H1075.91L1076.13 665.929C1074.15 665.929 1072.1 665.929 1070.13 665.855L1070.64 668.05H1068.96L1068.74 665.855C1066.98 665.855 1065.23 665.782 1063.47 665.782L1064.06 668.05H1062.67L1062.38 665.709C1060.99 665.636 1059.53 665.636 1058.14 665.563L1058.87 668.05H1057.77L1057.26 665.49C1056.89 665.49 1056.45 665.417 1056.09 665.417C1056.45 665.417 1056.89 665.343 1057.26 665.343L1056.16 660.296C1055.87 660.296 1055.65 660.296 1055.36 660.223C1055.65 660.223 1055.87 660.223 1056.16 660.15L1055.28 655.981L1056.53 660.077C1058.21 660.004 1059.89 659.931 1061.57 659.858L1060.99 655.981L1062.01 659.858C1064.06 659.784 1066.11 659.784 1068.08 659.711L1067.72 655.981L1068.59 659.711C1071.23 659.711 1073.93 659.638 1076.56 659.711L1076.86 655.981L1077.15 659.711C1079.42 659.711 1081.61 659.711 1083.88 659.784C1084.32 659.784 1084.75 659.784 1085.19 659.784L1086.07 655.981L1085.7 659.784C1087.75 659.784 1089.8 659.858 1091.77 659.931L1092.29 658.029L1091.04 653.348H1051.55L1055.72 668.854H1095.21L1094.33 665.563Z" fill="#CBCCCE"/>
<path d="M1091.92 525.417L1112.25 509.91L1127.39 512.324L1108.15 526.66L1091.92 525.417Z" fill="#CBCCCE"/>
<path d="M1111.66 575.156C1111.74 578.667 1108.96 578.813 1107.93 577.058C1107.35 576.034 1107.42 574.571 1107.57 573.547C1106.91 574.205 1106.54 575.229 1106.54 576.253C1106.54 578.374 1108.08 580.057 1109.91 580.057C1110.86 580.057 1111.96 579.618 1112.47 578.667C1112.91 577.936 1112.98 576.985 1112.61 576.18C1112.54 575.961 1112.4 575.741 1112.18 575.522L1111.66 575.156Z" fill="#CBCCCE"/>
<path d="M1089.43 578.959C1089.43 578.959 1093.09 569.011 1097.55 563.525C1097.55 563.525 1094.48 573.839 1092.21 578.593C1092.14 578.52 1090.75 577.716 1089.43 578.959Z" fill="#CBCCCE"/>
<path d="M1091.85 579.033C1091.85 579.033 1086.65 578.375 1081.02 589.2C1081.02 589.2 1086.43 583.202 1088.63 586.421C1088.63 586.421 1091.11 581.666 1091.85 579.033Z" fill="#CBCCCE"/>
<path d="M1085.12 653.422C1084.97 646.985 1085.71 597.612 1086.73 589.273C1086.73 589.273 1081.98 617.8 1083.22 653.422H1085.12Z" fill="#CBCCCE"/>
<path d="M1102.52 564.695C1102.01 563.013 1100.7 558.332 1100.55 555.991C1100.18 551.456 1101.65 545.239 1101.65 545.239L1105.81 520.004L1100.26 523.881L1097.92 544.215C1097.84 544.654 1097.77 545.166 1097.77 545.678C1097.11 552.334 1098.21 558.698 1098.94 561.77L1102.52 564.695Z" fill="#CBCCCE"/>
<path d="M1081.9 653.42C1081.46 641.205 1082.56 598.123 1085.26 588.248C1085.26 588.248 1081.02 588.541 1078.54 653.42H1081.9Z" fill="#CBCCCE"/>
<path d="M1076.64 653.421C1080.37 599.001 1080.73 591.247 1084.1 587.883C1084.1 587.883 1076.64 588.102 1073.64 653.421H1076.64Z" fill="#CBCCCE"/>
<path d="M1071.37 653.422C1071.96 645.156 1074.3 600.538 1080.51 590.078C1071.23 600.172 1068.3 648.96 1068.01 653.422H1071.37Z" fill="#CBCCCE"/>
<path d="M1093.02 591.613C1092.5 592.418 1091.99 593.076 1091.63 593.515L1092.29 593.734C1092.8 593.003 1093.24 592.418 1093.6 591.833L1093.02 591.613Z" fill="#CBCCCE"/>
<path d="M1110.64 598.562L1112.32 599.147C1112.47 598.927 1112.62 598.781 1112.83 598.562L1111.15 597.977C1111.01 598.196 1110.86 598.342 1110.64 598.562Z" fill="#CBCCCE"/>
<path d="M1102.89 567.256L1103.84 567.988C1103.69 569.231 1103.26 571.645 1102.74 573.108C1102.74 573.108 1104.21 570.401 1104.64 568.573L1108.74 571.718C1110.57 571.206 1112.76 571.791 1113.64 573.839C1114.52 575.96 1114.15 578.813 1112.62 580.495C1110.2 583.129 1105.38 582.617 1104.06 578.886C1103.69 577.716 1103.55 576.399 1103.69 575.229C1101.21 578.374 1101.65 583.348 1104.57 585.908C1106.98 588.029 1110.57 588.103 1113.13 586.42C1113.49 586.201 1113.86 585.908 1114.15 585.616C1118.9 581.007 1115.69 573.693 1112.62 567.988C1109.98 563.087 1111.37 553.871 1111.37 553.871L1113.49 541.509L1119.2 511.666L1111.66 516.274L1108.3 542.021L1107.06 553.651C1107.06 553.651 1105.96 561.112 1109.62 570.694L1098.79 561.624C1096.45 572.596 1089.87 586.347 1089.87 586.347L1091.63 585.396C1091.63 585.396 1097.7 573.035 1099.75 564.916L1102.16 566.744C1101.35 569.524 1097.92 581.154 1093.75 588.834L1094.55 589.053C1098.58 581.666 1101.94 570.548 1102.89 567.256Z" fill="#CBCCCE"/>
<path d="M1092.94 594.026L1108.74 599.659C1108.96 599.439 1109.18 599.147 1109.47 598.854L1093.53 593.295C1093.31 593.514 1093.16 593.807 1092.94 594.026Z" fill="#CBCCCE"/>
<path d="M1119.34 578.959C1117.51 586.347 1113.42 594.905 1113.42 594.905C1113.42 594.905 1112.61 596.002 1111.52 597.465L1113.2 598.05C1118.39 590.955 1120.66 580.129 1120.66 580.129L1119.34 578.959Z" fill="#CBCCCE"/>
<path d="M1093.97 592.71L1109.98 598.342C1110.13 598.123 1110.28 597.977 1110.5 597.757L1094.48 592.125C1094.19 592.344 1094.04 592.491 1093.97 592.71Z" fill="#CBCCCE"/>
<path d="M1091.55 591.102C1091.41 591.029 1091.34 590.883 1091.34 590.663C1091.41 590.517 1091.55 590.371 1091.7 590.444L1092.65 590.736C1093.31 589.566 1093.75 588.688 1093.75 588.688L1093.02 588.469L1089.65 589.493C1089.43 591.248 1089.07 592.492 1089.07 592.492L1090.97 593.15C1091.48 592.565 1091.92 591.907 1092.29 591.248L1091.55 591.102Z" fill="#CBCCCE"/>
<path d="M1109.54 599.951L1111.15 600.536C1111.37 600.244 1111.66 600.024 1111.88 599.732L1110.27 599.146C1109.98 599.366 1109.76 599.658 1109.54 599.951Z" fill="#CBCCCE"/>
<path d="M1100.55 579.324C1099.01 582.689 1096.09 587.809 1095.28 589.272L1096.09 589.491C1098.43 585.249 1100.55 579.324 1100.55 579.324Z" fill="#CBCCCE"/>
<path d="M1094.04 591.32C1094.85 590.004 1095.28 589.272 1095.28 589.272L1094.55 589.053C1094.19 589.784 1093.75 590.516 1093.38 591.101L1094.04 591.32Z" fill="#CBCCCE"/>
<path d="M1110.86 597.173C1111.52 596.295 1112.18 595.417 1112.61 594.613L1109.84 593.735C1110.71 591.467 1110.93 588.98 1110.93 588.98L1105.89 589.273C1105.74 590.37 1105.3 591.541 1105.08 592.272L1096.01 589.492C1095.65 590.224 1095.21 590.882 1094.77 591.541L1110.86 597.173ZM1108.01 590.224L1109.1 589.931C1109.1 589.931 1108.81 591.248 1108.3 592.199L1107.42 591.979L1108.01 590.224Z" fill="#CBCCCE"/>
<path d="M1112.18 503.107L1091.92 520.15V524.173L1112.18 508.008L1127.39 510.641V505.741L1112.18 503.107Z" fill="#CBCCCE"/>
<path d="M1053.09 530.244L1054.55 528.635H768.115V530.244H1001.24L1003.95 534.486H768.115V536.096H1004.97L1034.95 583.201V581.811L1005.85 536.096H1017.04L1034.95 575.082V573.326L1017.84 536.096H1047.75L1049.21 534.486H1004.83L1002.12 530.244H1053.09Z" fill="#CBCCCE"/>
<path d="M1225.3 524.1H1220.7V529.22H1225.3V524.1Z" fill="#E7E7E7"/>
<path d="M1225.3 530.756H1220.7V575.082H1225.3V530.756Z" fill="#E7E7E7"/>
<path d="M1225.3 576.617H1220.7V581.737H1225.3V576.617Z" fill="#E7E7E7"/>
<path d="M1239.12 524.1H1234.52V529.22H1239.12V524.1Z" fill="#E7E7E7"/>
<path d="M1239.12 576.617H1234.52V581.737H1239.12V576.617Z" fill="#E7E7E7"/>
<path d="M1239.12 530.756H1234.52V546.043L1239.12 550.578V530.756Z" fill="#E7E7E7"/>
<path d="M1239.12 558.624L1240 559.428L1243.07 557.161L1239.12 553.284L1234.52 548.676V554.015L1239.12 558.624Z" fill="#E7E7E7"/>
<path d="M1263.7 574.862L1268.38 579.47V541.801L1263.7 545.165V574.862Z" fill="#E7E7E7"/>
<path d="M1267.42 581.226L1244.1 558.186L1240.95 560.453L1262.82 582.031L1261.87 582.689L1240 561.111L1238.69 562.062L1234.44 565.134V575.082H1239.05V563.818L1259.75 584.225L1239.12 599.293V583.274H1234.52V609.972L1239.12 606.608L1263.69 588.687V630.38L1241.1 608.07L1239.05 609.533L1236.27 611.508L1234.88 612.532L1234.37 612.898V669H1238.98V659.052L1263.55 641.132V668.927H1268.16V582.104L1267.42 581.226ZM1239.12 651.811V616.628L1259.6 636.89L1239.12 651.811ZM1261.72 635.353L1239.12 612.971V611.362L1262.67 634.622L1261.72 635.353Z" fill="#E7E7E7"/>
<path d="M1234.52 555.625V563.452L1239.05 560.16L1234.52 555.625Z" fill="#E7E7E7"/>
<path d="M1225.3 583.273H1220.7V668.999H1225.3V583.273Z" fill="#E7E7E7"/>
<path d="M1239.12 461.195H1234.52V471.216H1239.12V461.195Z" fill="#E7E7E7"/>
<path d="M1239.12 472.68H1234.52V477.8H1239.12V472.68Z" fill="#E7E7E7"/>
<path d="M1263.7 461.195V464.706L1239.12 482.554V479.335H1234.52V522.564H1239.12V508.74H1263.7V534.925L1240.44 551.895L1244.68 556.137L1266.04 540.558L1268.38 538.875V461.195H1263.7ZM1263.7 501.206H1239.12V489.868L1263.7 471.948V501.206Z" fill="#E7E7E7"/>
<path d="M1225.3 479.336H1220.7V522.565H1225.3V479.336Z" fill="#E7E7E7"/>
<path d="M1225.3 472.68H1220.7V477.8H1225.3V472.68Z" fill="#E7E7E7"/>
<path d="M1225.3 461.195H1220.7V471.216H1225.3V461.195Z" fill="#E7E7E7"/>
<path d="M1194.59 579.836L1197.44 580.86C1197.88 580.348 1198.32 579.909 1198.76 579.397L1195.83 578.373C1195.39 578.885 1194.96 579.397 1194.59 579.836Z" fill="#CBCCCE"/>
<path d="M1118.76 655.469L1120.44 662.491C1123.88 662.418 1127.31 662.418 1130.75 662.418L1131.34 655.615C1127.75 655.615 1124.17 655.542 1120.51 655.542C1119.93 655.469 1119.34 655.469 1118.76 655.469Z" fill="#CBCCCE"/>
<path d="M1132.65 655.614L1133.24 662.417C1136.67 662.417 1140.11 662.417 1143.55 662.49L1145.23 655.541C1141.06 655.614 1136.82 655.614 1132.65 655.614Z" fill="#CBCCCE"/>
<path d="M1098.65 654.883L1101.06 663.002C1103.4 662.856 1105.67 662.782 1108.01 662.709L1106.98 655.249C1104.21 655.175 1101.43 655.029 1098.65 654.883Z" fill="#CBCCCE"/>
<path d="M1107.79 655.25L1109.69 662.638C1112.62 662.565 1115.47 662.491 1118.39 662.491L1117.66 655.469C1114.37 655.396 1111.08 655.396 1107.79 655.25Z" fill="#CBCCCE"/>
<path d="M1090.68 643.619L1097.48 669H1166.51L1173.31 643.619H1090.68ZM1166 654.883L1164.24 663.076C1164.9 663.076 1165.49 663.149 1166.14 663.149C1165.49 663.222 1164.83 663.222 1164.17 663.222L1163.29 667.391H1161.61L1162.85 663.295C1160.51 663.441 1158.17 663.515 1155.91 663.588L1155.39 667.391H1153.2L1154.15 663.661C1151.3 663.734 1148.45 663.807 1145.6 663.807L1145.23 667.391H1142.45L1143.33 663.88C1140.04 663.953 1136.75 663.953 1133.46 663.953L1133.75 667.464H1130.39L1130.68 663.953C1127.39 663.953 1124.1 663.953 1120.81 663.88L1121.68 667.391H1118.9L1118.54 663.807C1115.69 663.734 1112.84 663.734 1109.98 663.661L1110.93 667.391H1108.74L1108.23 663.588C1105.89 663.515 1103.55 663.441 1101.28 663.295L1102.52 667.391H1100.84L1099.96 663.222C1099.31 663.222 1098.65 663.149 1097.99 663.149C1098.65 663.076 1099.23 663.076 1099.89 663.076L1098.14 654.883C1097.7 654.883 1097.26 654.81 1096.82 654.81C1097.26 654.81 1097.7 654.737 1098.14 654.737L1096.67 647.935L1098.72 654.664C1101.5 654.518 1104.21 654.371 1106.98 654.298L1106.11 647.935L1107.72 654.298C1111.01 654.225 1114.37 654.152 1117.66 654.079L1117.08 647.935L1118.54 654.079C1122.93 654.006 1127.24 654.006 1131.63 654.006L1132.14 647.935L1132.65 654.006C1136.31 654.006 1139.97 654.079 1143.62 654.079C1144.35 654.079 1145.01 654.079 1145.74 654.079L1147.2 647.935L1146.62 654.152C1149.91 654.225 1153.27 654.225 1156.56 654.371L1158.17 648.008L1157.3 654.445C1160.07 654.518 1162.78 654.664 1165.56 654.81L1167.61 648.081L1166.14 654.883C1166.58 654.883 1167.02 654.957 1167.46 654.957C1166.88 654.81 1166.44 654.883 1166 654.883Z" fill="#CBCCCE"/>
<path d="M1146.33 655.543L1145.6 662.491C1148.52 662.565 1151.37 662.565 1154.3 662.638L1156.2 655.25C1152.91 655.396 1149.62 655.469 1146.33 655.543Z" fill="#CBCCCE"/>
<path d="M1155.98 662.709C1158.32 662.782 1160.59 662.856 1162.93 663.002L1165.34 654.883C1162.56 655.029 1159.78 655.175 1157 655.249L1155.98 662.709Z" fill="#CBCCCE"/>
<path d="M1138.72 643.62H1141.79C1141.06 630.088 1141.5 616.337 1141.94 602.805C1140.55 616.337 1139.45 629.941 1138.72 643.62Z" fill="#CBCCCE"/>
<path d="M1198.39 535.364C1198.61 541.655 1193.49 541.947 1191.67 538.802C1190.64 536.974 1190.72 534.34 1191.01 532.512C1189.91 533.755 1189.18 535.438 1189.18 537.412C1189.18 541.143 1191.89 544.215 1195.18 544.215C1196.86 544.215 1198.83 543.483 1199.78 541.801C1200.51 540.485 1200.66 538.802 1200.08 537.412C1199.86 536.974 1199.64 536.535 1199.34 536.242C1199.27 536.023 1198.39 535.364 1198.39 535.364Z" fill="#CBCCCE"/>
<path d="M1158.39 542.094C1158.39 542.094 1164.97 524.173 1172.94 514.299C1172.94 514.299 1167.46 532.804 1163.37 541.289C1163.29 541.362 1160.73 539.973 1158.39 542.094Z" fill="#CBCCCE"/>
<path d="M1162.78 542.387C1162.78 542.387 1154.15 539.607 1141.35 560.892C1141.35 560.892 1153.05 549.848 1157 555.626C1157 555.626 1161.39 547.068 1162.78 542.387Z" fill="#CBCCCE"/>
<path d="M1106.03 637.035C1107.28 637.986 1108.37 639.156 1109.25 640.546C1108.52 640.18 1107.72 640.107 1106.91 640.254C1106.4 640.327 1105.89 640.546 1105.52 641.058C1105.23 641.497 1105.23 642.302 1105.67 642.667C1106.11 642.887 1106.55 642.667 1106.99 642.375C1107.86 641.863 1108.89 641.424 1109.84 641.497C1110.2 642.228 1110.57 642.96 1110.93 643.691H1120.66C1121.17 643.179 1121.61 642.594 1122.05 642.082C1123.29 640.619 1124.32 638.864 1124.68 636.889C1124.76 636.304 1124.68 635.499 1124.17 635.353C1123.88 635.28 1123.66 635.426 1123.37 635.572C1121.68 636.669 1120.59 638.571 1119.64 640.546C1128.7 593.88 1139.67 563.598 1139.67 563.598C1124.24 585.102 1116.78 624.235 1113.27 641.278C1113.27 638.791 1112.98 636.304 1112.25 633.89C1112.03 633.159 1111.59 632.281 1110.93 632.427C1110.5 632.5 1110.2 633.012 1110.2 633.524C1110.2 634.036 1110.35 634.475 1110.5 634.987C1110.93 636.377 1111.37 637.84 1111.81 639.303C1111.52 638.571 1111.15 637.913 1110.79 637.181C1109.62 635.207 1107.79 633.524 1105.74 633.085C1105.45 633.012 1105.08 633.012 1104.79 633.159C1104.06 633.524 1103.99 634.695 1104.43 635.426C1104.65 636.157 1105.38 636.596 1106.03 637.035Z" fill="#CBCCCE"/>
<path d="M1147.64 643.619C1147.64 643.18 1147.64 642.668 1147.57 642.156C1147.86 642.229 1148.16 642.302 1148.37 642.448C1148.59 642.595 1148.81 642.741 1148.96 642.96C1149.18 643.18 1149.33 643.399 1149.54 643.619H1155.18C1155.39 643.472 1155.61 643.326 1155.83 643.18C1156.86 642.595 1157.88 642.156 1158.9 641.571C1159.49 641.278 1160.15 640.693 1160 639.962C1159.93 639.596 1159.64 639.303 1159.27 639.157C1158.9 639.084 1158.54 639.084 1158.25 639.157C1156.49 639.523 1154.88 640.474 1153.71 641.863C1153.42 631.696 1152.47 578.739 1154.22 563.306C1154.22 563.306 1147.72 577.423 1150.28 642.96C1149.91 642.229 1149.47 641.498 1148.89 640.839C1148.52 640.4 1148.08 640.108 1147.57 639.888C1147.13 624.894 1146.69 578.081 1150.93 558.844C1150.93 558.844 1142.09 575.521 1142.74 643.619H1147.64Z" fill="#CBCCCE"/>
<path d="M1126.73 642.301C1127.97 642.448 1129.36 642.74 1130.31 643.618H1137.11C1138.06 628.331 1141.28 574.642 1148.81 558.258C1148.81 558.258 1131.92 585.833 1131.7 642.082C1131.12 641.497 1130.61 640.985 1129.95 640.546C1129 639.888 1127.83 639.449 1126.66 639.595C1126.22 639.668 1125.85 639.814 1125.49 640.107C1125.19 640.4 1124.97 640.912 1125.12 641.351C1125.34 642.082 1126.07 642.228 1126.73 642.301Z" fill="#CBCCCE"/>
<path d="M1164.9 564.914C1163.95 566.377 1163.07 567.547 1162.49 568.352L1163.73 568.791C1164.61 567.547 1165.41 566.377 1166.07 565.353L1164.9 564.914Z" fill="#CBCCCE"/>
<path d="M1196.56 577.423L1199.56 578.447C1199.86 578.082 1200.15 577.716 1200.44 577.35L1197.44 576.326C1197.15 576.692 1196.86 577.058 1196.56 577.423Z" fill="#CBCCCE"/>
<path d="M1164.76 569.156L1193.13 579.324C1193.49 578.885 1193.93 578.373 1194.37 577.861L1165.71 567.84C1165.41 568.352 1165.05 568.791 1164.76 569.156Z" fill="#CBCCCE"/>
<path d="M1212.07 542.459C1208.7 555.771 1201.54 570.839 1201.54 570.839C1201.54 570.839 1200.15 572.814 1198.17 575.374L1201.17 576.398C1210.53 563.671 1214.55 544.434 1214.55 544.434L1212.07 542.459Z" fill="#CBCCCE"/>
<path d="M1166.51 566.89L1195.25 576.984C1195.54 576.618 1195.83 576.253 1196.13 575.887L1167.31 565.793C1167.02 566.159 1166.73 566.524 1166.51 566.89Z" fill="#CBCCCE"/>
<path d="M1162.2 564.038C1161.9 563.965 1161.76 563.599 1161.83 563.306C1161.9 563.014 1162.2 562.794 1162.49 562.941L1164.17 563.526C1165.34 561.478 1166.14 559.869 1166.14 559.869L1164.83 559.43L1158.83 561.258C1158.39 564.404 1157.73 566.671 1157.73 566.671L1161.24 567.914C1162.12 566.817 1162.93 565.647 1163.58 564.477L1162.2 564.038Z" fill="#CBCCCE"/>
<path d="M1178.36 542.824C1175.58 548.895 1170.31 558.112 1168.85 560.672L1170.24 561.11C1174.63 553.43 1178.36 542.824 1178.36 542.824Z" fill="#CBCCCE"/>
<path d="M1166.66 564.33C1168.12 561.989 1168.85 560.672 1168.85 560.672L1167.61 560.307C1166.95 561.623 1166.22 562.867 1165.56 563.964L1166.66 564.33Z" fill="#CBCCCE"/>
<path d="M1196.86 574.936C1198.1 573.4 1199.2 571.79 1200 570.328L1195.03 568.791C1196.64 564.695 1197 560.307 1197 560.307L1187.94 560.819C1187.64 562.794 1186.91 564.915 1186.47 566.231L1170.17 561.184C1169.44 562.428 1168.7 563.744 1167.9 564.915L1196.86 574.936ZM1191.74 562.428L1193.71 561.843C1193.71 561.843 1193.13 564.183 1192.25 566.012L1190.64 565.646L1191.74 562.428Z" fill="#CBCCCE"/>
<path d="M1198.47 461.195L1194.59 492.648C1194.59 492.721 1194.59 492.794 1194.59 492.794C1194.59 492.794 1194.66 492.867 1194.74 492.867C1194.81 492.867 1194.81 492.867 1194.81 492.867C1194.81 492.867 1194.81 492.867 1194.88 492.721L1201.98 461.195H1198.47Z" fill="#CBCCCE"/>
<path d="M1198.03 497.036L1202.2 479.335L1206.29 461.195H1203.37L1196.2 493.087C1195.69 495.281 1192.84 494.623 1193.13 492.428L1197 461.195H1194.15L1192.03 479.335L1190.13 496.597C1190.13 496.597 1188.16 509.983 1194.74 527.245L1175.29 511.007C1171.04 530.756 1159.27 555.406 1159.27 555.406L1162.42 553.651C1162.42 553.651 1173.31 531.414 1176.97 516.859L1181.28 520.15C1179.89 525.124 1173.6 546.043 1166.15 559.795L1167.53 560.234C1174.77 546.994 1180.84 527.026 1182.53 521.101L1184.21 522.418C1183.92 524.612 1183.18 529.074 1182.23 531.634C1182.23 531.634 1184.87 526.806 1185.67 523.515L1193.06 529.22C1196.42 528.269 1200.37 529.293 1201.9 533.097C1203.51 536.974 1202.85 542.021 1200.08 545.019C1195.76 549.774 1186.99 548.823 1184.72 542.094C1184.06 540.046 1183.84 537.705 1184.06 535.511C1179.6 541.143 1180.33 550.066 1185.67 554.675C1189.98 558.405 1196.42 558.624 1201.03 555.552C1201.68 555.113 1202.27 554.675 1202.86 554.089C1211.41 545.897 1205.63 532.585 1200.15 522.491C1195.54 513.713 1198.03 497.036 1198.03 497.036ZM1204.54 544.361C1204.54 544.361 1202.93 555.04 1193.64 554.455C1186.04 553.943 1183.99 545.897 1183.99 545.897C1183.99 545.897 1187.21 551.676 1194.81 550.871C1199.71 550.359 1204.54 544.361 1204.54 544.361Z" fill="#CBCCCE"/>
<path d="M1178.36 479.335L1181.14 461.195H1170.39L1170.46 479.335H1170.39C1170.31 496.451 1174.04 510.861 1174.77 513.567C1174.99 512.689 1175.21 511.812 1175.36 511.007L1182.6 517.078C1181.5 513.348 1178.06 501.279 1177.63 495.208C1177.19 490.161 1177.7 484.309 1178.36 479.335Z" fill="#CBCCCE"/>
<path d="M1170.75 479.335L1167.02 481.822C1161.39 494.038 1154.37 505.521 1145.67 515.03C1142.52 518.468 1139.16 521.613 1135.58 524.466C1131.99 527.392 1128.04 529.952 1123.8 531.415C1119.93 532.804 1115.54 533.097 1111.88 530.756C1110.28 529.732 1108.89 528.269 1107.79 526.587L1105.81 526.441C1106.03 526.807 1106.18 527.099 1106.4 527.465C1108.23 530.318 1110.64 532.512 1113.57 533.682C1117.66 535.218 1122.12 534.487 1126.07 532.878C1130.17 531.195 1134.04 528.708 1137.62 525.856C1144.94 520.15 1151.3 513.128 1156.93 505.375C1162.71 497.402 1168.12 487.381 1172.29 478.238L1170.75 479.335Z" fill="#CBCCCE"/>
<path d="M1191.01 465.876C1189.03 471.435 1183.04 482.773 1182.01 484.309C1171.56 500.62 1158.76 514.884 1144.28 526.66C1137.26 532.365 1129 537.851 1120.07 537.412C1113.35 537.12 1107.42 532.658 1103.84 526.367L1102.01 526.221C1102.67 527.464 1103.4 528.635 1104.13 529.732C1105.96 532.365 1108.23 534.706 1110.86 536.388C1118.68 541.435 1127.97 539.314 1135.72 535.145C1139.82 532.95 1143.47 530.025 1147.2 527.172C1150.93 524.246 1154.44 521.028 1157.95 517.736C1164.68 511.446 1171.04 504.424 1176.6 496.817C1190.06 478.53 1192.84 470.631 1195.98 462.512L1191.01 465.876Z" fill="#CBCCCE"/>
<path d="M1189.54 461.195L1167.09 476.702L1140.33 473.776L1154.52 461.195H1144.72L1135.43 469.826V461.195H1131.92V473.118L1125.19 479.335L1107.86 495.5V480.579L1109.03 479.408L1126.58 461.195H1115.91L1099.38 479.335L1032.18 553.212C1031.44 554.016 1031.37 555.333 1032.03 556.211C1032.76 557.162 1034 557.235 1034.81 556.43L1034.88 556.284V603.17H1036.86V564.695L1045.56 557.088V648.52L1046.73 648.373L1048.12 648.739V644.716L1061.06 637.84V653.493H1064.64V550.14L1100.62 526.148H1100.55L1095.87 525.782L1092.72 527.977L1074.95 531.268L1086.51 521.101L1091.85 521.906V520.296L1088.04 519.784L1106.4 503.619L1108.59 506.179L1110.42 504.643L1108.23 502.083L1108.3 502.01L1126.29 504.936L1125.27 505.667L1127.24 506.033V508.593L1170.6 479.701L1197.95 461.195H1189.54ZM1040.8 557.966L1036.93 561.55V554.236L1040.8 550.213V557.966ZM1042.19 556.649V548.823L1053.31 537.266V546.336L1042.19 556.649ZM1061.13 635.134L1048.19 642.01V626.722L1061.13 635.061V635.134ZM1061.13 632.281L1048.19 623.943V623.723L1061.13 616.848V632.281ZM1061.13 614.215L1048.19 621.09V605.803L1061.13 614.141V614.215ZM1061.13 611.362L1048.19 603.023V602.146L1061.13 595.27V611.362ZM1061.13 592.564L1048.19 599.439V584.152L1061.13 592.491V592.564ZM1061.13 589.711L1048.19 581.372V580.787L1061.13 573.912V589.711ZM1061.13 571.205L1048.19 578.081V562.794L1061.13 571.132V571.205ZM1061.13 568.353L1048.19 560.014V559.575L1061.13 552.7V568.353ZM1061.13 549.993L1048.19 556.869V554.894L1061.13 543.483V549.993ZM1054.77 545.019V535.803L1067.35 522.71V533.243L1054.77 545.019ZM1064.72 547.287V540.338L1068.37 537.12L1072.47 541.947L1064.72 547.287ZM1073.71 541.07L1069.47 536.096L1069.69 535.876L1079.78 536.754L1073.71 541.07ZM1089.51 530.171L1081.9 535.364L1071.37 534.413L1072.61 533.316L1089.51 530.171ZM1084.46 517.371L1068.81 532V521.247L1084.46 504.936V517.371ZM1105.08 498.134L1086.58 515.323V502.742L1105.08 483.578V498.134ZM1129.51 502.595L1110.93 499.596L1113.42 497.402L1144.42 492.282L1129.51 502.595ZM1117.08 494.184L1133.89 479.335L1136.82 476.775L1162.78 479.628L1149.4 488.844L1117.08 494.184Z" fill="#E7E7E7"/>
<path d="M995.613 573.692L996.052 581.08L1010.17 579.617L1006.22 572.01L995.613 573.692Z" fill="#CBCCCE"/>
<path d="M991.079 574.424L990.641 581.665L994.663 581.227L994.151 573.912L991.079 574.424Z" fill="#CBCCCE"/>
<path d="M937.477 587.15L989.177 581.811L989.616 574.643L937.623 582.981L937.477 587.15Z" fill="#CBCCCE"/>
<path d="M934.113 639.887C935.283 639.595 936.38 639.302 937.331 639.01L937.477 633.012L934.552 633.67L934.113 639.887Z" fill="#CBCCCE"/>
<path d="M1017.77 644.496L1019.01 650.421L1025.67 649.544L1025.01 643.326L1017.77 644.496Z" fill="#CBCCCE"/>
<path d="M1026.47 643.106L1027.06 649.396L1043.8 647.129L1042.56 640.473L1026.47 643.106Z" fill="#CBCCCE"/>
<path d="M937.258 592.27L988.666 589.93L989.105 583.42L937.404 588.321L937.258 592.27Z" fill="#CBCCCE"/>
<path d="M990.495 583.275L990.129 589.858L995.248 589.638L994.809 582.836L990.495 583.275Z" fill="#CBCCCE"/>
<path d="M1014.63 581.006L996.197 582.761L996.636 589.564L1014.41 588.759L1013.89 585.541L1015.94 583.932L1014.63 581.006Z" fill="#CBCCCE"/>
<path d="M989.983 591.76L989.617 597.099H995.76L995.394 591.613L989.983 591.76Z" fill="#CBCCCE"/>
<path d="M937.111 597.172L988.227 597.098L988.519 591.832L937.258 593.661L937.111 597.172Z" fill="#CBCCCE"/>
<path d="M1009.14 593.734L1014.48 590.881L996.783 591.539L997.149 597.098H1016.38L1018.79 595.343L1009.65 594.684L1009.14 593.734Z" fill="#CBCCCE"/>
<path d="M989.397 601.779L989.031 606.753L996.417 607.046L996.051 601.999L989.397 601.779Z" fill="#CBCCCE"/>
<path d="M997.514 602L997.806 607.12L1037.08 608.876L1036.93 603.243L997.514 602Z" fill="#CBCCCE"/>
<path d="M936.818 604.486L987.641 606.681L987.934 601.707L936.965 600.098L936.818 604.486Z" fill="#CBCCCE"/>
<path d="M935.576 600.024L922.486 599.658V603.827L935.357 604.413L935.576 600.024Z" fill="#CBCCCE"/>
<path d="M1019.31 609.898L1019.45 612.605L1039.34 613.044L1039.2 610.776L1019.31 609.898Z" fill="#CBCCCE"/>
<path d="M932.066 605.73L922.486 605.291V610.338L932.285 610.557L932.066 605.73Z" fill="#CBCCCE"/>
<path d="M936.6 610.631L987.276 611.874L987.496 608.363L936.746 605.949L936.6 610.631Z" fill="#CBCCCE"/>
<path d="M933.676 610.63H935.138L935.357 605.876L933.529 605.803L933.676 610.63Z" fill="#CBCCCE"/>
<path d="M988.958 608.436L988.738 611.873L1017.99 612.532L1017.84 609.825L988.958 608.436Z" fill="#CBCCCE"/>
<path d="M1019.53 614.068L1019.67 617.799L1040.29 617.14L1039.93 614.58L1019.53 614.068Z" fill="#CBCCCE"/>
<path d="M933.748 611.801L934.114 620.871L1018.28 617.799L1018.06 614.068L933.748 611.801Z" fill="#CBCCCE"/>
<path d="M1041.76 628.112L1040.15 618.457L1024.13 619.993L1025.16 630.453C1030.71 629.575 1036.2 628.697 1041.76 628.112Z" fill="#CBCCCE"/>
<path d="M1025.38 632.062L1025.81 636.304C1026.84 636.158 1027.93 636.012 1028.96 635.939C1031.15 635.646 1033.35 635.427 1035.47 635.207C1032.25 635.792 1029.03 636.377 1025.81 636.89L1026.25 641.205L1043.44 638.572L1041.83 628.697C1036.42 630.087 1030.86 631.111 1025.38 632.062Z" fill="#CBCCCE"/>
<path d="M1016.6 638.499L1017.4 642.668L1024.79 641.425L1024.35 637.109C1021.79 637.621 1019.23 638.06 1016.6 638.499Z" fill="#CBCCCE"/>
<path d="M1023.99 632.354C1021.21 632.792 1018.43 633.231 1015.65 633.67L1016.45 637.547C1019.09 637.181 1021.72 636.889 1024.43 636.596L1023.99 632.354Z" fill="#CBCCCE"/>
<path d="M1021.21 626.356C1019.01 626.941 1016.75 627.453 1014.55 628.038L1015.43 632.354C1018.21 631.769 1021.06 631.257 1023.84 630.745L1022.82 620.139L1013.24 621.09L1014.48 627.307C1016.67 627.014 1018.94 626.649 1021.21 626.356Z" fill="#CBCCCE"/>
<path d="M933.821 644.204L933.455 650.129C947.861 647.569 962.267 645.301 976.673 643.107C989.397 641.205 1002.19 639.376 1014.99 637.767L1014.26 633.891C1011.19 634.329 1008.12 634.695 1005.05 634.915C1008.04 634.11 1011.04 633.379 1014.04 632.72L1013.16 628.405C999.708 631.623 986.033 634.183 972.505 636.743C964.168 638.279 955.832 639.815 947.495 640.913C963.583 636.743 979.964 633.598 996.271 630.599C1001.83 629.575 1007.46 628.551 1013.09 627.673L1011.85 621.383L938.94 628.697L938.866 632.062L950.128 630.16L938.866 632.793L938.72 638.718C940.475 638.279 941.572 637.987 941.572 637.987L941.207 642.302L933.821 644.204Z" fill="#CBCCCE"/>
<path d="M988.373 642.888C970.968 645.521 953.564 647.862 936.087 649.983C935.209 650.056 934.259 650.203 933.381 650.276L933.016 656.493L1016.01 642.888L1015.21 638.719C1006.29 640.182 997.367 641.571 988.373 642.888Z" fill="#CBCCCE"/>
<path d="M926.581 614.36L927.166 621.163L932.724 620.944L932.285 611.8L922.486 611.508V613.702L926.581 614.36Z" fill="#CBCCCE"/>
<path d="M1056.6 651.006L1046.8 648.373L928.482 664.538L928.848 669H1053.53L1048.7 651.006H1056.6Z" fill="#CBCCCE"/>
<path d="M923.145 585.249L923.291 588.614L936.015 587.297L936.161 583.201L923.145 585.249Z" fill="#CBCCCE"/>
<path d="M923.365 589.71L923.511 592.855L935.87 592.343L936.016 588.467L923.365 589.71Z" fill="#CBCCCE"/>
<path d="M923.584 594.1L923.73 597.245L935.65 597.172L935.796 593.734L923.584 594.1Z" fill="#CBCCCE"/>
<path d="M927.824 629.795L928.19 633.891L933.089 633.013L933.236 630.453L934.698 630.599L934.552 632.794L937.404 632.282L937.477 628.844L927.824 629.795Z" fill="#CBCCCE"/>
<path d="M928.264 635.207L928.776 641.351C930.092 640.985 931.408 640.619 932.651 640.327L933.017 634.109L928.264 635.207Z" fill="#CBCCCE"/>
<path d="M932.359 644.57L929.068 645.448L930.019 657.078L931.555 656.786L931.92 650.495C931.116 650.568 930.312 650.715 929.507 650.788C930.312 650.641 931.116 650.495 931.92 650.349L932.359 644.57Z" fill="#CBCCCE"/>
<path d="M930.457 662.272L1017.55 650.642L1016.38 644.717L930.164 658.614L930.457 662.272Z" fill="#CBCCCE"/>
<path d="M894.697 608.95V599.66H890.895V608.291L894.697 608.95Z" fill="#CBCCCE"/>
<path d="M902.668 571.937V610.338L908.884 611.362H911.589V611.801L914.149 612.24V611.362H918.975V613.045L920.365 613.264V597.172H921.462V596.002H921.535L920.877 583.128L921.462 583.055V580.715H926.288V582.251L928.847 581.812V580.642H933.674V581.007L945.081 579.179V571.791H902.668V571.937ZM911.516 602.585H906.69V596.075H911.516V602.585ZM911.516 587.298H906.69V580.788H911.516V587.298ZM918.902 602.585H914.076V596.075H918.902V602.585ZM918.902 587.298H914.076V580.788H918.902V587.298Z" fill="#CBCCCE"/>
<path d="M915.684 628.99L905.738 627.893L905.811 632.135L916.049 633.013L915.684 628.99Z" fill="#CBCCCE"/>
<path d="M926.434 639.157L926.069 634.768L905.812 633.086V639.376L926.434 639.157Z" fill="#CBCCCE"/>
<path d="M817.328 614.361L915.172 623.723L914.879 620.432L817.621 608.729L817.328 614.361Z" fill="#CBCCCE"/>
<path d="M916.634 623.87L925.263 624.674L925.044 621.602L916.342 620.578L916.634 623.87Z" fill="#CBCCCE"/>
<path d="M816.816 624.015L904.349 631.988V627.745L856.67 622.771L904.349 626.429L904.276 623.649L817.255 616.115L816.816 624.015Z" fill="#CBCCCE"/>
<path d="M905.738 626.574L915.537 627.306L915.245 624.6L905.738 623.795V626.574Z" fill="#CBCCCE"/>
<path d="M926.507 639.961L905.812 640.327L905.886 646.544L926.946 645.593L926.507 639.961Z" fill="#CBCCCE"/>
<path d="M904.495 646.618L904.422 640.4L809.357 642.229V642.302H807.967L793.708 642.595L792.318 651.445L904.495 646.618Z" fill="#CBCCCE"/>
<path d="M916.926 627.379L925.555 628.038L925.336 625.478L916.707 624.746L916.926 627.379Z" fill="#CBCCCE"/>
<path d="M917.44 633.158H917.367L925.996 633.962L925.703 630.013L917.074 629.135L917.44 633.158Z" fill="#CBCCCE"/>
<path d="M809.65 613.628L815.939 614.213L816.232 608.581L810.382 607.85L809.65 613.628Z" fill="#CBCCCE"/>
<path d="M790.637 661.465L789.467 668.999H928.846L928.261 661.684L790.637 661.465Z" fill="#CBCCCE"/>
<path d="M927.018 646.471L791.88 653.273L790.93 659.637L928.188 660.88L927.018 646.471Z" fill="#CBCCCE"/>
<path d="M914.807 619.479L914.368 614.725L811.698 597.316L810.602 606.021L914.807 619.479Z" fill="#CBCCCE"/>
<path d="M924.971 620.796L924.605 616.48L915.83 615.018L916.269 619.699L924.971 620.796Z" fill="#CBCCCE"/>
<path d="M774.403 661.465L769.357 668.999H788.005L789.175 661.465H774.403Z" fill="#CBCCCE"/>
<path d="M809.212 605.802L810.309 597.025L802.631 595.781L800.803 604.705L809.212 605.802Z" fill="#CBCCCE"/>
<path d="M841.679 632.793L809.503 632.94L809.357 640.4L904.422 639.376L904.349 633.013L796.852 624.162L796.121 627.527L841.679 632.793Z" fill="#CBCCCE"/>
<path d="M789.467 659.636L790.49 653.346L779.448 653.931L775.719 659.49L789.467 659.636Z" fill="#CBCCCE"/>
<path d="M815.427 623.868L815.793 616.042L798.754 614.506L797.219 622.259L815.427 623.868Z" fill="#CBCCCE"/>
<path d="M799.193 612.604L808.188 613.482L808.919 607.704L800.363 606.68L799.193 612.604Z" fill="#CBCCCE"/>
<path d="M807.895 640.473L808.041 632.939L793.416 633.086L788.297 640.693L807.895 640.473Z" fill="#CBCCCE"/>
<path d="M790.783 651.445L792.173 642.521L786.981 642.668L780.838 651.884L790.783 651.445Z" fill="#CBCCCE"/>
<rect x="768" y="529" width="1" height="143" fill="#CBCCCE"/>
</g>
<rect x="1118" y="457" width="151" height="4" fill="#E7E7E7"/>
<g clip-path="url(#clip2)">
<path d="M407.99 407.615H406.907V401.842H407.99V400.759H358.899V393.183C358.899 392.1 358.177 391.379 357.455 391.379H357.094V369.009L348.07 355.659C349.153 355.298 349.875 354.938 350.236 354.216L398.244 393.904C397.883 394.626 397.522 395.347 397.522 396.43C397.522 398.955 399.326 400.759 401.492 400.759C403.658 400.759 405.463 398.955 405.463 396.43C405.463 393.904 403.658 392.1 401.492 392.1C400.409 392.1 399.687 392.461 398.966 393.183L350.597 353.134C350.958 352.412 350.958 352.051 350.958 351.33C350.958 348.804 349.153 347 346.987 347C344.821 347 343.016 348.804 343.016 351.33C343.016 351.69 343.016 351.69 343.016 352.051L250.249 396.43C249.888 396.069 249.527 396.069 249.166 396.069C248.083 396.069 247 397.151 247 398.595C247 399.677 247.722 400.759 248.444 401.12H219.928L209.46 407.615H208.738V408.697H245.556H338.685V412.305C338.685 413.388 339.407 414.47 340.49 414.47H345.904V414.831C345.543 415.192 345.182 415.552 345.182 416.274V416.635C345.182 417.356 345.543 417.717 345.904 418.078V604.973H356.733V522.71V494.568V466.425V438.283V417.717C357.094 417.356 357.455 416.996 357.455 416.274V415.913C357.455 415.192 357.094 414.831 356.733 414.47H357.455C358.177 414.47 358.899 413.748 358.899 412.666V408.697H382V416.635H416.292V408.697H407.99V407.615ZM243.752 401.842L242.308 404.367L240.864 401.842H243.752ZM236.171 401.842L234.728 404.367L233.284 401.842H236.171ZM228.23 401.842L226.786 404.367L225.343 401.842H228.23ZM224.982 407.615H211.265C214.153 405.811 217.04 403.646 220.289 401.842H224.982V407.615ZM224.982 402.203L226.425 404.728L224.982 407.254V402.203ZM228.591 407.615H225.343L227.147 405.089L228.591 407.615ZM228.591 407.254L227.147 404.728L228.591 402.203V407.254ZM232.562 407.615H229.313V401.842H232.562V407.615ZM232.923 402.203L234.367 404.728L232.923 407.254V402.203ZM236.171 407.615H232.923L234.728 405.089L236.171 407.615ZM236.171 406.893L234.728 404.728L236.171 402.203V406.893ZM240.503 407.615H237.254V401.842H240.503V407.615ZM240.503 402.203L241.947 404.728L240.503 407.254V402.203ZM244.113 407.615H240.864L242.669 405.089L244.113 407.615ZM244.113 407.254L242.669 404.728L244.113 402.203V407.254ZM250.61 407.615H244.835V401.842H250.61V407.615ZM252.415 404.728L250.971 407.254V402.203L252.415 404.728ZM250.971 401.842H254.22L252.776 404.367L250.971 401.842ZM254.22 407.615H250.971L252.776 405.089L254.22 407.615ZM254.22 407.254L252.776 404.728L254.22 402.203V407.254ZM258.19 407.615H254.941V401.842H258.19V407.615ZM259.995 404.728L258.551 407.254V402.203L259.995 404.728ZM258.551 401.842H261.8L260.356 404.367L258.551 401.842ZM261.8 407.615H258.551L260.356 405.089L261.8 407.615ZM261.8 406.893L260.356 404.728L261.8 402.203V406.893ZM266.131 407.615H262.883V401.842H266.131V407.615ZM267.936 404.728L266.492 407.254V402.203L267.936 404.728ZM266.492 401.842H269.741L268.297 404.367L266.492 401.842ZM269.741 407.615H266.492L268.297 405.089L269.741 407.615ZM269.741 407.254L268.297 404.728L269.741 402.203V407.254ZM273.712 407.615H270.463V401.842H273.712V407.615ZM275.516 404.728L274.073 407.254V402.203L275.516 404.728ZM274.073 401.842H277.321L275.877 404.367L274.073 401.842ZM277.321 407.615H274.073L275.877 405.089L277.321 407.615ZM277.321 407.254L275.877 404.728L277.321 402.203V407.254ZM281.653 407.615H278.043V401.842H281.653V407.615ZM281.653 402.203L283.097 404.728L281.653 407.254V402.203ZM282.014 401.842H285.262L283.818 404.367L282.014 401.842ZM285.262 407.615H282.014L283.818 405.089L285.262 407.615ZM285.262 406.893L283.818 404.728L285.262 402.203V406.893ZM289.233 407.615H285.984V401.842H289.233V407.615ZM291.038 404.728L289.594 407.254V402.203L291.038 404.728ZM289.594 401.842H292.843L291.399 404.367L289.594 401.842ZM292.843 407.615H289.594L291.399 405.089L292.843 407.615ZM292.843 407.254L291.399 404.728L292.843 402.203V407.254ZM299.34 407.615H293.564V401.842H299.34V407.615ZM301.145 404.728L299.701 407.254V402.203L301.145 404.728ZM300.062 401.842H303.31L301.867 404.367L300.062 401.842ZM302.95 407.615H299.701L301.506 405.089L302.95 407.615ZM302.95 407.254L301.506 404.728L302.95 402.203V407.254ZM307.281 407.615H304.032V401.842H307.281V407.615ZM309.086 404.728L307.642 407.254V402.203L309.086 404.728ZM307.642 401.842H310.891L309.447 404.367L307.642 401.842ZM310.891 407.615H307.642L309.447 405.089L310.891 407.615ZM310.891 406.893L309.447 404.728L310.891 402.203V406.893ZM314.861 407.615H311.613V401.842H314.861V407.615ZM316.666 404.728L315.222 407.254V402.203L316.666 404.728ZM315.583 401.842H318.832L317.388 404.367L315.583 401.842ZM318.471 407.615H315.222L317.027 405.089L318.471 407.615ZM318.471 407.254L317.027 404.728L318.471 402.203V407.254ZM324.968 407.615H319.193V401.842H324.968V407.615ZM326.773 404.728L325.329 407.254V402.203L326.773 404.728ZM325.329 401.842H328.578L327.134 404.367L325.329 401.842ZM328.578 407.615H325.329L327.134 405.089L328.578 407.615ZM328.578 407.254L327.134 404.728L328.578 402.203V407.254ZM329.3 407.615V401.842H332.548V407.615H329.3ZM334.714 404.728L333.27 407.254V402.203L334.714 404.728ZM333.27 401.842H336.519L335.075 404.367L333.27 401.842ZM336.519 407.615H333.27L335.075 405.089L336.519 407.615ZM336.519 406.893L335.075 404.728L336.519 402.203V406.893ZM338.685 402.924V407.615H336.88V401.842H338.685C339.046 402.203 338.685 402.563 338.685 402.924ZM346.265 391.739C345.543 391.739 344.821 392.461 344.821 393.543V401.12H249.888C250.61 400.759 251.332 400.038 251.332 398.595C251.332 398.234 251.332 398.234 251.332 397.873L343.738 353.855C344.46 354.577 345.182 355.298 346.265 355.659V391.739ZM348.792 358.546L349.153 359.267H348.792V358.546ZM348.792 359.989H349.875L350.236 360.71V361.071H348.431V359.989H348.792ZM348.07 370.813H354.567L351.318 372.256L348.07 370.813ZM354.928 374.421H348.07L351.318 372.617L354.928 374.421ZM348.792 361.793H350.236V362.875H348.431V361.793H348.792ZM348.792 363.597H350.236V364.679H348.431V363.597H348.792ZM348.792 365.401H350.236V366.483H348.431V365.401H348.792ZM348.792 367.205H350.236V368.648H348.431V367.205H348.792ZM348.792 369.37H350.236V370.091H348.431V369.37H348.792ZM347.709 357.102L348.431 357.824V369.731H347.709V357.102ZM347.709 370.813L350.958 372.617L347.709 374.421V370.813ZM347.709 379.472L350.958 381.276L347.709 383.08V379.472ZM348.07 379.472H354.567L351.318 381.276L348.07 379.472ZM354.928 383.08H348.07L351.318 381.276L354.928 383.08ZM347.709 388.131L350.958 389.935L347.709 391.739V388.131ZM348.07 387.771H354.567L351.318 389.575L348.07 387.771ZM354.928 391.379H348.07L351.318 389.575L354.928 391.379ZM347.709 420.604L350.958 422.408L347.709 424.212V420.604ZM348.07 420.243H354.567L351.318 422.047L348.07 420.243ZM354.928 424.212H348.07L351.318 422.408L354.928 424.212ZM347.709 428.902L350.958 430.706L347.709 432.51V428.902ZM348.07 440.087H354.567L351.318 441.891L348.07 440.087ZM354.928 443.695H348.07L351.318 441.891L354.928 443.695ZM350.236 435.036V435.757H348.431V435.036H350.236ZM348.431 434.675V433.953H350.236V434.675H348.431ZM350.236 436.118V436.84H348.431V436.118H350.236ZM350.236 437.2V437.922H348.431V437.2H350.236ZM350.236 438.283V439.004H348.431V438.283H350.236ZM350.236 433.592H348.431V433.232H350.236V433.592ZM348.07 432.51L351.318 430.706L354.567 432.51H348.07ZM348.07 428.902H354.567L351.318 430.706L348.07 428.902ZM347.709 432.871H348.07V439.004H347.709V432.871ZM347.709 440.087L350.958 441.891L347.709 443.695V440.087ZM347.709 448.746L350.958 450.55L347.709 452.354V448.746ZM348.07 448.385H354.567L351.318 450.189L348.07 448.385ZM354.928 452.354H348.07L351.318 450.55L354.928 452.354ZM347.709 457.045L350.958 458.849L347.709 460.653V457.045ZM348.07 468.229H354.567L351.318 469.673L348.07 468.229ZM354.928 471.837H348.07L351.318 470.033L354.928 471.837ZM350.597 463.178V463.9H348.792V463.178H350.597ZM348.792 462.817V462.096H350.597V462.817H348.792ZM350.597 464.261V464.982H348.792V464.261H350.597ZM350.597 465.343V466.065H348.792V465.343H350.597ZM350.597 466.425V467.147H348.792V466.425H350.597ZM350.597 461.735H348.792V461.013H350.597V461.735ZM348.07 460.653L351.318 458.849L354.567 460.653H348.07ZM348.07 457.045H354.567L351.318 458.849L348.07 457.045ZM347.709 461.013H348.431V467.508H347.709V461.013ZM347.709 468.229L350.958 470.033L347.709 471.837V468.229ZM347.709 476.889L350.958 478.693L347.709 480.497V476.889ZM348.07 476.528H354.567L351.318 478.332L348.07 476.528ZM354.928 480.497H348.07L351.318 478.693L354.928 480.497ZM347.709 485.548L350.958 487.352L347.709 489.156V485.548ZM348.07 496.372H354.567L351.318 498.176L348.07 496.372ZM354.928 499.98H348.07L351.318 498.176L354.928 499.98ZM354.206 491.321V492.042H352.401V491.321H354.206ZM352.401 490.96V490.238H354.206V490.96H352.401ZM354.206 492.403V493.125H352.401V492.403H354.206ZM354.206 493.486V494.207H352.401V493.486H354.206ZM354.206 494.568V495.29H352.401V494.568H354.206ZM354.206 489.877H352.401V489.517H354.206V489.877ZM348.07 488.795L351.318 486.991L354.567 488.795H348.07ZM348.07 485.187H354.567L351.318 486.991L348.07 485.187ZM347.709 489.156H352.04V495.29H347.709V489.156ZM347.709 496.372L350.958 498.176L347.709 499.98V496.372ZM347.709 505.031L350.958 506.835L347.709 508.639V505.031ZM348.07 505.031H354.567L351.318 506.835L348.07 505.031ZM354.928 508.639H348.07L351.318 506.835L354.928 508.639ZM347.709 513.69L350.958 515.494L347.709 517.298V513.69ZM348.07 513.33H354.567L351.318 515.134L348.07 513.33ZM354.928 517.298H348.07L351.318 515.494L354.928 517.298ZM348.431 523.793H347.709V517.298H348.431V523.793ZM350.236 523.432H348.431V522.71H350.236V523.432ZM350.236 522.35H348.431V521.628H350.236V522.35ZM350.236 521.267H348.431V520.546H350.236V521.267ZM350.236 520.185H348.431V519.463H350.236V520.185ZM350.236 519.102H348.431V518.381H350.236V519.102ZM350.236 518.02H348.431V517.298H350.236V518.02ZM355.289 523.793H350.597V517.298H355.289V523.793ZM355.289 516.938L351.679 515.134L355.289 513.33V516.938ZM355.289 512.608H347.709V509H355.289V512.608ZM355.289 508.639L351.679 506.835L355.289 505.031V508.639ZM355.289 503.949H347.709V500.341H355.289V503.949ZM355.289 499.98L351.679 498.176L355.289 496.372V499.98ZM355.289 495.65H354.567V489.517H355.289V495.65ZM355.289 488.795L351.679 486.991L355.289 485.187V488.795ZM355.289 484.465H347.709V480.857H355.289V484.465ZM355.289 480.497L351.679 478.693L355.289 476.889V480.497ZM355.289 475.806H347.709V472.198H355.289V475.806ZM355.289 471.837L351.679 470.033L355.289 468.229V471.837ZM355.289 467.508H350.958V461.013H355.289V467.508ZM355.289 460.653L351.679 458.849L355.289 457.045V460.653ZM355.289 456.323H347.709V452.715H355.289V456.323ZM355.289 451.993L351.679 450.189L355.289 448.385V451.993ZM355.289 447.664H347.709V444.056H355.289V447.664ZM355.289 443.695L351.679 441.891L355.289 440.087V443.695ZM355.289 439.004H350.597V432.871H355.289V439.004ZM355.289 432.51L351.679 430.706L355.289 428.902V432.51ZM355.289 428.18H347.709V424.572H355.289V428.18ZM355.289 424.212L351.679 422.408L355.289 420.604V424.212ZM355.289 419.521H347.709V417.717H355.289V419.521ZM355.289 391.379L351.679 389.575L355.289 387.771C355.289 389.214 355.289 390.296 355.289 391.379ZM355.289 387.049H347.709V383.441H355.289C355.289 384.523 355.289 385.967 355.289 387.049ZM355.289 383.08L351.679 381.276L355.289 379.472C355.289 380.555 355.289 381.637 355.289 383.08ZM355.289 378.39H347.709V374.782H355.289C355.289 376.225 355.289 377.307 355.289 378.39ZM355.289 374.421L351.679 372.617L355.289 370.813C355.289 371.895 355.289 373.339 355.289 374.421ZM355.289 370.091H350.597V361.432L355.289 367.927C355.289 368.648 355.289 369.37 355.289 370.091ZM406.185 401.842L404.741 404.367L403.297 401.842H406.185ZM398.605 401.842L397.161 404.367L395.717 401.842H398.605ZM390.663 401.842L389.22 404.367L387.776 401.842H390.663ZM380.556 401.842L379.113 404.367L377.669 401.842H380.556ZM372.976 401.842L371.532 404.367L370.089 401.842H372.976ZM365.035 401.842L363.591 404.367L362.147 401.842H365.035ZM361.425 407.615H358.899V401.842H361.425V407.615ZM361.786 402.203L363.23 404.728L361.786 407.254V402.203ZM365.035 407.615H361.786L363.591 405.089L365.035 407.615ZM365.035 407.254L363.591 404.728L365.035 402.203V407.254ZM369.367 407.615H366.118V401.842H369.367V407.615ZM369.367 402.203L370.81 404.728L369.367 407.254V402.203ZM372.976 407.615H369.728L371.532 405.089L372.976 407.615ZM372.976 406.893L371.532 404.728L372.976 402.203V406.893ZM376.947 407.615H373.698V401.842H376.947V407.615ZM377.308 402.203L378.752 404.728L377.308 407.254V402.203ZM380.556 407.615H377.308L379.113 405.089L380.556 407.615ZM380.556 407.254L379.113 404.728L380.556 402.203V407.254ZM387.054 407.615H381.278V401.842H387.054V407.615ZM387.415 402.203L388.859 404.728L387.415 407.254V402.203ZM390.663 407.615H387.415L389.22 405.089L390.663 407.615ZM390.663 407.254L389.22 404.728L390.663 402.203V407.254ZM394.995 407.615H391.746V401.842H394.995V407.615ZM395.356 402.203L396.8 404.728L395.356 407.254V402.203ZM398.605 407.615H395.356L397.161 405.089L398.605 407.615ZM398.605 406.893L397.161 404.728L398.605 402.203V406.893ZM402.575 407.615H399.326V401.842H402.575V407.615ZM402.936 402.203L404.38 404.728L402.936 407.254V402.203ZM406.185 407.615H402.936L404.741 405.089L406.185 407.615ZM406.185 407.254L404.741 404.728L406.185 402.203V407.254Z" fill="#CBCCCE"/>
<path d="M465.021 656.568C467.187 652.96 468.631 648.992 468.631 644.301V551.214C468.631 546.163 466.826 541.112 463.939 537.504V523.072H468.631V519.464H463.939V500.702H459.246V519.464H374.42V500.702H369.005V519.464H364.674V523.072H369.366V534.257C364.674 538.586 361.786 544.359 361.786 551.214V605.335H334.714V537.504H338.684V523.072H332.909V520.907H337.241L345.182 493.486H317.388H283.096L291.037 520.907H295.369V523.072H288.872V537.504H292.481V542.194H281.652L278.765 536.421L278.043 537.143L259.273 499.98L253.136 456.323H255.302V453.798H249.527V453.076H248.444V453.798H241.947V456.323H244.112L237.976 499.98L219.206 537.504L218.484 536.782L216.679 540.39V467.147H214.513V542.194H208.016V467.147H205.85V542.194H203.324V625.539H199.353L198.27 601.726L197.909 595.232L197.548 588.016H199.353V585.13H197.187L196.104 560.234H198.631V557.709H196.465L195.382 532.453H197.187V529.205H195.021L194.299 509.722H178.417L178.056 517.66L177.695 529.205H176.251V532.453H177.695L177.334 542.555V545.802L176.973 557.709H175.168V560.234H176.973L175.529 585.13H173.725V587.655H175.168V589.098L174.807 601.366L173.725 625.179H167.588L167.227 613.994L166.866 601.726V600.283H168.671V597.758H166.505L165.422 572.862H167.588V570.337H165.422L164.34 547.967V546.163V545.081H166.144V541.833H164.34L163.618 522.35H147.735L147.374 530.288L147.013 541.833H145.57V545.081H147.013L145.93 570.337H144.126V572.862H145.93V573.223H112V574.306H145.93V574.666H112V579.357H144.487V598.118H143.404V587.655C143.404 585.13 141.599 583.326 139.072 583.326H120.302C117.775 583.326 115.971 585.13 115.971 587.655V619.767C115.971 622.292 117.775 624.096 120.302 624.096H136.545H121.385C119.58 624.096 118.136 625.539 118.136 627.343C118.136 629.147 119.58 630.23 121.024 630.591H139.072C140.516 630.591 141.96 629.147 141.96 627.343C141.96 625.539 140.516 624.096 138.711 624.096H143.404L143.043 629.508V630.591H112V667.753H128.965H129.326H175.89H288.15H317.749H322.441H445.89H472.963V656.929H465.021V656.568ZM254.219 473.281L249.888 470.755L253.497 468.591L254.219 473.281ZM245.556 455.963H251.693L253.497 467.508L248.805 470.034L244.112 467.508L245.556 455.963ZM243.751 468.591L247.361 470.755L243.39 473.281L243.751 468.591ZM243.029 474.724L248.805 471.477L254.58 474.724L257.468 496.372L256.385 494.568L254.58 482.301L252.775 483.023L253.136 486.631L248.444 489.156L244.112 486.631L244.473 483.023L242.668 482.662L240.864 494.208L239.781 496.372L243.029 474.724ZM248.805 526.68L239.059 523.793L240.503 514.052L248.805 511.165L257.107 514.052L258.551 523.433L248.805 526.68ZM258.551 524.876L259.273 529.927L250.61 527.401L258.551 524.876ZM246.639 527.401L238.337 529.927L239.059 525.237L246.639 527.401ZM248.805 490.239L254.58 493.486L256.385 507.557L248.805 510.083L241.225 507.557L243.39 493.486L248.805 490.239ZM243.39 492.043L244.112 487.713L247.722 489.517L243.39 492.043ZM249.888 489.517L253.497 487.352L254.219 492.043L249.888 489.517ZM247 510.804L240.503 512.969L241.225 508.279L247 510.804ZM250.61 510.804L256.746 508.64L257.468 513.33L250.61 510.804ZM219.567 542.194L221.372 538.947L220.65 538.225L240.503 498.898L234.366 542.194H219.567ZM236.532 542.194L237.976 531.009L248.805 527.762L259.634 531.009L261.078 542.194H236.532ZM263.243 542.194L257.468 499.98L276.96 538.225L276.238 538.947L278.043 542.194H263.243ZM356.733 656.568V631.312H359.259V629.147H346.987V625.539H333.992V608.943H361.064V644.301C361.064 648.631 362.508 652.96 364.674 656.568H356.733ZM403.658 656.568C405.102 654.404 406.184 651.878 406.545 648.992H423.511C424.233 651.878 424.955 654.404 426.398 656.568H403.658ZM423.15 577.553V644.662C423.15 645.023 423.15 645.744 423.15 646.105H406.906C406.906 645.744 406.906 645.023 406.906 644.662V577.553H423.15ZM406.906 572.862V555.544H422.789V572.862H406.906ZM459.246 533.174C455.275 530.288 450.583 528.484 445.529 528.484C433.979 528.484 424.233 537.504 422.789 548.689H406.545C405.102 537.504 395.717 528.484 383.805 528.484C380.195 528.484 376.947 529.205 374.059 530.649V523.072H459.246V533.174Z" fill="#E7E7E7"/>
<path d="M298.978 455.963L297.896 468.952H295.73V486.27H283.457V492.765H343.738V486.27H331.465V484.105H331.104V468.952H328.938L327.855 455.963H327.133L328.216 468.952H323.524L322.802 455.963H322.08L322.802 468.952H315.222V455.963H314.5V468.952H309.807V455.963H309.085V468.952H306.92L307.281 455.963H306.559L306.198 468.952H304.393L304.754 455.963H304.032L303.31 468.952H298.978L299.7 455.963H298.978Z" fill="#E7E7E7"/>
<path d="M255.302 668.835C254.219 668.114 253.136 667.753 252.053 667.753C250.97 667.392 250.248 667.031 249.165 666.31C248.804 666.31 248.444 665.949 248.083 665.949C248.444 665.949 248.444 665.949 248.804 665.588C249.887 664.867 250.609 663.423 250.248 661.98C249.887 660.176 248.804 659.815 247.722 659.454H247.361C248.083 656.568 247.722 652.599 247.722 649.352C247.722 644.662 248.083 639.61 248.083 634.559C248.083 631.673 247.722 629.147 247.722 626.261C248.083 623.374 248.083 620.488 248.444 617.601C248.804 613.272 248.444 608.581 248.083 604.252C247.361 594.51 248.083 584.408 248.444 574.666C248.444 564.564 247.722 554.822 247.722 544.72C247.722 544.72 247.722 544.72 247.722 544.359C247.722 543.998 247.722 543.637 247.722 543.276C247.722 542.916 247.361 542.916 247.361 542.916C247.361 542.916 247 542.916 247 542.555C246.639 542.555 246.278 542.555 245.917 542.555C245.556 542.194 244.834 541.833 244.473 542.555C244.112 542.194 243.751 541.833 243.751 541.833C243.751 541.472 243.029 541.472 243.029 541.833C242.668 541.833 242.668 542.194 242.668 542.194C242.668 542.555 242.668 542.555 242.668 542.916C242.668 542.916 242.307 543.276 242.668 543.637C242.668 546.524 243.029 549.049 243.029 551.936C243.029 554.822 243.029 557.348 243.029 560.234C243.029 561.677 243.39 563.12 243.39 564.564C243.39 569.254 243.39 573.584 243.39 578.274C243.029 582.964 241.946 587.294 241.224 591.985C240.863 597.397 240.863 601.726 241.224 607.138C241.585 612.911 241.585 619.405 241.224 625.178C240.863 630.59 241.585 636.002 241.585 641.775C241.585 647.187 241.585 652.96 241.224 658.372C241.224 659.094 241.224 659.815 241.224 660.176C240.502 659.815 239.419 659.815 238.698 659.454C236.532 658.733 234.727 657.29 232.922 656.929C232.561 656.929 232.2 657.65 232.561 658.372C233.283 659.815 234.366 659.815 235.449 660.537C234.005 660.176 232.2 659.815 230.756 659.815C230.395 659.815 230.034 660.898 230.395 661.258C230.034 661.258 230.034 661.98 230.034 662.341C230.034 662.341 230.034 662.341 230.034 662.702C228.591 661.98 227.147 661.619 225.703 661.98C225.342 661.98 225.342 662.702 225.342 663.423C225.703 663.784 226.064 664.145 226.425 664.506C225.342 663.784 223.898 663.062 222.815 662.702C222.454 662.702 222.093 663.062 222.093 663.423C221.371 663.423 220.649 663.423 219.927 663.062C219.566 663.062 219.566 663.423 219.566 663.423C219.206 663.423 218.845 663.784 218.484 664.145C218.123 664.506 218.123 665.227 218.484 665.588C218.484 665.949 218.484 666.31 218.845 666.671C219.206 666.671 219.566 666.671 219.927 667.031C219.927 667.031 219.927 667.392 220.288 667.392C221.01 667.753 221.371 667.753 222.093 668.114C223.176 668.475 224.259 668.475 225.703 668.475C226.064 668.475 226.425 668.475 226.786 668.835C229.312 670.279 231.839 671.361 234.005 670.639C234.366 670.639 234.366 669.557 234.366 669.196H234.727C234.727 669.918 235.088 670.639 235.81 670.639C239.78 670.639 244.112 671.361 248.083 671C248.804 671 249.526 671.361 250.248 671.361C250.609 671.361 250.97 670.279 250.609 669.918C250.248 669.557 249.887 669.557 249.526 669.557C251.331 670.279 253.136 670.639 254.941 671C255.302 671 255.302 671 255.302 670.639C255.663 670.639 256.024 671 256.385 671C255.302 670.639 256.024 669.196 255.302 668.835ZM229.673 664.867C229.312 664.867 229.312 664.867 228.952 664.867C228.591 664.867 228.591 664.866 228.591 665.227C227.869 664.866 226.786 664.145 226.064 663.423C227.147 663.423 228.591 664.145 229.673 664.867ZM246.639 544.72C247 554.822 247.722 564.924 247.722 575.027C247.722 579.717 247.722 584.408 247.361 588.737C247.361 591.263 247 593.789 247 596.314C246.639 589.459 246.639 582.243 246.639 575.388C246.639 565.285 246.278 554.822 246.639 544.72C246.278 544.72 246.278 544.72 246.639 544.72ZM243.029 657.65C242.668 657.65 242.307 658.011 241.946 658.372C241.946 655.486 241.946 652.599 241.946 650.074C241.946 644.662 242.307 639.25 241.946 633.838C241.224 624.457 242.668 615.437 241.946 606.056C241.946 606.777 241.946 607.499 241.946 608.221C241.946 608.942 241.946 610.025 241.946 610.746C241.946 610.746 241.946 610.746 241.946 611.107C241.946 611.829 242.668 611.829 242.668 611.468C242.668 615.797 243.39 620.127 243.39 624.457C243.39 628.786 243.39 633.477 243.39 637.806C243.751 638.889 243.029 650.795 243.029 657.65ZM245.917 652.96C245.917 654.042 245.917 655.846 245.556 657.29C244.834 657.29 244.473 657.29 243.751 657.29C243.751 655.486 243.751 653.682 243.751 651.878C243.751 647.909 244.112 643.94 244.112 640.332C244.112 636.002 244.112 631.312 244.112 626.982C244.112 621.931 243.751 617.601 243.39 612.55C243.39 609.303 243.029 606.056 243.029 602.809C243.029 601.726 243.029 601.005 243.029 599.922C243.029 594.871 243.029 589.82 243.39 584.769C243.39 582.965 243.39 581.16 243.751 579.356C243.751 577.913 244.112 576.109 244.112 574.666C244.112 571.419 244.112 568.172 243.751 564.924C243.751 563.842 243.751 562.76 243.751 561.316C244.112 561.316 244.112 560.956 244.112 560.595V559.873C244.112 556.987 244.112 554.1 243.751 551.214C243.751 550.132 243.751 548.688 243.39 547.245H243.751C243.751 555.904 244.112 564.924 244.112 573.584C244.112 583.325 244.112 593.067 244.834 602.809C245.556 612.55 245.556 622.292 245.917 632.034C246.278 636.724 245.917 641.414 245.917 646.105C245.917 648.63 246.278 650.795 245.917 652.96ZM247.361 608.581C247.361 609.664 247.361 611.107 247.722 612.189C247.722 611.107 247.361 609.664 247.361 608.581Z" fill="#CBCCCE"/>
<path d="M413.042 648.27C410.877 648.27 409.072 648.631 407.628 648.992C406.184 645.023 401.492 641.776 396.077 641.776C392.829 641.776 389.58 642.858 387.414 644.662C386.331 639.25 380.195 635.282 372.615 635.282C371.171 635.282 369.727 635.282 368.283 635.642C366.839 634.199 363.591 630.591 357.454 628.787C347.347 626.261 337.24 630.952 332.548 634.199C323.163 640.694 322.802 652.961 332.548 663.785C359.259 663.785 386.331 664.146 413.042 664.146C420.262 664.146 426.037 660.538 426.037 656.208C426.037 650.435 415.569 648.27 413.042 648.27Z" fill="#CBCCCE"/>
<path d="M406.545 651.158C404.74 651.158 402.936 651.518 401.492 651.879C400.048 647.91 395.716 645.024 390.663 645.024C387.414 645.024 384.527 646.106 382.722 647.91C381.278 642.859 375.502 639.251 368.644 639.251C367.2 639.251 366.117 639.251 364.674 639.612C363.591 638.169 360.342 634.922 354.567 633.478C345.182 630.953 335.436 635.282 331.104 638.53C322.441 644.663 322.08 656.209 331.104 666.311C356.371 666.311 381.639 666.672 406.906 666.672C413.404 666.672 418.818 663.064 418.818 659.095C418.457 653.322 408.711 651.158 406.545 651.158Z" fill="#CBCCCE"/>
<path d="M419.179 668.114H332.187C331.826 667.753 331.465 667.392 331.105 667.031C323.163 658.011 323.524 648.269 331.105 642.857C334.714 640.332 343.016 636.363 351.318 638.528C356.372 639.61 358.899 642.497 359.981 643.94C361.064 643.579 362.147 643.579 363.23 643.579C369.367 643.579 374.42 646.826 375.142 651.156C376.947 649.713 379.473 648.63 382 648.63C386.332 648.63 390.302 651.156 391.385 654.403C392.829 654.042 394.273 653.681 395.717 653.681C397.161 653.681 401.853 654.403 404.38 656.929C405.463 656.929 406.546 656.568 407.99 656.568C409.433 656.568 417.735 657.65 419.54 662.341C419.901 663.062 420.262 664.506 419.179 666.67C420.262 667.031 419.901 667.392 419.179 668.114Z" fill="#CBCCCE"/>
<path d="M420.624 650.436C422.789 650.436 424.594 650.797 426.038 651.158C427.482 647.189 432.174 643.942 437.589 643.942C440.837 643.942 444.086 645.024 446.252 646.828C447.335 641.416 453.471 637.448 461.051 637.448C462.495 637.448 463.939 637.448 465.383 637.808C466.827 636.365 470.075 632.757 476.212 630.953C486.319 628.428 496.426 633.118 501.118 636.365C510.503 642.86 510.864 655.127 501.118 665.951C474.407 665.951 447.335 666.312 420.624 666.312C413.404 666.312 407.629 662.704 407.629 658.374C407.629 652.601 418.097 650.436 420.624 650.436Z" fill="#CBCCCE"/>
<path d="M423.149 651.878C424.954 651.878 426.759 652.239 428.203 652.599C429.647 648.631 433.978 645.744 439.032 645.744C442.28 645.744 445.168 646.827 446.973 648.631C447.695 643.579 453.831 639.611 460.689 639.611C462.133 639.611 463.216 639.611 464.66 639.971C465.743 638.528 468.992 635.281 474.767 633.838C484.152 631.312 493.898 635.642 498.23 638.889C506.893 645.023 507.254 656.568 498.23 666.671C472.962 666.671 447.695 667.031 422.427 667.031C415.93 667.031 410.516 663.423 410.516 659.455C410.877 653.682 420.984 651.878 423.149 651.878Z" fill="#CBCCCE"/>
<path d="M504.728 663.785C502.923 665.229 501.118 666.672 499.313 668.115H420.984C418.458 666.311 417.014 664.507 415.931 663.785C414.848 661.621 415.209 660.177 415.57 659.456C417.375 654.765 425.677 653.683 427.121 653.683C428.204 653.683 429.648 653.683 430.73 654.044C433.257 651.879 437.95 650.796 439.393 650.796C440.837 650.796 442.642 651.157 443.725 651.518C444.808 648.271 448.779 645.745 453.11 645.745C455.998 645.745 458.164 646.828 459.968 648.271C460.69 643.941 465.744 640.694 471.88 640.694C472.963 640.694 474.046 640.694 475.129 641.055C476.212 639.612 478.738 636.725 483.792 635.643C492.094 633.478 500.396 637.086 504.006 639.972C512.308 645.024 512.669 654.765 504.728 663.785Z" fill="#CBCCCE"/>
<path d="M416.292 657.651C415.209 657.651 414.126 657.651 413.404 658.011C412.682 655.847 410.155 654.043 407.267 654.043C405.463 654.043 403.658 654.764 402.575 655.486C402.214 652.599 398.604 650.435 394.634 650.435C393.912 650.435 393.19 650.435 392.468 650.795C391.746 650.074 389.941 647.909 386.693 647.187C381.278 645.744 375.864 648.27 373.337 650.074C368.284 653.682 368.284 660.176 373.337 665.949C387.775 665.949 402.214 665.949 416.292 665.949C420.262 665.949 423.15 663.784 423.15 661.619C423.15 658.733 417.735 657.651 416.292 657.651Z" fill="#CBCCCE"/>
<path d="M412.681 659.095C411.599 659.095 410.877 659.095 409.794 659.456C409.072 657.291 406.906 655.848 404.018 655.848C402.214 655.848 400.77 656.569 399.687 657.291C399.326 654.765 396.077 652.601 392.468 652.601C391.746 652.601 391.024 652.601 390.302 652.961C389.58 652.24 388.136 650.436 384.887 649.714C379.834 648.271 374.78 650.797 372.254 652.24C367.561 655.487 367.2 661.621 372.254 667.033C385.609 667.033 399.326 667.033 412.681 667.033C416.291 667.033 419.179 665.229 419.179 663.064C419.179 660.177 414.125 659.095 412.681 659.095Z" fill="#CBCCCE"/>
<path d="M419.54 668.114H372.975C372.614 667.753 372.614 667.753 372.253 667.392C367.922 662.702 368.283 657.29 372.253 654.403C374.419 652.96 378.751 651.156 383.082 652.238C385.609 652.96 387.053 654.403 387.775 655.125C388.497 655.125 388.858 654.764 389.58 654.764C392.828 654.764 395.716 656.568 396.077 658.733C397.16 658.011 398.243 657.29 399.687 657.29C402.213 657.29 404.018 658.733 404.74 660.537C405.462 660.176 406.184 660.176 407.267 660.176C407.989 660.176 410.515 660.537 411.959 661.98C412.681 661.98 413.042 661.98 413.764 661.98C414.486 661.98 419.179 662.702 419.901 664.866C419.901 665.227 420.261 665.949 419.901 667.031C420.261 667.753 419.9 667.753 419.54 668.114Z" fill="#CBCCCE"/>
<path d="M420.263 658.735C421.345 658.735 422.428 658.735 423.15 659.095C423.872 656.931 426.399 655.127 429.287 655.127C431.091 655.127 432.896 655.848 433.979 656.57C434.34 653.683 437.95 651.519 441.92 651.519C442.642 651.519 443.364 651.519 444.086 651.879C444.808 651.158 446.613 648.993 449.861 648.271C455.276 646.828 460.69 649.354 463.217 651.158C468.271 654.766 468.271 661.26 463.217 667.033C448.779 667.033 434.34 667.033 420.263 667.033C416.292 667.033 413.404 664.868 413.404 662.703C413.404 659.817 418.819 658.735 420.263 658.735Z" fill="#CBCCCE"/>
<path d="M421.706 659.454C422.789 659.454 423.511 659.454 424.594 659.815C425.316 657.65 427.482 656.207 430.369 656.207C432.174 656.207 433.618 656.929 434.701 657.65C435.062 655.125 438.311 652.96 441.92 652.96C442.642 652.96 443.364 652.96 444.086 653.321C444.808 652.599 446.252 650.795 449.5 650.074C454.554 648.63 459.607 651.156 462.134 652.599C466.827 655.846 467.188 661.98 462.134 667.392C448.778 667.392 435.062 667.392 421.706 667.392C418.097 667.392 415.209 665.588 415.209 663.423C415.209 660.537 420.623 659.454 421.706 659.454Z" fill="#CBCCCE"/>
<path d="M460.69 668.116H418.819C417.375 667.033 416.653 666.312 416.292 665.951C415.57 664.869 415.931 664.147 416.292 663.786C417.375 661.26 421.706 660.9 422.428 660.9C423.15 660.9 423.872 660.9 424.233 660.9C425.677 659.817 428.204 659.096 428.925 659.096C429.647 659.096 430.73 659.096 431.452 659.456C432.174 657.652 433.979 656.209 436.506 656.209C437.95 656.209 439.393 656.57 440.115 657.652C440.476 655.488 443.364 653.684 446.613 653.684C447.335 653.684 447.696 653.684 448.417 654.044C449.5 653.323 450.944 652.24 453.11 651.158C462.134 646.468 476.933 644.303 482.348 651.158C483.792 653.323 484.875 656.57 484.153 659.456C481.987 664.868 472.963 669.559 460.69 668.116Z" fill="#CBCCCE"/>
<path d="M274.073 542.555H272.629V589.82H274.073V542.555Z" fill="#CBCCCE"/>
<path d="M285.985 542.555H284.541V589.82H285.985V542.555Z" fill="#CBCCCE"/>
<path d="M284.901 546.523H274.072V547.245H284.901V546.523Z" fill="#CBCCCE"/>
<path d="M284.901 549.41H274.072V550.132H284.901V549.41Z" fill="#CBCCCE"/>
<path d="M284.901 552.658H274.072V553.38H284.901V552.658Z" fill="#CBCCCE"/>
<path d="M284.901 555.543H274.072V556.265H284.901V555.543Z" fill="#CBCCCE"/>
<path d="M284.901 558.43H274.072V559.151H284.901V558.43Z" fill="#CBCCCE"/>
<path d="M284.901 561.316H274.072V562.038H284.901V561.316Z" fill="#CBCCCE"/>
<path d="M284.901 564.203H274.072V564.925H284.901V564.203Z" fill="#CBCCCE"/>
<path d="M284.901 567.09H274.072V567.811H284.901V567.09Z" fill="#CBCCCE"/>
<path d="M284.901 569.977H274.072V570.698H284.901V569.977Z" fill="#CBCCCE"/>
<path d="M284.901 573.223H274.072V573.944H284.901V573.223Z" fill="#CBCCCE"/>
<path d="M284.901 576.109H274.072V576.831H284.901V576.109Z" fill="#CBCCCE"/>
<path d="M284.901 578.996H274.072V579.718H284.901V578.996Z" fill="#CBCCCE"/>
<path d="M297.895 548.688H294.646V656.928H297.895V548.688Z" fill="#CBCCCE"/>
<path d="M324.606 548.688H321.357V656.928H324.606V548.688Z" fill="#CBCCCE"/>
<path d="M322.08 557.707H297.174V559.15H322.08V557.707Z" fill="#CBCCCE"/>
<path d="M322.08 564.562H297.174V566.006H322.08V564.562Z" fill="#CBCCCE"/>
<path d="M322.08 571.057H297.174V572.5H322.08V571.057Z" fill="#CBCCCE"/>
<path d="M322.08 577.912H297.174V579.355H322.08V577.912Z" fill="#CBCCCE"/>
<path d="M322.08 584.768H297.174V586.211H322.08V584.768Z" fill="#CBCCCE"/>
<path d="M322.08 591.623H297.174V593.066H322.08V591.623Z" fill="#CBCCCE"/>
<path d="M322.08 598.117H297.174V599.56H322.08V598.117Z" fill="#CBCCCE"/>
<path d="M322.08 604.973H297.174V606.416H322.08V604.973Z" fill="#CBCCCE"/>
<path d="M322.08 611.828H297.174V613.271H322.08V611.828Z" fill="#CBCCCE"/>
<path d="M322.08 618.684H297.174V620.127H322.08V618.684Z" fill="#CBCCCE"/>
<path d="M322.08 625.178H297.174V626.621H322.08V625.178Z" fill="#CBCCCE"/>
<path d="M322.08 632.033H297.174V633.476H322.08V632.033Z" fill="#CBCCCE"/>
<path d="M284.18 638.889C284.902 638.889 285.624 638.528 285.985 638.528C287.429 638.167 288.511 637.806 289.233 637.446C288.511 642.136 287.79 647.187 286.707 651.878C287.429 651.517 288.151 651.156 288.872 650.795C287.79 654.403 286.346 658.372 285.263 662.702C284.902 664.145 284.541 665.588 284.18 667.392H291.399C291.76 666.67 292.121 665.949 292.121 665.588C293.204 663.423 294.287 660.898 296.092 656.929C295.37 659.815 294.648 663.423 294.287 667.392H300.784C300.784 666.67 300.784 665.949 300.784 665.227C300.784 659.815 302.95 656.929 303.311 650.795C303.311 650.074 303.311 649.352 303.311 648.991C303.672 648.63 304.755 648.27 305.116 647.548C305.838 646.466 305.477 645.383 305.477 645.022C305.116 641.054 306.921 635.281 304.755 623.013C304.394 621.209 304.033 618.684 301.867 617.241C300.423 616.158 300.062 616.88 298.979 615.797C296.453 613.633 298.618 609.664 296.092 607.499C295.009 606.417 293.204 606.056 291.76 606.417C289.233 607.138 288.511 609.303 288.151 609.664C287.429 610.025 287.068 610.746 287.068 610.746C287.068 611.107 287.79 611.107 288.511 610.746C287.79 612.55 288.151 613.633 288.511 614.354C289.233 615.437 289.955 615.437 290.677 616.88C291.038 617.601 291.038 618.323 290.677 619.405C290.677 620.849 290.316 622.292 289.955 622.653C289.233 624.817 287.429 628.425 284.18 632.033C282.375 631.673 280.57 633.477 280.57 635.281C281.292 637.085 282.375 638.528 284.18 638.889Z" fill="#CBCCCE"/>
<path d="M119.581 635.28C119.581 635.64 119.581 636.723 119.942 637.805C120.664 638.888 121.386 639.248 122.108 639.609C122.108 639.97 122.108 640.692 122.108 641.774C122.469 650.433 122.83 656.206 123.191 659.453C123.191 661.618 123.552 664.505 123.552 667.391H130.41C130.771 665.587 130.771 663.422 131.132 661.618C131.493 658.371 131.854 655.124 131.854 652.237C132.937 654.402 134.02 656.206 134.741 658.01C136.546 662.34 137.268 664.144 137.268 665.226C137.629 665.948 137.629 666.669 137.629 667.391H145.209C144.127 663.422 143.405 659.093 141.961 654.763C140.517 650.073 139.434 645.743 137.99 641.774C138.712 642.135 139.434 642.496 140.517 642.857C139.795 637.444 138.712 632.393 137.99 626.981C139.073 627.342 140.156 628.064 141.6 628.424C142.322 628.424 143.044 628.424 143.766 628.785C144.127 628.424 144.487 628.424 144.487 628.424L176.252 667.391H178.418L145.931 627.342C146.653 626.62 147.014 625.899 147.014 624.816C147.014 623.012 145.209 621.208 143.044 621.569C139.434 617.6 137.268 613.632 136.546 611.106C136.185 610.384 136.185 608.941 135.824 607.498C135.824 606.055 135.463 605.333 135.824 604.612C136.185 603.168 137.268 603.168 137.99 601.725C138.351 601.004 138.712 599.921 137.99 597.756C138.712 598.117 139.434 597.756 139.795 597.396C139.795 597.035 139.434 596.313 138.712 595.952C138.712 595.591 137.629 593.066 134.741 592.344C133.298 591.983 131.493 592.344 130.049 593.427C127.522 595.952 129.688 599.921 126.8 602.447C125.717 603.529 124.995 602.808 123.552 603.89C121.386 605.694 120.664 608.22 120.303 610.384C118.137 624.456 119.942 630.589 119.581 635.28Z" fill="#CBCCCE"/>
<path d="M440.115 546.885H437.588V604.613H440.115V546.885Z" fill="#CBCCCE"/>
<path d="M454.554 546.885H452.027V604.613H454.554V546.885Z" fill="#CBCCCE"/>
<path d="M452.748 549.051H439.393V550.494H452.748V549.051Z" fill="#CBCCCE"/>
<path d="M452.027 558.43H438.672V559.151H452.027V558.43Z" fill="#CBCCCE"/>
<path d="M452.748 566.729H439.393V568.172H452.748V566.729Z" fill="#CBCCCE"/>
<path d="M452.387 575.748H439.031V576.47H452.387V575.748Z" fill="#CBCCCE"/>
<path d="M452.748 584.047H439.393V585.49H452.748V584.047Z" fill="#CBCCCE"/>
<path d="M452.748 593.428H439.393V594.149H452.748V593.428Z" fill="#CBCCCE"/>
<path d="M439.754 550.493L452.027 558.431V558.07L440.115 549.771L439.754 550.493Z" fill="#CBCCCE"/>
<path d="M439.754 558.429L440.115 558.79L452.027 550.852V550.131L439.754 558.429Z" fill="#CBCCCE"/>
<path d="M439.754 568.173L452.027 576.11V575.389L440.115 567.451L439.754 568.173Z" fill="#CBCCCE"/>
<path d="M439.754 575.748L440.115 576.47L452.027 568.171V567.811L439.754 575.748Z" fill="#CBCCCE"/>
<path d="M439.754 585.491L452.027 593.429V593.068L440.115 584.77L439.754 585.491Z" fill="#CBCCCE"/>
<path d="M439.754 593.068L440.115 593.79L452.027 585.852V585.131L439.754 593.068Z" fill="#CBCCCE"/>
<path d="M284.54 637.085C284.54 637.446 284.54 638.528 284.179 639.25C283.818 639.972 283.096 640.332 282.374 640.693C282.374 641.054 282.374 641.776 282.374 642.497C282.013 650.074 281.652 654.404 281.652 657.29C281.652 659.094 281.291 661.259 281.652 664.145H275.877C275.877 662.702 275.516 660.898 275.516 659.094C275.155 656.568 275.155 653.682 274.794 651.156C273.711 652.96 272.989 654.764 272.628 655.847C270.824 659.455 270.463 661.259 270.463 661.98C270.463 662.702 270.102 663.424 270.102 663.784H263.604C264.326 660.537 265.409 656.929 266.131 653.321C267.214 649.352 268.297 645.744 269.38 642.497C268.658 642.858 267.936 643.219 267.214 643.219C267.936 638.889 268.658 634.199 269.38 629.869C268.658 630.23 267.575 630.591 266.492 630.951C265.77 630.951 265.048 631.312 264.687 631.312C264.326 631.312 264.326 631.312 263.965 630.951L237.254 663.784H235.449L262.882 630.23C262.521 629.508 262.16 628.787 262.16 628.065C262.16 626.261 263.604 625.179 265.77 625.179C269.019 621.571 270.824 618.323 271.185 616.519C271.185 615.798 271.545 614.715 271.906 613.272C271.906 612.19 271.906 611.468 271.906 610.747C271.545 609.664 270.463 609.303 270.102 608.582C269.741 607.86 269.38 606.778 270.102 605.335C269.38 605.695 268.658 605.335 268.658 605.335C268.658 604.974 269.019 604.613 269.741 604.252C269.741 603.891 270.824 601.727 272.989 601.366C274.433 601.005 275.877 601.366 276.96 602.448C279.126 604.613 277.321 608.221 279.487 610.025C280.57 610.747 280.931 610.386 282.013 611.468C283.818 612.911 284.179 615.076 284.54 616.88C285.984 628.065 284.54 633.477 284.54 637.085Z" fill="#CBCCCE"/>
<path d="M509.781 664.867H195.383V668.114H509.781V664.867Z" fill="#CBCCCE"/>
<path d="M196.105 668.114C208.265 668.114 218.123 658.26 218.123 646.105C218.123 633.949 208.265 624.096 196.105 624.096C183.944 624.096 174.086 633.949 174.086 646.105C174.086 658.26 183.944 668.114 196.105 668.114Z" fill="#CBCCCE"/>
<path d="M196.105 666.31C207.268 666.31 216.318 657.264 216.318 646.105C216.318 634.946 207.268 625.9 196.105 625.9C184.941 625.9 175.891 634.946 175.891 646.105C175.891 657.264 184.941 666.31 196.105 666.31Z" fill="#CBCCCE"/>
<path d="M196.104 664.865C206.47 664.865 214.874 656.465 214.874 646.103C214.874 635.742 206.47 627.342 196.104 627.342C185.738 627.342 177.334 635.742 177.334 646.103C177.334 656.465 185.738 664.865 196.104 664.865Z" fill="#CBCCCE"/>
<path d="M196.104 663.062C205.474 663.062 213.069 655.47 213.069 646.104C213.069 636.739 205.474 629.146 196.104 629.146C186.734 629.146 179.139 636.739 179.139 646.104C179.139 655.47 186.734 663.062 196.104 663.062Z" fill="#CBCCCE"/>
<path d="M196.105 661.619C204.678 661.619 211.627 654.673 211.627 646.104C211.627 637.536 204.678 630.59 196.105 630.59C187.533 630.59 180.584 637.536 180.584 646.104C180.584 654.673 187.533 661.619 196.105 661.619Z" fill="#CBCCCE"/>
<path d="M196.105 659.815C203.681 659.815 209.822 653.677 209.822 646.105C209.822 638.533 203.681 632.395 196.105 632.395C188.53 632.395 182.389 638.533 182.389 646.105C182.389 653.677 188.53 659.815 196.105 659.815Z" fill="#CBCCCE"/>
<path d="M196.104 658.733C203.082 658.733 208.738 653.079 208.738 646.105C208.738 639.13 203.082 633.477 196.104 633.477C189.127 633.477 183.471 639.13 183.471 646.105C183.471 653.079 189.127 658.733 196.104 658.733Z" fill="#CBCCCE"/>
<path d="M196.105 658.012C202.684 658.012 208.017 652.681 208.017 646.106C208.017 639.53 202.684 634.199 196.105 634.199C189.526 634.199 184.193 639.53 184.193 646.106C184.193 652.681 189.526 658.012 196.105 658.012Z" fill="#CBCCCE"/>
<path d="M196.104 656.929C202.085 656.929 206.933 652.083 206.933 646.105C206.933 640.127 202.085 635.281 196.104 635.281C190.124 635.281 185.275 640.127 185.275 646.105C185.275 652.083 190.124 656.929 196.104 656.929Z" fill="#CBCCCE"/>
<path d="M196.105 655.847C201.488 655.847 205.851 651.485 205.851 646.105C205.851 640.725 201.488 636.363 196.105 636.363C190.723 636.363 186.359 640.725 186.359 646.105C186.359 651.485 190.723 655.847 196.105 655.847Z" fill="#CBCCCE"/>
<path d="M196.104 655.124C201.088 655.124 205.128 651.086 205.128 646.104C205.128 641.122 201.088 637.084 196.104 637.084C191.12 637.084 187.08 641.122 187.08 646.104C187.08 651.086 191.12 655.124 196.104 655.124Z" fill="#CBCCCE"/>
<path d="M196.105 654.041C200.491 654.041 204.046 650.488 204.046 646.104C204.046 641.72 200.491 638.166 196.105 638.166C191.719 638.166 188.164 641.72 188.164 646.104C188.164 650.488 191.719 654.041 196.105 654.041Z" fill="#CBCCCE"/>
<path d="M787.361 660.176H565.369V663.423H787.361V660.176Z" fill="#CBCCCE"/>
<path d="M566.091 663.783C578.252 663.783 588.11 653.93 588.11 641.775C588.11 629.619 578.252 619.766 566.091 619.766C553.93 619.766 544.072 629.619 544.072 641.775C544.072 653.93 553.93 663.783 566.091 663.783Z" fill="#CBCCCE"/>
<path d="M566.091 661.98C577.255 661.98 586.305 652.934 586.305 641.775C586.305 630.616 577.255 621.57 566.091 621.57C554.927 621.57 545.877 630.616 545.877 641.775C545.877 652.934 554.927 661.98 566.091 661.98Z" fill="#CBCCCE"/>
<path d="M566.09 660.535C576.457 660.535 584.86 652.135 584.86 641.773C584.86 631.412 576.457 623.012 566.09 623.012C555.724 623.012 547.32 631.412 547.32 641.773C547.32 652.135 555.724 660.535 566.09 660.535Z" fill="#CBCCCE"/>
<path d="M566.09 658.732C575.46 658.732 583.055 651.14 583.055 641.774C583.055 632.409 575.46 624.816 566.09 624.816C556.721 624.816 549.125 632.409 549.125 641.774C549.125 651.14 556.721 658.732 566.09 658.732Z" fill="#CBCCCE"/>
<path d="M566.092 657.289C574.664 657.289 581.613 650.343 581.613 641.774C581.613 633.206 574.664 626.26 566.092 626.26C557.519 626.26 550.57 633.206 550.57 641.774C550.57 650.343 557.519 657.289 566.092 657.289Z" fill="#CBCCCE"/>
<path d="M566.092 655.485C573.667 655.485 579.808 649.347 579.808 641.775C579.808 634.203 573.667 628.064 566.092 628.064C558.516 628.064 552.375 634.203 552.375 641.775C552.375 649.347 558.516 655.485 566.092 655.485Z" fill="#CBCCCE"/>
<path d="M566.091 654.403C573.068 654.403 578.724 648.749 578.724 641.775C578.724 634.8 573.068 629.146 566.091 629.146C559.113 629.146 553.457 634.8 553.457 641.775C553.457 648.749 559.113 654.403 566.091 654.403Z" fill="#CBCCCE"/>
<path d="M566.091 653.682C572.67 653.682 578.003 648.351 578.003 641.776C578.003 635.2 572.67 629.869 566.091 629.869C559.513 629.869 554.18 635.2 554.18 641.776C554.18 648.351 559.513 653.682 566.091 653.682Z" fill="#CBCCCE"/>
<path d="M566.091 652.599C572.071 652.599 576.919 647.753 576.919 641.775C576.919 635.797 572.071 630.951 566.091 630.951C560.11 630.951 555.262 635.797 555.262 641.775C555.262 647.753 560.11 652.599 566.091 652.599Z" fill="#CBCCCE"/>
<path d="M566.092 651.516C571.474 651.516 575.838 647.155 575.838 641.775C575.838 636.395 571.474 632.033 566.092 632.033C560.709 632.033 556.346 636.395 556.346 641.775C556.346 647.155 560.709 651.516 566.092 651.516Z" fill="#CBCCCE"/>
<path d="M566.09 650.794C571.074 650.794 575.115 646.756 575.115 641.774C575.115 636.792 571.074 632.754 566.09 632.754C561.107 632.754 557.066 636.792 557.066 641.774C557.066 646.756 561.107 650.794 566.09 650.794Z" fill="#CBCCCE"/>
<path d="M566.092 649.711C570.477 649.711 574.033 646.157 574.033 641.774C574.033 637.39 570.477 633.836 566.092 633.836C561.706 633.836 558.15 637.39 558.15 641.774C558.15 646.157 561.706 649.711 566.092 649.711Z" fill="#CBCCCE"/>
<path d="M787.361 652.238H634.312V655.125H787.361V652.238Z" fill="#CBCCCE"/>
<path d="M635.035 655.486C645.8 655.486 654.527 646.763 654.527 636.003C654.527 625.243 645.8 616.52 635.035 616.52C624.27 616.52 615.543 625.243 615.543 636.003C615.543 646.763 624.27 655.486 635.035 655.486Z" fill="#CBCCCE"/>
<path d="M635.034 654.043C645.002 654.043 653.083 645.966 653.083 636.003C653.083 626.04 645.002 617.963 635.034 617.963C625.067 617.963 616.986 626.04 616.986 636.003C616.986 645.966 625.067 654.043 635.034 654.043Z" fill="#CBCCCE"/>
<path d="M635.036 652.6C644.206 652.6 651.64 645.169 651.64 636.003C651.64 626.837 644.206 619.406 635.036 619.406C625.866 619.406 618.432 626.837 618.432 636.003C618.432 645.169 625.866 652.6 635.036 652.6Z" fill="#CBCCCE"/>
<path d="M635.035 651.157C643.408 651.157 650.196 644.372 650.196 636.003C650.196 627.634 643.408 620.85 635.035 620.85C626.663 620.85 619.875 627.634 619.875 636.003C619.875 644.372 626.663 651.157 635.035 651.157Z" fill="#CBCCCE"/>
<path d="M635.035 649.352C642.411 649.352 648.391 643.375 648.391 636.002C648.391 628.629 642.411 622.652 635.035 622.652C627.659 622.652 621.68 628.629 621.68 636.002C621.68 643.375 627.659 649.352 635.035 649.352Z" fill="#CBCCCE"/>
<path d="M635.035 647.909C641.613 647.909 646.947 642.578 646.947 636.002C646.947 629.426 641.613 624.096 635.035 624.096C628.456 624.096 623.123 629.426 623.123 636.002C623.123 642.578 628.456 647.909 635.035 647.909Z" fill="#CBCCCE"/>
<path d="M635.036 647.188C641.216 647.188 646.225 642.18 646.225 636.003C646.225 629.826 641.216 624.818 635.036 624.818C628.856 624.818 623.846 629.826 623.846 636.003C623.846 642.18 628.856 647.188 635.036 647.188Z" fill="#CBCCCE"/>
<path d="M635.034 646.466C640.816 646.466 645.502 641.781 645.502 636.002C645.502 630.224 640.816 625.539 635.034 625.539C629.253 625.539 624.566 630.224 624.566 636.002C624.566 641.781 629.253 646.466 635.034 646.466Z" fill="#CBCCCE"/>
<path d="M635.035 645.385C640.219 645.385 644.42 641.185 644.42 636.004C644.42 630.823 640.219 626.623 635.035 626.623C629.852 626.623 625.65 630.823 625.65 636.004C625.65 641.185 629.852 645.385 635.035 645.385Z" fill="#CBCCCE"/>
<path d="M635.034 644.662C639.819 644.662 643.697 640.785 643.697 636.003C643.697 631.221 639.819 627.344 635.034 627.344C630.25 627.344 626.371 631.221 626.371 636.003C626.371 640.785 630.25 644.662 635.034 644.662Z" fill="#CBCCCE"/>
<path d="M635.035 643.94C639.421 643.94 642.976 640.386 642.976 636.002C642.976 631.618 639.421 628.064 635.035 628.064C630.649 628.064 627.094 631.618 627.094 636.002C627.094 640.386 630.649 643.94 635.035 643.94Z" fill="#CBCCCE"/>
<path d="M635.034 642.859C638.822 642.859 641.892 639.79 641.892 636.004C641.892 632.218 638.822 629.148 635.034 629.148C631.246 629.148 628.176 632.218 628.176 636.004C628.176 639.79 631.246 642.859 635.034 642.859Z" fill="#CBCCCE"/>
</g>
<g clip-path="url(#clip3)">
<path d="M81.9991 619.475V606.006L41.6332 595.077V566.867H52.1079L6.63233 542.978L-37.3103 558.989V535.608H-35.7775V530.779H-37.3103V529H-50.8508V530.779H-52.3837V535.608H-50.8508V563.818L-75.377 572.713H-66.4351V583.641L-9.97392 589.994V667.254H82.2546V624.812H46.4873V619.729H81.9991V619.475ZM31.414 623.287H20.4283V618.459H31.414V623.287ZM31.414 611.088H20.4283V606.26H31.414V611.088ZM31.414 598.89H20.4283V594.061H31.414V598.89ZM31.414 586.691H20.4283V581.862H31.414V586.691ZM31.414 574.746H20.4283V569.917H31.414V574.746ZM48.5312 638.79H67.9477V643.873H48.5312V638.79Z" fill="#F5F5F6"/>
</g>
</g>
<defs>
<clipPath id="clip0">
<rect width="1280" height="672" fill="white"/>
</clipPath>
<clipPath id="clip1">
<rect width="668.232" height="207.805" fill="white" transform="translate(717 461.195)"/>
</clipPath>
<clipPath id="clip2">
<rect width="675" height="324" fill="white" transform="translate(112 347)"/>
</clipPath>
<clipPath id="clip3">
<rect width="303" height="138" fill="white" transform="translate(-221 529)"/>
</clipPath>
</defs>
</svg>
