<svg width="2500" height="960" viewBox="0 0 2500 960" fill="none" xmlns="http://www.w3.org/2000/svg">
<g clip-path="url(#clip0)">
<g opacity="0.16">
<path d="M756 575H674V961H756V575Z" fill="#E0E5ED" fill-opacity="0.36"/>
<path d="M827 699H745V961H827V699Z" fill="#E0E5ED" fill-opacity="0.36"/>
<path d="M873 599H820V961H873V599Z" fill="#E0E5ED" fill-opacity="0.36"/>
<path d="M952 634H873V961H952V634Z" fill="#E0E5ED" fill-opacity="0.36"/>
<path d="M1055 606H993V993H1055V606Z" fill="#E0E5ED" fill-opacity="0.36"/>
<path d="M1235 683H1151V961H1235V683Z" fill="#E0E5ED" fill-opacity="0.36"/>
<path d="M1345.96 499.104H1286.08V801H1345.96V499.104Z" fill="#E0E5ED" fill-opacity="0.36"/>
<path d="M1478 534H1393V980H1478V534Z" fill="#E0E5ED" fill-opacity="0.36"/>
<path d="M1391 688H1223V961H1391V688Z" fill="#E0E5ED" fill-opacity="0.36"/>
<path d="M1612.61 474H1546.46V801H1612.61V474Z" fill="#E0E5ED" fill-opacity="0.36"/>
<path d="M1578 603H1498V990H1578V603Z" fill="#E0E5ED" fill-opacity="0.36"/>
<path d="M1533 734H1444V998H1533V734Z" fill="#E0E5ED" fill-opacity="0.36"/>
<path d="M1844 799H1717V965H1844V799Z" fill="#E0E5ED" fill-opacity="0.36"/>
<path d="M1726 580H1650V998H1726V580Z" fill="#E0E5ED" fill-opacity="0.36"/>
<path d="M1670 657H1578V990H1670V657Z" fill="#E0E5ED" fill-opacity="0.36"/>
<path d="M1937 770H1830V980H1937V770Z" fill="#E0E5ED" fill-opacity="0.36"/>
<path d="M1985 770H1935V1009H1985V770Z" fill="#E0E5ED" fill-opacity="0.36"/>
<path d="M2056 654H1982V998H2056V654Z" fill="#E0E5ED" fill-opacity="0.36"/>
<path d="M109 613H24V1043H109V613Z" fill="#E0E5ED" fill-opacity="0.36"/>
<path d="M24 767H-146V1059H24V767Z" fill="#E0E5ED" fill-opacity="0.36"/>
<path d="M243.612 553H177.462V880H243.612V553Z" fill="#E0E5ED" fill-opacity="0.36"/>
<path d="M209 682H129V1044H209V682Z" fill="#E0E5ED" fill-opacity="0.36"/>
<path d="M164 813H75V1043H164V813Z" fill="#E0E5ED" fill-opacity="0.36"/>
<path d="M475 582H348V1059H475V582Z" fill="#E0E5ED" fill-opacity="0.36"/>
<path d="M357 659H281V1044H357V659Z" fill="#E0E5ED" fill-opacity="0.36"/>
<path d="M301 736H209V1048H301V736Z" fill="#E0E5ED" fill-opacity="0.36"/>
<path d="M568 682H461V1044H568V682Z" fill="#E0E5ED" fill-opacity="0.36"/>
<path d="M616 582H566V1053H616V582Z" fill="#E0E5ED" fill-opacity="0.36"/>
<path d="M687 733H613V1044H687V733Z" fill="#E0E5ED" fill-opacity="0.36"/>
<path d="M2138 580H2056V978H2138V580Z" fill="url(#paint0_radial)"/>
<path d="M2138 580H2056V978H2138V580Z" fill="#E0E5ED"/>
<path d="M2209 704H2127V960H2209V704Z" fill="url(#paint1_radial)"/>
<path d="M2209 704H2127V960H2209V704Z" fill="#E0E5ED"/>
<path d="M2255 604H2202V978H2255V604Z" fill="url(#paint2_radial)"/>
<path d="M2255 604H2202V978H2255V604Z" fill="#E0E5ED"/>
<path d="M2334 669H2255V978H2334V669Z" fill="url(#paint3_radial)"/>
<path d="M2334 669H2255V978H2334V669Z" fill="#E0E5ED"/>
<path d="M2437 618H2375V978H2437V618Z" fill="url(#paint4_radial)"/>
<path d="M2437 618H2375V978H2437V618Z" fill="#E0E5ED"/>
</g>
</g>
<defs>
<radialGradient id="paint0_radial" cx="0" cy="0" r="1" gradientUnits="userSpaceOnUse" gradientTransform="translate(2383.29 -10.5658) scale(1842.96 2342.46)">
<stop stop-color="#D6D6D6"/>
<stop offset="0.1757" stop-color="#C4C3C5"/>
<stop offset="0.3515" stop-color="#CECED1"/>
<stop offset="0.8788" stop-color="#807D7F"/>
</radialGradient>
<radialGradient id="paint1_radial" cx="0" cy="0" r="1" gradientUnits="userSpaceOnUse" gradientTransform="translate(2454.29 324.139) scale(1842.96 1506.7)">
<stop stop-color="#D6D6D6"/>
<stop offset="0.1757" stop-color="#C4C3C5"/>
<stop offset="0.3515" stop-color="#CECED1"/>
<stop offset="0.8788" stop-color="#807D7F"/>
</radialGradient>
<radialGradient id="paint2_radial" cx="0" cy="0" r="1" gradientUnits="userSpaceOnUse" gradientTransform="translate(2413.54 49.0462) scale(1191.18 2201.2)">
<stop stop-color="#D6D6D6"/>
<stop offset="0.1757" stop-color="#C4C3C5"/>
<stop offset="0.3515" stop-color="#CECED1"/>
<stop offset="0.8788" stop-color="#807D7F"/>
</radialGradient>
<radialGradient id="paint3_radial" cx="0" cy="0" r="1" gradientUnits="userSpaceOnUse" gradientTransform="translate(2570.32 210.495) scale(1775.53 1818.64)">
<stop stop-color="#D6D6D6"/>
<stop offset="0.1757" stop-color="#C4C3C5"/>
<stop offset="0.3515" stop-color="#CECED1"/>
<stop offset="0.8788" stop-color="#807D7F"/>
</radialGradient>
<radialGradient id="paint4_radial" cx="0" cy="0" r="1" gradientUnits="userSpaceOnUse" gradientTransform="translate(2622.46 83.8198) scale(1393.45 2118.8)">
<stop stop-color="#D6D6D6"/>
<stop offset="0.1757" stop-color="#C4C3C5"/>
<stop offset="0.3515" stop-color="#CECED1"/>
<stop offset="0.8788" stop-color="#807D7F"/>
</radialGradient>
<clipPath id="clip0">
<rect width="2500" height="960" fill="white"/>
</clipPath>
</defs>
</svg>
