<svg width="2500" height="960" viewBox="0 0 2500 960" fill="none" xmlns="http://www.w3.org/2000/svg">
<g clip-path="url(#clip0)">
<path d="M2436.9 566.707H2375.02H2373.5H2311.62C2326.82 610.411 2311.87 709.018 2265.38 796.37H2373.5H2375.02H2483.14C2436.66 709.018 2418.97 631.21 2436.9 566.707Z" fill="#EBECED"/>
<path d="M2483.01 805.008H2265.38V807.878H2483.01V805.008Z" fill="#EBECED"/>
<path d="M2266.4 796.344H2265.38V807.203H2266.4V796.344Z" fill="#EBECED"/>
<path d="M2482.96 796.344H2482.04V807.203H2482.96V796.344Z" fill="#EBECED"/>
<path d="M2266.42 806L2265.69 805.293L2276.21 794.83L2276.93 795.551L2266.42 806Z" fill="#EBECED"/>
<path d="M2286.09 806.394L2285.37 807.115L2274.85 796.652L2275.57 795.945L2286.09 806.394Z" fill="#EBECED"/>
<path d="M2284.41 806L2283.69 805.293L2294.21 794.83L2294.92 795.551L2284.41 806Z" fill="#EBECED"/>
<path d="M2304.08 806.394L2303.36 807.115L2292.85 796.652L2293.56 795.945L2304.08 806.394Z" fill="#EBECED"/>
<path d="M2302.4 806L2301.68 805.293L2312.2 794.83L2312.92 795.551L2302.4 806Z" fill="#EBECED"/>
<path d="M2322.08 806.394L2321.36 807.115L2310.84 796.652L2311.56 795.945L2322.08 806.394Z" fill="#EBECED"/>
<path d="M2320.38 806L2319.68 805.293L2330.18 794.83L2330.9 795.551L2320.38 806Z" fill="#EBECED"/>
<path d="M2340.07 806.394L2339.35 807.115L2328.84 796.652L2329.55 795.945L2340.07 806.394Z" fill="#EBECED"/>
<path d="M2338.38 806L2337.66 805.293L2348.18 794.83L2348.9 795.551L2338.38 806Z" fill="#EBECED"/>
<path d="M2358.06 806.394L2357.34 807.115L2346.82 796.652L2347.54 795.945L2358.06 806.394Z" fill="#EBECED"/>
<path d="M2356.37 806L2355.66 805.293L2366.17 794.83L2366.89 795.551L2356.37 806Z" fill="#EBECED"/>
<path d="M2376.05 806.394L2375.33 807.115L2364.81 796.652L2365.53 795.945L2376.05 806.394Z" fill="#EBECED"/>
<path d="M2374.37 806L2373.65 805.293L2384.17 794.83L2384.87 795.551L2374.37 806Z" fill="#EBECED"/>
<path d="M2394.04 806.394L2393.31 807.115L2382.81 796.652L2383.52 795.945L2394.04 806.394Z" fill="#EBECED"/>
<path d="M2392.35 806L2391.63 805.293L2402.15 794.83L2402.87 795.551L2392.35 806Z" fill="#EBECED"/>
<path d="M2412.03 806.394L2411.31 807.115L2400.79 796.652L2401.51 795.945L2412.03 806.394Z" fill="#EBECED"/>
<path d="M2410.34 806L2409.63 805.293L2420.13 794.83L2420.86 795.551L2410.34 806Z" fill="#EBECED"/>
<path d="M2430.02 806.394L2429.3 807.115L2418.79 796.652L2419.5 795.945L2430.02 806.394Z" fill="#EBECED"/>
<path d="M2428.34 806L2427.61 805.293L2438.13 794.83L2438.86 795.551L2428.34 806Z" fill="#EBECED"/>
<path d="M2448 806.394L2447.3 807.115L2436.78 796.652L2437.48 795.945L2448 806.394Z" fill="#EBECED"/>
<path d="M2446.32 806L2445.6 805.293L2456.12 794.83L2456.84 795.551L2446.32 806Z" fill="#EBECED"/>
<path d="M2466 806.394L2465.28 807.115L2454.76 796.652L2455.48 795.945L2466 806.394Z" fill="#EBECED"/>
<path d="M2464.32 806L2463.6 805.293L2474.12 794.83L2474.83 795.551L2464.32 806Z" fill="#EBECED"/>
<path d="M2482.96 805.376L2473.47 795.945L2472.76 796.652L2482.96 806.804V805.376Z" fill="#EBECED"/>
<path d="M2313.2 551.762H2312.77V567.258H2313.2V551.762Z" fill="#EBECED"/>
<path d="M2313.57 551.594C2313.57 551.919 2313.3 552.188 2312.97 552.188C2312.65 552.188 2312.38 551.933 2312.38 551.594C2312.38 551.269 2312.65 551 2312.97 551C2313.3 551 2313.57 551.269 2313.57 551.594Z" fill="#EBECED"/>
<path d="M2434.07 551.762H2433.65V567.258H2434.07V551.762Z" fill="#EBECED"/>
<path d="M2434.44 551.594C2434.44 551.919 2434.17 552.188 2433.85 552.188C2433.52 552.188 2433.26 551.933 2433.26 551.594C2433.26 551.269 2433.52 551 2433.85 551C2434.17 551 2434.44 551.269 2434.44 551.594Z" fill="#EBECED"/>
<path d="M1139.41 551.762H1138.98V567.258H1139.41V551.762Z" fill="#EBECED"/>
<path d="M1139.78 551.594C1139.78 551.919 1139.51 552.188 1139.18 552.188C1138.86 552.188 1138.59 551.933 1138.59 551.594C1138.59 551.269 1138.86 551 1139.18 551C1139.51 551 1139.78 551.269 1139.78 551.594Z" fill="#EBECED"/>
<path d="M1260.28 551.762H1259.86V567.258H1260.28V551.762Z" fill="#EBECED"/>
<path d="M1260.65 551.594C1260.65 551.919 1260.38 552.188 1260.06 552.188C1259.73 552.188 1259.46 551.933 1259.46 551.594C1259.46 551.269 1259.73 551 1260.06 551C1260.4 551 1260.65 551.269 1260.65 551.594Z" fill="#EBECED"/>
<path d="M2663.4 566.707H2601.51H2600H2538.11C2553.31 610.411 2538.35 709.018 2491.88 796.37H2600H2601.51H2709.63C2663.16 709.018 2645.47 631.21 2663.4 566.707Z" fill="#EBECED"/>
<path d="M2709.51 805.008H2491.88V807.878H2709.51V805.008Z" fill="#EBECED"/>
<path d="M2492.89 796.344H2491.88V807.203H2492.89V796.344Z" fill="#EBECED"/>
<path d="M2492.91 806L2492.19 805.293L2502.71 794.83L2503.43 795.551L2492.91 806Z" fill="#EBECED"/>
<path d="M1073.49 770.131H1023.63V807.882H1073.49V770.131Z" fill="#EBECED"/>
<path d="M1084.65 753.953H1034.78V807.894H1084.65V753.953Z" fill="#EBECED"/>
<path d="M726.692 791.488H551V879.08H726.692V791.488Z" fill="#EBECED"/>
<path d="M766 753.953H590.308V879.107H766V753.953Z" fill="#EBECED"/>
<path d="M1379.01 638.836H1373.76V769.298H1379.01V638.836Z" fill="#EBECED"/>
<path d="M1379.6 639.273C1379.6 639.513 1379.43 639.725 1379.22 639.725H1373.52C1373.31 639.725 1373.14 639.527 1373.14 639.273C1373.14 639.032 1373.31 638.82 1373.52 638.82H1379.22C1379.43 638.834 1379.6 639.032 1379.6 639.273Z" fill="#EBECED"/>
<path d="M1379.6 655.476C1379.6 655.716 1379.43 655.928 1379.22 655.928H1373.52C1373.31 655.928 1373.14 655.73 1373.14 655.476C1373.14 655.236 1373.31 655.023 1373.52 655.023H1379.22C1379.43 655.038 1379.6 655.236 1379.6 655.476Z" fill="#EBECED"/>
<path d="M1379.6 671.693C1379.6 671.933 1379.43 672.145 1379.22 672.145H1373.52C1373.31 672.145 1373.14 671.947 1373.14 671.693C1373.14 671.452 1373.31 671.24 1373.52 671.24H1379.22C1379.43 671.24 1379.6 671.438 1379.6 671.693Z" fill="#EBECED"/>
<path d="M1379.6 687.898C1379.6 688.138 1379.43 688.35 1379.22 688.35H1373.52C1373.31 688.35 1373.14 688.152 1373.14 687.898C1373.14 687.657 1373.31 687.445 1373.52 687.445H1379.22C1379.43 687.445 1379.6 687.643 1379.6 687.898Z" fill="#EBECED"/>
<path d="M1379.6 704.103C1379.6 704.343 1379.43 704.555 1379.22 704.555H1373.52C1373.31 704.555 1373.14 704.357 1373.14 704.103C1373.14 703.862 1373.31 703.65 1373.52 703.65H1379.22C1379.43 703.65 1379.6 703.862 1379.6 704.103Z" fill="#EBECED"/>
<path d="M1379.6 720.302C1379.6 720.542 1379.43 720.755 1379.22 720.755H1373.52C1373.31 720.755 1373.14 720.557 1373.14 720.302C1373.14 720.062 1373.31 719.85 1373.52 719.85H1379.22C1379.43 719.864 1379.6 720.062 1379.6 720.302Z" fill="#EBECED"/>
<path d="M1379.6 736.507C1379.6 736.747 1379.43 736.96 1379.22 736.96H1373.52C1373.31 736.96 1373.14 736.762 1373.14 736.507C1373.14 736.267 1373.31 736.055 1373.52 736.055H1379.22C1379.43 736.069 1379.6 736.267 1379.6 736.507Z" fill="#EBECED"/>
<path d="M1379.6 752.71C1379.6 752.951 1379.43 753.163 1379.22 753.163H1373.52C1373.31 753.163 1373.14 752.965 1373.14 752.71C1373.14 752.47 1373.31 752.258 1373.52 752.258H1379.22C1379.43 752.272 1379.6 752.47 1379.6 752.71Z" fill="#EBECED"/>
<path d="M1399.82 768.164H1352.95V772.83H1399.82V768.164Z" fill="#EBECED"/>
<path d="M1359.39 769.635L1373.33 736.521L1373.54 736.62L1359.61 769.734L1359.39 769.635Z" fill="#EBECED"/>
<path d="M1379.04 736.734L1379.25 736.635L1394.11 768.702L1393.9 768.801L1379.04 736.734Z" fill="#EBECED"/>
<path d="M1355.41 769.773L1373.68 671.676L1373.92 671.718L1355.65 769.816L1355.41 769.773Z" fill="#EBECED"/>
<path d="M1379.08 671.652L1379.32 671.609L1396.93 769.311L1396.7 769.353L1379.08 671.652Z" fill="#EBECED"/>
<path d="M1905.61 604.904H1904.41H1898.34H1897.14V619.934H1898.34V772.722H1904.41V619.934H1905.61V604.904Z" fill="#EBECED"/>
<path d="M1912.41 640.705H1890.34V641.299H1912.41V640.705Z" fill="#EBECED"/>
<path d="M1911.95 640.705H1911.51L1911.86 641.016L1901.37 650.221L1890.89 641.016L1891.25 640.705H1890.79L1890.44 641.016L1901.37 650.617L1912.31 641.016L1912.2 640.917L1911.95 640.705Z" fill="#EBECED"/>
<path d="M1890.34 640.705V660.062H1912.41V640.705H1890.34ZM1891.13 659.383V641.398H1911.63V659.383H1891.13Z" fill="#EBECED"/>
<path d="M1890.44 659.794L1901.37 650.193L1912.2 659.695L1912.09 659.794L1912.2 659.695L1912.31 659.794L1901.38 669.394L1890.44 659.794ZM1890.89 659.794L1901.38 668.998L1911.88 659.794L1901.38 650.589L1890.89 659.794Z" fill="#EBECED"/>
<path d="M1890.34 678.837V659.467H1912.41V678.484V678.823H1890.34V678.837ZM1912.02 678.484V678.13V678.484ZM1891.13 678.145H1911.63V660.16H1891.13V678.145Z" fill="#EBECED"/>
<path d="M1890.44 678.556L1901.37 668.955L1912.2 678.457L1912.09 678.556L1912.2 678.457L1912.31 678.556L1901.38 688.156L1890.44 678.556ZM1890.89 678.556L1901.38 687.76L1911.87 678.556L1901.38 669.351L1890.89 678.556Z" fill="#EBECED"/>
<path d="M1890.34 697.617V678.246H1912.41V697.263V697.617H1890.34ZM1912.02 697.263V696.924V697.263ZM1891.13 696.924H1911.63V678.939H1891.13V696.924Z" fill="#EBECED"/>
<path d="M1890.44 697.329L1901.37 687.729L1912.2 697.23L1912.09 697.329L1912.2 697.23L1912.31 697.329L1901.38 706.93L1890.44 697.329ZM1890.89 697.329L1901.38 706.534L1911.87 697.329L1901.38 688.124L1890.89 697.329Z" fill="#EBECED"/>
<path d="M1890.34 716.461V697.09H1912.41V716.107V716.461H1890.34ZM1912.02 716.107V715.768V716.107ZM1891.13 715.768H1911.63V697.783H1891.13V715.768Z" fill="#EBECED"/>
<path d="M1890.44 716.179L1901.37 706.578L1912.2 716.08L1912.09 716.179L1912.2 716.08L1912.31 716.179L1901.38 725.779L1890.44 716.179ZM1890.89 716.179L1901.38 725.383L1911.87 716.179L1901.38 706.974L1890.89 716.179Z" fill="#EBECED"/>
<path d="M1890.34 735.222V715.852H1912.41V734.869V735.222H1890.34ZM1912.02 734.883V734.544V734.883ZM1891.13 734.529H1911.63V716.544H1891.13V734.529Z" fill="#EBECED"/>
<path d="M1890.44 734.954L1901.37 725.354L1912.2 734.855L1912.09 734.954L1912.2 734.855L1912.31 734.954L1901.38 744.555L1890.44 734.954ZM1890.89 734.954L1901.38 744.159L1911.87 734.954L1901.38 725.749L1890.89 734.954Z" fill="#EBECED"/>
<path d="M1890.34 754.002V734.631H1912.41V753.648V753.987H1890.34V754.002ZM1912.02 753.648V753.295V753.648ZM1891.13 753.309H1911.63V735.324H1891.13V753.309Z" fill="#EBECED"/>
<path d="M1890.44 753.722L1901.37 744.121L1912.2 753.623L1912.09 753.722L1912.2 753.623L1912.31 753.722L1901.38 763.322L1890.44 753.722ZM1890.89 753.722L1901.38 762.926L1911.87 753.722L1901.38 744.517L1890.89 753.722Z" fill="#EBECED"/>
<path d="M1912.41 772.724V753.41H1890.34V772.724H1912.41ZM1891.13 754.089H1911.63V772.074H1891.13V754.089Z" fill="#EBECED"/>
<path d="M1891.15 772.719L1890.89 772.493L1901.37 763.288L1911.86 772.493L1911.61 772.719H1912.06L1912.31 772.493L1912.2 772.394L1901.37 762.893L1890.44 772.493L1890.69 772.719H1891.15Z" fill="#EBECED"/>
<path d="M2228.41 602.201H2227.21H2221.13H2219.93V617.231H2221.13V770.019H2227.21V617.231H2228.41V602.201Z" fill="#EBECED"/>
<path d="M2235.2 638.002H2213.12V638.596H2235.2V638.002Z" fill="#EBECED"/>
<path d="M2234.74 638.002H2234.29L2234.66 638.327L2224.17 647.532L2213.68 638.327L2214.03 638.002H2213.59L2213.22 638.313L2224.17 647.914L2235.1 638.313L2234.98 638.228L2234.74 638.002Z" fill="#EBECED"/>
<path d="M2213.12 638.002V657.358H2235.2V638.002H2213.12ZM2213.92 656.68V638.695H2234.42V656.68H2213.92Z" fill="#EBECED"/>
<path d="M2213.23 657.091L2224.16 647.49L2234.99 656.992L2234.87 657.091L2234.99 656.992L2235.1 657.091L2224.17 666.691L2213.23 657.091ZM2213.68 657.091L2224.17 666.295L2234.66 657.091L2224.17 647.886L2213.68 657.091Z" fill="#EBECED"/>
<path d="M2213.12 676.134V656.764H2235.2V675.781V676.12H2213.12V676.134ZM2234.8 675.795V675.442V675.795ZM2213.92 675.442H2234.42V657.456H2213.92V675.442Z" fill="#EBECED"/>
<path d="M2213.23 675.866L2224.16 666.266L2234.99 675.767L2234.87 675.866L2234.99 675.767L2235.1 675.866L2224.16 685.467L2213.23 675.866ZM2213.68 675.866L2224.17 685.071L2234.66 675.866L2224.17 666.662L2213.68 675.866Z" fill="#EBECED"/>
<path d="M2213.12 694.914V675.543H2235.2V694.56V694.899H2213.12V694.914ZM2234.8 694.56V694.207V694.56ZM2213.92 694.221H2234.42V676.236H2213.92V694.221Z" fill="#EBECED"/>
<path d="M2213.23 694.626L2224.16 685.025L2234.99 694.527L2234.87 694.626L2234.99 694.527L2235.1 694.626L2224.16 704.226L2213.23 694.626ZM2213.68 694.626L2224.17 703.83L2234.66 694.626L2224.17 685.421L2213.68 694.626Z" fill="#EBECED"/>
<path d="M2213.12 713.759V694.389H2235.2V713.406V713.759H2213.12ZM2234.8 713.406V713.067V713.406ZM2213.92 713.067H2234.42V695.081H2213.92V713.067Z" fill="#EBECED"/>
<path d="M2213.23 713.477L2224.16 703.877L2234.99 713.378L2234.87 713.477L2234.99 713.378L2235.1 713.477L2224.16 723.078L2213.23 713.477ZM2213.68 713.477L2224.17 722.682L2234.66 713.477L2224.17 704.273L2213.68 713.477Z" fill="#EBECED"/>
<path d="M2213.12 732.539V713.168H2235.2V732.185V732.539H2213.12ZM2234.8 732.185V731.846V732.185ZM2213.92 731.846H2234.42V713.861H2213.92V731.846Z" fill="#EBECED"/>
<path d="M2213.23 732.251L2224.16 722.65L2234.99 732.152L2234.87 732.251L2234.99 732.152L2235.1 732.251L2224.17 741.851L2213.23 732.251ZM2213.68 732.251L2224.17 741.455L2234.66 732.251L2224.17 723.046L2213.68 732.251Z" fill="#EBECED"/>
<path d="M2213.12 751.298V731.928H2235.2V750.945V751.284H2213.12V751.298ZM2234.8 750.959V750.606V750.959ZM2213.92 750.606H2234.42V732.621H2213.92V750.606Z" fill="#EBECED"/>
<path d="M2213.23 751.028L2224.16 741.428L2234.99 750.929L2234.87 751.028L2234.99 750.929L2235.1 751.028L2224.16 760.629L2213.23 751.028ZM2213.68 751.028L2224.17 760.233L2234.66 751.028L2224.17 741.824L2213.68 751.028Z" fill="#EBECED"/>
<path d="M2235.2 770.021V750.707H2213.12V770.021H2235.2ZM2213.92 751.4H2234.42V769.385H2213.92V751.4Z" fill="#EBECED"/>
<path d="M2213.93 770.018L2213.68 769.792L2224.17 760.587L2234.66 769.792L2234.39 770.018H2234.84L2235.1 769.792L2234.99 769.693L2224.17 760.191L2213.23 769.792L2213.49 770.018H2213.93Z" fill="#EBECED"/>
<path d="M1826.84 659.773H1493.16V807.881H1826.84V659.773Z" fill="#EBECED"/>
<path d="M1768.94 622.332H1622.53V695.545H1768.94V622.332Z" fill="#EBECED"/>
<path d="M1789.8 644.037H1545.91V713.404H1789.8V644.037Z" fill="#EBECED"/>
<path d="M2040.37 670.439H1928.93V806.684H2040.37V670.439Z" fill="#EBECED"/>
<path d="M1459.87 756.617H1398.98V782.181H1459.87V756.617Z" fill="#EBECED"/>
<path d="M1883.86 756.617H1841.7V781.05H1883.86V756.617Z" fill="#EBECED"/>
<path d="M1832.98 704.541H1815.93V728.974H1832.98V704.541Z" fill="#EBECED"/>
<path d="M1469.9 768.537H1442.11V775.748H1469.9V768.537Z" fill="#EBECED"/>
<path d="M1419.01 753.211H1403.53V760.422H1419.01V753.211Z" fill="#EBECED"/>
<path d="M2253 771.107H1339V959.107H2253V771.107Z" fill="#EBECED"/>
<path d="M1876 791H0V1009H1876V791Z" fill="#EBECED"/>
<path d="M2246.37 762.1H2201.09V807.812H2246.37V762.1Z" fill="#EBECED"/>
<path d="M2186.77 670.439H2075.32V806.684H2186.77V670.439Z" fill="#EBECED"/>
<path d="M1496.24 764.221H1456.08V767.246H1496.24V764.221Z" fill="#EBECED"/>
<path d="M1496.24 759.826H1456.08V762.852H1496.24V759.826Z" fill="#EBECED"/>
<path d="M1340.86 790.605H1300.71V793.631H1340.86V790.605Z" fill="#EBECED"/>
<path d="M1340.86 786.209H1300.71V789.235H1340.86V786.209Z" fill="#EBECED"/>
<path d="M2083.43 765.525H1834V767.547H2083.43V765.525Z" fill="#EBECED"/>
<path d="M1835.71 721.07H1831.03V723.092H1835.71V721.07Z" fill="#EBECED"/>
<path d="M1838.99 738.293H1825.41V738.943H1838.99V738.293Z" fill="#EBECED"/>
<path d="M1838.99 756.463H1825.41V757.113H1838.99V756.463Z" fill="#EBECED"/>
<path d="M1836.03 721.07H1834.01V767.56H1836.03V721.07Z" fill="#EBECED"/>
<path d="M2082.17 762.398H1837.67V764.42H2082.17V762.398Z" fill="#EBECED"/>
<path d="M1838.82 717.943H1831.31V719.965H1838.82V717.943Z" fill="#EBECED"/>
<path d="M1839.14 717.943H1837.12V764.433H1839.14V717.943Z" fill="#EBECED"/>
<path d="M1031.82 766.922H1028.23V772.323H1031.82V766.922Z" fill="#EBECED"/>
<path d="M1030.04 786.463H1021.56V789.022H1030.04V786.463Z" fill="#EBECED"/>
<path d="M1071.4 747.137H1041.85V760.244H1071.4V747.137Z" fill="#EBECED"/>
<path d="M1080.14 751.705H1076.02V755.692H1080.14V751.705Z" fill="#EBECED"/>
<path d="M1066 745.596H1059.71V748.933H1066V745.596Z" fill="#EBECED"/>
<path d="M1444.9 749.059H1437.96V761.317H1444.9V749.059Z" fill="#EBECED"/>
<path d="M1453.64 752.273H1447.73V759.824H1453.64V752.273Z" fill="#EBECED"/>
<path d="M1535.09 654.75H1514.48V663.036H1535.09V654.75Z" fill="#EBECED"/>
<path d="M1504.27 658.91H1499.83V662.091H1504.27V658.91Z" fill="#EBECED"/>
<path d="M1567.85 642.043H1553.98V647.628H1567.85V642.043Z" fill="#EBECED"/>
<path d="M1591.37 642.043H1578.84V647.628H1591.37V642.043Z" fill="#EBECED"/>
<path d="M1610.97 641.01H1600.88V645.831H1610.97V641.01Z" fill="#EBECED"/>
<path d="M1613.16 639.086H1598.76V642.041H1613.16V639.086Z" fill="#EBECED"/>
<path d="M1558.3 640.883H1556.43V642.933H1558.3V640.883Z" fill="#EBECED"/>
<path d="M1563.87 640.883H1562.07V642.933H1563.87V640.883Z" fill="#EBECED"/>
<path d="M1676.03 619.557H1670.12V625.212H1676.03V619.557Z" fill="#EBECED"/>
<path d="M1678.73 618.271H1667.86V620.52H1678.73V618.271Z" fill="#EBECED"/>
<path d="M1694.41 619.557H1688.5V625.212H1694.41V619.557Z" fill="#EBECED"/>
<path d="M1697.1 618.271H1686.23V620.52H1697.1V618.271Z" fill="#EBECED"/>
<path d="M1712.4 619.557H1706.49V625.212H1712.4V619.557Z" fill="#EBECED"/>
<path d="M1715.1 618.271H1704.23V620.52H1715.1V618.271Z" fill="#EBECED"/>
<path d="M1750.81 607.246H1726.66V628.936H1750.81V607.246Z" fill="#EBECED"/>
<path d="M1745.94 605.805H1738.74V609.919H1745.94V605.805Z" fill="#EBECED"/>
<path d="M1764.18 620.525H1759.3V623.933H1764.18V620.525Z" fill="#EBECED"/>
<path d="M1780.11 640.375H1772.92V646.412H1780.11V640.375Z" fill="#EBECED"/>
<path d="M1865.99 751.887H1848.84V760.752H1865.99V751.887Z" fill="#EBECED"/>
<path d="M1879.3 753.996H1874.48V760.755H1879.3V753.996Z" fill="#EBECED"/>
<path d="M1968.33 664.016H1939.81V678.24H1968.33V664.016Z" fill="#EBECED"/>
<path d="M2030.13 659.373H1991.84V683.282H2030.13V659.373Z" fill="#EBECED"/>
<path d="M1984.65 668.961H1979.12V672.877H1984.65V668.961Z" fill="#EBECED"/>
<path d="M2051.2 738.939H2035.01V775.404H2051.2V738.939Z" fill="#EBECED"/>
<path d="M2125.21 660.053H2091.29V678.815H2125.21V660.053Z" fill="#EBECED"/>
<path d="M2150.66 666.26H2142.17V672.877H2150.66V666.26Z" fill="#EBECED"/>
<path d="M2192.28 734.953H2180.34V775.419H2192.28V734.953Z" fill="#EBECED"/>
<path d="M1147.6 626.416H1141V628.862H1147.6V626.416Z" fill="#EBECED"/>
<path d="M1143.65 627.617L1144.31 479L1144.96 627.617H1143.65Z" fill="#EBECED"/>
<path d="M1158.36 627.561H1128.5V628.861H1158.36V627.561Z" fill="#EBECED"/>
<path d="M1138.59 627.97L1144.35 598.277L1144.51 598.32L1138.76 627.998L1138.59 627.97Z" fill="#EBECED"/>
<path d="M1144.27 599.041L1144.44 599.027L1148.78 627.673L1148.62 627.687L1144.27 599.041Z" fill="#EBECED"/>
<path d="M1129.26 628.648L1144.22 562.957L1144.37 562.999L1129.39 628.69L1129.26 628.648Z" fill="#EBECED"/>
<path d="M1144.35 563.399L1144.48 563.371L1155.96 628.242L1155.83 628.27L1144.35 563.399Z" fill="#EBECED"/>
<path d="M2620 807H1706V995H2620V807Z" fill="#EBECED"/>
<path d="M424.299 633V691.693H319V791.759H459V633H424.299ZM410.897 725.369H387.444V708.05H410.897V725.369ZM357.291 753.032V734.029H384.573V752.791H357.291V753.032ZM384.573 761.691V776.605H357.291V761.691H384.573ZM354.419 753.032H330.487V734.029H354.419V753.032ZM357.291 725.369V708.05H384.573V725.369H357.291ZM387.444 734.029H410.897V752.791H387.444V734.029ZM354.419 708.05V725.369H330.487V708.05H354.419ZM330.487 761.691H354.419V776.605H330.487V761.691ZM387.444 776.605V761.691H410.897V776.605H387.444ZM431.718 669.082H451.103V677.741H431.718V669.082ZM431.718 666.195V657.536H451.103V666.195H431.718ZM451.342 645.508V654.649H431.957V645.508H451.342ZM431.718 688.806V680.628H451.103V688.806H431.718Z" fill="#E5E7E8"/>
<path d="M111.925 763.896H207.065C203.34 731.089 197.035 672.893 196.176 640.086H122.814C121.955 672.322 115.65 730.804 111.925 763.896Z" fill="#E5E7E8"/>
<path d="M227.699 722.531H220.821V735.939H212.51V763.896H212.797V767.319H-7V788.43L281 789V735.939H252.63V722.531H246.898V718.252H227.699V722.531ZM257.215 741.359H278.994V749.062H257.215V741.359ZM257.215 752.485H278.994V760.188H257.215V752.485ZM257.215 763.611H278.994V771.313H257.215V763.611Z" fill="#E5E7E8"/>
<path d="M198.182 631.527H119.949V636.377H198.182V631.527Z" fill="#E5E7E8"/>
<path d="M245.179 603H229.704V607.564H245.179V603Z" fill="#E5E7E8"/>
<path d="M92.1518 631.527H13.9189V636.377H92.1518V631.527Z" fill="#E5E7E8"/>
<path d="M245.179 610.988H229.705L227.985 714.258H246.899L245.179 610.988Z" fill="#E5E7E8"/>
<path d="M90.1463 640.086H16.7851C15.9254 672.322 9.62088 730.804 5.89551 763.896H101.036C97.0239 731.089 90.7194 672.893 90.1463 640.086Z" fill="#E5E7E8"/>
<path d="M1350.03 777.248C1352.81 772.616 1354.66 767.52 1354.66 761.499V641.992C1354.66 635.507 1352.34 629.022 1348.64 624.39V605.862H1354.66V601.23H1348.64V577.143H1342.61V601.23H1233.71V577.143H1226.76V601.23H1221.2V605.862H1227.22V620.221C1221.2 625.78 1217.49 633.191 1217.49 641.992V711.473H1182.74V624.39H1187.83V605.862H1180.42V603.083H1185.98L1196.17 567.879H1160.49H1116.47L1126.66 603.083H1132.22V605.862H1123.88V624.39H1128.52V630.412H1114.61L1110.91 623L1109.98 623.927L1085.88 576.217L1078 520.169H1080.78V516.926H1073.37V516H1071.98V516.926H1063.64V520.169H1066.42L1058.54 576.217L1034.44 624.39L1033.52 623.464L1031.2 628.096V534.065H1028.42V630.412H1020.08V534.065H1017.3V630.412H1014.05V737.412H1008.96L1007.57 706.84L1007.1 698.503L1006.64 689.239H1008.96V685.533H1006.18L1004.79 653.572H1008.03V650.329H1005.25L1003.86 617.905H1006.18V613.736H1003.4L1002.47 588.723H982.078L981.615 598.914L981.151 613.736H979.298V617.905H981.151L980.688 630.875V635.044L980.225 650.329H977.908V653.572H980.225L978.371 685.533H976.054V688.775H977.908V690.628L977.444 706.377L976.054 736.949H968.176L967.713 722.589L967.249 706.84V704.988H969.566V701.745H966.786L965.395 669.784H968.176V666.542H965.395L964.005 637.823V635.507V634.117H966.322V629.948H964.005L963.078 604.935H942.688L942.225 615.126L941.761 629.948H939.908V634.117H941.761L940.371 666.542H938.054V669.784H940.371V670.247H896.811V671.637H940.371V672.1H896.811V678.122H938.518V702.208H937.127V688.775C937.127 685.533 934.81 683.217 931.566 683.217H907.469C904.225 683.217 901.908 685.533 901.908 688.775V730.001C901.908 733.243 904.225 735.559 907.469 735.559H928.323H908.859C906.542 735.559 904.689 737.412 904.689 739.728C904.689 742.044 906.542 743.434 908.396 743.897H931.566C933.42 743.897 935.274 742.044 935.274 739.728C935.274 737.412 933.42 735.559 931.103 735.559H937.127L936.664 742.507V743.897H896.811V791.607H918.591H919.054H978.834H1122.96H1160.96H1166.98H1325.47H1360.22V777.711H1350.03V777.248ZM1079.39 541.939L1073.83 538.697L1078.47 535.918L1079.39 541.939ZM1068.27 519.706H1076.15L1078.47 534.528L1072.44 537.771L1066.42 534.528L1068.27 519.706ZM1065.96 535.918L1070.59 538.697L1065.49 541.939L1065.96 535.918ZM1065.03 543.792L1072.44 539.623L1079.86 543.792L1083.57 571.585L1082.18 569.269L1079.86 553.52L1077.54 554.446L1078 559.078L1071.98 562.321L1066.42 559.078L1066.88 554.446L1064.57 553.983L1062.25 568.805L1060.86 571.585L1065.03 543.792ZM1072.44 610.494L1059.93 606.788L1061.79 594.282L1072.44 590.576L1083.1 594.282L1084.96 606.325L1072.44 610.494ZM1084.96 608.178L1085.88 614.663L1074.76 611.42L1084.96 608.178ZM1069.66 611.42L1059 614.663L1059.93 608.641L1069.66 611.42ZM1072.44 563.71L1079.86 567.879L1082.18 585.944L1072.44 589.186L1062.71 585.944L1065.49 567.879L1072.44 563.71ZM1065.49 566.026L1066.42 560.468L1071.05 562.784L1065.49 566.026ZM1073.83 562.784L1078.47 560.004L1079.39 566.026L1073.83 562.784ZM1070.13 590.113L1061.79 592.892L1062.71 586.87L1070.13 590.113ZM1074.76 590.113L1082.64 587.334L1083.57 593.355L1074.76 590.113ZM1034.91 630.412L1037.22 626.243L1036.3 625.316L1061.79 574.827L1053.91 630.412H1034.91ZM1056.69 630.412L1058.54 616.052L1072.44 611.883L1086.35 616.052L1088.2 630.412H1056.69ZM1090.98 630.412L1083.57 576.217L1108.59 625.316L1107.66 626.243L1109.98 630.412H1090.98ZM1211 777.248V744.823H1214.25V742.044H1198.49V737.412H1181.81V716.105H1216.56V761.499C1216.56 767.057 1218.42 772.616 1221.2 777.248H1211ZM1271.25 777.248C1273.1 774.468 1274.49 771.226 1274.95 767.52H1296.73C1297.66 771.226 1298.59 774.468 1300.44 777.248H1271.25ZM1296.27 675.806V761.962C1296.27 762.425 1296.27 763.352 1296.27 763.815H1275.42C1275.42 763.352 1275.42 762.425 1275.42 761.962V675.806H1296.27ZM1275.42 669.784V647.55H1295.81V669.784H1275.42ZM1342.61 618.832C1337.51 615.126 1331.49 612.81 1325 612.81C1310.17 612.81 1297.66 624.39 1295.81 638.749H1274.95C1273.1 624.39 1261.05 612.81 1245.76 612.81C1241.13 612.81 1236.95 613.736 1233.25 615.589V605.862H1342.61V618.832Z" fill="#EBECED"/>
<path d="M1136.86 519.705L1135.47 536.38H1132.69V558.614H1116.93V566.952H1194.32V558.614H1178.56V555.835H1178.1V536.38H1175.32L1173.93 519.705H1173L1174.39 536.38H1168.37L1167.44 519.705H1166.52L1167.44 536.38H1157.71V519.705H1156.78V536.38H1150.76V519.705H1149.83V536.38H1147.05L1147.52 519.705H1146.59L1146.13 536.38H1143.81L1144.27 519.705H1143.35L1142.42 536.38H1136.86L1137.78 519.705H1136.86Z" fill="#EBECED"/>
<path d="M1279.08 438.986H1277.39V430.035H1279.08V428.357H1202.68V416.608C1202.68 414.93 1201.56 413.811 1200.44 413.811H1199.87V379.126L1185.83 358.427C1187.52 357.867 1188.64 357.308 1189.2 356.189L1263.91 417.727C1263.35 418.846 1262.79 419.965 1262.79 421.643C1262.79 425.559 1265.6 428.357 1268.97 428.357C1272.34 428.357 1275.15 425.559 1275.15 421.643C1275.15 417.727 1272.34 414.93 1268.97 414.93C1267.28 414.93 1266.16 415.49 1265.04 416.608L1189.76 354.51C1190.33 353.392 1190.33 352.832 1190.33 351.713C1190.33 347.797 1187.52 345 1184.15 345C1180.78 345 1177.97 347.797 1177.97 351.713C1177.97 352.273 1177.97 352.273 1177.97 352.832L1033.6 421.643C1033.04 421.084 1032.48 421.084 1031.91 421.084C1030.23 421.084 1028.54 422.762 1028.54 425C1028.54 426.678 1029.67 428.357 1030.79 428.916H986.414L970.123 438.986H969V440.664H1026.3H1171.23V446.259C1171.23 447.937 1172.35 449.615 1174.03 449.615H1182.46V450.175C1181.9 450.734 1181.34 451.294 1181.34 452.413V452.972C1181.34 454.091 1181.9 454.65 1182.46 455.21V745H1199.31V617.448V573.811V530.175V486.538V454.65C1199.87 454.091 1200.44 453.531 1200.44 452.413V451.853C1200.44 450.734 1199.87 450.175 1199.31 449.615H1200.44C1201.56 449.615 1202.68 448.497 1202.68 446.818V440.664H1238.63V452.972H1292V440.664H1279.08V438.986ZM1023.49 430.035L1021.24 433.951L1018.99 430.035H1023.49ZM1011.69 430.035L1009.45 433.951L1007.2 430.035H1011.69V430.035ZM999.334 430.035L997.087 433.951L994.84 430.035H999.334ZM994.278 438.986H972.932C977.426 436.189 981.92 432.832 986.976 430.035H994.278V438.986ZM994.278 430.594L996.525 434.51L994.278 438.427V430.594ZM999.896 438.986H994.84L997.649 435.07L999.896 438.986ZM999.896 438.427L997.649 434.51L999.896 430.594V438.427ZM1006.07 438.986H1001.02V430.035H1006.07V438.986ZM1006.64 430.594L1008.88 434.51L1006.64 438.427V430.594ZM1011.69 438.986H1006.64L1009.45 435.07L1011.69 438.986ZM1011.69 437.867L1009.45 434.51L1011.69 430.594V437.867ZM1018.43 438.986H1013.38V430.035H1018.43V438.986ZM1018.43 430.594L1020.68 434.51L1018.43 438.427V430.594ZM1024.05 438.986H1018.99L1021.8 435.07L1024.05 438.986ZM1024.05 438.427L1021.8 434.51L1024.05 430.594V438.427ZM1034.16 438.986H1025.17V430.035H1034.16V438.986ZM1036.97 434.51L1034.72 438.427V430.594L1036.97 434.51ZM1034.72 430.035H1039.78L1037.53 433.951L1034.72 430.035ZM1039.78 438.986H1034.72L1037.53 435.07L1039.78 438.986ZM1039.78 438.427L1037.53 434.51L1039.78 430.594V438.427ZM1045.96 438.986H1040.9V430.035H1045.96V438.986ZM1048.77 434.51L1046.52 438.427V430.594L1048.77 434.51ZM1046.52 430.035H1051.58L1049.33 433.951L1046.52 430.035ZM1051.58 438.986H1046.52L1049.33 435.07L1051.58 438.986ZM1051.58 437.867L1049.33 434.51L1051.58 430.594V437.867ZM1058.32 438.986H1053.26V430.035H1058.32V438.986ZM1061.13 434.51L1058.88 438.427V430.594L1061.13 434.51ZM1058.88 430.035H1063.93L1061.69 433.951L1058.88 430.035ZM1063.93 438.986H1058.88L1061.69 435.07L1063.93 438.986ZM1063.93 438.427L1061.69 434.51L1063.93 430.594V438.427V438.427ZM1070.11 438.986H1065.06V430.035H1070.11V438.986ZM1072.92 434.51L1070.67 438.427V430.594L1072.92 434.51ZM1070.67 430.035H1075.73L1073.48 433.951L1070.67 430.035ZM1075.73 438.986H1070.67L1073.48 435.07L1075.73 438.986ZM1075.73 438.427L1073.48 434.51L1075.73 430.594V438.427ZM1082.47 438.986H1076.85V430.035H1082.47V438.986ZM1082.47 430.594L1084.72 434.51L1082.47 438.427V430.594ZM1083.03 430.035H1088.09L1085.84 433.951L1083.03 430.035ZM1088.09 438.986H1083.03L1085.84 435.07L1088.09 438.986ZM1088.09 437.867L1085.84 434.51L1088.09 430.594V437.867ZM1094.27 438.986H1089.21V430.035H1094.27V438.986ZM1097.08 434.51L1094.83 438.427V430.594L1097.08 434.51ZM1094.83 430.035H1099.89L1097.64 433.951L1094.83 430.035ZM1099.89 438.986H1094.83L1097.64 435.07L1099.89 438.986ZM1099.89 438.427L1097.64 434.51L1099.89 430.594V438.427ZM1110 438.986H1101.01V430.035H1110V438.986ZM1112.81 434.51L1110.56 438.427V430.594L1112.81 434.51ZM1111.12 430.035H1116.18L1113.93 433.951L1111.12 430.035ZM1115.61 438.986H1110.56L1113.37 435.07L1115.61 438.986ZM1115.61 438.427L1113.37 434.51L1115.61 430.594V438.427ZM1122.35 438.986H1117.3V430.035H1122.35V438.986ZM1125.16 434.51L1122.92 438.427V430.594L1125.16 434.51ZM1122.92 430.035H1127.97L1125.73 433.951L1122.92 430.035ZM1127.97 438.986H1122.92L1125.73 435.07L1127.97 438.986ZM1127.97 437.867L1125.73 434.51L1127.97 430.594V437.867ZM1134.15 438.986H1129.1V430.035H1134.15V438.986ZM1136.96 434.51L1134.71 438.427V430.594L1136.96 434.51ZM1135.27 430.035H1140.33L1138.08 433.951L1135.27 430.035ZM1139.77 438.986H1134.71L1137.52 435.07L1139.77 438.986ZM1139.77 438.427L1137.52 434.51L1139.77 430.594V438.427V438.427ZM1149.88 438.986H1140.89V430.035H1149.88V438.986ZM1152.69 434.51L1150.44 438.427V430.594L1152.69 434.51ZM1150.44 430.035H1155.5L1153.25 433.951L1150.44 430.035ZM1155.5 438.986H1150.44L1153.25 435.07L1155.5 438.986ZM1155.5 438.427L1153.25 434.51L1155.5 430.594V438.427ZM1156.62 438.986V430.035H1161.68V438.986H1156.62ZM1165.05 434.51L1162.8 438.427V430.594L1165.05 434.51ZM1162.8 430.035H1167.86L1165.61 433.951L1162.8 430.035ZM1167.86 438.986H1162.8L1165.61 435.07L1167.86 438.986ZM1167.86 437.867L1165.61 434.51L1167.86 430.594V437.867V437.867ZM1171.23 431.713V438.986H1168.42V430.035H1171.23C1171.79 430.594 1171.23 431.154 1171.23 431.713ZM1183.02 414.371C1181.9 414.371 1180.78 415.49 1180.78 417.168V428.916H1033.04C1034.16 428.357 1035.29 427.238 1035.29 425C1035.29 424.441 1035.29 424.441 1035.29 423.881L1179.09 355.629C1180.21 356.748 1181.34 357.867 1183.02 358.427V414.371ZM1186.95 362.902L1187.52 364.021H1186.95V362.902ZM1186.95 365.14H1188.64L1189.2 366.259V366.818H1186.39V365.14H1186.95ZM1185.83 381.923H1195.94L1190.89 384.161L1185.83 381.923ZM1196.5 387.517H1185.83L1190.89 384.72L1196.5 387.517ZM1186.95 367.937H1189.2V369.615H1186.39V367.937H1186.95ZM1186.95 370.734H1189.2V372.413H1186.39V370.734H1186.95ZM1186.95 373.531H1189.2V375.21H1186.39V373.531H1186.95ZM1186.95 376.329H1189.2V378.566H1186.39V376.329H1186.95ZM1186.95 379.685H1189.2V380.804H1186.39V379.685H1186.95ZM1185.27 360.664L1186.39 361.783V380.245H1185.27V360.664ZM1185.27 381.923L1190.33 384.72L1185.27 387.517V381.923ZM1185.27 395.35L1190.33 398.147L1185.27 400.944V395.35ZM1185.83 395.35H1195.94L1190.89 398.147L1185.83 395.35ZM1196.5 400.944H1185.83L1190.89 398.147L1196.5 400.944ZM1185.27 408.776L1190.33 411.573L1185.27 414.371V408.776ZM1185.83 408.217H1195.94L1190.89 411.014L1185.83 408.217ZM1196.5 413.811H1185.83L1190.89 411.014L1196.5 413.811ZM1185.27 459.126L1190.33 461.923L1185.27 464.72V459.126ZM1185.83 458.566H1195.94L1190.89 461.364L1185.83 458.566ZM1196.5 464.72H1185.83L1190.89 461.923L1196.5 464.72ZM1185.27 471.993L1190.33 474.79L1185.27 477.587V471.993ZM1185.83 489.336H1195.94L1190.89 492.133L1185.83 489.336ZM1196.5 494.93H1185.83L1190.89 492.133L1196.5 494.93ZM1189.2 481.503V482.622H1186.39V481.503H1189.2ZM1186.39 480.944V479.825H1189.2V480.944H1186.39ZM1189.2 483.182V484.301H1186.39V483.182H1189.2ZM1189.2 484.86V485.979H1186.39V484.86H1189.2ZM1189.2 486.538V487.657H1186.39V486.538H1189.2ZM1189.2 479.266H1186.39V478.706H1189.2V479.266ZM1185.83 477.587L1190.89 474.79L1195.94 477.587H1185.83ZM1185.83 471.993H1195.94L1190.89 474.79L1185.83 471.993ZM1185.27 478.147H1185.83V487.657H1185.27V478.147ZM1185.27 489.336L1190.33 492.133L1185.27 494.93V489.336ZM1185.27 502.762L1190.33 505.559L1185.27 508.357V502.762ZM1185.83 502.203H1195.94L1190.89 505L1185.83 502.203ZM1196.5 508.357H1185.83L1190.89 505.559L1196.5 508.357ZM1185.27 515.629L1190.33 518.427L1185.27 521.224V515.629ZM1185.83 532.972H1195.94L1190.89 535.21L1185.83 532.972ZM1196.5 538.566H1185.83L1190.89 535.769L1196.5 538.566ZM1189.76 525.14V526.259H1186.95V525.14H1189.76ZM1186.95 524.58V523.462H1189.76V524.58H1186.95ZM1189.76 526.818V527.937H1186.95V526.818H1189.76ZM1189.76 528.497V529.615H1186.95V528.497H1189.76ZM1189.76 530.175V531.294H1186.95V530.175H1189.76ZM1189.76 522.902H1186.95V521.783H1189.76V522.902ZM1185.83 521.224L1190.89 518.427L1195.94 521.224H1185.83ZM1185.83 515.629H1195.94L1190.89 518.427L1185.83 515.629ZM1185.27 521.783H1186.39V531.853H1185.27V521.783ZM1185.27 532.972L1190.33 535.769L1185.27 538.566V532.972ZM1185.27 546.399L1190.33 549.196L1185.27 551.993V546.399ZM1185.83 545.839H1195.94L1190.89 548.636L1185.83 545.839ZM1196.5 551.993H1185.83L1190.89 549.196L1196.5 551.993ZM1185.27 559.825L1190.33 562.622L1185.27 565.42V559.825ZM1185.83 576.608H1195.94L1190.89 579.406L1185.83 576.608ZM1196.5 582.203H1185.83L1190.89 579.406L1196.5 582.203ZM1195.38 568.776V569.895H1192.57V568.776H1195.38ZM1192.57 568.217V567.098H1195.38V568.217H1192.57ZM1195.38 570.455V571.573H1192.57V570.455H1195.38ZM1195.38 572.133V573.252H1192.57V572.133H1195.38ZM1195.38 573.811V574.93H1192.57V573.811H1195.38ZM1195.38 566.538H1192.57V565.979H1195.38V566.538ZM1185.83 564.86L1190.89 562.063L1195.94 564.86H1185.83ZM1185.83 559.266H1195.94L1190.89 562.063L1185.83 559.266ZM1185.27 565.42H1192.01V574.93H1185.27V565.42ZM1185.27 576.608L1190.33 579.406L1185.27 582.203V576.608ZM1185.27 590.035L1190.33 592.832L1185.27 595.629V590.035ZM1185.83 590.035H1195.94L1190.89 592.832L1185.83 590.035ZM1196.5 595.629H1185.83L1190.89 592.832L1196.5 595.629ZM1185.27 603.462L1190.33 606.259L1185.27 609.056V603.462ZM1185.83 602.902H1195.94L1190.89 605.699L1185.83 602.902ZM1196.5 609.056H1185.83L1190.89 606.259L1196.5 609.056ZM1186.39 619.126H1185.27V609.056H1186.39V619.126ZM1189.2 618.566H1186.39V617.448H1189.2V618.566ZM1189.2 616.888H1186.39V615.769H1189.2V616.888ZM1189.2 615.21H1186.39V614.091H1189.2V615.21ZM1189.2 613.531H1186.39V612.413H1189.2V613.531ZM1189.2 611.853H1186.39V610.734H1189.2V611.853ZM1189.2 610.175H1186.39V609.056H1189.2V610.175ZM1197.07 619.126H1189.76V609.056H1197.07V619.126ZM1197.07 608.496L1191.45 605.699L1197.07 602.902V608.496ZM1197.07 601.783H1185.27V596.189H1197.07V601.783ZM1197.07 595.629L1191.45 592.832L1197.07 590.035V595.629ZM1197.07 588.357H1185.27V582.762H1197.07V588.357ZM1197.07 582.203L1191.45 579.406L1197.07 576.608V582.203ZM1197.07 575.49H1195.94V565.979H1197.07V575.49ZM1197.07 564.86L1191.45 562.063L1197.07 559.266V564.86ZM1197.07 558.147H1185.27V552.552H1197.07V558.147ZM1197.07 551.993L1191.45 549.196L1197.07 546.399V551.993ZM1197.07 544.72H1185.27V539.126H1197.07V544.72ZM1197.07 538.566L1191.45 535.769L1197.07 532.972V538.566ZM1197.07 531.853H1190.33V521.783H1197.07V531.853ZM1197.07 521.224L1191.45 518.427L1197.07 515.629V521.224ZM1197.07 514.51H1185.27V508.916H1197.07V514.51ZM1197.07 507.797L1191.45 505L1197.07 502.203V507.797ZM1197.07 501.084H1185.27V495.49H1197.07V501.084ZM1197.07 494.93L1191.45 492.133L1197.07 489.336V494.93ZM1197.07 487.657H1189.76V478.147H1197.07V487.657ZM1197.07 477.587L1191.45 474.79L1197.07 471.993V477.587ZM1197.07 470.874H1185.27V465.28H1197.07V470.874ZM1197.07 464.72L1191.45 461.923L1197.07 459.126V464.72ZM1197.07 457.448H1185.27V454.65H1197.07V457.448ZM1197.07 413.811L1191.45 411.014L1197.07 408.217C1197.07 410.455 1197.07 412.133 1197.07 413.811ZM1197.07 407.098H1185.27V401.503H1197.07C1197.07 403.182 1197.07 405.42 1197.07 407.098ZM1197.07 400.944L1191.45 398.147L1197.07 395.35C1197.07 397.028 1197.07 398.706 1197.07 400.944ZM1197.07 393.671H1185.27V388.077H1197.07C1197.07 390.315 1197.07 391.993 1197.07 393.671ZM1197.07 387.517L1191.45 384.72L1197.07 381.923C1197.07 383.601 1197.07 385.839 1197.07 387.517ZM1197.07 380.804H1189.76V367.378L1197.07 377.448C1197.07 378.566 1197.07 379.685 1197.07 380.804ZM1276.27 430.035L1274.02 433.951L1271.78 430.035H1276.27ZM1264.47 430.035L1262.23 433.951L1259.98 430.035H1264.47ZM1252.12 430.035L1249.87 433.951L1247.62 430.035H1252.12ZM1236.39 430.035L1234.14 433.951L1231.89 430.035H1236.39V430.035ZM1224.59 430.035L1222.34 433.951L1220.1 430.035H1224.59ZM1212.23 430.035L1209.99 433.951L1207.74 430.035H1212.23ZM1206.62 438.986H1202.68V430.035H1206.62V438.986ZM1207.18 430.594L1209.42 434.51L1207.18 438.427V430.594ZM1212.23 438.986H1207.18L1209.99 435.07L1212.23 438.986ZM1212.23 438.427L1209.99 434.51L1212.23 430.594V438.427V438.427ZM1218.97 438.986H1213.92V430.035H1218.97V438.986ZM1218.97 430.594L1221.22 434.51L1218.97 438.427V430.594ZM1224.59 438.986H1219.54L1222.34 435.07L1224.59 438.986ZM1224.59 437.867L1222.34 434.51L1224.59 430.594V437.867V437.867ZM1230.77 438.986H1225.71V430.035H1230.77V438.986ZM1231.33 430.594L1233.58 434.51L1231.33 438.427V430.594ZM1236.39 438.986H1231.33L1234.14 435.07L1236.39 438.986ZM1236.39 438.427L1234.14 434.51L1236.39 430.594V438.427ZM1246.5 438.986H1237.51V430.035H1246.5V438.986ZM1247.06 430.594L1249.31 434.51L1247.06 438.427V430.594ZM1252.12 438.986H1247.06L1249.87 435.07L1252.12 438.986ZM1252.12 438.427L1249.87 434.51L1252.12 430.594V438.427ZM1258.86 438.986H1253.8V430.035H1258.86V438.986ZM1259.42 430.594L1261.67 434.51L1259.42 438.427V430.594ZM1264.47 438.986H1259.42L1262.23 435.07L1264.47 438.986ZM1264.47 437.867L1262.23 434.51L1264.47 430.594V437.867ZM1270.65 438.986H1265.6V430.035H1270.65V438.986ZM1271.22 430.594L1273.46 434.51L1271.22 438.427V430.594ZM1276.27 438.986H1271.22L1274.02 435.07L1276.27 438.986ZM1276.27 438.427L1274.02 434.51L1276.27 430.594V438.427Z" fill="#EBECED"/>
</g>
<defs>
<clipPath id="clip0">
<rect width="2500" height="960" fill="white"/>
</clipPath>
</defs>
</svg>
