<svg width="2500" height="960" fill="none" xmlns="http://www.w3.org/2000/svg"><g clip-path="url(#clip0)"><path d="M2436.9 566.707h-125.28c15.2 43.704.25 142.311-46.24 229.663h217.76c-46.48-87.352-64.17-165.16-46.24-229.663zm46.11 238.301h-217.63v2.87h217.63v-2.87z" fill="#EBECED"/><path d="M2266.4 796.344h-1.02v10.859h1.02v-10.859zm216.56 0h-.92v10.859h.92v-10.859z" fill="#EBECED"/><path d="M2266.42 806l-.73-.707 10.52-10.463.72.721L2266.42 806z" fill="#EBECED"/><path d="M2286.09 806.394l-.72.721-10.52-10.463.72-.707 10.52 10.449z" fill="#EBECED"/><path d="M2284.41 806l-.72-.707 10.52-10.463.71.721L2284.41 806z" fill="#EBECED"/><path d="M2304.08 806.394l-.72.721-10.51-10.463.71-.707 10.52 10.449z" fill="#EBECED"/><path d="M2302.4 806l-.72-.707 10.52-10.463.72.721L2302.4 806z" fill="#EBECED"/><path d="M2322.08 806.394l-.72.721-10.52-10.463.72-.707 10.52 10.449z" fill="#EBECED"/><path d="M2320.38 806l-.7-.707 10.5-10.463.72.721L2320.38 806z" fill="#EBECED"/><path d="M2340.07 806.394l-.72.721-10.51-10.463.71-.707 10.52 10.449z" fill="#EBECED"/><path d="M2338.38 806l-.72-.707 10.52-10.463.72.721L2338.38 806z" fill="#EBECED"/><path d="M2358.06 806.394l-.72.721-10.52-10.463.72-.707 10.52 10.449z" fill="#EBECED"/><path d="M2356.37 806l-.71-.707 10.51-10.463.72.721L2356.37 806z" fill="#EBECED"/><path d="M2376.05 806.394l-.72.721-10.52-10.463.72-.707 10.52 10.449z" fill="#EBECED"/><path d="M2374.37 806l-.72-.707 10.52-10.463.7.721-10.5 10.449z" fill="#EBECED"/><path d="M2394.04 806.394l-.73.721-10.5-10.463.71-.707 10.52 10.449z" fill="#EBECED"/><path d="M2392.35 806l-.72-.707 10.52-10.463.72.721L2392.35 806z" fill="#EBECED"/><path d="M2412.03 806.394l-.72.721-10.52-10.463.72-.707 10.52 10.449z" fill="#EBECED"/><path d="M2410.34 806l-.71-.707 10.5-10.463.73.721L2410.34 806z" fill="#EBECED"/><path d="M2430.02 806.394l-.72.721-10.51-10.463.71-.707 10.52 10.449z" fill="#EBECED"/><path d="M2428.34 806l-.73-.707 10.52-10.463.73.721L2428.34 806z" fill="#EBECED"/><path d="M2448 806.394l-.7.721-10.52-10.463.7-.707 10.52 10.449z" fill="#EBECED"/><path d="M2446.32 806l-.72-.707 10.52-10.463.72.721L2446.32 806z" fill="#EBECED"/><path d="M2466 806.394l-.72.721-10.52-10.463.72-.707 10.52 10.449z" fill="#EBECED"/><path d="M2464.32 806l-.72-.707 10.52-10.463.71.721L2464.32 806z" fill="#EBECED"/><path d="M2482.96 805.376l-9.49-9.431-.71.707 10.2 10.152v-1.428zM2313.2 551.762h-.43v15.496h.43v-15.496z" fill="#EBECED"/><path d="M2313.57 551.594a.6.6 0 01-.6.594.589.589 0 01-.59-.594c0-.325.27-.594.59-.594a.6.6 0 01.6.594zm120.5.168h-.42v15.496h.42v-15.496z" fill="#EBECED"/><path d="M2434.44 551.594c0 .325-.27.594-.59.594a.583.583 0 01-.59-.594c0-.325.26-.594.59-.594.32 0 .59.269.59.594zm-1295.03.168h-.43v15.496h.43v-15.496z" fill="#EBECED"/><path d="M1139.78 551.594a.6.6 0 01-.6.594.589.589 0 01-.59-.594c0-.325.27-.594.59-.594a.6.6 0 01.6.594zm120.5.168h-.42v15.496h.42v-15.496z" fill="#EBECED"/><path d="M1260.65 551.594c0 .325-.27.594-.59.594-.33 0-.6-.255-.6-.594a.6.6 0 01.6-.594c.34 0 .59.269.59.594zm1402.75 15.113h-125.29c15.2 43.704.24 142.311-46.23 229.663h217.75c-46.47-87.352-64.16-165.16-46.23-229.663zm46.11 238.301h-217.63v2.87h217.63v-2.87z" fill="#EBECED"/><path d="M2492.89 796.344h-1.01v10.859h1.01v-10.859z" fill="#EBECED"/><path d="M2492.91 806l-.72-.707 10.52-10.463.72.721L2492.91 806zm-1419.42-35.869h-49.86v37.751h49.86v-37.751z" fill="#EBECED"/><path d="M1084.65 753.953h-49.87v53.941h49.87v-53.941zm-357.958 37.535H551v87.592h175.692v-87.592z" fill="#EBECED"/><path d="M766 753.953H590.308v125.154H766V753.953zm613.01-115.117h-5.25v130.462h5.25V638.836z" fill="#EBECED"/><path d="M1379.6 639.273c0 .24-.17.452-.38.452h-5.7c-.21 0-.38-.198-.38-.452 0-.241.17-.453.38-.453h5.7c.21.014.38.212.38.453zm0 16.203c0 .24-.17.452-.38.452h-5.7c-.21 0-.38-.198-.38-.452 0-.24.17-.453.38-.453h5.7c.21.015.38.213.38.453zm0 16.217c0 .24-.17.452-.38.452h-5.7c-.21 0-.38-.198-.38-.452 0-.241.17-.453.38-.453h5.7c.21 0 .38.198.38.453zm0 16.205c0 .24-.17.452-.38.452h-5.7c-.21 0-.38-.198-.38-.452 0-.241.17-.453.38-.453h5.7c.21 0 .38.198.38.453zm0 16.205c0 .24-.17.452-.38.452h-5.7c-.21 0-.38-.198-.38-.452 0-.241.17-.453.38-.453h5.7c.21 0 .38.212.38.453zm0 16.199c0 .24-.17.453-.38.453h-5.7c-.21 0-.38-.198-.38-.453 0-.24.17-.452.38-.452h5.7c.21.014.38.212.38.452zm0 16.205c0 .24-.17.453-.38.453h-5.7c-.21 0-.38-.198-.38-.453 0-.24.17-.452.38-.452h5.7c.21.014.38.212.38.452zm0 16.203c0 .241-.17.453-.38.453h-5.7c-.21 0-.38-.198-.38-.453 0-.24.17-.452.38-.452h5.7c.21.014.38.212.38.452zm20.22 15.454h-46.87v4.666h46.87v-4.666z" fill="#EBECED"/><path d="M1359.39 769.635l13.94-33.114.21.099-13.93 33.114-.22-.099zm19.65-32.901l.21-.099 14.86 32.067-.21.099-14.86-32.067zm-23.63 33.039l18.27-98.097.24.042-18.27 98.098-.24-.043zm23.67-98.121l.24-.043 17.61 97.702-.23.042-17.62-97.701zm526.53-66.748h-8.47v15.03h1.2v152.788h6.07V619.934h1.2v-15.03z" fill="#EBECED"/><path d="M1912.41 640.705h-22.07v.594h22.07v-.594z" fill="#EBECED"/><path d="M1911.95 640.705h-.44l.35.311-10.49 9.205-10.48-9.205.36-.311h-.46l-.35.311 10.93 9.601 10.94-9.601-.11-.099-.25-.212z" fill="#EBECED"/><path d="M1890.34 640.705v19.357h22.07v-19.357h-22.07zm.79 18.678v-17.985h20.5v17.985h-20.5z" fill="#EBECED"/><path d="M1890.44 659.794l10.93-9.601 10.83 9.502-.11.099.11-.099.11.099-10.93 9.6-10.94-9.6zm.45 0l10.49 9.204 10.5-9.204-10.5-9.205-10.49 9.205z" fill="#EBECED"/><path d="M1890.34 678.837v-19.37h22.07v19.356h-22.07v.014zm21.68-.353v-.354.354zm-20.89-.339h20.5V660.16h-20.5v17.985z" fill="#EBECED"/><path d="M1890.44 678.556l10.93-9.601 10.83 9.502-.11.099.11-.099.11.099-10.93 9.6-10.94-9.6zm.45 0l10.49 9.204 10.49-9.204-10.49-9.205-10.49 9.205z" fill="#EBECED"/><path d="M1890.34 697.617v-19.371h22.07v19.371h-22.07zm21.68-.354v-.339.339zm-20.89-.339h20.5v-17.985h-20.5v17.985z" fill="#EBECED"/><path d="M1890.44 697.329l10.93-9.6 10.83 9.501-.11.099.11-.099.11.099-10.93 9.601-10.94-9.601zm.45 0l10.49 9.205 10.49-9.205-10.49-9.205-10.49 9.205z" fill="#EBECED"/><path d="M1890.34 716.461V697.09h22.07v19.371h-22.07zm21.68-.354v-.339.339zm-20.89-.339h20.5v-17.985h-20.5v17.985z" fill="#EBECED"/><path d="M1890.44 716.179l10.93-9.601 10.83 9.502-.11.099.11-.099.11.099-10.93 9.6-10.94-9.6zm.45 0l10.49 9.204 10.49-9.204-10.49-9.205-10.49 9.205z" fill="#EBECED"/><path d="M1890.34 735.222v-19.37h22.07v19.37h-22.07zm21.68-.339v-.339.339zm-20.89-.354h20.5v-17.985h-20.5v17.985z" fill="#EBECED"/><path d="M1890.44 734.954l10.93-9.6 10.83 9.501-.11.099.11-.099.11.099-10.93 9.601-10.94-9.601zm.45 0l10.49 9.205 10.49-9.205-10.49-9.205-10.49 9.205z" fill="#EBECED"/><path d="M1890.34 754.002v-19.371h22.07v19.356h-22.07v.015zm21.68-.354v-.353.353zm-20.89-.339h20.5v-17.985h-20.5v17.985z" fill="#EBECED"/><path d="M1890.44 753.722l10.93-9.601 10.83 9.502-.11.099.11-.099.11.099-10.93 9.6-10.94-9.6zm.45 0l10.49 9.204 10.49-9.204-10.49-9.205-10.49 9.205z" fill="#EBECED"/><path d="M1912.41 772.724V753.41h-22.07v19.314h22.07zm-21.28-18.635h20.5v17.985h-20.5v-17.985z" fill="#EBECED"/><path d="M1891.15 772.719l-.26-.226 10.48-9.205 10.49 9.205-.25.226h.45l.25-.226-.11-.099-10.83-9.501-10.93 9.6.25.226h.46zm337.26-170.518h-8.48v15.03h1.2v152.788h6.08V617.231h1.2v-15.03z" fill="#EBECED"/><path d="M2235.2 638.002h-22.08v.594h22.08v-.594z" fill="#EBECED"/><path d="M2234.74 638.002h-.45l.37.325-10.49 9.205-10.49-9.205.35-.325h-.44l-.37.311 10.95 9.601 10.93-9.601-.12-.085-.24-.226z" fill="#EBECED"/><path d="M2213.12 638.002v19.356h22.08v-19.356h-22.08zm.8 18.678v-17.985h20.5v17.985h-20.5z" fill="#EBECED"/><path d="M2213.23 657.091l10.93-9.601 10.83 9.502-.12.099.12-.099.11.099-10.93 9.6-10.94-9.6zm.45 0l10.49 9.204 10.49-9.204-10.49-9.205-10.49 9.205z" fill="#EBECED"/><path d="M2213.12 676.134v-19.37h22.08v19.356h-22.08v.014zm21.68-.339v-.353.353zm-20.88-.353h20.5v-17.986h-20.5v17.986z" fill="#EBECED"/><path d="M2213.23 675.866l10.93-9.6 10.83 9.501-.12.099.12-.099.11.099-10.94 9.601-10.93-9.601zm.45 0l10.49 9.205 10.49-9.205-10.49-9.204-10.49 9.204z" fill="#EBECED"/><path d="M2213.12 694.914v-19.371h22.08v19.356h-22.08v.015zm21.68-.354v-.353.353zm-20.88-.339h20.5v-17.985h-20.5v17.985z" fill="#EBECED"/><path d="M2213.23 694.626l10.93-9.601 10.83 9.502-.12.099.12-.099.11.099-10.94 9.6-10.93-9.6zm.45 0l10.49 9.204 10.49-9.204-10.49-9.205-10.49 9.205z" fill="#EBECED"/><path d="M2213.12 713.759v-19.37h22.08v19.37h-22.08zm21.68-.353v-.339.339zm-20.88-.339h20.5v-17.986h-20.5v17.986z" fill="#EBECED"/><path d="M2213.23 713.477l10.93-9.6 10.83 9.501-.12.099.12-.099.11.099-10.94 9.601-10.93-9.601zm.45 0l10.49 9.205 10.49-9.205-10.49-9.204-10.49 9.204z" fill="#EBECED"/><path d="M2213.12 732.539v-19.371h22.08v19.371h-22.08zm21.68-.354v-.339.339zm-20.88-.339h20.5v-17.985h-20.5v17.985z" fill="#EBECED"/><path d="M2213.23 732.251l10.93-9.601 10.83 9.502-.12.099.12-.099.11.099-10.93 9.6-10.94-9.6zm.45 0l10.49 9.204 10.49-9.204-10.49-9.205-10.49 9.205z" fill="#EBECED"/><path d="M2213.12 751.298v-19.37h22.08v19.356h-22.08v.014zm21.68-.339v-.353.353zm-20.88-.353h20.5v-17.985h-20.5v17.985z" fill="#EBECED"/><path d="M2213.23 751.028l10.93-9.6 10.83 9.501-.12.099.12-.099.11.099-10.94 9.601-10.93-9.601zm.45 0l10.49 9.205 10.49-9.205-10.49-9.204-10.49 9.204z" fill="#EBECED"/><path d="M2235.2 770.021v-19.314h-22.08v19.314h22.08zm-21.28-18.621h20.5v17.985h-20.5V751.4z" fill="#EBECED"/><path d="M2213.93 770.018l-.25-.226 10.49-9.205 10.49 9.205-.27.226h.45l.26-.226-.11-.099-10.82-9.502-10.94 9.601.26.226h.44zm-387.09-110.245h-333.68v148.108h333.68V659.773z" fill="#EBECED"/><path d="M1768.94 622.332h-146.41v73.213h146.41v-73.213z" fill="#EBECED"/><path d="M1789.8 644.037h-243.89v69.367h243.89v-69.367zm250.57 26.402h-111.44v136.245h111.44V670.439zm-580.5 86.178h-60.89v25.564h60.89v-25.564zm423.99 0h-42.16v24.433h42.16v-24.433zm-50.88-52.076h-17.05v24.433h17.05v-24.433z" fill="#EBECED"/><path d="M1469.9 768.537h-27.79v7.211h27.79v-7.211zm-50.89-15.326h-15.48v7.211h15.48v-7.211z" fill="#EBECED"/><path d="M2253 771.107h-914v188h914v-188z" fill="#EBECED"/><path d="M1876 791H0v218h1876V791zm370.37-28.9h-45.28v45.712h45.28V762.1zm-59.6-91.661h-111.45v136.245h111.45V670.439zm-690.53 93.782h-40.16v3.025h40.16v-3.025zm0-4.395h-40.16v3.026h40.16v-3.026z" fill="#EBECED"/><path d="M1340.86 790.605h-40.15v3.026h40.15v-3.026zm0-4.396h-40.15v3.026h40.15v-3.026zm742.57-20.684H1834v2.022h249.43v-2.022zm-247.72-44.455h-4.68v2.022h4.68v-2.022zm3.28 17.223h-13.58v.65h13.58v-.65zm0 18.17h-13.58v.65h13.58v-.65z" fill="#EBECED"/><path d="M1836.03 721.07h-2.02v46.49h2.02v-46.49zm246.14 41.328h-244.5v2.022h244.5v-2.022zm-243.35-44.455h-7.51v2.022h7.51v-2.022z" fill="#EBECED"/><path d="M1839.14 717.943h-2.02v46.49h2.02v-46.49zm-807.32 48.979h-3.59v5.401h3.59v-5.401zm-1.78 19.541h-8.48v2.559h8.48v-2.559zm41.36-39.326h-29.55v13.107h29.55v-13.107zm8.74 4.568h-4.12v3.987h4.12v-3.987z" fill="#EBECED"/><path d="M1066 745.596h-6.29v3.337h6.29v-3.337zm378.9 3.463h-6.94v12.258h6.94v-12.258zm8.74 3.214h-5.91v7.551h5.91v-7.551zm81.45-97.523h-20.61v8.286h20.61v-8.286zm-30.82 4.16h-4.44v3.181h4.44v-3.181zm63.58-16.867h-13.87v5.585h13.87v-5.585zm23.52 0h-12.53v5.585h12.53v-5.585zm19.6-1.033h-10.09v4.821h10.09v-4.821z" fill="#EBECED"/><path d="M1613.16 639.086h-14.4v2.955h14.4v-2.955zm-54.86 1.797h-1.87v2.05h1.87v-2.05zm5.57 0h-1.8v2.05h1.8v-2.05zm112.16-21.326h-5.91v5.655h5.91v-5.655z" fill="#EBECED"/><path d="M1678.73 618.271h-10.87v2.249h10.87v-2.249zm15.68 1.286h-5.91v5.655h5.91v-5.655z" fill="#EBECED"/><path d="M1697.1 618.271h-10.87v2.249h10.87v-2.249zm15.3 1.286h-5.91v5.655h5.91v-5.655z" fill="#EBECED"/><path d="M1715.1 618.271h-10.87v2.249h10.87v-2.249zm35.71-11.025h-24.15v21.69h24.15v-21.69z" fill="#EBECED"/><path d="M1745.94 605.805h-7.2v4.114h7.2v-4.114zm18.24 14.72h-4.88v3.408h4.88v-3.408zm15.93 19.85h-7.19v6.037h7.19v-6.037zm85.88 111.512h-17.15v8.865h17.15v-8.865zm13.31 2.109h-4.82v6.759h4.82v-6.759zm89.03-89.98h-28.52v14.224h28.52v-14.224zm61.8-4.643h-38.29v23.909h38.29v-23.909zm-45.48 9.588h-5.53v3.916h5.53v-3.916zm66.55 69.978h-16.19v36.465h16.19v-36.465zm74.01-78.886h-33.92v18.762h33.92v-18.762zm25.45 6.207h-8.49v6.617h8.49v-6.617zm41.62 68.693h-11.94v40.466h11.94v-40.466zM1147.6 626.416h-6.6v2.446h6.6v-2.446z" fill="#EBECED"/><path d="M1143.65 627.617l.66-148.617.65 148.617h-1.31z" fill="#EBECED"/><path d="M1158.36 627.561h-29.86v1.3h29.86v-1.3z" fill="#EBECED"/><path d="M1138.59 627.97l5.76-29.693.16.043-5.75 29.678-.17-.028z" fill="#EBECED"/><path d="M1144.27 599.041l.17-.014 4.34 28.646-.16.014-4.35-28.646zm-15.01 29.607l14.96-65.691.15.042-14.98 65.691-.13-.042zm15.09-65.249l.13-.028 11.48 64.871-.13.028-11.48-64.871zM2620 807h-914v188h914V807z" fill="#EBECED"/><path d="M424.299 633v58.693H319v100.066h140V633h-34.701zm-13.402 92.369h-23.453V708.05h23.453v17.319zm-53.606 27.663v-19.003h27.282v18.762h-27.282v.241zm27.282 8.659v14.914h-27.282v-14.914h27.282zm-30.154-8.659h-23.932v-19.003h23.932v19.003zm2.872-27.663V708.05h27.282v17.319h-27.282zm30.153 8.66h23.453v18.762h-23.453v-18.762zm-33.025-25.979v17.319h-23.932V708.05h23.932zm-23.932 53.641h23.932v14.914h-23.932v-14.914zm56.957 14.914v-14.914h23.453v14.914h-23.453zm44.274-107.523h19.385v8.659h-19.385v-8.659zm0-2.887v-8.659h19.385v8.659h-19.385zm19.624-20.687v9.141h-19.385v-9.141h19.385zm-19.624 43.298v-8.178h19.385v8.178h-19.385zm-319.793 75.09h95.14c-3.725-32.807-10.03-91.003-10.889-123.81h-73.362c-.859 32.236-7.164 90.718-10.889 123.81z" fill="#E5E7E8"/><path d="M227.699 722.531h-6.878v13.408h-8.311v27.957h.287v3.423H-7v21.111l288 .57v-53.061h-28.37v-13.408h-5.732v-4.279h-19.199v4.279zm29.516 18.828h21.779v7.703h-21.779v-7.703zm0 11.126h21.779v7.703h-21.779v-7.703zm0 11.126h21.779v7.702h-21.779v-7.702zm-59.033-132.084h-78.233v4.85h78.233v-4.85zM245.179 603h-15.475v4.564h15.475V603zM92.152 631.527H13.919v4.85h78.233v-4.85zm153.027-20.539h-15.474l-1.72 103.27h18.914l-1.72-103.27z" fill="#E5E7E8"/><path d="M90.146 640.086h-73.36c-.86 32.236-7.165 90.718-10.89 123.81h95.14c-4.012-32.807-10.317-91.003-10.89-123.81z" fill="#E5E7E8"/><path d="M1350.03 777.248c2.78-4.632 4.63-9.728 4.63-15.749V641.992c0-6.485-2.32-12.97-6.02-17.602v-18.528h6.02v-4.632h-6.02v-24.087h-6.03v24.087h-108.9v-24.087h-6.95v24.087h-5.56v4.632h6.02v14.359c-6.02 5.559-9.73 12.97-9.73 21.771v69.481h-34.75V624.39h5.09v-18.528h-7.41v-2.779h5.56l10.19-35.204h-79.7l10.19 35.204h5.56v2.779h-8.34v18.528h4.64v6.022h-13.91l-3.7-7.412-.93.927-24.1-47.71-7.88-56.048h2.78v-3.243h-7.41V516h-1.39v.926h-8.34v3.243h2.78l-7.88 56.048-24.1 48.173-.92-.926-2.32 4.632v-94.031h-2.78v96.347h-8.34v-96.347h-2.78v96.347h-3.25v107h-5.09l-1.39-30.572-.47-8.337-.46-9.264h2.32v-3.706h-2.78l-1.39-31.961h3.24v-3.243h-2.78l-1.39-32.424h2.32v-4.169h-2.78l-.93-25.013h-20.392l-.463 10.191-.464 14.822h-1.853v4.169h1.853l-.463 12.97v4.169l-.463 15.285h-2.317v3.243h2.317l-1.854 31.961h-2.317v3.242h1.854v1.853l-.464 15.749-1.39 30.572h-7.878l-.463-14.36-.464-15.749v-1.852h2.317v-3.243h-2.78l-1.391-31.961h2.781v-3.242h-2.781l-1.39-28.719v-3.706h2.317v-4.169h-2.317l-.927-25.013h-20.39l-.463 10.191-.464 14.822h-1.853v4.169h1.853l-1.39 32.425h-2.317v3.242h2.317v.463h-43.56v1.39h43.56v.463h-43.56v6.022h41.707v24.086h-1.391v-13.433c0-3.242-2.317-5.558-5.561-5.558h-24.097c-3.244 0-5.561 2.316-5.561 5.558v41.226c0 3.242 2.317 5.558 5.561 5.558h20.854-19.464a4.152 4.152 0 00-4.17 4.169c0 2.316 1.853 3.706 3.707 4.169h23.17c1.854 0 3.708-1.853 3.708-4.169a4.153 4.153 0 00-4.171-4.169h6.024l-.463 6.948v1.39h-39.853v47.71h463.409v-13.896h-10.19v-.463zm-270.64-235.309l-5.56-3.242 4.64-2.779.92 6.021zm-11.12-22.233h7.88l2.32 14.822-6.03 3.243-6.02-3.243 1.85-14.822zm-2.31 16.212l4.63 2.779-5.1 3.242.47-6.021zm-.93 7.874l7.41-4.169 7.42 4.169 3.71 27.793-1.39-2.316-2.32-15.749-2.32.926.46 4.632-6.02 3.243-5.56-3.243.46-4.632-2.31-.463-2.32 14.822-1.39 2.78 4.17-27.793zm7.41 66.702l-12.51-3.706 1.86-12.506 10.65-3.706 10.66 3.706 1.86 12.043-12.52 4.169zm12.52-2.316l.92 6.485-11.12-3.243 10.2-3.242zm-15.3 3.242l-10.66 3.243.93-6.022 9.73 2.779zm2.78-47.71l7.42 4.169 2.32 18.065-9.74 3.242-9.73-3.242 2.78-18.065 6.95-4.169zm-6.95 2.316l.93-5.558 4.63 2.316-5.56 3.242zm8.34-3.242l4.64-2.78.92 6.022-5.56-3.242zm-3.7 27.329l-8.34 2.779.92-6.022 7.42 3.243zm4.63 0l7.88-2.779.93 6.021-8.81-3.242zm-39.85 40.299l2.31-4.169-.92-.927 25.49-50.489-7.88 55.585h-19zm21.78 0l1.85-14.36 13.9-4.169 13.91 4.169 1.85 14.36h-31.51zm34.29 0l-7.41-54.195 25.02 49.099-.93.927 2.32 4.169h-19zM1211 777.248v-32.425h3.25v-2.779h-15.76v-4.632h-16.68v-21.307h34.75v45.394c0 5.558 1.86 11.117 4.64 15.749H1211zm60.25 0c1.85-2.78 3.24-6.022 3.7-9.728h21.78c.93 3.706 1.86 6.948 3.71 9.728h-29.19zm25.02-101.442v88.009h-20.85v-88.009h20.85zm-20.85-6.022V647.55h20.39v22.234h-20.39zm67.19-50.952c-5.1-3.706-11.12-6.022-17.61-6.022-14.83 0-27.34 11.58-29.19 25.939h-20.86c-1.85-14.359-13.9-25.939-29.19-25.939-4.63 0-8.81.926-12.51 2.779v-9.727h109.36v12.97z" fill="#EBECED"/><path d="M1136.86 519.705l-1.39 16.675h-2.78v22.234h-15.76v8.338h77.39v-8.338h-15.76v-2.779h-.46V536.38h-2.78l-1.39-16.675h-.93l1.39 16.675h-6.02l-.93-16.675h-.92l.92 16.675h-9.73v-16.675h-.93v16.675h-6.02v-16.675h-.93v16.675h-2.78l.47-16.675h-.93l-.46 16.675h-2.32l.46-16.675h-.92l-.93 16.675h-5.56l.92-16.675h-.92z" fill="#EBECED"/><path d="M1279.08 438.986h-1.69v-8.951h1.69v-1.678h-76.4v-11.749c0-1.678-1.12-2.797-2.24-2.797h-.57v-34.685l-14.04-20.699c1.69-.56 2.81-1.119 3.37-2.238l74.71 61.538c-.56 1.119-1.12 2.238-1.12 3.916 0 3.916 2.81 6.714 6.18 6.714 3.37 0 6.18-2.798 6.18-6.714 0-3.916-2.81-6.713-6.18-6.713-1.69 0-2.81.56-3.93 1.678l-75.28-62.098c.57-1.118.57-1.678.57-2.797 0-3.916-2.81-6.713-6.18-6.713-3.37 0-6.18 2.797-6.18 6.713v1.119l-144.37 68.811c-.56-.559-1.12-.559-1.69-.559-1.68 0-3.37 1.678-3.37 3.916 0 1.678 1.13 3.357 2.25 3.916h-44.376l-16.291 10.07H969v1.678h202.23v5.595c0 1.678 1.12 3.356 2.8 3.356h8.43v.56c-.56.559-1.12 1.119-1.12 2.238v.559c0 1.119.56 1.678 1.12 2.238V745h16.85V454.65c.56-.559 1.13-1.119 1.13-2.237v-.56c0-1.119-.57-1.678-1.13-2.238h1.13c1.12 0 2.24-1.118 2.24-2.797v-6.154h35.95v12.308H1292v-12.308h-12.92v-1.678zm-255.59-8.951l-2.25 3.916-2.25-3.916h4.5zm-11.8 0l-2.24 3.916-2.25-3.916h4.49zm-12.356 0l-2.247 3.916-2.247-3.916h4.494zm-5.056 8.951h-21.346c4.494-2.797 8.988-6.154 14.044-8.951h7.302v8.951zm0-8.392l2.247 3.916-2.247 3.917v-7.833zm5.618 8.392h-5.056l2.809-3.916 2.247 3.916zm0-.559l-2.247-3.917 2.247-3.916v7.833zm6.174.559h-5.05v-8.951h5.05v8.951zm.57-8.392l2.24 3.916-2.24 3.917v-7.833zm5.05 8.392h-5.05l2.81-3.916 2.24 3.916zm0-1.119l-2.24-3.357 2.24-3.916v7.273zm6.74 1.119h-5.05v-8.951h5.05v8.951zm0-8.392l2.25 3.916-2.25 3.917v-7.833zm5.62 8.392h-5.06l2.81-3.916 2.25 3.916zm0-.559l-2.25-3.917 2.25-3.916v7.833zm10.11.559h-8.99v-8.951h8.99v8.951zm2.81-4.476l-2.25 3.917v-7.833l2.25 3.916zm-2.25-4.475h5.06l-2.25 3.916-2.81-3.916zm5.06 8.951h-5.06l2.81-3.916 2.25 3.916zm0-.559l-2.25-3.917 2.25-3.916v7.833zm6.18.559h-5.06v-8.951h5.06v8.951zm2.81-4.476l-2.25 3.917v-7.833l2.25 3.916zm-2.25-4.475h5.06l-2.25 3.916-2.81-3.916zm5.06 8.951h-5.06l2.81-3.916 2.25 3.916zm0-1.119l-2.25-3.357 2.25-3.916v7.273zm6.74 1.119h-5.06v-8.951h5.06v8.951zm2.81-4.476l-2.25 3.917v-7.833l2.25 3.916zm-2.25-4.475h5.05l-2.24 3.916-2.81-3.916zm5.05 8.951h-5.05l2.81-3.916 2.24 3.916zm0-.559l-2.24-3.917 2.24-3.916v7.833zm6.18.559h-5.05v-8.951h5.05v8.951zm2.81-4.476l-2.25 3.917v-7.833l2.25 3.916zm-2.25-4.475h5.06l-2.25 3.916-2.81-3.916zm5.06 8.951h-5.06l2.81-3.916 2.25 3.916zm0-.559l-2.25-3.917 2.25-3.916v7.833zm6.74.559h-5.62v-8.951h5.62v8.951zm0-8.392l2.25 3.916-2.25 3.917v-7.833zm.56-.559h5.06l-2.25 3.916-2.81-3.916zm5.06 8.951h-5.06l2.81-3.916 2.25 3.916zm0-1.119l-2.25-3.357 2.25-3.916v7.273zm6.18 1.119h-5.06v-8.951h5.06v8.951zm2.81-4.476l-2.25 3.917v-7.833l2.25 3.916zm-2.25-4.475h5.06l-2.25 3.916-2.81-3.916zm5.06 8.951h-5.06l2.81-3.916 2.25 3.916zm0-.559l-2.25-3.917 2.25-3.916v7.833zm10.11.559h-8.99v-8.951h8.99v8.951zm2.81-4.476l-2.25 3.917v-7.833l2.25 3.916zm-1.69-4.475h5.06l-2.25 3.916-2.81-3.916zm4.49 8.951h-5.05l2.81-3.916 2.24 3.916zm0-.559l-2.24-3.917 2.24-3.916v7.833zm6.74.559h-5.05v-8.951h5.05v8.951zm2.81-4.476l-2.24 3.917v-7.833l2.24 3.916zm-2.24-4.475h5.05l-2.24 3.916-2.81-3.916zm5.05 8.951h-5.05l2.81-3.916 2.24 3.916zm0-1.119l-2.24-3.357 2.24-3.916v7.273zm6.18 1.119h-5.05v-8.951h5.05v8.951zm2.81-4.476l-2.25 3.917v-7.833l2.25 3.916zm-1.69-4.475h5.06l-2.25 3.916-2.81-3.916zm4.5 8.951h-5.06l2.81-3.916 2.25 3.916zm0-.559l-2.25-3.917 2.25-3.916v7.833zm10.11.559h-8.99v-8.951h8.99v8.951zm2.81-4.476l-2.25 3.917v-7.833l2.25 3.916zm-2.25-4.475h5.06l-2.25 3.916-2.81-3.916zm5.06 8.951h-5.06l2.81-3.916 2.25 3.916zm0-.559l-2.25-3.917 2.25-3.916v7.833zm1.12.559v-8.951h5.06v8.951h-5.06zm8.43-4.476l-2.25 3.917v-7.833l2.25 3.916zm-2.25-4.475h5.06l-2.25 3.916-2.81-3.916zm5.06 8.951h-5.06l2.81-3.916 2.25 3.916zm0-1.119l-2.25-3.357 2.25-3.916v7.273zm3.37-6.154v7.273h-2.81v-8.951h2.81c.56.559 0 1.119 0 1.678zm11.79-17.342c-1.12 0-2.24 1.119-2.24 2.797v11.748h-147.74c1.12-.559 2.25-1.678 2.25-3.916v-1.119l143.8-68.252c1.12 1.119 2.25 2.238 3.93 2.798v55.944zm3.93-51.469l.57 1.119h-.57v-1.119zm0 2.238h1.69l.56 1.119v.559h-2.81v-1.678h.56zm-1.12 16.783h10.11l-5.05 2.238-5.06-2.238zm10.67 5.594h-10.67l5.06-2.797 5.61 2.797zm-9.55-19.58h2.25v1.678h-2.81v-1.678h.56zm0 2.797h2.25v1.679h-2.81v-1.679h.56zm0 2.797h2.25v1.679h-2.81v-1.679h.56zm0 2.798h2.25v2.237h-2.81v-2.237h.56zm0 3.356h2.25v1.119h-2.81v-1.119h.56zm-1.68-19.021l1.12 1.119v18.462h-1.12v-19.581zm0 21.259l5.06 2.797-5.06 2.797v-5.594zm0 13.427l5.06 2.797-5.06 2.797v-5.594zm.56 0h10.11l-5.05 2.797-5.06-2.797zm10.67 5.594h-10.67l5.06-2.797 5.61 2.797zm-11.23 7.832l5.06 2.797-5.06 2.798v-5.595zm.56-.559h10.11l-5.05 2.797-5.06-2.797zm10.67 5.594h-10.67l5.06-2.797 5.61 2.797zm-11.23 45.315l5.06 2.797-5.06 2.797v-5.594zm.56-.56h10.11l-5.05 2.798-5.06-2.798zm10.67 6.154h-10.67l5.06-2.797 5.61 2.797zm-11.23 7.273l5.06 2.797-5.06 2.797v-5.594zm.56 17.343h10.11l-5.05 2.797-5.06-2.797zm10.67 5.594h-10.67l5.06-2.797 5.61 2.797zm-7.3-13.427v1.119h-2.81v-1.119h2.81zm-2.81-.559v-1.119h2.81v1.119h-2.81zm2.81 2.238v1.119h-2.81v-1.119h2.81zm0 1.678v1.119h-2.81v-1.119h2.81zm0 1.678v1.119h-2.81v-1.119h2.81zm0-7.272h-2.81v-.56h2.81v.56zm-3.37-1.679l5.06-2.797 5.05 2.797h-10.11zm0-5.594h10.11l-5.05 2.797-5.06-2.797zm-.56 6.154h.56v9.51h-.56v-9.51zm0 11.189l5.06 2.797-5.06 2.797v-5.594zm0 13.426l5.06 2.797-5.06 2.798v-5.595zm.56-.559h10.11l-5.05 2.797-5.06-2.797zm10.67 6.154h-10.67l5.06-2.798 5.61 2.798zm-11.23 7.272l5.06 2.798-5.06 2.797v-5.595zm.56 17.343h10.11l-5.05 2.238-5.06-2.238zm10.67 5.594h-10.67l5.06-2.797 5.61 2.797zm-6.74-13.426v1.119h-2.81v-1.119h2.81zm-2.81-.56v-1.118h2.81v1.118h-2.81zm2.81 2.238v1.119h-2.81v-1.119h2.81zm0 1.679v1.118h-2.81v-1.118h2.81zm0 1.678v1.119h-2.81v-1.119h2.81zm0-7.273h-2.81v-1.119h2.81v1.119zm-3.93-1.678l5.06-2.797 5.05 2.797h-10.11zm0-5.595h10.11l-5.05 2.798-5.06-2.798zm-.56 6.154h1.12v10.07h-1.12v-10.07zm0 11.189l5.06 2.797-5.06 2.797v-5.594zm0 13.427l5.06 2.797-5.06 2.797v-5.594zm.56-.56h10.11l-5.05 2.797-5.06-2.797zm10.67 6.154h-10.67l5.06-2.797 5.61 2.797zm-11.23 7.832l5.06 2.797-5.06 2.798v-5.595zm.56 16.783h10.11l-5.05 2.798-5.06-2.798zm10.67 5.595h-10.67l5.06-2.797 5.61 2.797zm-1.12-13.427v1.119h-2.81v-1.119h2.81zm-2.81-.559v-1.119h2.81v1.119h-2.81zm2.81 2.238v1.118h-2.81v-1.118h2.81zm0 1.678v1.119h-2.81v-1.119h2.81zm0 1.678v1.119h-2.81v-1.119h2.81zm0-7.273h-2.81v-.559h2.81v.559zm-9.55-1.678l5.06-2.797 5.05 2.797h-10.11zm0-5.594h10.11l-5.05 2.797-5.06-2.797zm-.56 6.154h6.74v9.51h-6.74v-9.51zm0 11.188l5.06 2.798-5.06 2.797v-5.595zm0 13.427l5.06 2.797-5.06 2.797v-5.594zm.56 0h10.11l-5.05 2.797-5.06-2.797zm10.67 5.594h-10.67l5.06-2.797 5.61 2.797zm-11.23 7.833l5.06 2.797-5.06 2.797v-5.594zm.56-.56h10.11l-5.05 2.797-5.06-2.797zm10.67 6.154h-10.67l5.06-2.797 5.61 2.797zm-10.11 10.07h-1.12v-10.07h1.12v10.07zm2.81-.56h-2.81v-1.118h2.81v1.118zm0-1.678h-2.81v-1.119h2.81v1.119zm0-1.678h-2.81v-1.119h2.81v1.119zm0-1.679h-2.81v-1.118h2.81v1.118zm0-1.678h-2.81v-1.119h2.81v1.119zm0-1.678h-2.81v-1.119h2.81v1.119zm7.87 8.951h-7.31v-10.07h7.31v10.07zm0-10.63l-5.62-2.797 5.62-2.797v5.594zm0-6.713h-11.8v-5.594h11.8v5.594zm0-6.154l-5.62-2.797 5.62-2.797v5.594zm0-7.272h-11.8v-5.595h11.8v5.595zm0-6.154l-5.62-2.797 5.62-2.798v5.595zm0-6.713h-1.13v-9.511h1.13v9.511zm0-10.63l-5.62-2.797 5.62-2.797v5.594zm0-6.713h-11.8v-5.595h11.8v5.595zm0-6.154l-5.62-2.797 5.62-2.797v5.594zm0-7.273h-11.8v-5.594h11.8v5.594zm0-6.154l-5.62-2.797 5.62-2.797v5.594zm0-6.713h-6.74v-10.07h6.74v10.07zm0-10.629l-5.62-2.797 5.62-2.798v5.595zm0-6.714h-11.8v-5.594h11.8v5.594zm0-6.713l-5.62-2.797 5.62-2.797v5.594zm0-6.713h-11.8v-5.594h11.8v5.594zm0-6.154l-5.62-2.797 5.62-2.797v5.594zm0-7.273h-7.31v-9.51h7.31v9.51zm0-10.07l-5.62-2.797 5.62-2.797v5.594zm0-6.713h-11.8v-5.594h11.8v5.594zm0-6.154l-5.62-2.797 5.62-2.797v5.594zm0-7.272h-11.8v-2.798h11.8v2.798zm0-43.637l-5.62-2.797 5.62-2.797v5.594zm0-6.713h-11.8v-5.595h11.8v5.595zm0-6.154l-5.62-2.797 5.62-2.797v5.594zm0-7.273h-11.8v-5.594h11.8v5.594zm0-6.154l-5.62-2.797 5.62-2.797v5.594zm0-6.713h-7.31v-13.426l7.31 10.07v3.356zm79.2 49.231l-2.25 3.916-2.24-3.916h4.49zm-11.8 0l-2.24 3.916-2.25-3.916h4.49zm-12.35 0l-2.25 3.916-2.25-3.916h4.5zm-15.73 0l-2.25 3.916-2.25-3.916h4.5zm-11.8 0l-2.25 3.916-2.24-3.916h4.49zm-12.36 0l-2.24 3.916-2.25-3.916h4.49zm-5.61 8.951h-3.94v-8.951h3.94v8.951zm.56-8.392l2.24 3.916-2.24 3.917v-7.833zm5.05 8.392h-5.05l2.81-3.916 2.24 3.916zm0-.559l-2.24-3.917 2.24-3.916v7.833zm6.74.559h-5.05v-8.951h5.05v8.951zm0-8.392l2.25 3.916-2.25 3.917v-7.833zm5.62 8.392h-5.05l2.8-3.916 2.25 3.916zm0-1.119l-2.25-3.357 2.25-3.916v7.273zm6.18 1.119h-5.06v-8.951h5.06v8.951zm.56-8.392l2.25 3.916-2.25 3.917v-7.833zm5.06 8.392h-5.06l2.81-3.916 2.25 3.916zm0-.559l-2.25-3.917 2.25-3.916v7.833zm10.11.559h-8.99v-8.951h8.99v8.951zm.56-8.392l2.25 3.916-2.25 3.917v-7.833zm5.06 8.392h-5.06l2.81-3.916 2.25 3.916zm0-.559l-2.25-3.917 2.25-3.916v7.833zm6.74.559h-5.06v-8.951h5.06v8.951zm.56-8.392l2.25 3.916-2.25 3.917v-7.833zm5.05 8.392h-5.05l2.81-3.916 2.24 3.916zm0-1.119l-2.24-3.357 2.24-3.916v7.273zm6.18 1.119h-5.05v-8.951h5.05v8.951zm.57-8.392l2.24 3.916-2.24 3.917v-7.833zm5.05 8.392h-5.05l2.8-3.916 2.25 3.916zm0-.559l-2.25-3.917 2.25-3.916v7.833z" fill="#EBECED"/></g><defs><clipPath id="clip0"><path fill="#fff" d="M0 0h2500v960H0z"/></clipPath></defs></svg>