<svg width="1280" height="672" fill="none" xmlns="http://www.w3.org/2000/svg"><g clip-path="url(#clip0)"><path opacity=".66" d="M230.484 659.324v-21.127h6.494v-30.593h28.421v4.936h33.294v20.728h4.059v26.343h11.489v-14.183h25.134v-11.513h34.143V616.64h9.743v-58.236h13.355v-51.329h27.529v39.485h15.958v42.442h4.059v51.759h8.122v16.348h18.675v-32.246h8.12v-28.95h10.556v-6.911h51.97v6.911h21.113V612.2h5.684v20.611h7.96V511.518h8.934v-8.884h36.541v-20.73h29.232v63.173h4.871v102.475-6.626l-.001-62.261V477.121h6.496v-29.615h11.369V412h19.657v35.506h8.762v17.275h5.685v95.747h17.052v21.533h71.458V431.715h4.872v-7.899h38.976v7.899h5.683v150.346h25.985v-62.498h3.996v-29.611h13.868v-6.911h29.233v6.911h17.865v16.78h7.308v53.796h11.367v6.329h13.805v-40.384h1.452v-23.027h21.924v19.741h19.488v3.286h2.61v40.384h16.88v41.082h10.79v60.373H220.001v-8.988h10.483z" fill="#E0E5ED" fill-opacity=".38"/><path fill="#C4C4C4" d="M-536 667h1935v7H-536z"/><path fill="#C4C4C4" d="M-544 667h1943v7H-544z"/><g clip-path="url(#clip1)"><path d="M1281.61 638.938h-12.21v2.56h12.21v-2.56zm0-34.891h-12.21v13.312h12.21v-13.312zm0 26.844h-12.21v2.56h12.21v-2.56zm0 4.023h-12.21v2.56h12.21v-2.56zm0-12.068h-12.21v2.56h12.21v-2.56zm0 20.115h-12.21v25.966h12.21v-25.966zm0-24.139h-12.21v2.56h12.21v-2.56zm0 8.045h-12.21v2.56h12.21v-2.56z" fill="#E7E7E7"/><path d="M1219.53 602.365h-40.96c-.8 0-1.53.732-1.53 1.683 0 .95.66 1.682 1.53 1.682h40.96v-3.365zm0 5.487h-36.86v3.364l7.02 4.535v18.652h-11.99v14.41h41.83v-40.961zm-24.72 25.308c0 .951-.66 1.682-1.46 1.682-.81 0-1.47-.731-1.47-1.682v-16.385c0-.951.66-1.682 1.47-1.682.8 0 1.46.731 1.46 1.682v16.385zm3.95 1.682c-.81 0-1.46-.731-1.46-1.682v-16.385c0-.951.65-1.682 1.46-1.682.8 0 1.46.731 1.46 1.682v16.385c0 .951-.66 1.682-1.46 1.682zm5.41 0c-.81 0-1.46-.731-1.46-1.682v-16.385c0-.951.65-1.682 1.46-1.682.8 0 1.46.731 1.46 1.682v16.385c0 .951-.66 1.682-1.46 1.682zm5.41 0c-.8 0-1.46-.731-1.46-1.682v-16.385c0-.951.66-1.682 1.46-1.682.8 0 1.46.731 1.46 1.682v16.385c0 .951-.66 1.682-1.46 1.682zm5.41 0c-.8 0-1.46-.731-1.46-1.682v-16.385c0-.951.66-1.682 1.46-1.682.81 0 1.46.731 1.46 1.682v16.385c0 .951-.65 1.682-1.46 1.682zm-41.68 16.092L1168.7 669h50.83v-18.066h-46.22zm-104.5 9.8l1.03 4.316c2.12 0 4.24-.073 6.29-.073l.36-4.169c-2.19 0-4.39 0-6.58-.074h-1.1zm8.48.075l.37 4.169c2.12 0 4.24 0 6.29.073l1.02-4.242h-7.68zm-20.83-.44l1.46 4.974c1.39-.073 2.85-.146 4.24-.146l-.66-4.608c-1.61-.074-3.36-.147-5.04-.22zm5.62.221l1.17 4.535c1.76-.073 3.51-.073 5.34-.073l-.44-4.316c-2.04-.073-4.02-.073-6.07-.146zm30.79-.513l-.36-1.389-.22 1.389h.58zm-7.24.658l-.44 4.242c1.76 0 3.51.074 5.34.074l1.17-4.535c-2.05.146-4.02.219-6.07.219zm7.39-.145h-.81l-.66 4.535c.88 0 1.76.073 2.71.146l-1.24-4.681z" fill="#CBCCCE"/><path d="M1094.33 665.563c-.95.073-1.9.073-2.85.146l-.29 2.341h-1.39l.58-2.268c-1.75.073-3.51.073-5.26.073l-.22 2.195h-1.68l.51-2.195c-1.97 0-4.02.074-6 .074l.22 2.121h-2.04l.22-2.121c-1.98 0-4.03 0-6-.074l.51 2.195h-1.68l-.22-2.195c-1.76 0-3.51-.073-5.27-.073l.59 2.268h-1.39l-.29-2.341c-1.39-.073-2.85-.073-4.24-.146l.73 2.487h-1.1l-.51-2.56c-.37 0-.81-.073-1.17-.073.36 0 .8-.074 1.17-.074l-1.1-5.047c-.29 0-.51 0-.8-.073.29 0 .51 0 .8-.073l-.88-4.169 1.25 4.096 5.04-.219-.58-3.877 1.02 3.877c2.05-.074 4.1-.074 6.07-.147l-.36-3.73.87 3.73c2.64 0 5.34-.073 7.97 0l.3-3.73.29 3.73c2.27 0 4.46 0 6.73.073h1.31l.88-3.803-.37 3.803c2.05 0 4.1.074 6.07.147l.52-1.902-1.25-4.681h-39.49l4.17 15.506h39.49l-.88-3.291zm-2.41-140.146l20.33-15.507 15.14 2.414-19.24 14.336-16.23-1.243zm19.74 49.739c.08 3.511-2.7 3.657-3.73 1.902-.58-1.024-.51-2.487-.36-3.511-.66.658-1.03 1.682-1.03 2.706 0 2.121 1.54 3.804 3.37 3.804.95 0 2.05-.439 2.56-1.39.44-.731.51-1.682.14-2.487-.07-.219-.21-.439-.43-.658l-.52-.366zm-22.23 3.803s3.66-9.948 8.12-15.434c0 0-3.07 10.314-5.34 15.068-.07-.073-1.46-.877-2.78.366z" fill="#CBCCCE"/><path d="M1091.85 579.033s-5.2-.658-10.83 10.167c0 0 5.41-5.998 7.61-2.779 0 0 2.48-4.755 3.22-7.388zm-6.73 74.389c-.15-6.437.59-55.81 1.61-64.149 0 0-4.75 28.527-3.51 64.149h1.9zm17.4-88.727c-.51-1.682-1.82-6.363-1.97-8.704-.37-4.535 1.1-10.752 1.1-10.752l4.16-25.235-5.55 3.877-2.34 20.334c-.08.439-.15.951-.15 1.463-.66 6.656.44 13.02 1.17 16.092l3.58 2.925z" fill="#CBCCCE"/><path d="M1081.9 653.42c-.44-12.215.66-55.297 3.36-65.172 0 0-4.24.293-6.72 65.172h3.36z" fill="#CBCCCE"/><path d="M1076.64 653.421c3.73-54.42 4.09-62.174 7.46-65.538 0 0-7.46.219-10.46 65.538h3z" fill="#CBCCCE"/><path d="M1071.37 653.422c.59-8.266 2.93-52.884 9.14-63.344-9.28 10.094-12.21 58.882-12.5 63.344h3.36zm21.65-61.809c-.52.805-1.03 1.463-1.39 1.902l.66.219c.51-.731.95-1.316 1.31-1.901l-.58-.22zm17.62 6.949l1.68.585c.15-.22.3-.366.51-.585l-1.68-.585c-.14.219-.29.365-.51.585zm-7.75-31.306l.95.732c-.15 1.243-.58 3.657-1.1 5.12 0 0 1.47-2.707 1.9-4.535l4.1 3.145c1.83-.512 4.02.073 4.9 2.121.88 2.121.51 4.974-1.02 6.656-2.42 2.634-7.24 2.122-8.56-1.609-.37-1.17-.51-2.487-.37-3.657-2.48 3.145-2.04 8.119.88 10.679 2.41 2.121 6 2.195 8.56.512.36-.219.73-.512 1.02-.804 4.75-4.609 1.54-11.923-1.53-17.628-2.64-4.901-1.25-14.117-1.25-14.117l2.12-12.362 5.71-29.843-7.54 4.608-3.36 25.747-1.24 11.63s-1.1 7.461 2.56 17.043l-10.83-9.07c-2.34 10.972-8.92 24.723-8.92 24.723l1.76-.951s6.07-12.361 8.12-20.48l2.41 1.828c-.81 2.78-4.24 14.41-8.41 22.09l.8.219c4.03-7.387 7.39-18.505 8.34-21.797zm-9.95 26.77l15.8 5.633c.22-.22.44-.512.73-.805l-15.94-5.559c-.22.219-.37.512-.59.731zm26.4-15.067c-1.83 7.388-5.92 15.946-5.92 15.946s-.81 1.097-1.9 2.56l1.68.585c5.19-7.095 7.46-17.921 7.46-17.921l-1.32-1.17zm-25.37 13.751l16.01 5.632c.15-.219.3-.365.52-.585l-16.02-5.632c-.29.219-.44.366-.51.585z" fill="#CBCCCE"/><path d="M1091.55 591.102c-.14-.073-.21-.219-.21-.439.07-.146.21-.292.36-.219l.95.292c.66-1.17 1.1-2.048 1.1-2.048l-.73-.219-3.37 1.024a21.579 21.579 0 01-.58 2.999l1.9.658c.51-.585.95-1.243 1.32-1.902l-.74-.146zm17.99 8.849l1.61.585c.22-.292.51-.512.73-.804l-1.61-.586c-.29.22-.51.512-.73.805zm-8.99-20.627c-1.54 3.365-4.46 8.485-5.27 9.948l.81.219c2.34-4.242 4.46-10.167 4.46-10.167zm-6.51 11.996c.81-1.316 1.24-2.048 1.24-2.048l-.73-.219c-.36.731-.8 1.463-1.17 2.048l.66.219z" fill="#CBCCCE"/><path d="M1110.86 597.173c.66-.878 1.32-1.756 1.75-2.56l-2.77-.878c.87-2.268 1.09-4.755 1.09-4.755l-5.04.293c-.15 1.097-.59 2.268-.81 2.999l-9.07-2.78c-.36.732-.8 1.39-1.24 2.049l16.09 5.632zm-2.85-6.949l1.09-.293s-.29 1.317-.8 2.268l-.88-.22.59-1.755zm4.17-87.117l-20.26 17.043v4.023l20.26-16.165 15.21 2.633v-4.9l-15.21-2.634zm-59.09 27.137l1.46-1.609H768.115v1.609h233.125l2.71 4.242H768.115v1.61h236.855l29.98 47.105v-1.39l-29.1-45.715h11.19l17.91 38.986v-1.756l-17.11-37.23h29.91l1.46-1.61h-44.38l-2.71-4.242h50.97z" fill="#CBCCCE"/><path d="M1225.3 524.1h-4.6v5.12h4.6v-5.12zm0 6.656h-4.6v44.326h4.6v-44.326zm0 45.861h-4.6v5.12h4.6v-5.12zm13.82-52.517h-4.6v5.12h4.6v-5.12zm0 52.517h-4.6v5.12h4.6v-5.12zm0-45.861h-4.6v15.287l4.6 4.535v-19.822zm0 27.868l.88.804 3.07-2.267-3.95-3.877-4.6-4.608v5.339l4.6 4.609zm24.58 16.238l4.68 4.608v-37.669l-4.68 3.364v29.697z" fill="#E7E7E7"/><path d="M1267.42 581.226l-23.32-23.04-3.15 2.267 21.87 21.578-.95.658-21.87-21.578-1.31.951-4.25 3.072v9.948h4.61v-11.264l20.7 20.407-20.63 15.068v-16.019h-4.6v26.698l4.6-3.364 24.57-17.921v41.693l-22.59-22.31-2.05 1.463-2.78 1.975-1.39 1.024-.51.366V669h4.61v-9.948l24.57-17.92v27.795h4.61v-86.823l-.74-.878zm-28.3 70.585v-35.183l20.48 20.262-20.48 14.921zm22.6-16.458l-22.6-22.382v-1.609l23.55 23.26-.95.731zm-27.2-79.728v7.827l4.53-3.292-4.53-4.535zm-9.22 27.648h-4.6v85.726h4.6v-85.726zm13.82-122.078h-4.6v10.021h4.6v-10.021zm0 11.485h-4.6v5.12h4.6v-5.12z" fill="#E7E7E7"/><path d="M1263.7 461.195v3.511l-24.58 17.848v-3.219h-4.6v43.229h4.6V508.74h24.58v26.185l-23.26 16.97 4.24 4.242 21.36-15.579 2.34-1.683v-77.68h-4.68zm0 40.011h-24.58v-11.338l24.58-17.92v29.258zm-38.4-21.87h-4.6v43.229h4.6v-43.229zm0-6.656h-4.6v5.12h4.6v-5.12zm0-11.485h-4.6v10.021h4.6v-10.021z" fill="#E7E7E7"/><path d="M1194.59 579.836l2.85 1.024c.44-.512.88-.951 1.32-1.463l-2.93-1.024c-.44.512-.87 1.024-1.24 1.463zm-75.83 75.633l1.68 7.022c3.44-.073 6.87-.073 10.31-.073l.59-6.803c-3.59 0-7.17-.073-10.83-.073-.58-.073-1.17-.073-1.75-.073zm13.89.145l.59 6.803c3.43 0 6.87 0 10.31.073l1.68-6.949c-4.17.073-8.41.073-12.58.073zm-34-.731l2.41 8.119c2.34-.146 4.61-.22 6.95-.293l-1.03-7.46c-2.77-.074-5.55-.22-8.33-.366zm9.14.367l1.9 7.388c2.93-.073 5.78-.147 8.7-.147l-.73-7.022c-3.29-.073-6.58-.073-9.87-.219z" fill="#CBCCCE"/><path d="M1090.68 643.619l6.8 25.381h69.03l6.8-25.381h-82.63zm75.32 11.264l-1.76 8.193c.66 0 1.25.073 1.9.073-.65.073-1.31.073-1.97.073l-.88 4.169h-1.68l1.24-4.096c-2.34.146-4.68.22-6.94.293l-.52 3.803h-2.19l.95-3.73c-2.85.073-5.7.146-8.55.146l-.37 3.584h-2.78l.88-3.511c-3.29.073-6.58.073-9.87.073l.29 3.511h-3.36l.29-3.511c-3.29 0-6.58 0-9.87-.073l.87 3.511h-2.78l-.36-3.584c-2.85-.073-5.7-.073-8.56-.146l.95 3.73h-2.19l-.51-3.803c-2.34-.073-4.68-.147-6.95-.293l1.24 4.096h-1.68l-.88-4.169c-.65 0-1.31-.073-1.97-.073.66-.073 1.24-.073 1.9-.073l-1.75-8.193c-.44 0-.88-.073-1.32-.073.44 0 .88-.073 1.32-.073l-1.47-6.802 2.05 6.729c2.78-.146 5.49-.293 8.26-.366l-.87-6.363 1.61 6.363 9.94-.219-.58-6.144 1.46 6.144c4.39-.073 8.7-.073 13.09-.073l.51-6.071.51 6.071c3.66 0 7.32.073 10.97.073h2.12l1.46-6.144-.58 6.217c3.29.073 6.65.073 9.94.219l1.61-6.363-.87 6.437c2.77.073 5.48.219 8.26.365l2.05-6.729-1.47 6.802c.44 0 .88.074 1.32.074-.58-.147-1.02-.074-1.46-.074z" fill="#CBCCCE"/><path d="M1146.33 655.543l-.73 6.948c2.92.074 5.77.074 8.7.147l1.9-7.388c-3.29.146-6.58.219-9.87.293zm9.65 7.166c2.34.073 4.61.147 6.95.293l2.41-8.119c-2.78.146-5.56.292-8.34.366l-1.02 7.46zm-17.26-19.089h3.07c-.73-13.532-.29-27.283.15-40.815-1.39 13.532-2.49 27.136-3.22 40.815zm59.67-108.256c.22 6.291-4.9 6.583-6.72 3.438-1.03-1.828-.95-4.462-.66-6.29-1.1 1.243-1.83 2.926-1.83 4.9 0 3.731 2.71 6.803 6 6.803 1.68 0 3.65-.732 4.6-2.414.73-1.316.88-2.999.3-4.389-.22-.438-.44-.877-.74-1.17-.07-.219-.95-.878-.95-.878zm-40 6.73s6.58-17.921 14.55-27.795c0 0-5.48 18.505-9.57 26.99-.08.073-2.64-1.316-4.98.805z" fill="#CBCCCE"/><path d="M1162.78 542.387s-8.63-2.78-21.43 18.505c0 0 11.7-11.044 15.65-5.266 0 0 4.39-8.558 5.78-13.239zm-56.75 94.648c1.25.951 2.34 2.121 3.22 3.511-.73-.366-1.53-.439-2.34-.292-.51.073-1.02.292-1.39.804-.29.439-.29 1.244.15 1.609.44.22.88 0 1.32-.292.87-.512 1.9-.951 2.85-.878.36.731.73 1.463 1.09 2.194h9.73c.51-.512.95-1.097 1.39-1.609 1.24-1.463 2.27-3.218 2.63-5.193.08-.585 0-1.39-.51-1.536-.29-.073-.51.073-.8.219-1.69 1.097-2.78 2.999-3.73 4.974 9.06-46.666 20.03-76.948 20.03-76.948-15.43 21.504-22.89 60.637-26.4 77.68 0-2.487-.29-4.974-1.02-7.388-.22-.731-.66-1.609-1.32-1.463-.43.073-.73.585-.73 1.097s.15.951.3 1.463c.43 1.39.87 2.853 1.31 4.316-.29-.732-.66-1.39-1.02-2.122-1.17-1.974-3-3.657-5.05-4.096-.29-.073-.66-.073-.95.074-.73.365-.8 1.536-.36 2.267.22.731.95 1.17 1.6 1.609zm41.61 6.584c0-.439 0-.951-.07-1.463.29.073.59.146.8.292.22.147.44.293.59.512.22.22.37.439.58.659h5.64c.21-.147.43-.293.65-.439 1.03-.585 2.05-1.024 3.07-1.609.59-.293 1.25-.878 1.1-1.609-.07-.366-.36-.659-.73-.805-.37-.073-.73-.073-1.02 0a8.107 8.107 0 00-4.54 2.706c-.29-10.167-1.24-63.124.51-78.557 0 0-6.5 14.117-3.94 79.654-.37-.731-.81-1.462-1.39-2.121-.37-.439-.81-.731-1.32-.951-.44-14.994-.88-61.807 3.36-81.044 0 0-8.84 16.677-8.19 84.775h4.9z" fill="#CBCCCE"/><path d="M1126.73 642.301c1.24.147 2.63.439 3.58 1.317h6.8c.95-15.287 4.17-68.976 11.7-85.36 0 0-16.89 27.575-17.11 83.824-.58-.585-1.09-1.097-1.75-1.536-.95-.658-2.12-1.097-3.29-.951a2.37 2.37 0 00-1.17.512c-.3.293-.52.805-.37 1.244.22.731.95.877 1.61.95zm38.17-77.387c-.95 1.463-1.83 2.633-2.41 3.438l1.24.439a98.964 98.964 0 002.34-3.438l-1.17-.439zm31.66 12.509l3 1.024c.3-.365.59-.731.88-1.097l-3-1.024c-.29.366-.58.732-.88 1.097zm-31.8-8.267l28.37 10.168c.36-.439.8-.951 1.24-1.463l-28.66-10.021c-.3.512-.66.951-.95 1.316zm47.31-26.697c-3.37 13.312-10.53 28.38-10.53 28.38s-1.39 1.975-3.37 4.535l3 1.024c9.36-12.727 13.38-31.964 13.38-31.964l-2.48-1.975zm-45.56 24.431l28.74 10.094c.29-.366.58-.731.88-1.097l-28.82-10.094c-.29.366-.58.731-.8 1.097zm-4.31-2.852c-.3-.073-.44-.439-.37-.732.07-.292.37-.512.66-.365l1.68.585c1.17-2.048 1.97-3.657 1.97-3.657l-1.31-.439-6 1.828c-.44 3.146-1.1 5.413-1.1 5.413l3.51 1.243c.88-1.097 1.69-2.267 2.34-3.437l-1.38-.439zm16.16-21.214c-2.78 6.071-8.05 15.288-9.51 17.848l1.39.438c4.39-7.68 8.12-18.286 8.12-18.286zm-11.7 21.506c1.46-2.341 2.19-3.658 2.19-3.658l-1.24-.365c-.66 1.316-1.39 2.56-2.05 3.657l1.1.366zm30.2 10.606c1.24-1.536 2.34-3.146 3.14-4.608l-4.97-1.537c1.61-4.096 1.97-8.484 1.97-8.484l-9.06.512c-.3 1.975-1.03 4.096-1.47 5.412l-16.3-5.047c-.73 1.244-1.47 2.56-2.27 3.731l28.96 10.021zm-5.12-12.508l1.97-.585s-.58 2.34-1.46 4.169l-1.61-.366 1.1-3.218zm6.73-101.233l-3.88 31.453v.146s.07.073.15.073h.07l.07-.146 7.1-31.526h-3.51z" fill="#CBCCCE"/><path d="M1198.03 497.036l4.17-17.701 4.09-18.14h-2.92l-7.17 31.892c-.51 2.194-3.36 1.536-3.07-.659l3.87-31.233h-2.85l-2.12 18.14-1.9 17.262s-1.97 13.386 4.61 30.648l-19.45-16.238c-4.25 19.749-16.02 44.399-16.02 44.399l3.15-1.755s10.89-22.237 14.55-36.792l4.31 3.291c-1.39 4.974-7.68 25.893-15.13 39.645l1.38.439c7.24-13.24 13.31-33.208 15-39.133l1.68 1.317c-.29 2.194-1.03 6.656-1.98 9.216 0 0 2.64-4.828 3.44-8.119l7.39 5.705c3.36-.951 7.31.073 8.84 3.877 1.61 3.877.95 8.924-1.82 11.922-4.32 4.755-13.09 3.804-15.36-2.925-.66-2.048-.88-4.389-.66-6.583-4.46 5.632-3.73 14.555 1.61 19.164 4.31 3.73 10.75 3.949 15.36.877.65-.439 1.24-.877 1.83-1.463 8.55-8.192 2.77-21.504-2.71-31.598-4.61-8.778-2.12-25.455-2.12-25.455zm6.51 47.325s-1.61 10.679-10.9 10.094c-7.6-.512-9.65-8.558-9.65-8.558s3.22 5.779 10.82 4.974c4.9-.512 9.73-6.51 9.73-6.51z" fill="#CBCCCE"/><path d="M1178.36 479.335l2.78-18.14h-10.75l.07 18.14h-.07c-.08 17.116 3.65 31.526 4.38 34.232.22-.878.44-1.755.59-2.56l7.24 6.071c-1.1-3.73-4.54-15.799-4.97-21.87-.44-5.047.07-10.899.73-15.873z" fill="#CBCCCE"/><path d="M1170.75 479.335l-3.73 2.487c-5.63 12.216-12.65 23.699-21.35 33.208a88.368 88.368 0 01-10.09 9.436c-3.59 2.926-7.54 5.486-11.78 6.949-3.87 1.389-8.26 1.682-11.92-.659-1.6-1.024-2.99-2.487-4.09-4.169l-1.98-.146c.22.366.37.658.59 1.024 1.83 2.853 4.24 5.047 7.17 6.217 4.09 1.536 8.55.805 12.5-.804 4.1-1.683 7.97-4.17 11.55-7.022 7.32-5.706 13.68-12.728 19.31-20.481 5.78-7.973 11.19-17.994 15.36-27.137l-1.54 1.097z" fill="#CBCCCE"/><path d="M1191.01 465.876c-1.98 5.559-7.97 16.897-9 18.433-10.45 16.311-23.25 30.575-37.73 42.351-7.02 5.705-15.28 11.191-24.21 10.752-6.72-.292-12.65-4.754-16.23-11.045l-1.83-.146a41.43 41.43 0 002.12 3.511c1.83 2.633 4.1 4.974 6.73 6.656 7.82 5.047 17.11 2.926 24.86-1.243 4.1-2.195 7.75-5.12 11.48-7.973 3.73-2.926 7.24-6.144 10.75-9.436 6.73-6.29 13.09-13.312 18.65-20.919 13.46-18.287 16.24-26.186 19.38-34.305l-4.97 3.364z" fill="#CBCCCE"/><path d="M1189.54 461.195l-22.45 15.507-26.76-2.926 14.19-12.581h-9.8l-9.29 8.631v-8.631h-3.51v11.923l-6.73 6.217-17.33 16.165v-14.921l1.17-1.171 17.55-18.213h-10.67l-16.53 18.14-67.2 73.877c-.74.804-.81 2.121-.15 2.999.73.951 1.97 1.024 2.78.219l.07-.146v46.886h1.98v-38.475l8.7-7.607v91.432l1.17-.147 1.39.366v-4.023l12.94-6.876v15.653h3.58V550.14l35.98-23.992h-.07l-4.68-.366-3.15 2.195-17.77 3.291 11.56-10.167 5.34.805v-1.61l-3.81-.512 18.36-16.165 2.19 2.56 1.83-1.536-2.19-2.56.07-.073 17.99 2.926-1.02.731 1.97.366v2.56l43.36-28.892 27.35-18.506h-8.41zm-148.74 96.771l-3.87 3.584v-7.314l3.87-4.023v7.753zm1.39-1.317v-7.826l11.12-11.557v9.07l-11.12 10.313zm18.94 78.485l-12.94 6.876v-15.288l12.94 8.339v.073zm0-2.853l-12.94-8.338v-.22l12.94-6.875v15.433zm0-18.066l-12.94 6.875v-15.287l12.94 8.338v.074zm0-2.853l-12.94-8.339v-.877l12.94-6.876v16.092zm0-18.798l-12.94 6.875v-15.287l12.94 8.339v.073zm0-2.853l-12.94-8.339v-.585l12.94-6.875v15.799zm0-18.506l-12.94 6.876v-15.287l12.94 8.338v.073zm0-2.852l-12.94-8.339v-.439l12.94-6.875v15.653zm0-18.36l-12.94 6.876v-1.975l12.94-11.411v6.51zm-6.36-4.974v-9.216l12.58-13.093v10.533l-12.58 11.776zm9.95 2.268v-6.949l3.65-3.218 4.1 4.827-7.75 5.34zm8.99-6.217l-4.24-4.974.22-.22 10.09.878-6.07 4.316zm15.8-10.899l-7.61 5.193-10.53-.951 1.24-1.097 16.9-3.145zm-5.05-12.8L1068.81 532v-10.753l15.65-16.311v12.435zm20.62-19.237l-18.5 17.189v-12.581l18.5-19.164v14.556zm24.43 4.461l-18.58-2.999 2.49-2.194 31-5.12-14.91 10.313zm-12.43-8.411l16.81-14.849 2.93-2.56 25.96 2.853-13.38 9.216-32.32 5.34z" fill="#E7E7E7"/><path d="M995.613 573.692l.439 7.388 14.118-1.463-3.95-7.607-10.607 1.682zm-4.534.732l-.438 7.241 4.022-.438-.512-7.315-3.072.512zm-53.602 12.726l51.7-5.339.439-7.168-51.993 8.338-.146 4.169zm-3.364 52.737a64.262 64.262 0 003.218-.877l.146-5.998-2.925.658-.439 6.217zm83.657 4.609l1.24 5.925 6.66-.877-.66-6.218-7.24 1.17zm8.7-1.39l.59 6.29 16.74-2.267-1.24-6.656-16.09 2.633zm-89.212-50.836l51.408-2.34.439-6.51-51.701 4.901-.146 3.949zm53.237-8.995l-.366 6.583 5.119-.22-.439-6.802-4.314.439zm24.135-2.269l-18.433 1.755.439 6.803 17.774-.805-.52-3.218 2.05-1.609-1.31-2.926zm-24.647 10.754l-.366 5.339h6.143l-.366-5.486-5.411.147zm-52.872 5.412l51.116-.074.292-5.266-51.261 1.829-.147 3.511zm72.029-3.438l5.34-2.853-17.697.658.366 5.559h19.231l2.41-1.755-9.14-.659-.51-.95zm-19.743 8.045l-.366 4.974 7.386.293-.366-5.047-6.654-.22zm8.117.221l.292 5.12 39.274 1.756-.15-5.633L997.514 602zm-60.696 2.486l50.823 2.195.293-4.974-50.969-1.609-.147 4.388zm-1.242-4.462l-13.09-.366v4.169l12.871.586.219-4.389zm83.734 9.874l.14 2.707 19.89.439-.14-2.268-19.89-.878zm-87.244-4.168l-9.58-.439v5.047l9.799.219-.219-4.827zm4.534 4.901l50.676 1.243.22-3.511-50.75-2.414-.146 4.682zm-2.924-.001h1.462l.219-4.754-1.828-.073.147 4.827zm55.282-2.194l-.22 3.437 29.252.659-.15-2.707-28.882-1.389zm30.572 5.632l.14 3.731 20.62-.659-.36-2.56-20.4-.512zm-85.782-2.267l.366 9.07 84.166-3.072-.22-3.731-84.312-2.267zm108.012 16.311l-1.61-9.655-16.02 1.536 1.03 10.46c5.55-.878 11.04-1.756 16.6-2.341zm-16.38 3.95l.43 4.242c1.03-.146 2.12-.292 3.15-.365 2.19-.293 4.39-.512 6.51-.732-3.22.585-6.44 1.17-9.66 1.683l.44 4.315 17.19-2.633-1.61-9.875c-5.41 1.39-10.97 2.414-16.45 3.365zm-8.78 6.437l.8 4.169 7.39-1.243-.44-4.316c-2.56.512-5.12.951-7.75 1.39zm7.39-6.145l-8.34 1.316.8 3.877c2.64-.366 5.27-.658 7.98-.951l-.44-4.242zm-2.78-5.998c-2.2.585-4.46 1.097-6.66 1.682l.88 4.316c2.78-.585 5.63-1.097 8.41-1.609l-1.02-10.606-9.58.951 1.24 6.217c2.19-.293 4.46-.658 6.73-.951z" fill="#CBCCCE"/><path d="M933.821 644.204l-.366 5.925c14.406-2.56 28.812-4.828 43.218-7.022 12.724-1.902 25.517-3.731 38.317-5.34l-.73-3.876c-3.07.438-6.14.804-9.21 1.024a197.98 197.98 0 018.99-2.195l-.88-4.315c-13.452 3.218-27.127 5.778-40.655 8.338-8.337 1.536-16.673 3.072-25.01 4.17 16.088-4.17 32.469-7.315 48.776-10.314 5.559-1.024 11.189-2.048 16.819-2.926l-1.24-6.29-72.91 7.314-.074 3.365 11.262-1.902-11.262 2.633-.146 5.925c1.755-.439 2.852-.731 2.852-.731l-.365 4.315-7.386 1.902zm54.552-1.316c-17.405 2.633-34.809 4.974-52.286 7.095-.878.073-1.828.22-2.706.293l-.365 6.217 82.994-13.605-.8-4.169a1579.863 1579.863 0 01-26.837 4.169zm-61.792-28.528l.585 6.803 5.558-.219-.439-9.144-9.799-.292v2.194l4.095.658zm130.019 36.646l-9.8-2.633-118.318 16.165.366 4.462h124.682l-4.83-17.994h7.9zm-133.455-65.757l.146 3.365 12.724-1.317.146-4.096-13.016 2.048zm.22 4.461l.146 3.145 12.359-.512.146-3.876-12.651 1.243zm.219 4.39l.146 3.145 11.92-.073.146-3.438-12.212.366zm4.24 35.695l.366 4.096 4.899-.878.147-2.56 1.462.146-.146 2.195 2.852-.512.073-3.438-9.653.951zm.44 5.412l.512 6.144c1.316-.366 2.632-.732 3.875-1.024l.366-6.218-4.753 1.098zm4.095 9.363l-3.291.878.951 11.63 1.536-.292.365-6.291c-.804.073-1.608.22-2.413.293l2.413-.439.439-5.779zm-1.902 17.702l87.093-11.63-1.17-5.925-86.216 13.897.293 3.658zm-35.76-53.322v-9.29h-3.802v8.631l3.802.659z" fill="#CBCCCE"/><path d="M902.668 571.937v38.401l6.216 1.024h2.705v.439l2.56.439v-.878h4.826v1.683l1.39.219v-16.092h1.097v-1.17h.073l-.658-12.874.585-.073v-2.34h4.826v1.536l2.559-.439v-1.17h4.827v.365l11.407-1.828v-7.388h-42.413v.146zm8.848 30.648h-4.826v-6.51h4.826v6.51zm0-15.287h-4.826v-6.51h4.826v6.51zm7.386 15.287h-4.826v-6.51h4.826v6.51zm0-15.287h-4.826v-6.51h4.826v6.51zm-3.218 41.692l-9.946-1.097.073 4.242 10.238.878-.365-4.023zm10.75 10.167l-.365-4.389-20.257-1.682v6.29l20.622-.219zm-109.106-24.796l97.844 9.362-.293-3.291-97.258-11.703-.293 5.632zm99.306 9.509l8.629.804-.219-3.072-8.702-1.024.292 3.292zm-99.818.145l87.533 7.973v-4.243l-47.679-4.974 47.679 3.658-.073-2.78-87.021-7.534-.439 7.9zm88.922 2.559l9.799.732-.292-2.706-9.507-.805v2.779zm20.769 13.387l-20.695.366.074 6.217 21.06-.951-.439-5.632zm-22.012 6.657l-.073-6.218-95.065 1.829v.073h-1.39l-14.259.293-1.39 8.85 112.177-4.827zm12.431-19.239l8.629.659-.219-2.56-8.629-.732.219 2.633zm.514 5.779h-.073l8.629.804-.293-3.949-8.629-.878.366 4.023zm-107.79-19.53l6.289.585.293-5.632-5.85-.731-.732 5.778zm-19.013 47.837l-1.17 7.534h139.379l-.585-7.315-137.624-.219zm136.381-14.994l-135.138 6.802-.95 6.364 137.258 1.243-1.17-14.409zm-12.211-26.992l-.439-4.754-102.67-17.409-1.096 8.705 104.205 13.458zm10.164 1.317l-.366-4.316-8.775-1.462.439 4.681 8.702 1.097zm-150.568 40.669l-5.046 7.534h18.648l1.17-7.534h-14.772zm34.809-55.663l1.097-8.777-7.678-1.244-1.828 8.924 8.409 1.097zm32.467 26.991l-32.176.147-.146 7.46 95.065-1.024-.073-6.363-107.497-8.851-.731 3.365 45.558 5.266zm-52.212 26.843l1.023-6.29-11.042.585-3.729 5.559 13.748.146zm25.96-35.768l.366-7.826-17.039-1.536-1.535 7.753 18.208 1.609zm-16.234-11.264l8.995.878.731-5.778-8.556-1.024-1.17 5.924z" fill="#CBCCCE"/><path d="M807.895 640.473l.146-7.534-14.625.147-5.119 7.607 19.598-.22zm-17.112 10.972l1.39-8.924-5.192.147-6.143 9.216 9.945-.439zM768 529h1v143h-1z" fill="#CBCCCE"/></g><path fill="#E7E7E7" d="M1118 457h151v4h-151z"/><g clip-path="url(#clip2)"><path d="M407.99 407.615h-1.083v-5.773h1.083v-1.083h-49.091v-7.576c0-1.083-.722-1.804-1.444-1.804h-.361v-22.37l-9.024-13.35c1.083-.361 1.805-.721 2.166-1.443l48.008 39.688c-.361.722-.722 1.443-.722 2.526 0 2.525 1.804 4.329 3.97 4.329 2.166 0 3.971-1.804 3.971-4.329 0-2.526-1.805-4.33-3.971-4.33-1.083 0-1.805.361-2.526 1.083l-48.369-40.049c.361-.722.361-1.083.361-1.804 0-2.526-1.805-4.33-3.971-4.33-2.166 0-3.971 1.804-3.971 4.33v.721l-92.767 44.379c-.361-.361-.722-.361-1.083-.361-1.083 0-2.166 1.082-2.166 2.526 0 1.082.722 2.164 1.444 2.525h-28.516l-10.468 6.495h-.722v1.082h129.947v3.608c0 1.083.722 2.165 1.805 2.165h5.414v.361c-.361.361-.722.721-.722 1.443v.361c0 .721.361 1.082.722 1.443v186.895h10.829V417.717c.361-.361.722-.721.722-1.443v-.361c0-.721-.361-1.082-.722-1.443h.722c.722 0 1.444-.722 1.444-1.804v-3.969H382v7.938h34.292v-7.938h-8.302v-1.082zm-164.238-5.773l-1.444 2.525-1.444-2.525h2.888zm-7.581 0l-1.443 2.525-1.444-2.525h2.887zm-7.941 0l-1.444 2.525-1.443-2.525h2.887zm-3.248 5.773h-13.717c2.888-1.804 5.775-3.969 9.024-5.773h4.693v5.773zm0-5.412l1.443 2.525-1.443 2.526v-5.051zm3.609 5.412h-3.248l1.804-2.526 1.444 2.526zm0-.361l-1.444-2.526 1.444-2.525v5.051zm3.971.361h-3.249v-5.773h3.249v5.773zm.361-5.412l1.444 2.525-1.444 2.526v-5.051zm3.248 5.412h-3.248l1.805-2.526 1.443 2.526zm0-.722l-1.443-2.165 1.443-2.525v4.69zm4.332.722h-3.249v-5.773h3.249v5.773zm0-5.412l1.444 2.525-1.444 2.526v-5.051zm3.61 5.412h-3.249l1.805-2.526 1.444 2.526zm0-.361l-1.444-2.526 1.444-2.525v5.051zm6.497.361h-5.775v-5.773h5.775v5.773zm1.805-2.887l-1.444 2.526v-5.051l1.444 2.525zm-1.444-2.886h3.249l-1.444 2.525-1.805-2.525zm3.249 5.773h-3.249l1.805-2.526 1.444 2.526zm0-.361l-1.444-2.526 1.444-2.525v5.051zm3.97.361h-3.249v-5.773h3.249v5.773zm1.805-2.887l-1.444 2.526v-5.051l1.444 2.525zm-1.444-2.886h3.249l-1.444 2.525-1.805-2.525zm3.249 5.773h-3.249l1.805-2.526 1.444 2.526zm0-.722l-1.444-2.165 1.444-2.525v4.69zm4.331.722h-3.248v-5.773h3.248v5.773zm1.805-2.887l-1.444 2.526v-5.051l1.444 2.525zm-1.444-2.886h3.249l-1.444 2.525-1.805-2.525zm3.249 5.773h-3.249l1.805-2.526 1.444 2.526zm0-.361l-1.444-2.526 1.444-2.525v5.051zm3.971.361h-3.249v-5.773h3.249v5.773zm1.804-2.887l-1.443 2.526v-5.051l1.443 2.525zm-1.443-2.886h3.248l-1.444 2.525-1.804-2.525zm3.248 5.773h-3.248l1.804-2.526 1.444 2.526zm0-.361l-1.444-2.526 1.444-2.525v5.051zm4.332.361h-3.61v-5.773h3.61v5.773zm0-5.412l1.444 2.525-1.444 2.526v-5.051zm.361-.361h3.248l-1.444 2.525-1.804-2.525zm3.248 5.773h-3.248l1.804-2.526 1.444 2.526zm0-.722l-1.444-2.165 1.444-2.525v4.69zm3.971.722h-3.249v-5.773h3.249v5.773zm1.805-2.887l-1.444 2.526v-5.051l1.444 2.525zm-1.444-2.886h3.249l-1.444 2.525-1.805-2.525zm3.249 5.773h-3.249l1.805-2.526 1.444 2.526zm0-.361l-1.444-2.526 1.444-2.525v5.051zm6.497.361h-5.776v-5.773h5.776v5.773zm1.805-2.887l-1.444 2.526v-5.051l1.444 2.525zm-1.083-2.886h3.248l-1.443 2.525-1.805-2.525zm2.888 5.773h-3.249l1.805-2.526 1.444 2.526zm0-.361l-1.444-2.526 1.444-2.525v5.051zm4.331.361h-3.249v-5.773h3.249v5.773zm1.805-2.887l-1.444 2.526v-5.051l1.444 2.525zm-1.444-2.886h3.249l-1.444 2.525-1.805-2.525zm3.249 5.773h-3.249l1.805-2.526 1.444 2.526zm0-.722l-1.444-2.165 1.444-2.525v4.69zm3.97.722h-3.248v-5.773h3.248v5.773zm1.805-2.887l-1.444 2.526v-5.051l1.444 2.525zm-1.083-2.886h3.249l-1.444 2.525-1.805-2.525zm2.888 5.773h-3.249l1.805-2.526 1.444 2.526zm0-.361l-1.444-2.526 1.444-2.525v5.051zm6.497.361h-5.775v-5.773h5.775v5.773zm1.805-2.887l-1.444 2.526v-5.051l1.444 2.525zm-1.444-2.886h3.249l-1.444 2.525-1.805-2.525zm3.249 5.773h-3.249l1.805-2.526 1.444 2.526zm0-.361l-1.444-2.526 1.444-2.525v5.051zm.722.361v-5.773h3.248v5.773H329.3zm5.414-2.887l-1.444 2.526v-5.051l1.444 2.525zm-1.444-2.886h3.249l-1.444 2.525-1.805-2.525zm3.249 5.773h-3.249l1.805-2.526 1.444 2.526zm0-.722l-1.444-2.165 1.444-2.525v4.69zm2.166-3.969v4.691h-1.805v-5.773h1.805c.361.361 0 .721 0 1.082zm7.58-11.185c-.722 0-1.444.722-1.444 1.804v7.577h-94.933c.722-.361 1.444-1.082 1.444-2.525v-.722l92.406-44.018c.722.722 1.444 1.443 2.527 1.804v36.08zm2.527-33.193l.361.721h-.361v-.721zm0 1.443h1.083l.361.721v.361h-1.805v-1.082h.361zm-.722 10.824h6.497l-3.249 1.443-3.248-1.443zm6.858 3.608h-6.858l3.248-1.804 3.61 1.804zm-6.136-12.628h1.444v1.082h-1.805v-1.082h.361zm0 1.804h1.444v1.082h-1.805v-1.082h.361zm0 1.804h1.444v1.082h-1.805v-1.082h.361zm0 1.804h1.444v1.443h-1.805v-1.443h.361zm0 2.165h1.444v.721h-1.805v-.721h.361zm-1.083-12.268l.722.722v11.907h-.722v-12.629zm0 13.711l3.249 1.804-3.249 1.804v-3.608zm0 8.659l3.249 1.804-3.249 1.804v-3.608zm.361 0h6.497l-3.249 1.804-3.248-1.804zm6.858 3.608h-6.858l3.248-1.804 3.61 1.804zm-7.219 5.051l3.249 1.804-3.249 1.804v-3.608zm.361-.36h6.497l-3.249 1.804-3.248-1.804zm6.858 3.608h-6.858l3.248-1.804 3.61 1.804zm-7.219 29.225l3.249 1.804-3.249 1.804v-3.608zm.361-.361h6.497l-3.249 1.804-3.248-1.804zm6.858 3.969h-6.858l3.248-1.804 3.61 1.804zm-7.219 4.69l3.249 1.804-3.249 1.804v-3.608zm.361 11.185h6.497l-3.249 1.804-3.248-1.804zm6.858 3.608h-6.858l3.248-1.804 3.61 1.804zm-4.692-8.659v.721h-1.805v-.721h1.805zm-1.805-.361v-.722h1.805v.722h-1.805zm1.805 1.443v.722h-1.805v-.722h1.805zm0 1.082v.722h-1.805v-.722h1.805zm0 1.083v.721h-1.805v-.721h1.805zm0-4.691h-1.805v-.36h1.805v.36zm-2.166-1.082l3.248-1.804 3.249 1.804h-6.497zm0-3.608h6.497l-3.249 1.804-3.248-1.804zm-.361 3.969h.361v6.133h-.361v-6.133zm0 7.216l3.249 1.804-3.249 1.804v-3.608zm0 8.659l3.249 1.804-3.249 1.804v-3.608zm.361-.361h6.497l-3.249 1.804-3.248-1.804zm6.858 3.969h-6.858l3.248-1.804 3.61 1.804zm-7.219 4.691l3.249 1.804-3.249 1.804v-3.608zm.361 11.184h6.497l-3.249 1.444-3.248-1.444zm6.858 3.608h-6.858l3.248-1.804 3.61 1.804zm-4.331-8.659v.722h-1.805v-.722h1.805zm-1.805-.361v-.721h1.805v.721h-1.805zm1.805 1.444v.721h-1.805v-.721h1.805zm0 1.082v.722h-1.805v-.722h1.805zm0 1.082v.722h-1.805v-.722h1.805zm0-4.69h-1.805v-.722h1.805v.722zm-2.527-1.082l3.248-1.804 3.249 1.804h-6.497zm0-3.608h6.497l-3.249 1.804-3.248-1.804zm-.361 3.968h.722v6.495h-.722v-6.495zm0 7.216l3.249 1.804-3.249 1.804v-3.608zm0 8.66l3.249 1.804-3.249 1.804v-3.608zm.361-.361h6.497l-3.249 1.804-3.248-1.804zm6.858 3.969h-6.858l3.248-1.804 3.61 1.804zm-7.219 5.051l3.249 1.804-3.249 1.804v-3.608zm.361 10.824h6.497l-3.249 1.804-3.248-1.804zm6.858 3.608h-6.858l3.248-1.804 3.61 1.804zm-.722-8.659v.721h-1.805v-.721h1.805zm-1.805-.361v-.722h1.805v.722h-1.805zm1.805 1.443v.722h-1.805v-.722h1.805zm0 1.083v.721h-1.805v-.721h1.805zm0 1.082v.722h-1.805v-.722h1.805zm0-4.691h-1.805v-.36h1.805v.36zm-6.136-1.082l3.248-1.804 3.249 1.804h-6.497zm0-3.608h6.497l-3.249 1.804-3.248-1.804zm-.361 3.969h4.331v6.134h-4.331v-6.134zm0 7.216l3.249 1.804-3.249 1.804v-3.608zm0 8.659l3.249 1.804-3.249 1.804v-3.608zm.361 0h6.497l-3.249 1.804-3.248-1.804zm6.858 3.608h-6.858l3.248-1.804 3.61 1.804zm-7.219 5.051l3.249 1.804-3.249 1.804v-3.608zm.361-.36h6.497l-3.249 1.804-3.248-1.804zm6.858 3.968h-6.858l3.248-1.804 3.61 1.804zm-6.497 6.495h-.722v-6.495h.722v6.495zm1.805-.361h-1.805v-.722h1.805v.722zm0-1.082h-1.805v-.722h1.805v.722zm0-1.083h-1.805v-.721h1.805v.721zm0-1.082h-1.805v-.722h1.805v.722zm0-1.083h-1.805v-.721h1.805v.721zm0-1.082h-1.805v-.722h1.805v.722zm5.053 5.773h-4.692v-6.495h4.692v6.495zm0-6.855l-3.61-1.804 3.61-1.804v3.608zm0-4.33h-7.58V509h7.58v3.608zm0-3.969l-3.61-1.804 3.61-1.804v3.608zm0-4.69h-7.58v-3.608h7.58v3.608zm0-3.969l-3.61-1.804 3.61-1.804v3.608zm0-4.33h-.722v-6.133h.722v6.133zm0-6.855l-3.61-1.804 3.61-1.804v3.608zm0-4.33h-7.58v-3.608h7.58v3.608zm0-3.968l-3.61-1.804 3.61-1.804v3.608zm0-4.691h-7.58v-3.608h7.58v3.608zm0-3.969l-3.61-1.804 3.61-1.804v3.608zm0-4.329h-4.331v-6.495h4.331v6.495zm0-6.855l-3.61-1.804 3.61-1.804v3.608zm0-4.33h-7.58v-3.608h7.58v3.608zm0-4.33l-3.61-1.804 3.61-1.804v3.608zm0-4.329h-7.58v-3.608h7.58v3.608zm0-3.969l-3.61-1.804 3.61-1.804v3.608zm0-4.691h-4.692v-6.133h4.692v6.133zm0-6.494l-3.61-1.804 3.61-1.804v3.608zm0-4.33h-7.58v-3.608h7.58v3.608zm0-3.968l-3.61-1.804 3.61-1.804v3.608zm0-4.691h-7.58v-1.804h7.58v1.804zm0-28.142l-3.61-1.804 3.61-1.804v3.608zm0-4.33h-7.58v-3.608h7.58v3.608zm0-3.969l-3.61-1.804 3.61-1.804v3.608zm0-4.69h-7.58v-3.608h7.58v3.608zm0-3.969l-3.61-1.804 3.61-1.804v3.608zm0-4.33h-4.692v-8.659l4.692 6.495v2.164zm50.896 31.751l-1.444 2.525-1.444-2.525h2.888zm-7.58 0l-1.444 2.525-1.444-2.525h2.888zm-7.942 0l-1.443 2.525-1.444-2.525h2.887zm-10.107 0l-1.443 2.525-1.444-2.525h2.887zm-7.58 0l-1.444 2.525-1.443-2.525h2.887zm-7.941 0l-1.444 2.525-1.444-2.525h2.888zm-3.61 5.773h-2.526v-5.773h2.526v5.773zm.361-5.412l1.444 2.525-1.444 2.526v-5.051zm3.249 5.412h-3.249l1.805-2.526 1.444 2.526zm0-.361l-1.444-2.526 1.444-2.525v5.051zm4.332.361h-3.249v-5.773h3.249v5.773zm0-5.412l1.443 2.525-1.443 2.526v-5.051zm3.609 5.412h-3.248l1.804-2.526 1.444 2.526zm0-.722l-1.444-2.165 1.444-2.525v4.69zm3.971.722h-3.249v-5.773h3.249v5.773zm.361-5.412l1.444 2.525-1.444 2.526v-5.051zm3.248 5.412h-3.248l1.805-2.526 1.443 2.526zm0-.361l-1.443-2.526 1.443-2.525v5.051zm6.498.361h-5.776v-5.773h5.776v5.773zm.361-5.412l1.444 2.525-1.444 2.526v-5.051zm3.248 5.412h-3.248l1.805-2.526 1.443 2.526zm0-.361l-1.443-2.526 1.443-2.525v5.051zm4.332.361h-3.249v-5.773h3.249v5.773zm.361-5.412l1.444 2.525-1.444 2.526v-5.051zm3.249 5.412h-3.249l1.805-2.526 1.444 2.526zm0-.722l-1.444-2.165 1.444-2.525v4.69zm3.97.722h-3.249v-5.773h3.249v5.773zm.361-5.412l1.444 2.525-1.444 2.526v-5.051zm3.249 5.412h-3.249l1.805-2.526 1.444 2.526zm0-.361l-1.444-2.526 1.444-2.525v5.051z" fill="#CBCCCE"/><path d="M465.021 656.568c2.166-3.608 3.61-7.576 3.61-12.267v-93.087c0-5.051-1.805-10.102-4.692-13.71v-14.432h4.692v-3.608h-4.692v-18.762h-4.693v18.762H374.42v-18.762h-5.415v18.762h-4.331v3.608h4.692v11.185c-4.692 4.329-7.58 10.102-7.58 16.957v54.121h-27.072v-67.831h3.97v-14.432h-5.775v-2.165h4.332l7.941-27.421h-62.086l7.941 27.421h4.332v2.165h-6.497v14.432h3.609v4.69h-10.829l-2.887-5.773-.722.722-18.77-37.163-6.137-43.657h2.166v-2.525h-5.775v-.722h-1.083v.722h-6.497v2.525h2.165l-6.136 43.657-18.77 37.524-.722-.722-1.805 3.608v-73.243h-2.166v75.047h-6.497v-75.047h-2.166v75.047h-2.526v83.345h-3.971l-1.083-23.813-.361-6.494-.361-7.216h1.805v-2.886h-2.166l-1.083-24.896h2.527v-2.525h-2.166l-1.083-25.256h1.805v-3.248h-2.166l-.722-19.483h-15.882l-.361 7.938-.361 11.545h-1.444v3.248h1.444l-.361 10.102v3.247l-.361 11.907h-1.805v2.525h1.805l-1.444 24.896h-1.804v2.525h1.443v1.443l-.361 12.268-1.082 23.813h-6.137l-.361-11.185-.361-12.268v-1.443h1.805v-2.525h-2.166l-1.083-24.896h2.166v-2.525h-2.166l-1.082-22.37v-2.886h1.804v-3.248h-1.804l-.722-19.483h-15.883l-.361 7.938-.361 11.545h-1.443v3.248h1.443l-1.083 25.256h-1.804v2.525h1.804v.361H112v1.083h33.93v.36H112v4.691h32.487v18.761h-1.083v-10.463c0-2.525-1.805-4.329-4.332-4.329h-18.77c-2.527 0-4.331 1.804-4.331 4.329v32.112c0 2.525 1.804 4.329 4.331 4.329h16.243-15.16a3.234 3.234 0 00-3.249 3.247c0 1.804 1.444 2.887 2.888 3.248h18.048c1.444 0 2.888-1.444 2.888-3.248a3.234 3.234 0 00-3.249-3.247h4.693l-.361 5.412v1.083H112v37.162h360.963v-10.824h-7.942v-.361zM254.219 473.281l-4.331-2.526 3.609-2.164.722 4.69zm-8.663-17.318h6.137l1.804 11.545-4.692 2.526-4.693-2.526 1.444-11.545zm-1.805 12.628l3.61 2.164-3.971 2.526.361-4.69zm-.722 6.133l5.776-3.247 5.775 3.247 2.888 21.648-1.083-1.804-1.805-12.267-1.805.722.361 3.608-4.692 2.525-4.332-2.525.361-3.608-1.805-.361-1.804 11.546-1.083 2.164 3.248-21.648zm5.776 51.956l-9.746-2.887 1.444-9.741 8.302-2.887 8.302 2.887 1.444 9.381-9.746 3.247zm9.746-1.804l.722 5.051-8.663-2.526 7.941-2.525zm-11.912 2.525l-8.302 2.526.722-4.69 7.58 2.164zm2.166-37.162l5.775 3.247 1.805 14.071-7.58 2.526-7.58-2.526 2.165-14.071 5.415-3.247zm-5.415 1.804l.722-4.33 3.61 1.804-4.332 2.526zm6.498-2.526l3.609-2.165.722 4.691-4.331-2.526zM247 510.804l-6.497 2.165.722-4.69 5.775 2.525zm3.61 0l6.136-2.164.722 4.69-6.858-2.526zm-31.043 31.39l1.805-3.247-.722-.722 19.853-39.327-6.137 43.296h-14.799zm16.965 0l1.444-11.185 10.829-3.247 10.829 3.247 1.444 11.185h-24.546zm26.711 0l-5.775-42.214 19.492 38.245-.722.722 1.805 3.247h-14.8zm93.49 114.374v-25.256h2.526v-2.165h-12.272v-3.608h-12.995v-16.596h27.072v35.358c0 4.33 1.444 8.659 3.61 12.267h-7.941zm46.925 0c1.444-2.164 2.526-4.69 2.887-7.576h16.966c.722 2.886 1.444 5.412 2.887 7.576h-22.74zm19.492-79.015v68.552h-16.244v-68.552h16.244zm-16.244-4.691v-17.318h15.883v17.318h-15.883zm52.34-39.688c-3.971-2.886-8.663-4.69-13.717-4.69-11.55 0-21.296 9.02-22.74 20.205h-16.244c-1.443-11.185-10.828-20.205-22.74-20.205-3.61 0-6.858.721-9.746 2.165v-7.577h85.187v10.102z" fill="#E7E7E7"/><path d="M298.978 455.963l-1.082 12.989h-2.166v17.318h-12.273v6.495h60.281v-6.495h-12.273v-2.165h-.361v-15.153h-2.166l-1.083-12.989h-.722l1.083 12.989h-4.692l-.722-12.989h-.722l.722 12.989h-7.58v-12.989h-.722v12.989h-4.693v-12.989h-.722v12.989h-2.165l.361-12.989h-.722l-.361 12.989h-1.805l.361-12.989h-.722l-.722 12.989h-4.332l.722-12.989h-.722z" fill="#E7E7E7"/><path d="M255.302 668.835c-1.083-.721-2.166-1.082-3.249-1.082-1.083-.361-1.805-.722-2.888-1.443-.361 0-.721-.361-1.082-.361.361 0 .361 0 .721-.361 1.083-.721 1.805-2.165 1.444-3.608-.361-1.804-1.444-2.165-2.526-2.526h-.361c.722-2.886.361-6.855.361-10.102 0-4.69.361-9.742.361-14.793 0-2.886-.361-5.412-.361-8.298.361-2.887.361-5.773.722-8.66.36-4.329 0-9.02-.361-13.349-.722-9.742 0-19.844.361-29.586 0-10.102-.722-19.844-.722-29.946v-1.444c0-.36-.361-.36-.361-.36s-.361 0-.361-.361h-1.083c-.361-.361-1.083-.722-1.444 0l-.722-.722c0-.361-.722-.361-.722 0-.361 0-.361.361-.361.361v.722s-.361.36 0 .721c0 2.887.361 5.412.361 8.299v8.298c0 1.443.361 2.886.361 4.33v13.71c-.361 4.69-1.444 9.02-2.166 13.711-.361 5.412-.361 9.741 0 15.153.361 5.773.361 12.267 0 18.04-.361 5.412.361 10.824.361 16.597 0 5.412 0 11.185-.361 16.597v1.804c-.722-.361-1.805-.361-2.526-.722-2.166-.721-3.971-2.164-5.776-2.525-.361 0-.722.721-.361 1.443.722 1.443 1.805 1.443 2.888 2.165-1.444-.361-3.249-.722-4.693-.722-.361 0-.722 1.083-.361 1.443-.361 0-.361.722-.361 1.083v.361c-1.443-.722-2.887-1.083-4.331-.722-.361 0-.361.722-.361 1.443l1.083 1.083c-1.083-.722-2.527-1.444-3.61-1.804-.361 0-.722.36-.722.721-.722 0-1.444 0-2.166-.361-.361 0-.361.361-.361.361-.36 0-.721.361-1.082.722-.361.361-.361 1.082 0 1.443 0 .361 0 .722.361 1.083.361 0 .721 0 1.082.36 0 0 0 .361.361.361.722.361 1.083.361 1.805.722 1.083.361 2.166.361 3.61.361.361 0 .722 0 1.083.36 2.526 1.444 5.053 2.526 7.219 1.804.361 0 .361-1.082.361-1.443h.361c0 .722.361 1.443 1.083 1.443 3.97 0 8.302.722 12.273.361.721 0 1.443.361 2.165.361.361 0 .722-1.082.361-1.443s-.722-.361-1.083-.361c1.805.722 3.61 1.082 5.415 1.443.361 0 .361 0 .361-.361.361 0 .722.361 1.083.361-1.083-.361-.361-1.804-1.083-2.165zm-25.629-3.968h-.721c-.361 0-.361-.001-.361.36-.722-.361-1.805-1.082-2.527-1.804 1.083 0 2.527.722 3.609 1.444zm16.966-120.147c.361 10.102 1.083 20.204 1.083 30.307 0 4.69 0 9.381-.361 13.71 0 2.526-.361 5.052-.361 7.577-.361-6.855-.361-14.071-.361-20.926 0-10.103-.361-20.566 0-30.668-.361 0-.361 0 0 0zm-3.61 112.93c-.361 0-.722.361-1.083.722v-8.298c0-5.412.361-10.824 0-16.236-.722-9.381.722-18.401 0-27.782v5.051c0 .722.722.722.722.361 0 4.329.722 8.659.722 12.989v13.349c.361 1.083-.361 12.989-.361 19.844zm2.888-4.69c0 1.082 0 2.886-.361 4.33h-1.805v-5.412c0-3.969.361-7.938.361-11.546v-13.35c0-5.051-.361-9.381-.722-14.432 0-3.247-.361-6.494-.361-9.741v-2.887c0-5.051 0-10.102.361-15.153 0-1.804 0-3.609.361-5.413 0-1.443.361-3.247.361-4.69 0-3.247 0-6.494-.361-9.742v-3.608c.361 0 .361-.36.361-.721v-.722c0-2.886 0-5.773-.361-8.659 0-1.082 0-2.526-.361-3.969h.361c0 8.659.361 17.679.361 26.339 0 9.741 0 19.483.722 29.225.722 9.741.722 19.483 1.083 29.225.361 4.69 0 9.38 0 14.071 0 2.525.361 4.69 0 6.855zm1.444-44.379c0 1.083 0 2.526.361 3.608 0-1.082-.361-2.525-.361-3.608zm165.681 39.689c-2.165 0-3.97.361-5.414.722-1.444-3.969-6.136-7.216-11.551-7.216-3.248 0-6.497 1.082-8.663 2.886-1.083-5.412-7.219-9.38-14.799-9.38-1.444 0-2.888 0-4.332.36-1.444-1.443-4.692-5.051-10.829-6.855-10.107-2.526-20.214 2.165-24.906 5.412-9.385 6.495-9.746 18.762 0 29.586 26.711 0 53.783.361 80.494.361 7.22 0 12.995-3.608 12.995-7.938 0-5.773-10.468-7.938-12.995-7.938z" fill="#CBCCCE"/><path d="M406.545 651.158c-1.805 0-3.609.36-5.053.721-1.444-3.969-5.776-6.855-10.829-6.855-3.249 0-6.136 1.082-7.941 2.886-1.444-5.051-7.22-8.659-14.078-8.659-1.444 0-2.527 0-3.97.361-1.083-1.443-4.332-4.69-10.107-6.134-9.385-2.525-19.131 1.804-23.463 5.052-8.663 6.133-9.024 17.679 0 27.781 25.267 0 50.535.361 75.802.361 6.498 0 11.912-3.608 11.912-7.577-.361-5.773-10.107-7.937-12.273-7.937z" fill="#CBCCCE"/><path d="M419.179 668.114h-86.992l-1.082-1.083c-7.942-9.02-7.581-18.762 0-24.174 3.609-2.525 11.911-6.494 20.213-4.329 5.054 1.082 7.581 3.969 8.663 5.412 1.083-.361 2.166-.361 3.249-.361 6.137 0 11.19 3.247 11.912 7.577 1.805-1.443 4.331-2.526 6.858-2.526 4.332 0 8.302 2.526 9.385 5.773 1.444-.361 2.888-.722 4.332-.722s6.136.722 8.663 3.248c1.083 0 2.166-.361 3.61-.361 1.443 0 9.745 1.082 11.55 5.773.361.721.722 2.165-.361 4.329 1.083.361.722.722 0 1.444z" fill="#CBCCCE"/><path d="M420.624 650.436c2.165 0 3.97.361 5.414.722 1.444-3.969 6.136-7.216 11.551-7.216 3.248 0 6.497 1.082 8.663 2.886 1.083-5.412 7.219-9.38 14.799-9.38 1.444 0 2.888 0 4.332.36 1.444-1.443 4.692-5.051 10.829-6.855 10.107-2.525 20.214 2.165 24.906 5.412 9.385 6.495 9.746 18.762 0 29.586-26.711 0-53.783.361-80.494.361-7.22 0-12.995-3.608-12.995-7.938 0-5.773 10.468-7.938 12.995-7.938z" fill="#CBCCCE"/><path d="M423.149 651.878c1.805 0 3.61.361 5.054.721 1.444-3.968 5.775-6.855 10.829-6.855 3.248 0 6.136 1.083 7.941 2.887.722-5.052 6.858-9.02 13.716-9.02 1.444 0 2.527 0 3.971.36 1.083-1.443 4.332-4.69 10.107-6.133 9.385-2.526 19.131 1.804 23.463 5.051 8.663 6.134 9.024 17.679 0 27.782-25.268 0-50.535.36-75.803.36-6.497 0-11.911-3.608-11.911-7.576.361-5.773 10.468-7.577 12.633-7.577z" fill="#CBCCCE"/><path d="M504.728 663.785l-5.415 4.33h-78.329c-2.526-1.804-3.97-3.608-5.053-4.33-1.083-2.164-.722-3.608-.361-4.329 1.805-4.691 10.107-5.773 11.551-5.773 1.083 0 2.527 0 3.609.361 2.527-2.165 7.22-3.248 8.663-3.248 1.444 0 3.249.361 4.332.722 1.083-3.247 5.054-5.773 9.385-5.773 2.888 0 5.054 1.083 6.858 2.526.722-4.33 5.776-7.577 11.912-7.577 1.083 0 2.166 0 3.249.361 1.083-1.443 3.609-4.33 8.663-5.412 8.302-2.165 16.604 1.443 20.214 4.329 8.302 5.052 8.663 14.793.722 23.813z" fill="#CBCCCE"/><path d="M416.292 657.651c-1.083 0-2.166 0-2.888.36-.722-2.164-3.249-3.968-6.137-3.968-1.804 0-3.609.721-4.692 1.443-.361-2.887-3.971-5.051-7.941-5.051-.722 0-1.444 0-2.166.36-.722-.721-2.527-2.886-5.775-3.608-5.415-1.443-10.829 1.083-13.356 2.887-5.053 3.608-5.053 10.102 0 15.875h42.955c3.97 0 6.858-2.165 6.858-4.33 0-2.886-5.415-3.968-6.858-3.968z" fill="#CBCCCE"/><path d="M412.681 659.095c-1.082 0-1.804 0-2.887.361-.722-2.165-2.888-3.608-5.776-3.608-1.804 0-3.248.721-4.331 1.443-.361-2.526-3.61-4.69-7.219-4.69-.722 0-1.444 0-2.166.36-.722-.721-2.166-2.525-5.415-3.247-5.053-1.443-10.107 1.083-12.633 2.526-4.693 3.247-5.054 9.381 0 14.793h40.427c3.61 0 6.498-1.804 6.498-3.969 0-2.887-5.054-3.969-6.498-3.969z" fill="#CBCCCE"/><path d="M419.54 668.114h-46.565l-.722-.722c-4.331-4.69-3.97-10.102 0-12.989 2.166-1.443 6.498-3.247 10.829-2.165 2.527.722 3.971 2.165 4.693 2.887.722 0 1.083-.361 1.805-.361 3.248 0 6.136 1.804 6.497 3.969 1.083-.722 2.166-1.443 3.61-1.443 2.526 0 4.331 1.443 5.053 3.247.722-.361 1.444-.361 2.527-.361.722 0 3.248.361 4.692 1.804h1.805c.722 0 5.415.722 6.137 2.886 0 .361.36 1.083 0 2.165.36.722-.001.722-.361 1.083z" fill="#CBCCCE"/><path d="M420.263 658.735c1.082 0 2.165 0 2.887.36.722-2.164 3.249-3.968 6.137-3.968 1.804 0 3.609.721 4.692 1.443.361-2.887 3.971-5.051 7.941-5.051.722 0 1.444 0 2.166.36.722-.721 2.527-2.886 5.775-3.608 5.415-1.443 10.829 1.083 13.356 2.887 5.054 3.608 5.054 10.102 0 15.875h-42.954c-3.971 0-6.859-2.165-6.859-4.33 0-2.886 5.415-3.968 6.859-3.968z" fill="#CBCCCE"/><path d="M421.706 659.454c1.083 0 1.805 0 2.888.361.722-2.165 2.888-3.608 5.775-3.608 1.805 0 3.249.722 4.332 1.443.361-2.525 3.61-4.69 7.219-4.69.722 0 1.444 0 2.166.361.722-.722 2.166-2.526 5.414-3.247 5.054-1.444 10.107 1.082 12.634 2.525 4.693 3.247 5.054 9.381 0 14.793h-40.428c-3.609 0-6.497-1.804-6.497-3.969 0-2.886 5.414-3.969 6.497-3.969z" fill="#CBCCCE"/><path d="M460.69 668.116h-41.871c-1.444-1.083-2.166-1.804-2.527-2.165-.722-1.082-.361-1.804 0-2.165 1.083-2.526 5.414-2.886 6.136-2.886h1.805c1.444-1.083 3.971-1.804 4.692-1.804.722 0 1.805 0 2.527.36.722-1.804 2.527-3.247 5.054-3.247 1.444 0 2.887.361 3.609 1.443.361-2.164 3.249-3.968 6.498-3.968.722 0 1.083 0 1.804.36 1.083-.721 2.527-1.804 4.693-2.886 9.024-4.69 23.823-6.855 29.238 0 1.444 2.165 2.527 5.412 1.805 8.298-2.166 5.412-11.19 10.103-23.463 8.66zM274.073 542.555h-1.444v47.265h1.444v-47.265zm11.912 0h-1.444v47.265h1.444v-47.265z" fill="#CBCCCE"/><path d="M284.901 546.523h-10.829v.722h10.829v-.722zm0 2.887h-10.829v.722h10.829v-.722zm0 3.248h-10.829v.722h10.829v-.722zm0 2.885h-10.829v.722h10.829v-.722zm0 2.887h-10.829v.721h10.829v-.721zm0 2.886h-10.829v.722h10.829v-.722zm0 2.887h-10.829v.722h10.829v-.722zm0 2.887h-10.829v.721h10.829v-.721zm0 2.887h-10.829v.721h10.829v-.721zm0 3.246h-10.829v.721h10.829v-.721zm0 2.886h-10.829v.722h10.829v-.722zm0 2.887h-10.829v.722h10.829v-.722zm12.994-30.308h-3.249v108.24h3.249v-108.24zm26.711 0h-3.249v108.24h3.249v-108.24z" fill="#CBCCCE"/><path d="M322.08 557.707h-24.906v1.443h24.906v-1.443zm0 6.855h-24.906v1.444h24.906v-1.444zm0 6.495h-24.906v1.443h24.906v-1.443zm0 6.855h-24.906v1.443h24.906v-1.443zm0 6.856h-24.906v1.443h24.906v-1.443zm0 6.855h-24.906v1.443h24.906v-1.443zm0 6.494h-24.906v1.443h24.906v-1.443zm0 6.856h-24.906v1.443h24.906v-1.443zm0 6.855h-24.906v1.443h24.906v-1.443zm0 6.856h-24.906v1.443h24.906v-1.443zm0 6.494h-24.906v1.443h24.906v-1.443zm0 6.855h-24.906v1.443h24.906v-1.443z" fill="#CBCCCE"/><path d="M284.18 638.889c.722 0 1.444-.361 1.805-.361 1.444-.361 2.526-.722 3.248-1.082-.722 4.69-1.443 9.741-2.526 14.432l2.165-1.083c-1.082 3.608-2.526 7.577-3.609 11.907-.361 1.443-.722 2.886-1.083 4.69h7.219c.361-.722.722-1.443.722-1.804 1.083-2.165 2.166-4.69 3.971-8.659-.722 2.886-1.444 6.494-1.805 10.463h6.497v-2.165c0-5.412 2.166-8.298 2.527-14.432v-1.804c.361-.361 1.444-.721 1.805-1.443.722-1.082.361-2.165.361-2.526-.361-3.968 1.444-9.741-.722-22.009-.361-1.804-.722-4.329-2.888-5.772-1.444-1.083-1.805-.361-2.888-1.444-2.526-2.164-.361-6.133-2.887-8.298-1.083-1.082-2.888-1.443-4.332-1.082-2.527.721-3.249 2.886-3.609 3.247-.722.361-1.083 1.082-1.083 1.082 0 .361.722.361 1.443 0-.721 1.804-.36 2.887 0 3.608.722 1.083 1.444 1.083 2.166 2.526.361.721.361 1.443 0 2.525 0 1.444-.361 2.887-.722 3.248-.722 2.164-2.526 5.772-5.775 9.38-1.805-.36-3.61 1.444-3.61 3.248.722 1.804 1.805 3.247 3.61 3.608zm-164.599-3.609c0 .36 0 1.443.361 2.525.722 1.083 1.444 1.443 2.166 1.804v2.165c.361 8.659.722 14.432 1.083 17.679 0 2.165.361 5.052.361 7.938h6.858c.361-1.804.361-3.969.722-5.773.361-3.247.722-6.494.722-9.381 1.083 2.165 2.166 3.969 2.887 5.773 1.805 4.33 2.527 6.134 2.527 7.216.361.722.361 1.443.361 2.165h7.58c-1.082-3.969-1.804-8.298-3.248-12.628-1.444-4.69-2.527-9.02-3.971-12.989.722.361 1.444.722 2.527 1.083-.722-5.413-1.805-10.464-2.527-15.876 1.083.361 2.166 1.083 3.61 1.443.722 0 1.444 0 2.166.361.361-.361.721-.361.721-.361l31.765 38.967h2.166l-32.487-40.049c.722-.722 1.083-1.443 1.083-2.526 0-1.804-1.805-3.608-3.97-3.247-3.61-3.969-5.776-7.937-6.498-10.463-.361-.722-.361-2.165-.722-3.608 0-1.443-.361-2.165 0-2.886.361-1.444 1.444-1.444 2.166-2.887.361-.721.722-1.804 0-3.969.722.361 1.444 0 1.805-.36 0-.361-.361-1.083-1.083-1.444 0-.361-1.083-2.886-3.971-3.608-1.443-.361-3.248 0-4.692 1.083-2.527 2.525-.361 6.494-3.249 9.02-1.083 1.082-1.805.361-3.248 1.443-2.166 1.804-2.888 4.33-3.249 6.494-2.166 14.072-.361 20.205-.722 24.896zm320.534-88.395h-2.527v57.728h2.527v-57.728zm14.439 0h-2.527v57.728h2.527v-57.728z" fill="#CBCCCE"/><path d="M452.748 549.051h-13.355v1.443h13.355v-1.443zm-.721 9.379h-13.355v.721h13.355v-.721zm.721 8.299h-13.355v1.443h13.355v-1.443zm-.361 9.019h-13.356v.722h13.356v-.722zm.361 8.299h-13.355v1.443h13.355v-1.443zm0 9.381h-13.355v.721h13.355v-.721z" fill="#CBCCCE"/><path d="M439.754 550.493l12.273 7.938v-.361l-11.912-8.299-.361.722z" fill="#CBCCCE"/><path d="M439.754 558.429l.361.361 11.912-7.938v-.721l-12.273 8.298zm0 9.744l12.273 7.937v-.721l-11.912-7.938-.361.722z" fill="#CBCCCE"/><path d="M439.754 575.748l.361.722 11.912-8.299v-.36l-12.273 7.937zm0 9.743l12.273 7.938v-.361l-11.912-8.298-.361.721z" fill="#CBCCCE"/><path d="M439.754 593.068l.361.722 11.912-7.938v-.721l-12.273 7.937zM284.54 637.085c0 .361 0 1.443-.361 2.165s-1.083 1.082-1.805 1.443v1.804c-.361 7.577-.722 11.907-.722 14.793 0 1.804-.361 3.969 0 6.855h-5.775c0-1.443-.361-3.247-.361-5.051-.361-2.526-.361-5.412-.722-7.938a24.774 24.774 0 00-2.166 4.691c-1.804 3.608-2.165 5.412-2.165 6.133 0 .722-.361 1.444-.361 1.804h-6.498c.722-3.247 1.805-6.855 2.527-10.463 1.083-3.969 2.166-7.577 3.249-10.824-.722.361-1.444.722-2.166.722.722-4.33 1.444-9.02 2.166-13.35-.722.361-1.805.722-2.888 1.082-.722 0-1.444.361-1.805.361s-.361 0-.722-.361l-26.711 32.833h-1.805l27.433-33.554c-.361-.722-.722-1.443-.722-2.165 0-1.804 1.444-2.886 3.61-2.886 3.249-3.608 5.054-6.856 5.415-8.66 0-.721.36-1.804.721-3.247v-2.525c-.361-1.083-1.443-1.444-1.804-2.165-.361-.722-.722-1.804 0-3.247-.722.36-1.444 0-1.444 0 0-.361.361-.722 1.083-1.083 0-.361 1.083-2.525 3.248-2.886 1.444-.361 2.888 0 3.971 1.082 2.166 2.165.361 5.773 2.527 7.577 1.083.722 1.444.361 2.526 1.443 1.805 1.443 2.166 3.608 2.527 5.412 1.444 11.185 0 16.597 0 20.205zm225.241 27.782H195.383v3.247h314.398v-3.247z" fill="#CBCCCE"/><path d="M196.105 668.114c12.16 0 22.018-9.854 22.018-22.009 0-12.156-9.858-22.009-22.018-22.009-12.161 0-22.019 9.853-22.019 22.009 0 12.155 9.858 22.009 22.019 22.009z" fill="#CBCCCE"/><path d="M196.105 666.31c11.163 0 20.213-9.046 20.213-20.205 0-11.159-9.05-20.205-20.213-20.205-11.164 0-20.214 9.046-20.214 20.205 0 11.159 9.05 20.205 20.214 20.205z" fill="#CBCCCE"/><path d="M196.104 664.865c10.366 0 18.77-8.4 18.77-18.762 0-10.361-8.404-18.761-18.77-18.761s-18.77 8.4-18.77 18.761c0 10.362 8.404 18.762 18.77 18.762z" fill="#CBCCCE"/><path d="M196.104 663.062c9.37 0 16.965-7.592 16.965-16.958 0-9.365-7.595-16.958-16.965-16.958-9.37 0-16.965 7.593-16.965 16.958 0 9.366 7.595 16.958 16.965 16.958z" fill="#CBCCCE"/><path d="M196.105 661.619c8.573 0 15.522-6.946 15.522-15.515 0-8.568-6.949-15.514-15.522-15.514-8.572 0-15.521 6.946-15.521 15.514 0 8.569 6.949 15.515 15.521 15.515z" fill="#CBCCCE"/><path d="M196.105 659.815c7.576 0 13.717-6.138 13.717-13.71 0-7.572-6.141-13.71-13.717-13.71-7.575 0-13.716 6.138-13.716 13.71 0 7.572 6.141 13.71 13.716 13.71z" fill="#CBCCCE"/><path d="M196.104 658.733c6.978 0 12.634-5.654 12.634-12.628 0-6.975-5.656-12.628-12.634-12.628-6.977 0-12.633 5.653-12.633 12.628 0 6.974 5.656 12.628 12.633 12.628z" fill="#CBCCCE"/><path d="M196.105 658.012c6.579 0 11.912-5.331 11.912-11.906 0-6.576-5.333-11.907-11.912-11.907-6.579 0-11.912 5.331-11.912 11.907 0 6.575 5.333 11.906 11.912 11.906z" fill="#CBCCCE"/><path d="M196.104 656.929c5.981 0 10.829-4.846 10.829-10.824s-4.848-10.824-10.829-10.824c-5.98 0-10.829 4.846-10.829 10.824s4.849 10.824 10.829 10.824z" fill="#CBCCCE"/><path d="M196.105 655.847c5.383 0 9.746-4.362 9.746-9.742 0-5.38-4.363-9.742-9.746-9.742-5.382 0-9.746 4.362-9.746 9.742 0 5.38 4.364 9.742 9.746 9.742z" fill="#CBCCCE"/><path d="M196.104 655.124c4.984 0 9.024-4.038 9.024-9.02 0-4.982-4.04-9.02-9.024-9.02-4.984 0-9.024 4.038-9.024 9.02 0 4.982 4.04 9.02 9.024 9.02z" fill="#CBCCCE"/><path d="M196.105 654.041a7.938 7.938 0 100-15.875 7.938 7.938 0 100 15.875zm591.256 6.135H565.369v3.247h221.992v-3.247z" fill="#CBCCCE"/><path d="M566.091 663.783c12.161 0 22.019-9.853 22.019-22.008 0-12.156-9.858-22.009-22.019-22.009-12.161 0-22.019 9.853-22.019 22.009 0 12.155 9.858 22.008 22.019 22.008z" fill="#CBCCCE"/><path d="M566.091 661.98c11.164 0 20.214-9.046 20.214-20.205 0-11.159-9.05-20.205-20.214-20.205-11.164 0-20.214 9.046-20.214 20.205 0 11.159 9.05 20.205 20.214 20.205z" fill="#CBCCCE"/><path d="M566.09 660.535c10.367 0 18.77-8.4 18.77-18.762 0-10.361-8.403-18.761-18.77-18.761-10.366 0-18.77 8.4-18.77 18.761 0 10.362 8.404 18.762 18.77 18.762z" fill="#CBCCCE"/><path d="M566.09 658.732c9.37 0 16.965-7.592 16.965-16.958 0-9.365-7.595-16.958-16.965-16.958-9.369 0-16.965 7.593-16.965 16.958 0 9.366 7.596 16.958 16.965 16.958z" fill="#CBCCCE"/><path d="M566.092 657.289c8.572 0 15.521-6.946 15.521-15.515 0-8.568-6.949-15.514-15.521-15.514-8.573 0-15.522 6.946-15.522 15.514 0 8.569 6.949 15.515 15.522 15.515z" fill="#CBCCCE"/><path d="M566.092 655.485c7.575 0 13.716-6.138 13.716-13.71 0-7.572-6.141-13.711-13.716-13.711-7.576 0-13.717 6.139-13.717 13.711s6.141 13.71 13.717 13.71z" fill="#CBCCCE"/><path d="M566.091 654.403c6.977 0 12.633-5.654 12.633-12.628 0-6.975-5.656-12.629-12.633-12.629-6.978 0-12.634 5.654-12.634 12.629 0 6.974 5.656 12.628 12.634 12.628z" fill="#CBCCCE"/><path d="M566.091 653.682c6.579 0 11.912-5.331 11.912-11.906 0-6.576-5.333-11.907-11.912-11.907-6.578 0-11.911 5.331-11.911 11.907 0 6.575 5.333 11.906 11.911 11.906z" fill="#CBCCCE"/><path d="M566.091 652.599c5.98 0 10.828-4.846 10.828-10.824s-4.848-10.824-10.828-10.824c-5.981 0-10.829 4.846-10.829 10.824s4.848 10.824 10.829 10.824z" fill="#CBCCCE"/><path d="M566.092 651.516c5.382 0 9.746-4.361 9.746-9.741s-4.364-9.742-9.746-9.742c-5.383 0-9.746 4.362-9.746 9.742 0 5.38 4.363 9.741 9.746 9.741z" fill="#CBCCCE"/><path d="M566.09 650.794c4.984 0 9.025-4.038 9.025-9.02 0-4.982-4.041-9.02-9.025-9.02-4.983 0-9.024 4.038-9.024 9.02 0 4.982 4.041 9.02 9.024 9.02z" fill="#CBCCCE"/><path d="M566.092 649.711a7.94 7.94 0 007.941-7.937 7.94 7.94 0 00-7.941-7.938 7.94 7.94 0 00-7.942 7.938c0 4.383 3.556 7.937 7.942 7.937zm221.269 2.527H634.312v2.887h153.049v-2.887z" fill="#CBCCCE"/><path d="M635.035 655.486c10.765 0 19.492-8.723 19.492-19.483s-8.727-19.483-19.492-19.483-19.492 8.723-19.492 19.483 8.727 19.483 19.492 19.483z" fill="#CBCCCE"/><path d="M635.034 654.043c9.968 0 18.049-8.077 18.049-18.04s-8.081-18.04-18.049-18.04c-9.967 0-18.048 8.077-18.048 18.04s8.081 18.04 18.048 18.04z" fill="#CBCCCE"/><path d="M635.036 652.6c9.17 0 16.604-7.431 16.604-16.597s-7.434-16.597-16.604-16.597c-9.17 0-16.604 7.431-16.604 16.597s7.434 16.597 16.604 16.597z" fill="#CBCCCE"/><path d="M635.035 651.157c8.373 0 15.161-6.785 15.161-15.154s-6.788-15.153-15.161-15.153c-8.372 0-15.16 6.784-15.16 15.153s6.788 15.154 15.16 15.154z" fill="#CBCCCE"/><path d="M635.035 649.352c7.376 0 13.356-5.977 13.356-13.35 0-7.373-5.98-13.35-13.356-13.35-7.376 0-13.355 5.977-13.355 13.35 0 7.373 5.979 13.35 13.355 13.35z" fill="#CBCCCE"/><path d="M635.035 647.909c6.578 0 11.912-5.331 11.912-11.907s-5.334-11.906-11.912-11.906c-6.579 0-11.912 5.33-11.912 11.906 0 6.576 5.333 11.907 11.912 11.907z" fill="#CBCCCE"/><path d="M635.036 647.188c6.18 0 11.189-5.008 11.189-11.185 0-6.177-5.009-11.185-11.189-11.185s-11.19 5.008-11.19 11.185c0 6.177 5.01 11.185 11.19 11.185z" fill="#CBCCCE"/><path d="M635.034 646.466c5.782 0 10.468-4.685 10.468-10.464 0-5.778-4.686-10.463-10.468-10.463-5.781 0-10.468 4.685-10.468 10.463 0 5.779 4.687 10.464 10.468 10.464z" fill="#CBCCCE"/><path d="M635.035 645.385c5.184 0 9.385-4.2 9.385-9.381s-4.201-9.381-9.385-9.381c-5.183 0-9.385 4.2-9.385 9.381s4.202 9.381 9.385 9.381z" fill="#CBCCCE"/><path d="M635.034 644.662c4.785 0 8.663-3.877 8.663-8.659 0-4.782-3.878-8.659-8.663-8.659-4.784 0-8.663 3.877-8.663 8.659 0 4.782 3.879 8.659 8.663 8.659z" fill="#CBCCCE"/><path d="M635.035 643.94a7.94 7.94 0 007.941-7.938 7.94 7.94 0 00-7.941-7.938 7.94 7.94 0 00-7.941 7.938 7.94 7.94 0 007.941 7.938z" fill="#CBCCCE"/><path d="M635.034 642.859a6.856 6.856 0 100-13.711 6.856 6.856 0 100 13.711z" fill="#CBCCCE"/></g><g clip-path="url(#clip3)"><path d="M82 619.475v-13.469l-40.367-10.929v-28.21h10.475L6.632 542.978l-43.942 16.011v-23.381h1.532v-4.829h-1.532V529h-13.54v1.779h-1.534v4.829h1.533v28.21l-24.526 8.895h8.942v10.928l56.461 6.353v77.26h92.229v-42.442H46.487v-5.083H82v-.254zm-50.586 3.812H20.428v-4.828h10.986v4.828zm0-12.199H20.428v-4.828h10.986v4.828zm0-12.198H20.428v-4.829h10.986v4.829zm0-12.199H20.428v-4.829h10.986v4.829zm0-11.945H20.428v-4.829h10.986v4.829zm17.117 64.044h19.417v5.083H48.53v-5.083z" fill="#F5F5F6"/></g></g><defs><clipPath id="clip0"><path fill="#fff" d="M0 0h1280v672H0z"/></clipPath><clipPath id="clip1"><path fill="#fff" transform="translate(717 461.195)" d="M0 0h668.232v207.805H0z"/></clipPath><clipPath id="clip2"><path fill="#fff" transform="translate(112 347)" d="M0 0h675v324H0z"/></clipPath><clipPath id="clip3"><path fill="#fff" transform="translate(-221 529)" d="M0 0h303v138H0z"/></clipPath></defs></svg>