<svg width="2500" height="960" fill="none" xmlns="http://www.w3.org/2000/svg"><g clip-path="url(#clip0)"><path fill="#C4C4C4" d="M-70 791h2657v9H-70z"/><path fill="#C4C4C4" d="M205 799h2202v9H205z"/><path d="M1280.61 794.789c-1.39-.917-2.78-1.376-4.17-1.376-1.39-.458-2.32-.917-3.71-1.834-.46 0-.92-.459-1.39-.459.47 0 .47 0 .93-.458 1.39-.918 2.32-2.752 1.85-4.587-.46-2.293-1.85-2.752-3.24-3.211h-.46c.92-3.669.46-8.714.46-12.842 0-5.962.46-12.383.46-18.805 0-3.669-.46-6.879-.46-10.548.46-3.67.46-7.339.93-11.008.46-5.504 0-11.466-.47-16.97-.92-12.384 0-25.226.47-37.61 0-12.842-.93-25.226-.93-38.068v-1.834c0-.459-.46-.459-.46-.459s-.47 0-.47-.459h-1.39c-.46-.458-1.39-.917-1.85 0-.46-.458-.93-.917-.93-.917 0-.459-.92-.459-.92 0-.47 0-.47.459-.47.459v.917s-.46.459 0 .917c0 3.669.47 6.88.47 10.549v10.549c0 1.835.46 3.669.46 5.504v17.429c-.46 5.962-1.85 11.466-2.78 17.429-.46 6.879-.46 12.383 0 19.263.46 7.338.46 15.594 0 22.933-.46 6.879.46 13.759.46 21.098 0 6.879 0 14.218-.46 21.098v2.293c-.93-.459-2.32-.459-3.24-.918-2.78-.917-5.1-2.751-7.42-3.21-.46 0-.92.917-.46 1.835.93 1.834 2.32 1.834 3.71 2.751-1.86-.458-4.17-.917-6.03-.917-.46 0-.93 1.376-.46 1.835-.47 0-.47.917-.47 1.376v.458c-1.85-.917-3.7-1.376-5.56-.917-.46 0-.46.917-.46 1.835.46.458.93.917 1.39 1.376-1.39-.918-3.24-1.835-4.63-2.294-.47 0-.93.459-.93.918-.93 0-1.85 0-2.78-.459-.46 0-.46.459-.46.459-.47 0-.93.458-1.39.917-.47.459-.47 1.376 0 1.835 0 .458 0 .917.46 1.376.46 0 .93 0 1.39.458 0 0 0 .459.46.459.93.458 1.39.458 2.32.917 1.39.459 2.78.459 4.63.459.47 0 .93 0 1.39.458 3.25 1.835 6.49 3.211 9.27 2.294.47 0 .47-1.376.47-1.835h.46c0 .917.46 1.835 1.39 1.835 5.1 0 10.66.917 15.75.458.93 0 1.86.459 2.78.459.47 0 .93-1.376.47-1.835-.47-.458-.93-.458-1.39-.458 2.31.917 4.63 1.376 6.95 1.834.46 0 .46 0 .46-.458.46 0 .93.458 1.39.458-1.39-.458-.46-2.293-1.39-2.752zm-32.9-5.045h-.93c-.46 0-.46 0-.46.459-.93-.459-2.32-1.376-3.24-2.293 1.39 0 3.24.917 4.63 1.834zm21.78-152.731c.46 12.842 1.39 25.685 1.39 38.527 0 5.962 0 11.925-.46 17.429 0 3.21-.47 6.421-.47 9.631-.46-8.714-.46-17.887-.46-26.601 0-12.843-.46-26.144 0-38.986-.46 0-.46 0 0 0zm-4.63 143.558c-.47 0-.93.459-1.39.918V770.94c0-6.88.46-13.76 0-20.64-.93-11.925.92-23.391 0-35.316v6.421c0 .917.92.917.92.459 0 5.504.93 11.007.93 16.511v16.97c.46 1.376-.46 16.512-.46 25.226zm3.7-5.962c0 1.376 0 3.669-.46 5.504h-2.32v-6.88c0-5.045.47-10.091.47-14.677v-16.97c0-6.421-.47-11.925-.93-18.346 0-4.128-.46-8.256-.46-12.384v-3.669c0-6.421 0-12.842.46-19.263 0-2.294 0-4.587.46-6.88 0-1.835.47-4.128.47-5.963 0-4.128 0-8.255-.47-12.383v-4.587c.47 0 .47-.458.47-.917v-.917c0-3.67 0-7.339-.47-11.008 0-1.376 0-3.211-.46-5.045h.46c0 11.007.47 22.474.47 33.481 0 12.384 0 24.768.92 37.151.93 12.384.93 24.767 1.39 37.151.47 5.962 0 11.925 0 17.887 0 3.211.47 5.963 0 8.715zm1.86-56.414c0 1.376 0 3.21.46 4.586 0-1.376-.46-3.21-.46-4.586zm211.42 51.148c-2.77 0-5.07.46-6.92.921-1.84-5.066-7.83-9.211-14.74-9.211-4.15 0-8.29 1.382-11.06 3.684-1.38-6.908-9.21-11.973-18.89-11.973-1.84 0-3.68 0-5.53.46-1.84-1.842-5.99-6.447-13.82-8.75-12.9-3.224-25.8 2.763-31.79 6.908-11.98 8.289-12.44 23.947 0 37.763 34.1 0 68.65.461 102.75.461 9.21 0 16.58-4.605 16.58-10.132 0-7.368-13.36-10.131-16.58-10.131z" fill="#CBCCCE"/><path d="M1473.54 773.029c-2.3 0-4.61.461-6.45.921-1.84-5.066-7.37-8.75-13.82-8.75-4.15 0-7.83 1.382-10.14 3.684-1.84-6.447-9.21-11.052-17.97-11.052-1.84 0-3.22 0-5.06.46-1.39-1.842-5.53-5.987-12.9-7.829-11.98-3.223-24.42 2.303-29.95 6.448-11.06 7.829-11.52 22.565 0 35.46 32.25 0 64.5.461 96.75.461 8.3 0 15.21-4.605 15.21-9.671-.46-7.369-12.9-10.132-15.67-10.132z" fill="#CBCCCE"/><path d="M1489.67 794.67h-111.04l-1.38-1.381c-10.14-11.513-9.68-23.948 0-30.856 4.61-3.223 15.2-8.289 25.8-5.526 6.45 1.382 9.68 5.066 11.06 6.908 1.38-.46 2.76-.46 4.14-.46 7.84 0 14.29 4.144 15.21 9.671 2.3-1.842 5.53-3.224 8.75-3.224 5.53 0 10.6 3.224 11.98 7.368 1.84-.46 3.69-.921 5.53-.921 1.84 0 7.83.921 11.06 4.145 1.38 0 2.76-.46 4.6-.46 1.85 0 12.44 1.381 14.75 7.368.46.921.92 2.763-.46 5.526 1.38.461.92.921 0 1.842z" fill="#CBCCCE"/><path d="M1491.51 772.106c2.76 0 5.07.461 6.91.921 1.84-5.065 7.83-9.21 14.74-9.21 4.15 0 8.3 1.381 11.06 3.684 1.38-6.908 9.22-11.974 18.89-11.974 1.85 0 3.69 0 5.53.461 1.84-1.842 5.99-6.448 13.82-8.75 12.9-3.224 25.8 2.763 31.79 6.908 11.98 8.289 12.44 23.947 0 37.763-34.09 0-68.65.46-102.74.46-9.21 0-16.59-4.605-16.59-10.131 0-7.369 13.37-10.132 16.59-10.132z" fill="#CBCCCE"/><path d="M1494.74 773.947c2.3 0 4.6.46 6.45.921 1.84-5.066 7.37-8.75 13.82-8.75 4.14 0 7.83 1.381 10.13 3.684.92-6.448 8.76-11.513 17.51-11.513 1.84 0 3.23 0 5.07.46 1.38-1.842 5.53-5.987 12.9-7.829 11.98-3.223 24.42 2.303 29.95 6.448 11.06 7.829 11.52 22.565 0 35.46-32.25 0-64.51.461-96.76.461-8.29 0-15.2-4.605-15.2-9.671.46-7.369 13.36-9.671 16.13-9.671z" fill="#CBCCCE"/><path d="M1598.86 789.145c-2.3 1.842-4.61 3.684-6.91 5.526h-99.98c-3.22-2.302-5.07-4.605-6.45-5.526-1.38-2.763-.92-4.605-.46-5.526 2.3-5.987 12.9-7.369 14.74-7.369 1.39 0 3.23 0 4.61.461 3.23-2.764 9.22-4.145 11.06-4.145 1.84 0 4.15.46 5.53.921 1.38-4.145 6.45-7.368 11.98-7.368 3.68 0 6.45 1.381 8.75 3.223.92-5.526 7.37-9.671 15.2-9.671 1.39 0 2.77 0 4.15.461 1.38-1.842 4.61-5.527 11.06-6.908 10.6-2.763 21.19 1.842 25.8 5.526 10.6 6.447 11.06 18.882.92 30.395z" fill="#CBCCCE"/><path d="M1485.98 781.317c-1.38 0-2.76 0-3.68.461-.93-2.763-4.15-5.066-7.84-5.066-2.3 0-4.6.921-5.99 1.842-.46-3.684-5.06-6.447-10.13-6.447-.92 0-1.85 0-2.77.46-.92-.921-3.22-3.684-7.37-4.605-6.91-1.842-13.82 1.381-17.05 3.684-6.45 4.605-6.45 12.895 0 20.263h54.83c5.07 0 8.76-2.763 8.76-5.526 0-3.684-6.92-5.066-8.76-5.066z" fill="#CBCCCE"/><path d="M1481.37 783.159c-1.38 0-2.3-.001-3.68.46-.92-2.763-3.69-4.605-7.37-4.605-2.31 0-4.15.921-5.53 1.842-.46-3.224-4.61-5.987-9.22-5.987-.92 0-1.84 0-2.76.461-.92-.922-2.77-3.224-6.91-4.145-6.45-1.842-12.9 1.381-16.13 3.223-5.99 4.145-6.45 11.974 0 18.882h51.6c4.61 0 8.3-2.303 8.3-5.066 0-3.684-6.45-5.065-8.3-5.065z" fill="#CBCCCE"/><path d="M1490.13 794.671h-59.44l-.92-.921c-5.53-5.987-5.07-12.895 0-16.579 2.77-1.842 8.29-4.145 13.82-2.763 3.23.921 5.07 2.763 5.99 3.684.92 0 1.38-.461 2.31-.461 4.14 0 7.83 2.303 8.29 5.066 1.38-.921 2.76-1.842 4.61-1.842 3.22 0 5.53 1.842 6.45 4.145.92-.461 1.84-.461 3.22-.461.92 0 4.15.461 5.99 2.303h2.3c.93 0 6.92.921 7.84 3.684 0 .461.46 1.382 0 2.763.46.921 0 .921-.46 1.382z" fill="#CBCCCE"/><path d="M1491.05 782.698c1.38 0 2.76 0 3.68.461.93-2.764 4.15-5.066 7.84-5.066 2.3 0 4.6.921 5.99 1.842.46-3.684 5.06-6.448 10.13-6.448.92 0 1.85 0 2.77.461.92-.921 3.22-3.684 7.37-4.605 6.91-1.842 13.82 1.381 17.05 3.684 6.45 4.605 6.45 12.895 0 20.263h-54.83c-5.07 0-8.76-2.763-8.76-5.526 0-3.684 6.92-5.066 8.76-5.066z" fill="#CBCCCE"/><path d="M1492.89 783.618c1.39 0 2.31 0 3.69.46.92-2.763 3.68-4.605 7.37-4.605 2.3 0 4.15.921 5.53 1.842.46-3.224 4.61-5.987 9.21-5.987.93 0 1.85 0 2.77.461.92-.922 2.76-3.224 6.91-4.145 6.45-1.842 12.9 1.381 16.12 3.223 5.99 4.145 6.46 11.974 0 18.882h-51.6c-4.6 0-8.29-2.303-8.29-5.066 0-3.684 6.91-5.065 8.29-5.065z" fill="#CBCCCE"/><path d="M1542.65 794.674h-53.44c-1.85-1.382-2.77-2.303-3.23-2.763-.92-1.382-.46-2.303 0-2.763 1.38-3.224 6.91-3.685 7.83-3.685h2.31c1.84-1.381 5.07-2.302 5.99-2.302.92 0 2.3 0 3.22.46.92-2.302 3.23-4.144 6.45-4.144 1.85 0 3.69.46 4.61 1.842.46-2.764 4.15-5.066 8.29-5.066.92 0 1.39 0 2.31.46 1.38-.921 3.22-2.302 5.99-3.684 11.51-5.987 30.4-8.75 37.32 0 1.84 2.763 3.22 6.908 2.3 10.592-2.77 6.908-14.28 12.895-29.95 11.053zm-238.2-160.266h-1.84v60.329h1.84v-60.329zm15.21 0h-1.85v60.329h1.85v-60.329z" fill="#CBCCCE"/><path d="M1318.27 639.475h-13.82v.921h13.82v-.921zm0 3.683h-13.82v.921h13.82v-.921zm0 4.147h-13.82v.921h13.82v-.921zm0 3.681h-13.82v.921h13.82v-.921zm0 3.684h-13.82v.921h13.82v-.921zm0 3.685h-13.82v.922h13.82v-.922zm0 3.686h-13.82v.921h13.82v-.921zm0 3.684h-13.82v.921h13.82v-.921zm0 3.685h-13.82v.921h13.82v-.921zm0 4.143h-13.82v.921h13.82v-.921zm0 3.685h-13.82v.921h13.82v-.921zm0 3.684h-13.82v.921h13.82v-.921zm16.59-38.688h-4.15v138.159h4.15V642.234zm34.1 0h-4.15v138.159h4.15V642.234z" fill="#CBCCCE"/><path d="M1365.73 653.748h-31.79v1.842h31.79v-1.842zm0 8.748h-31.79v1.842h31.79v-1.842zm0 8.291h-31.79v1.842h31.79v-1.842zm0 8.75h-31.79v1.842h31.79v-1.842zm0 8.75h-31.79v1.842h31.79v-1.842zm0 8.75h-31.79v1.842h31.79v-1.842zm0 8.289h-31.79v1.842h31.79v-1.842zm0 8.752h-31.79v1.842h31.79v-1.842zm0 8.75h-31.79v1.842h31.79v-1.842zm0 8.748h-31.79v1.842h31.79v-1.842zm0 8.291h-31.79v1.842h31.79v-1.842zm0 8.75h-31.79v1.842h31.79v-1.842z" fill="#CBCCCE"/><path d="M1317.57 756.619c.91 0 1.83-.46 2.29-.46 1.82-.461 3.2-.921 4.11-1.382-.91 5.987-1.83 12.434-3.2 18.421.91-.461 1.83-.921 2.74-1.382-1.37 4.605-3.2 9.671-4.57 15.197-.46 1.842-.91 3.684-1.37 5.987h9.14c.46-.921.92-1.842.92-2.303 1.37-2.763 2.74-5.986 5.02-11.052-.91 3.684-1.82 8.289-2.28 13.355h8.23v-2.763c0-6.908 2.74-10.592 3.2-18.421v-2.302c.45-.461 1.82-.921 2.28-1.842.92-1.382.46-2.764.46-3.224-.46-5.066 1.83-12.434-.92-28.092-.45-2.302-.91-5.526-3.65-7.368-1.83-1.381-2.29-.46-3.66-1.842-3.2-2.763-.46-7.829-3.66-10.592-1.37-1.381-3.65-1.842-5.48-1.381-3.2.921-4.11 3.684-4.57 4.144-.92.461-1.37 1.382-1.37 1.382 0 .46.91.46 1.83 0-.92 2.302-.46 3.684 0 4.605.91 1.382 1.82 1.382 2.74 3.224.46.921.46 1.842 0 3.223 0 1.842-.46 3.684-.92 4.145-.91 2.763-3.2 7.368-7.31 11.973-2.28-.46-4.57 1.842-4.57 4.145.91 2.303 2.29 4.145 4.57 4.605zm-210.11-4.195c0 .456 0 1.824.46 3.191.91 1.368 1.83 1.824 2.74 2.28v2.735c.46 10.942.92 18.237 1.37 22.34 0 2.735.46 6.383.46 10.03h8.69c.46-2.28.46-5.015.91-7.295.46-4.103.92-8.206.92-11.853 1.37 2.735 2.74 5.015 3.66 7.294 2.28 5.471 3.2 7.751 3.2 9.119.46.911.46 1.823.46 2.735h9.6c-1.37-5.015-2.29-10.486-4.12-15.957-1.83-5.927-3.2-11.398-5.03-16.413.92.456 1.83.912 3.2 1.368-.91-6.838-2.28-13.221-3.2-20.06 1.38.456 2.75 1.368 4.58 1.824.91 0 1.83 0 2.74.456.46-.456.91-.456.91-.456L1179.26 793h2.74l-41.16-50.606c.92-.912 1.38-1.824 1.38-3.191 0-2.28-2.29-4.559-5.03-4.103-4.58-5.015-7.32-10.03-8.24-13.222-.45-.912-.45-2.735-.91-4.559 0-1.824-.46-2.735 0-3.647.46-1.824 1.83-1.824 2.74-3.647.46-.912.92-2.28 0-5.015.92.456 1.83 0 2.29-.456 0-.456-.46-1.368-1.37-1.824 0-.456-1.37-3.647-5.03-4.559-1.83-.456-4.12 0-5.95 1.368-3.2 3.191-.45 8.206-4.11 11.397-1.37 1.368-2.29.456-4.12 1.824-2.74 2.28-3.66 5.471-4.11 8.206-2.75 17.781-.46 25.531-.92 31.458z" fill="#CBCCCE"/><path d="M1318.17 754.591c0 .459 0 1.836-.46 2.753-.46.918-1.39 1.376-2.32 1.835v2.294c-.47 9.635-.93 15.14-.93 18.81 0 2.294-.47 5.047 0 8.717h-7.43c0-1.835-.47-4.129-.47-6.423-.46-3.211-.46-6.882-.93-10.093a31.185 31.185 0 00-2.78 5.964c-2.33 4.588-2.79 6.882-2.79 7.799 0 .918-.47 1.835-.47 2.294h-8.36c.93-4.129 2.32-8.717 3.25-13.304 1.4-5.047 2.79-9.635 4.18-13.764-.92.459-1.85.918-2.78.918.93-5.506 1.86-11.47 2.78-16.975-.92.459-2.32.917-3.71 1.376-.93 0-1.86.459-2.32.459-.47 0-.47 0-.93-.459l-34.38 41.749H1255l35.3-42.666c-.46-.918-.93-1.836-.93-2.753 0-2.294 1.86-3.67 4.65-3.67 4.18-4.588 6.5-8.717 6.97-11.011 0-.918.46-2.294.93-4.129V721.1c-.47-1.376-1.86-1.835-2.33-2.752-.46-.918-.93-2.294 0-4.129-.93.458-1.85 0-1.85 0 0-.459.46-.918 1.39-1.377 0-.458 1.39-3.211 4.18-3.67 1.86-.459 3.72 0 5.11 1.376 2.79 2.753.46 7.341 3.25 9.635 1.39.917 1.86.459 3.25 1.835 2.33 1.835 2.79 4.588 3.25 6.882 1.86 14.222 0 21.104 0 25.691zm287.14 35.934h-401.3v4.145h401.3v-4.145z" fill="#CBCCCE"/><path d="M1204.93 794.671c15.53 0 28.11-12.578 28.11-28.092 0-15.515-12.58-28.093-28.11-28.093-15.52 0-28.1 12.578-28.1 28.093 0 15.514 12.58 28.092 28.1 28.092z" fill="#CBCCCE"/><path d="M1204.93 792.368c14.25 0 25.8-11.546 25.8-25.789 0-14.244-11.55-25.79-25.8-25.79s-25.8 11.546-25.8 25.79c0 14.243 11.55 25.789 25.8 25.789z" fill="#CBCCCE"/><path d="M1204.93 790.524c13.24 0 23.96-10.722 23.96-23.948 0-13.225-10.72-23.947-23.96-23.947-13.23 0-23.95 10.722-23.95 23.947 0 13.226 10.72 23.948 23.95 23.948z" fill="#CBCCCE"/><path d="M1204.93 788.221c11.96 0 21.66-9.69 21.66-21.645 0-11.954-9.7-21.644-21.66-21.644s-21.65 9.69-21.65 21.644c0 11.955 9.69 21.645 21.65 21.645z" fill="#CBCCCE"/><path d="M1204.93 786.381c10.95 0 19.82-8.866 19.82-19.803 0-10.937-8.87-19.803-19.82-19.803-10.94 0-19.81 8.866-19.81 19.803 0 10.937 8.87 19.803 19.81 19.803z" fill="#CBCCCE"/><path d="M1204.94 784.078c9.66 0 17.5-7.835 17.5-17.5s-7.84-17.5-17.5-17.5c-9.67 0-17.51 7.835-17.51 17.5s7.84 17.5 17.51 17.5z" fill="#CBCCCE"/><path d="M1204.93 782.696c8.91 0 16.13-7.217 16.13-16.119 0-8.902-7.22-16.118-16.13-16.118-8.9 0-16.12 7.216-16.12 16.118 0 8.902 7.22 16.119 16.12 16.119z" fill="#CBCCCE"/><path d="M1204.94 781.778c8.39 0 15.2-6.804 15.2-15.198 0-8.393-6.81-15.197-15.2-15.197-8.4 0-15.21 6.804-15.21 15.197 0 8.394 6.81 15.198 15.21 15.198z" fill="#CBCCCE"/><path d="M1204.93 780.395c7.64 0 13.83-6.185 13.83-13.815 0-7.631-6.19-13.816-13.83-13.816-7.63 0-13.82 6.185-13.82 13.816 0 7.63 6.19 13.815 13.82 13.815z" fill="#CBCCCE"/><path d="M1204.94 779.013c6.87 0 12.44-5.567 12.44-12.434 0-6.867-5.57-12.434-12.44-12.434-6.87 0-12.44 5.567-12.44 12.434 0 6.867 5.57 12.434 12.44 12.434z" fill="#CBCCCE"/><path d="M1204.93 778.091c6.36 0 11.52-5.155 11.52-11.513 0-6.359-5.16-11.514-11.52-11.514-6.36 0-11.52 5.155-11.52 11.514 0 6.358 5.16 11.513 11.52 11.513z" fill="#CBCCCE"/><path d="M1204.93 776.709c5.6 0 10.14-4.536 10.14-10.132s-4.54-10.132-10.14-10.132c-5.59 0-10.13 4.536-10.13 10.132s4.54 10.132 10.13 10.132zm754.69 7.83h-283.35v4.145h283.35v-4.145z" fill="#CBCCCE"/><path d="M1677.19 789.143c15.52 0 28.1-12.577 28.1-28.092 0-15.515-12.58-28.092-28.1-28.092-15.53 0-28.11 12.577-28.11 28.092 0 15.515 12.58 28.092 28.11 28.092z" fill="#CBCCCE"/><path d="M1677.19 786.841c14.25 0 25.8-11.547 25.8-25.79 0-14.243-11.55-25.789-25.8-25.789s-25.81 11.546-25.81 25.789c0 14.243 11.56 25.79 25.81 25.79z" fill="#CBCCCE"/><path d="M1677.19 784.996c13.23 0 23.95-10.721 23.95-23.947 0-13.226-10.72-23.947-23.95-23.947-13.24 0-23.96 10.721-23.96 23.947 0 13.226 10.72 23.947 23.96 23.947z" fill="#CBCCCE"/><path d="M1677.19 782.694c11.96 0 21.65-9.691 21.65-21.645 0-11.954-9.69-21.645-21.65-21.645-11.96 0-21.66 9.691-21.66 21.645 0 11.954 9.7 21.645 21.66 21.645z" fill="#CBCCCE"/><path d="M1677.19 780.853c10.94 0 19.81-8.866 19.81-19.802 0-10.937-8.87-19.803-19.81-19.803-10.95 0-19.81 8.866-19.81 19.803 0 10.936 8.86 19.802 19.81 19.802z" fill="#CBCCCE"/><path d="M1677.19 778.551c9.67 0 17.51-7.835 17.51-17.5s-7.84-17.5-17.51-17.5c-9.67 0-17.51 7.835-17.51 17.5s7.84 17.5 17.51 17.5z" fill="#CBCCCE"/><path d="M1677.19 777.169c8.9 0 16.12-7.217 16.12-16.119 0-8.902-7.22-16.118-16.12-16.118-8.91 0-16.13 7.216-16.13 16.118 0 8.902 7.22 16.119 16.13 16.119z" fill="#CBCCCE"/><path d="M1677.19 776.25c8.4 0 15.2-6.804 15.2-15.197 0-8.393-6.8-15.198-15.2-15.198-8.4 0-15.21 6.805-15.21 15.198s6.81 15.197 15.21 15.197z" fill="#CBCCCE"/><path d="M1677.19 774.868c7.63 0 13.82-6.186 13.82-13.816 0-7.63-6.19-13.816-13.82-13.816-7.64 0-13.83 6.186-13.83 13.816 0 7.63 6.19 13.816 13.83 13.816z" fill="#CBCCCE"/><path d="M1677.19 773.486c6.87 0 12.44-5.567 12.44-12.435 0-6.867-5.57-12.434-12.44-12.434-6.87 0-12.44 5.567-12.44 12.434 0 6.868 5.57 12.435 12.44 12.435z" fill="#CBCCCE"/><path d="M1677.18 772.564c6.37 0 11.52-5.155 11.52-11.514 0-6.358-5.15-11.513-11.52-11.513-6.36 0-11.51 5.155-11.51 11.513 0 6.359 5.15 11.514 11.51 11.514z" fill="#CBCCCE"/><path d="M1677.19 771.181c5.59 0 10.13-4.536 10.13-10.131 0-5.596-4.54-10.132-10.13-10.132-5.6 0-10.14 4.536-10.14 10.132 0 5.595 4.54 10.131 10.14 10.131zm282.42 3.227h-195.35v3.684h195.35v-3.684z" fill="#CBCCCE"/><path d="M1765.19 778.553c13.74 0 24.88-11.134 24.88-24.868 0-13.735-11.14-24.869-24.88-24.869-13.74 0-24.88 11.134-24.88 24.869 0 13.734 11.14 24.868 24.88 24.868z" fill="#CBCCCE"/><path d="M1765.19 776.711c12.72 0 23.03-10.309 23.03-23.026 0-12.718-10.31-23.027-23.03-23.027-12.73 0-23.04 10.309-23.04 23.027 0 12.717 10.31 23.026 23.04 23.026z" fill="#CBCCCE"/><path d="M1765.19 774.871c11.7 0 21.19-9.485 21.19-21.185s-9.49-21.184-21.19-21.184c-11.71 0-21.2 9.484-21.2 21.184 0 11.7 9.49 21.185 21.2 21.185z" fill="#CBCCCE"/><path d="M1765.19 773.028c10.68 0 19.35-8.66 19.35-19.342 0-10.682-8.67-19.342-19.35-19.342-10.69 0-19.35 8.66-19.35 19.342 0 10.682 8.66 19.342 19.35 19.342z" fill="#CBCCCE"/><path d="M1765.19 770.724c9.41 0 17.04-7.629 17.04-17.04s-7.63-17.039-17.04-17.039c-9.42 0-17.05 7.628-17.05 17.039 0 9.411 7.63 17.04 17.05 17.04z" fill="#CBCCCE"/><path d="M1765.19 768.881c8.39 0 15.2-6.804 15.2-15.197 0-8.394-6.81-15.198-15.2-15.198-8.4 0-15.21 6.804-15.21 15.198 0 8.393 6.81 15.197 15.21 15.197z" fill="#CBCCCE"/><path d="M1765.19 767.961c7.89 0 14.28-6.392 14.28-14.276 0-7.885-6.39-14.277-14.28-14.277s-14.29 6.392-14.29 14.277c0 7.884 6.4 14.276 14.29 14.276z" fill="#CBCCCE"/><path d="M1765.19 767.041c7.37 0 13.36-5.98 13.36-13.356 0-7.376-5.99-13.355-13.36-13.355-7.38 0-13.37 5.979-13.37 13.355s5.99 13.356 13.37 13.356z" fill="#CBCCCE"/><path d="M1765.19 765.66c6.61 0 11.98-5.36 11.98-11.973s-5.37-11.974-11.98-11.974c-6.62 0-11.98 5.361-11.98 11.974s5.36 11.973 11.98 11.973z" fill="#CBCCCE"/><path d="M1765.18 764.738c6.11 0 11.06-4.948 11.06-11.052 0-6.105-4.95-11.053-11.06-11.053-6.1 0-11.05 4.948-11.05 11.053 0 6.104 4.95 11.052 11.05 11.052z" fill="#CBCCCE"/><path d="M1765.19 763.814c5.59 0 10.13-4.536 10.13-10.132 0-5.595-4.54-10.131-10.13-10.131-5.6 0-10.14 4.536-10.14 10.131 0 5.596 4.54 10.132 10.14 10.132z" fill="#CBCCCE"/><path d="M1765.19 762.436c4.83 0 8.75-3.918 8.75-8.75 0-4.833-3.92-8.75-8.75-8.75-4.84 0-8.76 3.917-8.76 8.75 0 4.832 3.92 8.75 8.76 8.75z" fill="#CBCCCE"/><path fill="#fff" d="M-36 796h2535v160H-36z"/><g clip-path="url(#clip1)"><path d="M2460.37 697.229h-2.91v94.081h2.91v-94.081zm5.5 0h-4v94.081h4v-94.081zm-10.82 59.863h-13.9v2.914h13.9v-2.914zm0-39.715h-13.9v15.153h13.9v-15.153zm0 30.555h-13.9v2.914h13.9v-2.914zm0 4.58h-13.9v2.914h13.9v-2.914zm0-13.739h-13.9v2.914h13.9v-2.914zm0 22.897h-13.9v29.556h13.9V761.67zm0-27.475h-13.9v2.914h13.9v-2.914zm0 9.159h-13.9v2.914h13.9v-2.914zm12.32-43.877v10.99h71.58c1.58 0 2.83 1.415 2.83 3.163v.084c0 1.748-1.25 3.163-2.83 3.163h-71.58v27.975h79.74c1.08 0 1.99.999 1.99 2.331 0 1.249-.91 2.331-1.99 2.331h-79.74v14.237h77.57c.5 0 .92.5.92 1 0 .499-.42.999-.92.999h-77.57v25.56h105.71v-91.833h-105.71zm22.89 7.076h-2.34c-.83 0-1.49-.749-1.49-1.665s.66-1.665 1.49-1.665h2.34c.83 0 1.49.749 1.49 1.665s-.66 1.665-1.49 1.665zm12.06 0h-2.33c-.83 0-1.49-.749-1.49-1.665s.66-1.665 1.49-1.665h2.33c.84 0 1.5.749 1.5 1.665-.08.916-.75 1.665-1.5 1.665zm11.99 0h-2.33c-.83 0-1.5-.749-1.5-1.665s.67-1.665 1.5-1.665h2.33c.83 0 1.5.749 1.5 1.665s-.67 1.665-1.5 1.665zm12.07 0h-2.33c-.83 0-1.5-.749-1.5-1.665s.67-1.665 1.5-1.665h2.33c.83 0 1.5.749 1.5 1.665s-.67 1.665-1.5 1.665zm11.99 0h-2.33c-.84 0-1.5-.749-1.5-1.665s.66-1.665 1.5-1.665h2.33c.83 0 1.49.749 1.49 1.665s-.66 1.665-1.49 1.665zm-60.18 32.554h-2.33c-.84 0-1.5-.749-1.5-1.665s.66-1.665 1.5-1.665h2.33c.83 0 1.49.749 1.49 1.665s-.66 1.665-1.49 1.665zm12.07 0h-2.34c-.83 0-1.49-.749-1.49-1.665s.66-1.665 1.49-1.665h2.34c.83 0 1.49.749 1.49 1.665s-.66 1.665-1.49 1.665zm12.06 0h-2.33c-.83 0-1.49-.749-1.49-1.665s.66-1.665 1.49-1.665h2.33c.84 0 1.5.749 1.5 1.665-.08.916-.75 1.665-1.5 1.665zm11.99 0h-2.33c-.83 0-1.5-.749-1.5-1.665s.67-1.665 1.5-1.665h2.33c.83 0 1.5.749 1.5 1.665s-.67 1.665-1.5 1.665zm12.07 0h-2.33c-.83 0-1.5-.749-1.5-1.665s.67-1.665 1.5-1.665h2.33c.83 0 1.5.749 1.5 1.665s-.67 1.665-1.5 1.665zm11.99 0h-2.33c-.84 0-1.5-.749-1.5-1.665s.66-1.665 1.5-1.665h2.33c.83 0 1.49.749 1.49 1.665s-.66 1.665-1.49 1.665zm12.07 0h-2.34c-.83 0-1.49-.749-1.49-1.665s.66-1.665 1.49-1.665h2.34c.83 0 1.49.749 1.49 1.665s-.66 1.665-1.49 1.665zm1.08-8.908h-77.5c-.99 0-1.83-.916-1.83-2.082 0-1.165.84-2.081 1.83-2.081h77.5c1 0 1.83.916 1.83 2.081 0 1.166-.83 2.082-1.83 2.082z" fill="#E7E7E7"/><path d="M2384.38 715.463h-46.62c-.91 0-1.74.832-1.74 1.915 0 1.082.74 1.915 1.74 1.915h46.62v-3.83zm0 6.244h-41.95v3.83l7.99 5.162v21.231h-13.65v16.401h47.61v-46.624zm-28.14 28.807c0 1.083-.75 1.915-1.66 1.915-.92 0-1.67-.832-1.67-1.915v-18.65c0-1.082.75-1.914 1.67-1.914.91 0 1.66.832 1.66 1.914v18.65zm4.5 1.915c-.92 0-1.67-.832-1.67-1.915v-18.65c0-1.082.75-1.914 1.67-1.914.91 0 1.66.832 1.66 1.914v18.65c0 1.083-.75 1.915-1.66 1.915zm6.16 0c-.92 0-1.67-.832-1.67-1.915v-18.65c0-1.082.75-1.914 1.67-1.914.91 0 1.66.832 1.66 1.914v18.65c0 1.083-.75 1.915-1.66 1.915zm6.16 0c-.92 0-1.67-.832-1.67-1.915v-18.65c0-1.082.75-1.914 1.67-1.914.91 0 1.66.832 1.66 1.914v18.65c0 1.083-.75 1.915-1.66 1.915zm6.16 0c-.92 0-1.67-.832-1.67-1.915v-18.65c0-1.082.75-1.914 1.67-1.914.91 0 1.66.832 1.66 1.914v18.65c0 1.083-.75 1.915-1.66 1.915zm-47.45 18.317l-5.24 20.565h57.85v-20.565h-52.61zm-118.94 11.156l1.16 4.913c2.42 0 4.83-.084 7.16-.084l.42-4.745c-2.5 0-5 0-7.49-.084h-1.25zm9.65.084l.42 4.746c2.41 0 4.83 0 7.16.083l1.16-4.829h-8.74zm-23.72-.5l1.66 5.662c1.59-.083 3.25-.167 4.83-.167l-.75-5.245c-1.83-.083-3.83-.166-5.74-.25zm6.41.25l1.33 5.162c2-.083 4-.083 6.08-.083l-.5-4.912c-2.33-.083-4.58-.083-6.91-.167zm35.04-.582l-.41-1.582-.25 1.582h.66zm-8.24.748l-.5 4.829c2 0 4 .083 6.08.083l1.33-5.162c-2.33.167-4.58.25-6.91.25zm8.41-.166h-.92l-.75 5.162c1 0 2 .084 3.08.167l-1.41-5.329z" fill="#CBCCCE"/><path d="M2241.88 787.398c-1.08.083-2.17.083-3.25.167l-.33 2.664h-1.58l.66-2.581c-2 .083-3.99.083-5.99.083l-.25 2.498h-1.91l.58-2.498c-2.25 0-4.58.083-6.83.083l.25 2.415h-2.33l.25-2.415c-2.25 0-4.58 0-6.82-.083l.58 2.498h-1.92l-.25-2.498c-1.99 0-3.99-.083-5.99-.083l.67 2.581h-1.58l-.34-2.664c-1.58-.084-3.24-.084-4.83-.167l.84 2.831h-1.25l-.58-2.914c-.42 0-.92-.083-1.34-.083.42 0 .92-.084 1.34-.084l-1.25-5.744c-.34 0-.59 0-.92-.084.33 0 .58 0 .92-.083l-1-4.746 1.41 4.663 5.75-.25-.67-4.413 1.17 4.413c2.33-.083 4.66-.083 6.91-.166l-.42-4.247 1 4.247c2.99 0 6.07-.084 9.07 0l.33-4.247.34 4.247c2.58 0 5.07 0 7.65.083h1.5l1-4.33-.41 4.33c2.33 0 4.66.083 6.9.166l.59-2.164-1.42-5.329h-44.95l4.75 17.651h44.95l-1-3.747zm-2.75-159.523l23.14-17.65 17.23 2.747-21.89 16.319-18.48-1.416zm22.47 56.617c.09 3.996-3.08 4.163-4.24 2.165-.67-1.166-.58-2.831-.42-3.997-.75.749-1.16 1.915-1.16 3.081 0 2.414 1.75 4.329 3.83 4.329 1.08 0 2.33-.499 2.91-1.582.5-.832.58-1.915.17-2.831a2.054 2.054 0 00-.5-.749l-.59-.416zm-25.3 4.329s4.16-11.323 9.24-17.567c0 0-3.5 11.739-6.08 17.151-.08-.083-1.66-.999-3.16.416z" fill="#CBCCCE"/><path d="M2239.05 688.905s-5.91-.749-12.32 11.573c0 0 6.16-6.827 8.66-3.164 0 0 2.83-5.411 3.66-8.409zm-7.66 84.673c-.17-7.327.67-63.526 1.83-73.017 0 0-5.41 32.47-3.99 73.017h2.16zm19.81-100.991c-.58-1.915-2.08-7.243-2.25-9.907-.41-5.162 1.25-12.239 1.25-12.239l4.74-28.724-6.32 4.412-2.66 23.146a9.54 9.54 0 00-.17 1.665c-.75 7.577.5 14.82 1.33 18.317l4.08 3.33z" fill="#CBCCCE"/><path d="M2227.73 773.577c-.5-13.904.75-62.943 3.83-74.182 0 0-4.83.333-7.66 74.182h3.83z" fill="#CBCCCE"/><path d="M2221.73 773.577c4.25-61.943 4.67-70.769 8.5-74.598 0 0-8.5.249-11.91 74.598h3.41z" fill="#CBCCCE"/><path d="M2215.74 773.578c.67-9.408 3.33-60.196 10.41-72.101-10.58 11.489-13.9 67.022-14.24 72.101h3.83zm24.64-70.353c-.58.915-1.16 1.665-1.58 2.164l.75.25c.58-.833 1.08-1.499 1.5-2.165l-.67-.249zm20.06 7.91l1.91.666c.17-.25.34-.416.59-.666l-1.92-.666c-.16.25-.33.416-.58.666zm-8.82-35.635l1.08.833c-.17 1.415-.67 4.163-1.25 5.828 0 0 1.67-3.08 2.16-5.162l4.67 3.58c2.08-.583 4.57.083 5.57 2.415 1 2.414.59 5.661-1.16 7.576-2.75 2.997-8.24 2.415-9.74-1.832-.42-1.332-.58-2.83-.42-4.163-2.83 3.581-2.33 9.242 1 12.156 2.75 2.415 6.83 2.498 9.74.583.42-.25.83-.583 1.17-.916 5.41-5.245 1.74-13.571-1.75-20.065-3-5.578-1.42-16.069-1.42-16.069l2.42-14.07 6.49-33.969-8.57 5.245-3.83 29.307-1.42 13.237s-1.25 8.493 2.91 19.4l-12.31-10.324c-2.67 12.488-10.16 28.141-10.16 28.141l2-1.083s6.91-14.07 9.24-23.312l2.74 2.082c-.91 3.163-4.82 16.401-9.57 25.143l.92.25c4.58-8.409 8.4-21.064 9.49-24.811zm-11.32 30.473l17.98 6.411c.25-.25.5-.583.83-.916l-18.15-6.327c-.25.249-.41.582-.66.832zm30.04-17.151c-2.08 8.409-6.74 18.15-6.74 18.15s-.91 1.249-2.16 2.914l1.91.667c5.91-8.076 8.49-20.399 8.49-20.399l-1.5-1.332zm-28.88 15.653l18.23 6.41c.17-.249.33-.416.58-.666l-18.23-6.41c-.33.249-.5.416-.58.666z" fill="#CBCCCE"/><path d="M2238.71 702.642c-.16-.083-.24-.25-.24-.5.08-.166.24-.333.41-.25l1.08.334c.75-1.333 1.25-2.332 1.25-2.332l-.83-.249-3.83 1.165c-.25 1.998-.67 3.414-.67 3.414l2.17.749c.58-.666 1.08-1.415 1.5-2.165l-.84-.166zm20.48 10.075l1.83.666c.25-.333.59-.583.84-.916l-1.84-.666c-.33.25-.58.583-.83.916zm-10.24-23.479c-1.75 3.83-5.08 9.658-5.99 11.323l.91.25c2.67-4.829 5.08-11.573 5.08-11.573zm-7.41 13.654c.92-1.499 1.42-2.332 1.42-2.332l-.83-.249c-.42.832-.92 1.665-1.34 2.331l.75.25z" fill="#CBCCCE"/><path d="M2260.69 709.553c.75-.999 1.5-1.998 2-2.914l-3.17-.999c1-2.581 1.25-5.411 1.25-5.411l-5.74.333c-.17 1.248-.67 2.581-.92 3.413l-10.32-3.164c-.41.833-.91 1.582-1.41 2.332l18.31 6.41zm-3.25-7.909l1.25-.333s-.33 1.499-.91 2.581l-1-.25.66-1.998zm4.75-99.162l-23.06 19.399v4.58l23.06-18.4 17.31 2.997v-5.578l-17.31-2.998zm-67.26 30.889l1.67-1.832h-326.04v1.832h265.36l3.08 4.829h-268.44v1.831h269.6l34.13 53.618v-1.582l-33.13-52.036h12.73l20.4 44.377v-1.999l-19.48-42.378h34.04l1.67-1.831h-50.53l-3.08-4.829h58.02z" fill="#CBCCCE"/><path d="M2390.95 626.377h-5.24v5.828h5.24v-5.828zm0 7.576h-5.24v50.454h5.24v-50.454zm0 52.203h-5.24v5.828h5.24v-5.828zm15.74-59.779h-5.25v5.828h5.25v-5.828zm0 59.779h-5.25v5.828h5.25v-5.828zm0-52.203h-5.25v17.401l5.25 5.162v-22.563zm0 31.722l.99.915 3.5-2.581-4.49-4.412-5.25-5.245v6.077l5.25 5.246zm27.96 18.483l5.33 5.245v-42.878l-5.33 3.83v33.803z" fill="#E7E7E7"/><path d="M2438.9 691.402l-26.56-26.226-3.58 2.581 24.89 24.561-1.08.749-24.89-24.561-1.5 1.082-4.82 3.497v11.323h5.24v-12.821l23.56 23.229-23.48 17.151v-18.234h-5.24v30.389l5.24-3.83 27.97-20.398v47.457l-25.72-25.393-2.33 1.665-3.16 2.248-1.58 1.165-.59.417v63.858h5.25v-11.323l27.96-20.398v31.638h5.25v-98.827l-.83-.999zm-32.22 80.344v-40.047l23.31 23.062-23.31 16.985zm25.72-18.733l-25.72-25.477v-1.832l26.81 26.476-1.09.833zm-30.96-90.751v8.908l5.16-3.746-5.16-5.162zm-10.49 31.47h-5.24v97.578h5.24v-97.578zm15.74-138.957h-5.25v11.407h5.25v-11.407zm0 13.073h-5.25v5.828h5.25v-5.828z" fill="#E7E7E7"/><path d="M2434.65 554.775v3.997l-27.96 20.315v-3.664h-5.25v49.206h5.25v-15.736h27.96v29.806l-26.47 19.316 4.83 4.829 24.31-17.734 2.66-1.915v-88.42h-5.33zm0 45.542h-27.96v-12.905l27.96-20.398v33.303zm-43.7-24.893h-5.24v49.205h5.24v-49.205zm0-7.576h-5.24v5.828h5.24v-5.828zm0-13.073h-5.24v11.407h5.24v-11.407z" fill="#E7E7E7"/><path d="M2355.99 689.819l3.25 1.166c.5-.583 1-1.082 1.5-1.665l-3.33-1.166c-.5.583-1 1.166-1.42 1.665zm-86.31 86.089l1.91 7.993c3.91-.083 7.83-.083 11.74-.083l.66-7.743c-4.07 0-8.15-.084-12.31-.084-.67-.083-1.34-.083-2-.083zm15.81.165l.67 7.743c3.91 0 7.82 0 11.73.084l1.92-7.91c-4.75.083-9.57.083-14.32.083zm-38.7-.831l2.74 9.242c2.67-.167 5.25-.25 7.91-.333l-1.16-8.493c-3.17-.083-6.33-.249-9.49-.416zm10.4.416l2.17 8.409c3.33-.083 6.57-.166 9.9-.166l-.83-7.993c-3.75-.083-7.49-.083-11.24-.25z" fill="#CBCCCE"/><path d="M2237.71 762.42l7.75 28.89h78.57l7.74-28.89h-94.06zm85.74 12.822l-2 9.324c.75 0 1.42.084 2.17.084-.75.083-1.5.083-2.25.083l-1 4.746h-1.92l1.42-4.663c-2.66.167-5.33.25-7.91.333l-.58 4.33h-2.5l1.08-4.246c-3.24.083-6.49.166-9.73.166l-.42 4.08h-3.16l1-3.997c-3.75.084-7.5.084-11.24.084l.33 3.996h-3.83l.34-3.996c-3.75 0-7.5 0-11.24-.084l1 3.997h-3.17l-.41-4.08c-3.25-.083-6.49-.083-9.74-.166l1.08 4.246h-2.5l-.58-4.33c-2.66-.083-5.33-.166-7.91-.333l1.42 4.663h-1.92l-.99-4.746c-.75 0-1.5-.083-2.25-.083.75-.084 1.41-.084 2.16-.084l-1.99-9.324c-.5 0-1-.084-1.5-.084.5 0 1-.083 1.5-.083l-1.67-7.743 2.33 7.66c3.16-.167 6.24-.333 9.41-.416l-1-7.244 1.83 7.244c3.74-.084 7.57-.167 11.32-.25l-.67-6.994 1.67 6.994c4.99-.083 9.9-.083 14.9-.083l.58-6.911.58 6.911c4.16 0 8.33.083 12.49.083h2.41l1.67-6.994-.67 7.077c3.75.083 7.58.083 11.32.25l1.83-7.244-1 7.327c3.17.083 6.25.25 9.41.416l2.33-7.659-1.66 7.743c.49 0 .99.083 1.49.083-.66-.167-1.16-.083-1.66-.083z" fill="#CBCCCE"/><path d="M2301.06 775.991l-.83 7.91c3.33.083 6.57.083 9.9.166l2.17-8.409c-3.75.167-7.5.25-11.24.333zm10.98 8.16c2.67.083 5.25.166 7.91.333l2.75-9.242c-3.16.167-6.33.333-9.49.416l-1.17 8.493zm-19.64-21.73h3.5c-.83-15.403-.33-31.055.16-46.458-1.58 15.403-2.83 30.888-3.66 46.458zm67.92-123.223c.25 7.16-5.58 7.493-7.66 3.913-1.16-2.081-1.08-5.078-.75-7.16a8.39 8.39 0 00-2.08 5.578c0 4.247 3.08 7.743 6.83 7.743 1.91 0 4.16-.832 5.24-2.747.84-1.499 1-3.414.34-4.996-.25-.499-.5-.999-.84-1.332-.08-.249-1.08-.999-1.08-.999zm-45.53 7.661s7.49-20.399 16.57-31.638c0 0-6.25 21.064-10.91 30.722-.08.083-2.99-1.499-5.66.916z" fill="#CBCCCE"/><path d="M2319.79 647.192s-9.83-3.163-24.39 21.064c0 0 13.32-12.571 17.81-5.994 0 0 5-9.741 6.58-15.07zm-64.6 107.735a15.272 15.272 0 013.67 3.996c-.83-.416-1.75-.5-2.67-.333-.58.083-1.16.333-1.58.916-.33.499-.33 1.415.17 1.831.5.25 1 0 1.5-.333 1-.582 2.16-1.082 3.24-.999.42.833.84 1.665 1.25 2.498h11.07c.58-.583 1.08-1.249 1.58-1.832 1.42-1.665 2.58-3.663 3-5.911.08-.666 0-1.582-.58-1.748-.34-.084-.58.083-.92.249-1.91 1.249-3.16 3.414-4.24 5.662 10.32-53.118 22.8-87.587 22.8-87.587-17.56 24.478-26.05 69.021-30.04 88.42 0-2.831-.34-5.662-1.17-8.409-.25-.833-.75-1.832-1.5-1.666-.5.084-.83.666-.83 1.249 0 .583.17 1.083.33 1.665.5 1.582 1 3.247 1.5 4.913-.33-.833-.75-1.582-1.16-2.415-1.34-2.248-3.42-4.163-5.75-4.662-.33-.084-.75-.084-1.08.083-.83.416-.92 1.748-.42 2.581.25.833 1.09 1.332 1.83 1.832zm47.37 7.492c0-.499 0-1.082-.09-1.665.34.084.67.167.92.333.25.167.5.333.66.583.25.25.42.5.67.749h6.41l.75-.499c1.16-.666 2.33-1.166 3.49-1.832.67-.333 1.42-.999 1.25-1.831-.08-.417-.41-.75-.83-.916-.42-.083-.83-.083-1.16 0a9.263 9.263 0 00-5.17 3.08c-.33-11.573-1.41-71.851.59-89.418 0 0-7.41 16.068-4.5 90.667-.41-.832-.91-1.665-1.58-2.414-.42-.5-.91-.833-1.5-1.083-.5-17.067-1-70.352 3.83-92.249 0 0-10.07 18.983-9.32 96.495h5.58z" fill="#CBCCCE"/><path d="M2278.75 760.921c1.42.166 3 .499 4.08 1.498h7.74c1.08-17.4 4.75-78.511 13.32-97.161 0 0-19.23 31.388-19.48 95.413-.66-.666-1.25-1.249-2-1.748-1.08-.75-2.41-1.249-3.74-1.083-.5.084-.92.25-1.33.583-.34.333-.59.916-.42 1.416.25.832 1.08.999 1.83 1.082zm43.45-88.087c-1.08 1.665-2.08 2.997-2.75 3.913l1.42.5c1-1.416 1.91-2.748 2.66-3.913l-1.33-.5zm36.04 14.237l3.41 1.166c.34-.417.67-.833 1-1.249l-3.41-1.166c-.33.417-.66.833-1 1.249zm-36.21-9.408l32.3 11.573c.42-.5.91-1.083 1.41-1.666l-32.62-11.406c-.34.583-.75 1.082-1.09 1.499zm53.86-30.388c-3.83 15.153-11.99 32.304-11.99 32.304s-1.58 2.248-3.83 5.162l3.41 1.166c10.66-14.487 15.24-36.384 15.24-36.384l-2.83-2.248zm-51.86 27.808l32.71 11.489c.34-.416.67-.832 1-1.248l-32.79-11.49c-.34.416-.67.833-.92 1.249zm-4.91-3.248c-.33-.083-.5-.499-.42-.832.09-.334.42-.583.75-.417l1.92.666c1.33-2.331 2.25-4.163 2.25-4.163l-1.5-.499-6.83 2.081c-.5 3.58-1.25 6.161-1.25 6.161l4 1.416c1-1.249 1.91-2.581 2.66-3.913l-1.58-.5zm18.4-24.144c-3.17 6.911-9.16 17.401-10.82 20.315l1.58.5c4.99-8.742 9.24-20.815 9.24-20.815zm-13.32 24.478c1.66-2.664 2.49-4.163 2.49-4.163l-1.41-.416c-.75 1.498-1.58 2.914-2.33 4.163l1.25.416zm34.38 12.072c1.41-1.748 2.66-3.58 3.57-5.245l-5.66-1.748c1.84-4.663 2.25-9.658 2.25-9.658l-10.32.583c-.33 2.248-1.17 4.662-1.66 6.161l-18.57-5.745c-.83 1.415-1.66 2.914-2.58 4.246l32.97 11.406zm-5.83-14.237l2.25-.666s-.67 2.665-1.67 4.746l-1.83-.416 1.25-3.664zm7.66-115.229l-4.42 35.801v.167s.09.083.17.083h.08l.09-.167 8.07-35.884h-3.99z" fill="#CBCCCE"/><path d="M2359.91 595.572l4.74-20.149 4.66-20.648h-3.33l-8.15 36.301c-.59 2.497-3.83 1.748-3.5-.75l4.41-35.551h-3.24l-2.42 20.648-2.16 19.649s-2.25 15.236 5.24 34.885l-22.14-18.483c-4.83 22.479-18.23 50.537-18.23 50.537l3.58-1.998s12.4-25.31 16.56-41.879l4.92 3.747c-1.59 5.662-8.74 29.473-17.23 45.126l1.58.499c8.24-15.069 15.15-37.799 17.06-44.543l1.91 1.499c-.33 2.498-1.16 7.577-2.24 10.491 0 0 2.99-5.495 3.91-9.242l8.41 6.494c3.83-1.082 8.32.083 10.07 4.413 1.83 4.412 1.08 10.157-2.08 13.571-4.91 5.411-14.9 4.329-17.48-3.331-.75-2.331-1-4.995-.75-7.493-5.08 6.411-4.25 16.568 1.83 21.814 4.91 4.246 12.24 4.496 17.48.999.75-.5 1.41-.999 2.08-1.665 9.74-9.325 3.16-24.478-3.08-35.968-5.24-9.991-2.41-28.973-2.41-28.973zm7.4 53.867s-1.83 12.156-12.4 11.49c-8.65-.583-10.98-9.741-10.98-9.741s3.66 6.577 12.31 5.661c5.58-.583 11.07-7.41 11.07-7.41z" fill="#CBCCCE"/><path d="M2337.52 575.423l3.16-20.648h-12.24l.09 20.648h-.09c-.08 19.483 4.16 35.884 5 38.965.25-.999.5-1.998.66-2.914l8.24 6.91c-1.25-4.246-5.16-17.983-5.66-24.894-.5-5.745.09-12.405.84-18.067z" fill="#CBCCCE"/><path d="M2328.86 575.423l-4.25 2.83c-6.41 13.904-14.4 26.976-24.3 37.799a99.662 99.662 0 01-11.49 10.741c-4.08 3.33-8.57 6.244-13.4 7.909-4.41 1.582-9.41 1.915-13.57-.749-1.83-1.166-3.41-2.831-4.66-4.746l-2.25-.166c.25.416.42.749.67 1.165 2.08 3.247 4.83 5.745 8.16 7.077 4.66 1.749 9.74.916 14.23-.916 4.66-1.915 9.07-4.745 13.15-7.992 8.33-6.495 15.57-14.487 21.98-23.313 6.57-9.075 12.73-20.481 17.48-30.888l-1.75 1.249z" fill="#CBCCCE"/><path d="M2351.91 560.103c-2.24 6.328-9.07 19.233-10.23 20.981-11.91 18.567-26.47 34.802-42.95 48.206-7.99 6.494-17.4 12.739-27.56 12.239-7.65-.333-14.4-5.411-18.47-12.572l-2.08-.166c.74 1.415 1.58 2.747 2.41 3.996 2.08 2.997 4.66 5.662 7.66 7.577 8.9 5.744 19.47 3.33 28.3-1.416 4.66-2.497 8.82-5.828 13.07-9.075 4.24-3.33 8.24-6.993 12.23-10.74 7.66-7.16 14.9-15.153 21.23-23.812 15.31-20.814 18.48-29.806 22.05-39.048l-5.66 3.83z" fill="#CBCCCE"/><path d="M2350.25 554.775l-25.55 17.651-30.47-3.33 16.15-14.321h-11.15l-10.57 9.825v-9.825h-4v13.571l-7.66 7.077-19.72 18.4v-16.984l1.33-1.332 19.97-20.732h-12.15l-18.81 20.648-76.49 84.091c-.84.915-.92 2.414-.17 3.413.83 1.082 2.25 1.166 3.16.25l.09-.167v53.369h2.24v-43.794l9.91-8.659v104.072l1.33-.166 1.58.416v-4.579l14.73-7.826v17.817h4.08V656.017l40.96-27.309h-.09l-5.33-.416-3.57 2.498-20.23 3.746 13.15-11.573 6.08.916v-1.831l-4.33-.583 20.89-18.4 2.5 2.914 2.08-1.749-2.5-2.914.08-.083 20.48 3.33-1.16.833 2.24.416v2.914l49.36-32.886 31.13-21.065h-9.57zm-169.3 110.15l-4.41 4.08v-8.326l4.41-4.579v8.825zm1.58-1.498v-8.909l12.65-13.155v10.324l-12.65 11.74zm21.56 89.335l-14.74 7.826v-17.401l14.74 9.492v.083zm0-3.247l-14.74-9.491v-.25l14.74-7.826v17.567zm0-20.565l-14.74 7.827v-17.401l14.74 9.491v.083zm0-3.247l-14.74-9.491v-.999l14.74-7.826v18.316zm0-21.397l-14.74 7.826v-17.4l14.74 9.491v.083zm0-3.247l-14.74-9.491v-.666l14.74-7.827v17.984zm0-21.064l-14.74 7.826V670.42l14.74 9.492v.083zm0-3.247l-14.74-9.492v-.499l14.74-7.826v17.817zm0-20.898l-14.74 7.826v-2.248l14.74-12.988v7.41zm-7.24-5.661v-10.491l14.31-14.903v11.989l-14.31 13.405zm11.32 2.581v-7.91l4.16-3.663 4.66 5.495-8.82 6.078zm10.23-7.077l-4.82-5.662.25-.25 11.48 1-6.91 4.912zm17.98-12.406l-8.65 5.912-11.99-1.083 1.42-1.249 19.22-3.58zm-5.74-14.57l-17.81 16.652V623.13l17.81-18.567v14.154zm23.47-21.896l-21.06 19.565v-14.32l21.06-21.814v16.569zm27.8 5.078l-21.14-3.413 2.83-2.498 35.29-5.828-16.98 11.739zm-14.15-9.574l19.15-16.902 3.33-2.914 29.55 3.247-15.24 10.491-36.79 6.078z" fill="#E7E7E7"/><path d="M2129.51 682.825l.5 8.409 16.06-1.665-4.49-8.659-12.07 1.915zm-5.16.832l-.5 8.243 4.57-.5-.58-8.326-3.49.583zm-61.02 14.488l58.85-6.078.5-8.159-59.18 9.492-.17 4.745zm-3.83 60.029c1.34-.333 2.58-.666 3.67-.999l.16-6.827-3.33.749-.5 7.077zm95.23 5.244l1.41 6.744 7.58-.999-.75-7.077-8.24 1.332zm9.9-1.581l.67 7.16 19.06-2.581-1.42-7.576-18.31 2.997zm-101.55-57.864l58.52-2.665.5-7.41-58.85 5.579-.17 4.496zm60.6-10.241l-.42 7.493 5.83-.25-.5-7.743-4.91.5zm27.47-2.582l-20.98 1.999.5 7.743 20.23-.916-.58-3.664 2.33-1.831-1.5-3.331zm-28.05 12.239l-.42 6.078h6.99l-.41-6.244-6.16.166zm-60.18 6.161l58.18-.083.33-5.994-58.35 2.081-.16 3.996zm81.98-3.912l6.08-3.247-20.14.749.41 6.328h21.9l2.74-1.999-10.4-.749-.59-1.082zm-22.47 9.159l-.41 5.661 8.4.333-.41-5.744-7.58-.25zm9.24.248l.33 5.828 44.7 1.998-.17-6.411-44.86-1.415zm-69.09 2.831l57.85 2.498.34-5.661-58.02-1.832-.17 4.995zm-1.41-5.079l-14.9-.416v4.746l14.65.666.25-4.996zm95.3 11.24l.17 3.081 22.64.499-.17-2.581-22.64-.999zm-99.3-4.744l-10.9-.5v5.745l11.15.249-.25-5.494zm5.16 5.577l57.69 1.415.25-3.996-57.77-2.748-.17 5.329zm-3.33 0h1.67l.25-5.412-2.08-.083.16 5.495zm62.93-2.497l-.25 3.913 33.3.749-.17-3.08-32.88-1.582zm34.79 6.41l.17 4.246 23.47-.749-.41-2.914-23.23-.583zm-97.63-2.58l.41 10.324 95.81-3.497-.25-4.246-95.97-2.581zm122.94 18.566l-1.83-10.99-18.23 1.749 1.16 11.906c6.33-1 12.57-1.999 18.9-2.665zm-18.65 4.496l.5 4.829c1.17-.166 2.42-.333 3.58-.416 2.5-.333 5-.583 7.41-.833-3.66.667-7.33 1.333-10.99 1.915l.5 4.913 19.56-2.998-1.83-11.239c-6.16 1.581-12.48 2.747-18.73 3.829zm-9.99 7.327l.92 4.745 8.41-1.415-.5-4.912c-2.92.583-5.83 1.082-8.83 1.582zm8.41-6.994c-3.16.499-6.32.999-9.49 1.498l.92 4.413c2.99-.416 5.99-.749 9.07-1.082l-.5-4.829zm-3.16-6.828c-2.5.666-5.08 1.249-7.58 1.915l1 4.912c3.17-.666 6.41-1.248 9.58-1.831l-1.17-12.073-10.9 1.083 1.41 7.077c2.5-.333 5.08-.75 7.66-1.083z" fill="#CBCCCE"/><path d="M2059.17 763.086l-.41 6.744c16.39-2.914 32.79-5.495 49.19-7.993 14.48-2.165 29.05-4.246 43.61-6.078l-.83-4.413c-3.49.5-6.99.916-10.49 1.166 3.42-.916 6.83-1.748 10.24-2.498l-1-4.912c-15.31 3.663-30.88 6.577-46.28 9.491-9.48 1.749-18.97 3.497-28.46 4.746 18.31-4.746 36.95-8.326 55.52-11.739 6.32-1.166 12.73-2.331 19.14-3.33l-1.41-7.161-82.99 8.326-.08 3.83 12.81-2.165-12.81 2.998-.17 6.743c2-.499 3.25-.832 3.25-.832l-.42 4.912-8.41 2.165zm62.1-1.499c-19.81 2.998-39.62 5.662-59.52 8.076-1 .084-2.08.25-3.08.334l-.41 7.076 94.47-15.486-.92-4.745a1795.845 1795.845 0 01-30.54 4.745zm-70.34-32.471l.67 7.743 6.32-.25-.5-10.407-11.15-.333v2.498l4.66.749zm148 41.713l-11.16-2.997-134.67 18.4.41 5.079h141.92l-5.49-20.482h8.99zm-151.91-74.849l.17 3.829 14.48-1.498.17-4.663-14.82 2.332zm.25 5.078l.17 3.58 14.06-.583.17-4.412-14.4 1.415zm.25 4.997l.16 3.58 13.57-.083.17-3.913-13.9.416zm4.83 40.629l.41 4.662 5.58-.999.17-2.914 1.66.167-.17 2.498 3.25-.583.08-3.913-10.98 1.082zm.5 6.161l.58 6.993c1.5-.416 2.99-.832 4.41-1.165l.42-7.077-5.41 1.249zm4.66 10.657l-3.75.999 1.08 13.238 1.75-.333.42-7.16c-.92.083-1.83.25-2.75.333l2.75-.5.5-6.577zm-2.17 20.148l99.14-13.238-1.33-6.744-98.14 15.819.33 4.163zm-40.7-60.695v-10.574h-4.33v9.824l4.33.75z" fill="#CBCCCE"/><path d="M2023.71 680.827v43.71l7.08 1.166h3.08v.499l2.91.5v-.999h5.49v1.914l1.58.25v-18.316h1.25v-1.333h.09l-.75-14.653.66-.083v-2.664h5.5v1.748l2.91-.5v-1.332h5.49v.417l12.99-2.082v-8.409h-48.28v.167zm10.07 34.885h-5.49v-7.41h5.49v7.41zm0-17.401h-5.49v-7.41h5.49v7.41zm8.41 17.401h-5.49v-7.41h5.49v7.41zm0-17.401h-5.49v-7.41h5.49v7.41zm-3.66 47.457l-11.32-1.248.08 4.828 11.65 1-.41-4.58zm12.23 11.572l-.41-4.995-23.06-1.915v7.16l23.47-.25zm-124.19-28.224l111.38 10.657-.34-3.747-110.7-13.321-.34 6.411zm113.04 10.824l9.82.916-.25-3.497-9.9-1.166.33 3.747zm-113.62.167l99.64 9.075v-4.829l-54.27-5.661 54.27 4.163-.09-3.164-99.05-8.576-.5 8.992zm101.22 2.912l11.15.833-.33-3.081-10.82-.916v3.164zm23.64 15.237l-23.56.416.08 7.077 23.98-1.082-.5-6.411zm-25.06 7.577l-.08-7.077-108.21 2.081v.084h-1.58l-16.23.333-1.58 10.074 127.68-5.495zm14.15-21.896l9.83.749-.25-2.914-9.83-.833.25 2.998zm.59 6.576h-.09l9.82.916-.33-4.496-9.82-.999.42 4.579zm-122.7-22.229l7.16.666.34-6.41-6.66-.833-.84 6.577zm-21.64 54.45l-1.33 8.576h158.65l-.67-8.326-156.65-.25zm155.24-17.068l-153.82 7.743-1.08 7.243 156.23 1.416-1.33-16.402zm-13.9-30.722l-.5-5.412-116.87-19.815-1.24 9.907 118.61 15.32zm11.57 1.499l-.42-4.913-9.99-1.665.5 5.329 9.91 1.249zm-171.39 46.291l-5.74 8.576h21.23l1.33-8.576h-16.82zm39.62-63.359l1.25-9.991-8.74-1.415-2.08 10.157 9.57 1.249zm36.96 30.723l-36.62.166-.17 8.493 108.21-1.166-.08-7.243-122.36-10.075-.83 3.83 51.85 5.995zm-59.43 30.554l1.17-7.16-12.57.666-4.25 6.328 15.65.166zm29.55-40.712l.42-8.908-19.4-1.749-1.75 8.826 20.73 1.831zm-18.48-12.821l10.24.999.83-6.577-9.74-1.166-1.33 6.744z" fill="#CBCCCE"/><path d="M1915.84 758.839l.16-8.575-16.64.166-5.83 8.659 22.31-.25zm-19.48 12.488l1.58-10.157-5.91.166-6.99 10.491 11.32-.5z" fill="#CBCCCE"/><path d="M2492.59 654.934v42.711h80.4v-97.079h-30.3v23.063h-25.8v-7.91s.33-2.414-4.99-2.414c-4.58 0-4.67 2.414-4.67 2.414v30.306l-18.31 6.078v2.831h3.67zm64.25 15.902h5.75v20.065h-5.75v-20.065zm-13.73 0h5.74v20.065h-5.74v-20.065zm-7.99 20.065h-5.74v-20.065h5.74v20.065zm-18.15-60.279h25.81v24.395c-8.66-1.915-17.32-3.33-25.81-4.329v-20.066zm0 24.811c8.49.999 17.07 2.415 25.81 4.33v3.33a255.223 255.223 0 00-25.81-4.329v-3.331zm-1.33 15.403h5.75v20.065h-5.75v-20.065zm-13.73 0h5.74v20.065h-5.74v-20.065z" fill="#E7E7E7"/><path fill="#CBCCCE" d="M1870.43 631.955h1.138v162.771h-1.138z"/></g><path fill="#E7E7E7" d="M2268.82 550h171.877v4.553H2268.82z"/><path d="M353.126 614H0v13.26h353.126V614zm-12.927 44.763h-4.284v6.127h-1.201l1.036-29.14c.047-1.006-1.672-1.824-3.814-1.824h-40.61c-2.142 0-3.86.818-3.813 1.824l1.036 29.14h-1.719v-6.127h-4.285v6.127h-2.307v2.129h2.307v6.548h4.285v-6.548h1.789l.447 12.909c.048 1.474 2.213 2.666 4.826 2.666h35.454c2.614 0 4.779-1.192 4.826-2.666l.448-12.909h1.271v6.548h4.285v-6.548h2.424v-2.129h-2.424v-6.127h.023zm-229.267 36.135c.729.07 1.53.234 2.377.444-.07-.351-.141-.702-.235-1.052a20.396 20.396 0 00-2.684-.842c-.188-.374-.376-.749-.635-1.099a13.82 13.82 0 012.401-.328 8.662 8.662 0 00-.471-.795c-1.012-.047-1.954-.047-2.801.023l-.354-.35a4.589 4.589 0 00-.517-.445c.635-.327 1.412-.631 2.307-.912l-.236-.234c-.141-.14-.306-.28-.471-.421a20.974 20.974 0 00-2.754.749 7.249 7.249 0 00-1.059-.515c.541-.491 1.2-.982 2.001-1.497-.33-.187-.66-.35-.989-.491-.965.515-1.766 1.006-2.448 1.544a7.857 7.857 0 00-1.272-.187c.118-.234.259-.468.401-.702a8.17 8.17 0 011.082.187l.942-3.812a13.525 13.525 0 00-12.854 3.719c-5.179 5.332-5.038 13.845.33 18.99 5.367 5.168 13.913 5.005 19.092-.328.165-.187.33-.35.495-.537l-.942-.819c.118-.117.235-.21.353-.327.118-.117.212-.234.306-.351-.118-.281-.259-.561-.377-.819-.141.164-.282.351-.447.515l-.353.351v.21l-.424-.351c.024-.047.071-.07.118-.117a20.677 20.677 0 00-.753-2.736c.212-.351.376-.702.518-1.052.494.538.988 1.192 1.506 1.988.189-.328.353-.655.495-.983a14.6 14.6 0 00-1.554-2.432c.094-.421.165-.842.188-1.263.636.328 1.342.772 2.072 1.333.071-.374.118-.772.141-1.169a15.93 15.93 0 00-2.26-1.778 6.122 6.122 0 00-.235-1.309zm-2.166 8.349c.165-.164.306-.328.447-.515.141.258.259.538.377.819-.094.117-.212.234-.306.351-.259.257-.542.514-.824.748 0-.351-.024-.725-.047-1.052.117-.141.235-.234.353-.351zm-1.295 2.105a9.724 9.724 0 01-1.554.795c.118-.351.212-.725.283-1.053a10.36 10.36 0 001.106-.631c.047.281.118.585.165.889zm-4.026 1.403c-.07-.023-.164-.023-.235-.047-.024.024-.071.047-.094.07-.118 0-.259.024-.377.024.236-.328.471-.632.683-.936.447-.047.894-.14 1.318-.257-.023.304-.07.608-.141.935a9.93 9.93 0 01-1.154.211zm-8.569-14.009a7.254 7.254 0 00-.518 1.053c-.212-.211-.4-.468-.612-.725.236-.468.495-.913.8-1.357.095.351.212.702.33 1.029zm-.989 2.503c-.094.42-.164.841-.188 1.262a7.868 7.868 0 01-.847-.491c.07-.584.212-1.146.376-1.707.212.327.424.655.66.936zm-.164 2.853c.047.444.14.888.259 1.309a8.318 8.318 0 01-.99-.14 8.233 8.233 0 01-.211-1.847c.306.257.636.491.942.678zm.776 2.759c.189.375.377.749.636 1.1-.306.07-.635.117-.989.187a9.955 9.955 0 01-.776-1.591c.376.141.753.234 1.13.304zm1.201 3.251a8.19 8.19 0 01-.87-.959c.4 0 .8-.023 1.176-.046l.353.35c.165.164.33.304.518.445-.282.14-.588.28-.941.421-.095-.07-.165-.141-.236-.211zm8.24-8.489c.165.163.306.351.4.561a2.748 2.748 0 00-.777.491 2.089 2.089 0 00-.353 2.456c-.753.28-1.648.14-2.26-.445a2.128 2.128 0 01-.047-3.017 2.164 2.164 0 013.037-.046zm-2.307 10.571c-.306-.141-.636-.281-.918-.468.353.07.729.117 1.106.164a1.295 1.295 0 00-.188.304zm-.942-.468c-.118.047-.259.093-.377.14.071-.047.142-.117.212-.163.047 0 .118 0 .165.023zm.8-17.26a8.237 8.237 0 00-1.318.258c.024-.258.071-.538.118-.819.588-.117 1.177-.211 1.765-.211-.188.258-.4.515-.565.772zm-2.778.772a10.49 10.49 0 00-1.106.631c-.07-.257-.118-.561-.165-.841.495-.281.989-.538 1.53-.725-.094.304-.188.631-.258.935zm-.73 15.482c.118.141.26.281.4.421l.213.211c.117-.047.235-.094.376-.164.048.023.071.047.118.047-.235.21-.494.444-.8.655a10.572 10.572 0 01-1.413-.819c.377-.117.754-.234 1.107-.351zm1.766 1.52l.565.351a4.862 4.862 0 01-.776-.21l.211-.141zm1.436.492c.071-.071.165-.141.236-.188-.047.071-.094.141-.118.211-.047-.023-.071-.023-.118-.023zm-4.755-17.026c0 .351.023.701.047 1.029l-.353.351a4.628 4.628 0 00-.447.514 8.37 8.37 0 01-.377-.818c.047-.071.094-.117.165-.188.306-.327.635-.608.965-.888z" fill="#CBCCCE"/><path d="M228.473 691.435c-3.39-1.45-7.298.094-8.758 3.462a6.781 6.781 0 00-.518 2.221l-33.217 27.176v-37.606c1.648-.608 3.037-1.544 3.955-2.713l2.001-12.886h5.132c.612 5.332 5.156 9.471 10.665 9.471 5.932 0 10.735-4.794 10.735-10.688 0-5.893-4.803-10.688-10.735-10.688-5.227 0-9.582 3.719-10.547 8.63h-4.756l1.86-12.021h-2.848a9.823 9.823 0 00-2.378-5.332v-6.081h18.292v-10.617h145.77v-4.42H207.379v-.047h-50.944v.047H70.484v-.562H25.92v.562H3.53v4.42h22.39v8.232h15.302v5.332a8.771 8.771 0 00-2.072 4.678h-2.495c.306 1.988.612 3.882.87 5.706 1.201 7.835 2.166 13.986 2.92 18.944.753.959 1.836 1.73 3.13 2.245.095.047.19.07.26.093.023 0 .047.024.047.024v33.373a9.283 9.283 0 00-1.813 1.333c.024-.023.024-.047.047-.07-.023.023-.047.07-.094.094a8.675 8.675 0 00-2.66 6.267c0 4.818 3.931 8.724 8.78 8.724a8.768 8.768 0 006.38-2.737c.26-.257.519-.514.754-.795-.07.07-.165.141-.235.211a8.786 8.786 0 001.883-5.028l24.907-10.408c.07.024.118.047.188.07.024.024.048.024.095.047l.353.141c.023 0 .047.023.094.023.141.047.282.07.4.093h.047l.471.071c.141.023.283.023.424.023h.447c.07 0 .141-.023.212-.023.07 0 .141-.024.235-.024.071-.023.142-.023.236-.047.07-.023.118-.023.188-.046.094-.024.165-.047.26-.07.046-.024.093-.024.117-.047.33-.117.659-.257.965-.445.024-.023.047-.023.07-.023.095-.047.189-.117.283-.187.024-.023.047-.023.07-.047.33-.234.613-.491.895-.818a4.964 4.964 0 00-.612-6.993c-2.119-1.754-5.25-1.474-7.015.608-.377.444-.66.959-.848 1.473l-24.742 10.337a8.879 8.879 0 00-2.896-2.081v-33.023c.26-.093.495-.187.73-.304h.024c.259-.117.518-.257.753-.397.777-.468 1.46-1.029 1.977-1.684l1.437-9.238h4.967c.424 3.812 3.672 6.782 7.627 6.782 4.238 0 7.675-3.414 7.675-7.647 0-4.21-3.437-7.648-7.675-7.648-3.743 0-6.85 2.666-7.533 6.174h-4.708l2.024-13.073h-2.495a8.77 8.77 0 00-2.072-4.678v-5.332h16.009v-8.185h85.951v10.617h17.491v6.081c-.141.164-.282.351-.424.515.071-.094.118-.211.189-.304-1.154 1.426-1.907 3.204-2.143 5.121h-2.825c.236 1.521.471 2.994.683 4.421.212 1.426.424 2.806.636 4.139.094.655.212 1.31.306 1.965.188 1.286.4 2.525.588 3.741a2333.21 2333.21 0 012.143 13.916c.117.14.211.28.353.397.353.398.777.749 1.247 1.076.165.117.306.211.471.304.377.234.777.445 1.201.632.188.117.424.21.659.28v38.145c-3.084 1.707-5.156 4.981-5.156 8.723v.07c0 5.52 4.497 9.987 10.029 9.987 3.508 0 6.592-1.801 8.381-4.514-.094.117-.212.257-.306.374a9.918 9.918 0 001.954-5.917c0-.795-.094-1.59-.282-2.315l33.146-27.153a7.16 7.16 0 002.449-.07l5.72 11.741 5.721-2.76-6.521-13.401a6.597 6.597 0 00-3.696-8.139zm33.333 44.39c-.753-1.52-2.542-2.222-4.096-1.637l-11.653-9.566a3.053 3.053 0 00-.236-.654 3.31 3.31 0 00-4.378-1.521 3.29 3.29 0 00-1.531 4.374 3.31 3.31 0 004.379 1.52 3.277 3.277 0 001.154-.935l10.405 8.536c-.376.842-.4 1.847.047 2.759.118.234.259.445.424.632l-5.509 11.787a1.627 1.627 0 101.436 2.923 1.614 1.614 0 00.754-2.175c0-.023-.024-.046-.047-.07l8.71-12.792h-.024c.565-.959.66-2.129.165-3.181z" fill="#CBCCCE"/><path d="M272.615 723.008a3.29 3.29 0 00-3.79-1.73l-15.373-2.363a3.124 3.124 0 00-.259-.748 3.31 3.31 0 00-4.378-1.52 3.22 3.22 0 00-1.436 1.356l-.707-1.45-3.295 1.591-2.402-4.912-9.275 4.467 2.401 4.912-3.296 1.59.565 1.146a3.001 3.001 0 00-1.247.327 3.29 3.29 0 00-1.531 4.374c.095.21.236.421.377.584l-7.063 12.419a3.248 3.248 0 00-1.53.327 3.29 3.29 0 00-1.53 4.374 3.31 3.31 0 003.084 1.847l12.972 9.262c.023.163.07.327.141.491.141.28.447.468.8.584.73.234 1.53-.187 1.766-.912.259-.725-.094-1.543-.824-1.8a1.63 1.63 0 00-.659-.117l-11.065-10.361a3.296 3.296 0 00-.847-2.619l6.968-12.232a3.284 3.284 0 001.813-.304 3.289 3.289 0 001.53-4.373 3.206 3.206 0 00-.848-1.076l13.278-6.408c.023.444.118.889.33 1.31a3.31 3.31 0 004.378 1.52c.565-.257.989-.678 1.319-1.146l13.536 2.081a3.304 3.304 0 00.165 2.409 3.076 3.076 0 001.295 1.38l.212 11.928a1.66 1.66 0 00-.354 1.894 1.628 1.628 0 002.19.748 1.613 1.613 0 00.377-2.666l1.6-12.465c.966-1.006 1.225-2.456.612-3.719zm-82.941 9.305c-.118-.842-1.413-.491-1.295.351.494 3.578-1.177 6.805-4.92 7.483-1.413.258-2.99.445-4.403.071-1.742-.468-2.989-2.222-3.46-3.929-.236-.819-1.507-.468-1.295.35.471 1.684 1.672 3.649 3.272 4.467 1.86.936 4.261.679 6.239.304 4.543-.795 6.45-4.794 5.862-9.097z" fill="#CBCCCE"/><path d="M184.85 736.011c-.73.702-1.484 1.333-2.378 1.824-.754.398-.071 1.567.683 1.146.988-.538 1.836-1.239 2.66-2.011.612-.608-.33-1.544-.965-.959zm43.152-36.602c-.141.515-.259 1.357-.847 1.544-.66.21-1.837-.094-2.472-.234-.848-.187-1.201 1.099-.353 1.286 1.012.234 2.542.585 3.531.094.918-.445 1.177-1.427 1.436-2.339.212-.818-1.059-1.169-1.295-.351zm-2.001-1.287c-.283-.164-.777-.093-.918.234l-.071.14h-.07c-.354-.046-.73.094-.824.468-.071.327.094.748.47.819.306.046.612.14.919.046.376-.117.565-.444.729-.771.165-.351.094-.725-.235-.936zm10.666 60.223c-.118-.28-.471-.444-.777-.374-.353.094-.542.468-.471.819a.984.984 0 00.753.748c.33.094.73-.117.824-.468a.657.657 0 00-.329-.725zm15.725-6.549a.67.67 0 00-.941 0c-.071.071-.165.141-.236.211 0 0-.023.023-.047.023-.353-.023-.683.328-.659.655.024.374.282.655.659.655.495.023.871-.327 1.224-.631.259-.211.259-.655 0-.913zm17.208-12.7c-.376-.093-.682.117-.824.468-.047.141-.094.234-.141.328a.859.859 0 00-.188.421v.093c-.024.281.235.585.494.632.283.07.612-.047.754-.304.141-.281.258-.562.376-.842.118-.304-.141-.725-.471-.796zm-39.456 14.336c-1.012-.912-2.142-1.637-3.249-2.409-.918-.631-2.213-1.075-2.966-1.871-.589-.608-1.53.328-.942.936.706.748 1.695 1.006 2.543 1.567 1.247.842 2.566 1.707 3.696 2.713.612.561 1.553-.374.918-.936zm31.101-17.421c-.4-.748-1.554-.093-1.153.679.659 1.263-1.013 1.169-1.766 1.333a.674.674 0 00-.471.467c-.353 1.895-.965 3.579-1.789 5.333-.848 1.777-1.601 3.812-2.825 5.355-.518.655.4 1.614.942.936 2.401-3.017 3.39-6.923 4.873-10.384.094-.257-.306-.234-.141-.374.094-.094.612-.024.776-.07.518-.164 1.154-.281 1.578-.679.8-.771.447-1.73-.024-2.596zm9.436-14.032c-.4-.046-.659.094-.824.468-.023.047-.047.094-.047.14-.188.445.142.749.542.796.07.397.141.818.188 1.216l-.565.351c-.071.093-.259.163-.33.257-.353.468-.306.818-.306 1.403-.023 2.409-.235 4.794-.282 7.227-.024.865 1.318.865 1.342 0 .023-1.801.306-3.602.306-5.403 0-.561-.259-1.73.023-2.245.236-.421.73-.491 1.083-.818 1.201-1.217.589-3.134-1.13-3.392zm-72.128-52.692c-1.718-.258-3.46-.375-5.155-.655-.518-.094-1.107.444-.754.982l.047.07a.647.647 0 00.683.281c1.601.257 3.225.374 4.826.608.848.117 1.201-1.169.353-1.286zm4.401 8.49c-2.095-1.567-3.979-3.134-3.673-5.987.095-.842-1.247-.842-1.341 0-.354 3.344 1.859 5.285 4.331 7.133.683.514 1.366-.655.683-1.146zm2-3.929c-1.107-.725-2.66-1.988-2.708-3.415-.023-.842-1.365-.865-1.341 0 .07 1.965 1.812 3.555 3.366 4.561.73.467 1.389-.679.683-1.146zm9.582-6.243c-.353-.702-.73-1.356-1.224-1.988-.212-.28-.707-.234-.942 0-.283.281-.212.655 0 .936.4.514.706 1.122 1.012 1.707.377.772 1.53.117 1.154-.655zm-37.998 17.329a5.834 5.834 0 01-2.237-1.684c-.541-.655-1.483.281-.941.935.753.912 1.718 1.567 2.825 2.012.329.14.729-.141.824-.468.094-.351-.142-.655-.471-.795zm12.549-1.757c-.518.491-1.013 1.006-1.672 1.31-.353.163-.706.257-1.059.421-.306.14-.589.374-.918.467-.824.234-.471 1.521.353 1.287.353-.094.635-.304.965-.468.424-.21.871-.351 1.295-.538.753-.351 1.365-.935 1.954-1.52.635-.608-.306-1.544-.918-.959zm-4.611-38.165c-2.896-.538-5.98-.351-8.922-.468-.848-.047-.848 1.286 0 1.333 2.801.117 5.814-.093 8.569.421.847.164 1.2-1.122.353-1.286zm-74.747 59.706c-2.778 4.865-11.018 2.83-14.455-.14-.636-.561-1.6.374-.942.936 4.12 3.531 13.278 5.566 16.55-.141.424-.725-.73-1.403-1.153-.655zm-5.321-18.172c-.235-.094-.541-.188-.753-.304-.024 0-.047-.024-.047-.024-.071-.047-.118-.093-.189-.14a1.091 1.091 0 00-.541-.14c-.353.023-.659.304-.659.654a.7.7 0 00.565.655.301.301 0 00.094.07c.094.047.165.094.259.141.188.07.447.163.612.234.33.14.706.093.918-.234.141-.281.071-.772-.259-.912zm-18.693 21.4c-.824.374-1.554.538-2.425.328-.4-.094-.777-.258-1.177-.375-.07-.397-.518-.771-.989-.538-7.768 4.046-15.749 7.671-23.941 10.782-.8.304-.448 1.59.353 1.286 8.027-3.04 15.89-6.595 23.518-10.524.118.117.259.21.47.234.848.047 1.625.584 2.52.608.824.023 1.6-.281 2.354-.632.777-.374.094-1.52-.683-1.169zm-1.364-2.082h-.447c.047 0 .047 0 0 0-.165-.047-.212-.047-.33-.164-.258-.234-.682-.257-.941 0-.236.257-.26.702 0 .935.494.445 1.083.585 1.742.562.824-.024.824-1.357-.024-1.333zm-30.322 16.582c-1.154 2.713-2.92 3.929-5.933 3.718-1.977-.14-4.026-.374-5.156-2.175-.447-.725-1.6-.046-1.153.679 1.53 2.408 4.284 2.783 6.945 2.876 3.39.117 5.297-1.731 6.568-4.724.353-.819-.942-1.169-1.271-.374z" fill="#CBCCCE"/><path d="M49.956 720.364c-.306 1.263-1.766 1.591-2.872 1.076-.777-.351-1.46.795-.683 1.146 1.86.865 4.308.304 4.826-1.871.212-.818-1.06-1.169-1.271-.351zm1.529-9.049c0-.07-.024-.14-.047-.21-.448-1.614-.4-3.508-.4-5.169 0-.865-1.342-.865-1.342 0 0 1.801-.024 3.859.47 5.613.212.702 1.342.585 1.319-.187v-.047zm288.056-40.18c-.494.187-1.012.374-1.553.421-.518.047-1.036-.047-1.554.047-.283.046-.495.374-.495.631v.211c0 .678.848.818 1.201.397.424 0 .848.047 1.271 0 .518-.07 1.013-.234 1.507-.421.753-.327.424-1.613-.377-1.286zm-8.026 7.649c-.211.702-3.908.959-4.567 1.052-1.765.258-3.296 0-5.061-.093-3.273-.141-6.71.351-9.958.655-.848.07-.848 1.403 0 1.333 2.307-.211 4.614-.328 6.921-.515 2.095-.187 4.049.117 6.144.14 1.907.024 3.932-.397 5.815-.631 1.177-.14 1.672-.491 2.001-1.59.236-.819-1.059-1.146-1.295-.351zm-39.854.957c-.259-.024-.518-.047-.754-.141-.212-.093-.4-.234-.635-.28-.824-.187-1.201 1.075-.353 1.286.259.047.494.234.729.304.33.093.66.14.989.164.353.023.659-.328.659-.655.047-.398-.259-.655-.635-.678zM61.773 665.894c-.754-.024-1.483-.187-2.213-.234-.706-.024-1.46.093-2.19.023-.4-.257-1.059-.07-1.035.515v.093c0 .258.212.585.494.632.777.117 1.577.023 2.378.023.87 0 1.718.211 2.59.234.823.07.823-1.263-.024-1.286zm13.233 1.337c-.117 2.736-1.954 4.958-4.826 5.098-2.378.094-5.65-1.029-6.097-3.718-.141-.842-1.436-.491-1.295.351.612 3.508 4.897 4.958 8.004 4.677 3.437-.327 5.415-3.157 5.556-6.408.024-.842-1.318-.842-1.342 0z" fill="#CBCCCE"/><path d="M71.424 666.131c-.235.561-.518 1.309-1.106 1.567-.754.35-1.578-.164-2.307-.234-.848-.094-.848 1.216 0 1.333.588.07 1.13.351 1.742.351.424 0 .87-.071 1.247-.281.8-.444 1.248-1.24 1.578-2.058.33-.795-.824-1.474-1.154-.678zm-27.4 11.201c-.777-.281-1.601-.631-2.142-1.263-.566-.655-1.507.304-.942.936.706.818 1.742 1.263 2.73 1.613.825.281 1.178-1.005.354-1.286zm10.288-2.479c-.706.537-1.271 1.192-1.93 1.777-.306.281-.683.561-1.083.725-.306.117-.565.117-.8.374-.566.632.376 1.567.941.936-.07.093.118 0 .212-.047.165-.047.306-.117.447-.187.353-.164.66-.398.942-.632.683-.561 1.2-1.263 1.907-1.801.706-.514.047-1.66-.636-1.145zm2.401-21.214c-2.895-.632-5.815-.725-8.78-1.076-3.344-.421-6.734-.398-10.077-.047-.847.094-.847 1.427 0 1.333 3.06-.327 6.215-.397 9.276-.047 3.084.328 6.215.468 9.228 1.123.848.187 1.2-1.099.353-1.286zM51.418 643c-3.249-.421-6.404-.678-9.676-.655-.847 0-.87 1.333 0 1.333 3.272-.023 6.427.234 9.676.655.847.094.847-1.216 0-1.333zm-7.795 3.323c-.753.047-1.483.117-2.213.117-.847 0-.87 1.333 0 1.333.753 0 1.483-.07 2.213-.116.871-.047.871-1.38 0-1.334zm26.416-9.895c0-.865-1.342-.865-1.342 0 0 .632.023 1.24 0 1.871-.024.374-.094.772-.118 1.146-.047 0-.094.024-.118.024-.824.304-1.765.467-2.613.14-.8-.304-1.153.982-.353 1.286 1.06.398 2.284.234 3.32-.14a.707.707 0 00.258-.164c.377.094.848-.117.824-.608-.023-.561.118-1.122.142-1.66.023-.632 0-1.263 0-1.895zm111.63 19.855c-3.861-.07-8.287-1.029-12.077.024-.824.234-.471 1.52.353 1.286 3.626-1.006 8.028-.047 11.724.023.847 0 .847-1.309 0-1.333zm-6.566-4.209c0-.374-.306-.632-.659-.655-.848-.07-1.178 1.076-1.46 1.661-.165.327-.094.725.235.912.283.163.754.093.919-.234.094-.211.188-.445.306-.655.07-.117.141-.257.211-.374a.755.755 0 00.448-.655zm57.726 77.668c-.871.398-2.731.842-2.778-.654-.023-.842-1.365-.866-1.342 0 .047 1.005.518 1.847 1.531 2.175 1.177.397 2.189.116 3.272-.398.753-.327.094-1.473-.683-1.123zm11.56-3.412c-.518.258-1.083.632-1.671.562-.306-.047-.495-.187-.73-.374-.071-.071-.165-.117-.259-.188-.023-.023-.023-.023-.047-.023-.235-.702-1.389-.351-1.271.444.07.375.282.492.588.702.401.281.73.561 1.201.702 1.036.28 1.977-.211 2.872-.655.753-.421.094-1.567-.683-1.17zm6.543-6.759c-.4.398-.424.866-.589 1.38-.07.234-.423.538-.682.281-.636-.585-1.578.351-.942.935.565.538 1.554.562 2.213.141.33-.211.541-.562.683-.936.094-.28.07-.678.282-.888.565-.608-.376-1.544-.965-.913zm-13.279-7.486c-1.483.445-3.319 1.006-4.402 2.152-.589.631.353 1.567.941.935.919-.982 2.567-1.45 3.814-1.824.824-.234.471-1.496-.353-1.263zm-18.196-7.252c-4.85 4.35-9.817 8.513-14.926 12.583-4.755 3.788-9.887 7.413-14.219 11.646-.612.608.33 1.544.942.936 4.331-4.233 9.487-7.882 14.219-11.647a346.825 346.825 0 0014.925-12.582c.636-.562-.306-1.497-.941-.936z" fill="#CBCCCE"/></g><defs><clipPath id="clip0"><path fill="#fff" d="M0 0h2500v960H0z"/></clipPath><clipPath id="clip1"><path fill="#fff" transform="translate(1812.38 554.775)" d="M0 0h760.618v236.535H0z"/></clipPath></defs></svg>