<svg width="2500" height="960" fill="none" xmlns="http://www.w3.org/2000/svg"><g clip-path="url(#clip0)"><ellipse cx="517.991" cy="653.498" rx="6.057" ry="6.132" fill="#DCE0E8"/><path fill-rule="evenodd" clip-rule="evenodd" d="M517.809 667.804c7.704 0 13.949-6.323 13.949-14.123 0-7.799-6.245-14.122-13.949-14.122s-13.95 6.323-13.95 14.122c0 7.8 6.246 14.123 13.95 14.123zm0 8.176c12.164 0 22.025-9.984 22.025-22.299s-9.861-22.298-22.025-22.298c-12.165 0-22.026 9.983-22.026 22.298 0 12.315 9.861 22.299 22.026 22.299zm86.423-8.173c7.705 0 13.95-6.322 13.95-14.122 0-7.799-6.245-14.122-13.95-14.122-7.704 0-13.949 6.323-13.949 14.122 0 7.8 6.245 14.122 13.949 14.122zm0 8.176c12.165 0 22.026-9.983 22.026-22.298 0-12.315-9.861-22.298-22.026-22.298-12.164 0-22.025 9.983-22.025 22.298 0 12.315 9.861 22.298 22.025 22.298z" fill="#DCE0E8"/><ellipse cx="604.416" cy="653.498" rx="6.057" ry="6.132" fill="#DCE0E8"/><path fill-rule="evenodd" clip-rule="evenodd" d="M495.936 646.25h-4.745c.85-2.515 2.505-5.929 5-9.29h.294v-.391c4.53-5.938 11.695-11.593 21.687-11.687 9.116.124 27.604 6.503 28.633 29.544h-2.229c-.061-8.672-5.102-25.978-24.778-25.829-5.752-.434-18.576 2.49-23.862 17.653zm-2.607-9.29c-1.748 2.618-3.294 5.692-4.524 9.29h-2.964v11.892h-8.259v-1.485h4.981v-2.973h-4.981V652.2h4.981v-2.602h-4.981v-1.114h4.981v-1.858h-4.981v-.376h-7.158v1.115c-.918.495-2.313 1.895-.551 3.53.857.31 2.68.372 3.121-1.858.489-.186 1.358-.074.917 1.858-.612 1.363-3.487 3.531-6.057.929-.673-.681-1.615-2.527 0-4.459v-1.115H464v-9.663h2.75v.373h11.778v9.661h1.101v-9.661h13.7zm-13.7-1.487h14.748a32.874 32.874 0 013.606-4.087h-14.686V629.9h16.353a31.223 31.223 0 011.941-1.487h-18.293v-1.486h20.615a30.69 30.69 0 012.919-1.487h-23.536v-1.486h25.331v-4.834h-28.998v16.353zm38.543-12.449c-2.003-.088-4.709.19-7.709 1.078v-4.982h1.072v-1.487h-1.072v-4.458h1.807v-1.486h-1.807v-2.046h1.626c.061-.743.587-2.155 2.202-1.858v-8.734h1.285v8.734h2.203V584h3.854v4.088h2.57v19.697h4.589c.061-.805.403-2.453 1.284-2.602V589.76l-.917-.929v-1.486l-.735-.744v-1.858h38.545v1.858h-.734v1.487l2.936 17.467 7.159 10.778v8.176h2.386v2.973h-8.443v7.618h6.424l4.772 1.673h4.222c3.487-4.336 13.545-12.636 25.879-11.149 3.488.433 11.747 2.675 16.887 8.176l11.563-2.044.734 3.159-2.753.557 3.12 14.494h5.14c.55-.31 1.541-1.449 1.101-3.531h2.202v2.788c-.122 1.053-.954 3.122-3.303 2.973l-3.488.372-.734 1.486-8.81 1.115a25.945 25.945 0 00-.273-4.011c.226-.424.202-.856.067-1.189l-3.487-14.308-3.651.426c-3.688-3.797-9.053-6.653-16.701-7.119-6.668-.062-21.144 4.051-25.696 20.998h-14.317v4.46h-10.094v-28.614h5.874v14.496h1.102v-14.496h8.651v-1.486h-8.651v-13.564h2.386l-3.488-5.203v18.767h-10.646v-20.255h.392v-11.335c0-.319-.097-.812-.392-1.236v-4.339h-.734v3.719a2.197 2.197 0 00-.709-.188h-11.38c-.489 0-1.542.409-1.835 2.044v11.335h13.924v20.255h-14.842v-37.165h-.734v37.165h-10.954c-2.655-.744-5.603-1.203-8.869-1.302zm30.628 29.288c-.445-8.104-4.939-20.881-17.611-26.5H548.8v2.973h-7.869v1.858h7.869v21.669zm-40.173-40.623v-2.046h-34.716l-2.189 2.046h36.905zm0 1.486h-38.495l-3.379 3.158v1.3h41.874v-4.458zm41.642 12.637v28.614h7.339v-4.829h-5.137v-1.487h5.137v-6.69h-5.137v-1.486h5.137v-7.435h-5.137v-1.487h5.137v-5.2h-7.339zm-71.741-6.692v16.353h-11.775V619.12h11.775zm-1.472 1.119h-1.835v8.176h1.835v-8.176zm17.071-3.72v-1.858h-8.076v1.858h8.076zm41.665-25.643h-5.323v13.379h2.937v-6.132h1.652v6.132h2.202v-11.893c.147-.892-.918-1.362-1.468-1.486zm19.798 13.194v-13.007h4.773l2.202 13.007h-3.12v-3.716h-1.285v3.716h-2.57zm14.502 31.032h-1.652v4.274c0 1.635 1.101 1.92 1.652 1.858h5.506v2.416c.147 1.041-.428 1.425-.734 1.487h-5.69v1.3h6.791c1.028 0 1.285-1.239 1.285-1.858v-7.804l-1.835-.644v3.245h-5.323v-4.274z" fill="#DCE0E8"/><path d="M472.104 609.645l-4.405 4.088.551.743h40.38v-3.345l-36.526-1.486z" fill="#DCE0E8"/><path fill-rule="evenodd" clip-rule="evenodd" d="M2075.74 502.888c.09.036-.04.339.05.517-1.38-.553-2.97-1.392-4.49-1.945-.09-.179-.04-.304-.17-.589-.25.125.08.357 0 .589-1.03-.714-4.33-1.928-6.41-2.963.23-.179-.07-.161-.05-.464 1.61.606 3.06 1.41 4.69 1.999-.07.214-.14.482.16.5.04-.197-.14-.179-.09-.411 2.19.875 4.18 1.91 6.31 2.767zm19.96 8.604c-.36-.054-.73.321-.84-.09.27.054.74-.107.84.09zm103.96-57.353c-.63-.268-1.6.267-2.31 0 .19 0 .35-.036.44-.143-.43-.268-.73-.696-1.41-.518-.11.803.63 2.749-1.11 2.142-.22-.446-.11-.874-.15-1.178-.82.143-1.54 1.482-.78 2.142.62.536 0 2.214.3 3.195.23.643.39 1.303.48 1.982.34.125.6.303.83.589.54 1.446.11 1.963-1.26 1.999-.64.464.13 1.66-.59 2.071.24.892.67 4.052.52 6.122-.09 0-.18.018-.27.018-.18 0-.34.018-.52.054-.09-1.785-.18-3.57-.05-5.355.05-.786-.05-1.536-.25-2.339-.29-1.142-1.61.554-1.67-.964-.07-1.642 1.24-3.962 1.92-5.569-1.54-.714.2-3.249-.7-3.588-.12.107-.68.429-.84.446.09.679-.25 1.036-1.06.929-.7-.5-.02-1.25.36-1.553-4.26-.161-8.73 1.088-12.92 1.767-4.57.749-9.12 1.499-13.69 2.249-9.12 1.517-18.24 3.034-27.38 4.445-18.6 2.874-37.22 5.64-55.82 8.55-8.93 1.392-17.87 2.713-26.81 4.106-4.48.714-8.96 1.428-13.44 2.195-2.46.428-2.67.393-3.16 2.731-.28 1.428-2.09 2.107-3.58 2.285-1.81.214-4.75-.446-4.75 1.731 0 2.018 0 4.035.02 6.052.02 4.195.03 8.389.05 12.566.04 8.533.09 17.065.13 25.598.61-.5 1.38-.411 2.29-.215-.55.804-1.43 1.446-2.28 1.91.31.072.01 8.444-.08 11.46h29.69c.21-2.784-.25-4.319.12-6.622h-.25c.2-.893.15-1.696 0-2.499.02-.107.16-.072.25-.089-.01-1.143-.28-1.857-.25-3.088.02-.09.16-.072.25-.072-.09-.464-.09-.91 0-1.339-.01-.107-.16-.071-.25-.089.11-.767.15-1.821 0-2.588.02-.107.16-.072.25-.089-.34-1.857-.39-2.785 0-4.677h-.25c.11-1 .2-1.607 0-2.589.02-.089.16-.071.25-.089-.16-.517.04-1.339-.16-1.838h-.03c.02-.411-.11-.821-.36-1.161h-19.32v-1.874h4.95a4.855 4.855 0 00-.5-.089c.01-.696.05-1.41-.08-1.964-.07-.821-.07.232-.09.679v1.285c-.8-.054-1.63-.036-2.43.018v-2.678c.03.321.41.018.25-.285 1.72.053 6.07.232 6.2.339-.54.035-2.58-.018-3.35 0-.18.035-.04.41-.09.589.28.089.12-.268.16-.411.45.5.66 1.25 1 1.839-.64-.107-.62-.875-.93-1.339-.11.036-.2.75.09.678-.14.357-.36.357-.34 1 .54.053 1.2.125 1.34-.411.11.036.13.143.25.161-.1.357-.5.446-.77.625h12.14c.09-1 .16-2.517.25-2.517 0-.054.03-.089.09-.125h-.06l-2-.339h-4.45l-7.78-.268-.01.018v-.018l-2.01-.071-.34-1.339c-.04-.429.09-1.035-.09-1.339.18-.143.45.018.5-.089v-.571c.34-.143.54.107.84-.09.22.268.11.804.67.5-.09.571.01.946.09 1.232l.41-.054c.57-.357.8-1.017 1.5-1.089.54-.053.99.482 1.6.5.36.018.59-.071.8-.196l.06-.036c.21-.125.43-.285.73-.446.02 0 .02 0 .04.018l.34-.197c.16-.571.82-.642 1.13-1.071.14.072.11.34.41.25.02-.142-.11-.178-.09-.339.05 0 .09.107.09.161.07-.5.75-.839 1.25-1.16.17.035 0 .374.35.249.12-.339-.22-.178-.26-.339.83-.392 1.53-1.571 2.44-1.338-.03-.679.83-1.411 1.51-1.089-.04-.125-.27-.072-.16-.34 1.16-.856 2.34-1.66 3.44-2.588.23-.071.21.125.41.089-.06-.785 1.16-1.017 1.59-1.588.22-.018.07.321.34.25-.03-.125-.12-.215-.16-.339.47-.018 1.58-.5 1.85.089.34.018-.02-.107.09-.339.54.017.77.357 1.25.41-.11.232-.07.411.04.589a9.402 9.402 0 01-.79-.428c-.05.25-.63-.107-.93.339.39 3.338 1.05 7.069 1.34 10.175l.92.357 1.09-1.589-.09-.589 18.01.321c-2.17-.821-4.8-2.427-6.94-2.909-.03-.232-.09.035-.16-.25-.18.125-1.04-.161-.91-.339-.09-.036-.2-.072-.29-.108.18-.124.04-.214.04-.464.61.125.98.464 1.59.589-.09.232-.16.572.25.5-.03-.16-.32-.071-.25-.339 1.65.518 3.05 1.25 4.61 1.839.14-.107-.13.696.09.428.41-.036-.16-.053 0-.339.68.071 1.07.428 1.68.589-.11.107-.11.393 0 .5.24-.072-.14-.286.09-.411.61.268 1.22.518 1.85.768l17.43.321 1.94 2.499.68.161v.5l-.91.16-.67.928-.41-.16-.73-.732-9.23.178-25.5-.285 24.26 1.41c-.02-.071-.03-.143-.05-.214.14 0 .28-.018.43-.018-.06.018-.13.036-.24.018-.03.125 0 .178.06.214l.54.036c.05-.161-.04-.214-.08-.286h.47c-.04-.018-.09-.053-.16-.036-.04-.267.21-.232.34-.339v.375h.12c.04 0 .31.036.29.036.47.089.92.232 1.38.357.04.018.07.018.11.018-.02.232-.18.446-.14.785.03.089.07.196.08.286h11.35v1.874h-11.02c.14 2.963-.92 6.676-.92 6.676 0-.268.83-3.802.61-6.676h-3.1c-.19 2.588.06 6.676.06 6.676-.06-.553-.56-4.123-.38-6.676h-28.06c-.02.286.01.571.16.821.09.143.18.268.29.357-.04 0-.08 0-.11-.018-.34.375-.31.911-.16 1.339-.02.196-.24.196-.25 0-.33.196.62.393.08.589.02.107.17.071.26.089-.02 1.053-.06 1.446 0 2.499-.02.197-.36.036-.51.09-.12.321.36.017.34.25.02.374-.39-.125-.34.339.72.018.04.464.6.589-.36.821.32 2.16-.6 2.927.09.232.22-.125.34.089.08.34-.39.161-.34.5.17 0 .11-.232.34-.16.2 1.071.22 2.588-.25 3.177.11-.107.13-.036.25 0 .13 1.232.11 2.053 0 3.177-.01.107-.21.072-.34.09.72.535.25 1.963.42 2.998-.02.107-.17.072-.25.09.21.16.17.499-.17.499.09.233.22-.125.34.09-.14.321-.16.66.17.839-.2.464.09.946 0 1.338-.02.108-.24.179-.26.25-.05.393.31 1.071-.16 1.25.02.107.22.071.34.089 0 1.178-.05 1.964-.1 2.696h19.92v16.404h-.53v16.44h4.14v-22.652h2.36a3.686 3.686 0 01-.52-1.856c0-2.035 1.67-3.695 3.71-3.695s3.71 1.66 3.71 3.695c0 .678-.2 1.303-.52 1.856h1.67v-22.527h1.05v22.527h.54v-5.284h3.71v5.284h1.24v22.652h3.99v8.14h42.74v13.691h1.08v6.39h-45.41V676h-36.43l-23.64-67.849h-2.08l-13.98 26.865L2062.01 676h-15.35l-18.44-26.615L2017.07 676h-27.24l-32.13-38.307V676h-5.88v-35.647L1925.23 676h-17.65l40.5-49.481-12.3-18.368h-22.99l-19.69 26.204-.27 41.645h-49.03l11.9-13.834-4.8-40.966-10.95 3.712-1.24 51.088h-26.23l.5-65.457-4.57-2.446v67.885h-1.54v-5.569h-7.69v5.569h-1.54v-73.65l-9.36-5.016h-5.19v-2.785l-12.87-6.89 11.99-.232c-3.08-3.499-13.05-14.816-16-17.85-3.52-3.606-16.8-19.868-18.62-22.278-1.81-2.409-6.42-10.478-7.49-11.549-1.1-1.089-1.58-.482-2.19-.839-.61-.357-.36-2.409-.36-2.409s.13-.964.84-.964c.72 0 2.06-.714 2.42 0 .36.714.61 1.214.61 1.214s38.67 25.276 40.38 25.757c0 0 .96.482.96.839s.61.839.61.839 21.76 14.691 22.37 14.923c.61.232 1.45 1.089 1.09 1.803-.36.714-.13 3.606-.13 3.606l.74 3.249.72.035c0 .215 0 .429.01.625h.58v2.463l17.58-.339-.54-25.008-19.23-19.689-31.52-1.589V526.95h45v-6.926h-21.24v-3.731h114.31v3.731h-20.96v6.926h34.96l1.92-23.348h-1.53l-.19-1.018h1.83l7.41-90.34-2.27-.75 2.35-.285 2.09-25.58-.07-.036.07-.017 2.15-26.097c-.14-.179-.19-.34-.1-.429.64-.785 3.15-1.142 3.15-1.142l-.02-2.178 3.5-.411v-1.642l2.67-.214.41-3.267 3.89-.196.19 2.66s1.81.946 2.42.946c.61 0 .45 2.32.45 2.32l2.87 1.018.61 2.249s3.94 1.285 3.74 1.91c-.1.321-.34.446-.55.5l3.49 42.537.2.036v2.338l.47 5.766 1.88.624-1.81.25 7.34 89.43h1.63v1.018h-1.54l1.92 23.348h14.87c-2.63-.321-4.99-1.285-6.89-2.963-5.54-4.909-5.56-14.423-.81-23.741 0 .036.02.071.03.107a.501.501 0 01.38-.125c.06.018 8.73.143 15.18 5.498l8.46-9.425 1.13 1-8.48 9.442c.04.036.07.054.11.09 6.38 6.354 9.62 13.298 9.64 13.334.07.161.05.339-.02.482h.04c-.02.018-.04.036-.06.036a.54.54 0 01-.23.232c-.04.017-.07.017-.13.017-4.69 3.428-9.67 5.481-14.21 5.998h17.1v15.048h10.61v-.732c.02-2.874 0-5.748-.04-8.622-.01-1.142-.03-2.284-.07-3.445-.03-1.571-1.07-1.214-2.4-1.91.63-.446 1.7-1.642 2.51-.732.16-7.55-.04-15.083-.02-22.616a668.9 668.9 0 00-.03-11.852c-.04-2.464-1.4-8.676.23-10.639-4.5.714-9.02 1.392-13.53 2.053-2.28.339-4.55.642-6.83.963-1.11.161-2.78-.249-2.79 1.143 0 .125.23 1.928-.29 1.803-.29-.464.57-2.838-.63-2.731-.27 1.338.5 3.909-.77 4.873-1.68.196-3.46.446-5.11 0-1.48-.393-1.25-.964-2.13-1.66-.48-.375-.34-1.214-.3-1.714.07-1.071-.33-1.071-.51-1.642.36-.321.61-1.339.65-1.928.04-.714.05-1.428.05-2.124 1.15-.214 2.32-.393 3.46-.571.74-.107 3.73.125 3.84-.179.36-1.053.39-1 1.74-1.017 1.07-.75 2.13-1.5 3.2-2.25 3.75-2.641 7.44-5.622 11.42-7.925 1.27-.75 2.06-1.839 3.42-2.463 1.27-.589 3.12-.929 3.39-2.125.18-.035 1.83.411 1.47-.66.14.107.28.161.45.214.17-.178.1-.232.07-.517.28-.072 1.43.017 1.18-1.036.3-.089.14.322.3.375.27-.214 1.03-.143.74-.732.98 1.018 4.01.464 5.2.518-.04-.054-.18-.339 0-.375.09.625 1.14.286 1.79.375-.07-.089-.11-.196-.07-.375.28.179.3.625.96.446.18-.071-.16-.339.08-.446.68.375.87.125 1.25.143.27.018-.13.321.07.285a5.6 5.6 0 001.85-.589c.12.179.28.322.45.447 1.32.267 2.72.178 4.06.125 3.73-.161 7.46-.161 11.19-.125 3.45.035 6.93.089 10.39-.018 3.91-.125 8.12.303 11.97-.197 5.88-.785 12.26-.107 18.24-.374 6.31-.286 12.76-.322 19.14-.34 13.5-.017 26.9-2.873 40.14-4.962 6.96-1.107 13.6-2.124 20.5-3.267 3.93-.66 7.87-1.303 11.79-1.945 1.04-.161 3.19-1.089 4.09-.625 1.63.839 3.44.821 5.16 1.392-.55.054-1.06-.339-1.49-.143h.22c-.38.233-1.51-.481-2.01-.374.49.571 1.01 1.285 2.15.964-.03-.304.18-.393-.07-.518.31.107.7.143.97.286-.29-.108-.4.339-.31.374.27.018.52-.035.67-.142-.08-.054-.43-.161-.24-.232-.1-.179 1.08-.197 2.08-.197-.16.018-.3.072-.45.125.15.143.7.107.74-.125.54 0 .97 0 1.06-.018.09-.303-.27-.178-.08-.375.35.25 1.9 1.018 1.94 1.411-.57.892-.9-.107-.84 1.428zm-152.75 53.675c-.83-.731-2.14-.321-2.6.482l2.44-.071.75-.428c-.2.017-.43.053-.59.017zm57.02 2.178l-1.69-1.749-1.75 1.838 3.44-.089zm-2.69-1.749l-3.69-.161 1.68 1.839 2.01-1.678zm-5.2 1.339l.25.589 1.76-.25-1.43-1.678h-.92l-1.5 1.41 1.84-.071zm-2.85.16l1.69-1.928-4.53-.089 1.75 2.178 1.09-.161zm-2.09.25l-1.44-1.838-1.25-.09-1.68 1.75 4.37.178zm-4.86-.16l1.6-1.91h-4.2l1.35 1.91h1.25zm-2.44-.179l-1-1.589h-1.43l-1.6 1.75 4.03-.161zm-7.04 0l-1.09-1.678-1.51-.071-1.68 1.678 4.28.071zm-4.87-.071l1.75-1.928-4.69-.089 1.5 1.999h1.44v.018zm21.39 2.909c0 .018.02 0 .02.018.04-.018.06-.053.09-.071-.03.018-.09.035-.11.053zm2.15.804c-.14-.393-.28-.625-.43-.786-.03 0-.07-.018-.12 0 0-.036.05-.036.07-.053a.722.722 0 00-.25-.179c-.09-.018-.2-.018-.31-.036-.48.072-.94.697-1.2.929-.03.035-.05.089-.09.125h2.33zm-27.65-2.214c.49.464-.23 1.517-.14 2.214h25.11c.05-.143.12-.268.19-.375.04-.054.13-.143.22-.25-.13-.018-.23-.072-.22-.161-.03-.178.04-.268.11-.321-.05 0-.11.018-.16.018-.02.018 0 .035-.04.053-.03 0-.03-.035-.07-.035-3.76.196-24.75-1.375-24.75-1.375l-.43-.214c.06.16.13.303.22.446-.02-.018-.02-.018-.04 0zm1.85-1.428l-1.34-1.839-1.69-.178-.84 1.089 1.68.839 2.19.089zm-3.53 2.678c-.11.303-.18.66-.16.964h.7c.05-.143.1-.286.14-.465.23-.071.22.125.41.09.11-.482.02-1.839 0-1.428-.16-.143-1.75-.429-2.35-.5.24.464.11.607-.16 1.089.4.321 1.02.321 1.42.25zm78.87 84.324h5.96v-1.196h-5.96v1.196zm0-1.91h5.96v-3.213h-5.96v3.213zm0-3.927h5.96v-3.213h-5.96v3.213zm0-3.927h5.96v-3.213h-5.96v3.213zm-6.69 9.764h5.97v-1.196h-5.97v1.196zm0-1.91h5.97v-3.213h-5.97v3.213zm0-3.927h5.97v-3.213h-5.97v3.213zm0-3.927h5.97v-3.213h-5.97v3.213zm-6.68 9.764h5.96v-1.196h-5.96v1.196zm0-1.91h5.96v-3.213h-5.96v3.213zm0-3.927h5.96v-3.213h-5.96v3.213zm0-3.927h5.96v-3.213h-5.96v3.213zm-6.69 9.764h5.97v-1.196h-5.97v1.196zm0-1.91h5.97v-3.213h-5.97v3.213zm0-3.927h5.97v-3.213h-5.97v3.213zm0-3.927h5.97v-3.213h-5.97v3.213zm-1.57 9.764h.86v-1.196h-.86v1.196zm0-1.91h.86v-3.213h-.86v3.213zm0-3.927h.86v-3.213h-.86v3.213zm-5.11-5.872h5.09v1.945h.86v-3.213h-5.97v1.268h.02zm-6.69 0h5.97v-1.268h-5.97v1.268zm-2.63 0h1.94v-1.268h-1.94v1.268zm-311.08-.768l3.91-4.159.18-1-1.54.268-3.82 3.891 1.27 1zm5.77-9.407l.49.178c-.36-.357-19.39-12.995-19.64-13.191-.25-.178-.06.411-.06.411l19.21 12.602zm-.41 3.838l1.33-1.268c-.36-.91-1.15-.178-1.4-.053-.23.125.07 1.321.07 1.321zm-18.8-16.119l.06.535 17.95 11.799.43-.178-18.44-12.156zm-29.6-17.529l-13.17-10.657 12.76 10.835s24.3 15.834 24.48 15.959c.18.125.43 0 .36-.179l-24.43-15.958zm24.71 15.78s.36-.179.13-.357l-12.46-8.247-11.84-7.819s-13.3-10.174-13.48-10.299c-.18-.125 12.99 10.531 13.3 10.781.3.232 24.35 15.941 24.35 15.941zm-23.74-16.548c.3.054 23.74 15.834 23.99 15.887.24.054.67-.178.36-.428l-13.42-8.729-10.7-6.98-14.26-10.299s13.72 10.478 14.03 10.549zm-.67-1.213c.24.232 11.31 7.461 11.31 7.461l14.14 9.086s.61.357.43-.232l-14.44-9.157-11.18-7.408-13.25-9.086s12.74 9.104 12.99 9.336zm24.81 18.1l-.92.357s-22.47-14.441-24.83-15.351c0 0 19.3 22.295 20.12 22.759l10.7 6.765-3.71-13.548-1.36-.982zm8.37 16.636l-1.03-3.909-1.99-.535.61 2.766 2.41 1.678zm-2.12-.482l.43 1.625 2.12 1.142-.31-1.321-2.24-1.446zm.84-3.962l-1.02-2.892-1.5-.125.55 2.356 1.97.661zm-1.75 3.141l-10.52-6.765 2.81 3.07 8.15 5.427-.44-1.732zm-.9-6.712h1.51l-.67-1.445h-1.39l.55 1.445zm4.71 8.551l6.6 4.337 5.63-6.319-16.26-11.317 4.03 13.299zm12.44-2.339s.18.232 0-.357l-16.86-11.495.07.428 16.79 11.424zm-16.79-12.102l16.99 11.442.3-.304-17.4-11.62.11.482zm17.47 13.245l-1.4 1.571 1.51-.125.3-1.982-.41.536zm-2.97 7.122h1.54l1-.535.27-.447.18-2.249-2.99 3.231zm-2.3.161l-.79-.786-.61.786h1.4zm-1.56-1.089l-6.16-4.088.36 1.321 4.84 3.499.96-.732zm-1.75 1.089l-3.87-3.017.53 2.892 3.34.125zm-3.82-.125s-.43-2.285-.84-3.017c-.43-.714-2.12-1.321-2.12-1.321l1.15 4.516 1.81-.178zm-2.42.178l-1.58-5.426-8.45-5.712 9.06 11.138h.97zm-44.89-45.714l4.45 7.14 1.9 2.445c.26.821 16.39 19.778 16.39 19.778l17.44 19.35.45-.018v-2.642c-3.41-3.748-31.2-35.397-31.2-35.397l-6.17-7.854-5.62-6.319 2.36 3.517zm-.61-1.892l7.56 9.032 7.19 8.55 17.35 19.618c-.43-.839-11.9-15.477-12.28-16.137-.36-.661-8.4-9.568-8.4-9.568l-3.75-4.338s-6.88-7.282-7.31-7.639c-.43-.357-2.06-1.571-2.06-1.571l1.7 2.053zm-1.47-2.357l1.81 1.625 8.07 8.479 10.96 12.37 11.97 15.44 10.17 12.049h2.4l.32-.053s-11.88-14.709-12.24-15.262c-.36-.536-19.03-21.581-20.12-22.938-1.12-1.321-13.34-11.71-13.34-11.71zm.93.179l12.64 11.335 2.65.964-2.6-1.678c0-.018-11.74-9.782-12.69-10.621zm40.67 24.258s-16.44-10.049-16.74-10.353c-.31-.303-15.16-9.925-15.16-9.925l-8.59-5.48s12.57 8.551 13.53 9.158c.97.606 9.97 6.551 9.97 6.551l16.3 10.353c.02 0 1.04.25.69-.304zm.78 3.071c-.78-.179-.61 1.321-.61 1.321l1.38 4.444 1.4-.053s-.79-3.374-1.09-4.034c-.29-.643-.29-1.5-1.08-1.678zm1.4-.964l.18.482 20.61 13.673.12-.232-20.91-13.923zm20.84 16.618l-2.11 2.464-.06 1.089s2.42-2.535 2.91-3.017c-.02.018-.02-.946-.74-.536zm1.19 1.178c-.36-.178-1.19.911-1.19.911l1.27 1.356-.08-2.267zm-1.64 1.089l-1.72 1.892h3.53l-1.81-1.892zm1.9 2.606c-.35-.178-3.53-.178-3.53-.178l-.09 1.089.54.535c1.27.536 3.26 0 3.26 0l-.18-1.446zm.42 24.759l-7.69-4.106v5.034h7.69v-.928zm0 2.463h-7.69v5.998h7.69v-5.998zm0 7.515h-7.69v6.123h7.69v-6.123zm0 7.658h-7.69v5.998h7.69v-5.998zm0 7.515h-7.69v6.123h7.69v-6.123zm0 7.658h-7.69v5.997h7.69v-5.997zm0 7.515h-7.69v6.122h7.69v-6.122zm0 7.657h-7.69v5.998h7.69v-5.998zm0 7.515h-7.69v6.123h7.69v-6.123zm29.6-108.101l31.52-12.245h-41.68l10.16 12.245zm44.87-34.594h-51.29v6.926h51.29v-6.926zm11.76 88.198v16.637l12.56-16.637h-12.56zm51.5-81.272l.23-11.139-13.45 11.139h13.22zm-15.63 0h1.69l14.19-11.746.23-11.602h-14.19l-1.92 23.348zm13.78-28.9v1.393h2.41l.03-1.393h-2.44zm2.46-.321l.04-1.392h-2.48v1.392h2.44zm-2.46 2.017v1.392h2.37l.04-1.392h-2.41zm0 1.696v1.142h2.35l.02-1.142h-2.37zm-2.88-3.392v1.393h2.58v-1.393h-2.58zm2.58-.321v-1.392h-2.58v1.392h2.58zm-2.58 2.017v1.392h2.58v-1.392h-2.58zm0 1.696v1.142h2.58v-1.142h-2.58zm-2.9-3.392v1.393h2.58v-1.393h-2.58zm2.59-.321v-1.392h-2.58v1.392h2.58zm-2.59 2.017v1.392h2.58v-1.392h-2.58zm0 1.696v1.142h2.58v-1.142h-2.58zm-2.89-3.392v1.393h2.58v-1.393h-2.58zm2.58-.321v-1.392h-2.58v1.392h2.58zm-2.58 2.017v1.392h2.58v-1.392h-2.58zm0 1.696v1.142h2.58v-1.142h-2.58zm-.32 1.142v-1.142h-2.58v1.142h2.58zm-2.58-2.427v.981h2.58v-1.392h-2.55l-.03.411zm.05-.714h2.53v-1.393h-2.42l-.11 1.393zm.15-1.714h2.38v-1.392h-2.28l-.1 1.392zm.14-1.696h13.73l.17-8.568-12.11-13.191-1.79 21.759zm1.83-22.384l12.07 13.156.26-12.049-.95.035-11.33-1.856-.05.714zm4.87-2.695v-1.375h-2.56v1.375h2.56zm-2.54.303v1.25l2.56-.197v-1.053h-2.56zm2.54-1.999v-1.375h-1.83l-.73.929v.446h2.56zm-2.4-1.375h-.14v.197l.14-.197zm.25-.303l1.09-1.375h-1.48v1.375h.39zm.57 0h1.58v-1.375h-.48l-1.1 1.375zm9.23-1.678l.22-10.139-8.08 10.139h7.86zm-4.78 5.052v-1.375h-2.56v1.375h2.56zm-2.55.303v1.035l2.57-.196v-.839h-2.57zm2.55-1.999v-1.375h-2.56v1.375h2.56zm0-1.678v-1.375h-2.56v1.375h2.56zm2.88 3.374v-1.375h-2.56v1.375h2.56zm-2.56.303v.821l2.56-.196v-.625h-2.56zm2.56-1.999v-1.375h-2.56v1.375h2.56zm0-1.678v-1.375h-2.56v1.375h2.56zm.31-1.375v1.375h1.56l.03-1.375h-1.59zm0 1.678v1.375h1.52l.04-1.375h-1.56zm0 1.696v1.375h1.49l.03-1.375h-1.52zm0 1.678v.607l1.47-.107.02-.5h-1.49zm-10.84 1.375h.5l1.41-.108v-1.267h-1.63l-.19.232-.09 1.143zm1.63-3.053l-1.1 1.375h1.4v-1.375h-.3zm.28-.321v-.054l-.05.054h.05zm-1.75 1.41l.88-1.107h-.79l-.09 1.107zm.12-1.41h1.01l.62-.803v-.572h-1.52l-.11 1.375zm.13-1.678h1.5v-1.375h-1.39l-.11 1.375zm.14-1.678h3.42l8.7-10.907.21-10.745-10.36-2.321-1.97 23.973zm1.99-24.259l10.39-.856.31-14.477-8.46-11.942-2.24 27.275zm11.58-57.121l.23-10.835-6.65 11.603 6.42-.768zm-6.58 1.393l6.49 2.82.07-3.588-6.56.768zm6.63 54.782l2.49-.196.04-9.282-2.28-3.213-.25 12.691zm.2 3.874l-.27-.054-.18 8.89 2.72-3.41.04-5.605-2.31.179zm-.47 9.585l-.23 11.728h2.9l.07-15.155-2.74 3.427zm-.28-45.803l.03-1.393-.37.036v1.392l.34-.035zm-.34.339v1.249l.3-.035.04-1.25-.34.036zm.37-2.035l.04-1.392-.41.035v1.393l.37-.036zm.04-1.696l.03-1.392-.44.035v1.393l.41-.036zm1.54 65.993l1-1.375h-2.52v1.375h1.52zm-1.52.303v.393l1.07-.089.23-.322h-1.3v.018zm1.88 0l-.2.268.88-.072v-.214h-.68v.018zm.68-.303v-.643l-.47.643h.47zm0-1.696v-1.375h-2.56v1.375h2.56zm0-1.678v-1.375h-2.56v1.375h2.56zm-2.8 7.14l-.02.5 3.03 3.07.02-3.677-3.03.107zm-.02 1.142l-.25 12.264 3.25 3.534.05-12.709-3.05-3.089zm-.26 12.924l-.15 7.247h.86l-.14-1.82 2.67-.607v-1.268l-3.24-3.552zm.95 10.657l-.11-1.393h-1.06l-.04 1.393h1.21zm-1.19.303l-.03 1.392h1.34l-.11-1.392h-1.2zm1.06-2.017l-.11-1.392h-.89l-.04 1.392h1.04zm.29 3.713h-1.37l-.01 1.142h1.47l-.09-1.142zm-9.47-87.788l8.43 11.871.19-9.854-8.54-2.838-.08.821zm5.61-8.068v1.392l2.53-.25v-1.392l-2.53.25zm2.53-.554v-1.392l-2.53.25v1.392l2.53-.25zm-2.53 2.25v1.392l2.53-.25v-1.392l-2.53.25zm0 1.695v1.321l2.53-.321v-1.25l-2.53.25zm-2.83-3.106v1.375l2.53-.25v-1.392l-2.53.267zm2.53-.571v-1.392l-2.53.25v1.374l2.53-.232zm-2.53 2.249v1.375l2.53-.25v-1.375l-2.53.25zm0 1.696v1.375l.79-.072 1.74-.214v-1.339l-2.53.25zm-2.54 1.625l2.24-.215v-1.374l-2.13.196-.11 1.393zm.14-1.696l2.1-.197v-1.374l-1.99.196-.11 1.375zm.14-1.714l1.96-.196v-1.375l-1.85.179-.11 1.392zm.15-1.696l1.83-.178v-1.375l-1.71.179-.12 1.374zm.12-1.695l8.1-.822.15-6.515-6.88-9.068-1.37 16.405zm1.42-17.083l6.84 8.996.15-6.586-6.94-2.999-.05.589zm7.13-23.295s-2.96-1.517-4.98-2.838l-2.01 24.419 7.19-12.531.2-9.068-.4.018zm.29 63.529l2.26 3.196.05-11.085-2.1-2.607-.21 10.496zm.23-11.21l2.1 2.589.02-2.946-2.1.286v.071h-.02zm1.42-10.978v1.393l.73-.072v-1.392l-.73.071zm.73-.392v-1.393l-.75.072v1.392l.75-.071zm-.73 2.088v1.393l.71-.072v-1.392l-.71.071zm0 1.696v1.178l.71-.089v-1.16l-.71.071zm-1.29 1.339l.98-.125v-1.178l-.95.089-.03 1.214zm.03-1.517l.95-.09v-1.392l-.91.089-.04 1.393zm.04-1.714l.91-.089v-1.393l-.88.09-.03 1.392zm.03-1.696l.88-.089v-1.392l-.84.089-.04 1.392zm.04-1.696l1.9-.196.02-2.249-1.81-2.374-.11 4.819zm.11-5.569l1.79 2.374.03-8.354-1.64-2.178h-.02l-.16 8.158zm1.84-6.747v-1.625l-1.13.143 1.13 1.482zm-1.65-2.178l.11.143 1.56-.215.02-3.462-1.67 2.909-.02.625zm.02-1.589l1.26-2.213-1.22.143-.04 2.07zm.06-2.677l1.57-.197.02-.018.07-15.154-1.4 2.445-.26 12.924zm.44-20.814l-.14 6.926 1.38-2.41.02-4.587-1.26.071zm1.67 141.874l-1.34-1.838h-3.23l-.21 10.567 4.83-3.998-.05-4.731zm.05 5.32l-4.85 4.016-.25 12.174h1.38l3.83-3.249-.11-12.941zm.11 13.53l-3.13 2.66h3.15l-.02-2.66zm.59 83.807h-7.52l7.52 13.031v-13.031zm5.41 15.03l9.25-15.03h-9.42l.17 15.03zm8.57-121.989v-1.392h-2.58v1.392h2.58zm-2.58.304v1.142h2.58v-1.142h-2.58zm2.58-1.999v-1.393h-2.58v1.393h2.58zm0-1.714v-1.392h-2.58v1.392h2.58zm1.24-1.696l-6.67-6.729.18 6.729h6.49zm1.66 5.105v-1.392h-2.58v1.392h2.58zm-2.58.304v1.142h2.58v-1.142h-2.58zm2.58-1.999v-1.393h-2.58v1.393h2.58zm0-1.714l-1.36-1.392h-1.22v1.392h2.58zm0-.66v-.714h-.71l.71.714zm-5.78 2.374v-1.393h-2.3l.04 1.393h2.26zm-2.24.303l.03 1.392h2.21v-1.392h-2.24zm2.24-2.017v-1.392h-2.35l.03 1.392h2.32zm0 3.713h-2.21l.04 1.142h2.17v-1.142zm-8 25.508h2.98l2.29-.143-.27-9.871-5.09 4.302.09 5.712zm4.86-59.067l.04 1.375h1.55v-1.375h-1.59zm1.59-.303v-1.375h-1.64l.03 1.375h1.61zm-1.55 1.999l.03 1.143h.04l1.04.232h.44v-1.375h-1.55zm-5 51.07l5.09-4.302-.36-12.567-4.95 4.106.22 12.763zm4.28-77.006l.36 12.656 9.76-13.495-10.12.839zm9.98-1.089l-10.38-12.888.29 10.496 10.09 2.392zm-9.69 55.175l-.04-1.392h-1.77l-.04 1.392h1.85zm-1.87.321l-.03 1.393h1.93l-.03-1.393h-1.87zm1.92 1.696h-1.94v.018l1.28 1.374h.71l-.05-1.392zm-1.31 1.392l-.66-.714-.02.714h.68zm-.68.304l-.02 1v.142h2.03l-1.04-1.142h-.97zm1.59 0l.47.5-.02-.5h-.45zm-4.46 5.855l4.46-3.695h-3.96l-.52 1.838.02 1.857zm-.03-14.727l3.08 1.018-.05 2.445h1.75l-.21-8.015-4.52-4.551-.05 9.103zm.05-9.764l4.5 4.534-.36-13.066-4.09.16-.05 8.372zm1.34-14.923v1.375h2.57v-1.375h-2.57zm2.57-.303v-.946l-.02-.429h-2.55v1.375h2.57zm-2.57 1.999v1.375h.85l1.72-.125v-1.25h-2.57zm-1.29 1.375h.99v-1.375h-.99v1.375zm.02-1.696h.99v-1.375h-.97l-.02 1.375zm0-1.678h.97v-1.375h-.97v1.375zm0-1.678h3.82l-.2-7.212-3.6 4.981-.02 2.231zm.02-3.035l3.57-4.944-.4-14.191-2.18.178-.9 1.125-.09 17.832zm3.66-60.459l.48.09-.91-1.196.01.892.45-.035a.955.955 0 00-.03.249zm-.15.286v1.178h.02v.179l.97.178v-1.214l-.13-.16-.86-.161zm0 1.66v1.232h.04v.143l.95.178v-1.374l-.99-.179zm0 1.678v1.285h.02v.09l.99.178v-1.357l-1.01-.196zm-.02 1.66c-.01.214-.05.429-.08.643l.01.464 1.08.357v-1.267l-1.01-.197zm-3.4 36.611l.25-.321-.25.018v.303zm.02-4.177l1.75-.143-1.73-2.445-.02 2.588zm.02-3.391l2.27 3.195.68-.054-.34-11.817-2.54-3.177-.07 11.853zm2.7-49.089l6.33-.839-6.42-2.695.09 3.534zm-2.63 36.522l2.52 3.142-.35-12.567-2.14.286-.03 9.139zm.48-16.279v1.017l1.22-.161-.7-.91-.52.054zm.32-.34l-.3-.392v.428l.3-.036zm1.19.804l-.02-.607-.41.035.43.572zm-1.92.607l.12-.018v-1.018l-.12.018v1.018zm0-1.339l.12-.018v-.857l-.1-.143-.02 1.018zm0-1.785l.05.071h.06v-1.392l-.11.018v1.303zm.02-1.642l.1-.018v-1.393l-.09.018-.01 1.393zm.62-41.199l-.43.071-.05 13.156.82-1.446-.34-11.781zm.36 12.674l-.86 1.499-.03 6.48 1.11-.125-.22-7.854zm.24 8.461l-1.13.143-.02 3.712 1.25-.16-.1-3.695zm.12 4.302l-1.27.16-.04 8.122 1.6 2.107-.29-10.389zm.31 11.192l-1.64-2.142-.01 5.016 1.72-.179-.07-2.695zm.09 2.999l-1.35.142v1.393l1.38-.143-.03-1.392zm.05 1.713l-1.38.143v1.392l1.41-.142-.03-1.393zm-1.4 1.839v.196l.84 1.107.63-.054-.04-1.392-1.43.143zm7.71-44.412l-6.26 1.036.27 9.924 6.02-10.496-.03-.464zm.1 1.286l-6.05 10.567.27 9.835 7.72 3.249-1.94-23.651zm1.99 24.205l-7.63.999.34 12.245 1.59 2.107 7.07 1.285-1.37-16.636zm-2.83 17.868v1.249l.11.143 2.42.446v-1.374l-2.53-.464zm2.53.16v-1.374l-2.53-.464v1.374l2.53.464zm-1.61 3.053l-.92-1.214v1.035l.92.179zm-.92.143v1.374l2.4.464-1.22-1.606-1.18-.232zm.38-1.607l1.22 1.607.93.178v-1.374l-2.15-.411zm1.47 1.946l.66.874v-.749l-.66-.125zm-2.31 1.249l3.6 1.214-.47-.607-3.13-.607zm.16-.285v-1.375l-2.53-.482v1.321l.29.107 2.24.429zm0-1.678v-1.375l-2.53-.482v1.375l2.53.482zm-.81-3.178l.81 1.054v-.911l-.81-.143zm.81-.16v-1.375l-2.28-.41 1.2 1.588 1.08.197zm-.27 1.624l-1.2-1.589-1.06-.196v1.375l2.26.41zm-1.47-1.946l-.79-1.035v.893l.79.142zm6.27-.214l-1.4-.25v1.357l1.53.286-.13-1.393zm.14 1.696l-1.54-.286v1.375l1.67.303-.13-1.392zm.15 1.714l-1.69-.322v1.375l1.8.339-.11-1.392zm.12 1.713l-1.82-.339v1.089l.25.321 1.68.322-.11-1.393zm.15 1.714l-1.45-.286.57.75.95.321-.07-.785zm.19 2.267l-9.03 1.232.41 14.333 11.04 13.727-2.42-29.292zm2.42 29.489l-10.27 14.208.26 8.854h11.91l-1.9-23.062zm-5.48 28.132v-1.375h-2.56v1.375h2.56zm-1.94.303l1.94.428v-.428h-1.94zm1.94-1.999v-1.375h-2.56v1.375h2.56zm0-1.678v-1.375h-2.56v1.375h2.56zm2.87 3.374v-1.375h-2.57v1.375h2.57zm-2.57.303v.5l2.57.571v-1.053h-2.57v-.018zm2.57-1.999v-1.375h-2.57v1.375h2.57zm0-1.678v-1.375h-2.57v1.375h2.57zm2.86 3.374v-1.375h-2.56v1.375h2.56zm-2.56.303v1.125l1.13.25h1.43v-1.375h-2.56zm2.56-1.999v-1.375h-2.56v1.375h2.56zm0-1.678v-1.375h-2.56v1.375h2.56zm1.67-1.375h-1.36v1.375h1.49l-.13-1.375zm.14 1.678h-1.5v1.375h1.61l-.11-1.375zm.15 1.696h-1.65v1.375h1.75l-.1-1.375zm.12 1.678h-1.77v1.375h1.9l-.13-1.375zm.15 1.678h-2.28l2.31.518-.03-.518zm.07.821l-12.33.482.41 14.405 7.33 7.408h6.42l-1.83-22.295zm-.68 27.382v-.499l-.9-.893h-1.7v1.392h2.6zm-2.6.304v1.142h2.58v-1.142h-2.58zm2.35-1.696l.23.25v-.25h-.23zm.25-.303v-1.393h-1.92l1.38 1.393h.54zm-1.2 0l-1.38-1.393h-.02v1.393h1.4zm-1.04-1.714h2.22v-1.392h-2.58v1.035l.36.357zm4.76-1.392h-2.22v1.392h2.35l-.13-1.392zm.15 1.713h-2.37v1.393h2.47l-.1-1.393zm.21 2.66l-.09-.964h-2.51v.553l.83.839h1.75v-.428h.02zm-2.4.428l-.18-.178v.178h.18zm-.18.304v1.142h1.61l-1.12-1.142h-.49zm2.58 0h-1.45l1.13 1.142h.32v-1.142zm.04 2.16h-13.76l.32 11.727 13.62-11.531-.18-.196zm.27.732l-13.68 11.585.31 10.96.75.071h14.46l-1.84-22.616zm.16 103.763L1962 626.465l-.34 2.464 32.38 39.038-.91-59.87h-18.35zm35.48-87.502c-.34-.66-3.49-7.086-9.39-12.941a.246.246 0 01-.05-.054l-5.25 5.855-1.15-1.017 5.27-5.873c-6.06-5.016-14.43-5.212-14.45-5.212-.01 0-.01-.018-.03-.018 1.48 4.677 4.14 8.943 7.95 12.334 4.86 4.284 10.85 6.534 17.1 6.926zm179.52-66.599c.25-.446.47.464.9.071a1.596 1.596 0 00-1.04-.517c.13.196-.05.267.14.446zm-.89-.304c-.24-.053-.27.072-.45.072.02.107.56.178.45-.072zm-.67.232c-.75-.267-2.07.143-2.81.375.99.072 1.83-.196 2.81-.375zm-1.48-1.785c-.36.179-.58 1.143-.95 1.553.75.946.89-1.374.95-1.553zm-1.4 2.303c.05-.357-2.9.268-3.19.304 1.08.214 2.2-.179 3.19-.304zm-3.64.428h-.37c0 .233.43.304.37 0zm-.52.09c-.3-.036-.5.035-.66.143.09.125.75.16.66-.143zm-.82.071c-1.02.25-2.49.232-3.12.661 1.11-.268 2.31-.054 3.12-.661zm-3.26.732c-.67-.25-2.03.054-2.6.375.97-.036 1.72-.268 2.6-.375zm-3.48.446c-.16.036-.52-.125-.45.143.15-.036.5.125.45-.143zm-.61.072c-.27 0-.59-.054-.59.214.25 0 .57.036.59-.214zm-4 .821c-.48-.411-1.73.143-2.45.214.66.268 1.65-.179 2.45-.214zm-2.81.946c-.09-.339-.59-.232-.75-.518-.09.197.48.679.75.518zm.07-.518c-.03-.107-.66-.178-.59.072.25.035.41-.018.59-.072zm-2.38.232c-1.13.125-2.03.107-2.67.518.91-.161 1.95-.179 2.67-.518zm-6.15 1.107c-.02-.107-.37-.25-.45-.071-.07.267.4.125.45.071zm-.59 0c-.21-.161-.63-.018-.66.214.18-.107.63.054.66-.214zm-3.35.518c-.09-.107-.45-.072-.45.16.16-.071.52.107.45-.16zm-.52.214c-.91-.357-2.2.303-3.05.303 1.04.214 2.08-.214 3.05-.303zm-3.33.446c-.18 0-.22-.125-.45-.071-.11.25.5.357.45.071zm-.59.071c-.24-.196-.45.054-.67.072 0 .232.63.143.67-.072zm-.74 0c-.88.268-1.88.143-2.45.59.8-.215 2 0 2.45-.59zm-2.53.518c-.14-.143-.26-.018-.44 0-.04.179.52.268.44 0zm-.66.072c-.68.107-1.43.142-2.01.374.52.036 1.6-.035 2.01-.374zm-4.89.963c-.16-.357-.81 0-1.11 0 .28.215.79-.214 1.11 0zm-1.34.072c-.02-.072-.61-.072-.6.143.18-.072.45-.036.6-.143zm-1.33-.286c-.34-.446-.81-.785-1.2-1.178.16.304.54 1.357 1.2 1.178zm-1.36.75c.05-.018.59-.071.61-.089.18-.232-1.29.107-.61.089zm-2.58-.161c-.24-.499-.76-.732-1.04-1.178.09.322.54 1.268 1.04 1.178zm-.95.661c.46-.072-.79-.036-1.11.071.26.161 1.14-.071 1.11-.071zm-2.91.446c-.61-.143-1.43.143-2.07.214.62.143 1.43-.16 2.07-.214zm-4.37.66c.02-.053-.63-.089-.89 0 .28.108.84.125.89 0zm-2.88-.357c-.36-.517-.76-.981-1.13-1.481.03.535.39 1.392.75 1.856.29.036.2-.321.38-.375zm-4.38 1.036v-.304c1.35.268-.03-.892-.44-1.624-.18.161.16.428.14.66-.31-.107-.31-.535-.45-.821-.43.5-.41 1.446-.59 2.214.48 0 .86-.125 1.34-.125zm-1.48.214c.09-.839.37-1.499.43-2.374-.68.696-1.24 1.517-1.78 2.374.34.339.86-.054 1.35 0zm.14-2.374c-.93.161-1.88.303-2.81.446.03.25.93 1.678 1.2 1.696.28.036 1.39-1.928 1.61-2.142zm-2.74.892c-.22.143.11.393.07.589-.27-.178-.32-.571-.45-.892-.37.571-.43 1.499-.59 2.285.81-.161 1.63-.072 2.01-.518-.29-.535-.74-.946-1.04-1.464zm.68 2.214c-.45-.089-1.2.143-1.7.214.44.125 1.14-.161 1.7-.214zm-1.86-.143c.25-.678.34-1.517.5-2.285-.67.625-1.4 1.553-1.69 2.285.27.304.72-.053 1.19 0zm.14-2.356c-.9.178-1.83.285-2.74.446.34.607.82 1.053 1.2 1.624.66-.553 1.11-1.303 1.54-2.07zm-2.6.946c-.14.41.32.875.38 1.339-.34-.197-.56-1.143-.76-1.696-.44.535-.41 1.553-.66 2.285.81-.161 1.61-.09 2.01-.518-.22-.571-.65-.928-.97-1.41zm.09 2.231c-.27-.107-.88.054-1.18.143.32.054.91-.036 1.18-.143zm-1.27-.232c.16-.75.37-1.428.43-2.285-.59.679-1.4 1.5-1.62 2.285.35.214.78-.036 1.19 0zm.14-2.356c-.88.339-1.61.41-2.44.821.33.446.56.982 1.04 1.267.43-.749.99-1.338 1.4-2.088zm-2.67.803c-.21.179.14.411.07.661-.23-.197-.3-.589-.45-.893-.28.625-.41 1.41-.5 2.214.93-.054 1.53-.125 2.01-.518-.34-.518-.77-.946-1.13-1.464zm.54 2.303c.5-.089-.86 0-1.56.143.45.142 1.47-.143 1.56-.143zm-1.56-.232c.11-.821.3-1.5.43-2.285-.68.643-1.27 1.374-1.69 2.285.26.285.87.035 1.26 0zm.05-2.285c-.93.089-1.7.303-2.67.375.29.696.74 1.196 1.28 1.624.44-.696 1.02-1.249 1.39-1.999zm-2.06 2.588c.29 0 .29-.303.52-.375-.39-.482-.77-.964-1.13-1.481-.25.232.18.41.07.732-.21-.197-.25-.589-.44-.821-.2.66-.4 1.32-.43 2.142.43-.072.87-.107 1.25-.215.02-.125-.07-.125-.07-.214.05-.178.16.179.23.232zm-.45.589c-.12-.25-.8.036-1.11.072.27.143.74-.125 1.11-.072zm-1.32.072c-.23.035-.58-.018-.59.214.12-.143.61.071.59-.214zm.14-.375c.16-.732.38-1.446.43-2.285-.57.714-1.49 1.446-1.61 2.356.34.143.72-.125 1.18-.071zm-.95.589c-.03-.161-.39-.054-.45 0 .04.161.4.053.45 0zm.95-2.731c-.84-.143-1.79.143-2.6.303.38.554.77 1.053 1.2 1.553.51-.571.99-1.16 1.4-1.856zm-2.6.75c.11.41.33.714.38 1.178-.27-.375-.43-.857-.61-1.339-.3.482-.3 1.267-.36 1.999.84-.161 1.11-.285 1.7-.589-.39-.411-.62-.946-1.11-1.249zm.83 2.142c-.45-.197-1.08.071-1.49.142.38.107 1.02-.107 1.49-.142zm-2.15-.161c0-.089 0-.143-.02-.214.09.107.21.16.46.143.36-.482.36-1.696.36-2.285-.12.142-.82 1.16-.87 1.785-.02-.107-.06-.214-.08-.322-.25.197-.5.393-.43.893.16.178.34 0 .58 0zm.5-2.356c-.79.018-.68.41-.66.964.32-.232.5-.589.66-.964zm-.88.517c-.29.25-.3.786-.36 1.25.5-.125.58-.768.36-1.25zm-.52.518c.25-.018.2-.339.22-.589h-.22v.589zm-.21 1.553c0-.357-.25-.428-.38-.66-.25.053-.16.446-.22.66h.6zm-.02-2.071c-.49.286-.47 1.411.02 1.696.43-.428.07-1.16-.02-1.696zm-.36 0c-.13-.125-.43-.053-.66-.071-.02.25.25.768.59.892-.06-.339.12-.464.07-.821zm-.59 1.91c.07.054.07.179.21.143.42-.875-.07-1.321-.44-1.928-.2.393.17.857.16 1.321-.25-.25-.22-.785-.38-1.107-.29.465-.45 1.411-.43 1.91.32-.053.93.125.88-.339zm-1.11.447c.14-.607.43-1.411.36-2-.72.429-1.38 1.25-1.55 2 .29.321.74-.054 1.19 0zm-.24-1.91c-.8-.34-1.39.125-2.29.071.39.553.74 1.142 1.27 1.553.29-.607.79-.982 1.02-1.624zm-1.82 2.588c-.13 0-.85.143-1.26.214 0 .232 1.72-.268 1.26-.214zm-1.35-.161c-.02-.375.15-.589.15-.964.19.215-.11.589-.08.893.7 0 1.63-.018 1.92-.589-.37-.482-.77-.964-1.11-1.482-.18.286.14.696.23.964-.3.089-.23-.857-.61-.964.02.321-.19.393-.14.732-.21-.214.09-.535 0-.875-.21.25-.84.893-1.33 1.482.35-.446.63-.946 1.04-1.339-.95-.107-1.7.232-2.67.304.34.571.76 1.089 1.2 1.553.13-.107.24-.232.33-.357-.29.357-.49.696-.49.892.45-.196 1.02-.071 1.56-.25zm-2.69-1.553c.08.411.27.679.31 1.107-.27-.303-.22-.91-.59-1.107-.11.696-.31 1.303-.36 2.071.68.053 1.06-.304 1.56-.214.63-.625-.41-1.428-.92-1.857zm.26 2.285c-.31.054-.6.143-.97.143.21.161.86.089.97-.143zm-1.04-.214c.16-.732.3-1.464.43-2.214-.72.59-1.28 1.339-1.69 2.214.2.357.86.125 1.26 0zm-.02-2.142c-.84.125-1.78.161-2.53.375.29.589.75.981 1.13 1.481.57-.517 1.02-1.16 1.4-1.856zm-1.18 2.356c-.02-.089-.13-.125-.15-.214-.11.053-.23.107-.21.303.16.018.28-.018.36-.089zm-.81.607c-.31-.089-1.08-.036-1.26.214.38-.125.83-.16 1.26-.214zm-.14-.446c-.04-.304-.22-.482-.24-.821.22.142.2.535.38.749.95.679-.56-1.892-.54-1.856-.36.196.23.643.16 1.035-.23-.268-.28-.696-.45-1.035-.26.518-.43 1.535-.43 2.071.43.017.76-.072 1.12-.143zm-1.26.214c.09-.803.29-1.517.43-2.285-.23.125-.48.286-.7.464.09-.143.16-.303.25-.464-.64.214-1.66.25-2.51.446.27.589.67 1.071 1.13 1.482.07-.089.16-.161.24-.25-.08.357.25.625 1.16.607zm-1.27.232a.163.163 0 00-.31 0h.31zm-1.18.518c-.33.018-.61.089-.9.142.14.072.82.072.9-.142zm.96-.893c-.3-.553-.77-.964-1.13-1.481-.14.249.15.696.24.963-.32-.124-.24-.66-.45-.892-.36.482-.3 1.374-.5 1.999.68 0 1.54-.035 1.84-.589zm-1.57-1.553c-.74.518-1.06 1.375-1.69 1.999 1.04 2 1.65-1.463 1.69-1.999zm-.51 2.731c-.01-.25-.41-.035-.59 0 .13.214.34-.107.59 0zm-.8 0c-.23-.053-.27.09-.45.072 0 .125.54.16.45-.072zm-.31-.285c0-.339-.26-.197-.37-.072 0 .143.27.018.37.072zm-.66.571c-.16-.268-.88.018-1.18.089.3.179.73-.161 1.18-.089zm.14-.5c.36-.357.2-.785-.1-1.16.16.16.32.339.48.5.52-.5.97-1.089 1.33-1.768-.79 0-1.51.232-2.44.286.11.303.29.571.47.785-.2-.196-.43-.374-.63-.499.11.464.28.856.37 1.338-.28-.303-.26-.928-.52-1.249-.08.018-.05.178-.07.285-.21-.017.06-.499-.16-.517-.32.339-.57.696-.8 1.107.39 1.82.6.946 2.07.892zm-1.57-1.999c-.63 0-.72.375-.59.892.28-.214.5-.499.59-.892zm-.36 2.285a5.754 5.754 0 00-.23-.964c-.26.214-.52.428-.45.964.18.142.52.053.68 0zm-.74-.589c.43-.232.52-.804.29-1.321-.23.267-.47.892-.29 1.321zm-.01-1.321c-.17-.036-.2.053-.31.071.02.232.07.411.14.589.15-.143.27-.535.17-.66zm-.43 2.052c-.04-.232-.22-.321-.31-.517-.3-.018-.21.375-.29.589.18.178.43 0 .6-.072zm-.74.518c-.34.125-.95-.018-1.11.304.41-.072.91-.018 1.11-.304zm.07-.357c.22-.464.16-.875-.16-1.267.02-.161.36.232.38.018.02.357.2.624.52.803.21-.482.14-1.196-.09-1.625-.22-.017-.22.179-.22.375-.27-.071-.32-.375-.96-.446 0 .357.26.428.37.678-.3-.071-.28-.446-.59-.517.04.25.18.428.16.732-.12-.125-.09-.393-.21-.518-.25.518-.2 1.321-.36 1.928.54.089.88-.232 1.16-.161zm-1.39.589c-.24-.036-.35.054-.52.072-.02.196.52.142.52-.072zm-1.04-.375c-.17-.16-.24 0-.38.072 0 .232.45.214.38-.072zm.19-.696c-.14.286-.19.571-.05.839 1.36-.232 1.29-.982 1.25-2.356-.21.303-.57.66-.87 1.035.19-.339.35-.696.5-1.035-.5.178-1.99.089-2.3.375-.01.25.25.25.31.446-.23 0-.18-.321-.45-.286-.04.179.14.161.07.375-.07-.053-.12-.143-.16-.214-.21.5-.3 1.499-.29 1.999.88-.053 1.51-.535 1.99-1.178zm-1.38 1.589c.04-.286-.57-.143-.66-.072.07.161.47.018.66.072zm-.89-.072c-.13.108-.54-.053-.52.215.23-.018.5.017.52-.215zm-.74.143c-.25-.035-.34.054-.52.072.02.107.61.178.52-.072zm-.23-.303c.81 1.107 1.36-2.124 1.4-2.356-.88.535-1.2 1.731-1.85 2.284.07.268.2.018.45.072zm-.74.517c-.21-.053-.96-.035-1.11.215.34-.09.81-.09 1.11-.215zm.45-1.035c-.12-.053-.12-.268-.3-.285-.07.142 1.38-1.143 1.63-1.553-.56-.018-1.58.16-2.29.374-.04.25.26.179.23.447-.13-.125-.25-.25-.38-.375-.2.071.11.232 0 .446-.07-.053-.09-.178-.21-.143-.02.679-.22 1.143-.22 1.857.75-.018 1.38-.161 1.54-.768zm-1.77 1.267c-.09-.196-.4 0-.52 0 .05.161.45.072.52 0zm0-.446c-.07-.089-.25-.089-.31-.214.17-.375.77-1.053.58-1.981-.5.678-1.15 1.213-1.4 2.142.25.285.68.107 1.13.053zm-1.04 0c-.14-.143-.45-.071-.38.214.18 0 .38 0 .38-.214zm-1.18.804c-.13-.179-.52-.036-.67 0 .22.142.49.035.67 0zm.87-1.036c0-.268-.21-.321-.3-.517.3-.054.14.357.45.303.34-.571.98-1.214 1.09-1.767-.68.178-1.49.232-2.22.375-.04.232.2.196.21.375-.12.214-.16-.286-.37-.215-.02.179.02.286.07.375-.07-.053-.16-.071-.31-.071-.01.642-.1 1.214-.21 1.767.68.018 1.36-.036 1.59-.625zm-1.77.75c.27-.589.23-1.482.36-2.214-.63.518-1.04 1.268-1.47 2 .21.375.59.232 1.11.214zm-.97.143c-.02-.179-.1-.286-.3-.304 0 .143-.2.089-.15.304h.45zm-.8.446c-.27.089-.63.125-.97.143.18.107.86.071.97-.143zm.52-.893c-.09-.16-.22-.285-.31-.446.16.036.27.125.31.304.46-.536.87-1.125 1.25-1.768-.73.072-1.36.268-2.15.286-.04.304.41.714.59 1.035-.32.054-.45-.749-.89-.803.09.196.17.357.16.661-.11-.072-.11-.232-.16-.375-.27.375-.29 1.356-.29 1.767.7 0 1.25-.179 1.49-.661zm-1.44-1.392c-.71.482-1.31 1.446-1.32 2.124 1.36.946 1.25-1.535 1.32-2.124zm-1.38 2.285c.04-.161-.05-.196-.07-.286-.23-.071-.16.179-.29.215.06.249.11.035.36.071zm-.66.143c.29-.839.91-1.607 1.61-2.428-.75.072-1.41.196-2.15.286.22.446.56.785.83 1.178-.52-.179-.54-.857-1.04-1.035.12.196.1.535.23.731-.22 0-.18-.267-.23-.446-.31.411-.2 1.214-.36 1.767.3.215.77-.232 1.11-.053zm-1.27.16c.12-.696.18-1.428.28-2.142-.96.679-2.36 2.392-.28 2.142zm-.16-2.159c-.7.089-1.33.249-2.08.303.21.607.57 1.053 1.05 1.392.27-.624.81-.999 1.03-1.695zm-.88 2.302c-.07-.285-.45-.268-.45.072.2 0 .36 0 .45-.072zm-.29-.446c-.41-.411-.63-1-1.13-1.339-.02.375.18.518.16.893-.14-.143-.1-.447-.23-.589-.27.428-.25 1.124-.29 1.767.72-.036 1.28-.214 1.49-.732zm-1.7.803c.12-.678.21-1.41.29-2.142-.63.5-1.12 1.143-1.4 1.999.21.357.64.143 1.11.143zm-.18-2.142c-.66.125-1.42.161-2.08.304.2.553.59.874.9 1.321.59-.357.82-1.054 1.18-1.625zm-.86 2.303c.05-.214-.14-.143-.14-.304-.24-.053-.17.197-.29.215.05.267.16.017.43.089zm-.31-.446c-.34-.482-.6-1.036-1.12-1.339 0 .303.16.446.16.732-.15-.107-.11-.375-.24-.518-.21.464-.21 1.142-.28 1.767.75.054 1.25-.178 1.48-.642zm-1.63.731c.02-.749.24-1.338.2-2.142-.36.25-.48.607-.36 1.054.06 1.285-.18.464-.95.946.15.464.65.142 1.11.142zm-.16-2.142c-.21.018-.41.036-.37.304.25.018.37-.089.37-.304zm-.52.072c-.52.107-1.14.125-1.63.303.29.518 1.08-.018 1.63.072.06-.232.06-.143 0-.375zm-.43 2.07c-.14-.142-.44-.071-.37.215.23.018.41.018.37-.215zm-1.7.447c.32 0 1.22-.018 1.18-.518-.36 0-.8.089-1.18.214v.304zm-.02-2.142c-.16-.018-.07.214-.21.214.12.25.45-.089.21-.214zm-.12 1.928c-.33-.197-.76.071-1.11.071.01.482 1.09.303 1.11-.071zm-.24-1.857c-.43.018-.89 0-1.04.286.18.303 1.06.107 1.04-.286zm-.87 2.285c-.02-.357-.36-.321-.45-.071.02.16.32.035.45.071zm-.31-1.839v-.232c-.18-.107-.63.036-.89.072.01.482.6.25.89.16zm-.21 1.553c-.4.25-1.19-.16-1.26.518.49-.107 1.2.018 1.26-.518zm-1.42.589c0-.107-.02-.214.07-.214-.21-.357-.7.089-1.11 0 .06.5.68.197 1.04.214zm-.23-2.07c-.16.053-.58-.125-.52.143 0 .303.66.16.52-.143zm-.67.375v-.304c-.51-.018-.86.125-1.32.143.11.607.88.125 1.32.161zm-.28 1.553c-.23-.018-.25.196-.29.374.18 0 .22-.124.45-.071.05-.214-.14-.161-.16-.303zm-.68.41c.16-.089.28-.196.32-.41-.29.017-.61.178-.43.374-.2-.053-.31-.107-.09-.16-.22-.161-.86-.107-.73.285 2.24.125 1.45.036.93-.089zm-1.02-.125c-.29-.143-.69.143-1.12.072-.01.589 1.1.357 1.12-.072zm-.45-1.481v-.215c-.59-.053-1.19.09-1.85.215.22.607 1.26-.036 1.85 0zm-.67 1.927c-.01-.196-.1-.285-.3-.303-.04.143-.16.179-.14.375.23.053.28-.072.44-.072zm-.52-.142c-.5-.304-1.12-.054-1.18.428.34-.268.84-.25 1.18-.428zm-1.39.428v-.303c-.38 0-.68.053-.97.142.04.5.68.232.97.161zm-.16-2.053c-.79.143-1.38.036-1.85.518.18.25.27.571.59.66.13-.999 1.15-.446 1.26-1.178zm-.88 2.285c.07-.232-.11-.232-.15-.375-.12.09-.28.143-.28.375h.43zm-1.13-1.553c-.04.625.07 1.107.16 1.625.99-.161.47-1.429-.16-1.625zm-.13 1.696c.33.018.2-.268.15-.446-.2.018-.15.25-.15.446zm-1.7 0c.14.678 1.33.089 1.26-.75-.54-.375-1.06-.125-.97.661-.02.267-.27-.161-.29.089zm.29-.964h-.29v.303c.18 0 .27-.107.29-.303zm.18 3.838c-.16-.161-.42-.232-.76-.214.06.214-.1.196-.07.374.36.018.61-.035.83-.16zm.44-.357c.26-.179.26-.893.22-1.107-.54.179-1.33.107-1.77.357.3.446 1.05.482 1.55.75zm-1.16-5.677c-.27-.142-.72-.499-.82 0h.82zm-1.09 3.303c.32 0 .16-.464.28-.661h-.3c-.09.125-.27.589.02.661zm.05-3.303v-.303c-.66.196-1.72.018-2.15.446.54-.214 1.6.072 2.15-.143zm-4.6-.303c.01-.214-.17-.232-.15-.446.49-.054 1.11.303 1.85.143.03-.233-.24-.179-.15-.447.29.232.65.536 1.19.304.01-.179-.13-.232-.15-.375.36-.125.34.5.52.303.16-.107.18-.25.08-.446.51.785 1.91.143 2.59.071.06-.374.09-1.285.06-1.999-2.06.339-4.2.589-6.29.875.12.785-.47 1.963.45 2.017zm5.89-4.802c-1.25.214-2.53.393-3.78.571-1.81.25-2.72-.053-2.58 2 1.07-.161 5.84-.339 6-1.178.2-.018.25.107.24.303.28-.303.05-1.142.12-1.696zm-6.83 8.408c.27-.054.09-.536.15-.821-.76.035-.88.589-.07.589-.06.16-.22.071-.08.232zm-.01-1.982c.35.036.19-.482.14-.66-.31-.036-.07.446-.14.66zm.17 2.428c-.28-.071-.37-.357-.73-.375.09.464-.07.714.09 1.107.57.089.79-.161.64-.732zm-.71 2.802c.21-.071.2.108.37.072.15-.143-.05-.196 0-.446-.28 0-.39.107-.37.374zm.43-.874c.02.303-.09.285 0 .517.27-.017.48-.606 0-.517zm-.34 2.356c.23.036.23-.161.21-.375.11.018.07.179.07.304.38.035.17-.518.22-.821-.38.142-.36-.054-.74.214-.03.339.29.321.24.678zm6.74 60.959h-5.99v3.213h5.99v-3.213zm23.81-43.751c.04-.072.07-.143.16-.161-.28.054-.5.464-.84.661.34-.554-.16.196-.41.249-.16-.035 0-.392-.34-.249-.2.196.09.196.16.339-1.26 1.053-3.17 2.142-3.85 2.999-.31.035-.2-.304-.51-.25 0 .214.33.125.34.339-1.97 1.071-4.3 3.141-5.78 4.016-.04 0-.11.054-.2.125l.36.536 2.09-.5 3.86.089.84 1.089 2.76.41h.45c-.02-.464.12-1.035.21-1.499.54-2.767 1.19-5.926 1.76-8.693-.2-.304-.74.357-1.06.5zm1.78 2.767c-.63.392-1.21.856-1.19 1.927.25.197.52.375.76.589.48-.125.77-.464 1.09-.749.03-.857-.31-1.339-.66-1.767zm1 4.087c-.45-.392-.88-.785-1.35-1.178-.68.286-1.27.625-1.34 1.5.45.535 1.15.803 1.69 1.249.46-.036.57-.428 1.09-.41.05-.482-.13-.697-.09-1.161zm-3.03 2.499c.72-.125 1.11-.553 1.76-.749-.34-.447-.95-.625-1.35-1-.36.357-.3 1.142-.41 1.749zm2.19-.571c-.76.196-1.35.571-1.97.893l3.15-.072c-.38-.285-.77-.571-1.18-.821zm-1.76 20.867c.38.018 1.06-.321 1.34-.66-.57-.018-.69-.482-1.34-.411.2.286 0 .732 0 1.071zm.16 21.224c.72-.357 1.49-.625 2.19-1-.61-.392-1.31-.696-2.01-.999-.39.339-.07 1.374-.18 1.999zm2.51-17.868c-.55.161-.97.482-1.5.678.35.375.93.518 1.43.75.18-.321.02-.982.07-1.428zm0 3.588c-.52-.357-1.09-.196-1.76.161-.37.196-.86.428-.68.838.94-.053 1.46 0 2.44 0v-.999zm0 3.266c-.72.179-1.22.572-1.85.839.52.322 1.31.732 1.76.839.2-.41.04-1.16.09-1.678zm0 2.071c-.77-.339-1.74-1.357-2.6-.839v.75c.92.214 1.67 1.249 2.6.928v-.839zm-1-5.676c-.4-.393-.9-.661-1.6-.75v1.339c.72-.018.93-.518 1.6-.589zm1-.572v-.838c-.79-.393-1.76-1.411-2.6-.572v.839c.81.286 1.74 1.321 2.6.571zm-.16-2.856v-1.499h-2.26c.14.714-.2 1.41-.16 1.749.63 1 1.63.018 2.42-.25zm-2.26-2.159h2.26c-.14-.447.25-.357.25-.679-.56-1.035-1.72-.625-2.53-.089v.768h.02zm2.44 13.084h-1.54c-.34.214-.67.482-.83.607 1.19-.054 1.53-.054 2.35.089.05-.303.05-.536.02-.696zm-1.78 3.927c.54.339 1.26.642 1.69.785.09-.232.11-.5.09-.785h-1.78zm1.67-.714c-.02-.125-.05-.232-.07-.339-.32.071-.59.214-.86.339h.93zm-1.41 0c.43-.214.82-.464 1.34-.589v-.928c-.61.16-1.45.053-2.19.089.02.553-.18.892-.18 1.428h1.03zm-.42-2.017c.13.357 1.53.107 1.76 0-.59-.339-1.6-.197-2.26-.089-.02.232.2.232.43.249-.02-.089-.16-.071-.25-.089 0-.107.2-.053.32-.071zm-.43-1c.13-.053.27-.125.4-.196h-.47c.02.071.06.143.07.196zm2.35 4.927c-.82-.393-1.5-.946-2.51-1.16v.749c.77.447 1.69.768 2.44 1.25.18-.125.02-.589.07-.839zm0 1.249c-.47.143-1.27.429-1.86.75h1.86v-.75zm-.82-7.086c-.4-.411-1.11-.536-1.62-.857-.18.179-.21.518-.18.857h1.8zm-.25-14.048c.48-.125.8-.429 1.18-.679v-.749c-.84-.589-1.83-1.125-2.69-.25.05.339-.07.482-.09.749.48.357 1.08.607 1.6.929zm-1.53-3.088c.36.196.77.339 1.1.589.57-.232 1.16-.465 1.59-.839-.14-.5-.14-1.143-.25-1.66-.72.089-1.38-.036-2.26 0 .13.821-.25 1.142-.18 1.91zm1.44.678c.32.303.75.464 1.25.589v-1.089c-.52.054-.81.357-1.25.5zm1.09-2.928c.03-.303.27-.392.16-.839-.77-.785-1.95-.874-2.76-.089-.16 1.339 1.51.839 2.6.928zm.16-4.676c-.73.196-.72.178-.84.499.28.054.5.161.75.25.2-.089.04-.535.09-.749zm-.5-2.089c-.27-.089-1.01-.178-1.26 0 .72-.125 1.53.268 1.76-.089-.25-.054-.3.089-.5.089zm.36-5.266l-1.63.018c.53.179 1.16.321 1.59.214.04-.053.04-.142.04-.232zm-2.46 5.766c-.12.268-.07.696-.09 1.089.52.232.99.517 1.51.75.46-.108.71-.411 1.18-.5v-1.339c-1 0-1.97.018-2.6 0zm-.09 4.927c.4-.09.77-.179.92-.5-.31-.089-.56-.214-.85-.339-.18.125-.01.589-.07.839zm2.69-1.268v-.91c-.82-.786-1.94-.518-2.69.161v.839c.45.16.77.446 1.18.66.52-.214.97-.536 1.51-.75zm-1.16.839c.37.214.71.464 1.18.589v-.999c-.58-.018-.77.303-1.18.41zm-.35-2.41c-.19-.41-.69-.535-1.18-.66v1.089c.47-.089.77-.304 1.18-.429zm2.01-7.997v-.107h-.03l.01.107c0-.017.02 0 .02 0zm6.17 32.274h-5.9c0 .125-.02.232-.02.357.15-.018.15.071.25.089-.12 1.071-.18 1.821-.19 2.767h5.84v-3.213h.02zm0 3.927h-5.83c0 .161 0 .285.02.446.04.875.04 1.785.04 2.767h5.78v-3.213h-.01zm6.68-3.927h-5.97v3.213h5.97v-3.213zm.72 7.14h5.96v-3.213h-5.96v3.213zm0-3.927h5.96v-3.213h-5.96v3.213zm-.72.714h-5.97v3.213h5.97v-3.213zm-2.49 106.209l.2-44.768h-17.01l16.81 44.768zm-16.85-102.996h2.44c.02-.143.02-.304.04-.428-.02-.09-.16-.072-.25-.09.09-.964.23-1.678 0-2.427.01-.09.16-.072.25-.09-.02-.071-.02-.125-.04-.196h-2.44v3.231zm0-3.927h2.33c-.12-1.071-.07-2.071.06-3.213h-2.39v3.213zm-6.68 3.927h5.97v-3.213h-5.97v3.213zm0-3.927h5.97v-3.213h-5.97v3.213zm-6.68 3.927h5.96v-3.213h-5.96v3.213zm0-3.927h5.96v-3.213h-5.96v3.213zm-6.69 3.927h5.97v-3.213h-5.97v3.213zm0-3.927h5.97v-3.213h-5.97v3.213zm-.71.714h-5.99v3.213h5.99v-3.213zm-23.09 84.468l.2 23.348 6.54-14.441-6.74-8.907zm3.01-88.395h-2.95v3.213h2.95v-3.213zm0 3.927h-2.95v3.213h2.95v-3.213zm6.69-3.927h-5.97v3.213h5.97v-3.213zm0 3.927h-5.97v3.213h5.97v-3.213zm.72-3.927v3.213h.25c0-1.071.01-2.142.01-3.213h-.26zm0 3.927v3.213h.21c0-1.071.02-2.142.02-3.213h-.23zm-10.13 61.458l-.09.465 12.42 19.224 10.12-19.689h-22.45zm15.73-87.412c-1.07.999-.32 2.302-.48 3.23-.29-.035-.23-.41-.52-.446.22.429-.12 1 .45 1.107.11-.107.05-.375.07-.589.16.143.27.375.38.589-.02.25-.24-.286-.29 0 0 .286.2.357.45.375-.09-1.375 0-2.624-.06-4.266zm-3.35-49.856c-.09-.572.17-1.054-.01-1.482-.33.375-.63.75-.81 1.25.32.053.45.267.82.232zm-.8.071c.16.5.45.91.68 1.339.16-.232.02-.768.14-1.035a1.593 1.593 0 00-.82-.304zm.88 7.087c.3-.036.41-.518.28-.732-.37-.072-.48.16-.28.732zm-1.33-.304c.27-.143.39-.428.66-.589-.09-.178-.41-.143-.59-.214 0 .303.02.607-.07.803zm-.47 6.801c.4-.071.27-.66.43-.964-.52-.089-.53.607-.43.964zm.31-7.675c-.45.071-.32 1.035-.06 1.249-.07-.5.11-.768.06-1.249zm.52 15.333c.12-.232.09-.946-.02-1.178-.3.089-.5.285-.73.428.05.446.57.429.75.75zm.07.589c.11-.411-.29-.375-.38-.589-.21-.018.09.625.38.589zm-.02-1.981l-.02-1.625c-.44.482-.53 1.321-.78 1.982.39 0 .43-.34.8-.357zm-.41-4.284c-.13.16.21.481.3.66.25-.286-.14-.536-.3-.66zm-.05 2.142c0 .053.82-2.375-.38-1.553l.04 3.177c.21-.375.77-1.321.34-1.624zm.43-2.214l-.02-1.107c-.36.054-.5.34-.81.447.14.339.43.553.83.66zm-.02-1.392l-.02-1.482c-.57.322-.41 1.339-.79 1.839.29.196.57-.25.81-.357zm.46-6.123c-.1-.375-.89-.41-.89.072.25.16.61-.054.89-.072zm-1.18 64.422c.4.053.61.285.83.518-.13.553-.54-.643-.6.071a.817.817 0 01-.3-.428c-.18.053 0 .339.07.374-.07.554-.07 1.339-.07 2.107h.95c-.02-.357 0-.786 0-1.071-.05.107-.36-.018-.29.214-.23-.089.07-.25 0-.446.13 0 .2.053.22.142.12-.624.05-1.285.05-2.052h-.52c-.2.071-.37.214-.34.571zm.05-.589h-.05v.018c.02-.018.04-.018.05-.018zm.47 3.927h-.55c.01.625.03 1.178.01 1.499.24-.535.45-.981.54-1.499zm-.54 1.874c.16.143.34-.107.52-.143v-.803c-.36.125-.37.607-.52.946zm.93-6.515c.09-.429 0-.982.02-1.41-.27.196-.52.856-.71 1.41h.69zm-.14 4.641c-.29.25-.27 1-.21 1.232.23.892-.42.249-.67 1.071.24.303.65.428.9.731.11-.946.12-1.981.12-3.034h-.14zm-.63 2.82c0 .125-.03.286.08.304-.17.143-.24-.464-.38-.589.05.142.07.41.07.678h.88c-.11-.25-.32-.428-.65-.393zm-.14-22.081h.52c-.07-.624-.45-.981-.68-1.463-.07.321.3.821.16 1.463zm.48 4.409c.52.447.22.768.31 1.393-.38-.429-.61-1.018-.9-1.535.22 1.231.2 3.32-.03 4.855.32-.304.77-1.464.79-2.053.5.518.25 1.232-.09 1.839 0-.125-.02-.25-.06-.357-.28.178-.34.589-.43.946a.36.36 0 00.15-.036c-.11.161-.18.304-.22.393.02.125.65.714.86 1.249 0 .197-.02.411-.02.607a.805.805 0 01-.3.197c.2-.75-.52-1.143-.68-1.768.32 1.036 0 3.16.11 4.499h.07c.3-.482.48-1.107.66-1.696a.42.42 0 01.14.214c-.01-.482-.01-.964-.01-1.446.12-.16.1-.375.01-.607.04-1.249.11-2.481.13-3.73.05-.268.2-3.517-.49-2.964zm3.37-43.483c.17-.178.17-.518.29-.732.11.589-.57 1.535.16 1.999-.12.108-.34-.285-.45-.446-.09.107.18.518.09.875.33.071.58.607.9.446-.02-.375-.56-.107-.52-.66.04-.107.09.035.21 0l-.01-2.499c-.13-.018-.15.053-.15.142-.3-.589.36-1.16.15-1.695-1.02.482-.54 1.57-.67 2.57zm.99 2.945h-.22c.04.125-.09.429.08.447.28.071.1-.286.14-.447zm.02.75c-.5.446-.27 1.964-.2 2.713.47-.517.09-1.838.2-2.713zm-.31-.892c.02-.464-.23-.679-.59-.732v1.106c.2-.107.47-.178.59-.374zm-.36-7.587c.08.125 0 .393.24.375.05-.25.03-.41-.24-.375zm.17-4.802c-.18-.017-.24.108-.38.143.05.161.54.143.38-.143zm-.47 5.177c-.07.625.43.643.75.893-.34-.215-.3-.804-.75-.893zm.09 1.91c.21-.125.47-.214.59-.446-.04-.928-1.07-.179-.59.446zm.72 4.338c.14-.804.03-2.821.03-3.535-.05 1.107-.21 2.482-.03 3.535zm.1-11.853v-.518c-.1 0-.21.018-.23-.071-.16.143-.04.625.23.589zm-.53-2.963c-.02-.375-.58-.214-.74-.446-.3 0 .06.446-.07.732.34 0 .82.107.81-.286zm-3.1 10.835c-.11.643.18.857.52 1.035.3-.142.28-.589.28-1.035-.36-.143-.41-.071-.8 0zm.82-.357l-.02-1.321c-.19.321-1.77 1.41.02 1.321zm-.73 2.071c.14-.179.48.142.66-.072-.04-.392-.68-.375-.66.072zm-.06.874c.04.554-.03 1.268.02 1.625 1.09-.322 1.2-1.5-.02-1.625zm.07 16.208c.16.286.45.447.76.59 0-.34.01-.715-.09-.964-.36-.018-.52.178-.67.374zm.29-.66c-.13.018-.16-.089-.29-.071.04.232-.14.232 0 .357.16-.018.34-.054.29-.286zm-.36 1.16l.02 1.857c.27.142.52-.304.81-.375.16-.875-.25-1.571-.83-1.482zm.81-1.249v-.964c.3.196-.02.535.23.732.48.035.61-.536.65-1.196.01.285.05.553.18.749.3-.535.3-2.017.05-2.641h-.22c.06.41.02.892 0 1.356-.01-.5-.07-.982-.07-1.196-.34.018-.5.179-.66.375-.04.25.21 1.428-.05 1.696-.18-.393-.04-1.107-.09-1.625-.95.375-1.46 2.767-.02 2.714zm.75 1.856c.11-.66-.2-.892-.45-1.178-.55.428-.12 1.089.45 1.178zm-.57.732c.18-.089.36-.196.52-.303-.27-.161-.24-.215-.38-.447-.25.054-.27.572-.14.75zm.48-2.66c-.27-.053-.36.09-.52.143.04.375.29.5.59.589-.02-.232.07-.589-.07-.732zm.13 5.605c-.25.107-.56.143-.67.375.11.357 1.22.964 1.56 1.178 0-.714-.02-1.428-.02-2.142-.3.09-.93.482-.8 1.107-.16-.036-.02-.375-.07-.518zm-1.54.875c.12.375 1.52 1.321 1.72 1.392.14.018.16-.089.28-.071.11-.482-.52-1.392-1.13-1.41 0 .267.09.214 0 .446-.57-.268.31-1.142-.87-.357zm-.06 2.356c.36.143.84-.178.88-.589-.18-.143-.5-.143-.66-.285-.38 0 .03.749-.22.874zm.06-1.178c.25.072.57.321.8.143.07-.589-.43-.607-.66-.893-.31 0-.07.536-.14.75zm0-1.464c.23.036.28-.107.44-.142-.07-.179-.18-.322-.44-.286v.428zm.89 1.393c-.05.214.13.214.07.446.25-.054.29.107.52.071-.14-.267-.32-.464-.59-.517zm-.25 4.266c-.25.107-.43.268-.66.375.18.375 1.27 1.196 1.63 1.249.11-.482-.06-1.267-.68-1.321-.15.125.05.179 0 .447-.31-.036 0-.697-.29-.75zm-.23 29.935h1.86c-.54-.643-1.83-1.267-2.31-.482.13.196.27.339.45.482zm-.45-.054v.054h.11c-.06-.018-.07-.036-.11-.054zm2.1-19.885c.19-.053-.06.357.14.304.61-.125.14-1.321.29-1.91-.13 0-.2-.054-.24-.143-.16 0-.16.178-.14.357-.16-.197.04-.768-.45-.661.02.411.36 2.785.4 2.053zm-.25 4.177c.1.107.37.071.59.071.03-.464-.77-.892-.59-.071zm.35-41.77c.4 0 .2-.892.15-1.106h-.31c.06.339-.14.981.16 1.106zm-.14.875c-.02.232.09.357.31.375.14-.161 0-.464-.31-.375zm0 .589c-.02.607.05 1.107-.05 1.464-.27-.661.03-1.303-.38-1.767l.02 2.57c.34.036.32-.268.28-.589.24-.018.04.411.38.286-.03-.554.49-1.839-.25-1.964zm-.23-1.624c.27-.286.14-1.214.05-1.625-.55.09-.12 1.107-.05 1.625zm.07.964c.05-.232-.07-.286-.16-.375-.24.035-.15.482.16.375zm.05 4.712v-.357c.24.089.07.571.31.661.34-.447.03-1.518.12-2.214a.612.612 0 00-.45.357v-.071c-.46.035-.44 1.588.02 1.624zm-.21 1.035c.34 0 .25-.696.07-.803-.29 0-.14.678-.07.803zm.68.375c0-.178 0-.357-.07-.446-.45-.054-.33.518.07.446zm-.16.5c-.15.089-.24.304-.25.553a6.32 6.32 0 00-.2-1.142c-.27-.018-.09.393-.22.518-.16.018-.03-.25-.07-.375-1.14.268-.48 1.838-.57 2.874.86.053.5-.911.59-1.393.2.179-.04.786.16.964.2-.107.29-.41.32-.767.02.196.08.41.13.553.45-.125.34-1.464.11-1.785zm-.83-1.107c.29-.16 0-.446.07-.803-.19-.071-.51-.036-.44-.357-.4.268-.16.946.37 1.16zm-.57.679c.34.071.36-.179.59-.215-.07-.214-.3-.303-.38-.517-.19.089-.16.339-.21.732zm.7 4.926c.07-.678-.22-.964-.68-1.106-.07.499.19 1.231.68 1.106zm-.66 0c.1.268-.11.536.09.804.19-.072.26-.268.51-.304-.23-.125-.23-.5-.6-.5zm.66-1.106c.02-.357-.31-.375-.59-.447.12.215.27.429.59.447zm.09 1.321c.48.285.45-.697.14-.804-.29.054-.11.536-.14.804zm.28-.947c.18-.16.09-.678-.3-.517-.07.339.18.375.3.517zm-.01-.821c.1-.16.1-.66-.02-.821-.34.018-.43.857.02.821zm.43-1.088c-.2.124-.65 1.16-.07 1.178.3-.107.16-.964.07-1.178zm.1 2.195c-.03-.393.09-.678-.37-.66-.02.357-.04.714.37.66zm-.37.232v.214c.16.036.2-.053.29-.071 0-.125-.11-.179-.29-.143zm0 .429c0 .303.07.517.37.517 0-.428 0-.607-.37-.517zm.16.66c-.23.357-.23 1.696.02 2.071.37-.25.32-1.803-.02-2.071zm.04 4.356c.32-.572.09-1.375.12-2.143-.52.179-.3 1.732-.12 2.143zm.16 1.178c.09-.34.05-.572-.31-.518 0 .268-.05.589.31.518zm-.02 6.104h-.22c-.1.482-.1 1.446.02 1.91.56-.107.23-1.463.2-1.91zm.07-.374c-.02-.215.04-.482-.07-.589-.13-.018-.16.089-.29.071.04.25.02.571.36.518zm-.72 2.57c.52-.232.33-1.892.13-2.356h-.22c.06.767-.07 1.713.09 2.356zm.08.161c-.18.25-.38 1.535.23 1.463.12-.589.03-1.231-.23-1.463zm-.13 2.57c.52.054.41-.732.14-.875-.27.054-.09.572-.14.875zm.75-.375c-.02-.125-.12-.178-.3-.143v.215c.16.035.2-.054.3-.072zm0 .893c.09-.304.09-.571-.23-.589-.14.178-.07.624.23.589zm-.16-1.339c.31-.446.22-1.357.13-2.053h-.22c-.07.518-.21 1.66.09 2.053zm.18 3.749h-.29v.446c-.48-.179-.64.018-.52.589-.32-.036-.1-.286-.73-.143.14.25.36.446.68.518v-.304c.11.214.09.554.3.661.17.035.11-.143.22-.143.16.053.02.41.22.446.34-.41.03-1.41.12-2.07zm-.11 3.391c.24-.018.16-.553.07-.66h-.21c-.16.267-.02.499.14.66zm-.3-1.321c-.15-.018-.18-.16-.38-.143v.447c-.07-.464-.27-.821-.61-1.036-.7.482 1.02 2.553.99.732zm-2.01-.892c.27.089.22-.179.45-.143.05-.286-.29-.161-.31-.375-.28-.054-.1.357-.14.518zm0 .303c.14.339.43.553.83.661-.04-.34.07-.822-.08-1.036-.39 0-.5.25-.75.375zm.14.5c-.34.357-.03 1.321-.12 1.91 1.4-.393.82-1.267.12-1.91zm.69 1.767c-.74.018-1.01.714-.81 1.25.3-.018.41.196.75.16.06-.089.09-.196.07-.375.13.286.18.661.67.589.12-.499.01-1.374.05-2.124-.63-.053-.77.572-.66 1.036-.16-.054-.02-.375-.07-.536zm.07-.428c.23-.054.45-.143.52-.375-.22 0-.31-.125-.38-.286-.2 0-.09.322-.14.661zm.02 2.267c-.18.25.07.624-.08.803-.57-.5.13-.518-.75-1.107-.7 1.178 1.18 1.714 1.49.661 0-.322-.38-.286-.66-.357zm-.9 13.512c.36-.125.34.304.66.375v-.517c-.21-.018-.73-.304-.66.142zm.21-1.106h-.21v.589c.38-.054.2-.232.21-.589zm.52.446c-.28-.018-.39.143-.35.446.34.072.39-.143.35-.446zm-.8.946c0 .607.02 1.214.02 1.839.25-.179 1.39-.697 1.39-.947-.39-.321-.96-.91-1.41-.892zm.19-1.678c.11-.143.17-.411.17-.696.01.5.12.964.43 1.071 0-.411-.02-.839-.02-1.267.02.481.09.946.16 1.195.81-.91.54-1.856.55-3.23-.51.071-.69.714-.73 1.428 0-.304 0-.607-.02-.911-.39.268-.39.804-.39 1.41-.02-.428-.07-.856-.11-1.124-.38.25-.23 1.731-.04 2.124zm.67-8.515c.07.179.3.197.52.215.02-.179.1-.268.07-.518-.32-.018-.38.214-.59.303zm.59-.66c-.07-.143-.32-.196-.45-.071.05.125.32.196.45.071zm-.05 2.196c-.56.089-.61.624-.51 1.249 1.02.589.34-1.071.51-1.249zm-.49 3.445c.18.339-.09.178 0 .589.23-.018.43-.054.43-.286-.23 0-.12-.357-.43-.303zm.59 0c.07-.357-.09-.464-.45-.375.06.232.2.357.45.375zm-.16-1.089c-.07-.143-.21-.214-.45-.214-.03.25.22.214.45.214zm.06-.875c-.17.018-.33.072-.36.214.01.25.25.286.44.375.17-.196 0-.464-.08-.589zm-.38 6.016c0 .303.34.25.45.446.14-.089.07-.571 0-.661-.24-.017-.25.179-.45.215zm-.74-6.391v-.803c-.34-.071-.32.875 0 .803zm-.21.875c.29.054.21-.268.21-.5-.34-.125-.16.304-.21.5zm.32-5.801c.38-.143-.16-.268-.21-.447-.13.018-.16.125-.15.304.13.036.43-.089.36.143zm.27 5.73c-.23.053-.39.321-.14.428.27.089.1-.286.14-.428zm-.27 1.178l.02 1.321c.54.089.54-1.428-.02-1.321zm.11-2.785c-.05.375-.25 1.035.09 1.178.29-.143.27-.875.14-1.178h-.23zm-.39 4.32c.43-.197.17-1.41.12-1.839-.36.107-.21 1.339-.12 1.839zm1.55 3.891c-.03-.357-.23-.607-.64-.732-.32.107-.05.821-.14 1.178.46.197.57.429.82.518.25-.161.54-.303.73-.518-.14-.267-.37-.446-.77-.446zm.85 0l-.02-1.838c-1.22.107-1.22 1.892.02 1.838zm-2.14 2.071h2.08v-.322c-.61-.838-1.52-.446-2.08.322zm2.08 4.641h-.43a.929.929 0 00-.19.196c.14.214.28.464.66.446 0-.214 0-.464-.04-.642zm.04-.91l-.02-1.839c-.64.232-.95.607-1.4.892-.05.215.45.465.45.143.18.393.45.732.97.804zm-2.37-.59c.31-.035.27-.606.07-.731-.43-.072-.19.606-.07.731zm.06-.874c.25-.036.1-.429.14-.661.29.232-.14.821.3.964.17.036.15-.107.15-.214.2-.054-.06.339.14.304 1.27-.75 1.51-1.018 1.52-1.91h-2.45c-.14.481-.14 1.053.2 1.517zm.68-22.831v-.446c.14.411.97-.125 1.04-.143.12-.125.18-.303.14-.589.23-.036.04.357.31.304.19-.411.28-1.839-.09-2.142-.2.196.05.839-.15 1.035-.14-.357.13-1.053-.23-1.339-.32.072-.05.732-.14 1.035-.31-.071-.13-.535-.09-.892-.27-.214-.52.214-.74.286-.03.107.02.446 0 .517-.16.018-.03-.268-.07-.375-1.56.036-.86 3.106.02 2.749zm.62-3.463c-.08-.178-.37-.178-.37-.446-.16.071-.29.446-.14.732.25-.018.32-.196.51-.286zm-1.48-1.106l.02 1.91c.43.035.5-.286.82-.375.11-.893-.18-1.41-.84-1.535zm0-.804c.21.072.19-.107.37-.071.02-.268-.1-.375-.37-.357v.428zm1.47.286c.27-.071.12-.625.07-.803-.32-.018-.45.125-.59.285.05.322.39.322.52.518zm.23-7.051c.5-.018.18-.857.36-1.178.18.143.03.607.09.892.52-.142.32-1.713.12-2.07-.32.089-.05.767-.14 1.107-.2-.429.07-1.304-.38-1.482-.27.625-.14 1.999-.05 2.731zm.05-3.017c.42 0 .22-.839 0-.892-.16.125-.28.803 0 .892zm.22-1.035l-.02-1.553c-.47-.071-.5 1.535.02 1.553zm-1.97-3.606c1.41-.196.66-1.446.12-1.981-.32.375-.03 1.357-.12 1.981zm-.02-2.784c.16.035.2-.054.3-.072-.01-.196-.1-.285-.3-.303v.375zm0 .285c.13.339.45.482.75.661.32-.732-.32-1.232-.75-.661zm1.58-5.587c.1-.393-.18-.75-.09-.892-.09-.072-.5.178-.67.285.17.304.31.607.76.607zm-.74-6.283c.04.357.29.5.59.589.02-.5-.12-.714.07-1.035-.19.178-.51.232-.66.446zm.66-.732c-.14-.161-.37-.214-.66-.214 0 .196-.02.41.07.517.31 0 .45-.16.59-.303zm-.62 3.249c.25-.09.55-.125.59-.447-.34.018-.18-.464-.59-.374.12.178-.09.482 0 .821zm.59-.072c-.95.107-.54 2.124-.48 2.874 1.02-.25.43-1.999.48-2.874zm-.56-3.748c.24 0 .29.214.59.143v-.375c.17.16 0 .66.45.517v-.732c.16.072.04.465.07.661.7.214.33-.875-.01-1.035v.303c0-.018-.99-.66-1.2-.589 0 .411.05.75.1 1.107zm1.26-.893c.45-.053.14-.821 0-.964-.27.036-.22.911 0 .964zm.07-7.89c-.14.215-.2.411-.14 1.036.25-.179.28-.714.14-1.036zm0-.089v-.518c-.23.054-.29.554 0 .518zm.27 53.962c-.25 0-.36.125-.66.071.01.625-.11.714-.22 1.249.79-.321 1.09-.553.88-1.32zm-.04 3.891c-.34-.071-.37.161-.59.214.13.197.38.268.52.446.18-.089.04-.464.07-.66zm-.28-.143c-.08-.178-.27-.232-.52-.232v.446c.32.072.23-.25.52-.214zm.34-2.66c-1.33.25-.9 2.339-.06 1.696.16-.428.02-1.142.06-1.696zm-.72 3.231c-.39.697.02 1.785-.2 2.785 1.27.518 1.13-2.374.2-2.785zm.64 5.284c-.3.036-.52.161-.59.428.31 0 .24.357.59.286.2-.196-.05-.411 0-.714zm-1.27 6.533a2.081 2.081 0 00-.21-.553h-.97v1.071c.56-.089.59-.375 1.11-.589-.52.892-1.63 1.731-1.07 2.731h1.77c.36-.286.77-.518.72-1.392-.04-.786-.36-1.678-1.35-1.268zm-.36-31.506v-.446c1.2.679.74-2.249.72-2.713-.5-.089-.68.339-.59.732-.16-.018-.02-.321-.14-.375-.95.411-1.47 2.802.01 2.802zm.02-5.729l-.02-1.214c.04.375.11.696.17.928 1.14-.214.3-1.928.55-2.945-.47.053-.66.446-.73.928v-.411c-1.26.036-1.22 2.749.03 2.714zm-.11-11.621c.17-.696.02-1.696.06-2.499-1.27.286-1.18 2.178-.06 2.499zm.02-5.016c-.36-.214-.55-.018-.8.214.19.25.52.375.75.589.16-.125.02-.553.05-.803zm-.52-.375c-.07-.053-.16-.071-.3-.071v.285c.21.036.34-.017.3-.214zm-.28 1.036c-.08.392-.04 1.463.01 1.999.38-.018.49-.322.81-.375.11-.91-.09-1.535-.82-1.624zm.73-1.107c.13-.964.13-1.589.13-2.66-1.29.018-1.24 2.695-.13 2.66zm-.59-15.03c-.27.089-.47.214-.45.589.11 0 .29-.036.31.071.14-.125.16-.375.14-.66zm-.81.071c.36.089.77-.41.88-.821-.34.232-.54.589-.88.821zm.65 5.677l.02 1.035c.59.036.46-.678.73-.589 0-.214-.5-.607-.75-.446zm.91-6.409c.23.036.27-.178.15-.303-.15.071-.29.161-.15.303zm-.25-.892c.18-.375.23-.768.14-1.178.26-.054.49-.09.74-.143-.18-.518-.47-.928-.68-1.41-.23.696-.34 1.91-.2 2.731zm.68.375c-.14.107.15.392-.14.446.03.161.36.036.52.071.11-.374.02-.589-.38-.517zm-.43 1.106c.16.572-.37.447-.28.964.35-.214.53-.303.87-.589.02.304-.36.232-.28.589.62 0 .59-1.142.5-1.481-.56-.125-.43.446-.81.517zm-.02 6.052c.04.053.08.125.08.214.19.053.14-.143.28-.143.02-.161-.25-.036-.36-.071zm.81 0c.13.624-.63-.072-.81.66.04.125.49.393.52.518.18 0 .15-.25.15-.446.23.142.01.267.16.517.48.054.41-1.321-.02-1.249zm.36-10.478c-.2.125-.06.874.02 1.178.19.018.19-.161.21-.286.25.036.11.286.07.446 0 0 .49-.142.45-.142-.02-.018-.02-.036-.03-.054.16.071.34.071.55-.018-.38-1.499-.39-3.249-.86-4.802-.21-.071-.38-.178-.59-.214-.04.304-.11 2.749.32 4.141-.05-.107-.11-.178-.14-.249zm1.36 4.284c-.09-.34.13-.357.14-.589h-.21c-.09.178-.23.499.07.589zm.34-3.767c-.05-.803-.25-1.481-.39-2.213-.02.589.05 1.731.39 2.213zm-.18 21.224c-.34.089-.07.732.02.893-.75-.322-.22-3.785-.27-4.57-.95.696-.32 1.571-.64 2.66.16-.25.21-.607.35-.893.11.571-.55 1.535.09 2.071a.383.383 0 01-.3-.304c-.56.5.61 1.232.75 1.321.25-.107.25-1.053 0-1.178zm-.14 24.723c.14 0 .09-.196.29-.161.03-.214-.2-.196-.24-.357-.19 0-.14.411-.05.518zm-.07.303v.661c.27-.179.43-.446.43-.875-.22-.018-.27.143-.43.214zm.36-1.249c-.08.232-.2-.089-.22-.143-.23.214.13.464.3.518l-.03-4.267c-.54.911-.66 3.017-.05 3.892zm-.33-3.909c.29-.143.5-.554.36-.893-.39.036-.39.464-.36.893zm.29-1.018c.02-.232-.09-.357-.31-.375 0 .179 0 .357.08.447.07-.036.12-.09.23-.072zm-.82-.75l.01 1.107c.65.018.58-1.178-.01-1.107zm.44-.142c.04-.518-.27-.679-.37-1.036-.24.125-.13 1.143.37 1.036zm-.05 3.231c-.36.357-.56 1.32-.05 1.695.16-.428.01-1.142.05-1.695zm.05-1.839c-.7.589-.21 1.339-.41 2.071.31-.572.5-1.232.41-2.071zm-.41 3.32c-.02.196-.14 1.125.38 1.035.23-.428-.24-.749-.38-1.035zm.04 2.356c.53 0 .44-1.071.07-1.178-.18.232-.04.803-.07 1.178zm.28.054c-.68.482 0 1.767-.5 2.285.43-.161.79-1.41.5-2.285zm.04-11.46c-.88.125-.16 1.839-.57 2.428.43-.607.8-1.411.57-2.428zm-.36-.143c.63.089.47-1.071-.02-1.107-.05.179.06.715.02 1.107zm-.05-5.748c.88.09.36-.785.14-1.106-.3.125-.09.749-.14 1.106zm.88-.874c-.02-1.428-.06-2.874.03-4.195-.5.803-.48 3.017-.11 3.981-.48-.179-.46-.875-.82-1.179-.22.661.34 1.232.9 1.393zm-.29.517c.16.036.2-.053.3-.071-.03-.107-.12-.107-.16-.214-.14 0-.18.107-.14.285zm-.11-3.605c-.45.517-.72 1.57-.12 2.142.32-.447.03-1.482.12-2.142zm-.45.285c.34-.607.72-1.571.79-2.213-.32-.054-.2.339-.21.589-.34.018.03-.286-.16-.357-.74.036-.51 1.356-.42 1.981zm-.01-3.088c.03.429-.08.875 0 1.107.66-.072.62-1.018 0-1.107zm.87 7.354c-.03.054-.07.143-.1.215.03-.5.05-.875.01-.946-.35-.036-.18.464-.21.731-.22 0-.14-.303-.16-.517-.92 0-.4 1.928-.58 2.499.18-.196.22-.554.36-.803.07.589-.55 1.588.16 2.07.04-.089.08-.339.13-.696.03.571.14 1.107.34 1.499-.48-.178-.45-.892-.82-1.178-.52.536.46 1.303.89 1.393-.02-1.482 0-2.678-.02-4.267zm-.34 4.499v.375c.11-.09.33-.054.29-.286-.05-.071-.16-.107-.29-.089zm.09.5c-.12.142-.05.482-.07.731.2-.16.38-.357.36-.731h-.29zm-.19 3.837v-.964c.14.589 0 1.482.37 1.839.2-1.16.11-2.481.11-3.981-.41.268-1.4 2.874-.48 3.106zm.16.732c-.24.179.12.411.37.375-.02-.232-.32-.178-.37-.375zm.32 35.986c-.43.036-.48.447-.88.5v.393h.63c.14-.393.23-.768.25-.893zm-.02.893h.11v-.089c-.04 0-.07.053-.11.089zm.09-1.196c-.07-.428-.63-.357-.75-.732-.4-.071-.27 1.089-.2 1.321.41-.089.59-.446.95-.589zm-.11-5.569c-.39.035-.41.41-.8.446l.01 1.535c.06-.018.11-.107.18-.214-.1.339-.1.714-.07 1.071h.81c.02-.732 0-1.464-.04-2.035-.16.107-.3.25-.41.393.2-.5.36-1.054.32-1.196zm-.79 3.802c-.12.143-.05.482-.07.732.33.071.36.428.74.446-.16-.428-.27-.946-.67-1.178zm.83.964c.02-.375.03-.786.05-1.214h-.66c.14.482.36.91.61 1.214zm-.65-5.855h.51c-.24-.357-.42-.768-.67-1.125-.27.393-.14.839.16 1.125zm.65-9.711c-.57.393-.36 1.464-.43 2.196-.11-.018-.04-.214-.14-.214-.34.142-.31.517-.15.803.47.125.32.339.59.946.27-.839.08-2.588.13-3.731zm-.66-.5c-.38.25-.08 1.446-.2 1.768.29.16.3-1.625.2-1.768zm-.22-5.872c.38-.143.72-.304.88-.661-.43-.071-.48-.196-.75-.517-.31.107-.04.803-.13 1.178zm.02.285c.03.161.05.304.07.447.41.428.81-.732.81-.964-.49.142-.47.374-.88.517zm.7 3.303c-.34.125.02.482.07.66.21-.018.12-.303.14-.518-.12.018-.19-.053-.21-.142zm.12 7.497c-.03-.214-.16-.339-.37-.375v.518c.19 0 .25-.108.37-.143zm-.34 1.231c.24-.232.27-.66.43-.946-.59-.107-.43.5-.43.946zm.41-1.749c-.34-.375-.55-.875-.82-1.321-.14.197-.11.839.09.964.2.054.14-.143.29-.143-.06.286.1.536.44.5zm-.73-.143c-.32.107-.05.768-.14 1.089.44-.036.46-.91.14-1.089zm.16 1.232c-.55-.089-.27 1.571-.29 1.767.45-.393.31-.982.29-1.767zm.59.446c-.3.357-.52.803-.5 1.464-.07.214-.07-.232-.21 0-.27.678.03 2.16.77 2.499l-.06-3.963zm-.03 4.695h-.9c.02.214.04.428.02.589.38-.125.61-.357.97-.518-.04-.035-.08-.035-.09-.071zm-5.18-40.324c.41-.643.57-1.535.86-2.285.09.803-.49 1.553-.65 2.356.31-.017.36-.285.67-.303.09.214-.52.375-.67.589.07.446.65.393.76.803-.09.304-.36-.214-.38 0 .09.286.29.464.38.732-.43-.321-.47-1.017-.97-1.249-.07 1.463.61 3.266.05 4.783.41-.249.5-1.445.86-1.981.06.732-.52 1.464-.64 2.285.34-.018.39-.304.73-.304-.16.304-.5.447-.8.59.07.482.68.41.75.892-.16.232-.22-.232-.45-.161.13.34.39.536.45.964-.29-.482-.58-.964-.9-1.392.22 1.214.32 3.927-.02 5.069.24-.535.56-.963.65-1.624.16.589-.41 1.089-.43 1.767.27-.107.41-.321.73-.375-.1.357-.59.34-.73.661.12.41.68.357.75.803-.16.232-.21-.214-.45-.143.08.375.42.482.45.875-.39-.339-.55-.928-.89-1.321.03 1.018.32 3.767-.11 4.998.43-.339.57-1.571.95-2.213.18.892-.65 1.446-.65 2.41.27-.125.43-.357.74-.447-.06.429-.52.464-.81.661.07.517.81.375.83.964-.2.232-.26-.286-.52-.215.05.411.48.447.44.946-.37-.41-.53-1.053-.96-1.392.43 1.446.26 3.82.05 5.141.34-.696.57-1.517.86-2.285.16.875-.57 1.482-.65 2.356.31-.089.49-.303.74-.446 0 .518-.59.446-.81.732.15.428.72.411.83.893-.2.232-.25-.286-.52-.215.05.464.39.643.52 1.018.14-10.675.16-22.563-.09-32.577-.34.553-.58 1.232-.72 1.981.25-.107.43-.267.66-.374-.07.392-.5.446-.73.66.11.411.68.357.75.803-.11.25-.18-.16-.37-.071 0 .214.19.25.23.446-.34-.25-.41-.767-.83-.964.38 1.357.38 3.856.06 5.159zm.09-5.676c.02-.768.54-1.482.79-2.178.44-1.25-.51-1.821-.83-2.91.15.571-.21 3.374.2 3.588.54.286-.63 1-.16 1.5zm-.75-17.476c.03-.143.21-.125.14-.375h-.9c-.02.411.5.25.76.375zm.5-2.356c-1.37.553-1.22.089-1.24 1.767 1.17.339 1.11-.928 1.24-1.767zm-2.17-1.107c-2.13.339-4.28.643-6.42.982-1.72.268-1.27.446-1.25 1.963.73-.142 1.84.161 1.32-1.035.4-.089.72-.089 1.12 0 .03-.303.01-.589-.08-.874.97-.054 4.65-.143 5.31-1.036zm-7.67 4.284c.73-.071 1.4-.178 2.01-.375-.02-.785-.63.857-.61-.964-1.06-.053-1.78.125-1.4 1.339zm-.36.589c.32-.285.04-1.178.13-1.695h-.22c-.12.428-.14 1.356.09 1.695zm.11-3.623h-.22c.06.571-.09 1.321.09 1.767.32-.286.04-1.214.13-1.767zm-3.6 3.552c1.16-.125 3.62.303 3.1-1.482-1.04-.089-2.14.304-3.27.375.04.393-.07.928.17 1.107zm-.52-.375c.3.036.07-.464.14-.66-.27-.054-.29.535-.14.66zm-.45 0c.3.036.07-.464.14-.66-.36.053.09.464-.14.66zm-1.7-.518c.69.125 2.49-.303 3.26-.446 2.17-.375 2.47.054 2.58-2.124-1.83.161-6.81-.089-5.84 2.57zm-.38.072c.12-.518.14-1.125.12-1.767-.35.267-.3 1.428-.12 1.767zm-.88 1.035c.31.036.49-.071.66-.143-.21-.196-.39-.41-.52-.66-.28.018-.26.607-.14.803zm-.02-.946c.81.143.63-1.392.58-1.767-1.33.053-.42.821-.58 1.767zm-6.81-.161c.31-.196.6-.392.88-.589-.46-.392-.95.125-.88.589zm0 .375c.11.357.67.179.9.072.54.16.9.499 1.7.375.07-.482.24-1.375.27-1.768-1.38 0-2.02.75-2.87 1.321zm18.19-12.477a107.03 107.03 0 00-5.64 3.748c-3.46 2.41-6.87 4.909-10.41 7.176 2.61-.553 4.06-.303 6.36-1.91 4.28-3.034 8.81-6.069 12.81-9.3-.45-.071-.88-.214-1.25-.482-.83-.374-1.24.393-1.87.768zm6.51-3.606c-1.83.714-3.46 1.607-5.02 2.588 1.06.429 1.81 1.018 2.72.072.33-.339 2.6-2.071 2.3-2.66zm.59-.375c-.2.072-.48.054-.45.375.32.036.57-.196.45-.375zm-2.81 3.249c-1.42 1.392-2.98 2.249-4.57 3.392-3.48 2.499-6.94 5.051-10.51 7.443 3.18-.303 6.33-.839 9.48-1.339.83-.142 6.96-1.767 6.38.465.99-.125 1.42-.964 1.65-2.018-.07 1.161.18 2.089 1.33 2.018.02-1.714.54-4.445-.57-5.534-.15.571-.42 1.464-.6 2.392.08-.964.08-1.946.17-2.678-.42.143-.69.018-.83-.375.23-.267.54-.339.9-.214.1-.767.21-1.535.34-2.302.23-1.536.45-3.089.48-4.642-1.38.875-2.49 2.267-3.65 3.392zm3.31 3.017c.84-.554 1.09-2.928.56-3.909-.33 1.249-.4 2.677-.56 3.909zm.54-4.427c.02.25.11.393.3.446-.05-.339.07-.75-.01-.892a.737.737 0 00-.29.446zm.29-1.392c-.2.089-.15.392-.15.66.31.018.27-.518.15-.66zm.98 10.406c-.07-1.071-.04-2.249-.7-2.731-.41 1 .11 2.267.7 2.731zm-.43-7.318h-.23c.11.125-.06.446 0 .732.37.053.19-.447.23-.732zm.07 1.035c-.59.232-.27 1.392-.34 2.142.74-.357.2-1.41.34-2.142zm.11 1.999c-.7.393-.54 1.482.02 1.91.19-.553-.04-1.303-.02-1.91zm.23-5.462c-.3.303-.02 1.178.02 1.624.61-.16.13-1.267-.02-1.624zm.38-.893c.47-.285.86-.678 1.02-1.267-.64.125-1.33.446-1.02 1.267zm32.74-1.428c-5.16-.035-10.32.197-15.5.125-1.85-.035-3.91-.339-5.74.072-1.11.25-.59.625-1.7.25-.82-.286-1.75-.214-2.6-.197-1.56.036-4.62-.821-5.95.179-1.61 1.214-.98 1.999-.71 3.748.05.34.25 1.589.52 3.053-.09.303.05.803.1 1.089a.437.437 0 00.06-.214c.43 2.356.91 4.855 1.04 4.873.27-.125.19-2.053.12-2.142.16-.25.22.214.45.142-.04-1.588-.54-3.82 1.11-4.123 1.88-.339 3.76-.553 5.66-.821.31 1.249-.23 3.142.18 4.052.7-.375.27-3.267.27-3.981 1.29.072.83 1.518.9 2.428.07.696.05 1.374-.04 2.071-.84.66-1.11-.215-1.47.821 1.1.41 2.12.232 3.57.214.04-.232-.16-.286 0-.446.38-.072.27.357 1.43.178 1.53-.232 3.07-.446 4.57-.767.16-2.41-.11-4.838-.21-7.23.7.179.39 5.748.62 6.551.36 1.196 6.47-.357 7.98-.607l9.16-1.446c1.73-.285 3.49-.553 5.23-.839 1.31-.196 2.94.179 2.62-1.517.8-.196.32.786.59 1.036 1.18-.34 3.15-.875 4.37-.893 2.44-.018 4.98-.178 3.91-3.32.34.053.68 2.428.53 2.731 2.1-.286 4.2-.607 6.29-.964 1.22-.196 5.72-.089 4.9-1.928.86-.268.44.786.75 1.036.57-.018.93-.286 1.11-.822 1-.142.75.375 2.13.143 1.24-.214 2.49-.196 3.73-.392 2.08-.304.88-.197 1.25-1.446.33-.072.27.517.59.214-.05.303-.05.589 0 .892 1.62-.214 4.63-1.588 5.56-.892 3.76-.696 7.62-1 11.34-1.91-19.58.125-39.15 1.16-58.72.999zm-22.15 8.158c.02-.446.38-1.856-.3-1.839.08.607-.24 1.661.3 1.839zm-.13 2.124c.49-.16.42-1.82-.01-1.981-.36.428-.06 1.731.01 1.981zm79.59-10.478c-.04.286.89 1.678 1.2 1.696.21.018.72-.821.88-1.035.3-.411.61-.822.66-1.107-.86.214-1.85.285-2.74.446zm1.41 1.928c.2.375.83-.036 1.19 0 .21-.714.35-1.499.5-2.285-.65.607-1.38 1.535-1.69 2.285zm1.42-.071c.52.017.86-.125 1.33-.143-.11-.839-.54-1.339-.76-2.071-.45.464-.45 1.392-.57 2.214zm.88-2.446c.23.678.79 1.053 1.13 1.624.48-.464.66-1.249 1.09-1.767-.63-.285-1.34.125-2.22.143zm2.6 1.856c-.26-.267.09-1.499-.17-1.999-.6.607-1 1.518-1.02 2.214 1.08-.072 1.69-.232 2.74-.375-.32-.732-.94-1.178-1.34-1.839-.32.411-.18 1.285-.21 1.999zm2-.232c-.03-.642-.95-1.017-1.34-1.553.25.429.66 1.321 1.34 1.553zm-1.48-2.07c.41.732 1.09 1.178 1.72 1.696.35-.732.82-1.357 1.11-2.142-.99.125-1.9.303-2.83.446zm1.79 1.928c.36.178.82-.09 1.27-.072.04-.714.09-1.41.05-2.213-.57.642-.95 1.464-1.32 2.285zm1.32-.232c.77.232 1.58-.304 2.23-.215-.22-.499-.69-.731-1.04-1.106-.31-.197.14.339.21.446-.59-.286-.75-.982-1.27-1.321-.16.589.07 1.607-.13 2.196zm.59-2.285c.49.696 1.12 1.249 1.8 1.767.34-.768.8-1.392 1.11-2.214-.93.197-1.99.268-2.91.447zm3.19-.304c-.6.572-.91 1.446-1.32 2.214.36.178.88-.036 1.25-.072 0-.874.11-1.213.07-2.142zm.08 2.071c.68.018 1.16-.161 1.77-.214-.52-.643-1.09-1.625-1.72-1.928.02.75-.11 1.357-.05 2.142zm.52-2.356c.53.678 1.07 1.338 1.86 1.767.29-.821.81-1.41 1.11-2.214-.98.179-1.97.322-2.97.447zm3.19-.375c-.43.785-.97 1.428-1.26 2.356.49.018.86-.071 1.26-.143-.09-.785.14-1.606 0-2.213zm.14 2.213a12.81 12.81 0 011.63-.214c.2-.286-1.33-1.785-1.49-2.071-.19.572-.12 1.643-.14 2.285zm.45-2.427a7.257 7.257 0 001.93 1.785c.33-.786.79-1.428 1.1-2.214-1.1.143-1.83.304-3.03.429zm2 2.07c.42-.053.85-.089 1.19-.214.05-.678.09-1.374.07-2.142-.5.643-1.09 1.607-1.26 2.356zm1.33-.232c.57-.018 1.08-.125 1.56-.214-.11-.107-.13-.303-.31-.375.17-.178.27.321.52.304 0-.697-.57-.804-.82-1.25-.2.107.13.321.16.446-.43-.232-.61-.732-.89-1.106-.24.553-.17 1.445-.22 2.195zm.52-2.427c.13.553.88 1.088 1.34 1.553.11-.482.11-1.071.22-1.553-.43-.304-.95.053-1.56 0zm1.94 2.142c.39-.572-.04-1.321-.17-2-.18.589-.66 1.839.17 2zm-.02-2.214c.09.411.02.964.37 1.107.04-.429.15-.786.22-1.178-.27-.072-.34.071-.59.071zm.75 0c-.2.25-.21.696-.3 1.107.16-.304.52-.714.3-1.107zm.59 0c-.32.714-.63 1.178-.88 2.071.29.107 1.01-.036.67-.589.16.053.05.375.21.446.2-.268.04-1.41 0-1.928zm.23 1.91c.61-.018 1.04-.214 1.64-.232-.42-.803-1.19-1.232-1.64-1.981-.17.607-.07 1.588 0 2.213zm.22-2.517c-.04 0 1.15 1.303 1.27 1.446a.651.651 0 01-.37-.268c.28.304.57.625.82.964.23-.089-.05-.285-.07-.375.14-.017.16.09.3.072.41-.75.86-1.446 1.19-2.285-1.12.107-2.01.393-3.14.446zm3.19.304c-.41.535-.66 1.249-1.11 1.767 1.2.857 1.16-1.232 1.11-1.767zm.23 1.624c.72-.053 1.35-.196 2.01-.303.25-.536-1.76-1.535-1.79-2.071-.24.643-.11 1.624-.22 2.374zm.5-2.588c.31.589 1.26 1.571 1.8 1.928.55-.661.93-1.482 1.25-2.374-1.04.124-1.95.374-3.05.446zm3.19.232c-.44.571-.7 1.321-1.11 1.928 1.29.785 1.17-1.339 1.11-1.928zm.24 1.767c.68-.143 1.41-.214 2.08-.375-.54-.696-1.33-1.142-1.87-1.856-.28.553-.07 1.571-.21 2.231zm.28-2.588c.54.767 1.29 1.339 2.01 1.928.41-.804.91-1.482 1.25-2.357-1.18.054-2.09.357-3.26.429zm2.24 2.07c1.26.893 1.06-1.338 1.11-1.838-.43.553-.69 1.267-1.11 1.838zm.36.518c.27-.054.79.143.74-.214-.25.036-.77-.143-.74.214zm2.53-.589c-.52.178-1.26.125-1.7.375.34.232 1.5.036 1.7-.375zm-1.56-.071c.73-.036 1.36-.179 2.01-.286.19-.446-1.62-1.714-1.87-2.071-.1.714-.14 1.518-.14 2.357zm.38-2.517c.57.678 1.29 1.231 1.86 1.928.54-.786 1.2-1.661 1.33-2.446-1.1.161-2.17.321-3.19.518zm3.26.303c-.38.607-.79 1.178-1.11 1.857 1.38-.125 1.2-.625 1.11-1.857zm2.6 1.767c-.61-.232-1.99-.018-2.46.375.88-.071 1.63-.268 2.46-.375zm-2.37-.142c.72-.054 1.33-.215 2.01-.304-.56-.696-1.17-1.374-1.72-2.071-.38.518-.15 1.643-.29 2.375zm.5-2.589c.52.803 1.22 1.446 1.79 2.214.52-.839.9-1.821 1.4-2.66-.89 0-2.17.303-3.19.446zm2.22 2.142c1.4-.053 1.03-1.106 1.12-2.213-.42.696-.78 1.428-1.12 2.213zm1.2-.303c.61.196 1.33-.161 1.92-.214-.46-.679-1.07-1.196-1.56-1.857-.34.464-.12 1.5-.36 2.071zm.43-2.499c.31.714.97 1.053 1.35 1.696.23-.482.29-1.161.38-1.786-.58-.178-1.1.09-1.73.09zm1.8 2.213c1.07.072.27-1.339.21-1.767-.12.5-.45 1.357-.21 1.767zm.36-2.374c.03.571.3.928.37 1.482.27-.322.81-1.268.74-1.696-.43.161-.51.321-1.11.214zm.37 2.214c.88.017 2.12-.25 3.05-.447.12-.303-1.54-1.678-1.79-1.928-.47.75-.77 1.643-1.26 2.375zm1.33-2.732c.52.839 1.43 1.286 2 2.071.45-.857.95-1.66 1.33-2.588-1.07.196-2.19.392-3.33.517zm2.9.964c-.21.411-.38.982-.59 1.196 1.25.893 1.15-1.428 1.11-1.928.13-.374-.36.447-.52.732zm-.66 1.768c.46-.018.91-.072 1.25-.215-.12-.214-1.16-.089-1.25.215zm3.12-.59c-.47-.053-1.49 0-1.78.375.65-.053 1.31-.107 1.78-.375zm-1.71-.142c.74-.054 1.33-.268 2.08-.304-.25-.749-1.36-1.249-1.86-1.999-.23.625-.09 1.589-.22 2.303zm.36-2.589c.54.821 1.42 1.286 2.01 2.071.52-.857 1.04-1.714 1.47-2.66-1.18.161-2.39.322-3.48.589zm3.57 0c-.41.697-.84 1.375-1.18 2.142 1.59-.035 1.2-.839 1.18-2.142zm.21 1.928c.72-.107 1.45-.196 2.08-.375-.64-.589-1.29-1.178-1.93-1.767-.11.643-.15 1.375-.15 2.142zm.24-2.588c.3.535 1.41 1.41 2.07 2.071.65-.697.85-1.821 1.4-2.589-1 .036-2.43.286-3.47.518zm3.47.143c-.37.607-.64 1.321-.97 1.999 1.3-.179 1.06-.821.97-1.999zm.24 1.785c.64-.072 1.29-.161 1.86-.304.07-.214-.38-.624-.66-.892-.34-.304-.79-.536-.97-.893-.29.5-.09 1.464-.23 2.089zm.28-2.589c-.02 0 .09.108.25.304-.01.053.25.41.42.446.5.536 1.16 1.232 1.34 1.482.5-.928 1.06-1.803 1.47-2.803-1.17.161-2.38.304-3.48.571zm3.57.072a14.18 14.18 0 00-1.11 2.07c1.52-.035 1.11-.838 1.11-2.07zm.23 1.838c.77-.089 1.51-.232 2.22-.374-.68-.679-1.41-1.303-2.08-2-.12.732-.14 1.553-.14 2.374zm3.93-3.106c.01-.089-3.27.393-3.64.447.73.767 1.52 1.803 2.45 2.142.4-.893.86-1.696 1.33-2.517 0-.072-.09-.054-.14-.072zm2.45 2.071c-.63-.642-1.31-1.214-1.93-1.856-.29.571-.18 1.553-.36 2.213.82-.036 1.5-.25 2.29-.357zm.22-2.071c-.26-.928-1.58-.232-2.15-.214.37.464 2.33 2.999 2.76 1.767.21.054-.2.5.35.375-.09-.785.18-3.016-.96-1.928zm2 0c-.19-.071-.5-.821-1.04-.303.43.232-.07.607.08 1.196.12 0 .19-.054.21-.161-.07.232-.27.536-.14 1.107h.3c0-.178-.12-.214-.07-.446.02-.089 2.15-.286 2.38-.304-.41-.41-1.61-.964-1.72-1.089zm.07 1.553c.31.268 1.13-.124 1.64-.142-.49-.179-1.1.142-1.64.142zm-.07.518c.56.054 1.53-.089 2.01-.375-.65.161-1.4.214-2.01.375zm2.92 14.12c-.16.018-.26-.018-.3-.143-.13.018-.16.125-.14.303.18.036.46.161.44-.16zm-.82-4.659c2.37-.036.75-2.785.66-4.141-.07.892-1.91 3.48-.66 4.141zm2.06-9.086c.02.25.25.286.45.375.2-.25-.09-.464-.45-.375zm3.92-.071c-.01-.839-.16-.411-.66-.447.13.25.36.393.66.447zm-1.48-1.179c.3-.035.68 0 .66-.374-.18.142-.75-.09-.66.374zm.45.215c.44.267.84-.375 1.25-.143-.34-.678-1.06-.482-1.25.143zM2029.6 503.62c-.06.714-.18 1.695-.27 2.338-.07-.875.03-1.785.27-2.338zm65.6 18.243c.09.571-.27.642 0 .999-.63.536-1.09 1.25-1.5 2 .35.285.5-.179.66-.34-.02.411-.18.661-.66.589-.25-.321-.02-.535.09-.928-.4-.357-.43-1.089-1.01-1.249.2-.411-.16-.696 0-1.089.77-.161 1.65-.197 2.42.018zm8.64-10.371c-1.76.499-8.39.589-8.39.589l8.39-.589z" fill="#E1E4E9"/><path d="M-160 676h3562" stroke="#DCE0E8" stroke-width="7"/><path fill="#fff" d="M-15 676h2538v349H-15z"/></g><defs><clipPath id="clip0"><path fill="#fff" d="M0 0h2500v960H0z"/></clipPath></defs></svg>