<svg width="2500" height="960" viewBox="0 0 2500 960" fill="none" xmlns="http://www.w3.org/2000/svg">
<g clip-path="url(#clip0)">
<mask id="mask0" mask-type="alpha" maskUnits="userSpaceOnUse" x="1714" y="324" width="1056" height="528">
<rect x="1714" y="324" width="1056" height="528" fill="#C4C4C4"/>
</mask>
<g mask="url(#mask0)">
<path opacity="0.66" d="M2804.94 670.213V649.559H2798.09V619.651H2768.11V624.477H2732.99V644.741H2728.71V670.493H2716.59V656.628H2690.08V645.373H2654.07V628.485H2643.79V571.553H2629.7V521.373H2600.66V559.974H2583.83V601.466H2579.55V652.066H2570.98V668.048H2551.28V636.524H2542.72V608.221H2531.58V601.466H2476.77V608.221H2454.5V624.144H2448.5V644.294H2440.1V525.717H2430.68V517.032H2392.13V496.765H2361.3V525.717V537.296V558.524H2356.16V658.705H2312.31V641.875H2261.78V542.604H2254.92V513.653H2242.93V449H2222.2V513.653H2212.95V530.54H2206.96V624.144H2188.97V645.194H2113.6V498.215H2108.46V490.492H2067.34V498.215H2061.35V645.194H2033.94V584.096H2029.73V555.148H2015.1V548.392H1984.26V555.148H1965.42V571.553H1957.71V624.144H1945.72V630.332H1931.16V590.852H1929.62V568.34H1906.5V587.639H1885.94V590.852H1883.19V630.332H1865.39V670.493H1854V679H2816V670.213H2804.94Z" fill="#FAFAFA" fill-opacity="0.76"/>
</g>
<path opacity="0.66" d="M1019.76 649.512V631.912H1012.79V606.424H982.316V610.537H946.613V627.805H942.26V649.751H929.94V637.936H902.987V628.344H866.373V613.953H855.924V565.436H841.603V522.674H812.082V555.569H794.969V590.928H790.616V634.048H781.907V647.667H761.88V620.803H753.172V596.684H741.853V590.928H686.123V596.684H663.483V610.253H657.387V627.424H648.851V526.376H639.27V518.975H600.085V501.704H568.737V526.376V536.243V554.334H563.514V639.705H518.934V625.363H467.559V540.767H460.592V516.095H448.4V461H427.321V516.095H417.925V530.486H411.829V610.253H393.543V628.192H316.914V502.94H311.689V496.359H269.892V502.94H263.798V628.192H235.932V576.126H231.648V551.456H216.776V545.699H185.428V551.456H166.269V565.436H158.432V610.253H146.243V615.526H131.439V581.882H129.882V562.698H106.371V579.145H85.4738V581.882H82.6757V615.526H64.5744V649.751H-27V962.5H1031V649.512H1019.76Z" fill="#F0F0F0"/>
<path d="M938.128 645.77V624.077H945.021V592.662H975.187V597.731H1010.52V619.015H1014.83V646.065H1027.03V631.502H1053.7V619.679H1089.94V601.942H1100.29V542.142H1114.46V489.436H1143.68V529.98H1160.62V573.562H1164.93V626.71H1173.55V643.497H1193.37V610.385H1201.99V580.657H1213.19V573.562H1268.35V580.657H1290.76V597.382H1296.79V618.546H1305.24V493.998H1314.73V484.876H1353.51V463.589H1384.54V493.998V506.16V528.457H1389.71V633.683H1433.83V616.005H1484.68V511.736H1491.58V481.327H1503.64L1524.51 481.327L1533.81 481.327V499.064H1539.84V597.382H1557.94V619.492H1633.79V465.111H1638.96V457H1680.33V465.111H1686.36V619.492H1713.94V555.317H1718.18V524.911H1732.9V517.815H1763.93V524.911H1782.89V542.142H1790.65V597.382H1802.71V603.881H1817.36V562.413H1818.9V538.768H1842.18V559.039H1862.86V562.413H1865.63V603.881H1883.54V646.065H2575L2575 968.5H927.001V645.77H938.128Z" fill="#EFF1F3"/>
</g>
<defs>
<clipPath id="clip0">
<rect width="2500" height="960" fill="white"/>
</clipPath>
</defs>
</svg>
