<svg width="2500" height="960" viewBox="0 0 2500 960" fill="none" xmlns="http://www.w3.org/2000/svg">
<g clip-path="url(#clip0)">
<rect x="-34" y="798" width="2621" height="9" fill="#C4C4C4"/>
<path d="M1901.78 774.312C1901.78 778.371 1898.71 781.662 1894.92 781.662C1891.13 781.662 1888.06 778.371 1888.06 774.312C1888.06 770.252 1891.13 766.961 1894.92 766.961C1898.71 766.961 1901.78 770.252 1901.78 774.312Z" fill="#C7C7C7"/>
<path fill-rule="evenodd" clip-rule="evenodd" d="M1894.71 791.464C1903.44 791.464 1910.51 783.884 1910.51 774.535C1910.51 765.185 1903.44 757.606 1894.71 757.606C1885.98 757.606 1878.91 765.185 1878.91 774.535C1878.91 783.884 1885.98 791.464 1894.71 791.464ZM1894.71 801.265C1908.49 801.265 1919.66 789.297 1919.66 774.535C1919.66 759.772 1908.49 747.805 1894.71 747.805C1880.93 747.805 1869.76 759.772 1869.76 774.535C1869.76 789.297 1880.93 801.265 1894.71 801.265Z" fill="#C7C7C7"/>
<path d="M1872.03 774.312C1872.03 778.371 1868.96 781.662 1865.17 781.662C1861.38 781.662 1858.31 778.371 1858.31 774.312C1858.31 770.252 1861.38 766.961 1865.17 766.961C1868.96 766.961 1872.03 770.252 1872.03 774.312Z" fill="#C7C7C7"/>
<path d="M1977.58 774.312C1977.58 778.371 1974.51 781.662 1970.72 781.662C1966.93 781.662 1963.86 778.371 1963.86 774.312C1963.86 770.252 1966.93 766.961 1970.72 766.961C1974.51 766.961 1977.58 770.252 1977.58 774.312Z" fill="#C7C7C7"/>
<path d="M2009.24 774.312C2009.24 778.371 2006.17 781.662 2002.38 781.662C1998.6 781.662 1995.52 778.371 1995.52 774.312C1995.52 770.252 1998.6 766.961 2002.38 766.961C2006.17 766.961 2009.24 770.252 2009.24 774.312Z" fill="#C7C7C7"/>
<path fill-rule="evenodd" clip-rule="evenodd" d="M2002.18 791.464C2010.91 791.464 2017.98 783.884 2017.98 774.535C2017.98 765.185 2010.91 757.606 2002.18 757.606C1993.45 757.606 1986.38 765.185 1986.38 774.535C1986.38 783.884 1993.45 791.464 2002.18 791.464ZM2002.18 801.265C2015.96 801.265 2027.13 789.297 2027.13 774.535C2027.13 759.772 2015.96 747.805 2002.18 747.805C1988.4 747.805 1977.23 759.772 1977.23 774.535C1977.23 789.297 1988.4 801.265 2002.18 801.265Z" fill="#C7C7C7"/>
<path d="M2042 725.021L2040.56 719.843L1944.6 718.29L1942.69 714.666H1938.85L1934.53 703.274H1926.85L1920.14 706.381V709.488H1923.49L1921.58 719.843L1932.61 755.052H1959.96V753.499H1972.91V755.052H1977.23L1988.74 749.357L1993.54 748.321L2003.62 745.215L2007.94 744.697L2010.33 742.108L2029.05 733.306H2032.88V736.93H2039.6L2040.56 727.61L2042 725.021Z" fill="#C7C7C7"/>
<rect width="25.9081" height="17.6046" transform="matrix(-1 0 0 1 1971.47 756.086)" fill="#C7C7C7"/>
<rect width="11.5148" height="11.3915" transform="matrix(-1 0 0 1 1943.64 756.086)" fill="#C7C7C7"/>
<path d="M1943.64 772.139V769.032H1935.01L1930.69 770.068V776.281H1934.05L1937.89 772.139H1943.64Z" fill="#C7C7C7"/>
<path d="M1852.49 777.833L1871.68 741.07H1870.24L1850.57 777.833H1852.49Z" fill="#C7C7C7"/>
<path fill-rule="evenodd" clip-rule="evenodd" d="M1925.9 773.692L1927.7 771.09L1916.22 741.589H1881.28V741.591H1880.32V741.589H1866.88L1866.88 740.556V717.773H1867.84V740.554H1875.52V717.773H1876.48V740.554H1880.32V689.07L1880.27 689.067L1880.32 687.742L1880.32 687.742H1881.28V687.809L1910.04 689.813L1910.06 690.848L1881.28 689.127V740.554H1915.82H1917.74H1917.74L1928.98 769.331L1929.73 768.514V750.392H1927.82H1922.54L1919.66 743.661L1923.5 740.554L1922.54 726.574L1920.62 718.807H1918.7V700.167L1915.82 697.06H1912.94V699.132L1914.86 701.203V718.807H1910.06V689.811H1911.98L1910.54 687.223L1875.52 682.562H1868.8L1863.05 687.223H1856.33H1852.01V716.218C1825.53 720.775 1801.95 732.27 1793.48 737.448L1786.28 756.605H1781V769.55H1797.8L1806.43 778.87V784.566H1812.67V778.87H1833.3V790.779H1843.37V778.87L1853.93 777.835L1861.61 773.692L1879.84 745.214H1911.5L1925.9 773.692ZM1905.27 691.883H1885.11V714.665H1905.27V691.883ZM1856.33 699.649L1877.44 691.883V711.559L1856.33 713.112V699.649ZM1841.93 778.87H1834.26V789.226H1841.93V778.87ZM1807.39 778.87H1811.23V783.012H1807.39V778.87ZM1853.45 719.845V717.773C1832.34 721.501 1812.35 731.063 1804.99 735.378L1803.07 743.662C1820.73 729.993 1844.01 722.088 1853.45 719.845ZM1799.71 759.194H1803.55V763.336H1799.71V759.194ZM1785.32 759.194H1781.48V763.336H1785.32V759.194ZM1839.54 741.07L1837.62 744.695L1817.47 752.979L1818.91 746.248L1839.54 741.07ZM1835.7 747.803L1846.25 746.25L1838.58 760.23H1828.02L1835.7 747.803ZM1839.06 764.371L1828.5 765.061L1820.82 770.584H1831.38L1839.06 764.371ZM1833.3 733.173L1833.73 734.101L1807.24 748.198L1806.82 747.27L1833.3 733.173ZM1901.43 720.878H1888.95V727.092H1901.43V720.878Z" fill="#C7C7C7"/>
<path fill-rule="evenodd" clip-rule="evenodd" d="M1849.68 777.837C1851.47 785.085 1857.63 790.428 1864.96 790.428C1871.36 790.428 1876.87 786.353 1879.36 780.493V795.335C1875.29 798.418 1870.32 800.229 1864.96 800.229C1852.56 800.229 1842.27 790.537 1840.34 777.837H1849.68ZM1879.36 766.506V760.232H1874.78C1876.73 761.895 1878.31 764.043 1879.36 766.506Z" fill="#C7C7C7"/>
<path fill-rule="evenodd" clip-rule="evenodd" d="M1956.24 767.478C1955.54 769.349 1955.16 771.379 1955.16 773.5C1955.16 782.849 1962.58 790.428 1971.73 790.428C1978.44 790.428 1984.22 786.354 1986.83 780.495V795.335C1982.56 798.418 1977.36 800.229 1971.73 800.229C1957.28 800.229 1945.57 788.262 1945.57 773.5C1945.57 771.429 1945.8 769.413 1946.23 767.478H1956.24ZM1986.83 766.504V760.232H1982.03C1984.08 761.894 1985.73 764.042 1986.83 766.504Z" fill="#C7C7C7"/>
<path fill-rule="evenodd" clip-rule="evenodd" d="M1629.19 793.788C1637.37 793.788 1643.99 786.808 1643.99 778.197C1643.99 769.586 1637.37 762.605 1629.19 762.605C1621.02 762.605 1614.4 769.586 1614.4 778.197C1614.4 786.808 1621.02 793.788 1629.19 793.788ZM1629.19 802.815C1642.1 802.815 1652.55 791.793 1652.55 778.197C1652.55 764.6 1642.1 753.578 1629.19 753.578C1616.29 753.578 1605.84 764.6 1605.84 778.197C1605.84 791.793 1616.29 802.815 1629.19 802.815Z" fill="#CFCFCF"/>
<ellipse cx="1629.4" cy="777.992" rx="6.42371" ry="6.77002" fill="#CFCFCF"/>
<path fill-rule="evenodd" clip-rule="evenodd" d="M1508.31 793.788C1516.48 793.788 1523.11 786.808 1523.11 778.197C1523.11 769.586 1516.48 762.605 1508.31 762.605C1500.14 762.605 1493.52 769.586 1493.52 778.197C1493.52 786.808 1500.14 793.788 1508.31 793.788ZM1508.31 802.815C1521.21 802.815 1531.67 791.793 1531.67 778.197C1531.67 764.6 1521.21 753.578 1508.31 753.578C1495.41 753.578 1484.95 764.6 1484.95 778.197C1484.95 791.793 1495.41 802.815 1508.31 802.815Z" fill="#CFCFCF"/>
<ellipse cx="1508.51" cy="777.992" rx="6.42377" ry="6.77002" fill="#CFCFCF"/>
<path fill-rule="evenodd" clip-rule="evenodd" d="M1662.52 786.76H1655.34V770.764H1652.56V762.267L1642.83 750.021H1613.65H1610.64L1603.69 762.267V770.764L1602.54 772.264V783.261L1601.38 784.51L1600.68 784.409V762.517L1611.34 744.772H1647.93L1651.63 750.771L1647.93 743.523H1610.18L1599.06 762.517V784.173L1592.81 783.261V793.008H1585.4V786.76H1570.81V789.759H1558.07V788.009H1553.67L1549.27 783.261V780.761H1538.62C1538.33 779.273 1537.88 777.471 1537.26 775.514H1540.93V772.516H1536.2C1533.26 764.948 1527.91 756.364 1519.63 754.519V748.271H1531.44L1533.52 746.272L1535.38 748.271H1538.62V764.516H1543.02H1553.67V754.519L1549.8 748.523H1596.52V747.023H1548.83L1548.35 746.272H1545.34V732.776L1550.89 726.778L1548.35 694.038L1559.46 689.039H1609.02H1611.57V695.537H1609.02V695.539H1578.45H1577.52H1560.39V697.038H1577.52V746.024H1578.45V697.038H1597.91V747.02H1598.83V697.038H1609.02V726.778H1612.49V692.538L1613.19 691.788V689.789H1617.59V691.788L1618.28 692.538V729.527H1649.32L1662.52 733.026L1663.21 735.275V736.525L1649.41 732.527H1618.28V733.777H1649.41L1663.21 738.025V757.269H1669V766.766L1667.84 769.015H1662.52V786.76ZM1656.27 769.515H1661.82V780.012H1656.27V769.515ZM1661.82 781.011H1656.27V785.51H1661.82V781.011ZM1586.33 787.508H1591.88V792.006H1586.33V787.508ZM1580.77 698.536H1595.59V720.53H1580.77V698.536ZM1590.49 780.012H1582.16V784.01H1590.49V780.012ZM1569.19 780.012H1575.21V784.01H1569.19V780.012ZM1565.48 725.528H1565.02V743.523H1565.48V725.528ZM1585.63 761.266V762.765H1578.91V772.762H1577.29V761.266H1585.63ZM1585.4 750.889V749.52H1577.52V760.016H1579.05V750.889H1585.4ZM1563.63 698.785H1575.44V719.779H1567.34L1563.63 698.785ZM1608.33 698.785H1599.76V720.528H1607.63L1608.33 698.785ZM1561.09 704.783L1560.16 699.285V697.785L1550.66 702.784L1552.75 722.527L1565.02 719.528L1562.24 704.783H1561.09ZM1552.28 727.028L1546.96 732.776L1556.92 730.777L1561.32 725.028L1552.28 727.028ZM1558.54 757.768V750.77L1555.29 754.518V760.767L1556.45 762.016V763.766H1564.79L1561.78 757.768H1558.54Z" fill="#CFCFCF"/>
<path d="M1484.2 785.76C1483.09 784.361 1483.73 776.013 1484.2 772.014L1481.19 773.264L1477.25 770.515L1477.94 764.517L1487.67 762.267C1490.64 758.468 1494.46 756.352 1496.01 755.769L1494.85 754.52L1473.08 758.768L1471.69 756.769L1466.37 780.262L1474.7 785.01L1476.09 783.011L1484.2 785.76Z" fill="#CFCFCF"/>
<path d="M1467.06 728.277L1472.38 745.272V751.271L1464.97 779.762L1461.96 781.512L1446.68 783.761L1457.56 774.264C1462.38 771.664 1467.6 756.686 1469.6 749.521L1467.06 728.277Z" fill="#CFCFCF"/>
<path d="M1467.76 750.271L1464.98 729.527L1448.77 734.276C1450.99 757.669 1435.18 773.514 1427 778.513L1444.6 783.511L1456.18 773.014C1460.44 771.015 1465.67 757.019 1467.76 750.271Z" fill="#CFCFCF"/>
<path d="M766.882 749.633C766.882 755.502 762.442 760.259 756.965 760.259C751.487 760.259 747.047 755.502 747.047 749.633C747.047 743.764 751.487 739.007 756.965 739.007C762.442 739.007 766.882 743.764 766.882 749.633Z" fill="#C4C4C4"/>
<path fill-rule="evenodd" clip-rule="evenodd" d="M756.658 774.427C769.273 774.427 779.499 763.471 779.499 749.955C779.499 736.44 769.273 725.483 756.658 725.483C744.044 725.483 733.817 736.44 733.817 749.955C733.817 763.471 744.044 774.427 756.658 774.427ZM756.658 788.595C776.576 788.595 792.723 771.296 792.723 749.955C792.723 728.615 776.576 711.315 756.658 711.315C736.74 711.315 720.594 728.615 720.594 749.955C720.594 771.296 736.74 788.595 756.658 788.595Z" fill="#C4C4C4"/>
<path d="M904.778 753.644C904.778 758.908 900.795 763.176 895.881 763.176C890.968 763.176 886.984 758.908 886.984 753.644C886.984 748.379 890.968 744.111 895.881 744.111C900.795 744.111 904.778 748.379 904.778 753.644Z" fill="#C4C4C4"/>
<path fill-rule="evenodd" clip-rule="evenodd" d="M895.602 775.886C906.918 775.886 916.092 766.057 916.092 753.933C916.092 741.809 906.918 731.98 895.602 731.98C884.286 731.98 875.112 741.809 875.112 753.933C875.112 766.057 884.286 775.886 895.602 775.886ZM895.602 788.595C913.469 788.595 927.954 773.076 927.954 753.933C927.954 734.789 913.469 719.271 895.602 719.271C877.734 719.271 863.25 734.789 863.25 753.933C863.25 773.076 877.734 788.595 895.602 788.595Z" fill="#C4C4C4"/>
<path d="M716.926 722.094H710.733L708.578 725.096H715.041L716.926 722.094Z" fill="#C4C4C4"/>
<path d="M723.009 706.078L724.97 707.508H731.768C728.735 707.966 722.399 716.756 719.61 721.094H714.773C713.1 721.094 712.42 719.95 712.289 719.378L718.695 707.794L723.009 706.078Z" fill="#C4C4C4"/>
<path d="M761.292 654.02L768.478 656.061L768.87 657.373L761.945 655.332L761.031 656.352L764.558 669.035H763.252L759.594 656.061L761.292 654.02Z" fill="#C4C4C4"/>
<path fill-rule="evenodd" clip-rule="evenodd" d="M684.663 741.008L692.49 738.312V732.354L693.286 731.787L693.079 730.005L694.48 731.503L695.143 732.496L699.786 731.503L704.164 721.572L691.561 706.251H690.368L690.898 709.798H692.888L702.439 721.572L699.256 729.801L695.674 730.51L694.48 728.382H692.89L690.235 705.542L689.174 703.839L690.235 699.867C701.997 695.138 735.604 685.681 775.931 685.681V692.774H778.054L775.931 668.515L773.013 658.442V654.612H823.821V653.761H773.013V649.647C779.071 648.796 797.714 647.604 823.821 649.647V644.256L821.698 642.554V640H833.505V642.554L831.117 644.256V649.647H836.556V653.052H831.117V685.681H832.178V688.66L839.341 694.902V705.542L839.029 705.967H809.759H785.085H784.289V707.102H785.085H809.759H838.195L837.882 707.528L839.341 710.649H833.505C834.301 712.115 835.415 716.238 833.505 721.005H844.117L853.801 710.649H859.772C854.752 716.115 845.148 730.583 844.783 747.25H839.341L831.117 756.755H823.688V759.734H814.933L813.341 756.755H803.391V725.828H801.534V756.755H800.208C802.595 738.596 794.769 723.275 794.769 723.275C794.769 723.275 785.695 704.861 773.278 700.435L747.941 702.563H736.134H735.206V704.549H734.277V707.812L732.022 708.946L732.015 708.972L722.736 710.649L710.929 732.354H721.011C719.773 735.901 717.668 744.214 719.154 749.094V764.132H703.766V752.215L699.256 754.201V752.215L691.296 754.201V752.215L685.857 749.094L684 741.859L684.663 741.008ZM864.812 710.365L865.21 710.081C875.557 703.981 892.006 700.435 912.17 710.649L918.803 715.047L920.262 721.005C922.562 723.748 927.32 729.744 927.956 731.787L925.038 731.503C918.626 721.147 899.754 705.003 875.557 723.275C871.71 726.301 863.538 735.333 861.628 747.25H847.307C847.658 739.276 851.625 720.97 864.812 710.365ZM731.844 709.644L730.828 711.926H738.257C747.171 705.57 761.428 707.291 767.441 708.946C788.895 715.221 796.25 736.7 797.769 750.754C797.783 750.689 797.8 750.655 797.82 750.655H799.279C800.659 742.029 795.874 729.091 793.309 723.7C789.913 713.713 778.54 704.88 773.278 701.711L747.941 703.839H736.134V705.825H735.206V708.379L731.624 710.507L731.844 709.644ZM717.43 751.648H705.49V762.713H717.43V751.648ZM777.789 656.882L777.941 657.796L779.513 684.688L782.554 685.369L782.962 687.809H793.442H795.432V656.882H777.789ZM821.963 682.701V685.822H801.004V656.882H821.963V682.701ZM703.235 701.428L703.501 701.002L717.96 697.03H719.154L712.521 708.379L703.235 701.428ZM726.848 700.009L719.552 701.711C718.172 702.033 718.446 701.183 718.756 700.718L721.674 696.037L728.97 694.76C729.899 694.476 730.12 694.996 730.032 695.469L726.848 700.009ZM730.235 698.817L736.271 697.457L738.905 693.83C738.978 693.453 738.796 693.037 738.027 693.264L731.991 694.284L729.577 698.024C729.321 698.396 729.094 699.074 730.235 698.817ZM744.333 695.684L739.136 696.84C738.153 697.058 738.348 696.481 738.569 696.165L740.648 692.986L745.845 692.119C746.507 691.927 746.664 692.28 746.601 692.601L744.333 695.684ZM747.174 694.991L751.741 694.203L753.836 691.587C753.903 691.306 753.78 690.988 753.197 691.129L748.641 691.662L746.707 694.372C746.503 694.64 746.31 695.14 747.174 694.991ZM755.635 691.355L754.441 692.632C751.788 694.788 757.581 693.152 760.809 692.064C762.825 691.384 762.18 690.93 761.605 690.788L755.635 691.355ZM809.759 719.586H798.35V724.126H809.759V719.586ZM789.86 711.642H806.84V713.912H789.86V711.642ZM821.963 747.108H811.616V752.215H821.963V747.108ZM817.984 731.787H828.331V744.838H817.984V731.787ZM839.209 694.902H778.717V696.604H839.209V694.902Z" fill="#C4C4C4"/>
<path d="M771.652 652.02H816.177V654.021H771.652V652.02Z" fill="#C4C4C4"/>
<path d="M952.789 736.855V764.952H942.546L927.845 736.855H952.789Z" fill="#C4C4C4"/>
<path d="M992.858 771.758L994.281 772.474L992.147 777.695C992.147 777.695 993.237 777.592 993.474 777.541C996.699 777.183 1005.09 776.21 1008.27 778.462L1011.78 776.825L1012.96 779.128L1009.46 780.407C1009.46 780.561 1009.46 780.663 1009.46 780.816C1009.31 786.088 997.268 786.907 996.272 786.958L987.499 783.734L986.93 784.348L996.984 788.186L998.027 789.005L996.604 791.922L980.054 785.781L985.413 783.836L992.858 771.758Z" fill="#C4C4C4"/>
<path d="M1023.11 771.758L1024.53 772.474L1022.4 777.695C1022.4 777.695 1023.49 777.592 1023.73 777.541C1026.95 777.183 1035.35 776.21 1038.52 778.462L1042.03 776.825L1043.22 779.128L1039.71 780.407C1039.71 780.561 1039.71 780.663 1039.71 780.816C1039.57 786.088 1027.52 786.907 1026.53 786.958L1017.75 783.734L1017.18 784.348L1027.24 788.186L1028.28 789.005L1026.86 791.922L1011.97 785.781L1015.67 783.836L1023.11 771.758Z" fill="#C4C4C4"/>
<path d="M1053.42 771.758L1054.84 772.474L1052.71 777.695L1053.33 777.643C1053.52 777.643 1053.75 777.592 1054.04 777.541C1057.26 777.183 1065.66 776.21 1068.83 778.462L1072.34 776.825L1073.53 779.128L1070.02 780.407C1070.02 780.561 1070.02 780.663 1070.02 780.816C1069.88 786.088 1057.83 786.907 1056.83 786.958L1048.06 783.734L1047.49 784.348L1057.55 788.186L1058.59 789.005L1057.17 791.922L1042.28 785.781L1045.98 783.836L1053.42 771.758Z" fill="#C4C4C4"/>
<path d="M960.565 739.927L997.459 745.403C997.934 743.049 998.076 740.234 997.696 736.908C997.696 736.805 997.649 736.703 997.649 736.601C998.503 736.652 999.356 736.703 1000.26 736.703C1000.64 740.183 1000.59 743.203 1000.26 745.813L1026.39 749.753C1027.71 746.836 1028.66 742.64 1027.95 736.908C1027.95 736.805 1027.9 736.703 1027.9 736.601C1028.76 736.652 1029.61 736.703 1030.51 736.703C1031.18 742.384 1030.61 746.836 1029.61 750.163L1034.5 750.879L1035.16 754.052H1049.77V758.249H1030.51V754.052H1033.59L1033.22 752.261L1032.98 752.21L1029.14 751.647C1029.04 751.903 1028.95 752.21 1028.85 752.466H1024.87C1025.15 752.056 1025.39 751.647 1025.68 751.135L1005.9 748.218V753.336H1004.43V748.013L1000.02 747.348C999.688 749.344 999.166 751.033 998.597 752.466H994.614C995.515 751.135 996.463 749.293 997.127 746.939L960.565 741.514V764.953H954.874V736.856H960.565V739.927Z" fill="#C4C4C4"/>
<path d="M1000.26 754.102H1019.51V758.297H1000.26V754.102Z" fill="#C4C4C4"/>
<path d="M1060.77 754.102H1080.02V758.297H1060.77V754.102Z" fill="#C4C4C4"/>
<path d="M1091.12 754.102H1110.75V758.297H1091.12V754.102Z" fill="#C4C4C4"/>
<path d="M961.801 754.102H989.211V758.297H961.801V754.102Z" fill="#C4C4C4"/>
<path d="M1050.48 759.733V753.336H1060.11V759.733H1059.39H1053.85H1050.48Z" fill="#C4C4C4"/>
<path d="M1059.16 760.5C1060.53 763.981 1061.62 769.15 1060.81 776.212C1059.91 776.212 1059.06 776.263 1058.21 776.314C1058.21 776.212 1058.25 776.11 1058.25 776.007C1059.2 768.228 1057.02 763.213 1055.17 760.449H1059.16V760.5Z" fill="#C4C4C4"/>
<path d="M1023.54 759.733H1020.22V753.336H1029.8V759.733H1029.14H1023.54Z" fill="#C4C4C4"/>
<path d="M1030.51 776.264C1029.61 776.264 1028.76 776.315 1027.91 776.366C1027.91 776.264 1027.95 776.161 1027.95 776.059C1028.9 768.28 1026.72 763.265 1024.87 760.501H1028.85C1030.23 763.981 1031.32 769.15 1030.51 776.264Z" fill="#C4C4C4"/>
<path d="M989.968 759.733V753.336H999.547V759.733H998.883H993.287H989.968Z" fill="#C4C4C4"/>
<path d="M1000.21 776.264C999.308 776.264 998.455 776.315 997.601 776.366C997.601 776.264 997.649 776.161 997.649 776.059C998.597 768.28 996.416 763.265 994.566 760.501H998.55C999.925 763.981 1001.02 769.15 1000.21 776.264Z" fill="#C4C4C4"/>
<path d="M1009.46 732.609L1012.96 733.888L1011.78 736.191L1008.27 734.554C1005.09 736.805 996.746 735.833 993.474 735.475C993.19 735.424 992.147 735.321 992.147 735.321L994.281 740.541L992.858 741.258L985.46 729.18L981.761 727.235L996.652 721.094L998.074 724.011L997.031 724.83L986.978 728.668L987.547 729.282L996.32 726.058C997.363 726.109 1009.41 726.979 1009.5 732.199C1009.5 732.353 1009.5 732.455 1009.46 732.609Z" fill="#C4C4C4"/>
<path d="M1039.76 732.609L1043.27 733.888L1042.08 736.191L1038.57 734.554C1035.4 736.805 1027.05 735.833 1023.78 735.475C1023.49 735.424 1022.45 735.321 1022.45 735.321L1024.54 740.541L1023.12 741.258L1015.72 729.18L1012.02 727.235L1026.91 721.094L1028.33 724.011L1027.29 724.83L1017.23 728.668L1017.8 729.282L1026.58 726.058C1027.62 726.109 1039.67 726.979 1039.76 732.199C1039.76 732.353 1039.76 732.455 1039.76 732.609Z" fill="#C4C4C4"/>
<path d="M1070.02 732.609L1073.53 733.888L1072.34 736.191L1068.83 734.554C1065.66 736.805 1057.31 735.833 1054.04 735.475C1053.75 735.424 1053.52 735.424 1053.33 735.372L1052.71 735.321L1054.84 740.541L1053.42 741.258L1045.98 729.18L1042.28 727.235L1057.21 721.094L1058.64 724.011L1057.59 724.83L1047.54 728.668L1048.11 729.282L1056.88 726.058C1057.93 726.109 1069.97 726.979 1070.07 732.199C1070.02 732.353 1070.02 732.455 1070.02 732.609Z" fill="#C4C4C4"/>
<path d="M1058.16 736.601C1059.01 736.652 1059.87 736.703 1060.77 736.703C1061.57 743.817 1060.48 748.986 1059.11 752.414H1055.12C1057.02 749.651 1059.16 744.635 1058.21 736.856C1058.21 736.805 1058.21 736.703 1058.16 736.601Z" fill="#C4C4C4"/>
<path d="M1083.67 771.76L1085.09 772.476L1082.96 777.696L1083.58 777.645C1083.77 777.645 1084 777.594 1084.29 777.543C1087.51 777.185 1095.91 776.212 1099.08 778.464L1101.22 777.492C1098.61 775.854 1096.85 772.783 1096.85 769.252C1096.85 768.075 1097.04 766.949 1097.42 765.926L1103.3 769.815L1104.87 770.787C1105.11 770.941 1105.39 771.043 1105.72 771.043C1106.29 771.043 1106.86 770.736 1107.15 770.173C1107.38 769.764 1107.43 769.303 1107.34 768.843C1107.24 768.382 1106.96 768.024 1106.58 767.768L1101.22 764.339L1099.13 763.008C1100.74 761.064 1103.11 759.784 1105.72 759.784C1110.61 759.784 1114.54 764.032 1114.54 769.303C1114.54 770.378 1114.35 771.402 1114.07 772.323L1114.4 771.76L1115.82 772.476L1113.69 777.696C1113.69 777.696 1114.78 777.594 1115.02 777.543C1118.24 777.185 1126.64 776.212 1129.81 778.464L1133.32 776.826L1134.51 779.129L1131 780.409C1131 780.562 1131 780.665 1131 780.818C1130.86 786.09 1118.81 786.908 1117.82 786.96L1109.04 783.735L1108.47 784.35L1118.53 788.188L1119.57 789.007L1118.15 791.924L1103.26 785.783L1106.96 783.838L1111.51 776.468C1109.94 777.952 1107.9 778.874 1105.68 778.874C1104.92 778.874 1104.16 778.771 1103.45 778.566L1103.78 779.232L1100.27 780.511C1100.27 780.665 1100.27 780.767 1100.27 780.921C1100.13 786.192 1088.08 787.011 1087.09 787.062L1078.31 783.838L1077.74 784.452L1087.8 788.29L1088.84 789.109L1087.42 792.026L1072.53 785.885L1076.23 783.94L1083.67 771.76Z" fill="#C4C4C4"/>
<path d="M1080.73 759.733V753.336H1090.31V758.351L1106.1 768.434C1106.29 768.587 1106.48 768.792 1106.53 769.048C1106.58 769.304 1106.58 769.56 1106.44 769.815C1106.29 770.122 1105.96 770.276 1105.63 770.276C1105.49 770.276 1105.3 770.225 1105.15 770.122L1089.13 759.836C1089.08 759.784 1089.03 759.784 1088.98 759.733H1084.05H1080.73Z" fill="#C4C4C4"/>
<path d="M1089.41 760.5C1090.79 763.981 1091.88 769.15 1091.07 776.212C1090.17 776.212 1089.32 776.263 1088.46 776.314C1088.46 776.212 1088.51 776.11 1088.51 776.007C1089.46 768.228 1087.28 763.213 1085.43 760.449H1089.41V760.5Z" fill="#C4C4C4"/>
<path d="M1100.27 732.609L1103.78 733.888L1102.6 736.191L1099.09 734.554C1095.91 736.805 1087.56 735.833 1084.29 735.475C1084.01 735.424 1083.77 735.424 1083.58 735.372L1082.96 735.321L1085.1 740.541L1083.67 741.258L1076.28 729.18L1072.58 727.235L1087.47 721.094L1088.89 724.011L1087.85 724.83L1077.79 728.668L1078.36 729.282L1087.14 726.058C1088.18 726.109 1100.22 726.979 1100.32 732.199C1100.27 732.353 1100.27 732.455 1100.27 732.609Z" fill="#C4C4C4"/>
<path d="M1088.42 736.601C1089.27 736.652 1090.12 736.703 1091.03 736.703C1091.83 743.817 1090.74 748.986 1089.37 752.414H1085.38C1087.28 749.651 1089.41 744.635 1088.46 736.856C1088.46 736.805 1088.46 736.703 1088.42 736.601Z" fill="#C4C4C4"/>
<path d="M1127.39 747.604V753.336H1125.92V747.297L1127.39 747.604Z" fill="#C4C4C4"/>
<path d="M1144.65 771.758L1146.08 772.474L1143.94 777.695C1143.94 777.695 1145.03 777.592 1145.27 777.541C1148.5 777.183 1156.89 776.21 1160.07 778.462L1163.58 776.825L1164.76 779.128L1161.25 780.407C1161.25 780.561 1161.25 780.663 1161.25 780.816C1161.11 786.088 1149.07 786.907 1148.07 786.958L1139.3 783.734L1138.73 784.348L1148.78 788.186L1149.82 789.005L1148.4 791.922L1133.51 785.781L1137.21 783.836L1144.65 771.758Z" fill="#C4C4C4"/>
<path d="M1174.91 771.758L1176.34 772.474L1174.2 777.695L1174.82 777.643C1175.01 777.643 1175.24 777.592 1175.53 777.541C1178.75 777.183 1187.15 776.21 1190.32 778.462L1193.83 776.825L1195.02 779.128L1191.51 780.407C1191.51 780.561 1191.51 780.663 1191.51 780.816C1191.37 786.088 1179.32 786.907 1178.33 786.958L1169.55 783.734L1168.98 784.348L1179.04 788.186L1180.08 789.005L1178.66 791.922L1163.77 785.781L1167.47 783.836L1174.91 771.758Z" fill="#C4C4C4"/>
<path d="M1222.53 769.254C1222.53 767.718 1222.86 766.234 1223.47 764.955L1225.42 766.592L1230.35 770.738C1230.59 770.943 1230.87 771.045 1231.16 771.096C1231.73 771.198 1232.3 770.943 1232.67 770.431C1232.96 770.073 1233.05 769.612 1233.01 769.151C1232.96 768.691 1232.72 768.281 1232.39 767.974L1227.79 764.085L1225.47 762.242C1227.03 760.707 1229.12 759.734 1231.39 759.734C1236.28 759.734 1240.21 763.982 1240.21 769.254C1240.21 774.525 1236.28 778.773 1231.39 778.773C1226.51 778.824 1222.53 774.525 1222.53 769.254Z" fill="#C4C4C4"/>
<path d="M1121.75 754.102H1141V758.297H1121.75V754.102Z" fill="#C4C4C4"/>
<path d="M1152.15 754.156H1171.31V758.352H1152.15V754.156Z" fill="#C4C4C4"/>
<path d="M1182.31 754.102H1201.56V758.297H1182.31V754.102Z" fill="#C4C4C4"/>
<path d="M1172.02 759.733V753.336H1181.6V759.733H1180.93H1175.34H1172.02Z" fill="#C4C4C4"/>
<path d="M1180.65 760.5C1182.03 763.981 1183.12 769.15 1182.31 776.212C1181.41 776.212 1180.56 776.263 1179.7 776.314C1179.7 776.212 1179.75 776.11 1179.75 776.007C1180.7 768.228 1178.52 763.213 1176.67 760.449H1180.65V760.5Z" fill="#C4C4C4"/>
<path d="M1141.72 759.733V753.336H1151.34V759.733H1150.63H1145.08H1141.72Z" fill="#C4C4C4"/>
<path d="M1150.35 760.5C1151.73 763.981 1152.82 769.15 1152.01 776.212C1151.11 776.212 1150.26 776.263 1149.4 776.314C1149.4 776.212 1149.45 776.11 1149.45 776.007C1150.4 768.228 1148.22 763.213 1146.37 760.449H1150.35V760.5Z" fill="#C4C4C4"/>
<path d="M1111.46 759.733V753.336H1121.04V759.733H1120.38H1114.78H1111.46Z" fill="#C4C4C4"/>
<path d="M1120.09 760.5C1121.47 763.981 1122.56 769.15 1121.75 776.212C1120.85 776.212 1120 776.263 1119.14 776.314C1119.14 776.212 1119.19 776.11 1119.19 776.007C1120.14 768.228 1117.96 763.213 1116.11 760.449H1120.09V760.5Z" fill="#C4C4C4"/>
<path d="M1131 732.609L1134.51 733.888L1133.32 736.191L1129.81 734.554C1126.64 736.805 1118.29 735.833 1115.02 735.475C1114.73 735.424 1113.69 735.321 1113.69 735.321L1115.78 740.541L1114.35 741.258L1106.96 729.18L1103.26 727.235L1118.15 721.094L1119.57 724.011L1118.53 724.83L1108.47 728.668L1109.04 729.282L1117.82 726.058C1118.86 726.109 1130.9 726.979 1131 732.199C1131 732.353 1131 732.455 1131 732.609Z" fill="#C4C4C4"/>
<path d="M1161.25 732.609L1164.76 733.888L1163.58 736.191L1160.07 734.554C1156.89 736.805 1148.54 735.833 1145.27 735.475C1144.99 735.424 1143.94 735.321 1143.94 735.321L1146.03 740.541L1144.61 741.258L1137.21 729.18L1133.51 727.235L1148.4 721.094L1149.82 724.011L1148.78 724.83L1138.73 728.668L1139.3 729.282L1148.07 726.058C1149.11 726.109 1161.16 726.979 1161.25 732.199C1161.25 732.353 1161.25 732.455 1161.25 732.609Z" fill="#C4C4C4"/>
<path d="M1191.51 732.609L1195.02 733.888L1193.83 736.191L1190.32 734.554C1187.15 736.805 1178.8 735.833 1175.53 735.475C1175.24 735.424 1175.01 735.424 1174.82 735.372L1174.2 735.321L1176.34 740.541L1174.91 741.258L1167.51 729.18L1163.82 727.235L1178.71 721.094L1180.13 724.011L1179.09 724.83L1169.03 728.668L1169.6 729.282L1178.37 726.058C1179.42 726.109 1191.46 726.979 1191.56 732.199C1191.56 732.353 1191.56 732.455 1191.51 732.609Z" fill="#C4C4C4"/>
<path d="M1179.7 736.601C1180.56 736.652 1181.41 736.703 1182.31 736.703C1183.12 743.817 1182.03 748.986 1180.65 752.414H1176.67C1178.56 749.651 1180.7 744.635 1179.75 736.856C1179.7 736.805 1179.7 736.703 1179.7 736.601Z" fill="#C4C4C4"/>
<path d="M1205.17 771.758L1206.59 772.474L1204.46 777.695L1205.07 777.643C1205.26 777.643 1205.5 777.592 1205.78 777.541C1209.01 777.183 1217.4 776.21 1220.58 778.462L1224.09 776.825L1225.27 779.128L1221.76 780.407C1221.76 780.561 1221.76 780.663 1221.76 780.816C1221.62 786.088 1209.58 786.907 1208.58 786.958L1199.81 783.734L1199.24 784.348L1209.29 788.186L1210.34 789.005L1208.91 791.922L1194.02 785.781L1197.72 783.836L1205.17 771.758Z" fill="#C4C4C4"/>
<path d="M1202.27 759.733V753.336H1211.85V759.733H1211.19H1205.59H1202.27Z" fill="#C4C4C4"/>
<path d="M1210.91 760.5C1212.28 763.981 1213.37 769.15 1212.57 776.212C1211.67 776.212 1210.81 776.263 1209.96 776.314C1209.96 776.212 1210.01 776.11 1210.01 776.007C1210.96 768.228 1208.77 763.213 1206.93 760.449H1210.91V760.5Z" fill="#C4C4C4"/>
<path d="M1224.09 736.14L1220.58 734.502C1217.4 736.754 1209.05 735.782 1205.78 735.424C1205.5 735.372 1205.26 735.372 1205.07 735.321L1204.45 735.27L1206.59 740.541L1205.17 741.258L1197.77 729.18L1194.07 727.235L1208.96 721.094L1210.38 724.011L1209.34 724.83L1199.29 728.668L1199.85 729.282L1208.63 726.058C1209.67 726.109 1221.72 726.979 1221.81 732.199C1221.81 732.353 1221.81 732.455 1221.81 732.609L1225.32 733.888L1224.09 736.14Z" fill="#C4C4C4"/>
<path d="M1209.96 736.601C1210.81 736.652 1211.67 736.703 1212.57 736.703C1213.37 743.817 1212.28 748.986 1210.91 752.414H1206.93C1208.82 749.651 1210.96 744.635 1210.01 736.856C1209.96 736.805 1209.96 736.703 1209.96 736.601Z" fill="#C4C4C4"/>
<path d="M1149.4 736.601C1150.26 736.652 1151.11 736.703 1152.01 736.703C1152.82 743.817 1151.73 748.986 1150.35 752.414H1146.37C1148.26 749.651 1150.4 744.635 1149.45 736.856C1149.45 736.805 1149.45 736.703 1149.4 736.601Z" fill="#C4C4C4"/>
<path d="M1119.14 736.601C1120 736.652 1120.85 736.703 1121.75 736.703C1122.56 743.817 1121.47 748.986 1120.09 752.414H1116.11C1118.01 749.651 1120.14 744.635 1119.19 736.856C1119.19 736.805 1119.14 736.703 1119.14 736.601Z" fill="#C4C4C4"/>
<path d="M1219.58 755.842V758.196L1231.91 768.534C1232.1 768.688 1232.25 768.943 1232.25 769.199C1232.29 769.455 1232.2 769.711 1232.06 769.916C1231.87 770.172 1231.53 770.325 1231.2 770.274C1231.06 770.274 1230.87 770.172 1230.78 770.069L1216.69 758.247H1212.52V754.051H1219.54V755.842H1219.58Z" fill="#C4C4C4"/>
<path d="M769 787.001H970.543L979.25 783.224C981.099 787.984 986.885 791.464 993.714 791.464C1000.54 791.464 1006.33 787.984 1008.18 783.224H1008.22H1008.7H1009.79C1011.64 787.984 1017.42 791.464 1024.25 791.464C1031.08 791.464 1036.87 787.984 1038.72 783.224H1039.05H1040.28C1042.13 787.984 1047.92 791.464 1054.75 791.464C1061.57 791.464 1067.36 787.984 1069.21 783.224H1070.77C1072.62 787.984 1078.41 791.464 1085.24 791.464C1093.58 791.464 1100.37 786.295 1100.37 779.949C1100.37 779.335 1100.32 778.721 1100.18 778.106C1100.41 778.209 1100.6 778.26 1100.84 778.362C1100.74 778.874 1100.7 779.437 1100.7 779.949C1100.7 786.295 1107.48 791.464 1115.83 791.464C1124.17 791.464 1130.95 786.295 1130.95 779.949C1130.95 779.846 1130.95 779.795 1130.95 779.693C1131.05 779.693 1131.19 779.642 1131.28 779.642C1131.28 779.744 1131.28 779.846 1131.28 779.949C1131.28 786.295 1138.07 791.464 1146.41 791.464C1154.76 791.464 1161.54 786.295 1161.54 779.949C1161.54 779.335 1161.49 778.772 1161.35 778.158C1161.59 778.106 1161.82 778.106 1162.01 778.106C1161.87 778.721 1161.82 779.335 1161.82 779.949C1161.82 786.295 1168.61 791.464 1176.95 791.464C1185.2 791.464 1191.94 786.397 1192.03 780.154C1192.08 780.205 1192.13 780.256 1192.13 780.307C1192.22 780.307 1192.27 780.307 1192.36 780.307C1192.6 786.5 1199.29 791.464 1207.44 791.464C1215.6 791.464 1222.24 786.551 1222.52 780.409C1223.99 780.768 1225.32 781.331 1226.37 782.047C1227.27 781.331 1228.4 780.87 1229.68 780.87C1231.39 780.87 1232.96 781.689 1233.86 782.968C1235.66 780.921 1239.22 779.488 1243.39 779.488C1245.48 779.488 1247.42 779.846 1249.03 780.461C1249.22 779.284 1252.49 779.437 1252.49 779.437C1252.49 779.437 1254.11 781.177 1254.06 781.331C1254.34 781.279 1254.58 781.279 1254.87 781.279C1255.34 781.279 1255.77 781.331 1256.19 781.433C1259.28 780.665 1263.12 780.154 1267.39 780C1269.14 778.362 1282.49 782.968 1286 782.968C1326.32 791.781 1310.48 800.881 1312 801.443H1280.9H563.502H556L769 787.001Z" fill="#C4C4C4"/>
<rect y="803" width="2500" height="577" fill="white"/>
</g>
<defs>
<clipPath id="clip0">
<rect width="2500" height="960" fill="white"/>
</clipPath>
</defs>
</svg>
