<svg width="2500" height="960" fill="none" xmlns="http://www.w3.org/2000/svg"><g clip-path="url(#clip0)"><mask id="mask0" maskUnits="userSpaceOnUse" x="1714" y="324" width="1056" height="528"><path fill="#C4C4C4" d="M1714 324h1056v528H1714z"/></mask><g mask="url(#mask0)"><path opacity=".66" d="M2804.94 670.213v-20.654h-6.85v-29.908h-29.98v4.826h-35.12v20.264h-4.28v25.752h-12.12v-13.865h-26.51v-11.255h-36.01v-16.888h-10.28v-56.932h-14.09v-50.18h-29.04v38.601h-16.83v41.492h-4.28v50.6h-8.57v15.982h-19.7v-31.524h-8.56v-28.303h-11.14v-6.755h-54.81v6.755h-22.27v15.923h-6v20.15h-8.4V525.717h-9.42v-8.685h-38.55v-20.267h-30.83v61.759h-5.14v100.181h-43.85v-16.83h-50.53v-99.271h-6.86v-28.951h-11.99V449h-20.73v64.653h-9.25v16.887h-5.99v93.604h-17.99v21.05h-75.37V498.215h-5.14v-7.723h-41.12v7.723h-5.99v146.979h-27.41v-61.098h-4.21v-28.948h-14.63v-6.756h-30.84v6.756h-18.84v16.405h-7.71v52.591h-11.99v6.188h-14.56v-39.48h-1.54V568.34h-23.12v19.299h-20.56v3.213h-2.75v39.48h-17.8v40.161H1854V679h962v-8.787h-11.06z" fill="#FAFAFA" fill-opacity=".76"/></g><path opacity=".66" d="M1019.76 649.512v-17.6h-6.97v-25.488h-30.474v4.113h-35.703v17.268h-4.353v21.946h-12.32v-11.815h-26.953v-9.592h-36.614v-14.391h-10.449v-48.517h-14.321v-42.762h-29.521v32.895h-17.113v35.359h-4.353v43.12h-8.709v13.619H761.88v-26.864h-8.708v-24.119h-11.319v-5.756h-55.73v5.756h-22.64v13.569h-6.096v17.171h-8.536V526.376h-9.581v-7.401h-39.185v-17.271h-31.348v52.63h-5.223v85.371h-44.58v-14.342h-51.375v-84.596h-6.967v-24.672H448.4V461h-21.079v55.095h-9.396v14.391h-6.096v79.767h-18.286v17.939h-76.629V502.94h-5.225v-6.581h-41.797v6.581h-6.094v125.252h-27.866v-52.066h-4.284v-24.67h-14.872v-5.757h-31.348v5.757h-19.159v13.98h-7.837v44.817h-12.189v5.273h-14.804v-33.644h-1.557v-19.184h-23.511v16.447H85.474v2.737h-2.798v33.644H64.574v34.225H-27V962.5h1058V649.512h-11.24z" fill="#F0F0F0"/><path d="M938.128 645.77v-21.693h6.893v-31.415h30.166v5.069h35.333v21.284h4.31v27.05h12.2v-14.563h26.67v-11.823h36.24v-17.737h10.35v-59.8h14.17v-52.706h29.22v40.544h16.94v43.582h4.31v53.148h8.62v16.787h19.82v-33.112h8.62v-29.728h11.2v-7.095h55.16v7.095h22.41v16.725h6.03v21.164h8.45V493.998h9.49v-9.122h38.78v-21.287h31.03v64.868h5.17v105.226h44.12v-17.678h50.85V511.736h6.9v-30.409h42.23v17.737h6.03v98.318h18.1v22.11h75.85V465.111h5.17V457h41.37v8.111h6.03v154.381h27.58v-64.175h4.24v-30.406h14.72v-7.096h31.03v7.096h18.96v17.231h7.76v55.24h12.06v6.499h14.65v-41.468h1.54v-23.645h23.28v20.271h20.68v3.374h2.77v41.468h17.91v42.184H2575V968.5H927.001V645.77h11.127z" fill="#EFF1F3"/></g><defs><clipPath id="clip0"><path fill="#fff" d="M0 0h2500v960H0z"/></clipPath></defs></svg>