<svg viewBox="0 0 187 90" fill="none" xmlns="http://www.w3.org/2000/svg">
<path d="M182.405 9.90625C181.259 9.90697 180.155 10.3375 179.312 11.1126C178.468 11.8878 177.946 12.9513 177.848 14.0929C177.053 14.1869 176.311 14.5449 175.743 15.1097C175.175 15.6745 174.812 16.4134 174.713 17.2085H171.968C171.859 17.2085 171.755 17.2516 171.678 17.3283C171.602 17.405 171.559 17.509 171.559 17.6174C171.559 17.7259 171.602 17.8299 171.678 17.9066C171.755 17.9833 171.859 18.0264 171.968 18.0264H175.512V17.559C175.512 17.201 175.582 16.8465 175.719 16.5158C175.856 16.185 176.057 15.8845 176.31 15.6313C176.563 15.3782 176.864 15.1774 177.195 15.0404C177.525 14.9034 177.88 14.8328 178.238 14.8328H178.647V14.4239C178.61 13.9063 178.679 13.3866 178.852 12.8972C179.024 12.4078 179.296 11.9591 179.649 11.5792C180.003 11.1994 180.431 10.8964 180.907 10.6892C181.382 10.4821 181.896 10.3752 182.415 10.3752C182.934 10.3752 183.447 10.4821 183.923 10.6892C184.399 10.8964 184.827 11.1994 185.18 11.5792C185.534 11.9591 185.805 12.4078 185.978 12.8972C186.15 13.3866 186.22 13.9063 186.183 14.4239C186.183 14.5324 186.226 14.6364 186.303 14.7131C186.379 14.7898 186.483 14.8328 186.592 14.8328C186.7 14.8328 186.804 14.7898 186.881 14.7131C186.958 14.6364 187.001 14.5324 187.001 14.4239C186.98 13.2186 186.487 12.0697 185.627 11.2246C184.768 10.3795 183.61 9.90608 182.405 9.90625Z" fill="black"/>
<path d="M159.425 18.0259H169.862C169.971 18.0259 170.075 17.9828 170.151 17.9061C170.228 17.8294 170.271 17.7254 170.271 17.6169C170.271 17.5085 170.228 17.4045 170.151 17.3278C170.075 17.2511 169.971 17.208 169.862 17.208H159.425C159.316 17.208 159.212 17.2511 159.135 17.3278C159.059 17.4045 159.016 17.5085 159.016 17.6169C159.016 17.7254 159.059 17.8294 159.135 17.9061C159.212 17.9828 159.316 18.0259 159.425 18.0259Z" fill="black"/>
<path d="M131.208 29.5158H134.752V29.1069C134.752 28.7489 134.822 28.3944 134.959 28.0637C135.096 27.7329 135.297 27.4324 135.55 27.1792C135.803 26.9261 136.104 26.7253 136.435 26.5883C136.766 26.4513 137.12 26.3808 137.478 26.3808H137.887V25.9719C137.955 25.0193 138.382 24.1281 139.081 23.4775C139.78 22.8269 140.7 22.4653 141.655 22.4653C142.61 22.4653 143.53 22.8269 144.229 23.4775C144.928 24.1281 145.354 25.0193 145.423 25.9719C145.423 26.0803 145.466 26.1843 145.543 26.261C145.619 26.3377 145.723 26.3808 145.832 26.3808C146.555 26.3808 147.248 26.668 147.76 27.1792C148.271 27.6905 148.558 28.3839 148.558 29.1069C148.589 29.32 148.589 29.5364 148.558 29.7495H143.748C143.64 29.7495 143.536 29.7926 143.459 29.8693C143.382 29.9459 143.339 30.05 143.339 30.1584C143.339 30.2669 143.382 30.3709 143.459 30.4476C143.536 30.5243 143.64 30.5673 143.748 30.5673H148.149C147.9 30.956 147.558 31.2758 147.153 31.497C146.748 31.7182 146.293 31.8338 145.832 31.833C145.725 31.8378 145.624 31.8824 145.548 31.9581C145.472 32.0338 145.428 32.135 145.423 32.242C145.423 32.3504 145.466 32.4544 145.543 32.5311C145.619 32.6078 145.723 32.6509 145.832 32.6509C146.514 32.6515 147.182 32.4553 147.755 32.0857C148.329 31.7161 148.783 31.1889 149.064 30.5673H151.012C151.065 30.5674 151.117 30.5567 151.165 30.5359C151.214 30.5152 151.258 30.4847 151.294 30.4465C151.331 30.4082 151.359 30.363 151.377 30.3134C151.396 30.2639 151.404 30.2112 151.401 30.1584C151.401 30.0533 151.361 29.9521 151.288 29.8759C151.216 29.7998 151.117 29.7545 151.012 29.7495H149.259C149.28 29.5358 149.28 29.3206 149.259 29.1069C149.255 28.2374 148.931 27.3999 148.349 26.7536C147.768 26.1073 146.969 25.6974 146.105 25.6019C146.029 24.4424 145.515 23.3551 144.667 22.5607C143.819 21.7663 142.7 21.3242 141.538 21.3242C140.376 21.3242 139.258 21.7663 138.41 22.5607C137.562 23.3551 137.048 24.4424 136.972 25.6019C136.178 25.6917 135.437 26.0458 134.868 26.6073C134.3 27.1688 133.936 27.9051 133.837 28.698H131.208C131.099 28.698 130.995 28.7411 130.919 28.8178C130.842 28.8944 130.799 28.9985 130.799 29.1069C130.799 29.2154 130.842 29.3194 130.919 29.3961C130.995 29.4727 131.099 29.5158 131.208 29.5158Z" fill="black"/>
<path d="M118.669 28.6953C118.56 28.6953 118.456 28.7384 118.38 28.8151C118.303 28.8918 118.26 28.9958 118.26 29.1042C118.26 29.2127 118.303 29.3167 118.38 29.3934C118.456 29.4701 118.56 29.5132 118.669 29.5132H129.126C129.179 29.5132 129.231 29.5026 129.279 29.4818C129.328 29.461 129.372 29.4306 129.408 29.3923C129.445 29.3541 129.473 29.3088 129.491 29.2593C129.51 29.2098 129.518 29.157 129.515 29.1042C129.515 28.9991 129.475 28.8979 129.402 28.8218C129.33 28.7456 129.231 28.7003 129.126 28.6953H118.669Z" fill="black"/>
<path d="M60.0359 8.62109H65.6636V8.21216C65.6636 7.768 65.84 7.34203 66.1541 7.02796C66.4681 6.71389 66.8941 6.53745 67.3382 6.53745H67.7472V6.12851C67.7217 5.89209 67.7463 5.65297 67.8193 5.42668C67.8924 5.2004 68.0123 4.99202 68.1711 4.81511C68.33 4.6382 68.5243 4.49672 68.7415 4.39986C68.9587 4.30301 69.1938 4.25296 69.4316 4.25296C69.6693 4.25296 69.9045 4.30301 70.1216 4.39986C70.3388 4.49672 70.5331 4.6382 70.692 4.81511C70.8509 4.99202 70.9707 5.2004 71.0438 5.42668C71.1168 5.65297 71.1414 5.89209 71.116 6.12851C71.1207 6.23544 71.1653 6.33671 71.241 6.41239C71.3167 6.48808 71.418 6.53269 71.5249 6.53745C71.6334 6.53745 71.7374 6.49436 71.8141 6.41767C71.8907 6.34098 71.9338 6.23697 71.9338 6.12851C71.9577 5.48564 71.7321 4.85843 71.3042 4.37807C70.8763 3.89771 70.2792 3.6014 69.6379 3.55109C68.9966 3.50079 68.3606 3.7004 67.8631 4.10818C67.3655 4.51595 67.0449 5.10031 66.9682 5.73904C66.4469 5.82543 65.9657 6.07279 65.592 6.44646C65.2184 6.82012 64.971 7.30135 64.8846 7.82269H60.0359C59.9274 7.82269 59.8234 7.86577 59.7467 7.94246C59.67 8.01916 59.627 8.12317 59.627 8.23163C59.632 8.33667 59.6772 8.43576 59.7534 8.50828C59.8296 8.58081 59.9307 8.62121 60.0359 8.62109Z" fill="black"/>
<path d="M55.8503 8.62256H57.9339C58.0424 8.62256 58.1464 8.57947 58.2231 8.50278C58.2998 8.42609 58.3429 8.32208 58.3429 8.21362C58.3429 8.10517 58.2998 8.00115 58.2231 7.92446C58.1464 7.84777 58.0424 7.80469 57.9339 7.80469H55.8503C55.7434 7.80945 55.6421 7.85406 55.5665 7.92974C55.4908 8.00542 55.4462 8.1067 55.4414 8.21362C55.4414 8.32208 55.4845 8.42609 55.5612 8.50278C55.6379 8.57947 55.7419 8.62256 55.8503 8.62256Z" fill="black"/>
<path d="M143.749 6.53662H156.289C156.396 6.53186 156.498 6.48725 156.573 6.41157C156.649 6.33588 156.694 6.23461 156.698 6.12768C156.698 6.01923 156.655 5.91522 156.578 5.83853C156.502 5.76184 156.398 5.71875 156.289 5.71875H143.749C143.64 5.71875 143.536 5.76184 143.46 5.83853C143.383 5.91522 143.34 6.01923 143.34 6.12768C143.34 6.23614 143.383 6.34016 143.46 6.41685C143.536 6.49354 143.64 6.53662 143.749 6.53662Z" fill="black"/>
<path d="M73.6081 1.29897C73.9533 1.29739 74.2939 1.37778 74.602 1.53352C74.91 1.68926 75.1767 1.91591 75.3802 2.19482H75.7501C75.9567 1.91929 76.2241 1.69511 76.5315 1.53974C76.8388 1.38436 77.1778 1.30197 77.5222 1.29897C77.6306 1.29897 77.7346 1.25588 77.8113 1.17918C77.888 1.10248 77.9311 0.998459 77.9311 0.889991C77.9312 0.83716 77.9205 0.784865 77.8997 0.736293C77.8789 0.68772 77.8485 0.643884 77.8102 0.607449C77.772 0.571013 77.7267 0.542742 77.6772 0.524353C77.6277 0.505965 77.5749 0.497846 77.5222 0.500487C76.7442 0.49296 75.995 0.794089 75.4386 1.33792C74.8727 0.796486 74.1186 0.496202 73.3355 0.500487C73.2322 0.500487 73.1331 0.541524 73.0601 0.61457C72.9871 0.687615 72.946 0.786689 72.946 0.889991C72.897 0.9776 72.8838 1.08074 72.909 1.17791C72.9342 1.27508 72.9959 1.35877 73.0813 1.41152C73.1667 1.46427 73.2691 1.48201 73.3673 1.46104C73.4655 1.44007 73.5517 1.38201 73.6081 1.29897Z" fill="black"/>
<path d="M80.9306 5.48178C81.2731 5.48395 81.6106 5.56396 81.9176 5.71574C82.2245 5.86752 82.493 6.08712 82.7026 6.35791H83.0726C83.2802 6.08493 83.5482 5.86375 83.8557 5.71174C84.1631 5.55973 84.5017 5.48102 84.8446 5.48178C84.8983 5.48178 84.9515 5.47121 85.0011 5.45066C85.0507 5.43011 85.0958 5.4 85.1338 5.36203C85.1718 5.32407 85.2019 5.27899 85.2224 5.22939C85.243 5.17978 85.2536 5.12662 85.2536 5.07292C85.2488 4.96602 85.2042 4.86477 85.1285 4.7891C85.0528 4.71343 84.9516 4.66882 84.8446 4.66406C84.0634 4.66964 83.3128 4.96844 82.7416 5.50125C82.1795 4.96635 81.434 4.6668 80.658 4.66406C80.551 4.66882 80.4498 4.71343 80.3741 4.7891C80.2984 4.86477 80.2538 4.96602 80.249 5.07292C80.2217 5.16044 80.2246 5.25459 80.2573 5.34026C80.2899 5.42593 80.3504 5.49815 80.429 5.54531C80.5076 5.59248 80.5998 5.61186 80.6908 5.60034C80.7818 5.58881 80.8662 5.54706 80.9306 5.48178Z" fill="black"/>
<path d="M116.585 8.61976C116.924 8.62199 117.259 8.70216 117.563 8.85409C117.867 9.00602 118.132 9.22566 118.337 9.49609H118.844C119.049 9.22566 119.314 9.00602 119.618 8.85409C119.922 8.70216 120.256 8.62199 120.596 8.61976C120.705 8.61976 120.809 8.57667 120.885 8.49997C120.962 8.42328 121.005 8.31926 121.005 8.2108C121.011 8.13214 120.993 8.05351 120.955 7.98441C120.917 7.91531 120.86 7.85867 120.791 7.82132C120.016 7.82795 119.271 8.12702 118.707 8.6587C118.133 8.11783 117.373 7.81806 116.585 7.82132C116.476 7.82132 116.372 7.8644 116.296 7.9411C116.219 8.01779 116.176 8.12181 116.176 8.23027C116.181 8.33532 116.226 8.43441 116.302 8.50694C116.378 8.57947 116.48 8.61987 116.585 8.61976Z" fill="black"/>
<path d="M125.988 9.76815C126.328 9.77038 126.662 9.85055 126.966 10.0025C127.27 10.1544 127.535 10.3741 127.741 10.6445H127.935C128.141 10.3741 128.406 10.1544 128.71 10.0025C129.014 9.85055 129.348 9.77038 129.688 9.76815C129.796 9.76815 129.9 9.72506 129.977 9.64836C130.054 9.57166 130.097 9.46764 130.097 9.35917C130.097 9.25071 130.054 9.14668 129.977 9.06998C129.9 8.99329 129.796 8.9502 129.688 8.9502C128.913 8.95683 128.169 9.25591 127.604 9.78762C127.04 9.25591 126.296 8.95683 125.521 8.9502C125.412 8.9502 125.308 8.99329 125.232 9.06998C125.155 9.14668 125.112 9.25071 125.112 9.35917C125.058 9.47539 125.052 9.60839 125.096 9.72891C125.139 9.84944 125.229 9.94762 125.345 10.0018C125.462 10.0561 125.595 10.0619 125.715 10.0181C125.836 9.97428 125.934 9.88437 125.988 9.76815Z" fill="black"/>
<path d="M121.803 12.8053C122.146 12.8089 122.483 12.8895 122.79 13.0412C123.096 13.1929 123.365 13.4118 123.576 13.6816H123.77C123.978 13.4086 124.246 13.1873 124.553 13.0353C124.861 12.8832 125.199 12.8045 125.542 12.8053C125.647 12.8003 125.746 12.755 125.819 12.6788C125.892 12.6026 125.932 12.5015 125.932 12.3963C125.934 12.3435 125.926 12.2908 125.908 12.2412C125.89 12.1917 125.861 12.1464 125.825 12.1082C125.788 12.0699 125.745 12.0395 125.696 12.0187C125.647 11.9979 125.595 11.9872 125.542 11.9873C124.76 11.989 124.008 12.2885 123.439 12.8247C122.877 12.2897 122.132 11.99 121.356 11.9873C121.247 11.9873 121.143 12.0304 121.066 12.1071C120.99 12.1838 120.947 12.2878 120.947 12.3963C120.892 12.5099 120.886 12.6404 120.928 12.7591C120.97 12.8778 121.057 12.975 121.171 13.0292C121.284 13.0835 121.415 13.0903 121.533 13.0483C121.652 13.0063 121.749 12.9189 121.803 12.8053Z" fill="black"/>
<path d="M162.443 88.3423C161.976 88.3423 161.742 88.0891 161.372 87.6607C161.192 87.3774 160.945 87.1424 160.653 86.9761C160.361 86.8098 160.033 86.7173 159.697 86.7065C159.36 86.719 159.029 86.8122 158.735 86.9782C158.44 87.1441 158.189 87.3782 158.003 87.6607C157.653 88.0891 157.419 88.3423 156.952 88.3423C156.484 88.3423 156.251 88.0891 155.881 87.6607C155.7 87.3774 155.453 87.1424 155.162 86.9761C154.87 86.8098 154.542 86.7173 154.206 86.7065C153.868 86.719 153.538 86.8122 153.243 86.9782C152.949 87.1441 152.698 87.3782 152.512 87.6607C152.161 88.0891 151.928 88.3423 151.46 88.3423C150.993 88.3423 150.759 88.0891 150.389 87.6607C150.209 87.3774 149.962 87.1424 149.67 86.9761C149.378 86.8098 149.05 86.7173 148.715 86.7065C148.377 86.719 148.047 86.8122 147.752 86.9782C147.457 87.1441 147.207 87.3782 147.021 87.6607C146.67 88.0891 146.436 88.3423 145.969 88.3423C145.502 88.3423 145.268 88.0891 144.898 87.6607C144.718 87.3774 144.471 87.1424 144.179 86.9761C143.887 86.8098 143.559 86.7173 143.223 86.7065C142.885 86.719 142.555 86.8122 142.261 86.9782C141.966 87.1441 141.715 87.3782 141.529 87.6607C141.179 88.0891 140.945 88.3423 140.478 88.3423C140.01 88.3423 139.777 88.0891 139.407 87.6607C139.226 87.3774 138.979 87.1424 138.688 86.9761C138.396 86.8098 138.068 86.7173 137.732 86.7065C137.394 86.719 137.064 86.8122 136.769 86.9782C136.475 87.1441 136.224 87.3782 136.038 87.6607C135.687 88.0891 135.454 88.3423 134.986 88.3423C134.519 88.3423 134.285 88.0891 133.915 87.6607C133.735 87.3774 133.488 87.1424 133.196 86.9761C132.904 86.8098 132.576 86.7173 132.241 86.7065C131.899 86.7159 131.565 86.8076 131.267 86.9738C130.969 87.1399 130.715 87.3755 130.527 87.6607C130.177 88.0891 129.943 88.3423 129.475 88.3423C129.008 88.3423 128.774 88.0891 128.404 87.6607C128.224 87.3774 127.977 87.1424 127.685 86.9761C127.394 86.8098 127.066 86.7173 126.73 86.7065C126.392 86.719 126.062 86.8122 125.767 86.9782C125.472 87.1441 125.222 87.3782 125.036 87.6607C124.685 88.0891 124.451 88.3423 123.984 88.3423C123.517 88.3423 123.283 88.0891 122.913 87.6607C122.733 87.3774 122.486 87.1424 122.194 86.9761C121.902 86.8098 121.574 86.7173 121.238 86.7065C120.9 86.719 120.57 86.8122 120.276 86.9782C119.981 87.1441 119.73 87.3782 119.544 87.6607C119.194 88.0891 118.96 88.3423 118.493 88.3423C118.025 88.3423 117.792 88.0891 117.422 87.6607C117.241 87.3774 116.994 87.1424 116.703 86.9761C116.411 86.8098 116.083 86.7173 115.747 86.7065C115.409 86.719 115.079 86.8122 114.784 86.9782C114.49 87.1441 114.239 87.3782 114.053 87.6607C113.702 88.0891 113.469 88.3423 113.001 88.3423C112.534 88.3423 112.3 88.0891 111.93 87.6607C111.75 87.3774 111.503 87.1424 111.211 86.9761C110.919 86.8098 110.591 86.7173 110.256 86.7065C109.918 86.719 109.588 86.8122 109.293 86.9782C108.998 87.1441 108.748 87.3782 108.562 87.6607C108.211 88.0891 107.977 88.3423 107.51 88.3423C107.043 88.3423 106.809 88.0891 106.439 87.6607C106.259 87.3774 106.012 87.1424 105.72 86.9761C105.428 86.8098 105.1 86.7173 104.764 86.7065C104.426 86.719 104.096 86.8122 103.802 86.9782C103.507 87.1441 103.256 87.3782 103.07 87.6607C102.72 88.0891 102.486 88.3423 102.019 88.3423C101.551 88.3423 101.318 88.0891 100.948 87.6607C100.767 87.3774 100.52 87.1424 100.229 86.9761C99.9367 86.8098 99.6087 86.7173 99.273 86.7065C98.935 86.719 98.6049 86.8122 98.3102 86.9782C98.0155 87.1441 97.7648 87.3782 97.5788 87.6607C97.2283 88.0891 96.9947 88.3423 96.5273 88.3423C96.06 88.3423 95.8263 88.0891 95.4563 87.6607C95.2839 87.3701 95.0388 87.1294 94.7452 86.9622C94.4516 86.795 94.1195 86.707 93.7816 86.707C93.4437 86.707 93.1117 86.795 92.818 86.9622C92.5244 87.1294 92.2794 87.3701 92.1069 87.6607C91.737 88.0891 91.5033 88.3423 91.0359 88.3423C90.5686 88.3423 90.3349 88.0891 89.9649 87.6607C89.7925 87.3701 89.5474 87.1294 89.2538 86.9622C88.9602 86.795 88.6281 86.707 88.2903 86.707C87.9524 86.707 87.6203 86.795 87.3267 86.9622C87.0331 87.1294 86.788 87.3701 86.6156 87.6607C86.2456 88.0891 86.0119 88.3423 85.5446 88.3423C85.0772 88.3423 84.8435 88.0891 84.493 87.6607C84.3071 87.3782 84.0563 87.1441 83.7616 86.9782C83.4669 86.8122 83.1369 86.719 82.7989 86.7065C82.4632 86.7173 82.1352 86.8098 81.8433 86.9761C81.5515 87.1424 81.3047 87.3774 81.1242 87.6607C80.7542 88.0891 80.5206 88.3423 80.0532 88.3423C79.5859 88.3423 79.3522 88.0891 79.0017 87.6607C78.8157 87.3782 78.565 87.1441 78.2703 86.9782C77.9756 86.8122 77.6455 86.719 77.3075 86.7065C76.9718 86.7173 76.6438 86.8098 76.352 86.9761C76.0601 87.1424 75.8133 87.3774 75.6329 87.6607C75.2629 88.0891 75.0487 88.3423 74.5618 88.3423C74.075 88.3423 73.8608 88.0891 73.5103 87.6607C73.3244 87.3782 73.0736 87.1441 72.7789 86.9782C72.4842 86.8122 72.1541 86.719 71.8162 86.7065C71.4838 86.7204 71.1597 86.8144 70.8715 86.9805C70.5833 87.1467 70.3395 87.38 70.161 87.6607C69.791 88.0891 69.5768 88.3423 69.09 88.3423C68.6031 88.3423 68.3889 88.0891 68.0384 87.6607C67.8525 87.3782 67.6017 87.1441 67.307 86.9782C67.0123 86.8122 66.6822 86.719 66.3443 86.7065C66.0086 86.7173 65.6805 86.8098 65.3887 86.9761C65.0969 87.1424 64.85 87.3774 64.6696 87.6607C64.2996 88.0891 64.0854 88.3423 63.5986 88.3423C63.1118 88.3423 62.8976 88.0891 62.547 87.6607C62.3611 87.3782 62.1103 87.1441 61.8157 86.9782C61.521 86.8122 61.1909 86.719 60.8529 86.7065C60.5172 86.7173 60.1892 86.8098 59.8974 86.9761C59.6055 87.1424 59.3587 87.3774 59.1782 87.6607C58.8082 88.0891 58.594 88.3423 58.1072 88.3423C57.6204 88.3423 57.4062 88.0891 57.0557 87.6607C56.8697 87.3782 56.619 87.1441 56.3243 86.9782C56.0296 86.8122 55.6995 86.719 55.3615 86.7065C55.0258 86.7173 54.6978 86.8098 54.406 86.9761C54.1142 87.1424 53.8673 87.3774 53.6869 87.6607C53.3169 88.0891 53.1027 88.3423 52.6159 88.3423C52.129 88.3423 51.9148 88.0891 51.5643 87.6607C51.3784 87.3782 51.1276 87.1441 50.8329 86.9782C50.5382 86.8122 50.2082 86.719 49.8702 86.7065C49.5345 86.7173 49.2065 86.8098 48.9146 86.9761C48.6228 87.1424 48.3759 87.3774 48.1955 87.6607C47.8255 88.0891 47.6113 88.3423 47.1245 88.3423C46.6377 88.3423 46.4235 88.0891 46.0729 87.6607C45.9018 87.3656 45.6561 87.1206 45.3605 86.9503C45.0648 86.7801 44.7297 86.6904 44.3885 86.6904C44.0474 86.6904 43.7122 86.7801 43.4166 86.9503C43.121 87.1206 42.8753 87.3656 42.7041 87.6607C42.3341 88.0891 42.1199 88.3423 41.6331 88.3423C41.1463 88.3423 40.9321 88.0891 40.5816 87.6607C40.4104 87.3656 40.1647 87.1206 39.8691 86.9503C39.5735 86.7801 39.2383 86.6904 38.8972 86.6904C38.556 86.6904 38.2209 86.7801 37.9253 86.9503C37.6296 87.1206 37.3839 87.3656 37.2128 87.6607C36.8623 88.0891 36.6286 88.3423 36.1612 88.3423C35.6939 88.3423 35.4407 88.0891 35.0902 87.6607C34.919 87.3656 34.6733 87.1206 34.3777 86.9503C34.0821 86.7801 33.747 86.6904 33.4058 86.6904C33.0647 86.6904 32.7295 86.7801 32.4339 86.9503C32.1383 87.1206 31.8926 87.3656 31.7214 87.6607C31.3709 88.0891 31.1372 88.3423 30.6699 88.3423C30.2025 88.3423 29.9688 88.0891 29.5989 87.6607C29.4184 87.3774 29.1716 87.1424 28.8797 86.9761C28.5879 86.8098 28.2599 86.7173 27.9242 86.7065C27.5862 86.719 27.2561 86.8122 26.9614 86.9782C26.6667 87.1441 26.416 87.3782 26.23 87.6607C25.8795 88.0891 25.6458 88.3423 25.1785 88.3423C24.7111 88.3423 24.4775 88.0891 24.1075 87.6607C23.927 87.3774 23.6802 87.1424 23.3884 86.9761C23.0965 86.8098 22.7685 86.7173 22.4328 86.7065C22.0948 86.719 21.7647 86.8122 21.4701 86.9782C21.1754 87.1441 20.9246 87.3782 20.7387 87.6607C20.3882 88.0891 20.1545 88.3423 19.6871 88.3423C19.2198 88.3423 18.9861 88.0891 18.6161 87.6607C18.4357 87.3774 18.1888 87.1424 17.897 86.9761C17.6052 86.8098 17.2772 86.7173 16.9414 86.7065C16.6035 86.719 16.2734 86.8122 15.9787 86.9782C15.684 87.1441 15.4332 87.3782 15.2473 87.6607C14.8968 88.0891 14.6631 88.3423 14.1958 88.3423C13.7284 88.3423 13.4947 88.0891 13.1248 87.6607C12.9443 87.3774 12.6975 87.1424 12.4056 86.9761C12.1138 86.8098 11.7858 86.7173 11.4501 86.7065C11.1188 86.7251 10.7965 86.8211 10.5091 86.9868C10.2216 87.1525 9.977 87.3833 9.79488 87.6607C9.44437 88.0891 9.21069 88.3423 8.74334 88.3423C8.27599 88.3423 8.04232 88.0891 7.67233 87.6607C7.48294 87.3636 7.22067 87.12 6.91049 86.9529C6.60031 86.7859 6.25254 86.7011 5.9003 86.7065C5.56232 86.719 5.23223 86.8122 4.93754 86.9782C4.64285 87.1441 4.39209 87.3782 4.20615 87.6607C3.85564 88.0891 3.62196 88.3423 3.15461 88.3423C2.68726 88.3423 2.45359 88.0891 2.0836 87.6607C1.90316 87.3774 1.65631 87.1424 1.36448 86.9761C1.07264 86.8098 0.744639 86.7173 0.408932 86.7065C0.300476 86.7065 0.196463 86.7495 0.119773 86.8262C0.0430835 86.9029 0 87.007 0 87.1154C0 87.2239 0.0430835 87.3279 0.119773 87.4046C0.196463 87.4813 0.300476 87.5244 0.408932 87.5244C0.876282 87.5244 1.10996 87.7581 1.46047 88.1865C1.64641 88.469 1.89717 88.703 2.19186 88.869C2.48655 89.035 2.81663 89.1282 3.15461 89.1407C3.49032 89.1299 3.81833 89.0374 4.11016 88.8711C4.40199 88.7048 4.64884 88.4698 4.82929 88.1865C5.19927 87.7581 5.41347 87.5244 5.9003 87.5244C6.38712 87.5244 6.60132 87.7581 6.95184 88.1865C7.13777 88.469 7.38854 88.703 7.68322 88.869C7.97791 89.035 8.308 89.1282 8.64598 89.1407C8.98169 89.1299 9.30969 89.0374 9.60153 88.8711C9.89336 88.7048 10.1402 88.4698 10.3207 88.1865C10.6906 87.7581 10.9048 87.5244 11.3917 87.5244C11.8785 87.5244 12.0927 87.7581 12.4432 88.1865C12.6291 88.469 12.8799 88.703 13.1746 88.869C13.4693 89.035 13.7994 89.1282 14.1373 89.1407C14.4731 89.1299 14.8011 89.0374 15.0929 88.8711C15.3847 88.7048 15.6316 88.4698 15.812 88.1865C16.182 87.7581 16.3962 87.5244 16.883 87.5244C17.3699 87.5244 17.5841 87.7581 17.9346 88.1865C18.1205 88.469 18.3713 88.703 18.666 88.869C18.9606 89.035 19.2907 89.1282 19.6287 89.1407C19.9644 89.1299 20.2924 89.0374 20.5843 88.8711C20.8761 88.7048 21.1229 88.4698 21.3034 88.1865C21.6734 87.7581 21.8876 87.5244 22.3744 87.5244C22.8612 87.5244 23.0754 87.7581 23.4259 88.1865C23.6119 88.469 23.8626 88.703 24.1573 88.869C24.452 89.035 24.7821 89.1282 25.1201 89.1407C25.4558 89.1299 25.7838 89.0374 26.0756 88.8711C26.3675 88.7048 26.6143 88.4698 26.7947 88.1865C27.1647 87.7581 27.3789 87.5244 27.8658 87.5244C28.3526 87.5244 28.5668 87.7581 28.9173 88.1865C29.1032 88.469 29.354 88.703 29.6487 88.869C29.9434 89.035 30.2735 89.1282 30.6114 89.1407C30.9472 89.1299 31.2752 89.0374 31.567 88.8711C31.8588 88.7048 32.1057 88.4698 32.2861 88.1865C32.6561 87.7581 32.8703 87.5244 33.3571 87.5244C33.844 87.5244 34.0582 87.7581 34.4087 88.1865C34.5798 88.4816 34.8255 88.7266 35.1212 88.8968C35.4168 89.0671 35.7519 89.1567 36.0931 89.1567C36.4342 89.1567 36.7694 89.0671 37.065 88.8968C37.3606 88.7266 37.6063 88.4816 37.7775 88.1865C38.128 87.7581 38.3617 87.5244 38.829 87.5244C39.2964 87.5244 39.5495 87.7581 39.9 88.1865C40.0712 88.4816 40.3169 88.7266 40.6125 88.8968C40.9081 89.0671 41.2433 89.1567 41.5844 89.1567C41.9256 89.1567 42.2607 89.0671 42.5564 88.8968C42.852 88.7266 43.0977 88.4816 43.2688 88.1865C43.6194 87.7581 43.853 87.5244 44.3204 87.5244C44.7877 87.5244 45.0214 87.7581 45.3914 88.1865C45.5718 88.4698 45.8187 88.7048 46.1105 88.8711C46.4024 89.0374 46.7304 89.1299 47.0661 89.1407C47.404 89.1282 47.7341 89.035 48.0288 88.869C48.3235 88.703 48.5743 88.469 48.7602 88.1865C49.1107 87.7581 49.3444 87.5244 49.8117 87.5244C50.2791 87.5244 50.5128 87.7581 50.8828 88.1865C51.0632 88.4698 51.3101 88.7048 51.6019 88.8711C51.8937 89.0374 52.2217 89.1299 52.5574 89.1407C52.8954 89.1282 53.2255 89.035 53.5202 88.869C53.8149 88.703 54.0656 88.469 54.2516 88.1865C54.6021 87.7581 54.8358 87.5244 55.3031 87.5244C55.7705 87.5244 56.0041 87.7581 56.3741 88.1865C56.5546 88.4698 56.8014 88.7048 57.0933 88.8711C57.3851 89.0374 57.7131 89.1299 58.0488 89.1407C58.3868 89.1282 58.7169 89.035 59.0116 88.869C59.3062 88.703 59.557 88.469 59.7429 88.1865C60.0935 87.7581 60.3271 87.5244 60.7945 87.5244C61.2618 87.5244 61.4955 87.7581 61.8655 88.1865C62.0459 88.4698 62.2928 88.7048 62.5846 88.8711C62.8764 89.0374 63.2045 89.1299 63.5402 89.1407C63.8781 89.1282 64.2082 89.035 64.5029 88.869C64.7976 88.703 65.0484 88.469 65.2343 88.1865C65.5848 87.7581 65.8185 87.5244 66.2858 87.5244C66.7532 87.5244 66.9869 87.7581 67.3569 88.1865C67.5373 88.4698 67.7841 88.7048 68.076 88.8711C68.3678 89.0374 68.6958 89.1299 69.0315 89.1407C69.3695 89.1282 69.6996 89.035 69.9943 88.869C70.289 88.703 70.5397 88.469 70.7257 88.1865C71.0762 87.7581 71.3099 87.5244 71.7772 87.5244C72.2446 87.5244 72.4782 87.7581 72.8482 88.1865C73.0287 88.4698 73.2755 88.7048 73.5673 88.8711C73.8592 89.0374 74.1872 89.1299 74.5229 89.1407C74.8609 89.1282 75.191 89.035 75.4856 88.869C75.7803 88.703 76.0311 88.469 76.217 88.1865C76.5676 87.7581 76.8012 87.5244 77.2686 87.5244C77.7359 87.5244 77.9696 87.7581 78.3396 88.1865C78.52 88.4698 78.7669 88.7048 79.0587 88.8711C79.3505 89.0374 79.6786 89.1299 80.0143 89.1407C80.3522 89.1282 80.6823 89.035 80.977 88.869C81.2717 88.703 81.5225 88.469 81.7084 88.1865C82.0589 87.7581 82.2926 87.5244 82.7599 87.5244C83.2273 87.5244 83.461 87.7581 83.831 88.1865C84.0034 88.4771 84.2484 88.7178 84.5421 88.885C84.8357 89.0522 85.1677 89.1401 85.5056 89.1401C85.8435 89.1401 86.1756 89.0522 86.4692 88.885C86.7628 88.7178 87.0079 88.4771 87.1803 88.1865C87.5503 87.7581 87.784 87.5244 88.2513 87.5244C88.7187 87.5244 88.9523 87.7581 89.3223 88.1865C89.4947 88.4771 89.7398 88.7178 90.0334 88.885C90.327 89.0522 90.6591 89.1401 90.997 89.1401C91.3349 89.1401 91.6669 89.0522 91.9606 88.885C92.2542 88.7178 92.4992 88.4771 92.6717 88.1865C93.0416 87.7581 93.2753 87.5244 93.7427 87.5244C94.21 87.5244 94.4437 87.7581 94.8137 88.1865C94.9861 88.4771 95.2312 88.7178 95.5248 88.885C95.8184 89.0522 96.1505 89.1401 96.4884 89.1401C96.8262 89.1401 97.1583 89.0522 97.4519 88.885C97.7456 88.7178 97.9906 88.4771 98.163 88.1865C98.533 87.7581 98.7667 87.5244 99.234 87.5244C99.7014 87.5244 99.9351 87.7581 100.286 88.1865C100.472 88.469 100.722 88.703 101.017 88.869C101.312 89.035 101.642 89.1282 101.98 89.1407C102.315 89.1299 102.643 89.0374 102.935 88.8711C103.227 88.7048 103.474 88.4698 103.654 88.1865C104.024 87.7581 104.258 87.5244 104.725 87.5244C105.193 87.5244 105.426 87.7581 105.777 88.1865C105.963 88.469 106.214 88.703 106.508 88.869C106.803 89.035 107.133 89.1282 107.471 89.1407C107.807 89.1299 108.135 89.0374 108.427 88.8711C108.718 88.7048 108.965 88.4698 109.146 88.1865C109.516 87.7581 109.73 87.5244 110.217 87.5244C110.704 87.5244 110.918 87.7581 111.268 88.1865C111.454 88.469 111.705 88.703 112 88.869C112.294 89.035 112.624 89.1282 112.962 89.1407C113.298 89.1299 113.626 89.0374 113.918 88.8711C114.21 88.7048 114.457 88.4698 114.637 88.1865C115.007 87.7581 115.221 87.5244 115.708 87.5244C116.195 87.5244 116.409 87.7581 116.76 88.1865C116.946 88.469 117.196 88.703 117.491 88.869C117.786 89.035 118.116 89.1282 118.454 89.1407C118.79 89.1299 119.118 89.0374 119.409 88.8711C119.701 88.7048 119.948 88.4698 120.128 88.1865C120.498 87.7581 120.713 87.5244 121.2 87.5244C121.686 87.5244 121.901 87.7581 122.251 88.1865C122.437 88.469 122.688 88.703 122.982 88.869C123.277 89.035 123.607 89.1282 123.945 89.1407C124.281 89.1299 124.609 89.0374 124.901 88.8711C125.193 88.7048 125.439 88.4698 125.62 88.1865C125.99 87.7581 126.204 87.5244 126.691 87.5244C127.178 87.5244 127.392 87.7581 127.742 88.1865C127.928 88.469 128.179 88.703 128.474 88.869C128.768 89.035 129.099 89.1282 129.437 89.1407C129.772 89.1299 130.1 89.0374 130.392 88.8711C130.684 88.7048 130.931 88.4698 131.111 88.1865C131.481 87.7581 131.695 87.5244 132.182 87.5244C132.669 87.5244 132.883 87.7581 133.234 88.1865C133.42 88.469 133.67 88.703 133.965 88.869C134.26 89.035 134.59 89.1282 134.928 89.1407C135.264 89.1299 135.592 89.0374 135.883 88.8711C136.175 88.7048 136.422 88.4698 136.603 88.1865C136.973 87.7581 137.187 87.5244 137.674 87.5244C138.16 87.5244 138.375 87.7581 138.725 88.1865C138.911 88.469 139.162 88.703 139.457 88.869C139.751 89.035 140.081 89.1282 140.419 89.1407C140.755 89.1299 141.083 89.0374 141.375 88.8711C141.667 88.7048 141.914 88.4698 142.094 88.1865C142.464 87.7581 142.678 87.5244 143.165 87.5244C143.652 87.5244 143.866 87.7581 144.217 88.1865C144.402 88.469 144.653 88.703 144.948 88.869C145.243 89.035 145.573 89.1282 145.911 89.1407C146.246 89.1299 146.574 89.0374 146.866 88.8711C147.158 88.7048 147.405 88.4698 147.585 88.1865C147.955 87.7581 148.17 87.5244 148.656 87.5244C149.143 87.5244 149.357 87.7581 149.708 88.1865C149.894 88.469 150.145 88.703 150.439 88.869C150.734 89.035 151.064 89.1282 151.402 89.1407C151.738 89.1299 152.066 89.0374 152.358 88.8711C152.649 88.7048 152.896 88.4698 153.077 88.1865C153.447 87.7581 153.661 87.5244 154.148 87.5244C154.635 87.5244 154.849 87.7581 155.199 88.1865C155.385 88.469 155.636 88.703 155.931 88.869C156.225 89.035 156.555 89.1282 156.893 89.1407C157.229 89.1299 157.557 89.0374 157.849 88.8711C158.141 88.7048 158.388 88.4698 158.568 88.1865C158.938 87.7581 159.152 87.5244 159.639 87.5244C160.126 87.5244 160.34 87.7581 160.691 88.1865C160.877 88.469 161.127 88.703 161.422 88.869C161.717 89.035 162.047 89.1282 162.385 89.1407C162.445 89.154 162.507 89.1537 162.566 89.1398C162.626 89.1259 162.682 89.0988 162.729 89.0605C162.777 89.0222 162.816 88.9736 162.842 88.9184C162.869 88.8632 162.882 88.8027 162.882 88.7415C162.882 88.6803 162.869 88.6198 162.842 88.5646C162.816 88.5094 162.777 88.4608 162.729 88.4225C162.682 88.3842 162.626 88.3571 162.566 88.3432C162.507 88.3293 162.445 88.329 162.385 88.3423H162.443Z" fill="black"/>
<path d="M80.9304 45.7148C80.8235 45.7196 80.7222 45.7642 80.6465 45.8399C80.5709 45.9156 80.5262 46.0168 80.5215 46.1238V51.362C80.5265 51.4671 80.5718 51.5661 80.6479 51.6387C80.7241 51.7112 80.8252 51.7516 80.9304 51.7515C80.9832 51.7541 81.0359 51.746 81.0854 51.7276C81.1349 51.7092 81.1802 51.6809 81.2185 51.6445C81.2567 51.6081 81.2871 51.5642 81.3079 51.5157C81.3287 51.4671 81.3394 51.4148 81.3393 51.362V46.1238C81.3393 46.0153 81.2962 45.9113 81.2196 45.8346C81.1429 45.7579 81.0389 45.7148 80.9304 45.7148Z" fill="black"/>
<path d="M84.0652 45.7148C83.9583 45.7196 83.857 45.7642 83.7813 45.8399C83.7056 45.9156 83.661 46.0168 83.6562 46.1238V51.362C83.6613 51.4671 83.7065 51.5661 83.7827 51.6387C83.8588 51.7112 83.96 51.7516 84.0652 51.7515C84.1179 51.7541 84.1707 51.746 84.2202 51.7276C84.2697 51.7092 84.315 51.6809 84.3532 51.6445C84.3915 51.6081 84.4219 51.5642 84.4427 51.5157C84.4635 51.4671 84.4742 51.4148 84.4741 51.362V46.1238C84.4741 46.0153 84.431 45.9113 84.3543 45.8346C84.2776 45.7579 84.1736 45.7148 84.0652 45.7148Z" fill="black"/>
<path d="M87.1999 45.7148C87.093 45.7196 86.9917 45.7642 86.9161 45.8399C86.8404 45.9156 86.7958 46.0168 86.791 46.1238V51.362C86.796 51.4671 86.8413 51.5661 86.9175 51.6387C86.9936 51.7112 87.0948 51.7516 87.1999 51.7515C87.2527 51.7541 87.3055 51.746 87.355 51.7276C87.4045 51.7092 87.4498 51.6809 87.488 51.6445C87.5263 51.6081 87.5567 51.5642 87.5775 51.5157C87.5983 51.4671 87.6089 51.4148 87.6089 51.362V46.1238C87.6089 46.0153 87.5658 45.9113 87.4891 45.8346C87.4124 45.7579 87.3084 45.7148 87.1999 45.7148Z" fill="black"/>
<path d="M90.3367 45.7148C90.2282 45.7148 90.1242 45.7579 90.0475 45.8346C89.9708 45.9113 89.9277 46.0153 89.9277 46.1237V51.3616C89.9277 51.4701 89.9708 51.5741 90.0475 51.6507C90.1242 51.7274 90.2282 51.7705 90.3367 51.7705C90.4451 51.7705 90.5492 51.7274 90.6258 51.6507C90.7025 51.5741 90.7456 51.4701 90.7456 51.3616V46.1237C90.7456 46.0153 90.7025 45.9113 90.6258 45.8346C90.5492 45.7579 90.4451 45.7148 90.3367 45.7148Z" fill="black"/>
<path d="M93.528 45.7148C93.4196 45.7148 93.3156 45.7579 93.2389 45.8346C93.1622 45.9113 93.1191 46.0153 93.1191 46.1237V51.3616C93.1191 51.4701 93.1622 51.5741 93.2389 51.6507C93.3156 51.7274 93.4196 51.7705 93.528 51.7705C93.6365 51.7705 93.7405 51.7274 93.8172 51.6507C93.8939 51.5741 93.937 51.4701 93.937 51.3616V46.1237C93.937 46.0153 93.8939 45.9113 93.8172 45.8346C93.7405 45.7579 93.6365 45.7148 93.528 45.7148Z" fill="black"/>
<path d="M96.6062 45.7148C96.5525 45.7148 96.4993 45.7254 96.4497 45.746C96.4001 45.7665 96.355 45.7966 96.317 45.8346C96.2791 45.8726 96.2489 45.9177 96.2284 45.9673C96.2078 46.0169 96.1973 46.07 96.1973 46.1237V51.3616C96.1973 51.4701 96.2404 51.5741 96.317 51.6507C96.3937 51.7274 96.4977 51.7705 96.6062 51.7705C96.7147 51.7705 96.8187 51.7274 96.8954 51.6507C96.9721 51.5741 97.0151 51.4701 97.0151 51.3616V46.1237C97.0151 46.0153 96.9721 45.9113 96.8954 45.8346C96.8187 45.7579 96.7147 45.7148 96.6062 45.7148Z" fill="black"/>
<path d="M99.741 45.7148C99.6325 45.7148 99.5285 45.7579 99.4518 45.8346C99.3751 45.9113 99.332 46.0153 99.332 46.1237V51.3616C99.332 51.4701 99.3751 51.5741 99.4518 51.6507C99.5285 51.7274 99.6325 51.7705 99.741 51.7705C99.8494 51.7705 99.9534 51.7274 100.03 51.6507C100.107 51.5741 100.15 51.4701 100.15 51.3616V46.1237C100.15 46.0153 100.107 45.9113 100.03 45.8346C99.9534 45.7579 99.8494 45.7148 99.741 45.7148Z" fill="black"/>
<path d="M108.094 51.7515C108.147 51.7541 108.2 51.746 108.249 51.7276C108.299 51.7092 108.344 51.6809 108.383 51.6445C108.421 51.6081 108.451 51.5642 108.472 51.5157C108.493 51.4671 108.503 51.4148 108.503 51.362V46.1238C108.503 46.0153 108.46 45.9113 108.384 45.8346C108.307 45.7579 108.203 45.7148 108.094 45.7148C107.988 45.7196 107.886 45.7642 107.811 45.8399C107.735 45.9156 107.69 46.0168 107.686 46.1238V51.362C107.691 51.4671 107.736 51.5661 107.812 51.6387C107.888 51.7112 107.989 51.7516 108.094 51.7515Z" fill="black"/>
<path d="M111.229 51.7515C111.282 51.7541 111.335 51.746 111.384 51.7276C111.434 51.7092 111.479 51.6809 111.517 51.6445C111.556 51.6081 111.586 51.5642 111.607 51.5157C111.628 51.4671 111.638 51.4148 111.638 51.362V46.1238C111.638 46.0153 111.595 45.9113 111.518 45.8346C111.442 45.7579 111.338 45.7148 111.229 45.7148C111.122 45.7196 111.021 45.7642 110.945 45.8399C110.87 45.9156 110.825 46.0168 110.82 46.1238V51.362C110.825 51.4671 110.871 51.5661 110.947 51.6387C111.023 51.7112 111.124 51.7516 111.229 51.7515Z" fill="black"/>
<path d="M114.366 51.7515C114.419 51.7541 114.471 51.746 114.521 51.7276C114.571 51.7092 114.616 51.6809 114.654 51.6445C114.692 51.6081 114.723 51.5642 114.744 51.5157C114.764 51.4671 114.775 51.4148 114.775 51.362V46.1238C114.775 46.0153 114.732 45.9113 114.655 45.8346C114.578 45.7579 114.474 45.7148 114.366 45.7148C114.259 45.7196 114.158 45.7642 114.082 45.8399C114.006 45.9156 113.962 46.0168 113.957 46.1238V51.362C113.962 51.4671 114.007 51.5661 114.083 51.6387C114.16 51.7112 114.261 51.7516 114.366 51.7515Z" fill="black"/>
<path d="M117.499 51.7515C117.552 51.7541 117.604 51.746 117.654 51.7276C117.703 51.7092 117.749 51.6809 117.787 51.6445C117.825 51.6081 117.856 51.5642 117.876 51.5157C117.897 51.4671 117.908 51.4148 117.908 51.362V46.1238C117.908 46.0153 117.865 45.9113 117.788 45.8346C117.711 45.7579 117.607 45.7148 117.499 45.7148C117.392 45.7196 117.291 45.7642 117.215 45.8399C117.139 45.9156 117.095 46.0168 117.09 46.1238V51.362C117.095 51.4671 117.14 51.5661 117.216 51.6387C117.292 51.7112 117.394 51.7516 117.499 51.7515Z" fill="black"/>
<path d="M120.635 51.7515C120.688 51.7541 120.741 51.746 120.791 51.7276C120.84 51.7092 120.885 51.6809 120.924 51.6445C120.962 51.6081 120.992 51.5642 121.013 51.5157C121.034 51.4671 121.044 51.4148 121.044 51.362V46.1238C121.044 46.0153 121.001 45.9113 120.925 45.8346C120.848 45.7579 120.744 45.7148 120.635 45.7148C120.529 45.7196 120.427 45.7642 120.352 45.8399C120.276 45.9156 120.231 46.0168 120.227 46.1238V51.362C120.232 51.4671 120.277 51.5661 120.353 51.6387C120.429 51.7112 120.53 51.7516 120.635 51.7515Z" fill="black"/>
<path d="M123.772 51.7515C123.825 51.7541 123.878 51.746 123.927 51.7276C123.977 51.7092 124.022 51.6809 124.06 51.6445C124.099 51.6081 124.129 51.5642 124.15 51.5157C124.171 51.4671 124.181 51.4148 124.181 51.362V46.1238C124.181 46.0153 124.138 45.9113 124.061 45.8346C123.985 45.7579 123.881 45.7148 123.772 45.7148C123.665 45.7196 123.564 45.7642 123.488 45.8399C123.413 45.9156 123.368 46.0168 123.363 46.1238V51.362C123.368 51.4671 123.414 51.5661 123.49 51.6387C123.566 51.7112 123.667 51.7516 123.772 51.7515Z" fill="black"/>
<path d="M126.905 51.7515C126.958 51.7541 127.011 51.746 127.06 51.7276C127.11 51.7092 127.155 51.6809 127.193 51.6445C127.231 51.6081 127.262 51.5642 127.283 51.5157C127.303 51.4671 127.314 51.4148 127.314 51.362V46.1238C127.314 46.0153 127.271 45.9113 127.194 45.8346C127.117 45.7579 127.013 45.7148 126.905 45.7148C126.798 45.7196 126.697 45.7642 126.621 45.8399C126.545 45.9156 126.501 46.0168 126.496 46.1238V51.362C126.501 51.4671 126.546 51.5661 126.623 51.6387C126.699 51.7112 126.8 51.7516 126.905 51.7515Z" fill="black"/>
<path d="M80.9304 34.2256C80.8219 34.2256 80.7179 34.2687 80.6413 34.3454C80.5646 34.422 80.5215 34.5261 80.5215 34.6345V39.8533C80.5215 39.9617 80.5646 40.0657 80.6413 40.1424C80.7179 40.2191 80.8219 40.2622 80.9304 40.2622C81.0389 40.2622 81.1429 40.2191 81.2196 40.1424C81.2962 40.0657 81.3393 39.9617 81.3393 39.8533V34.6345C81.3393 34.5261 81.2962 34.422 81.2196 34.3454C81.1429 34.2687 81.0389 34.2256 80.9304 34.2256Z" fill="black"/>
<path d="M84.0652 34.2256C83.9567 34.2256 83.8527 34.2687 83.776 34.3454C83.6993 34.422 83.6562 34.5261 83.6562 34.6345V39.8533C83.6562 39.9617 83.6993 40.0657 83.776 40.1424C83.8527 40.2191 83.9567 40.2622 84.0652 40.2622C84.1736 40.2622 84.2777 40.2191 84.3543 40.1424C84.431 40.0657 84.4741 39.9617 84.4741 39.8533V34.6345C84.4741 34.5261 84.431 34.422 84.3543 34.3454C84.2777 34.2687 84.1736 34.2256 84.0652 34.2256Z" fill="black"/>
<path d="M87.1999 34.2256C87.0915 34.2256 86.9875 34.2687 86.9108 34.3454C86.8341 34.422 86.791 34.5261 86.791 34.6345V39.8533C86.791 39.9617 86.8341 40.0657 86.9108 40.1424C86.9875 40.2191 87.0915 40.2622 87.1999 40.2622C87.3084 40.2622 87.4124 40.2191 87.4891 40.1424C87.5658 40.0657 87.6089 39.9617 87.6089 39.8533V34.6345C87.6089 34.5261 87.5658 34.422 87.4891 34.3454C87.4124 34.2687 87.3084 34.2256 87.1999 34.2256Z" fill="black"/>
<path d="M90.3367 34.2256C90.2282 34.2256 90.1242 34.2687 90.0475 34.3454C89.9708 34.422 89.9277 34.5261 89.9277 34.6345V39.8533C89.9277 39.9617 89.9708 40.0657 90.0475 40.1424C90.1242 40.2191 90.2282 40.2622 90.3367 40.2622C90.4451 40.2622 90.5492 40.2191 90.6258 40.1424C90.7025 40.0657 90.7456 39.9617 90.7456 39.8533V34.6345C90.7456 34.5261 90.7025 34.422 90.6258 34.3454C90.5492 34.2687 90.4451 34.2256 90.3367 34.2256Z" fill="black"/>
<path d="M93.528 34.2256C93.4196 34.2256 93.3156 34.2687 93.2389 34.3454C93.1622 34.422 93.1191 34.5261 93.1191 34.6345V39.8533C93.1191 39.9617 93.1622 40.0657 93.2389 40.1424C93.3156 40.2191 93.4196 40.2622 93.528 40.2622C93.6365 40.2622 93.7405 40.2191 93.8172 40.1424C93.8939 40.0657 93.937 39.9617 93.937 39.8533V34.6345C93.937 34.5261 93.8939 34.422 93.8172 34.3454C93.7405 34.2687 93.6365 34.2256 93.528 34.2256Z" fill="black"/>
<path d="M96.6062 34.2256C96.5525 34.2256 96.4993 34.2362 96.4497 34.2567C96.4001 34.2773 96.355 34.3074 96.317 34.3454C96.2791 34.3833 96.2489 34.4284 96.2284 34.478C96.2078 34.5276 96.1973 34.5808 96.1973 34.6345V39.8533C96.1973 39.9617 96.2404 40.0657 96.317 40.1424C96.3937 40.2191 96.4977 40.2622 96.6062 40.2622C96.7147 40.2622 96.8187 40.2191 96.8954 40.1424C96.9721 40.0657 97.0151 39.9617 97.0151 39.8533V34.6345C97.0151 34.5261 96.9721 34.422 96.8954 34.3454C96.8187 34.2687 96.7147 34.2256 96.6062 34.2256Z" fill="black"/>
<path d="M99.741 34.2256C99.6325 34.2256 99.5285 34.2687 99.4518 34.3454C99.3751 34.422 99.332 34.5261 99.332 34.6345V39.8533C99.332 39.9617 99.3751 40.0657 99.4518 40.1424C99.5285 40.2191 99.6325 40.2622 99.741 40.2622C99.8494 40.2622 99.9534 40.2191 100.03 40.1424C100.107 40.0657 100.15 39.9617 100.15 39.8533V34.6345C100.15 34.5261 100.107 34.422 100.03 34.3454C99.9534 34.2687 99.8494 34.2256 99.741 34.2256Z" fill="black"/>
<path d="M53.7663 51.7515C53.8715 51.7516 53.9727 51.7112 54.0488 51.6387C54.125 51.5661 54.1703 51.4671 54.1753 51.362V46.1238C54.1705 46.0168 54.1259 45.9156 54.0502 45.8399C53.9745 45.7642 53.8733 45.7196 53.7663 45.7148C53.7126 45.7148 53.6595 45.7254 53.6099 45.746C53.5602 45.7665 53.5152 45.7966 53.4772 45.8346C53.4392 45.8726 53.4091 45.9177 53.3885 45.9673C53.368 46.0169 53.3574 46.0701 53.3574 46.1238V51.362C53.3574 51.4148 53.368 51.4671 53.3888 51.5157C53.4096 51.5642 53.44 51.6081 53.4783 51.6445C53.5165 51.6809 53.5618 51.7092 53.6113 51.7276C53.6608 51.746 53.7136 51.7541 53.7663 51.7515Z" fill="black"/>
<path d="M56.9031 51.7515C57.0082 51.7516 57.1094 51.7112 57.1856 51.6387C57.2617 51.5661 57.307 51.4671 57.312 51.362V46.1238C57.3073 46.0168 57.2626 45.9156 57.187 45.8399C57.1113 45.7642 57.01 45.7196 56.9031 45.7148C56.7946 45.7148 56.6906 45.7579 56.6139 45.8346C56.5372 45.9113 56.4941 46.0153 56.4941 46.1238V51.362C56.4941 51.4148 56.5048 51.4671 56.5255 51.5157C56.5463 51.5642 56.5768 51.6081 56.615 51.6445C56.6533 51.6809 56.6985 51.7092 56.7481 51.7276C56.7976 51.746 56.8503 51.7541 56.9031 51.7515Z" fill="black"/>
<path d="M60.0359 51.7515C60.141 51.7516 60.2422 51.7112 60.3184 51.6387C60.3945 51.5661 60.4398 51.4671 60.4448 51.362V46.1238C60.44 46.0168 60.3954 45.9156 60.3198 45.8399C60.2441 45.7642 60.1428 45.7196 60.0359 45.7148C59.9274 45.7148 59.8234 45.7579 59.7467 45.8346C59.67 45.9113 59.627 46.0153 59.627 46.1238V51.362C59.6269 51.4148 59.6376 51.4671 59.6583 51.5157C59.6791 51.5642 59.7096 51.6081 59.7478 51.6445C59.7861 51.6809 59.8313 51.7092 59.8809 51.7276C59.9304 51.746 59.9831 51.7541 60.0359 51.7515Z" fill="black"/>
<path d="M63.1726 51.7515C63.2778 51.7516 63.3789 51.7112 63.4551 51.6387C63.5312 51.5661 63.5765 51.4671 63.5815 51.362V46.1238C63.5768 46.0168 63.5321 45.9156 63.4565 45.8399C63.3808 45.7642 63.2795 45.7196 63.1726 45.7148C63.0641 45.7148 62.9601 45.7579 62.8834 45.8346C62.8068 45.9113 62.7637 46.0153 62.7637 46.1238V51.362C62.7636 51.4148 62.7743 51.4671 62.7951 51.5157C62.8158 51.5642 62.8463 51.6081 62.8845 51.6445C62.9228 51.6809 62.968 51.7092 63.0176 51.7276C63.0671 51.746 63.1198 51.7541 63.1726 51.7515Z" fill="black"/>
<path d="M66.2663 51.7515C66.3715 51.7516 66.4727 51.7112 66.5488 51.6387C66.625 51.5661 66.6703 51.4671 66.6753 51.362V46.1238C66.6705 46.0168 66.6259 45.9156 66.5502 45.8399C66.4745 45.7642 66.3733 45.7196 66.2663 45.7148C66.1579 45.7148 66.0539 45.7579 65.9772 45.8346C65.9005 45.9113 65.8574 46.0153 65.8574 46.1238V51.362C65.8574 51.4148 65.868 51.4671 65.8888 51.5157C65.9096 51.5642 65.94 51.6081 65.9783 51.6445C66.0165 51.6809 66.0618 51.7092 66.1113 51.7276C66.1608 51.746 66.2136 51.7541 66.2663 51.7515Z" fill="black"/>
<path d="M69.4402 51.7515C69.5454 51.7516 69.6465 51.7112 69.7227 51.6387C69.7988 51.5661 69.8441 51.4671 69.8491 51.362V46.1238C69.8444 46.0168 69.7997 45.9156 69.7241 45.8399C69.6484 45.7642 69.5471 45.7196 69.4402 45.7148C69.3317 45.7148 69.2277 45.7579 69.151 45.8346C69.0743 45.9113 69.0313 46.0153 69.0313 46.1238V51.362C69.0312 51.4148 69.0419 51.4671 69.0627 51.5157C69.0834 51.5642 69.1139 51.6081 69.1521 51.6445C69.1904 51.6809 69.2356 51.7092 69.2852 51.7276C69.3347 51.746 69.3874 51.7541 69.4402 51.7515Z" fill="black"/>
<path d="M72.5769 51.7515C72.6821 51.7516 72.7832 51.7112 72.8594 51.6387C72.9355 51.5661 72.9808 51.4671 72.9858 51.362V46.1238C72.9811 46.0168 72.9365 45.9156 72.8608 45.8399C72.7851 45.7642 72.6838 45.7196 72.5769 45.7148C72.4685 45.7148 72.3644 45.7579 72.2877 45.8346C72.2111 45.9113 72.168 46.0153 72.168 46.1238V51.362C72.1679 51.4148 72.1786 51.4671 72.1994 51.5157C72.2201 51.5642 72.2506 51.6081 72.2888 51.6445C72.3271 51.6809 72.3724 51.7092 72.4219 51.7276C72.4714 51.746 72.5241 51.7541 72.5769 51.7515Z" fill="black"/>
<path d="M163.494 64.2929C163.987 64.289 164.467 64.1396 164.874 63.8634C165.281 63.5871 165.598 63.1965 165.783 62.7407C165.969 62.2849 166.016 61.7843 165.917 61.3021C165.819 60.8198 165.58 60.3775 165.231 60.0309C164.881 59.6842 164.437 59.4487 163.954 59.3541C163.471 59.2595 162.971 59.31 162.517 59.4992C162.062 59.6884 161.674 60.0079 161.401 60.4174C161.128 60.8269 160.982 61.308 160.982 61.8002C160.982 62.1292 161.048 62.4549 161.174 62.7586C161.3 63.0623 161.486 63.338 161.719 63.5697C161.953 63.8014 162.23 63.9847 162.535 64.1088C162.839 64.2329 163.165 64.2955 163.494 64.2929ZM163.494 60.1255C163.83 60.1255 164.159 60.2253 164.438 60.4124C164.717 60.5994 164.934 60.8652 165.061 61.1759C165.189 61.4866 165.221 61.8283 165.154 62.1574C165.088 62.4866 164.924 62.7885 164.685 63.0246C164.446 63.2608 164.143 63.4206 163.813 63.4837C163.483 63.5469 163.142 63.5105 162.833 63.3793C162.523 63.2481 162.26 63.0279 162.076 62.7467C161.893 62.4656 161.796 62.1361 161.8 61.8002C161.805 61.3543 161.986 60.9283 162.303 60.6148C162.62 60.3012 163.048 60.1254 163.494 60.1255Z" fill="black"/>
<path d="M35.3619 56.5032C35.3619 56.3947 35.3188 56.2907 35.2421 56.214C35.1654 56.1373 35.0614 56.0942 34.953 56.0942H15.0906C14.9821 56.0942 14.8781 56.1373 14.8014 56.214C14.7247 56.2907 14.6816 56.3947 14.6816 56.5032C14.6864 56.6101 14.731 56.7114 14.8067 56.7871C14.8824 56.8627 14.9836 56.9074 15.0906 56.9121H34.953C35.0599 56.9074 35.1612 56.8627 35.2368 56.7871C35.3125 56.7114 35.3571 56.6101 35.3619 56.5032Z" fill="black"/>
<path d="M67.3382 64.5269H42.2571C42.1521 64.5319 42.053 64.5771 41.9805 64.6533C41.908 64.7295 41.8676 64.8306 41.8677 64.9358C41.865 64.9886 41.8732 65.0413 41.8915 65.0908C41.9099 65.1403 41.9382 65.1856 41.9746 65.2239C42.0111 65.2621 42.0549 65.2926 42.1035 65.3133C42.152 65.3341 42.2043 65.3448 42.2571 65.3447H67.3382C67.4467 65.3447 67.5507 65.3016 67.6274 65.225C67.7041 65.1483 67.7472 65.0443 67.7472 64.9358C67.7472 64.8273 67.7041 64.7233 67.6274 64.6466C67.5507 64.5699 67.4467 64.5269 67.3382 64.5269Z" fill="black"/>
<path d="M14.9537 37.5196C14.4861 37.5158 14.0279 37.6512 13.6374 37.9086C13.247 38.166 12.942 38.5338 12.7612 38.9651C12.5805 39.3964 12.5322 39.8718 12.6225 40.3306C12.7128 40.7895 12.9376 41.2111 13.2682 41.5418C13.5989 41.8725 14.0206 42.0973 14.4794 42.1876C14.9383 42.2779 15.4136 42.2296 15.845 42.0488C16.2763 41.8681 16.6441 41.5631 16.9015 41.1726C17.1589 40.7822 17.2943 40.324 17.2905 39.8563C17.2854 39.2382 17.0376 38.6468 16.6004 38.2096C16.1633 37.7725 15.5719 37.5247 14.9537 37.5196ZM14.9537 41.4142C14.6487 41.418 14.3494 41.3311 14.0938 41.1644C13.8383 40.9977 13.6381 40.7589 13.5187 40.4781C13.3992 40.1974 13.366 39.8875 13.4231 39.5878C13.4803 39.2881 13.6252 39.0122 13.8396 38.7951C14.0539 38.578 14.328 38.4296 14.6269 38.3686C14.9258 38.3076 15.2361 38.337 15.5184 38.4528C15.8006 38.5686 16.042 38.7658 16.2119 39.0192C16.3819 39.2725 16.4726 39.5707 16.4726 39.8758C16.4676 40.2771 16.3059 40.6605 16.0222 40.9442C15.7384 41.228 15.355 41.3896 14.9537 41.3947V41.4142Z" fill="black"/>
<path d="M20.7585 37.5196C20.2916 37.5196 19.8353 37.6583 19.4474 37.9181C19.0595 38.1779 18.7576 38.547 18.5798 38.9787C18.4021 39.4103 18.3566 39.8851 18.4491 40.3426C18.5416 40.8002 18.7679 41.22 19.0994 41.5487C19.4309 41.8775 19.8525 42.1003 20.3109 42.189C20.7692 42.2777 21.2436 42.2283 21.6738 42.0469C22.1039 41.8656 22.4706 41.5606 22.7271 41.1706C22.9837 40.7806 23.1186 40.3231 23.1147 39.8563C23.1147 39.5478 23.0536 39.2423 22.935 38.9576C22.8163 38.6728 22.6425 38.4143 22.4234 38.1971C22.2044 37.9798 21.9445 37.8081 21.6587 37.6919C21.3729 37.5756 21.067 37.517 20.7585 37.5196ZM20.7585 41.4141C20.3505 41.4141 19.9592 41.252 19.6707 40.9635C19.3822 40.675 19.2201 40.2838 19.2201 39.8758C19.2201 39.4678 19.3822 39.0765 19.6707 38.788C19.9592 38.4995 20.3505 38.3374 20.7585 38.3374C21.1665 38.3374 21.5578 38.4995 21.8463 38.788C22.1348 39.0765 22.2968 39.4678 22.2968 39.8758C22.2968 40.2838 22.1348 40.675 21.8463 40.9635C21.5578 41.252 21.1665 41.4141 20.7585 41.4141Z" fill="black"/>
<path d="M26.5808 37.5196C26.1139 37.5196 25.6576 37.6583 25.2697 37.9181C24.8818 38.1779 24.5798 38.547 24.4021 38.9787C24.2243 39.4103 24.1788 39.8851 24.2713 40.3426C24.3638 40.8002 24.5902 41.22 24.9217 41.5487C25.2531 41.8775 25.6748 42.1003 26.1331 42.189C26.5915 42.2777 27.0658 42.2283 27.496 42.0469C27.9262 41.8656 28.2928 41.5606 28.5494 41.1706C28.8059 40.7806 28.9408 40.3231 28.937 39.8563C28.937 39.5478 28.8759 39.2423 28.7573 38.9576C28.6386 38.6728 28.4647 38.4143 28.2457 38.1971C28.0266 37.9798 27.7667 37.8081 27.481 37.6919C27.1952 37.5756 26.8893 37.517 26.5808 37.5196ZM26.5808 41.4141C26.1728 41.4141 25.7815 41.252 25.493 40.9635C25.2045 40.675 25.0424 40.2838 25.0424 39.8758C25.0424 39.4678 25.2045 39.0765 25.493 38.788C25.7815 38.4995 26.1728 38.3374 26.5808 38.3374C26.9888 38.3374 27.38 38.4995 27.6685 38.788C27.957 39.0765 28.1191 39.4678 28.1191 39.8758C28.1191 40.2838 27.957 40.675 27.6685 40.9635C27.38 41.252 26.9888 41.4141 26.5808 41.4141Z" fill="black"/>
<path d="M32.405 37.5196C31.9381 37.5196 31.4818 37.6583 31.0939 37.9181C30.706 38.1779 30.4041 38.547 30.2263 38.9787C30.0486 39.4103 30.003 39.8851 30.0955 40.3426C30.1881 40.8002 30.4144 41.22 30.7459 41.5487C31.0774 41.8775 31.499 42.1003 31.9573 42.189C32.4157 42.2777 32.89 42.2283 33.3202 42.0469C33.7504 41.8656 34.1171 41.5606 34.3736 41.1706C34.6301 40.7806 34.7651 40.3231 34.7612 39.8563C34.7612 39.5478 34.7001 39.2423 34.5815 38.9576C34.4628 38.6728 34.289 38.4143 34.0699 38.1971C33.8509 37.9798 33.5909 37.8081 33.3052 37.6919C33.0194 37.5756 32.7135 37.517 32.405 37.5196ZM32.405 41.4141C31.997 41.4141 31.6057 41.252 31.3172 40.9635C31.0287 40.675 30.8666 40.2838 30.8666 39.8758C30.8666 39.4678 31.0287 39.0765 31.3172 38.788C31.6057 38.4995 31.997 38.3374 32.405 38.3374C32.813 38.3374 33.2043 38.4995 33.4928 38.788C33.7813 39.0765 33.9433 39.4678 33.9433 39.8758C33.9433 40.2838 33.7813 40.675 33.4928 40.9635C33.2043 41.252 32.813 41.4141 32.405 41.4141Z" fill="black"/>
<path d="M17.7781 59.3076C17.3121 59.3076 16.8565 59.4458 16.4691 59.7048C16.0816 59.9637 15.7796 60.3317 15.6012 60.7623C15.4229 61.1929 15.3762 61.6667 15.4672 62.1238C15.5581 62.5809 15.7825 63.0008 16.112 63.3303C16.4415 63.6599 16.8614 63.8843 17.3184 63.9752C17.7755 64.0662 18.2492 64.0195 18.6798 63.8411C19.1103 63.6628 19.4783 63.3607 19.7372 62.9732C19.9961 62.5857 20.1343 62.1301 20.1343 61.6641C20.1343 61.0391 19.8861 60.4397 19.4442 59.9978C19.0023 59.5559 18.403 59.3076 17.7781 59.3076ZM17.7781 63.2026C17.473 63.2025 17.1748 63.1118 16.9214 62.9419C16.6681 62.7719 16.4709 62.5305 16.3551 62.2482C16.2392 61.966 16.2099 61.6556 16.2709 61.3567C16.3318 61.0577 16.4803 60.7836 16.6974 60.5693C16.9145 60.3549 17.1904 60.2099 17.4901 60.1528C17.7898 60.0956 18.0997 60.1289 18.3804 60.2483C18.6612 60.3678 18.9 60.568 19.0667 60.8235C19.2334 61.0791 19.3203 61.3785 19.3165 61.6835C19.3063 62.0848 19.1397 62.4662 18.8523 62.7463C18.5649 63.0265 18.1794 63.1832 17.7781 63.1831V63.2026Z" fill="black"/>
<path d="M23.6023 59.3076C23.1363 59.3076 22.6807 59.4458 22.2933 59.7048C21.9058 59.9637 21.6038 60.3317 21.4255 60.7623C21.2471 61.1929 21.2005 61.6667 21.2914 62.1238C21.3823 62.5809 21.6067 63.0008 21.9362 63.3303C22.2657 63.6599 22.6856 63.8843 23.1426 63.9752C23.5997 64.0662 24.0735 64.0195 24.504 63.8411C24.9345 63.6628 25.3025 63.3607 25.5614 62.9732C25.8204 62.5857 25.9585 62.1301 25.9585 61.6641C25.9585 61.0391 25.7103 60.4397 25.2684 59.9978C24.8265 59.5559 24.2272 59.3076 23.6023 59.3076ZM23.6023 63.2026C23.2972 63.2025 22.999 63.1118 22.7457 62.9419C22.4923 62.7719 22.2951 62.5305 22.1793 62.2482C22.0634 61.966 22.0341 61.6556 22.0951 61.3567C22.1561 61.0577 22.3045 60.7836 22.5216 60.5693C22.7387 60.3549 23.0146 60.2099 23.3143 60.1528C23.614 60.0956 23.9239 60.1289 24.2046 60.2483C24.4854 60.3678 24.7243 60.568 24.8909 60.8235C25.0576 61.0791 25.1445 61.3785 25.1407 61.6835C25.1305 62.0848 24.964 62.4662 24.6766 62.7463C24.3892 63.0265 24.0037 63.1832 23.6023 63.1831V63.2026Z" fill="black"/>
<path d="M35.9871 68.558C35.8821 68.563 35.783 68.6083 35.7105 68.6845C35.638 68.7606 35.5976 68.8618 35.5977 68.9669C35.597 69.3032 35.4862 69.6299 35.2822 69.8971C35.0783 70.1644 34.7924 70.3575 34.4683 70.4469V66.7471H35.4808C35.5893 66.7471 35.6933 66.704 35.77 66.6273C35.8467 66.5506 35.8898 66.4466 35.8898 66.3381C35.8898 66.2297 35.8467 66.1257 35.77 66.049C35.6933 65.9723 35.5893 65.9292 35.4808 65.9292H34.4683V64.7024C34.4632 64.5974 34.418 64.4983 34.3418 64.4258C34.2657 64.3533 34.1645 64.3129 34.0593 64.313C34.0066 64.3103 33.9538 64.3185 33.9043 64.3369C33.8548 64.3552 33.8095 64.3835 33.7713 64.4199C33.733 64.4564 33.7026 64.5002 33.6818 64.5488C33.661 64.5973 33.6503 64.6496 33.6504 64.7024V65.9292H32.6378C32.5293 65.9292 32.4253 65.9723 32.3486 66.049C32.2719 66.1257 32.2289 66.2297 32.2289 66.3381C32.2289 66.4466 32.2719 66.5506 32.3486 66.6273C32.4253 66.704 32.5293 66.7471 32.6378 66.7471H33.6504V70.4469C33.3263 70.3575 33.0404 70.1644 32.8364 69.8971C32.6324 69.6299 32.5216 69.3032 32.521 68.9669C32.521 68.8585 32.4779 68.7545 32.4012 68.6778C32.3245 68.6011 32.2205 68.558 32.112 68.558C32.0051 68.5628 31.9038 68.6074 31.8281 68.6831C31.7525 68.7588 31.7079 68.86 31.7031 68.9669C31.6734 69.2931 31.7119 69.6218 31.8163 69.9321C31.9207 70.2425 32.0887 70.5277 32.3095 70.7695C32.5303 71.0114 32.799 71.2045 33.0986 71.3367C33.3983 71.4689 33.7221 71.5371 34.0496 71.5371C34.377 71.5371 34.7009 71.4689 35.0005 71.3367C35.3001 71.2045 35.5689 71.0114 35.7897 70.7695C36.0105 70.5277 36.1784 70.2425 36.2828 69.9321C36.3872 69.6218 36.4258 69.2931 36.3961 68.9669C36.3961 68.8585 36.353 68.7545 36.2763 68.6778C36.1996 68.6011 36.0956 68.558 35.9871 68.558Z" fill="black"/>
<path d="M38.2253 37.5196C37.7584 37.5196 37.3021 37.6583 36.9142 37.9181C36.5263 38.1779 36.2244 38.547 36.0466 38.9787C35.8689 39.4103 35.8234 39.8851 35.9159 40.3426C36.0084 40.8002 36.2347 41.22 36.5662 41.5487C36.8977 41.8775 37.3193 42.1003 37.7777 42.189C38.236 42.2777 38.7104 42.2283 39.1405 42.0469C39.5707 41.8656 39.9374 41.5606 40.1939 41.1706C40.4505 40.7806 40.5854 40.3231 40.5815 39.8563C40.5815 39.5478 40.5204 39.2423 40.4018 38.9576C40.2831 38.6728 40.1093 38.4143 39.8902 38.1971C39.6712 37.9798 39.4113 37.8081 39.1255 37.6919C38.8397 37.5756 38.5338 37.517 38.2253 37.5196ZM38.2253 41.4141C37.8173 41.4141 37.426 41.252 37.1375 40.9635C36.849 40.675 36.6869 40.2838 36.6869 39.8758C36.6869 39.4678 36.849 39.0765 37.1375 38.788C37.426 38.4995 37.8173 38.3374 38.2253 38.3374C38.6333 38.3374 39.0246 38.4995 39.3131 38.788C39.6016 39.0765 39.7636 39.4678 39.7636 39.8758C39.7636 40.2838 39.6016 40.675 39.3131 40.9635C39.0246 41.252 38.6333 41.4141 38.2253 41.4141Z" fill="black"/>
<path d="M145.716 64.2925H78.8464C78.738 64.2925 78.634 64.3356 78.5573 64.4123C78.4806 64.4889 78.4375 64.593 78.4375 64.7014C78.4375 64.8099 78.4806 64.9139 78.5573 64.9906C78.634 65.0673 78.738 65.1104 78.8464 65.1104H145.716C145.825 65.1104 145.929 65.0673 146.006 64.9906C146.082 64.9139 146.125 64.8099 146.125 64.7014C146.125 64.593 146.082 64.4889 146.006 64.4123C145.929 64.3356 145.825 64.2925 145.716 64.2925Z" fill="black"/>
<path d="M118.32 69.5928C118.283 69.5513 118.238 69.5182 118.188 69.4954C118.137 69.4727 118.083 69.4609 118.027 69.4609C117.972 69.4609 117.918 69.4727 117.867 69.4954C117.817 69.5182 117.772 69.5513 117.735 69.5928L116.178 71.1504C116.104 71.2297 116.062 71.334 116.062 71.4424C116.062 71.5508 116.104 71.6552 116.178 71.7345C116.215 71.7732 116.261 71.8036 116.311 71.8237C116.362 71.8438 116.415 71.8532 116.47 71.8513C116.572 71.8499 116.67 71.8079 116.742 71.7345L118.32 70.1574C118.392 70.0813 118.433 69.9802 118.433 69.8751C118.433 69.7699 118.392 69.6688 118.32 69.5928Z" fill="black"/>
<path d="M120.402 69.5918C120.367 69.5508 120.324 69.5179 120.275 69.4953C120.226 69.4726 120.173 69.4609 120.119 69.4609C120.065 69.4609 120.012 69.4726 119.964 69.4953C119.915 69.5179 119.872 69.5508 119.837 69.5918L118.26 71.1495C118.186 71.2288 118.145 71.3332 118.145 71.4416C118.145 71.55 118.186 71.6543 118.26 71.7336C118.339 71.8075 118.443 71.8486 118.552 71.8486C118.66 71.8486 118.764 71.8075 118.844 71.7336L120.402 70.1565C120.474 70.0804 120.515 69.9793 120.515 69.8742C120.515 69.769 120.474 69.6679 120.402 69.5918Z" fill="black"/>
<path d="M122.504 69.5928C122.468 69.5513 122.423 69.5182 122.373 69.4954C122.322 69.4727 122.268 69.4609 122.212 69.4609C122.157 69.4609 122.102 69.4727 122.052 69.4954C122.002 69.5182 121.957 69.5513 121.92 69.5928L120.362 71.1504C120.321 71.1869 120.288 71.2319 120.265 71.2822C120.242 71.3326 120.23 71.3872 120.23 71.4424C120.23 71.4977 120.242 71.5523 120.265 71.6027C120.288 71.653 120.321 71.698 120.362 71.7345C120.434 71.8079 120.532 71.8499 120.635 71.8513C120.689 71.8532 120.743 71.8438 120.793 71.8237C120.844 71.8036 120.889 71.7732 120.927 71.7345L122.504 70.1574C122.577 70.0813 122.617 69.9802 122.617 69.8751C122.617 69.7699 122.577 69.6688 122.504 69.5928Z" fill="black"/>
<path d="M124.685 69.5928C124.648 69.5513 124.603 69.5182 124.553 69.4954C124.503 69.4727 124.448 69.4609 124.393 69.4609C124.337 69.4609 124.283 69.4727 124.232 69.4954C124.182 69.5182 124.137 69.5513 124.101 69.5928L122.543 71.1504C122.469 71.2297 122.428 71.334 122.428 71.4424C122.428 71.5508 122.469 71.6552 122.543 71.7345C122.581 71.7732 122.626 71.8036 122.676 71.8237C122.727 71.8438 122.781 71.8532 122.835 71.8513C122.938 71.8499 123.036 71.8079 123.107 71.7345L124.685 70.1379C124.752 70.063 124.789 69.9659 124.789 69.8654C124.789 69.7648 124.752 69.6677 124.685 69.5928Z" fill="black"/>
<path d="M126.108 69.5885L124.531 71.1461C124.457 71.2254 124.416 71.3298 124.416 71.4382C124.416 71.5465 124.457 71.6509 124.531 71.7302C124.61 71.8041 124.715 71.8452 124.823 71.8452C124.932 71.8452 125.036 71.8041 125.115 71.7302L126.634 70.1336C126.707 70.0576 126.747 69.9565 126.747 69.8513C126.747 69.7462 126.707 69.6451 126.634 69.569C126.598 69.5355 126.557 69.5094 126.511 69.4923C126.465 69.4751 126.416 69.4672 126.367 69.469C126.318 69.4708 126.27 69.4823 126.226 69.5028C126.181 69.5233 126.141 69.5524 126.108 69.5885Z" fill="black"/>
<path d="M172.902 54.828H151.949C151.84 54.828 151.736 54.8711 151.659 54.9478C151.583 55.0245 151.54 55.1285 151.54 55.237C151.54 55.3454 151.583 55.4494 151.659 55.5261C151.736 55.6028 151.84 55.6459 151.949 55.6459H172.493V56.1717H150.761L148.054 59.4042C147.983 59.3439 147.894 59.3095 147.801 59.3068H131.502V42.5796H104.24V31.1879H76.3547V42.6769H49.0926V49.9987H42.6666V33.1352H37.0584L41.5956 28.6175V22.7366H22.8236V16.8948C22.8236 16.7863 22.7806 16.6823 22.7039 16.6056C22.6272 16.5289 22.5232 16.4858 22.4147 16.4858C22.3063 16.4858 22.2022 16.5289 22.1256 16.6056C22.0489 16.6823 22.0058 16.7863 22.0058 16.8948V22.7366H19.6885V9.55346C19.6885 9.44501 19.6454 9.341 19.5687 9.26431C19.492 9.18762 19.388 9.14453 19.2796 9.14453C19.1711 9.14453 19.0671 9.18762 18.9904 9.26431C18.9137 9.341 18.8706 9.44501 18.8706 9.55346V22.7366H12.6004V33.1352H10.5168V44.6437H9.46522V49.8624H8.41368V56.1327H6.33008V56.5027C6.33008 61.7604 10.0689 66.7844 13.7103 71.6526C16.9039 75.9756 19.9222 80.065 19.9222 83.7648C19.8285 83.8797 19.7093 83.9713 19.5741 84.0321C19.4389 84.0929 19.2914 84.1214 19.1433 84.1153C18.6759 84.1153 18.4422 83.8816 18.0917 83.4532C17.9206 83.1581 17.6749 82.9132 17.3792 82.7429C17.0836 82.5727 16.7485 82.4831 16.4073 82.4831C16.0662 82.4831 15.731 82.5727 15.4354 82.7429C15.1398 82.9132 14.8941 83.1581 14.7229 83.4532C14.3724 83.8816 14.1387 84.1153 13.6519 84.1153C13.1651 84.1153 12.9509 83.8816 12.6004 83.4532C12.4163 83.1733 12.1686 82.9409 11.8776 82.7751C11.5865 82.6093 11.2603 82.5147 10.9257 82.4991C10.8729 82.4964 10.8202 82.5045 10.7707 82.5229C10.7211 82.5413 10.6759 82.5696 10.6376 82.606C10.5994 82.6425 10.5689 82.6863 10.5482 82.7349C10.5274 82.7834 10.5167 82.8357 10.5168 82.8885C10.5168 82.997 10.5598 83.101 10.6365 83.1777C10.7132 83.2544 10.8172 83.2975 10.9257 83.2975C11.393 83.2975 11.6267 83.5506 11.9772 83.979C12.1613 84.2589 12.4089 84.4913 12.7 84.6572C12.9911 84.823 13.3173 84.9176 13.6519 84.9332C13.9899 84.9206 14.32 84.8275 14.6147 84.6615C14.9093 84.4955 15.1601 84.2615 15.346 83.979C15.6966 83.5506 15.9302 83.2975 16.3976 83.2975C16.8649 83.2975 17.0986 83.5506 17.4686 83.979C17.649 84.2623 17.8959 84.4973 18.1877 84.6636C18.4796 84.8298 18.8076 84.9224 19.1433 84.9332C19.4812 84.9206 19.8113 84.8275 20.106 84.6615C20.4007 84.4955 20.6515 84.2615 20.8374 83.979C21.1879 83.5506 21.4216 83.2975 21.8889 83.2975C22.3563 83.2975 22.59 83.5506 22.96 83.979C23.1404 84.2623 23.3873 84.4973 23.6791 84.6636C23.9709 84.8298 24.2989 84.9224 24.6346 84.9332C24.9726 84.9206 25.3027 84.8275 25.5974 84.6615C25.8921 84.4955 26.1428 84.2615 26.3288 83.979C26.6793 83.5506 26.913 83.2975 27.3803 83.2975C27.8477 83.2975 28.0813 83.5506 28.4513 83.979C28.6318 84.2623 28.8786 84.4973 29.1705 84.6636C29.4623 84.8298 29.7903 84.9224 30.126 84.9332C30.464 84.9206 30.7941 84.8275 31.0888 84.6615C31.3834 84.4955 31.6342 84.2615 31.8201 83.979C32.1707 83.5506 32.4043 83.2975 32.8717 83.2975C33.339 83.2975 33.5727 83.5506 33.9427 83.979C34.1231 84.2623 34.37 84.4973 34.6618 84.6636C34.9537 84.8298 35.2817 84.9224 35.6174 84.9332C35.9553 84.9206 36.2854 84.8275 36.5801 84.6615C36.8748 84.4955 37.1256 84.2615 37.3115 83.979C37.662 83.5506 37.8957 83.2975 38.363 83.2975C38.8304 83.2975 39.0641 83.5506 39.4341 83.979C39.6145 84.2623 39.8613 84.4973 40.1532 84.6636C40.445 84.8298 40.773 84.9224 41.1087 84.9332C41.4467 84.9206 41.7768 84.8275 42.0715 84.6615C42.3662 84.4955 42.6169 84.2615 42.8029 83.979C43.1534 83.5506 43.3871 83.2975 43.8544 83.2975C44.3218 83.2975 44.5554 83.5506 44.9254 83.979C45.1059 84.2623 45.3527 84.4973 45.6446 84.6636C45.9364 84.8298 46.2644 84.9224 46.6001 84.9332C46.9381 84.9206 47.2682 84.8275 47.5629 84.6615C47.8575 84.4955 48.1083 84.2615 48.2942 83.979C48.6448 83.5506 48.8784 83.2975 49.3458 83.2975C49.8131 83.2975 50.0468 83.5506 50.4168 83.979C50.5972 84.2623 50.8441 84.4973 51.1359 84.6636C51.4278 84.8298 51.7558 84.9224 52.0915 84.9332C52.4294 84.9206 52.7595 84.8275 53.0542 84.6615C53.3489 84.4955 53.5997 84.2615 53.7856 83.979C54.1361 83.5506 54.3698 83.2975 54.8371 83.2975C55.3045 83.2975 55.5382 83.5506 55.9082 83.979C56.0886 84.2623 56.3354 84.4973 56.6273 84.6636C56.9191 84.8298 57.2471 84.9224 57.5828 84.9332C57.9208 84.9206 58.2509 84.8275 58.5456 84.6615C58.8403 84.4955 59.091 84.2615 59.277 83.979C59.6275 83.5506 59.8612 83.2975 60.3285 83.2975C60.7959 83.2975 61.0295 83.5506 61.3995 83.979C61.5719 84.2696 61.817 84.5103 62.1106 84.6775C62.4042 84.8447 62.7363 84.9326 63.0742 84.9326C63.4121 84.9326 63.7442 84.8447 64.0378 84.6775C64.3314 84.5103 64.5765 84.2696 64.7489 83.979C65.1189 83.5506 65.3525 83.2975 65.8199 83.2975C66.2872 83.2975 66.5209 83.5506 66.8909 83.979C67.0633 84.2696 67.3084 84.5103 67.602 84.6775C67.8956 84.8447 68.2277 84.9326 68.5656 84.9326C68.9034 84.9326 69.2355 84.8447 69.5291 84.6775C69.8228 84.5103 70.0678 84.2696 70.2402 83.979C70.6102 83.5506 70.8439 83.2975 71.3112 83.2975C71.7786 83.2975 72.0123 83.5506 72.3822 83.979C72.5547 84.2696 72.7997 84.5103 73.0934 84.6775C73.387 84.8447 73.719 84.9326 74.0569 84.9326C74.3948 84.9326 74.7269 84.8447 75.0205 84.6775C75.3141 84.5103 75.5592 84.2696 75.7316 83.979C76.1016 83.5506 76.3353 83.2975 76.8026 83.2975C77.27 83.2975 77.5036 83.5506 77.8541 83.979C78.0401 84.2615 78.2908 84.4955 78.5855 84.6615C78.8802 84.8275 79.2103 84.9206 79.5483 84.9332C79.884 84.9224 80.212 84.8298 80.5038 84.6636C80.7957 84.4973 81.0425 84.2623 81.223 83.979C81.5929 83.5506 81.8266 83.2975 82.294 83.2975C82.7613 83.2975 82.995 83.5506 83.3455 83.979C83.5314 84.2615 83.7822 84.4955 84.0769 84.6615C84.3716 84.8275 84.7017 84.9206 85.0397 84.9332C85.3754 84.9224 85.7034 84.8298 85.9952 84.6636C86.287 84.4973 86.5339 84.2623 86.7143 83.979C87.0843 83.5506 87.2985 83.2975 87.7853 83.2975C88.2722 83.2975 88.4864 83.5506 88.8369 83.979C89.0228 84.2615 89.2736 84.4955 89.5683 84.6615C89.863 84.8275 90.193 84.9206 90.531 84.9332C90.8667 84.9224 91.1947 84.8298 91.4866 84.6636C91.7784 84.4973 92.0253 84.2623 92.2057 83.979C92.5757 83.5506 92.7899 83.2975 93.2767 83.2975C93.7635 83.2975 93.9777 83.5506 94.3282 83.979C94.5142 84.2615 94.7649 84.4955 95.0596 84.6615C95.3543 84.8275 95.6844 84.9206 96.0224 84.9332C96.3581 84.9224 96.6861 84.8298 96.9779 84.6636C97.2698 84.4973 97.5166 84.2623 97.6971 83.979C98.067 83.5506 98.2812 83.2975 98.7681 83.2975C99.2549 83.2975 99.4691 83.5506 99.8196 83.979C100.006 84.2615 100.256 84.4955 100.551 84.6615C100.846 84.8275 101.176 84.9206 101.514 84.9332C101.849 84.9224 102.177 84.8298 102.469 84.6636C102.761 84.4973 103.008 84.2623 103.188 83.979C103.558 83.5506 103.773 83.2975 104.259 83.2975C104.746 83.2975 104.96 83.5506 105.311 83.979C105.497 84.2615 105.748 84.4955 106.042 84.6615C106.337 84.8275 106.667 84.9206 107.005 84.9332C107.341 84.9224 107.669 84.8298 107.961 84.6636C108.253 84.4973 108.499 84.2623 108.68 83.979C109.05 83.5506 109.264 83.2975 109.751 83.2975C110.238 83.2975 110.452 83.5506 110.802 83.979C110.974 84.2741 111.219 84.519 111.515 84.6893C111.81 84.8596 112.146 84.9492 112.487 84.9492C112.828 84.9492 113.163 84.8596 113.459 84.6893C113.754 84.519 114 84.2741 114.171 83.979C114.541 83.5506 114.755 83.2975 115.242 83.2975C115.729 83.2975 115.943 83.5506 116.294 83.979C116.465 84.2741 116.711 84.519 117.006 84.6893C117.302 84.8596 117.637 84.9492 117.978 84.9492C118.319 84.9492 118.654 84.8596 118.95 84.6893C119.246 84.519 119.491 84.2741 119.663 83.979C120.013 83.5506 120.247 83.2975 120.714 83.2975C121.181 83.2975 121.435 83.5506 121.785 83.979C121.956 84.2741 122.202 84.519 122.498 84.6893C122.793 84.8596 123.128 84.9492 123.469 84.9492C123.811 84.9492 124.146 84.8596 124.441 84.6893C124.737 84.519 124.983 84.2741 125.154 83.979C125.504 83.5506 125.738 83.2975 126.205 83.2975C126.673 83.2975 126.906 83.5506 127.276 83.979C127.448 84.2741 127.693 84.519 127.989 84.6893C128.285 84.8596 128.62 84.9492 128.961 84.9492C129.302 84.9492 129.637 84.8596 129.933 84.6893C130.228 84.519 130.474 84.2741 130.645 83.979C130.996 83.5506 131.229 83.2975 131.697 83.2975C132.164 83.2975 132.398 83.5506 132.768 83.979C132.949 84.2612 133.197 84.4953 133.488 84.6614C133.78 84.8275 134.107 84.9208 134.442 84.9332C134.78 84.9206 135.111 84.8275 135.405 84.6615C135.7 84.4955 135.951 84.2615 136.137 83.979C136.487 83.5506 136.721 83.2975 137.188 83.2975C137.656 83.2975 137.889 83.5506 138.259 83.979C138.44 84.2623 138.686 84.4973 138.978 84.6636C139.27 84.8298 139.598 84.9224 139.934 84.9332C140.272 84.9206 140.602 84.8275 140.897 84.6615C141.191 84.4955 141.442 84.2615 141.628 83.979C141.979 83.5506 142.212 83.2975 142.68 83.2975C143.147 83.2975 143.381 83.5506 143.751 83.979C143.931 84.2623 144.178 84.4973 144.47 84.6636C144.761 84.8298 145.09 84.9224 145.425 84.9332C145.763 84.9206 146.093 84.8275 146.388 84.6615C146.683 84.4955 146.933 84.2615 147.119 83.979C147.47 83.5506 147.704 83.2975 148.171 83.2975C148.638 83.2975 148.872 83.5506 149.242 83.979C149.422 84.2623 149.669 84.4973 149.961 84.6636C150.253 84.8298 150.581 84.9224 150.917 84.9332C151.255 84.9206 151.585 84.8275 151.879 84.6615C152.174 84.4955 152.425 84.2615 152.611 83.979C152.961 83.5506 153.195 83.2975 153.662 83.2975C154.13 83.2975 154.363 83.5506 154.733 83.979C154.914 84.2623 155.161 84.4973 155.452 84.6636C155.744 84.8298 156.072 84.9224 156.408 84.9332C156.746 84.9206 157.076 84.8275 157.371 84.6615C157.665 84.4955 157.916 84.2615 158.102 83.979C158.453 83.5506 158.686 83.2975 159.154 83.2975C159.621 83.2975 159.855 83.5506 160.225 83.979C160.405 84.2623 160.652 84.4973 160.944 84.6636C161.236 84.8298 161.564 84.9224 161.899 84.9332C162.237 84.9206 162.567 84.8275 162.862 84.6615C163.157 84.4955 163.408 84.2615 163.593 83.979C163.944 83.5506 164.178 83.2975 164.645 83.2975C165.112 83.2975 165.346 83.5506 165.716 83.979C165.898 84.2612 166.145 84.4953 166.436 84.6614C166.728 84.8275 167.055 84.9208 167.391 84.9332C167.729 84.9206 168.059 84.8275 168.353 84.6615C168.648 84.4955 168.899 84.2615 169.085 83.979C169.435 83.5506 169.669 83.2975 170.136 83.2975C170.604 83.2975 170.857 83.5506 171.207 83.979C171.393 84.2615 171.644 84.4955 171.939 84.6615C172.233 84.8275 172.564 84.9206 172.902 84.9332C173.007 84.9282 173.106 84.8829 173.178 84.8067C173.251 84.7306 173.291 84.6294 173.291 84.5243C173.294 84.4715 173.285 84.4187 173.267 84.3692C173.249 84.3197 173.22 84.2744 173.184 84.2362C173.148 84.1979 173.104 84.1675 173.055 84.1467C173.007 84.1259 172.954 84.1153 172.902 84.1153C172.415 84.1153 172.181 83.8816 171.831 83.4532C171.659 83.1581 171.414 82.9132 171.118 82.7429C170.822 82.5727 170.487 82.4831 170.146 82.4831C169.805 82.4831 169.47 82.5727 169.174 82.7429C168.879 82.9132 168.633 83.1581 168.462 83.4532C168.111 83.8816 167.878 84.1153 167.391 84.1153C166.904 84.1153 166.69 83.8816 166.339 83.4532C166.153 83.1707 165.902 82.9367 165.608 82.7708C165.313 82.6048 164.983 82.5116 164.645 82.4991C164.309 82.5099 163.981 82.6024 163.689 82.7687C163.398 82.935 163.151 83.1699 162.97 83.4532C162.6 83.8816 162.386 84.1153 161.899 84.1153C161.412 84.1153 161.198 83.8816 160.848 83.4532C160.662 83.1707 160.411 82.9367 160.116 82.7708C159.822 82.6048 159.492 82.5116 159.154 82.4991C158.818 82.5099 158.49 82.6024 158.198 82.7687C157.906 82.935 157.659 83.1699 157.479 83.4532C157.109 83.8816 156.895 84.1153 156.408 84.1153C155.921 84.1153 155.707 83.8816 155.356 83.4532C155.17 83.1707 154.92 82.9367 154.625 82.7708C154.33 82.6048 154 82.5116 153.662 82.4991C153.327 82.5099 152.999 82.6024 152.707 82.7687C152.415 82.935 152.168 83.1699 151.988 83.4532C151.618 83.8816 151.403 84.1153 150.917 84.1153C150.43 84.1153 150.216 83.8816 149.865 83.4532C149.686 83.2125 149.469 83.0021 149.222 82.8301C149.239 82.7795 149.239 82.725 149.222 82.6743C149.222 78.1177 154.597 74.7099 160.283 71.1269C166.709 67.1349 173.369 62.9677 173.369 56.5027V55.1591C173.362 55.1057 173.344 55.0543 173.316 55.0082C173.289 54.9621 173.252 54.9222 173.208 54.8911C173.164 54.86 173.114 54.8384 173.061 54.8275C173.009 54.8167 172.954 54.8168 172.902 54.828ZM147.47 60.1247L145.523 62.4419H131.502V60.1247H147.47ZM130.684 62.4419H127.315V57.6321C127.315 57.5237 127.272 57.4197 127.196 57.343C127.119 57.2663 127.015 57.2232 126.906 57.2232C126.798 57.2232 126.694 57.2663 126.617 57.343C126.541 57.4197 126.498 57.5237 126.498 57.6321V62.4419H124.18V57.6321C124.18 57.5237 124.137 57.4197 124.06 57.343C123.984 57.2663 123.88 57.2232 123.771 57.2232C123.663 57.2232 123.559 57.2663 123.482 57.343C123.405 57.4197 123.362 57.5237 123.362 57.6321V62.4419H121.045V57.6321C121.045 57.5237 121.002 57.4197 120.925 57.343C120.849 57.2663 120.745 57.2232 120.636 57.2232C120.528 57.2232 120.424 57.2663 120.347 57.343C120.27 57.4197 120.227 57.5237 120.227 57.6321V62.4419H117.91V57.6321C117.91 57.5237 117.867 57.4197 117.79 57.343C117.714 57.2663 117.609 57.2232 117.501 57.2232C117.393 57.2232 117.289 57.2663 117.212 57.343C117.135 57.4197 117.092 57.5237 117.092 57.6321V62.4419H114.775V57.6321C114.775 57.5237 114.732 57.4197 114.655 57.343C114.578 57.2663 114.474 57.2232 114.366 57.2232C114.257 57.2232 114.153 57.2663 114.077 57.343C114 57.4197 113.957 57.5237 113.957 57.6321V62.4419H111.64V57.6321C111.64 57.5237 111.597 57.4197 111.52 57.343C111.443 57.2663 111.339 57.2232 111.231 57.2232C111.122 57.2232 111.018 57.2663 110.942 57.343C110.865 57.4197 110.822 57.5237 110.822 57.6321V62.4419H108.505V57.6321C108.505 57.5237 108.461 57.4197 108.385 57.343C108.308 57.2663 108.204 57.2232 108.096 57.2232C108.042 57.2232 107.989 57.2338 107.939 57.2543C107.889 57.2749 107.844 57.305 107.806 57.343C107.768 57.381 107.738 57.426 107.718 57.4756C107.697 57.5253 107.687 57.5784 107.687 57.6321V62.4419H104.337V54.8864H130.684V62.4419ZM99.7417 57.2232C99.6333 57.2232 99.5293 57.2663 99.4526 57.343C99.3759 57.4197 99.3328 57.5237 99.3328 57.6321V62.4419H97.0155V57.6321C97.0155 57.5237 96.9724 57.4197 96.8957 57.343C96.819 57.2663 96.715 57.2232 96.6066 57.2232C96.4981 57.2232 96.3941 57.2663 96.3174 57.343C96.2407 57.4197 96.1976 57.5237 96.1976 57.6321V62.4419H93.8804V57.6321C93.8804 57.5237 93.8373 57.4197 93.7606 57.343C93.6839 57.2663 93.5799 57.2232 93.4714 57.2232C93.363 57.2232 93.259 57.2663 93.1823 57.343C93.1056 57.4197 93.0625 57.5237 93.0625 57.6321V62.4419H90.7452V57.6321C90.7452 57.5237 90.7021 57.4197 90.6255 57.343C90.5488 57.2663 90.4447 57.2232 90.3363 57.2232C90.2278 57.2232 90.1238 57.2663 90.0471 57.343C89.9704 57.4197 89.9274 57.5237 89.9274 57.6321V62.4419H87.688V57.6321C87.688 57.5237 87.6449 57.4197 87.5682 57.343C87.4915 57.2663 87.3875 57.2232 87.279 57.2232C87.1706 57.2232 87.0666 57.2663 86.9899 57.343C86.9132 57.4197 86.8701 57.5237 86.8701 57.6321V62.4419H84.4749V57.6321C84.4749 57.5237 84.4319 57.4197 84.3552 57.343C84.2785 57.2663 84.1745 57.2232 84.066 57.2232C83.9576 57.2232 83.8535 57.2663 83.7769 57.343C83.7002 57.4197 83.6571 57.5237 83.6571 57.6321V62.4419H81.3398V57.6321C81.3398 57.5237 81.2967 57.4197 81.22 57.343C81.1433 57.2663 81.0393 57.2232 80.9309 57.2232C80.8224 57.2232 80.7184 57.2663 80.6417 57.343C80.565 57.4197 80.5219 57.5237 80.5219 57.6321V62.4419H77.1531V54.8864H103.519V62.4419H100.151V57.6321C100.151 57.5237 100.108 57.4197 100.031 57.343C99.9542 57.2663 99.8502 57.2232 99.7417 57.2232ZM72.577 57.2232C72.4685 57.2232 72.3645 57.2663 72.2878 57.343C72.2111 57.4197 72.168 57.5237 72.168 57.6321V62.4419H69.8508V57.6321C69.8508 57.5237 69.8077 57.4197 69.731 57.343C69.6543 57.2663 69.5503 57.2232 69.4418 57.2232C69.3334 57.2232 69.2294 57.2663 69.1527 57.343C69.076 57.4197 69.0329 57.5237 69.0329 57.6321V62.4419H66.7156V57.6321C66.7156 57.5784 66.7051 57.5253 66.6845 57.4756C66.664 57.426 66.6338 57.381 66.5959 57.343C66.5579 57.305 66.5128 57.2749 66.4632 57.2543C66.4136 57.2338 66.3604 57.2232 66.3067 57.2232C66.1982 57.2232 66.0942 57.2663 66.0175 57.343C65.9408 57.4197 65.8978 57.5237 65.8978 57.6321V62.4419H63.5805V57.6321C63.5805 57.5237 63.5374 57.4197 63.4607 57.343C63.384 57.2663 63.28 57.2232 63.1716 57.2232C63.0631 57.2232 62.9591 57.2663 62.8824 57.343C62.8057 57.4197 62.7626 57.5237 62.7626 57.6321V62.4419H60.4259V57.6321C60.4259 57.5237 60.3828 57.4197 60.3061 57.343C60.2294 57.2663 60.1254 57.2232 60.0169 57.2232C59.9085 57.2232 59.8045 57.2663 59.7278 57.343C59.6511 57.4197 59.608 57.5237 59.608 57.6321V62.4419H57.3102V57.6321C57.3102 57.5237 57.2671 57.4197 57.1904 57.343C57.1137 57.2663 57.0097 57.2232 56.9013 57.2232C56.7928 57.2232 56.6888 57.2663 56.6121 57.343C56.5354 57.4197 56.4923 57.5237 56.4923 57.6321V62.4419H54.1751V57.6321C54.1751 57.5237 54.132 57.4197 54.0553 57.343C53.9786 57.2663 53.8746 57.2232 53.7661 57.2232C53.7124 57.2232 53.6593 57.2338 53.6096 57.2543C53.56 57.2749 53.5149 57.305 53.477 57.343C53.439 57.381 53.4089 57.426 53.3883 57.4756C53.3678 57.5253 53.3572 57.5784 53.3572 57.6321V62.4419H49.9884V54.8864H76.3547V62.4419H72.9859V57.6321C72.9859 57.5237 72.9428 57.4197 72.8661 57.343C72.7895 57.2663 72.6854 57.2232 72.577 57.2232ZM49.2095 62.4419H42.4718L40.7193 60.1247H49.1705L49.2095 62.4419ZM77.1921 43.3974H103.519V54.0881H77.1531L77.1921 43.3974ZM130.723 43.3974V54.0881H104.337V43.3974H130.723ZM77.1921 31.9084H103.519V42.5796H77.1531L77.1921 31.9084ZM49.93 43.3974H76.3547V54.0881H49.9884V43.3974H49.93ZM35.5395 28.7732V33.1352H31.2165V28.7732H35.5395ZM36.3379 32.6678V28.7732H40.2324L36.3379 32.6678ZM10.2831 45.481H32.8522C32.905 45.4837 32.9577 45.4755 33.0072 45.4572C33.0568 45.4388 33.102 45.4105 33.1403 45.3741C33.1785 45.3376 33.209 45.2938 33.2297 45.2452C33.2505 45.1967 33.2612 45.1444 33.2611 45.0916C33.2611 45.0379 33.2506 44.9847 33.23 44.9351C33.2095 44.8855 33.1793 44.8404 33.1414 44.8024C33.1034 44.7644 33.0583 44.7343 33.0087 44.7138C32.9591 44.6932 32.9059 44.6826 32.8522 44.6826H11.3151V33.992H13.4182V23.5545H40.8166V27.9554H28.685C28.5765 27.9554 28.4725 27.9985 28.3958 28.0752C28.3192 28.1518 28.2761 28.2559 28.2761 28.3643C28.2761 28.4728 28.3192 28.5768 28.3958 28.6535C28.4725 28.7302 28.5765 28.7732 28.685 28.7732H30.3597V33.1352H25.9588V28.3643C25.9588 28.2559 25.9157 28.1518 25.839 28.0752C25.7623 27.9985 25.6583 27.9554 25.5499 27.9554C25.4414 27.9554 25.3374 27.9985 25.2607 28.0752C25.184 28.1518 25.1409 28.2559 25.1409 28.3643V33.992H41.8682V49.9014H10.2831V45.481ZM9.23154 50.6608H49.1705V59.2484H40.1156L36.221 54.0296H12.8535L10.7504 56.1717H9.23154V50.6608ZM159.894 70.4843C158.608 71.2827 157.343 72.0811 156.155 72.8989H21.3632C21.3034 72.8856 21.2414 72.886 21.1818 72.8998C21.1221 72.9137 21.0664 72.9408 21.0186 72.9791C20.9708 73.0174 20.9323 73.066 20.9058 73.1212C20.8793 73.1764 20.8655 73.2369 20.8655 73.2981C20.8655 73.3593 20.8793 73.4198 20.9058 73.475C20.9323 73.5302 20.9708 73.5788 21.0186 73.6171C21.0664 73.6554 21.1221 73.6825 21.1818 73.6964C21.2414 73.7103 21.3034 73.7106 21.3632 73.6973H154.967C151.306 76.3262 148.541 79.0718 148.463 82.5575H148.171C147.835 82.5683 147.507 82.6608 147.215 82.8271C146.924 82.9934 146.677 83.2284 146.496 83.5117C146.126 83.9401 145.912 84.1737 145.425 84.1737C144.938 84.1737 144.724 83.9401 144.374 83.5117C144.188 83.2292 143.937 82.9952 143.642 82.8292C143.348 82.6632 143.018 82.5701 142.68 82.5575C142.344 82.5683 142.016 82.6608 141.724 82.8271C141.432 82.9934 141.185 83.2284 141.005 83.5117C140.635 83.9401 140.421 84.1737 139.934 84.1737C139.447 84.1737 139.233 83.9401 138.882 83.5117C138.696 83.2292 138.446 82.9952 138.151 82.8292C137.856 82.6632 137.526 82.5701 137.188 82.5575C136.853 82.5699 136.525 82.6632 136.234 82.8293C135.942 82.9954 135.695 83.2295 135.513 83.5117C135.143 83.9401 134.929 84.1737 134.442 84.1737C133.956 84.1737 133.741 83.9401 133.391 83.5117C133.22 83.2166 132.974 82.9716 132.678 82.8014C132.383 82.6311 132.048 82.5415 131.707 82.5415C131.365 82.5415 131.03 82.6311 130.735 82.8014C130.439 82.9716 130.193 83.2166 130.022 83.5117C129.652 83.9401 129.438 84.1737 128.951 84.1737C128.464 84.1737 128.25 83.9401 127.9 83.5117C127.728 83.2166 127.483 82.9716 127.187 82.8014C126.891 82.6311 126.556 82.5415 126.215 82.5415C125.874 82.5415 125.539 82.6311 125.243 82.8014C124.948 82.9716 124.702 83.2166 124.531 83.5117C124.18 83.9401 123.947 84.1737 123.46 84.1737C122.973 84.1737 122.759 83.9401 122.408 83.5117C122.237 83.2166 121.991 82.9716 121.696 82.8014C121.4 82.6311 121.065 82.5415 120.724 82.5415C120.383 82.5415 120.047 82.6311 119.752 82.8014C119.456 82.9716 119.211 83.2166 119.039 83.5117C118.689 83.9401 118.455 84.1737 117.988 84.1737C117.521 84.1737 117.267 83.9401 116.917 83.5117C116.746 83.2166 116.5 82.9716 116.204 82.8014C115.909 82.6311 115.574 82.5415 115.232 82.5415C114.891 82.5415 114.556 82.6311 114.261 82.8014C113.965 82.9716 113.719 83.2166 113.548 83.5117C113.198 83.9401 112.964 84.1737 112.496 84.1737C112.029 84.1737 111.795 83.9401 111.425 83.5117C111.245 83.2284 110.998 82.9934 110.706 82.8271C110.415 82.6608 110.087 82.5683 109.751 82.5575C109.413 82.5701 109.083 82.6632 108.788 82.8292C108.493 82.9952 108.243 83.2292 108.057 83.5117C107.706 83.9401 107.472 84.1737 107.005 84.1737C106.538 84.1737 106.304 83.9401 105.934 83.5117C105.754 83.2284 105.507 82.9934 105.215 82.8271C104.923 82.6608 104.595 82.5683 104.259 82.5575C103.921 82.5701 103.591 82.6632 103.297 82.8292C103.002 82.9952 102.751 83.2292 102.565 83.5117C102.215 83.9401 101.981 84.1737 101.514 84.1737C101.046 84.1737 100.813 83.9401 100.443 83.5117C100.262 83.2284 100.015 82.9934 99.7236 82.8271C99.4318 82.6608 99.1038 82.5683 98.7681 82.5575C98.4301 82.5701 98.1 82.6632 97.8053 82.8292C97.5106 82.9952 97.2599 83.2292 97.0739 83.5117C96.7234 83.9401 96.4897 84.1737 96.0224 84.1737C95.555 84.1737 95.3214 83.9401 94.9514 83.5117C94.7709 83.2284 94.5241 82.9934 94.2323 82.8271C93.9404 82.6608 93.6124 82.5683 93.2767 82.5575C92.9387 82.5701 92.6086 82.6632 92.3139 82.8292C92.0193 82.9952 91.7685 83.2292 91.5826 83.5117C91.232 83.9401 90.9984 84.1737 90.531 84.1737C90.0637 84.1737 89.83 83.9401 89.46 83.5117C89.2796 83.2284 89.0327 82.9934 88.7409 82.8271C88.4491 82.6608 88.121 82.5683 87.7853 82.5575C87.4474 82.5701 87.1173 82.6632 86.8226 82.8292C86.5279 82.9952 86.2771 83.2292 86.0912 83.5117C85.7407 83.9401 85.507 84.1737 85.0397 84.1737C84.5723 84.1737 84.3386 83.9401 83.9686 83.5117C83.7882 83.2284 83.5414 82.9934 83.2495 82.8271C82.9577 82.6608 82.6297 82.5683 82.294 82.5575C81.956 82.5701 81.6259 82.6632 81.3312 82.8292C81.0365 82.9952 80.7858 83.2292 80.5998 83.5117C80.2493 83.9401 80.0156 84.1737 79.5483 84.1737C79.0809 84.1737 78.8473 83.9401 78.4773 83.5117C78.2968 83.2284 78.05 82.9934 77.7581 82.8271C77.4663 82.6608 77.1383 82.5683 76.8026 82.5575C76.4646 82.5701 76.1345 82.6632 75.8399 82.8292C75.5452 82.9952 75.2944 83.2292 75.1085 83.5117C74.7579 83.9401 74.5243 84.1737 74.0569 84.1737C73.5896 84.1737 73.3559 83.9401 72.9859 83.5117C72.8135 83.2211 72.5684 82.9804 72.2748 82.8132C71.9812 82.646 71.6491 82.5581 71.3112 82.5581C70.9734 82.5581 70.6413 82.646 70.3477 82.8132C70.0541 82.9804 69.809 83.2211 69.6366 83.5117C69.2666 83.9401 69.0329 84.1737 68.5656 84.1737C68.0982 84.1737 67.8645 83.9401 67.4946 83.5117C67.3221 83.2211 67.0771 82.9804 66.7835 82.8132C66.4898 82.646 66.1578 82.5581 65.8199 82.5581C65.482 82.5581 65.1499 82.646 64.8563 82.8132C64.5627 82.9804 64.3176 83.2211 64.1452 83.5117C63.7752 83.9401 63.5415 84.1737 63.0742 84.1737C62.6068 84.1737 62.3732 83.9401 62.0032 83.5117C61.8308 83.2211 61.5857 82.9804 61.2921 82.8132C60.9985 82.646 60.6664 82.5581 60.3285 82.5581C59.9906 82.5581 59.6586 82.646 59.3649 82.8132C59.0713 82.9804 58.8263 83.2211 58.6538 83.5117C58.2839 83.9401 58.0502 84.1737 57.5828 84.1737C57.1155 84.1737 56.8818 83.9401 56.5313 83.5117C56.3454 83.2292 56.0946 82.9952 55.7999 82.8292C55.5052 82.6632 55.1751 82.5701 54.8371 82.5575C54.5014 82.5683 54.1734 82.6608 53.8816 82.8271C53.5898 82.9934 53.3429 83.2284 53.1625 83.5117C52.7925 83.9401 52.5588 84.1737 52.0915 84.1737C51.6241 84.1737 51.3904 83.9401 51.0399 83.5117C50.854 83.2292 50.6032 82.9952 50.3085 82.8292C50.0138 82.6632 49.6838 82.5701 49.3458 82.5575C49.0101 82.5683 48.6821 82.6608 48.3902 82.8271C48.0984 82.9934 47.8516 83.2284 47.6711 83.5117C47.3011 83.9401 47.0869 84.1737 46.6001 84.1737C46.1133 84.1737 45.8991 83.9401 45.5486 83.5117C45.3626 83.2292 45.1119 82.9952 44.8172 82.8292C44.5225 82.6632 44.1924 82.5701 43.8544 82.5575C43.5187 82.5683 43.1907 82.6608 42.8989 82.8271C42.607 82.9934 42.3602 83.2284 42.1797 83.5117C41.8098 83.9401 41.5956 84.1737 41.1087 84.1737C40.6219 84.1737 40.4077 83.9401 40.0572 83.5117C39.8713 83.2292 39.6205 82.9952 39.3258 82.8292C39.0311 82.6632 38.701 82.5701 38.363 82.5575C38.0273 82.5683 37.6993 82.6608 37.4075 82.8271C37.1157 82.9934 36.8688 83.2284 36.6884 83.5117C36.3184 83.9401 36.1042 84.1737 35.6174 84.1737C35.1305 84.1737 34.9163 83.9401 34.5658 83.5117C34.3799 83.2292 34.1291 82.9952 33.8344 82.8292C33.5398 82.6632 33.2097 82.5701 32.8717 82.5575C32.536 82.5683 32.208 82.6608 31.9161 82.8271C31.6243 82.9934 31.3775 83.2284 31.197 83.5117C30.827 83.9401 30.6128 84.1737 30.126 84.1737C29.6392 84.1737 29.425 83.9401 29.0745 83.5117C28.8885 83.2292 28.6378 82.9952 28.3431 82.8292C28.0484 82.6632 27.7183 82.5701 27.3803 82.5575C27.0446 82.5683 26.7166 82.6608 26.4248 82.8271C26.1329 82.9934 25.8861 83.2284 25.7056 83.5117C25.3357 83.9401 25.1215 84.1737 24.6346 84.1737C24.1478 84.1737 23.9336 83.9401 23.5831 83.5117C23.3972 83.2292 23.1464 82.9952 22.8517 82.8292C22.557 82.6632 22.2269 82.5701 21.8889 82.5575C21.4449 82.552 21.0146 82.7116 20.6816 83.0054C20.2431 80.3899 19.1811 77.9186 17.5854 75.8004H122.739C122.844 75.7954 122.943 75.7501 123.016 75.6739C123.088 75.5978 123.129 75.4966 123.129 75.3914C123.131 75.3387 123.123 75.286 123.105 75.2364C123.086 75.1869 123.058 75.1416 123.022 75.1034C122.985 75.0651 122.941 75.0347 122.893 75.0139C122.844 74.9931 122.792 74.9825 122.739 74.9825H17.0791C16.2223 73.7557 15.3071 72.49 14.3529 71.2242C10.9062 66.5897 7.34267 61.7993 7.14794 56.9701H11.0425L13.1261 54.867H35.7926L42.0629 63.2403H145.912L151.131 56.9701H172.551C172.2 62.7146 165.95 66.6676 159.894 70.4843Z" fill="black"/>
</svg>
