<svg width="1691" height="901" viewBox="0 0 1691 901" fill="none" xmlns="http://www.w3.org/2000/svg">
<g opacity="0.6">
<path opacity="0.64" d="M50.5979 638.94L74.5993 521.953C195.81 565.574 260.348 533.757 277.465 512.395L561.711 356.986L657.383 285.207L755.66 187.145L877.894 -65.2757L828.507 -221.784L823.634 -309.381L930.058 -297.577L1072.19 -192.345L1074.17 -156.743L1110.68 -158.464L1283.58 134.243L1301.84 133.382L1335.86 159.81L1864.51 375.959L1851.24 393.401L1865.96 402.051L1596.62 971.598L1478.19 926.724L1422.94 957.357L1428.54 1058L1088.4 1049.73L610.48 758.316L693.655 754.397L692.41 732.032L201.489 682.284L199.208 641.281L99.227 672.153L50.5979 638.94Z" fill="#C7D0DB" fill-opacity="0.33"/>
<path d="M1176.22 -180.39L1016.51 -293.707L965.104 -291.285L1143.01 -159.627L1280.86 90.2417L1854.98 351.178L1851.85 294.858L1303.52 56.4228L1176.22 -180.39Z" fill="#ABB3BB"/>
<path d="M997.688 -279.268L1152.25 -170.227L1279.68 68.8393L1823.61 316.516" stroke="#B9A4A4" stroke-opacity="0.22" stroke-width="0.973505" stroke-dasharray="1.95 1.95"/>
<rect x="0.746549" y="1.85717" width="159.238" height="94.4193" transform="matrix(0.932879 0.368945 -0.421635 0.902864 774.843 201.732)" stroke="#514040" stroke-opacity="0.45" stroke-width="2.92052"/>
<rect x="0.746548" y="1.85717" width="93.7582" height="94.4193" transform="matrix(0.93288 0.368945 -0.421636 0.902863 575.663 366.425)" stroke="#514040" stroke-opacity="0.45" stroke-width="2.92052"/>
<rect x="0.746548" y="1.85717" width="61.9098" height="52.6922" transform="matrix(0.932879 0.368945 -0.421635 0.902864 581.778 391.753)" stroke="#514040" stroke-opacity="0.45" stroke-width="2.92052"/>
<rect x="0.746549" y="1.85717" width="61.9098" height="122.05" transform="matrix(0.932879 0.368946 -0.421634 0.902864 523.573 514.817)" stroke="#514040" stroke-opacity="0.45" stroke-width="2.92052"/>
<rect x="0.746548" y="1.85717" width="93.7582" height="153.497" transform="matrix(0.932879 0.368945 -0.421635 0.902864 513.782 496.566)" stroke="#514040" stroke-opacity="0.45" stroke-width="2.92052"/>
<rect x="0.746549" y="1.85717" width="159.238" height="94.4193" transform="matrix(0.932879 0.368945 -0.421635 0.902864 944.419 270.468)" stroke="#514040" stroke-opacity="0.45" stroke-width="2.92052"/>
<rect x="0.746547" y="1.85717" width="159.238" height="94.4193" transform="matrix(0.93288 0.368944 -0.421636 0.902863 900.288 371.729)" stroke="#514040" stroke-opacity="0.45" stroke-width="2.92052"/>
<rect x="0.746548" y="1.85717" width="159.238" height="94.4193" transform="matrix(0.932879 0.368945 -0.421635 0.902864 1114.85 337.28)" stroke="#514040" stroke-opacity="0.45" stroke-width="2.92052"/>
<rect x="0.746548" y="1.85717" width="159.238" height="94.4193" transform="matrix(0.93288 0.368945 -0.421636 0.902863 1012.91 551.632)" stroke="#514040" stroke-opacity="0.45" stroke-width="2.92052"/>
<rect x="0.746548" y="1.85717" width="159.238" height="94.4193" transform="matrix(0.93288 0.368945 -0.421636 0.902863 1281.22 404.279)" stroke="#514040" stroke-opacity="0.45" stroke-width="2.92052"/>
<rect x="0.746549" y="1.85717" width="159.238" height="94.4193" transform="matrix(0.932879 0.368945 -0.421635 0.902864 1179.29 618.629)" stroke="#514040" stroke-opacity="0.45" stroke-width="2.92052"/>
<rect x="0.74655" y="1.85717" width="123.017" height="63.1471" transform="matrix(0.932879 0.368946 -0.421634 0.902864 1189.57 638.501)" stroke="#514040" stroke-opacity="0.45" stroke-width="2.92052"/>
<rect x="0.746548" y="1.85717" width="123.017" height="63.1471" transform="matrix(0.93288 0.368945 -0.421636 0.902863 1023.57 569.837)" stroke="#514040" stroke-opacity="0.45" stroke-width="2.92052"/>
<rect x="0.746549" y="1.85717" width="123.017" height="63.1471" transform="matrix(0.932879 0.368946 -0.421635 0.902864 912.003 391.738)" stroke="#514040" stroke-opacity="0.45" stroke-width="2.92052"/>
<rect x="0.746548" y="1.85717" width="123.017" height="63.1471" transform="matrix(0.93288 0.368945 -0.421636 0.902863 1125.5 355.487)" stroke="#514040" stroke-opacity="0.45" stroke-width="2.92052"/>
<rect x="0.746549" y="1.85717" width="123.017" height="63.1471" transform="matrix(0.932879 0.368945 -0.421635 0.902864 1292.08 426.222)" stroke="#514040" stroke-opacity="0.45" stroke-width="2.92052"/>
<rect x="0.74655" y="1.85717" width="115.685" height="56.7795" transform="matrix(0.932879 0.368946 -0.421634 0.902864 1632.08 570.388)" stroke="#514040" stroke-opacity="0.45" stroke-width="2.92052"/>
<path d="M142.635 659.302L87.1584 648.819L102.453 558.291L332.367 597.975L367.573 536.445L397 553.769L335.897 661.422L156.885 623.082L142.635 659.302Z" stroke="#514040" stroke-opacity="0.45" stroke-width="2.92052"/>
<path d="M1151.08 842.662L1143.7 856.106L1077.05 827.44L1100.6 775.814L1184.16 779.361L1265.32 812.957L1218.67 888.123L1183.16 871.086L1190.65 859.507L1213.58 869.653L1243.43 821.472L1189.36 799.697L1180.46 822.568L1165.96 817.638L1172.82 794.863L1111.57 790.265L1099.04 820.791L1151.08 842.662Z" stroke="#514040" stroke-opacity="0.45" stroke-width="2.92052"/>
<rect x="0.746549" y="1.85717" width="164.05" height="94.4193" transform="matrix(0.932879 0.368945 -0.421635 0.902864 1451.84 480.318)" stroke="#514040" stroke-opacity="0.45" stroke-width="2.92052"/>
<rect x="0.746548" y="1.85717" width="153.76" height="94.4193" transform="matrix(0.932879 0.368945 -0.421635 0.902863 1619.72 546.003)" stroke="#514040" stroke-opacity="0.45" stroke-width="2.92052"/>
<path d="M1186.99 -10.3224L1173 -5.92152L1145.14 -68.222L1090.18 -69.3747L1086.74 14.9813L1253.53 89.4462L1246.36 106.623L1806.16 338.444L1801.01 355.525L1826.38 373.04L1773.39 480.311L1667.37 438.531L1718.23 329.489L1699.36 319.153L1646.37 426.424L1506.98 369.378L1555.6 256.699L1532.78 248.42L1471.1 382.294L1325.52 323.669L1385.28 191.756L1364.48 183.381L1309.56 292.614L1055.43 182.974L1108.21 71.9701L1076.86 56.6084L1009.1 190.769L992.358 182.203L1063.76 40.3868L1075.05 -85.5007L1154.55 -81.7623L1186.99 -10.3224Z" stroke="#514040" stroke-opacity="0.45" stroke-width="2.92052"/>
<path d="M1073.29 -190.195L1051.28 35.3591L977.069 199.759L1786.43 532.081" stroke="#514040" stroke-opacity="0.45" stroke-width="2.92052"/>
<path d="M751.903 537.79L643.655 492.373L681.775 410.125L819.346 470.999L797.504 516.931L751.903 537.79Z" stroke="#514040" stroke-opacity="0.45" stroke-width="2.92052"/>
<path d="M748.836 519.225L665.545 483.859L691.131 432.137L797.351 477.649L780.658 506.5L748.836 519.225Z" stroke="#514040" stroke-opacity="0.45" stroke-width="2.92052"/>
<path d="M835.401 574.075L947.007 627.216L989.601 545.454L845.133 479.942L821.723 526.024L835.401 574.075Z" stroke="#514040" stroke-opacity="0.45" stroke-width="2.92052"/>
<path d="M973.425 207.413L949.866 259.039L1097.47 317.569L1123.27 269.579" stroke="#514040" stroke-opacity="0.45" stroke-width="2.92052"/>
<path d="M1144.06 277.959L1122.22 323.891L1434.38 453.249L1456.33 409.183" stroke="#514040" stroke-opacity="0.45" stroke-width="2.92052"/>
<path d="M1479.26 419.327L1459.55 467.03L1763.18 589.306" stroke="#514040" stroke-opacity="0.45" stroke-width="2.92052"/>
<rect x="0.740476" y="1.85918" width="53.0594" height="63.4142" transform="matrix(0.931775 0.371771 -0.424689 0.901413 784.971 221.856)" stroke="#514040" stroke-opacity="0.45" stroke-width="2.92052"/>
<rect x="0.740478" y="1.85918" width="53.0593" height="63.4143" transform="matrix(0.931774 0.371773 -0.424687 0.901414 955.401 288.664)" stroke="#514040" stroke-opacity="0.45" stroke-width="2.92052"/>
<rect x="0.740478" y="1.85918" width="53.0593" height="63.4143" transform="matrix(0.931774 0.371773 -0.424687 0.901414 1459.2 500.669)" stroke="#514040" stroke-opacity="0.45" stroke-width="2.92052"/>
<rect x="0.740478" y="1.85918" width="53.0594" height="63.4143" transform="matrix(0.931774 0.371773 -0.424687 0.901414 853.658 248.554)" stroke="#514040" stroke-opacity="0.45" stroke-width="2.92052"/>
<rect x="0.740477" y="1.85918" width="53.0594" height="63.4142" transform="matrix(0.931775 0.371771 -0.424689 0.901414 1024.09 315.365)" stroke="#514040" stroke-opacity="0.45" stroke-width="2.92052"/>
<rect x="0.740478" y="1.85918" width="53.0594" height="63.4142" transform="matrix(0.931774 0.371772 -0.424688 0.901414 1527.88 527.372)" stroke="#514040" stroke-opacity="0.45" stroke-width="2.92052"/>
<path d="M1360.27 692.483L1343.63 685.783L1307.75 771.667L1453.22 828.427L1495.4 745.988L1480.79 739.192L1443.87 806.416L1331.67 763.056L1360.27 692.483Z" stroke="#514040" stroke-opacity="0.45" stroke-width="2.92052"/>
<path d="M1489.79 718.186L1506.43 724.886L1542.31 639.001L1396.84 582.242L1354.66 664.681L1369.27 671.476L1406.19 604.253L1518.39 647.612L1489.79 718.186Z" stroke="#514040" stroke-opacity="0.45" stroke-width="2.92052"/>
<path d="M1419.49 697.179C1414.62 694.914 1404.48 690.402 1402.85 690.479L1421.26 655.934L1437.9 662.634L1436.08 666.462L1454.75 673.066L1456.57 669.238L1471.18 676.034L1452.66 708.713L1438.05 701.917L1445.44 688.472L1428.8 681.772L1419.49 697.179Z" stroke="#514040" stroke-opacity="0.45" stroke-width="2.92052"/>
<rect x="0.745221" y="1.85761" width="335.963" height="101.196" transform="matrix(0.932639 0.369563 -0.422303 0.902547 1068.52 440.495)" stroke="#514040" stroke-opacity="0.45" stroke-width="2.92052"/>
<path d="M1072.6 528.292L1051.8 519.917L1074.17 483.315L1088.78 490.111L1100.01 472.743L1160.58 501.696L1145.81 528.585L1154.13 531.935L1142.69 545.571L1119.76 535.426L1114.2 545.043L1093.29 534.801L1098.86 525.184L1080.09 516.714L1072.6 528.292Z" stroke="#514040" stroke-opacity="0.45" stroke-width="2.92052"/>
<path d="M1575.25 792.744L1582.64 779.3L1545.2 764.225L1503.03 846.664L1617.67 897.392L1657.61 811.316L1599.28 786L1591.89 799.444L1637.75 819.736L1610.34 875.285L1523 840.11L1552.33 782.599L1575.25 792.744Z" stroke="#514040" stroke-opacity="0.45" stroke-width="2.92052"/>
<path d="M1601.57 754.084L1594.08 765.663L1537.88 742.117L1581.77 653.984L1644.16 679.109L1638.7 690.592L1588.89 672.358L1555.72 733.793L1601.57 754.084Z" stroke="#514040" stroke-opacity="0.45" stroke-width="2.92052"/>
<path d="M1651.18 695.617L1658.5 685.743L1706.55 704.234L1664.53 794.15L1605.62 770.773L1612.63 758.94L1657.67 775.763L1688.62 710.692L1651.18 695.617Z" stroke="#514040" stroke-opacity="0.45" stroke-width="2.92052"/>
<path d="M1432.33 914.124L1424.91 875.483L1473.14 890.413L1432.33 914.124Z" stroke="#514040" stroke-opacity="0.45" stroke-width="2.92052"/>
<path d="M930.787 -303.224L867.926 -300.262L866.051 -260.884L930.248 -93.6492L833.884 111.085L888.059 134.727L899.292 117.359L920.192 127.6L909.271 150.566L963.551 176.073L1042.75 28.2768L1036.21 -89.2866L999.192 -96.8974L939.051 -264.323L930.787 -303.224Z" stroke="#514040" stroke-opacity="0.45" stroke-width="2.92052"/>
<path d="M678.219 565.582L619.884 540.266L550.51 681.986L617.946 688.164L678.219 565.582Z" stroke="#514040" stroke-opacity="0.45" stroke-width="2.92052"/>
<path d="M732.299 587.359L694.761 570.418L640.26 687.115L707.696 693.293L748.051 614.682L732.299 587.359Z" stroke="#514040" stroke-opacity="0.45" stroke-width="2.92052"/>
<path d="M811.111 615.451L772.894 622.865L736.595 701.285L908.071 713.787L925.961 669.912L811.111 615.451Z" stroke="#514040" stroke-opacity="0.45" stroke-width="2.92052"/>
<path d="M704.04 773.915L718.498 741.428L796.176 748.994L763.102 812.294L704.04 773.915Z" stroke="#514040" stroke-opacity="0.45" stroke-width="2.92052"/>
<path d="M781.665 817.033L812.504 750.096L888.154 757.757L836.567 853.737L781.665 817.033Z" stroke="#514040" stroke-opacity="0.45" stroke-width="2.92052"/>
<path d="M1080.11 773.037L914.617 758.382L857.673 867.711L1000.55 950.786L1080.11 773.037Z" stroke="#514040" stroke-opacity="0.45" stroke-width="2.92052"/>
<path d="M925.698 774.7L879.676 861.062L927.872 886.856L946.281 852.311L960.787 857.241L942.689 897.384L986.83 923.369L1052.46 787.438L997.397 784.419L973.32 826.715L958.71 819.919L978.94 781.546L925.698 774.7Z" stroke="#514040" stroke-opacity="0.45" stroke-width="2.92052"/>
<path d="M1202.5 926.304L1060.87 865.622L1017.29 959.353L1082.54 999.311L1173.79 995.012L1202.5 926.304Z" stroke="#514040" stroke-opacity="0.45" stroke-width="2.92052"/>
<path d="M1288.76 905.402L1281.37 918.846L1243.73 900.039L1287.94 817.505L1412.92 871.487L1418.48 934.839L1349.54 938.087L1348.71 923.158L1397.37 920.865L1395.09 879.811L1361.92 868.277L1343.09 895.358L1326.35 886.792L1342.94 856.074L1297.08 835.783L1263.7 893.485L1288.76 905.402Z" stroke="#514040" stroke-opacity="0.45" stroke-width="2.92052"/>
<path d="M914.107 749.053L948.586 674.461L1175.43 768.548L914.107 749.053Z" stroke="#514040" stroke-opacity="0.45" stroke-width="2.92052"/>
<rect x="0.695631" y="1.87348" width="93.906" height="31.3692" transform="matrix(0.923354 0.39253 -0.446979 0.890446 532.557 458.878)" stroke="#514040" stroke-opacity="0.45" stroke-width="2.92052"/>
<rect x="0.695629" y="1.87347" width="124.719" height="31.3692" transform="matrix(0.923355 0.392527 -0.446981 0.890445 639.738 501.887)" stroke="#514040" stroke-opacity="0.45" stroke-width="2.92052"/>
<rect x="0.618388" y="1.89576" width="124.374" height="31.4706" transform="matrix(0.907797 0.427731 -0.484318 0.870507 832.596 578.459)" stroke="#514040" stroke-opacity="0.45" stroke-width="2.92052"/>
<rect x="0.694753" y="1.87374" width="151.416" height="31.3704" transform="matrix(0.923185 0.392932 -0.447411 0.890227 976.851 643.571)" stroke="#514040" stroke-opacity="0.45" stroke-width="2.92052"/>
<rect x="0.719073" y="1.86613" width="325.023" height="31.3393" transform="matrix(0.927812 0.381708 -0.435383 0.896236 1309.07 777.902)" stroke="#514040" stroke-opacity="0.45" stroke-width="2.92052"/>
<path d="M1012.12 -284.466L1166.68 -175.425L1294.11 63.6411L1838.04 311.318" stroke="#B9A4A4" stroke-opacity="0.22" stroke-width="0.973505" stroke-dasharray="1.95 1.95"/>
</g>
</svg>
