<svg  viewBox="0 0 173 91" fill="none" xmlns="http://www.w3.org/2000/svg">
<path d="M125.356 68.8455C125.356 69.1343 125.122 69.3686 124.831 69.3686C124.541 69.3686 124.306 69.1343 124.306 68.8455V65.7839C124.306 65.495 124.541 65.2608 124.831 65.2608C125.122 65.2608 125.356 65.495 125.356 65.7839V68.8455Z" fill="black" stroke="white" stroke-width="0.3"/>
<path d="M125.356 61.8563C125.356 62.1451 125.122 62.3793 124.831 62.3793C124.541 62.3793 124.306 62.1451 124.306 61.8563V58.7946C124.306 58.5058 124.541 58.2716 124.831 58.2716C125.122 58.2716 125.356 58.5058 125.356 58.7946V61.8563Z" fill="black" stroke="white" stroke-width="0.3"/>
<path d="M130.001 68.8455C130.001 69.1344 129.766 69.3686 129.476 69.3686C129.186 69.3686 128.951 69.1344 128.951 68.8455V65.7839C128.951 65.495 129.186 65.2608 129.476 65.2608C129.766 65.2608 130.001 65.495 130.001 65.7839V68.8455Z" fill="black" stroke="white" stroke-width="0.3"/>
<path d="M130.001 61.8563C130.001 62.1451 129.766 62.3793 129.476 62.3793C129.186 62.3793 128.951 62.1451 128.951 61.8563V58.7946C128.951 58.5058 129.186 58.2716 129.476 58.2716C129.766 58.2716 130.001 58.5058 130.001 58.7946V61.8563Z" fill="black" stroke="white" stroke-width="0.3"/>
<path d="M134.649 68.8455C134.649 69.1343 134.415 69.3686 134.124 69.3686C133.834 69.3686 133.599 69.1343 133.599 68.8455V65.7839C133.599 65.495 133.834 65.2608 134.124 65.2608C134.415 65.2608 134.649 65.495 134.649 65.7839V68.8455Z" fill="black" stroke="white" stroke-width="0.3"/>
<path d="M134.649 61.8563C134.649 62.1451 134.415 62.3793 134.124 62.3793C133.834 62.3793 133.599 62.1451 133.599 61.8563V58.7946C133.599 58.5058 133.834 58.2716 134.124 58.2716C134.415 58.2716 134.649 58.5058 134.649 58.7946V61.8563Z" fill="black" stroke="white" stroke-width="0.3"/>
<path d="M139.294 68.8451C139.294 69.1339 139.059 69.3681 138.769 69.3681C138.478 69.3681 138.244 69.1339 138.244 68.8451V65.7838C138.244 65.495 138.478 65.2608 138.769 65.2608C139.059 65.2608 139.294 65.495 139.294 65.7838V68.8451Z" fill="black" stroke="white" stroke-width="0.3"/>
<path d="M139.294 61.8558C139.294 62.1446 139.059 62.3788 138.769 62.3788C138.478 62.3788 138.244 62.1446 138.244 61.8558V58.7945C138.244 58.5058 138.478 58.2716 138.769 58.2716C139.059 58.2716 139.294 58.5058 139.294 58.7945V61.8558Z" fill="black" stroke="white" stroke-width="0.3"/>
<path d="M143.942 68.8451C143.942 69.1339 143.708 69.3681 143.417 69.3681C143.127 69.3681 142.892 69.1339 142.892 68.8451V65.7838C142.892 65.495 143.127 65.2608 143.417 65.2608C143.708 65.2608 143.942 65.495 143.942 65.7838V68.8451Z" fill="black" stroke="white" stroke-width="0.3"/>
<path d="M143.942 61.8558C143.942 62.1446 143.708 62.3788 143.417 62.3788C143.127 62.3788 142.892 62.1446 142.892 61.8558V58.7945C142.892 58.5058 143.127 58.2716 143.417 58.2716C143.708 58.2716 143.942 58.5058 143.942 58.7945V61.8558Z" fill="black" stroke="white" stroke-width="0.3"/>
<path d="M124.306 82.819C124.306 82.5302 124.541 82.296 124.831 82.296C125.122 82.296 125.356 82.5302 125.356 82.819V85.8797C125.356 86.1685 125.122 86.4027 124.831 86.4027C124.541 86.4027 124.306 86.1685 124.306 85.8797V82.819Z" fill="black" stroke="white" stroke-width="0.3"/>
<path d="M124.306 75.8336C124.306 75.5448 124.541 75.3106 124.831 75.3106C125.122 75.3106 125.356 75.5448 125.356 75.8336V78.8944C125.356 79.1832 125.122 79.4174 124.831 79.4174C124.541 79.4174 124.306 79.1832 124.306 78.8944V75.8336Z" fill="black" stroke="white" stroke-width="0.3"/>
<path d="M128.951 82.819C128.951 82.5302 129.186 82.296 129.476 82.296C129.766 82.296 130.001 82.5302 130.001 82.819V85.8797C130.001 86.1685 129.766 86.4027 129.476 86.4027C129.186 86.4027 128.951 86.1685 128.951 85.8797V82.819Z" fill="black" stroke="white" stroke-width="0.3"/>
<path d="M128.951 75.8336C128.951 75.5448 129.186 75.3106 129.476 75.3106C129.766 75.3106 130.001 75.5448 130.001 75.8336V78.8944C130.001 79.1832 129.766 79.4174 129.476 79.4174C129.186 79.4174 128.951 79.1832 128.951 78.8944V75.8336Z" fill="black" stroke="white" stroke-width="0.3"/>
<path d="M133.599 82.819C133.599 82.5302 133.834 82.296 134.124 82.296C134.415 82.296 134.649 82.5302 134.649 82.819V85.8797C134.649 86.1685 134.415 86.4027 134.124 86.4027C133.834 86.4027 133.599 86.1685 133.599 85.8797V82.819Z" fill="black" stroke="white" stroke-width="0.3"/>
<path d="M133.599 75.8336C133.599 75.5448 133.834 75.3106 134.124 75.3106C134.415 75.3106 134.649 75.5448 134.649 75.8336V78.8944C134.649 79.1832 134.415 79.4174 134.124 79.4174C133.834 79.4174 133.599 79.1832 133.599 78.8944V75.8336Z" fill="black" stroke="white" stroke-width="0.3"/>
<path d="M138.244 82.819C138.244 82.5302 138.478 82.296 138.769 82.296C139.059 82.296 139.294 82.5302 139.294 82.819V85.8797C139.294 86.1685 139.059 86.4027 138.769 86.4027C138.478 86.4027 138.244 86.1685 138.244 85.8797V82.819Z" fill="black" stroke="white" stroke-width="0.3"/>
<path d="M138.244 75.8336C138.244 75.5448 138.478 75.3106 138.769 75.3106C139.059 75.3106 139.294 75.5448 139.294 75.8336V78.8944C139.294 79.1832 139.059 79.4174 138.769 79.4174C138.478 79.4174 138.244 79.1832 138.244 78.8944V75.8336Z" fill="black" stroke="white" stroke-width="0.3"/>
<path d="M142.892 82.819C142.892 82.5302 143.127 82.296 143.417 82.296C143.707 82.296 143.942 82.5302 143.942 82.819V85.8797C143.942 86.1685 143.707 86.4027 143.417 86.4027C143.127 86.4027 142.892 86.1685 142.892 85.8797V82.819Z" fill="black" stroke="white" stroke-width="0.3"/>
<path d="M142.892 75.8336C142.892 75.5448 143.127 75.3106 143.417 75.3106C143.707 75.3106 143.942 75.5448 143.942 75.8336V78.8944C143.942 79.1832 143.707 79.4174 143.417 79.4174C143.127 79.4174 142.892 79.1832 142.892 78.8944V75.8336Z" fill="black" stroke="white" stroke-width="0.3"/>
<path d="M148.583 68.8451C148.583 69.1339 148.348 69.3681 148.058 69.3681C147.768 69.3681 147.533 69.1339 147.533 68.8451V65.7838C147.533 65.495 147.768 65.2608 148.058 65.2608C148.348 65.2608 148.583 65.495 148.583 65.7838V68.8451Z" fill="black" stroke="white" stroke-width="0.3"/>
<path d="M148.583 61.8558C148.583 62.1446 148.348 62.3788 148.058 62.3788C147.768 62.3788 147.533 62.1446 147.533 61.8558V58.7945C147.533 58.5058 147.768 58.2716 148.058 58.2716C148.348 58.2716 148.583 58.5058 148.583 58.7945V61.8558Z" fill="black" stroke="white" stroke-width="0.3"/>
<path d="M153.227 68.8451C153.227 69.1339 152.993 69.3681 152.702 69.3681C152.412 69.3681 152.177 69.1339 152.177 68.8451V65.7838C152.177 65.495 152.412 65.2608 152.702 65.2608C152.993 65.2608 153.227 65.495 153.227 65.7838V68.8451Z" fill="black" stroke="white" stroke-width="0.3"/>
<path d="M153.227 61.8558C153.227 62.1446 152.993 62.3788 152.702 62.3788C152.412 62.3788 152.177 62.1446 152.177 61.8558V58.7945C152.177 58.5058 152.412 58.2716 152.702 58.2716C152.993 58.2716 153.227 58.5058 153.227 58.7945V61.8558Z" fill="black" stroke="white" stroke-width="0.3"/>
<path d="M157.876 68.8455C157.876 69.1343 157.641 69.3686 157.351 69.3686C157.061 69.3686 156.826 69.1343 156.826 68.8455V65.7839C156.826 65.495 157.061 65.2608 157.351 65.2608C157.641 65.2608 157.876 65.495 157.876 65.7839V68.8455Z" fill="black" stroke="white" stroke-width="0.3"/>
<path d="M157.876 61.8563C157.876 62.1451 157.641 62.3793 157.351 62.3793C157.061 62.3793 156.826 62.1451 156.826 61.8563V58.7946C156.826 58.5058 157.061 58.2716 157.351 58.2716C157.641 58.2716 157.876 58.5058 157.876 58.7946V61.8563Z" fill="black" stroke="white" stroke-width="0.3"/>
<path d="M162.52 68.8455C162.52 69.1344 162.286 69.3686 161.995 69.3686C161.705 69.3686 161.47 69.1344 161.47 68.8455V65.7839C161.47 65.495 161.705 65.2608 161.995 65.2608C162.286 65.2608 162.52 65.495 162.52 65.7839V68.8455Z" fill="black" stroke="white" stroke-width="0.3"/>
<path d="M162.52 61.8563C162.52 62.1451 162.286 62.3793 161.995 62.3793C161.705 62.3793 161.47 62.1451 161.47 61.8563V58.7946C161.47 58.5058 161.705 58.2716 161.995 58.2716C162.286 58.2716 162.52 58.5058 162.52 58.7946V61.8563Z" fill="black" stroke="white" stroke-width="0.3"/>
<mask id="path-29-inside-1" fill="white">
<path d="M171.328 89.154H170.147V72.4133C170.147 72.0412 169.844 71.7403 169.472 71.7403H167.84V54.7197H168.51C168.883 54.7197 169.185 54.4189 169.185 54.0467C169.185 53.6746 168.883 53.3737 168.51 53.3737H167.84V46.5873H168.51C168.883 46.5873 169.185 46.2864 169.185 45.9143C169.185 45.5421 168.883 45.2413 168.51 45.2413H167.84V37.3336C167.84 36.9615 167.538 36.6606 167.165 36.6606H120.226C119.853 36.6606 119.551 36.9615 119.551 37.3336V45.2413H118.88C118.507 45.2413 118.205 45.5421 118.205 45.9143C118.205 46.2864 118.507 46.5873 118.88 46.5873H119.551V53.3737H118.88C118.507 53.3737 118.205 53.6746 118.205 54.0467C118.205 54.4189 118.507 54.7197 118.88 54.7197H119.551V89.154H118.675C118.302 89.154 118 89.4548 118 89.827C118 90.1992 118.302 90.5 118.675 90.5H171.328C171.701 90.5 172.003 90.1992 172.003 89.827C172.003 89.4548 171.701 89.154 171.328 89.154ZM168.797 89.154H164.782V78.7226C164.782 78.3505 164.48 78.0496 164.107 78.0496H154.022C153.649 78.0496 153.347 78.3505 153.347 78.7226V89.154H148.733V73.0863H168.797V89.154ZM159.74 79.3956H163.432V89.154H159.74V79.3956ZM158.39 89.154H154.697V79.3956H158.39V89.154ZM166.49 53.3737H161.09V46.5873H166.49V53.3737ZM152.939 45.2413H147.488V38.0066H152.939V45.2413ZM154.289 38.0066H159.74V45.2413H154.289V38.0066ZM146.138 45.2413H140.687V38.0066H146.138V45.2413ZM139.337 45.2413H133.886V38.0066H139.337V45.2413ZM132.536 45.2413H127.085V38.0066H132.536V45.2413ZM132.536 46.5873V53.3737H127.085V46.5873H132.536ZM133.886 46.5873H139.337V53.3737H133.886V46.5873ZM140.687 46.5873H146.138V53.3737H140.687V46.5873ZM147.488 46.5873H152.939V53.3737H147.488V46.5873ZM154.289 46.5873H159.74V53.3737H154.289V46.5873ZM166.49 45.2413H161.09V38.0066H166.49V45.2413ZM120.901 38.0066H125.735V45.2413H120.901V38.0066ZM120.901 46.5873H125.735V53.3737H120.901V46.5873ZM166.49 54.7197V71.7403H148.058H120.901V54.7197H166.49ZM120.901 73.0863H147.383V89.154H120.901V73.0863Z"/>
</mask>
<path d="M171.328 89.154H170.147V72.4133C170.147 72.0412 169.844 71.7403 169.472 71.7403H167.84V54.7197H168.51C168.883 54.7197 169.185 54.4189 169.185 54.0467C169.185 53.6746 168.883 53.3737 168.51 53.3737H167.84V46.5873H168.51C168.883 46.5873 169.185 46.2864 169.185 45.9143C169.185 45.5421 168.883 45.2413 168.51 45.2413H167.84V37.3336C167.84 36.9615 167.538 36.6606 167.165 36.6606H120.226C119.853 36.6606 119.551 36.9615 119.551 37.3336V45.2413H118.88C118.507 45.2413 118.205 45.5421 118.205 45.9143C118.205 46.2864 118.507 46.5873 118.88 46.5873H119.551V53.3737H118.88C118.507 53.3737 118.205 53.6746 118.205 54.0467C118.205 54.4189 118.507 54.7197 118.88 54.7197H119.551V89.154H118.675C118.302 89.154 118 89.4548 118 89.827C118 90.1992 118.302 90.5 118.675 90.5H171.328C171.701 90.5 172.003 90.1992 172.003 89.827C172.003 89.4548 171.701 89.154 171.328 89.154ZM168.797 89.154H164.782V78.7226C164.782 78.3505 164.48 78.0496 164.107 78.0496H154.022C153.649 78.0496 153.347 78.3505 153.347 78.7226V89.154H148.733V73.0863H168.797V89.154ZM159.74 79.3956H163.432V89.154H159.74V79.3956ZM158.39 89.154H154.697V79.3956H158.39V89.154ZM166.49 53.3737H161.09V46.5873H166.49V53.3737ZM152.939 45.2413H147.488V38.0066H152.939V45.2413ZM154.289 38.0066H159.74V45.2413H154.289V38.0066ZM146.138 45.2413H140.687V38.0066H146.138V45.2413ZM139.337 45.2413H133.886V38.0066H139.337V45.2413ZM132.536 45.2413H127.085V38.0066H132.536V45.2413ZM132.536 46.5873V53.3737H127.085V46.5873H132.536ZM133.886 46.5873H139.337V53.3737H133.886V46.5873ZM140.687 46.5873H146.138V53.3737H140.687V46.5873ZM147.488 46.5873H152.939V53.3737H147.488V46.5873ZM154.289 46.5873H159.74V53.3737H154.289V46.5873ZM166.49 45.2413H161.09V38.0066H166.49V45.2413ZM120.901 38.0066H125.735V45.2413H120.901V38.0066ZM120.901 46.5873H125.735V53.3737H120.901V46.5873ZM166.49 54.7197V71.7403H148.058H120.901V54.7197H166.49ZM120.901 73.0863H147.383V89.154H120.901V73.0863Z" fill="black" stroke="white" stroke-width="0.6" mask="url(#path-29-inside-1)"/>
<path d="M4.58619 74.8184C4.83645 74.8184 5.03957 74.6163 5.03957 74.3664V72.3104C5.03957 72.0604 4.83645 71.8584 4.58619 71.8584C4.33593 71.8584 4.13281 72.0604 4.13281 72.3104V74.3664C4.13281 74.6163 4.33593 74.8184 4.58619 74.8184Z" fill="black"/>
<path d="M4.58619 70.125C4.83645 70.125 5.03957 69.923 5.03957 69.673V67.617C5.03957 67.3671 4.83645 67.165 4.58619 67.165C4.33593 67.165 4.13281 67.3671 4.13281 67.617V69.673C4.13281 69.923 4.33593 70.125 4.58619 70.125Z" fill="black"/>
<path d="M7.70727 74.8184C7.95752 74.8184 8.16063 74.6163 8.16063 74.3664V72.3104C8.16063 72.0604 7.95752 71.8584 7.70727 71.8584C7.45701 71.8584 7.25391 72.0604 7.25391 72.3104V74.3664C7.25391 74.6163 7.45701 74.8184 7.70727 74.8184Z" fill="black"/>
<path d="M7.70727 70.125C7.95752 70.125 8.16063 69.923 8.16063 69.673V67.617C8.16063 67.3671 7.95752 67.165 7.70727 67.165C7.45701 67.165 7.25391 67.3671 7.25391 67.617V69.673C7.25391 69.923 7.45701 70.125 7.70727 70.125Z" fill="black"/>
<path d="M10.8284 74.8184C11.0787 74.8184 11.2818 74.6163 11.2818 74.3664V72.3104C11.2818 72.0604 11.0787 71.8584 10.8284 71.8584C10.5781 71.8584 10.375 72.0604 10.375 72.3104V74.3664C10.375 74.6163 10.5781 74.8184 10.8284 74.8184Z" fill="black"/>
<path d="M10.8284 70.125C11.0787 70.125 11.2818 69.923 11.2818 69.673V67.617C11.2818 67.3671 11.0787 67.165 10.8284 67.165C10.5781 67.165 10.375 67.3671 10.375 67.617V69.673C10.375 69.923 10.5781 70.125 10.8284 70.125Z" fill="black"/>
<path d="M13.9456 74.8184C14.1958 74.8184 14.399 74.6163 14.399 74.3664V72.3104C14.399 72.0604 14.1958 71.8584 13.9456 71.8584C13.6953 71.8584 13.4922 72.0604 13.4922 72.3104V74.3664C13.4922 74.6163 13.6953 74.8184 13.9456 74.8184Z" fill="black"/>
<path d="M13.9456 70.125C14.1958 70.125 14.399 69.923 14.399 69.673V67.617C14.399 67.3671 14.1958 67.165 13.9456 67.165C13.6953 67.165 13.4922 67.3671 13.4922 67.617V69.673C13.4922 69.923 13.6953 70.125 13.9456 70.125Z" fill="black"/>
<path d="M17.0706 74.8184C17.3208 74.8184 17.524 74.6163 17.524 74.3664V72.3104C17.524 72.0604 17.3208 71.8584 17.0706 71.8584C16.8203 71.8584 16.6172 72.0604 16.6172 72.3104V74.3664C16.6172 74.6163 16.8203 74.8184 17.0706 74.8184Z" fill="black"/>
<path d="M17.0706 70.125C17.3208 70.125 17.524 69.923 17.524 69.673V67.617C17.524 67.3671 17.3208 67.165 17.0706 67.165C16.8203 67.165 16.6172 67.3671 16.6172 67.617V69.673C16.6172 69.923 16.8203 70.125 17.0706 70.125Z" fill="black"/>
<path d="M4.58619 83.2998C4.33593 83.2998 4.13281 83.5018 4.13281 83.7518V85.8073C4.13281 86.0572 4.33593 86.2593 4.58619 86.2593C4.83645 86.2593 5.03957 86.0572 5.03957 85.8073V83.7518C5.03957 83.5018 4.83645 83.2998 4.58619 83.2998Z" fill="black"/>
<path d="M4.58619 78.6055C4.33593 78.6055 4.13281 78.8075 4.13281 79.0574V81.113C4.13281 81.3629 4.33593 81.5649 4.58619 81.5649C4.83645 81.5649 5.03957 81.3629 5.03957 81.113V79.0574C5.03957 78.8075 4.83645 78.6055 4.58619 78.6055Z" fill="black"/>
<path d="M7.70727 83.2998C7.45701 83.2998 7.25391 83.5018 7.25391 83.7518V85.8073C7.25391 86.0572 7.45701 86.2593 7.70727 86.2593C7.95752 86.2593 8.16063 86.0572 8.16063 85.8073V83.7518C8.16063 83.5018 7.95752 83.2998 7.70727 83.2998Z" fill="black"/>
<path d="M7.70727 78.6055C7.45701 78.6055 7.25391 78.8075 7.25391 79.0574V81.113C7.25391 81.3629 7.45701 81.5649 7.70727 81.5649C7.95752 81.5649 8.16063 81.3629 8.16063 81.113V79.0574C8.16063 78.8075 7.95752 78.6055 7.70727 78.6055Z" fill="black"/>
<path d="M10.8284 83.2998C10.5781 83.2998 10.375 83.5018 10.375 83.7518V85.8073C10.375 86.0572 10.5781 86.2593 10.8284 86.2593C11.0787 86.2593 11.2818 86.0572 11.2818 85.8073V83.7518C11.2818 83.5018 11.0787 83.2998 10.8284 83.2998Z" fill="black"/>
<path d="M10.8284 78.6055C10.5781 78.6055 10.375 78.8075 10.375 79.0574V81.113C10.375 81.3629 10.5781 81.5649 10.8284 81.5649C11.0787 81.5649 11.2818 81.3629 11.2818 81.113V79.0574C11.2818 78.8075 11.0787 78.6055 10.8284 78.6055Z" fill="black"/>
<path d="M13.9456 83.2998C13.6953 83.2998 13.4922 83.5018 13.4922 83.7518V85.8073C13.4922 86.0572 13.6953 86.2593 13.9456 86.2593C14.1958 86.2593 14.399 86.0572 14.399 85.8073V83.7518C14.399 83.5018 14.1958 83.2998 13.9456 83.2998Z" fill="black"/>
<path d="M13.9456 78.6055C13.6953 78.6055 13.4922 78.8075 13.4922 79.0574V81.113C13.4922 81.3629 13.6953 81.5649 13.9456 81.5649C14.1958 81.5649 14.399 81.3629 14.399 81.113V79.0574C14.399 78.8075 14.1958 78.6055 13.9456 78.6055Z" fill="black"/>
<path d="M17.0706 83.2998C16.8203 83.2998 16.6172 83.5018 16.6172 83.7518V85.8073C16.6172 86.0572 16.8203 86.2593 17.0706 86.2593C17.3208 86.2593 17.524 86.0572 17.524 85.8073V83.7518C17.524 83.5018 17.3208 83.2998 17.0706 83.2998Z" fill="black"/>
<path d="M17.0706 78.6055C16.8203 78.6055 16.6172 78.8075 16.6172 79.0574V81.113C16.6172 81.3629 16.8203 81.5649 17.0706 81.5649C17.3208 81.5649 17.524 81.3629 17.524 81.113V79.0574C17.524 78.8075 17.3208 78.6055 17.0706 78.6055Z" fill="black"/>
<path d="M20.1878 74.8184C20.438 74.8184 20.6411 74.6163 20.6411 74.3664V72.3104C20.6411 72.0604 20.438 71.8584 20.1878 71.8584C19.9375 71.8584 19.7344 72.0604 19.7344 72.3104V74.3664C19.7344 74.6163 19.9375 74.8184 20.1878 74.8184Z" fill="black"/>
<path d="M20.1878 70.125C20.438 70.125 20.6411 69.923 20.6411 69.673V67.617C20.6411 67.3671 20.438 67.165 20.1878 67.165C19.9375 67.165 19.7344 67.3671 19.7344 67.617V69.673C19.7344 69.923 19.9375 70.125 20.1878 70.125Z" fill="black"/>
<path d="M23.3089 74.8184C23.5591 74.8184 23.7623 74.6163 23.7623 74.3664V72.3104C23.7623 72.0604 23.5591 71.8584 23.3089 71.8584C23.0586 71.8584 22.8555 72.0604 22.8555 72.3104V74.3664C22.8555 74.6163 23.0586 74.8184 23.3089 74.8184Z" fill="black"/>
<path d="M23.3089 70.125C23.5591 70.125 23.7623 69.923 23.7623 69.673V67.617C23.7623 67.3671 23.5591 67.165 23.3089 67.165C23.0586 67.165 22.8555 67.3671 22.8555 67.617V69.673C22.8555 69.923 23.0586 70.125 23.3089 70.125Z" fill="black"/>
<path d="M26.4299 74.8184C26.6802 74.8184 26.8833 74.6163 26.8833 74.3664V72.3104C26.8833 72.0604 26.6802 71.8584 26.4299 71.8584C26.1797 71.8584 25.9766 72.0604 25.9766 72.3104V74.3664C25.9766 74.6163 26.1797 74.8184 26.4299 74.8184Z" fill="black"/>
<path d="M26.4299 70.125C26.6802 70.125 26.8833 69.923 26.8833 69.673V67.617C26.8833 67.3671 26.6802 67.165 26.4299 67.165C26.1797 67.165 25.9766 67.3671 25.9766 67.617V69.673C25.9766 69.923 26.1797 70.125 26.4299 70.125Z" fill="black"/>
<path d="M29.551 74.8184C29.8013 74.8184 30.0044 74.6163 30.0044 74.3664V72.3104C30.0044 72.0604 29.8013 71.8584 29.551 71.8584C29.3008 71.8584 29.0977 72.0604 29.0977 72.3104V74.3664C29.0977 74.6163 29.3008 74.8184 29.551 74.8184Z" fill="black"/>
<path d="M29.551 70.125C29.8013 70.125 30.0044 69.923 30.0044 69.673V67.617C30.0044 67.3671 29.8013 67.165 29.551 67.165C29.3008 67.165 29.0977 67.3671 29.0977 67.617V69.673C29.0977 69.923 29.3008 70.125 29.551 70.125Z" fill="black"/>
<path d="M35.8173 88.0066H35.0239V76.7629C35.0239 76.513 34.8208 76.3109 34.5705 76.3109H33.4747V64.8792H33.9249C34.1751 64.8792 34.3783 64.6771 34.3783 64.4272C34.3783 64.1772 34.1751 63.9752 33.9249 63.9752H33.4747V59.4171H33.9249C34.1751 59.4171 34.3783 59.2151 34.3783 58.9651C34.3783 58.7152 34.1751 58.5131 33.9249 58.5131H33.4747V53.202C33.4747 52.952 33.2716 52.75 33.0213 52.75H1.49481C1.24454 52.75 1.04142 52.952 1.04142 53.202V58.5131H0.590759C0.340491 58.5131 0.137375 58.7152 0.137375 58.9651C0.137375 59.2151 0.340491 59.4171 0.590759 59.4171H1.04142V63.9752H0.590759C0.340491 63.9752 0.137375 64.1772 0.137375 64.4272C0.137375 64.6771 0.340491 64.8792 0.590759 64.8792H1.04142V88.0066H0.453384C0.203116 88.0066 0 88.2087 0 88.4586C0 88.7086 0.203116 88.9106 0.453384 88.9106H35.8173C36.0676 88.9106 36.2707 88.7086 36.2707 88.4586C36.2707 88.2087 36.0676 88.0066 35.8173 88.0066ZM34.1171 88.0066H31.4208V81.0005C31.4208 80.7505 31.2177 80.5485 30.9675 80.5485H24.1939C23.9436 80.5485 23.7405 80.7505 23.7405 81.0005V88.0066H20.6416V77.2149H34.1171V88.0066ZM28.0341 81.4525H30.5141V88.0066H28.0341V81.4525ZM27.1273 88.0066H24.6473V81.4525H27.1273V88.0066ZM32.5679 63.9752H28.9408V59.4171H32.5679V63.9752ZM23.4662 58.5131H19.8052V53.654H23.4662V58.5131ZM24.373 53.654H28.0341V58.5131H24.373V53.654ZM18.8988 58.5131H15.2378V53.654H18.8988V58.5131ZM14.3306 58.5131H10.6695V53.654H14.3306V58.5131ZM9.76316 58.5131H6.10209V53.654H9.76316V58.5131ZM9.76316 59.4171V63.9752H6.10209V59.4171H9.76316ZM10.6699 59.4171H14.331V63.9752H10.6699V59.4171ZM15.2373 59.4171H18.8984V63.9752H15.2373V59.4171ZM19.8056 59.4171H23.4667V63.9752H19.8056V59.4171ZM24.373 59.4171H28.0341V63.9752H24.373V59.4171ZM32.5679 58.5131H28.9408V53.654H32.5679V58.5131ZM1.94819 53.654H5.19532V58.5131H1.94819V53.654ZM1.94819 59.4171H5.19532V63.9752H1.94819V59.4171ZM32.5679 64.8792V76.3109H20.1883H1.94819V64.8792H32.5679ZM1.94819 77.2149H19.7349V88.0066H1.94819V77.2149Z" fill="black"/>
<path d="M45.9998 54.3013C45.9998 54.7567 45.6296 55.1263 45.1714 55.1263C44.7131 55.1263 44.343 54.7567 44.343 54.3013V49.1836C44.343 48.7282 44.7131 48.3586 45.1714 48.3586C45.6296 48.3586 45.9998 48.7282 45.9998 49.1836V54.3013Z" fill="black" stroke="white" stroke-width="0.6"/>
<path d="M45.9998 42.6216C45.9998 43.077 45.6296 43.4466 45.1714 43.4466C44.7131 43.4466 44.343 43.077 44.343 42.6216V37.5039C44.343 37.0485 44.7131 36.6789 45.1714 36.6789C45.6296 36.6789 45.9998 37.0485 45.9998 37.5039V42.6216Z" fill="black" stroke="white" stroke-width="0.6"/>
<path d="M53.7615 54.3013C53.7615 54.7567 53.3914 55.1263 52.9331 55.1263C52.4749 55.1263 52.1047 54.7567 52.1047 54.3013V49.1836C52.1047 48.7282 52.4749 48.3586 52.9331 48.3586C53.3914 48.3586 53.7615 48.7282 53.7615 49.1836V54.3013Z" fill="black" stroke="white" stroke-width="0.6"/>
<path d="M53.7615 42.6216C53.7615 43.077 53.3914 43.4466 52.9331 43.4466C52.4749 43.4466 52.1047 43.077 52.1047 42.6216V37.5039C52.1047 37.0485 52.4749 36.6789 52.9331 36.6789C53.3914 36.6789 53.7615 37.0485 53.7615 37.5039V42.6216Z" fill="black" stroke="white" stroke-width="0.6"/>
<path d="M61.5311 54.3013C61.5311 54.7567 61.1609 55.1263 60.7026 55.1263C60.2444 55.1263 59.8742 54.7567 59.8742 54.3013V49.1836C59.8742 48.7282 60.2444 48.3586 60.7026 48.3586C61.1609 48.3586 61.5311 48.7282 61.5311 49.1836V54.3013Z" fill="black" stroke="white" stroke-width="0.6"/>
<path d="M61.5311 42.6216C61.5311 43.077 61.1609 43.4466 60.7026 43.4466C60.2444 43.4466 59.8742 43.077 59.8742 42.6216V37.5039C59.8742 37.0485 60.2444 36.6789 60.7026 36.6789C61.1609 36.6789 61.5311 37.0485 61.5311 37.5039V42.6216Z" fill="black" stroke="white" stroke-width="0.6"/>
<path d="M69.2928 54.3013C69.2928 54.7567 68.9226 55.1263 68.4644 55.1263C68.0061 55.1263 67.6359 54.7567 67.6359 54.3013V49.1836C67.6359 48.7282 68.0061 48.3586 68.4644 48.3586C68.9226 48.3586 69.2928 48.7282 69.2928 49.1836V54.3013Z" fill="black" stroke="white" stroke-width="0.6"/>
<path d="M69.2928 42.6216C69.2928 43.077 68.9226 43.4466 68.4644 43.4466C68.0061 43.4466 67.6359 43.077 67.6359 42.6216V37.5039C67.6359 37.0485 68.0061 36.6789 68.4644 36.6789C68.9226 36.6789 69.2928 37.0485 69.2928 37.5039V42.6216Z" fill="black" stroke="white" stroke-width="0.6"/>
<path d="M77.0662 54.3013C77.0662 54.7567 76.696 55.1263 76.2378 55.1263C75.7795 55.1263 75.4094 54.7567 75.4094 54.3013V49.1836C75.4094 48.7282 75.7795 48.3586 76.2378 48.3586C76.696 48.3586 77.0662 48.7282 77.0662 49.1836V54.3013Z" fill="black" stroke="white" stroke-width="0.6"/>
<path d="M77.0662 42.6216C77.0662 43.077 76.696 43.4466 76.2378 43.4466C75.7795 43.4466 75.4094 43.077 75.4094 42.6216V37.5039C75.4094 37.0485 75.7795 36.6789 76.2378 36.6789C76.696 36.6789 77.0662 37.0485 77.0662 37.5039V42.6216Z" fill="black" stroke="white" stroke-width="0.6"/>
<path d="M44.343 77.6601C44.343 77.2048 44.7131 76.8352 45.1714 76.8352C45.6297 76.8352 45.9998 77.2048 45.9998 77.6601V82.7764C45.9998 83.2318 45.6297 83.6014 45.1714 83.6014C44.7131 83.6014 44.343 83.2318 44.343 82.7764V77.6601Z" fill="black" stroke="white" stroke-width="0.6"/>
<path d="M44.343 65.9804C44.343 65.5251 44.7131 65.1555 45.1714 65.1555C45.6297 65.1555 45.9998 65.5251 45.9998 65.9804V71.0967C45.9998 71.5521 45.6297 71.9217 45.1714 71.9217C44.7131 71.9217 44.343 71.5521 44.343 71.0967V65.9804Z" fill="black" stroke="white" stroke-width="0.6"/>
<path d="M52.1047 77.6601C52.1047 77.2048 52.4748 76.8352 52.9331 76.8352C53.3914 76.8352 53.7615 77.2048 53.7615 77.6601V82.7764C53.7615 83.2318 53.3914 83.6014 52.9331 83.6014C52.4748 83.6014 52.1047 83.2318 52.1047 82.7764V77.6601Z" fill="black" stroke="white" stroke-width="0.6"/>
<path d="M52.1047 65.9804C52.1047 65.5251 52.4748 65.1555 52.9331 65.1555C53.3914 65.1555 53.7615 65.5251 53.7615 65.9804V71.0967C53.7615 71.5521 53.3914 71.9217 52.9331 71.9217C52.4748 71.9217 52.1047 71.5521 52.1047 71.0967V65.9804Z" fill="black" stroke="white" stroke-width="0.6"/>
<path d="M59.8742 77.6601C59.8742 77.2048 60.2444 76.8352 60.7026 76.8352C61.1609 76.8352 61.5311 77.2048 61.5311 77.6601V82.7764C61.5311 83.2318 61.1609 83.6014 60.7026 83.6014C60.2444 83.6014 59.8742 83.2318 59.8742 82.7764V77.6601Z" fill="black" stroke="white" stroke-width="0.6"/>
<path d="M59.8742 65.9804C59.8742 65.5251 60.2444 65.1555 60.7026 65.1555C61.1609 65.1555 61.5311 65.5251 61.5311 65.9804V71.0967C61.5311 71.5521 61.1609 71.9217 60.7026 71.9217C60.2444 71.9217 59.8742 71.5521 59.8742 71.0967V65.9804Z" fill="black" stroke="white" stroke-width="0.6"/>
<path d="M67.6359 77.6601C67.6359 77.2048 68.0061 76.8352 68.4644 76.8352C68.9226 76.8352 69.2928 77.2048 69.2928 77.6601V82.7764C69.2928 83.2318 68.9226 83.6014 68.4644 83.6014C68.0061 83.6014 67.6359 83.2318 67.6359 82.7764V77.6601Z" fill="black" stroke="white" stroke-width="0.6"/>
<path d="M67.6359 65.9804C67.6359 65.5251 68.0061 65.1555 68.4644 65.1555C68.9226 65.1555 69.2928 65.5251 69.2928 65.9804V71.0967C69.2928 71.5521 68.9226 71.9217 68.4644 71.9217C68.0061 71.9217 67.6359 71.5521 67.6359 71.0967V65.9804Z" fill="black" stroke="white" stroke-width="0.6"/>
<path d="M75.4094 77.6601C75.4094 77.2048 75.7795 76.8352 76.2378 76.8352C76.6961 76.8352 77.0662 77.2048 77.0662 77.6601V82.7764C77.0662 83.2318 76.6961 83.6014 76.2378 83.6014C75.7795 83.6014 75.4094 83.2318 75.4094 82.7764V77.6601Z" fill="black" stroke="white" stroke-width="0.6"/>
<path d="M75.4094 65.9804C75.4094 65.5251 75.7795 65.1555 76.2378 65.1555C76.6961 65.1555 77.0662 65.5251 77.0662 65.9804V71.0967C77.0662 71.5521 76.6961 71.9217 76.2378 71.9217C75.7795 71.9217 75.4094 71.5521 75.4094 71.0967V65.9804Z" fill="black" stroke="white" stroke-width="0.6"/>
<path d="M84.8299 54.3013C84.8299 54.7567 84.4597 55.1263 84.0015 55.1263C83.5432 55.1263 83.173 54.7567 83.173 54.3013V49.1836C83.173 48.7282 83.5432 48.3586 84.0015 48.3586C84.4597 48.3586 84.8299 48.7282 84.8299 49.1836V54.3013Z" fill="black" stroke="white" stroke-width="0.6"/>
<path d="M84.8299 42.6216C84.8299 43.077 84.4597 43.4466 84.0015 43.4466C83.5432 43.4466 83.173 43.077 83.173 42.6216V37.5039C83.173 37.0485 83.5432 36.6789 84.0015 36.6789C84.4597 36.6789 84.8299 37.0485 84.8299 37.5039V42.6216Z" fill="black" stroke="white" stroke-width="0.6"/>
<path d="M92.5936 54.3013C92.5936 54.7567 92.2234 55.1263 91.7651 55.1263C91.3069 55.1263 90.9367 54.7567 90.9367 54.3013V49.1836C90.9367 48.7282 91.3069 48.3586 91.7651 48.3586C92.2234 48.3586 92.5936 48.7282 92.5936 49.1836V54.3013Z" fill="black" stroke="white" stroke-width="0.6"/>
<path d="M92.5936 42.6216C92.5936 43.077 92.2234 43.4466 91.7651 43.4466C91.3069 43.4466 90.9367 43.077 90.9367 42.6216V37.5039C90.9367 37.0485 91.3069 36.6789 91.7651 36.6789C92.2234 36.6789 92.5936 37.0485 92.5936 37.5039V42.6216Z" fill="black" stroke="white" stroke-width="0.6"/>
<path d="M100.359 54.3013C100.359 54.7567 99.989 55.1263 99.5308 55.1263C99.0725 55.1263 98.7023 54.7567 98.7023 54.3013V49.1836C98.7023 48.7282 99.0725 48.3586 99.5308 48.3586C99.989 48.3586 100.359 48.7282 100.359 49.1836V54.3013Z" fill="black" stroke="white" stroke-width="0.6"/>
<path d="M100.359 42.6216C100.359 43.077 99.989 43.4466 99.5308 43.4466C99.0725 43.4466 98.7023 43.077 98.7023 42.6216V37.5039C98.7023 37.0485 99.0725 36.6789 99.5308 36.6789C99.989 36.6789 100.359 37.0485 100.359 37.5039V42.6216Z" fill="black" stroke="white" stroke-width="0.6"/>
<path d="M108.125 54.3013C108.125 54.7567 107.755 55.1263 107.296 55.1263C106.838 55.1263 106.468 54.7567 106.468 54.3013V49.1836C106.468 48.7282 106.838 48.3586 107.296 48.3586C107.755 48.3586 108.125 48.7282 108.125 49.1836V54.3013Z" fill="black" stroke="white" stroke-width="0.6"/>
<path d="M108.125 42.6216C108.125 43.077 107.755 43.4466 107.296 43.4466C106.838 43.4466 106.468 43.077 106.468 42.6216V37.5039C106.468 37.0485 106.838 36.6789 107.296 36.6789C107.755 36.6789 108.125 37.0485 108.125 37.5039V42.6216Z" fill="black" stroke="white" stroke-width="0.6"/>
<mask id="path-87-inside-2" fill="white">
<path d="M122.899 88.25H120.925V60.2656C120.925 59.6435 120.419 59.1406 119.796 59.1406H117.069V30.6882H118.189C118.812 30.6882 119.318 30.1854 119.318 29.5632C119.318 28.9411 118.812 28.4382 118.189 28.4382H117.069V17.0938H118.189C118.812 17.0938 119.318 16.5909 119.318 15.9688C119.318 15.3466 118.812 14.8438 118.189 14.8438H117.069V1.625C117.069 1.00288 116.563 0.5 115.94 0.5H37.4743C36.8514 0.5 36.3459 1.00288 36.3459 1.625V14.8438H35.2242C34.6014 14.8438 34.0958 15.3466 34.0958 15.9688C34.0958 16.5909 34.6014 17.0938 35.2242 17.0938H36.3459V28.4382H35.2242C34.6014 28.4382 34.0958 28.9411 34.0958 29.5632C34.0958 30.1854 34.6014 30.6882 35.2242 30.6882H36.3459V88.25H34.8823C34.2594 88.25 33.7539 88.7529 33.7539 89.375C33.7539 89.9971 34.2594 90.5 34.8823 90.5H122.899C123.522 90.5 124.028 89.9971 124.028 89.375C124.028 88.7529 123.522 88.25 122.899 88.25ZM118.668 88.25H111.957V70.8125C111.957 70.1904 111.451 69.6875 110.829 69.6875H93.9699C93.347 69.6875 92.8415 70.1904 92.8415 70.8125V88.25H85.1287V61.3906H118.668V88.25ZM103.528 71.9375H109.7V88.25H103.528V71.9375ZM101.271 88.25H95.0983V71.9375H101.271V88.25ZM114.812 28.4382H105.785V17.0938H114.812V28.4382ZM92.1588 14.8438H83.0468V2.75H92.1588V14.8438ZM94.4156 2.75H103.528V14.8438H94.4156V2.75ZM80.7911 14.8438H71.6791V2.75H80.7911V14.8438ZM69.4211 14.8438H60.3091V2.75H69.4211V14.8438ZM58.0534 14.8438H48.9413V2.75H58.0534V14.8438ZM58.0534 17.0938V28.4382H48.9413V17.0938H58.0534ZM60.3102 17.0938H69.4222V28.4382H60.3102V17.0938ZM71.6779 17.0938H80.7899V28.4382H71.6779V17.0938ZM83.0479 17.0938H92.1599V28.4382H83.0479V17.0938ZM94.4156 17.0938H103.528V28.4382H94.4156V17.0938ZM114.812 14.8438H105.785V2.75H114.812V14.8438ZM38.6027 2.75H46.6845V14.8438H38.6027V2.75ZM38.6027 17.0938H46.6845V28.4382H38.6027V17.0938ZM114.812 30.6882V59.1406H84.0003H38.6027V30.6882H114.812ZM38.6027 61.3906H82.8719V88.25H38.6027V61.3906Z"/>
</mask>
<path d="M122.899 88.25H120.925V60.2656C120.925 59.6435 120.419 59.1406 119.796 59.1406H117.069V30.6882H118.189C118.812 30.6882 119.318 30.1854 119.318 29.5632C119.318 28.9411 118.812 28.4382 118.189 28.4382H117.069V17.0938H118.189C118.812 17.0938 119.318 16.5909 119.318 15.9688C119.318 15.3466 118.812 14.8438 118.189 14.8438H117.069V1.625C117.069 1.00288 116.563 0.5 115.94 0.5H37.4743C36.8514 0.5 36.3459 1.00288 36.3459 1.625V14.8438H35.2242C34.6014 14.8438 34.0958 15.3466 34.0958 15.9688C34.0958 16.5909 34.6014 17.0938 35.2242 17.0938H36.3459V28.4382H35.2242C34.6014 28.4382 34.0958 28.9411 34.0958 29.5632C34.0958 30.1854 34.6014 30.6882 35.2242 30.6882H36.3459V88.25H34.8823C34.2594 88.25 33.7539 88.7529 33.7539 89.375C33.7539 89.9971 34.2594 90.5 34.8823 90.5H122.899C123.522 90.5 124.028 89.9971 124.028 89.375C124.028 88.7529 123.522 88.25 122.899 88.25ZM118.668 88.25H111.957V70.8125C111.957 70.1904 111.451 69.6875 110.829 69.6875H93.9699C93.347 69.6875 92.8415 70.1904 92.8415 70.8125V88.25H85.1287V61.3906H118.668V88.25ZM103.528 71.9375H109.7V88.25H103.528V71.9375ZM101.271 88.25H95.0983V71.9375H101.271V88.25ZM114.812 28.4382H105.785V17.0938H114.812V28.4382ZM92.1588 14.8438H83.0468V2.75H92.1588V14.8438ZM94.4156 2.75H103.528V14.8438H94.4156V2.75ZM80.7911 14.8438H71.6791V2.75H80.7911V14.8438ZM69.4211 14.8438H60.3091V2.75H69.4211V14.8438ZM58.0534 14.8438H48.9413V2.75H58.0534V14.8438ZM58.0534 17.0938V28.4382H48.9413V17.0938H58.0534ZM60.3102 17.0938H69.4222V28.4382H60.3102V17.0938ZM71.6779 17.0938H80.7899V28.4382H71.6779V17.0938ZM83.0479 17.0938H92.1599V28.4382H83.0479V17.0938ZM94.4156 17.0938H103.528V28.4382H94.4156V17.0938ZM114.812 14.8438H105.785V2.75H114.812V14.8438ZM38.6027 2.75H46.6845V14.8438H38.6027V2.75ZM38.6027 17.0938H46.6845V28.4382H38.6027V17.0938ZM114.812 30.6882V59.1406H84.0003H38.6027V30.6882H114.812ZM38.6027 61.3906H82.8719V88.25H38.6027V61.3906Z" fill="black" stroke="white" stroke-width="1.2" mask="url(#path-87-inside-2)"/>
</svg>
