<svg width="2500" height="960" viewBox="0 0 2500 960" fill="none" xmlns="http://www.w3.org/2000/svg">
<g clip-path="url(#clip0)">
<path d="M1938.9 572.6H1877.02H1875.5H1813.62C1828.82 616.304 1813.87 714.91 1767.38 802.262H1875.5H1877.02H1985.14C1938.66 714.91 1920.97 637.102 1938.9 572.6Z" fill="#EBECED"/>
<path d="M1985.01 810.9H1767.38V813.771H1985.01V810.9Z" fill="#EBECED"/>
<path d="M1768.4 802.236H1767.38V813.095H1768.4V802.236Z" fill="#EBECED"/>
<path d="M1984.96 802.236H1984.04V813.095H1984.96V802.236Z" fill="#EBECED"/>
<path d="M1768.42 811.893L1767.69 811.186L1778.21 800.723L1778.93 801.444L1768.42 811.893Z" fill="#EBECED"/>
<path d="M1788.09 812.287L1787.37 813.008L1776.85 802.545L1777.57 801.838L1788.09 812.287Z" fill="#EBECED"/>
<path d="M1786.41 811.893L1785.69 811.186L1796.21 800.723L1796.92 801.444L1786.41 811.893Z" fill="#EBECED"/>
<path d="M1806.08 812.287L1805.36 813.008L1794.85 802.545L1795.56 801.838L1806.08 812.287Z" fill="#EBECED"/>
<path d="M1804.4 811.893L1803.68 811.186L1814.2 800.723L1814.92 801.444L1804.4 811.893Z" fill="#EBECED"/>
<path d="M1824.08 812.287L1823.36 813.008L1812.84 802.545L1813.56 801.838L1824.08 812.287Z" fill="#EBECED"/>
<path d="M1822.38 811.893L1821.68 811.186L1832.18 800.723L1832.9 801.444L1822.38 811.893Z" fill="#EBECED"/>
<path d="M1842.07 812.287L1841.35 813.008L1830.84 802.545L1831.55 801.838L1842.07 812.287Z" fill="#EBECED"/>
<path d="M1840.38 811.893L1839.66 811.186L1850.18 800.723L1850.9 801.444L1840.38 811.893Z" fill="#EBECED"/>
<path d="M1860.06 812.287L1859.34 813.008L1848.82 802.545L1849.54 801.838L1860.06 812.287Z" fill="#EBECED"/>
<path d="M1858.37 811.893L1857.66 811.186L1868.17 800.723L1868.89 801.444L1858.37 811.893Z" fill="#EBECED"/>
<path d="M1878.05 812.287L1877.33 813.008L1866.81 802.545L1867.53 801.838L1878.05 812.287Z" fill="#EBECED"/>
<path d="M1876.37 811.893L1875.65 811.186L1886.17 800.723L1886.87 801.444L1876.37 811.893Z" fill="#EBECED"/>
<path d="M1896.04 812.287L1895.31 813.008L1884.81 802.545L1885.52 801.838L1896.04 812.287Z" fill="#EBECED"/>
<path d="M1894.35 811.893L1893.63 811.186L1904.15 800.723L1904.87 801.444L1894.35 811.893Z" fill="#EBECED"/>
<path d="M1914.03 812.287L1913.31 813.008L1902.79 802.545L1903.51 801.838L1914.03 812.287Z" fill="#EBECED"/>
<path d="M1912.34 811.893L1911.63 811.186L1922.13 800.723L1922.86 801.444L1912.34 811.893Z" fill="#EBECED"/>
<path d="M1932.02 812.287L1931.3 813.008L1920.79 802.545L1921.5 801.838L1932.02 812.287Z" fill="#EBECED"/>
<path d="M1930.34 811.893L1929.61 811.186L1940.13 800.723L1940.86 801.444L1930.34 811.893Z" fill="#EBECED"/>
<path d="M1950 812.287L1949.3 813.008L1938.78 802.545L1939.48 801.838L1950 812.287Z" fill="#EBECED"/>
<path d="M1948.32 811.893L1947.6 811.186L1958.12 800.723L1958.84 801.444L1948.32 811.893Z" fill="#EBECED"/>
<path d="M1968 812.287L1967.28 813.008L1956.76 802.545L1957.48 801.838L1968 812.287Z" fill="#EBECED"/>
<path d="M1966.32 811.893L1965.6 811.186L1976.12 800.723L1976.83 801.444L1966.32 811.893Z" fill="#EBECED"/>
<path d="M1984.96 811.269L1975.47 801.838L1974.76 802.545L1984.96 812.697V811.269Z" fill="#EBECED"/>
<path d="M1815.2 557.654H1814.77V573.151H1815.2V557.654Z" fill="#EBECED"/>
<path d="M1815.57 557.486C1815.57 557.812 1815.3 558.08 1814.97 558.08C1814.65 558.08 1814.38 557.826 1814.38 557.486C1814.38 557.161 1814.65 556.893 1814.97 556.893C1815.3 556.893 1815.57 557.161 1815.57 557.486Z" fill="#EBECED"/>
<path d="M1936.07 557.654H1935.65V573.151H1936.07V557.654Z" fill="#EBECED"/>
<path d="M1936.44 557.486C1936.44 557.812 1936.17 558.08 1935.85 558.08C1935.52 558.08 1935.26 557.826 1935.26 557.486C1935.26 557.161 1935.52 556.893 1935.85 556.893C1936.17 556.893 1936.44 557.161 1936.44 557.486Z" fill="#EBECED"/>
<path d="M765.125 572.6H703.238H701.725H639.838C655.023 616.304 640.078 714.91 593.603 802.262H701.725H703.238H811.36C764.87 714.91 747.196 637.102 765.125 572.6Z" fill="#EBECED"/>
<path d="M811.22 810.9H593.59V813.771H811.22V810.9Z" fill="#EBECED"/>
<path d="M594.608 802.236H593.59V813.095H594.608V802.236Z" fill="#EBECED"/>
<path d="M811.164 802.236H810.245V813.095H811.164V802.236Z" fill="#EBECED"/>
<path d="M594.637 811.893L593.916 811.186L604.436 800.723L605.143 801.444L594.637 811.893Z" fill="#EBECED"/>
<path d="M614.306 812.287L613.585 813.008L603.079 802.545L603.786 801.838L614.306 812.287Z" fill="#EBECED"/>
<path d="M612.621 811.893L611.899 811.186L622.419 800.723L623.14 801.444L612.621 811.893Z" fill="#EBECED"/>
<path d="M632.302 812.287L631.581 813.008L621.062 802.545L621.783 801.838L632.302 812.287Z" fill="#EBECED"/>
<path d="M630.605 811.893L629.898 811.186L640.404 800.723L641.125 801.444L630.605 811.893Z" fill="#EBECED"/>
<path d="M650.289 812.287L649.568 813.008L639.049 802.545L639.77 801.838L650.289 812.287Z" fill="#EBECED"/>
<path d="M648.606 811.893L647.885 811.186L658.404 800.723L659.125 801.444L648.606 811.893Z" fill="#EBECED"/>
<path d="M668.274 812.287L667.567 813.008L657.048 802.545L657.769 801.838L668.274 812.287Z" fill="#EBECED"/>
<path d="M666.589 811.893L665.868 811.186L676.388 800.723L677.109 801.444L666.589 811.893Z" fill="#EBECED"/>
<path d="M686.271 812.287L685.55 813.008L675.03 802.545L675.751 801.838L686.271 812.287Z" fill="#EBECED"/>
<path d="M684.589 811.893L683.868 811.186L694.388 800.723L695.095 801.444L684.589 811.893Z" fill="#EBECED"/>
<path d="M704.258 812.287L703.537 813.008L693.031 802.545L693.738 801.838L704.258 812.287Z" fill="#EBECED"/>
<path d="M702.575 811.893L701.854 811.186L712.373 800.723L713.094 801.444L702.575 811.893Z" fill="#EBECED"/>
<path d="M722.257 812.287L721.536 813.008L711.017 802.545L711.738 801.838L722.257 812.287Z" fill="#EBECED"/>
<path d="M720.561 811.893L719.854 811.186L730.36 800.723L731.081 801.444L720.561 811.893Z" fill="#EBECED"/>
<path d="M740.241 812.287L739.52 813.008L729 802.545L729.721 801.838L740.241 812.287Z" fill="#EBECED"/>
<path d="M738.558 811.893L737.837 811.186L748.356 800.723L749.063 801.444L738.558 811.893Z" fill="#EBECED"/>
<path d="M758.226 812.287L757.505 813.008L747 802.545L747.721 801.838L758.226 812.287Z" fill="#EBECED"/>
<path d="M756.543 811.893L755.822 811.186L766.342 800.723L767.063 801.444L756.543 811.893Z" fill="#EBECED"/>
<path d="M776.226 812.287L775.505 813.008L764.985 802.545L765.706 801.838L776.226 812.287Z" fill="#EBECED"/>
<path d="M774.544 811.893L773.823 811.186L784.343 800.723L785.05 801.444L774.544 811.893Z" fill="#EBECED"/>
<path d="M794.21 812.287L793.489 813.008L782.983 802.545L783.69 801.838L794.21 812.287Z" fill="#EBECED"/>
<path d="M792.527 811.893L791.806 811.186L802.325 800.723L803.046 801.444L792.527 811.893Z" fill="#EBECED"/>
<path d="M811.163 811.269L801.69 801.838L800.969 802.545L811.163 812.697V811.269Z" fill="#EBECED"/>
<path d="M641.409 557.654H640.984V573.151H641.409V557.654Z" fill="#EBECED"/>
<path d="M641.777 557.486C641.777 557.812 641.508 558.08 641.183 558.08C640.858 558.08 640.589 557.826 640.589 557.486C640.589 557.161 640.858 556.893 641.183 556.893C641.508 556.893 641.777 557.161 641.777 557.486Z" fill="#EBECED"/>
<path d="M762.285 557.654H761.86V573.151H762.285V557.654Z" fill="#EBECED"/>
<path d="M762.653 557.486C762.653 557.812 762.384 558.08 762.059 558.08C761.733 558.08 761.465 557.826 761.465 557.486C761.465 557.161 761.733 556.893 762.059 556.893C762.398 556.893 762.653 557.161 762.653 557.486Z" fill="#EBECED"/>
<path d="M2165.4 572.6H2103.51H2102H2040.11C2055.31 616.304 2040.35 714.91 1993.88 802.262H2102H2103.51H2211.63C2165.16 714.91 2147.47 637.102 2165.4 572.6Z" fill="#EBECED"/>
<path d="M2211.51 810.9H1993.88V813.771H2211.51V810.9Z" fill="#EBECED"/>
<path d="M1994.89 802.236H1993.88V813.095H1994.89V802.236Z" fill="#EBECED"/>
<path d="M2211.45 802.236H2210.52V813.095H2211.45V802.236Z" fill="#EBECED"/>
<path d="M1994.91 811.893L1994.19 811.186L2004.71 800.723L2005.43 801.444L1994.91 811.893Z" fill="#EBECED"/>
<path d="M2014.59 812.287L2013.87 813.008L2003.35 802.545L2004.07 801.838L2014.59 812.287Z" fill="#EBECED"/>
<path d="M2012.89 811.893L2012.19 811.186L2022.69 800.723L2023.41 801.444L2012.89 811.893Z" fill="#EBECED"/>
<path d="M2032.58 812.287L2031.85 813.008L2021.35 802.545L2022.06 801.838L2032.58 812.287Z" fill="#EBECED"/>
<path d="M2030.89 811.893L2030.17 811.186L2040.69 800.723L2041.41 801.444L2030.89 811.893Z" fill="#EBECED"/>
<path d="M2050.56 812.287L2049.85 813.008L2039.33 802.545L2040.05 801.838L2050.56 812.287Z" fill="#EBECED"/>
<path d="M2048.88 811.893L2048.17 811.186L2058.68 800.723L2059.4 801.444L2048.88 811.893Z" fill="#EBECED"/>
<path d="M2068.56 812.287L2067.84 813.008L2057.32 802.545L2058.04 801.838L2068.56 812.287Z" fill="#EBECED"/>
<path d="M2066.88 811.893L2066.16 811.186L2076.68 800.723L2077.38 801.444L2066.88 811.893Z" fill="#EBECED"/>
<path d="M2086.54 812.287L2085.82 813.008L2075.32 802.545L2076.04 801.838L2086.54 812.287Z" fill="#EBECED"/>
<path d="M2084.86 811.893L2084.14 811.186L2094.66 800.723L2095.38 801.444L2084.86 811.893Z" fill="#EBECED"/>
<path d="M2104.55 812.287L2103.82 813.008L2093.3 802.545L2094.03 801.838L2104.55 812.287Z" fill="#EBECED"/>
<path d="M2102.85 811.893L2102.14 811.186L2112.65 800.723L2113.37 801.444L2102.85 811.893Z" fill="#EBECED"/>
<path d="M2122.53 812.287L2121.81 813.008L2111.29 802.545L2112.01 801.838L2122.53 812.287Z" fill="#EBECED"/>
<path d="M2120.85 811.893L2120.12 811.186L2130.64 800.723L2131.37 801.444L2120.85 811.893Z" fill="#EBECED"/>
<path d="M2140.51 812.287L2139.81 813.008L2129.29 802.545L2130.01 801.838L2140.51 812.287Z" fill="#EBECED"/>
<path d="M2138.83 811.893L2138.11 811.186L2148.63 800.723L2149.35 801.444L2138.83 811.893Z" fill="#EBECED"/>
<path d="M2158.51 812.287L2157.79 813.008L2147.27 802.545L2147.99 801.838L2158.51 812.287Z" fill="#EBECED"/>
<path d="M2156.83 811.893L2156.11 811.186L2166.63 800.723L2167.34 801.444L2156.83 811.893Z" fill="#EBECED"/>
<path d="M2176.5 812.287L2175.78 813.008L2165.27 802.545L2165.98 801.838L2176.5 812.287Z" fill="#EBECED"/>
<path d="M2174.82 811.893L2174.1 811.186L2184.62 800.723L2185.34 801.444L2174.82 811.893Z" fill="#EBECED"/>
<path d="M2194.5 812.287L2193.78 813.008L2183.26 802.545L2183.98 801.838L2194.5 812.287Z" fill="#EBECED"/>
<path d="M2192.8 811.893L2192.09 811.186L2202.6 800.723L2203.32 801.444L2192.8 811.893Z" fill="#EBECED"/>
<path d="M2211.45 811.269L2201.96 801.838L2201.24 802.545L2211.45 812.697V811.269Z" fill="#EBECED"/>
<path d="M2041.68 557.654H2041.26V573.151H2041.68V557.654Z" fill="#EBECED"/>
<path d="M2042.06 557.486C2042.06 557.812 2041.79 558.08 2041.47 558.08C2041.14 558.08 2040.88 557.826 2040.88 557.486C2040.88 557.161 2041.14 556.893 2041.47 556.893C2041.79 556.893 2042.06 557.161 2042.06 557.486Z" fill="#EBECED"/>
<path d="M2162.56 557.654H2162.13V573.151H2162.56V557.654Z" fill="#EBECED"/>
<path d="M2162.94 557.486C2162.94 557.812 2162.67 558.08 2162.35 558.08C2162.02 558.08 2161.75 557.826 2161.75 557.486C2161.75 557.161 2162.02 556.893 2162.35 556.893C2162.67 556.893 2162.94 557.161 2162.94 557.486Z" fill="#EBECED"/>
<path d="M575.495 776.023H525.626V813.775H575.495V776.023Z" fill="#EBECED"/>
<path d="M586.652 759.846H536.783V813.787H586.652V759.846Z" fill="#EBECED"/>
<path d="M228.692 797.381H53V884.972H228.692V797.381Z" fill="#EBECED"/>
<path d="M268 759.846H92.3076V885H268V759.846Z" fill="#EBECED"/>
<path d="M881.009 644.729H875.764V775.191H881.009V644.729Z" fill="#EBECED"/>
<path d="M881.604 645.165C881.604 645.406 881.434 645.618 881.222 645.618H875.524C875.312 645.618 875.143 645.42 875.143 645.165C875.143 644.925 875.312 644.713 875.524 644.713H881.222C881.434 644.727 881.604 644.925 881.604 645.165Z" fill="#EBECED"/>
<path d="M881.604 661.368C881.604 661.609 881.434 661.821 881.222 661.821H875.524C875.312 661.821 875.143 661.623 875.143 661.368C875.143 661.128 875.312 660.916 875.524 660.916H881.222C881.434 660.93 881.604 661.128 881.604 661.368Z" fill="#EBECED"/>
<path d="M881.604 677.585C881.604 677.826 881.434 678.038 881.222 678.038H875.524C875.312 678.038 875.143 677.84 875.143 677.585C875.143 677.345 875.312 677.133 875.524 677.133H881.222C881.434 677.133 881.604 677.331 881.604 677.585Z" fill="#EBECED"/>
<path d="M881.604 693.79C881.604 694.031 881.434 694.243 881.222 694.243H875.524C875.312 694.243 875.143 694.045 875.143 693.79C875.143 693.55 875.312 693.338 875.524 693.338H881.222C881.434 693.338 881.604 693.536 881.604 693.79Z" fill="#EBECED"/>
<path d="M881.604 709.995C881.604 710.236 881.434 710.448 881.222 710.448H875.524C875.312 710.448 875.143 710.25 875.143 709.995C875.143 709.755 875.312 709.543 875.524 709.543H881.222C881.434 709.543 881.604 709.755 881.604 709.995Z" fill="#EBECED"/>
<path d="M881.604 726.195C881.604 726.435 881.434 726.647 881.222 726.647H875.524C875.312 726.647 875.143 726.449 875.143 726.195C875.143 725.954 875.312 725.742 875.524 725.742H881.222C881.434 725.756 881.604 725.954 881.604 726.195Z" fill="#EBECED"/>
<path d="M881.604 742.4C881.604 742.64 881.434 742.852 881.222 742.852H875.524C875.312 742.852 875.143 742.654 875.143 742.4C875.143 742.159 875.312 741.947 875.524 741.947H881.222C881.434 741.961 881.604 742.159 881.604 742.4Z" fill="#EBECED"/>
<path d="M881.604 758.603C881.604 758.843 881.434 759.055 881.222 759.055H875.524C875.312 759.055 875.143 758.857 875.143 758.603C875.143 758.362 875.312 758.15 875.524 758.15H881.222C881.434 758.165 881.604 758.362 881.604 758.603Z" fill="#EBECED"/>
<path d="M901.823 774.057H854.952V778.723H901.823V774.057Z" fill="#EBECED"/>
<path d="M861.389 775.528L875.33 742.414L875.542 742.513L861.615 775.627L861.389 775.528Z" fill="#EBECED"/>
<path d="M881.037 742.626L881.249 742.527L896.109 774.595L895.897 774.694L881.037 742.626Z" fill="#EBECED"/>
<path d="M857.413 775.666L875.681 677.568L875.921 677.611L857.653 775.708L857.413 775.666Z" fill="#EBECED"/>
<path d="M881.082 677.544L881.322 677.502L898.926 775.204L898.699 775.246L881.082 677.544Z" fill="#EBECED"/>
<path d="M1407.61 610.797H1406.41H1400.34H1399.14V625.827H1400.34V778.615H1406.41V625.827H1407.61V610.797Z" fill="#EBECED"/>
<path d="M1414.41 646.598H1392.34V647.191H1414.41V646.598Z" fill="#EBECED"/>
<path d="M1413.95 646.598H1413.51L1413.86 646.909L1403.37 656.113L1392.89 646.909L1393.25 646.598H1392.79L1392.44 646.909L1403.37 656.509L1414.31 646.909L1414.2 646.81L1413.95 646.598Z" fill="#EBECED"/>
<path d="M1392.34 646.598V665.954H1414.41V646.598H1392.34ZM1393.13 665.276V647.29H1413.63V665.276H1393.13Z" fill="#EBECED"/>
<path d="M1392.44 665.686L1403.37 656.086L1414.2 665.587L1414.09 665.686L1414.2 665.587L1414.31 665.686L1403.38 675.287L1392.44 665.686ZM1392.89 665.686L1403.38 674.891L1413.88 665.686L1403.38 656.482L1392.89 665.686Z" fill="#EBECED"/>
<path d="M1392.34 684.73V665.359H1414.41V684.377V684.716H1392.34V684.73ZM1414.02 684.377V684.023V684.377ZM1393.13 684.037H1413.63V666.052H1393.13V684.037Z" fill="#EBECED"/>
<path d="M1392.44 684.448L1403.37 674.848L1414.2 684.349L1414.09 684.448L1414.2 684.349L1414.31 684.448L1403.38 694.049L1392.44 684.448ZM1392.89 684.448L1403.38 693.653L1413.87 684.448L1403.38 675.244L1392.89 684.448Z" fill="#EBECED"/>
<path d="M1392.34 703.509V684.139H1414.41V703.156V703.509H1392.34ZM1414.02 703.156V702.817V703.156ZM1393.13 702.817H1413.63V684.831H1393.13V702.817Z" fill="#EBECED"/>
<path d="M1392.44 703.222L1403.37 693.621L1414.2 703.123L1414.09 703.222L1414.2 703.123L1414.31 703.222L1403.38 712.822L1392.44 703.222ZM1392.89 703.222L1403.38 712.426L1413.87 703.222L1403.38 694.017L1392.89 703.222Z" fill="#EBECED"/>
<path d="M1392.34 722.353V702.982H1414.41V722V722.353H1392.34ZM1414.02 722V721.66V722ZM1393.13 721.66H1413.63V703.675H1393.13V721.66Z" fill="#EBECED"/>
<path d="M1392.44 722.071L1403.37 712.471L1414.2 721.972L1414.09 722.071L1414.2 721.972L1414.31 722.071L1403.38 731.672L1392.44 722.071ZM1392.89 722.071L1403.38 731.276L1413.87 722.071L1403.38 712.867L1392.89 722.071Z" fill="#EBECED"/>
<path d="M1392.34 741.115V721.744H1414.41V740.761V741.115H1392.34ZM1414.02 740.775V740.436V740.775ZM1393.13 740.422H1413.63V722.437H1393.13V740.422Z" fill="#EBECED"/>
<path d="M1392.44 740.847L1403.37 731.246L1414.2 740.748L1414.09 740.847L1414.2 740.748L1414.31 740.847L1403.38 750.447L1392.44 740.847ZM1392.89 740.847L1403.38 750.051L1413.87 740.847L1403.38 731.642L1392.89 740.847Z" fill="#EBECED"/>
<path d="M1392.34 759.894V740.523H1414.41V759.541V759.88H1392.34V759.894ZM1414.02 759.541V759.187V759.541ZM1393.13 759.201H1413.63V741.216H1393.13V759.201Z" fill="#EBECED"/>
<path d="M1392.44 759.614L1403.37 750.014L1414.2 759.515L1414.09 759.614L1414.2 759.515L1414.31 759.614L1403.38 769.215L1392.44 759.614ZM1392.89 759.614L1403.38 768.819L1413.87 759.614L1403.38 750.41L1392.89 759.614Z" fill="#EBECED"/>
<path d="M1414.41 778.617V759.303H1392.34V778.617H1414.41ZM1393.13 759.981H1413.63V777.966H1393.13V759.981Z" fill="#EBECED"/>
<path d="M1393.15 778.612L1392.89 778.386L1403.37 769.181L1413.86 778.386L1413.61 778.612H1414.06L1414.31 778.386L1414.2 778.287L1403.37 768.785L1392.44 778.386L1392.69 778.612H1393.15Z" fill="#EBECED"/>
<path d="M1730.41 608.094H1729.21H1723.13H1721.93V623.124H1723.13V775.912H1729.21V623.124H1730.41V608.094Z" fill="#EBECED"/>
<path d="M1737.2 643.895H1715.12V644.488H1737.2V643.895Z" fill="#EBECED"/>
<path d="M1736.74 643.895H1736.29L1736.66 644.22L1726.17 653.424L1715.68 644.22L1716.03 643.895H1715.59L1715.22 644.206L1726.17 653.806L1737.1 644.206L1736.98 644.121L1736.74 643.895Z" fill="#EBECED"/>
<path d="M1715.12 643.895V663.251H1737.2V643.895H1715.12ZM1715.92 662.572V644.587H1736.42V662.572H1715.92Z" fill="#EBECED"/>
<path d="M1715.23 662.983L1726.16 653.383L1736.99 662.884L1736.87 662.983L1736.99 662.884L1737.1 662.983L1726.17 672.584L1715.23 662.983ZM1715.68 662.983L1726.17 672.188L1736.66 662.983L1726.17 653.779L1715.68 662.983Z" fill="#EBECED"/>
<path d="M1715.12 682.027V662.656H1737.2V681.673V682.013H1715.12V682.027ZM1736.8 681.688V681.334V681.688ZM1715.92 681.334H1736.42V663.349H1715.92V681.334Z" fill="#EBECED"/>
<path d="M1715.23 681.759L1726.16 672.158L1736.99 681.66L1736.87 681.759L1736.99 681.66L1737.1 681.759L1726.16 691.359L1715.23 681.759ZM1715.68 681.759L1726.17 690.963L1736.66 681.759L1726.17 672.554L1715.68 681.759Z" fill="#EBECED"/>
<path d="M1715.12 700.806V681.436H1737.2V700.453V700.792H1715.12V700.806ZM1736.8 700.453V700.099V700.453ZM1715.92 700.113H1736.42V682.128H1715.92V700.113Z" fill="#EBECED"/>
<path d="M1715.23 700.518L1726.16 690.918L1736.99 700.419L1736.87 700.518L1736.99 700.419L1737.1 700.518L1726.16 710.119L1715.23 700.518ZM1715.68 700.518L1726.17 709.723L1736.66 700.518L1726.17 691.314L1715.68 700.518Z" fill="#EBECED"/>
<path d="M1715.12 719.652V700.281H1737.2V719.298V719.652H1715.12ZM1736.8 719.298V718.959V719.298ZM1715.92 718.959H1736.42V700.974H1715.92V718.959Z" fill="#EBECED"/>
<path d="M1715.23 719.37L1726.16 709.77L1736.99 719.271L1736.87 719.37L1736.99 719.271L1737.1 719.37L1726.16 728.971L1715.23 719.37ZM1715.68 719.37L1726.17 728.575L1736.66 719.37L1726.17 710.165L1715.68 719.37Z" fill="#EBECED"/>
<path d="M1715.12 738.431V719.061H1737.2V738.078V738.431H1715.12ZM1736.8 738.078V737.738V738.078ZM1715.92 737.738H1736.42V719.753H1715.92V737.738Z" fill="#EBECED"/>
<path d="M1715.23 738.143L1726.16 728.543L1736.99 738.044L1736.87 738.143L1736.99 738.044L1737.1 738.143L1726.17 747.744L1715.23 738.143ZM1715.68 738.143L1726.17 747.348L1736.66 738.143L1726.17 728.939L1715.68 738.143Z" fill="#EBECED"/>
<path d="M1715.12 757.191V737.82H1737.2V756.837V757.177H1715.12V757.191ZM1736.8 756.852V756.498V756.852ZM1715.92 756.498H1736.42V738.513H1715.92V756.498Z" fill="#EBECED"/>
<path d="M1715.23 756.921L1726.16 747.32L1736.99 756.822L1736.87 756.921L1736.99 756.822L1737.1 756.921L1726.16 766.521L1715.23 756.921ZM1715.68 756.921L1726.17 766.125L1736.66 756.921L1726.17 747.716L1715.68 756.921Z" fill="#EBECED"/>
<path d="M1737.2 775.914V756.6H1715.12V775.914H1737.2ZM1715.92 757.292H1736.42V775.277H1715.92V757.292Z" fill="#EBECED"/>
<path d="M1715.93 775.911L1715.68 775.684L1726.17 766.48L1736.66 775.684L1736.39 775.911H1736.84L1737.1 775.684L1736.99 775.586L1726.17 766.084L1715.23 775.684L1715.49 775.911H1715.93Z" fill="#EBECED"/>
<path d="M1328.84 665.666H995.156V813.774H1328.84V665.666Z" fill="#EBECED"/>
<path d="M1270.94 628.225H1124.53V701.437H1270.94V628.225Z" fill="#EBECED"/>
<path d="M1291.8 649.93H1047.91V719.296H1291.8V649.93Z" fill="#EBECED"/>
<path d="M1542.37 676.332H1430.93V812.577H1542.37V676.332Z" fill="#EBECED"/>
<path d="M961.874 762.51H900.977V788.073H961.874V762.51Z" fill="#EBECED"/>
<path d="M1385.86 762.51H1343.7V786.942H1385.86V762.51Z" fill="#EBECED"/>
<path d="M1334.98 710.434H1317.93V734.866H1334.98V710.434Z" fill="#EBECED"/>
<path d="M971.898 774.43H944.114V781.641H971.898V774.43Z" fill="#EBECED"/>
<path d="M921.013 759.104H905.53V766.314H921.013V759.104Z" fill="#EBECED"/>
<path d="M1755 777H841V965H1755V777Z" fill="#EBECED"/>
<path d="M1378 797H-8V1015H1378V797Z" fill="#EBECED"/>
<path d="M1748.37 767.992H1703.09V813.704H1748.37V767.992Z" fill="#EBECED"/>
<path d="M1688.77 676.332H1577.32V812.577H1688.77V676.332Z" fill="#EBECED"/>
<path d="M998.24 770.113H958.085V773.139H998.24V770.113Z" fill="#EBECED"/>
<path d="M998.24 765.719H958.085V768.745H998.24V765.719Z" fill="#EBECED"/>
<path d="M842.864 796.498H802.709V799.524H842.864V796.498Z" fill="#EBECED"/>
<path d="M842.864 792.102H802.709V795.127H842.864V792.102Z" fill="#EBECED"/>
<path d="M1585.43 771.418H1336V773.44H1585.43V771.418Z" fill="#EBECED"/>
<path d="M1337.71 726.963H1333.03V728.985H1337.71V726.963Z" fill="#EBECED"/>
<path d="M1340.99 744.186H1327.41V744.836H1340.99V744.186Z" fill="#EBECED"/>
<path d="M1340.99 762.355H1327.41V763.006H1340.99V762.355Z" fill="#EBECED"/>
<path d="M1338.03 726.963H1336.01V773.452H1338.03V726.963Z" fill="#EBECED"/>
<path d="M1584.17 768.291H1339.67V770.313H1584.17V768.291Z" fill="#EBECED"/>
<path d="M1340.82 723.836H1333.31V725.858H1340.82V723.836Z" fill="#EBECED"/>
<path d="M1341.14 723.836H1339.12V770.326H1341.14V723.836Z" fill="#EBECED"/>
<path d="M533.825 772.814H530.233V778.216H533.825V772.814Z" fill="#EBECED"/>
<path d="M532.043 792.355H523.56V794.915H532.043V792.355Z" fill="#EBECED"/>
<path d="M573.399 753.029H543.849V766.136H573.399V753.029Z" fill="#EBECED"/>
<path d="M582.138 757.598H578.023V761.585H582.138V757.598Z" fill="#EBECED"/>
<path d="M567.999 751.488H561.707V754.825H567.999V751.488Z" fill="#EBECED"/>
<path d="M946.9 754.951H939.958V767.21H946.9V754.951Z" fill="#EBECED"/>
<path d="M955.639 758.166H949.729V765.716H955.639V758.166Z" fill="#EBECED"/>
<path d="M1037.09 660.643H1016.48V668.928H1037.09V660.643Z" fill="#EBECED"/>
<path d="M1006.27 664.803H1001.83V667.984H1006.27V664.803Z" fill="#EBECED"/>
<path d="M1069.85 647.936H1055.98V653.521H1069.85V647.936Z" fill="#EBECED"/>
<path d="M1093.37 647.936H1080.84V653.521H1093.37V647.936Z" fill="#EBECED"/>
<path d="M1112.97 646.902H1102.88V651.724H1112.97V646.902Z" fill="#EBECED"/>
<path d="M1115.16 644.979H1100.76V647.934H1115.16V644.979Z" fill="#EBECED"/>
<path d="M1060.3 646.775H1058.43V648.826H1060.3V646.775Z" fill="#EBECED"/>
<path d="M1065.87 646.775H1064.07V648.826H1065.87V646.775Z" fill="#EBECED"/>
<path d="M1178.03 625.449H1172.12V631.105H1178.03V625.449Z" fill="#EBECED"/>
<path d="M1180.73 624.164H1169.86V626.412H1180.73V624.164Z" fill="#EBECED"/>
<path d="M1196.41 625.449H1190.5V631.105H1196.41V625.449Z" fill="#EBECED"/>
<path d="M1199.1 624.164H1188.23V626.412H1199.1V624.164Z" fill="#EBECED"/>
<path d="M1214.4 625.449H1208.49V631.105H1214.4V625.449Z" fill="#EBECED"/>
<path d="M1217.1 624.164H1206.23V626.412H1217.1V624.164Z" fill="#EBECED"/>
<path d="M1252.81 613.139H1228.66V634.828H1252.81V613.139Z" fill="#EBECED"/>
<path d="M1247.94 611.697H1240.74V615.812H1247.94V611.697Z" fill="#EBECED"/>
<path d="M1266.18 626.418H1261.3V629.826H1266.18V626.418Z" fill="#EBECED"/>
<path d="M1282.11 646.268H1274.92V652.305H1282.11V646.268Z" fill="#EBECED"/>
<path d="M1367.99 757.779H1350.84V766.645H1367.99V757.779Z" fill="#EBECED"/>
<path d="M1381.3 759.889H1376.48V766.647H1381.3V759.889Z" fill="#EBECED"/>
<path d="M1470.33 669.908H1441.81V684.132H1470.33V669.908Z" fill="#EBECED"/>
<path d="M1532.13 665.266H1493.84V689.175H1532.13V665.266Z" fill="#EBECED"/>
<path d="M1486.65 674.854H1481.12V678.77H1486.65V674.854Z" fill="#EBECED"/>
<path d="M1553.2 744.832H1537.01V781.297H1553.2V744.832Z" fill="#EBECED"/>
<path d="M1627.21 665.945H1593.29V684.708H1627.21V665.945Z" fill="#EBECED"/>
<path d="M1652.66 672.152H1644.17V678.769H1652.66V672.152Z" fill="#EBECED"/>
<path d="M1694.28 740.846H1682.34V781.312H1694.28V740.846Z" fill="#EBECED"/>
<path d="M1147.6 626.416H1141V628.862H1147.6V626.416Z" fill="#EBECED"/>
<path d="M1143.65 627.617L1144.31 479L1144.96 627.617H1143.65Z" fill="#EBECED"/>
<path d="M1158.36 627.561H1128.5V628.861H1158.36V627.561Z" fill="#EBECED"/>
<path d="M1138.59 627.97L1144.35 598.277L1144.51 598.32L1138.76 627.998L1138.59 627.97Z" fill="#EBECED"/>
<path d="M1144.27 599.041L1144.44 599.027L1148.78 627.673L1148.62 627.687L1144.27 599.041Z" fill="#EBECED"/>
<path d="M1129.26 628.648L1144.22 562.957L1144.37 562.999L1129.39 628.69L1129.26 628.648Z" fill="#EBECED"/>
<path d="M1144.35 563.399L1144.48 563.371L1155.96 628.242L1155.83 628.27L1144.35 563.399Z" fill="#EBECED"/>
<path d="M2620 807H1706V995H2620V807Z" fill="#EBECED"/>
</g>
<defs>
<clipPath id="clip0">
<rect width="2500" height="960" fill="white"/>
</clipPath>
</defs>
</svg>
