<svg class="header__logo-icon" viewBox="0 0 36 36" fill="none" xmlns="http://www.w3.org/2000/svg"><g clip-path="url(#clip0)"><path d="M29.684 17.967L17.967 29.684 6.32 17.967 17.967 6.32l11.717 11.647zm-1.917-9.8L23.364 0H12.57L8.167 8.167 0 12.57v10.794l8.167 4.403 4.403 8.166h10.794l4.403-8.166 8.166-4.403V12.57l-8.166-4.403z" fill="#ED1C24"/><path d="M20.452 6.32l13.635 7.386v6.25L20.452 6.32zM22.3 34.158h-6.25l13.635-13.635L22.3 34.158zM1.775 22.298v-6.32L15.41 29.613 1.775 22.299zm11.86-20.523h6.25L6.32 15.481l7.315-13.706z" fill="#FD0"/></g><defs><clipPath id="clip0"><path fill="#fff" d="M0 0h35.933v35.933H0z"/></clipPath></defs></svg>