<svg width="179" height="179" viewBox="0 0 179 179" fill="none" xmlns="http://www.w3.org/2000/svg">
<g clip-path="url(#clip0)">
<path d="M147.87 89.5L89.5 147.87L31.4842 89.5L89.5 31.4842L147.87 89.5ZM138.318 40.6818L116.385 0H62.6146L40.6818 40.6818L0 62.6146V116.385L40.6818 138.318L62.6146 179H116.385L138.318 138.318L179 116.385V62.6146L138.318 40.6818Z" fill="#B9433A"/>
</g>
<path d="M102.099 31.42L170.244 68.2509V99.4154L102.099 31.42ZM111.327 170.244H80.094L148.239 102.249L111.327 170.244ZM8.75488 111.102V79.5834L76.8997 147.579L8.75488 111.102ZM68.0267 8.75488H99.2598L31.4698 77.1044L68.0267 8.75488Z" fill="white"/>
<defs>
<clipPath id="clip0">
<rect width="179" height="179" fill="white"/>
</clipPath>
</defs>
</svg>
