<svg width="38" height="50" viewBox="0 0 38 50" fill="none" xmlns="http://www.w3.org/2000/svg">
<path fill-rule="evenodd" clip-rule="evenodd" d="M0 2.9069C0 1.31338 1.30243 0 2.88267 0H25.4395L37.2237 12.1124L37.5 12.3964V47.0933C37.5 48.6868 36.1976 50 34.6173 50H2.88267C1.30243 50 0 48.6868 0 47.0933V2.9069ZM24.0685 1.94738H2.88267C2.33883 1.94738 1.93115 2.35849 1.93115 2.9069V47.0933C1.93115 47.6417 2.33883 48.0528 2.88267 48.0528H34.6173C35.1612 48.0528 35.5689 47.6417 35.5689 47.0933V13.768H26.9704C25.3611 13.768 24.0685 12.4179 24.0685 10.8127V1.94738ZM34.2345 11.8206L25.9997 3.3565V10.8127C25.9997 11.3493 26.4557 11.8206 26.9704 11.8206H34.2345ZM8.77105 32.9826V36H6.92368V27.3789H10.4706C12.1456 27.3789 13.8944 28.0071 13.8944 30.1869C13.8944 31.6648 13.0569 32.4161 12.0101 32.7486L14.5841 36H12.4535L10.1258 32.9826H8.77105ZM10.5568 29.0046H8.77105V31.4432H10.5568C11.3327 31.4432 12.0101 31.0983 12.0101 30.2239C12.0101 29.3372 11.3327 29.0046 10.5568 29.0046ZM15.8708 29.0416V27.3789H23.0017V29.0416H20.3538V36H18.5187V29.0416H15.8708ZM25.3228 36V27.3789H31.4068V29.0416H27.1702V31.0491H31.0496V32.7117H27.1702V36H25.3228Z" fill="#0069FE"/>
</svg>
