<svg width="140" height="133" viewBox="0 0 140 133" fill="none" xmlns="http://www.w3.org/2000/svg">
<g clip-path="url(#clip0)">
<path d="M97.6506 130.714V51.5621H91.7486L67.9599 76.4497V51.5621H61.6157L55.9421 57.4985V41.1581H44.6257V69.337L37.8258 76.4509V51.5621H30.3393L7.57376 75.3799V130.714H0V133.162H105.43V130.714H97.6506ZM28.186 130.714H18.0144V122.963H28.186V130.714ZM66.7844 130.714H53.5568V106.439H66.7844V130.714ZM51.1001 130.714H37.8725V106.439H51.1001V130.714ZM86.7997 130.714H76.6306V122.963H86.7997V130.714ZM89.2564 130.714V120.515H74.174V130.714H69.2411V103.991H35.4159V130.714H30.6426V120.515H15.5578V130.714H10.0304V76.3591L31.3931 54.0101H35.3692V82.5697L47.0823 70.3162V43.6061H53.4855V63.6185L62.6696 54.0101H65.5045V82.5697L92.8025 54.0101H95.194V130.714H89.2564Z" fill="#444852"/>
<path d="M15.5577 100.726H30.6426V87.4668H15.5577V100.726ZM18.0144 89.9148H28.186V98.2784H18.0144V89.9148Z" fill="#444852"/>
<path d="M35.4158 100.726H50.0081V87.4668H35.4158V100.726ZM37.8724 89.9148H47.5515V98.2784H37.8724V89.9148Z" fill="#444852"/>
<path d="M54.6499 100.726H69.241V87.4668H54.6499V100.726ZM57.1065 89.9148H66.7844V98.2784H57.1065V89.9148Z" fill="#444852"/>
<path d="M74.1741 100.726H89.2565V87.4668H74.1741V100.726ZM76.6307 89.9148H86.7999V98.2784H76.6307V89.9148Z" fill="#444852"/>
<path d="M15.5577 117.251H30.6426V103.991H15.5577V117.251ZM18.0144 106.439H28.186V114.803H18.0144V106.439Z" fill="#444852"/>
<path d="M74.1741 117.251H89.2565V103.991H74.1741V117.251ZM76.6307 106.439H86.7999V114.803H76.6307V106.439Z" fill="#444852"/>
<path d="M49.2281 116.027H46.7715V119.903H49.2281V116.027Z" fill="#444852"/>
<path d="M58.0918 116.027H55.6351V119.903H58.0918V116.027Z" fill="#444852"/>
<path d="M50.0994 32.1921H47.6428V39.4749H50.0994V32.1921Z" fill="#444852"/>
<path d="M53.1184 28H50.6617V39.475H53.1184V28Z" fill="#444852"/>
<path d="M32.8059 58.906H30.3492V71.758H32.8059V58.906Z" fill="#444852"/>
<path d="M32.8059 74.359H30.3492V80.938H32.8059V74.359Z" fill="#444852"/>
<path d="M62.9277 58.906H60.4711V71.758H62.9277V58.906Z" fill="#444852"/>
<path d="M62.9277 74.359H60.4711V80.938H62.9277V74.359Z" fill="#444852"/>
<path d="M92.993 58.9059H90.5364V71.7579H92.993V58.9059Z" fill="#444852"/>
<path d="M92.993 74.3589H90.5364V80.9379H92.993V74.3589Z" fill="#444852"/>
</g>
<defs>
<clipPath id="clip0">
<rect width="140" height="133" fill="white"/>
</clipPath>
</defs>
</svg>
