<svg width="140" height="133" viewBox="0 0 140 133" fill="none" xmlns="http://www.w3.org/2000/svg">
<g clip-path="url(#clip0)">
<path d="M102.11 48.914C97.6115 44.4741 91.6278 42.0294 85.2609 42.0294C78.8959 42.0294 72.9122 44.4741 68.4116 48.914L61.0001 56.2293L53.5867 48.9159C49.086 44.476 43.1023 42.0313 36.7373 42.0313C30.3723 42.0313 24.3886 44.476 19.888 48.9159C10.5969 58.0816 10.5969 72.9942 19.888 82.16L60.3252 122.05C60.5121 122.234 60.7561 122.324 61.0001 122.324C61.2441 122.324 61.4881 122.232 61.6749 122.05L102.11 82.1581C106.611 77.7181 109.089 71.8151 109.089 65.5361C109.091 59.257 106.613 53.354 102.11 48.914ZM100.763 80.8285L61.0001 120.055L21.2357 80.8285C12.69 72.3962 12.69 58.6759 21.2357 50.2436C25.3761 46.1591 30.8813 43.91 36.7373 43.91C42.5933 43.91 48.0986 46.1591 52.2389 50.2436L60.3272 58.2227C60.6855 58.5762 61.3184 58.5762 61.6749 58.2227L69.7612 50.2436C73.9016 46.1591 79.4087 43.91 85.2628 43.91C91.1188 43.91 96.6241 46.1591 100.764 50.2436C104.905 54.3281 107.185 59.7591 107.185 65.5361C107.185 71.313 104.903 76.744 100.763 80.8285Z" fill="#444852"/>
<path d="M83.875 77.4755H65.3234L57.9805 66.6117C57.7823 66.3202 57.4353 66.1566 57.0884 66.198C56.7357 66.2337 56.4326 66.4594 56.3011 66.7847L49.2137 84.2661L42.6104 77.752C42.4331 77.5752 42.191 77.4755 41.9375 77.4755H38.125C37.5989 77.4755 37.1719 77.8968 37.1719 78.4158C37.1719 78.9348 37.5989 79.3561 38.125 79.3561H41.5429L48.8896 86.6036C49.0688 86.7804 49.3128 86.8782 49.5625 86.8782C49.6254 86.8782 49.6902 86.8726 49.755 86.8594C50.0696 86.7954 50.3288 86.5811 50.4489 86.2858L57.401 69.141L64.0214 78.9367C64.1968 79.2 64.4942 79.3561 64.8125 79.3561H83.875C84.4011 79.3561 84.8281 78.9348 84.8281 78.4158C84.8281 77.8968 84.4011 77.4755 83.875 77.4755Z" fill="#444852"/>
</g>
<defs>
<clipPath id="clip0">
<rect width="122" height="100" fill="white" transform="translate(0 22)"/>
</clipPath>
</defs>
</svg>
