<svg width="140" height="133" viewBox="0 0 140 133" fill="none" xmlns="http://www.w3.org/2000/svg">
<path d="M65.0909 21C61.4362 21 58.4371 23.9974 58.4371 27.6502C58.4371 31.3028 61.4362 34.2988 65.0909 34.2988C68.7459 34.2988 71.744 31.3028 71.744 27.6502C71.744 23.9974 68.7459 21 65.0909 21ZM65.0909 24.3257C66.948 24.3257 68.4175 25.7947 68.4175 27.6502C68.4175 29.506 66.9485 30.9746 65.0909 30.9746C63.234 30.9746 61.7633 29.5055 61.7633 27.6502C61.7633 25.7944 63.2339 24.3257 65.0909 24.3257ZM102.06 28.7916C101.143 28.8042 100.409 29.5596 100.422 30.4775V34.1445H96.7524C94.4943 34.1005 94.4943 37.5099 96.7524 37.4691H100.422V41.1363C100.378 43.3926 103.789 43.3926 103.749 41.1363V37.4691H107.418C109.676 37.5131 109.676 34.1037 107.418 34.1445H103.749V30.4775C103.761 29.5397 102.998 28.7776 102.06 28.7916ZM32.5822 39.9606C31.6645 39.9732 30.9309 40.7286 30.9437 41.6462V45.3135H27.2742C25.0538 45.3112 25.0538 48.6374 27.2742 48.6393H30.9437V52.3053C30.9751 54.4986 34.2475 54.4986 34.2712 52.3053V48.6393H37.9408C40.1611 48.6416 40.1611 45.3154 37.9408 45.3135H34.2712V41.6462C34.2838 40.7084 33.5203 39.9461 32.5822 39.9606ZM52.198 52.172C51.7227 52.172 51.2711 52.3744 50.9549 52.7296L33.5691 72.2589C32.798 72.9023 32.7684 74.0756 33.5063 74.7567L68.4633 116.531C68.4758 116.544 68.4947 116.563 68.4947 116.575C68.5073 116.588 68.5387 116.619 68.5576 116.638C68.5701 116.651 68.589 116.669 68.6016 116.682C68.633 116.695 68.6456 116.726 68.6795 116.745C68.6921 116.757 68.711 116.776 68.7235 116.789C68.755 116.801 68.7675 116.82 68.8015 116.852C68.814 116.864 68.8455 116.883 68.8644 116.896C68.8958 116.908 68.9083 116.927 68.9423 116.94C68.9737 116.952 68.9863 116.971 69.0203 116.971C69.0517 116.984 69.0643 117.003 69.0982 117.003C69.1297 117.015 69.1422 117.015 69.1762 117.034C69.2076 117.047 69.2202 117.047 69.2542 117.065C69.2856 117.072 69.317 117.078 69.3478 117.078C69.3792 117.084 69.3918 117.091 69.4258 117.091C69.4572 117.097 69.4886 117.103 69.5195 117.103C69.532 117.107 69.5634 117.109 69.5823 117.109C69.6137 117.112 69.6603 117.114 69.6911 117.114C69.7036 117.115 69.7225 117.115 69.7539 117.116C69.7854 117.115 69.8319 117.113 69.8627 117.109C69.8753 117.108 69.8941 117.107 69.9256 117.105C69.957 117.101 70.0035 117.092 70.0343 117.092C70.0469 117.09 70.0657 117.086 70.0972 117.079C70.1286 117.073 70.1752 117.067 70.206 117.048C70.2185 117.043 70.2374 117.035 70.25 117.035C70.2814 117.023 70.3279 117.004 70.3587 117.004C70.3713 116.998 70.3901 116.991 70.4027 116.991C70.4342 116.979 70.4656 116.96 70.4964 116.947C70.509 116.941 70.5278 116.935 70.5404 116.916C70.5719 116.903 70.6033 116.885 70.6341 116.853C70.6467 116.841 70.6655 116.84 70.6781 116.822C70.7095 116.809 70.7409 116.778 70.7717 116.759C70.7843 116.746 70.8032 116.727 70.8158 116.727C70.8472 116.696 70.8598 116.683 70.8937 116.649C70.9063 116.637 70.9252 116.618 70.9378 116.605C70.9692 116.574 70.9818 116.561 71.0157 116.527L105.965 74.7609C106.719 74.0754 106.685 72.8801 105.887 72.2389L88.5172 52.7263C88.2029 52.3711 87.7492 52.1687 87.2756 52.1687L52.198 52.172ZM52.9442 55.4965H66.7064L54.0694 75.2981L37.8766 72.422L52.9442 55.4965ZM72.7728 55.4965H86.5339L101.603 72.422L85.4085 75.2981L72.7728 55.4965ZM69.7388 56.9249L81.5711 75.466H57.9071L69.7388 56.9249ZM118.65 64.9675C114.995 64.9675 111.998 67.9635 111.998 71.616C111.998 75.2687 114.995 78.265 118.65 78.265C122.305 78.265 125.305 75.2687 125.305 71.616C125.305 67.9635 122.305 64.9675 118.65 64.9675ZM118.65 68.2918C120.507 68.2918 121.978 69.7609 121.978 71.616C121.978 73.4718 120.507 74.9406 118.65 74.9406C116.793 74.9406 115.324 73.4715 115.324 71.616C115.324 69.7603 116.793 68.2918 118.65 68.2918ZM15.6531 75.8678C11.9981 75.8678 9 78.8638 9 82.5165C9 86.1691 11.9981 89.1654 15.6531 89.1654C19.3079 89.1654 22.3069 86.1691 22.3069 82.5165C22.3069 78.8638 19.308 75.8678 15.6531 75.8678ZM100.616 75.9765L74.9357 106.666L85.8171 78.605L100.616 75.9765ZM38.8632 75.9769L53.6609 78.605L64.541 106.662L38.8632 75.9769ZM57.3024 78.7937H82.1772L69.7388 110.865L57.3024 78.7937ZM15.6531 79.1954C17.51 79.1954 18.9794 80.6644 18.9794 82.52C18.9794 84.3758 17.5105 85.8443 15.6531 85.8443C13.796 85.8443 12.3265 84.3753 12.3265 82.52C12.3265 80.664 13.7955 79.1954 15.6531 79.1954ZM107.599 94.6549C106.682 94.6674 105.949 95.4229 105.962 96.3407V100.008H102.293C100.036 99.9637 100.036 103.372 102.293 103.332H105.962V107C105.918 109.266 109.34 109.266 109.289 107V103.332H112.958C115.215 103.376 115.215 99.9678 112.958 100.008H109.289V96.3407C109.301 95.4029 108.538 94.6403 107.599 94.6549ZM38.0516 98.7909C37.134 98.8035 36.4002 99.5589 36.4133 100.477V104.144H32.7438C30.4857 104.1 30.4857 107.509 32.7438 107.468H36.4133V111.136C36.3693 113.393 39.7808 113.393 39.7397 111.136V107.468H43.409C45.6672 107.512 45.6672 104.103 43.409 104.144H39.7397V100.477C39.7523 99.5407 38.9888 98.7769 38.0516 98.7909Z" fill="#444852" stroke="#FAFAFA" stroke-width="0.865906"/>
</svg>
