<svg width="140" height="141" viewBox="0 0 140 141" fill="none" xmlns="http://www.w3.org/2000/svg">
<path d="M67.6351 52.7869H60.1286C59.2581 52.7869 58.5535 52.0815 58.5535 51.2079C58.5535 50.3343 59.2581 49.6289 60.1286 49.6289H67.6351C68.5056 49.6289 69.2102 50.3343 69.2102 51.2079C69.2102 52.0815 68.5056 52.7869 67.6351 52.7869Z" fill="#444852" stroke="#FAFAFA" stroke-width="0.5"/>
<path d="M13.906 49.3789L13.9087 49.6288C13.9237 49.6287 14.0292 49.6271 14.2178 49.6243C17.1049 49.5815 39.4527 49.25 54.1996 49.25C55.0701 49.25 55.7747 49.9554 55.7747 50.829C55.7747 51.7026 55.0701 52.4079 54.1996 52.4079C39.4862 52.4079 17.1792 52.7391 14.2723 52.7822C14.0851 52.785 13.9784 52.7866 13.9593 52.7868H13.9593H13.9593H13.9592H13.9592H13.9591H13.9591H13.959H13.959H13.9589H13.9589H13.9588H13.9588H13.9587H13.9587H13.9587H13.9586H13.9586H13.9585H13.9585H13.9584H13.9584H13.9583H13.9583H13.9582H13.9582H13.9581H13.9581H13.958H13.958H13.9579H13.9579H13.9578H13.9578H13.9577H13.9577H13.9576H13.9576H13.9575H13.9575H13.9574H13.9574H13.9573H13.9573H13.9572H13.9572H13.9571H13.9571H13.957H13.957H13.9569H13.9569H13.9568H13.9568H13.9567H13.9567H13.9566H13.9566H13.9565H13.9565H13.9564H13.9564H13.9563H13.9563H13.9562H13.9562H13.9561H13.9561H13.956H13.956H13.9559H13.9559H13.9558H13.9558H13.9557H13.9557H13.9556H13.9556H13.9555H13.9555H13.9554H13.9553H13.9553H13.9552H13.9552H13.9551H13.9551H13.955H13.955H13.9549H13.9549H13.9548H13.9548H13.9547H13.9547H13.9546H13.9546H13.9545H13.9545H13.9544H13.9544H13.9543H13.9543H13.9542H13.9541H13.9541H13.954H13.954H13.9539H13.9539H13.9538H13.9538H13.9537H13.9537H13.9536H13.9536H13.9535H13.9535H13.9534H13.9533H13.9533H13.9532H13.9532H13.9531H13.9531H13.953H13.953H13.9529H13.9529H13.9528H13.9528H13.9527H13.9527H13.9526H13.9525H13.9525H13.9524H13.9524H13.9523H13.9523H13.9522H13.9522H13.9521H13.9521H13.952H13.9519H13.9519H13.9518H13.9518H13.9517H13.9517H13.9516H13.9516H13.9515H13.9515H13.9514H13.9513H13.9513H13.9512H13.9512H13.9511H13.9511H13.951H13.951H13.9509H13.9509H13.9508H13.9507H13.9507H13.9506H13.9506H13.9505H13.9505H13.9504H13.9504H13.9503H13.9502H13.9502H13.9501H13.9501H13.95H13.95H13.9499H13.9499H13.9498H13.9497H13.9497H13.9496H13.9496H13.9495H13.9495H13.9494H13.9493H13.9493H13.9492H13.9492H13.9491H13.9491H13.949H13.949H13.9489H13.9488H13.9488H13.9487H13.9487H13.9486H13.9486H13.9485H13.9484H13.9484H13.9483H13.9483H13.9482H13.9482H13.9481H13.948H13.948H13.9479H13.9479H13.9478H13.9478H13.9477H13.9476H13.9476H13.9475H13.9475H13.9474H13.9474H13.9473H13.9472H13.9472H13.9471H13.9471H13.947H13.947H13.9469H13.9468H13.9468H13.9467H13.9467H13.9466H13.9466H13.9465H13.9464H13.9464H13.9463H13.9463H13.9462H13.9462H13.9461H13.946H13.946H13.9459H13.9459H13.9458H13.9457H13.9457H13.9456H13.9456H13.9455H13.9455H13.9454H13.9453H13.9453H13.9452H13.9452H13.9451H13.945H13.945H13.9449H13.9449H13.9448H13.9448H13.9447H13.9446H13.9446H13.9445H13.9445H13.9444H13.9443H13.9443H13.9442H13.9442H13.9441H13.9441H13.944H13.9439H13.9439H13.9438H13.9438H13.9437H13.9436H13.9436H13.9435H13.9435H13.9434H13.9433H13.9433H13.9432H13.9432H13.9431H13.943H13.943H13.9429H13.9429H13.9428H13.9428H13.9427H13.9426H13.9426H13.9425H13.9425H13.9424H13.9423H13.9423H13.9422H13.9422H13.9421H13.942H13.942H13.9419H13.9419H13.9418H13.9417H13.9417H13.9416H13.9416H13.9415H13.9414H13.9414H13.9413H13.9413H13.9412H13.9411H13.9411H13.941H13.941H13.9409H13.9408H13.9408H13.9407H13.9407H13.9406H13.9405H13.9405H13.9404H13.9404H13.9403H13.9402H13.9402H13.9401H13.9401H13.94H13.9399H13.9399H13.9398H13.9398H13.9397H13.9396H13.9396H13.9395H13.9395H13.9394H13.9393H13.9393H13.9392H13.9392H13.9391H13.939H13.939H13.9389H13.9389H13.9388H13.9387H13.9387H13.9386H13.9386H13.9385H13.9384H13.9384H13.9383H13.9383H13.9382H13.9381H13.9381H13.938H13.938H13.9379H13.9378H13.9378H13.9377H13.9376H13.9376H13.9375H13.9375H13.9374H13.9373H13.9373H13.9372H13.9372H13.9371H13.937H13.937H13.9369H13.9369H13.9368H13.9367H13.9367H13.9366H13.9366H13.9365H13.9364H13.9364H13.9363H13.9363H13.9362H13.9361H13.9361H13.936H13.9359H13.9359H13.9358H13.9358H13.9357H13.9356H13.9356H13.9355H13.9355H13.9354H13.9353H13.9353H13.9352H13.9352H13.9351H13.935H13.935H13.9349H13.9349H13.9348H13.9347H13.9347H13.9346H13.9345H13.9345H13.9344H13.9344H13.9343H13.9342H13.9342H13.9341H13.9341H13.934H13.9339H13.9339H13.9338H13.9338H13.9337H13.9336H13.9336H13.9335H13.9334H13.9334H13.9333H13.9333H13.9332H13.9331H13.9331H13.933H13.933H13.9329H13.9328H13.9328H13.9327H13.9327H13.9326H13.9325H13.9325H13.9324H13.9323H13.9323H13.9322H13.9322H13.9321H13.932C13.0728 52.7868 12.3704 52.0971 12.3569 51.2327L12.3569 51.2327C12.3434 50.3594 13.039 49.6424 13.9099 49.6288L13.906 49.3789ZM13.906 49.3789C13.9208 49.3787 14.0253 49.3771 14.2122 49.3744C17.087 49.3317 39.4467 49 54.1996 49C55.2087 49 56.0247 49.8178 56.0247 50.829C56.0247 51.8401 55.2087 52.6579 54.1996 52.6579C39.4924 52.6579 17.1979 52.9888 14.2782 53.0322C14.0844 53.035 13.976 53.0366 13.9607 53.0368L13.906 49.3789Z" fill="#444852" stroke="#FAFAFA" stroke-width="0.5"/>
<path d="M19.8922 87.8786L19.8922 87.8785C19.6175 87.0505 20.0656 86.1572 20.8916 85.882C21.7166 85.6072 22.6078 86.0551 22.8827 86.8834C24.7279 92.4623 27.053 96.5292 30.0384 99.2016C33.0307 101.88 36.6662 103.139 41.0897 103.139H41.0901H41.0905H41.0909H41.0913H41.0916H41.092H41.0924H41.0928H41.0932H41.0936H41.0939H41.0943H41.0947H41.0951H41.0955H41.0958H41.0962H41.0966H41.097H41.0974H41.0977H41.0981H41.0985H41.0989H41.0993H41.0996H41.1H41.1004H41.1008H41.1012H41.1016H41.1019H41.1023H41.1027H41.1031H41.1035H41.1038H41.1042H41.1046H41.105H41.1054H41.1057H41.1061H41.1065H41.1069H41.1072H41.1076H41.108H41.1084H41.1088H41.1091H41.1095H41.1099H41.1103H41.1107H41.111H41.1114H41.1118H41.1122H41.1126H41.1129H41.1133H41.1137H41.1141H41.1144H41.1148H41.1152H41.1156H41.116H41.1163H41.1167H41.1171H41.1175H41.1179H41.1182H41.1186H41.119H41.1194H41.1197H41.1201H41.1205H41.1209H41.1213H41.1216H41.122H41.1224H41.1228H41.1231H41.1235H41.1239H41.1243H41.1247H41.125H41.1254H41.1258H41.1262H41.1265H41.1269H41.1273H41.1277H41.128H41.1284H41.1288H41.1292H41.1296H41.1299H41.1303H41.1307H41.1311H41.1314H41.1318H41.1322H41.1326H41.1329H41.1333H41.1337H41.1341H41.1345H41.1348H41.1352H41.1356H41.136H41.1363H41.1367H41.1371H41.1375H41.1378H41.1382H41.1386H41.139H41.1393H41.1397H41.1401H41.1405H41.1409H41.1412H41.1416H41.142H41.1424H41.1427H41.1431H41.1435H41.1439H41.1442H41.1446H41.145H41.1454H41.1457H41.1461H41.1465H41.1469H41.1472H41.1476H41.148H41.1484H41.1487H41.1491H41.1495H41.1499H41.1502H41.1506H41.151H41.1514H41.1517H41.1521H41.1525H41.1529H41.1532H41.1536H41.154H41.1544H41.1547H41.1551H41.1555H41.1559H41.1562H41.1566H41.157H41.1574H41.1577H41.1581H41.1585H41.1589H41.1592H41.1596H41.16H41.1604H41.1607H41.1611H41.1615H41.1619H41.1622H41.1626H41.163H41.1634H41.1637H41.1641H41.1645H41.1649H41.1652H41.1656H41.166H41.1664H41.1667H41.1671H41.1675H41.1679H41.1682H41.1686H41.169H41.1694H41.1697H41.1701H41.1705H41.1709H41.1712H41.1716H41.172H41.1724H41.1727H41.1731H41.1735H41.1739H41.1742H41.1746H41.175H41.1754H41.1757H41.1761H41.1765H41.1769H41.1772H41.1776H41.178H41.1783H41.1787H41.1791H41.1795H41.1798H41.1802H41.1806H41.181H41.1813H41.1817H41.1821H41.1825H41.1828H41.1832H41.1836H41.184H41.1843H41.1847H41.1851H41.1855H41.1858H41.1862H41.1866H41.187H41.1873H41.1877H41.1881H41.1885H41.1888H41.1892H41.1896H41.19H41.1903H41.1907H41.1911H41.1915H41.1918H41.1922H41.1926H41.1929H41.1933H41.1937H41.1941H41.1944H41.1948H41.1952H41.1956H41.1959H41.1963H41.1967H41.1971H41.1974H41.1978H41.1982H41.1986H41.1989H41.1993H41.1997H41.2001H41.2004H41.2008H41.2012H41.2016H41.2019H41.2023H41.2027H41.2031H41.2034H41.2038H41.2042H41.2046H41.2049H41.2053H41.2057H41.2061H41.2064H41.2068H41.2072H41.2076H41.2079H41.2083H41.2087H41.209H41.2094H41.2098H41.2102H41.2105H41.2109H41.2113H41.2117H41.212H41.2124H41.2128H41.2132H41.2135H41.2139H41.2143H41.2147H41.215H41.2154H41.2158H41.2162H41.2165H41.2169H41.2173H41.2177H41.218H41.2184H41.2188H41.2192H41.2195H41.2199H41.2203H41.2207H41.2211H41.2214H41.2218H41.2222H41.2226H41.2229H41.2233H41.2237H41.2241H41.2244H41.2248H41.2252H41.2256H41.2259H41.2263H41.2267H41.2271H41.2274H41.2278H41.2282H41.2286H41.2289H41.2293H41.2297H41.2301H41.2304H41.2308H41.2312H41.2316H41.2319H41.2323H41.2327H41.2331H41.2334H41.2338H41.2342H41.2346H41.235H41.2353H41.2357H41.2361H41.2365H41.2368H41.2372H41.2376H41.238H41.2383H41.2387H41.2391H41.2395H41.2398H41.2402H41.2406H41.241H41.2414H41.2417H41.2421H41.2425H41.2429H41.2432H41.2436H41.244H41.2444H41.2447H41.2451H41.2455H41.2459H41.2463H41.2466H41.247H41.2474H41.2478H41.2481H41.2485H41.2489H41.2493H41.2497H41.25H41.2504H41.2508H41.2512H41.2515H41.2519H41.2523H41.2527H41.2531H41.2534H41.2538H41.2542H41.2546H41.2549H41.2553H41.2557H41.2561H41.2565H41.2568H41.2572H41.2576H41.258H41.2583H41.2587H41.2591H41.2595H41.2599H41.2602H41.2606H41.261H41.2614H41.2618H41.2621H41.2625H41.2629H41.2633H41.2637H41.264H41.2644H41.2648H41.2652H41.2656H41.2659H41.2663H41.2667H41.2671H41.2674H41.2678H41.2682H41.2686H41.269H41.2693H41.2697H41.2701H41.2705H41.2709H41.2712H41.2716H41.272H41.2724H41.2728H41.2731H41.2735H41.2739H41.2743H41.2747H41.2751H41.2754H41.2758H41.2762H41.2766H41.277H41.2773H41.2777H41.2781H41.2785H41.2789H41.2792H41.2796H41.28H41.2804H41.2808H41.2812H41.2815H41.2819H41.2823H41.2827H41.2827H41.2827H41.2828H41.2828H41.2828H41.2829H41.2829H41.2829H41.283H41.283H41.283H41.283H41.2831H41.2831H41.2831H41.2832H41.2832H41.2832H41.2833H41.2833H41.2833H41.2834H41.2834H41.2834H41.2834H41.2835H41.2835H41.2835H41.2836H41.2836H41.2836H41.2837H41.2837H41.2837H41.2838H41.2838H41.2838H41.2838H41.2839H41.2839H41.2839H41.284H41.284H41.284H41.2841H41.2841H41.2841H41.2841H41.2842H41.2842H41.2842H41.2843H41.2843H41.2843H41.2844H41.2844H41.2844H41.2845H41.2845H41.2845H41.2845H41.2846H41.2846H41.2846H41.2847H41.2847H41.2847H41.2848H41.2848H41.2848H41.2848H41.2849H41.2849H41.2849H41.285H41.285H41.285H41.2851H41.2851H41.2851H41.2852H41.2852H41.2852H41.2852H41.2853H41.2853H41.2853H41.2854H41.2854H41.2854H41.2855H41.2855H41.2855H41.2856H41.2856H41.2856H41.2856H41.2857H41.2857H41.2857H41.2858H41.2858H41.2858H41.2859H41.2859H41.2859H41.2859H41.286H41.286H41.286H41.2861H41.2861H41.2861H41.2862H41.2862H41.2862H41.2863H41.2863H41.2863H41.2863H41.2864H41.2864H41.2864H41.2865H41.2865H41.2865H41.2866H41.2866H41.2866H41.2867H41.2867H41.2867H41.2867H41.2868H41.2868H41.2868H41.2869H41.2869H41.2869H41.287H41.287H41.287H41.2871H41.2871H41.2871H41.2871H41.2872H41.2872H41.2872H41.2873H41.2873H41.2873H41.2874H41.2874H41.2874H41.2874H41.2875H41.2875H41.2875H41.2876H41.2876H41.2876H41.2877H41.2877H41.2877H41.2878H41.2878H41.2878H41.2878H41.2879H41.2879H41.2879H41.288H41.288H41.288H41.2881H41.2881H41.2881H41.2881H41.2882H41.2882H41.2882H41.2883H41.2883H41.2883H41.2884H41.2884H41.2884H41.2885H41.2885H41.2885H41.2885H41.2886H41.2886H41.2886H41.2887H41.2887H41.2887H41.2888H41.2888H41.2888H41.2889H41.2889H41.2889H41.2889H41.289H41.289H41.289H41.2891H41.2891H41.2891H41.2892H41.2892H41.2892H41.2892H41.2893H41.2893H41.2893H41.2894H41.2894H41.2894H41.2895H41.2895H41.2895H41.2896H41.2896H41.2896H41.2896H41.2897H41.2897H41.2897H41.2898H41.2898H41.2898H41.2899H41.2899H41.2899H41.29H41.29H41.29H41.29H41.2901H41.2901H41.2901H41.2902H41.2902H41.2902H41.2903H41.2903H41.2903H41.2903H41.2904H41.2904H41.2904H41.2905H41.2905H41.2905H41.2906H41.2906H41.2906H41.2907H41.2907H41.2907H41.2907H41.2908H41.2908H41.2908H41.2909H41.2909H41.2909H41.291H41.291H41.291H41.2911H41.2911H41.2911H41.2911H41.2912H41.2912H41.2912H41.2913H41.2913H41.2913H41.2914H41.2914H41.2914H41.2915H41.2915H41.2915H41.2915H41.2916H41.2916H41.2916H41.2917H41.2917H41.2917H41.2918H41.2918H41.2918H41.2918H41.2919H41.2919H41.2919H41.292H41.292H41.292H41.2921H41.2921H41.2921H41.2922H41.2922H41.2922H41.2922H41.2923H41.2923H41.2923H41.2924H41.2924H41.2924H41.2925H41.2925H41.2925H41.2925H41.2926H41.2926H41.2926H41.2927H41.2927H41.2927H41.2928H41.2928H41.2928H41.2929H41.2929H41.2929H41.2929H41.293H41.293H41.293H41.2931H41.2931H41.2931H41.2932H41.2932H41.2932H41.2933H41.2933H41.2933H41.2933H41.2934H41.2934H41.2934H41.2935H41.2935H41.2935H41.2936H41.2936H41.2936H41.2936H41.2937H41.2937H41.2937H41.2938H41.2938H41.2938H41.2939H41.2939H41.2939H41.294H41.294H41.294H41.294H41.2941H41.2941H41.2941H41.2942H41.2942H41.2942H41.2943H41.2943H41.2943H41.2944H41.2944H41.2944H41.2944H41.2945H41.2945H41.2945H41.2946H41.2946H41.2946H41.2947H41.2947H41.2947H41.2948H41.2948H41.2948H41.2948H41.2949H41.2949H41.2949H41.295H41.295H41.295H41.2951H41.2951H41.2951H41.2951H41.2952H41.2952H41.2952H41.2953H41.2953H41.2953H41.2954H41.2954H41.2954H41.2955H41.2955H41.2955H41.2955H41.2956H41.2956H41.2956H41.2957H41.2957H41.2957H41.2958H41.2958H41.2958H41.2958H41.2959H41.2959H41.2959H41.296H41.296H41.296H41.2961H41.2961H41.2961H41.2962H41.2962H41.2962H41.2962H41.2963H41.2963H41.2963H41.2964H41.2964H41.2964H41.2965H41.2965H41.2965H41.2966H41.2966H41.2966H41.2966H41.2967H41.2967H41.2967H41.2968H41.2968H41.2968H41.2969H41.2969H41.2969H41.2969H41.297H41.297H41.297H41.2971H41.2971H41.2971H41.2972H41.2972H41.2972H41.2973H41.2973H41.2973H41.2973H41.2974H41.2974H41.2974H41.2975H41.2975H41.2975H41.2976H41.2976H41.2976H41.2977H41.2977H41.2977H41.2977H41.2978H41.2978H41.2978H41.2979H41.2979H41.2979H41.298H41.298H41.298H41.298H41.2981H41.2981H41.2981H41.2982H41.2982H41.2982H41.2983H41.2983H41.2983C42.162 103.139 42.8667 103.838 42.8735 104.705C42.8802 105.578 42.1801 106.29 41.313 106.297H41.3127H41.3123H41.3118H41.3114H41.311H41.3105H41.3101H41.3097H41.3093H41.3088H41.3084H41.308H41.3076H41.3071H41.3067H41.3063H41.3059H41.3054H41.305H41.3046H41.3041H41.3037H41.3033H41.3029H41.3024H41.302H41.3016H41.3012H41.3007H41.3003H41.2999H41.2995H41.299H41.2986H41.2982H41.2978H41.2973H41.2969H41.2965H41.2961H41.2956H41.2952H41.2948H41.2944H41.2939H41.2935H41.2931H41.2927H41.2922H41.2918H41.2914H41.291H41.2905H41.2901H41.2897H41.2893H41.2888H41.2884H41.288H41.2876H41.2871H41.2867H41.2863H41.2859H41.2854H41.285H41.2846H41.2842H41.2837H41.2833H41.2829H41.2825H41.282H41.2816H41.2812H41.2808H41.2804H41.2799H41.2795H41.2791H41.2787H41.2782H41.2778H41.2774H41.277H41.2765H41.2761H41.2757H41.2753H41.2749H41.2744H41.274H41.2736H41.2732H41.2727H41.2723H41.2719H41.2715H41.271H41.2706H41.2702H41.2698H41.2694H41.2689H41.2685H41.2681H41.2677H41.2673H41.2668H41.2664H41.266H41.2656H41.2651H41.2647H41.2643H41.2639H41.2635H41.263H41.2626H41.2622H41.2618H41.2613H41.2609H41.2605H41.2601H41.2597H41.2592H41.2588H41.2584H41.258H41.2576H41.2571H41.2567H41.2563H41.2559H41.2555H41.255H41.2546H41.2542H41.2538H41.2534H41.2529H41.2525H41.2521H41.2517H41.2512H41.2508H41.2504H41.25H41.2496H41.2491H41.2487H41.2483H41.2479H41.2475H41.247H41.2466H41.2462H41.2458H41.2454H41.245H41.2445H41.2441H41.2437H41.2433H41.2429H41.2424H41.242H41.2416H41.2412H41.2408H41.2403H41.2399H41.2395H41.2391H41.2387H41.2382H41.2378H41.2374H41.237H41.2366H41.2361H41.2357H41.2353H41.2349H41.2345H41.2341H41.2336H41.2332H41.2328H41.2324H41.232H41.2315H41.2311H41.2307H41.2303H41.2299H41.2295H41.229H41.2286H41.2282H41.2278H41.2274H41.2269H41.2265H41.2261H41.2257H41.2253H41.2249H41.2244H41.224H41.2236H41.2232H41.2228H41.2224H41.2219H41.2215H41.2211H41.2207H41.2203H41.2198H41.2194H41.219H41.2186H41.2182H41.2178H41.2173H41.2169H41.2165H41.2161H41.2157H41.2153H41.2148H41.2144H41.214H41.2136H41.2132H41.2128H41.2123H41.2119H41.2115H41.2111H41.2107H41.2103H41.2098H41.2094H41.209H41.2086H41.2082H41.2078H41.2073H41.2069H41.2065H41.2061H41.2057H41.2053H41.2048H41.2044H41.204H41.2036H41.2032H41.2028H41.2023H41.2019H41.2015H41.2011H41.2007H41.2003H41.1999H41.1994H41.199H41.1986H41.1982H41.1978H41.1974H41.1969H41.1965H41.1961H41.1957H41.1953H41.1949H41.1944H41.194H41.1936H41.1932H41.1928H41.1924H41.192H41.1915H41.1911H41.1907H41.1903H41.1899H41.1895H41.189H41.1886H41.1882H41.1878H41.1874H41.187H41.1866H41.1861H41.1857H41.1853H41.1849H41.1845H41.1841H41.1837H41.1832H41.1828H41.1824H41.182H41.1816H41.1812H41.1807H41.1803H41.1799H41.1795H41.1791H41.1787H41.1783H41.1778H41.1774H41.177H41.1766H41.1762H41.1758H41.1754H41.1749H41.1745H41.1741H41.1737H41.1733H41.1729H41.1725H41.172H41.1716H41.1712H41.1708H41.1704H41.17H41.1696H41.1691H41.1687H41.1683H41.1679H41.1675H41.1671H41.1667H41.1662H41.1658H41.1654H41.165H41.1646H41.1642H41.1638H41.1633H41.1629H41.1625H41.1621H41.1617H41.1613H41.1609H41.1605H41.16H41.1596H41.1592H41.1588H41.1584H41.158H41.1576H41.1571H41.1567H41.1563H41.1559H41.1555H41.1551H41.1547H41.1542H41.1538H41.1534H41.153H41.1526H41.1522H41.1518H41.1514H41.1509H41.1505H41.1501H41.1497H41.1493H41.1489H41.1485H41.148H41.1476H41.1472H41.1468H41.1464H41.146H41.1456H41.1452H41.1447H41.1443H41.1439H41.1435H41.1431H41.1427H41.1423H41.1418H41.1414H41.141H41.1406H41.1402H41.1398H41.1394H41.139H41.1385H41.1381H41.1377H41.1373H41.1369H41.1365H41.1361H41.1357H41.1352H41.1348H41.1344H41.134H41.1336H41.1332H41.1328H41.1324H41.1319H41.1315H41.1311H41.1307H41.1303H41.1299H41.1295H41.129H41.1286H41.1282H41.1278H41.1274H41.127H41.1266H41.1262H41.1257H41.1253H41.1249H41.1245H41.1241H41.1237H41.1233H41.1229H41.1224H41.122H41.1216H41.1212H41.1208H41.1204H41.12H41.1196H41.1191H41.1187H41.1183H41.1179H41.1175H41.1171H41.1167H41.1163H41.1158H41.1154H41.115H41.1146H41.1142H41.1138H41.1134H41.113H41.1125H41.1121H41.1117H41.1113H41.1109H41.1105H41.1101H41.1097H41.1092H41.1088H41.1084H41.108H41.1076H41.1072H41.1068H41.1064H41.1059H41.1055H41.1051H41.1047H41.1043H41.1039H41.1035H41.1031H41.1026H41.1022H41.1018H41.1014H41.101H41.1006H41.1002C35.5311 106.297 30.8638 104.459 27.2043 100.836C24.1856 97.8469 21.7906 93.6143 19.8922 87.8786Z" fill="#444852" stroke="#FAFAFA" stroke-width="0.5"/>
<path d="M17.5118 82.674L17.418 82.2377C17.2042 81.25 17.8325 80.2781 18.8181 80.0638C19.8037 79.8496 20.7736 80.4793 20.9874 81.4669M17.5118 82.674C17.697 83.531 18.4531 84.1163 19.2953 84.1163C19.423 84.1163 19.5534 84.1032 19.6811 84.0771M17.5118 82.674L17.7562 82.6212M17.5118 82.674L17.7563 82.6215L17.7562 82.6212M19.6811 84.0771C20.6667 83.8629 21.2951 82.8909 21.0813 81.9032L20.9874 81.4669M19.6811 84.0771L19.631 83.8322C19.6305 83.8323 19.63 83.8324 19.6295 83.8325M19.6811 84.0771L19.628 83.8328C19.6285 83.8327 19.629 83.8326 19.6295 83.8325M20.9874 81.4669L20.743 81.5195L20.7431 81.5198M20.9874 81.4669L20.7431 81.5198M20.7431 81.5198L20.8369 81.9558L20.8369 81.9561C21.0213 82.808 20.4798 83.6468 19.6295 83.8325M20.7431 81.5198C20.5582 80.6659 19.7205 80.1235 18.8712 80.3081C18.0201 80.4931 17.4778 81.3324 17.6623 82.1848L17.6624 82.1851L17.7562 82.6212M19.6295 83.8325C19.5187 83.855 19.4057 83.8663 19.2953 83.8663C18.5686 83.8663 17.916 83.361 17.7562 82.6212" fill="#444852" stroke="#FAFAFA" stroke-width="0.5"/>
<path d="M16.8177 77.1397L16.8177 77.1397C15.6763 69.5106 15.6682 62.1309 15.8608 57.2797C15.8969 56.4094 16.6303 55.735 17.4968 55.7662C18.3654 55.8026 19.0422 56.5356 19.0062 57.4056L19.0062 57.4059C18.8182 62.115 18.8257 69.2833 19.9291 76.67C20.0576 77.5325 19.465 78.337 18.607 78.4656C18.525 78.4773 18.4461 78.4839 18.3721 78.4839C17.6055 78.4839 16.9348 77.9225 16.8177 77.1397Z" fill="#444852" stroke="#FAFAFA" stroke-width="0.5"/>
<path d="M62.1905 63.3473L62.1905 63.347C62.1995 62.4753 62.9247 61.7773 63.7839 61.7863L63.7839 61.7863C64.6537 61.7954 65.3498 62.5093 65.3408 63.3837C65.2549 70.8659 64.4077 81.6086 60.882 90.3854C58.9327 95.2379 56.3465 99.0308 53.2042 101.671L53.365 101.863L53.2042 101.671C49.5527 104.74 45.1183 106.297 40.0129 106.297H40.0125H40.0121H40.0117H40.0113H40.0109H40.0104H40.01H40.0096H40.0092H40.0088H40.0084H40.008H40.0076H40.0071H40.0067H40.0063H40.0059H40.0055H40.0051H40.0047H40.0043H40.0038H40.0034H40.003H40.0026H40.0022H40.0018H40.0014H40.001H40.0005H40.0001H39.9997H39.9993H39.9989H39.9985H39.9981H39.9977H39.9972H39.9968H39.9964H39.996H39.9956H39.9952H39.9948H39.9944H39.9939H39.9935H39.9931H39.9927H39.9923H39.9919H39.9915H39.9911H39.9906H39.9902H39.9898H39.9894H39.989H39.9886H39.9882H39.9878H39.9873H39.9869H39.9865H39.9861H39.9857H39.9853H39.9849H39.9845H39.984H39.9836H39.9832H39.9828H39.9824H39.982H39.9816H39.9812H39.9807H39.9803H39.9799H39.9795H39.9791H39.9787H39.9783H39.9779H39.9774H39.977H39.9766H39.9762H39.9758H39.9754H39.975H39.9746H39.9741H39.9737H39.9733H39.9729H39.9725H39.9721H39.9717H39.9713H39.9708H39.9704H39.97H39.9696H39.9692H39.9688H39.9684H39.968H39.9675H39.9671H39.9667H39.9663H39.9659H39.9655H39.9651H39.9647H39.9642H39.9638H39.9634H39.963H39.9626H39.9622H39.9618H39.9614H39.9609H39.9605H39.9601H39.9597H39.9593H39.9589H39.9585H39.9581H39.9576H39.9572H39.9568H39.9564H39.956H39.9556H39.9552H39.9548H39.9543H39.9539H39.9535H39.9531H39.9527H39.9523H39.9519H39.9515H39.951H39.9506H39.9502H39.9498H39.9494H39.949H39.9486H39.9482H39.9477H39.9473H39.9469H39.9465H39.9461H39.9457H39.9453H39.9449H39.9444H39.944H39.9436H39.9432H39.9428H39.9424H39.942H39.9416H39.9411H39.9407H39.9403H39.9399H39.9395H39.9391H39.9387H39.9383H39.9378H39.9374H39.937H39.9366H39.9362H39.9358H39.9354H39.935H39.9345H39.9341H39.9337H39.9333H39.9329H39.9325H39.9321H39.9317H39.9312H39.9308H39.9304H39.93H39.9296H39.9292H39.9288H39.9284H39.9279H39.9275H39.9271H39.9267H39.9263H39.9259H39.9255H39.9251H39.9246H39.9242H39.9238H39.9234H39.923H39.9226H39.9222H39.9218H39.9214H39.9209H39.9205H39.9201H39.9197H39.9193H39.9189H39.9185H39.9181H39.9176H39.9172H39.9168H39.9164H39.916H39.9156H39.9152H39.9148H39.9143H39.9139H39.9135H39.9131H39.9127H39.9123H39.9119H39.9115H39.911H39.9106H39.9102H39.9098H39.9094H39.909H39.9086H39.9082H39.9077H39.9073H39.9069H39.9065H39.9061H39.9057H39.9053H39.9049H39.9044H39.904H39.9036H39.9032H39.9028H39.9024H39.902H39.9016H39.9011H39.9007H39.9003H39.8999H39.8995H39.8991H39.8987H39.8983H39.8978H39.8974H39.897H39.8966H39.8962H39.8958H39.8954H39.895H39.8945H39.8941H39.8937H39.8933H39.8929H39.8925H39.8921H39.8917H39.8912H39.8908H39.8904H39.89H39.8896H39.8892H39.8888H39.8884H39.8879H39.8875H39.8871H39.8867H39.8863H39.8859H39.8855H39.8851H39.8846H39.8842H39.8838H39.8834H39.883H39.8826H39.8822H39.8818H39.8813H39.8809H39.8805H39.8801H39.8797H39.8793H39.8789H39.8785H39.878H39.8776H39.8772H39.8768H39.8764H39.876H39.8756H39.8752H39.8747H39.8743H39.8739H39.8735H39.8731H39.8727H39.8723H39.8719H39.8714H39.871H39.8706H39.8702H39.8698H39.8694H39.869H39.8686H39.8681H39.8677H39.8673H39.8669H39.8665H39.8661H39.8657H39.8653H39.8648H39.8644H39.864H39.8636H39.8632H39.8628H39.8624H39.862H39.8615H39.8611H39.8607H39.8603H39.8599H39.8595H39.8591H39.8587H39.8582H39.8578H39.8574H39.857H39.8566H39.8562H39.8558H39.8554H39.8549H39.8545H39.8541H39.8537H39.8533H39.8529H39.8525H39.8521H39.8516H39.8512H39.8508H39.8504H39.85H39.8496H39.8492H39.8488H39.8483H39.8479H39.8475H39.8471H39.8467H39.8463H39.8459H39.8455H39.845H39.8446H39.8442H39.8438H39.8434H39.843H39.8426H39.8422H39.8417H39.8413H39.8409H39.8405H39.8401H39.8397H39.8393H39.8389H39.8384H39.838H39.8376H39.8372H39.8368H39.8364H39.836H39.8356H39.8351H39.8347H39.8343H39.8339H39.8335H39.8331H39.8327H39.8323H39.8318H39.8314H39.831H39.8306H39.8302H39.8298H39.8294H39.829H39.8285H39.8281H39.8277H39.8273H39.8269H39.8265H39.8261H39.8257H39.8252H39.8248H39.8244H39.824H39.8236H39.8232H39.8228H39.8224H39.8219H39.8215H39.8211H39.8207H39.8203H39.8199H39.8195H39.8191H39.8186H39.8182H39.8178H39.8174H39.817H39.8166H39.8162H39.8158H39.8153H39.8149H39.8145H39.8141H39.8137H39.8133H39.8129H39.8125H39.812H39.8116H39.8112H39.8108H39.8104H39.81H39.8096H39.8092H39.8087H39.8083H39.8079H39.8075H39.8071H39.8067H39.8063H39.8059H39.8054H39.805H39.8046H39.8042H39.8038H39.8034H39.803H39.8027C38.9332 106.29 38.2355 105.578 38.2422 104.705C38.249 103.836 38.9535 103.139 39.8174 103.139H39.8174H39.8174H39.8175H39.8175H39.8175H39.8176H39.8176H39.8176H39.8176H39.8177H39.8177H39.8177H39.8178H39.8178H39.8178H39.8179H39.8179H39.8179H39.818H39.818H39.818H39.818H39.8181H39.8181H39.8181H39.8182H39.8182H39.8182H39.8183H39.8183H39.8183H39.8184H39.8184H39.8184H39.8184H39.8185H39.8185H39.8185H39.8186H39.8186H39.8186H39.8187H39.8187H39.8187H39.8187H39.8188H39.8188H39.8188H39.8189H39.8189H39.8189H39.819H39.819H39.819H39.8191H39.8191H39.8191H39.8191H39.8192H39.8192H39.8192H39.8193H39.8193H39.8193H39.8194H39.8194H39.8194H39.8195H39.8195H39.8195H39.8195H39.8196H39.8196H39.8196H39.8197H39.8197H39.8197H39.8198H39.8198H39.8198H39.8198H39.8199H39.8199H39.8199H39.82H39.82H39.82H39.8201H39.8201H39.8201H39.8202H39.8202H39.8202H39.8202H39.8203H39.8203H39.8203H39.8204H39.8204H39.8204H39.8205H39.8205H39.8205H39.8206H39.8206H39.8206H39.8206H39.8207H39.8207H39.8207H39.8208H39.8208H39.8208H39.8209H39.8209H39.8209H39.8209H39.821H39.821H39.821H39.8211H39.8211H39.8211H39.8212H39.8212H39.8212H39.8213H39.8213H39.8213H39.8213H39.8214H39.8214H39.8214H39.8215H39.8215H39.8215H39.8216H39.8216H39.8216H39.8217H39.8217H39.8217H39.8217H39.8218H39.8218H39.8218H39.8219H39.8219H39.8219H39.822H39.822H39.822H39.822H39.8221H39.8221H39.8221H39.8222H39.8222H39.8222H39.8223H39.8223H39.8223H39.8224H39.8224H39.8224H39.8224H39.8225H39.8225H39.8225H39.8226H39.8226H39.8226H39.8227H39.8227H39.8227H39.8228H39.8228H39.8228H39.8228H39.8229H39.8229H39.8229H39.823H39.823H39.823H39.8231H39.8231H39.8231H39.8231H39.8232H39.8232H39.8232H39.8233H39.8233H39.8233H39.8234H39.8234H39.8234H39.8235H39.8235H39.8235H39.8235H39.8236H39.8236H39.8236H39.8237H39.8237H39.8237H39.8238H39.8238H39.8238H39.8239H39.8239H39.8239H39.8239H39.824H39.824H39.824H39.8241H39.8241H39.8241H39.8242H39.8242H39.8242H39.8242H39.8243H39.8243H39.8243H39.8244H39.8244H39.8244H39.8245H39.8245H39.8245H39.8246H39.8246H39.8246H39.8246H39.8247H39.8247H39.8247H39.8248H39.8248H39.8248H39.8249H39.8249H39.8249H39.825H39.825H39.825H39.825H39.8251H39.8251H39.8251H39.8252H39.8252H39.8252H39.8253H39.8253H39.8253H39.8253H39.8254H39.8254H39.8254H39.8255H39.8255H39.8255H39.8256H39.8256H39.8256H39.8257H39.8257H39.8257H39.8257H39.8258H39.8258H39.8258H39.8259H39.8259H39.8259H39.826H39.826H39.826H39.8261H39.8261H39.8261H39.8261H39.8262H39.8262H39.8262H39.8263H39.8263H39.8263H39.8264H39.8264H39.8264H39.8264H39.8265H39.8265H39.8265H39.8266H39.8266H39.8266H39.8267H39.8267H39.8267H39.8268H39.8268H39.8268H39.8268H39.8269H39.8269H39.8269H39.827H39.827H39.827H39.8271H39.8271H39.8271H39.8272H39.8272H39.8272H39.8272H39.8273H39.8273H39.8273H39.8274H39.8274H39.8274H39.8275H39.8275H39.8275H39.8275H39.8276H39.8276H39.8276H39.8277H39.8277H39.8277H39.8278H39.8278H39.8278H39.8279H39.8279H39.8279H39.8279H39.828H39.828H39.828H39.8281H39.8281H39.8281H39.8282H39.8282H39.8282H39.8283H39.8283H39.8283H39.8283H39.8284H39.8284H39.8284H39.8285H39.8285H39.8285H39.8286H39.8286H39.8286H39.8286H39.8287H39.8287H39.8287H39.8288H39.8288H39.8288H39.8289H39.8289H39.8289H39.829H39.829H39.829H39.829H39.8291H39.8291H39.8291H39.8292H39.8292H39.8292H39.8293H39.8293H39.8293H39.8294H39.8294H39.8294H39.8294H39.8295H39.8295H39.8295H39.8296H39.8296H39.8296H39.8297H39.8297H39.8297H39.8297H39.8298H39.8298H39.8298H39.8299H39.8299H39.8299H39.83H39.83H39.83H39.8301H39.8301H39.8301H39.8301H39.8302H39.8302H39.8302H39.8303H39.8303H39.8303H39.8304H39.8304H39.8304H39.8305H39.8305H39.8305H39.8305H39.8306H39.8306H39.8306H39.8307H39.8307H39.8307H39.8308H39.8308H39.8308H39.8308H39.8309H39.8309H39.8309H39.831H39.831H39.831H39.8311H39.8311H39.8311H39.8312H39.8312H39.8312H39.8312H39.8313H39.8313H39.8313H39.8314H39.8314H39.8314H39.8315H39.8315H39.8315H39.8315H39.8316H39.8316H39.8316H39.8317H39.8317H39.8317H39.8318H39.8318H39.8318H39.8319H39.8319H39.8319H39.8319H39.832H39.832H39.832H39.8321H39.8321H39.8321H39.8322H39.8322H39.8322H39.8323H39.8323H39.8323H39.8323H39.8324H39.8324H39.8324H39.8325H39.8325H39.8325H39.8326H39.8326H39.8326H39.8326H39.8327H39.8327H39.8327H39.8328H39.8328H39.8328H39.8329H39.8329H39.8329H39.833H39.833H39.833H39.8334H39.8337H39.8341H39.8344H39.8348H39.8351H39.8355H39.8358H39.8362H39.8365H39.8369H39.8372H39.8376H39.8379H39.8383H39.8386H39.839H39.8393H39.8397H39.84H39.8404H39.8407H39.8411H39.8414H39.8418H39.8421H39.8425H39.8428H39.8432H39.8435H39.8439H39.8442H39.8446H39.8449H39.8453H39.8456H39.846H39.8463H39.8467H39.847H39.8474H39.8477H39.8481H39.8484H39.8488H39.8491H39.8495H39.8498H39.8502H39.8505H39.8509H39.8512H39.8516H39.8519H39.8523H39.8526H39.853H39.8533H39.8536H39.854H39.8543H39.8547H39.855H39.8554H39.8557H39.8561H39.8564H39.8568H39.8571H39.8575H39.8578H39.8582H39.8585H39.8589H39.8592H39.8596H39.8599H39.8603H39.8606H39.8609H39.8613H39.8616H39.862H39.8623H39.8627H39.863H39.8634H39.8637H39.8641H39.8644H39.8648H39.8651H39.8655H39.8658H39.8661H39.8665H39.8668H39.8672H39.8675H39.8679H39.8682H39.8686H39.8689H39.8693H39.8696H39.87H39.8703H39.8706H39.871H39.8713H39.8717H39.872H39.8724H39.8727H39.8731H39.8734H39.8738H39.8741H39.8744H39.8748H39.8751H39.8755H39.8758H39.8762H39.8765H39.8769H39.8772H39.8775H39.8779H39.8782H39.8786H39.8789H39.8793H39.8796H39.88H39.8803H39.8806H39.881H39.8813H39.8817H39.882H39.8824H39.8827H39.8831H39.8834H39.8837H39.8841H39.8844H39.8848H39.8851H39.8855H39.8858H39.8861H39.8865H39.8868H39.8872H39.8875H39.8879H39.8882H39.8886H39.8889H39.8892H39.8896H39.8899H39.8903H39.8906H39.891H39.8913H39.8916H39.892H39.8923H39.8927H39.893H39.8934H39.8937H39.894H39.8944H39.8947H39.8951H39.8954H39.8958H39.8961H39.8964H39.8968H39.8971H39.8975H39.8978H39.8981H39.8985H39.8988H39.8992H39.8995H39.8999H39.9002H39.9005H39.9009H39.9012H39.9016H39.9019H39.9023H39.9026H39.9029H39.9033H39.9036H39.904H39.9043H39.9046H39.905H39.9053H39.9057H39.906H39.9064H39.9067H39.907H39.9074H39.9077H39.9081H39.9084H39.9087H39.9091H39.9094H39.9098H39.9101H39.9104H39.9108H39.9111H39.9115H39.9118H39.9122H39.9125H39.9128H39.9132H39.9135H39.9139H39.9142H39.9145H39.9149H39.9152H39.9156H39.9159H39.9162H39.9166H39.9169H39.9173H39.9176H39.9179H39.9183H39.9186H39.919H39.9193H39.9196H39.92H39.9203H39.9207H39.921H39.9213H39.9217H39.922H39.9224H39.9227H39.923H39.9234H39.9237H39.9241H39.9244H39.9247H39.9251H39.9254H39.9258H39.9261H39.9264H39.9268H39.9271H39.9275H39.9278H39.9281H39.9285H39.9288H39.9291H39.9295H39.9298H39.9302H39.9305H39.9308H39.9312H39.9315H39.9319H39.9322H39.9325H39.9329H39.9332H39.9336H39.9339H39.9342H39.9346H39.9349H39.9353H39.9356H39.9359H39.9363H39.9366H39.9369H39.9373H39.9376H39.938H39.9383H39.9386H39.939H39.9393H39.9397H39.94H39.9403H39.9407H39.941H39.9413H39.9417H39.942H39.9424H39.9427H39.943H39.9434H39.9437H39.9441H39.9444H39.9447H39.9451H39.9454H39.9457H39.9461H39.9464H39.9468H39.9471H39.9474H39.9478H39.9481H39.9484H39.9488H39.9491H39.9495H39.9498H39.9501H39.9505H39.9508H39.9512H39.9515H39.9518H39.9522H39.9525H39.9528H39.9532H39.9535H39.9539H39.9542H39.9545H39.9549H39.9552H39.9555H39.9559H39.9562H39.9566H39.9569H39.9572H39.9576H39.9579H39.9582H39.9586H39.9589H39.9593H39.9596H39.9599H39.9603H39.9606H39.9609H39.9613H39.9616H39.9619H39.9623H39.9626H39.963H39.9633H39.9636H39.964H39.9643H39.9646H39.965H39.9653H39.9657H39.966H39.9663H39.9667H39.967H39.9673H39.9677H39.968H39.9684H39.9687H39.969H39.9694H39.9697H39.97H39.9704H39.9707H39.971H39.9714H39.9717H39.9721H39.9724H39.9727H39.9731H39.9734H39.9737H39.9741H39.9744H39.9748H39.9751H39.9754H39.9758H39.9761H39.9764H39.9768H39.9771H39.9774H39.9778H39.9781H39.9785H39.9788H39.9791H39.9795H39.9798H39.9801H39.9805H39.9808H39.9811H39.9815H39.9818H39.9822H39.9825H39.9828H39.9832H39.9835H39.9838H39.9842H39.9845H39.9848H39.9852H39.9855H39.9859H39.9862H39.9865H39.9869H39.9872H39.9875H39.9879H39.9882H39.9885H39.9889H39.9892H39.9896H39.9899H39.9902H39.9906H39.9909H39.9912H39.9916H39.9919H39.9922H39.9926H39.9929H39.9933H39.9936H39.9939H39.9943H39.9946H39.9949H39.9953H39.9956H39.9959H39.9963H39.9966H39.997H39.9973H39.9976H39.998H39.9983H39.9986H39.999H39.9993H39.9996H40H40.0003H40.0006H40.001H40.0013H40.0017H40.002H40.0023H40.0027H40.003H40.0033H40.0037H40.004H40.0043H40.0047H40.005H40.0054H40.0057H40.006H40.0064H40.0067H40.007H40.0074H40.0077C44.739 103.139 48.4928 101.57 51.4567 98.9784C54.4156 96.3912 56.5768 92.7951 58.1491 88.7533C61.2926 80.6729 62.1057 70.7503 62.1905 63.3473Z" fill="#444852" stroke="#FAFAFA" stroke-width="0.5"/>
<path d="M37.3983 109.246V109.496H37.6483H43.4887H43.7387V109.246V106.853V106.603H43.4887H37.6483H37.3983V106.853V109.246ZM45.3138 112.654H35.8232C34.9527 112.654 34.248 111.949 34.248 111.075V105.024C34.248 104.15 34.9527 103.445 35.8232 103.445H45.3138C46.1843 103.445 46.889 104.15 46.889 105.024V111.075C46.889 111.949 46.1843 112.654 45.3138 112.654Z" fill="#444852" stroke="#FAFAFA" stroke-width="0.5"/>
<path d="M24.0997 133.299L24.0995 133.299C23.6131 132.575 23.8047 131.593 24.5272 131.106L24.5274 131.106C24.5938 131.061 27.4303 129.107 30.253 125.842C33.0725 122.58 35.9063 117.977 35.9063 112.64C35.9063 111.767 36.6109 111.061 37.4814 111.061C38.3519 111.061 39.0565 111.767 39.0565 112.64C39.0565 118.788 36.0087 123.967 32.8732 127.665C29.7396 131.361 26.5401 133.554 26.2865 133.725L26.2851 133.726C26.0162 133.91 25.7114 133.996 25.4069 133.996C24.8998 133.996 24.4032 133.752 24.0997 133.299Z" fill="#444852" stroke="#FAFAFA" stroke-width="0.5"/>
<path d="M56.3566 133.511L56.3561 133.51C56.061 133.362 52.3407 131.444 48.7888 127.895C45.2366 124.345 41.8782 119.19 42.2391 112.557L42.2391 112.557C42.2864 111.687 43.0312 111.021 43.8978 111.066C44.7657 111.114 45.4322 111.858 45.3849 112.729C45.0781 118.363 48.1673 122.844 51.3126 125.907C54.4603 128.972 57.699 130.652 57.777 130.691L57.8889 130.468L57.7754 130.69C58.5502 131.085 58.8628 132.036 58.4715 132.811C58.1919 133.362 57.6384 133.68 57.0624 133.68C56.8243 133.68 56.5841 133.626 56.3566 133.511ZM41.9895 112.544L41.9895 112.544L41.9895 112.544Z" fill="#444852" stroke="#FAFAFA" stroke-width="0.5"/>
<path d="M26.3456 134.699H26.0956V134.949V137.342V137.592H26.3456H42.9073C43.7778 137.592 44.4824 138.297 44.4824 139.171C44.4824 140.044 43.7754 140.75 42.9073 140.75H24.5204C23.65 140.75 22.9453 140.045 22.9453 139.171V133.12C22.9453 132.246 23.65 131.541 24.5204 131.541H42.3859C43.2563 131.541 43.961 132.246 43.961 133.12C43.961 133.993 43.2563 134.699 42.3859 134.699H26.3456Z" fill="#444852" stroke="#FAFAFA" stroke-width="0.5"/>
<path d="M56.1238 137.592H56.3738V137.342V134.949V134.699H56.1238H51.8139C50.9434 134.699 50.2388 133.993 50.2388 133.12C50.2388 132.246 50.9434 131.541 51.8139 131.541H57.9515C58.822 131.541 59.5267 132.246 59.5267 133.12L59.5267 139.17C59.5267 139.171 59.5267 139.171 59.5267 139.171C59.5242 140.045 58.8192 140.75 57.9489 140.75H51.8921C51.0217 140.75 50.317 140.045 50.317 139.171C50.317 138.297 51.0217 137.592 51.8921 137.592H56.1238Z" fill="#444852" stroke="#FAFAFA" stroke-width="0.5"/>
<path d="M53.1535 82.6037L53.1535 82.6037L46.9271 79.0241L46.8076 78.9554L46.6857 79.0198L40.6579 82.2073C40.6578 82.2073 40.6577 82.2074 40.6576 82.2074C40.169 82.4645 39.582 82.4484 39.1101 82.1624C38.6368 81.8756 38.3467 81.3632 38.3467 80.8111V51.1008C38.3467 50.2272 39.0513 49.5218 39.9218 49.5218C40.7923 49.5218 41.4969 50.2272 41.4969 51.1008V77.7777V78.1926L41.8638 77.9987L46.1033 75.7569L46.1034 75.7568C46.5806 75.5042 47.154 75.5135 47.6213 75.7836L47.6218 75.784L52.0048 78.3027L52.3769 78.5166L52.3793 78.0874L52.5305 51.0368V51.0367C52.535 50.168 53.2397 49.4669 54.1057 49.4669H54.1057H54.1057H54.1057H54.1057H54.1058H54.1058H54.1058H54.1058H54.1058H54.1058H54.1058H54.1059H54.1059H54.1059H54.1059H54.1059H54.1059H54.106H54.106H54.106H54.106H54.106H54.106H54.1061H54.1061H54.1061H54.1061H54.1061H54.1061H54.1062H54.1062H54.1062H54.1062H54.1062H54.1062H54.1063H54.1063H54.1063H54.1063H54.1063H54.1063H54.1064H54.1064H54.1064H54.1064H54.1064H54.1065H54.1065H54.1065H54.1065H54.1065H54.1065H54.1066H54.1066H54.1066H54.1066H54.1066H54.1067H54.1067H54.1067H54.1067H54.1067H54.1067H54.1068H54.1068H54.1068H54.1068H54.1068H54.1069H54.1069H54.1069H54.1069H54.1069H54.107H54.107H54.107H54.107H54.107H54.107H54.1071H54.1071H54.1071H54.1071H54.1071H54.1072H54.1072H54.1072H54.1072H54.1072H54.1073H54.1073H54.1073H54.1073H54.1073H54.1074H54.1074H54.1074H54.1074H54.1074H54.1075H54.1075H54.1075H54.1075H54.1075H54.1076H54.1076H54.1076H54.1076H54.1076H54.1077H54.1077H54.1077H54.1077H54.1077H54.1078H54.1078H54.1078H54.1078H54.1078H54.1079H54.1079H54.1079H54.1079H54.108H54.108H54.108H54.108H54.108H54.1081H54.1081H54.1081H54.1081H54.1081H54.1082H54.1082H54.1082H54.1082H54.1082H54.1083H54.1083H54.1083H54.1083H54.1084H54.1084H54.1084H54.1084H54.1084H54.1085H54.1085H54.1085H54.1085H54.1085H54.1086H54.1086H54.1086H54.1086H54.1087H54.1087H54.1087H54.1087H54.1087H54.1088H54.1088H54.1088H54.1088H54.1089H54.1089H54.1089H54.1089H54.1089H54.109H54.109H54.109H54.109H54.1091H54.1091H54.1091H54.1091H54.1091H54.1092H54.1092H54.1092H54.1092H54.1093H54.1093H54.1093H54.1093H54.1093H54.1094H54.1094H54.1094H54.1094H54.1095H54.1095H54.1095H54.1095H54.1095H54.1096H54.1096H54.1096H54.1096H54.1097H54.1097H54.1097H54.1097H54.1097H54.1098H54.1098H54.1098H54.1098H54.1099H54.1099H54.1099H54.1099H54.11H54.11H54.11H54.11H54.11H54.1101H54.1101H54.1101H54.1101H54.1102H54.1102H54.1102H54.1102H54.1102H54.1103H54.1103H54.1103H54.1103H54.1104H54.1104H54.1104H54.1104H54.1105H54.1105H54.1105H54.1105H54.1105H54.1106H54.1106H54.1106H54.1106H54.1107H54.1107H54.1107H54.1107H54.1108H54.1108H54.1108H54.1108H54.1108H54.1109H54.1109H54.1109H54.1109H54.111H54.111H54.111H54.111H54.111H54.1111H54.1111H54.1111H54.1111H54.1112H54.1112H54.1112H54.1112H54.1113H54.1113H54.1113H54.1113H54.1113H54.1114H54.1114H54.1114H54.1114H54.1115H54.1115H54.1115H54.1115H54.1116H54.1116H54.1116H54.1116H54.1116H54.1117H54.1117H54.1117H54.1117H54.1118H54.1118H54.1118H54.1118H54.1118H54.1119H54.1119H54.1119H54.1119H54.112H54.112H54.112H54.112H54.1121H54.1121H54.1121H54.1121H54.1121H54.1122H54.1122H54.1122H54.1122H54.1123H54.1123H54.1123H54.1123H54.1123H54.1124H54.1124H54.1124H54.1124H54.1125H54.1125H54.1125H54.1125H54.1125H54.1126H54.1126H54.1126H54.1126H54.1127H54.1127H54.1127H54.1127H54.1127H54.1128H54.1128H54.1128H54.1128H54.1129H54.1129H54.1129H54.1129H54.1129H54.113H54.113H54.113H54.113H54.1131H54.1131H54.1131H54.1131H54.1131H54.1132H54.1132H54.1132H54.1132H54.1132H54.1133H54.1133H54.1133H54.1133H54.1134H54.1134H54.1134H54.1134H54.1134H54.1135H54.1135H54.1135H54.1135H54.1136H54.1136H54.1136H54.1136H54.1136H54.1137H54.1137H54.1137H54.1137H54.1137H54.1138H54.1138H54.1138H54.1138H54.1138H54.1139H54.1139H54.1139H54.1139H54.1139H54.114H54.114H54.114H54.114H54.1141H54.1141H54.1141H54.1141H54.1141H54.1142H54.1142H54.1142H54.1142H54.1142H54.1143H54.1143H54.1143H54.1143H54.1143H54.1144H54.1144H54.1144H54.1144H54.1144H54.1145H54.1145H54.1145H54.1145H54.1145H54.1146H54.1146H54.1146H54.1146H54.1146H54.1147H54.1147H54.1147H54.1147H54.1147H54.1147H54.1148H54.1148H54.1148H54.1148H54.1148H54.1149H54.1149H54.1149H54.1149H54.1149H54.115H54.115H54.115H54.115H54.115H54.115H54.1151H54.1151H54.1151H54.1151H54.1151H54.1152H54.1152H54.1152H54.1152H54.1152H54.1153H54.1153H54.1153H54.1153H54.1153H54.1153H54.1154H54.1154H54.1154H54.1154H54.1154C54.9852 49.4718 55.6853 50.1813 55.6808 51.0549C55.6808 51.055 55.6808 51.055 55.6808 51.0551L55.5113 81.2435L55.5113 81.2439C55.5091 81.8054 55.2074 82.3241 54.7215 82.6037L54.7206 82.6042C54.4811 82.7433 54.2092 82.8134 53.9362 82.8134C53.6666 82.8134 53.3967 82.7436 53.1535 82.6037Z" fill="#444852" stroke="#FAFAFA" stroke-width="0.5"/>
<path d="M67.6353 58.8381H60.8588C59.9884 58.8381 59.2837 58.1327 59.2837 57.2592C59.2837 56.3856 59.9884 55.6802 60.8588 55.6802H67.6353C68.5057 55.6802 69.2104 56.3856 69.2104 57.2592C69.2104 58.1327 68.5057 58.8381 67.6353 58.8381Z" fill="#444852" stroke="#FAFAFA" stroke-width="0.5"/>
<path d="M15.4003 55.4301V55.6801H15.6503H32.6396C33.5101 55.6801 34.2147 56.3855 34.2147 57.2591C34.2147 58.1327 33.5101 58.8381 32.6396 58.8381H13.8251C12.9547 58.8381 12.25 58.1327 12.25 57.2591V51.1007C12.25 50.2271 12.9547 49.5217 13.8251 49.5217C14.6956 49.5217 15.4003 50.2271 15.4003 51.1007V55.4301Z" fill="#444852" stroke="#FAFAFA" stroke-width="0.5"/>
<path d="M68.175 58.7309C67.3045 58.7309 66.5999 58.0255 66.5999 57.1519V51.3619C66.5999 50.4883 67.3045 49.783 68.175 49.783C69.0455 49.783 69.7501 50.4883 69.7501 51.3619V57.1519C69.7501 58.0253 69.0431 58.7309 68.175 58.7309Z" fill="#444852" stroke="#FAFAFA" stroke-width="0.5"/>
<path d="M50.1379 86.9465L50.138 86.9463C50.3766 86.1071 51.2498 85.6227 52.084 85.8615L52.0842 85.8616C52.9208 86.1005 53.4052 86.9755 53.1665 87.8127L53.1665 87.8128C52.24 91.0681 50.6731 93.5999 48.613 95.317C46.5548 97.0326 43.9908 97.9467 41.0456 97.9467C40.8492 97.9467 40.6494 97.9416 40.4482 97.9338C39.5799 97.8976 38.9024 97.1624 38.9384 96.2918C38.9744 95.4217 39.7076 94.7468 40.577 94.7781C43.5592 94.9011 45.6966 93.8662 47.2162 92.3269C48.728 90.7955 49.6157 88.7783 50.1379 86.9465Z" fill="#444852" stroke="#FAFAFA" stroke-width="0.5"/>
</svg>
