<svg width="140" height="133" viewBox="0 0 140 133" fill="none" xmlns="http://www.w3.org/2000/svg">
<g clip-path="url(#clip0)">
<path d="M9.63721 114.132H131.296" stroke="#444852" stroke-width="2" stroke-miterlimit="10" stroke-linecap="round" stroke-linejoin="round"/>
<path d="M21.4847 112.623C15.7378 87.5098 32.9786 62.0416 60.1219 55.7411C87.2652 49.4406 113.966 64.7038 119.802 89.8171L21.4847 112.623Z" stroke="#444852" stroke-width="2" stroke-miterlimit="10" stroke-linecap="round" stroke-linejoin="round"/>
<path d="M64.5427 61.5092C86.8232 56.3624 108.838 68.8746 113.613 89.5509" stroke="#444852" stroke-width="2" stroke-miterlimit="10" stroke-linecap="round" stroke-linejoin="round"/>
<path d="M59.061 63.1065C59.6799 62.8403 60.3872 62.6628 61.0061 62.4854" stroke="#444852" stroke-width="2" stroke-miterlimit="10" stroke-linecap="round" stroke-linejoin="round"/>
<path d="M56.1434 56.0961C55.6129 53.9664 57.0275 51.7479 59.1495 51.3042C61.2714 50.7717 63.4818 52.1916 63.9239 54.3213" stroke="#444852" stroke-width="2" stroke-miterlimit="10" stroke-linecap="round" stroke-linejoin="round"/>
<path d="M107.335 112.801C107.601 109.695 105.567 107.033 102.649 106.323C102.826 105.968 102.915 105.613 102.915 105.169C103.092 103.128 101.588 101.265 99.5549 101.087C97.5214 100.91 95.6647 102.418 95.4878 104.459C95.4878 104.548 95.4878 104.548 95.4878 104.637C94.8689 104.37 94.25 104.282 93.5427 104.193C90.8019 103.927 88.2378 105.258 86.8232 107.388C85.497 105.702 83.5519 104.548 81.2531 104.282C77.6281 103.927 74.3568 106.145 73.2074 109.34C72.1464 108.186 70.7317 107.388 69.0519 107.21C67.5488 107.033 66.1342 107.476 64.8964 108.275C64.9848 107.92 65.1616 107.565 65.1616 107.21C65.3385 105.169 63.8354 103.394 61.8903 103.217C60.0336 103.039 58.3537 104.37 58 106.145C53.933 105.79 50.3964 108.807 50.0427 112.801" stroke="#444852" stroke-width="2" stroke-miterlimit="10" stroke-linecap="round" stroke-linejoin="round"/>
<path d="M125.107 51.8367C125.107 57.2498 121.57 57.2498 121.57 62.5742C121.57 67.9873 125.107 67.9873 125.107 73.3116" stroke="#444852" stroke-width="2" stroke-miterlimit="10" stroke-linecap="round" stroke-linejoin="round"/>
<path d="M127.14 83.9603C127.14 78.5472 130.677 78.5472 130.677 73.2228C130.677 67.8097 127.14 67.8097 127.14 62.4854" stroke="#444852" stroke-width="2" stroke-miterlimit="10" stroke-linecap="round" stroke-linejoin="round"/>
</g>
<defs>
<clipPath id="clip0">
<rect width="140" height="133" fill="white"/>
</clipPath>
</defs>
</svg>
