<svg width="2500" height="960" viewBox="0 0 2500 960" fill="none" xmlns="http://www.w3.org/2000/svg">
<g opacity="0.3" clip-path="url(#clip0)">
<path d="M2619 988.877C2661.62 820.262 2260.39 764.954 1873 751.637C1642.37 743.708 1378.93 756.675 1287.5 751.637C1042.5 738.137 840.5 796.812 840.5 796.812L612.679 805.426C611.238 805.233 609.797 805.136 608.254 804.942C606.298 804.749 604.24 804.555 602.182 804.362C597.962 803.975 593.332 803.491 588.392 803.007C585.922 802.716 583.452 802.523 580.776 802.232C578.204 802.039 575.528 801.748 572.749 801.555C567.192 801.071 561.429 800.587 555.357 800.103C549.286 799.716 543.008 799.329 536.422 798.845C529.938 798.361 523.146 798.071 516.148 797.683C509.253 797.296 502.05 797.006 494.743 796.812L494.443 796.804C490.935 796.71 487.333 796.613 483.732 796.425C481.879 796.328 480.027 796.328 478.071 796.232C476.219 796.232 474.264 796.135 472.411 796.135C468.604 796.038 464.796 796.038 460.988 795.941C457.181 795.844 453.271 795.844 449.361 795.844H449.359H437.627H425.69C409.739 796.038 393.582 796.328 377.425 797.006C373.411 797.2 369.398 797.296 365.281 797.49L365.28 797.49C361.267 797.683 357.254 797.877 353.241 798.167C349.227 798.361 345.214 798.555 341.2 798.845C337.187 799.135 333.173 799.426 329.262 799.619C327.307 799.716 325.352 799.91 323.294 800.006C321.338 800.2 319.383 800.297 317.428 800.49C313.517 800.781 309.606 801.168 305.696 801.458C297.977 802.136 290.259 802.91 282.747 803.587C275.234 804.362 267.825 805.136 260.621 806.007C257.019 806.394 253.417 806.878 249.918 807.265C246.419 807.749 242.92 808.136 239.421 808.62C232.526 809.491 225.837 810.556 219.457 811.427C212.973 812.395 206.798 813.363 200.83 814.331C188.892 816.266 177.983 818.299 168.413 820.138C158.739 821.977 150.403 823.816 143.508 825.268C136.616 826.816 131.266 828.073 127.562 828.944L127.557 828.945C123.852 829.817 -223.492 930.377 -305 1013.88C-291.4 1013.88 2335.67 968.877 2619 988.877Z" fill="#EBEBEB"/>
<path d="M2292.43 682.202C2293.05 682.879 2293.25 683.654 2293.05 684.525C2292.84 686.267 2293.87 687.041 2295.62 686.46C2296.86 686.073 2297.99 685.493 2299.22 685.105C2303.03 684.041 2306.94 683.17 2310.85 682.105C2311.26 682.008 2311.68 681.524 2311.68 681.137C2311.68 680.847 2311.26 680.266 2310.96 680.266C2309.82 680.169 2308.79 680.073 2307.66 680.169C2306.53 680.266 2305.4 680.46 2303.85 680.653C2303.03 680.363 2301.8 680.073 2300.87 679.395C2300.46 679.105 2300.87 677.943 2300.77 677.169C2300.77 676.782 2300.56 676.298 2300.36 676.104C2300.25 676.008 2299.63 676.104 2299.33 676.201C2298.61 676.491 2297.78 676.879 2297.06 677.363C2296.24 677.846 2295.72 677.653 2295 677.072C2292.74 675.04 2290.48 673.104 2288.21 671.168C2288.01 670.975 2287.49 670.975 2287.29 671.071C2287.08 671.265 2286.87 671.652 2286.87 671.942C2286.98 672.523 2287.29 673.007 2287.49 673.491C2288.83 676.491 2290.17 679.589 2292.43 682.202Z" fill="#EEEEEE"/>
<path d="M2218.03 638.647C2218.34 638.937 2218.54 639.421 2218.85 639.615C2221.11 640.389 2222.14 642.034 2222.97 643.97C2223.79 646.002 2224.82 646.196 2226.47 644.551C2226.57 644.357 2226.77 644.26 2226.88 644.067C2227.91 642.615 2229.35 641.744 2231.1 641.26C2231.51 641.163 2231.82 640.873 2232.13 640.679C2231.71 640.389 2231.41 640.002 2230.99 639.808C2229.45 639.324 2228.11 639.808 2226.88 640.679C2226.26 641.066 2225.85 641.066 2225.23 640.486C2224.72 639.808 2224 639.227 2223.28 638.743C2222.56 638.26 2221.84 637.969 2221.01 637.582L2220.91 637.776C2220.29 637.872 2219.67 637.872 2219.06 638.066C2218.75 638.163 2218.34 638.453 2218.03 638.647Z" fill="#EEEEEE"/>
<path d="M2202.69 635.936C2205.58 635.549 2208.35 635.743 2210.82 637.485C2211.65 638.066 2212.16 637.872 2212.57 637.098C2213.19 635.84 2213.71 634.581 2214.32 633.323C2215.35 631.194 2216.69 629.258 2219.16 628.29C2219.47 628.193 2219.57 627.71 2219.78 627.419C2219.47 627.322 2219.16 627.032 2218.85 627.032C2216.59 626.838 2214.84 627.516 2213.5 629.258C2212.68 630.323 2211.65 631.387 2210.62 632.452C2210.31 632.839 2209.69 633.13 2209.18 633.13C2208.25 633.226 2207.22 633.033 2206.3 633.033C2205.27 633.033 2204.24 633.13 2203.31 633.323C2202.08 633.614 2200.94 634.194 2199.81 634.678C2199.5 634.775 2199.2 635.065 2198.89 635.356C2199.92 636.13 2200.94 636.227 2202.69 635.936Z" fill="#EEEEEE"/>
<path d="M2330 758.759C2330 756.823 2330 754.984 2330 753.049C2330 752.081 2329.58 751.694 2328.66 751.694C2328.45 751.694 2328.14 751.694 2327.94 751.694C2327.01 751.597 2326.6 751.887 2326.6 752.758C2326.6 756.243 2326.5 759.824 2326.5 763.308C2326.5 766.018 2326.29 765.437 2328.86 765.534C2329.89 765.534 2330.1 765.244 2330.1 764.373C2330 762.437 2330 760.598 2330 758.759Z" fill="#EEEEEE"/>
<path d="M2464.4 747.433C2464.71 747.24 2464.91 746.562 2464.81 746.175C2464.4 744.917 2463.37 744.239 2461.82 744.143C2461.52 744.143 2461.21 744.143 2460.9 744.046C2459.15 743.755 2458.53 742.788 2459.35 741.336C2459.77 740.561 2460.18 739.884 2460.8 738.916C2459.97 739.013 2459.56 739.013 2459.05 739.11C2457.3 739.594 2455.65 739.4 2454.11 738.722C2452.77 738.142 2452.77 738.142 2452.15 739.4C2451.53 740.658 2450.61 741.239 2449.17 741.239C2448.55 741.239 2447.93 741.045 2447.31 741.142C2446.9 741.239 2446.49 741.529 2446.18 741.82C2446.08 742.013 2446.39 742.594 2446.59 742.788C2448.34 744.239 2450.3 745.11 2452.77 744.433C2453.08 744.336 2453.8 744.53 2453.9 744.82C2455.55 747.724 2458.43 748.401 2461.62 748.304C2462.65 748.304 2463.57 747.82 2464.4 747.433Z" fill="#EEEEEE"/>
<path d="M2493.73 742.596C2493.11 741.821 2491.77 741.628 2490.85 742.015C2490.54 742.209 2490.02 742.209 2489.61 742.112C2487.35 741.531 2486.21 740.079 2485.49 738.144C2485.08 736.885 2484.67 735.724 2483.13 735.143C2481.79 734.659 2481.58 734.562 2481.17 735.917C2480.86 736.982 2480.25 737.466 2479.11 737.563C2477.78 737.756 2476.44 737.853 2475.2 738.24C2473.15 738.918 2472.22 740.37 2472.73 742.209C2472.94 742.886 2473.35 743.176 2474.17 742.789C2475.41 742.112 2476.85 742.209 2478.08 742.596C2479.32 742.983 2480.45 743.08 2481.58 742.596C2482.2 742.305 2482.72 742.402 2482.92 743.176C2483.13 743.757 2483.44 744.338 2483.85 744.822C2485.49 747.435 2488.27 747.725 2491.46 748.306C2492.29 747.919 2493.42 747.629 2494.34 747.048C2495.48 746.37 2495.48 745.693 2494.86 744.628C2494.65 743.951 2494.24 743.273 2493.73 742.596Z" fill="#EEEEEE"/>
<path d="M2352.43 707.751C2352.12 706.202 2352.12 706.202 2350.27 706.105C2350.17 707.073 2349.96 708.041 2349.96 709.009C2349.86 709.977 2349.75 710.945 2349.75 711.913C2349.65 714.816 2349.65 714.816 2352.84 714.719C2353.46 714.719 2353.66 714.526 2353.56 713.945C2353.15 711.816 2352.84 709.783 2352.43 707.751Z" fill="#EEEEEE"/>
<path d="M1725.19 741.145C1725.09 741.435 1724.99 741.628 1724.88 741.919C1725.09 741.628 1725.09 741.338 1725.19 741.145Z" fill="#EEEEEE"/>
<path d="M1716.85 767.373C1716.85 767.179 1716.96 766.986 1716.96 766.695C1716.85 766.986 1716.85 767.179 1716.85 767.373Z" fill="#EEEEEE"/>
<path d="M1507.12 843.933C1514.02 842.578 1522.46 841.029 1532.13 839.384C1541.8 837.738 1552.71 836.093 1564.65 834.448C1570.62 833.576 1576.9 832.802 1583.28 832.028C1589.76 831.254 1596.45 830.479 1603.24 829.705C1606.64 829.318 1610.14 828.931 1613.74 828.64C1617.24 828.35 1620.84 827.963 1624.44 827.576C1631.64 826.898 1639.05 826.317 1646.57 825.64C1654.08 825.059 1661.69 824.575 1669.52 824.091C1673.43 823.898 1677.34 823.607 1681.25 823.414C1683.2 823.317 1685.16 823.22 1687.11 823.124C1689.07 823.027 1691.02 822.93 1693.08 822.833C1696.99 822.64 1701.01 822.446 1705.02 822.349C1709.03 822.156 1713.05 822.059 1716.96 821.962C1720.97 821.865 1724.98 821.672 1729 821.575C1733.01 821.478 1737.03 821.478 1741.04 821.381C1757.09 821.091 1773.15 821.188 1789 821.381C1792.91 821.381 1796.92 821.478 1800.83 821.672C1804.74 821.769 1808.65 821.865 1812.56 821.962C1816.47 822.059 1820.28 822.252 1824.09 822.349C1827.9 822.543 1831.7 822.64 1835.51 822.833C1837.36 822.93 1839.22 823.027 1841.17 823.027C1843.02 823.124 1844.88 823.22 1846.73 823.317C1850.43 823.511 1854.03 823.704 1857.74 823.995C1864.94 824.382 1872.04 824.866 1878.94 825.446C1885.83 825.93 1892.52 826.414 1899.01 827.092C1905.49 827.673 1911.66 828.253 1917.74 828.834C1923.71 829.511 1929.47 830.092 1934.92 830.673C1937.6 830.963 1940.27 831.254 1942.85 831.544C1945.42 831.834 1947.89 832.125 1950.36 832.512C1954.48 832.996 1958.28 833.48 1961.89 833.964L2015.71 814.51L1976.09 822.543C1974.65 822.349 1973.21 822.252 1971.66 822.059C1969.71 821.865 1967.65 821.672 1965.59 821.478C1961.37 821.091 1956.74 820.607 1951.8 820.123C1949.33 819.833 1946.86 819.639 1944.18 819.349C1941.61 819.155 1938.94 818.865 1936.16 818.671C1930.6 818.187 1924.84 817.703 1918.77 817.22C1912.69 816.832 1906.42 816.445 1899.83 815.961C1893.35 815.477 1886.55 815.187 1879.56 814.8C1872.66 814.413 1865.46 814.122 1858.15 813.929C1854.55 813.832 1850.84 813.735 1847.14 813.542C1845.29 813.445 1843.43 813.445 1841.48 813.348C1839.63 813.348 1837.67 813.251 1835.82 813.251C1832.01 813.154 1828.2 813.155 1824.4 813.058C1820.59 812.961 1816.68 812.961 1812.77 812.961C1808.86 812.961 1804.95 812.961 1801.04 812.961C1797.12 812.961 1793.11 812.961 1789.1 812.961C1773.15 813.155 1756.99 813.445 1740.83 814.122C1736.82 814.316 1732.81 814.413 1728.69 814.606C1724.68 814.8 1720.66 814.993 1716.65 815.284C1712.64 815.477 1708.62 815.671 1704.61 815.961C1700.59 816.252 1696.58 816.542 1692.67 816.736C1690.72 816.832 1688.76 817.026 1686.7 817.123C1684.75 817.316 1682.79 817.413 1680.84 817.607C1676.93 817.897 1673.01 818.284 1669.1 818.575C1661.39 819.252 1653.67 820.026 1646.15 820.704C1638.64 821.478 1631.23 822.252 1624.03 823.124C1620.43 823.511 1616.83 823.995 1613.33 824.382C1609.83 824.866 1606.33 825.253 1602.83 825.737C1595.93 826.608 1589.25 827.673 1582.86 828.544C1576.38 829.511 1570.21 830.479 1564.24 831.447C1552.3 833.383 1541.39 835.415 1531.82 837.254C1522.15 839.093 1513.81 840.932 1506.92 842.384C1500.02 843.933 1494.67 845.191 1490.97 846.062C1487.26 846.933 1485.41 847.514 1485.41 847.514L1485.72 848.482C1485.72 848.482 1487.67 847.998 1491.38 847.223C1494.77 846.449 1500.23 845.288 1507.12 843.933Z" fill="#EEEEEE"/>
<path opacity="0.25" d="M854.939 930.196L869.727 916.028H896.113L939.181 853.122L968.71 866.852L987.287 842.752L1019.96 841.145L1079.8 794.745L1104.75 816.801L1124.81 808.329L1147.27 818.456L1229.15 780.138L1253.74 812.273L1274.3 800.441L1297.5 829.947L1297.64 829.557L1387.33 776L1406.6 778.58L1447.55 761.053L1479.85 762.951L1508.54 741.821L1529.62 734.615L1540.29 714.75L1564.74 724.877L1583.78 691.039L1611.87 684.076L1627.31 667.814L1707.2 646.002L1728.88 618.542L1748.93 622.339L1779.43 598.871L1819.17 617.909L1829.2 613.868L1853.55 628.62L1864.37 610.751L1935.76 623.654L1956 605.25L1973.1 610.703L2018.43 596.973L2039.32 618.931L2112.98 597.995L2172.36 619.467L2200.64 607.733L2228.14 642.204C2228.14 642.204 2247.18 634.171 2246.62 633.927C2246.02 633.732 2274.63 643.616 2274.63 643.616L2321.07 612.163L2344.96 609.826L2381.1 579.153L2426.24 564.984L2452.22 531.779L2470.01 522.041L2490.48 474.278L2544.45 459.671L2561.5 436.642L2580.96 434.11L2608.04 402.414L2630.31 397.545L2645.56 362.003L2676.06 356.939L2705.77 323.733L2730.45 333.861L2757.58 318.232L2781.65 320.569L2803.33 297.929L2836.87 306.887C2836.87 306.887 2876.57 290.869 2889 286V1008H1135.67H897.222H792L820.697 950.645L854.939 930.196Z" fill="#EBEBEB"/>
<path fill-rule="evenodd" clip-rule="evenodd" d="M527.971 500H524.645V551.417H508.553V564.009H508.751V621.506H497.462V663.668H486.805V731.259H479.262V866.779V873.901V884.816H572.624V873.901V866.779V731.259H563.816V663.668H551.987V621.506H542.594V564.009V557.124V551.417H527.971V500ZM1247.18 592.241H1208.94V607.06H1196.9V610.879V612.174V656.292H1190.78V664.109H1185.3V664.277V673.27V683.991H1180.7V676.717H1174.91V635.63V634.428V630.871H1163.71V617.069H1128.09V630.871H1116.89V634.428V635.63V676.717H1111.19V683.991H1106.08V684.152V692.526V867.847V886.992H1185.71V882.106H1270.82V861.555V861.546V673.27V664.277V664.109H1265.43V656.292H1259.21V612.174V610.879V607.06H1247.18V592.241ZM1377.71 593.206H1451V602.148V604.596V866.009V867.871V881.911H1377.71V867.871V866.009V604.596V602.148V593.206ZM1278.89 728.185H1271.35V863.705V870.827V881.75H1364.71V870.827V863.705V728.185H1355.9V660.594H1344.08V618.432H1289.56V660.594H1278.89V728.185ZM585.663 730.277H578.127V865.788V872.919V883.833H671.489V872.919V865.788V730.277H662.674V662.685H650.853V620.515H596.328V662.685H585.663V730.277ZM279.217 607.136V868.549V870.412V884.452H205.929V870.412V868.549V607.136V604.689V595.747H279.217V604.689V607.136ZM677.731 720.869H701.107V674.964V671.891V668.825H748.926V671.891V674.964V873.85V878.796V883.741H677.731V875.806V873.85V727.931H701.107V727.685H677.731V720.869ZM468.757 666.191H474.131V666.36V675.353V863.638V884.189H388.625V863.638V675.353V666.36V666.191H394.106V658.383H400.234V614.257V612.97V609.143H412.261V594.324H450.504V609.143H462.538V612.97V614.257V658.383H468.757V666.191ZM296.984 731.716H289.448V867.228V874.358V885.273H382.81V874.358V867.228V731.716H373.995V664.126H362.173V621.955H352.78V557.574L352.78 551.875H338.15V500.458H334.823V551.875H318.739V564.466H318.937V621.955H307.648V664.126H296.984V731.716ZM107.109 730.726H99.5733V866.246V873.367V884.291H192.935V873.367V866.246V730.726H184.12V663.135H172.299V620.973H117.774V663.135H107.109V730.726ZM80.132 666.649H85.5137V666.818V675.811V864.087V864.095V884.647H0V864.095V864.087V675.811V666.818V666.649H5.48063V658.833H11.6007V614.715V613.419V609.6H23.6354V594.781H61.8784V609.6H73.9053V613.419V614.715V658.833H80.132V666.649ZM756.995 744.579H749.977V870.776V877.406V887.577H836.914V887.077H923.851V876.916V870.276V744.088H915.645V681.146H904.638V641.88H853.866V681.146H843.932V744.088H836.914V744.579H828.708V681.645H817.701V642.38H808.947L808.947 588.845V577.117H795.337V529.231H792.239V577.117H777.251V588.845H777.433V642.38H766.929V681.645H756.995V744.579ZM1004.2 872.428V628.992V626.723V618.39H935.954V626.723V628.992V872.428V874.164V887.238H1004.2V874.164V872.428ZM1013.73 745.002H1020.75V682.06H1030.68V642.795H1041.19V589.261H1041.01V577.533H1055.99V529.655H1059.09V577.533H1072.7L1072.7 582.85L1072.7 589.261L1072.7 642.795H1081.45V682.06H1092.47V745.002H1100.66V871.2V877.83V888H1013.73V877.83V871.2V745.002Z" fill="#6F8E9E"/>
<path fill-rule="evenodd" clip-rule="evenodd" d="M527.971 500H524.645V551.417H508.553V564.009H508.751V621.506H497.462V663.668H486.805V731.259H479.262V866.779V873.901V884.816H572.624V873.901V866.779V731.259H563.816V663.668H551.987V621.506H542.594V564.009V557.124V551.417H527.971V500ZM1247.18 592.241H1208.94V607.06H1196.9V610.879V612.174V656.292H1190.78V664.109H1185.3V664.277V673.27V683.991H1180.7V676.717H1174.91V635.63V634.428V630.871H1163.71V617.069H1128.09V630.871H1116.89V634.428V635.63V676.717H1111.19V683.991H1106.08V684.152V692.526V867.847V886.992H1185.71V882.106H1270.82V861.555V861.546V673.27V664.277V664.109H1265.43V656.292H1259.21V612.174V610.879V607.06H1247.18V592.241ZM1377.71 593.206H1451V602.148V604.596V866.009V867.871V881.911H1377.71V867.871V866.009V604.596V602.148V593.206ZM1278.89 728.185H1271.35V863.705V870.827V881.75H1364.71V870.827V863.705V728.185H1355.9V660.594H1344.08V618.432H1289.56V660.594H1278.89V728.185ZM585.663 730.277H578.127V865.788V872.919V883.833H671.489V872.919V865.788V730.277H662.674V662.685H650.853V620.515H596.328V662.685H585.663V730.277ZM279.217 607.136V868.549V870.412V884.452H205.929V870.412V868.549V607.136V604.689V595.747H279.217V604.689V607.136ZM677.731 720.869H701.107V674.964V671.891V668.825H748.926V671.891V674.964V873.85V878.796V883.741H677.731V875.806V873.85V727.931H701.107V727.685H677.731V720.869ZM468.757 666.191H474.131V666.36V675.353V863.638V884.189H388.625V863.638V675.353V666.36V666.191H394.106V658.383H400.234V614.257V612.97V609.143H412.261V594.324H450.504V609.143H462.538V612.97V614.257V658.383H468.757V666.191ZM296.984 731.716H289.448V867.228V874.358V885.273H382.81V874.358V867.228V731.716H373.995V664.126H362.173V621.955H352.78V557.574L352.78 551.875H338.15V500.458H334.823V551.875H318.739V564.466H318.937V621.955H307.648V664.126H296.984V731.716ZM107.109 730.726H99.5733V866.246V873.367V884.291H192.935V873.367V866.246V730.726H184.12V663.135H172.299V620.973H117.774V663.135H107.109V730.726ZM80.132 666.649H85.5137V666.818V675.811V864.087V864.095V884.647H0V864.095V864.087V675.811V666.818V666.649H5.48063V658.833H11.6007V614.715V613.419V609.6H23.6354V594.781H61.8784V609.6H73.9053V613.419V614.715V658.833H80.132V666.649ZM756.995 744.579H749.977V870.776V877.406V887.577H836.914V887.077H923.851V876.916V870.276V744.088H915.645V681.146H904.638V641.88H853.866V681.146H843.932V744.088H836.914V744.579H828.708V681.645H817.701V642.38H808.947L808.947 588.845V577.117H795.337V529.231H792.239V577.117H777.251V588.845H777.433V642.38H766.929V681.645H756.995V744.579ZM1004.2 872.428V628.992V626.723V618.39H935.954V626.723V628.992V872.428V874.164V887.238H1004.2V874.164V872.428ZM1013.73 745.002H1020.75V682.06H1030.68V642.795H1041.19V589.261H1041.01V577.533H1055.99V529.655H1059.09V577.533H1072.7L1072.7 582.85L1072.7 589.261L1072.7 642.795H1081.45V682.06H1092.47V745.002H1100.66V871.2V877.83V888H1013.73V877.83V871.2V745.002Z" fill="#EBEBEB"/>
</g>
<defs>
<clipPath id="clip0">
<rect width="2500" height="960" fill="white"/>
</clipPath>
</defs>
</svg>
