<svg width="2500" height="960" viewBox="0 0 2500 960" fill="none" xmlns="http://www.w3.org/2000/svg">
<g clip-path="url(#clip0)">
<path opacity="0.66" d="M990.806 643.225V617.995H983.006V581.46H948.87V587.355H908.881V612.109H904.006V643.567H890.206V626.631H860.018V612.881H819.009V592.252H807.306V522.705H791.266V461.408H758.201V508.561H739.034V559.246H734.159V621.058H724.404V640.581H701.973V602.072H692.22V567.498H679.542V559.246H617.123V567.498H591.764V586.949H584.937V611.563H575.376V466.714H564.646V456.105H520.757V431.348H485.646V466.714V480.858V506.79H479.796V629.167H429.864V608.608H372.323V487.343H364.52V451.977H350.864V373H327.254V451.977H316.731V472.606H309.903V586.949H289.422V612.663H203.595V433.119H197.742V423.685H150.928V433.119H144.103V612.663H112.892V538.028H108.093V502.666H91.4361V494.414H56.325V502.666H34.8668V522.705H26.0891V586.949H12.4361V594.507H-4.14442V546.28H-5.88798V518.781H-32.2213V542.356H-55.6271V546.28H-58.7612V594.507H-79.0353V643.567H-91.999L-88.3957 968L1007 960.912L1003.4 643.225H990.806Z" fill="#E0E5ED" fill-opacity="0.36"/>
<path opacity="0.66" d="M329.209 686.274V653.278H339.352V605.497H383.74V613.207H435.739V645.58H442.078V686.722H460.022V664.572H499.276V646.589H552.602V619.611H567.819V528.656H588.677V448.49H631.672V510.157H656.596V576.445H662.935V657.283H675.62V682.816H704.787V632.453H717.469V587.237H733.955V576.445H815.123V587.237H848.097V612.675H856.975V644.866H869.407V455.429H883.36V441.554H940.43V409.177H986.086V455.429V473.927V507.842H993.693V667.889V657.54L993.691 560.3V401.706H1003.84V355.455H1021.59V300H1052.29V355.455H1065.98V382.434H1074.86V531.974H1101.49V565.603H1213.09V330.791H1220.7V318.454H1281.58V330.791H1290.45V565.603H1331.04V467.994H1337.28V421.746H1358.94V410.954H1404.59V421.746H1432.49V447.954H1443.91V531.974H1461.66V541.859H1483.22V478.786H1485.49V442.822H1519.73V473.654H1550.17V478.786H1554.24V541.859H1580.6V606.02H1597.46V976H312.836V686.274H329.209Z" fill="#F6F7FB"/>
<path opacity="0.66" d="M1608.69 693.936V670.28H1615.93V636.023H1647.61V641.551H1684.73V664.76H1689.26V694.257H1702.07V678.376H1730.09V665.484H1768.15V646.142H1779.01V580.933H1793.9V523.458H1824.59V567.67H1842.39V615.195H1846.91V673.151H1855.97V691.456H1876.79V655.349H1885.84V622.932H1897.61V615.195H1955.55V622.932H1979.08V641.17H1985.42V664.249H1994.3V528.433H2004.26V518.486H2044.99V495.274H2077.58V528.433V541.696V566.01H2083.01V680.755V673.335L2083.01 603.62V489.917H2090.26V456.758H2102.93V417H2124.85V456.758H2134.61V476.1H2140.95V583.311H2159.96V607.422H2239.63V439.076H2245.06V430.23H2288.51V439.076H2294.85V607.422H2323.82V537.442H2328.27V504.285H2343.73V496.547H2376.32V504.285H2396.24V523.074H2404.39V583.311H2417.06V590.398H2432.45V545.179H2434.07V519.395H2458.51V541.5H2480.24V545.179H2483.15V590.398H2501.97V636.398H2514L2514 965H1597L1597 693.936H1608.69Z" fill="#F8F9FB"/>
</g>
<defs>
<clipPath id="clip0">
<rect width="2500" height="960" fill="white"/>
</clipPath>
</defs>
</svg>
