<svg width="2500" height="960" viewBox="0 0 2500 960" fill="none" xmlns="http://www.w3.org/2000/svg">
<g clip-path="url(#clip0)">
<path d="M1532.08 691.675C1532.18 691.952 1532.28 692.137 1532.38 692.414C1532.18 692.137 1532.18 691.86 1532.08 691.675Z" fill="#DBDBDB" fill-opacity="0.94"/>
<path d="M1540.05 716.729C1540.05 716.544 1539.95 716.359 1539.95 716.082C1540.05 716.359 1540.05 716.544 1540.05 716.729Z" fill="#DBDBDB" fill-opacity="0.94"/>
<path d="M2114.54 655.557L2119.91 649.246L2120.05 650.341L2115.58 655.557L2114.77 655.836L2114.54 655.557Z" fill="#C9C9C9"/>
<path d="M2119.02 655.557L2121.71 652.273L2122.16 653.025L2120.11 655.472L2119.33 655.879L2119.02 655.557Z" fill="#C9C9C9"/>
<path d="M2102.82 650.897L2103.28 650.339L2108.22 655.469L2106.51 655.018L2102.82 650.897Z" fill="#C9C9C9"/>
<path d="M1283.24 794L1280.38 628.95L1454.35 522.744L1483.5 506L1902.65 517.96L1935.63 541.402H1960L1963.35 586.372L2179.38 594.505V794H1283.24Z" fill="white"/>
<path d="M1815.19 502.513L1812.32 499.741C1817.82 493.215 1824.97 495.595 1826.75 496.993C1831.55 500.771 1828.83 504.507 1826.57 506.954C1833.12 509.47 1828.95 514.631 1826.57 516.495C1820.88 520.969 1814.24 517.194 1811.64 514.747L1814.04 510.732L1817.13 512.449C1825.72 513.823 1821.94 509.014 1818.85 509.014L1820.57 504.893C1822.28 505.236 1822.28 504.893 1824 504.206C1825.72 500.084 1818.85 498.71 1815.19 502.513Z" fill="#D6D6D6"/>
<path d="M1733.77 494.122C1735.14 494.94 1738.87 495.023 1738.87 494.119C1738.87 492.986 1739.57 502.733 1736.88 506.8C1736.44 507.467 1735.55 508.579 1734.89 509.247C1735.12 509.8 1740.16 507.315 1742.14 504.817C1744.66 501.647 1747.18 493.949 1744.66 490.553L1749.24 492.59C1749.47 496.892 1748.25 506.571 1741.3 509.469C1742.9 510.299 1746.12 511.519 1746.49 511.157C1746.86 510.794 1744.66 514.553 1744.66 514.553C1744.66 514.553 1741.88 514.043 1740.19 513.421C1738.66 512.856 1736.42 511.609 1736.42 511.609C1736.42 511.609 1734.23 513.421 1731.62 513.421C1730.75 513.421 1730.03 512.584 1730.03 512.584C1730.03 512.584 1729.1 511.61 1729.1 511.157C1732.87 509.042 1734.02 496.994 1733.77 494.122Z" fill="#D6D6D6"/>
<path d="M1696.79 511.419C1705.61 506.106 1701.04 497.955 1698.98 496.307C1696.92 494.658 1694.53 494.999 1693.95 494.933C1693.95 494.589 1693.48 497.337 1693.24 498.368C1693.95 498.368 1695.85 498.899 1696.23 499.398C1698.51 502.754 1695.84 505.679 1693.95 506.611C1691.67 507.729 1690.15 505.715 1689.68 504.55C1687.99 498.368 1692.29 492.087 1695.01 490.223C1695.3 492.18 1698.69 492.903 1700.35 493.019L1703.19 488.063C1700.06 488.902 1698.17 488.198 1698.29 487.033C1698.58 485.635 1701.65 485.097 1703.19 485.329L1704.97 482.183C1700.14 480.505 1695.61 482.882 1693.95 484.28L1692.8 482.911C1691.09 480.115 1691.08 480.164 1690.73 479.477C1690.07 479.758 1687.99 481.881 1687.99 482.183C1688.28 483.425 1690.79 485.449 1691.81 486.379C1687.83 488.895 1685.03 496.13 1684.55 499.741C1683.13 512.605 1692.76 513.283 1696.79 511.419Z" fill="#D6D6D6"/>
<path d="M1703.19 485.33C1705.18 487.287 1702.01 488.709 1700.7 489.175C1700.11 490.223 1699.99 492.461 1699.99 493.02C1705.4 494.138 1708.17 490.922 1708.88 489.175C1710.02 485.539 1706.75 482.883 1704.97 482.184L1703.19 485.33Z" fill="#D6D6D6"/>
<mask id="path-11-outside-1" maskUnits="userSpaceOnUse" x="1506.51" y="456.585" width="59" height="57" fill="black">
<rect fill="white" x="1506.51" y="456.585" width="59" height="57"/>
<path fill-rule="evenodd" clip-rule="evenodd" d="M1538.73 460.777C1539.34 460.837 1539.94 460.918 1540.53 461.02C1540.46 460.999 1540.39 460.979 1540.33 460.959C1540.7 461.039 1541.23 461.008 1541.48 460.464C1541.78 459.797 1542.32 458.663 1542.55 458.179L1544.91 458.777L1544.66 461.267C1544.64 461.507 1544.74 462.03 1545.22 462.312C1545.75 462.517 1546.27 462.739 1546.79 462.978C1547.01 462.96 1547.25 462.858 1547.44 462.605C1547.91 461.992 1548.74 460.955 1549.1 460.514L1551.28 461.656L1550.37 464.14C1550.31 464.339 1550.27 464.753 1550.49 465.114C1551.04 465.502 1551.58 465.911 1552.1 466.341C1552.36 466.47 1552.7 466.507 1553.03 466.266C1553.63 465.836 1554.68 465.119 1555.12 464.814L1556.87 466.494L1555.38 468.524C1555.27 468.689 1555.12 469.06 1555.23 469.454C1555.68 469.994 1556.11 470.553 1556.51 471.13C1556.41 470.944 1556.31 470.766 1556.22 470.598C1556.43 470.91 1556.83 471.256 1557.4 471.037C1558.09 470.767 1559.28 470.328 1559.79 470.142L1561.05 472.196L1559.09 473.797C1558.9 473.969 1558.57 474.457 1558.78 475.032C1558.82 475.127 1558.79 475.114 1558.73 475.017C1558.93 475.468 1559.12 475.926 1559.3 476.391C1559.48 476.586 1559.75 476.723 1560.13 476.667C1560.9 476.554 1562.23 476.385 1562.8 476.315L1563.55 478.633L1561.13 479.782C1560.92 479.896 1560.52 480.236 1560.49 480.747C1560.56 481.171 1560.62 481.599 1560.67 482.03C1560.67 482.014 1560.67 481.999 1560.68 481.984L1560.67 482.052C1560.69 482.218 1560.71 482.386 1560.73 482.553C1560.82 482.839 1561.02 483.111 1561.45 483.177C1562.18 483.291 1563.44 483.51 1563.97 483.606L1563.99 486.005L1561.48 486.402C1561.29 486.44 1560.95 486.587 1560.74 486.9C1560.7 487.305 1560.66 487.707 1560.6 488.107C1560.6 488.106 1560.6 488.105 1560.6 488.104L1560.6 488.108C1560.58 488.288 1560.55 488.467 1560.52 488.646C1560.53 489.001 1560.67 489.401 1561.1 489.581C1561.78 489.871 1562.94 490.391 1563.43 490.615L1562.84 492.944L1560.31 492.711C1560.08 492.701 1559.6 492.788 1559.31 493.186C1559.09 493.764 1558.85 494.332 1558.59 494.888C1558.63 495.09 1558.74 495.291 1558.97 495.461C1559.6 495.92 1560.66 496.726 1561.11 497.072L1559.97 499.228L1557.43 498.357C1557.25 498.303 1556.89 498.271 1556.56 498.418C1556.09 499.084 1555.6 499.727 1555.07 500.343C1555.02 500.688 1555.15 501.005 1555.24 501.159L1556.77 503.331L1554.96 504.985C1554.5 504.648 1553.43 503.855 1552.81 503.381C1552.6 503.224 1552.4 503.167 1552.21 503.172C1551.68 503.614 1551.14 504.035 1550.58 504.432C1550.36 504.787 1550.4 505.185 1550.47 505.375L1551.36 507.717L1549.23 508.89C1548.88 508.481 1548.07 507.521 1547.6 506.952C1547.39 506.689 1547.1 506.607 1546.82 506.615C1546.15 506.927 1545.47 507.209 1544.77 507.462C1544.61 507.717 1544.57 507.998 1544.58 508.156L1544.86 510.644L1542.5 511.259C1542.27 510.777 1541.72 509.647 1541.41 508.982C1541.3 508.728 1541.12 508.587 1540.92 508.518C1540.13 508.667 1539.32 508.779 1538.5 508.852C1538.2 509.065 1538.04 509.396 1538 509.582L1537.51 512.177L1535.04 512.084C1534.96 511.527 1534.77 510.221 1534.68 509.457C1534.65 509.196 1534.54 509.011 1534.39 508.882C1533.7 508.831 1533.02 508.752 1532.35 508.646C1531.94 508.748 1531.68 509.059 1531.58 509.237L1530.53 511.517L1528.18 510.864C1528.23 510.331 1528.35 509.085 1528.43 508.36C1528.47 508.007 1528.32 507.761 1528.13 507.595C1527.41 507.348 1526.71 507.069 1526.02 506.76C1525.74 506.833 1525.53 506.996 1525.43 507.108L1523.83 509.058L1521.72 507.851C1521.9 507.347 1522.33 506.168 1522.59 505.486C1522.68 505.256 1522.67 505.054 1522.61 504.882C1521.88 504.405 1521.19 503.89 1520.52 503.342C1520.21 503.336 1519.94 503.443 1519.8 503.53L1517.61 505.048L1515.91 503.281C1516.25 502.827 1517.04 501.766 1517.52 501.156C1517.65 500.985 1517.71 500.814 1517.73 500.653C1517.23 500.096 1516.76 499.516 1516.32 498.915C1515.99 498.771 1515.64 498.811 1515.47 498.868L1513.09 499.771L1511.88 497.688C1512.29 497.341 1513.26 496.53 1513.84 496.069C1514.09 495.865 1514.18 495.621 1514.17 495.387C1513.67 494.371 1513.23 493.316 1512.88 492.226C1512.61 492.038 1512.3 491.981 1512.13 491.981L1509.45 492.109L1508.97 489.723C1509.51 489.517 1510.76 489.04 1511.49 488.776C1511.72 488.694 1511.87 488.567 1511.97 488.421C1511.86 487.728 1511.79 487.025 1511.74 486.313C1511.54 485.976 1511.2 485.81 1511.01 485.764L1508.51 485.278L1508.62 482.881C1509.16 482.804 1510.42 482.63 1511.15 482.542C1511.48 482.503 1511.71 482.312 1511.85 482.081C1511.93 481.345 1512.05 480.62 1512.2 479.905C1512.06 479.639 1511.84 479.462 1511.7 479.388L1509.41 478.306L1510.12 476.011C1510.66 476.069 1511.93 476.209 1512.66 476.304C1512.94 476.341 1513.16 476.266 1513.32 476.14C1513.62 475.389 1513.95 474.657 1514.31 473.945C1514.29 473.576 1514.09 473.273 1513.95 473.139L1511.96 471.362L1513.35 469.348C1513.87 469.574 1515.1 470.107 1515.81 470.432C1516.06 470.546 1516.28 470.55 1516.47 470.493C1516.87 469.963 1517.29 469.45 1517.73 468.954C1517.88 468.546 1517.74 468.144 1517.63 467.967L1516.22 465.886L1518.02 464.269C1518.46 464.589 1519.47 465.343 1520.06 465.794C1520.37 466.036 1520.69 466.024 1520.95 465.918C1521.51 465.478 1522.09 465.062 1522.69 464.671C1522.79 464.386 1522.76 464.102 1522.72 463.951L1521.88 461.589L1524.03 460.464C1524.37 460.881 1525.17 461.86 1525.62 462.44C1525.78 462.651 1525.98 462.75 1526.18 462.779C1526.94 462.439 1527.73 462.136 1528.54 461.874C1528.73 461.613 1528.78 461.311 1528.78 461.141L1528.63 458.506L1531.05 458.021C1531.26 458.543 1531.76 459.768 1532.04 460.488C1532.12 460.712 1532.25 460.859 1532.4 460.953C1533.08 460.849 1533.76 460.772 1534.44 460.722C1534.69 460.618 1534.9 460.418 1534.97 460.06C1535.09 459.34 1535.32 458.11 1535.42 457.585H1537.86L1538.25 460.06C1538.28 460.24 1538.42 460.565 1538.73 460.777ZM1556.22 470.598L1556.11 470.398C1556.14 470.458 1556.17 470.527 1556.22 470.598ZM1540.33 460.959L1540.11 460.891C1540.17 460.917 1540.24 460.941 1540.33 460.959ZM1520.7 480.456L1526.65 477.526V498.604C1526.65 498.604 1530.7 496.511 1533.42 494.246C1535.43 492.57 1536.73 490.959 1536.73 490.959C1536.73 490.959 1539.5 493.871 1541.14 495.103C1543.97 497.233 1546.87 498.604 1546.87 498.604L1549.08 496.746C1549.08 496.746 1545.62 495.103 1543.27 493.388C1540.92 491.673 1538.34 488.815 1538.34 488.815C1538.34 488.815 1541.65 484.671 1543.12 479.027C1544.59 473.382 1543.93 468.094 1543.93 468.094L1540.99 466.808C1541.48 473.944 1540.03 479.527 1538.93 481.742C1537.83 483.957 1535.48 488.172 1532.98 490.602C1532.17 491.388 1530.17 493.303 1529.89 493.245V472.596L1522.02 476.597L1520.7 480.456ZM1558.08 484.727C1558.08 496.531 1548.35 506.1 1536.34 506.1C1524.33 506.1 1514.59 496.531 1514.59 484.727C1514.59 472.924 1524.33 463.355 1536.34 463.355C1548.35 463.355 1558.08 472.924 1558.08 484.727Z"/>
</mask>
<path fill-rule="evenodd" clip-rule="evenodd" d="M1538.73 460.777C1539.34 460.837 1539.94 460.918 1540.53 461.02C1540.46 460.999 1540.39 460.979 1540.33 460.959C1540.7 461.039 1541.23 461.008 1541.48 460.464C1541.78 459.797 1542.32 458.663 1542.55 458.179L1544.91 458.777L1544.66 461.267C1544.64 461.507 1544.74 462.03 1545.22 462.312C1545.75 462.517 1546.27 462.739 1546.79 462.978C1547.01 462.96 1547.25 462.858 1547.44 462.605C1547.91 461.992 1548.74 460.955 1549.1 460.514L1551.28 461.656L1550.37 464.14C1550.31 464.339 1550.27 464.753 1550.49 465.114C1551.04 465.502 1551.58 465.911 1552.1 466.341C1552.36 466.47 1552.7 466.507 1553.03 466.266C1553.63 465.836 1554.68 465.119 1555.12 464.814L1556.87 466.494L1555.38 468.524C1555.27 468.689 1555.12 469.06 1555.23 469.454C1555.68 469.994 1556.11 470.553 1556.51 471.13C1556.41 470.944 1556.31 470.766 1556.22 470.598C1556.43 470.91 1556.83 471.256 1557.4 471.037C1558.09 470.767 1559.28 470.328 1559.79 470.142L1561.05 472.196L1559.09 473.797C1558.9 473.969 1558.57 474.457 1558.78 475.032C1558.82 475.127 1558.79 475.114 1558.73 475.017C1558.93 475.468 1559.12 475.926 1559.3 476.391C1559.48 476.586 1559.75 476.723 1560.13 476.667C1560.9 476.554 1562.23 476.385 1562.8 476.315L1563.55 478.633L1561.13 479.782C1560.92 479.896 1560.52 480.236 1560.49 480.747C1560.56 481.171 1560.62 481.599 1560.67 482.03C1560.67 482.014 1560.67 481.999 1560.68 481.984L1560.67 482.052C1560.69 482.218 1560.71 482.386 1560.73 482.553C1560.82 482.839 1561.02 483.111 1561.45 483.177C1562.18 483.291 1563.44 483.51 1563.97 483.606L1563.99 486.005L1561.48 486.402C1561.29 486.44 1560.95 486.587 1560.74 486.9C1560.7 487.305 1560.66 487.707 1560.6 488.107C1560.6 488.106 1560.6 488.105 1560.6 488.104L1560.6 488.108C1560.58 488.288 1560.55 488.467 1560.52 488.646C1560.53 489.001 1560.67 489.401 1561.1 489.581C1561.78 489.871 1562.94 490.391 1563.43 490.615L1562.84 492.944L1560.31 492.711C1560.08 492.701 1559.6 492.788 1559.31 493.186C1559.09 493.764 1558.85 494.332 1558.59 494.888C1558.63 495.09 1558.74 495.291 1558.97 495.461C1559.6 495.92 1560.66 496.726 1561.11 497.072L1559.97 499.228L1557.43 498.357C1557.25 498.303 1556.89 498.271 1556.56 498.418C1556.09 499.084 1555.6 499.727 1555.07 500.343C1555.02 500.688 1555.15 501.005 1555.24 501.159L1556.77 503.331L1554.96 504.985C1554.5 504.648 1553.43 503.855 1552.81 503.381C1552.6 503.224 1552.4 503.167 1552.21 503.172C1551.68 503.614 1551.14 504.035 1550.58 504.432C1550.36 504.787 1550.4 505.185 1550.47 505.375L1551.36 507.717L1549.23 508.89C1548.88 508.481 1548.07 507.521 1547.6 506.952C1547.39 506.689 1547.1 506.607 1546.82 506.615C1546.15 506.927 1545.47 507.209 1544.77 507.462C1544.61 507.717 1544.57 507.998 1544.58 508.156L1544.86 510.644L1542.5 511.259C1542.27 510.777 1541.72 509.647 1541.41 508.982C1541.3 508.728 1541.12 508.587 1540.92 508.518C1540.13 508.667 1539.32 508.779 1538.5 508.852C1538.2 509.065 1538.04 509.396 1538 509.582L1537.51 512.177L1535.04 512.084C1534.96 511.527 1534.77 510.221 1534.68 509.457C1534.65 509.196 1534.54 509.011 1534.39 508.882C1533.7 508.831 1533.02 508.752 1532.35 508.646C1531.94 508.748 1531.68 509.059 1531.58 509.237L1530.53 511.517L1528.18 510.864C1528.23 510.331 1528.35 509.085 1528.43 508.36C1528.47 508.007 1528.32 507.761 1528.13 507.595C1527.41 507.348 1526.71 507.069 1526.02 506.76C1525.74 506.833 1525.53 506.996 1525.43 507.108L1523.83 509.058L1521.72 507.851C1521.9 507.347 1522.33 506.168 1522.59 505.486C1522.68 505.256 1522.67 505.054 1522.61 504.882C1521.88 504.405 1521.19 503.89 1520.52 503.342C1520.21 503.336 1519.94 503.443 1519.8 503.53L1517.61 505.048L1515.91 503.281C1516.25 502.827 1517.04 501.766 1517.52 501.156C1517.65 500.985 1517.71 500.814 1517.73 500.653C1517.23 500.096 1516.76 499.516 1516.32 498.915C1515.99 498.771 1515.64 498.811 1515.47 498.868L1513.09 499.771L1511.88 497.688C1512.29 497.341 1513.26 496.53 1513.84 496.069C1514.09 495.865 1514.18 495.621 1514.17 495.387C1513.67 494.371 1513.23 493.316 1512.88 492.226C1512.61 492.038 1512.3 491.981 1512.13 491.981L1509.45 492.109L1508.97 489.723C1509.51 489.517 1510.76 489.04 1511.49 488.776C1511.72 488.694 1511.87 488.567 1511.97 488.421C1511.86 487.728 1511.79 487.025 1511.74 486.313C1511.54 485.976 1511.2 485.81 1511.01 485.764L1508.51 485.278L1508.62 482.881C1509.16 482.804 1510.42 482.63 1511.15 482.542C1511.48 482.503 1511.71 482.312 1511.85 482.081C1511.93 481.345 1512.05 480.62 1512.2 479.905C1512.06 479.639 1511.84 479.462 1511.7 479.388L1509.41 478.306L1510.12 476.011C1510.66 476.069 1511.93 476.209 1512.66 476.304C1512.94 476.341 1513.16 476.266 1513.32 476.14C1513.62 475.389 1513.95 474.657 1514.31 473.945C1514.29 473.576 1514.09 473.273 1513.95 473.139L1511.96 471.362L1513.35 469.348C1513.87 469.574 1515.1 470.107 1515.81 470.432C1516.06 470.546 1516.28 470.55 1516.47 470.493C1516.87 469.963 1517.29 469.45 1517.73 468.954C1517.88 468.546 1517.74 468.144 1517.63 467.967L1516.22 465.886L1518.02 464.269C1518.46 464.589 1519.47 465.343 1520.06 465.794C1520.37 466.036 1520.69 466.024 1520.95 465.918C1521.51 465.478 1522.09 465.062 1522.69 464.671C1522.79 464.386 1522.76 464.102 1522.72 463.951L1521.88 461.589L1524.03 460.464C1524.37 460.881 1525.17 461.86 1525.62 462.44C1525.78 462.651 1525.98 462.75 1526.18 462.779C1526.94 462.439 1527.73 462.136 1528.54 461.874C1528.73 461.613 1528.78 461.311 1528.78 461.141L1528.63 458.506L1531.05 458.021C1531.26 458.543 1531.76 459.768 1532.04 460.488C1532.12 460.712 1532.25 460.859 1532.4 460.953C1533.08 460.849 1533.76 460.772 1534.44 460.722C1534.69 460.618 1534.9 460.418 1534.97 460.06C1535.09 459.34 1535.32 458.11 1535.42 457.585H1537.86L1538.25 460.06C1538.28 460.24 1538.42 460.565 1538.73 460.777ZM1556.22 470.598L1556.11 470.398C1556.14 470.458 1556.17 470.527 1556.22 470.598ZM1540.33 460.959L1540.11 460.891C1540.17 460.917 1540.24 460.941 1540.33 460.959ZM1520.7 480.456L1526.65 477.526V498.604C1526.65 498.604 1530.7 496.511 1533.42 494.246C1535.43 492.57 1536.73 490.959 1536.73 490.959C1536.73 490.959 1539.5 493.871 1541.14 495.103C1543.97 497.233 1546.87 498.604 1546.87 498.604L1549.08 496.746C1549.08 496.746 1545.62 495.103 1543.27 493.388C1540.92 491.673 1538.34 488.815 1538.34 488.815C1538.34 488.815 1541.65 484.671 1543.12 479.027C1544.59 473.382 1543.93 468.094 1543.93 468.094L1540.99 466.808C1541.48 473.944 1540.03 479.527 1538.93 481.742C1537.83 483.957 1535.48 488.172 1532.98 490.602C1532.17 491.388 1530.17 493.303 1529.89 493.245V472.596L1522.02 476.597L1520.7 480.456ZM1558.08 484.727C1558.08 496.531 1548.35 506.1 1536.34 506.1C1524.33 506.1 1514.59 496.531 1514.59 484.727C1514.59 472.924 1524.33 463.355 1536.34 463.355C1548.35 463.355 1558.08 472.924 1558.08 484.727Z" fill="#D6D6D6"/>
<path d="M1540.53 461.02L1540.36 462.006L1540.82 460.063L1540.53 461.02ZM1538.73 460.777L1538.16 461.597L1538.37 461.747L1538.63 461.773L1538.73 460.777ZM1541.48 460.464L1540.57 460.053L1540.57 460.053L1541.48 460.464ZM1542.55 458.179L1542.79 457.21L1542 457.009L1541.65 457.747L1542.55 458.179ZM1544.91 458.777L1545.91 458.88L1546 458.02L1545.16 457.808L1544.91 458.777ZM1544.66 461.267L1543.66 461.164L1543.66 461.188L1543.66 461.212L1544.66 461.267ZM1545.22 462.312L1544.71 463.173L1544.78 463.215L1544.86 463.245L1545.22 462.312ZM1546.79 462.978L1546.36 463.885L1546.6 463.996L1546.87 463.975L1546.79 462.978ZM1547.44 462.605L1546.65 461.995L1546.65 461.995L1547.44 462.605ZM1549.1 460.514L1549.56 459.628L1548.84 459.248L1548.32 459.886L1549.1 460.514ZM1551.28 461.656L1552.22 461.999L1552.52 461.176L1551.75 460.77L1551.28 461.656ZM1550.37 464.14L1549.44 463.797L1549.43 463.818L1549.42 463.84L1550.37 464.14ZM1550.49 465.114L1549.63 465.623L1549.74 465.809L1549.91 465.934L1550.49 465.114ZM1552.1 466.341L1551.46 467.111L1551.55 467.189L1551.66 467.241L1552.1 466.341ZM1553.03 466.266L1552.45 465.453L1552.45 465.453L1553.03 466.266ZM1555.12 464.814L1555.82 464.094L1555.23 463.529L1554.56 463.988L1555.12 464.814ZM1556.87 466.494L1557.67 467.086L1558.19 466.381L1557.56 465.774L1556.87 466.494ZM1555.38 468.524L1554.57 467.932L1554.56 467.951L1554.54 467.97L1555.38 468.524ZM1555.23 469.454L1554.26 469.713L1554.32 469.927L1554.46 470.097L1555.23 469.454ZM1556.51 471.13L1555.7 471.704L1557.39 470.647L1556.51 471.13ZM1557.4 471.037L1557.76 471.968L1557.76 471.968L1557.4 471.037ZM1559.79 470.142L1560.64 469.619L1560.21 468.923L1559.45 469.203L1559.79 470.142ZM1561.05 472.196L1561.68 472.97L1562.36 472.417L1561.9 471.673L1561.05 472.196ZM1559.09 473.797L1558.46 473.023L1558.44 473.037L1558.42 473.053L1559.09 473.797ZM1558.78 475.032L1557.84 475.377L1557.84 475.377L1558.78 475.032ZM1558.73 475.017L1559.55 474.452L1557.82 475.429L1558.73 475.017ZM1559.3 476.391L1558.36 476.745L1558.43 476.927L1558.56 477.07L1559.3 476.391ZM1560.13 476.667L1560.27 477.657L1560.27 477.657L1560.13 476.667ZM1562.8 476.315L1563.75 476.009L1563.5 475.221L1562.68 475.323L1562.8 476.315ZM1563.55 478.633L1563.98 479.536L1564.77 479.16L1564.5 478.327L1563.55 478.633ZM1561.13 479.782L1560.7 478.879L1560.68 478.888L1560.66 478.899L1561.13 479.782ZM1560.49 480.747L1559.49 480.677L1559.48 480.798L1559.5 480.917L1560.49 480.747ZM1560.67 482.03L1559.68 482.146L1561.67 482.123L1560.67 482.03ZM1560.68 481.984L1561.67 482.025L1559.68 481.849L1560.68 481.984ZM1560.67 482.052L1559.67 482.011L1559.67 482.089L1559.68 482.166L1560.67 482.052ZM1560.73 482.553L1559.73 482.647L1559.74 482.754L1559.77 482.856L1560.73 482.553ZM1561.45 483.177L1561.3 484.165L1561.3 484.165L1561.45 483.177ZM1563.97 483.606L1564.97 483.597L1564.96 482.767L1564.15 482.621L1563.97 483.606ZM1563.99 486.005L1564.15 486.993L1565 486.859L1564.99 485.996L1563.99 486.005ZM1561.48 486.402L1561.32 485.414L1561.3 485.417L1561.28 485.422L1561.48 486.402ZM1560.74 486.9L1559.91 486.337L1559.77 486.552L1559.74 486.813L1560.74 486.9ZM1560.6 488.107L1559.61 487.969L1561.53 488.482L1560.6 488.107ZM1560.6 488.104L1561.56 488.395L1559.68 487.722L1560.6 488.104ZM1560.6 488.108L1559.65 487.817L1559.62 487.893L1559.61 487.971L1560.6 488.108ZM1560.52 488.646L1559.53 488.485L1559.52 488.583L1559.52 488.683L1560.52 488.646ZM1561.1 489.581L1560.71 490.501L1560.71 490.501L1561.1 489.581ZM1563.43 490.615L1564.4 490.859L1564.6 490.048L1563.84 489.704L1563.43 490.615ZM1562.84 492.944L1562.75 493.94L1563.61 494.018L1563.81 493.188L1562.84 492.944ZM1560.31 492.711L1560.4 491.715L1560.38 491.713L1560.35 491.712L1560.31 492.711ZM1559.31 493.186L1558.5 492.593L1558.42 492.704L1558.37 492.833L1559.31 493.186ZM1558.59 494.888L1557.69 494.464L1557.55 494.748L1557.61 495.058L1558.59 494.888ZM1558.97 495.461L1558.38 496.268L1558.38 496.268L1558.97 495.461ZM1561.11 497.072L1561.99 497.541L1562.39 496.792L1561.72 496.278L1561.11 497.072ZM1559.97 499.228L1559.64 500.173L1560.45 500.451L1560.85 499.696L1559.97 499.228ZM1557.43 498.357L1557.76 497.411L1557.74 497.404L1557.71 497.398L1557.43 498.357ZM1556.56 498.418L1556.15 497.503L1555.9 497.616L1555.74 497.847L1556.56 498.418ZM1555.07 500.343L1554.31 499.693L1554.11 499.92L1554.08 500.216L1555.07 500.343ZM1555.24 501.159L1554.4 501.696L1554.41 501.715L1554.43 501.733L1555.24 501.159ZM1556.77 503.331L1557.44 504.07L1558.09 503.477L1557.59 502.756L1556.77 503.331ZM1554.96 504.985L1554.37 505.791L1555.03 506.276L1555.63 505.724L1554.96 504.985ZM1552.81 503.381L1553.42 502.588L1553.42 502.588L1552.81 503.381ZM1552.21 503.172L1552.18 502.173L1551.83 502.182L1551.57 502.406L1552.21 503.172ZM1550.58 504.432L1550 503.615L1549.82 503.738L1549.72 503.921L1550.58 504.432ZM1550.47 505.375L1549.52 505.688L1549.52 505.711L1549.53 505.733L1550.47 505.375ZM1551.36 507.717L1551.85 508.593L1552.61 508.172L1552.3 507.359L1551.36 507.717ZM1549.23 508.89L1548.47 509.54L1549 510.159L1549.72 509.766L1549.23 508.89ZM1547.6 506.952L1548.38 506.319L1548.38 506.319L1547.6 506.952ZM1546.82 506.615L1546.79 505.616L1546.58 505.622L1546.39 505.71L1546.82 506.615ZM1544.77 507.462L1544.43 506.522L1544.11 506.638L1543.93 506.925L1544.77 507.462ZM1544.58 508.156L1543.59 508.219L1543.59 508.242L1543.59 508.266L1544.58 508.156ZM1544.86 510.644L1545.11 511.612L1545.95 511.393L1545.86 510.533L1544.86 510.644ZM1542.5 511.259L1541.6 511.698L1541.96 512.433L1542.75 512.227L1542.5 511.259ZM1541.41 508.982L1540.5 509.4L1540.5 509.4L1541.41 508.982ZM1540.92 508.518L1541.25 507.575L1541 507.485L1540.73 507.535L1540.92 508.518ZM1538.5 508.852L1538.42 507.856L1538.15 507.879L1537.94 508.029L1538.5 508.852ZM1538 509.582L1537.02 509.352L1537.02 509.374L1537.02 509.397L1538 509.582ZM1537.51 512.177L1537.47 513.176L1538.33 513.209L1538.49 512.362L1537.51 512.177ZM1535.04 512.084L1534.05 512.229L1534.17 513.052L1535 513.084L1535.04 512.084ZM1534.68 509.457L1533.69 509.579L1533.69 509.579L1534.68 509.457ZM1534.39 508.882L1535.06 508.138L1534.81 507.91L1534.47 507.885L1534.39 508.882ZM1532.35 508.646L1532.5 507.658L1532.3 507.627L1532.11 507.676L1532.35 508.646ZM1531.58 509.237L1530.7 508.775L1530.69 508.797L1530.68 508.818L1531.58 509.237ZM1530.53 511.517L1530.26 512.48L1531.08 512.708L1531.44 511.936L1530.53 511.517ZM1528.18 510.864L1527.19 510.775L1527.11 511.604L1527.92 511.827L1528.18 510.864ZM1528.43 508.36L1527.43 508.248L1527.43 508.248L1528.43 508.36ZM1528.13 507.595L1528.77 506.827L1528.62 506.71L1528.45 506.65L1528.13 507.595ZM1526.02 506.76L1526.43 505.849L1526.11 505.704L1525.77 505.793L1526.02 506.76ZM1525.43 507.108L1524.69 506.439L1524.67 506.457L1524.66 506.475L1525.43 507.108ZM1523.83 509.058L1523.34 509.926L1524.07 510.346L1524.61 509.692L1523.83 509.058ZM1521.72 507.851L1520.78 507.513L1520.5 508.302L1521.23 508.719L1521.72 507.851ZM1522.59 505.486L1521.66 505.126L1521.66 505.126L1522.59 505.486ZM1522.61 504.882L1523.55 504.532L1523.43 504.226L1523.16 504.047L1522.61 504.882ZM1520.52 503.342L1521.15 502.569L1520.88 502.349L1520.54 502.342L1520.52 503.342ZM1519.8 503.53L1519.27 502.683L1519.25 502.694L1519.23 502.707L1519.8 503.53ZM1517.61 505.048L1516.88 505.741L1517.47 506.354L1518.17 505.87L1517.61 505.048ZM1515.91 503.281L1515.11 502.683L1514.6 503.362L1515.19 503.974L1515.91 503.281ZM1517.52 501.156L1518.31 501.772L1518.31 501.772L1517.52 501.156ZM1517.73 500.653L1518.72 500.724L1518.75 500.305L1518.47 499.99L1517.73 500.653ZM1516.32 498.915L1517.13 498.323L1516.97 498.104L1516.72 497.997L1516.32 498.915ZM1515.47 498.868L1515.16 497.918L1515.14 497.925L1515.11 497.933L1515.47 498.868ZM1513.09 499.771L1512.23 500.274L1512.66 501.007L1513.45 500.706L1513.09 499.771ZM1511.88 497.688L1511.24 496.923L1510.59 497.464L1511.02 498.191L1511.88 497.688ZM1513.84 496.069L1514.47 496.849L1514.47 496.849L1513.84 496.069ZM1514.17 495.387L1515.17 495.368L1515.17 495.143L1515.07 494.942L1514.17 495.387ZM1512.88 492.226L1513.83 491.914L1513.72 491.602L1513.46 491.411L1512.88 492.226ZM1512.13 491.981L1512.13 490.981L1512.1 490.982L1512.08 490.983L1512.13 491.981ZM1509.45 492.109L1508.47 492.303L1508.63 493.148L1509.49 493.107L1509.45 492.109ZM1508.97 489.723L1508.61 488.79L1507.83 489.092L1507.99 489.917L1508.97 489.723ZM1511.49 488.776L1511.83 489.717L1511.83 489.717L1511.49 488.776ZM1511.97 488.421L1512.8 488.973L1513.01 488.652L1512.96 488.27L1511.97 488.421ZM1511.74 486.313L1512.74 486.251L1512.72 486.011L1512.6 485.804L1511.74 486.313ZM1511.01 485.764L1511.24 484.792L1511.22 484.786L1511.2 484.782L1511.01 485.764ZM1508.51 485.278L1507.51 485.232L1507.47 486.095L1508.32 486.26L1508.51 485.278ZM1508.62 482.881L1508.48 481.891L1507.66 482.007L1507.62 482.835L1508.62 482.881ZM1511.15 482.542L1511.04 481.549L1511.04 481.549L1511.15 482.542ZM1511.85 482.081L1512.7 482.603L1512.82 482.415L1512.84 482.195L1511.85 482.081ZM1512.2 479.905L1513.18 480.11L1513.25 479.766L1513.09 479.452L1512.2 479.905ZM1511.7 479.388L1512.17 478.504L1512.15 478.493L1512.13 478.484L1511.7 479.388ZM1509.41 478.306L1508.45 478.009L1508.19 478.84L1508.98 479.211L1509.41 478.306ZM1510.12 476.011L1510.23 475.017L1509.41 474.93L1509.17 475.715L1510.12 476.011ZM1512.66 476.304L1512.79 475.313L1512.79 475.313L1512.66 476.304ZM1513.32 476.14L1513.93 476.931L1514.15 476.762L1514.25 476.504L1513.32 476.14ZM1514.31 473.945L1515.2 474.402L1515.33 474.159L1515.31 473.887L1514.31 473.945ZM1513.95 473.139L1514.65 472.424L1514.63 472.408L1514.61 472.393L1513.95 473.139ZM1511.96 471.362L1511.14 470.796L1510.64 471.521L1511.3 472.108L1511.96 471.362ZM1513.35 469.348L1513.74 468.43L1512.99 468.104L1512.52 468.782L1513.35 469.348ZM1515.81 470.432L1516.22 469.522L1516.22 469.522L1515.81 470.432ZM1516.47 470.493L1516.76 471.451L1517.07 471.357L1517.27 471.093L1516.47 470.493ZM1517.73 468.954L1518.48 469.617L1518.6 469.475L1518.67 469.297L1517.73 468.954ZM1517.63 467.967L1518.48 467.445L1518.47 467.424L1518.46 467.405L1517.63 467.967ZM1516.22 465.886L1515.55 465.141L1514.9 465.725L1515.39 466.448L1516.22 465.886ZM1518.02 464.269L1518.61 463.464L1517.96 462.981L1517.35 463.524L1518.02 464.269ZM1520.06 465.794L1519.44 466.585L1519.44 466.585L1520.06 465.794ZM1520.95 465.918L1521.32 466.847L1521.46 466.793L1521.57 466.705L1520.95 465.918ZM1522.69 464.671L1523.24 465.509L1523.52 465.324L1523.64 465.004L1522.69 464.671ZM1522.72 463.951L1523.68 463.66L1523.67 463.637L1523.66 463.614L1522.72 463.951ZM1521.88 461.589L1521.41 460.702L1520.64 461.104L1520.93 461.925L1521.88 461.589ZM1524.03 460.464L1524.81 459.832L1524.29 459.201L1523.57 459.577L1524.03 460.464ZM1525.62 462.44L1526.41 461.826L1526.41 461.826L1525.62 462.44ZM1526.18 462.779L1526.03 463.768L1526.32 463.81L1526.58 463.693L1526.18 462.779ZM1528.54 461.874L1528.85 462.825L1529.16 462.723L1529.35 462.457L1528.54 461.874ZM1528.78 461.141L1529.78 461.129L1529.78 461.106L1529.78 461.083L1528.78 461.141ZM1528.63 458.506L1528.43 457.526L1527.58 457.697L1527.63 458.564L1528.63 458.506ZM1531.05 458.021L1531.98 457.642L1531.66 456.878L1530.85 457.04L1531.05 458.021ZM1532.04 460.488L1532.97 460.131L1532.97 460.131L1532.04 460.488ZM1532.4 460.953L1531.87 461.802L1532.19 461.998L1532.56 461.941L1532.4 460.953ZM1534.44 460.722L1534.52 461.72L1534.68 461.708L1534.84 461.642L1534.44 460.722ZM1534.97 460.06L1535.95 460.227L1535.95 460.227L1534.97 460.06ZM1535.42 457.585V456.585H1534.6L1534.44 457.395L1535.42 457.585ZM1537.86 457.585L1538.85 457.433L1538.72 456.585H1537.86V457.585ZM1538.25 460.06L1537.26 460.212L1537.26 460.236L1537.27 460.259L1538.25 460.06ZM1556.11 470.398L1556.99 469.917L1555.19 470.794L1556.11 470.398ZM1540.11 460.891L1540.4 459.935L1539.73 461.817L1540.11 460.891ZM1526.65 477.526H1527.65V475.92L1526.21 476.629L1526.65 477.526ZM1520.7 480.456L1519.75 480.131L1518.96 482.422L1521.14 481.353L1520.7 480.456ZM1526.65 498.604H1525.65V500.247L1527.11 499.492L1526.65 498.604ZM1533.42 494.246L1534.06 495.014L1534.06 495.014L1533.42 494.246ZM1536.73 490.959L1537.45 490.269L1536.66 489.444L1535.95 490.331L1536.73 490.959ZM1541.14 495.103L1541.74 494.304L1541.74 494.304L1541.14 495.103ZM1546.87 498.604L1546.45 499.509L1547.03 499.782L1547.52 499.369L1546.87 498.604ZM1549.08 496.746L1549.72 497.511L1550.91 496.511L1549.51 495.843L1549.08 496.746ZM1543.27 493.388L1542.68 494.196L1542.68 494.196L1543.27 493.388ZM1538.34 488.815L1537.56 488.191L1537.03 488.854L1537.6 489.485L1538.34 488.815ZM1543.12 479.027L1542.16 478.774L1542.16 478.774L1543.12 479.027ZM1543.93 468.094L1544.92 467.97L1544.85 467.406L1544.33 467.178L1543.93 468.094ZM1540.99 466.808L1541.39 465.892L1539.88 465.231L1539.99 466.877L1540.99 466.808ZM1538.93 481.742L1538.04 481.296L1538.04 481.296L1538.93 481.742ZM1532.98 490.602L1533.67 491.319L1533.67 491.319L1532.98 490.602ZM1529.89 493.245H1528.89V494.064L1529.69 494.226L1529.89 493.245ZM1529.89 472.596H1530.89V470.965L1529.43 471.705L1529.89 472.596ZM1522.02 476.597L1521.57 475.706L1521.21 475.889L1521.07 476.273L1522.02 476.597ZM1540.7 460.034C1540.08 459.928 1539.46 459.844 1538.83 459.782L1538.63 461.773C1539.21 461.83 1539.79 461.908 1540.36 462.006L1540.7 460.034ZM1540.04 461.916C1540.1 461.936 1540.17 461.956 1540.24 461.977L1540.82 460.063C1540.75 460.042 1540.68 460.022 1540.62 460.002L1540.04 461.916ZM1540.57 460.053C1540.56 460.06 1540.56 460.059 1540.57 460.052C1540.57 460.045 1540.58 460.035 1540.59 460.025C1540.62 460.004 1540.64 459.994 1540.65 459.991C1540.66 459.989 1540.65 459.992 1540.63 459.992C1540.6 459.992 1540.57 459.989 1540.54 459.982L1540.12 461.936C1540.41 461.999 1540.82 462.034 1541.25 461.9C1541.71 461.755 1542.14 461.424 1542.39 460.875L1540.57 460.053ZM1541.65 457.747C1541.42 458.231 1540.87 459.374 1540.57 460.053L1542.39 460.875C1542.69 460.219 1543.22 459.095 1543.45 458.611L1541.65 457.747ZM1545.16 457.808L1542.79 457.21L1542.3 459.149L1544.67 459.747L1545.16 457.808ZM1545.65 461.37L1545.91 458.88L1543.92 458.674L1543.66 461.164L1545.65 461.37ZM1545.73 461.451C1545.71 461.443 1545.71 461.435 1545.7 461.427C1545.69 461.418 1545.68 461.405 1545.67 461.385C1545.67 461.364 1545.66 461.343 1545.66 461.324C1545.65 461.303 1545.66 461.3 1545.65 461.322L1543.66 461.212C1543.63 461.671 1543.8 462.633 1544.71 463.173L1545.73 461.451ZM1547.21 462.072C1546.67 461.823 1546.13 461.592 1545.58 461.379L1544.86 463.245C1545.37 463.442 1545.87 463.655 1546.36 463.885L1547.21 462.072ZM1546.87 463.975C1547.37 463.935 1547.86 463.699 1548.23 463.215L1546.65 461.995C1546.64 462.007 1546.64 462.011 1546.64 462.009C1546.64 462.008 1546.64 462.003 1546.65 461.998C1546.66 461.993 1546.67 461.988 1546.68 461.986C1546.69 461.983 1546.7 461.982 1546.71 461.982L1546.87 463.975ZM1548.23 463.215C1548.7 462.612 1549.52 461.583 1549.88 461.142L1548.32 459.886C1547.96 460.328 1547.13 461.372 1546.65 461.995L1548.23 463.215ZM1548.64 461.4L1550.82 462.542L1551.75 460.77L1549.56 459.628L1548.64 461.4ZM1550.34 461.313L1549.44 463.797L1551.31 464.483L1552.22 461.999L1550.34 461.313ZM1549.42 463.84C1549.3 464.219 1549.23 464.946 1549.63 465.623L1551.35 464.606C1551.34 464.592 1551.33 464.563 1551.33 464.513C1551.32 464.489 1551.33 464.467 1551.33 464.449C1551.33 464.43 1551.33 464.426 1551.33 464.44L1549.42 463.84ZM1552.74 465.572C1552.2 465.124 1551.64 464.698 1551.06 464.295L1549.91 465.934C1550.45 466.305 1550.96 466.698 1551.46 467.111L1552.74 465.572ZM1552.45 465.453C1552.44 465.46 1552.44 465.457 1552.46 465.452C1552.47 465.447 1552.49 465.443 1552.51 465.443C1552.54 465.442 1552.56 465.452 1552.53 465.441L1551.66 467.241C1552.18 467.491 1552.91 467.581 1553.62 467.079L1552.45 465.453ZM1554.56 463.988C1554.11 464.293 1553.06 465.016 1552.45 465.453L1553.62 467.079C1554.2 466.656 1555.24 465.945 1555.69 465.64L1554.56 463.988ZM1557.56 465.774L1555.82 464.094L1554.43 465.534L1556.17 467.214L1557.56 465.774ZM1556.18 469.115L1557.67 467.086L1556.06 465.902L1554.57 467.932L1556.18 469.115ZM1556.19 469.195C1556.19 469.184 1556.19 469.16 1556.2 469.121C1556.2 469.102 1556.21 469.085 1556.21 469.074C1556.22 469.06 1556.22 469.061 1556.21 469.077L1554.54 467.97C1554.32 468.301 1554.06 468.966 1554.26 469.713L1556.19 469.195ZM1557.33 470.557C1556.91 469.955 1556.47 469.373 1555.99 468.811L1554.46 470.097C1554.9 470.614 1555.31 471.15 1555.7 471.704L1557.33 470.557ZM1557.39 470.647C1557.29 470.462 1557.19 470.284 1557.1 470.117L1555.35 471.08C1555.44 471.248 1555.54 471.427 1555.64 471.613L1557.39 470.647ZM1555.39 471.151C1555.55 471.401 1555.83 471.712 1556.23 471.912C1556.67 472.13 1557.2 472.186 1557.76 471.968L1557.03 470.105C1557.02 470.109 1557.02 470.109 1557.03 470.108C1557.03 470.107 1557.04 470.106 1557.06 470.106C1557.07 470.107 1557.08 470.109 1557.1 470.112C1557.11 470.116 1557.12 470.119 1557.12 470.121C1557.13 470.125 1557.12 470.124 1557.11 470.108C1557.09 470.093 1557.07 470.071 1557.05 470.045L1555.39 471.151ZM1557.76 471.968C1558.44 471.703 1559.62 471.268 1560.13 471.082L1559.45 469.203C1558.94 469.389 1557.73 469.831 1557.03 470.105L1557.76 471.968ZM1558.94 470.666L1560.2 472.72L1561.9 471.673L1560.64 469.619L1558.94 470.666ZM1560.42 471.422L1558.46 473.023L1559.73 474.571L1561.68 472.97L1560.42 471.422ZM1558.42 473.053C1558.07 473.368 1557.43 474.262 1557.84 475.377L1559.72 474.688C1559.71 474.669 1559.71 474.659 1559.71 474.653C1559.71 474.645 1559.72 474.632 1559.72 474.611C1559.73 474.59 1559.74 474.569 1559.76 474.55C1559.77 474.529 1559.78 474.527 1559.76 474.54L1558.42 473.053ZM1557.84 475.377C1557.84 475.377 1557.84 475.374 1557.84 475.371C1557.84 475.368 1557.84 475.362 1557.84 475.353C1557.83 475.343 1557.82 475.303 1557.81 475.248C1557.81 475.22 1557.8 475.168 1557.8 475.102C1557.8 475.048 1557.8 474.914 1557.86 474.754C1557.92 474.579 1558.08 474.301 1558.43 474.165C1558.75 474.04 1559.03 474.117 1559.14 474.16C1559.35 474.238 1559.48 474.369 1559.48 474.373C1559.52 474.407 1559.54 474.435 1559.55 474.443C1559.56 474.461 1559.56 474.468 1559.55 474.452L1557.9 475.582C1557.93 475.615 1557.96 475.66 1557.99 475.704C1558.01 475.726 1558.04 475.764 1558.09 475.805C1558.1 475.817 1558.23 475.953 1558.44 476.033C1558.56 476.077 1558.84 476.154 1559.16 476.029C1559.51 475.892 1559.67 475.612 1559.74 475.435C1559.8 475.273 1559.8 475.136 1559.8 475.078C1559.8 475.009 1559.79 474.953 1559.78 474.919C1559.77 474.808 1559.73 474.715 1559.72 474.688L1557.84 475.377ZM1560.23 476.037C1560.05 475.553 1559.85 475.075 1559.64 474.606L1557.82 475.429C1558.01 475.861 1558.19 476.299 1558.36 476.745L1560.23 476.037ZM1559.98 475.678C1559.96 475.681 1559.96 475.68 1559.96 475.68C1559.97 475.68 1559.98 475.682 1559.99 475.687C1560 475.692 1560.01 475.698 1560.02 475.704C1560.03 475.709 1560.03 475.712 1560.03 475.711L1558.56 477.07C1558.95 477.485 1559.54 477.765 1560.27 477.657L1559.98 475.678ZM1562.68 475.323C1562.11 475.393 1560.77 475.563 1559.98 475.678L1560.27 477.657C1561.04 477.546 1562.36 477.378 1562.93 477.308L1562.68 475.323ZM1564.5 478.327L1563.75 476.009L1561.85 476.621L1562.6 478.939L1564.5 478.327ZM1561.56 480.685L1563.98 479.536L1563.12 477.73L1560.7 478.879L1561.56 480.685ZM1561.48 480.818C1561.48 480.809 1561.49 480.783 1561.52 480.738C1561.54 480.716 1561.56 480.696 1561.58 480.68C1561.6 480.663 1561.61 480.659 1561.6 480.665L1560.66 478.899C1560.28 479.1 1559.56 479.688 1559.49 480.677L1561.48 480.818ZM1561.66 481.914C1561.61 481.465 1561.55 481.02 1561.47 480.578L1559.5 480.917C1559.57 481.323 1559.63 481.733 1559.68 482.146L1561.66 481.914ZM1559.68 481.849C1559.68 481.878 1559.68 481.907 1559.67 481.937L1561.67 482.123C1561.67 482.121 1561.67 482.119 1561.67 482.119L1559.68 481.849ZM1561.67 482.093L1561.67 482.025L1559.68 481.943L1559.67 482.011L1561.67 482.093ZM1561.72 482.46C1561.7 482.285 1561.69 482.111 1561.67 481.937L1559.68 482.166C1559.7 482.326 1559.71 482.486 1559.73 482.647L1561.72 482.46ZM1559.77 482.856C1559.95 483.414 1560.41 484.028 1561.3 484.165L1561.6 482.189C1561.59 482.187 1561.59 482.185 1561.61 482.193C1561.62 482.2 1561.64 482.212 1561.65 482.227C1561.68 482.256 1561.69 482.274 1561.68 482.25L1559.77 482.856ZM1561.3 484.165C1562.02 484.277 1563.26 484.495 1563.79 484.59L1564.15 482.621C1563.61 482.526 1562.35 482.305 1561.6 482.189L1561.3 484.165ZM1562.97 483.614L1562.99 486.014L1564.99 485.996L1564.97 483.597L1562.97 483.614ZM1563.84 485.017L1561.32 485.414L1561.63 487.389L1564.15 486.993L1563.84 485.017ZM1561.28 485.422C1560.91 485.498 1560.31 485.756 1559.91 486.337L1561.57 487.463C1561.57 487.449 1561.6 487.428 1561.63 487.405C1561.65 487.395 1561.67 487.387 1561.68 487.382C1561.69 487.377 1561.69 487.378 1561.68 487.381L1561.28 485.422ZM1561.59 488.245C1561.65 487.828 1561.7 487.409 1561.74 486.987L1559.74 486.813C1559.71 487.201 1559.67 487.586 1559.61 487.969L1561.59 488.245ZM1559.68 487.722C1559.68 487.726 1559.68 487.73 1559.68 487.731L1561.53 488.482C1561.53 488.482 1561.53 488.484 1561.53 488.486L1559.68 487.722ZM1561.56 488.4L1561.56 488.395L1559.65 487.813L1559.65 487.817L1561.56 488.4ZM1561.51 488.806C1561.54 488.62 1561.57 488.434 1561.59 488.246L1559.61 487.971C1559.59 488.143 1559.56 488.314 1559.53 488.485L1561.51 488.806ZM1559.52 488.683C1559.54 489.237 1559.78 490.107 1560.71 490.501L1561.49 488.661C1561.49 488.661 1561.49 488.662 1561.5 488.665C1561.5 488.669 1561.51 488.674 1561.51 488.679C1561.53 488.692 1561.53 488.703 1561.54 488.706C1561.54 488.709 1561.53 488.702 1561.53 488.684C1561.53 488.666 1561.52 488.64 1561.52 488.609L1559.52 488.683ZM1560.71 490.501C1561.38 490.786 1562.52 491.302 1563.02 491.526L1563.84 489.704C1563.35 489.48 1562.18 488.956 1561.49 488.661L1560.71 490.501ZM1562.46 490.371L1561.87 492.7L1563.81 493.188L1564.4 490.859L1562.46 490.371ZM1562.94 491.948L1560.4 491.715L1560.22 493.707L1562.75 493.94L1562.94 491.948ZM1560.35 491.712C1559.93 491.693 1559.06 491.834 1558.5 492.593L1560.12 493.779C1560.12 493.767 1560.14 493.748 1560.19 493.73C1560.21 493.722 1560.24 493.716 1560.26 493.713C1560.28 493.709 1560.28 493.711 1560.26 493.71L1560.35 491.712ZM1559.5 495.312C1559.77 494.732 1560.02 494.141 1560.25 493.538L1558.37 492.833C1558.17 493.387 1557.94 493.931 1557.69 494.464L1559.5 495.312ZM1559.56 494.653C1559.54 494.637 1559.54 494.636 1559.55 494.655C1559.56 494.664 1559.56 494.675 1559.57 494.687C1559.57 494.699 1559.58 494.709 1559.58 494.718L1557.61 495.058C1557.69 495.522 1557.94 495.95 1558.38 496.268L1559.56 494.653ZM1561.72 496.278C1561.27 495.932 1560.2 495.12 1559.56 494.653L1558.38 496.268C1559 496.72 1560.05 497.521 1560.5 497.866L1561.72 496.278ZM1560.85 499.696L1561.99 497.541L1560.23 496.604L1559.08 498.759L1560.85 499.696ZM1557.11 499.303L1559.64 500.173L1560.29 498.282L1557.76 497.411L1557.11 499.303ZM1556.96 499.334C1556.98 499.323 1557.02 499.313 1557.07 499.312C1557.1 499.311 1557.12 499.313 1557.14 499.315C1557.16 499.317 1557.16 499.319 1557.15 499.316L1557.71 497.398C1557.36 497.295 1556.76 497.238 1556.15 497.503L1556.96 499.334ZM1555.83 500.993C1556.38 500.352 1556.89 499.683 1557.38 498.989L1555.74 497.847C1555.29 498.486 1554.81 499.102 1554.31 499.693L1555.83 500.993ZM1556.09 500.622C1556.09 500.632 1556.09 500.631 1556.09 500.617C1556.08 500.605 1556.08 500.587 1556.07 500.567C1556.06 500.525 1556.06 500.491 1556.06 500.47L1554.08 500.216C1554 500.844 1554.21 501.393 1554.4 501.696L1556.09 500.622ZM1557.59 502.756L1556.06 500.584L1554.43 501.733L1555.95 503.906L1557.59 502.756ZM1555.63 505.724L1557.44 504.07L1556.1 502.592L1554.28 504.246L1555.63 505.724ZM1552.2 504.174C1552.83 504.656 1553.91 505.454 1554.37 505.791L1555.55 504.179C1555.09 503.842 1554.03 503.055 1553.42 502.588L1552.2 504.174ZM1552.24 504.172C1552.23 504.172 1552.22 504.172 1552.21 504.171C1552.2 504.169 1552.2 504.167 1552.19 504.165C1552.18 504.163 1552.18 504.162 1552.18 504.162C1552.18 504.163 1552.19 504.166 1552.2 504.174L1553.42 502.588C1553.04 502.295 1552.61 502.161 1552.18 502.173L1552.24 504.172ZM1551.15 505.249C1551.74 504.836 1552.31 504.398 1552.85 503.938L1551.57 502.406C1551.06 502.83 1550.54 503.234 1550 503.615L1551.15 505.249ZM1549.72 503.921C1549.32 504.591 1549.39 505.307 1549.52 505.688L1551.42 505.062C1551.42 505.08 1551.42 505.081 1551.42 505.067C1551.42 505.054 1551.42 505.037 1551.42 505.018C1551.42 504.978 1551.43 504.955 1551.43 504.944L1549.72 503.921ZM1549.53 505.733L1550.43 508.075L1552.3 507.359L1551.4 505.017L1549.53 505.733ZM1550.88 506.841L1548.75 508.014L1549.72 509.766L1551.85 508.593L1550.88 506.841ZM1549.99 508.24C1549.64 507.831 1548.83 506.879 1548.38 506.319L1546.83 507.584C1547.3 508.163 1548.12 509.131 1548.47 509.54L1549.99 508.24ZM1548.38 506.319C1547.92 505.753 1547.29 505.6 1546.79 505.616L1546.85 507.615C1546.88 507.614 1546.89 507.619 1546.87 507.614C1546.87 507.611 1546.86 507.606 1546.85 507.599C1546.84 507.592 1546.83 507.585 1546.83 507.584L1548.38 506.319ZM1545.12 508.402C1545.84 508.139 1546.55 507.845 1547.24 507.521L1546.39 505.71C1545.75 506.008 1545.1 506.28 1544.43 506.522L1545.12 508.402ZM1543.93 506.925C1543.64 507.384 1543.57 507.883 1543.59 508.219L1545.58 508.093C1545.58 508.109 1545.58 508.113 1545.58 508.105C1545.58 508.099 1545.59 508.087 1545.59 508.073C1545.6 508.043 1545.61 508.017 1545.62 508L1543.93 506.925ZM1543.59 508.266L1543.87 510.754L1545.86 510.533L1545.58 508.045L1543.59 508.266ZM1544.61 509.676L1542.25 510.291L1542.75 512.227L1545.11 511.612L1544.61 509.676ZM1543.4 510.82C1543.16 510.338 1542.62 509.218 1542.32 508.565L1540.5 509.4C1540.82 510.077 1541.37 511.216 1541.6 511.698L1543.4 510.82ZM1542.32 508.565C1542.09 508.055 1541.69 507.731 1541.25 507.575L1540.59 509.46C1540.57 509.456 1540.55 509.444 1540.53 509.424C1540.5 509.403 1540.5 509.389 1540.5 509.4L1542.32 508.565ZM1538.59 509.848C1539.44 509.772 1540.28 509.656 1541.11 509.5L1540.73 507.535C1539.97 507.678 1539.2 507.786 1538.42 507.856L1538.59 509.848ZM1538.97 509.811C1538.97 509.824 1538.97 509.821 1538.97 509.806C1538.98 509.792 1538.99 509.774 1539 509.755C1539.03 509.714 1539.05 509.688 1539.07 509.674L1537.94 508.029C1537.38 508.416 1537.11 508.988 1537.02 509.352L1538.97 509.811ZM1538.49 512.362L1538.98 509.766L1537.02 509.397L1536.53 511.992L1538.49 512.362ZM1535 513.084L1537.47 513.176L1537.55 511.178L1535.08 511.085L1535 513.084ZM1533.69 509.579C1533.78 510.356 1533.97 511.671 1534.05 512.229L1536.03 511.94C1535.95 511.382 1535.76 510.086 1535.67 509.335L1533.69 509.579ZM1533.73 509.626C1533.72 509.621 1533.71 509.614 1533.71 509.605C1533.7 509.596 1533.69 509.587 1533.69 509.579C1533.68 509.561 1533.68 509.558 1533.69 509.579L1535.67 509.335C1535.61 508.839 1535.39 508.432 1535.06 508.138L1533.73 509.626ZM1532.19 509.634C1532.89 509.744 1533.6 509.826 1534.32 509.879L1534.47 507.885C1533.8 507.836 1533.15 507.76 1532.5 507.658L1532.19 509.634ZM1532.11 507.676C1531.35 507.865 1530.88 508.418 1530.7 508.775L1532.47 509.699C1532.46 509.716 1532.46 509.715 1532.47 509.703C1532.48 509.692 1532.49 509.678 1532.51 509.664C1532.54 509.635 1532.57 509.621 1532.59 509.616L1532.11 507.676ZM1530.68 508.818L1529.62 511.097L1531.44 511.936L1532.49 509.656L1530.68 508.818ZM1530.8 510.553L1528.45 509.9L1527.92 511.827L1530.26 512.48L1530.8 510.553ZM1529.18 510.952C1529.23 510.42 1529.34 509.184 1529.42 508.472L1527.43 508.248C1527.35 508.986 1527.23 510.243 1527.19 510.775L1529.18 510.952ZM1529.42 508.472C1529.5 507.737 1529.18 507.175 1528.77 506.827L1527.49 508.364C1527.49 508.366 1527.47 508.35 1527.45 508.311C1527.44 508.292 1527.44 508.273 1527.44 508.259C1527.43 508.244 1527.43 508.24 1527.43 508.248L1529.42 508.472ZM1525.61 507.672C1526.32 507.993 1527.05 508.284 1527.8 508.541L1528.45 506.65C1527.76 506.413 1527.09 506.145 1526.43 505.849L1525.61 507.672ZM1526.17 507.778C1526.16 507.789 1526.16 507.79 1526.17 507.785C1526.17 507.78 1526.18 507.773 1526.19 507.765C1526.22 507.748 1526.25 507.735 1526.28 507.728L1525.77 505.793C1525.28 505.921 1524.9 506.199 1524.69 506.439L1526.17 507.778ZM1524.61 509.692L1526.2 507.742L1524.66 506.475L1523.06 508.425L1524.61 509.692ZM1521.23 508.719L1523.34 509.926L1524.33 508.19L1522.22 506.983L1521.23 508.719ZM1521.66 505.126C1521.39 505.821 1520.96 507.009 1520.78 507.513L1522.66 508.189C1522.84 507.684 1523.27 506.516 1523.53 505.845L1521.66 505.126ZM1521.67 505.232C1521.66 505.211 1521.66 505.183 1521.66 505.155C1521.66 505.127 1521.66 505.116 1521.66 505.126L1523.53 505.845C1523.7 505.39 1523.7 504.935 1523.55 504.532L1521.67 505.232ZM1519.88 504.115C1520.58 504.686 1521.3 505.221 1522.06 505.717L1523.16 504.047C1522.46 503.589 1521.79 503.095 1521.15 502.569L1519.88 504.115ZM1520.54 502.342C1520.01 502.331 1519.55 502.509 1519.27 502.683L1520.33 504.378C1520.32 504.383 1520.33 504.381 1520.34 504.376C1520.35 504.371 1520.37 504.365 1520.38 504.359C1520.43 504.347 1520.46 504.341 1520.5 504.342L1520.54 502.342ZM1519.23 502.707L1517.04 504.225L1518.17 505.87L1520.37 504.353L1519.23 502.707ZM1518.33 504.355L1516.63 502.588L1515.19 503.974L1516.88 505.741L1518.33 504.355ZM1516.71 503.879C1517.05 503.425 1517.84 502.372 1518.31 501.772L1516.73 500.54C1516.25 501.16 1515.44 502.229 1515.11 502.683L1516.71 503.879ZM1518.31 501.772C1518.56 501.455 1518.7 501.097 1518.72 500.724L1516.73 500.583C1516.73 500.562 1516.73 500.545 1516.74 500.533C1516.74 500.521 1516.74 500.524 1516.73 500.54L1518.31 501.772ZM1515.52 499.507C1515.98 500.132 1516.46 500.736 1516.98 501.316L1518.47 499.99C1518 499.455 1517.55 498.899 1517.13 498.323L1515.52 499.507ZM1516.72 497.997C1516.11 497.735 1515.51 497.803 1515.16 497.918L1515.78 499.818C1515.77 499.823 1515.77 499.822 1515.78 499.82C1515.79 499.818 1515.81 499.816 1515.83 499.816C1515.87 499.816 1515.91 499.824 1515.93 499.833L1516.72 497.997ZM1515.11 497.933L1512.74 498.836L1513.45 500.706L1515.82 499.803L1515.11 497.933ZM1513.96 499.268L1512.75 497.185L1511.02 498.191L1512.23 500.274L1513.96 499.268ZM1512.53 498.453C1512.94 498.106 1513.9 497.302 1514.47 496.849L1513.21 495.289C1512.63 495.759 1511.65 496.575 1511.24 496.923L1512.53 498.453ZM1514.47 496.849C1514.98 496.438 1515.18 495.889 1515.17 495.368L1513.17 495.406C1513.17 495.395 1513.17 495.365 1513.19 495.329C1513.2 495.312 1513.21 495.299 1513.21 495.291C1513.22 495.283 1513.22 495.283 1513.21 495.289L1514.47 496.849ZM1511.93 492.538C1512.3 493.674 1512.75 494.774 1513.28 495.832L1515.07 494.942C1514.58 493.969 1514.17 492.958 1513.83 491.914L1511.93 492.538ZM1513.46 491.411C1512.99 491.079 1512.47 490.98 1512.13 490.981L1512.13 492.981C1512.12 492.981 1512.13 492.981 1512.14 492.983C1512.15 492.985 1512.17 492.989 1512.19 492.995C1512.24 493.007 1512.27 493.025 1512.3 493.041L1513.46 491.411ZM1512.08 490.983L1509.4 491.11L1509.49 493.107L1512.18 492.98L1512.08 490.983ZM1510.43 491.914L1509.95 489.528L1507.99 489.917L1508.47 492.303L1510.43 491.914ZM1509.33 490.656C1509.87 490.451 1511.11 489.977 1511.83 489.717L1511.15 487.835C1510.41 488.104 1509.15 488.584 1508.61 488.79L1509.33 490.656ZM1511.83 489.717C1512.25 489.567 1512.58 489.31 1512.8 488.973L1511.13 487.868C1511.14 487.861 1511.14 487.853 1511.15 487.846C1511.16 487.839 1511.16 487.834 1511.17 487.83C1511.18 487.822 1511.18 487.826 1511.15 487.835L1511.83 489.717ZM1510.74 486.376C1510.79 487.117 1510.87 487.849 1510.98 488.572L1512.96 488.27C1512.85 487.606 1512.78 486.932 1512.74 486.251L1510.74 486.376ZM1510.77 486.735C1510.75 486.732 1510.76 486.731 1510.77 486.737C1510.78 486.743 1510.8 486.751 1510.82 486.763C1510.85 486.787 1510.87 486.81 1510.88 486.823L1512.6 485.804C1512.23 485.174 1511.62 484.883 1511.24 484.792L1510.77 486.735ZM1508.32 486.26L1510.82 486.745L1511.2 484.782L1508.7 484.296L1508.32 486.26ZM1507.62 482.835L1507.51 485.232L1509.51 485.324L1509.62 482.926L1507.62 482.835ZM1511.04 481.549C1510.29 481.638 1509.01 481.814 1508.48 481.891L1508.76 483.871C1509.3 483.794 1510.55 483.621 1511.27 483.535L1511.04 481.549ZM1511 481.559C1510.98 481.581 1510.98 481.579 1510.99 481.568C1511 481.563 1511.01 481.558 1511.02 481.554C1511.03 481.55 1511.04 481.549 1511.04 481.549L1511.27 483.535C1511.97 483.452 1512.44 483.031 1512.7 482.603L1511 481.559ZM1511.22 479.7C1511.06 480.445 1510.94 481.201 1510.85 481.968L1512.84 482.195C1512.92 481.49 1513.03 480.795 1513.18 480.11L1511.22 479.7ZM1511.24 480.272C1511.22 480.265 1511.22 480.264 1511.23 480.269C1511.24 480.274 1511.25 480.282 1511.26 480.293C1511.28 480.316 1511.3 480.339 1511.31 480.358L1513.09 479.452C1512.85 478.974 1512.46 478.659 1512.17 478.504L1511.24 480.272ZM1508.98 479.211L1511.28 480.293L1512.13 478.484L1509.83 477.402L1508.98 479.211ZM1509.17 475.715L1508.45 478.009L1510.36 478.603L1511.08 476.308L1509.17 475.715ZM1512.79 475.313C1512.04 475.215 1510.77 475.075 1510.23 475.017L1510.02 477.006C1510.56 477.064 1511.81 477.202 1512.53 477.296L1512.79 475.313ZM1512.71 475.348C1512.72 475.338 1512.75 475.326 1512.77 475.318C1512.8 475.311 1512.81 475.315 1512.79 475.313L1512.53 477.296C1513.08 477.367 1513.56 477.217 1513.93 476.931L1512.71 475.348ZM1513.42 473.489C1513.04 474.231 1512.7 474.993 1512.39 475.775L1514.25 476.504C1514.54 475.785 1514.85 475.084 1515.2 474.402L1513.42 473.489ZM1515.31 473.887C1515.27 473.207 1514.91 472.683 1514.65 472.424L1513.25 473.853C1513.24 473.845 1513.24 473.847 1513.25 473.86C1513.26 473.873 1513.27 473.89 1513.28 473.91C1513.31 473.953 1513.31 473.986 1513.31 474.004L1515.31 473.887ZM1514.61 472.393L1512.63 470.617L1511.3 472.108L1513.28 473.884L1514.61 472.393ZM1512.79 471.928L1514.17 469.914L1512.52 468.782L1511.14 470.796L1512.79 471.928ZM1512.95 470.266C1513.48 470.492 1514.69 471.022 1515.39 471.341L1516.22 469.522C1515.5 469.193 1514.27 468.656 1513.74 468.43L1512.95 470.266ZM1515.39 471.341C1515.86 471.554 1516.33 471.579 1516.76 471.451L1516.19 469.535C1516.19 469.533 1516.2 469.531 1516.21 469.53C1516.22 469.529 1516.23 469.529 1516.23 469.529C1516.24 469.53 1516.25 469.531 1516.24 469.531C1516.24 469.53 1516.24 469.528 1516.22 469.522L1515.39 471.341ZM1516.98 468.291C1516.52 468.807 1516.09 469.341 1515.67 469.893L1517.27 471.093C1517.65 470.585 1518.05 470.093 1518.48 469.617L1516.98 468.291ZM1516.78 468.489C1516.77 468.473 1516.77 468.472 1516.78 468.487C1516.78 468.501 1516.79 468.518 1516.79 468.538C1516.8 468.578 1516.79 468.601 1516.79 468.611L1518.67 469.297C1518.95 468.518 1518.7 467.794 1518.48 467.445L1516.78 468.489ZM1515.39 466.448L1516.8 468.529L1518.46 467.405L1517.04 465.324L1515.39 466.448ZM1517.35 463.524L1515.55 465.141L1516.88 466.63L1518.69 465.013L1517.35 463.524ZM1520.67 465.003C1520.07 464.544 1519.05 463.784 1518.61 463.464L1517.43 465.074C1517.86 465.395 1518.87 466.142 1519.44 466.585L1520.67 465.003ZM1520.58 464.99C1520.56 464.997 1520.58 464.987 1520.61 464.991C1520.63 464.992 1520.65 464.997 1520.66 465.002C1520.68 465.007 1520.68 465.01 1520.67 465.003L1519.44 466.585C1520.09 467.086 1520.8 467.056 1521.32 466.847L1520.58 464.99ZM1522.15 463.834C1521.52 464.241 1520.92 464.674 1520.33 465.131L1521.57 466.705C1522.11 466.283 1522.66 465.884 1523.24 465.509L1522.15 463.834ZM1523.64 465.004C1523.82 464.487 1523.77 463.982 1523.68 463.66L1521.76 464.241C1521.76 464.226 1521.76 464.222 1521.76 464.23C1521.76 464.237 1521.76 464.248 1521.76 464.263C1521.76 464.293 1521.76 464.32 1521.75 464.339L1523.64 465.004ZM1523.66 463.614L1522.82 461.253L1520.93 461.925L1521.78 464.287L1523.66 463.614ZM1522.34 462.475L1524.5 461.351L1523.57 459.577L1521.41 460.702L1522.34 462.475ZM1523.26 461.096C1523.6 461.513 1524.38 462.484 1524.83 463.054L1526.41 461.826C1525.95 461.236 1525.15 460.249 1524.81 459.832L1523.26 461.096ZM1524.83 463.054C1525.15 463.473 1525.58 463.702 1526.03 463.768L1526.32 461.79C1526.34 461.792 1526.36 461.798 1526.38 461.812C1526.41 461.825 1526.41 461.836 1526.41 461.826L1524.83 463.054ZM1528.23 460.923C1527.39 461.196 1526.57 461.511 1525.77 461.865L1526.58 463.693C1527.32 463.367 1528.08 463.077 1528.85 462.825L1528.23 460.923ZM1529.35 462.457C1529.69 461.992 1529.78 461.472 1529.78 461.129L1527.78 461.153C1527.78 461.141 1527.78 461.141 1527.78 461.154C1527.78 461.165 1527.77 461.181 1527.77 461.199C1527.76 461.238 1527.74 461.27 1527.73 461.291L1529.35 462.457ZM1529.78 461.083L1529.63 458.449L1527.63 458.564L1527.78 461.199L1529.78 461.083ZM1528.82 459.487L1531.25 459.001L1530.85 457.04L1528.43 457.526L1528.82 459.487ZM1530.13 458.399C1530.34 458.922 1530.83 460.137 1531.1 460.846L1532.97 460.131C1532.69 459.399 1532.19 458.165 1531.98 457.642L1530.13 458.399ZM1531.1 460.846C1531.26 461.264 1531.53 461.588 1531.87 461.802L1532.93 460.105C1532.94 460.109 1532.95 460.114 1532.95 460.12C1532.96 460.127 1532.97 460.133 1532.97 460.138C1532.98 460.149 1532.98 460.15 1532.97 460.131L1531.1 460.846ZM1534.37 459.725C1533.66 459.776 1532.95 459.857 1532.25 459.965L1532.56 461.941C1533.2 461.842 1533.86 461.767 1534.52 461.72L1534.37 459.725ZM1533.98 459.892C1533.98 459.901 1533.98 459.896 1533.98 459.882C1533.99 459.869 1534 459.853 1534.01 459.838C1534.04 459.807 1534.06 459.799 1534.05 459.802L1534.84 461.642C1535.34 461.428 1535.82 460.976 1535.95 460.227L1533.98 459.892ZM1534.44 457.395C1534.34 457.92 1534.1 459.16 1533.98 459.892L1535.95 460.227C1536.07 459.52 1536.3 458.3 1536.4 457.775L1534.44 457.395ZM1537.86 456.585H1535.42V458.585H1537.86V456.585ZM1539.23 459.907L1538.85 457.433L1536.88 457.737L1537.26 460.212L1539.23 459.907ZM1539.3 459.958C1539.29 459.946 1539.26 459.925 1539.24 459.892C1539.24 459.876 1539.23 459.862 1539.22 459.852C1539.22 459.841 1539.22 459.842 1539.23 459.86L1537.27 460.259C1537.34 460.63 1537.6 461.206 1538.16 461.597L1539.3 459.958ZM1557.1 470.117L1556.99 469.917L1555.23 470.879L1555.34 471.079L1557.1 470.117ZM1555.19 470.794C1555.24 470.911 1555.31 471.033 1555.39 471.151L1557.05 470.045C1557.05 470.034 1557.04 470.024 1557.04 470.016C1557.03 470.007 1557.03 470.002 1557.03 470.001L1555.19 470.794ZM1540.62 460.002L1540.4 459.935L1539.81 461.848L1540.04 461.916L1540.62 460.002ZM1539.73 461.817C1539.85 461.865 1539.98 461.906 1540.12 461.936L1540.54 459.982C1540.53 459.979 1540.51 459.975 1540.5 459.972C1540.49 459.969 1540.49 459.966 1540.48 459.966L1539.73 461.817ZM1526.21 476.629L1520.25 479.558L1521.14 481.353L1527.09 478.423L1526.21 476.629ZM1527.65 498.604V477.526H1525.65V498.604H1527.65ZM1532.78 493.478C1531.48 494.56 1529.84 495.619 1528.5 496.416C1527.84 496.812 1527.26 497.138 1526.85 497.365C1526.64 497.479 1526.47 497.567 1526.36 497.627C1526.31 497.657 1526.26 497.679 1526.23 497.694C1526.22 497.702 1526.21 497.707 1526.2 497.711C1526.2 497.713 1526.2 497.714 1526.19 497.715C1526.19 497.715 1526.19 497.716 1526.19 497.716C1526.19 497.716 1526.19 497.716 1526.19 497.716C1526.19 497.716 1526.19 497.716 1526.19 497.716C1526.19 497.716 1526.19 497.716 1526.65 498.604C1527.11 499.492 1527.11 499.492 1527.11 499.492C1527.11 499.492 1527.11 499.492 1527.11 499.492C1527.11 499.492 1527.11 499.492 1527.11 499.492C1527.11 499.491 1527.11 499.491 1527.12 499.49C1527.12 499.489 1527.12 499.487 1527.13 499.485C1527.13 499.481 1527.15 499.474 1527.16 499.466C1527.19 499.449 1527.24 499.425 1527.3 499.393C1527.42 499.329 1527.59 499.236 1527.81 499.118C1528.24 498.882 1528.84 498.544 1529.53 498.133C1530.9 497.317 1532.64 496.196 1534.06 495.014L1532.78 493.478ZM1536.73 490.959C1535.95 490.331 1535.95 490.331 1535.95 490.331C1535.95 490.331 1535.95 490.331 1535.95 490.331C1535.95 490.331 1535.95 490.331 1535.95 490.331C1535.95 490.331 1535.95 490.331 1535.95 490.331C1535.95 490.331 1535.95 490.332 1535.95 490.333C1535.94 490.335 1535.94 490.338 1535.94 490.343C1535.93 490.354 1535.92 490.37 1535.9 490.391C1535.86 490.434 1535.81 490.499 1535.73 490.583C1535.59 490.751 1535.37 490.994 1535.1 491.289C1534.54 491.879 1533.74 492.672 1532.78 493.478L1534.06 495.014C1535.1 494.144 1535.96 493.293 1536.55 492.659C1536.85 492.342 1537.09 492.077 1537.25 491.891C1537.33 491.797 1537.39 491.723 1537.43 491.672C1537.46 491.646 1537.47 491.626 1537.48 491.611C1537.49 491.604 1537.49 491.599 1537.5 491.594C1537.5 491.592 1537.5 491.591 1537.5 491.589C1537.5 491.589 1537.5 491.588 1537.5 491.588C1537.5 491.587 1537.5 491.587 1537.5 491.587C1537.5 491.587 1537.5 491.587 1537.5 491.587C1537.5 491.587 1537.5 491.587 1536.73 490.959ZM1541.74 494.304C1540.98 493.732 1539.92 492.738 1539.02 491.855C1538.58 491.42 1538.18 491.023 1537.9 490.734C1537.76 490.59 1537.65 490.473 1537.57 490.392C1537.53 490.352 1537.5 490.321 1537.48 490.3C1537.47 490.289 1537.46 490.281 1537.46 490.276C1537.45 490.274 1537.45 490.272 1537.45 490.27C1537.45 490.27 1537.45 490.269 1537.45 490.269C1537.45 490.269 1537.45 490.269 1537.45 490.269C1537.45 490.269 1537.45 490.269 1537.45 490.269C1537.45 490.269 1537.45 490.269 1536.73 490.959C1536 491.649 1536 491.649 1536 491.649C1536 491.649 1536 491.649 1536 491.649C1536 491.649 1536 491.65 1536 491.65C1536 491.65 1536 491.651 1536 491.652C1536.01 491.653 1536.01 491.655 1536.01 491.658C1536.02 491.664 1536.02 491.673 1536.04 491.684C1536.06 491.706 1536.09 491.739 1536.13 491.781C1536.21 491.864 1536.33 491.984 1536.47 492.132C1536.76 492.428 1537.16 492.836 1537.62 493.283C1538.52 494.164 1539.66 495.242 1540.54 495.902L1541.74 494.304ZM1546.87 498.604C1547.3 497.7 1547.3 497.7 1547.3 497.7C1547.3 497.7 1547.3 497.7 1547.3 497.7C1547.3 497.7 1547.3 497.7 1547.3 497.7C1547.3 497.7 1547.3 497.7 1547.3 497.699C1547.3 497.699 1547.3 497.698 1547.29 497.697C1547.29 497.695 1547.28 497.692 1547.27 497.687C1547.25 497.677 1547.22 497.663 1547.18 497.643C1547.1 497.604 1546.98 497.544 1546.83 497.466C1546.52 497.31 1546.08 497.078 1545.56 496.781C1544.5 496.186 1543.11 495.335 1541.74 494.304L1540.54 495.902C1542 497.002 1543.47 497.901 1544.57 498.524C1545.13 498.836 1545.59 499.08 1545.92 499.247C1546.08 499.331 1546.21 499.395 1546.3 499.439C1546.35 499.461 1546.38 499.478 1546.41 499.49C1546.42 499.496 1546.43 499.5 1546.44 499.503C1546.44 499.505 1546.44 499.506 1546.44 499.507C1546.44 499.507 1546.44 499.508 1546.45 499.508C1546.45 499.508 1546.45 499.508 1546.45 499.508C1546.45 499.509 1546.45 499.509 1546.45 499.509C1546.45 499.509 1546.45 499.509 1546.87 498.604ZM1548.44 495.982L1546.23 497.839L1547.52 499.369L1549.72 497.511L1548.44 495.982ZM1542.68 494.196C1543.91 495.093 1545.41 495.958 1546.58 496.59C1547.17 496.909 1547.69 497.172 1548.05 497.357C1548.24 497.449 1548.39 497.522 1548.49 497.571C1548.54 497.596 1548.58 497.616 1548.61 497.629C1548.62 497.635 1548.63 497.64 1548.64 497.644C1548.64 497.646 1548.64 497.647 1548.65 497.648C1548.65 497.648 1548.65 497.649 1548.65 497.649C1548.65 497.649 1548.65 497.649 1548.65 497.649C1548.65 497.649 1548.65 497.649 1548.65 497.649C1548.65 497.65 1548.65 497.65 1549.08 496.746C1549.51 495.843 1549.51 495.843 1549.51 495.843C1549.51 495.843 1549.51 495.843 1549.51 495.843C1549.51 495.843 1549.51 495.843 1549.51 495.843C1549.51 495.843 1549.51 495.843 1549.51 495.843C1549.51 495.842 1549.5 495.841 1549.5 495.84C1549.49 495.837 1549.49 495.832 1549.47 495.826C1549.45 495.815 1549.41 495.797 1549.36 495.774C1549.27 495.727 1549.13 495.658 1548.95 495.569C1548.6 495.392 1548.1 495.137 1547.53 494.83C1546.39 494.212 1544.98 493.398 1543.86 492.58L1542.68 494.196ZM1538.34 488.815C1537.6 489.485 1537.6 489.485 1537.6 489.485C1537.6 489.485 1537.6 489.485 1537.6 489.485C1537.6 489.485 1537.6 489.485 1537.6 489.485C1537.6 489.486 1537.6 489.487 1537.6 489.488C1537.6 489.489 1537.61 489.492 1537.61 489.495C1537.62 489.501 1537.62 489.509 1537.63 489.521C1537.65 489.543 1537.68 489.576 1537.72 489.619C1537.8 489.703 1537.91 489.824 1538.06 489.975C1538.34 490.276 1538.74 490.695 1539.22 491.169C1540.17 492.11 1541.44 493.295 1542.68 494.196L1543.86 492.58C1542.74 491.767 1541.55 490.665 1540.63 489.748C1540.17 489.293 1539.78 488.891 1539.51 488.603C1539.37 488.458 1539.27 488.343 1539.19 488.264C1539.16 488.225 1539.13 488.195 1539.11 488.175C1539.1 488.165 1539.1 488.157 1539.09 488.153C1539.09 488.15 1539.09 488.148 1539.09 488.147C1539.09 488.147 1539.09 488.146 1539.09 488.146C1539.09 488.146 1539.09 488.146 1539.09 488.146C1539.09 488.146 1539.09 488.146 1539.09 488.146C1539.09 488.146 1539.09 488.146 1538.34 488.815ZM1542.16 478.774C1541.45 481.483 1540.3 483.845 1539.32 485.536C1538.83 486.379 1538.38 487.05 1538.06 487.507C1537.9 487.735 1537.78 487.91 1537.69 488.026C1537.65 488.084 1537.61 488.127 1537.59 488.155C1537.58 488.169 1537.57 488.179 1537.57 488.185C1537.56 488.188 1537.56 488.19 1537.56 488.191C1537.56 488.192 1537.56 488.192 1537.56 488.192C1537.56 488.192 1537.56 488.192 1537.56 488.192C1537.56 488.192 1537.56 488.192 1537.56 488.192C1537.56 488.192 1537.56 488.191 1538.34 488.815C1539.13 489.439 1539.13 489.439 1539.13 489.439C1539.13 489.439 1539.13 489.439 1539.13 489.438C1539.13 489.438 1539.13 489.438 1539.13 489.437C1539.13 489.436 1539.13 489.435 1539.13 489.434C1539.13 489.431 1539.14 489.427 1539.14 489.422C1539.15 489.412 1539.16 489.398 1539.17 489.38C1539.2 489.344 1539.24 489.293 1539.29 489.227C1539.39 489.094 1539.53 488.901 1539.7 488.652C1540.05 488.156 1540.53 487.438 1541.05 486.54C1542.09 484.747 1543.33 482.215 1544.09 479.279L1542.16 478.774ZM1543.93 468.094C1542.94 468.219 1542.94 468.218 1542.94 468.218C1542.94 468.218 1542.94 468.218 1542.94 468.218C1542.94 468.218 1542.94 468.218 1542.94 468.218C1542.94 468.218 1542.94 468.219 1542.94 468.219C1542.94 468.221 1542.94 468.224 1542.94 468.228C1542.94 468.236 1542.94 468.249 1542.95 468.266C1542.95 468.302 1542.96 468.357 1542.96 468.43C1542.98 468.576 1543 468.794 1543.01 469.076C1543.05 469.638 1543.09 470.45 1543.08 471.435C1543.06 473.409 1542.86 476.056 1542.16 478.774L1544.09 479.279C1544.85 476.353 1545.06 473.533 1545.08 471.453C1545.09 470.41 1545.05 469.547 1545.01 468.942C1544.99 468.639 1544.97 468.4 1544.95 468.235C1544.94 468.153 1544.94 468.089 1544.93 468.044C1544.93 468.022 1544.93 468.004 1544.93 467.992C1544.93 467.986 1544.93 467.981 1544.93 467.977C1544.92 467.975 1544.92 467.974 1544.92 467.973C1544.92 467.972 1544.92 467.972 1544.92 467.971C1544.92 467.971 1544.92 467.971 1544.92 467.971C1544.92 467.97 1544.92 467.97 1543.93 468.094ZM1540.59 467.725L1543.53 469.011L1544.33 467.178L1541.39 465.892L1540.59 467.725ZM1539.83 482.187C1541.03 479.781 1542.49 474.013 1541.99 466.74L1539.99 466.877C1540.47 473.875 1539.04 479.273 1538.04 481.296L1539.83 482.187ZM1533.67 491.319C1536.3 488.761 1538.72 484.41 1539.83 482.187L1538.04 481.296C1536.94 483.503 1534.65 487.583 1532.28 489.884L1533.67 491.319ZM1529.69 494.226C1529.98 494.285 1530.22 494.202 1530.3 494.174C1530.41 494.135 1530.5 494.085 1530.57 494.046C1530.71 493.966 1530.85 493.863 1530.99 493.761C1531.26 493.553 1531.58 493.274 1531.9 492.984C1532.55 492.4 1533.27 491.713 1533.67 491.319L1532.28 489.884C1531.88 490.277 1531.19 490.94 1530.57 491.496C1530.26 491.776 1529.98 492.014 1529.77 492.173C1529.66 492.256 1529.6 492.299 1529.57 492.315C1529.55 492.324 1529.57 492.31 1529.62 492.293C1529.64 492.288 1529.83 492.213 1530.09 492.265L1529.69 494.226ZM1528.89 472.596V493.245H1530.89V472.596H1528.89ZM1522.47 477.489L1530.34 473.487L1529.43 471.705L1521.57 475.706L1522.47 477.489ZM1521.64 480.78L1522.97 476.922L1521.07 476.273L1519.75 480.131L1521.64 480.78ZM1536.34 507.1C1548.88 507.1 1559.08 497.1 1559.08 484.727H1557.08C1557.08 495.962 1547.81 505.1 1536.34 505.1V507.1ZM1513.59 484.727C1513.59 497.1 1523.79 507.1 1536.34 507.1V505.1C1524.87 505.1 1515.59 495.962 1515.59 484.727H1513.59ZM1536.34 462.355C1523.79 462.355 1513.59 472.355 1513.59 484.727H1515.59C1515.59 473.492 1524.87 464.355 1536.34 464.355V462.355ZM1559.08 484.727C1559.08 472.355 1548.88 462.355 1536.34 462.355V464.355C1547.81 464.355 1557.08 473.492 1557.08 484.727H1559.08Z" fill="#D6D6D6" mask="url(#path-11-outside-1)"/>
<path d="M1973 598.483C2012.91 592.32 2094.49 578.954 2095.91 579.992C2097.33 581.03 2163.09 592.859 2195.09 598.158C2195.09 613.08 2196.86 639.68 2194.03 639.356C2191.76 639.097 2046.08 638.924 1973 639.032V598.483Z" fill="#D6D6D6"/>
<path d="M1973 598.461V592.868L2024.57 579.935L2031.68 588.673L1973 598.461Z" fill="#D6D6D6"/>
<path fill-rule="evenodd" clip-rule="evenodd" d="M1900.8 519.658L1900.93 519.454C1902.81 521.416 1907.54 523.872 1912.54 518.96C1914 516.805 1916.69 512.05 1917.12 508.462L1917.16 508.473C1917.87 505.56 1918.8 499.035 1916.8 496.238C1915.38 493.209 1911.54 487.429 1907.56 488.548C1907.2 489.014 1906.99 490.296 1908.98 491.694C1910.88 493.792 1913.89 498.546 1910.76 500.783C1909.1 499.151 1904.57 497.707 1899.73 504.977C1897.84 507.773 1895.39 514.624 1900.8 519.658ZM1908.45 511.466C1907.88 512.526 1907.11 513.253 1906.42 513.619C1905.72 513.99 1905.3 513.905 1905.13 513.816C1904.96 513.727 1904.65 513.44 1904.57 512.66C1904.49 511.892 1904.66 510.857 1905.23 509.797C1905.8 508.737 1906.57 508.01 1907.26 507.644C1907.97 507.273 1908.38 507.358 1908.55 507.447C1908.72 507.536 1909.03 507.823 1909.11 508.603C1909.19 509.371 1909.02 510.406 1908.45 511.466ZM1910.22 512.387C1908.76 515.119 1906.05 516.547 1904.18 515.578C1902.32 514.608 1901.99 511.608 1903.46 508.876C1904.92 506.144 1907.63 504.716 1909.5 505.685C1911.37 506.655 1911.69 509.655 1910.22 512.387Z" fill="#D6D6D6"/>
<path fill-rule="evenodd" clip-rule="evenodd" d="M2055.41 380.389L2058 373H2075.43L2079.69 381.04L2077.56 400.615L2094.28 580.636L2059.78 585.53L2057.64 401.314L2054.44 383.137L2054.7 382.389H2078.98V380.389H2055.41Z" fill="#EEEEEF"/>
<path fill-rule="evenodd" clip-rule="evenodd" d="M1971.1 411.749L1972.64 422.634L1972.29 592.168L1997.89 585.876L1989.71 423.682L1991.14 410.05L1988.29 403.059H1973.35L1970.97 409.749H1990.42V411.749H1971.1Z" fill="#EEEEEF"/>
<path fill-rule="evenodd" clip-rule="evenodd" d="M1904.12 497.916V438.841L1902.62 431.801H1922.26V429.801H1902.56L1904.12 425.208H1920.48L1922.61 430.451L1920.83 438.841V446.531L1928.3 538.114L1901.63 537.415V520.986C1905.3 522.734 1911.91 524.482 1916.92 513.646C1918.7 509.8 1921.19 498.615 1916.92 493.022C1915.26 490.458 1909.1 485.052 1906.25 486.73C1906.25 486.815 1906.23 486.904 1906.2 487.01C1906.05 487.629 1905.75 488.789 1909.1 492.672C1910.76 495.003 1911.59 497.916 1910.16 498.615C1909.81 497.799 1907.82 497.216 1904.12 498.615V497.916Z" fill="#EEEEEF"/>
<path d="M1485.99 507.994L1918.5 521.263V537.674L1485.99 526.849V507.994Z" fill="#D6D6D6"/>
<path d="M1677.7 502.143C1676.21 506.751 1672.17 508.797 1669.21 507.876C1666.24 506.954 1664.14 502.993 1665.62 498.386C1667.11 493.778 1671.15 491.731 1674.11 492.653C1677.07 493.575 1679.18 497.536 1677.7 502.143Z" stroke="#D6D6D6" stroke-width="5"/>
<path d="M1893.2 509.767C1891.72 514.375 1887.68 516.421 1884.71 515.5C1881.75 514.578 1879.64 510.617 1881.13 506.01C1882.61 501.402 1886.65 499.355 1889.62 500.277C1892.58 501.199 1894.69 505.16 1893.2 509.767Z" stroke="#D6D6D6" stroke-width="5"/>
<path fill-rule="evenodd" clip-rule="evenodd" d="M1582.41 478.194L1581.1 484.614C1581.1 484.614 1584.19 485.535 1586.94 485.535C1589.34 485.535 1592.09 484.958 1592.09 484.958C1592.52 489.189 1588.31 500.07 1582.41 503.362C1582.41 504.062 1583.85 505.566 1583.85 505.566C1583.85 505.566 1584.97 506.858 1586.32 506.858C1590.38 506.858 1593.79 504.061 1593.79 504.061C1593.79 504.061 1597.27 505.986 1599.65 506.858C1602.27 507.819 1606.59 508.606 1606.59 508.606C1606.59 508.606 1610.01 502.803 1609.44 503.362C1608.87 503.922 1603.86 502.039 1601.37 500.757C1612.18 496.283 1614.06 481.34 1613.71 474.699L1606.59 471.553C1610.5 476.796 1606.59 488.681 1602.68 493.575C1599.6 497.431 1591.77 501.268 1591.41 500.414C1592.44 499.384 1593.81 497.666 1594.5 496.636C1598.68 490.358 1597.59 475.31 1597.59 477.058C1597.59 478.456 1584.54 479.462 1582.41 478.194ZM1619.75 494.973C1620.32 493.575 1617.85 492.759 1616.55 493.225L1619.75 488.681C1620.94 489.079 1623.01 490.453 1624.04 491.827C1624.72 492.737 1624.86 493.211 1624.37 494.973C1624.01 496.3 1623.23 497.95 1622.48 499.384C1621.62 501.053 1621.29 502.43 1621.29 502.663C1621.29 503.362 1621.53 504.761 1624.37 504.061C1626.03 503.655 1626.36 502.303 1626.91 500.075C1627.3 498.471 1627.81 496.412 1629 493.924C1631.27 489.17 1635.52 488.797 1636.82 489.38L1635.76 493.575C1635.72 493.793 1635.43 494.011 1635.02 494.315C1634.13 494.983 1632.69 496.064 1632.2 498.469C1631.53 501.77 1632.32 503.595 1633.98 504.761L1630.07 508.606L1627.93 505.46C1627.93 506.275 1626.03 510.02 1621.29 509.688C1616.55 509.355 1614.42 506.858 1615.79 502.663C1616.67 499.973 1617.76 498.289 1618.61 496.966C1619.09 496.226 1619.5 495.6 1619.75 494.973ZM1642.51 496.371C1642.51 497.49 1639.19 508.955 1637.53 514.548L1642.51 515.247L1645.36 506.858C1647.61 508.489 1652.85 509.825 1655.98 505.91C1659.11 501.994 1659.41 496.721 1658.73 493.924C1658.04 491.128 1657.01 489.766 1654.26 488.681C1650.53 487.689 1648.77 488.049 1645.36 489.38C1645.36 489.38 1644.64 489.766 1643.61 490.453C1642.93 490.11 1642.24 489.766 1641.45 489.38L1639.67 494.973C1640.62 494.973 1642.51 495.253 1642.51 496.371ZM1756.11 500.183C1756.68 498.785 1754.21 497.969 1752.91 498.435L1756.11 493.891C1757.3 494.289 1759.36 495.663 1760.39 497.037C1761.08 497.947 1761.21 498.421 1760.73 500.183C1760.37 501.51 1759.58 503.16 1758.84 504.593C1757.98 506.263 1757.65 507.64 1757.65 507.873C1757.65 508.572 1757.89 509.97 1760.73 509.271C1762.39 508.865 1762.72 507.513 1763.27 505.285C1763.66 503.681 1764.17 501.622 1765.36 499.134C1767.63 494.38 1771.88 494.007 1773.18 494.59L1772.11 498.785C1772.08 499.003 1771.79 499.221 1771.38 499.524C1770.49 500.193 1769.05 501.274 1768.56 503.678C1767.89 506.98 1768.68 508.805 1770.34 509.97L1766.42 513.816L1764.29 510.67C1764.29 511.485 1762.38 515.23 1757.65 514.898C1752.91 514.565 1750.78 512.068 1752.15 507.873C1753.03 505.183 1754.12 503.499 1754.97 502.176C1755.45 501.436 1755.85 500.81 1756.11 500.183ZM1776.87 498.435C1778.18 497.969 1780.64 498.785 1780.07 500.183C1779.82 500.81 1779.41 501.436 1778.94 502.176L1778.94 502.176C1778.08 503.499 1777 505.183 1776.11 507.873C1774.74 512.068 1776.87 514.565 1781.61 514.898C1786.35 515.23 1788.25 511.485 1788.25 510.67L1790.39 513.816L1794.3 509.97C1792.64 508.805 1791.85 506.98 1792.52 503.678C1793.01 501.274 1794.45 500.193 1795.35 499.524C1795.75 499.221 1796.04 499.003 1796.08 498.785L1797.15 494.59C1795.84 494.007 1791.6 494.38 1789.32 499.134C1788.13 501.622 1787.62 503.681 1787.23 505.285C1786.68 507.513 1786.35 508.865 1784.7 509.271C1781.85 509.97 1781.61 508.572 1781.61 507.873C1781.61 507.64 1781.94 506.263 1782.81 504.593C1783.55 503.16 1784.33 501.51 1784.7 500.183C1785.18 498.421 1785.04 497.947 1784.36 497.037C1783.33 495.663 1781.27 494.289 1780.07 493.891L1776.87 498.435ZM1785.38 490.684L1787.51 487C1788.38 488.14 1792.96 488.316 1792.96 488.316L1794.38 492L1789.64 491.737L1785.38 490.684ZM1649 503.42C1651.16 503.884 1653.44 501.856 1654.09 498.89C1654.74 495.925 1653.52 493.145 1651.36 492.681C1649.21 492.217 1646.93 494.245 1646.28 497.21C1645.62 500.176 1646.84 502.956 1649 503.42Z" fill="#D6D6D6"/>
<path fill-rule="evenodd" clip-rule="evenodd" d="M1727.14 495.277L1724.23 499.909C1724.23 499.909 1724.05 499.055 1723.36 498.368C1722.68 497.681 1721.3 497.338 1721.3 497.338C1717.18 496.307 1715.12 499.742 1715.12 499.742C1715.12 499.742 1713.88 503.903 1715.6 505.553C1717.19 507.077 1719.41 507.298 1722.45 506.201L1723.71 511.076C1723.61 511.076 1723.47 511.18 1723.24 511.338C1722.66 511.756 1721.53 512.553 1719.41 512.825C1712.22 513.749 1708.94 506.436 1708.94 502.833C1708.94 502.707 1708.93 502.551 1708.92 502.371C1708.83 500.59 1708.61 496.343 1714.78 492.872C1717.27 491.472 1723.23 491.41 1727.14 495.277Z" fill="#D6D6D6"/>
<path fill-rule="evenodd" clip-rule="evenodd" d="M1722.61 538.225L1728.66 538.374L1742.53 538.716V632.368H1746.8V538.822L1770.27 539.401V632.368H1774.54V539.507L1795.88 540.033V632.368H1800.15V540.139L1820.06 540.63V632.368H1824.33V540.736L1847.81 541.315V632.368H1852.07V541.421L1873.41 541.947V632.368H1877.68V542.053L1897.6 542.545V632.368H1901.87V542.65L1925.34 543.229V632.368H1929.61V543.335L1950.95 543.862V632.368H1955.21V543.967L1970.86 544.353V639.358H1486.46V532.395L1692.74 537.487V632.368H1697.01V537.592L1718.35 538.119V632.368H1722.61V538.225ZM1559.72 537.289H1563.99V632.368H1559.72V537.289ZM1641.52 537.289H1637.26V632.368H1641.52V537.289ZM1534.12 537.289H1538.38V632.368H1534.12V537.289ZM1615.92 537.289H1611.65V632.368H1615.92V537.289ZM1506.37 537.289H1510.64V632.368H1506.37V537.289ZM1669.27 537.289H1665V632.368H1669.27V537.289ZM1588.18 537.289H1583.91V632.368H1588.18V537.289Z" fill="#D6D6D6"/>
<path d="M1298.31 611.396V599.161L1326.41 582.033V594.967L1298.31 611.396Z" fill="#E3E3E3"/>
<path d="M1330.32 587.276V572.594L1333.17 570.497V564.554L1334.95 563.506V573.992L1345.62 567.7V562.108L1350.24 558.962V564.554L1360.2 558.262V551.97L1363.04 550.223V571.546H1364.82V573.992L1329.26 594.966V589.722L1330.32 587.276Z" fill="#E3E3E3"/>
<path d="M1366.96 560.011V553.369H1369.8L1375.49 549.524V546.378L1374.07 545.329V540.785L1379.76 537.639V544.63L1382.25 546.378V543.931L1383.67 542.183V535.192L1386.52 533.444L1388.3 535.891L1390.43 535.192V542.882L1386.52 545.329V556.865L1390.43 554.418H1395.05V555.816L1368.38 571.196V561.758L1366.96 560.011Z" fill="#E3E3E3"/>
<path fill-rule="evenodd" clip-rule="evenodd" d="M2194.22 644.953H1485.75V729.546H1509.21C1508.95 727.751 1508.81 725.913 1508.81 724.043C1508.81 703.732 1525.06 687.267 1545.11 687.267C1565.15 687.267 1581.41 703.732 1581.41 724.043C1581.41 725.913 1581.27 727.751 1581 729.546H1605.69C1605.42 727.751 1605.29 725.913 1605.29 724.043C1605.29 703.732 1621.54 687.267 1641.58 687.267C1661.63 687.267 1677.88 703.732 1677.88 724.043C1677.88 725.913 1677.74 727.751 1677.48 729.546H1701.22C1700.95 727.751 1700.81 725.913 1700.81 724.043C1700.81 703.732 1717.27 687.267 1737.58 687.267C1757.89 687.267 1774.36 703.732 1774.36 724.043C1774.36 725.913 1774.22 727.751 1773.95 729.546H1797.69C1797.42 727.751 1797.28 725.913 1797.28 724.043C1797.28 703.732 1813.54 687.267 1833.58 687.267C1853.63 687.267 1869.88 703.732 1869.88 724.043C1869.88 725.913 1869.74 727.751 1869.48 729.546H1893.22C1892.95 727.751 1892.81 725.913 1892.81 724.043C1892.81 703.732 1909.27 687.267 1929.58 687.267C1949.89 687.267 1966.36 703.732 1966.36 724.043C1966.36 725.913 1966.22 727.751 1965.95 729.546H1989.69C1989.42 727.751 1989.28 725.913 1989.28 724.043C1989.28 703.732 2005.54 687.267 2025.58 687.267C2045.63 687.267 2061.88 703.732 2061.88 724.043C2061.88 725.913 2061.74 727.751 2061.48 729.546H2086.16C2085.9 727.751 2085.76 725.913 2085.76 724.043C2085.76 703.732 2102.01 687.267 2122.06 687.267C2142.11 687.267 2158.36 703.732 2158.36 724.043C2158.36 725.913 2158.22 727.751 2157.95 729.546H2194.22V644.953ZM2145.17 729.546C2145.56 727.786 2145.76 725.945 2145.76 724.043C2145.76 710.215 2134.8 699.647 2122.06 699.647C2109.32 699.647 2098.35 710.215 2098.35 724.043C2098.35 725.945 2098.56 727.786 2098.95 729.546H2145.17ZM2001.88 724.043C2001.88 725.945 2002.08 727.786 2002.48 729.546H2048.69C2049.08 727.786 2049.29 725.945 2049.29 724.043C2049.29 710.215 2038.32 699.647 2025.58 699.647C2012.85 699.647 2001.88 710.215 2001.88 724.043ZM1856.69 729.546C1857.08 727.786 1857.29 725.945 1857.29 724.043C1857.29 710.215 1846.32 699.647 1833.58 699.647C1820.85 699.647 1809.88 710.215 1809.88 724.043C1809.88 725.945 1810.09 727.786 1810.48 729.546H1856.69ZM1617.88 724.043C1617.88 725.945 1618.09 727.786 1618.48 729.546H1664.69C1665.08 727.786 1665.29 725.945 1665.29 724.043C1665.29 710.215 1654.32 699.647 1641.58 699.647C1628.85 699.647 1617.88 710.215 1617.88 724.043ZM1952.99 729.546C1953.39 727.786 1953.6 725.945 1953.6 724.043C1953.6 710.215 1942.49 699.647 1929.58 699.647C1916.68 699.647 1905.57 710.215 1905.57 724.043C1905.57 725.945 1905.78 727.786 1906.17 729.546H1952.99ZM1713.57 724.043C1713.57 725.945 1713.78 727.786 1714.17 729.546H1760.99C1761.39 727.786 1761.6 725.945 1761.6 724.043C1761.6 710.215 1750.49 699.647 1737.58 699.647C1724.68 699.647 1713.57 710.215 1713.57 724.043ZM1568.21 729.546C1568.6 727.786 1568.81 725.945 1568.81 724.043C1568.81 710.215 1557.84 699.647 1545.11 699.647C1532.37 699.647 1521.4 710.215 1521.4 724.043C1521.4 725.945 1521.61 727.786 1522 729.546H1568.21Z" fill="#D6D6D6"/>
<path fill-rule="evenodd" clip-rule="evenodd" d="M1283.38 627.477L1482.9 508.278V639.257L1283.38 710.597V627.477ZM1457.35 549.876H1460.15V639.362H1457.35V549.876ZM1438.45 564.557H1435.65V649.15H1438.45V564.557ZM1411.84 576.442H1414.64V657.539H1411.84V576.442ZM1394.34 586.23H1392.94V663.831H1394.34V586.23ZM1372.64 598.115H1374.04V670.123H1372.64V598.115ZM1355.83 607.203H1354.43V677.114H1355.83V607.203ZM1336.23 616.991H1337.63V682.707H1336.23V616.991ZM1321.53 624.68H1320.13V688.999H1321.53V624.68ZM1301.23 634.469H1302.63V699.486H1301.23V634.469Z" fill="#E3E3E3"/>
<path fill-rule="evenodd" clip-rule="evenodd" d="M1851.72 517.015H1877.33L1874.48 436.268L1876.1 432.442L1850.29 433.025L1851.72 436.967L1850.65 517.015H1851.72ZM1850.24 431.627L1852.79 427.879L1873.77 427.18L1875.74 431.052L1850.24 431.627Z" fill="#EEEEEF"/>
<path fill-rule="evenodd" clip-rule="evenodd" d="M1847.09 500.072C1845.08 497.742 1839.98 494.27 1835.71 499.024C1830.38 504.966 1831.47 513.036 1832.87 515.103C1835.71 519.32 1842.47 517.2 1843.89 514.054C1844.13 513.532 1844.61 517.2 1846.38 517.2L1848.73 512.794C1847.78 512.094 1847.39 512.384 1847.09 510.733C1846.38 506.779 1850.79 502.833 1850.79 502.833L1849.23 496.994C1849.23 496.994 1847.8 499.373 1847.09 500.072ZM1838.08 504.207C1839.79 500.851 1841.64 501.121 1842.47 501.82C1843.89 502.833 1844.6 506.778 1842.89 509.015C1840.76 511.812 1838.11 512.468 1837.4 511.42C1836.69 510.371 1835.95 508.401 1838.08 504.207Z" fill="#D6D6D6"/>
<path fill-rule="evenodd" clip-rule="evenodd" d="M1283.38 767V716.262L1482.9 644.953V729.895L1477.99 730.809C1478 730.375 1478 729.938 1478 729.5C1478 709.342 1468.6 693 1457 693C1445.4 693 1436 709.342 1436 729.5C1436 732.605 1436.22 735.62 1436.64 738.498L1431.98 739.364C1431.99 738.912 1432 738.457 1432 738C1432 720.327 1423.94 706 1414 706C1404.06 706 1396 720.327 1396 738C1396 740.745 1396.19 743.409 1396.56 745.952L1389.16 747.328C1389.3 745.924 1389.38 744.478 1389.38 743C1389.38 729.746 1383.33 719 1375.88 719C1368.42 719 1362.38 729.746 1362.38 743C1362.38 746.229 1362.74 749.309 1363.39 752.121L1355.06 753.67C1355.27 752.176 1355.38 750.611 1355.38 749C1355.38 738.507 1350.68 730 1344.88 730C1339.08 730 1334.38 738.507 1334.38 749C1334.38 751.984 1334.76 754.807 1335.44 757.319L1327.21 758.85C1327.32 757.766 1327.38 756.646 1327.38 755.5C1327.38 745.835 1323.13 738 1317.88 738C1312.63 738 1308.38 745.835 1308.38 755.5C1308.38 757.88 1308.64 760.148 1309.1 762.216L1302.71 763.406C1302.9 762.163 1303 760.853 1303 759.5C1303 751.492 1299.42 745 1295 745C1290.58 745 1287 751.492 1287 759.5C1287 761.902 1287.32 764.166 1287.89 766.161L1283.38 767ZM1295.2 764.801L1294.82 764.872C1294.35 763.485 1294 761.65 1294 759.5C1294 757.09 1294.44 755.076 1295 753.644C1295.56 755.076 1296 757.09 1296 759.5C1296 761.614 1295.67 763.422 1295.2 764.801ZM1319.38 755.5C1319.38 757.33 1319.18 758.982 1318.86 760.401L1316.98 760.752C1316.61 759.256 1316.38 757.483 1316.38 755.5C1316.38 752.15 1317.05 749.396 1317.88 747.574C1318.71 749.396 1319.38 752.15 1319.38 755.5ZM1346.6 755.244L1343.34 755.85C1342.76 753.98 1342.38 751.651 1342.38 749C1342.38 744.845 1343.33 741.478 1344.46 739.435C1344.61 739.158 1344.75 738.927 1344.88 738.735C1345.01 738.927 1345.15 739.158 1345.3 739.435C1346.43 741.478 1347.38 744.845 1347.38 749C1347.38 751.371 1347.07 753.486 1346.6 755.244ZM1378.38 743C1378.38 745.404 1378.12 747.579 1377.69 749.46L1374.22 750.107C1373.71 748.084 1373.38 745.685 1373.38 743C1373.38 737.956 1374.54 733.916 1375.88 731.497C1377.22 733.916 1378.38 737.956 1378.38 743ZM1417.82 741.999L1410.34 743.389C1410.12 741.708 1410 739.906 1410 738C1410 731.113 1411.6 725.568 1413.47 722.237C1413.66 721.905 1413.84 721.615 1414 721.361C1414.16 721.615 1414.34 721.905 1414.53 722.237C1416.4 725.568 1418 731.113 1418 738C1418 739.39 1417.93 740.726 1417.82 741.999ZM1464 729.5C1464 730.856 1463.95 732.17 1463.85 733.439L1450.42 735.936C1450.15 733.92 1450 731.768 1450 729.5C1450 721.422 1451.91 714.796 1454.29 710.673C1455.49 708.581 1456.45 707.641 1457 707.233C1457.55 707.641 1458.51 708.581 1459.71 710.673C1462.09 714.796 1464 721.422 1464 729.5ZM1457.51 706.941C1457.51 706.942 1457.49 706.949 1457.46 706.957C1457.49 706.944 1457.51 706.939 1457.51 706.941ZM1456.54 706.957C1456.51 706.949 1456.49 706.942 1456.49 706.941C1456.49 706.939 1456.51 706.944 1456.54 706.957ZM1415.44 719.693C1415.44 719.699 1415.4 719.734 1415.3 719.778C1415.39 719.708 1415.44 719.686 1415.44 719.693ZM1412.7 719.778C1412.6 719.734 1412.56 719.699 1412.56 719.693C1412.56 719.686 1412.61 719.708 1412.7 719.778ZM1377.24 729.679C1377.24 729.685 1377.2 729.718 1377.12 729.762C1377.2 729.695 1377.24 729.673 1377.24 729.679ZM1374.64 729.762C1374.56 729.718 1374.52 729.685 1374.52 729.679C1374.52 729.673 1374.56 729.695 1374.64 729.762ZM1345.68 737.834C1345.68 737.837 1345.66 737.856 1345.6 737.88C1345.66 737.842 1345.68 737.83 1345.68 737.834ZM1344.15 737.88C1344.1 737.856 1344.07 737.837 1344.08 737.834C1344.08 737.83 1344.1 737.842 1344.15 737.88ZM1319.1 745.685C1319.1 745.69 1319.07 745.72 1319 745.76C1319.06 745.7 1319.1 745.68 1319.1 745.685ZM1316.76 745.76C1316.69 745.72 1316.66 745.69 1316.66 745.685C1316.66 745.68 1316.69 745.7 1316.76 745.76ZM1296.15 751.688C1296.15 751.692 1296.12 751.72 1296.07 751.756C1296.12 751.702 1296.15 751.683 1296.15 751.688ZM1293.93 751.756C1293.88 751.72 1293.85 751.692 1293.85 751.688C1293.85 751.683 1293.88 751.702 1293.93 751.756Z" fill="#E3E3E3"/>
<path d="M1866.76 516.613C1875.58 511.3 1871 503.149 1868.94 501.5C1866.88 499.851 1864.5 500.192 1863.91 500.126C1863.91 499.783 1863.45 502.53 1863.2 503.561C1863.91 503.561 1865.82 504.092 1866.2 504.591C1868.47 507.947 1865.81 510.872 1863.91 511.804C1861.64 512.923 1860.12 510.909 1859.65 509.743C1857.95 503.561 1862.25 497.281 1864.98 495.416C1865.26 497.374 1868.66 498.096 1870.31 498.213L1873.16 493.257C1870.03 494.096 1868.14 493.391 1868.26 492.226C1868.54 490.829 1871.62 490.29 1873.16 490.522L1874.94 487.376C1870.1 485.699 1865.57 488.076 1863.91 489.474L1862.76 488.105C1861.05 485.308 1861.04 485.357 1860.7 484.67C1860.03 484.951 1857.95 487.074 1857.95 487.376C1858.25 488.618 1860.75 490.643 1861.78 491.572C1857.79 494.089 1854.99 501.323 1854.52 504.935C1853.1 517.798 1862.73 518.477 1866.76 516.613Z" fill="#D6D6D6"/>
<path d="M1873.16 490.523C1875.15 492.48 1871.97 493.902 1870.67 494.368C1870.08 495.417 1869.96 497.654 1869.96 498.213C1875.36 499.332 1878.14 496.116 1878.85 494.368C1879.99 490.733 1876.72 488.076 1874.94 487.377L1873.16 490.523Z" fill="#D6D6D6"/>
<path d="M1283.38 767.5L1482.88 730.5L1484.38 962.411L1283.38 968V767.5Z" fill="#EEEEEF"/>
<path d="M2500 730H1486V960H2500V730Z" fill="#D6D6D6"/>
</g>
<defs>
<clipPath id="clip0">
<rect width="2500" height="960" fill="white"/>
</clipPath>
</defs>
</svg>
