<svg width="2500" height="960" viewBox="0 0 2500 960" fill="none" xmlns="http://www.w3.org/2000/svg">
<g clip-path="url(#clip0)">
<rect x="-34" y="798" width="2621" height="9" fill="#C4C4C4"/>
<path d="M2012.32 802.938C2020.68 802.938 2027.69 808.798 2029.63 816.612H2053.17L2019.9 755.078C2019.9 755.078 2018.29 728.512 2009.54 727.73C2001.37 727.34 1956.67 727.73 1952.78 727.73C1948.89 727.73 1694.03 727.73 1694.03 727.73V802.938H2012.32Z" fill="#CDCDCF"/>
<path d="M2055.7 819.736H952V822.862H2055.7V819.736Z" fill="#CDCDCF"/>
<path d="M1953.17 790.045C1945.2 790.045 1938.78 796.491 1938.78 804.5C1938.78 812.51 1945.2 818.956 1953.17 818.956C1961.15 818.956 1967.57 812.51 1967.57 804.5C1967.57 796.491 1961.15 790.045 1953.17 790.045ZM1953.17 815.44C1947.14 815.44 1942.47 810.556 1942.47 804.696C1942.47 798.64 1947.34 793.952 1953.17 793.952C1959.2 793.952 1963.87 798.835 1963.87 804.696C1963.87 810.556 1959.01 815.44 1953.17 815.44Z" fill="#CDCDCF"/>
<path d="M1953.17 814.462C1958.65 814.462 1963.09 810.002 1963.09 804.5C1963.09 798.998 1958.65 794.537 1953.17 794.537C1947.69 794.537 1943.25 798.998 1943.25 804.5C1943.25 810.002 1947.69 814.462 1953.17 814.462Z" fill="#CDCDCF"/>
<path d="M2008.23 790.045C2000.25 790.045 1993.83 796.491 1993.83 804.5C1993.83 812.51 2000.25 818.956 2008.23 818.956C2016.21 818.956 2022.63 812.51 2022.63 804.5C2022.82 796.491 2016.21 790.045 2008.23 790.045ZM2008.23 815.44C2002.2 815.44 1997.53 810.556 1997.53 804.696C1997.53 798.64 2002.39 793.952 2008.23 793.952C2014.26 793.952 2018.93 798.835 2018.93 804.696C2019.13 810.556 2014.26 815.44 2008.23 815.44Z" fill="#CDCDCF"/>
<path d="M2008.23 814.462C2013.71 814.462 2018.15 810.002 2018.15 804.5C2018.15 798.998 2013.71 794.537 2008.23 794.537C2002.75 794.537 1998.31 798.998 1998.31 804.5C1998.31 810.002 2002.75 814.462 2008.23 814.462Z" fill="#CDCDCF"/>
<path d="M1968.54 801.573C1968.54 800.401 1969.51 799.424 1970.68 799.424H1990.53C1991.69 799.424 1992.67 800.401 1992.67 801.573C1992.67 802.745 1991.69 803.721 1990.53 803.721H1970.68C1969.51 803.721 1968.54 802.745 1968.54 801.573Z" fill="#CDCDCF"/>
<path d="M1720.68 790.045C1712.71 790.045 1706.29 796.491 1706.29 804.5C1706.29 812.51 1712.71 818.956 1720.68 818.956C1728.66 818.956 1735.08 812.51 1735.08 804.5C1735.08 796.491 1728.66 790.045 1720.68 790.045ZM1720.68 815.44C1714.65 815.44 1709.98 810.556 1709.98 804.696C1709.98 798.64 1714.85 793.952 1720.68 793.952C1726.71 793.952 1731.38 798.835 1731.38 804.696C1731.38 810.556 1726.52 815.44 1720.68 815.44Z" fill="#CDCDCF"/>
<path d="M1720.68 814.462C1726.16 814.462 1730.6 810.002 1730.6 804.5C1730.6 798.998 1726.16 794.537 1720.68 794.537C1715.2 794.537 1710.76 798.998 1710.76 804.5C1710.76 810.002 1715.2 814.462 1720.68 814.462Z" fill="#CDCDCF"/>
<path d="M1775.74 790.045C1767.76 790.045 1761.34 796.491 1761.34 804.5C1761.34 812.51 1767.76 818.956 1775.74 818.956C1783.72 818.956 1790.14 812.51 1790.14 804.5C1790.14 796.491 1783.72 790.045 1775.74 790.045ZM1775.74 815.44C1769.71 815.44 1765.04 810.556 1765.04 804.696C1765.04 798.64 1769.9 793.952 1775.74 793.952C1781.77 793.952 1786.44 798.835 1786.44 804.696C1786.64 810.556 1781.77 815.44 1775.74 815.44Z" fill="#CDCDCF"/>
<path d="M1775.74 814.462C1781.22 814.462 1785.66 810.002 1785.66 804.5C1785.66 798.998 1781.22 794.537 1775.74 794.537C1770.26 794.537 1765.82 798.998 1765.82 804.5C1765.82 810.002 1770.26 814.462 1775.74 814.462Z" fill="#CDCDCF"/>
<path d="M1736.05 801.573C1736.05 800.401 1737.02 799.424 1738.19 799.424H1758.04C1759.2 799.424 1760.18 800.401 1760.18 801.573C1760.18 802.745 1759.2 803.721 1758.04 803.721H1738.19C1737.02 803.721 1736.05 802.745 1736.05 801.573Z" fill="#CDCDCF"/>
<path d="M1456.28 795.709V813.29H1467.96V812.704C1467.96 807.625 1472.04 803.523 1477.1 803.523H1548.11C1553.17 803.523 1557.26 807.625 1557.26 812.704V813.29H1584.3V812.704C1584.3 807.625 1588.39 803.523 1593.44 803.523H1664.46C1669.51 803.523 1673.6 807.625 1673.6 812.704V813.29H1685.08V795.709H1456.28Z" fill="#CDCDCF"/>
<path d="M1601.62 791.217C1593.64 791.217 1587.22 797.663 1587.22 805.672C1587.22 813.681 1593.64 820.128 1601.62 820.128C1609.59 820.128 1616.01 813.681 1616.01 805.672C1616.01 797.663 1609.59 791.217 1601.62 791.217ZM1601.62 816.416C1595.58 816.416 1590.92 811.533 1590.92 805.672C1590.92 799.617 1595.78 794.928 1601.62 794.928C1607.65 794.928 1612.32 799.812 1612.32 805.672C1612.32 811.728 1607.45 816.416 1601.62 816.416Z" fill="#CDCDCF"/>
<path d="M1601.62 815.634C1607.1 815.634 1611.54 811.174 1611.54 805.672C1611.54 800.169 1607.1 795.709 1601.62 795.709C1596.14 795.709 1591.69 800.169 1591.69 805.672C1591.69 811.174 1596.14 815.634 1601.62 815.634Z" fill="#CDCDCF"/>
<path d="M1656.67 791.217C1648.7 791.217 1642.28 797.663 1642.28 805.672C1642.28 813.681 1648.7 820.128 1656.67 820.128C1664.65 820.128 1671.07 813.681 1671.07 805.672C1671.07 797.663 1664.65 791.217 1656.67 791.217ZM1656.67 816.416C1650.64 816.416 1645.97 811.533 1645.97 805.672C1645.97 799.617 1650.84 794.928 1656.67 794.928C1662.51 794.928 1667.37 799.812 1667.37 805.672C1667.37 811.728 1662.71 816.416 1656.67 816.416Z" fill="#CDCDCF"/>
<path d="M1656.67 815.634C1662.15 815.634 1666.59 811.174 1666.59 805.672C1666.59 800.169 1662.15 795.709 1656.67 795.709C1651.19 795.709 1646.75 800.169 1646.75 805.672C1646.75 811.174 1651.19 815.634 1656.67 815.634Z" fill="#CDCDCF"/>
<path d="M1616.98 802.545C1616.98 801.373 1617.96 800.396 1619.12 800.396H1638.97C1640.14 800.396 1641.11 801.373 1641.11 802.545C1641.11 803.717 1640.14 804.694 1638.97 804.694H1619.12C1617.96 804.889 1616.98 803.913 1616.98 802.545Z" fill="#CDCDCF"/>
<path d="M1619.51 808.407C1619.51 807.039 1620.68 805.867 1622.04 805.867H1636.05C1637.41 805.867 1638.58 807.039 1638.58 808.407C1638.58 809.774 1637.41 810.946 1636.05 810.946H1622.04C1620.68 810.946 1619.51 809.774 1619.51 808.407Z" fill="#CDCDCF"/>
<path d="M1485.08 791.217C1477.1 791.217 1470.68 797.663 1470.68 805.672C1470.68 813.681 1477.1 820.128 1485.08 820.128C1493.06 820.128 1499.48 813.681 1499.48 805.672C1499.48 797.663 1493.06 791.217 1485.08 791.217ZM1485.08 816.416C1479.05 816.416 1474.38 811.533 1474.38 805.672C1474.38 799.617 1479.24 794.928 1485.08 794.928C1491.11 794.928 1495.78 799.812 1495.78 805.672C1495.78 811.728 1490.92 816.416 1485.08 816.416Z" fill="#CDCDCF"/>
<path d="M1485.08 815.634C1490.56 815.634 1495 811.174 1495 805.672C1495 800.169 1490.56 795.709 1485.08 795.709C1479.6 795.709 1475.16 800.169 1475.16 805.672C1475.16 811.174 1479.6 815.634 1485.08 815.634Z" fill="#CDCDCF"/>
<path d="M1540.14 791.217C1532.16 791.217 1525.74 797.663 1525.74 805.672C1525.74 813.681 1532.16 820.128 1540.14 820.128C1548.11 820.128 1554.53 813.681 1554.53 805.672C1554.73 797.663 1548.11 791.217 1540.14 791.217ZM1540.14 816.416C1534.11 816.416 1529.44 811.533 1529.44 805.672C1529.44 799.617 1534.3 794.928 1540.14 794.928C1546.17 794.928 1550.84 799.812 1550.84 805.672C1551.03 811.728 1546.17 816.416 1540.14 816.416Z" fill="#CDCDCF"/>
<path d="M1540.14 815.634C1545.61 815.634 1550.06 811.174 1550.06 805.672C1550.06 800.169 1545.61 795.709 1540.14 795.709C1534.66 795.709 1530.21 800.169 1530.21 805.672C1530.21 811.174 1534.66 815.634 1540.14 815.634Z" fill="#CDCDCF"/>
<path d="M1500.45 802.545C1500.45 801.373 1501.42 800.396 1502.59 800.396H1522.43C1523.6 800.396 1524.57 801.373 1524.57 802.545C1524.57 803.717 1523.6 804.694 1522.43 804.694H1502.59C1501.42 804.889 1500.45 803.913 1500.45 802.545Z" fill="#CDCDCF"/>
<path d="M1502.98 808.407C1502.98 807.039 1504.14 805.867 1505.51 805.867H1519.51C1520.88 805.867 1522.04 807.039 1522.04 808.407C1522.04 809.774 1520.88 810.946 1519.51 810.946H1505.51C1504.14 810.946 1502.98 809.774 1502.98 808.407Z" fill="#CDCDCF"/>
<path d="M1214.06 795.709V813.29H1225.74V812.704C1225.74 807.625 1229.82 803.523 1234.88 803.523H1305.89C1310.95 803.523 1315.04 807.625 1315.04 812.704V813.29H1342.08V812.704C1342.08 807.625 1346.17 803.523 1351.22 803.523H1422.24C1427.3 803.523 1431.38 807.625 1431.38 812.704V813.29H1442.86V795.709H1214.06Z" fill="#CDCDCF"/>
<path d="M1359.39 791.217C1351.42 791.217 1345 797.663 1345 805.672C1345 813.681 1351.42 820.128 1359.39 820.128C1367.37 820.128 1373.79 813.681 1373.79 805.672C1373.79 797.663 1367.37 791.217 1359.39 791.217ZM1359.39 816.416C1353.36 816.416 1348.69 811.533 1348.69 805.672C1348.69 799.617 1353.56 794.928 1359.39 794.928C1365.43 794.928 1370.1 799.812 1370.1 805.672C1370.1 811.728 1365.23 816.416 1359.39 816.416Z" fill="#CDCDCF"/>
<path d="M1359.39 815.634C1364.87 815.634 1369.32 811.174 1369.32 805.672C1369.32 800.169 1364.87 795.709 1359.39 795.709C1353.91 795.709 1349.47 800.169 1349.47 805.672C1349.47 811.174 1353.91 815.634 1359.39 815.634Z" fill="#CDCDCF"/>
<path d="M1414.45 791.217C1406.48 791.217 1400.06 797.663 1400.06 805.672C1400.06 813.681 1406.48 820.128 1414.45 820.128C1422.43 820.128 1428.85 813.681 1428.85 805.672C1428.85 797.663 1422.43 791.217 1414.45 791.217ZM1414.45 816.416C1408.42 816.416 1403.75 811.533 1403.75 805.672C1403.75 799.617 1408.62 794.928 1414.45 794.928C1420.48 794.928 1425.15 799.812 1425.15 805.672C1425.35 811.728 1420.48 816.416 1414.45 816.416Z" fill="#CDCDCF"/>
<path d="M1414.45 815.634C1419.93 815.634 1424.37 811.174 1424.37 805.672C1424.37 800.169 1419.93 795.709 1414.45 795.709C1408.97 795.709 1404.53 800.169 1404.53 805.672C1404.53 811.174 1408.97 815.634 1414.45 815.634Z" fill="#CDCDCF"/>
<path d="M1374.76 802.545C1374.76 801.373 1375.74 800.396 1376.9 800.396H1396.75C1397.92 800.396 1398.89 801.373 1398.89 802.545C1398.89 803.717 1397.92 804.694 1396.75 804.694H1376.9C1375.74 804.889 1374.76 803.913 1374.76 802.545Z" fill="#CDCDCF"/>
<path d="M1377.29 808.407C1377.29 807.039 1378.46 805.867 1379.82 805.867H1393.83C1395.19 805.867 1396.36 807.039 1396.36 808.407C1396.36 809.774 1395.19 810.946 1393.83 810.946H1379.82C1378.46 810.946 1377.29 809.774 1377.29 808.407Z" fill="#CDCDCF"/>
<path d="M1242.86 791.217C1234.88 791.217 1228.46 797.663 1228.46 805.672C1228.46 813.681 1234.88 820.128 1242.86 820.128C1250.83 820.128 1257.25 813.681 1257.25 805.672C1257.25 797.663 1250.83 791.217 1242.86 791.217ZM1242.86 816.416C1236.83 816.416 1232.16 811.533 1232.16 805.672C1232.16 799.617 1237.02 794.928 1242.86 794.928C1248.89 794.928 1253.56 799.812 1253.56 805.672C1253.56 811.728 1248.69 816.416 1242.86 816.416Z" fill="#CDCDCF"/>
<path d="M1242.86 815.634C1248.34 815.634 1252.78 811.174 1252.78 805.672C1252.78 800.169 1248.34 795.709 1242.86 795.709C1237.38 795.709 1232.94 800.169 1232.94 805.672C1232.94 811.174 1237.38 815.634 1242.86 815.634Z" fill="#CDCDCF"/>
<path d="M1297.92 791.217C1289.94 791.217 1283.52 797.663 1283.52 805.672C1283.52 813.681 1289.94 820.128 1297.92 820.128C1305.9 820.128 1312.32 813.681 1312.32 805.672C1312.51 797.663 1305.9 791.217 1297.92 791.217ZM1297.92 816.416C1291.89 816.416 1287.22 811.533 1287.22 805.672C1287.22 799.617 1292.08 794.928 1297.92 794.928C1303.95 794.928 1308.62 799.812 1308.62 805.672C1308.81 811.728 1303.95 816.416 1297.92 816.416Z" fill="#CDCDCF"/>
<path d="M1297.92 815.634C1303.4 815.634 1307.84 811.174 1307.84 805.672C1307.84 800.169 1303.4 795.709 1297.92 795.709C1292.44 795.709 1287.99 800.169 1287.99 805.672C1287.99 811.174 1292.44 815.634 1297.92 815.634Z" fill="#CDCDCF"/>
<path d="M1258.23 802.545C1258.23 801.373 1259.2 800.396 1260.37 800.396H1280.21C1281.38 800.396 1282.35 801.373 1282.35 802.545C1282.35 803.717 1281.38 804.694 1280.21 804.694H1260.37C1259.2 804.889 1258.23 803.913 1258.23 802.545Z" fill="#CDCDCF"/>
<path d="M1260.76 808.407C1260.76 807.039 1261.93 805.867 1263.29 805.867H1277.29C1278.66 805.867 1279.82 807.039 1279.82 808.407C1279.82 809.774 1278.66 810.946 1277.29 810.946H1263.29C1261.93 810.946 1260.76 809.774 1260.76 808.407Z" fill="#CDCDCF"/>
<path d="M2028.66 763.478C2028.66 765.627 2026.91 767.385 2024.77 767.385H2006.29C2004.15 767.385 2002.4 765.627 2002.4 763.478V758.399C2002.4 756.25 2004.15 754.492 2006.29 754.492H2024.77C2026.91 754.492 2028.66 756.25 2028.66 758.399V763.478Z" fill="#CDCDCF"/>
<path d="M1916.6 734.762H1901.81V782.426H1916.6V734.762Z" stroke="white" stroke-width="0.5" stroke-miterlimit="10"/>
<path d="M1899.67 791.609C1899.67 791.999 1899.28 792.39 1898.89 792.39C1898.5 792.39 1898.12 791.999 1898.12 791.609V759.963C1898.12 759.572 1898.5 759.182 1898.89 759.182C1899.28 759.182 1899.67 759.572 1899.67 759.963V791.609Z" fill="white"/>
<path d="M1920.1 791.609C1920.1 791.999 1919.71 792.39 1919.32 792.39C1918.93 792.39 1918.54 791.999 1918.54 791.609V759.963C1918.54 759.572 1918.93 759.182 1919.32 759.182C1919.71 759.182 1920.1 759.572 1920.1 759.963V791.609Z" fill="white"/>
<path d="M1915.04 786.334H1903.37V788.092H1915.04V786.334Z" fill="white"/>
<path d="M1915.04 791.607H1903.37V793.366H1915.04V791.607Z" fill="white"/>
<path d="M1915.04 796.883H1903.37V798.641H1915.04V796.883Z" fill="white"/>
<path d="M1936.05 809.579C1936.05 812.314 1933.91 814.463 1931.19 814.463H1798.7C1795.97 814.463 1793.83 812.314 1793.83 809.579C1793.83 806.844 1795.97 804.695 1798.7 804.695H1931.19C1933.91 804.695 1936.05 806.844 1936.05 809.579Z" fill="#CDCDCF"/>
<path d="M1756.48 809.579C1756.48 812.314 1754.34 814.463 1751.62 814.463H1744.81C1742.08 814.463 1739.94 812.314 1739.94 809.579C1739.94 806.844 1742.08 804.695 1744.81 804.695H1751.62C1754.34 804.695 1756.48 806.844 1756.48 809.579Z" fill="#CDCDCF"/>
<path d="M1989.17 809.579C1989.17 812.314 1987.03 814.463 1984.3 814.463H1977.3C1974.57 814.463 1972.43 812.314 1972.43 809.579C1972.43 806.844 1974.57 804.695 1977.3 804.695H1984.11C1986.83 804.695 1989.17 806.844 1989.17 809.579Z" fill="#CDCDCF"/>
<path d="M1893.44 767.385H1704.92V770.706H1893.44V767.385Z" fill="white"/>
<path d="M1452.2 759.18C1452.2 739.645 1467.96 723.822 1487.41 723.822H1650.25C1669.71 723.822 1685.47 739.645 1685.47 759.18C1685.47 778.714 1669.71 794.537 1650.25 794.537H1487.41C1467.96 794.537 1452.2 778.714 1452.2 759.18Z" fill="#CDCDCF"/>
<path d="M1612.31 787.506C1612.31 787.897 1611.93 788.287 1611.54 788.287C1611.15 788.287 1610.76 787.897 1610.76 787.506V728.512C1610.76 728.121 1611.15 727.73 1611.54 727.73C1611.93 727.73 1612.31 728.121 1612.31 728.512V787.506Z" fill="white"/>
<path d="M1632.74 787.506C1632.74 787.897 1632.35 788.287 1631.96 788.287C1631.57 788.287 1631.19 787.897 1631.19 787.506V728.512C1631.19 728.121 1631.57 727.73 1631.96 727.73C1632.35 727.73 1632.74 728.121 1632.74 728.512V787.506Z" fill="white"/>
<path d="M1627.69 773.244H1616.01V775.002H1627.69V773.244Z" fill="white"/>
<path d="M1627.69 778.518H1616.01V780.276H1627.69V778.518Z" fill="white"/>
<path d="M1627.69 783.793H1616.01V785.551H1627.69V783.793Z" fill="white"/>
<path d="M1627.69 757.031H1616.01V758.789H1627.69V757.031Z" fill="white"/>
<path d="M1627.69 762.305H1616.01V764.063H1627.69V762.305Z" fill="white"/>
<path d="M1627.69 767.58H1616.01V769.338H1627.69V767.58Z" fill="white"/>
<path d="M1627.69 751.562H1616.01V753.321H1627.69V751.562Z" fill="white"/>
<path d="M1504.92 787.506C1504.92 787.897 1504.53 788.287 1504.14 788.287C1503.75 788.287 1503.37 787.897 1503.37 787.506V728.512C1503.37 728.121 1503.75 727.73 1504.14 727.73C1504.53 727.73 1504.92 728.121 1504.92 728.512V787.506Z" fill="white"/>
<path d="M1525.35 787.506C1525.35 787.897 1524.96 788.287 1524.57 788.287C1524.18 788.287 1523.79 787.897 1523.79 787.506V728.512C1523.79 728.121 1524.18 727.73 1524.57 727.73C1524.96 727.73 1525.35 728.121 1525.35 728.512V787.506Z" fill="white"/>
<path d="M1520.29 773.244H1508.62V775.002H1520.29V773.244Z" fill="white"/>
<path d="M1520.29 778.518H1508.62V780.276H1520.29V778.518Z" fill="white"/>
<path d="M1520.29 783.793H1508.62V785.551H1520.29V783.793Z" fill="white"/>
<path d="M1520.29 757.031H1508.62V758.789H1520.29V757.031Z" fill="white"/>
<path d="M1520.29 762.305H1508.62V764.063H1520.29V762.305Z" fill="white"/>
<path d="M1520.29 767.58H1508.62V769.338H1520.29V767.58Z" fill="white"/>
<path d="M1520.29 751.562H1508.62V753.321H1520.29V751.562Z" fill="white"/>
<path d="M1417.18 708V774.026H1411.73V708H1245.58V774.026H1240.13V708H1214.06V790.045H1443.25V708H1417.18Z" fill="#CDCDCF"/>
<path d="M1258.81 754.1C1258.81 753.123 1259.59 752.342 1260.56 752.342H1396.75C1397.72 752.342 1398.5 753.123 1398.5 754.1C1398.5 755.077 1397.72 755.858 1396.75 755.858H1260.56C1259.59 755.663 1258.81 754.881 1258.81 754.1Z" stroke="white" stroke-width="0.5" stroke-miterlimit="10"/>
<path d="M971.064 795.709V813.29H982.738V812.704C982.738 807.625 986.823 803.523 991.882 803.523H1062.89C1067.95 803.523 1072.04 807.625 1072.04 812.704V813.29H1099.08V812.704C1099.08 807.625 1103.17 803.523 1108.22 803.523H1179.63C1184.68 803.523 1188.77 807.625 1188.77 812.704V813.29H1200.25V795.709H971.064Z" fill="#CDCDCF"/>
<path d="M1116.4 791.217C1108.42 791.217 1102 797.663 1102 805.672C1102 813.681 1108.42 820.128 1116.4 820.128C1124.37 820.128 1130.79 813.681 1130.79 805.672C1130.79 797.663 1124.37 791.217 1116.4 791.217ZM1116.4 816.416C1110.37 816.416 1105.7 811.533 1105.7 805.672C1105.7 799.617 1110.56 794.928 1116.4 794.928C1122.43 794.928 1127.1 799.812 1127.1 805.672C1127.1 811.728 1122.43 816.416 1116.4 816.416Z" fill="#CDCDCF"/>
<path d="M1116.4 815.634C1121.88 815.634 1126.32 811.174 1126.32 805.672C1126.32 800.169 1121.88 795.709 1116.4 795.709C1110.92 795.709 1106.48 800.169 1106.48 805.672C1106.48 811.174 1110.92 815.634 1116.4 815.634Z" fill="#CDCDCF"/>
<path d="M1171.65 791.217C1163.67 791.217 1157.25 797.663 1157.25 805.672C1157.25 813.681 1163.67 820.128 1171.65 820.128C1179.63 820.128 1186.05 813.681 1186.05 805.672C1186.05 797.663 1179.63 791.217 1171.65 791.217ZM1171.65 816.416C1165.62 816.416 1160.95 811.533 1160.95 805.672C1160.95 799.617 1165.81 794.928 1171.65 794.928C1177.68 794.928 1182.35 799.812 1182.35 805.672C1182.35 811.728 1177.49 816.416 1171.65 816.416Z" fill="#CDCDCF"/>
<path d="M1171.65 815.634C1177.13 815.634 1181.57 811.174 1181.57 805.672C1181.57 800.169 1177.13 795.709 1171.65 795.709C1166.17 795.709 1161.73 800.169 1161.73 805.672C1161.73 811.174 1166.17 815.634 1171.65 815.634Z" fill="#CDCDCF"/>
<path d="M1131.77 802.545C1131.77 801.373 1132.74 800.396 1133.91 800.396H1153.75C1154.92 800.396 1155.89 801.373 1155.89 802.545C1155.89 803.717 1154.92 804.694 1153.75 804.694H1133.91C1132.74 804.889 1131.77 803.913 1131.77 802.545Z" fill="#CDCDCF"/>
<path d="M1134.49 808.407C1134.49 807.039 1135.66 805.867 1137.02 805.867H1151.03C1152.39 805.867 1153.56 807.039 1153.56 808.407C1153.56 809.774 1152.39 810.946 1151.03 810.946H1137.02C1135.46 810.946 1134.49 809.774 1134.49 808.407Z" fill="#CDCDCF"/>
<path d="M999.862 791.217C991.885 791.217 985.465 797.663 985.465 805.672C985.465 813.681 991.885 820.128 999.862 820.128C1007.84 820.128 1014.26 813.681 1014.26 805.672C1014.26 797.663 1007.84 791.217 999.862 791.217ZM999.862 816.416C993.831 816.416 989.161 811.533 989.161 805.672C989.161 799.617 994.025 794.928 999.862 794.928C1005.89 794.928 1010.56 799.812 1010.56 805.672C1010.76 811.728 1005.89 816.416 999.862 816.416Z" fill="#CDCDCF"/>
<path d="M999.862 815.634C1005.34 815.634 1009.78 811.174 1009.78 805.672C1009.78 800.169 1005.34 795.709 999.862 795.709C994.382 795.709 989.939 800.169 989.939 805.672C989.939 811.174 994.382 815.634 999.862 815.634Z" fill="#CDCDCF"/>
<path d="M1055.12 791.217C1047.14 791.217 1040.72 797.663 1040.72 805.672C1040.72 813.681 1047.14 820.128 1055.12 820.128C1063.09 820.128 1069.51 813.681 1069.51 805.672C1069.51 797.663 1063.09 791.217 1055.12 791.217ZM1055.12 816.416C1049.08 816.416 1044.42 811.533 1044.42 805.672C1044.42 799.617 1049.28 794.928 1055.12 794.928C1061.15 794.928 1065.82 799.812 1065.82 805.672C1065.82 811.728 1060.95 816.416 1055.12 816.416Z" fill="#CDCDCF"/>
<path d="M1055.12 815.634C1060.6 815.634 1065.04 811.174 1065.04 805.672C1065.04 800.169 1060.6 795.709 1055.12 795.709C1049.64 795.709 1045.19 800.169 1045.19 805.672C1045.19 811.174 1049.64 815.634 1055.12 815.634Z" fill="#CDCDCF"/>
<path d="M1015.23 802.545C1015.23 801.373 1016.2 800.396 1017.37 800.396H1037.22C1038.38 800.396 1039.36 801.373 1039.36 802.545C1039.36 803.717 1038.38 804.694 1037.22 804.694H1017.57C1016.2 804.889 1015.23 803.913 1015.23 802.545Z" fill="#CDCDCF"/>
<path d="M1017.96 808.407C1017.96 807.039 1019.12 805.867 1020.48 805.867H1034.49C1035.85 805.867 1037.02 807.039 1037.02 808.407C1037.02 809.774 1035.85 810.946 1034.49 810.946H1020.48C1019.12 810.946 1017.96 809.774 1017.96 808.407Z" fill="#CDCDCF"/>
<path d="M1174.18 766.994V774.027H1168.93V766.994H1002.58V774.027H997.135V766.994H971.064V790.045H1200.25V766.994H1174.18Z" fill="#CDCDCF"/>
<path d="M1202.59 750.975C1202.59 749.803 1201.81 749.021 1200.64 749.021H970.483C969.315 749.021 968.537 749.803 968.537 750.975V761.328C968.537 762.5 969.315 763.282 970.483 763.282H1200.64C1201.81 763.282 1202.59 762.5 1202.59 761.328V750.975Z" fill="#CDCDCF"/>
<path d="M1014.45 763.479C1014.45 764.651 1013.48 765.628 1012.12 765.628H1009C1007.84 765.628 1006.67 764.651 1006.67 763.479V714.838C1006.67 713.666 1007.64 712.689 1009 712.689H1012.12C1013.28 712.689 1014.45 713.666 1014.45 714.838V763.479Z" fill="#CDCDCF"/>
<path d="M1161.92 763.479C1161.92 764.651 1160.95 765.628 1159.59 765.628H1156.48C1155.31 765.628 1154.14 764.651 1154.14 763.479V714.838C1154.14 713.666 1155.12 712.689 1156.48 712.689H1159.59C1160.76 712.689 1161.92 713.666 1161.92 714.838V763.479Z" fill="#CDCDCF"/>
<rect y="803" width="2500" height="577" fill="white"/>
<path d="M2475.86 718.873L2469.45 726.166L2439.65 715.178L2435.11 720.842L2408.42 710L2399.37 722.69L2392.79 716.636L2385.91 723.565L2340.02 729.812L2336.2 734.917L2325.4 731.417L2316.29 745.127L2300.63 742.21L2296.57 749.357L2294.12 749.284L2289.97 752.955L2281.01 752.687L2277.95 755.823L2255.05 753.441L2251.62 758.765L2236.03 759.324L2224.33 754.924L2208.93 764.015L2206.41 759.883L2166.97 781.494L2162.36 789.832L2139.77 794.743L2138 798H2511V730.444L2475.86 718.873Z" fill="#C4C4C4"/>
<path d="M460.991 737.244C459.767 741.308 456.093 744.152 451.74 744.152H404.664V791.287H537.727V737.244H460.991Z" fill="#D4D4D4"/>
<path d="M447.659 806.322C441.808 806.322 436.91 801.582 436.91 795.622C436.91 789.798 441.672 784.922 447.659 784.922C453.509 784.922 458.407 789.663 458.407 795.622C458.407 801.582 453.645 806.322 447.659 806.322ZM443.713 801.175C444.529 801.717 445.482 802.124 446.57 802.259V798.602C446.434 798.602 446.434 798.602 446.298 798.467L443.713 801.175ZM448.747 802.259C449.836 802.124 450.788 801.717 451.604 801.175L449.019 798.602C448.883 798.602 448.883 798.737 448.747 798.737V802.259V802.259ZM440.992 796.841C441.128 797.925 441.536 798.873 442.216 799.686L444.801 797.112C444.801 796.977 444.665 796.977 444.665 796.841H440.992ZM453.101 799.686C453.781 798.873 454.189 797.925 454.325 796.841H450.652C450.652 796.977 450.516 796.977 450.516 797.112L453.101 799.686ZM454.461 794.674C454.325 793.59 453.917 792.642 453.237 791.694L450.652 794.268C450.652 794.403 450.788 794.539 450.788 794.674H454.461V794.674ZM444.529 794.674C444.529 794.539 444.665 794.403 444.665 794.268L442.08 791.694C441.4 792.507 441.128 793.59 440.856 794.674H444.529V794.674ZM448.747 792.642C448.883 792.642 449.019 792.778 449.155 792.778L451.74 790.204C450.924 789.527 449.836 789.121 448.747 788.985V792.642ZM446.162 792.778C446.298 792.778 446.434 792.642 446.57 792.642V788.985C445.482 789.121 444.529 789.527 443.577 790.204L446.162 792.778Z" fill="#D4D4D4"/>
<path d="M447.659 785.599C453.238 785.599 457.727 790.068 457.727 795.622C457.727 801.175 453.238 805.645 447.659 805.645C442.081 805.645 437.591 801.175 437.591 795.622C437.591 790.068 442.217 785.599 447.659 785.599ZM449.292 793.59L452.829 790.068C451.605 788.985 449.972 788.172 448.203 788.172V793.048C448.476 793.184 448.884 793.319 449.292 793.59ZM446.163 793.59C446.435 793.319 446.843 793.184 447.387 793.048V788.172C445.618 788.308 443.986 788.985 442.761 790.068L446.163 793.59ZM440.176 795.351H445.074C445.074 794.944 445.21 794.538 445.482 794.132L441.945 790.61C440.992 791.965 440.312 793.59 440.176 795.351ZM450.244 795.351H455.142C455.006 793.59 454.326 791.965 453.238 790.746L449.7 794.267C450.108 794.538 450.244 794.944 450.244 795.351ZM453.238 800.633C454.326 799.414 455.006 797.789 455.142 796.163H450.244C450.108 796.57 449.972 796.976 449.7 797.247L453.238 800.633ZM442.217 800.633L445.754 797.112C445.482 796.841 445.346 796.434 445.21 796.028H440.312C440.312 797.924 441.128 799.414 442.217 800.633ZM448.067 803.071C449.836 802.936 451.333 802.259 452.557 801.175L449.02 797.653C448.748 797.924 448.339 798.06 447.931 798.06V803.071H448.067ZM447.251 803.071V798.195C446.843 798.195 446.571 798.06 446.163 797.789L442.625 801.31C443.986 802.259 445.618 802.936 447.251 803.071ZM447.659 784.244C441.401 784.244 436.23 789.391 436.23 795.622C436.23 801.852 441.401 806.999 447.659 806.999C453.918 806.999 459.088 801.852 459.088 795.622C459.088 789.391 453.918 784.244 447.659 784.244ZM444.666 790.339C445.074 790.068 445.482 789.933 445.89 789.797V791.558L444.666 790.339ZM449.428 791.558V789.797C449.836 789.933 450.244 790.068 450.652 790.339L449.428 791.558ZM441.809 793.996C441.945 793.59 442.081 793.184 442.217 792.777L443.441 793.996H441.809ZM452.013 793.996L453.238 792.777C453.374 793.184 453.646 793.59 453.646 793.996H452.013ZM452.013 797.518H453.51C453.374 797.924 453.238 798.195 453.101 798.601L452.013 797.518ZM441.809 797.518H443.441L442.353 798.601C442.081 798.195 441.945 797.924 441.809 797.518ZM444.802 801.04L445.89 799.956V801.446C445.618 801.31 445.21 801.175 444.802 801.04ZM449.428 801.446V799.956L450.516 801.04C450.244 801.175 449.836 801.31 449.428 801.446Z" fill="white"/>
<path d="M423.848 806.322C417.998 806.322 413.1 801.582 413.1 795.622C413.1 789.798 417.862 784.922 423.848 784.922C429.698 784.922 434.597 789.663 434.597 795.622C434.597 801.582 429.835 806.322 423.848 806.322ZM424.937 802.259C426.025 802.124 426.977 801.717 427.794 801.175L425.209 798.602C425.073 798.602 425.073 798.602 424.937 798.737V802.259V802.259ZM420.039 801.175C420.855 801.717 421.807 802.124 422.896 802.259V798.602C422.76 798.602 422.76 798.602 422.624 798.467L420.039 801.175ZM417.181 796.841C417.317 797.925 417.726 798.873 418.406 799.686L420.991 797.112C420.991 796.977 420.855 796.977 420.855 796.841H417.181ZM429.426 799.686C430.107 798.873 430.515 797.925 430.651 796.841H426.977C426.977 796.977 426.841 796.977 426.841 797.112L429.426 799.686ZM430.651 794.674C430.515 793.59 430.107 792.642 429.426 791.694L426.841 794.268C426.841 794.403 426.977 794.539 426.977 794.674H430.651V794.674ZM420.855 794.674C420.855 794.539 420.991 794.403 420.991 794.268L418.406 791.694C417.726 792.507 417.453 793.59 417.181 794.674H420.855V794.674ZM424.937 792.642C425.073 792.642 425.209 792.778 425.345 792.778L427.93 790.204C427.113 789.527 426.025 789.121 424.937 788.985V792.642ZM422.488 792.778C422.624 792.778 422.76 792.642 422.896 792.642V788.985C421.807 789.121 420.855 789.527 419.902 790.204L422.488 792.778Z" fill="#D4D4D4"/>
<path d="M423.849 785.599C429.427 785.599 433.917 790.068 433.917 795.622C433.917 801.175 429.427 805.645 423.849 805.645C418.27 805.645 413.78 801.175 413.78 795.622C413.917 790.068 418.406 785.599 423.849 785.599ZM425.481 793.59L429.019 790.068C427.794 788.985 426.162 788.172 424.393 788.172V793.048C424.801 793.184 425.209 793.319 425.481 793.59ZM422.352 793.59C422.624 793.319 423.032 793.184 423.577 793.048V788.172C421.808 788.308 420.175 788.985 418.951 790.068L422.352 793.59ZM416.502 795.351H421.4C421.4 794.944 421.536 794.538 421.808 794.132L418.27 790.61C417.182 791.965 416.502 793.59 416.502 795.351ZM426.434 795.351H431.332C431.196 793.59 430.515 791.965 429.427 790.746L425.889 794.267C426.298 794.538 426.434 794.944 426.434 795.351ZM429.427 800.633C430.515 799.414 431.196 797.789 431.332 796.163H426.434C426.298 796.57 426.162 796.976 425.889 797.247L429.427 800.633ZM418.406 800.633L421.944 797.112C421.672 796.841 421.536 796.434 421.4 796.028H416.502C416.502 797.924 417.318 799.414 418.406 800.633ZM424.257 803.071C426.026 802.936 427.522 802.259 428.747 801.175L425.209 797.653C424.937 797.924 424.529 798.06 424.121 798.06V803.071H424.257ZM423.44 803.071V798.195C423.032 798.195 422.76 798.06 422.352 797.789L418.815 801.31C420.175 802.259 421.808 802.936 423.44 803.071ZM423.849 784.244C417.59 784.244 412.42 789.391 412.42 795.622C412.42 801.852 417.59 806.999 423.849 806.999C430.107 806.999 435.277 801.852 435.277 795.622C435.277 789.391 430.243 784.244 423.849 784.244ZM425.617 791.558V789.797C426.026 789.933 426.434 790.068 426.842 790.339L425.617 791.558ZM420.991 790.339C421.4 790.068 421.808 789.933 422.216 789.797V791.558L420.991 790.339ZM417.998 793.996C418.134 793.59 418.27 793.184 418.406 792.777L419.631 793.996H417.998ZM428.202 793.996L429.427 792.777C429.563 793.184 429.835 793.59 429.835 793.996H428.202ZM428.202 797.518H429.699C429.563 797.924 429.427 798.195 429.291 798.601L428.202 797.518ZM418.134 797.518H419.767L418.679 798.601C418.406 798.195 418.27 797.924 418.134 797.518ZM421.128 801.04L422.216 799.956V801.446C421.808 801.31 421.4 801.175 421.128 801.04ZM425.617 801.446V799.956L426.706 801.04C426.434 801.175 426.026 801.31 425.617 801.446Z" fill="white"/>
<path d="M404.664 793.049C404.664 792.643 405.072 792.236 405.48 792.236H411.875C412.283 792.236 412.691 792.643 412.691 793.049C412.691 793.455 412.283 793.862 411.875 793.862H405.48C404.936 793.997 404.664 793.591 404.664 793.049Z" fill="#D4D4D4"/>
<path d="M408.066 795.623C408.066 795.217 408.475 794.811 408.883 794.811H412.012C412.42 794.811 412.828 795.217 412.828 795.623C412.828 796.03 412.42 796.436 412.012 796.436H408.883C408.339 796.571 408.066 796.165 408.066 795.623Z" fill="#D4D4D4"/>
<path d="M466.298 793.049C466.298 792.643 465.89 792.236 465.482 792.236H459.359C458.951 792.236 458.543 792.643 458.543 793.049C458.543 793.455 458.951 793.862 459.359 793.862H465.482C466.026 793.997 466.298 793.591 466.298 793.049Z" fill="#D4D4D4"/>
<path d="M463.17 795.623C463.17 795.217 462.761 794.811 462.353 794.811H459.496C459.088 794.811 458.68 795.217 458.68 795.623C458.68 796.03 459.088 796.436 459.496 796.436H462.353C462.761 796.571 463.17 796.165 463.17 795.623Z" fill="#D4D4D4"/>
<path d="M374.051 806.322C368.201 806.322 363.303 801.582 363.303 795.622C363.303 789.798 368.065 784.922 374.051 784.922C379.902 784.922 384.8 789.663 384.8 795.622C384.8 801.582 380.038 806.322 374.051 806.322ZM370.106 801.175C370.922 801.717 371.874 802.124 372.963 802.259V798.602C372.827 798.602 372.827 798.602 372.691 798.467L370.106 801.175ZM375.14 802.259C376.228 802.124 377.18 801.717 377.997 801.175L375.412 798.602C375.276 798.602 375.276 798.737 375.14 798.737V802.259ZM367.384 796.841C367.52 797.925 367.929 798.873 368.609 799.686L371.194 797.112C371.194 796.977 371.058 796.977 371.058 796.841H367.384ZM379.493 799.686C380.174 798.873 380.582 797.925 380.718 796.841H377.044C377.044 796.977 376.908 796.977 376.908 797.112L379.493 799.686ZM380.854 794.674C380.718 793.59 380.31 792.642 379.63 791.694L377.044 794.268C377.044 794.403 377.181 794.539 377.181 794.674H380.854ZM370.922 794.674C370.922 794.539 371.058 794.403 371.058 794.268L368.473 791.694C367.793 792.507 367.52 793.59 367.248 794.674H370.922V794.674ZM375.14 792.642C375.276 792.642 375.412 792.778 375.548 792.778L378.133 790.204C377.317 789.527 376.228 789.121 375.14 788.985V792.642V792.642ZM372.555 792.778C372.691 792.778 372.827 792.642 372.963 792.642V788.985C371.874 789.121 370.922 789.527 369.97 790.204L372.555 792.778Z" fill="#D4D4D4"/>
<path d="M374.052 785.599C379.63 785.599 384.12 790.068 384.12 795.622C384.12 801.175 379.63 805.645 374.052 805.645C368.473 805.645 363.984 801.175 363.984 795.622C363.984 790.068 368.473 785.599 374.052 785.599ZM375.684 793.59L379.222 790.068C377.997 788.985 376.365 788.172 374.596 788.172V793.048C374.868 793.184 375.276 793.319 375.684 793.59ZM372.555 793.59C372.827 793.319 373.235 793.184 373.78 793.048V788.172C372.011 788.308 370.378 788.985 369.154 790.068L372.555 793.59ZM366.569 795.351H371.467C371.467 794.944 371.603 794.538 371.875 794.132L368.337 790.61C367.385 791.965 366.705 793.59 366.569 795.351ZM376.637 795.351H381.535C381.399 793.59 380.719 791.965 379.63 790.746L376.093 794.267C376.501 794.538 376.637 794.944 376.637 795.351ZM379.63 800.633C380.719 799.414 381.399 797.789 381.535 796.163H376.637C376.501 796.57 376.365 796.976 376.093 797.247L379.63 800.633ZM368.61 800.633L372.147 797.112C371.875 796.841 371.739 796.434 371.603 796.028H366.705C366.705 797.924 367.385 799.414 368.61 800.633ZM374.46 803.071C376.229 802.936 377.725 802.259 378.95 801.175L375.412 797.653C375.14 797.924 374.732 798.06 374.324 798.06V803.071H374.46ZM373.644 803.071V798.195C373.235 798.195 372.963 798.06 372.555 797.789L369.018 801.31C370.378 802.259 371.875 802.936 373.644 803.071ZM374.052 784.244C367.793 784.244 362.623 789.391 362.623 795.622C362.623 801.852 367.793 806.999 374.052 806.999C380.31 806.999 385.481 801.852 385.481 795.622C385.481 789.391 380.31 784.244 374.052 784.244ZM371.059 790.339C371.467 790.068 371.875 789.933 372.283 789.797V791.558L371.059 790.339ZM375.821 791.558V789.797C376.229 789.933 376.637 790.068 377.045 790.339L375.821 791.558ZM368.201 793.996C368.337 793.59 368.473 793.184 368.61 792.777L369.834 793.996H368.201ZM378.27 793.996L379.494 792.777C379.63 793.184 379.902 793.59 379.902 793.996H378.27ZM378.27 797.518H379.766C379.63 797.924 379.494 798.195 379.358 798.601L378.27 797.518ZM368.201 797.518H369.834L368.746 798.601C368.473 798.195 368.337 797.924 368.201 797.518ZM371.195 801.04L372.283 799.956V801.446C371.875 801.31 371.603 801.175 371.195 801.04ZM375.821 801.446V799.956L376.909 801.04C376.501 801.175 376.229 801.31 375.821 801.446Z" fill="white"/>
<path d="M350.243 806.322C344.392 806.322 339.494 801.582 339.494 795.622C339.494 789.798 344.256 784.922 350.243 784.922C356.093 784.922 360.991 789.663 360.991 795.622C360.991 801.582 356.229 806.322 350.243 806.322ZM351.331 802.259C352.42 802.124 353.372 801.717 354.188 801.175L351.603 798.602C351.467 798.602 351.467 798.602 351.331 798.737V802.259ZM346.433 801.175C347.249 801.717 348.202 802.124 349.29 802.259V798.602C349.154 798.602 349.154 798.602 349.018 798.467L346.433 801.175ZM343.576 796.841C343.712 797.925 344.12 798.873 344.8 799.686L347.385 797.112C347.385 796.977 347.249 796.977 347.249 796.841H343.576ZM355.821 799.686C356.501 798.873 356.909 797.925 357.045 796.841H353.372C353.372 796.977 353.236 796.977 353.236 797.112L355.821 799.686ZM357.045 794.674C356.909 793.59 356.501 792.642 355.821 791.694L353.236 794.268C353.236 794.403 353.372 794.539 353.372 794.674H357.045V794.674ZM347.249 794.674C347.249 794.539 347.385 794.403 347.385 794.268L344.8 791.694C344.12 792.507 343.848 793.59 343.576 794.674H347.249V794.674ZM351.331 792.642C351.467 792.642 351.603 792.778 351.739 792.778L354.324 790.204C353.508 789.527 352.42 789.121 351.331 788.985V792.642V792.642ZM348.746 792.778C348.882 792.778 349.018 792.642 349.154 792.642V788.985C348.066 789.121 347.113 789.527 346.161 790.204L348.746 792.778Z" fill="#D4D4D4"/>
<path d="M350.243 785.599C355.822 785.599 360.311 790.068 360.311 795.622C360.311 801.175 355.822 805.645 350.243 805.645C344.665 805.645 340.175 801.175 340.175 795.622C340.311 790.068 344.801 785.599 350.243 785.599ZM351.876 793.59L355.277 790.204C354.053 789.12 352.42 788.308 350.651 788.308V793.184C351.196 793.184 351.468 793.319 351.876 793.59ZM348.747 793.59C349.019 793.319 349.427 793.184 349.971 793.048V788.172C348.202 788.308 346.57 788.985 345.345 790.068L348.747 793.59ZM342.76 795.351H347.658C347.658 794.944 347.794 794.538 348.066 794.132L344.529 790.61C343.576 791.965 342.896 793.59 342.76 795.351ZM352.828 795.351H357.726C357.59 793.59 356.91 791.965 355.822 790.746L352.284 794.267C352.692 794.538 352.828 794.944 352.828 795.351ZM355.822 800.633C356.91 799.414 357.59 797.789 357.726 796.163H352.828C352.692 796.57 352.556 796.976 352.284 797.247L355.822 800.633ZM344.801 800.633L348.338 797.112C348.066 796.841 347.93 796.434 347.794 796.028H342.896C342.896 797.924 343.712 799.414 344.801 800.633ZM350.651 803.071C352.42 802.936 353.917 802.259 355.141 801.175L351.604 797.653C351.332 797.924 350.923 798.06 350.515 798.06V803.071H350.651ZM349.835 803.071V798.195C349.427 798.195 349.155 798.06 348.747 797.789L345.209 801.31C346.57 802.259 348.202 802.936 349.835 803.071ZM350.243 784.244C343.985 784.244 338.814 789.391 338.814 795.622C338.814 801.852 343.985 806.999 350.243 806.999C356.502 806.999 361.672 801.852 361.672 795.622C361.672 789.391 356.638 784.244 350.243 784.244ZM352.012 791.558V789.797C352.42 789.933 352.828 790.068 353.236 790.339L352.012 791.558ZM347.386 790.339C347.794 790.068 348.202 789.933 348.611 789.797V791.558L347.386 790.339ZM344.393 793.996C344.529 793.59 344.665 793.184 344.801 792.777L346.025 793.996H344.393ZM354.597 793.996L355.822 792.777C355.958 793.184 356.23 793.59 356.23 793.996H354.597ZM354.597 797.518H356.094C355.958 797.924 355.822 798.195 355.685 798.601L354.597 797.518ZM344.529 797.518H346.162L345.073 798.601C344.801 798.195 344.529 797.924 344.529 797.518ZM347.522 801.04L348.611 799.956V801.446C348.202 801.31 347.794 801.175 347.522 801.04ZM352.012 801.446V799.956L353.1 801.04C352.828 801.175 352.42 801.31 352.012 801.446Z" fill="white"/>
<path d="M331.059 793.049C331.059 792.643 331.467 792.236 331.875 792.236H338.27C338.678 792.236 339.086 792.643 339.086 793.049C339.086 793.455 338.678 793.862 338.27 793.862H331.875C331.331 793.997 331.059 793.591 331.059 793.049Z" fill="#D4D4D4"/>
<path d="M334.459 795.623C334.459 795.217 334.867 794.811 335.275 794.811H338.405C338.813 794.811 339.221 795.217 339.221 795.623C339.221 796.03 338.813 796.436 338.405 796.436H335.275C334.731 796.571 334.459 796.165 334.459 795.623Z" fill="#D4D4D4"/>
<path d="M392.693 793.049C392.693 792.643 392.285 792.236 391.876 792.236H385.754C385.346 792.236 384.938 792.643 384.938 793.049C384.938 793.455 385.346 793.862 385.754 793.862H391.876C392.421 793.997 392.693 793.591 392.693 793.049Z" fill="#D4D4D4"/>
<path d="M389.562 795.623C389.562 795.217 389.154 794.811 388.746 794.811H385.889C385.48 794.811 385.072 795.217 385.072 795.623C385.072 796.03 385.48 796.436 385.889 796.436H388.746C389.154 796.571 389.562 796.165 389.562 795.623Z" fill="#D4D4D4"/>
<path d="M284.799 806.322C278.949 806.322 274.051 801.582 274.051 795.622C274.051 789.798 278.813 784.922 284.799 784.922C290.65 784.922 295.548 789.663 295.548 795.622C295.548 801.582 290.786 806.322 284.799 806.322ZM280.854 801.175C281.67 801.717 282.622 802.124 283.711 802.259V798.602C283.575 798.602 283.575 798.602 283.439 798.467L280.854 801.175ZM285.888 802.259C286.976 802.124 287.929 801.717 288.745 801.175L286.16 798.602C286.024 798.602 286.024 798.737 285.888 798.737V802.259ZM278.132 796.841C278.269 797.925 278.677 798.873 279.357 799.686L281.942 797.112C281.942 796.977 281.806 796.977 281.806 796.841H278.132ZM290.241 799.686C290.922 798.873 291.33 797.925 291.466 796.841H287.792C287.792 796.977 287.656 796.977 287.656 797.112L290.241 799.686ZM291.602 794.674C291.466 793.59 291.058 792.642 290.378 791.694L287.792 794.268C287.792 794.403 287.929 794.539 287.929 794.674H291.602V794.674ZM281.67 794.674C281.67 794.539 281.806 794.403 281.806 794.268L279.221 791.694C278.541 792.507 278.269 793.59 277.996 794.674H281.67V794.674ZM285.888 792.642C286.024 792.642 286.16 792.778 286.296 792.778L288.881 790.204C288.065 789.527 286.976 789.121 285.888 788.985V792.642V792.642ZM283.303 792.778C283.439 792.778 283.575 792.642 283.711 792.642V788.985C282.622 789.121 281.67 789.527 280.718 790.204L283.303 792.778Z" fill="#D4D4D4"/>
<path d="M284.8 785.599C290.378 785.599 294.868 790.068 294.868 795.622C294.868 801.175 290.378 805.645 284.8 805.645C279.222 805.645 274.732 801.175 274.732 795.622C274.732 790.068 279.222 785.599 284.8 785.599ZM286.432 793.59L289.97 790.068C288.745 788.985 287.113 788.172 285.344 788.172V793.048C285.616 793.184 286.024 793.319 286.432 793.59ZM283.303 793.59C283.575 793.319 283.983 793.184 284.528 793.048V788.172C282.759 788.308 281.126 788.985 279.902 790.068L283.303 793.59ZM277.317 795.351H282.215C282.215 794.944 282.351 794.538 282.623 794.132L279.085 790.61C278.133 791.965 277.453 793.59 277.317 795.351ZM287.385 795.351H292.283C292.147 793.59 291.467 791.965 290.378 790.746L286.841 794.267C287.249 794.538 287.385 794.944 287.385 795.351ZM290.378 800.633C291.467 799.414 292.147 797.789 292.283 796.163H287.385C287.249 796.57 287.113 796.976 286.841 797.247L290.378 800.633ZM279.358 800.633L282.895 797.112C282.623 796.841 282.487 796.434 282.351 796.028H277.453C277.453 797.924 278.133 799.414 279.358 800.633ZM285.208 803.071C286.977 802.936 288.473 802.259 289.698 801.175L286.16 797.653C285.888 797.924 285.48 798.06 285.072 798.06V803.071H285.208ZM284.392 803.071V798.195C283.983 798.195 283.711 798.06 283.303 797.789L279.766 801.31C281.126 802.259 282.623 802.936 284.392 803.071ZM284.8 784.244C278.541 784.244 273.371 789.391 273.371 795.622C273.371 801.852 278.541 806.999 284.8 806.999C291.058 806.999 296.229 801.852 296.229 795.622C296.229 789.391 291.058 784.244 284.8 784.244ZM281.807 790.339C282.215 790.068 282.623 789.933 283.031 789.797V791.558L281.807 790.339ZM286.569 791.558V789.797C286.977 789.933 287.385 790.068 287.793 790.339L286.569 791.558ZM278.949 793.996C279.085 793.59 279.222 793.184 279.358 792.777L280.582 793.996H278.949ZM289.018 793.996L290.242 792.777C290.378 793.184 290.65 793.59 290.65 793.996H289.018ZM289.018 797.518H290.514C290.378 797.924 290.242 798.195 290.106 798.601L289.018 797.518ZM278.949 797.518H280.582L279.494 798.601C279.222 798.195 279.085 797.924 278.949 797.518ZM281.943 801.04L283.031 799.956V801.446C282.623 801.31 282.351 801.175 281.943 801.04ZM286.569 801.446V799.956L287.657 801.04C287.249 801.175 286.977 801.31 286.569 801.446Z" fill="white"/>
<path d="M260.989 806.322C255.138 806.322 250.24 801.582 250.24 795.622C250.24 789.798 255.002 784.922 260.989 784.922C266.839 784.922 271.737 789.663 271.737 795.622C271.737 801.582 266.975 806.322 260.989 806.322ZM262.077 802.259C263.166 802.124 264.118 801.717 264.934 801.175L262.349 798.602C262.213 798.602 262.213 798.602 262.077 798.737V802.259ZM257.179 801.175C257.995 801.717 258.948 802.124 260.036 802.259V798.602C259.9 798.602 259.9 798.602 259.764 798.467L257.179 801.175ZM254.322 796.841C254.458 797.925 254.866 798.873 255.546 799.686L258.132 797.112C258.132 796.977 257.995 796.977 257.995 796.841H254.322ZM266.567 799.686C267.247 798.873 267.655 797.925 267.792 796.841H264.118C264.118 796.977 263.982 796.977 263.982 797.112L266.567 799.686ZM267.792 794.674C267.655 793.59 267.247 792.642 266.567 791.694L263.982 794.268C263.982 794.403 264.118 794.539 264.118 794.674H267.792V794.674ZM257.995 794.674C257.995 794.539 258.132 794.403 258.132 794.268L255.546 791.694C254.866 792.507 254.594 793.59 254.322 794.674H257.995V794.674ZM262.077 792.642C262.213 792.642 262.349 792.778 262.485 792.778L265.07 790.204C264.254 789.527 263.166 789.121 262.077 788.985V792.642V792.642ZM259.492 792.778C259.628 792.778 259.764 792.642 259.9 792.642V788.985C258.812 789.121 257.859 789.527 256.907 790.204L259.492 792.778Z" fill="#D4D4D4"/>
<path d="M260.989 785.599C266.568 785.599 271.057 790.068 271.057 795.622C271.057 801.175 266.568 805.645 260.989 805.645C255.411 805.645 250.921 801.175 250.921 795.622C251.057 790.068 255.547 785.599 260.989 785.599ZM262.622 793.59L266.159 790.068C264.935 788.985 263.302 788.172 261.534 788.172V793.048C261.942 793.184 262.214 793.319 262.622 793.59ZM259.493 793.59C259.765 793.319 260.173 793.184 260.717 793.048V788.172C258.948 788.308 257.316 788.985 256.091 790.068L259.493 793.59ZM253.506 795.351H258.404C258.404 794.944 258.54 794.538 258.812 794.132L255.275 790.61C254.323 791.965 253.642 793.59 253.506 795.351ZM263.574 795.351H268.472C268.336 793.59 267.656 791.965 266.568 790.746L263.03 794.267C263.438 794.538 263.574 794.944 263.574 795.351ZM266.568 800.633C267.656 799.414 268.336 797.789 268.472 796.163H263.574C263.438 796.57 263.302 796.976 263.03 797.247L266.568 800.633ZM255.547 800.633L259.084 797.112C258.812 796.841 258.676 796.434 258.54 796.028H253.642C253.642 797.924 254.459 799.414 255.547 800.633ZM261.397 803.071C263.166 802.936 264.663 802.259 265.887 801.175L262.35 797.653C262.078 797.924 261.67 798.06 261.261 798.06V803.071H261.397ZM260.581 803.071V798.195C260.173 798.195 259.901 798.06 259.493 797.789L255.955 801.31C257.316 802.259 258.948 802.936 260.581 803.071ZM260.989 784.244C254.731 784.244 249.561 789.391 249.561 795.622C249.561 801.852 254.731 806.999 260.989 806.999C267.248 806.999 272.418 801.852 272.418 795.622C272.418 789.391 267.384 784.244 260.989 784.244ZM262.758 791.558V789.797C263.166 789.933 263.574 790.068 263.983 790.339L262.758 791.558ZM258.132 790.339C258.54 790.068 258.948 789.933 259.357 789.797V791.558L258.132 790.339ZM255.139 793.996C255.275 793.59 255.411 793.184 255.547 792.777L256.772 793.996H255.139ZM265.343 793.996L266.568 792.777C266.704 793.184 266.976 793.59 266.976 793.996H265.343ZM265.343 797.518H266.84C266.704 797.924 266.568 798.195 266.432 798.601L265.343 797.518ZM255.275 797.518H256.908L255.819 798.601C255.547 798.195 255.275 797.924 255.275 797.518ZM258.268 801.04L259.357 799.956V801.446C258.948 801.31 258.54 801.175 258.268 801.04ZM262.758 801.446V799.956L263.846 801.04C263.574 801.175 263.166 801.31 262.758 801.446Z" fill="white"/>
<path d="M241.805 793.049C241.805 792.643 242.213 792.236 242.621 792.236H249.016C249.424 792.236 249.832 792.643 249.832 793.049C249.832 793.455 249.424 793.862 249.016 793.862H242.621C242.077 793.997 241.805 793.591 241.805 793.049Z" fill="#D4D4D4"/>
<path d="M245.207 795.623C245.207 795.217 245.615 794.811 246.023 794.811H249.153C249.561 794.811 249.969 795.217 249.969 795.623C249.969 796.03 249.561 796.436 249.153 796.436H246.023C245.479 796.571 245.207 796.165 245.207 795.623Z" fill="#D4D4D4"/>
<path d="M303.439 793.049C303.439 792.643 303.031 792.236 302.622 792.236H296.5C296.092 792.236 295.684 792.643 295.684 793.049C295.684 793.455 296.092 793.862 296.5 793.862H302.622C303.167 793.997 303.439 793.591 303.439 793.049Z" fill="#D4D4D4"/>
<path d="M300.31 795.623C300.31 795.217 299.902 794.811 299.494 794.811H296.637C296.228 794.811 295.82 795.217 295.82 795.623C295.82 796.03 296.228 796.436 296.637 796.436H299.494C299.902 796.571 300.31 796.165 300.31 795.623Z" fill="#D4D4D4"/>
<path d="M519.36 806.322C513.509 806.322 508.611 801.582 508.611 795.622C508.611 789.798 513.373 784.922 519.36 784.922C525.346 784.922 530.108 789.663 530.108 795.622C529.972 801.582 525.21 806.322 519.36 806.322ZM515.414 801.175C516.23 801.717 517.183 802.124 518.271 802.259V798.602C518.135 798.602 518.135 798.602 517.999 798.467L515.414 801.175ZM520.448 802.259C521.537 802.124 522.489 801.717 523.305 801.175L520.72 798.602C520.584 798.602 520.584 798.737 520.448 798.737V802.259V802.259ZM512.557 796.841C512.693 797.925 513.101 798.873 513.781 799.686L516.367 797.112C516.367 796.977 516.23 796.977 516.23 796.841H512.557ZM524.802 799.686C525.482 798.873 525.89 797.925 526.027 796.841H522.353C522.353 796.977 522.217 796.977 522.217 797.112L524.802 799.686ZM526.027 794.674C525.89 793.59 525.482 792.642 524.802 791.694L522.217 794.268C522.217 794.403 522.353 794.539 522.353 794.674H526.027V794.674ZM516.23 794.674C516.23 794.539 516.367 794.403 516.367 794.268L513.781 791.694C513.101 792.507 512.829 793.59 512.557 794.674H516.23V794.674ZM520.448 792.642C520.584 792.642 520.72 792.778 520.856 792.778L523.441 790.204C522.625 789.527 521.537 789.121 520.448 788.985V792.642ZM517.863 792.778C517.999 792.778 518.135 792.642 518.271 792.642V788.985C517.183 789.121 516.23 789.527 515.278 790.204L517.863 792.778Z" fill="#D4D4D4"/>
<path d="M519.36 785.599C524.939 785.599 529.429 790.068 529.429 795.622C529.429 801.175 524.939 805.645 519.36 805.645C513.782 805.645 509.292 801.175 509.292 795.622C509.292 790.068 513.782 785.599 519.36 785.599ZM520.857 793.59L524.394 790.068C523.17 788.985 521.537 788.172 519.769 788.172V793.048C520.177 793.184 520.585 793.319 520.857 793.59ZM517.728 793.59C518 793.319 518.408 793.184 518.952 793.048V788.172C517.183 788.308 515.551 788.985 514.326 790.068L517.728 793.59ZM511.877 795.351H516.775C516.775 794.944 516.911 794.538 517.183 794.132L513.646 790.61C512.558 791.965 511.877 793.59 511.877 795.351ZM521.809 795.351H526.707C526.571 793.59 525.891 791.965 524.803 790.746L521.265 794.267C521.673 794.538 521.809 794.944 521.809 795.351ZM524.803 800.633C525.891 799.414 526.571 797.789 526.707 796.163H521.809C521.673 796.57 521.537 796.976 521.265 797.247L524.803 800.633ZM513.782 800.633L517.32 797.112C517.047 796.841 516.911 796.434 516.775 796.028H511.877C512.013 797.924 512.694 799.414 513.782 800.633ZM519.769 803.071C521.537 802.936 523.034 802.259 524.258 801.175L520.721 797.653C520.449 797.924 520.041 798.06 519.632 798.06V803.071H519.769ZM518.952 803.071V798.195C518.544 798.195 518.272 798.06 517.864 797.789L514.326 801.31C515.551 802.259 517.183 802.936 518.952 803.071ZM519.36 784.244C513.102 784.244 507.932 789.391 507.932 795.622C507.932 801.852 513.102 806.999 519.36 806.999C525.619 806.999 530.789 801.852 530.789 795.622C530.653 789.391 525.619 784.244 519.36 784.244ZM516.367 790.339C516.775 790.068 517.183 789.933 517.592 789.797V791.558L516.367 790.339ZM521.129 791.558V789.797C521.537 789.933 521.945 790.068 522.354 790.339L521.129 791.558ZM513.374 793.996C513.51 793.59 513.646 793.184 513.782 792.777L515.007 793.996H513.374ZM523.578 793.996L524.803 792.777C524.939 793.184 525.211 793.59 525.211 793.996H523.578ZM523.578 797.518H525.075C524.939 797.924 524.803 798.195 524.667 798.601L523.578 797.518ZM513.51 797.518H515.143L514.054 798.601C513.782 798.195 513.646 797.924 513.51 797.518ZM516.503 801.04L517.592 799.956V801.446C517.183 801.31 516.775 801.175 516.503 801.04ZM521.129 801.446V799.956L522.218 801.04C521.809 801.175 521.401 801.31 521.129 801.446Z" fill="white"/>
<path d="M495.549 806.322C489.699 806.322 484.801 801.582 484.801 795.622C484.801 789.798 489.563 784.922 495.549 784.922C501.536 784.922 506.298 789.663 506.298 795.622C506.298 801.582 501.4 806.322 495.549 806.322ZM496.638 802.259C497.726 802.124 498.679 801.717 499.495 801.175L496.91 798.602C496.774 798.602 496.774 798.602 496.638 798.737V802.259V802.259ZM491.604 801.175C492.42 801.717 493.372 802.124 494.461 802.259V798.602C494.325 798.602 494.325 798.602 494.189 798.467L491.604 801.175ZM488.882 796.841C489.019 797.925 489.427 798.873 490.107 799.686L492.692 797.112C492.692 796.977 492.556 796.977 492.556 796.841H488.882ZM500.991 799.686C501.672 798.873 502.08 797.925 502.216 796.841H498.542C498.542 796.977 498.406 796.977 498.406 797.112L500.991 799.686ZM502.216 794.674C502.08 793.59 501.672 792.642 500.991 791.694L498.406 794.268C498.406 794.403 498.542 794.539 498.542 794.674H502.216V794.674ZM492.42 794.674C492.42 794.539 492.556 794.403 492.556 794.268L489.971 791.694C489.291 792.507 489.019 793.59 488.746 794.674H492.42V794.674ZM496.638 792.642C496.774 792.642 496.91 792.778 497.046 792.778L499.495 790.204C498.679 789.527 497.59 789.121 496.502 788.985V792.642H496.638ZM494.053 792.778C494.189 792.778 494.325 792.642 494.461 792.642V788.985C493.372 789.121 492.42 789.527 491.468 790.204L494.053 792.778Z" fill="#D4D4D4"/>
<path d="M495.55 785.599C501.128 785.599 505.618 790.068 505.618 795.622C505.618 801.175 501.128 805.645 495.55 805.645C489.972 805.645 485.482 801.175 485.482 795.622C485.482 790.068 489.972 785.599 495.55 785.599ZM497.046 793.59L500.584 790.068C499.359 788.985 497.727 788.172 495.958 788.172V793.048C496.366 793.184 496.774 793.319 497.046 793.59ZM493.917 793.59C494.189 793.319 494.597 793.184 495.142 793.048V788.172C493.373 788.308 491.74 788.985 490.516 790.068L493.917 793.59ZM488.067 795.351H492.965C492.965 794.944 493.101 794.538 493.373 794.132L489.835 790.61C488.747 791.965 488.067 793.59 488.067 795.351ZM498.135 795.351H503.033C502.897 793.59 502.217 791.965 501.128 790.746L497.591 794.267C497.863 794.538 497.999 794.944 498.135 795.351ZM500.992 800.633C502.081 799.414 502.761 797.789 502.897 796.163H497.999C497.863 796.57 497.727 796.976 497.455 797.247L500.992 800.633ZM489.972 800.633L493.509 797.112C493.237 796.841 493.101 796.434 492.965 796.028H488.067C488.203 797.924 488.883 799.414 489.972 800.633ZM495.958 803.071C497.727 802.936 499.223 802.259 500.448 801.175L496.91 797.653C496.638 797.924 496.23 798.06 495.822 798.06V803.071H495.958ZM495.142 803.071V798.195C494.733 798.195 494.461 798.06 494.053 797.789L490.516 801.31C491.74 802.259 493.373 802.936 495.142 803.071ZM495.55 784.244C489.291 784.244 484.121 789.391 484.121 795.622C484.121 801.852 489.291 806.999 495.55 806.999C501.808 806.999 506.979 801.852 506.979 795.622C506.979 789.391 501.808 784.244 495.55 784.244ZM497.319 791.558V789.797C497.727 789.933 498.135 790.068 498.543 790.339L497.319 791.558ZM492.557 790.339C492.965 790.068 493.373 789.933 493.781 789.797V791.558L492.557 790.339ZM489.563 793.996C489.699 793.59 489.835 793.184 489.972 792.777L491.196 793.996H489.563ZM499.768 793.996L500.992 792.777C501.128 793.184 501.4 793.59 501.4 793.996H499.768ZM499.768 797.518H501.264C501.128 797.924 500.992 798.195 500.856 798.601L499.768 797.518ZM489.699 797.518H491.332L490.244 798.601C489.972 798.195 489.835 797.924 489.699 797.518ZM492.693 801.04L493.781 799.956V801.446C493.373 801.31 493.101 801.175 492.693 801.04ZM497.319 801.446V799.956L498.407 801.04C497.999 801.175 497.591 801.31 497.319 801.446Z" fill="white"/>
<path d="M476.23 793.049C476.23 792.643 476.639 792.236 477.047 792.236H483.441C483.85 792.236 484.258 792.643 484.258 793.049C484.258 793.455 483.85 793.862 483.441 793.862H477.047C476.639 793.997 476.23 793.591 476.23 793.049Z" fill="#D4D4D4"/>
<path d="M479.633 795.623C479.633 795.217 480.041 794.811 480.449 794.811H483.578C483.987 794.811 484.395 795.217 484.395 795.623C484.395 796.03 483.987 796.436 483.578 796.436H480.449C480.041 796.571 479.633 796.165 479.633 795.623Z" fill="#D4D4D4"/>
<path d="M537.999 793.049C537.999 792.643 537.591 792.236 537.183 792.236H531.06C530.652 792.236 530.244 792.643 530.244 793.049C530.244 793.455 530.652 793.862 531.06 793.862H537.183C537.591 793.997 537.999 793.591 537.999 793.049Z" fill="#D4D4D4"/>
<path d="M534.734 795.623C534.734 795.217 534.326 794.811 533.918 794.811H531.06C530.652 794.811 530.244 795.217 530.244 795.623C530.244 796.03 530.652 796.436 531.06 796.436H533.918C534.462 796.571 534.734 796.165 534.734 795.623Z" fill="#D4D4D4"/>
<path d="M238.539 719.501C238.539 715.844 241.532 713 245.07 713H388.065C391.739 713 394.596 715.98 394.596 719.501H238.539Z" fill="#D4D4D4"/>
<path d="M392.828 721.533H241.125V791.288H392.828V721.533Z" fill="#D4D4D4"/>
<path d="M264.662 731.691H251.057V751.738H264.662V731.691Z" fill="white"/>
<path d="M288.473 731.691H274.867V751.738H288.473V731.691Z" fill="white"/>
<path d="M312.283 731.691H298.678V751.738H312.283V731.691Z" fill="white"/>
<path d="M336.092 731.691H322.486V751.738H336.092V731.691Z" fill="white"/>
<path d="M359.903 731.691H346.297V751.738H359.903V731.691Z" fill="white"/>
<path d="M383.713 731.691H370.107V751.738H383.713V731.691Z" fill="white"/>
<path d="M389.563 759.459H244.799V763.522H389.563V759.459Z" fill="white"/>
<path d="M389.563 765.146H244.799V766.501H389.563V765.146Z" fill="white"/>
<path d="M210.512 806.322C204.662 806.322 199.764 801.582 199.764 795.622C199.764 789.798 204.526 784.922 210.512 784.922C216.363 784.922 221.261 789.663 221.261 795.622C221.261 801.582 216.363 806.322 210.512 806.322ZM206.566 801.175C207.383 801.717 208.335 802.124 209.424 802.259V798.602C209.288 798.602 209.288 798.602 209.152 798.467L206.566 801.175ZM211.601 802.259C212.689 802.124 213.641 801.717 214.458 801.175L211.873 798.602C211.737 798.602 211.737 798.737 211.601 798.737V802.259V802.259ZM203.845 796.841C203.981 797.925 204.39 798.873 205.07 799.686L207.655 797.112C207.655 796.977 207.519 796.977 207.519 796.841H203.845ZM215.954 799.686C216.635 798.873 217.043 797.925 217.179 796.841H213.505C213.505 796.977 213.369 796.977 213.369 797.112L215.954 799.686ZM217.179 794.674C217.043 793.59 216.635 792.642 215.954 791.694L213.369 794.268C213.369 794.403 213.505 794.539 213.505 794.674H217.179V794.674ZM207.383 794.674C207.383 794.539 207.519 794.403 207.519 794.268L204.934 791.694C204.254 792.507 203.981 793.59 203.709 794.674H207.383V794.674ZM211.601 792.642C211.737 792.642 211.873 792.778 212.009 792.778L214.594 790.204C213.777 789.527 212.689 789.121 211.601 788.985V792.642ZM209.016 792.778C209.152 792.778 209.288 792.642 209.424 792.642V788.985C208.335 789.121 207.383 789.527 206.43 790.204L209.016 792.778Z" fill="#D4D4D4"/>
<path d="M210.513 785.599C216.091 785.599 220.581 790.068 220.581 795.622C220.581 801.175 216.091 805.645 210.513 805.645C204.934 805.645 200.445 801.175 200.445 795.622C200.445 790.068 204.934 785.599 210.513 785.599ZM212.009 793.59L215.547 790.068C214.322 788.985 212.69 788.172 210.921 788.172V793.048C211.329 793.184 211.737 793.319 212.009 793.59ZM208.88 793.59C209.152 793.319 209.56 793.184 210.105 793.048V788.172C208.336 788.308 206.703 788.985 205.479 790.068L208.88 793.59ZM203.03 795.351H207.928C207.928 794.944 208.064 794.538 208.336 794.132L204.798 790.61C203.71 791.965 203.03 793.59 203.03 795.351ZM213.098 795.351H217.996C217.86 793.59 217.179 791.965 216.091 790.746L212.554 794.267C212.826 794.538 212.962 794.944 213.098 795.351ZM215.955 800.633C217.043 799.414 217.724 797.789 217.86 796.163H212.962C212.826 796.57 212.69 796.976 212.418 797.247L215.955 800.633ZM204.934 800.633L208.472 797.112C208.2 796.841 208.064 796.434 207.928 796.028H203.03C203.166 797.924 203.846 799.414 204.934 800.633ZM210.921 803.071C212.69 802.936 214.186 802.259 215.411 801.175L211.873 797.653C211.601 797.924 211.193 798.06 210.785 798.06V803.071H210.921ZM210.105 803.071V798.195C209.696 798.195 209.424 798.06 209.016 797.789L205.479 801.31C206.703 802.259 208.336 802.936 210.105 803.071ZM210.513 784.244C204.254 784.244 199.084 789.391 199.084 795.622C199.084 801.852 204.254 806.999 210.513 806.999C216.771 806.999 221.941 801.852 221.941 795.622C221.941 789.391 216.771 784.244 210.513 784.244ZM207.519 790.339C207.928 790.068 208.336 789.933 208.744 789.797V791.558L207.519 790.339ZM212.281 791.558V789.797C212.69 789.933 213.098 790.068 213.506 790.339L212.281 791.558ZM204.526 793.996C204.662 793.59 204.798 793.184 204.934 792.777L206.159 793.996H204.526ZM214.73 793.996L215.955 792.777C216.091 793.184 216.363 793.59 216.363 793.996H214.73ZM214.73 797.518H216.227C216.091 797.924 215.955 798.195 215.819 798.601L214.73 797.518ZM204.662 797.518H206.295L205.207 798.601C204.934 798.195 204.798 797.924 204.662 797.518ZM207.656 801.04L208.744 799.956V801.446C208.336 801.31 207.928 801.175 207.656 801.04ZM212.281 801.446V799.956L213.37 801.04C212.962 801.175 212.554 801.31 212.281 801.446Z" fill="white"/>
<path d="M186.702 806.322C180.851 806.322 175.953 801.582 175.953 795.622C175.953 789.798 180.715 784.922 186.702 784.922C192.552 784.922 197.45 789.663 197.45 795.622C197.45 801.582 192.552 806.322 186.702 806.322ZM187.79 802.259C188.878 802.124 189.831 801.717 190.647 801.175L188.062 798.602C187.926 798.602 187.926 798.602 187.79 798.737V802.259V802.259ZM182.756 801.175C183.572 801.717 184.525 802.124 185.613 802.259V798.602C185.477 798.602 185.477 798.602 185.341 798.467L182.756 801.175ZM180.035 796.841C180.171 797.925 180.579 798.873 181.259 799.686L183.844 797.112C183.844 796.977 183.708 796.977 183.708 796.841H180.035ZM192.144 799.686C192.824 798.873 193.232 797.925 193.368 796.841H189.695C189.695 796.977 189.559 796.977 189.559 797.112L192.144 799.686ZM193.368 794.674C193.232 793.59 192.824 792.642 192.144 791.694L189.695 794.268C189.695 794.403 189.831 794.539 189.831 794.674H193.368ZM183.572 794.674C183.572 794.539 183.708 794.403 183.708 794.268L181.123 791.694C180.443 792.507 180.171 793.59 179.899 794.674H183.572V794.674ZM187.79 792.642C187.926 792.642 188.062 792.778 188.198 792.778L190.783 790.204C189.967 789.527 188.878 789.121 187.79 788.985V792.642ZM185.205 792.778C185.341 792.778 185.477 792.642 185.613 792.642V788.985C184.525 789.121 183.572 789.527 182.62 790.204L185.205 792.778Z" fill="#D4D4D4"/>
<path d="M186.702 785.599C192.28 785.599 196.77 790.068 196.77 795.622C196.77 801.175 192.28 805.645 186.702 805.645C181.124 805.645 176.634 801.175 176.634 795.622C176.634 790.068 181.124 785.599 186.702 785.599ZM188.335 793.59L191.872 790.068C190.648 788.985 189.015 788.172 187.246 788.172V793.048C187.519 793.184 187.927 793.319 188.335 793.59ZM185.07 793.59C185.342 793.319 185.75 793.184 186.294 793.048V788.172C184.525 788.308 182.893 788.985 181.668 790.068L185.07 793.59ZM179.219 795.351H184.117C184.117 794.944 184.253 794.538 184.525 794.132L181.124 790.746C180.035 791.965 179.355 793.59 179.219 795.351ZM189.287 795.351H194.185C194.049 793.59 193.369 791.965 192.28 790.746L188.743 794.267C189.015 794.538 189.151 794.944 189.287 795.351ZM192.144 800.633C193.233 799.414 193.913 797.789 194.049 796.163H189.287C189.151 796.57 189.015 796.976 188.743 797.247L192.144 800.633ZM181.124 800.633L184.661 797.112C184.389 796.841 184.253 796.434 184.117 796.028H179.219C179.355 797.924 180.035 799.414 181.124 800.633ZM187.11 803.071C188.879 802.936 190.376 802.259 191.6 801.175L188.063 797.653C187.791 797.924 187.382 798.06 186.974 798.06V803.071H187.11ZM186.294 803.071V798.195C185.886 798.195 185.614 798.06 185.206 797.789L181.668 801.31C183.029 802.259 184.525 802.936 186.294 803.071ZM186.702 784.244C180.444 784.244 175.273 789.391 175.273 795.622C175.273 801.852 180.444 806.999 186.702 806.999C192.961 806.999 198.131 801.852 198.131 795.622C198.131 789.391 192.961 784.244 186.702 784.244ZM188.471 791.558V789.797C188.879 789.933 189.287 790.068 189.695 790.339L188.471 791.558ZM183.709 790.339C184.117 790.068 184.525 789.933 184.933 789.797V791.558L183.709 790.339ZM180.852 793.996C180.988 793.59 181.124 793.184 181.26 792.777L182.484 793.996H180.852ZM190.92 793.996L192.144 792.777C192.28 793.184 192.553 793.59 192.553 793.996H190.92ZM190.92 797.518H192.417C192.28 797.924 192.144 798.195 192.008 798.601L190.92 797.518ZM180.852 797.518H182.484L181.396 798.601C181.124 798.195 180.988 797.924 180.852 797.518ZM183.845 801.04L184.933 799.956V801.446C184.525 801.31 184.253 801.175 183.845 801.04ZM188.471 801.446V799.956L189.559 801.04C189.151 801.175 188.879 801.31 188.471 801.446Z" fill="white"/>
<path d="M167.383 793.049C167.383 792.643 167.791 792.236 168.199 792.236H174.594C175.002 792.236 175.41 792.643 175.41 793.049C175.41 793.455 175.002 793.862 174.594 793.862H168.199C167.791 793.997 167.383 793.591 167.383 793.049Z" fill="#D4D4D4"/>
<path d="M170.783 795.623C170.783 795.217 171.191 794.811 171.6 794.811H174.729C175.137 794.811 175.545 795.217 175.545 795.623C175.545 796.03 175.137 796.436 174.729 796.436H171.6C171.191 796.571 170.783 796.165 170.783 795.623Z" fill="#D4D4D4"/>
<path d="M229.152 793.049C229.152 792.643 228.744 792.236 228.335 792.236H222.213C221.805 792.236 221.396 792.643 221.396 793.049C221.396 793.455 221.805 793.862 222.213 793.862H228.335C228.744 793.997 229.152 793.591 229.152 793.049Z" fill="#D4D4D4"/>
<path d="M225.886 795.623C225.886 795.217 225.478 794.811 225.07 794.811H222.213C221.805 794.811 221.396 795.217 221.396 795.623C221.396 796.03 221.805 796.436 222.213 796.436H225.07C225.614 796.571 225.886 796.165 225.886 795.623Z" fill="#D4D4D4"/>
<path d="M121.258 806.322C115.408 806.322 110.51 801.582 110.51 795.622C110.51 789.798 115.272 784.922 121.258 784.922C127.109 784.922 132.007 789.663 132.007 795.622C132.007 801.582 127.109 806.322 121.258 806.322ZM117.313 801.175C118.129 801.717 119.081 802.124 120.17 802.259V798.602C120.034 798.602 120.034 798.602 119.898 798.467L117.313 801.175ZM122.347 802.259C123.435 802.124 124.388 801.717 125.204 801.175L122.619 798.602C122.483 798.602 122.483 798.737 122.347 798.737V802.259ZM114.591 796.841C114.728 797.925 115.136 798.873 115.816 799.686L118.401 797.112C118.401 796.977 118.265 796.977 118.265 796.841H114.591ZM126.7 799.686C127.381 798.873 127.789 797.925 127.925 796.841H124.251C124.251 796.977 124.115 796.977 124.115 797.112L126.7 799.686ZM127.925 794.674C127.789 793.59 127.381 792.642 126.7 791.694L124.251 794.268C124.251 794.403 124.388 794.539 124.388 794.674H127.925ZM118.129 794.674C118.129 794.539 118.265 794.403 118.265 794.268L115.68 791.694C115 792.507 114.728 793.59 114.455 794.674H118.129V794.674ZM122.347 792.642C122.483 792.642 122.619 792.778 122.755 792.778L125.34 790.204C124.524 789.527 123.435 789.121 122.347 788.985V792.642V792.642ZM119.762 792.778C119.898 792.778 120.034 792.642 120.17 792.642V788.985C119.081 789.121 118.129 789.527 117.177 790.204L119.762 792.778Z" fill="#D4D4D4"/>
<path d="M121.259 785.599C126.837 785.599 131.327 790.068 131.327 795.622C131.327 801.175 126.837 805.645 121.259 805.645C115.681 805.645 111.191 801.175 111.191 795.622C111.191 790.068 115.681 785.599 121.259 785.599ZM122.755 793.59L126.293 790.068C125.068 788.985 123.436 788.172 121.667 788.172V793.048C122.075 793.184 122.483 793.319 122.755 793.59ZM119.626 793.59C119.898 793.319 120.306 793.184 120.851 793.048V788.172C119.082 788.308 117.449 788.985 116.225 790.068L119.626 793.59ZM113.776 795.351H118.674C118.674 794.944 118.81 794.538 119.082 794.132L115.544 790.61C114.456 791.965 113.776 793.59 113.776 795.351ZM123.844 795.351H128.742C128.606 793.59 127.926 791.965 126.837 790.746L123.3 794.267C123.572 794.538 123.708 794.944 123.844 795.351ZM126.701 800.633C127.79 799.414 128.47 797.789 128.606 796.163H123.708C123.572 796.57 123.436 796.976 123.164 797.247L126.701 800.633ZM115.681 800.633L119.218 797.112C118.946 796.841 118.81 796.434 118.674 796.028H113.776C113.912 797.924 114.592 799.414 115.681 800.633ZM121.667 803.071C123.436 802.936 124.932 802.259 126.157 801.175L122.619 797.789C122.347 798.06 121.939 798.195 121.531 798.195V803.071H121.667ZM120.851 803.071V798.195C120.442 798.195 120.17 798.06 119.762 797.789L116.225 801.31C117.449 802.259 119.082 802.936 120.851 803.071ZM121.259 784.244C115 784.244 109.83 789.391 109.83 795.622C109.83 801.852 115 806.999 121.259 806.999C127.517 806.999 132.688 801.852 132.688 795.622C132.688 789.391 127.517 784.244 121.259 784.244ZM118.266 790.339C118.674 790.068 119.082 789.933 119.49 789.797V791.558L118.266 790.339ZM123.028 791.558V789.797C123.436 789.933 123.844 790.068 124.252 790.339L123.028 791.558ZM115.272 793.996C115.408 793.59 115.544 793.184 115.681 792.777L116.905 793.996H115.272ZM125.477 793.996L126.701 792.777C126.837 793.184 127.109 793.59 127.109 793.996H125.477ZM125.477 797.518H126.973C126.837 797.924 126.701 798.195 126.565 798.601L125.477 797.518ZM115.408 797.518H117.041L115.817 798.601C115.681 798.195 115.544 797.924 115.408 797.518ZM118.402 801.04L119.49 799.956V801.446C119.082 801.31 118.674 801.175 118.402 801.04ZM123.028 801.446V799.956L124.116 801.04C123.708 801.175 123.3 801.31 123.028 801.446Z" fill="white"/>
<path d="M97.4477 806.322C91.5972 806.322 86.6992 801.582 86.6992 795.622C86.6992 789.798 91.4612 784.922 97.4477 784.922C103.434 784.922 108.196 789.663 108.196 795.622C108.196 801.582 103.298 806.322 97.4477 806.322ZM98.5361 802.259C99.6246 802.124 100.577 801.717 101.393 801.175L98.8082 798.602C98.6722 798.602 98.6722 798.602 98.5361 798.737V802.259V802.259ZM93.502 801.175C94.3184 801.717 95.2708 802.124 96.3592 802.259V798.602C96.2232 798.602 96.2232 798.602 96.0871 798.467L93.502 801.175ZM90.7809 796.841C90.917 797.925 91.3251 798.873 92.0054 799.686L94.5905 797.112C94.5905 796.977 94.4544 796.977 94.4544 796.841H90.7809ZM102.89 799.686C103.57 798.873 103.978 797.925 104.114 796.841H100.441C100.441 796.977 100.305 796.977 100.305 797.112L102.89 799.686ZM104.114 794.674C103.978 793.59 103.57 792.642 102.89 791.694L100.441 794.268C100.441 794.403 100.577 794.539 100.577 794.674H104.114ZM94.3184 794.674C94.3184 794.539 94.4544 794.403 94.4544 794.268L91.8694 791.694C91.1891 792.507 90.917 793.59 90.6449 794.674H94.3184V794.674ZM98.5361 792.642C98.6722 792.642 98.8082 792.778 98.9443 792.778L101.529 790.204C100.713 789.527 99.6246 789.121 98.5361 788.985V792.642ZM95.9511 792.778C96.0871 792.778 96.2232 792.642 96.3592 792.642V788.985C95.2708 789.121 94.3184 789.527 93.366 790.204L95.9511 792.778Z" fill="#D4D4D4"/>
<path d="M97.4483 785.599C103.027 785.599 107.516 790.068 107.516 795.622C107.516 801.175 103.027 805.645 97.4483 805.645C91.87 805.645 87.3801 801.175 87.3801 795.622C87.3801 790.068 91.87 785.599 97.4483 785.599ZM99.0809 793.59L102.618 790.068C101.394 788.985 99.7612 788.172 97.9925 788.172V793.048C98.2646 793.184 98.6728 793.319 99.0809 793.59ZM95.8156 793.59C96.0877 793.319 96.4959 793.184 97.0401 793.048V788.172C95.2714 788.308 93.6387 788.985 92.4142 790.068L95.8156 793.59ZM89.9652 795.351H94.8632C94.8632 794.944 94.9993 794.538 95.2714 794.132L91.7339 790.61C90.7815 791.965 90.1012 793.59 89.9652 795.351ZM100.033 795.351H104.931C104.795 793.59 104.115 791.965 103.027 790.746L99.4891 794.267C99.7612 794.538 99.8973 794.944 100.033 795.351ZM102.891 800.633C103.979 799.414 104.659 797.789 104.795 796.163H99.8973C99.7612 796.57 99.6252 796.976 99.3531 797.247L102.891 800.633ZM91.87 800.633L95.4074 797.112C95.1353 796.841 94.9993 796.434 94.8632 796.028H89.9652C90.1012 797.924 90.7815 799.414 91.87 800.633ZM97.8564 803.071C99.6252 802.936 101.122 802.259 102.346 801.175L98.8088 797.653C98.5367 797.924 98.1286 798.06 97.7204 798.06V803.071H97.8564ZM97.0401 803.071V798.195C96.6319 798.195 96.3598 798.06 95.9516 797.789L92.4142 801.31C93.7747 802.259 95.2714 802.936 97.0401 803.071ZM97.4483 784.244C91.1897 784.244 86.0195 789.391 86.0195 795.622C86.0195 801.852 91.1897 806.999 97.4483 806.999C103.707 806.999 108.877 801.852 108.877 795.622C108.877 789.391 103.707 784.244 97.4483 784.244ZM99.217 791.558V789.797C99.6252 789.933 100.033 790.068 100.442 790.339L99.217 791.558ZM94.455 790.339C94.8632 790.068 95.2714 789.933 95.6795 789.797V791.558L94.455 790.339ZM91.5978 793.996C91.7339 793.59 91.87 793.184 92.006 792.777L93.2305 793.996H91.5978ZM101.666 793.996L102.891 792.777C103.027 793.184 103.299 793.59 103.299 793.996H101.666ZM101.666 797.518H103.163C103.027 797.924 102.891 798.195 102.754 798.601L101.666 797.518ZM91.5978 797.518H93.2305L92.1421 798.601C91.87 798.195 91.7339 797.924 91.5978 797.518ZM94.5911 801.04L95.6795 799.956V801.446C95.2714 801.31 94.9993 801.175 94.5911 801.04ZM99.217 801.446V799.956L100.305 801.04C99.8973 801.175 99.6252 801.31 99.217 801.446Z" fill="white"/>
<path d="M78.1289 793.049C78.1289 792.643 78.5371 792.236 78.9452 792.236H85.3399C85.7481 792.236 86.1562 792.643 86.1562 793.049C86.1562 793.455 85.7481 793.862 85.3399 793.862H78.9452C78.5371 793.997 78.1289 793.591 78.1289 793.049Z" fill="#D4D4D4"/>
<path d="M81.5312 795.623C81.5312 795.217 81.9394 794.811 82.3476 794.811H85.4769C85.8851 794.811 86.2932 795.217 86.2932 795.623C86.2932 796.03 85.8851 796.436 85.4769 796.436H82.3476C81.9394 796.571 81.5312 796.165 81.5312 795.623Z" fill="#D4D4D4"/>
<path d="M139.9 793.049C139.9 792.643 139.492 792.236 139.083 792.236H132.961C132.553 792.236 132.145 792.643 132.145 793.049C132.145 793.455 132.553 793.862 132.961 793.862H139.083C139.492 793.997 139.9 793.591 139.9 793.049Z" fill="#D4D4D4"/>
<path d="M136.634 795.623C136.634 795.217 136.226 794.811 135.818 794.811H132.961C132.553 794.811 132.145 795.217 132.145 795.623C132.145 796.03 132.553 796.436 132.961 796.436H135.818C136.362 796.571 136.634 796.165 136.634 795.623Z" fill="#D4D4D4"/>
<path d="M75 719.501C75 715.98 77.9932 713 81.5307 713H224.526C228.2 713 231.057 715.98 231.057 719.501H75Z" fill="#D4D4D4"/>
<path d="M229.152 721.533H77.4492V791.288H229.152V721.533Z" fill="#D4D4D4"/>
<path d="M101.123 731.691H87.5176V751.738H101.123V731.691Z" fill="white"/>
<path d="M124.932 731.691H111.326V751.738H124.932V731.691Z" fill="white"/>
<path d="M148.742 731.691H135.137V751.738H148.742V731.691Z" fill="white"/>
<path d="M172.553 731.691H158.947V751.738H172.553V731.691Z" fill="white"/>
<path d="M196.362 731.691H182.756V751.738H196.362V731.691Z" fill="white"/>
<path d="M220.172 731.691H206.566V751.738H220.172V731.691Z" fill="white"/>
<path d="M226.022 759.459H81.2578V763.522H226.022V759.459Z" fill="white"/>
<path d="M226.022 765.146H81.2578V766.501H226.022V765.146Z" fill="white"/>
<rect x="243.711" y="723.836" width="145.58" height="60.951" fill="#D4D4D4"/>
<rect x="80.4414" y="723.836" width="145.58" height="60.951" fill="#D4D4D4"/>
</g>
<defs>
<clipPath id="clip0">
<rect width="2500" height="960" fill="white"/>
</clipPath>
</defs>
</svg>
