<svg width="2500" height="960" viewBox="0 0 2500 960" fill="none" xmlns="http://www.w3.org/2000/svg">
<g clip-path="url(#clip0)">
<path opacity="0.66" d="M990.806 643.225V617.995H983.006V581.46H948.87V587.355H908.881V612.109H904.006V643.567H890.206V626.631H860.018V612.881H819.009V592.252H807.306V522.705H791.266V461.408H758.201V508.561H739.034V559.246H734.159V621.058H724.404V640.581H701.973V602.072H692.22V567.498H679.542V559.246H617.123V567.498H591.764V586.949H584.937V611.563H575.376V466.714H564.646V456.105H520.757V431.348H485.646V466.714V480.858V506.79H479.796V629.167H429.864V608.608H372.323V487.343H364.52V451.977H350.864V373H327.254V451.977H316.731V472.606H309.903V586.949H289.422V612.663H203.595V433.119H197.742V423.685H150.928V433.119H144.103V612.663H112.892V538.028H108.093V502.666H91.4361V494.414H56.325V502.666H34.8668V522.705H26.0891V586.949H12.4361V594.507H-4.14442V546.28H-5.88798V518.781H-32.2213V542.356H-55.6271V546.28H-58.7612V594.507H-79.0353V643.567H-91.999L-88.3957 968L1007 960.912L1003.4 643.225H990.806Z" fill="#E0E5ED" fill-opacity="0.36"/>
<path opacity="0.66" d="M1608.69 693.936V670.28H1615.93V636.023H1647.61V641.551H1684.73V664.76H1689.26V694.257H1702.07V678.376H1730.09V665.484H1768.15V646.142H1779.01V580.933H1793.9V523.458H1824.59V567.67H1842.39V615.195H1846.91V673.151H1855.97V691.456H1876.79V655.349H1885.84V622.932H1897.61V615.195H1955.55V622.932H1979.08V641.17H1985.42V664.249H1994.3V528.433H2004.26V518.486H2044.99V495.274H2077.58V528.433V541.696V566.01H2083.01V680.755V673.335L2083.01 603.62V489.917H2090.26V456.758H2102.93V417H2124.85V456.758H2134.61V476.1H2140.95V583.311H2159.96V607.422H2239.63V439.076H2245.06V430.23H2288.51V439.076H2294.85V607.422H2323.82V537.442H2328.27V504.285H2343.73V496.547H2376.32V504.285H2396.24V523.074H2404.39V583.311H2417.06V590.398H2432.45V545.179H2434.07V519.395H2458.51V541.5H2480.24V545.179H2483.15V590.398H2501.97V636.398H2514L2514 965H1597L1597 693.936H1608.69Z" fill="#F8F9FB"/>
<g clip-path="url(#clip1)">
<path d="M603.44 784.858V753.468V745.188H613.64V725.298V718.858H625.44V601.078H622.72V591.198H629.52C630.34 587.778 632.11 584.718 634.53 582.318C635.34 571.738 639.76 563.318 645.39 561.508V504.348H649.95V561.508C655.58 563.318 660.01 571.738 660.82 582.318C663.24 584.718 665 587.768 665.82 591.198H672.62V601.078H670.44V718.838H681.7V725.278V745.168H691.89V753.448V784.838H710.33V791.798V1035.57H585V791.818V784.858H603.44Z" fill="#F8F9FB"/>
<path d="M1146.23 667.169V586.189H1161.99V545.399H1158.09V530.319H1199.23V464.609H1203.67V530.319H1238.25V545.399H1234.66V586.189H1248.88V667.169H1258.92V850.639H1134.49V667.169H1146.23Z" fill="#F8F9FB"/>
<path d="M1436.21 657.629H1134.49V1034.9H1436.21V657.629Z" fill="#F8F9FB"/>
<path d="M1051.3 386.297H1057.14V462.537H1054.22H1051.3V386.297Z" fill="#F8F9FB"/>
<path d="M960.68 1012.01V955.745H973.94V953.885V721.865V713.345H997.56V620.925V617.795V610.785H1025.03V493.485H1022.25V480.835H1030.96C1033.49 470.335 1042.93 462.535 1054.21 462.535C1065.49 462.535 1074.93 470.335 1077.46 480.835H1086.16V493.485H1082.67V610.775H1110.85V617.785V620.915V713.335H1134.47V721.855V875.895V953.865V1035.57H1027.31H973.95H960.69H936.12V1011.99H960.68V1012.01Z" fill="#F8F9FB"/>
<path d="M1491.45 958.819V465.799H1496.52V442.399H1481.6V432.269H1446.5C1441.27 418.209 1427.98 408.089 1412.25 407.499V326.359H1406.79V407.669C1392.19 409.199 1380.03 418.979 1375.1 432.269H1346.12V442.399H1331.2V465.789H1336.27V958.819L1312.24 960.239V1035.59H1525.74V958.829H1491.45V958.819Z" fill="#F8F9FB"/>
<path d="M734.79 522.558V421.558H734.95V403.488H757.43V366.788H775.43V289.988H779.19V366.788H797.2V403.488H819.68V421.558H819.53V522.558H857.42V550.198V1034.89H819.53H806.33H748.68H734.79H696.89V550.198V522.558H734.79Z" fill="#F8F9FB"/>
<path d="M1528.18 709.907H1533.64V709.597H1544.15V695.887H1556.31V618.377H1549.86V609.397H1579.82V583.367H1654.55V609.397H1686.39V618.377H1678.06V695.887H1690.03V709.597H1700.73V709.907H1706.19V725.697H1700.73V1035.59H1533.64V725.697H1528.18V709.907Z" fill="#F8F9FB"/>
<path d="M855.79 812.077V702.917H849.41V689.457H884.51V627.077H881.31V613.607H888.84C888.84 595.117 903.59 580.077 921.97 579.587V516.227H925.89V579.707C943.28 581.227 956.93 595.827 956.93 613.607H964.05V627.077H960.15V689.457H993.3V702.917H986.37V812.067H1006.06V825.537H999.4V1035.58H842.35V825.547H837.39V812.077H855.79V812.077Z" fill="#F8F9FB"/>
<path d="M1110.01 646.258V562.098H1093.63V519.708H1097.69V504.028H1054.93V435.738H1050.31V504.028H1014.37V519.708H1018.1V562.098H1003.33V646.258H992.89V836.938H1122.21V646.258H1110.01Z" fill="#F8F9FB"/>
<path d="M1122.21 636.34H808.64V1028.43H1122.21V636.34Z" fill="#F8F9FB"/>
<path d="M1568.24 354.09H1574.3V433.33H1571.27H1568.24V354.09Z" fill="#F8F9FB"/>
<path d="M1474.06 1004.38V945.908H1487.85V943.968V702.848V693.988H1512.39V597.938V594.678V587.398H1540.95V465.498H1538.06V452.348H1547.11C1549.74 441.438 1559.55 433.328 1571.27 433.328C1582.99 433.328 1592.81 441.438 1595.44 452.348H1604.48V465.498H1600.86V587.398H1630.15V594.678V597.938V693.988H1654.69V702.848V862.948V943.978V1028.89H1543.3H1487.84H1474.05H1448.52V1004.38H1474.06V1004.38Z" fill="#F8F9FB"/>
<path d="M1509.29 495.71V390.75H1509.14V371.96H1485.77V333.81H1467.06V254H1463.15V333.81H1444.44V371.96H1421.07V390.75H1421.23V495.71H1381.85V524.44V1028.17H1421.23H1434.94H1494.86H1509.29H1548.68V524.44V495.71H1509.29Z" fill="#F8F9FB"/>
<path d="M815.89 690.408H810.22V690.098H799.3V675.838H786.67V595.288H793.37V585.948H762.23V558.898H684.56V585.948H651.47V595.288H660.13V675.838H647.69V690.098H636.57V690.408H630.89V706.828H636.57V1028.89H810.22V706.828H815.89V690.408Z" fill="#F8F9FB"/>
</g>
</g>
<defs>
<clipPath id="clip0">
<rect width="2500" height="960" fill="white"/>
</clipPath>
<clipPath id="clip1">
<rect width="1121.19" height="781.59" fill="white" transform="translate(585 254)"/>
</clipPath>
</defs>
</svg>
