<svg width="1280" height="720" viewBox="0 0 1280 720" fill="none" xmlns="http://www.w3.org/2000/svg">
<g clip-path="url(#clip0)">
<path opacity="0.66" d="M621.037 625.324V604.197H614.543V573.604H586.122V578.54H552.829V599.268H548.77V625.611H537.281V611.428H512.147V599.915H478.004V582.64H468.26V524.404H454.905V473.075H427.376V512.56H411.418V555.002H407.359V606.761H399.237V623.109H380.562V590.863H372.442V561.913H361.887V555.002H309.917V561.913H288.804V578.2H283.119V598.811H275.159V477.518H266.226V468.634H229.685V447.904H200.452V477.518V489.362V511.077H195.581V613.552V606.926L195.583 544.665V443.121H189.086V413.506H177.717V378H158.06V413.506H149.298V430.781H143.614V526.528H126.562V548.061H55.1039V397.715H50.2312V389.816H11.255V397.715H5.57243V548.061H-20.413V485.563H-24.408V455.952H-38.2765V449.041H-67.5091V455.952H-85.3746V472.732H-92.6828V526.528H-104.05V532.857H-117.854V492.473H-119.306V469.446H-141.231V489.187H-160.718V492.473H-163.327V532.857H-180.207V573.939H-191V634.312H631.521V625.324H621.037Z" fill="#F2F2F2"/>
<path opacity="0.66" d="M634.551 629.163V615.909H638.61V596.715H656.37V599.812H677.175V612.817H679.712V629.343H686.891V620.445H702.598V613.222H723.934V602.385H730.023V565.849H738.368V533.647H755.572V558.418H765.544V585.046H768.08V617.518H773.156V627.774H784.826V607.544H789.9V589.381H796.497V585.046H828.973V589.381H842.167V599.599H845.719V612.53H850.693V536.435H856.276V530.861H879.111V517.856H897.378V536.435V543.865V557.488H900.422V621.778V617.621L900.421 578.56V514.855H904.481V496.276H911.586V474H923.87V496.276H929.345V507.113H932.897V567.182H943.553V580.691H988.208V486.369H991.253V481.413H1015.61V486.369H1019.16V580.691H1035.4V541.482H1037.9V522.904H1046.56V518.569H1064.83V522.904H1075.99V533.432H1080.56V567.182H1087.66V571.153H1096.29V545.817H1097.2V531.37H1110.9V543.755H1123.08V545.817H1124.71V571.153H1135.26V596.926H1142V634.802H628V629.163H634.551Z" fill="#E0E5ED" fill-opacity="0.48"/>
<path opacity="0.66" d="M1144.57 628.477V613.146H1149.26V590.945H1169.79V594.528H1193.83V609.569H1196.76V628.686H1205.06V618.394H1223.21V610.038H1247.87V597.503H1254.9V555.242H1264.55V517.994H1284.43V546.647H1295.95V577.447H1298.88V615.007H1304.75V626.871H1318.23V603.47H1324.1V582.461H1331.72V577.447H1369.25V582.461H1384.5V594.281H1388.61V609.238H1394.35V521.218H1400.81V514.771H1427.19V499.728H1448.3V521.218V529.813V545.571H1451.82V619.935V615.126L1451.82 569.945V496.257H1456.51V474.766H1464.72V449H1478.92V474.766H1485.25V487.302H1489.35V556.784H1501.67V572.409H1553.27V463.307H1556.79V457.574H1584.94V463.307H1589.04V572.409H1607.81V527.056H1610.69V505.568H1620.71V500.553H1641.82V505.568H1654.72V517.745H1660V556.784H1668.21V561.377H1678.18V532.071H1679.22V515.36H1695.06V529.686H1709.13V532.071H1711.02V561.377H1723.21V591.189H1731V635H1137V628.477H1144.57Z" fill="#E0E5ED" fill-opacity="0.48"/>
<g clip-path="url(#clip1)">
<path d="M279.717 634.001H313.792C311.409 633.784 309.079 633.675 306.696 633.621C297.865 633.35 289.035 633.567 279.717 633.567V634.001V634.001Z" fill="#D4D4D4"/>
<path d="M388.876 633.999C388.388 633.619 387.738 633.402 386.709 633.402C376.524 633.511 366.285 633.511 356.101 633.402C355.071 633.402 354.367 633.565 353.934 633.945H388.876V633.999Z" fill="#D4D4D4"/>
<path d="M105.764 634H134.205C133.772 633.892 133.338 633.783 132.905 633.675C123.804 631.233 114.648 630.907 105.764 634Z" fill="#D4D4D4"/>
<path d="M374.305 630.636C376.147 630.364 377.989 630.039 379.831 629.984C382.811 629.822 383.84 628.736 383.027 625.86C382.54 624.069 383.027 623.31 384.598 622.496C387.578 620.868 390.503 618.968 391.966 615.604C392.291 614.898 392.941 614.356 393.591 613.542C397.113 615.387 400.417 617.557 403.993 618.86C409.464 620.813 412.336 624.503 413.04 630.147C413.365 633.023 413.148 633.566 410.277 633.512C409.302 633.512 408.706 633.674 408.327 634.054H432.597C432.597 633.837 432.597 633.62 432.597 633.403H416.019C417.103 629.713 418.024 626.511 418.999 623.255C419.649 621.03 418.674 619.945 416.615 619.24C414.828 618.588 413.04 617.666 411.415 616.581C408.598 614.627 406.16 612.185 403.234 610.503C400.688 609.037 399.875 605.89 401.988 603.665C404.805 600.68 407.731 597.696 410.331 594.494C411.523 592.975 412.661 591.075 412.931 589.23C413.961 582.176 414.448 575.067 415.423 568.012C416.344 561.609 415.261 562.857 421.545 562.748C423.875 562.694 424.796 563.779 425.662 565.787C427.558 570.183 427.45 574.415 425.283 578.811C424.85 578.703 424.145 578.594 423.17 578.431C424.904 580.765 426.583 580.765 427.721 578.594C430.755 573.005 429.509 567.144 428.588 561.392C428.425 560.469 427.233 559.384 426.312 558.895C424.254 557.81 422.087 556.779 419.866 556.29C416.453 555.531 412.931 555.259 409.464 554.771C406.81 554.391 405.835 552.98 405.564 550.484C405.347 548.53 404.589 546.522 403.559 544.786C402.313 542.615 399.821 542.073 397.763 543.049C395.433 544.135 392.941 547.662 393.483 549.507C394.296 552.22 395.433 554.825 396.408 557.43C394.891 559.221 393.104 561.283 391.37 563.345C390.287 564.702 389.366 564.702 388.066 563.508C385.574 561.283 384.544 558.624 384.869 555.314C385.086 553.089 384.49 551.027 381.998 550.538C381.131 550.375 379.939 550.864 379.127 551.461C378.639 551.786 378.206 553.089 378.477 553.523C381.348 558.895 384.327 564.268 387.415 569.531C388.824 571.865 390.07 571.973 392.345 570.345C393.483 569.531 394.566 568.717 396.192 567.469C396.192 569.857 396.246 571.485 396.192 573.167C396.137 574.415 395.867 575.664 395.704 576.912C395.379 579.571 395.162 582.23 394.675 584.835C393.971 588.47 392.887 591.998 392.183 595.634C391.749 597.967 392.237 600.68 391.316 602.797C389.528 606.921 388.12 611.1 384.869 614.79C381.402 618.697 377.881 622.387 373.764 625.534C372.03 626.837 370.134 627.976 368.184 629.225C370.08 630.907 372.138 630.961 374.305 630.636Z" fill="#D4D4D4"/>
<path d="M444.188 566.276C444.243 566.819 444.351 567.416 444.73 567.796C445.705 568.718 446.789 569.532 447.818 570.4C448.631 569.206 449.768 568.121 450.256 566.819C450.743 565.571 450.635 564.105 450.798 562.26C452.748 565.571 452.748 569.369 451.719 572.897C449.335 581.254 449.497 589.665 451.881 598.022C452.639 600.681 453.777 603.394 453.831 606.108C453.994 611.372 455.998 615.713 459.086 619.729C461.849 623.31 461.849 626.349 459.357 630.148C458.653 631.179 458.057 632.264 457.407 633.349C456.377 633.458 455.24 633.621 453.831 633.784C453.831 633.892 453.831 633.946 453.831 634.001H477.993C477.505 633.567 476.801 633.404 475.609 633.404C471.33 633.567 466.996 633.458 462.499 633.458C466.021 628.194 468.079 627.055 464.341 621.031C463.095 618.969 462.77 616.256 462.174 613.868C461.578 611.643 461.199 609.309 460.657 607.084C459.845 603.774 460.386 600.627 461.795 597.208C462.553 597.588 462.987 598.239 463.203 598.89C463.962 601.332 464.72 603.774 465.316 606.27C465.695 607.844 465.641 609.526 466.021 611.1C466.129 611.697 466.779 612.511 467.267 612.62C467.754 612.728 468.783 612.186 468.946 611.697C469.65 609.798 470.734 607.736 470.463 605.891C469.921 602.255 468.567 598.727 467.483 594.875C469.325 593.735 467.754 592.324 467.321 591.564C468.838 587.223 470.571 583.479 471.33 579.571C471.871 576.695 471.655 573.276 470.571 570.563C468.242 564.485 469 558.462 469.704 552.384C469.704 552.167 470.084 552.004 470.029 552.058C473.009 553.306 475.826 554.337 478.589 555.64C479.293 555.965 479.835 556.834 480.268 557.593C481.135 559.167 481.785 560.849 482.652 562.369C484.169 565.028 484.927 567.633 483.356 570.563C482.76 571.757 482.544 573.114 481.948 575.122C483.248 573.656 483.952 572.842 484.711 572.028C485.523 573.385 486.282 574.796 486.986 575.99C487.04 575.284 487.148 574.253 487.257 573.168C487.473 573.114 487.636 573.059 487.853 573.005C488.557 574.09 489.261 575.122 490.345 576.75C489.965 575.013 489.749 573.873 489.37 572.137C490.832 573.059 491.645 573.602 492.891 574.416C491.807 573.059 491.049 572.191 490.128 571.052C491.211 570.834 491.862 570.726 492.457 570.617C491.374 569.912 490.074 569.532 489.532 568.664C488.178 566.493 486.661 564.214 486.173 561.826C484.981 555.803 482.381 551.19 477.126 547.771C473.063 545.112 469.217 542.182 464.395 541.205C460.657 540.445 459.411 538.709 460.007 534.639C460.657 530.569 458.436 527.53 455.511 527.476C453.831 527.421 451.448 528.127 450.635 529.375C449.172 531.6 448.197 534.422 449.714 537.244C451.556 540.662 451.339 542.019 448.576 544.515C447.222 545.709 446.03 547.066 444.622 548.205C442.996 549.508 442.238 551.136 442.509 553.198C443.159 557.539 443.647 561.881 444.188 566.276Z" fill="#D4D4D4"/>
<path d="M199.269 633.999C190.33 630.797 181.337 630.797 172.398 633.999H199.269Z" fill="#D4D4D4"/>
<path d="M198.51 529.861C201.11 532.411 203.873 534.039 207.611 533.66C208.749 533.551 209.941 533.822 211.132 533.931C219.421 534.745 227.71 535.016 235.728 531.977C236.811 531.543 237.949 531.326 239.249 530.946C239.52 531.923 239.791 532.683 239.899 533.443C240.874 540.226 241.849 547.009 242.824 553.847C243.312 557.211 243.312 560.304 240.766 563.235C239.736 564.429 239.791 566.816 239.845 568.607C239.845 569.313 241.199 570.018 241.958 570.669C243.149 571.7 243.854 572.731 243.041 574.414C242.716 575.065 242.716 576.042 242.987 576.747C244.016 579.298 244.937 581.957 246.346 584.29C250.246 590.531 252.142 597.26 253.226 604.532C253.876 608.927 256.585 613.051 258.427 617.501C257.289 618.207 255.122 619.292 256.151 621.68C257.018 623.742 258.264 625.967 259.998 627.269C263.031 629.548 266.553 631.122 270.562 633.347H242.879C245.75 625.533 245.1 620.974 240.657 617.393C236.865 614.3 231.123 613.811 227.222 616.524C220.83 620.974 220.342 626.835 224.134 633.401C223.43 633.51 223.105 633.618 222.78 633.564C221.534 633.347 220.721 633.51 220.234 634.053H273.27C273.054 633.618 272.783 633.13 272.566 632.587C275.221 629.386 275.058 629.548 272.078 625.587C270.67 623.742 269.911 621.3 269.261 619.021C268.015 614.625 267.744 609.795 265.74 605.834C263.248 600.896 263.085 595.957 262.815 590.748C262.598 586.515 264.006 583.042 266.769 579.786C269.37 582.282 273.649 583.205 275.004 587.438C275.383 588.632 276.033 589.717 276.575 590.911C278.525 595.089 281.18 598.617 285.459 600.679C288.547 602.144 290.227 601.167 290.769 597.857C290.931 596.989 290.823 595.74 291.364 595.306C294.181 592.973 293.531 589.717 293.64 586.786C293.748 583.639 290.335 578.809 288.439 578.104C287.897 576.204 287.518 574.794 287.03 573.383C286.543 572.026 285.405 570.669 285.568 569.421C286.11 565.026 283.943 561.661 281.776 558.405C279.934 555.638 277.442 553.25 275.221 550.645C277.55 547.28 277.496 545.761 274.841 543.862C274.408 543.536 273.974 543.156 273.487 542.993C270.182 541.908 269.207 539.086 268.449 536.156C268.015 534.419 267.474 532.629 267.474 530.838C267.474 528.341 267.907 525.791 268.232 522.589C272.566 525.411 276.033 527.745 279.609 529.969C281.234 531.001 281.884 532.357 281.83 534.257C281.667 539.032 282.371 543.807 279.554 548.203C279.067 548.908 280.15 551.73 280.475 551.73C282.588 551.73 284.972 551.947 286.705 550.157C287.301 549.505 287.735 548.529 288.439 548.203C290.768 547.009 290.281 545.544 288.981 544.079C287.681 542.559 287.735 541.203 288.493 539.412C289.956 535.885 289.902 532.249 287.626 529.101C286.489 527.527 286.597 526.496 287.789 525.085C288.71 524 289.956 522.643 288.222 521.124C280.367 514.178 272.024 508.371 260.756 509.565C257.993 509.837 256.53 508.1 257.722 505.495C259.185 502.294 258.806 499.58 257.668 496.433C256.422 492.96 254.743 490.192 250.95 489.378C247.104 488.564 244.016 490.409 241.524 492.96C240.82 493.665 240.766 495.51 241.091 496.65C242.499 502.022 244.07 507.286 245.641 512.767C245.533 512.876 245.208 513.201 244.937 513.201C239.845 513.418 237.136 516.946 234.427 520.636C233.236 522.264 231.556 523.62 229.985 524.977C229.281 525.574 228.252 526.008 227.331 526.171C221.967 526.931 216.604 527.473 211.241 528.341C207.232 528.993 203.981 528.559 201.706 524.706C200.785 523.132 196.722 522.264 195.584 523.295C194.013 524.706 193.092 526.551 193.58 528.07C195.476 528.613 197.426 528.776 198.51 529.861Z" fill="#D4D4D4"/>
<path d="M85.068 633.998C84.5805 633.564 83.7679 633.402 82.6302 633.402C70.7119 633.456 58.7936 633.456 46.8752 633.293C45.5751 633.293 44.7083 633.51 44.2207 633.998H85.068Z" fill="#D4D4D4"/>
<path d="M104.464 582.825C105.059 583.856 106.035 585.375 106.956 585.43C108.364 585.538 110.639 585.05 111.127 584.073C113.077 580.22 117.249 579.406 120.066 576.367C121.853 583.313 123.641 589.662 124.996 596.066C125.483 598.345 126.242 600.082 127.975 601.601C128.734 602.306 129.438 603.175 129.817 604.152C130.955 606.865 131.93 609.578 132.905 612.346C133.447 613.919 134.205 615.547 134.368 617.175C134.801 621.191 135.018 625.207 135.289 629.223C135.397 630.742 135.289 632.262 135.289 633.944H140.435C140.923 632.587 141.356 631.285 141.248 630.091C140.923 626.726 139.839 623.416 138.864 620.16C137.401 615.385 137.943 610.609 137.889 606.105C141.464 606.105 144.661 606.376 147.749 605.997C149.482 605.78 151.216 604.748 152.787 603.826C154.575 602.741 156.092 601.113 157.933 600.244C162.972 597.857 165.626 594.112 165.464 588.577C165.409 586.949 165.897 585.972 167.089 584.941C168.877 583.422 170.664 581.414 169.743 578.863C168.497 575.499 167.035 571.917 162.917 571.157C161.563 570.94 159.83 571.375 158.638 572.134C157.229 573.003 156.254 574.522 155.062 575.77C154.575 576.313 154.033 576.801 153.058 577.778C152.841 574.142 152.679 571.212 152.516 568.173C151.541 568.553 150.782 568.716 150.241 569.095C149.807 569.421 149.211 570.452 149.374 570.615C150.837 572.297 149.753 573.274 148.561 574.413C147.532 575.499 146.665 576.747 145.744 577.941C145.528 577.778 145.257 577.669 145.04 577.507C145.148 576.421 145.203 575.282 145.257 574.685C144.173 575.39 143.036 576.204 141.844 576.91C140.435 577.724 138.756 578.266 137.672 579.352C135.885 581.251 134.422 583.476 132.851 585.592C132.526 585.538 132.255 585.538 131.93 585.484C130.142 580.329 128.409 575.119 126.567 569.964C125.104 565.839 121.149 564.7 118.115 567.793C116.165 569.747 114.648 572.134 113.131 574.468C111.181 577.507 110.206 577.669 107.931 574.793C106.685 573.274 105.764 571.483 104.518 569.964C103.976 569.258 103.001 568.933 102.242 568.444C101.755 569.258 100.942 570.072 100.888 570.94C100.725 573.762 100.4 576.53 102.784 578.918C103.759 579.84 103.759 581.631 104.464 582.825ZM140.273 581.794C140.706 581.143 141.952 580.925 142.873 580.763C145.419 580.329 148.02 580.057 150.999 579.677C150.945 580.057 150.999 581.305 150.566 581.577C147.153 583.585 143.631 585.43 140.164 587.275C139.243 587.763 138.268 588.034 136.535 588.686C137.997 585.972 138.972 583.747 140.273 581.794Z" fill="#D4D4D4"/>
<path d="M69.574 568.607C69.6823 570.29 69.6823 571.809 69.9532 573.274C71.0909 580.112 70.2783 586.841 69.6823 593.624C69.574 594.601 69.1948 595.524 68.8156 596.446C67.2987 599.973 68.8697 603.338 69.2489 606.811C69.6282 610.447 69.2489 614.137 69.1406 617.827C69.1406 618.261 68.9239 618.695 68.653 619.075C67.4612 620.595 66.4861 623.145 64.2649 622.006C63.2898 621.463 63.2356 618.75 63.2356 616.959C63.1814 615.168 63.7232 613.377 63.9399 611.641C64.1566 609.796 63.669 608.439 62.3688 606.865C61.177 605.454 61.1228 603.012 60.5811 601.059C60.3102 600.028 60.2019 598.942 59.7143 598.02C59.4434 597.586 58.3599 597.152 57.9265 597.314C57.3306 597.586 56.7347 598.454 56.6805 599.051C56.6264 601.222 56.7347 603.392 56.8972 605.563C57.2223 609.796 57.5473 613.974 57.9807 618.207C58.1974 620.052 58.6308 621.897 58.9559 623.742C59.3351 626.13 60.0935 628.518 59.9852 630.905C59.8226 634.053 57.0598 632.75 55.3262 632.859C53.4301 632.967 52.7258 631.828 53.2676 630.037C53.5384 629.115 54.1885 628.192 54.2969 627.269C54.5136 625.262 54.8386 623.145 54.4594 621.246C53.8093 618.098 52.3466 615.06 51.6423 611.912C51.1548 609.741 51.3715 607.462 51.2631 605.183C51.1548 603.501 51.2089 601.764 50.9381 600.082C50.8297 599.377 50.2338 598.237 49.7462 598.183C47.1459 597.803 47.1459 595.849 46.8208 593.95C45.7915 587.981 46.1166 582.445 48.5544 576.53C50.613 571.592 51.9132 565.677 49.5295 559.816C49.2587 560.956 48.9336 562.041 48.6628 563.181C48.2294 565.406 47.9043 567.631 47.3626 569.801C47.2542 570.29 46.6583 570.724 46.1707 570.995C44.8706 571.701 43.5704 572.352 42.1077 573.112C42.1077 572.786 41.9452 571.809 41.9993 570.887C42.1077 569.367 42.1619 567.848 42.4869 566.383C43.5704 561.39 44.5455 556.343 46.0624 551.459C46.4958 549.994 48.3377 548.909 49.6921 547.823C50.5047 547.172 51.6423 546.847 52.5633 546.358C55.272 544.947 55.5971 544.079 54.1885 541.257C52.7258 538.218 53.3759 535.396 55.0553 532.846C56.8972 530.024 60.9061 529.861 62.423 532.846C63.5607 535.016 63.8315 538.001 63.3981 540.443C63.0189 542.505 62.748 543.699 64.9692 544.35C70.8742 546.033 74.233 550.7 77.2667 555.475C78.5669 557.537 79.3795 559.979 80.3005 562.313C81.2214 564.592 80.0838 566.057 77.971 566.654C75.3706 567.305 72.6619 567.848 69.574 568.607ZM74.8289 561.878C73.6912 560.793 72.8786 560.033 71.5784 558.785C71.1992 560.902 70.9283 562.367 70.6033 563.832C70.82 563.941 71.0909 564.049 71.3076 564.158C72.3369 563.452 73.4204 562.801 74.8289 561.878Z" fill="#D4D4D4"/>
<path d="M136.858 534.203C136.75 537.784 133.662 540.66 130.141 540.498C126.565 540.389 123.64 537.35 123.694 533.823C123.748 530.187 126.999 527.148 130.574 527.311C134.15 527.582 136.967 530.621 136.858 534.203Z" fill="#D4D4D4"/>
<path d="M369.863 615.279C369.809 618.698 367.263 621.303 363.904 621.357C360.22 621.411 357.566 618.698 357.62 615.062C357.674 611.48 360.274 608.93 363.85 609.038C367.425 609.147 369.918 611.698 369.863 615.279Z" fill="#D4D4D4"/>
</g>
<g clip-path="url(#clip2)">
<path d="M1274.54 573.07C1274.54 573.07 1276.33 575.529 1276.33 578.478C1276.33 581.428 1276.49 586.672 1278.93 595.03C1279.09 598.636 1279.09 599.455 1279.09 599.455C1279.09 599.455 1279.42 602.405 1279.74 603.388C1279.09 605.027 1279.09 608.796 1279.09 608.796C1279.09 608.796 1279.09 621.087 1278.61 621.415C1278.12 622.398 1277.95 628.462 1278.61 632.722C1276.98 633.542 1276.82 634.197 1276.82 634.197C1276.82 634.197 1276.16 636.983 1279.74 635.836C1282.51 634.853 1281.21 632.067 1281.21 632.067C1281.21 632.067 1281.37 628.953 1283.97 628.134C1285.76 625.84 1283 623.873 1283 623.873C1283 623.873 1283.65 613.385 1285.11 611.582C1286.09 607.321 1285.11 601.585 1285.11 601.585C1285.11 601.585 1285.76 598.472 1285.28 595.522C1286.25 591.916 1285.93 584.05 1285.93 584.05L1286.25 577.003C1286.25 577.003 1283.81 577.659 1279.91 575.201C1276.49 574.217 1274.54 573.07 1274.54 573.07Z" fill="#D4D4D4"/>
<path d="M1274.54 573.071C1274.54 573.071 1270.8 565.86 1269.49 564.877C1268.19 563.074 1266.89 552.914 1266.89 552.914C1266.89 552.914 1265.43 549.472 1265.91 544.556C1264.94 540.787 1262.82 539.148 1262.82 539.148C1262.82 539.148 1257.13 529.643 1257.13 528.987C1257.13 528.332 1257.45 519.155 1257.94 517.68C1259.57 517.844 1260.87 518.007 1260.87 518.007C1260.87 518.007 1260.71 528.66 1262.98 530.79C1264.45 533.248 1266.89 537.017 1266.89 537.017C1266.89 537.017 1270.63 540.131 1270.8 541.442C1271.77 541.606 1272.26 541.77 1272.26 541.77L1271.77 547.997L1279.91 543.737C1279.91 543.737 1281.37 544.72 1282.35 544.72C1283.81 545.211 1286.91 547.997 1286.91 547.997C1286.91 547.997 1288.86 549.472 1291.62 549.472C1294.55 550.619 1296.34 553.897 1296.34 553.897L1299.27 556.028C1299.27 556.028 1297.16 556.028 1296.67 559.141C1294.88 557.339 1290.81 554.553 1290.81 554.553C1290.81 554.553 1287.39 552.75 1286.25 553.078C1285.12 553.242 1282.67 551.603 1282.67 551.603C1282.67 551.603 1280.4 557.83 1282.84 560.944C1285.28 561.763 1286.25 563.074 1286.25 563.074C1286.25 563.074 1282.35 567.991 1287.72 575.038C1287.56 576.512 1286.25 577.004 1286.25 577.004C1286.25 577.004 1283.81 577.823 1279.91 575.201C1277.14 574.546 1274.54 573.071 1274.54 573.071Z" fill="#D4D4D4"/>
<path d="M1258.27 517.514C1258.27 517.514 1258.92 511.286 1258.27 509.975C1257.45 508.009 1259.89 507.845 1259.89 507.845C1259.89 507.845 1259.08 507.025 1259.89 506.698C1259.89 505.878 1260.87 505.714 1260.87 505.714L1261.03 504.239C1261.03 504.239 1261.52 503.748 1261.85 504.403C1261.85 505.059 1261.52 506.206 1261.52 506.206C1261.52 506.206 1262.5 506.206 1262.33 507.681C1262.17 509.32 1263.31 509.156 1261.52 512.925C1260.87 516.367 1260.87 517.678 1260.87 517.678C1260.87 517.678 1260.22 518.989 1258.27 517.514Z" fill="#D4D4D4"/>
<path d="M1272.42 541.931C1272.42 541.931 1273.24 539.473 1271.61 537.671C1269.98 535.868 1269.17 535.376 1269.98 533.901C1269.98 533.901 1269.82 533.41 1270.31 533.082C1270.14 532.59 1270.63 532.263 1270.63 532.263L1270.79 530.788C1270.79 530.788 1271.28 530.46 1271.93 530.46C1272.42 528.657 1275.19 526.363 1275.19 526.363C1275.19 526.363 1279.09 524.396 1278.77 533.082C1280.4 532.426 1280.88 534.065 1280.88 534.065C1280.88 534.065 1282.67 536.196 1279.09 538.654C1277.95 541.112 1280.07 543.57 1280.07 543.57L1271.93 547.831L1272.42 541.931Z" fill="#D4D4D4"/>
<path d="M1270.31 491.13C1270.31 491.13 1293.9 491.786 1291.79 507.846C1292.28 518.662 1284.3 512.271 1284.3 512.271C1284.3 512.271 1270.63 505.388 1245.9 514.237C1239.55 517.843 1236.14 520.793 1236.14 520.793C1236.14 520.793 1227.84 524.89 1228 528.823C1228.16 532.92 1236.79 531.281 1236.79 531.281C1236.79 531.281 1254.85 528.167 1271.28 531.445C1271.77 530.298 1272.42 529.151 1272.42 529.151C1272.42 529.151 1250.29 526.856 1235.49 529.151C1223.77 530.789 1230.93 526.201 1230.93 526.201L1236.62 521.448C1236.62 521.448 1252.57 513.582 1260.06 513.746C1265.1 512.107 1269.98 511.943 1282.19 514.729C1282.19 514.729 1289.35 518.498 1292.28 513.746C1294.23 506.863 1292.6 498.669 1288.7 495.227C1284.63 491.786 1269.49 489 1269.49 489C1269.49 489 1268.84 489.819 1270.31 491.13Z" fill="#D4D4D4"/>
<path d="M1275.51 526.2C1275.51 526.2 1281.7 524.725 1284.95 531.444C1290.32 533.738 1284.95 535.705 1284.95 535.705C1284.95 535.705 1284.14 538.819 1282.35 538.982C1280.56 539.146 1278.93 541.113 1278.93 541.113C1278.93 541.113 1278.44 539.638 1279.09 538.655C1279.74 537.671 1283.98 533.574 1278.93 532.755C1278.77 525.544 1275.51 526.2 1275.51 526.2Z" fill="#D4D4D4"/>
<path d="M1261.2 504.077L1269.49 489L1270.96 489.656L1262.01 504.241L1261.2 504.077Z" fill="#D4D4D4"/>
</g>
<g clip-path="url(#clip3)">
<path d="M839.262 532.673C839.262 532.673 836.422 538.002 838.466 545.764C832.787 545.301 828.129 546.112 828.129 546.112C828.129 546.112 823.585 545.185 823.358 547.849C822.563 550.051 820.064 553.41 820.064 553.41C820.064 553.41 816.769 559.782 815.633 561.173C814.611 562.447 811.544 562.331 810.294 561.173C809.045 560.014 807.227 560.825 807 562.447C807.341 564.301 810.862 566.27 810.862 566.27C810.862 566.27 813.021 569.282 813.816 569.398C814.611 569.514 816.315 569.63 816.656 567.66C816.997 565.691 819.723 560.362 820.404 560.014C821.086 559.667 822.904 557.118 823.699 556.075C824.608 555.032 826.084 553.41 826.766 551.673C828.47 551.673 834.831 554.917 834.831 554.917C834.831 554.917 835.172 562.679 834.491 564.648C835.627 566.502 842.102 566.965 842.102 566.965L843.578 571.831C843.578 571.831 843.806 573.453 847.1 574.959C850.394 576.581 853.348 579.825 853.348 579.825C853.348 579.825 853.802 580.173 854.597 580.636C855.279 581.099 856.301 581.91 857.21 582.721C858.119 583.532 859.028 584.459 859.596 585.27C861.299 587.935 862.776 589.904 862.095 593.264C863.117 596.624 865.503 593.959 865.503 593.959C865.503 593.959 866.752 591.99 867.093 589.325C868.343 587.587 869.138 583.764 869.138 583.764C869.138 583.764 868.683 583.069 867.32 582.606C866.639 582.374 865.616 582.142 864.367 582.142C859.936 581.099 857.551 576.697 854.484 573.801C853.916 573.221 853.234 572.526 852.439 571.947C851.644 571.368 850.849 570.904 849.94 570.557C848.122 567.081 849.372 563.258 849.372 563.258C849.372 563.258 849.258 557.465 850.167 556.307C850.281 556.075 850.394 555.727 850.508 555.38C850.508 554.917 850.621 554.337 850.508 553.758C850.508 551.093 850.053 548.429 849.826 545.996C849.599 543.099 850.508 540.667 851.871 538.465C852.212 537.886 852.439 537.307 852.666 536.843C853.461 535.221 854.143 533.947 854.143 533.831C854.143 533.484 858.232 528.27 858.346 527.459C858.46 526.648 860.845 522.593 861.299 522.593C861.867 522.246 866.525 513.673 866.525 513.673C866.525 513.673 868.343 512.051 869.024 512.167C869.592 512.167 871.978 512.167 871.978 512.167C871.978 512.167 872.546 511.587 871.637 511.356C870.728 511.24 869.251 510.892 869.251 510.892L872.886 509.849C872.886 509.849 873.341 509.038 872.318 508.923C871.41 509.038 869.365 509.618 869.365 509.618L873 507.185C873 507.185 873.341 506.374 871.978 506.49C870.614 506.953 869.024 508.459 869.024 508.459L871.069 505.679C871.069 505.679 870.842 505.099 870.046 505.447C869.251 505.795 867.661 508.691 867.093 508.575C866.411 508.459 866.639 506.258 866.639 506.258C866.639 506.258 865.843 505.447 865.389 506.49C865.275 507.764 864.707 509.038 864.707 509.038C864.707 509.038 864.026 511.008 864.253 511.935C864.48 512.977 859.596 519.581 858.914 519.813C858.346 520.276 856.415 522.941 856.415 522.941C856.415 522.941 854.484 525.49 854.143 526.417C854.256 523.868 852.098 522.593 852.098 522.593C852.098 522.593 849.485 520.624 847.668 522.362C846.418 522.477 846.191 523.404 846.191 523.404C846.191 523.404 845.737 525.026 845.737 525.374C845.737 525.721 845.282 527.691 845.282 528.154C844.941 528.27 842.783 528.038 842.783 528.502C842.783 528.849 841.306 527.343 838.694 527.227C836.99 525.026 834.15 523.984 834.15 523.984C834.15 523.984 832.105 517.148 832.673 514.484C833.355 511.819 834.491 509.27 834.491 509.27C834.491 509.27 834.036 508.807 834.036 509.386C833.695 508.923 833.355 509.734 833.355 509.734C833.355 509.734 832.105 512.282 831.764 512.398C831.423 512.514 829.265 512.862 828.356 511.819C827.675 511.935 828.243 512.398 828.243 512.398L830.174 513.673L830.287 522.477C830.287 522.477 829.833 524.91 832.219 526.764C834.263 528.618 835.74 530.587 835.74 530.587C835.74 530.587 838.921 532.557 839.262 532.673Z" fill="#D4D4D4"/>
<path d="M830.629 514.134C834.519 514.134 837.672 510.97 837.672 507.067C837.672 503.164 834.519 500 830.629 500C826.739 500 823.586 503.164 823.586 507.067C823.586 510.97 826.739 514.134 830.629 514.134Z" fill="#D4D4D4"/>
<path d="M825.29 511.819C825.29 511.819 824.041 506.953 829.948 501.855C830.516 502.087 830.288 501.74 830.175 502.087C830.175 502.087 824.722 506.142 825.517 512.051C825.404 512.051 825.29 511.819 825.29 511.819Z" fill="#D4D4D4"/>
<path d="M826.768 501.159C826.768 501.159 828.812 500.116 832.107 503.128C831.993 503.244 831.879 503.36 831.879 503.36C831.879 503.36 829.494 500.927 826.768 501.159Z" fill="#D4D4D4"/>
<path d="M831.538 503.012C831.538 503.012 829.948 503.939 830.402 508.109C830.743 512.28 830.743 514.018 830.743 514.018C830.743 514.018 831.084 514.134 831.311 514.018C831.197 513.786 830.856 508.109 830.856 508.109C830.856 508.109 830.288 504.402 831.765 503.359C831.652 503.012 831.538 503.012 831.538 503.012Z" fill="#D4D4D4"/>
<path d="M830.174 501.739C830.174 501.739 831.423 500.349 833.468 500.696C833.582 500.696 833.695 500.696 833.695 500.696C833.695 500.696 831.764 500.696 830.287 501.855C829.947 501.971 830.174 501.739 830.174 501.739Z" fill="#D4D4D4"/>
<path d="M831.766 502.781C831.766 502.781 834.492 500.232 837.332 505.214C834.265 500.927 831.993 503.013 831.993 503.013L831.766 502.781Z" fill="#D4D4D4"/>
<path d="M832.106 503.129C832.106 503.129 836.65 507.184 836.31 511.355L836.082 511.586C836.082 511.586 836.764 508.111 831.766 503.361C831.879 503.245 832.106 503.129 832.106 503.129Z" fill="#D4D4D4"/>
<path d="M828.697 501.159C828.697 501.159 829.833 500.348 829.947 500C830.174 500 830.401 500 830.401 500C830.401 500 829.606 500.927 829.152 501.159C828.924 501.159 828.697 501.159 828.697 501.159Z" fill="#D4D4D4"/>
<path d="M828.697 501.273L825.63 503.359C825.63 503.359 823.812 504.749 823.812 505.56C824.04 504.517 825.516 503.706 825.516 503.706L828.924 501.505L828.697 501.273Z" fill="#D4D4D4"/>
</g>
<g clip-path="url(#clip4)">
<path d="M1099.29 561.096C1099.29 561.096 1099.18 562.239 1098.83 562.239C1098.6 562.239 1098.14 561.896 1098.14 561.896C1098.14 561.896 1096.88 561.896 1097.22 561.325C1097.57 560.754 1098.6 560.525 1099.29 561.096Z" fill="#D4D4D4"/>
<path d="M1103.08 561.669C1103.08 561.669 1102.16 560.526 1101.02 561.44C1101.71 561.669 1103.08 561.669 1103.08 561.669Z" fill="#D4D4D4"/>
<path d="M1095.96 561.211L1096.42 563.724L1108.14 563.495L1108.03 561.439L1095.96 561.211Z" fill="#D4D4D4"/>
<path d="M1108.03 561.438C1109.98 562.466 1116.99 558.469 1116.99 558.469C1116.99 558.469 1115.96 562.695 1117.68 566.807C1115.27 564.408 1108.03 563.38 1108.03 563.38V561.438Z" fill="#D4D4D4"/>
<path d="M1115.84 560.297C1115.84 560.297 1114.92 563.838 1116.07 564.866C1115.5 564.751 1109.06 562.581 1109.06 562.581C1109.06 562.581 1115.38 560.64 1115.84 560.297Z" fill="#D4D4D4"/>
<path d="M1133.9 563.897C1134.44 560.022 1130.8 556.321 1125.77 555.629C1120.74 554.937 1116.22 557.517 1115.68 561.391C1115.14 565.266 1118.78 568.967 1123.81 569.659C1128.84 570.351 1133.36 567.771 1133.9 563.897Z" fill="#D4D4D4"/>
<path d="M1070.9 622.09C1070.9 622.09 1069.53 622.661 1069.99 625.288C1068.84 627.116 1069.53 629.172 1069.53 629.172C1069.53 629.172 1072.05 631.342 1075.04 629.058C1076.42 627.801 1074.81 625.517 1074.81 625.517C1074.81 625.517 1074.93 622.319 1074.35 621.748C1073.78 620.948 1072.28 619.235 1070.9 622.09Z" fill="#D4D4D4"/>
<path d="M1073.66 575.604C1073.66 575.604 1074.24 567.494 1074.47 565.895C1074.7 564.296 1074.12 558.128 1074.12 558.128L1075.85 547.848C1075.85 547.848 1078.14 547.62 1080.67 546.82C1080.79 549.676 1083.2 552.417 1083.2 552.417C1083.2 552.417 1087.34 550.133 1087.45 547.277C1089.87 548.876 1092.17 550.475 1092.17 550.475C1092.17 550.475 1089.98 555.958 1091.36 559.042C1092.74 562.24 1092.97 575.832 1092.97 575.832C1092.97 575.832 1088.14 579.601 1073.55 575.718L1073.66 575.604Z" fill="#D4D4D4"/>
<path d="M1070.91 621.636C1070.91 621.636 1069.76 608.843 1069.76 608.044C1069.76 607.13 1070.22 603.703 1071.36 601.305C1072.74 598.107 1071.25 590.797 1071.25 590.797C1071.25 590.797 1074.01 589.883 1081.25 590.797C1078.95 594.566 1078.38 599.934 1078.38 599.934C1078.38 599.934 1077.57 603.818 1077.34 604.846C1077 605.874 1076.31 611.47 1076.31 611.47C1076.31 611.47 1074.93 617.867 1074.81 618.666C1074.7 619.466 1074.93 621.979 1074.93 621.979C1074.93 621.979 1072.63 619.466 1070.91 621.636Z" fill="#D4D4D4"/>
<path d="M1111.59 613.755C1111.59 613.755 1108.14 609.986 1105.84 604.389C1103.43 600.163 1099.64 598.564 1099.64 598.564C1099.64 598.564 1097.8 594.68 1095.84 587.484C1093.89 589.198 1088.14 590.797 1088.14 590.797L1093.09 600.962C1093.09 600.962 1093.32 602.333 1097.91 605.645C1102.51 609.072 1105.73 612.613 1105.73 612.613L1108.37 616.382L1111.59 613.755Z" fill="#D4D4D4"/>
<path d="M1107.45 615.239C1107.45 615.239 1107.57 615.125 1107.8 615.011C1108.26 612.27 1110.09 613.069 1112.05 613.526C1112.16 613.64 1112.16 613.64 1112.28 613.754C1113.31 615.125 1114.58 617.295 1114.58 617.295C1114.58 617.295 1116.99 619.123 1116.19 623.12C1114.46 626.433 1111.93 622.892 1111.93 622.892L1109.52 618.552C1109.52 618.437 1107.45 615.925 1107.45 615.239Z" fill="#D4D4D4"/>
<path d="M1070.9 591.368C1070.9 591.368 1072.17 581.431 1072.17 580.86C1072.17 580.288 1073.66 575.605 1073.66 575.605C1073.66 575.605 1082.74 578.575 1093.09 575.948C1095.84 581.545 1095.73 587.37 1095.73 587.37C1095.73 587.37 1093.09 590.568 1083.32 591.139C1073.55 591.825 1070.9 591.368 1070.9 591.368Z" fill="#D4D4D4"/>
<path d="M1075.96 547.962C1075.96 547.962 1072.86 545.677 1071.94 550.246C1072.05 554.586 1075.5 559.269 1075.5 559.269C1075.5 559.269 1079.18 563.724 1080.1 564.181C1081.36 564.523 1090.33 562.696 1090.33 562.696C1090.33 562.696 1088.14 570.006 1091.82 571.034C1095.73 570.92 1098.03 564.98 1098.03 564.98C1098.03 564.98 1099.06 565.437 1099.41 565.323C1099.87 565.551 1101.02 565.437 1101.02 565.437C1101.02 565.437 1102.4 566.008 1102.63 565.323C1103.43 565.551 1104 565.437 1104 565.095C1104 564.752 1106.53 564.752 1103.89 563.153C1102.97 561.44 1102.86 560.983 1102.86 560.983C1102.86 560.983 1098.72 559.955 1098.72 560.868C1098.49 559.384 1095.27 559.498 1095.27 559.498C1095.27 559.498 1095.38 552.302 1094.35 551.845C1093.43 550.589 1092.05 550.703 1092.05 550.703C1092.05 550.703 1089.29 553.102 1090.21 557.556C1087.91 558.013 1081.82 558.927 1081.82 558.927C1081.82 558.927 1077.23 551.617 1075.96 547.962Z" fill="#D4D4D4"/>
<path d="M1094.46 562.355V564.64C1094.46 564.64 1095.15 564.754 1095.38 564.183C1095.61 563.612 1094.92 562.584 1094.92 562.584L1094.46 562.355Z" fill="#D4D4D4"/>
<path d="M1080.9 547.279C1080.9 547.279 1081.36 545.68 1080.56 543.396C1079.75 541.111 1079.29 534.144 1083.78 535.4C1086.65 535.4 1089.18 534.943 1088.14 543.053C1086.88 544.309 1088.26 546.822 1088.26 546.822C1088.26 546.822 1088.72 549.221 1083.32 552.647C1081.25 550.82 1080.9 547.279 1080.9 547.279Z" fill="#D4D4D4"/>
<path d="M1079.98 536.769C1079.98 536.769 1080.1 534.485 1082.51 533.686C1085.62 531.744 1088.49 534.257 1088.49 534.257L1088.95 535.056C1088.95 535.056 1090.56 534.713 1090.9 535.741C1091.25 536.655 1092.51 536.541 1094.01 546.135C1094.47 554.245 1093.2 554.702 1093.2 554.702C1093.2 554.702 1093.43 552.189 1092.74 551.618C1092.05 550.933 1092.28 553.331 1092.28 553.331C1092.28 553.331 1092.28 551.846 1091.59 551.161C1090.9 550.476 1089.75 553.56 1089.75 553.56C1089.75 553.56 1088.14 549.448 1087.68 548.42C1086.42 546.021 1087.57 547.163 1086.99 543.508C1086.99 543.508 1087.8 541.795 1087.34 538.825C1082.63 535.513 1081.82 536.313 1081.82 536.313C1081.82 536.313 1079.41 536.427 1081.02 541.452C1081.02 543.965 1082.74 545.793 1082.74 545.793C1082.74 545.793 1083.55 548.877 1081.71 551.275C1077.57 550.818 1078.95 554.702 1078.95 554.702C1078.95 554.702 1076.88 554.245 1077.69 550.019C1076.65 547.278 1076.31 545.564 1076.77 545.336C1077.23 545.107 1075.85 541.681 1078.03 541.338C1076.54 537.341 1079.98 536.769 1079.98 536.769Z" fill="#D4D4D4"/>
<path d="M994.592 569.091C994.592 569.091 1001.26 573.546 1002.41 584.511C995.857 588.623 992.983 594.791 992.983 594.791C992.983 594.791 991.03 598.332 992.294 600.616C992.868 603.015 995.857 617.749 995.857 617.749C995.857 617.749 995.052 619.119 994.133 620.719C994.018 620.833 994.018 621.061 993.903 621.175C992.868 623.46 991.145 625.059 989.076 626.429C988.846 626.658 988.731 626.772 988.501 627.001C987.352 628.485 987.007 630.199 991.03 630.77C998.04 631.569 998.96 627.8 998.96 627.8C998.96 627.8 999.304 627.686 999.879 627.457C1000.11 627.457 1000.22 627.343 1000.45 627.343C1000.68 627.229 1000.91 627.115 1001.14 627.001C1001.37 626.886 1001.6 626.658 1001.83 626.544C1003.44 625.402 1002.29 623.688 1001.6 622.432C1001.49 622.203 1001.37 621.975 1001.37 621.746C1001.03 620.719 1000.91 619.691 1000.8 618.663C1000.8 618.434 1000.8 618.32 1000.68 618.091C1000.45 616.264 1000.45 614.551 1000.45 614.551C1000.45 614.551 1002.06 605.642 999.075 601.073C1002.52 601.53 1003.56 598.903 1003.56 598.903C1003.56 598.903 1005.74 596.961 1005.86 595.476C1007.46 594.448 1011.49 592.506 1011.49 592.506L1018.61 603.928C1018.61 603.928 1020.91 609.182 1023.67 607.126C1026.89 606.213 1033.21 604.842 1033.21 604.842C1033.21 604.842 1038.38 602.786 1041.02 603.814C1043.67 604.728 1045.51 606.555 1045.51 606.555C1045.51 606.555 1048.15 607.583 1046.43 602.672C1043.78 598.103 1042.86 595.248 1042.86 595.248C1042.86 595.248 1039.41 591.136 1037.46 597.189C1037.46 598.903 1034.36 598.674 1034.36 598.674C1034.36 598.674 1031.14 596.618 1026.31 599.245C1024.82 599.931 1024.93 597.304 1024.93 597.304C1024.93 597.304 1023.78 591.935 1022.29 589.194C1022.98 583.94 1020.11 578.457 1020.11 578.457C1020.11 578.457 1014.82 569.891 1014.82 569.548C1014.82 569.091 1015.05 564.98 1015.05 564.523C1015.05 564.066 1021.37 565.322 1024.59 563.495C1027.81 567.15 1034.7 568.406 1034.7 568.406C1034.7 568.406 1036.77 570.119 1036.77 571.262C1036.77 572.404 1039.41 575.145 1039.41 575.145C1039.41 575.145 1040.1 575.031 1039.76 574.117C1039.41 573.203 1038.49 572.518 1038.95 571.719C1039.41 570.919 1043.55 573.089 1043.55 573.089C1043.55 573.089 1044.47 572.861 1043.32 572.061C1043.44 571.262 1042.75 570.691 1042.75 570.691C1042.75 570.691 1042.63 570.234 1042.17 570.005C1041.71 569.777 1041.02 568.749 1039.41 567.721C1037.81 566.693 1031.6 563.152 1031.6 562.809C1031.6 562.809 1027 560.639 1024.01 559.383C1023.9 559.269 1023.67 559.269 1023.55 559.154C1021.6 557.898 1019.19 557.784 1016.89 556.984C1016.66 556.87 1016.43 556.756 1016.2 556.756C1015.97 556.642 1015.85 556.642 1015.74 556.527C1014.82 556.185 1006.2 555.157 1005.86 555.499C1005.51 555.728 1004.25 555.385 1004.25 555.385L1003.67 553.9C1003.67 553.9 1007.23 542.821 997.925 542.25C989.88 544.192 994.248 552.415 994.248 552.415C994.248 552.415 994.477 552.987 994.822 553.786C994.937 553.9 994.937 554.129 995.052 554.243C995.627 555.614 996.546 556.87 997.006 558.355C995.972 558.355 995.052 558.926 994.133 559.154C994.018 559.269 993.903 559.269 993.673 559.383C992.754 559.954 991.604 560.868 990.34 562.238C986.777 565.893 984.479 568.635 983.329 568.749C981.261 568.064 976.664 570.234 976.664 570.234C976.664 570.234 970.802 570.805 970.113 570.119C969.423 569.434 967.814 569.206 967.814 569.206C967.814 569.206 968.389 570.691 967.929 570.691C967.469 570.691 966.205 572.404 966.78 572.861C967.469 572.632 968.619 571.833 968.619 571.833L970.228 573.774C970.228 573.774 975.284 573.432 978.158 574.117C981.031 575.031 984.479 572.975 984.479 572.975L989.765 571.147C989.765 571.147 993.213 568.52 994.592 569.091Z" fill="#D4D4D4"/>
<path d="M967.47 573.204C967.47 573.204 968.389 572.862 968.504 573.09C968.619 573.319 968.504 573.661 968.504 573.661C968.504 573.661 968.964 574.575 968.389 574.575C967.815 574.575 967.24 573.89 967.47 573.204Z" fill="#D4D4D4"/>
<path d="M966.436 570.121C966.436 570.121 965.976 571.263 967.01 571.72C966.896 571.149 966.436 570.121 966.436 570.121Z" fill="#D4D4D4"/>
<path d="M968.849 575.601L970.573 574.345L965.746 565.664L964.367 566.464L968.849 575.601Z" fill="#D4D4D4"/>
<path d="M964.368 566.463C964.368 564.635 958.621 560.98 958.621 560.98C958.621 560.98 962.184 560.066 964.597 557.211C963.678 559.952 965.862 565.663 965.862 565.663L964.368 566.463Z" fill="#D4D4D4"/>
<path d="M960.344 561.325C960.344 561.325 963.332 560.639 963.677 559.383C963.792 559.84 964.711 565.436 964.711 565.436C964.711 565.436 960.918 561.439 960.344 561.325Z" fill="#D4D4D4"/>
<path d="M961.23 560.883C964.335 559.77 965.682 555.644 964.239 551.668C962.796 547.693 959.11 545.372 956.005 546.485C952.9 547.598 951.553 551.723 952.995 555.699C954.438 559.675 958.125 561.996 961.23 560.883Z" fill="#D4D4D4"/>
<path d="M952.413 560.182C953.746 560.182 954.827 559.057 954.827 557.669C954.827 556.281 953.746 555.156 952.413 555.156C951.081 555.156 950 556.281 950 557.669C950 559.057 951.081 560.182 952.413 560.182Z" fill="#D4D4D4"/>
<path d="M950.805 556.07C950.805 556.07 951.035 556.299 951.149 556.87C951.149 556.984 951.149 556.984 951.149 557.098C951.149 557.555 950.92 558.012 950.92 558.469V558.583C950.92 558.812 950.92 559.04 950.92 559.268C951.035 559.497 951.149 559.725 951.149 559.725V559.383C951.149 559.383 951.149 559.268 951.149 559.04C951.149 558.926 951.149 558.926 951.149 558.812C951.264 558.126 951.609 557.555 951.379 556.87C951.379 556.756 951.379 556.756 951.264 556.641C951.149 556.07 950.805 556.07 950.805 556.07Z" fill="#D4D4D4"/>
<path d="M954.022 555.957C954.022 555.957 953.792 556.185 953.677 556.757V556.871C953.562 557.328 953.792 557.785 953.792 558.241C953.792 558.356 953.792 558.356 953.792 558.47C953.907 558.813 953.907 559.041 953.792 559.384C953.677 559.612 953.562 559.84 953.562 559.84L953.677 559.269C953.677 559.269 953.677 559.041 953.677 558.584V558.47C953.562 557.899 953.332 557.328 953.447 556.757V556.642C953.677 556.071 954.022 555.957 954.022 555.957Z" fill="#D4D4D4"/>
</g>
<path d="M678.188 614.338L683.264 607.714C683.264 607.714 681.879 607.257 683.725 606.229C685.571 605.201 689.378 601.203 690.531 600.518C690.3 600.861 689.839 599.833 689.839 599.833C689.839 599.833 688.685 599.262 688.455 598.576C688.109 597.891 688.109 596.863 688.57 596.635C688.916 596.406 688.801 595.15 688.801 595.15C688.801 595.15 686.84 594.236 686.724 593.665C686.609 593.094 683.033 592.294 683.148 590.238C679.687 587.154 681.648 583.385 681.648 583.385C681.648 583.385 683.264 581.329 683.264 580.644C683.264 579.959 681.995 580.187 682.571 579.159C683.033 578.131 684.763 572.877 686.84 570.136C688.916 567.395 688.801 566.024 690.993 564.197C693.185 562.255 694.569 563.169 696.645 560.77C696.761 559.971 696.991 558.257 696.991 558.257C696.991 558.257 695.492 558.6 695.607 557.115C695.722 555.744 693.646 552.775 699.068 551.29C704.374 549.805 706.566 554.831 706.566 554.831C706.566 554.831 708.412 555.859 706.797 556.201C704.836 556.316 705.643 557.915 705.643 557.915C705.643 557.915 705.297 560.427 705.182 560.77C705.067 561.113 704.259 562.255 704.259 563.054C704.259 563.854 704.028 564.425 702.759 564.425C701.49 564.425 700.683 565.91 700.798 566.253C700.914 566.595 702.529 568.994 702.529 569.908C702.529 570.821 705.182 575.39 705.874 575.961C706.566 576.532 710.835 580.416 711.296 580.987C711.758 581.444 714.411 584.185 715.449 584.185C716.372 584.185 718.794 584.527 719.141 585.099C719.487 585.67 720.179 587.04 720.179 587.04C720.179 587.04 719.833 588.525 718.91 588.639C717.872 588.753 718.794 590.124 717.526 589.781C716.257 589.439 713.603 592.066 713.603 592.066L714.757 595.492C714.757 595.492 715.449 596.406 715.449 597.32C715.449 598.234 717.987 605.315 717.987 605.315C717.987 605.315 717.064 604.972 717.641 606.115C718.102 607.257 720.756 614.224 723.524 619.021C724.678 620.392 723.524 620.62 723.524 620.62C723.524 620.62 722.717 621.306 722.255 619.707C721.794 618.107 715.334 608.285 715.91 602.688C714.757 602.46 714.872 601.203 714.872 601.203L704.144 613.196C704.144 613.196 707.028 614.681 703.221 615.823C701.721 614.681 699.299 619.135 699.299 619.135C699.299 619.135 701.606 621.991 698.03 625.646C698.491 626.331 701.375 626.674 701.375 626.674C701.375 626.674 701.837 627.93 700.683 628.616C699.76 628.501 695.722 628.387 695.722 628.387C695.722 628.387 694.453 629.415 693.646 628.616C692.954 627.816 692.608 628.044 692.608 628.044C692.608 628.044 691.223 627.359 691.685 626.788C692.146 626.103 689.262 626.331 689.262 626.331L690.647 621.306L679.111 619.25C679.111 619.25 678.188 620.734 677.38 620.734C677.842 621.877 674.842 622.448 674.842 622.448C674.842 622.448 674.496 623.704 672.766 622.905C671.843 622.105 672.535 620.734 672.535 620.734C672.535 620.734 671.381 619.821 672.42 617.879C673.689 615.595 674.842 614.338 678.188 614.338Z" fill="#D4D4D4"/>
<path d="M692.146 616.623L693.299 612.854L690.992 611.598C690.992 611.598 692.492 614.91 692.146 616.623Z" stroke="#D4D4D4"/>
<path d="M687.877 606.227C687.877 606.227 697.683 615.251 687.992 627.929C676.802 638.323 666.189 627.472 666.189 627.472C666.189 627.472 663.651 625.073 662.498 621.304C662.498 621.076 662.382 620.961 662.382 620.733C661.921 618.791 661.921 616.85 662.152 614.908C662.152 614.679 662.267 614.451 662.267 614.223C662.382 613.537 662.613 612.852 662.844 612.167C662.844 612.052 662.959 611.938 663.074 611.71C663.305 611.139 663.651 610.453 663.997 609.882C664.113 609.768 664.113 609.654 664.228 609.54C664.689 608.854 665.151 608.283 665.612 607.598C665.728 607.484 665.843 607.37 665.958 607.255C666.074 607.141 666.189 607.027 666.305 606.913C667.573 605.314 669.419 604.171 671.265 603.372C671.38 603.258 671.611 603.258 671.726 603.258C671.842 603.258 672.073 603.143 672.188 603.143C682.224 599.374 687.877 606.227 687.877 606.227Z" fill="#D4D4D4"/>
<path d="M696.993 578.474C696.993 578.474 697.109 579.959 696.301 580.987C695.494 582.129 695.032 584.071 695.724 584.3C696.417 584.528 706.799 586.698 708.875 589.211C710.952 591.724 708.414 594.008 708.414 594.008C708.414 594.008 706.914 597.32 706.453 598.805C709.683 598.577 713.375 597.777 713.375 597.777C713.375 597.777 713.144 596.521 713.259 596.064C713.375 595.607 712.452 592.409 712.452 592.409C712.452 592.409 711.99 591.038 712.913 590.696C713.836 590.353 715.22 589.325 715.22 589.325C715.22 589.325 712.913 588.868 712.913 588.183C712.913 587.612 711.875 589.325 711.875 589.325C711.875 589.325 710.952 589.668 710.952 589.097C710.952 588.526 711.875 587.383 711.875 587.383C711.875 587.383 710.952 586.584 710.721 586.127C710.491 585.67 705.415 583.386 705.184 583.386C704.953 583.386 700.339 580.645 700.339 580.073C699.877 579.731 698.608 578.817 698.608 578.246C698.608 577.789 697.916 577.903 697.916 577.903C697.916 577.903 697.109 577.903 696.993 578.474Z" fill="white"/>
<path d="M699.301 593.324C699.301 593.324 701.723 593.21 702.416 592.867C701.493 593.21 700.454 595.723 700.454 595.723L699.301 593.324Z" fill="white"/>
<path d="M701.608 611.482C701.608 611.482 704.954 607.37 705.53 607.942C706.223 608.398 712.221 599.832 712.221 599.832L705.069 600.517L703.915 602.231C703.915 602.231 704.492 603.944 703.223 604.972C701.954 605.886 701.724 606.914 701.724 607.713C701.608 608.513 700.916 611.254 700.916 611.254L701.608 611.482Z" fill="white"/>
<path d="M694.916 606.8C694.916 606.8 693.07 607.143 692.954 607.828C692.839 608.513 692.147 603.945 691.801 602.345C692.262 602.003 692.262 602.003 692.262 602.003L694.569 601.66C694.569 601.66 694.339 602.574 696.992 602.917C695.492 605.201 694.8 606.457 694.8 606.457L694.916 606.8Z" fill="white"/>
<path d="M687.533 606.114L690.648 602.688L692.032 610.569C692.032 610.569 690.879 611.14 690.879 611.482C691.109 611.939 690.186 608.513 687.533 606.114Z" fill="white"/>
<path d="M674.149 615.824C674.149 615.824 673.342 617.423 674.265 619.022C674.149 619.365 673.457 619.251 673.457 619.251C673.457 619.251 672.304 619.365 672.534 618.68C672.765 617.88 673.457 615.938 674.149 615.824Z" fill="white"/>
<path d="M677.61 603.602L677.033 630.785L677.61 603.602Z" stroke="#D4D4D4"/>
<path d="M681.646 604.285L673.109 630.098L681.646 604.285Z" stroke="#D4D4D4"/>
<path d="M688.109 608.742L666.998 626.332L688.109 608.742Z" stroke="#D4D4D4"/>
<path d="M686.031 607.712C686.031 607.712 694.567 615.708 686.146 626.787C676.456 635.924 667.227 626.444 667.227 626.444C667.227 626.444 665.035 624.388 663.997 620.962C663.997 620.847 663.882 620.619 663.882 620.505C663.536 618.791 663.536 617.078 663.766 615.365C663.766 615.136 663.882 615.022 663.882 614.794C663.997 614.223 664.228 613.652 664.343 612.966C664.458 612.738 664.458 612.624 664.574 612.395C664.805 611.824 665.035 611.367 665.381 610.796C665.497 610.682 665.497 610.568 665.612 610.454C665.958 609.882 666.42 609.311 666.766 608.74C666.881 608.626 666.996 608.512 666.996 608.398C667.112 608.283 667.227 608.169 667.227 608.055C668.265 606.57 669.88 605.656 671.611 604.857C671.726 604.857 671.841 604.743 671.957 604.743C672.072 604.743 672.188 604.628 672.303 604.628C681.186 601.659 686.031 607.712 686.031 607.712Z" fill="white" stroke="#D4D4D4"/>
<path d="M677.264 603.832L676.688 631.016L677.264 603.832Z" fill="#D4D4D4"/>
<path d="M689.955 617.423L663.537 617.309L689.955 617.423Z" fill="#D4D4D4"/>
<path d="M685.8 606.914L668.266 627.473L685.8 606.914Z" fill="#D4D4D4"/>
<path d="M687.069 625.53L666.881 608.969L687.069 625.53Z" fill="#D4D4D4"/>
<path d="M689.378 611.484L665.037 623.249L689.378 611.484Z" fill="#D4D4D4"/>
<path d="M683.034 629.074L671.152 605.773L683.034 629.074Z" fill="#D4D4D4"/>
<path d="M689.839 622.109L664.113 612.629L689.839 622.109Z" fill="#D4D4D4"/>
<path d="M672.42 629.875L681.303 604.633L672.42 629.875Z" fill="#D4D4D4"/>
<path d="M690.762 615.367L663.883 619.365L690.762 615.367Z" fill="#D4D4D4"/>
<path d="M679.343 630.215L675.074 604.516L679.343 630.215Z" fill="#D4D4D4"/>
<path d="M734.483 608.512C734.483 608.512 744.404 617.649 734.598 630.442C723.293 640.95 712.564 629.985 712.564 629.985C712.564 629.985 710.026 627.586 708.873 623.703C708.873 623.474 708.757 623.36 708.757 623.132C708.296 621.19 708.296 619.248 708.527 617.306C708.527 617.078 708.642 616.85 708.642 616.621C708.757 615.936 708.988 615.251 709.219 614.565C709.334 614.337 709.449 614.108 709.449 613.88C709.68 613.309 710.026 612.624 710.372 612.052C710.488 611.938 710.488 611.824 710.603 611.71C711.064 611.024 711.526 610.453 711.987 609.768C712.103 609.654 712.218 609.54 712.333 609.425C712.449 609.311 712.564 609.197 712.68 609.083C713.948 607.369 715.794 606.342 717.755 605.428C717.871 605.314 718.101 605.314 718.217 605.314C718.332 605.314 718.563 605.199 718.678 605.199C728.83 601.659 734.483 608.512 734.483 608.512Z" fill="#D4D4D4"/>
<path d="M732.636 609.999C732.636 609.999 741.173 618.108 732.752 629.302C722.946 638.553 713.717 628.959 713.717 628.959C713.717 628.959 711.525 626.903 710.487 623.477C710.487 623.362 710.372 623.134 710.372 623.02C710.026 621.307 710.026 619.593 710.257 617.88C710.257 617.652 710.372 617.423 710.372 617.309C710.487 616.738 710.718 616.053 710.833 615.481C710.949 615.253 710.949 615.139 711.064 614.91C711.295 614.339 711.525 613.768 711.872 613.311C711.987 613.197 711.987 613.083 712.102 612.969C712.448 612.398 712.91 611.826 713.371 611.255C713.487 611.141 713.602 611.027 713.602 610.913C713.717 610.798 713.833 610.684 713.833 610.57C714.871 609.085 716.486 608.171 718.216 607.372C718.332 607.372 718.447 607.258 718.562 607.258C718.678 607.258 718.793 607.144 718.909 607.144C727.791 603.945 732.636 609.999 732.636 609.999Z" fill="white" stroke="#D4D4D4"/>
<path d="M723.872 606L723.295 633.527L723.872 606Z" fill="#D4D4D4"/>
<path d="M736.56 619.822L709.912 619.594L736.56 619.822Z" fill="#D4D4D4"/>
<path d="M732.406 609.199L714.756 629.987L732.406 609.199Z" fill="#D4D4D4"/>
<path d="M733.79 628.044L713.256 611.254L733.79 628.044Z" fill="#D4D4D4"/>
<path d="M736.099 613.879L711.412 625.758L736.099 613.879Z" fill="#D4D4D4"/>
<path d="M729.523 631.584L717.641 608.055L729.523 631.584Z" fill="#D4D4D4"/>
<path d="M736.56 624.504L710.488 614.91L736.56 624.504Z" fill="#D4D4D4"/>
<path d="M718.908 632.385L727.791 606.914L718.908 632.385Z" fill="#D4D4D4"/>
<path d="M737.366 617.762L710.256 621.759L737.366 617.762Z" fill="#D4D4D4"/>
<path d="M725.829 632.725L721.561 606.684L725.829 632.725Z" fill="#D4D4D4"/>
<path d="M696.99 558.373L706.796 556.317C706.796 556.317 708.295 556.088 706.565 554.946C703.22 548.436 696.875 552.433 696.875 552.433C696.875 552.433 695.26 553.004 695.26 556.317C695.837 558.715 696.99 558.373 696.99 558.373Z" fill="#D4D4D4"/>
</g>
<defs>
<clipPath id="clip0">
<rect width="1280" height="720" fill="white"/>
</clipPath>
<clipPath id="clip1">
<rect width="451" height="145" fill="white" transform="translate(42 489)"/>
</clipPath>
<clipPath id="clip2">
<rect width="110" height="147" fill="white" transform="translate(1228 489)"/>
</clipPath>
<clipPath id="clip3">
<rect width="66" height="95" fill="white" transform="translate(807 500)"/>
</clipPath>
<clipPath id="clip4">
<rect width="184" height="98" fill="white" transform="translate(950 533)"/>
</clipPath>
</defs>
</svg>
