<svg width="2500" height="960" fill="none" xmlns="http://www.w3.org/2000/svg"><g clip-path="url(#clip0)" fill="#EBECED"><path d="M1938.9 572.6h-125.28c15.2 43.704.25 142.31-46.24 229.662h217.76c-46.48-87.352-64.17-165.16-46.24-229.662zm46.11 238.3h-217.63v2.871h217.63V810.9z"/><path d="M1768.4 802.236h-1.02v10.859h1.02v-10.859zm216.56 0h-.92v10.859h.92v-10.859z"/><path d="M1768.42 811.893l-.73-.707 10.52-10.463.72.721-10.51 10.449z"/><path d="M1788.09 812.287l-.72.721-10.52-10.463.72-.707 10.52 10.449z"/><path d="M1786.41 811.893l-.72-.707 10.52-10.463.71.721-10.51 10.449z"/><path d="M1806.08 812.287l-.72.721-10.51-10.463.71-.707 10.52 10.449z"/><path d="M1804.4 811.893l-.72-.707 10.52-10.463.72.721-10.52 10.449z"/><path d="M1824.08 812.287l-.72.721-10.52-10.463.72-.707 10.52 10.449z"/><path d="M1822.38 811.893l-.7-.707 10.5-10.463.72.721-10.52 10.449z"/><path d="M1842.07 812.287l-.72.721-10.51-10.463.71-.707 10.52 10.449z"/><path d="M1840.38 811.893l-.72-.707 10.52-10.463.72.721-10.52 10.449z"/><path d="M1860.06 812.287l-.72.721-10.52-10.463.72-.707 10.52 10.449z"/><path d="M1858.37 811.893l-.71-.707 10.51-10.463.72.721-10.52 10.449z"/><path d="M1878.05 812.287l-.72.721-10.52-10.463.72-.707 10.52 10.449z"/><path d="M1876.37 811.893l-.72-.707 10.52-10.463.7.721-10.5 10.449z"/><path d="M1896.04 812.287l-.73.721-10.5-10.463.71-.707 10.52 10.449z"/><path d="M1894.35 811.893l-.72-.707 10.52-10.463.72.721-10.52 10.449z"/><path d="M1914.03 812.287l-.72.721-10.52-10.463.72-.707 10.52 10.449z"/><path d="M1912.34 811.893l-.71-.707 10.5-10.463.73.721-10.52 10.449z"/><path d="M1932.02 812.287l-.72.721-10.51-10.463.71-.707 10.52 10.449z"/><path d="M1930.34 811.893l-.73-.707 10.52-10.463.73.721-10.52 10.449z"/><path d="M1950 812.287l-.7.721-10.52-10.463.7-.707 10.52 10.449z"/><path d="M1948.32 811.893l-.72-.707 10.52-10.463.72.721-10.52 10.449z"/><path d="M1968 812.287l-.72.721-10.52-10.463.72-.707 10.52 10.449z"/><path d="M1966.32 811.893l-.72-.707 10.52-10.463.71.721-10.51 10.449z"/><path d="M1984.96 811.269l-9.49-9.431-.71.707 10.2 10.152v-1.428zM1815.2 557.654h-.43v15.497h.43v-15.497z"/><path d="M1815.57 557.486a.6.6 0 01-.6.594.588.588 0 01-.59-.594c0-.325.27-.593.59-.593.33 0 .6.268.6.593zm120.5.168h-.42v15.497h.42v-15.497z"/><path d="M1936.44 557.486c0 .326-.27.594-.59.594a.582.582 0 01-.59-.594.59.59 0 01.59-.593c.32 0 .59.268.59.593zM765.125 572.6H639.838c15.185 43.704.24 142.31-46.235 229.662H811.36c-46.49-87.352-64.164-165.16-46.235-229.662zm46.095 238.3H593.59v2.871h217.63V810.9z"/><path d="M594.608 802.236h-1.018v10.859h1.018v-10.859zm216.556 0h-.919v10.859h.919v-10.859z"/><path d="M594.637 811.893l-.721-.707 10.52-10.463.707.721-10.506 10.449z"/><path d="M614.306 812.287l-.721.721-10.506-10.463.707-.707 10.52 10.449z"/><path d="M612.621 811.893l-.722-.707 10.52-10.463.721.721-10.519 10.449z"/><path d="M632.302 812.287l-.721.721-10.519-10.463.721-.707 10.519 10.449z"/><path d="M630.605 811.893l-.707-.707 10.506-10.463.721.721-10.52 10.449z"/><path d="M650.289 812.287l-.721.721-10.519-10.463.721-.707 10.519 10.449z"/><path d="M648.606 811.893l-.721-.707 10.519-10.463.721.721-10.519 10.449z"/><path d="M668.274 812.287l-.707.721-10.519-10.463.721-.707 10.505 10.449z"/><path d="M666.589 811.893l-.721-.707 10.52-10.463.721.721-10.52 10.449z"/><path d="M686.271 812.287l-.721.721-10.52-10.463.721-.707 10.52 10.449z"/><path d="M684.589 811.893l-.721-.707 10.52-10.463.707.721-10.506 10.449z"/><path d="M704.258 812.287l-.721.721-10.506-10.463.707-.707 10.52 10.449z"/><path d="M702.575 811.893l-.721-.707 10.519-10.463.721.721-10.519 10.449z"/><path d="M722.257 812.287l-.721.721-10.519-10.463.721-.707 10.519 10.449z"/><path d="M720.561 811.893l-.707-.707 10.506-10.463.721.721-10.52 10.449z"/><path d="M740.241 812.287l-.721.721L729 802.545l.721-.707 10.52 10.449z"/><path d="M738.558 811.893l-.721-.707 10.519-10.463.707.721-10.505 10.449z"/><path d="M758.226 812.287l-.721.721L747 802.545l.721-.707 10.505 10.449z"/><path d="M756.543 811.893l-.721-.707 10.52-10.463.721.721-10.52 10.449z"/><path d="M776.226 812.287l-.721.721-10.52-10.463.721-.707 10.52 10.449z"/><path d="M774.544 811.893l-.721-.707 10.52-10.463.707.721-10.506 10.449z"/><path d="M794.21 812.287l-.721.721-10.506-10.463.707-.707 10.52 10.449z"/><path d="M792.527 811.893l-.721-.707 10.519-10.463.721.721-10.519 10.449z"/><path d="M811.163 811.269l-9.473-9.431-.721.707 10.194 10.152v-1.428zM641.409 557.654h-.425v15.497h.425v-15.497z"/><path d="M641.777 557.486a.597.597 0 01-.594.594.588.588 0 01-.594-.594c0-.325.269-.593.594-.593.325 0 .594.268.594.593zm120.508.168h-.425v15.497h.425v-15.497z"/><path d="M762.653 557.486a.597.597 0 01-.594.594.588.588 0 01-.594-.594c0-.325.268-.593.594-.593.339 0 .594.268.594.593zM2165.4 572.6h-125.29c15.2 43.704.24 142.31-46.23 229.662h217.75c-46.47-87.352-64.16-165.16-46.23-229.662zm46.11 238.3h-217.63v2.871h217.63V810.9z"/><path d="M1994.89 802.236h-1.01v10.859h1.01v-10.859zm216.56 0h-.93v10.859h.93v-10.859z"/><path d="M1994.91 811.893l-.72-.707 10.52-10.463.72.721-10.52 10.449z"/><path d="M2014.59 812.287l-.72.721-10.52-10.463.72-.707 10.52 10.449z"/><path d="M2012.89 811.893l-.7-.707 10.5-10.463.72.721-10.52 10.449z"/><path d="M2032.58 812.287l-.73.721-10.5-10.463.71-.707 10.52 10.449z"/><path d="M2030.89 811.893l-.72-.707 10.52-10.463.72.721-10.52 10.449z"/><path d="M2050.56 812.287l-.71.721-10.52-10.463.72-.707 10.51 10.449z"/><path d="M2048.88 811.893l-.71-.707 10.51-10.463.72.721-10.52 10.449z"/><path d="M2068.56 812.287l-.72.721-10.52-10.463.72-.707 10.52 10.449z"/><path d="M2066.88 811.893l-.72-.707 10.52-10.463.7.721-10.5 10.449z"/><path d="M2086.54 812.287l-.72.721-10.5-10.463.72-.707 10.5 10.449z"/><path d="M2084.86 811.893l-.72-.707 10.52-10.463.72.721-10.52 10.449z"/><path d="M2104.55 812.287l-.73.721-10.52-10.463.73-.707 10.52 10.449z"/><path d="M2102.85 811.893l-.71-.707 10.51-10.463.72.721-10.52 10.449z"/><path d="M2122.53 812.287l-.72.721-10.52-10.463.72-.707 10.52 10.449z"/><path d="M2120.85 811.893l-.73-.707 10.52-10.463.73.721-10.52 10.449z"/><path d="M2140.51 812.287l-.7.721-10.52-10.463.72-.707 10.5 10.449z"/><path d="M2138.83 811.893l-.72-.707 10.52-10.463.72.721-10.52 10.449z"/><path d="M2158.51 812.287l-.72.721-10.52-10.463.72-.707 10.52 10.449z"/><path d="M2156.83 811.893l-.72-.707 10.52-10.463.71.721-10.51 10.449z"/><path d="M2176.5 812.287l-.72.721-10.51-10.463.71-.707 10.52 10.449z"/><path d="M2174.82 811.893l-.72-.707 10.52-10.463.72.721-10.52 10.449z"/><path d="M2194.5 812.287l-.72.721-10.52-10.463.72-.707 10.52 10.449z"/><path d="M2192.8 811.893l-.71-.707 10.51-10.463.72.721-10.52 10.449z"/><path d="M2211.45 811.269l-9.49-9.431-.72.707 10.21 10.152v-1.428zm-169.77-253.615h-.42v15.497h.42v-15.497z"/><path d="M2042.06 557.486c0 .326-.27.594-.59.594a.582.582 0 01-.59-.594.59.59 0 01.59-.593c.32 0 .59.268.59.593zm120.5.168h-.43v15.497h.43v-15.497z"/><path d="M2162.94 557.486c0 .326-.27.594-.59.594a.59.59 0 01-.6-.594c0-.325.27-.593.6-.593.32 0 .59.268.59.593zM575.495 776.023h-49.869v37.752h49.869v-37.752z"/><path d="M586.652 759.846h-49.869v53.941h49.869v-53.941zm-357.96 37.535H53v87.591h175.692v-87.591z"/><path d="M268 759.846H92.308V885H268V759.846zm613.009-115.117h-5.245v130.462h5.245V644.729z"/><path d="M881.604 645.165c0 .241-.17.453-.382.453h-5.698c-.212 0-.381-.198-.381-.453 0-.24.169-.452.381-.452h5.698c.212.014.382.212.382.452zm0 16.203c0 .241-.17.453-.382.453h-5.698c-.212 0-.381-.198-.381-.453 0-.24.169-.452.381-.452h5.698c.212.014.382.212.382.452zm0 16.217c0 .241-.17.453-.382.453h-5.698c-.212 0-.381-.198-.381-.453 0-.24.169-.452.381-.452h5.698c.212 0 .382.198.382.452zm0 16.205c0 .241-.17.453-.382.453h-5.698c-.212 0-.381-.198-.381-.453 0-.24.169-.452.381-.452h5.698c.212 0 .382.198.382.452zm0 16.205c0 .241-.17.453-.382.453h-5.698c-.212 0-.381-.198-.381-.453 0-.24.169-.452.381-.452h5.698c.212 0 .382.212.382.452zm0 16.2c0 .24-.17.452-.382.452h-5.698c-.212 0-.381-.198-.381-.452 0-.241.169-.453.381-.453h5.698c.212.014.382.212.382.453zm0 16.205c0 .24-.17.452-.382.452h-5.698c-.212 0-.381-.198-.381-.452 0-.241.169-.453.381-.453h5.698c.212.014.382.212.382.453zm0 16.203c0 .24-.17.452-.382.452h-5.698c-.212 0-.381-.198-.381-.452 0-.241.169-.453.381-.453h5.698c.212.015.382.212.382.453zm20.219 15.454h-46.871v4.666h46.871v-4.666z"/><path d="M861.389 775.528l13.941-33.114.212.099-13.927 33.114-.226-.099zm19.648-32.902l.212-.099 14.86 32.068-.212.099-14.86-32.068zm-23.624 33.04l18.268-98.098.24.043-18.268 98.097-.24-.042zm23.669-98.122l.24-.042 17.604 97.702-.227.042-17.617-97.702zm526.528-66.747h-8.47v15.03h1.2v152.788h6.07V625.827h1.2v-15.03z"/><path d="M1414.41 646.598h-22.07v.593h22.07v-.593z"/><path d="M1413.95 646.598h-.44l.35.311-10.49 9.204-10.48-9.204.36-.311h-.46l-.35.311 10.93 9.6 10.94-9.6-.11-.099-.25-.212z"/><path d="M1392.34 646.598v19.356h22.07v-19.356h-22.07zm.79 18.678V647.29h20.5v17.986h-20.5z"/><path d="M1392.44 665.686l10.93-9.6 10.83 9.501-.11.099.11-.099.11.099-10.93 9.601-10.94-9.601zm.45 0l10.49 9.205 10.5-9.205-10.5-9.204-10.49 9.204z"/><path d="M1392.34 684.73v-19.371h22.07v19.357h-22.07v.014zm21.68-.353v-.354.354zm-20.89-.34h20.5v-17.985h-20.5v17.985z"/><path d="M1392.44 684.448l10.93-9.6 10.83 9.501-.11.099.11-.099.11.099-10.93 9.601-10.94-9.601zm.45 0l10.49 9.205 10.49-9.205-10.49-9.204-10.49 9.204z"/><path d="M1392.34 703.509v-19.37h22.07v19.37h-22.07zm21.68-.353v-.339.339zm-20.89-.339h20.5v-17.986h-20.5v17.986z"/><path d="M1392.44 703.222l10.93-9.601 10.83 9.502-.11.099.11-.099.11.099-10.93 9.6-10.94-9.6zm.45 0l10.49 9.204 10.49-9.204-10.49-9.205-10.49 9.205z"/><path d="M1392.34 722.353v-19.371h22.07v19.371h-22.07zm21.68-.353v-.34.34zm-20.89-.34h20.5v-17.985h-20.5v17.985z"/><path d="M1392.44 722.071l10.93-9.6 10.83 9.501-.11.099.11-.099.11.099-10.93 9.601-10.94-9.601zm.45 0l10.49 9.205 10.49-9.205-10.49-9.204-10.49 9.204z"/><path d="M1392.34 741.115v-19.371h22.07v19.371h-22.07zm21.68-.34v-.339.339zm-20.89-.353h20.5v-17.985h-20.5v17.985z"/><path d="M1392.44 740.847l10.93-9.601 10.83 9.502-.11.099.11-.099.11.099-10.93 9.6-10.94-9.6zm.45 0l10.49 9.204 10.49-9.204-10.49-9.205-10.49 9.205z"/><path d="M1392.34 759.894v-19.371h22.07v19.357h-22.07v.014zm21.68-.353v-.354.354zm-20.89-.34h20.5v-17.985h-20.5v17.985z"/><path d="M1392.44 759.614l10.93-9.6 10.83 9.501-.11.099.11-.099.11.099-10.93 9.601-10.94-9.601zm.45 0l10.49 9.205 10.49-9.205-10.49-9.204-10.49 9.204z"/><path d="M1414.41 778.617v-19.314h-22.07v19.314h22.07zm-21.28-18.636h20.5v17.985h-20.5v-17.985z"/><path d="M1393.15 778.612l-.26-.226 10.48-9.205 10.49 9.205-.25.226h.45l.25-.226-.11-.099-10.83-9.502-10.93 9.601.25.226h.46zm337.26-170.518h-8.48v15.03h1.2v152.788h6.08V623.124h1.2v-15.03z"/><path d="M1737.2 643.895h-22.08v.593h22.08v-.593z"/><path d="M1736.74 643.895h-.45l.37.325-10.49 9.204-10.49-9.204.35-.325h-.44l-.37.311 10.95 9.6 10.93-9.6-.12-.085-.24-.226z"/><path d="M1715.12 643.895v19.356h22.08v-19.356h-22.08zm.8 18.677v-17.985h20.5v17.985h-20.5z"/><path d="M1715.23 662.983l10.93-9.6 10.83 9.501-.12.099.12-.099.11.099-10.93 9.601-10.94-9.601zm.45 0l10.49 9.205 10.49-9.205-10.49-9.204-10.49 9.204z"/><path d="M1715.12 682.027v-19.371h22.08v19.357h-22.08v.014zm21.68-.339v-.354.354zm-20.88-.354h20.5v-17.985h-20.5v17.985z"/><path d="M1715.23 681.759l10.93-9.601 10.83 9.502-.12.099.12-.099.11.099-10.94 9.6-10.93-9.6zm.45 0l10.49 9.204 10.49-9.204-10.49-9.205-10.49 9.205z"/><path d="M1715.12 700.806v-19.37h22.08v19.356h-22.08v.014zm21.68-.353v-.354.354zm-20.88-.34h20.5v-17.985h-20.5v17.985z"/><path d="M1715.23 700.518l10.93-9.6 10.83 9.501-.12.099.12-.099.11.099-10.94 9.601-10.93-9.601zm.45 0l10.49 9.205 10.49-9.205-10.49-9.204-10.49 9.204z"/><path d="M1715.12 719.652v-19.371h22.08v19.371h-22.08zm21.68-.354v-.339.339zm-20.88-.339h20.5v-17.985h-20.5v17.985z"/><path d="M1715.23 719.37l10.93-9.6 10.83 9.501-.12.099.12-.099.11.099-10.94 9.601-10.93-9.601zm.45 0l10.49 9.205 10.49-9.205-10.49-9.205-10.49 9.205z"/><path d="M1715.12 738.431v-19.37h22.08v19.37h-22.08zm21.68-.353v-.34.34zm-20.88-.34h20.5v-17.985h-20.5v17.985z"/><path d="M1715.23 738.143l10.93-9.6 10.83 9.501-.12.099.12-.099.11.099-10.93 9.601-10.94-9.601zm.45 0l10.49 9.205 10.49-9.205-10.49-9.204-10.49 9.204z"/><path d="M1715.12 757.191V737.82h22.08v19.357h-22.08v.014zm21.68-.339v-.354.354zm-20.88-.354h20.5v-17.985h-20.5v17.985z"/><path d="M1715.23 756.921l10.93-9.601 10.83 9.502-.12.099.12-.099.11.099-10.94 9.6-10.93-9.6zm.45 0l10.49 9.204 10.49-9.204-10.49-9.205-10.49 9.205z"/><path d="M1737.2 775.914V756.6h-22.08v19.314h22.08zm-21.28-18.622h20.5v17.985h-20.5v-17.985z"/><path d="M1715.93 775.911l-.25-.227 10.49-9.204 10.49 9.204-.27.227h.45l.26-.227-.11-.098-10.82-9.502-10.94 9.6.26.227h.44zm-387.09-110.245H995.156v148.108h333.684V665.666z"/><path d="M1270.94 628.225h-146.41v73.212h146.41v-73.212z"/><path d="M1291.8 649.93h-243.89v69.366h243.89V649.93zm250.57 26.402h-111.44v136.245h111.44V676.332zM961.874 762.51h-60.897v25.563h60.897V762.51zm423.986 0h-42.16v24.432h42.16V762.51zm-50.88-52.076h-17.05v24.432h17.05v-24.432z"/><path d="M971.898 774.43h-27.784v7.211h27.784v-7.211zm-50.885-15.326H905.53v7.21h15.483v-7.21z"/><path d="M1755 777H841v188h914V777z"/><path d="M1378 797H-8v218h1386V797zm370.37-29.008h-45.28v45.712h45.28v-45.712zm-59.6-91.66h-111.45v136.245h111.45V676.332zm-690.53 93.781h-40.155v3.026h40.155v-3.026zm0-4.394h-40.155v3.026h40.155v-3.026z"/><path d="M842.864 796.498h-40.155v3.026h40.155v-3.026zm0-4.396h-40.155v3.025h40.155v-3.025zm742.566-20.684H1336v2.022h249.43v-2.022zm-247.72-44.455h-4.68v2.022h4.68v-2.022zm3.28 17.223h-13.58v.65h13.58v-.65zm0 18.169h-13.58v.651h13.58v-.651z"/><path d="M1338.03 726.963h-2.02v46.489h2.02v-46.489zm246.14 41.328h-244.5v2.022h244.5v-2.022zm-243.35-44.455h-7.51v2.022h7.51v-2.022z"/><path d="M1341.14 723.836h-2.02v46.49h2.02v-46.49zm-807.315 48.978h-3.592v5.402h3.592v-5.402zm-1.782 19.541h-8.483v2.56h8.483v-2.56zm41.356-39.326h-29.55v13.107h29.55v-13.107zm8.739 4.569h-4.115v3.987h4.115v-3.987z"/><path d="M567.999 751.488h-6.292v3.337h6.292v-3.337zm378.901 3.463h-6.942v12.259h6.942v-12.259zm8.739 3.215h-5.91v7.55h5.91v-7.55zm81.451-97.523h-20.61v8.285h20.61v-8.285zm-30.82 4.16h-4.44v3.181h4.44v-3.181zm63.58-16.867h-13.87v5.585h13.87v-5.585zm23.52 0h-12.53v5.585h12.53v-5.585zm19.6-1.034h-10.09v4.822h10.09v-4.822z"/><path d="M1115.16 644.979h-14.4v2.955h14.4v-2.955zm-54.86 1.796h-1.87v2.051h1.87v-2.051zm5.57 0h-1.8v2.051h1.8v-2.051zm112.16-21.326h-5.91v5.656h5.91v-5.656z"/><path d="M1180.73 624.164h-10.87v2.248h10.87v-2.248zm15.68 1.285h-5.91v5.656h5.91v-5.656z"/><path d="M1199.1 624.164h-10.87v2.248h10.87v-2.248zm15.3 1.285h-5.91v5.656h5.91v-5.656z"/><path d="M1217.1 624.164h-10.87v2.248h10.87v-2.248zm35.71-11.025h-24.15v21.689h24.15v-21.689z"/><path d="M1247.94 611.697h-7.2v4.115h7.2v-4.115zm18.24 14.721h-4.88v3.408h4.88v-3.408zm15.93 19.85h-7.19v6.037h7.19v-6.037zm85.88 111.511h-17.15v8.866h17.15v-8.866zm13.31 2.11h-4.82v6.758h4.82v-6.758zm89.03-89.981h-28.52v14.224h28.52v-14.224zm61.8-4.642h-38.29v23.909h38.29v-23.909zm-45.48 9.588h-5.53v3.916h5.53v-3.916zm66.55 69.978h-16.19v36.465h16.19v-36.465zm74.01-78.887h-33.92v18.763h33.92v-18.763zm25.45 6.207h-8.49v6.617h8.49v-6.617zm41.62 68.694h-11.94v40.466h11.94v-40.466zm-546.68-114.43h-6.6v2.446h6.6v-2.446z"/><path d="M1143.65 627.617l.66-148.617.65 148.617h-1.31z"/><path d="M1158.36 627.561h-29.86v1.3h29.86v-1.3z"/><path d="M1138.59 627.97l5.76-29.693.16.043-5.75 29.678-.17-.028z"/><path d="M1144.27 599.041l.17-.014 4.34 28.646-.16.014-4.35-28.646zm-15.01 29.607l14.96-65.691.15.042-14.98 65.691-.13-.042zm15.09-65.249l.13-.028 11.48 64.871-.13.028-11.48-64.871zM2620 807h-914v188h914V807z"/></g><defs><clipPath id="clip0"><path fill="#fff" d="M0 0h2500v960H0z"/></clipPath></defs></svg>