<svg width="2500" height="960" fill="none" xmlns="http://www.w3.org/2000/svg"><g clip-path="url(#clip0)"><path fill="#C4C4C4" d="M-34 798h2621v9H-34z"/><g clip-path="url(#clip1)"><path d="M956.588 763.724h-5.545s-.205-2.057-.616-3.704c-.411-1.646-1.848-2.263-1.848-2.263s.205-2.47.205-2.675c0-.206 1.438-.206 1.848-.206.411 0 .411 0 .411-.206s-.616-1.44-.616-1.44-.822 0-.822-.412c0-.617-.616-.823-.616-.823v-1.852c0-.617-1.437-.412-1.437-.412s-.206 1.235-.206 1.441c0 .206 0 .617-.41.823-.206.206 0 1.029 0 1.029s.205.411 0 .823c-.206.412-.822 1.029-.822 1.029s-.411.411-.821.617c-.411.412-.411.206-.411.206s-.411 0-.616-.206c-.206-.206-.616.206-.616.206l-1.027.206s-.206-1.235-.206-1.441c-.205-.205-.821-.617-1.027-.823-.205-.206-1.232 0-1.437-.206-.411-.205-.616.824-.616 1.235.205.412 0 2.058 0 2.058l-29.369 4.116s-.411 0-.821-.618c-.411-.617-1.027.823-1.027.823l-6.983.823-11.501-12.552c.411-2.264.616-4.322.822-5.968v.206c.205.411 0 .617.616.617.205 0 .41 0 .616-.206.616-.205.821-.411.821-1.029-.205 0-.616.206-.821 0 0-.411-.411-.617-.822-.617 0-.411.206-.823.206-1.029.205.206.41.618.821.412v-1.646c0-.206-.205-.412-.616-.206-.205.206 0 .617-.205.617-.206.206-1.233.206-1.438.206-.205 0-1.438.411-1.232-.206.205-.206.616-.206.821-.411.206 0 .616 0 .822-.206.821-.412-.822-.823-1.027-.823 0-.412.205-.824.616-.824.411-.205.616-.205.822-.617.205-.411 0-1.852-.411-2.263-.206-.206-.822-.206-1.232-.206-.411 0-.822 0-1.027.206-.411.411-.616 1.646-.206 2.057.206.206.616.206.822.618.205.411 0 .823 0 1.234-.616 0-.616 0-.822-.617-.205-.412-.205-.823-.41-1.235-.206-.411-.206-.823-.411-1.234 0-.206-.411-.823-.206-1.029.617 0 1.027-.412 1.438-.618.616-.205 1.232-.205 1.848-.617.617-.206 1.233-.412 1.643-.617 0-.206-.205-.412-.41-.412 0-.206-.206-.411-.206-.617 0-.206.411 0 .411-.206s-.411-.617-.616-.617c.205-.206.411-.412.205-.618-.205-.205-.616-.411-.821-.205-.616.205.411 1.234-.206 1.646.206 0 .206 0 .411.206.411.823-1.643.617-1.848.617h-1.643v-9.878c.205-.411 1.027-.411 1.027-1.029 0 0-.206 0-.206-.205 0-.206 0-.206.206-.206 0 0 .205-.206.205-.412 0-.205 0-.617-.411-.823.206-.206.206-1.029-.205-1.029-.411-.411-.822.206-.822.618v1.44c0 .206.206.412 0 .617l-1.026.206v12.759c-.206.206-.411.823-.411 1.234-.206.618-.616 1.235-.822 1.647-.616 1.234-1.232 2.675-1.437 4.115-.411.206-.822.206-1.233.206-.41 0-.821.206-1.232.412-.41.205-.821 0-1.232.411-.411.206-.411.618-.411 1.235h1.438l.205 1.029.411 3.498-7.393 16.257-5.546.823-.821-.823-32.449.206s-.206 3.086-.206 3.704c0 .617 1.027.617 1.438.617.411-.206 1.027.206 1.027.206l-.205 3.087h-2.26v-.206c0-.206.206-1.441.206-1.441s-1.438-.205-1.643 0c-.206.206.205 1.235 0 1.441v.411h-.206l-.205-1.234s-3.491-.206-3.902-.412c-.205-.206-.205.823-.205 1.441v.205h-1.233v-2.469c0-.206-.616.206-.616.206l-.205 2.263h-5.135l-.616-2.263s-2.259-.206-2.464-.206c-.206 0 0-.617.821-1.029.822-.617.822-.617.822-.823 0-.206-2.259.206-2.259-.412-.206-.617-.206-1.44-.411-1.44s-.205.412-.616.206c-.206-.206-1.027-.618-1.027-.618s0 2.264-.205 2.676c-.206.411-.822 1.44-1.233 1.44-.41 0-1.437 0-1.643.206 0 0-.205 1.029-.205 2.263h-9.447v-3.909c0-.206-.206-2.47-.206-2.47s-1.848.206-2.259.206c-.41-.206-.616 1.235-.616 2.264-.205 1.029-.411 3.909-.411 3.909s-1.232 0-2.464.206l-19.716-.206h-5.34c0-3.909.206-9.466.206-9.671 0-.206-.206 5.762-.411 9.671h-1.232c0-.205-1.027-.205-1.027-.205v-3.499c0-.617-.616-.411-.616-.411v-1.235c0-.411-.616-.617-.616-.617v5.556c0 .206-.822 0-.822 0l-1.027.411h-.205v-2.057c0-.412-.206-2.47 0-2.881.205-.412-.206-.618 0-1.029.205-.618-.411-.618-.616-.618-.206.206-1.027.618-1.027.618s-1.027.206-1.438.206c-.205.205-.205 1.234 0 1.646v.411s-.616 0-.821.206c-.206.206.41.823.41.823v1.852c0 .412-.41.206-.616.412h-3.902c0-.617-.205-1.029-.205-1.235-.206-.411-3.697 0-3.697 0v1.235h-8.01s-.205 0-.205.206v3.086c-.205-.205-.205-.411-.411-.617l-.205-.206v-2.469h-2.875c-.206-.206-.616 0-.822 0h-2.875c-1.027-1.852-2.67-4.939-3.081-5.762-.616-1.235-2.669-.206-3.286-.412-.616 0-.205.412-.41.824 0 .205 0 2.881.205 5.35h-3.491c0-2.058.205-5.556.205-5.762 0-.206-.205-.617-.616-.823-.411-.206-.616.206-.616.206s-.822-.206-1.027 0c-.205.205-1.232 1.646-1.232 1.852 0 .205-.411 4.321-.616 4.733h-17.252l-2.464-4.939h-.206c0-.823 0-3.087-.205-3.704-.206-.823-.411.823-.411.823s0 6.173-.205 7.82h-1.438v-14.199c-.205-1.441-.411-.206-.411-.206v14.405h-11.295c0-.823-.206-2.058-.206-2.264-.205-.411 0-.617.206-1.235.411-.617-.206-.617-.206-.617s.206-1.235.206-1.646c.205-.412-.411-1.441-.616-1.441-.206-.205-.616 0-1.027.206-.411.206-1.027.617-1.027.617v1.852c0 .206-.411 2.676-.411 2.676h-3.491c-.206 0-.616.205-.616.617v.823h-15.609l-.205-.206s14.992-4.733 15.198-5.144c.205-.206 1.848.823 2.053 1.029.411.205 0-.618 0-.823 0-.206-.821-.618-1.027-.618-.205 0 1.027-.617 1.027-.823.206-.206-.616-1.029-.821-1.029-.206 0-1.027.412-1.438.618-.205.205-.411-.206-1.027-.412-.41-.206-.616.823-.616.823s-6.983 2.264-7.599 2.264c-.616.205-.821.617-.821 0 0-.618-1.027-.823-1.027-.823l-6.161 2.057v-6.996c0-.206-.206-.206-.616-.206v-8.231 8.231h-.411v8.231h-1.027s-1.643-3.704-1.848-4.115c-.206-.412-1.643-.618-2.054-.823-.411-.206-1.438 0-1.438 0-.205 0-1.027.823-1.437 1.028a1.534 1.534 0 00-.616.618c0 .206 1.026 1.029 1.026 1.029s-.41 8.643-.616 9.466c0 .617-.821 1.234-1.232 1.852-.205.617 0 2.263 0 2.263h-1.848v-9.877s0-.618-.206-.823c-.205-.412-.821-.618-1.437-.412h-1.849v-1.852c0-1.029-.205-2.058 0-3.087v-2.263c0-.412 0-.823.206-1.235l.616-.617.616-.618c.411-.205.411-.205.411-.617v-1.852c0-.412 0-.412.41-.617h1.027c.206 0 .411-.206.616-.412.206-.206.617-.206.822-.206.205-.206.205-.617.205-1.029h.411c0-.205-.411-.411-.411-.617v-1.235c.411 0 .411-.411.411-.617h-.205c0-.412-.206-.823-.206-1.441 0-.411.616-.823-.205-1.028-.411-.206-.822 0-1.232 0-.411 0-.822.205-1.233 0-.616-.206.206-1.647.206-2.264.205-.823.411-1.852.821-2.675.206-.618.616-2.058 1.233-2.264h.821c.411 0 .411-.206.822-.206-.206-.617-1.233-.411-1.438-1.234-.205-.618.411-2.058-.616-2.058 0-.617 0-1.029-.616-1.029-.206 0-.411.206-.411-.206v-1.235l.205-.205v-.618c-.205-.205-.41 0-.616 0-.205 0-.411 0-.616-.205-.205-.412 0-1.029 0-1.441 0-.411-.205-1.029 0-1.44.205-.206.411-.206.411-.412.205-.206 0-.823 0-1.029v-.411c0-.206-.206-.206-.411-.206 0-.206 0-.618.205-.823 0-.618.411-.618.206-1.235-.206-.412 0-.823 0-1.441v-.823c0-.411-.206-.411-.411-.617-.205-.206 0-.412 0-.823v-4.527c0-.412 0-1.235.205-1.647.206-.205.411-.205.411-.411s0-.617-.205-.617c0-.206.411-.618-.206-.618 0-.411 0-.823.411-.823 0-.206 0-.617-.205-.412 0-.205-.206-.617 0-.823.205-.205.616-.205.205-.411-.205-.206-1.232-.206-1.437-.206-.206.206-.206.412 0 .617.205.206.41 0 .41.412v.411c0 .206-.205 0-.205.206 0 0-.205 0-.205.206s.205.206.41.206c0 .206.206.617 0 .823 0 .206.206.617 0 .823-.205.206-.41.412-.205.823h.411c0 .412-.206.618-.206 1.029v5.762c0 .206-.205.412-.205.617 0 .412 0 .618.205.823v.824c-.41-.412-1.027-.412-1.643-.412-.616.206-1.232.206-1.437.823-.206.618 0 1.235-.206 1.646 0 .412-.205 1.235.206 1.647.41.411 1.027.205 1.643.205v2.264c0 .412.205 1.029-.206 1.235-.205.206-.821 0-1.027.206 0-.412.411-.824.617-1.235.205-.206.205-.412.41-.617.206-.412 0-.412 0-.824-.41.206-.41.824-.616 1.235-.821.206-1.232.823-1.232 1.441h-.822c-.205-.206-.205-.412-.205-.618v-1.646c0-.206 0-.617-.205-.617-.206-.206-.616-.206-.616-.206-.617 0-1.027 0-1.643-.206v-2.469c-.206.617 0 1.646-.206 2.469h-.821c.41-.823 0-1.646-.822-1.646-1.027-.206-1.437.617-1.027 1.44h-.41c-.822-.617-2.26-1.852-4.108-3.498 0-1.235 0-2.264-.205-3.498v-6.997c0-.411.41-.617.41-1.029 0-.206-.205-.411-.205-.617 0 0-.205-.206-.205 0v-8.026c0-.411-.616-.205-.822.206-.205.412.411 1.029.411 1.029v7.202c-.205 0-.616-.205-.616.206 0 .206.205.412.205.618 0 .411 0 .411-.205.617-.206.206-.411.206-.206.617h.617c.205.206.205.412 0 .618-.617 0-.411.823-.411 1.234-.206 0-.411 0-.206.206 0 .206.206 0 .411.206.411.206.206 1.235.206 1.646v1.235c0 .823.205 1.646 0 2.469h-1.849c-.411-.411-.821-.823-1.232-1.44l-.205-.206c-2.876-3.293-5.956-6.585-8.626-9.466v-16.668l-.205 15.845c-2.67-3.087-4.929-5.556-5.956-6.791.205-.412.41-.823.616-1.029.205-.206.205-.412.411-.617.205-.206.41-.412.41-.618V705.9c0-.206.206-.206.206-.206.205-.206 0-.412-.206-.617v-.412c0-.206-.205-.206-.205-.412.616 0 0-.411-.205-.617v-2.881c0-.411-.206-.823.41-1.029.822 0 1.233-.206 1.438-.206 0-.411 0-.823-.205-1.029h.205c0-.205 0-.823-.205-1.028-.617-.618-.617.823-1.233.617 0-.617 0-1.646.616-1.852v-1.029c0-.412.206-.617.206-1.029v-1.029c-.206-.206-.616-.206-1.027-.206 0 .618.205 1.647-.205 2.058-.206 0-.617 0-.822.206.205 0 .205.412.411.617-.411 0-.616.206-1.027.206l.205-5.35-.205 5.556h-.411v-6.174c0-.205-.205-.823 0-1.028.206-.206.616-.206.822-.206.205 0 .616-.206.616-.412.205-.411-.411-.411-.616-.411v-1.029c.205 0 .41-.206.41-.412-.205-.206-.41 0-.616 0-.205 0-.616 0-.41-.411.205-.206.41 0 .616-.412.205-.412 0-.412-.206-.823-.205-.206-.205-.206 0-.617.206-.412.616-.824 0-1.029.206-.206.616-.206.206-.618-.206-.411-.411 0-.822-.206-.205 0-.411-.411-.411-1.028-.205-.412-.41-.412-.616-.412-.205 0-.616.617-.821.823-.206.206.205.617.411.823.205.206.205.412.616.618.41 0 0 .823 0 .823v1.029s-.616.411-.822.411c-.411 0 0 .412 0 .618 0 .205-.616.411-.616.411-.205 0-.821.206-.821.206v-4.322c0 .206-.617 2.264-.617 2.47 0 .206 0 1.235.206 1.646-.206.412-.822 1.235-.822 1.235s-.616 0-1.437-.206v-3.91 3.704c-.822-.206-1.438-.206-1.643-.411-.206-.206-.206-.618-.411-.823-.205-.206-.616 1.028-.616 1.028s-.411 0-.822.206l-.205-4.939.205 4.939c-.205 0-1.848-.411-2.053-.617-.206 0-.206.411-.206.411s-.821.206-1.232.412c-.205 0-.411.206-.822.206v-3.087 3.293c-.821.205-1.643.411-2.259.617l-1.848.412v2.263c0 .412 1.848 21.196 3.286 36.424-3.697 4.321-7.599 8.642-11.296 12.758v-2.881c-.205-.206-.821 0-1.026 0-.822 0-1.643.206-2.465.206-.205-.412 0-1.029-.205-1.441-.206-.205-.616-.411-.822-.823-.411-.411-.821-.617-1.232-1.029-.411-.411-.822-.823-1.438-.823.206.823.411 1.441.616 2.264 0 .411 0 .206.206.411.205.206.411.206.411.412.205.206.616.617.41 1.029-.616 0-1.232-.206-1.848-.206-1.027.206-1.848 0-2.875-.617-.411-.206-.616-.823-1.027-.823-.616 0-.822.617-.822 1.029-.616-.412-.821-1.029-1.437-1.235a6.237 6.237 0 00-1.438-1.029c.205.617.411 1.029.411 1.646.205.618.205 1.235 1.027 1.441 0 .205 0 .411.205.617-.616 0-1.232.206-1.848.206-.616 0-1.027 0-1.643-.206-.411-.206-.822-.206-1.438-.206s-1.232.412-1.643-.206c-.205-.205-.411-.617-.616-.411-.411 0-.205.411-.411.617-.205 0-.411-.206-.616 0 0 .206 0 .206.205.412v.411c0 .206.411.412.617.618.821.411.821-.618 1.643-.823 0 .617.821.411 1.232.617.411.206.205.823 0 1.235-.206.823-.616 1.646-.822 2.675-.205 1.029-.616 1.852-.821 2.881-.206.823-.206 1.852-.411 2.675 0 .617-.205 1.029-.411 1.646-.205 1.029-.205 2.058-.616 3.293-.411 1.234-.616 2.675-.821 3.91-.206.617-.206 1.029-.411 1.646 0 .411-.205.823-.205 1.029 0 .823-.206 1.646-.411 2.469-.206.617-.411 1.235-.411 2.058 0 .206 0 .617-.205.823-.206.206-.616.206-.822.412-.411.205-.616.205-.616.617 0 .206.205.617-.205.823h-2.054a2.865 2.865 0 010 1.852h-1.027v-1.646s0-.206-.205-.206h-2.054v-5.968c0-.411-.205-.205-.616-.205 0-.206 0-.412-.205-.618-.206-.205-.206 0-.411-.411 0-.412.616-.412.205-.823h.206c0-.618-.411-1.647-1.233-1.235-.41.206-.41.617-.205.823 0 .206.205.206.205.412 0 .205-.205.205-.205.411s.205.618.205.823c0 .412.206.412.411.618.616.411 1.027.411 1.027 1.234 0 .412.205 1.852-.205 2.058-.206.206-.617-.206-.822 0-.411.206-.411.618-.411.823v1.029c0 .412.206.412.616.412.411 0 .617.206.617.411h-6.983l-6.778-12.141s-.205-.206-.205 0c0 0-.205.206 0 .206l6.777 11.935h-.205s-.205 0-.205.206v5.145h-.616c-.411.205-.206 1.029-.206 1.44-3.286 1.235-9.036 3.704-13.555 5.556h-1.643c-1.643-.205-2.464.618-2.875 1.441-.205.823.616 2.263 1.027 2.675 0 0 .205 0 .205.206l.822 2.058-.205.205c-.411.618.821 2.264.821 2.264 0 .206-1.027.206-1.232 0-.411-.206-1.232-.412-1.643-.412-.411 0 .205.823 0 1.235-.206.412-.616-.206-1.027-.412-.411-.205-.205-1.028-.616-1.44-.206-.206-.411-.617-1.027-.412-.616.206-.205 1.852-.205 1.852s-1.643-.823-2.054 2.47c-.411 3.292 13.965 4.939 13.965 4.939.206.823 1.438 3.704 1.438 3.704C598.415 802 933.381 802 933.381 802c2.67-6.997 8.009-16.874 8.831-18.52 1.027-1.441 1.438-.824 1.232-2.058-.205-1.235-1.437-2.264-1.437-2.264v-4.321h-2.26v-1.647l15.609-.617v-2.881l1.027-.206-.206-1.646h-.41v-3.292h.616c1.027 0 .205-.824.205-.824zm-420.196 22.019l-.616-1.646h1.643l.206.823c-.617 0-1.027.412-1.233.823zm2.876 1.235c-.206-.412-.206-1.235-1.233-1.852l-.205-1.029c.821 0 1.643 0 1.848.206.411.206.616.617 1.027 1.029-.411.823-.616 1.646-1.027 2.469-.205-.206-.41-.617-.41-.823zm2.259 1.029v.823l-1.438.206-.411-.823c.206-.618.616-1.647 1.027-2.676.411.618.616 1.235.822 1.441.41.617 0 1.029 0 1.029zm4.929-4.527c-.411.205-.822-.206-1.027-.412-.206-.412-.411-.617-.822-.823-.616-.206-.616.411-.616.411l-1.232-1.234 3.902.206v.823c0 .411.205.823-.205 1.029zm4.107 1.646c-.205.617-.205 1.029-.821 1.235-.411.205-1.027 0-1.438-.206-.616-.618-.616-2.058-.616-2.881 0-.618.411-.618.821-.823.411 0 .822-.206.822-.618h1.438c.41 1.235 0 2.264-.206 3.293zm.616-4.527c-.41 0-1.437-.206-1.232.617 0 .206.205.206.411.412h-.822c-.205-.618-.616-.824-1.437-.824-.411 0-1.643 0-1.643.824l-4.108-.206-1.232-1.235h-1.643c4.313-1.852 9.653-4.116 12.528-5.35v3.498c-1.232 0-.822 1.235-.822 2.264zm2.876-10.907v1.441c-.206 0-.411.205-.617.617 0 .206 0 .617-.205.823h-.205v-4.939h.205l.616 1.235c.206.412.206.617.206.823zm0-1.44l-.206-.412h.206v.412zm.41 2.881v-1.235h.206l.616 1.235h-.822zm1.027-.412l-.411-.823h.411v.823zm0-1.029h-.616l-.411-.617v-1.029h1.233l-.206 1.646zm3.902.618c-.205.205-.41.411-.821.411-.411.206-1.027-.206-1.643-.206-.411 0-.822.412-1.232.412v-1.029h3.902c.205.206 0 .412-.206.412zm.616-.618h-4.107v-1.852h4.107v.823c.206.206 0 .618 0 1.029zm1.643-.617c-.205 0-.41.206-.616 0v-1.441h.822v1.441h-.206zm1.027 0h-.821v-1.235h.821v1.235zm8.215-12.964c0 .411 0 .617-.205 1.028 0 .206 0 .412-.206.618 0 .206-.205.206-.41.206 0-.412.205-.824.205-1.235 0-.206.205-.412.205-.617 0-.206.411-.618.206-.824l.205.206c.206 0 .206.206 0 .618zm3.286-15.64c0-.411 0-.823.411-1.029 0 .823-.411 1.441-.411 2.264v-1.235zm-1.232 5.35c0-.205.205-.411.205-.617 0-.206 0-.617.206-.823 0 .823 0 1.852-.411 2.469-.205 0-.205 0-.205-.205-.206.205 0-.618.205-.824zm-.822 4.322v-.823c0-.206.206-.618 0-.823v.205-.205c0-.206.206-.412.411-.206.206.206 0 .617 0 .617-.205.618-.411 1.029-.616 1.646.205-.205.205-.411.205-.411zm1.438 8.849h-1.438v-1.029l1.438-1.441v2.47zm3.081-1.029c0 .205-.411.205-.616 0-.206-.206-.206.617 0 .823.205.205-1.027.206-1.027.206s-.206-3.087-.206-3.293l3.081-2.675s-1.232 4.733-1.232 4.939zm1.232-7.203l-5.751 5.556s1.643-7.819 1.643-8.025h4.313v2.469h-.205zm0-3.292h-3.491l3.491-3.087v3.087zm0-5.351l-3.697 3.704 1.232-6.379 1.849.412.616.411v1.852zm1.643-2.675l1.027.206-1.027 1.029v-1.235zm.821 2.881l-.616 2.058s-.205-1.852-.205-2.058h.821zm-.821 6.174h.616l-.616 1.44v-1.44zm1.643 9.671h-1.643l.205-1.234 1.233-1.029v2.263h.205zm0-4.115l-1.643 1.029 1.232-3.91.411-.412v3.293zm0-3.499l-.205.206.205-.823v.617zm0-4.938l-.822.205s.822-1.852.822-2.057v1.852zm-1.643-6.997v-.823h.821l.822.823h-1.643zm2.67 19.549v-3.086l.616 3.086h-.616zm.411-6.379s-.206-1.235-.411-2.058l.411-.411v2.469zm0-2.675l-.411.412c0-.412-.206-.824-.206-.824h.617v.412zm.821-1.646h1.027l-.822.823v-.823h-.205zm2.465 10.7l-2.054-.205v-.824c.616-.823 1.232-1.852 2.054-3.086v4.115zm0-4.321c-.822 1.235-1.438 2.264-2.054 3.087v-3.087l2.054-1.441v1.441zm0-3.91l-2.26 1.852v-3.292c.411-.412.822-.618 1.027-1.029h1.233v2.469zm0-3.292h-.206l.206-.206v.206zm0-.618c-.206.206-.411.412-.411.618h-1.849v-1.441l2.26-2.058v2.881zm0-4.939l-2.26 2.058v-4.733h2.26v2.675zm2.669 16.875h-.41c.205-.206.205-.412.41-.618v.618zm0-.824c-.205.412-.41.618-.616.824l-.821.205.205-6.379c.411-.617.822-1.235 1.232-2.058v7.408zm0-7.613c-.41.617-.821 1.234-1.232 2.057v-1.234l1.232-1.029v.206zm-1.232-1.029v-.824l1.232-.205-1.232 1.029zm1.232-1.852h-1.232v-1.852c.411-.412.822-.824 1.232-1.441v3.293zm0-3.499c-.41.412-.821.823-1.232 1.441v-2.881l1.232-1.235v2.675zm-1.026-3.704v-.823h1.026l-1.026.823zm2.875 15.022zm-.616-15.022l.616-.617v1.235l-.616 1.852v-2.47zm.616 4.116v2.881h-.616l.616-2.881zm-.616 4.527s0-.206 0 0l.616-.206-.616 3.91v-3.704zm0 9.878s.41-1.647.41-2.881v-.206 3.087h-.41zm43.744-31.279l1.027 1.029a2.484 2.484 0 01-1.027-1.029s0 .205 0 0zm-.205.411c.205.206.616.412.821.618h-.821v-.618zm-8.42-10.289c2.464 2.881 5.339 5.968 8.215 9.055h-.411c-2.054-1.647-4.108-3.499-6.161-5.351l-1.643-2.263v-1.441zm0 1.852l1.027 1.646c-.411-.411-.822-.617-1.027-1.028v-.618zm0 .823c.41.412 1.027.823 1.437 1.441l3.697 5.144c-1.643-1.646-3.491-3.498-5.134-5.35v-1.235zm0 1.647c1.848 2.057 3.902 3.909 5.75 5.761l4.929 6.997c-.205.412-.411 1.235-.411 1.441 0 .205.411 1.234.411 1.44 0 .206-1.027 0-1.027 0v-1.44l-.616 1.646-2.67-.206s-.616-.412-.616-.617c-.205-.206-.616-.412-.616-.412-.205 0-1.027.617-1.027.617s-.616.206-.821 0c-.206-.205-.616-.205-.822-.411-.205-.206-.411-.206-.616 0-.205.206-.821.617-.821.617h-.822v-15.433h-.205zm11.706 12.141c0 .205 0 .411-.411.617h-.616l-4.313-6.173 4.929 4.938c0 .206-.205.412 0 .823 0-.205.206-.411.411-.205zm-2.054 8.437l-.616-.618c-.205 0-.205 0-.205-.205v-.618c.41-.205.616 0 1.027-.205 0-.206-.206-1.441.205-1.235.411 0 .205 1.235.205 1.44.206 0 1.233-.205 1.027.412 0 .206-.616.411-.821.411-.411 0-.616-.411-.822-.411-.411 0-.205.823 0 1.029zm-1.437-3.499c.41.206.616 0 .821 0v.412c0 .206.205.412.205.412h-1.026v-.824zm-.822.618c-.411-.206-.821-.412-1.232-.412v-.206h1.027c.41.206.41.412.205.618zm-4.518.617c.411.206 1.027.206 1.232.823 0 .206 0 .618-.411.412-.41-.206-.41-.412-.821-.412v-.823zm-2.054 0c.206 0 .411.206.616.412.206.206.206.617.206.823-.206-.206-.616-.412-.822-.412 0-.205.206-.617 0-.823zm-1.232-22.842v1.441l-5.134-7.408c1.232 1.234 3.08 3.498 5.134 5.967zm0 1.647v.823a744.893 744.893 0 00-6.161-5.556c0-1.852.205-3.499.205-3.499l5.956 8.232zm-3.081 19.137s0 .206 0 0h-3.08l-.206-.205v-.412l3.492.206c-.206.206-.206.411-.206.411zm0 .412c-.205.206-.205.411-.205.411l.616.618h-2.67l-.205-.823-.206-.206h2.67zm.411 1.44s0 .206 0 0c0 .412-.205.824-.205.824l.821.617h-3.08l-.206-1.441h2.67zm.411-2.263h1.848v.823s-1.437-.206-1.437-.412l-.411-.411zm-.411-.206c0-.206 0-.206 0 0 0-.206 0-.206 0 0l-3.697-.206.206-15.845c.205-.617.41-1.029.821-1.646.206-.206.411-.412.616-.823.206-.206.206-.412.616-.412 0-.206 0-.412-.205-.412 0-.205-.205-.823.205-1.028 0-.412-.41-.412-.41-.618h.205c1.438 1.441 2.875 3.087 4.518 4.733l-.205 16.051-2.67.206zm-2.67-21.813c-.205.412.206.617.206.823 0 .206-.822.618-.206.618 0 .411.206.411 0 .617 0 0-.205 0-.205.206 0 .205.205.205.205.205 0 .412-.616 1.029-.821.618v-4.116c.205.412.616.823.821 1.029zm-.821-1.235c.41.206.821.618 1.232 1.029h-.411c-.205-.205-.411-.617-.821-1.029zm1.848 2.058v-.617c1.232 1.235 2.875 2.469 4.313 3.91v1.234c-1.643-1.44-3.081-3.086-4.313-4.527zm-2.259-18.932l1.232-.411v2.057c-.411 0-.821-.205-1.232-.205v-1.441zm0 1.646c.411 0 .821.206 1.232.206v1.852h-1.232v-2.058zm-.616-1.44l.411-.206v1.441h-.411v-1.235zm.411 1.44v.412c-.206 0-.411-.206-.411-.206v-.206h.411zm-.617-11.318h.617l.205 1.029h-.822v-1.029zm-.41 16.257l.821-.411s-.205 3.086 0 3.292c.206.206-.821-.206-.821-.206v-2.675zm-.822 4.527l.822.412v2.058h-.822v-2.47zm.822 3.705s-.206-.206 0 0c0-.206 0-.412.205-.412v.206c-.205 0-.205 0-.205.206zm.205 0c-.205 0-.205 0 0 0-.205.205-.205 0 0 0-.205 0-.205 0 0 0zm-.411-.412c-.205 0-.205 0 0 0-.205-.206-.205-.412-.41-.412h.821l-.411.412zm-.616-.206c0 .206.206.206.206.412v.206c-.206.205-.206.411-.411.411l.205-1.029zm0 1.235l.616-.617.206.205c-.206.412-.411 1.029-.616 1.441l-.206-1.029zm0 1.44c.206-.617.616-1.234.822-1.852 0 0 0 .206.205.206 0 1.852 0 4.116-.205 6.379l-1.027-.205.205-4.528zm-.205 4.939l1.027.206c0 3.704-.206 6.997-.206 6.997 0 .205 0 .411-.205.823h-1.027l.205-.618.206-7.408zm-1.232-23.047l-7.394-5.762s8.42 4.733 8.42 4.938v1.029l-1.026-.205zm.616 31.484s.205 0 0 0h1.027c0 .206-.206.206-.206.206-.411.206-.821 1.44-.821 1.44v-1.646zm1.232 3.293s0 3.704.205 6.173h-1.232c0-2.058-.205-5.967-.205-5.967h1.232v-.206zm.205 6.379v1.44c0 .206-.205.412-.41 0-.206-.411-.822-.411-.822-.411v-1.029h1.232zm-1.643-47.947l.822.411v4.733l-4.724-5.35h3.902v.206zm-4.723 0l4.723 5.144-8.625-5.144h3.902zm3.08 6.996l-.41.618h1.437s-.205.617-.205.823c0 .206-.411 1.029-.411 1.029-.205.205.411.617.411.617l-.411 1.852-2.464.617H609.3c-.205 0 1.027.824 1.027.824v1.028l-.205.206s0 .206.205.206v1.029l-.205.206.205.206v.411s-.205.206 0 .206v1.235c0 .205.205.823.205.823l3.286 1.852v1.029c-1.437 2.469-3.286 5.556-5.339 9.054-.616-7.82-1.027-16.463-1.438-22.636.205.206.411.617.411 1.029h2.259c.411 0 .616.206 1.027.206.205-.412 0-.823 0-1.235v-1.235a25.35 25.35 0 01-2.054-.617c-.205-.206-.616-.412-.821-.617-.206-.206-.617-.412-.822-.618 0-1.44-.205-2.469-.205-3.292l6.366 5.144zm-.41 9.055v-.618l.821-.205v.617l-.821.206zm.821.206v.617l-.821.206v-.618l.821-.205zm-.821-1.029v-1.029l.821-.206v1.029l-.821.206zm0-1.441v-.617l.821-.206v.617l-.821.206zm-1.233 2.675v-.411l1.027-.206v.617h-1.027zm.822.206v.617l-1.027.206v-.617l1.027-.206zm-.822-1.029v-1.029l1.027-.206v1.029l-1.027.206zm0-1.44v-.618l1.027-.205v.617l-1.027.206zm-.821 2.469v-.411l.411-.206v.411l-.411.206zm.411.206v.617l-.411.206v-.823h.411zm-.411-1.029v-1.029h.411v1.029h-.411zm0-1.441v-.823h.411v.823h-.411zm2.259 24.077s-2.054 3.293-2.054 3.498c0 .206-.205 3.91-.205 5.556h-1.643c-.206-2.263-.411-5.761-.616-9.671 1.643-2.881 3.286-5.556 4.723-8.232l-.205 8.849zm.205 3.704v5.35h-1.232v-5.144c.205-.206 1.232-.206 1.232-.206zm-5.134 5.968l.205.617h-.205c.205-.411.205-.617 0-.617.205 0 .205 0 0 0zm.411.823l.205 1.44c-.205 0-.205.206-.411.206-.205 0-.205-.823 0-1.646h.206zm-.822-1.029l-.205-4.939.205 4.939-1.643.206-.205-5.556c.821-1.441 1.848-2.881 2.67-4.322.205 3.704.41 6.997.616 9.466l-1.438.206zm0 1.029v1.646-1.646zm0-.206v-.411h.206c-.206 0-.206.205-.206.411zm-.205.206v1.646h-.822l-.205-1.646h1.027zm-.822-.206v-.411l.822-.206v.411h-.822v.206zm-.616 2.058v-1.646h.411l.205 1.646h-.616zm.206.206l-.411.411v-.411h.411zm-.411-2.264l.411-.206v.206h-.411zm-1.027 1.235v.617h-.822c0-.411 0-1.029-.205-1.646h1.027v1.029zm-.822-12.553c.411-.617 1.027-1.235 1.438-1.646l.205 6.791c-.616 1.234-1.437 2.263-2.053 3.498a404.757 404.757 0 01-.616-6.791c.205-.617.616-1.235 1.026-1.852zm-1.232 1.441c.206-.206.206-.412.411-.618 0 .206-.205.412-.411.618zm2.875-17.08l-.205-.206v-4.322c.205-.205.205-.411.205-.617.206-.411.411-.823.822-1.029.411-.411.205-.823-.205-1.235l-.617-1.234s-.205-.412-.205-.618v-4.115h.205c.411 0 .822-.618 1.027-.823.411 6.173 1.027 15.022 1.643 23.047-.821 1.235-1.437 2.47-2.259 3.704l-.616-9.26c.411-.206 1.027-.617 1.027-1.235 0-.617-.411-1.44-.822-2.057zm2.26 9.26v1.235c-.822.823-1.643 1.852-2.465 2.881v-.412c1.027-1.235 1.848-2.469 2.465-3.704zm-2.465 4.321c-.205.412-.616.618-.821 1.029.205-.411.616-.823.821-1.234v.205zm.205 7.408l.206 5.351-2.054.411c0-.823-.205-1.44-.205-2.263.616-1.235 1.437-2.264 2.053-3.499zm-1.848 7.82v-.617c-.205.206 0 .411 0 .617zm-.205.412c.205.823.205 1.646.205 2.058l-.205.205h-.206v-2.263h.206zm.41 0h.822c0 .411-.205 1.029-.205 1.029l-.206.411c0 .206-.205.412-.411.618v-2.058zm.822-2.264l1.027-.206v.206h-1.027zm.821-13.17c.822-1.029 1.643-1.852 2.465-2.881.205 1.852.205 3.498.411 5.145-.822 1.44-1.643 2.881-2.67 4.321l-.206-6.585zm3.286 13.17l-.205-.617h.411v.206h-.206v.411zm0 1.235s0 .206 0 0l-.205-1.029c.205.411.205 1.029.205 1.029zm.411 6.791l1.232 5.556h-.616l-1.232-5.556h.616zm1.027-7.409l-.821.824v-1.029h1.026l-.205.205zm-.821-.617v-.617c0-.206-.206-.206-.411 0v-.206h1.437v.823h-1.026zm-1.027-11.112c-.206-1.646-.206-3.293-.411-5.145 1.848-2.263 3.697-4.321 5.134-6.173v3.087c-1.232 2.469-2.875 5.35-4.723 8.231zm-.206-5.35v-1.441a344.8 344.8 0 005.34-8.849l-.205 4.116c-1.438 1.852-3.286 3.91-5.135 6.174zm-2.259-31.074c0 .824.206 2.058.206 3.499-.411-.206-.617-.206-1.027-.206l-.206-4.116 1.027.823zm-6.366 1.029v-2.263h4.929l.205.206v4.115h-.822c-.41 0-.616-.206-1.026-.411-.411-.206-.617-.206-1.027-.412-.822-.206-1.643-.823-2.259-1.235zm0 .618v.823c0 .617.205 1.029.205 1.646 0 .823.205 1.646.205 2.675.206 0 .411-.206.411-.206.205 0 .411 0 .616-.205h.822c.41 0 .616.205 1.027.411.205 0 .616 0 .821.206l-.205-.206a9.955 9.955 0 011.437.618v3.909l-.205-.205c-.205 0-.616.823-.616 1.029-.411.617-1.027 1.234-.822 2.057.206.412.616.824.822 1.235.205.206.411.823.616 1.029h.411v4.116c-.616 0-1.233.205-1.643.617-.206.206-.411.412-.411.823 0 .412.205 1.029.411 1.646l-.206-.617c.206.617.616 1.235 1.438 1.029h.411l.205 9.672c-.616.823-1.027 1.646-1.643 2.469-.411.412-.616.823-1.027 1.235-1.232-14.199-2.875-32.72-3.08-35.806zm-8.421 48.77c3.697-3.91 7.599-8.437 11.296-12.758v.205c-3.902 5.968-7.804 12.142-11.296 17.492v-4.939zm0 5.35c3.492-5.35 7.599-11.523 11.296-17.491.205 2.469.411 4.733.616 6.791-4.313 6.996-8.831 13.581-11.912 18.314v-7.614zm4.724 11.936s-.205.206-.205 0c-.206 0-.411 0-.822.206v-.824h1.027v.618zm0-1.235l-1.027.412v-1.852h1.027v1.44zm0-1.646h-.411.411zm.411 2.675c0-.206 0 0 0 0zm.616-.617h-.616v-.206l.616-.206v.412zm0-.618l-.616.206v-1.235h.616v1.029zm0-1.44h-.616v-.206l.616-.206v.412zm1.232 4.116c-.205 0-.411-.412-.616-.618 0-.206-.206-.411-.411-.617v-.206h1.027v1.441zm0-2.058h-1.027v-.412l1.027-.206v.618zm0-1.029l-1.027.206v-1.029h1.027v.823zm0-1.029h-1.027v-.412l1.027-.205v.617zm2.259 3.704h-.205c-.411 0-.411-.412-.822-.412-.205 0-.411.206-.821.618v-1.441h1.848v1.235zm.205-1.646h-1.848v-.618l1.848.206v.412zm0-.823l-2.053-.206v-.618h2.053v.824zm0-1.235h-2.053v-.617l2.053-.412v1.029zm.617 3.498c0 .206-.206.206-.411.206v-1.235h.821c0 .412-.41.823-.41 1.029zm.616-1.44h-1.027v-.618h1.027v.618zm0-2.058h-.822v-1.029h.822v1.029zm0 .411v.824h-1.027v-.824h1.027zm1.027 1.235c.205.206 0 .206 0 0zm.821-1.029c-.205 0-.205.412-.411.823h-.821c-.206 0-.206-.411-.206-.823h1.438zm.616-.411h-1.848v-1.029h1.848c-.205-.206 0 .411 0 1.029zm.616-1.441h-4.107l-4.518.823h-.206s-.205 0-.205.206l-1.232.206h-.206s-.205 0-.205.206l-.822.205s-.205 0-.205.206c0 0 0 .206.205.206h.822v3.087c-.205 0-.205.206-.205.206-.206.205-.617.823-.822 1.028-.411.206-.616.206-1.027.618-.205.206-.205.617-.411 1.029l-.41.823-.206-3.704v-4.733c3.081-4.733 7.599-11.318 11.912-18.315 0 .823.205 1.441.205 2.058l-.821.206-.206.205s0 .206.206.206h.616v4.733c-.205.206-1.027.412-1.438.618-.205 0-.616.617-.41.617.205 0 1.232.412 1.232.412s2.67 8.848 2.67 9.054c.205-.617 0-.412-.206-.206zm.411-15.845h.411v1.646h-.411v-1.646zm0 2.058h.411v.411c-.206.206-.411-.205-.411-.411zm1.643 11.524l-1.232-5.557h.616l1.232 5.557h-.616zm1.643-.206l-1.232-5.556h.616l1.232 5.556h-.616zm3.081 27.78c0 .206-.206.412-.411.412h-1.232c-.206 0-.411-.206-.411-.412v-2.469c0-.206.205-.412.411-.412h1.232c.205 0 .411.206.411.412v2.469zm0-42.185h.616-.616zm.205 8.849c0-.206 0-.412.411-.412h4.723c.206 0 .411.206.411.412v4.115c0 .206-.205.412-.411.412h-3.491c-.205 0-.616-.206-.616-.412l-1.027-4.115zm3.286 33.336c0 .206-.205.412-.411.412h-1.232c-.205 0-.411-.206-.411-.412v-2.469c0-.206.206-.412.411-.412h1.232c.206 0 .411.206.411.412v2.469zm3.697-13.581a.442.442 0 01-.411.411h-1.232a.441.441 0 01-.411-.411v-2.47c0-.205.205-.411.411-.411h1.232c.205 0 .411.206.411.411v2.47zm4.107-15.434c0 .206-.205.412-.41.412h-3.286c-.206 0-.411-.206-.411-.412v-4.116c0-.205.205-.411.411-.411h3.08c.206 0 .411.206.411.411v4.116h.205zm.822-10.495c.411 0 .821-.206.821.206v1.029c-.205 0-.41-.206-.821-.206 0-.411.205-.823 0-1.029zm4.107 10.907h-3.08c-.206 0-.411-.206-.411-.412v-4.116c0-.205.205-.411.411-.411h3.08c.206 0 .411.206.411.411v4.116c0 .206-.205.412-.411.412zm2.876 31.896a.442.442 0 01-.411.411h-1.232a.441.441 0 01-.411-.411v-1.646c0-.206.205-.412.411-.412h1.232c.205 0 .411.206.411.412v1.646zm0-16.874a.442.442 0 01-.411.411h-1.232a.441.441 0 01-.411-.411v-2.47c0-.205.205-.411.411-.411h1.232c.205 0 .411.206.411.411v2.47zm-.822-24.488v-.412c.205.206.616 0 .822-.206.205-.205.205-.617.205-.823.205 0 .821.206 1.027.412v1.029h-2.054zm4.107 38.069c0 .206-.205.412-.41.412h-1.232c-.206 0-.411-.206-.411-.412v-2.469c0-.206.205-.412.411-.412h1.232c.205 0 .41.206.41.412v2.469zm-.41-29.015v-4.116c0-.205.205-.411.41-.411h1.643c.206 0 .411.206.411.411v4.116c0 .206-.205.412-.411.412h-1.643c-.205 0-.41-.206-.41-.412zm2.875 32.308a.441.441 0 01-.411.411h-1.232a.442.442 0 01-.411-.411v-1.646c0-.206.206-.412.411-.412h1.232c.206 0 .411.206.411.412v1.646zm-.411-50.623v.412l-5.339-5.35-3.697-5.351c1.848 1.647 3.697 3.293 5.545 4.733-.411.412-.206 1.647.411 1.235v.617c.616 0 1.232 0 1.848.206.411.206.616.617 1.027.823l.411.412c0 .206.41.411.205.823 0 .206-.411.412-.205.412 0 .205.41 0 .616 0-.411.617-.206 1.028-.822 1.028zm.411-2.469h-.411c-.205 0-.205-.206-.411-.412l-.616-.617c.411 0 .822 0 1.233.206.205 0 .205 0 .205.206v.617zm9.447 5.35h.616v1.647h-.616c0-.412.206-1.029 0-1.647zm-.821 0v1.647h-.411c0-.412.205-1.029 0-1.235l.411-.412zm-.411 3.087c.205 0 .411-.206.616 0 .205 0 .205.206.411.206 0 .411.205.823.205 1.235h-1.027c-.205-.412-.205-.824-.205-1.441zm0 2.058h.821c0 .412.206.823 0 1.235h-1.026c0-.412.205-.823.205-1.235zm-1.232-4.939c.205 0 .41 0 .616-.206 0 .412 0 1.029.205 1.441h-.616c-.205-.412 0-1.029-.205-1.235zm.205 11.112c0-.205.205-.411.616-.411h2.054c.205 0 .411.206.411.411l-.206 3.91c0 .206-.205.412-.616.412h-2.054c-.205 0-.41-.206-.41-.412l.205-3.91zm-2.259-10.7v.206c0 1.234-.822-.206-1.232.205v-1.029c.205 0 .616-.205.821-.205 0 .411.206.617.411.823zm-.205-1.441h-1.027c-.822-1.029-1.849-2.058-2.876-3.086v-.206c1.643 1.44 3.081 2.675 3.903 3.292zm-3.903-2.469v-.412c1.027 1.029 1.849 1.852 2.67 2.881-.41 0-.616 0-.821.206-.411 0-1.027.206-1.232 0l-.411-.412c-.411-.823-.206-1.646-.206-2.263zm2.876 19.138h-2.259c-.206 0-.411-.206-.411-.412v-4.116c0-.205.205-.411.411-.411h3.286c.205 0 .41.206.41.411l-.821 4.116c0 .206-.411.412-.616.412zm2.875 29.221h-1.232c-.206 0-.411-.206-.411-.412v-2.469c0-.206.205-.412.411-.412h1.232c.205 0 .411.206.411.412v2.469c.205.206-.206.412-.411.412zm0-13.788h-1.232a.441.441 0 01-.411-.411v-2.47c0-.205.205-.411.411-.411h1.232c.205 0 .411.206.411.411v2.47c.205.206-.206.411-.411.411zm3.697-10.7a.443.443 0 01-.411.411h-3.286a.443.443 0 01-.411-.411v-2.058c0-.206.206-.412.411-.412h3.286c.205 0 .411.206.411.412v2.058zm4.929-17.492c.205 0 .41 0 .616.206v1.235c-.206-.206-.206-.824-.616-.824v-.617zm-1.438.206s.205 0 0 0c0-.206 0-.206 0 0 .411-.206.616-.206.616.206v1.029c-.205 0-.411-.206-.616-.206 0 .206.205-1.029 0-1.029zm-2.875 1.235c0-.206.205-.412.411-.618 0-.206.205-.411.205-.617h.616v1.029c-.411 0-1.027.411-1.232.206zm-.206 10.7l.206-3.91c0-.205.205-.411.616-.411h3.697c.205 0 .41.206.41.411l-1.643 3.91c0 .206-.41.412-.616.412h-2.053c-.411 0-.617-.206-.617-.412zm3.903 29.633l-1.438-1.646c0-1.029.205-2.264.205-3.293v-3.498h1.233v8.437zm1.848-7.614v9.878l-1.438-1.852v-9.055h.206c.616 0 1.027.206 1.232.412.205.205 0 .617 0 .617zm15.608 2.264a1.533 1.533 0 00-.616-.618l-.411-.411h1.027v1.029zm.822.617l-.411-.412v-1.44h1.027v2.058c-.205 0-.616-.206-.616-.206zm5.956-.412c-.411-.411-1.438-.823-2.259-.617-.822.206-2.26 1.852-2.26 1.852s-.205 0-.41-.206v-2.263h4.929v1.234zm1.232.206c0 .206-.616.206-1.027 0v-1.44h2.67c-.822.411-1.643 1.44-1.643 1.44zm3.286-.411s0 .205 0 0h-1.643c.411-.206 1.232-.412 1.643 0zm.205 1.852c-.205 0-.821-.618-1.027-.823-.205-.206-.205-.412-.41-.412l-.206-.206h1.643c.206.618 0 1.029 0 1.441zm3.081-2.676c-.205.412-.411.824-.411 1.235 0 .412-.205 1.646-.205 1.646l-1.027-.205c.411-1.441-.205-1.852-1.438-3.087h3.286c-.205.206-.205.411-.205.411zm8.626 1.853c0 1.028-.206.617-.206.617s-.205-.206-.41-.617h.616zm0-.412h-1.027c-.206-.206-.206-.412-.206-.412v-.823h1.643c-.205.206-.41.618-.41 1.235zm9.858 1.235l-.616 1.029s-1.438-.206-1.849-.206c-.411 0-1.027 0-1.437-.206-.206-.206-1.438.617-1.438.823-.205.206-1.232-.206-1.848-.206-.617.206-1.438-1.029-1.438-1.029v-1.028h8.626v.823zm0-1.029h-8.626v-1.235h8.626v1.235zm.41.617v-.411h.822l-.822.411zm1.438-2.058c-.205.206 0 .618 0 .618l-.205.823h-1.233v-1.441h1.438zm4.107 1.441h-.41l-.616-1.441h.205l.821 1.441zm-1.026-1.852l-.822-1.647.822 1.647zm-2.465-3.499s.205.206.411-.205l1.437 3.704h-1.848v-3.499zm.822 5.351h-.617v-1.441h1.849l.616 1.441h-1.027c-.411-.206-.616-.206-.821 0zm2.259 1.852l-.822-1.441c0-.205-.205-.205-.205-.205h.821l.616 1.646h-.41zm.821 0l-.616-1.646h.411l.821 1.646h-.616zm1.027 0l-.821-1.646h4.312v1.646h-3.491zm3.491-2.058v.206h-4.518l-.821-1.441h5.956c-.206.206-.411.823-.617 1.235zm1.233-.206c0-.823 0-.823-.206-1.235h.822v1.441h-.411c-.205 0-.205 0-.205-.206zm0 .823h.41v1.441c0-.412-.205-1.029-.41-1.441zm9.036 1.441l-8.215.206v-1.647h9.037a16.051 16.051 0 00-.822 1.441zm1.027-1.852h-9.242v-1.441h9.653v1.029c-.206 0-.206.206-.411.412zm5.751.617c-.206 0-.206-.206 0 0-.206-.206 0-.206 0 0zm1.232-1.852c-.206-.823-.411-.206-.822 0-.205 0-.41.823-.41 1.235h-.411c-.411-.618-.822-.618-.822-.618v-1.029h3.492v1.647h-1.027c.205-.412 0-.823 0-1.235zm.411 3.087s-.206-.618-.206-1.441h.822v1.235c.205.206-.616.206-.616.206zm2.875-.618c-.206.206-.206.206 0 0-.411-.205-.411-.411-.616-.823h.616v.823zm0-1.028h-.616c0-.206-.206-1.441-.206-1.647h.822v1.647zm0-2.058v-.412.412zm.411-1.647c.205-.205.205 0 .41 0 .206.206.206.206.411.206.411 0 .616.206.822.618.205.205.205.411.41.823h-2.259c.206-.618.206-1.235.206-1.647zm-.206 4.116s.206 0 0 0c.206-.206.206-.206 0 0 .206 0 .206 0 0 0zm1.438-1.646c-.206.206-.411.411-.822.617l-.41.412h-.206v-1.647h2.259v.412s-.616 0-.821.206zm3.696.823s-.205-.617-.821-1.441h2.054c-.411.412-1.233 1.441-1.233 1.441zm5.34.617c-.616-.411-1.437-.205-1.437-.205s-.411-1.235-.822-1.853h2.054v2.058h.205zm3.697 2.264l-1.643-.206s-.205-.411-.616-.823v-1.44h2.259v2.469zm0-2.675h-2.259v-1.647h2.259v1.647zm1.438 1.029v1.852l-1.233-.206v-2.264h1.438c0 .206-.205.412-.205.618zm1.026-2.47c-.205-.206-.616.618-.616.823 0 .206 0 .412-.205.618h-1.438v-1.647h3.492v1.647h-.822c-.205-.823-.411-1.235-.411-1.441zm1.233 4.322s-.411-1.235-.616-2.264h.821v2.469l-.205-.205zm.41-4.528h.206l.205 1.853h-.411v-1.853zm.206 4.528v-2.47h.411l.205 2.264-.616.206zm1.027-.206l-.411-2.264h.411v2.264zm0-2.469h-.616l-.206-1.853h.822v1.853zm4.313-.824s0-.411-.206-1.029h3.902v1.029s-3.491.206-3.696 0zm13.349 2.058l-.616.412s0-.618-.206-1.235h.822v.823zm0-1.029h-.822c0-.617-.205-1.44-.205-2.058h1.232c-.205.824-.205 1.441-.205 2.058zm4.313 1.852c-1.438 0-2.876-.205-3.081-.205-.411 0-.821-.412-.821-.412v-.823h3.902v1.44zm0-1.852h-3.902v-2.058h3.902v2.058zm1.232 1.852h-1.027v-1.44h1.027v1.44zm0-1.852h-1.027v-1.852h1.027v1.852zm5.134 1.647c-.205 0-.41-.206-.616-.206-.616-.206-2.67.617-2.67.617h-1.437v-1.646h4.723v1.235zm0-1.647h-4.723v-1.852h4.723v1.852zm1.233 2.264c-.206-.206-.617-.206-1.027-.412v-1.44h1.027v1.852zm0-3.91v1.646h-1.027v-1.852l1.027.206c0-.206 0-.206 0 0zm3.286 4.116l-.411.411s-2.259-.411-2.465-.411v-2.058h2.876v2.058zm0-2.47h-2.876v-1.852h2.876v1.852zm1.026.823c-.205.206-.41 2.058-.616 1.647 0 0 0-.206-.205-.206v-2.058h1.027c0 .412 0 .617-.206.617zm1.849 1.852l-.411-2.263h.411v2.263zm.205-4.321v1.646h-.411l-.205-1.44s-.411.206-.616.411c0 0-.205.618-.411 1.029h-1.232v-1.852l2.875.206zm4.929 3.498c-.205 0-.411.823-.411.823l-4.312-.205v-2.264h5.75v1.646c0 .412-.821 0-1.027 0zm1.027-1.852h-5.75v-1.646h6.161c-.206.412-.411 1.029-.411 1.646zm2.875 1.029v1.029h-.616l-.205-.206c0-.411-.206-.823 0-1.44 0-.617.616-.617 1.027-.823-.206.617-.206 1.029-.206 1.44zm8.626 1.441h-.616s-.205-.823-.205-1.852h.821v1.852zm0-2.264h-.821v-.617c0-1.029-.206-1.029-.411-1.235-.206-.206-.616 1.029-1.027 1.441-.205.411 0 2.263 0 2.469 0 .206-1.438-.206-1.438-.206v-3.91h3.902v2.058h-.205zm1.232 2.058h-1.027v-1.852h1.027v1.852zm0-2.058h-1.027v-1.852h1.027v1.852zm3.902 2.058l-3.696.206v-1.647h3.696c.206.824 0 1.441 0 1.441zm.206-1.852h-3.697v-1.852h3.902c-.205.617-.205 1.235-.205 1.852zm12.117 1.44h-1.027c-.205 0-.822 1.029-.822 1.029l-.41-1.852h3.08v.412c.206.823-.41.411-.821.411zm1.848-2.881s-.411.206-.616-.205c-.205-.206-.616.205-.411.823v1.029h-3.286l-.616-2.058h4.929v.411zm1.027 0v-.411h.822l-.822.411zm5.545-.411c0 .411.206.823.206.823l-.206-.823zm3.697 3.292s-.822 0-.822-.205v-.824h1.027l-.205 1.029zm0-1.234h-1.027v-.206l-.616-1.029-.411-.823h2.259l-.205 2.058zm9.858-3.704h-1.643s-.205-.412-.616-.206c-.411 0-.411.823-.411.823l-.616 1.235h-2.259s-.206-4.939-.206-5.145h8.215c-1.232.412-2.464 3.293-2.464 3.293zm10.679.823s-.821.205-1.232.411c-.411.206-1.027.206-1.232 0-.206-.206.205-.823 0-.823-.206 0-.411 1.029-.411.823 0-.206-.205-.617-.411-.617-.205 0-.205 1.235-.205 1.646 0 .412-.205.618-.205.618v-3.087l-1.027-.823v-1.235s.205.823 1.232 1.029c1.027.206 1.232-.823 1.438-1.235.205-.411 0-.411-.206-.823-.205-.206-.205-.412.411-.617.616-.206 1.643.823 1.643.823v3.91h.205zm5.34 4.321v-3.292l.616-.618c0-.206-.616-.617-.616-.617l1.232-1.646 1.027.205.206 3.293c.205.206-2.67 3.498-2.465 2.675zm23.413-32.719v-.412.412zm0 .206v1.028h-.206v-.411c0-.206 0-.412.206-.617zm-.206-.412l-1.027-1.235h1.233v.206c-.206.412-.206.617-.206 1.029zm-.821.823a1.13 1.13 0 01-1.027-.617c0 .206.205.617.205.823 0 .411.206.823 0 1.029 0-.206-.41-.618-.616-.823l-.205-.823.616-1.441c0-.206.205-.206.411-.206l1.232 1.441c0 .206 0 .617-.205.823 0-.206-.206-.206-.411-.206zm.411 1.235c-.411 1.646-.617 3.704-1.027 5.762l-.616-4.322c.205 0 .41 0 .41-.206.206-.205 0-.411.206-.617.205-.206.205-.206.616-.206 0-.411.205-.411.411-.411zm.41-5.145v1.235h-1.437l1.437-3.087v1.852zm-.821-1.44c.205-.412.411-.823.411-1.235.205-.412.205-1.029.41-1.235v1.647l-1.643 3.704h-.41c.41-1.235.821-2.058 1.232-2.881zm-1.643 4.115s.205 0 .205-.205l-.205.617v-.412zm0 1.647h-.206l.206-.618v.618zm-2.67-.618c.822 0 1.643-.617 2.464-.823v.823l-.41 1.029h-.206c-.616.206-1.232-.206-1.848-.411v-.618zm.411 2.881h.821l-.616 1.441-.205-1.441zm-11.296 25.929l-1.027-.412v-3.292l3.081-.618-1.848 4.116c0 .206-.206.206-.206.206zm7.599-1.441s-.411-.823-.821-.205c-.206.411-.206.617-.617.823-.41.205-1.643-.412-1.848-.412-.205 0-2.67 1.029-2.875 1.235-.206.206-.616.206-1.027.206l1.848-4.116 5.751-1.029-.411 3.498zm4.929-8.643c-.205 0-.205 0 0 0-.411-.411-.822-1.234-1.438-1.028-.821.205.411 1.234.411 1.44-.205.206-.205.206-.616.206-.411 0-.411-.206-.616-.412l-.616-.411c-.206 0-.411.205-.206.411-.205.618-.205.618-.821.412l.411.617-4.929.618 7.188-15.846 1.643 11.113v.205h-.206c-.616.206-.41 1.235-.205 1.647v1.028zm0 .206c0-.206 0-.411.205-.617.206.206.206.411.206.617h-.411zm-1.027-14.404l.822-1.647h1.437l.616 4.939c-.41 2.675-1.027 5.556-1.437 7.82l-1.438-11.112zm3.902 12.141c-.205 0-.616-.206-.821-.206v1.029c-.411-.206-.822-.823-1.438-1.029v-.206c.411-2.264.822-4.939 1.438-7.82l.821 5.557v.411l.206 1.029c-.206.206-.206.823-.206 1.235zm.411-8.643v-1.029c-.205 0-.411-.206-.616-.206 0 .206-.206.206-.206.412v1.646c0 .617 0 1.235.206 1.852 0 .617.411 1.44.205 2.058 0 .206 0 .411-.205.411l-.822-5.762c.411-2.057.822-4.321 1.233-6.173.205.206.205.617.205.823 0 .412 0 .617-.205 1.029v.823c-.206.412-.822.618-.411 1.235.205.411.411 0 .411-.206 0-.411 0-.617.41-.617v2.263c.411.412.616 1.852-.205 1.441zm4.929-11.524c.205 0 .616-.206.821-.206 0 .206 0 .618-.205 1.029h-.411c-.205 0-.616-.206-.821-.206h-1.232c0-.411 1.437-.411 1.848-.617zm-2.465 3.087c.206-.412 0-1.029.206-1.441.616.206 1.848-.206 2.464.206-.205 1.441-.616 3.498-.821 5.968l-2.054-2.058c.205-1.235.205-2.058.205-2.675zm1.849 4.733c-.206.823-.206 1.852-.411 2.675h-1.848c.205-1.646.205-3.293.205-4.939l2.054 2.264zm-.411 3.292c0 .823-.205 1.441-.205 2.264-.411-.412-1.027-.823-1.027-1.235 0-.411.616-.617.821-.823 0 0 .206-.206.411-.206zm-2.67-7.202c0-.412.616-.412 1.027-.412v1.852l-1.027-1.44s0 .206 0 0zm.411 4.733c0-1.029.205-2.264 0-3.293 0-.205-.205-.617-.205-1.029l1.026 1.029c0 1.647-.205 3.499-.205 5.145h-.411c-.41-.412-.41-1.235-.205-1.852zm1.848 6.173h-.205v6.791c-.205 0-.616.412-.822.206-.205-1.029-.205-2.264-.41-3.293v-1.646c0-.617-.411-1.029-.206-1.646 0-.412.411-.823.822-1.029.411-.206.821.206 1.027 0-.206.206-.206.412-.206.617zm.822 6.38c0-.206-.206-.618-.206-.824 0-.617 0-1.234-.205-1.852 0-.205-.205-.411-.205-.823v-2.263c0-.412 0-.618.205-1.029.205-.206.205-.412 0-.618 0-.823.205-1.646.205-2.469.206-.206.411-.206.617-.412h-.617c.206-.823.206-1.852.411-2.675l11.296 12.347-11.501 1.441v-.823zm9.858 12.964s-.206-.823-.616-.823c-.411 0-1.438 0-1.849.206-.41.205-.616 0-.821 0-.206 0-1.643.411-1.643.411s.205.823 0 .617c-.206-.205-.616-1.234-1.027-1.234h-1.438c-.41 0-.821 0-1.027-.206v-3.087c0-.206-.41-.823-.616-.617-.205.206-.821 0-.821 0V766.4l9.858-1.235v10.495zm10.679.617h-1.848s0-1.234-.205-1.029c0 .206-2.67.206-2.67.206s-.206 1.029-.411 1.235h-3.081v-1.029c-.205 0-.821-.206-.821-.206l-.206-9.877 3.081-.618 10.063 11.112c-2.259.206-3.902.206-3.902.206zm14.582-1.029s-6.161.412-10.474.823l-10.064-11.112 4.724-.823s.205.823.616.617c.411-.205.411-.617.411-.617l21.153-2.881.206 3.498-4.108 4.528v1.44l-2.053 4.116-.411.411zm3.697-4.115c0 .617-1.027 1.852-1.233 2.057-.205.206-.821 1.235-1.232 1.235-.205 0-.205-.206-.411-.206l1.643-3.292v-1.441l3.902-4.321v.617l-2.875 3.704v.206c.206.412.206.823.206 1.441 0-.206 0-.206 0 0zm.41-.206c0-.412 0-.823-.205-1.029l2.67-3.293v1.852l-2.054 2.676c0-.206-.205-.206-.411-.206zm1.027.206h-.205l1.848-2.058v.823c0-.206-1.437 1.029-1.643 1.235zm2.054-6.174h.616l-.616.412v-.412zm1.027 3.293h-.822v-.206l.822-1.029v1.235zm0-1.647l-.822 1.029v-1.852l.822-.617v1.44zm4.723 1.647h-4.518v-1.441h4.518v1.441zm0-1.647h-4.518v-1.646l4.518-.206v1.852zm1.643 1.647h-1.232v-1.441h1.232v1.441zm0-1.647h-1.232v-1.852h1.232v1.852zm0-2.469l-7.393.412-.205-3.293 7.393-1.029c.205 0 .205 2.058.205 3.91zm2.67 3.704h-2.053v-1.029h2.053v1.029zm0-3.498v2.058h-2.053v-2.058h2.053zm2.259 3.498h-1.848v-1.029h2.054l-.206 1.029zm.206-1.235h-2.259v-2.057l2.67-.206-.411 2.263zm.616-2.675l-5.134.206v-4.321h1.026s.206.411.617.205c.41 0 .205-.205.205-.205l1.848-.412.822.412c.411 0 .616-.412.616-.412l.616.617-.616 3.91zm1.643 3.087v-2.058c0-.206-.411 0-.411 0l-.411-.411h1.233c-.206 0 0 2.469-.411 2.469zm-.822-3.087c.206-.411.206-.823.206-1.234 0-.206.205-.618.205-.824v-.823c0 .206.206.412.411.618 0 .205.205.411.205.617-.41 0-.41.617-.205 1.029 0 .206.205.206.205.411v.206h-1.027zm5.545 2.881c0-.206-.205-.206-.205-.206h.205v.206zm0-.617h-.41v-.412c.41-.411-.206-.823-.206-.823h.616v1.235zm3.903 1.852h-3.286s0-.206-.206-.412v-1.029h3.492v1.441zm0-1.852h-3.492v-1.235c1.027 0 2.465-.206 3.492-.206v1.441z" fill="#C4C4C4"/></g><path fill="#C4C4C4" d="M205 799h2202v9H205zm1779.35-65.025c11.76-5.199 21.58-15.327 26.43-28.816 5.29-14.788 3.37-30.338-3.99-42.348l-15.71 20.569-.22.583 4.26 1.523-3.77 10.532-4.26-1.524-.13.358-5.66 36.882 3.05 2.241zm12.93-53.284l6.73-9.142 1.75.224a44.124 44.124 0 012.87 11.338l-5.12 3.047-3.41-1.209-2.82-4.258zm11.44 11.831a44.087 44.087 0 01-1.75 8.784l-9.87-3.451 2.78-8.335 8.84 3.002zm-14.23 9.187l3.91 1.255 3.9 8.828a45.25 45.25 0 01-14.49 14.788l-2.42-1.792 3.14-17.343 5.96-5.736z"/><path d="M1902.49 652.594l-3.64 10.17 92.3 32.978 3.65-10.169-92.31-32.979z" fill="#C4C4C4"/><path d="M1962.07 671.373l-3.64 10.168 15.2 5.435 3.65-10.168-15.21-5.435zm-58.65-19.171l-.47 1.308 9.71 3.471.47-1.308-9.71-3.471z" fill="#C4C4C4"/><path d="M1903.86 652.001l-.47 1.308 1.65.588.47-1.308-1.65-.588zm6.86 2.431l-.47 1.308 1.65.589.47-1.308-1.65-.589zm-10.09 13.216l3.95 1.389.76-.492 3.64-2.241-10.01-3.585 1.35 4.033.31.896zm52.1 17.257a4.087 4.087 0 00-2.47-5.213 4.082 4.082 0 00-5.22 2.466 4.072 4.072 0 002.47 5.214 4.087 4.087 0 005.22-2.467zm35.41-1.936l-.24.676 6 2.143.24-.675-6-2.144zm-3.57 9.868l-.24.675 5.96 2.128.24-.675-5.96-2.128zM2039 806.572h-238.15v5.916H2039v-5.916zm-81.83-120.092l-4.2.743 15.84 89.315 4.19-.743-15.83-89.315zm-16.58-.033l-15.84 89.315 4.2.742 15.83-89.315-4.19-.742z" fill="#C4C4C4"/><path d="M1957.16 685.439h-16.65v5.513h16.65v-5.513z" fill="#C4C4C4"/><path d="M1942.89 685.172h-1.52v.358h1.52v-.358zm13.01 0h-1.52v.358h1.52v-.358z" fill="#C4C4C4"/><path d="M1958.28 685.439h-18.84v1.39h18.84v-1.39zm8.79 73h-37.15v2.958h37.15v-2.958z" fill="#C4C4C4"/><path d="M1962.53 741.171l-33.03 16.987.68 1.315 33.03-16.987-.68-1.315zm-5.74-39.491l-21.08 19.746 1.02 1.078 21.07-19.746-1.01-1.078z" fill="#C4C4C4"/><path d="M1938.58 719.867l-.9 1.176 26 19.82.9-1.175-26-19.821z" fill="#C4C4C4"/><path d="M1964.11 738.857h-31.22v2.958h31.22v-2.958zm-3.63-19.539h-23.96v2.958h23.96v-2.958zm-2.87-19.578h-18.17v2.958h18.17v-2.958zm-26.83 74.883h-7.85v.807h7.85v-.807z" fill="#C4C4C4"/><path d="M1924.05 774.531h-.67v.224h.67v-.224zm6.24 0h-.68v.224h.68v-.224zm44.37.092h-7.85v.807h7.85v-.807z" fill="#C4C4C4"/><path d="M1967.98 774.531h-.68v.224h.68v-.224zm6.23 0h-.67v.224h.67v-.224zm-29.52-74.08h-.9v75.153h.9v-75.153zm8.7 0h-.89v75.153h.89v-75.153z" fill="#C4C4C4"/><path d="M1952.94 700.451h-8.75v.359h8.75v-.359zm0 5.201h-8.75v.359h8.75v-.359zm0 5.196h-8.75v.358h8.75v-.358zm0 5.201h-8.75v.358h8.75v-.358zm0 5.195h-8.75v.359h8.75v-.359zm0 5.201h-8.75v.359h8.75v-.359zm0 5.196h-8.75v.358h8.75v-.358zm0 5.201h-8.75v.358h8.75v-.358zm0 5.24h-8.75v.359h8.75v-.359zm0 5.201h-8.75v.359h8.75v-.359zm0 5.196h-8.75v.358h8.75v-.358zm0 5.201h-8.75v.358h8.75v-.358zm0 5.195h-8.75v.359h8.75v-.359zm0 5.201h-8.75v.359h8.75v-.359zm0 5.199h-8.75v.359h8.75v-.359zm-132.08 7.079h-1.62v28.725h1.62v-28.725zm16.1 0h-1.61v28.725h1.61v-28.725z" fill="#C4C4C4"/><path d="M1836.16 780.354h-16.11v.448h16.11v-.448zm0 5.962h-16.11v.449h16.11v-.449zm0 5.957h-16.11v.449h16.11v-.449zm0 5.961h-16.11v.449h16.11v-.449zm0 5.961h-16.11v.448h16.11v-.448zm-17.14-53.416h-.9v26.44h.9v-26.44zm.67.586h-.45v23.841h.45v-23.841zm16.47 0h-.45v23.841h.45v-23.841zm-24.1-.586h-.89v26.44h.89v-26.44zm-7.13 0h-.9v26.44h.9v-26.44zm32.35 0h-.9v26.44h.9v-26.44zm3.9 0h-.9v26.44h.9v-26.44z" fill="#C4C4C4"/><path d="M1840.78 750.779h-36.17v.404h36.17v-.404zm-4.85.586h-16.55v.404h16.55v-.404zm0 6.496h-16.55v.404h16.55v-.404zm0 8.287h-16.55v.404h16.55v-.404zm0 8.651h-16.55v.403h16.55v-.403zm4.8-17.52h-36.21v.404h36.21v-.404zm0 8.377h-36.21v.404h36.21v-.404z" fill="#C4C4C4"/><path d="M1836.87 756.648h-.67v2.51h.67v-2.51zm-.22 12.286h-.45v2.42h.45v-2.42zm-16.51-6.905h-2.29v2.42h2.29v-2.42zm88.62-57.138l-15.65 52.904 3.44 1.016 15.66-52.904-3.45-1.016zm-9.45-2.793l-15.65 52.904 3.44 1.016 15.66-52.904-3.45-1.016z" fill="#C4C4C4"/><path d="M1885.72 752.681l-.54 1.805 9.98 2.949.54-1.805-9.98-2.949zm10.61-35.974l-.43 1.461 9.98 2.947.43-1.461-9.98-2.947zm3.7-12.59l-3.34 11.26 9.99 2.947 3.33-11.259-9.98-2.948zm-10.5 35.445l-3.54 11.946 9.98 2.948 3.54-11.946-9.98-2.948zm5.8-19.552l-5.22 17.621 9.98 2.947 5.22-17.62-9.98-2.948z" fill="#C4C4C4"/><path d="M1897.04 739.095a1.612 1.612 0 00-1.09-2.005 1.624 1.624 0 00-2.01 1.09 1.615 1.615 0 003.1.915z" fill="#C4C4C4"/><path d="M1870.66 730.211l12.79 3.764c.27-.852 1.12-1.344 1.97-1.076.85.269 1.35 1.121 1.08 1.972l18.62 5.512c.27-.851 1.12-1.344 1.97-1.075.85.269 1.35 1.12 1.08 1.972l12.79 3.764c2.64.807 3.72-.538 2.37-2.958l-5.56-10.038c-1.35-2.42-4.58-5.019-7.22-5.826 0 .135-.05.269-.09.359-.27.851-1.03 1.344-1.75 1.165-.72-.224-1.08-1.076-.86-1.927.05-.135.09-.224.14-.359l-15.84-4.66c0 .134-.04.269-.09.358-.27.852-1.03 1.345-1.75 1.165-.72-.224-1.08-1.075-.85-1.927.04-.134.09-.224.13-.358-2.64-.762-6.82-.359-9.24.941l-10.14 5.378c-2.38 1.344-2.2 3.047.45 3.854zm41.68 4.436c.49.135.76.628.63 1.12-.14.493-.63.762-1.12.583a.845.845 0 01-.59-1.12.815.815 0 011.08-.583zm-7.09-2.106c.5.134.77.627.59 1.12a.85.85 0 01-1.13.583.841.841 0 01-.58-1.121c.14-.448.63-.717 1.12-.582zm-14.58-4.302a.84.84 0 01.58 1.12.837.837 0 01-1.12.583.904.904 0 01-.63-1.121c.23-.448.72-.717 1.17-.582zm-7.04-2.106a.84.84 0 01.58 1.12.839.839 0 01-1.12.582.845.845 0 01-.59-1.12c.14-.448.63-.717 1.13-.582z" fill="#C4C4C4"/><path d="M1901.45 668.131l-4.94 60.025 1.74.144 4.95-60.025-1.75-.144z" fill="#C4C4C4"/><path d="M1900.12 665.939l-.66 8.084 4.83.396.66-8.084-4.83-.396z" fill="#C4C4C4"/><path d="M1901.05 666.067l-1.13 13.755 2.86.235 1.14-13.756-2.87-.234z" fill="#C4C4C4"/><path d="M1901.29 663.713l-.67 8.084 2.86.235.67-8.084-2.86-.235zm-12.91 97.51c6.25 0 11.31-5.056 11.31-11.293 0-6.237-5.06-11.293-11.31-11.293-6.24 0-11.3 5.056-11.3 11.293 0 6.237 5.06 11.293 11.3 11.293z" fill="#C4C4C4"/><path d="M1883.94 751.134c.67 2.824 4.58 16.761 2.69 14.565-2.87-3.316-12.25-9.366-12.92-12.189-.67-2.824 1.12-5.647 3.9-6.274a5.253 5.253 0 016.33 3.898z" fill="#C4C4C4"/><path d="M1901.57 749.072h-21.04v28.95h21.04v-28.95z" fill="#C4C4C4"/><path d="M1919.61 777.444h-46.84V773.5l4.08-2.644h21.94s.54-7.887 2.42-7.349c18.71 5.333 18.4 13.937 18.4 13.937zm-36.75-16.311h-3.59v3.719h3.59v-3.719zm21.09-2.332h-4.75v3.719h4.75v-3.719z" fill="#C4C4C4"/><path d="M1903.05 761.668h-4.75v3.719h4.75v-3.719zm1.48-2.283h-4.75v1.21h4.75v-1.21zm-23.51 10.666h-2.38v1.21h2.38v-1.21zm-17.09-.449h-13.68v7.842h13.68v-7.842zm-9.78-5.918h-2.2v2.778h2.2v-2.778z" fill="#C4C4C4"/><path d="M1853.74 764h-2.02v.896h2.02V764zm9.38 5.152h-2.02v.897h2.02v-.897zm13.73-25.721c-4.57.09-8.21 3.899-8.12 8.47.09 4.571 3.9 8.201 8.48 8.111 4.58-.089 8.21-3.898 8.12-8.469-.09-4.571-3.9-8.201-8.48-8.112zm.32 15.461a7.164 7.164 0 01-7.32-6.991c-.09-3.944 3.05-7.215 7-7.305 3.95-.089 7.23 3.048 7.32 6.991.09 3.944-3.06 7.215-7 7.305z" fill="#C4C4C4"/><path d="M1885.92 751.542a8.795 8.795 0 01-.95 4.168h.41c.58-1.255.94-2.689.9-4.168-.14-5.109-4.36-9.142-9.43-9.007a9.487 9.487 0 00-5.11 1.658v.448c1.43-1.076 3.18-1.748 5.11-1.748 4.89-.134 8.93 3.764 9.07 8.649z" fill="#C4C4C4"/><path d="M1883.63 748.272c-.14-.269-.32-.493-.45-.762l-5.03 2.24-.8-5.467h-.45c-.14 0-.32 0-.45.045l-.58 5.467-5.12-2.016c-.18.269-.31.493-.45.762l4.49 3.226-4.31 3.406c.14.269.32.493.45.762l5.03-2.241.8 5.467h.45c.14 0 .32 0 .45-.044l.58-5.468 5.12 2.017c.18-.269.31-.493.45-.762l-4.49-3.227 4.31-3.405zm-25.76 19.804a3.403 3.403 0 01-3.41 3.406 3.41 3.41 0 01-3.41-3.406 3.41 3.41 0 013.41-3.406c1.89 0 3.41 1.524 3.41 3.406zm23.96 2.421c0 .582-.45 1.03-1.03 1.03-.58 0-1.03-.448-1.03-1.03v-2.734c0-.582.45-1.031 1.03-1.031.58 0 1.03.449 1.03 1.031v2.734zm-16.65 5.512c0 .582-.53 1.03-1.21 1.03-.67 0-1.21-.448-1.21-1.03v-2.689c0-.583.54-1.031 1.21-1.031.68 0 1.21.448 1.21 1.031v2.689z" fill="#C4C4C4"/><path d="M1850.02 773.5c-.58 0-1.03-.538-1.03-1.21 0-.672.45-1.21 1.03-1.21h2.7c.58 0 1.03.538 1.03 1.21 0 .672-.45 1.21-1.03 1.21h-2.7zm36.48-31.46c0 .582-1.08 1.03-2.38 1.03-1.3 0-2.38-.448-2.38-1.03v-2.734c0-.582 1.08-1.031 2.38-1.031 1.3 0 2.38.449 2.38 1.031v2.734zm-15.23 3.693l-18.37 19.531.23.214 18.37-19.53-.23-.215zm10.47 12.89l-26.02 11.92.13.285 26.02-11.92-.13-.285z" fill="#C4C4C4"/><path d="M1847.24 775.828l-.23-.358c1.53-.896 1.13-1.882.5-3.361-.41-.896-.85-1.927-.81-3.092 0-.986.9-1.838 1.97-1.972 1.08-.09 2.43.582 2.92 2.823l-.45.09c-.36-1.658-1.3-2.599-2.47-2.465-.85.09-1.57.762-1.61 1.524 0 1.075.4 2.016.76 2.913.68 1.434 1.26 2.778-.58 3.898z" fill="#C4C4C4"/><path d="M1848.63 775.2c0 .224-.18.404-.4.404h-1.84a.404.404 0 110-.807h1.84c.22 0 .4.179.4.403zm127.29 8.65h-116.84v1.165h116.84v-1.165z" fill="#C4C4C4"/><path d="M1861.28 779.281h-4.44v30.518h4.44v-30.518zm32.9-2.176l-2.28 1.817 25.04 31.348 2.28-1.816-25.04-31.349zm47.78.008l-2.28 1.817 25.04 31.348 2.28-1.816-25.04-31.349z" fill="#C4C4C4"/><path d="M1883.09 776.408l-24.77 30.966-.27.359 2.29 1.793 25.04-31.325-2.29-1.793zm61.21-1.255l-25.05 31.349 2.28 1.817 25.04-31.349-2.27-1.817zm32.61 4.128h-4.45v30.518h4.45v-30.518z" fill="#C4C4C4"/><path d="M1920.64 779.281h-4.44v30.518h4.44v-30.518zm-35.13 0h-4.44v30.518h4.44v-30.518zm9.96 0h-4.44v30.518h4.44v-30.518zm72.19 0h-4.44v30.518h4.44v-30.518z" fill="#C4C4C4"/><path d="M1893.27 787.391h-9.19v3.047h9.19v-3.047zm0 9.859h-9.19v3.047h9.19v-3.047zm-86.5-17.969h-4.44v30.518h4.44v-30.518zm10 0h-4.44v30.518h4.44v-30.518z" fill="#C4C4C4"/><path d="M1814.58 787.391h-9.2v3.047h9.2v-3.047zm0 9.859h-9.2v3.047h9.2v-3.047zm160.8-9.859h-9.2v3.047h9.2v-3.047zm0 9.859h-9.2v3.047h9.2v-3.047zm-170.41-37.645H1803v16.044h1.97v-16.044z" fill="#C4C4C4"/><path d="M1809.01 741.506h-6.14v23.975h6.14v-23.975z" fill="#C4C4C4"/><path d="M1805.02 740.92h-.99v1.075h.99v-1.075zm-1.57 8.201h-1.79v7.932h1.79v-7.932zm6.1-5.332h-1.17v.538h1.17v-.538zm0 3.717h-.58v2.868h.58v-2.868zm0 9.012h-1.17v5.736h1.17v-5.736zm-3.86 20.57c-.09 0-.13-.09-.22-.762-.23-1.837-.18-4.347-.05-6.543a196.48 196.48 0 01-.22-4.84h.22s.05 1.255.14 2.958c.13-1.703.26-2.913.26-2.958l.23.045c0 .045-.27 2.241-.41 4.84 0 .403.05.762.05 1.165.27 6.05.18 6.05 0 6.095.04 0 .04 0 0 0zm-.13-4.571c0 1.165 0 2.33.08 3.316 0-.807-.04-1.972-.08-3.316z" fill="#C4C4C4"/><path d="M1805.74 775.693l-.18-.089c1.16-2.062.98-3.003.76-4.392-.22-1.3-.49-2.913 0-6.05l.22.045c-.49 3.092-.22 4.705 0 5.96.23 1.434.41 2.375-.8 4.526zm206.79-87.517l1.03 61.126 1.08-.045-.99-61.081h-1.12z" fill="#C4C4C4"/><path d="M2015.25 740.48l-2.78.079.12 4.39 2.78-.079-.12-4.39z" fill="#C4C4C4"/><path d="M2016.33 744.841l-4.71.132.03 1.03 4.7-.132-.02-1.03zm.09 1.883l-4.71.131.02 1.031 4.71-.132-.02-1.03zm-.63-5.366l-3.81.107.02.806 3.81-.106-.02-.807z" fill="#C4C4C4"/><path d="M2014.93 745.377l-1.88.053.12 4.3 1.88-.053-.12-4.3z" fill="#C4C4C4"/><path d="M2014.36 749.302l-.58.016 1.63 57.652.58-.016-1.63-57.652z" fill="#C4C4C4"/><path d="M2016.73 773.758l-3.81.107.02.807 3.81-.108-.02-.806z" fill="#C4C4C4"/><path d="M2016.14 772.883l-2.78.078.13 4.39 2.78-.078-.13-4.39zm.23 7.3l-2.79.077.13 4.39 2.78-.077-.12-4.39zm.29 6.722l-2.78.077.07 2.509 2.78-.078-.07-2.508z" fill="#C4C4C4"/><path d="M2016.82 777.255l-3.82.106.03 1.031 3.81-.106-.02-1.031zm.54 5.099l-4.71.132.03 1.031 4.71-.133-.03-1.03z" fill="#C4C4C4"/><path d="M2016.95 782.903l-3.81.107.03 1.03 3.81-.106-.03-1.031zm.23 4.618l-3.81.108.03 1.03 3.81-.107-.03-1.031z" fill="#C4C4C4"/><path d="M2015.85 777.822l-1.88.053.35 12.543 1.88-.053-.35-12.543z" fill="#C4C4C4"/><path d="M2017.07 789.179l-3.73.104.52 18.501 3.73-.104-.52-18.501z" fill="#C4C4C4"/><path d="M2017.99 790.275l-5.48.153.03 1.075 5.48-.153-.03-1.075zm-.03-14.217c0 .403-.45.762-1.03.762l-4.13.134c-.58 0-1.08-.313-1.08-.717l-.04-1.165c0-.403.45-.762 1.03-.762l4.13-.134c.58 0 1.07.314 1.07.717l.05 1.165zm8.88 25.227h-10.63v1.3h10.63v-1.3z" fill="#C4C4C4"/><path d="M2025.31 800.611h-2.1v2.51h2.1v-2.51z" fill="#C4C4C4"/><path d="M2023.39 800.973h-.72v1.792h.72v-1.792zm2.24 0h-.72v1.792h.72v-1.792zm-1.3-2.557h-.32v3.316h.32v-3.316z" fill="#C4C4C4"/><path d="M2024.6 798.816h-.85v.718h.85v-.718zm.04 1.528h-.94v.448h.94v-.448z" fill="#C4C4C4"/><path d="M2025.4 799.133c.05 0 .09.045.09.089 0 .045-.04.09-.09.09h-2.51c-.04 0-.09-.045-.09-.09 0-.044.05-.089.09-.089h2.51zm-6.77-3.541h-6.33v4.123h6.33v-4.123z" fill="#C4C4C4"/><path d="M2017.73 794.562h-4.53v1.39h4.53v-1.39zm0 4.44h-4.53v1.389h4.53v-1.389zm4.22-1.84h-6.55v.628h6.55v-.628z" fill="#C4C4C4"/><path d="M2021.14 796.67h-1.43v1.658h1.43v-1.658zm-1.97-.137h-.9v1.882h.9v-1.882z" fill="#C4C4C4"/><path d="M2020.56 799.984c0 .089-.09.179-.18.179s-.18-.09-.18-.179v-4.975c0-.089.09-.179.18-.179s.18.09.18.179v4.975zm-1.88 4.438h-5.79v2.734h5.79v-2.734zm-30.25-3.902h-2.46v2.957h2.46v-2.957z" fill="#C4C4C4"/><path d="M1986.28 800.969h-.85v2.196h.85v-2.196zm2.65 0h-.86v2.196h.86v-2.196zm-1.48-2.42h-.41v3.047h.41v-3.047z" fill="#C4C4C4"/><path d="M1987.72 798.91h-.99v.672h.99v-.672zm.04 1.385h-1.12v.403h1.12v-.403z" fill="#C4C4C4"/><path d="M1988.7 799.178c.05 0 .14.045.14.089 0 .045-.05.09-.14.09h-3c-.05 0-.14-.045-.14-.09 0-.044.05-.089.14-.089h3zm25.44 1.97h-31.4c-1.08 0-2.02.314-2.74.897-.72.537-1.17 1.299-1.17 2.196v2.42h2.07v-2.42c0-.359.18-.673.49-.942.31-.268.81-.403 1.3-.403h31.41v-1.748h.04z" fill="#C4C4C4"/><path d="M1981.35 806.076c0 .089-.05.179-.14.179h-2.64c-.09 0-.14-.09-.14-.179 0-.09.05-.18.14-.18h2.64c.05 0 .14.09.14.18zm-1.35-1.342s.04 0 0 0c.04 0 .04 0 0 0 .04.045.04.045 0 0 0 .045.04.045 0 0z" fill="#C4C4C4"/><path d="M1981.17 806.119h-2.61v.628h2.61v-.628zm32.17-5.195h-2.29v2.151h2.29v-2.151zm6.68.181h-2.28v1.703h2.28v-1.703zm6.96 0h-.32v1.658h.32v-1.658zm-22.44-9.947h-1.75v3.137h1.75v-3.137z" fill="#C4C4C4"/><path d="M2002.98 792.1h-.59v1.658h.59V792.1zm1.88 0h-.58v1.658h.58V792.1zm-1.08-2.377h-.27v2.151h.27v-2.151z" fill="#C4C4C4"/><path d="M2004.05 789.99h-.72v.493h.72v-.493zm.05.987h-.81v.268h.81v-.268z" fill="#C4C4C4"/><path d="M2004.72 790.172c.05 0 .09.045.09.045 0 .045-.04.045-.09.045h-2.1c-.05 0-.09-.045-.09-.045 0-.045.04-.045.09-.045h2.1zm10.46 2.195h-19.65c-.72 0-1.4.224-1.89.583-.49.358-.81.896-.81 1.523v6.947h1.44v-6.947c0-.268.13-.448.36-.627.22-.179.54-.269.9-.269h19.65v-1.21z" fill="#C4C4C4"/><path d="M1994.49 800.478c0 .045-.04.135-.08.135h-1.66c-.05 0-.09-.045-.09-.135 0-.045.04-.134.09-.134h1.66c.04 0 .08.089.08.134zm-.85-5.601c0-.044 0-.044 0 0 0-.044.05-.044 0 0 0 0 .05 0 0 0z" fill="#C4C4C4"/><path d="M1994.41 800.523h-1.66v.807h1.66v-.807zm18.57-8.293h-1.57v1.479h1.57v-1.479zm-35.31-9.405h-175.75l-1.7-1.972v-5.826h179.11v5.781l-1.66 2.017z" fill="#C4C4C4"/><path d="M1825.88 786.367c-12.6 0-20.59-4.078-20.72-4.168l.4-.761c.18.089 17.18 8.828 40.96.403l.32.806c-7.81 2.779-14.9 3.72-20.96 3.72z" fill="#C4C4C4"/><path d="M1825.88 784.842c-3.99 0-7.18-.314-9.56-.717-6.55-1.121-9.19-3.137-9.24-3.137l.14-.179c.04 0 2.69 2.016 9.19 3.137 6.02 1.03 16.65 1.478 33.12-2.151l.04.224c-9.96 2.106-17.72 2.823-23.69 2.823z" fill="#C4C4C4"/><path d="M1818.93 784.706c-5.61 0-9.02-3.451-9.06-3.495l.17-.135c.05.045 6.42 6.453 15.93 1.658h.09c10.01 2.599 18.98-.941 19.07-.986l.09.224c-.09.045-9.11 3.586-19.2.986-2.6 1.255-4.98 1.748-7.09 1.748zm131.01-105.54h-.81v20.883h.81v-20.883zm-12.2 0h-.81v20.883h.81v-20.883zm-4.54 0h-.8v20.883h.8v-20.883zm28.94 0h-.81v20.883h.81v-20.883zm3.46 0h-.81v20.883h.81v-20.883z" fill="#C4C4C4"/><path d="M1965.19 679.166h-32.3v.314h32.3v-.314zm0 5.156h-32.35v.314h32.35v-.314zm0 5.108h-32.35v.313h32.35v-.313zm.77 10.174h-34.19v1.926h34.19v-1.926z" fill="#C4C4C4"/><path fill="#fff" d="M0 803h2500v157H0z"/><path d="M1368.49 795.977c.06 0 .12.03.12.09v1.538c0 .03-.06.09-.12.09s-.12-.03-.12-.09v-1.538c0-.06.06-.09.12-.09z" fill="#C4C4C4"/><path d="M1369 796.064h-.45v1.508h.45v-1.508zm-49.33-25.57v-1.116h-.09v-.241h30.74v.241h-.06v2.262h.6v.633h-31.4v-.603h.21v-1.176zm27.23 1.176h3.14v-1.448h-3.14v1.448zm0-1.538h3.14v-.754h-3.14v.754zm-3.38 1.538h3.14v-1.448h-3.14v1.448zm0-1.538h3.14v-.754h-3.14v.754zm-3.38 1.538h3.14v-1.448h-3.14v1.448zm0-1.538h3.14v-.754h-3.14v.754zm-3.38 1.538h3.14v-1.448h-3.14v1.448zm0-1.538h3.14v-.754h-3.14v.754zm-3.35 1.538h3.11v-1.448h-3.11v1.448zm0-1.538h3.11v-.754h-3.11v.754zm-3.38 1.538h3.11v-1.448h-3.11v1.448zm0-1.538h3.11v-.754h-3.11v.754zm-3.38 1.538h3.14v-1.448h-3.14v1.448zm0-1.538h3.14v-.754h-3.14v.754zm-3.35 1.538h3.14v-1.448h-3.14v1.448zm0-1.538h3.14v-.754h-3.14v.754zm-3.39 1.538h3.14v-1.448h-3.14v1.448zm0-1.538h3.14v-.754h-3.14v.754zm37.32 18.847v-1.598h.06v-.151h-10.21v2.473h10.36v-.724h-.21zm-8.12 0h-1.88v-.995h1.88v.995zm0-1.055h-1.88v-.513h1.88v.513zm1.99 1.055h-1.87v-.995h1.87v.995zm0-1.055h-1.87v-.513h1.87v.513zm1.99 1.055h-1.87v-.995h1.87v.995zm0-1.055h-1.87v-.513h1.87v.513zm1.99 1.055h-1.87v-.995h1.87v.995zm0-1.055h-1.87v-.513h1.87v.513zm2.03 1.055h-1.87v-.995h1.87v.995zm0-1.055h-1.87v-.513h1.87v.513zm-17.39 1.055v-1.598h.06v-.151h-10.2v2.473h10.35v-.724h-.21zm-8.15 0h-1.87v-.995h1.87v.995zm0-1.055h-1.87v-.513h1.87v.513zm1.99 1.055h-1.87v-.995h1.87v.995zm0-1.055h-1.87v-.513h1.87v.513zm1.99 1.055h-1.87v-.995h1.87v.995zm0-1.055h-1.87v-.513h1.87v.513zm2.03 1.055h-1.88v-.995h1.88v.995zm0-1.055h-1.88v-.513h1.88v.513zm1.99 1.055h-1.87v-.995h1.87v.995zm0-1.055h-1.87v-.513h1.87v.513zm-14.01 1.055v-1.598h.06v-.151h-10.21v2.473h10.36v-.724h-.21zm-8.12 0h-1.87v-.995h1.87v.995zm0-1.055h-1.87v-.513h1.87v.513zm1.99 1.055h-1.87v-.995h1.87v.995zm0-1.055h-1.87v-.513h1.87v.513zm1.99 1.055h-1.87v-.995h1.87v.995zm0-1.055h-1.87v-.513h1.87v.513zm2.02 1.055h-1.87v-.995h1.87v.995zm0-1.055h-1.87v-.513h1.87v.513zm2 1.055h-1.87v-.995h1.87v.995zm0-1.055h-1.87v-.513h1.87v.513z" fill="#C4C4C4"/><path d="M1337.27 788.467h-4.22v.633h4.22v-.633zm-.06-3.5h-4.16v.332h4.16v-.332zm0 1.359h-4.1v.121h4.1v-.121z" fill="#C4C4C4"/><path d="M1336.34 785.027h-.06v3.86h.06v-3.86zm-.79 0h-.06v3.86h.06v-3.86zm-.78 0h-.06v3.86h.06v-3.86zm-.79 0h-.06v3.86h.06v-3.86zm3.29-5.125h-4.22v1.448h4.22v-1.448zm-.06-3.5h-4.16v.332h4.16v-.332zm0 1.36h-4.1v.12h4.1v-.12z" fill="#C4C4C4"/><path d="M1336.34 776.463h-.06v3.86h.06v-3.86zm-.79 0h-.06v3.86h.06v-3.86zm-.78 0h-.06v3.86h.06v-3.86zm-.79 0h-.06v3.86h.06v-3.86z" fill="#C4C4C4"/><path d="M1337.18 789.097v-16.404h-4.04v16.404h-.12v-16.796h4.28v16.796h-.12z" fill="#C4C4C4"/><path d="M1337.27 780.476l-4.13-8.203-.06.121 4.13 8.232.06-.15zm-4.22 8.622l4.17-8.444.06.121-4.11 8.323h-.12z" fill="#C4C4C4"/><path d="M1336.97 780.294v-7.931h-1.63v7.931h1.63zm-.06-.06h-1.57v-7.81h1.57v7.81z" fill="#C4C4C4"/><path d="M1336.97 773.086h-1.63v.181h1.63v-.181zm0-.693h-1.63v.181h1.63v-.181zm0 1.48h-1.63v.181h1.63v-.181zm0 .779h-1.63v.181h1.63v-.181zm0 .787h-1.63v.181h1.63v-.181zm0 .752h-1.63v.181h1.63v-.181zm0 .786h-1.63v.181h1.63v-.181zm0 .785h-1.63v.181h1.63v-.181zm0 .781h-1.63v.181h1.63v-.181zm0 .785h-1.63v.181h1.63v-.181zm0 .752h-1.63v.181h1.63v-.181zm-1.96 8.776v-7.991h-1.63v7.991h1.63zm-.03-.06h-1.57v-7.87h1.57v7.87z" fill="#C4C4C4"/><path d="M1335.01 781.559h-1.63v.181h1.63v-.181zm0-.694h-1.63v.181h1.63v-.181zm0 1.51h-1.63v.181h1.63v-.181zm0 .781h-1.63v.181h1.63v-.181zm0 .785h-1.63v.181h1.63v-.181zm0 .786h-1.63v.181h1.63v-.181zm0 .781h-1.63v.181h1.63v-.181zm0 .785h-1.63v.181h1.63v-.181zm0 .814h-1.63v.181h1.63v-.181zm0 .786h-1.63v.181h1.63v-.181zm0 .752h-1.63v.18h1.63v-.18zm-19.44 10.227v-8.835l.06-.06h2.26l.06.06v8.835h-2.38zm2.08-.12l-.88-.875-.87.875h1.75zm-1.78-6.393l.9.904.91-.904h-1.81zm1.78-.181l-.88-.875-.87.875h1.75zm-1.78 2.171h1.78l-.88-.874-.9.874zm0 .211l.9.905.91-.905h-1.81zm0 1.99h1.78l-.88-.874-.9.874zm0 .211l.87.875.88-.875h-1.75zm-.09 1.87l.87-.874-.87-.875v1.749zm0-2.201l.87-.875-.87-.874v1.749zm0-2.171l.87-.875-.87-.905v1.78zm0-2.202l.87-.874-.87-.875v1.749zm.09-1.869l.9.904.91-.904h-1.81zm1.9.09l-.88.875.88.874v-1.749zm0 2.201l-.88.875.88.874v-1.749zm0 2.202l-.88.874.88.875v-1.749zm0 2.171l-.91.874.91.875v-1.749zm37.17 2.02v-8.835l.06-.06h2.26l.06.06v8.835h-2.38zm2.08-.12l-.88-.875-.87.875h1.75zm-1.78-6.393l.87.904.91-.904h-1.78zm1.78-.181l-.88-.875-.87.875h1.75zm-1.78 2.171h1.78l-.88-.874-.9.874zm0 .211l.87.905.91-.905h-1.78zm0 1.99h1.78l-.88-.874-.9.874zm0 .211l.87.875.88-.875h-1.75zm-.12 1.87l.87-.874-.87-.875v1.749zm0-2.201l.87-.875-.87-.874v1.749zm0-2.171l.87-.875-.87-.874v1.749zm0-2.202l.87-.874-.87-.875v1.749zm.12-1.869l.87.904.91-.904h-1.78zm1.87.09l-.88.875.88.874v-1.749zm0 2.201l-.88.875.88.874v-1.749zm0 2.202l-.88.874.88.875v-1.749zm0 2.171l-.88.874.88.875v-1.749zm-2.11-11.127h-1.79v.995h1.79v-.995z" fill="#C4C4C4"/><path d="M1354.72 785.514h-1.39v.331h1.39v-.331zm0 1.054h-1.39v.332h1.39v-.332zm1.06-.42h-1.21v.151h1.21v-.151z" fill="#C4C4C4"/><path d="M1355.66 786.025h-.27v.392h.27v-.392zm-.57-.027h-.15v.452h.15v-.452z" fill="#C4C4C4"/><path d="M1355.54 786.841c0 .03-.03.06-.03.06-.03 0-.03-.03-.03-.06v-1.206c0-.031.03-.061.03-.061.03 0 .03.03.03.061v1.206zm-.85 9.769v-11.037c0-.784-.24-1.507-.66-2.05-.39-.543-1-.875-1.63-.875h-1.78v1.568h1.78c.27 0 .51.151.69.393.19.241.31.603.31.995v9.046l1.29 1.96z" fill="#C4C4C4"/><path d="M1352.19 784.667c-.06 0-.12-.06-.12-.121v-2.261c0-.061.06-.121.12-.121s.12.06.12.121v2.261c0 .061-.06.121-.12.121zm-.18-1.144c.03 0 .03.03 0 0 .03.03.03.03 0 0-.03.03 0 .03 0 0 0 0-.03.03 0 0z" fill="#C4C4C4"/><path d="M1352.1 782.314h-.46v2.232h.46v-2.232zm9.63 13.569h-1v1.779h1v-1.779z" fill="#C4C4C4"/><path d="M1360.82 796.154h-.33v1.387h.33v-1.387zm1.06 0h-.33v1.387h.33v-1.387zm-.57-1.086h-.15v1.207h.15v-1.207z" fill="#C4C4C4"/><path d="M1361.43 795.219h-.39v.271h.39v-.271zm.03.541h-.45v.151h.45v-.151z" fill="#C4C4C4"/><path d="M1361.82 795.34c.03 0 .06.03.06.03 0 .03-.03.03-.06.03h-1.21c-.03 0-.06-.03-.06-.03 0-.03.03-.03.06-.03h1.21z" fill="#C4C4C4"/><path d="M1368.97 797.481h-12.62c-.78 0-1.51-.241-2.05-.663-.54-.392-.87-.995-.87-1.629v-1.779h1.26v1.809c0 .272.25.573.49.754.24.181.78.242 1.17.242h12.62v1.266zm-32.66-14.805h-1v1.779h1v-1.779z" fill="#C4C4C4"/><path d="M1335.43 782.916h-.33v1.387h.33v-1.387zm1.06 0h-.33v1.387h.33v-1.387zm-.6-1.055h-.16v1.207h.16v-1.207z" fill="#C4C4C4"/><path d="M1336.01 782.012h-.39v.271h.39v-.271zm.03.541h-.46v.15h.46v-.15z" fill="#C4C4C4"/><path d="M1336.43 782.133c.03 0 .03.03.03.03 0 .03-.03.03-.03.03h-1.21c-.03 0-.06-.03-.06-.03 0-.03.03-.03.06-.03h1.21zm4.26.873h-9.79v1.266h9.79v-1.266z" fill="#C4C4C4"/><path d="M1331.6 784.638c-.06 0-.12-.03-.12-.091v-1.779c0-.06.06-.09.12-.09s.12.03.12.09v1.779c0 .031-.06.091-.12.091zm-.15-.906s0 .029 0 0c-.03.029-.03 0 0 0-.03 0-.03 0 0 0z" fill="#C4C4C4"/><path d="M1331.57 782.768h-.48v1.749h.48v-1.749zm6.7 1.87c.06 0 .12-.03.12-.091v-1.779c0-.06-.06-.09-.12-.09s-.12.03-.12.09v1.779c0 .031.06.091.12.091zm.18-.906c-.03 0-.03 0 0 0-.03 0-.03.029 0 0 0 0 0 .029 0 0z" fill="#C4C4C4"/><path d="M1338.81 782.768h-.48v1.749h.48v-1.749zm18.66 6.3h-42.18v1.207h42.18v-1.207zm-6.46 4.647h-31.94v.301h31.94v-.301z" fill="#C4C4C4"/><path d="M1351.01 789.402h-.91v9.831h.91v-9.831zm-10.26 0h-.91v9.831h.91v-9.831zm-10.39 0h-.91v9.831h.91v-9.831zm-10.45 0h-.9v9.831h.9v-9.831z" fill="#C4C4C4"/><path d="M1350.23 798.931l.21-.121-4.89-9.107-.18.091 4.86 9.137z" fill="#C4C4C4"/><path d="M1340.62 798.931l-.18-.121 4.86-9.107.22.091-4.9 9.137zm-11.19 0l.18-.121-4.86-9.107-.21.091 4.89 9.137z" fill="#C4C4C4"/><path d="M1319.79 798.931l-.18-.121 4.89-9.107.18.091-4.89 9.137zm15.31-8.988h1.84v9.318h-.18v-.331h-1.66v.331h-.18v-9.318h.18zm.06 8.745h1.63v-.633h-1.63v.633zm0-.844h1.63v-.663h-1.63v.663zm0-.874h1.63v-.664h-1.63v.664zm0-.905h1.63v-.664h-1.63v.664zm0-.875h1.63v-.663h-1.63v.663zm0-.904h1.63v-.664h-1.63v.664zm0-.875h1.63v-.663h-1.63v.663zm0-.904h1.63v-.664h-1.63v.664zm0-.875h1.63v-.663h-1.63v.663zm0-.905h1.63v-.573h-1.63v.573zm3.65-17.729l6.43-3.377 6.47 3.377h.15v16.405h-13.23v-16.405h.18zm-20.46 0l6.43-3.377 6.46 3.377h.15v16.405h-13.23v-16.405h.19zm143.49-151.654h-.81v167.301h.81V621.344zm-1.27 0h-.81v167.301h.81V621.344zm-1.23 0h-.82v167.301h.82V621.344zm-1.27 0h-.81v167.301h.81V621.344zm-1.24 0h-.81v167.301h.81V621.344zm-20.26 50.785h-.73v87.601h.73v-87.601zm-1.12 0h-.72v87.601h.72v-87.601zm-1.11 0h-.73v87.601h.73v-87.601zm-1.12 0h-.73v87.601h.73v-87.601zm-1.15 0h-.72v87.601h.72v-87.601zm67.27 102.404h-17.81v1.99h17.81v-1.99zm-.39-2.713h-17.15v.242h17.15v-.242zm-.27 1.053h-16.7v.091h16.7v-.091z" fill="#C4C4C4"/><path d="M1498.76 771.881h-.24v2.955h.24v-2.955zm-3.32 0h-.24v2.955h.24v-2.955zm-3.32 0h-.24v2.955h.24v-2.955zm-3.32 0h-.24v2.955h.24v-2.955zm-3.32 0h-.24v2.955h.24v-2.955zm-3.32 0h-.24v2.955h.24v-2.955zm-1.9-7.086h52.8c.94 0 1.69.874 1.69 1.93v2.171h-.99v-2.171c0-.422-.31-.784-.7-.784h-52.8v-1.146zm28.44 11.999c0 .061.03.121.06.121h1.38c.03 0 .06-.06.06-.121 0-.06-.03-.12-.06-.12h-1.38c-.03 0-.06.06-.06.12z" fill="#C4C4C4"/><path d="M1510.11 776.824h-1.35v.422h1.35v-.422zm23.37-.03c0 .061.03.121.06.121h1.39c.03 0 .06-.06.06-.121 0-.06-.03-.12-.06-.12h-1.39c-.03 0-.06.06-.06.12z" fill="#C4C4C4"/><path d="M1534.93 776.824h-1.36v.422h1.36v-.422zm19.87 20.992h-6.22v1.568h6.22v-1.568zm-.06-4.642h-6.13v.422h6.13v-.422zm-.03 1.81h-6.04v.151h6.04v-.151z" fill="#C4C4C4"/><path d="M1553.44 793.234h-.09v5.127h.09v-5.127zm-1.15 0h-.09v5.127h.09v-5.127zm-1.17 0h-.09v5.127h.09v-5.127zm-1.15 0h-.09v5.127h.09v-5.127zm4.83-6.787h-6.22v1.93h6.22v-1.93zm-.06-4.642h-6.13v.422h6.13v-.422zm-.03 1.81h-6.04v.151h6.04v-.151z" fill="#C4C4C4"/><path d="M1553.44 781.895h-.09v5.126h.09v-5.126zm-1.15 0h-.09v5.126h.09v-5.126zm-1.17 0h-.09v5.126h.09v-5.126zm-1.15 0h-.09v5.126h.09v-5.126z" fill="#C4C4C4"/><path d="M1554.71 799.383v-22.495h-6.01v22.495h-.12v-23.008h6.25v23.008h-.12z" fill="#C4C4C4"/><path d="M1554.83 787.232l-6.1-10.886-.09.15 6.07 10.886.12-.15zm0 .394l-.12-.181-6.13 11.188.12.181 6.13-11.188z" fill="#C4C4C4"/><path d="M1554.34 786.961v-10.494h-2.41v10.494h2.41zm-2.38-.03v-.031.031zm2.32-.031h-2.29v-10.343h2.29V786.9z" fill="#C4C4C4"/><path d="M1554.34 777.402h-2.38v.242h2.38v-.242zm0-.908h-2.38v.241h2.38v-.241zm0 1.961h-2.38v.241h2.38v-.241zm0 1.025h-2.38v.242h2.38v-.242zm0 1.026h-2.38v.241h2.38v-.241zm0 1.058h-2.38v.242h2.38v-.242zm0 1.026h-2.38v.241h2.38v-.241zm0 1.053h-2.38v.241h2.38v-.241zm0 1.025h-2.38v.241h2.38v-.241zm0 1.025h-2.38v.242h2.38v-.242zm0 .996h-2.38v.242h2.38v-.242zm-2.86 11.608v-10.584h-2.42v10.584h2.42zm-2.39-.03v-.06.06zm2.33-.06h-2.3v-10.434h2.3v10.434z" fill="#C4C4C4"/><path d="M1551.45 788.648h-2.39v.242h2.39v-.242zm0-.906h-2.39v.241h2.39v-.241zm0 1.961h-2.39v.241h2.39v-.241zm0 1.059h-2.39v.241h2.39v-.241zm0 1.023h-2.39v.241h2.39v-.241zm0 1.055h-2.39v.241h2.39v-.241zm0 1.055h-2.39v.241h2.39v-.241zm0 1.023h-2.39v.241h2.39v-.241zm0 1.059h-2.39v.241h2.39v-.241zm0 1.054h-2.39v.242h2.39v-.242zm0 .996h-2.39v.242h2.39v-.242zm2.83 1.355v-.211h-2.29v.211h-.06v-.302h2.41v.302h-.06zm-35.86-24.849h-17.94v2.021h17.94v-2.021zm-.43-2.713h-17.24v.242h17.24v-.242zm-.24 1.053h-16.81v.091h16.81v-.091z" fill="#C4C4C4"/><path d="M1517.79 776.043h-.67v5.036h.67v-5.036zm.02-4.162h-.24v2.985h.24v-2.985zm-3.35 0h-.24v2.985h.24v-2.985zm-3.32 0h-.24v2.985h.24v-2.985zm-3.35 0h-.24v2.985h.24v-2.985zm-3.32 0h-.24v2.985h.24v-2.985zm-3.35 0h-.24v2.985h.24v-2.985zm.84 4.162h-.66v5.036h.66v-5.036zm5.29 0h-.67v2.985h.67v-2.985zm5.28 0h-.66v2.985h.66v-2.985zm-2.6-10.586h-.96v12.545h.96v-12.545z" fill="#C4C4C4"/><path d="M1510.27 769.619h-1.66v1.086h1.66v-1.086z" fill="#C4C4C4"/><path d="M1510.06 769.346h-1.21v.362h1.21v-.362zm0 1.175h-1.21v.362h1.21v-.362zm-.85-.478h-1.72v.181h1.72v-.181z" fill="#C4C4C4"/><path d="M1508.09 769.893h-.39v.452h.39v-.452zm.64-.034h-.25v.483h.25v-.483z" fill="#C4C4C4"/><path d="M1507.85 770.765c0 .03.03.06.06.06s.06-.03.06-.06v-1.296c0-.031-.03-.061-.06-.061s-.06.03-.06.061v1.296zm1.6 28.769c6.27 0 11.35-5.076 11.35-11.338s-5.08-11.339-11.35-11.339-11.35 5.077-11.35 11.339c0 6.262 5.08 11.338 11.35 11.338z" fill="#C4C4C4"/><path d="M1497.4 788.194c0 .573.49 1.056 1.12 1.056h21.83c.6 0 1.12-.483 1.12-1.056 0-.573-.49-1.055-1.12-1.055h-21.83c-.6 0-1.12.482-1.12 1.055zm57.73-13.665h-56.58v2.021h56.58v-2.021zm0-2.713h-56.58v.242h56.58v-.242zm0 1.053h-56.58v.091h56.58v-.091z" fill="#C4C4C4"/><path d="M1542.6 776.039h-.66v5.036h.66v-5.036zm0-4.162h-.24v2.985h.24v-2.985zm-3.32 0h-.24v2.985h.24v-2.985zm-3.35 0h-.24v2.985h.24v-2.985zm16.49 0h-.25v2.985h.25v-2.985zm2.38 0h-.24v2.985h.24v-2.985zm-5.71 0h-.24v2.985h.24v-2.985zm-3.35 0h-.24v2.985h.24v-2.985zm-13.13 0h-.24v2.985h.24v-2.985zm-3.35 0h-.24v2.985h.24v-2.985zm-3.35 0h-.25v2.985h.25v-2.985zm-2.48 0h-.24v2.985h.24v-2.985zm-2.93 0h-.24v2.985h.24v-2.985zm-21.77 0h-.18v2.985h.18v-2.985zm28.02 4.162h-.66v5.036h.66v-5.036zm5.29 0h-.67v2.985h.67v-2.985zm5.28 0h-.66v2.985h.66v-2.985zm-2.6-9.016h-.96V778h.96v-10.977z" fill="#C4C4C4"/><path d="M1535.08 769.615h-1.66v1.086h1.66v-1.086z" fill="#C4C4C4"/><path d="M1534.84 769.346h-1.2v.362h1.2v-.362zm0 1.175h-1.2v.362h1.2v-.362zm-.84-.478h-1.72v.181h1.72v-.181z" fill="#C4C4C4"/><path d="M1532.88 769.893h-.39v.452h.39v-.452zm.63-.034h-.24v.483h.24v-.483z" fill="#C4C4C4"/><path d="M1532.64 770.765c0 .03.03.06.06.06s.06-.03.06-.06v-1.296c0-.031-.03-.061-.06-.061s-.06.03-.06.061v1.296zm1.6 28.765c6.27 0 11.35-5.076 11.35-11.338s-5.08-11.338-11.35-11.338-11.35 5.076-11.35 11.338 5.08 11.338 11.35 11.338z" fill="#C4C4C4"/><path d="M1522.22 788.19c0 .573.51 1.056 1.12 1.056h21.83c.6 0 1.11-.483 1.11-1.056 0-.573-.48-1.055-1.11-1.055h-21.83c-.64 0-1.12.482-1.12 1.055z" fill="#C4C4C4"/><path d="M1545.83 788.648h-.39v10.434h.39v-10.434z" fill="#C4C4C4"/><path d="M1542 788.807l-.19.078 3.83 9.704.2-.077-3.84-9.705zm-15.3-.607l-3.85 9.7.2.078 3.84-9.7-.19-.078zm-9.52.611l-.2.078 3.84 9.705.19-.077-3.83-9.706zm-18.9 9.183l-.21-.091 3.83-9.71.22.061-3.84 9.74z" fill="#C4C4C4"/><path d="M1523.07 788.648h-.4v10.434h.4v-10.434zm-2.06 0h-.39v10.434h.39v-10.434zm-22.76 0h-.39v10.434h.39v-10.434zm-80.88-13.388h-17.81v1.99h17.81v-1.99zm-.42-2.686h-17.12v.241h17.12v-.241zm-.24 1.026h-16.7v.09h16.7v-.09z" fill="#C4C4C4"/><path d="M1416.8 772.604h-.25v2.955h.25v-2.955zm-3.32 0h-.25v2.955h.25v-2.955zm-3.32 0h-.25v2.955h.25v-2.955zm-3.32 0h-.25v2.955h.25v-2.955zm-3.33 0h-.24v2.955h.24v-2.955zm-3.32 0h-.24v2.955h.24v-2.955zm-37.34 7.688v-1.176h-.07v-.241h26.03v.241h-.03v2.443h.51v.693h-26.63v-.693h.19v-1.267zm23.06 1.237h2.66v-1.568h-2.66v1.568zm0-1.659h2.66v-.814h-2.66v.814zm-2.87 1.659h2.66v-1.568h-2.66v1.568zm0-1.659h2.66v-.814h-2.66v.814zm-2.83 1.659h2.65v-1.568h-2.65v1.568zm0-1.659h2.65v-.814h-2.65v.814zm-2.87 1.659h2.65v-1.568h-2.65v1.568zm0-1.659h2.65v-.814h-2.65v.814zm-2.84 1.659h2.63v-1.568h-2.63v1.568zm0-1.659h2.63v-.814h-2.63v.814zm-2.87 1.659h2.63v-1.568h-2.63v1.568zm0-1.659h2.63v-.814h-2.63v.814zm-2.87 1.659h2.66v-1.568h-2.66v1.568zm0-1.659h2.66v-.814h-2.66v.814zm-2.84 1.659h2.66v-1.568h-2.66v1.568zm0-1.659h2.66v-.814h-2.66v.814zm-2.86 1.659h2.65v-1.568h-2.65v1.568zm0-1.659h2.65v-.814h-2.65v.814z" fill="#C4C4C4"/><path d="M1388.78 782.585v-1.026l8.51-6.272.64.844-8.73 6.454h-.42zm-.24-3.648l8.51-6.363.15.181-8.66 6.484v-.302zm0 1.025l8.57-6.423.03.091-8.6 6.423v-.091z" fill="#C4C4C4"/><path d="M1394.94 774.385h-.21v2.955h.21v-2.955zm-3.14 2.318h-.21v3.016h.21v-3.016zm8.48-4.129v3.649h-3.23v-3.649h3.23zm-3.05 2.594h2.9v-1.508h-2.9v1.508zm0-1.599h2.9v-.784h-2.9v.784zm-29.01 24.423h-5.34v1.176h5.34v-1.176zm-.03-3.467h-5.29v.302h5.29v-.302zm-.03 1.36h-5.2v.12h5.2v-.12z" fill="#C4C4C4"/><path d="M1367.04 794.588h-.06v3.799h.06v-3.799zm-1 0h-.06v3.799h.06v-3.799zm-.99 0h-.06v3.799h.06v-3.799zm-1 0h-.06v3.799h.06v-3.799zm4.17-5.033h-5.34v1.417h5.34v-1.417zm-.03-3.438h-5.29v.302h5.29v-.302zm-.03 1.326h-5.2v.121h5.2v-.121z" fill="#C4C4C4"/><path d="M1367.04 786.145h-.06v3.799h.06v-3.799zm-1 0h-.06v3.799h.06v-3.799zm-.99 0h-.06v3.799h.06v-3.799zm-1 0h-.06v3.799h.06v-3.799z" fill="#C4C4C4"/><path d="M1368.16 799.14v-16.676H1363v16.676h-.12v-17.068h5.4v17.068h-.12z" fill="#C4C4C4"/><path d="M1368.25 790.127l-5.22-8.082-.09.121 5.22 8.081.09-.12zm0 .269l-.09-.121-5.25 8.323.09.121 5.25-8.323z" fill="#C4C4C4"/><path d="M1367.83 789.943v-7.81h-2.09v7.81h2.09zm-.03-.06h-1.97v-7.69h1.97v7.69z" fill="#C4C4C4"/><path d="M1367.83 782.824h-2.05v.181h2.05v-.181zm0-.691h-2.05v.181h2.05v-.181zm0 1.476h-2.05v.181h2.05v-.181zm0 .754h-2.05v.181h2.05v-.181zm0 .785h-2.05v.181h2.05v-.181zm0 .752h-2.05v.181h2.05v-.181zm0 .786h-2.05v.181h2.05v-.181zm0 .753h-2.05v.181h2.05v-.181zm0 .786h-2.05v.181h2.05v-.181zm0 .752h-2.05v.18h2.05v-.18zm0 .757h-2.05v.181h2.05v-.181zm-2.45 8.623v-7.871h-2.08v7.871h2.08zm-.06-.06h-1.99v-7.75h1.99v7.75z" fill="#C4C4C4"/><path d="M1365.35 791.178h-2.05v.181h2.05v-.181zm0-.692h-2.05v.181h2.05v-.181zm0 1.477h-2.05v.181h2.05v-.181zm0 .785h-2.05v.181h2.05v-.181zm0 .785h-2.05v.181h2.05v-.181zm0 .754h-2.05v.181h2.05v-.181zm0 .785h-2.05v.181h2.05v-.181zm0 .782h-2.05v.18h2.05v-.18zm0 .755h-2.05v.181h2.05v-.181zm0 .782h-2.05v.181h2.05v-.181zm0 .755h-2.05v.181h2.05v-.181zm2.45.997v-.151h-2v.151h-.03v-.211h2.06v.211h-.03z" fill="#C4C4C4"/><path d="M1367.83 798.961h-2.06v.181h2.06v-.181zm3.11-7.48v-8.865l.06-.091h2.65l.06.091v8.865h-2.77zm2.41-.15l-1.03-1.176-1.02 1.176h2.05zm-2.05-5.579l1.05 1.206 1.06-1.206h-2.11zm2.05-.271l-1.03-1.176-1.02 1.176h2.05zm-2.05 2.925h2.08l-1.03-1.176-1.05 1.176zm0 .271l1.05 1.206 1.06-1.206h-2.11zm-.12 2.503l1.02-1.176-1.02-1.176v2.352zm0-2.925l1.02-1.176-1.02-1.176v2.352zm0-2.925l1.02-1.176-1.02-1.176v2.352zm.12-2.503l1.05 1.206 1.06-1.206h-2.11zm2.2.151l-1.02 1.176 1.02 1.176v-2.352zm0 2.925l-1.02 1.176 1.02 1.176v-2.352zm0 2.925l-1.02 1.176 1.02 1.176v-2.352zm8.27 2.653v-8.865l.06-.091h2.54l.06.091v8.865h-2.66zm2.33-.15l-1-1.176-.99 1.176h1.99zm-1.99-5.579l.99 1.206 1-1.206h-1.99zm1.99-.271l-1-1.176-.99 1.176h1.99zm-1.99 2.925h1.99l-1-1.176-.99 1.176zm0 .271l.99 1.206 1-1.206h-1.99zm-.13 2.503l1-1.176-1-1.176v2.352zm0-2.925l1-1.176-1-1.176v2.352zm0-2.925l1-1.176-1-1.176v2.352zm.13-2.503l.99 1.206 1-1.206h-1.99zm2.08.151l-1 1.176 1 1.176v-2.352zm0 2.925l-1 1.176 1 1.176v-2.352zm0 2.925l-1 1.176 1 1.176v-2.352zm18.08-14.382l2.6-.422c0-.151-.03-.302-.03-.452 0-2.111 1.18-3.83 2.63-3.89h2.56c1.45.06 2.63 1.779 2.63 3.89 0 .15 0 .301-.03.452l2.6.422h.09v4.644h-13.14v-4.644h.09zm72.49-109.618h-48.81v13.479h48.81v-13.479zm-5.01-55.215h-38.82v13.48h38.82v-13.48zm-8.21-68.601h-22.43v3.076h22.43v-3.076zm.21-4.131h-22.82v.362h22.82v-.362zm-.33 1.75h-22.25v.151h22.25v-.151zm0 .814h-22.25v.151h22.25v-.151zm0 .846h-22.25v.151h22.25v-.151z" fill="#C4C4C4"/><path d="M1461.51 536.943h-.3v4.554h.3v-4.554zm-4.44 0h-.3v4.554h.3v-4.554zm-4.4 0h-.31v4.554h.31v-4.554zm-4.41 0h-.3v4.554h.3v-4.554zm-4.44 0h-.3v4.554h.3v-4.554zm-4.41 0h-.3v4.554h.3v-4.554z" fill="#C4C4C4"/><path d="M1444.81 542.699v-3.89h.1l5.4-.905 5.4.905h.09v3.89h-10.99z" fill="#C4C4C4"/><path d="M1447.05 538.058c0-1.78.96-3.197 2.17-3.257h2.15c1.2.06 2.17 1.477 2.17 3.257 0 1.779-.97 3.196-2.17 3.256h-2.15c-1.21-.03-2.17-1.477-2.17-3.256zm-.07 159.609c0 2.533 2.57 6.363 3.2 10.917.67-4.584 3.2-8.384 3.2-10.917 0-2.533-1.41-3.89-3.2-3.89-1.75 0-3.2 1.357-3.2 3.89z" fill="#C4C4C4"/><path d="M1447.71 708.193c0 .392.27.694.57.694h3.81c.33 0 .57-.302.57-.694v-4.583c0-.392-.27-.694-.57-.694h-3.81c-.33 0-.57.302-.57.694v4.583z" fill="#C4C4C4"/><path d="M1448.95 715.096c.78 0 1.42-.362 1.33-1.809-.07-1.086-.73-1.237-1.3-1.448.21-3.588 1.02-2.563 1.11-2.563 1.24 0 1.42 3.559 1.42 4.795 0 1.236-.99 2.231-2.23 2.231s-2.24-.995-2.24-2.231c0-.151 0-.271.04-.392.3-.06.54 1.387 1.87 1.417z" fill="#C4C4C4"/><path d="M1450.18 710.757c.92 0 1.66-.743 1.66-1.659s-.74-1.659-1.66-1.659c-.91 0-1.66.743-1.66 1.659s.75 1.659 1.66 1.659zm3.69-170.349l-.48 157.259-.22-.03.49-157.229h.21zm-.51 0l-.49 157.259-.21-.03.49-157.229h.21zm-6.43 0l.3 157.229-.21.03-.28-157.259h.19zm.57 0l.3 157.229-.21.03-.3-157.259h.21zm2.42 173.965h-1.63v56.903h1.63v-56.903z" fill="#C4C4C4"/><path d="M1452.24 717.721h-6.25v2.804h6.25v-2.804z" fill="#C4C4C4"/><path d="M1451.42 719.711h-4.64v5.006h4.64v-5.006zm-.54-2.775h-3.56v1.326h3.56v-1.326z" fill="#C4C4C4"/><path d="M1450.34 724.113h-2.51v5.368h2.51v-5.368z" fill="#C4C4C4"/><path d="M1420.99 754.934h58.7l-.06-.664-22.13-210.754h-14.32l-.06.542-22.13 210.876zm57.34-1.237h-55.98l21.95-209.005h12.08l21.95 209.005z" fill="#C4C4C4"/><path d="M1481.95 753.699l2.45 25.813h-68.15l2.45-25.813h63.25zm-5.19-21.414h-52.32v1.237h52.32v-1.237zm-2.36-27.471h-47.58v1.237h47.58v-1.237zm-3.2-27.439h-41.18v1.236h41.18v-1.236zm-2.6-27.441h-35.95v1.236h35.95v-1.236zm-3.28-27.471h-29.41v1.236h29.41v-1.236zm-2.87-27.443h-23.67v1.236h23.67v-1.236zm-2.54-27.438h-18.6v1.236h18.6v-1.236z" fill="#C4C4C4"/><path d="M1424.67 733.203l-.47.668 57.65 40.051.46-.669-57.64-40.05z" fill="#C4C4C4"/><path d="M1476.53 733.179l-57.47 39.143.46.673 57.47-39.144-.46-.672zm-2.82-27.913l-49.83 27.455.21.369 49.83-27.455-.21-.369z" fill="#C4C4C4"/><path d="M1476.37 733.073l.21-.362-49.37-27.441-.18.361 49.34 27.442zm-2.66-27.472l.21-.332-43.81-27.441-.21.332 43.81 27.441z" fill="#C4C4C4"/><path d="M1470.52 678.012l-43.83 27.242.23.358 43.83-27.242-.23-.358z" fill="#C4C4C4"/><path d="M1470.54 678.367l.24-.331-37.53-27.05-.24.332 37.53 27.049z" fill="#C4C4C4"/><path d="M1430.14 677.553l37.56-26.235-.24-.332-37.56 26.235.24.332zm37.17-27.468l.27-.301-31.55-26.235-.24.301 31.52 26.235z" fill="#C4C4C4"/><path d="M1433.4 650.085l31.43-26.235-.27-.301-31.43 26.235.27.301zm31.04-27.111l.3-.302-25.81-26.567-.31.272 25.82 26.597z" fill="#C4C4C4"/><path d="M1461.89 595.5l-26.11 26.84.3.294 26.11-26.839-.3-.295zm-.38-.36l.33-.241-19.89-26.235-.33.241 19.89 26.235z" fill="#C4C4C4"/><path d="M1438.93 595.14l20.16-26.205-.33-.271-20.17 26.235.34.241zm5.56-50.525l-.35.227 14.6 22.884.36-.227-14.61-22.884z" fill="#C4C4C4"/><path d="M1456.22 544.619l-14.48 22.854.36.225 14.48-22.853-.36-.226zm-13.31-1.164l4.98-18.455h4.89l4.99 18.455c.03.151-.06.302-.25.332h-.06c-.15 0-.27-.091-.3-.211l-4.92-18.154h-3.86l-4.89 18.154c-.03.12-.15.211-.31.211h-.06c-.15-.03-.27-.181-.21-.332zm-5.28 200.019c1.39 0 2.38-.332 3.08-1.055 1.63-1.629 1.57-5.247 1.48-11.218-.03-1.478-.03-3.136-.03-4.945 0-3.468.69-5.79 2.05-6.665 1.15-.754 2.36-.211 2.42-.211l.24-.573c-.06-.03-1.57-.693-2.99.241-1.54.996-2.33 3.408-2.33 7.177 0 1.81.03 3.498.03 4.946.09 5.82.13 9.318-1.29 10.765-.58.603-1.42.875-2.66.875-3.96 0-4.26-4.011-4.56-8.233-.3-3.95-.6-8.021-4.41-7.9-5.16.15-5.16 7.146-5.16 9.438h.6c0-5.85 1.48-8.745 4.56-8.835 3.23-.091 3.5 3.498 3.78 7.327.3 4.192.66 8.866 5.19 8.866zm57.57 32.571h-97.36v22.918h97.36v-22.918z" fill="#C4C4C4"/><path d="M1406.59 788.648h-37.89v10.344h37.89v-10.344zm-3.44-6.964h-34.45v1.206h34.45v-1.206z" fill="#C4C4C4"/><path d="M1394.37 781.982h-.79v10.344h.79v-10.344zm1.47 0h-.78v10.344h.78v-10.344zm-3.92-.121h-1.57v10.344h1.57v-10.344zm-2.14.121h-.34v10.344h.34v-10.344zm-.67 0h-.3v10.344h.3v-10.344zm-.6 0h-.3v10.344h.3v-10.344zm-10.72.341l-.25.161 5.55 8.731.25-.162-5.55-8.73z" fill="#C4C4C4"/><path d="M1371.96 791.063l.27.181 5.65-8.655-.24-.181-5.68 8.655zm150.57-26.481h-.64v1.538h.64v-1.538z" fill="#C4C4C4"/><path d="M1522.38 764.582h-.34v10.946h.34v-10.946zm-20.08 0h-.64v1.538h.64v-1.538z" fill="#C4C4C4"/><path d="M1502.14 764.582h-.33v10.946h.33v-10.946zm-11.38 0h-.63v1.538h.63v-1.538z" fill="#C4C4C4"/><path d="M1490.61 764.582h-.33v10.946h.33v-10.946zm-77.44-12.663v-1.115h-.06v-.242h24.46v.242h-.03v2.261h.48v.634h-25.03v-.634h.18v-1.146zm21.65 1.146h2.51v-1.447h-2.51v1.447zm0-1.538h2.51v-.753h-2.51v.753zm-2.69 1.538h2.51v-1.447h-2.51v1.447zm0-1.538h2.51v-.753h-2.51v.753zm-2.68 1.538h2.5v-1.447h-2.5v1.447zm0-1.538h2.5v-.753h-2.5v.753zm-2.69 1.538h2.51v-1.447h-2.51v1.447zm0-1.538h2.51v-.753h-2.51v.753zm-2.66 1.538h2.48v-1.447h-2.48v1.447zm0-1.538h2.48v-.753h-2.48v.753zm-2.68 1.538h2.47v-1.447h-2.47v1.447zm0-1.538h2.47v-.753h-2.47v.753zm-2.69 1.538h2.5v-1.447h-2.5v1.447zm0-1.538h2.5v-.753h-2.5v.753zm-2.69 1.538h2.51v-1.447h-2.51v1.447zm0-1.538h2.51v-.753h-2.51v.753zm-2.69 1.538h2.51v-1.447h-2.51v1.447zm0-1.538h2.51v-.753h-2.51v.753z" fill="#C4C4C4"/><path d="M1437.33 751.919v-1.115h-.06v-.242h26.47v.242h-.06v2.261h.52v.634h-27.06v-.634h.19v-1.146zm23.45 1.146h2.72v-1.447h-2.72v1.447zm0-1.538h2.72v-.753h-2.72v.753zm-2.92 1.538h2.71v-1.447h-2.71v1.447zm0-1.538h2.71v-.753h-2.71v.753zm-2.9 1.538h2.71v-1.447h-2.71v1.447zm0-1.538h2.71v-.753h-2.71v.753zm-2.9 1.538h2.72v-1.447h-2.72v1.447zm0-1.538h2.72v-.753h-2.72v.753zm-2.9 1.538h2.69v-1.447h-2.69v1.447zm0-1.538h2.69v-.753h-2.69v.753zm-2.9 1.538h2.69v-1.447h-2.69v1.447zm0-1.538h2.69v-.753h-2.69v.753zm-2.9 1.538h2.72v-1.447h-2.72v1.447zm0-1.538h2.72v-.753h-2.72v.753zm-2.92 1.538h2.71v-1.447h-2.71v1.447zm0-1.538h2.71v-.753h-2.71v.753zm-2.9 1.538h2.71v-1.447h-2.71v1.447zm0-1.538h2.71v-.753h-2.71v.753zm-1.87-207.742h2.86v23.612h-.3v-.423h-2.56v.423h-.31v-23.612h.31zm2.56.302h-2.5v.754h2.5v-.754zm0 1.025h-2.5v.874h2.5v-.874zm0 1.176h-2.5v.875h2.5v-.875zm0 1.146h-2.5v.874h2.5v-.874zm0 1.176h-2.5v.874h2.5v-.874zm0 1.146h-2.5v.874h2.5v-.874zm0 1.176h-2.5v.874h2.5v-.874zm0 1.146h-2.5v.874h2.5v-.874zm0 1.176h-2.5v.874h2.5v-.874zm0 1.146h-2.5v.814h2.5v-.814zm-2.5 12.243h2.5v-.845h-2.5v.845zm0-1.116h2.5v-.874h-2.5v.874zm0-1.146h2.5v-.874h-2.5v.874zm0-1.176h2.5v-.874h-2.5v.874zm0-1.146h2.5v-.874h-2.5v.874zm0-1.176h2.5v-.874h-2.5v.874zm0-1.146h2.5v-.874h-2.5v.874zm0-1.146h2.5v-.874h-2.5v.874zm0-1.176h2.5v-.874h-2.5v.874zm2.5-1.146v-.723h-2.5v.723h2.5zm26.75 39.354h2.87v14.565h-.3v-.513h-2.57v.513h-.3v-14.565h.3zm.06 13.691h2.51v-.996h-2.51v.996zm0-1.327h2.51v-1.056h-2.51v1.056zm0-1.387h2.51v-1.056h-2.51v1.056zm0-1.388h2.51v-1.055h-2.51v1.055zm0-1.387h2.51v-1.055h-2.51v1.055zm0-1.387h2.51v-1.055h-2.51v1.055zm0-1.387h2.51v-1.055h-2.51v1.055zm0-1.387h2.51v-1.056h-2.51v1.056zm0-1.387h2.51v-1.056h-2.51v1.056zm0-1.387h2.51v-.905h-2.51v.905z" fill="#C4C4C4"/><path d="M1439.17 538.871v5.247h-4.71v-5.247h4.71zm-.18.332h-1.96v1.116h1.96v-1.116zm0 1.236h-1.96v.664h1.96v-.664zm0 .784h-1.96v.664h1.96v-.664zm0 .784h-1.96v.573h1.96v-.573zm-4.26.573h2.17v-.573h-2.17v.573zm0-.693h2.17v-.664h-2.17v.664zm0-.784h2.17v-.664h-2.17v.664zm0-.784h2.17v-1.116h-2.17v1.116zm6.58 23.251v5.247h-6.82v-5.247h6.82zm-.3.332h-2.84v1.116h2.84v-1.116zm0 1.236h-2.84v.664h2.84v-.664zm0 .784h-2.84v.664h2.84v-.664zm0 .754h-2.84v.573h2.84v-.573zm-6.13.603h3.14v-.573h-3.14v.573zm0-.723h3.14v-.664h-3.14v.664zm0-.754h3.14v-.664h-3.14v.664zm0-.784h3.14v-1.116h-3.14v1.116zm-7.06 57.714h2.86v26.899h-.3v-.483h-2.56v.483h-.31v-26.899h.31zm2.56.332h-2.5v.844h2.5v-.844zm0 1.206h-2.5v.995h2.5v-.995zm0 1.297h-2.5v.995h2.5v-.995zm0 1.327h-2.5v.995h2.5v-.995zm0 1.327h-2.5v.995h2.5v-.995zm0 1.326h-2.5v.996h2.5v-.996zm0 1.327h-2.5v.995h2.5v-.995zm0 1.297h-2.5v.995h2.5v-.995zm0 1.327h-2.5v.995h2.5v-.995zm0 1.327h-2.5v.904h2.5v-.904zm-2.5 13.961h2.5v-.964h-2.5v.964zm0-1.266h2.5v-.995h-2.5v.995zm0-1.327h2.5v-.995h-2.5v.995zm0-1.327h2.5v-.995h-2.5v.995zm0-1.327h2.5v-.995h-2.5v.995zm0-1.296h2.5v-.995h-2.5v.995zm0-1.327h2.5v-.995h-2.5v.995zm0-1.327h2.5v-.995h-2.5v.995zm0-1.327h2.5v-.995h-2.5v.995zm2.5-1.326v-.845h-2.5v.814h2.5v.031z" fill="#C4C4C4"/><path d="M1431.32 617.816v5.247h-4.74v-5.247h4.74zm-.21.332h-1.96v1.116h1.96v-1.116zm0 1.236h-1.96v.664h1.96v-.664zm0 .785h-1.96v.663h1.96v-.663zm0 .784h-1.96v.572h1.96v-.572zm-4.23.572h2.18v-.572h-2.18v.572zm0-.693h2.18v-.663h-2.18v.663zm0-.784h2.18v-.664h-2.18v.664zm0-.784h2.18v-1.116h-2.18v1.116zm6.25 26.42v5.247h-6.82v-5.247h6.82zm-.27.331h-2.84v1.116h2.84v-1.116zm0 1.207h-2.84v.663h2.84v-.663zm0 .784h-2.84v.663h2.84v-.663zm0 .784h-2.84v.573h2.84v-.573zm-6.16.573h3.14v-.573h-3.14v.573zm0-.694h3.14v-.663h-3.14v.663zm0-.784h3.14v-.663h-3.14v.663zm0-.784h3.14v-1.116h-3.14v1.116zm49.12 30.907h2.87v26.868h-.3v-.513h-2.57v.513h-.3v-26.868h.3zm2.57.332h-2.51v.844h2.51v-.844zm0 1.176h-2.51v.995h2.51v-.995zm0 1.326h-2.51v.996h2.51v-.996zm0 1.327h-2.51v.995h2.51v-.995zm0 1.327h-2.51v.995h2.51v-.995zm0 1.297h-2.51v.995h2.51v-.995zm0 1.327h-2.51v.995h2.51v-.995zm0 1.326h-2.51v.996h2.51v-.996zm0 1.327h-2.51v.995h2.51v-.995zm0 1.327h-2.51v.905h2.51v-.905zm-2.51 13.962h2.51v-.965h-2.51v.965zm0-1.267h2.51v-.995h-2.51v.995zm0-1.326h2.51v-.996h-2.51v.996zm0-1.327h2.51v-.995h-2.51v.995zm0-1.327h2.51v-.995h-2.51v.995zm0-1.327h2.51v-.995h-2.51v.995zm0-1.327h2.51v-.995h-2.51v.995zm0-1.296h2.51v-.996h-2.51v.996zm0-1.327h2.51v-.995h-2.51v.995zm2.51-1.327v-.844h-2.51v.814h2.51v.03z" fill="#C4C4C4"/><path d="M1479.32 673.092v5.247h-4.74v-5.247h4.74zm-.21.332h-1.96v1.115h1.96v-1.115zm0 1.236h-1.96v.663h1.96v-.663zm0 .784h-1.96v.663h1.96v-.663zm0 .754h-1.96v.573h1.96v-.573zm-4.23.603h2.18v-.573h-2.18v.573zm0-.724h2.18v-.663h-2.18v.663zm0-.754h2.18v-.663h-2.18v.663zm0-.784h2.18v-1.115h-2.18v1.115zm-60.86 79.16h2.87v26.899h-.31v-.483h-2.56v.513h-.3v-26.899h.3v-.03zm2.56.362h-2.5v.844h2.5v-.844zm0 1.176h-2.5v.995h2.5v-.995zm0 1.327h-2.5v.995h2.5v-.995zm0 1.297h-2.5v.995h2.5v-.995zm0 1.326h-2.5v.996h2.5v-.996zm0 1.327h-2.5v.995h2.5v-.995zm0 1.327h-2.5v.995h2.5v-.995zm0 1.327h-2.5v.995h2.5v-.995zm0 1.297h-2.5v.995h2.5v-.995zm0 1.326h-2.5v.905h2.5v-.905zm-2.5 13.962h2.5v-.965h-2.5v.965zm0-1.266h2.5v-.995h-2.5v.995zm0-1.327h2.5v-.995h-2.5v.995zm0-1.327h2.5v-.995h-2.5v.995zm0-1.297h2.5v-.995h-2.5v.995zm0-1.326h2.5v-.995h-2.5v.995zm0-1.327h2.5v-.995h-2.5v.995zm0-1.327h2.5v-.995h-2.5v.995zm0-1.327h2.5v-.995h-2.5v.995zm2.5-1.297v-.814h-2.5v.814h2.5zm63.77-67.006v5.247h-6.82v-5.247h6.82zm-.27.331h-2.84v1.116h2.84v-1.116zm0 1.237h-2.84v.663h2.84v-.663zm0 .784h-2.84v.663h2.84v-.663zm0 .784h-2.84v.573h2.84v-.573zm-6.16.573h3.14v-.573h-3.14v.573zm0-.694h3.14v-.663h-3.14v.663zm0-.784h3.14v-.663h-3.14v.663zm0-.784h3.14v-1.116h-3.14v1.116zm-20.5 24.971v5.247h-6.82v-5.247h6.82zm-.27.331h-2.84v1.116h2.84v-1.116zm0 1.237h-2.84v.663h2.84v-.663zm0 .784h-2.84v.663h2.84v-.663zm0 .784h-2.84v.573h2.84v-.573zm-6.16.573h3.14v-.573h-3.14v.573zm0-.694h3.14v-.663h-3.14v.663zm0-.784h3.14v-.663h-3.14v.663zm0-.784h3.14v-1.116h-3.14v1.116zm21.86-137.781v5.247h-6.83v-5.247h6.83zm-.31.331h-2.83v1.116h2.83v-1.116zm0 1.237h-2.83v.663h2.83v-.663zm0 .784h-2.83v.663h2.83v-.663zm0 .784h-2.83v.573h2.83v-.573zm-6.12.573h3.14v-.573h-3.14v.573zm0-.694h3.14v-.663h-3.14v.663zm0-.784h3.14v-.663h-3.14v.663zm0-.784h3.14v-1.116h-3.14v1.116zm-21.11-25.059l1.6 2.141v-.815l-1.6-2.141v-.18l1.6 2.141v-.965l-1.6-2.141v-.181l1.6 2.141v-1.629l-1.6-2.141v-.663l20.5 27.501v.664l-1.63-2.202v1.629l1.66 2.201v.181l-1.66-2.201v.995l1.66 2.201v.181l-1.66-2.201v.754l1.66 2.201v1.357l-20.5-27.441v-1.387h-.03zm16.94 18.967v1.629l1.84 2.472v-1.628l-1.84-2.473zm1.84 4.282l-1.84-2.472v.965l1.84 2.472v-.965zm0 1.9v-.754l-1.84-2.473v.754l1.84 2.473zm-1.9-6.272l-1.84-2.473v1.628l1.84 2.473v-1.628zm0 1.809l-1.84-2.473v.965l1.84 2.473v-.965zm0 1.9v-.754l-1.84-2.473v.754l1.84 2.473zm-1.9-6.242l-1.84-2.473v1.628l1.84 2.473v-1.628zm-.03 1.779l-1.84-2.473v.995l1.84 2.473v-.995zm0 1.9v-.754l-1.84-2.473v.754l1.84 2.473zm-1.91-6.242l-1.84-2.473v1.628l1.84 2.473v-1.628zm0 1.779l-1.84-2.473v.995l1.84 2.473v-.995zm0 1.9v-.785l-1.84-2.472v.784l1.84 2.473zm-1.9-6.243l-1.84-2.472v1.628l1.84 2.473v-1.629zm0 1.78l-1.84-2.473v.965l1.84 2.473v-.965zm0 1.929v-.784l-1.84-2.472v.784l1.84 2.472zm-1.9-6.272l-1.84-2.473v1.629l1.84 2.473v-1.629zm0 1.779l-1.84-2.472v.965l1.84 2.472v-.965zm0 1.93v-.784l-1.84-2.472v.784l1.84 2.472zm-1.9-6.272l-1.84-2.473v1.629l1.84 2.472v-1.628zm-.03 1.779l-1.84-2.473v.965l1.84 2.473v-.965zm0 1.93v-.784l-1.84-2.473v.784l1.84 2.473zm-1.9-6.272l-1.84-2.473v1.628l1.84 2.473v-1.628zm0 1.779l-1.84-2.473v.995l1.84 2.473v-.995zm0 1.93v-.784l-1.84-2.473v.784l1.84 2.473zm-1.91-6.272l-1.84-2.473v1.628l1.84 2.473v-1.628zm0 1.779l-1.84-2.473v.995l1.84 2.473v-.995zm0 1.96v-.784l-1.84-2.473v.784l1.84 2.473z" fill="#C4C4C4"/><path d="M1453.18 731.803l1.51-1.99v-.754l-1.48 1.99v-.18l1.48-2.021v-.995l-1.48 1.99v-.181l1.48-1.99v-1.628l-1.48 1.99v-.663l20.34-27.291v.663l-1.6 2.142v1.628l1.6-2.141v.181l-1.6 2.141v.965l1.6-2.141v.181l-1.6 2.141v.784l1.6-2.141v1.357l-20.34 27.23v-1.267h-.03zm16.84-22.556l1.84-2.472v-.784l-1.84 2.472v.784zm0-.965l1.84-2.472v-.965l-1.84 2.472v.965zm0-1.146l1.84-2.472v-1.629l-1.84 2.473v1.628zm-1.9 4.674l1.84-2.472v-.784l-1.84 2.472v.784zm0-.965l1.84-2.472v-.995l-1.84 2.472v.995zm-.03-1.145l1.84-2.473v-1.629l-1.84 2.473v1.629zm-1.9 4.674l1.84-2.473v-.784l-1.84 2.473v.784zm0-.965l1.84-2.473v-.995l-1.84 2.473v.995zm0-1.146l1.84-2.473v-1.628l-1.84 2.472v1.629zm-1.9 4.644l1.84-2.473v-.784l-1.84 2.473v.784zm0-.935l1.84-2.473v-.965l-1.84 2.473v.965zm0-1.146l1.84-2.473v-1.628l-1.84 2.473v1.628zm-1.91 4.644l1.85-2.473v-.784l-1.85 2.473v.784zm0-.935l1.85-2.473v-.965l-1.85 2.473v.965zm0-1.146l1.85-2.473v-1.628l-1.85 2.473v1.628zm-1.9 4.644l1.84-2.473v-.784l-1.84 2.473v.784zm0-.935l1.84-2.472v-.965l-1.84 2.472v.965zm-.03-1.146l1.84-2.472v-1.629l-1.84 2.473v1.628zm-1.9 4.644l1.84-2.472v-.785l-1.84 2.473v.784zm0-.935l1.84-2.472v-.965l-1.84 2.472v.965zm0-1.145l1.84-2.473v-1.629l-1.84 2.473v1.629zm-1.9 4.613l1.84-2.472v-.754l-1.84 2.472v.754zm0-.904l1.84-2.473v-.995l-1.84 2.473v.995zm0-1.146l1.84-2.473v-1.628l-1.84 2.472v1.629zm-1.9 4.613l1.84-2.472v-.754l-1.84 2.473v.753zm0-.904l1.84-2.473v-.965l-1.84 2.473v.965zm0-1.146l1.84-2.473v-1.628l-1.84 2.473v1.628zm-28.44 31.363l1.51-1.991v-.754l-1.51 1.991v-.181l1.51-2.021v-.995l-1.48 1.99v-.18l1.48-1.991v-1.628l-1.48 1.99v-.663l20.35-27.291v.664l-1.6 2.141v1.628l1.6-2.141v.181l-1.6 2.141v.965l1.6-2.141v.181l-1.6 2.141v.814l1.6-2.141v1.357l-20.35 27.23v-1.296h-.03zm16.84-22.557l1.84-2.472v-.814l-1.84 2.472v.814zm0-.965l1.84-2.472v-.995l-1.84 2.472v.995zm-.03-1.145l1.84-2.473v-1.629l-1.84 2.473v1.629zm-1.9 4.674l1.84-2.473v-.784l-1.84 2.473v.784zm0-.965l1.84-2.473v-.965l-1.84 2.473v.965zm0-1.146l1.84-2.473V732.8l-1.84 2.472v1.629zm-1.9 4.674l1.84-2.473v-.784l-1.84 2.473v.784zm0-.965l1.84-2.473v-.995l-1.84 2.473v.995zm0-1.146l1.84-2.473v-1.628l-1.84 2.473v1.628zm-1.9 4.674l1.84-2.473v-.784l-1.84 2.473v.784zm0-.965l1.84-2.473v-.965l-1.84 2.473v.965zm0-1.146l1.84-2.473v-1.628l-1.84 2.473v1.628zm-1.91 4.644l1.85-2.473v-.784l-1.85 2.473v.784zm0-.935l1.85-2.472v-.965l-1.85 2.472v.965zm-.03-1.146l1.85-2.472v-1.629l-1.85 2.473v1.628zm-1.9 4.644l1.84-2.472v-.785l-1.84 2.473v.784zm0-.935l1.84-2.472v-.965l-1.84 2.472v.965zm0-1.145l1.84-2.473v-1.629l-1.84 2.473v1.629zm-1.9 4.643l1.84-2.472v-.784l-1.84 2.472v.784zm0-.934l1.84-2.473v-.965l-1.84 2.473v.965zm0-1.146l1.84-2.473v-1.628l-1.84 2.472v1.629zm-1.9 4.644l1.84-2.473v-.754l-1.84 2.473v.754zm0-.935l1.84-2.473v-.995l-1.84 2.473v.995zm0-1.146l1.84-2.473v-1.628l-1.84 2.473v1.628zm-1.9 4.614l1.84-2.473v-.754l-1.84 2.473v.754zm0-.905l1.84-2.473v-.995l-1.84 2.473v.995zm-.03-1.146l1.84-2.473v-1.628l-1.84 2.473v1.628zm5.07-105.424l1.84 1.327-.09-.694-1.78-1.296v-.121l1.75 1.267-.09-.845-1.66-1.206v-.121l1.63 1.207-.15-1.388-1.48-1.085v-.513l25.63 18.606.06.573-2.11-1.538.15 1.387 2.11 1.538.03.151-2.11-1.538.09.844 2.11 1.538.03.151-2.11-1.538.06.633 2.11 1.538.13 1.146-26.21-18.968v-1.055h.06zm1.84.573l2.36 1.719-.09-.845-2.36-1.718.09.844zm16.97 11.549l-2.36-1.718.09.844 2.36 1.719-.09-.845zm.18.905l2.35 1.719-.09-.844-2.35-1.719.09.844zm-2.63-2.684l-2.35-1.719.09.845 2.35 1.719-.09-.845zm-2.44-1.779l-2.36-1.719.09.845 2.36 1.718-.09-.844zm-2.45-1.779l-2.35-1.719.09.844 2.35 1.719-.09-.844zm-2.47-1.779l-2.36-1.719.09.844 2.36 1.719-.09-.844zm-2.45-1.779l-2.35-1.719.09.844 2.35 1.719-.09-.844zm-4.98-5.006l.15 1.387 2.36 1.719-.16-1.387-2.35-1.719zm2.45 1.779l.15 1.387 2.35 1.719-.15-1.387-2.35-1.719zm2.44 1.779l.15 1.387 2.36 1.719-.15-1.387-2.36-1.719zm2.45 1.779l.15 1.387 2.35 1.719-.15-1.387-2.35-1.719zm2.47 1.779l.15 1.388 2.36 1.718-.15-1.387-2.36-1.719zm2.45 1.78l.15 1.387 2.35 1.719-.15-1.388-2.35-1.718zm2.44 1.779l.15 1.387 2.36 1.719-.15-1.387-2.36-1.719zm2.45 1.779l.15 1.387 2.35 1.719-.15-1.387-2.35-1.719zm4.8 3.468l-2.36-1.719.15 1.387 2.36 1.719-.15-1.387zm.18 1.538l-2.36-1.719.1.844 2.35 1.719-.09-.844zm-2.17-.091l2.35 1.719-.06-.633-2.35-1.719.06.633zm-2.45-1.779l2.36 1.719-.06-.633-2.36-1.719.06.633zm-2.45-1.779l2.36 1.719-.06-.664-2.36-1.718.06.663zm-2.44-1.749l2.35 1.719-.06-.664-2.35-1.718.06.663zm-2.45-1.779l2.36 1.719-.09-.664-2.36-1.719.09.664zm-2.44-1.779l2.35 1.718-.09-.663-2.35-1.719.09.664zm-2.48-1.78l2.36 1.719-.09-.663-2.36-1.719.09.663zm-2.44-1.749l2.35 1.719-.09-.663-2.35-1.719.09.663zm-2.45-1.779l2.36 1.719-.09-.663-2.36-1.719.09.663z" fill="#C4C4C4"/></g><defs><clipPath id="clip0"><path fill="#fff" d="M0 0h2500v960H0z"/></clipPath><clipPath id="clip1"><path fill="#fff" transform="translate(529 681)" d="M0 0h428v121H0z"/></clipPath></defs></svg>