<svg width="2500" height="960" viewBox="0 0 2500 960" fill="none" xmlns="http://www.w3.org/2000/svg">
<g clip-path="url(#clip0)">
<rect x="-61" y="748" width="2621" height="9" fill="#C4C4C4"/>
<rect y="748" width="2500" height="577" fill="white"/>
<path d="M834.133 828.55L828.093 834.591H799.925L793.885 840.662H763.565V846.494H755.492L753.07 914.979H757.286L759.439 917.132H753.01V917.222V917.341L752.202 940.579L747.358 935.734V839.854H736.893V845.507C732.378 844.998 728.072 844.819 724.155 844.819C711.417 844.819 702.476 846.823 702.476 846.823L702.386 846.852L702.416 846.972C703.642 851.757 708.098 860.759 708.606 861.746C693.954 869.88 671.737 871.047 670.631 871.077C662.079 863.211 659.059 849.215 659.059 849.215L659.029 849.095L633.164 852.864L638.307 868.415H588.521V858.247H577.278V851.129H574.557L572.823 914.889H577.517L579.64 916.983H572.763L571.567 959.749L566.184 952.9L565.527 841.021C564.48 836.983 555.031 835.937 544.476 835.907C532.515 835.907 519.149 837.342 515.262 837.761C508.983 838.419 508.444 842.546 508.474 843.772C508.474 843.862 508.474 843.952 508.474 844.011C484.613 844.221 451.422 850.89 449 851.368C449.927 836.056 467.479 829.896 472.951 817.963C478.214 806.479 484.912 801.963 485.36 801.664L858.383 802.651C870.613 813.118 871.54 827.114 871.6 828.49H834.133V828.55Z" fill="#D0D4D8"/>
<path d="M834.133 777.199L828.093 771.158H799.925L793.885 765.117H763.565V759.285H755.492L753.07 690.8H757.286L759.439 688.646H753.01V688.557V688.437L752.202 665.2L747.358 670.045V765.924H736.893V760.272C732.378 760.78 728.072 760.96 724.155 760.96C711.417 760.96 702.476 758.956 702.476 758.956L702.386 758.926L702.416 758.806C703.642 754.021 708.098 745.02 708.606 744.033C693.954 735.898 671.737 734.762 670.631 734.702C662.079 742.567 659.059 756.533 659.059 756.533L659.029 756.653L633.164 752.885L638.307 737.364H588.521V747.532H577.278V754.649H574.557L572.823 690.889H577.517L579.64 688.766H572.763L571.567 646L566.184 652.849L565.527 764.758C564.48 768.795 555.031 769.842 544.476 769.872C532.515 769.872 519.149 768.436 515.262 768.017C508.983 767.359 508.444 763.232 508.474 762.006C508.474 761.917 508.474 761.827 508.474 761.767C484.613 761.528 451.422 754.889 449 754.41C449.927 769.722 467.479 775.883 472.951 787.815C478.214 799.299 484.912 803.815 485.36 804.114L858.383 803.127C870.613 792.66 871.54 778.664 871.6 777.288H834.133V777.199Z" fill="#C4C4C4"/>
<path d="M1404.04 774.789L1400.39 778.437H1383.31L1379.64 782.116H1361.25V785.644H1356.37L1354.91 827.154H1357.45L1358.76 828.47H1354.88V828.53V828.59L1354.37 842.676L1351.44 839.745V781.607H1345.1V785.046C1342.35 784.747 1339.75 784.628 1337.38 784.628C1329.67 784.628 1324.23 785.854 1324.23 785.854H1324.17V785.914C1324.92 788.815 1327.64 794.257 1327.94 794.886C1319.06 799.82 1305.6 800.508 1304.91 800.538C1299.71 795.783 1297.91 787.289 1297.91 787.289V787.2L1282.22 789.472L1285.36 798.893H1255.19V792.732H1248.37V788.426H1246.69L1245.65 827.095H1248.49L1249.77 828.38H1245.62L1244.87 854.309L1241.61 850.152L1241.22 782.325C1240.59 779.873 1234.85 779.245 1228.45 779.245C1221.19 779.245 1213.08 780.112 1210.75 780.381C1206.95 780.77 1206.62 783.282 1206.62 784.03C1206.62 784.089 1206.62 784.119 1206.62 784.179C1192.15 784.329 1172.03 788.336 1170.56 788.635C1171.13 779.364 1181.75 775.626 1185.1 768.389C1188.3 761.42 1192.36 758.699 1192.63 758.52L1418.78 759.118C1426.19 765.458 1426.73 773.951 1426.79 774.789H1404.04Z" fill="#D0D4D8"/>
<path d="M1404.04 743.657L1400.39 739.979H1383.31L1379.64 736.3H1361.25V732.771H1356.37L1354.91 691.262H1357.45L1358.76 689.946H1354.88V689.886V689.826L1354.37 675.74L1351.44 678.671V736.779H1345.1V733.34C1342.35 733.639 1339.75 733.758 1337.38 733.758C1329.67 733.758 1324.23 732.532 1324.23 732.532H1324.17V732.472C1324.92 729.571 1327.64 724.128 1327.94 723.5C1319.06 718.566 1305.6 717.878 1304.91 717.848C1299.71 722.603 1297.91 731.097 1297.91 731.097V731.156L1282.22 728.884L1285.36 719.463H1255.19V725.624H1248.37V729.93H1246.69L1245.65 691.262H1248.49L1249.77 689.976H1245.62L1244.87 664.047L1241.61 668.204L1241.22 736.031C1240.59 738.483 1234.85 739.112 1228.45 739.112C1221.19 739.112 1213.08 738.244 1210.75 737.975C1206.95 737.556 1206.62 735.074 1206.62 734.326C1206.62 734.267 1206.62 734.207 1206.62 734.177C1192.15 734.057 1172.03 730.02 1170.56 729.721C1171.13 739.022 1181.75 742.73 1185.1 749.967C1188.3 756.936 1192.36 759.657 1192.63 759.836L1418.78 759.238C1426.19 752.898 1426.73 744.405 1426.79 743.567H1404.04V743.657Z" fill="#C4C4C4"/>
<path fill-rule="evenodd" clip-rule="evenodd" d="M1526.71 667.052H1527.42V699.526H1526.71V667.052ZM1544.18 493.855V493.285H1543.82L1539.54 493L1425.11 526.614L1372 527.753V528.038L1424.05 526.899L1421.91 527.469L1376.63 528.608H1375.21H1372V528.893H1375.21C1374.85 529.463 1374.5 530.032 1373.78 531.172H1372.36V531.457H1373.43C1373.07 532.026 1372.71 532.596 1372.36 533.166L1372.71 536.299C1373.07 536.584 1373.43 536.869 1373.78 537.154C1373.78 537.154 1373.78 537.154 1374.14 537.154H1372.71V537.439H1375.21C1378.42 538.009 1385.19 538.009 1386.26 537.154C1394.1 536.869 1401.94 536.584 1410.14 536.584L1412.28 536.869H1413.35H1415.49L1415.85 536.584C1436.17 536.014 1457.2 535.73 1477.16 535.16C1478.59 535.73 1476.09 534.875 1477.87 535.445C1481.08 536.014 1487.85 536.014 1488.92 535.16C1496.77 534.875 1504.61 534.875 1512.81 534.59L1514.95 534.875H1516.02H1518.16L1518.51 534.59L1532.06 534.305L1531.7 537.724H1530.28L1530.99 547.409L1525.64 667.906H1526.35L1531.34 551.967L1532.77 555.1H1534.91V556.525C1534.55 556.525 1534.2 556.525 1534.2 556.525L1532.77 559.088L1534.91 559.373L1534.55 571.053L1533.84 572.192C1533.84 572.192 1534.2 572.192 1534.55 572.192L1533.48 612.643L1532.77 613.782H1533.48L1532.41 667.337L1532.77 730.577H1533.13V667.337L1534.2 613.782H1535.27V617.77H1534.91L1535.27 618.055V618.34V620.334H1534.91L1534.55 620.904H1535.27V626.316L1534.91 626.601L1535.27 627.171V628.595L1534.91 628.88V629.45V629.735L1535.27 630.304V637.996H1534.91V638.565V638.85L1535.27 639.42V648.251H1534.91V648.821V649.105L1535.27 649.39L1534.91 667.337V669.046H1534.55V669.616V669.901L1534.91 670.47V679.301H1534.55V679.871V680.156L1534.91 680.44L1534.2 702.66V711.491H1533.84V712.06V712.345L1534.2 712.63V731.716V729.722H1533.48L1532.77 760.487L1531.34 827.145H1532.06L1533.48 760.202L1534.2 731.716H1534.91V732.001V740.832H1534.55V741.401V741.686L1534.91 741.971L1534.55 759.917V761.627H1534.2V762.196V762.481L1534.55 763.051V771.882H1534.2V772.452V772.736L1534.55 773.021L1533.84 795.241V804.071H1533.48V804.641V804.926L1533.84 805.211V824.297L1533.48 824.866C1533.48 824.866 1533.48 824.866 1533.84 824.866V826.006H1534.55V825.151C1535.62 825.151 1537.76 825.436 1539.9 825.721V826.291H1540.61V826.006C1542.04 826.006 1543.46 826.291 1544.89 826.291H1552.73C1553.45 826.291 1554.16 826.006 1554.87 826.006H1555.23V826.291H1555.94V825.436C1557.37 824.582 1558.44 822.303 1555.94 822.018C1555.94 819.454 1555.59 816.89 1555.59 814.611L1556.3 814.042V813.757V813.187L1555.59 812.902C1555.23 806.635 1556.3 799.798 1555.94 793.531C1557.37 792.962 1555.23 793.816 1556.3 793.247C1557.72 792.392 1558.79 790.113 1556.3 789.828C1556.3 787.264 1556.3 784.701 1556.3 782.422L1557.01 781.852V781.567V780.997L1556.3 780.713C1556.3 774.161 1555.94 767.324 1555.94 760.772C1557.01 760.202 1558.79 759.063 1556.3 758.493C1556.3 755.929 1556.3 753.366 1556.3 751.087L1556.65 750.517V750.232V749.662L1555.94 749.378C1555.94 743.68 1555.59 737.983 1555.59 732.286V732.571H1556.3V731.716C1557.72 730.861 1558.79 728.582 1556.3 728.298C1556.3 725.734 1555.94 723.17 1555.94 720.891L1556.65 720.321V720.037V719.467L1555.94 719.182C1555.59 712.915 1556.65 706.078 1556.3 699.811C1557.72 699.241 1555.59 700.096 1556.65 699.526C1558.08 698.672 1559.15 696.393 1556.65 696.108C1556.65 693.544 1556.65 690.98 1556.3 688.702L1557.01 688.132V687.847V687.277L1556.3 686.992C1556.3 680.44 1555.94 673.604 1555.94 667.052C1557.01 666.482 1558.79 665.343 1556.3 664.773C1556.3 662.209 1556.3 659.645 1556.3 657.366L1556.65 656.797V656.512V655.942L1555.94 655.657C1555.94 649.105 1555.59 642.269 1555.59 635.717C1555.94 635.432 1555.94 635.432 1555.94 635.147C1555.94 634.862 1555.94 634.862 1555.59 634.862C1555.59 630.304 1555.23 625.462 1555.23 620.904L1555.59 620.619V620.334V619.764L1555.23 619.48C1555.23 617.201 1555.23 614.922 1554.87 612.643C1555.94 611.788 1556.65 610.079 1554.87 609.509C1554.87 607.23 1554.87 604.952 1554.52 602.673C1554.87 602.388 1555.23 602.103 1555.23 601.818C1555.23 601.533 1554.87 601.248 1554.52 600.963C1554.52 597.545 1554.16 594.412 1554.16 590.993V590.423H1553.8C1553.45 584.726 1553.09 579.029 1552.73 573.616H1553.09L1552.73 573.047H1552.38C1552.38 571.907 1552.38 571.053 1552.02 569.913C1552.02 569.344 1552.38 569.059 1552.38 569.059H1552.02C1551.66 565.925 1551.66 562.507 1551.31 559.373H1551.66C1553.45 559.088 1555.59 555.67 1551.31 555.67H1550.95V554.246H1554.52L1553.09 536.014H1549.17L1549.53 535.445L1550.59 535.73L1553.09 536.014V536.299L1553.8 536.584L1557.01 532.881L1581.25 532.311C1583.39 532.596 1586.96 533.166 1588.38 532.311C1596.22 532.026 1604.07 532.026 1612.26 531.742L1614.4 532.026H1615.47H1617.61L1617.97 531.742L1676.07 530.317H1674.65V530.602H1677.14C1680.35 531.172 1687.12 531.172 1688.19 530.317C1696.04 530.032 1703.88 529.747 1712.08 529.747L1714.22 530.032H1715.29H1717.43L1717.78 529.747C1738.1 529.178 1759.13 528.893 1779.1 528.323C1780.52 528.893 1778.03 528.038 1779.81 528.608C1783.02 529.178 1789.79 529.178 1790.86 528.323C1798.7 528.038 1806.54 528.038 1814.74 527.753L1816.88 528.038H1817.95H1820.09L1820.45 527.753C1841.48 527.184 1862.15 526.614 1883.19 526.044C1885.33 526.329 1888.89 526.899 1890.32 526.044C1898.16 525.759 1906 525.759 1914.2 525.475L1916.34 525.759H1917.41H1919.55L1919.9 525.475C1940.94 524.905 1961.61 524.335 1982.64 523.765H1983L1981.93 516.359C1981.57 516.359 1981.22 516.359 1980.5 516.359C1980.15 516.359 1979.79 516.359 1979.44 516.644L1978.72 516.359H1981.93V516.074H1978.01H1977.65H1975.51H1974.44L1973.02 516.359L1945.21 516.929H1944.86H1942.72H1941.65H1940.58L1883.9 518.068H1878.2L1877.84 517.783H1875.7H1874.63L1873.21 518.068L1845.4 518.638H1845.04H1842.9L1838.63 518.353L1883.9 517.498L1981.22 515.504V515.219L1883.9 517.213L1836.49 518.353C1807.97 516.074 1698.18 508.098 1658.25 504.964C1613.33 500.406 1544.18 493.855 1544.18 493.855ZM1556.3 532.881H1556.65L1553.8 536.014L1553.45 534.59L1553.09 532.881H1556.3ZM1548.1 533.166L1546.32 534.02V533.451L1548.1 533.166ZM1545.25 533.166L1545.6 533.736V534.305L1544.89 534.59L1543.82 534.875L1544.89 535.73L1545.96 536.299H1544.18L1540.61 535.73V534.305L1544.53 532.881L1545.25 533.166ZM1542.4 533.166L1540.26 534.02V533.451L1542.4 533.166ZM1539.19 533.451V534.305L1536.69 535.16V534.305V534.59L1539.19 533.451ZM1538.12 533.451L1537.05 534.02V533.451H1538.12ZM1535.62 533.451V536.869H1533.48L1533.84 533.451H1535.62ZM1538.47 497.273C1537.76 500.122 1537.05 503.255 1537.05 504.395L1536.69 504.679L1536.34 505.249H1536.69V505.534V508.952C1536.34 508.952 1536.34 508.952 1536.34 508.952L1534.55 510.946L1532.77 512.94L1534.2 513.225L1533.48 524.335L1434.03 526.329L1535.27 495.849L1538.47 497.273ZM1534.2 524.335L1534.91 513.51L1536.34 513.795L1535.98 524.335H1534.2ZM1537.05 524.05H1538.47H1537.05ZM1541.68 524.05L1544.53 523.48V524.05H1541.68ZM1545.6 524.05V523.196L1547.74 522.626V523.765L1545.6 524.05ZM1548.46 524.05L1548.1 519.777L1547.74 519.207L1547.39 516.074V515.789V515.504H1547.03V514.935L1550.59 510.377L1546.67 509.807H1547.03L1546.67 509.237L1546.32 506.958L1545.96 506.389V506.104L1545.6 504.964H1545.96C1545.96 504.964 1545.96 504.679 1545.96 504.395H1545.25L1543.46 495.849L1543.11 494.994L1555.23 495.849C1567.35 496.703 1594.8 499.552 1610.13 500.691C1625.45 501.831 1657.89 503.825 1664.31 505.249C1670.73 506.389 1722.77 509.522 1742.02 511.231C1759.13 512.656 1817.24 516.644 1830.43 517.783L1672.87 521.202V521.486L1832.92 518.068L1843.26 518.353H1842.19H1841.12L1770.54 519.777L1742.74 520.347H1742.38H1740.24H1739.17H1738.1L1677.5 521.771H1676.79H1678.93V521.486L1581.61 523.48L1555.94 524.05V523.48L1555.59 524.05H1553.8L1553.09 523.765L1555.94 522.911V522.341L1552.73 523.48L1554.52 521.486L1555.94 522.626V521.771V520.917L1555.23 521.202L1555.94 520.347V518.638L1550.95 524.335L1548.46 524.05ZM1424.05 527.469L1428.68 526.899L1533.84 524.62V525.19L1470.74 526.329L1442.94 526.899H1442.58H1440.44H1439.37H1438.3L1424.05 527.469ZM1534.2 524.905V524.335H1535.98V524.905H1534.2ZM1537.05 524.905V524.335H1538.83L1537.4 524.905H1537.05ZM1538.12 524.905L1539.54 524.62V524.905H1538.12ZM1539.9 524.905V524.335L1542.04 524.62H1541.68H1540.61L1539.9 524.905ZM1545.96 524.62H1545.6V524.05H1548.1V524.62H1545.96ZM1548.81 524.62V524.05H1552.38L1552.02 524.62H1548.81ZM1554.87 524.62L1554.52 524.335L1557.01 524.62H1554.87ZM1557.72 524.62V524.05L1583.39 523.48L1677.5 521.486H1674.29V521.771H1673.58L1672.15 522.056L1644.35 522.626H1643.99H1641.85H1640.78H1639.71L1583.03 523.765H1577.33L1576.97 523.48H1574.83H1573.77L1572.34 523.765L1557.72 524.62ZM1557.01 524.05L1556.65 524.335L1555.94 524.05H1557.01ZM1544.53 524.335V524.62L1543.11 524.335H1544.53ZM1429.39 526.329L1463.26 516.074L1463.97 516.644L1432.24 526.329H1429.39ZM1421.19 527.753L1434.74 527.469L1414.42 530.032H1412.64L1407.65 528.038L1421.19 527.753ZM1676.79 521.771H1677.14H1676.79ZM1477.16 534.59L1455.06 535.16L1459.69 532.596L1475.38 532.311L1475.73 532.596L1473.24 532.311H1469.32L1476.09 532.881V533.736C1476.45 533.736 1477.16 534.305 1477.16 534.59ZM1452.56 535.16C1441.16 535.445 1428.68 535.445 1417.27 535.73L1421.91 533.451C1433.67 533.166 1445.43 532.881 1457.2 532.596L1453.63 534.59L1433.67 532.881L1430.82 533.166L1452.56 535.16ZM1414.06 535.73H1411.57L1389.82 534.02C1399.45 533.736 1409.07 533.451 1418.7 533.166L1414.06 535.73ZM1408 536.014C1401.23 536.299 1394.46 536.299 1387.68 536.584C1387.68 536.584 1387.68 536.584 1387.68 536.299C1387.68 535.445 1387.33 534.875 1386.97 534.305L1408 536.014ZM1475.02 531.742L1460.05 532.026H1457.55L1447.93 532.311L1446.15 532.026L1452.92 529.463L1463.61 531.457L1462.19 532.026H1464.33L1465.4 531.742L1466.82 532.026H1470.03L1466.47 531.457L1472.17 529.178L1474.31 529.463C1474.31 529.747 1474.31 530.317 1474.67 530.602C1474.31 530.887 1474.67 531.457 1475.02 531.742ZM1431.89 532.881H1432.6L1427.97 532.026L1435.45 530.032L1444.36 532.026L1443.65 532.311L1431.89 532.881ZM1430.46 532.881L1422.62 533.166H1419.41L1409.79 533.451L1417.27 530.602L1425.47 532.026L1422.26 532.881H1424.4L1426.9 532.311L1430.46 532.881ZM1405.51 533.451C1399.09 533.736 1393.03 533.736 1386.62 534.02L1393.39 531.457L1405.51 533.451ZM1386.62 533.166C1386.26 532.596 1385.9 532.026 1385.9 531.457C1385.9 531.172 1385.9 531.172 1385.9 530.887L1410.86 530.317H1412.64L1451.85 529.178L1445.43 531.742L1436.52 529.747H1435.81H1434.38L1426.54 531.742L1417.99 530.317H1416.56H1415.85L1407.65 533.451L1394.1 530.887H1392.68H1391.96L1386.62 533.166ZM1454.35 529.178L1470.39 528.893L1464.68 531.172L1454.35 529.178ZM1472.88 528.608H1474.31V528.893L1472.88 528.608ZM1474.31 528.323L1451.14 528.893L1470.39 526.614H1472.53L1475.02 527.469C1474.67 527.753 1474.31 528.038 1474.31 528.323ZM1444.72 529.178L1417.99 529.747L1437.95 527.184H1439.73L1444.72 529.178ZM1409.79 530.032L1385.55 530.602V530.317L1404.8 528.038L1409.79 530.032ZM1385.19 530.032C1384.83 529.178 1384.48 528.608 1384.48 528.608H1381.98L1401.23 528.038L1385.19 530.032ZM1443.3 527.184L1467.54 526.614L1448.29 528.893L1443.3 527.184ZM1476.09 526.614H1477.52C1477.16 526.614 1476.8 526.614 1476.09 526.614ZM1477.87 526.614C1478.23 526.614 1478.23 526.614 1477.87 526.614V526.614ZM1583.39 524.335V525.19C1582.32 524.62 1581.25 524.335 1580.18 524.62C1579.83 524.62 1579.47 524.62 1579.11 524.905L1578.4 524.62L1583.39 524.335ZM1569.84 524.62L1557.72 526.044V524.905L1569.84 524.62ZM1555.23 526.329H1554.52H1555.23ZM1552.02 526.614H1551.66L1553.09 524.62H1554.16L1555.23 525.475L1552.02 526.614ZM1550.24 526.614L1548.81 526.044V524.905H1551.66L1550.24 526.614ZM1548.1 525.759L1547.39 525.475L1548.1 525.759ZM1555.23 524.905H1556.3L1555.94 525.475L1555.23 524.905ZM1537.76 525.19H1537.05H1537.76ZM1535.98 525.475L1534.2 525.759V525.475H1535.98ZM1533.48 525.759L1517.44 527.753H1515.66L1510.67 525.759L1533.84 525.19L1533.48 525.759ZM1504.25 526.044L1488.21 528.038C1487.85 527.184 1487.5 526.614 1487.5 526.614L1504.25 526.044ZM1488.21 528.323L1507.46 526.044L1512.45 528.038L1488.21 528.323ZM1513.16 528.038H1514.95L1533.13 527.469V528.323L1528.85 529.463L1520.29 527.753H1518.87H1518.16L1509.96 530.887L1496.41 528.323H1494.98H1494.27L1488.57 530.602C1488.21 530.032 1487.85 529.463 1487.85 528.893C1487.85 528.608 1487.85 528.608 1487.85 528.323L1513.16 528.038ZM1533.84 527.469H1535.62V527.753L1533.84 528.323V527.469ZM1537.05 527.469H1539.19H1538.47H1537.05ZM1539.9 527.469H1540.61H1539.9ZM1543.46 527.469H1544.89V528.038H1542.75L1543.46 527.469ZM1545.6 527.184H1548.1V527.753H1545.6V527.184ZM1548.81 527.184H1549.53L1548.81 528.038V527.184ZM1552.02 527.184H1554.52L1553.09 527.753L1552.02 527.184ZM1552.02 528.038L1551.31 528.323L1550.95 528.038H1552.02ZM1550.95 528.608L1549.88 529.178L1550.59 528.323L1550.95 528.608ZM1547.74 529.463L1546.67 529.178L1548.1 528.323V528.038V527.753V528.893L1547.74 529.463ZM1545.96 529.178V528.608H1547.39L1545.96 529.178ZM1544.89 528.893L1542.75 528.323H1544.89V528.893ZM1520.65 527.753L1533.48 526.329V527.469L1520.65 527.753ZM1534.2 526.044L1535.98 525.759V527.184H1534.2V526.044ZM1537.05 525.759L1539.19 525.475V527.184H1537.05V525.759ZM1539.9 525.19H1540.61H1542.4L1544.53 526.044V526.329L1541.33 527.184H1539.54L1539.9 525.19ZM1545.6 526.329L1547.39 526.899H1545.6V526.329ZM1544.89 526.899H1544.18H1544.89ZM1553.8 526.899H1554.52H1553.8ZM1557.72 526.329L1573.05 524.335H1575.19L1577.69 525.19C1577.33 525.474 1576.97 525.759 1576.97 526.044L1557.72 526.614V526.329ZM1576.97 526.614H1575.55H1576.97ZM1573.41 526.614L1567.71 528.893L1558.08 527.184L1573.41 526.614ZM1489.64 531.742L1496.41 529.178L1508.53 531.457C1502.11 531.457 1496.05 531.457 1489.64 531.742ZM1512.45 531.172L1519.94 528.323L1528.14 529.747L1524.93 530.602H1527.07L1529.56 530.032L1533.13 530.602L1525.28 530.887H1522.08L1512.45 531.172ZM1534.55 530.602H1535.27L1533.84 530.317V528.893L1535.98 528.323V530.602H1534.55ZM1533.13 530.317L1530.28 529.747L1533.13 529.178V530.317ZM1537.05 528.038L1537.76 528.323L1537.05 528.608V528.038ZM1541.33 528.608L1545.25 529.463L1543.46 530.317H1540.26V528.893L1541.33 528.608ZM1545.96 529.747L1547.39 530.032L1546.67 530.317H1547.03H1545.96V529.747ZM1545.25 530.317H1544.53L1545.25 530.032V530.317ZM1539.19 530.602H1537.05L1539.19 529.463V530.602ZM1550.95 530.317L1551.66 529.463L1549.88 530.032H1549.53L1551.66 529.178L1552.38 529.747L1552.02 530.317V530.602L1550.95 530.317ZM1552.38 528.608L1553.45 528.038L1552.73 528.893L1552.38 528.608ZM1557.37 527.469L1566.64 529.178L1565.21 529.747H1567.35L1568.42 529.463L1570.56 529.747H1572.34L1568.77 529.178L1574.48 526.899L1576.62 527.184C1576.62 527.469 1576.62 528.038 1576.97 528.323C1576.97 528.608 1577.33 529.178 1577.69 529.463L1562.71 529.747H1560.22H1555.94L1555.59 528.893L1557.72 529.178V528.608L1555.94 528.323L1556.65 527.753L1558.08 528.608V527.753L1557.01 527.184L1557.37 527.469ZM1555.59 530.032H1555.23L1555.59 529.747V530.032ZM1578.04 530.032L1578.4 530.317L1575.19 530.032H1572.34L1578.76 530.602C1579.47 531.172 1580.18 531.741 1581.25 532.026L1558.44 532.596L1562.36 530.317L1578.04 530.032ZM1554.52 532.596H1553.09H1553.8H1554.52ZM1549.88 532.881L1549.53 532.311H1550.24L1549.88 532.881ZM1547.39 532.881H1546.32L1546.67 532.311L1547.39 532.881ZM1543.11 532.881H1539.9V532.596L1541.68 531.457L1544.89 531.742V532.026L1543.11 532.881ZM1538.47 533.166H1536.69V531.457L1539.19 531.742V532.881L1538.47 533.166ZM1535.62 533.166H1533.48V530.887H1535.62V531.172H1534.55H1535.62V533.166ZM1533.13 533.166L1520.29 533.451L1524.93 531.172L1533.48 530.887L1533.13 533.166ZM1537.05 530.887H1539.54V531.172L1537.05 530.887ZM1539.9 530.887H1542.4L1541.33 531.457H1539.9V530.887ZM1543.82 530.602H1545.25V531.457L1542.4 531.172L1543.82 530.602ZM1545.96 530.602H1546.67L1546.32 530.887L1545.6 531.172L1545.96 530.602ZM1549.17 530.602H1551.31L1550.24 532.026H1549.17H1549.88L1549.17 531.742V530.602ZM1554.87 530.602H1555.59L1555.94 532.026L1554.16 531.172L1554.87 530.602ZM1556.3 530.317H1559.86L1558.08 531.172L1556.65 532.026L1556.3 530.317ZM1548.46 532.026H1547.74H1548.46ZM1539.9 531.457H1540.97L1539.9 532.026V531.457ZM1547.74 532.026H1548.46V532.596L1547.74 532.026ZM1516.73 533.736H1514.23L1492.49 532.026C1502.11 531.741 1511.74 531.457 1521.36 531.457L1516.73 533.736ZM1511.03 533.736C1504.25 534.02 1497.48 534.02 1490.71 534.305C1490.71 534.305 1490.71 534.305 1490.71 534.02C1490.71 533.166 1490.35 532.596 1489.99 532.026L1511.03 533.736ZM1657.54 530.032L1661.46 527.753L1675 527.469H1672.87L1675.36 527.753V528.893C1675.72 529.178 1675.72 529.178 1676.07 529.463L1657.54 530.032ZM1662.17 527.753H1660.03L1650.41 528.038L1648.63 527.753L1655.4 525.19L1666.09 527.184L1664.67 527.753H1666.81L1667.88 527.469L1669.3 527.753H1671.44L1668.94 527.469L1675 525.19L1676.43 525.475C1676.07 525.759 1676.07 526.329 1675.72 526.614L1676.07 528.038L1662.17 527.753ZM1659.32 528.038L1655.75 530.032L1636.15 528.608H1630.8L1654.33 530.032C1642.92 530.317 1631.16 530.602 1619.75 530.887L1624.39 528.608C1635.79 528.608 1647.56 528.323 1659.32 528.038ZM1669.3 522.341L1650.05 524.62L1645.06 522.911L1669.3 522.341ZM1636.86 523.196L1616.54 525.475H1614.76L1609.77 523.765L1636.86 523.196ZM1603.71 523.765L1587.67 525.759C1587.31 524.905 1586.96 524.335 1586.96 524.335H1584.46L1603.71 523.765ZM1587.31 526.044L1606.56 523.765L1611.55 525.475L1587.31 526.044ZM1612.62 525.759H1614.4L1653.62 524.905L1647.2 527.184L1638.29 525.19H1637.57H1636.15L1628.31 527.184L1619.75 525.759H1618.32H1617.61L1609.41 528.893L1595.51 526.329H1593.02L1593.73 526.614L1588.02 528.608C1587.67 528.038 1587.31 527.469 1587.31 526.899C1587.31 526.899 1587.31 526.614 1587.31 526.329L1612.62 525.759ZM1620.11 525.475L1640.07 523.196H1641.85L1646.84 524.905L1620.11 525.475ZM1653.26 524.62L1672.51 522.341H1674.65L1676.79 523.196L1676.07 524.05H1674.65L1653.26 524.62ZM1675.72 524.62L1674.65 524.335L1675.72 524.62ZM1672.51 524.335L1666.45 526.614L1656.11 524.905L1672.51 524.335ZM1589.09 529.178L1595.87 526.614L1607.99 528.608C1601.57 529.178 1595.15 529.178 1589.09 529.178ZM1611.91 528.893L1619.39 526.044L1627.59 527.469L1623.67 528.608H1626.52L1629.02 527.753L1632.58 528.323L1624.74 528.608H1621.53L1611.91 528.893ZM1634.01 528.323H1634.72L1630.09 527.469L1637.57 525.759L1646.49 527.753L1645.77 528.038H1647.91H1648.27L1634.01 528.323ZM1620.82 528.893L1616.19 531.172H1613.69L1591.95 529.463C1601.21 529.463 1611.2 529.178 1620.82 528.893ZM1589.09 529.747L1610.13 531.457C1603.35 531.741 1596.58 531.741 1589.81 532.026C1589.81 532.026 1589.81 532.026 1589.81 531.742C1589.45 530.887 1589.45 530.317 1589.09 529.747ZM1779.1 527.469L1756.99 528.038L1761.63 525.475L1777.31 525.19L1777.67 525.475L1775.17 525.19H1771.25L1778.03 525.759V526.614C1778.38 526.899 1779.1 527.469 1779.1 527.469ZM1754.5 528.038C1743.09 528.323 1730.61 528.323 1719.21 528.608L1723.84 526.329C1735.61 526.044 1747.37 525.759 1759.13 525.475L1755.57 527.469L1735.61 525.759L1732.75 526.044L1754.5 528.038ZM1716 528.893H1713.5L1691.76 527.184C1701.38 526.899 1711.01 526.614 1720.63 526.329L1716 528.893ZM1709.94 529.178C1703.17 529.463 1696.39 529.463 1689.62 529.747C1689.62 529.747 1689.62 529.747 1689.62 529.463C1689.62 528.608 1689.26 528.038 1688.91 527.469L1709.94 529.178ZM1776.96 524.905L1761.98 525.19H1759.49L1749.86 525.475L1748.08 525.19L1754.86 522.626L1765.55 524.62L1764.12 525.19H1766.26L1767.33 524.905L1768.76 525.19H1771.97L1768.4 524.62L1774.11 522.341L1776.24 522.626C1776.24 522.911 1776.24 523.48 1776.6 523.765C1776.24 524.05 1776.6 524.335 1776.96 524.905ZM1733.82 525.759H1734.54L1729.9 524.905L1737.39 522.911L1746.3 524.905L1745.59 525.19L1733.82 525.759ZM1732.04 526.044L1724.2 526.329H1720.99L1711.37 526.614L1718.85 523.765L1727.05 525.19L1723.84 526.044H1725.98L1728.48 525.475L1732.04 526.044ZM1707.44 526.614C1701.03 526.899 1694.97 526.899 1688.55 527.184L1695.32 524.62L1707.44 526.614ZM1688.55 526.329C1688.19 525.759 1687.84 525.19 1687.84 524.62C1687.84 524.335 1687.84 524.335 1687.84 524.05L1712.79 523.48H1714.57L1753.79 522.341L1747.37 524.905L1738.46 522.911H1737.74H1736.32L1728.48 524.905L1719.92 523.48H1718.49H1717.78L1709.58 526.614L1696.04 524.05H1694.61H1693.9L1688.55 526.329ZM1756.28 522.341L1772.32 522.056L1766.62 524.335L1756.28 522.341ZM1774.46 521.771H1775.89V522.056L1774.46 521.771ZM1776.24 521.486L1753.07 522.056L1772.32 519.777H1774.46L1776.96 520.632C1776.6 520.632 1776.24 521.202 1776.24 521.486ZM1746.66 522.056L1719.92 522.626L1739.88 520.062H1741.67L1746.66 522.056ZM1716.71 522.911H1714.93L1709.94 520.917L1737.03 520.347L1716.71 522.911ZM1711.72 523.196L1687.48 523.765V523.48L1706.73 521.202L1711.72 523.196ZM1687.12 523.196C1686.77 522.341 1686.41 521.771 1686.41 521.771H1683.92L1703.17 521.202L1687.12 523.196ZM1744.87 520.347L1769.11 519.777L1749.86 522.056L1744.87 520.347ZM1778.03 519.777H1779.45C1778.74 519.777 1778.74 519.777 1778.03 519.777ZM1779.81 519.492C1780.17 519.492 1779.81 519.492 1779.81 519.492V519.492ZM1885.33 517.213V518.068C1884.26 517.498 1883.19 517.213 1882.12 517.498C1881.76 517.498 1881.4 517.498 1881.05 517.783L1880.33 517.498L1885.33 517.213ZM1871.78 517.498L1852.53 519.777L1847.54 518.068L1871.78 517.498ZM1839.7 518.353L1819.38 520.917H1817.6L1812.6 518.923L1839.7 518.353ZM1806.19 518.923L1790.15 520.917C1789.79 520.062 1789.43 519.492 1789.43 519.492L1806.19 518.923ZM1790.15 521.202L1809.4 518.923L1814.39 520.917L1790.15 521.202ZM1815.1 521.202H1816.88L1856.09 520.347L1849.68 522.911L1840.77 520.917H1840.05H1838.63L1830.78 522.911L1822.23 521.202H1820.8H1820.09L1811.89 524.335L1798.35 521.771H1796.92H1796.21L1790.5 524.05C1790.15 523.48 1789.79 522.911 1789.79 522.341C1789.79 522.056 1789.79 522.056 1789.79 521.771L1815.1 521.202ZM1822.59 520.632L1842.55 518.068H1844.33L1849.32 519.777L1822.59 520.632ZM1855.74 519.777L1874.99 517.498H1877.13L1879.62 518.353C1879.27 518.638 1878.91 518.923 1878.91 519.207L1855.74 519.777ZM1878.91 519.492C1878.55 519.777 1878.55 519.777 1878.91 519.492H1877.48H1878.91ZM1874.99 519.777L1869.28 522.056L1858.95 520.062L1874.99 519.777ZM1791.57 524.62L1798.35 522.056L1810.47 524.335C1804.05 524.62 1797.63 524.62 1791.57 524.62ZM1814.39 524.335L1821.87 521.486L1830.07 522.911L1826.86 523.765H1829L1831.5 523.196L1835.06 523.765L1827.22 524.05H1824.01L1814.39 524.335ZM1836.49 523.765H1837.2L1832.57 522.911L1840.05 520.917L1848.96 522.911L1848.25 523.196H1850.39H1850.75L1836.49 523.765ZM1852.89 523.196L1851.1 522.911L1857.88 520.347L1868.57 522.341L1867.15 522.911H1869.28L1870.35 522.626L1872.49 522.911H1874.27L1870.71 522.341L1876.41 520.062L1878.55 520.347C1878.55 520.632 1878.55 521.202 1878.91 521.486C1878.91 521.771 1879.27 522.341 1879.62 522.626L1864.65 522.911H1862.15L1852.89 523.196ZM1879.98 522.911L1880.33 523.196L1877.13 522.911H1874.27L1880.69 523.48C1881.4 524.05 1882.12 524.62 1883.19 524.905L1860.37 525.475L1864.29 523.196L1879.98 522.911ZM1856.45 525.759C1845.04 526.044 1833.28 526.329 1821.87 526.614L1826.51 524.335C1838.27 524.05 1850.03 523.765 1861.8 523.48L1858.23 525.475L1838.98 524.05L1836.84 524.335L1856.45 525.759ZM1818.66 526.614H1816.17L1794.42 524.905C1804.05 524.62 1813.67 524.335 1823.3 524.335L1818.66 526.614ZM1812.96 526.899C1806.19 527.184 1799.41 527.184 1792.64 527.469C1792.64 527.469 1792.64 527.469 1792.64 527.184C1792.64 526.329 1792.29 525.759 1791.93 525.19L1812.96 526.899ZM1959.47 523.196L1963.39 520.917L1979.08 520.632L1979.44 520.917L1976.94 520.632H1974.8L1979.79 520.917C1980.5 521.486 1981.22 521.771 1982.29 522.341L1959.47 523.196ZM1964.11 520.632H1961.97L1952.34 520.917L1950.56 520.632L1957.33 518.068L1968.03 520.062L1966.6 520.632H1968.74L1969.81 520.347L1970.88 520.632H1973.02L1970.52 520.347L1976.58 518.068L1978.72 518.353C1978.72 518.638 1978.72 519.207 1979.08 519.492C1979.08 519.777 1979.44 520.062 1979.79 520.632H1964.11ZM1961.25 521.202L1957.69 523.196L1938.08 521.771H1932.74L1956.26 523.196C1944.86 523.48 1933.09 523.765 1921.69 524.05L1926.32 521.771C1937.73 521.771 1949.49 521.486 1961.25 521.202ZM1971.24 515.504L1951.99 517.783L1947 516.074L1971.24 515.504ZM1938.8 516.074L1918.48 518.353H1916.7L1911.7 516.644L1938.8 516.074ZM1905.29 516.929L1889.25 518.923C1888.89 518.068 1888.53 517.498 1888.53 517.498H1886.04L1905.29 516.929ZM1889.25 519.207L1908.5 516.929L1913.49 518.638L1889.25 519.207ZM1914.56 518.923H1916.34L1955.55 518.068L1949.13 520.347L1940.22 518.353H1939.51H1938.08L1930.24 520.347L1921.69 518.923H1920.26H1919.55L1911.35 522.056L1897.45 519.492H1894.95L1895.66 519.777L1889.96 521.771C1889.6 521.202 1889.25 520.632 1889.25 520.062C1889.25 520.062 1889.25 519.777 1889.25 519.492L1914.56 518.923ZM1922.04 518.353L1942.01 516.074H1943.79L1948.78 517.783L1922.04 518.353ZM1955.19 517.783L1974.44 515.504H1976.58L1979.08 516.359C1978.72 516.644 1978.37 516.929 1978.37 517.213L1955.19 517.783ZM1978.01 517.498H1976.58H1978.01ZM1974.44 517.498L1968.38 519.777L1958.05 518.068L1974.44 517.498ZM1891.03 522.341L1897.8 519.777L1909.92 521.771C1903.51 522.056 1897.09 522.341 1891.03 522.341ZM1913.84 521.771L1921.33 518.923L1929.53 520.347L1925.61 521.486H1928.46L1930.95 520.632L1934.52 521.202L1926.68 521.486H1923.47L1913.84 521.771ZM1935.59 521.486H1936.3L1931.67 520.632L1939.15 518.923L1948.07 520.917L1947.35 521.202H1949.49H1949.85L1935.59 521.486ZM1922.76 522.056L1918.12 524.335H1915.63L1893.88 522.626C1903.15 522.341 1913.13 522.341 1922.76 522.056ZM1891.03 522.911L1912.06 524.62C1905.29 524.905 1898.52 524.905 1891.74 525.19C1891.74 525.19 1891.74 525.19 1891.74 524.905C1891.39 524.05 1891.39 523.48 1891.03 522.911ZM1525.64 761.342H1526.35L1525.64 793.816H1524.93L1525.64 761.342ZM1527.42 730.292H1528.14L1526.71 761.057H1526L1527.42 730.292ZM1524.93 793.816H1525.64L1523.86 828H1523.15L1524.93 793.816ZM1554.52 795.241V802.362L1548.1 800.653V795.81C1548.46 795.81 1548.81 795.81 1548.81 795.81L1548.1 796.665L1547.74 797.804L1549.53 795.81H1549.88H1552.38C1553.09 795.525 1554.52 795.241 1554.52 795.241ZM1554.52 802.932C1554.52 806.635 1554.16 810.338 1554.16 814.042L1548.46 812.617C1548.46 808.914 1548.46 805.211 1548.46 801.508L1553.45 802.647L1548.1 808.914L1548.46 809.769L1554.52 802.932ZM1554.16 815.181V816.036L1548.46 822.872C1548.46 819.739 1548.46 816.89 1548.46 813.757L1554.16 815.181ZM1554.52 817.175C1554.52 819.454 1554.52 821.448 1554.87 823.727H1554.52C1552.38 823.727 1550.59 823.727 1549.17 823.727L1554.52 817.175ZM1547.39 795.81V800.368V801.223V804.356L1546.32 804.926L1539.9 802.647L1545.6 799.514L1547.03 800.083V799.514L1546.32 799.229L1547.03 798.944L1547.39 797.804L1545.6 798.944L1539.9 796.95L1540.97 796.38C1542.04 796.38 1543.11 796.38 1544.18 796.38C1545.6 796.095 1546.67 795.81 1547.39 795.81ZM1547.74 809.484L1545.25 810.623L1540.61 808.06L1546.32 805.211L1547.03 805.496L1547.74 809.484ZM1547.74 810.054V812.617V813.472V816.605L1540.61 814.042L1544.89 811.478L1546.67 812.617L1547.03 812.048L1545.6 811.193L1547.74 810.054ZM1547.74 817.745C1547.74 819.739 1547.74 821.733 1547.74 823.727H1547.39L1540.97 821.448L1547.74 817.745ZM1545.96 823.727C1544.18 823.727 1542.75 824.012 1541.33 824.012C1540.97 824.012 1540.61 824.012 1540.26 824.012V816.036V815.466L1539.9 802.932L1545.96 804.926L1540.26 807.49V807.775V808.344L1544.89 810.908L1540.26 813.472V813.757V814.042L1548.1 816.89L1540.97 821.163V821.448V821.733L1545.96 823.727ZM1539.54 802.362V797.235L1545.25 799.229L1539.54 802.362ZM1539.54 796.38V795.81C1539.9 795.81 1539.9 795.81 1540.26 795.81L1539.54 796.38ZM1538.83 795.81V803.217L1533.84 796.95V796.38L1536.34 795.81C1537.05 795.81 1537.76 795.81 1538.83 795.81ZM1538.83 805.211V813.757L1533.48 807.205V806.635L1538.83 805.211ZM1539.19 814.896V815.466L1533.84 816.89V808.344L1539.19 814.896ZM1539.19 816.321V824.012H1538.83L1533.84 817.745L1539.19 816.321ZM1538.12 824.012C1535.98 824.012 1534.2 824.297 1534.2 824.297L1533.84 825.151V819.169L1538.12 824.012ZM1533.84 805.781V798.089L1538.83 804.356L1533.84 805.781ZM1534.2 795.241V794.956C1534.2 794.956 1534.55 794.956 1534.2 795.241ZM1534.55 761.342H1537.05C1535.62 761.627 1534.91 761.912 1534.91 762.481C1534.91 762.481 1534.91 762.766 1535.27 762.766L1534.55 763.051V761.342ZM1534.55 765.615L1539.54 771.882L1534.55 773.306V765.615ZM1534.55 775.87L1539.54 782.422V782.991L1534.2 784.416L1534.55 775.87ZM1534.2 786.41L1538.12 791.537C1535.98 791.537 1534.2 791.822 1534.2 791.822V786.41ZM1539.19 791.537L1534.2 785.27L1539.54 783.846V791.537H1539.19ZM1540.26 783.561V782.991V770.457L1546.32 772.452L1540.61 775.015V775.3V775.87L1545.25 778.434L1540.61 780.997V781.282V781.567L1548.46 784.416L1541.33 788.689V788.974V789.258L1546.67 791.253C1544.89 791.253 1543.47 791.537 1542.04 791.537C1541.68 791.537 1541.33 791.537 1540.97 791.537L1540.26 783.561ZM1539.54 781.282L1534.55 774.73V774.161L1539.54 772.736V781.282ZM1539.54 770.742L1534.55 764.475V763.906L1537.05 763.336C1537.76 763.336 1538.47 763.621 1539.54 763.621V770.742ZM1540.26 763.336C1540.61 763.336 1540.61 763.336 1540.97 763.336L1540.26 763.621V763.336ZM1540.26 764.475L1545.96 766.469L1540.61 769.603L1540.26 764.475ZM1548.1 791.253L1541.68 788.974L1548.1 785.27C1548.46 787.264 1548.46 789.258 1548.1 791.253ZM1548.46 783.846L1541.33 781.282L1545.6 778.719L1547.39 779.858L1547.74 779.288L1546.32 778.434L1548.1 777.294V779.858V780.713L1548.46 783.846ZM1548.1 777.009L1545.6 778.149L1540.97 775.585L1547.03 772.736L1547.74 773.021V772.452H1548.1V777.009ZM1548.1 771.882L1547.03 772.452L1540.97 770.173L1546.67 767.039L1548.1 767.609V767.039L1547.39 766.754L1548.46 765.9V765.33L1546.67 766.469L1540.97 764.475L1542.04 763.906C1543.11 763.906 1544.18 763.906 1545.25 763.906C1546.32 763.906 1547.03 763.906 1548.1 763.621V768.179V769.033V771.882ZM1549.17 763.336C1549.53 763.336 1549.88 763.336 1549.88 763.336L1549.17 764.475V765.33L1550.95 763.336C1552.38 763.051 1553.8 762.766 1554.52 762.766V769.888L1549.17 768.463V763.336ZM1554.52 770.742C1554.52 774.446 1554.52 778.149 1554.87 781.852L1549.17 780.428C1549.17 776.724 1549.17 773.021 1549.17 769.318L1554.16 770.457L1549.53 776.44L1549.88 777.009L1554.52 770.742ZM1554.87 782.707V783.561L1549.17 790.398C1549.17 787.264 1549.17 784.416 1549.17 781.282L1554.87 782.707ZM1554.87 784.701C1554.87 786.98 1554.87 788.974 1554.87 791.253H1554.52C1552.38 791.253 1550.59 791.253 1549.17 791.253L1554.87 784.701ZM1554.16 738.268L1548.81 736.844V733.995H1552.38C1553.09 733.995 1553.45 733.71 1554.16 733.71V738.268ZM1548.1 736.559V737.413V740.547L1547.03 741.116L1540.97 738.838L1546.32 735.704L1547.74 736.274V735.704L1547.03 735.419L1547.74 735.134V734.565L1546.67 735.419L1544.53 734.565H1544.89H1548.46L1548.1 736.559ZM1549.17 737.698L1554.16 738.838L1549.17 744.82V746.529L1554.52 739.122C1554.52 742.826 1554.52 746.529 1554.87 750.232L1549.17 748.808C1549.17 745.105 1549.17 741.401 1549.17 737.698ZM1535.27 733.995L1539.9 740.262L1535.27 741.686V733.995ZM1534.91 744.25L1539.9 750.802V751.372L1534.91 752.796V744.25ZM1534.91 754.79L1538.83 759.917C1536.69 759.917 1534.91 760.202 1534.91 760.202V761.057V754.79ZM1539.54 760.202L1534.91 753.935L1539.9 752.511V760.202H1539.54ZM1540.61 752.226V751.656V739.122L1546.32 741.116L1540.61 743.68V743.965V744.535L1544.89 747.099L1540.61 749.662V749.947V750.232L1548.1 753.081L1540.61 757.354V758.208L1541.33 757.923L1546.32 759.917C1544.53 759.917 1543.11 760.202 1541.68 760.202C1541.33 760.202 1540.97 760.202 1540.61 760.202V752.226ZM1539.9 749.662L1534.91 743.111V742.541L1539.9 741.116V749.662ZM1539.9 739.407L1535.27 733.14L1539.9 733.425V733.995V739.407ZM1541.68 733.71L1545.6 735.134L1540.26 738.268V733.425L1541.68 733.71ZM1548.1 759.917L1542.04 757.639L1548.1 753.935C1548.1 755.929 1548.46 757.923 1548.1 759.917ZM1548.1 752.511L1541.33 749.947L1545.6 747.383L1548.1 748.808V747.953L1546.32 747.099L1548.1 745.959V748.523V749.378V752.511ZM1548.1 745.674L1545.6 746.814L1541.33 744.25L1547.03 741.401L1547.74 741.686V741.116H1548.1V745.674ZM1549.17 749.662L1554.87 751.087V751.941L1549.17 758.778C1549.17 755.929 1549.17 752.796 1549.17 749.662ZM1549.17 759.633L1554.52 753.081C1554.52 755.36 1554.52 757.354 1554.52 759.633H1554.16C1552.38 759.633 1550.59 759.633 1549.17 759.633ZM1527.07 699.526L1527.42 730.292H1528.14L1527.78 699.526H1527.07ZM1554.87 701.236V708.357L1548.46 706.648V701.805C1548.81 701.805 1549.17 701.805 1549.17 701.805L1548.46 702.66L1548.1 703.799L1549.88 701.805H1550.24H1552.73C1553.45 701.236 1554.87 701.236 1554.87 701.236ZM1554.87 708.927C1554.87 712.63 1554.52 716.333 1554.52 720.037L1548.81 718.612C1548.81 714.909 1548.81 711.206 1548.81 707.503L1553.8 708.642L1548.46 714.909L1548.81 715.764L1554.87 708.927ZM1554.52 721.176V722.031L1548.81 728.867C1548.81 725.734 1548.81 722.885 1548.81 719.752L1554.52 721.176ZM1554.87 722.885C1554.87 725.164 1554.87 727.158 1555.23 729.437H1554.87C1552.73 729.437 1550.95 729.437 1549.53 729.437L1554.87 722.885ZM1547.74 701.805V706.363V707.218V710.351L1546.67 710.921L1540.26 708.642L1545.96 705.509L1547.39 706.078V705.509L1546.67 705.224L1547.39 704.939L1547.74 703.799L1545.96 704.939L1540.26 702.945L1541.33 702.375C1542.4 702.375 1543.47 702.375 1544.53 702.375C1545.96 701.805 1547.03 701.805 1547.74 701.805ZM1548.1 715.479L1545.6 716.618L1540.97 714.054L1546.67 711.206L1547.39 711.491L1548.1 715.479ZM1548.1 715.764V718.327V719.182V722.315L1540.97 719.752L1545.25 717.188L1547.03 718.327L1547.39 717.758L1545.96 716.903L1548.1 715.764ZM1548.1 723.74C1548.1 725.734 1548.1 727.728 1548.1 729.722H1547.74L1541.33 727.443L1548.1 723.74ZM1546.32 729.722C1544.53 729.722 1543.11 730.007 1541.68 730.007C1541.33 730.007 1540.97 730.007 1540.61 730.007V722.031V721.461L1540.26 708.927L1546.32 710.921L1540.61 713.485V713.77V714.339L1545.25 716.903L1540.61 719.467V719.752V720.037L1548.46 722.885L1541.33 727.158V727.443V727.728L1546.32 729.722ZM1539.9 708.072V702.945L1545.6 704.939L1539.9 708.072ZM1539.9 702.375V701.805C1540.26 701.805 1540.26 701.805 1540.61 701.805L1539.9 702.375ZM1538.83 701.805V709.212L1533.84 702.945V702.375L1536.34 701.805C1537.4 701.52 1538.12 701.805 1538.83 701.805ZM1539.19 711.206V719.752L1533.84 713.2V712.63L1539.19 711.206ZM1539.54 720.606V721.176L1534.2 722.6V714.054L1539.54 720.606ZM1539.54 722.315V730.007H1539.19L1534.2 723.74L1539.54 722.315ZM1538.47 730.007C1536.34 730.007 1534.55 730.292 1534.55 730.292L1534.2 731.146V725.164L1538.47 730.007ZM1534.2 711.491V703.799L1539.19 710.066L1534.2 711.491ZM1534.55 701.236V700.951C1534.55 700.951 1534.55 700.951 1534.55 701.236ZM1534.91 667.052H1537.4C1535.98 667.337 1535.27 667.622 1535.27 668.191C1535.27 668.191 1535.27 668.476 1535.62 668.476L1534.91 668.761V667.052ZM1534.91 671.325L1539.9 677.592L1534.91 679.016V671.325ZM1534.91 681.58L1539.9 688.132V688.702L1534.55 690.126L1534.91 681.58ZM1534.55 692.12L1538.47 697.247C1536.34 697.247 1534.55 697.532 1534.55 697.532V692.12ZM1539.54 697.247L1534.55 690.98L1539.9 689.556V697.247H1539.54ZM1540.61 689.556V688.986V676.452L1546.67 678.446L1540.97 681.01V681.295V681.865L1545.6 684.429L1540.97 686.992V687.277V687.562L1548.81 690.411L1541.68 694.684V694.969V695.253L1547.03 697.247C1545.25 697.247 1543.82 697.532 1542.4 697.532C1542.04 697.532 1541.68 697.532 1541.33 697.532L1540.61 689.556ZM1539.9 686.992L1534.91 680.44V679.871L1539.9 678.446V686.992ZM1539.9 676.452L1534.91 670.185V669.616L1537.4 669.046C1538.12 669.046 1538.83 669.331 1539.9 669.331V676.452ZM1540.61 669.331C1540.97 669.331 1540.97 669.331 1541.33 669.331L1540.61 669.616V669.331ZM1540.61 670.47L1546.32 672.464L1540.97 675.598L1540.61 670.47ZM1548.46 696.963L1542.04 694.684L1548.46 690.98C1548.46 692.974 1548.46 694.969 1548.46 696.963ZM1548.46 689.841L1541.33 687.277L1545.6 684.713L1547.39 685.853L1547.74 685.283L1546.32 684.429L1548.1 683.289V685.853V686.707L1548.46 689.841ZM1548.46 682.719L1545.96 683.859L1541.33 681.295L1547.39 678.446L1548.1 678.731V678.162H1548.46V682.719ZM1548.46 677.592L1547.39 678.162L1541.33 675.883L1547.03 672.749L1548.46 673.319V672.749L1547.74 672.464L1548.81 671.61V671.04L1547.03 672.179L1541.33 670.185L1542.4 669.616C1543.46 669.616 1544.53 669.616 1545.6 669.616C1546.67 669.616 1547.39 669.616 1548.46 669.331V673.889V674.743V677.592ZM1549.53 669.046C1549.88 669.046 1550.24 669.046 1550.24 669.046L1549.53 670.185V671.04L1551.31 669.046C1552.73 668.761 1554.16 668.476 1554.87 668.476V675.598L1549.53 674.173V669.046ZM1554.87 676.452C1554.87 680.156 1554.87 683.859 1555.23 687.562L1549.53 686.138C1549.53 682.435 1549.53 678.731 1549.53 675.028L1554.52 676.168L1549.88 682.15L1550.24 682.719L1554.87 676.452ZM1555.23 688.702V689.556L1549.53 696.393C1549.53 693.259 1549.53 690.411 1549.53 687.277L1555.23 688.702ZM1555.23 690.411C1555.23 692.69 1555.23 694.684 1555.23 696.963H1554.87C1552.73 696.963 1550.95 696.963 1549.53 696.963L1555.23 690.411ZM1535.62 555.1V556.24H1535.27L1535.62 555.1ZM1535.62 559.373V567.065L1535.27 567.35V567.919V569.913C1535.27 570.198 1534.91 570.483 1534.91 570.483L1535.62 559.373ZM1535.27 571.907H1535.62L1535.27 604.667H1534.91L1535.27 604.952V610.649C1534.91 610.649 1534.55 610.649 1534.55 610.649L1534.2 610.934L1535.27 571.907ZM1546.32 506.389L1546.67 509.237L1544.89 510.092V507.528L1546.32 506.389ZM1547.03 516.359L1547.39 519.207L1545.25 520.062V517.498L1547.03 516.359ZM1547.39 519.777V521.202L1545.25 522.056V520.632L1547.39 519.777ZM1548.46 530.887L1548.1 531.172H1547.74L1548.46 530.887ZM1548.81 533.736V534.02L1548.46 534.59L1548.81 535.16L1548.46 535.445H1548.81V536.299H1546.67L1545.96 536.014V535.445H1547.74L1547.03 534.875L1546.32 534.59V534.305L1548.81 533.736ZM1550.59 554.531V555.955C1549.53 555.955 1548.46 555.955 1547.39 555.955V554.531H1550.59ZM1544.89 516.929V515.789H1546.67L1544.89 516.929ZM1544.89 515.504H1545.25H1544.89ZM1544.89 513.225V510.662L1546.67 510.092L1544.89 513.225ZM1544.53 506.958C1544.53 506.673 1544.53 506.673 1544.53 506.958V506.958ZM1543.46 504.395H1542.75C1542.75 504.395 1543.11 504.395 1543.46 504.395V505.249H1539.9V504.679C1539.9 503.255 1539.9 500.976 1540.61 500.406C1541.33 499.552 1542.75 500.406 1542.75 500.406C1542.75 500.406 1543.11 502.116 1543.46 504.395ZM1543.46 505.819V507.243L1539.9 509.237C1539.9 509.237 1539.9 509.237 1539.54 509.237V505.819H1543.46ZM1543.82 507.813V510.377L1539.9 511.801V510.946C1540.26 510.377 1540.26 509.807 1540.26 509.522L1543.82 507.813ZM1543.82 510.946V512.94L1540.26 512.371L1543.82 510.946ZM1544.18 515.219L1539.9 515.504V514.365L1544.18 515.219ZM1544.18 516.074V517.498L1539.9 519.777V516.074H1544.18ZM1544.18 518.068V520.347L1539.9 522.056V520.347L1544.18 518.068ZM1544.53 520.917V522.341L1540.26 523.765H1539.9V522.626L1544.53 520.917ZM1546.67 554.815V556.24C1543.82 556.24 1542.4 556.525 1540.61 556.525C1540.61 556.525 1540.61 556.525 1540.26 556.525V555.1L1546.67 554.815ZM1539.19 505.819V509.237C1538.47 509.237 1537.76 509.237 1537.4 509.237V505.819H1539.19ZM1539.19 514.08V515.219H1537.05V513.51L1539.19 514.08ZM1539.19 516.074V520.347L1537.05 521.486V516.074H1539.19ZM1539.19 520.917V522.341L1537.05 523.196V522.056L1539.19 520.917ZM1539.19 522.911V523.765L1537.76 523.48L1539.19 522.911ZM1539.19 534.875V536.014L1537.05 535.73L1539.19 534.875ZM1539.19 536.584L1536.69 536.869V536.299L1539.19 536.584ZM1539.54 554.815V556.24C1538.47 556.24 1537.76 556.24 1536.69 556.24L1539.54 554.815ZM1536.69 555.955V555.1H1538.47L1536.69 555.955ZM1540.61 589.284V583.872L1548.1 579.883C1548.1 582.162 1548.1 584.156 1548.46 586.435L1540.61 589.284ZM1548.81 586.435C1548.81 583.872 1548.81 581.308 1548.46 578.744L1552.38 579.883C1552.73 583.587 1552.73 587.29 1553.09 590.993L1548.81 590.708C1548.81 589.569 1548.81 588.429 1548.81 587.29L1552.38 586.15L1552.02 585.581L1548.81 586.435ZM1548.1 587.29C1548.1 588.429 1548.1 589.284 1548.1 590.423L1541.33 589.854L1548.1 587.29ZM1553.09 591.563C1553.09 592.987 1553.09 594.412 1553.45 595.836V595.551L1549.53 596.975C1549.53 594.981 1549.53 592.987 1549.53 590.993L1553.09 591.563ZM1548.1 590.993V592.418L1540.61 592.702V590.139L1548.1 590.993ZM1540.26 575.326V572.192C1542.75 572.477 1545.6 572.762 1547.39 573.047V574.186L1540.26 575.326ZM1548.46 574.186V573.332C1549.17 573.332 1549.88 573.616 1549.88 573.616C1550.59 573.901 1551.31 573.332 1552.02 572.192V573.616L1548.46 574.186ZM1552.02 574.186C1552.02 575.895 1552.38 577.605 1552.38 579.314L1548.46 578.174C1548.46 577.035 1548.46 575.895 1548.46 574.756L1552.02 574.186ZM1547.74 575.041C1547.74 575.895 1547.74 577.035 1547.74 577.889L1540.97 575.895L1547.74 575.041ZM1547.74 578.459V579.314L1540.26 579.599V576.18L1547.74 578.459ZM1537.05 564.501L1537.4 564.786V565.071L1538.83 565.355L1536.69 566.495V561.367H1539.54V563.931L1537.05 564.501ZM1540.26 563.646V561.367H1547.03L1544.18 562.792L1540.26 563.646ZM1536.69 560.513V559.088C1537.76 559.088 1538.47 559.373 1539.54 559.373V560.228L1536.69 560.513ZM1540.26 560.513V559.658C1541.33 559.658 1542.4 559.943 1543.11 559.943C1544.53 559.943 1545.6 560.228 1546.67 560.228V560.513H1540.26ZM1547.74 560.513V560.228C1549.17 560.228 1550.24 559.943 1550.95 559.943V560.798L1547.74 561.652V561.367L1548.1 561.083V560.798V560.513H1547.74ZM1547.03 561.652L1546.67 561.937L1547.03 561.652ZM1550.95 561.367C1550.95 563.361 1551.31 565.071 1551.31 567.065L1547.74 566.495C1547.74 565.071 1547.74 563.646 1547.39 562.507L1550.95 561.367ZM1547.03 562.507C1547.03 563.646 1547.03 565.071 1547.39 566.21L1540.61 565.071L1543.82 563.361L1547.03 562.507ZM1551.66 567.634V569.628C1550.95 569.628 1549.53 569.344 1548.1 569.344V568.204L1548.81 567.919V567.634V567.35H1548.1V567.065L1551.66 567.634ZM1547.03 566.78V567.35H1540.26V565.64L1547.03 566.78ZM1539.54 565.355V567.35H1536.69L1536.34 567.919H1536.69C1536.69 567.919 1536.34 567.919 1536.34 568.204V567.065L1539.54 565.355ZM1538.83 600.679L1539.19 600.963V601.248H1539.54C1537.76 601.533 1536.69 602.103 1536.34 602.673V593.557H1539.9V597.26L1536.34 598.969L1536.69 599.539L1539.9 597.83V600.394L1538.83 600.679ZM1540.61 600.109V597.26L1548.1 593.272C1548.1 594.696 1548.1 596.121 1548.1 597.26L1540.61 600.109ZM1553.45 596.406C1553.45 598.115 1553.45 599.824 1553.8 601.533C1552.73 601.248 1551.31 600.963 1549.53 600.679C1549.53 599.824 1549.53 598.685 1549.53 597.83L1553.45 596.406ZM1548.46 598.115C1548.46 598.969 1548.46 599.824 1548.46 600.679C1547.39 600.679 1546.32 600.679 1545.25 600.679C1543.82 600.679 1542.75 600.963 1541.33 600.963H1540.61L1548.46 598.115ZM1553.45 603.812C1553.45 604.667 1553.45 605.806 1553.45 606.661L1548.81 606.091V604.667C1550.95 604.667 1552.38 604.382 1553.45 603.812ZM1548.46 604.952V606.091L1540.61 605.236V604.952C1542.04 605.236 1543.82 605.236 1545.6 605.236C1546.67 605.236 1547.39 604.952 1548.46 604.952ZM1539.9 604.952V605.236L1535.98 604.667V603.527C1536.34 604.097 1537.76 604.667 1539.9 604.952ZM1541.33 563.931L1540.26 564.501V564.216L1541.33 563.931ZM1539.54 564.501V564.786L1538.83 564.501H1539.54ZM1539.54 579.599H1536.34V573.901L1539.54 572.192V579.599ZM1536.34 580.168H1539.54V583.872L1535.98 585.866L1536.34 580.168ZM1540.61 580.168H1547.03L1540.61 583.587V580.168ZM1536.34 585.866V586.15L1539.54 584.441V592.702H1535.98L1536.34 585.866ZM1536.34 571.907C1537.05 571.907 1538.12 571.907 1538.83 572.192L1536.34 573.616V571.907ZM1547.39 569.059H1546.67L1547.39 568.489V569.059ZM1538.83 567.919H1539.54C1539.19 567.919 1539.19 567.919 1538.83 567.919ZM1540.26 567.919H1547.03L1545.25 568.774C1543.82 568.774 1542.04 568.489 1540.26 567.919ZM1540.61 593.272L1547.39 592.987L1540.61 596.406V593.272ZM1535.98 605.236L1539.9 605.806V610.649C1538.47 610.649 1537.05 610.649 1535.98 610.934V605.236ZM1540.61 605.806L1548.46 606.661V608.655L1543.82 610.364C1542.75 610.364 1542.04 610.364 1540.97 610.364H1540.61V605.806ZM1549.17 606.946L1552.73 607.23L1549.53 608.37L1549.17 606.946ZM1546.32 610.364L1548.46 609.509V610.079C1547.74 610.079 1547.03 610.364 1546.32 610.364ZM1549.17 609.224L1553.8 607.515V610.079C1553.45 610.079 1553.45 610.079 1553.09 610.079C1551.66 610.079 1550.24 610.079 1549.17 610.079V609.224ZM1548.46 619.764L1540.61 620.049V618.34L1548.46 618.625V619.764ZM1539.9 620.049L1535.62 620.334V618.34H1539.9V620.049ZM1535.62 620.904L1539.9 620.619V623.753L1535.62 625.747V620.904ZM1540.61 620.619L1547.03 620.334L1540.61 623.468V620.619ZM1535.62 626.601L1539.9 624.607V626.886L1535.62 628.31V626.601ZM1540.61 624.037L1548.46 620.334C1548.46 623.753 1548.46 626.886 1548.46 630.304H1548.1V631.159H1548.46V634.862H1548.1L1548.46 634.577V634.008L1547.03 634.862C1546.67 634.862 1546.32 634.862 1545.96 634.862C1545.6 634.862 1545.6 634.862 1545.25 634.862L1542.04 632.868L1547.74 630.02L1548.46 630.304V629.735L1548.81 629.45V628.88L1547.74 629.45L1541.68 627.171L1548.46 623.183V622.613L1541.33 626.886V626.601L1540.61 624.037ZM1535.62 617.486V613.782C1536.69 613.782 1538.12 614.067 1539.9 614.067V616.061L1535.62 617.486ZM1540.61 616.061V614.352C1541.68 614.352 1542.75 614.637 1543.82 614.637C1544.18 614.637 1544.89 614.637 1545.25 614.637L1540.61 616.061ZM1547.03 614.637C1547.39 614.637 1548.1 614.637 1548.46 614.637V618.055L1540.61 617.77V616.346L1547.03 614.637ZM1539.9 616.916V618.055H1536.69L1539.9 616.916ZM1549.17 618.055V614.637C1550.95 614.637 1552.38 614.352 1553.09 614.067C1553.45 614.067 1553.45 614.067 1553.8 613.782C1553.8 615.207 1553.8 616.631 1553.8 618.055H1549.17ZM1554.16 618.625V619.764L1550.95 618.34L1554.16 618.625ZM1554.16 622.328C1554.16 625.462 1554.16 628.595 1554.52 631.729L1549.53 630.304V626.601L1554.16 622.328ZM1549.17 626.031C1549.17 623.468 1549.17 621.189 1549.17 618.625V618.91L1554.16 620.619V621.474L1549.17 626.031ZM1554.52 643.978L1549.17 642.554V637.711C1549.53 637.711 1549.88 637.711 1549.88 637.711L1549.17 638.565L1549.53 639.135L1550.59 637.426C1552.02 637.141 1553.09 636.856 1554.16 636.856L1554.52 643.978ZM1548.46 642.554V643.408V646.542L1547.39 647.111L1541.33 644.832L1546.67 641.699L1548.1 642.269V641.699L1547.39 641.414L1548.1 641.129V640.56L1547.03 641.414L1541.68 639.42L1542.75 638.85C1543.82 638.85 1544.89 638.85 1545.96 638.85C1547.03 638.85 1547.74 638.85 1548.81 638.565L1548.46 642.554ZM1549.53 643.408L1554.52 644.548L1549.53 650.53V652.239L1554.87 644.832C1554.87 648.536 1554.87 652.239 1555.23 655.942L1549.53 654.518C1549.53 650.815 1549.53 647.111 1549.53 643.408ZM1549.17 631.159L1553.8 632.298L1552.02 634.862C1551.31 634.862 1550.24 634.577 1549.17 634.577V631.159ZM1535.62 630.874L1539.19 635.432C1537.05 635.717 1535.98 636.287 1535.98 636.856C1535.98 636.856 1535.98 637.141 1536.34 637.141L1535.62 637.426V630.874ZM1535.62 639.99L1540.26 646.257L1535.62 647.681V639.99ZM1535.27 650.245L1540.26 656.797V657.366L1535.27 658.791V650.245ZM1535.27 660.785L1539.19 665.912C1537.05 665.912 1535.27 666.197 1535.27 666.197V667.052V660.785ZM1539.9 665.912L1535.27 659.645L1540.26 658.221V665.912H1539.9ZM1540.97 657.936V657.366V644.832L1546.67 646.827L1540.97 649.39V649.675V650.245L1545.25 652.809L1540.97 655.372V655.657V655.942L1548.46 658.791L1540.97 663.064V663.918L1541.68 663.634L1546.67 665.628C1544.89 665.628 1543.47 665.912 1542.04 665.912C1541.68 665.912 1541.33 665.912 1540.97 665.912V657.936ZM1540.26 655.657L1535.27 649.105V648.536L1540.26 647.111V655.657ZM1540.26 645.117L1535.62 638.85V638.281L1538.12 637.711C1538.83 637.711 1539.54 637.996 1540.26 637.996V645.117ZM1540.97 637.996C1541.33 637.996 1541.33 637.996 1541.68 637.996L1540.97 638.281V637.996ZM1540.97 639.135L1546.32 641.129L1540.97 644.263V639.135ZM1548.46 665.628L1542.4 663.349L1548.46 659.645C1548.46 661.639 1548.46 663.634 1548.46 665.628ZM1548.46 658.506L1541.68 655.942L1545.96 653.378L1548.46 654.803V653.948L1546.67 653.094L1548.46 651.954V654.518V655.372V658.506ZM1548.46 651.384L1545.96 652.524L1541.68 649.96L1547.39 647.111L1548.1 647.396V646.827H1548.46V651.384ZM1554.52 635.432C1554.16 635.432 1553.45 635.147 1553.09 635.147L1554.52 633.153V635.432ZM1549.53 655.657L1555.23 657.082V657.936L1549.53 664.773C1549.53 661.639 1549.53 658.791 1549.53 655.657ZM1549.53 665.628L1554.87 659.076C1554.87 661.355 1554.87 663.349 1554.87 665.628H1554.52C1552.73 665.628 1550.95 665.628 1549.53 665.628ZM1539.9 627.741V635.432H1539.54L1535.27 630.02V629.165L1539.9 627.741ZM1540.97 635.147V633.153L1543.82 634.862C1542.75 634.862 1541.68 635.147 1540.97 635.147ZM1540.97 632.868V627.741L1546.67 629.735L1540.97 632.298V632.868ZM1551.66 534.305L1552.38 533.166L1553.09 534.875L1551.66 534.305ZM1551.31 534.59L1552.73 535.445L1550.95 535.16L1551.31 534.59ZM1553.45 532.026L1554.16 531.457L1555.59 532.311L1553.45 532.026Z" fill="#C4C4C4"/>
<g clip-path="url(#clip1)">
<path d="M2093.01 790.198C2094.37 789.113 2095.18 787.215 2095.18 787.215L2085.94 787.486L2085.67 783.96C2085.67 783.96 2085.67 783.96 2085.94 783.96V783.689L2085.67 779.892C2085.67 779.892 2085.94 779.892 2085.94 779.621C2085.94 779.621 2085.94 779.349 2085.67 779.349V777.451L2085.4 777.722V779.078L2075.88 779.349C2075.88 779.349 2075.61 779.349 2075.61 779.621L2075.34 779.892L2055.77 754.126C2056.04 753.855 2056.04 753.583 2056.04 753.312C2056.31 752.227 2054.41 752.227 2054.41 752.227V749.515L2053.59 746.26V744.904L2056.31 743.277V743.006H2056.04V737.581C2056.04 737.31 2056.04 737.31 2055.77 737.31C2055.5 737.31 2055.5 737.31 2055.5 737.581V739.751L2054.95 740.022V737.852C2054.95 737.581 2054.95 737.581 2054.68 737.581C2054.41 737.581 2054.41 737.581 2054.41 737.852V740.293L2053.87 740.836C2053.87 740.565 2053.32 740.293 2053.32 740.293C2053.32 740.293 2054.41 739.209 2053.59 738.124C2052.78 737.039 2051.69 738.395 2051.69 738.395H2050.88C2049.79 736.768 2048.43 738.666 2048.43 738.666H2039.46V738.124H2039.19V738.395H2029.4V738.124H2029.13V738.395H2019.07V737.852H2018.8V738.395H2008.74V737.852H2008.47V738.395H1998.95C1998.95 738.124 1998.95 737.852 1998.95 737.852H1998.68C1998.68 738.124 1998.68 738.124 1998.68 738.395H1988.62V737.852H1988.35V738.395H1978.29L1977.48 738.666L1961.71 738.395C1961.17 737.852 1960.9 738.124 1960.08 738.395C1958.72 738.937 1959.54 740.565 1959.54 740.565H1957.64V743.548L1958.72 743.819L1958.99 752.227C1957.91 753.041 1958.99 754.126 1958.99 754.126L1958.72 755.753C1957.36 756.024 1958.99 756.838 1958.99 756.838L1959.27 759.279L1959.54 776.908L1925.01 777.18L1919.58 777.451V776.908H1916.86V768.772H1916.59V760.093H1916.04V751.956H1882.34L1880.71 752.498V776.908L1879.07 777.18V791.012L1878.26 785.316V776.908H1876.9V768.772H1876.63L1876.36 760.093H1841.83L1839.93 760.906V789.927H1839.39L1838.84 776.908L1803.78 777.18L1803.23 776.908L1802.69 777.722L1802.42 785.045L1802.69 785.859L1802.15 786.13V793.995L1799.7 794.267L1799.15 751.956L1799.7 749.244C1800.79 748.973 1799.7 748.43 1799.7 748.43V746.532L1799.97 746.26V745.175L1799.7 744.904V736.768L1800.79 736.496V733.513H1798.61C1798.61 733.513 1799.7 732.699 1798.61 731.614C1798.07 730.801 1797.25 731.343 1796.71 731.614L1780.94 731.886H1770.61V731.343C1770.61 731.343 1770.61 731.072 1770.34 731.072C1770.34 731.072 1770.07 731.072 1770.07 731.343V731.886H1760.55V731.072C1760.55 731.072 1760.55 730.801 1760.28 730.801C1760.28 730.801 1760.01 730.801 1760.01 731.072V731.614H1757.56V730.529C1757.56 730.529 1757.56 730.258 1757.29 730.258C1757.29 730.258 1757.02 730.258 1757.02 730.529V731.614H1752.94H1750.22V731.343C1750.22 731.343 1750.22 731.072 1749.95 731.072C1749.95 731.072 1749.68 731.072 1749.68 731.343V731.614H1747.23V730.801C1747.23 730.801 1747.23 730.529 1746.96 730.529C1746.96 730.529 1746.69 730.529 1746.69 730.801V731.614H1739.62V730.258C1739.62 730.258 1739.62 729.987 1739.35 729.987C1739.35 729.987 1739.08 729.987 1739.08 730.258V731.614H1736.63V730.801C1736.63 730.801 1736.63 730.529 1736.36 730.529C1736.09 730.529 1736.09 730.529 1736.09 730.801V731.614L1729.29 731.343V730.258C1729.29 730.258 1729.29 729.987 1729.02 729.987C1729.02 729.987 1728.75 729.987 1728.75 730.258V731.886L1708.09 731.343C1706.46 731.614 1707.27 733.784 1707.27 733.784H1705.37V736.768L1706.46 737.039V745.175L1706.19 745.447V746.532L1706.46 746.803V749.244C1705.37 749.515 1706.46 750.057 1706.46 750.057L1707.27 752.227V794.267H1706.73V786.401H1705.37L1705.92 779.078H1705.37V778.264L1669.49 778.536L1669.22 779.349H1668.13V786.672H1665.96V791.283L1665.41 791.554V786.672H1662.69L1631.98 786.944V786.401H1632.79C1632.79 786.401 1633.06 786.401 1633.06 786.13C1633.06 786.13 1633.06 785.859 1632.79 785.859H1629.8L1629.53 780.705L1628.99 780.163V783.146L1628.17 782.875V744.904L1629.8 740.836V737.581L1630.07 736.225H1629.26V733.513L1626.81 733.242L1626.54 731.072L1625.45 729.987L1625.72 727.275L1626 726.732L1625.72 725.919L1624.64 725.648L1624.09 726.19L1624.64 727.546V729.445L1621.65 728.089L1621.37 723.207V721.308C1621.37 721.308 1621.37 720.766 1621.1 720.223L1620.29 710.188L1620.83 719.952C1620.56 719.952 1620.56 719.681 1620.29 719.681L1619.47 710.188L1620.01 719.681C1619.74 719.681 1619.74 719.681 1619.47 719.681C1617.84 719.681 1617.84 721.308 1617.84 721.308V723.478H1618.66L1619.2 724.02V725.919H1617.84V724.834L1618.11 726.19H1617.3L1615.67 719.952L1615.94 719.138H1617.3V717.511C1617.3 717.511 1617.02 715.884 1615.67 715.612C1614.03 715.612 1613.76 717.511 1613.76 717.511V719.409H1615.12L1615.39 720.223L1614.58 725.648C1614.03 723.478 1613.76 721.579 1613.76 721.579C1613.76 721.579 1614.03 723.207 1614.03 725.105C1613.22 723.749 1612.68 722.393 1611.86 721.037C1611.59 718.053 1611.59 715.612 1611.59 715.341C1611.59 715.341 1611.59 717.782 1611.86 720.494C1611.04 718.867 1610.5 717.24 1609.96 715.884C1610.23 715.884 1610.5 715.884 1610.5 715.612C1610.5 715.341 1610.5 715.341 1610.5 715.07C1610.5 715.07 1610.5 715.07 1610.23 714.799C1610.5 714.527 1610.5 714.527 1610.5 714.256C1610.5 713.714 1609.69 713.714 1609.41 713.714V712.629H1609.69C1609.96 712.629 1609.96 712.629 1610.23 712.358C1610.23 712.358 1610.5 712.086 1610.23 711.815C1610.5 711.815 1610.5 711.544 1610.77 711.544C1611.04 711.273 1611.04 711.273 1610.77 711.002C1610.77 711.002 1610.5 710.73 1610.23 710.73C1610.23 710.73 1609.96 710.73 1609.69 710.73L1609.96 710.459L1616.21 708.018L1616.48 707.476C1616.48 707.476 1616.75 707.476 1616.75 707.204C1617.02 707.204 1617.02 706.933 1617.3 706.933C1617.3 706.933 1617.3 706.933 1617.3 706.662H1617.57V706.391C1617.3 706.391 1617.02 706.391 1616.48 706.391V706.12H1615.94V707.476H1615.39L1614.85 705.306L1615.39 704.221L1614.85 703.407H1613.76L1613.49 704.221C1613.49 704.221 1613.49 704.221 1613.22 704.492C1613.22 705.306 1613.22 705.848 1613.49 706.12L1612.13 707.747H1609.69V703.407L1610.5 703.136V702.051L1610.23 701.78L1611.59 701.238V700.153L1610.5 699.881L1606.97 700.695V701.238H1608.87V701.78C1608.6 701.78 1608.33 701.78 1608.33 702.051V702.322C1608.33 702.322 1608.6 702.594 1608.87 702.594C1608.87 702.594 1608.87 702.594 1609.14 702.594V703.136V704.763C1609.14 704.763 1609.14 704.763 1608.87 704.763L1607.51 706.933H1607.24L1605.61 707.204V705.848C1605.61 705.848 1605.61 705.848 1605.88 705.848C1605.88 705.848 1606.15 705.577 1606.15 705.306C1606.15 705.035 1605.88 705.035 1605.88 705.035C1605.88 705.035 1605.61 705.035 1605.61 705.306V705.577V707.476L1605.34 706.933C1605.34 706.662 1605.34 706.12 1605.34 705.848L1605.06 705.577C1604.79 705.577 1604.79 705.577 1604.79 705.848V706.12L1604.52 705.306C1604.79 705.306 1604.79 705.306 1604.79 705.035C1604.79 704.763 1604.79 704.763 1604.52 704.763C1604.52 704.763 1604.52 704.763 1604.25 704.763L1603.7 703.136C1603.7 703.136 1603.7 702.865 1603.43 702.865C1603.43 702.865 1603.16 702.865 1603.16 703.136L1603.43 704.492H1603.16L1602.62 700.424L1602.89 699.881V699.61H1603.98C1603.98 699.61 1604.25 699.61 1604.25 699.339C1604.25 699.339 1604.25 699.339 1604.25 699.068C1604.25 699.068 1604.25 698.525 1604.25 698.254C1604.25 698.254 1604.25 698.254 1604.25 697.983C1604.25 697.983 1604.25 697.983 1603.98 697.983C1603.98 697.983 1603.98 697.983 1603.98 698.254C1603.98 698.525 1603.98 698.797 1603.98 699.068H1602.89V698.254V697.983C1603.16 697.983 1603.16 697.983 1603.43 697.983H1603.7V697.712C1603.43 697.712 1603.16 697.712 1602.89 697.712V697.169C1602.89 697.169 1602.89 697.169 1602.89 696.898C1602.89 696.356 1602.62 695.271 1602.62 694.728C1602.62 694.728 1602.62 694.457 1602.35 694.457C1602.35 694.457 1602.07 694.457 1602.07 694.728C1602.07 694.999 1602.07 695.542 1602.07 695.813H1601.8L1601.53 697.44L1600.99 697.712V699.068L1601.26 699.339V700.424C1601.26 700.424 1600.17 705.848 1599.63 707.204C1599.08 708.561 1600.71 709.917 1600.71 709.917C1600.17 710.188 1600.44 711.273 1600.44 711.273V712.086C1600.71 711.815 1600.99 711.815 1600.99 711.815L1601.26 716.697L1600.17 716.426H1599.36C1599.63 713.985 1598 713.171 1598 713.171C1597.18 710.73 1595.55 710.188 1595.55 710.188L1592.29 713.443C1593.92 714.799 1593.92 716.697 1593.92 716.697H1593.38C1593.1 713.443 1590.38 713.171 1590.38 713.171L1589.3 712.629L1588.48 713.714V701.509L1587.94 716.697H1586.58L1586.31 729.173H1585.76C1585.49 727.546 1583.86 727.546 1583.86 727.546C1583.32 727.546 1583.05 727.546 1582.77 728.089L1572.72 728.36V726.461L1567.01 725.376H1562.39H1539.82H1522.7H1505.84H1500.68H1500.41L1496.33 727.817C1495.24 727.004 1494.15 727.004 1494.15 728.902C1494.15 729.445 1494.15 729.716 1494.43 729.716L1495.51 748.43H1492.8L1492.52 756.296L1493.07 756.838L1492.8 757.109V764.975L1493.34 765.246L1493.07 765.788V773.654V774.196V781.79L1493.34 782.062L1493.07 782.333V788.3H1490.08V790.741H1489.26L1488.99 790.469V788.571V790.198L1488.72 789.656V788.571V790.741H1487.63V788.571H1487.09C1487.09 788.3 1487.09 788.028 1487.09 788.028C1487.09 788.028 1487.09 788.028 1487.09 787.757V787.486C1487.09 787.486 1487.09 787.486 1487.09 787.215C1487.36 786.944 1487.36 786.401 1487.36 786.13C1487.36 785.859 1487.09 785.859 1486.82 785.859C1486.54 785.859 1486.27 786.13 1486.27 786.13V786.401C1486.27 786.401 1486.27 786.672 1486.54 786.944C1486.54 786.944 1486.54 786.944 1486.82 786.944C1486.82 786.944 1486.82 787.215 1487.09 787.215C1487.09 787.486 1487.09 787.757 1487.09 788.028H1486.54V790.198H1486.27C1486.27 790.198 1486 801.861 1486.27 808.099C1486.54 814.337 1489.53 815.422 1489.53 815.422L1497.42 816.778C1498.5 819.219 1499.32 816.778 1499.32 816.778L1507.75 818.676V821.931C1887.77 831.153 2096.27 821.931 2096.27 821.931C2095.46 817.049 2086.21 817.049 2083.22 817.049C2080.23 817.049 2077.24 816.236 2077.24 816.236L2076.97 813.523C2076.97 812.438 2078.33 810.269 2078.33 810.269L2093.01 790.198ZM2055.5 743.006L2055.22 741.921H2055.5V743.006ZM2055.5 740.565V741.378H2055.22V740.836L2055.5 740.565ZM2054.41 743.006H2053.32V742.463L2054.41 742.192V743.006ZM2053.87 741.378H2054.41L2053.32 741.65V741.378H2053.87ZM1616.21 707.204H1616.48C1616.48 706.933 1616.48 707.204 1616.21 707.204ZM1613.76 705.306L1613.49 705.577C1613.49 705.306 1613.22 705.035 1613.22 704.763L1613.76 705.306ZM1609.14 711.273C1609.41 711.273 1609.69 711.273 1609.96 711.273C1609.69 711.544 1609.41 711.544 1608.87 711.544L1609.14 711.273ZM1609.14 712.086C1609.41 712.086 1609.41 712.086 1609.69 712.086C1609.41 712.358 1609.14 712.358 1609.14 712.086ZM1487.09 786.13H1487.36C1487.09 786.401 1486.82 786.401 1487.09 786.13C1486.82 786.401 1486.82 786.401 1486.82 786.401C1486.82 786.401 1486.82 786.13 1487.09 786.13ZM1486.82 786.672L1487.09 786.401C1487.09 786.672 1486.82 786.672 1486.82 786.672ZM1487.36 790.741H1486.82V788.571H1487.09V788.842V788.571H1487.36V790.741ZM1488.99 790.741H1488.45V789.927L1488.99 790.741ZM1567.28 725.376L1572.72 726.461V728.089L1567.28 726.461V725.376ZM1575.43 736.496L1575.71 738.395L1567.01 734.055V733.784L1575.71 733.513L1575.16 734.327L1575.43 736.496ZM1569.45 728.631H1572.44V729.716H1572.17L1571.9 729.173L1569.45 728.631ZM1567.01 726.732L1572.44 728.36H1568.91L1567.01 727.817H1566.74L1567.01 726.732ZM1562.39 725.376H1567.01V726.732H1562.39V725.376ZM1562.39 726.732H1567.01V727.817H1562.66L1562.39 726.732ZM1565.92 734.055C1565.92 734.327 1565.65 734.327 1565.65 734.327C1565.38 734.327 1565.38 734.055 1565.38 734.055C1565.38 733.784 1565.65 733.784 1565.65 733.784C1565.65 733.513 1565.92 733.784 1565.92 734.055ZM1556.95 725.376H1562.39V726.732H1561.84V725.648V726.732H1557.22V725.376H1556.95ZM1562.11 726.732V727.817H1561.84V726.732H1562.11ZM1556.95 726.732H1561.57V727.817H1556.95V726.732ZM1556.41 725.376H1556.68V726.732H1556.41V725.376ZM1556.41 726.732H1556.68V727.817H1556.41V726.732ZM1551.51 725.376H1556.13V726.732H1551.51V725.376ZM1551.51 726.732H1556.13V727.817H1551.51V726.732ZM1546.08 725.105H1551.24V726.461H1550.7V725.376V726.461H1546.08V725.105ZM1551.24 726.732V727.817H1550.7V726.732H1551.24ZM1546.08 726.732H1550.7V727.817H1546.08V726.732ZM1539.82 725.105H1546.08V726.461H1545.53V725.376V726.461H1540.1V725.105H1539.82ZM1545.8 726.732V727.817H1545.26V726.732H1545.8ZM1539.82 726.732H1545.26V727.817H1539.82V726.732ZM1539.55 725.105V726.461H1534.39V725.105H1539.55ZM1539.55 726.732V727.817H1534.39V726.732H1539.55ZM1534.39 725.105V726.461H1533.84V725.105H1534.39ZM1534.39 726.732V727.817H1533.84V726.732H1534.39ZM1533.57 725.105V726.461H1528.13V725.376L1533.57 725.105ZM1533.57 726.732V727.817H1528.13V726.732H1533.57ZM1522.43 725.105H1527.86V726.19H1525.96H1522.7V725.105H1522.43ZM1526.23 726.732H1527.86V727.817H1526.23V726.732ZM1526.23 726.732V727.817H1525.96V726.732H1526.23ZM1522.43 726.461H1525.69V727.546H1522.43V726.461ZM1517.26 725.105H1522.43V726.461H1517.26V725.105ZM1517.26 726.461H1522.43V727.546H1517.26V726.461ZM1516.45 725.105H1517.26V726.461H1516.45V725.105ZM1516.45 726.461H1517.26V727.546H1516.45V726.461ZM1516.17 725.105V726.461H1515.9H1511.28V725.376V726.461H1506.12V725.105H1516.17ZM1516.17 726.461V727.546H1515.9V726.461H1516.17ZM1515.63 726.461V727.546H1511.01V726.461H1515.63ZM1511.01 726.461V727.546H1505.84V726.461H1511.01ZM1505.57 727.817L1505.03 728.089H1500.41V726.461H1505.57V727.817ZM1500.41 725.105H1505.3V726.461H1500.14L1500.41 725.105ZM1500.14 725.105L1499.86 728.089H1496.87C1496.6 727.817 1496.6 727.546 1496.33 727.546L1500.14 725.105ZM1500.41 726.732V728.089H1500.14L1500.41 726.732ZM1495.51 748.43L1494.43 729.987H1494.7V732.699L1495.51 748.159V748.43ZM1576.79 750.329V748.701L1568.91 747.074H1567.55L1533.84 747.345L1533.03 747.888H1532.21L1531.94 748.159H1527.86H1496.06L1495.24 732.97V730.258C1496.06 730.258 1496.6 729.716 1496.6 729.716L1563.74 733.784C1564.83 735.411 1565.92 734.869 1565.92 734.869L1578.15 741.378V742.463L1578.7 743.548L1579.24 750.871L1576.79 750.329ZM1581.96 730.258C1581.41 730.529 1581.69 731.343 1581.69 731.343L1572.72 729.716V728.631L1582.5 728.36C1582.23 729.173 1581.96 730.258 1581.96 730.258ZM1589.84 716.968H1588.75V713.985L1589.84 715.07V716.968ZM1595.82 740.565H1597.18V742.192H1595.82V740.565ZM1597.45 751.142H1596.09V749.515H1597.45V751.142ZM1618.11 726.461L1618.38 728.902H1617.84L1617.02 726.461H1618.11ZM1617.57 728.902H1617.02C1617.02 728.36 1616.75 727.817 1616.48 727.004H1617.02L1617.57 728.902ZM1615.39 727.817V727.004H1616.21C1616.48 727.817 1616.48 728.36 1616.75 728.902H1616.21C1615.94 728.631 1615.67 728.36 1615.39 727.817ZM1615.94 728.902H1615.67V728.36C1615.67 728.631 1615.94 728.902 1615.94 728.902ZM1615.12 727.546C1615.12 727.546 1615.12 727.817 1615.39 727.817V728.902H1615.12V727.546ZM1614.85 726.732C1614.85 726.732 1614.85 726.461 1614.58 726.461H1614.85V726.732ZM1615.39 727.275V727.546C1615.39 727.546 1615.12 727.546 1615.39 727.275ZM1615.39 725.648V724.291C1615.67 724.834 1615.67 725.376 1615.94 726.19H1615.39V725.648ZM1615.39 726.461H1615.94V726.732H1615.12L1615.39 726.461ZM1616.75 726.732H1616.48V726.461H1617.02L1616.75 726.732ZM1616.75 726.19H1616.21C1615.94 725.376 1615.67 724.563 1615.67 724.02V722.664L1616.75 726.19ZM1615.12 721.037L1615.39 722.122V723.478C1615.12 722.935 1615.12 722.393 1615.12 722.122V721.037ZM1614.85 722.664C1614.85 723.207 1615.12 723.478 1615.12 724.02V724.834V724.02V725.919V726.461H1614.58C1614.58 726.461 1614.58 726.19 1614.31 726.19L1614.85 722.664ZM1614.31 726.461C1614.58 726.461 1614.58 726.732 1614.58 726.732H1614.03L1614.31 726.461ZM1614.85 727.275C1614.85 727.275 1615.12 727.275 1614.85 727.275V729.173H1614.31C1614.31 728.631 1614.31 728.089 1614.03 727.275H1614.85ZM1614.31 727.817C1614.31 728.36 1614.31 728.631 1614.31 728.902H1614.03L1614.31 727.817ZM1613.76 728.902H1612.4C1612.4 728.36 1612.4 727.546 1612.4 726.461H1614.31L1613.76 728.902ZM1614.03 725.376C1614.03 725.648 1614.03 725.919 1614.03 726.19H1612.13C1612.13 724.563 1611.86 722.935 1611.86 721.037C1612.68 722.664 1613.22 724.02 1614.03 725.376ZM1610.77 726.732H1612.13C1612.13 727.817 1612.13 728.631 1612.13 729.173H1611.32L1610.77 726.732ZM1611.04 729.173H1608.6V726.732H1610.5L1611.04 729.173ZM1609.96 715.341L1609.69 715.612C1609.69 715.612 1609.69 715.341 1609.41 715.341C1609.41 715.341 1609.41 715.341 1609.69 715.341C1609.69 715.07 1609.69 715.07 1609.96 715.341ZM1608.87 713.985C1609.41 713.985 1609.69 713.985 1609.69 714.256C1609.69 714.256 1609.69 714.527 1609.41 714.527H1609.14H1608.87C1609.14 714.527 1609.14 714.256 1608.87 713.985ZM1608.87 714.527C1608.87 714.799 1608.87 714.799 1608.87 714.527C1608.87 714.799 1608.87 714.799 1608.87 714.527ZM1608.87 715.07C1609.14 715.07 1609.14 715.07 1608.87 715.07C1609.14 715.07 1609.14 715.341 1609.41 715.341H1609.14L1608.87 715.07ZM1608.87 716.968C1609.14 716.968 1609.14 716.968 1609.41 716.968C1609.41 716.968 1609.41 716.968 1609.41 717.24C1609.41 717.24 1609.41 717.24 1609.14 717.24C1609.14 717.24 1608.87 717.24 1608.87 717.511C1608.87 717.511 1608.87 717.782 1609.14 717.782H1608.87V716.968ZM1608.33 702.322C1608.6 702.322 1608.6 702.322 1608.33 702.322C1608.6 702.322 1608.6 702.322 1608.33 702.322ZM1609.41 720.494V718.867L1608.87 718.053C1609.14 718.053 1609.41 718.325 1609.96 718.325C1610.23 718.325 1610.23 718.325 1610.5 718.325C1610.5 718.325 1610.5 718.325 1610.5 718.053C1610.23 717.782 1609.96 717.782 1609.96 717.782C1609.69 717.782 1609.69 717.782 1609.69 717.782C1609.69 717.782 1609.96 717.782 1609.96 717.511C1609.96 717.24 1609.96 717.24 1609.96 716.968C1609.41 716.697 1609.14 716.697 1608.87 716.697V715.884C1609.14 715.884 1609.14 715.884 1609.41 715.884C1609.96 717.511 1610.77 719.138 1611.59 720.766C1611.59 722.664 1611.86 724.563 1611.86 726.19H1610.5L1610.23 725.105L1610.5 726.19H1608.87V720.766L1609.41 720.494ZM1608.6 705.306V707.476L1607.51 707.204L1608.6 705.306ZM1604.52 705.848C1604.52 706.12 1604.52 706.12 1604.52 705.848C1604.52 706.12 1604.52 706.12 1604.52 705.848ZM1603.43 705.577L1603.7 706.12H1603.43V705.577ZM1602.62 711.544V710.188C1603.98 710.188 1604.52 711.273 1604.52 711.273C1604.52 712.086 1604.52 714.527 1604.25 717.511C1603.7 715.07 1602.89 712.9 1602.35 711.273C1602.62 711.273 1602.62 711.544 1602.62 711.544ZM1604.52 717.782C1604.52 719.138 1604.25 720.766 1604.25 722.122L1602.35 712.086H1602.62C1603.16 713.985 1603.7 715.884 1604.52 717.782ZM1602.35 711.273C1602.35 711.544 1602.62 711.815 1602.62 712.086C1602.35 711.815 1602.35 711.815 1602.35 711.815V711.273C1602.07 711.273 1602.07 711.273 1602.35 711.273ZM1603.7 726.461H1603.43L1602.89 717.511L1601.8 716.968L1601.53 711.815C1601.8 711.815 1602.07 711.815 1602.07 711.815L1603.98 722.393C1603.7 724.834 1603.7 726.461 1603.7 726.461ZM1605.06 749.515V750.329H1604.52V749.515H1605.06ZM1604.52 741.378V740.836H1605.06V741.378H1604.52ZM1605.06 758.194V758.737H1604.52V758.194H1605.06ZM1605.06 766.873V767.416H1604.52V766.873H1605.06ZM1605.88 786.401H1604.79V783.96H1605.88V786.401ZM1607.78 734.055H1603.98V731.886H1607.78V734.055ZM1608.6 731.886H1612.4V734.055H1608.6V731.886ZM1612.13 748.973H1613.49V751.142H1612.13V748.973ZM1614.85 786.13H1613.49V783.96H1614.85V786.13ZM1618.93 733.513H1614.31V731.886H1618.93V733.513ZM1619.47 728.902H1618.66L1618.38 726.461H1619.74V728.902H1619.47ZM1626 741.378L1626.27 743.548H1626V741.378ZM1625.18 732.157H1625.45L1624.91 734.598H1624.64L1625.18 732.157ZM1624.91 758.194L1625.18 760.364H1624.91V758.194ZM1624.64 751.685V749.515H1624.91L1624.64 751.685ZM1624.91 743.548V741.107H1625.18L1624.91 743.548ZM1624.09 731.886L1623.55 734.327H1623.28L1623.82 731.886H1624.09ZM1623.82 740.836V743.006H1623.55L1623.82 740.836ZM1623.28 757.923V760.093H1623.01L1623.28 757.923ZM1621.1 723.478L1621.37 728.089L1621.1 727.817L1620.83 723.478H1621.1ZM1620.56 723.749L1620.83 727.817L1620.29 727.546V726.461C1620.29 726.461 1620.56 726.461 1620.56 726.19C1620.56 726.19 1620.56 725.919 1620.29 725.919L1620.01 724.291L1620.56 723.749ZM1620.01 733.784L1620.56 731.343H1620.83L1620.29 733.784H1620.01ZM1620.83 733.784L1621.37 731.343H1621.65L1621.1 733.784H1620.83ZM1621.65 742.463L1621.37 740.293H1621.65V742.463ZM1622.19 731.614H1622.46L1621.92 734.055H1621.65L1622.19 731.614ZM1621.65 748.973H1621.92V751.142H1621.65V748.973ZM1622.19 757.652V759.821H1621.92L1622.19 757.652ZM1622.19 776.366L1621.92 773.925H1622.19V776.366ZM1622.19 767.958H1621.92V765.788H1622.19V767.958ZM1622.19 742.734L1621.92 740.565H1622.19V742.734ZM1622.46 734.055L1623.01 731.614H1623.28L1622.73 734.055H1622.46ZM1622.73 740.836H1623.01V743.006H1622.73V740.836ZM1623.01 749.244H1623.28V751.414H1623.01V749.244ZM1623.01 766.06H1623.28V768.229H1623.01V766.06ZM1623.28 776.637H1623.01V774.467H1623.28V776.637ZM1623.55 749.244H1623.82V751.414H1623.55V749.244ZM1623.55 757.923H1623.82V760.093H1623.55V757.923ZM1623.82 776.637L1623.55 774.467H1623.82V776.637ZM1623.82 768.229H1623.55V766.06H1623.82V768.229ZM1624.36 732.157H1624.64L1624.09 734.598H1623.82L1624.36 732.157ZM1624.36 743.277L1624.09 741.107H1624.36V743.277ZM1624.64 785.587H1624.36V783.418H1624.64V785.587ZM1624.91 766.331H1625.18V768.501H1624.91V766.331ZM1624.91 774.739L1625.18 776.908H1624.91V774.739ZM1625.18 785.859H1624.91V783.689H1625.18V785.859ZM1625.72 743.548L1625.45 741.378H1625.72V743.548ZM1625.72 749.786L1626 751.956H1625.72V749.786ZM1625.72 758.465L1626 760.635H1625.72V758.465ZM1625.72 766.602L1626 768.772H1625.72V766.602ZM1626 777.18L1625.72 775.01H1626V777.18ZM1626.27 749.786H1626.54V751.956H1626.27V749.786ZM1626.27 758.737L1626.54 760.906H1626.27V758.737ZM1626.27 766.602L1626.54 768.772H1626.27V766.602ZM1626.54 777.18L1626.27 775.01H1626.54V777.18ZM1627.35 743.819L1627.08 741.65H1627.35V743.819ZM1627.35 750.057L1627.63 752.227H1627.35V750.057ZM1627.35 759.008L1627.63 761.178H1627.35V759.008ZM1627.63 766.873V769.043H1627.35L1627.63 766.873ZM1627.63 786.13L1627.35 783.96H1627.63V786.13ZM1627.63 777.451H1627.35V775.281H1627.63V777.451ZM1627.9 744.091L1627.63 741.921H1627.9V744.091ZM1631.7 786.944H1629.8V786.401H1631.7V786.944ZM1779.85 737.039C1780.13 737.039 1780.4 737.31 1780.4 737.581C1780.4 737.852 1780.13 738.124 1779.85 738.124C1779.58 738.124 1779.31 737.852 1779.31 737.581C1779.31 737.31 1779.85 737.039 1779.85 737.039ZM1710.54 731.614L1729.02 731.886H1711.08C1711.08 731.886 1710.81 731.614 1710.54 731.614ZM1727.93 737.852C1727.93 738.124 1727.66 738.124 1727.66 738.124C1727.39 738.124 1727.39 737.852 1727.39 737.852C1727.39 737.581 1727.66 737.581 1727.66 737.581C1727.93 737.581 1727.93 737.581 1727.93 737.852ZM1711.62 741.921H1711.08V741.107H1711.62V741.921ZM1711.9 735.14C1711.9 734.327 1711.35 734.327 1711.35 734.327V733.784L1717.6 734.327L1711.9 735.14C1711.9 735.954 1711.9 735.14 1711.9 735.14ZM1726.57 737.581V738.124H1726.03L1716.52 743.006L1715.43 742.734L1714.89 737.039L1726.57 737.581ZM1791 793.995L1790.46 777.993L1789.91 777.451L1754.57 777.722L1754.3 785.859L1754.57 786.13L1754.3 793.995L1753.76 789.927L1753.49 777.722L1750.77 777.451L1715.43 777.722V786.13L1715.16 786.401L1714.89 794.538H1714.61V752.498L1715.16 749.786C1715.97 749.515 1715.16 748.973 1715.16 748.973V747.074C1715.7 746.803 1715.43 745.175 1715.43 745.175H1715.7C1715.97 745.989 1716.24 746.26 1716.24 745.989C1716.24 745.718 1715.97 744.633 1715.97 744.633L1717.6 743.548C1718.42 744.091 1718.15 743.277 1718.15 743.277L1726.3 739.48L1727.39 738.395C1727.93 738.937 1729.56 737.039 1729.56 737.039L1755.93 735.683L1778.22 736.768C1779.31 738.395 1780.4 738.124 1780.4 738.124L1780.94 738.937L1791.54 744.091C1791.27 744.633 1792.09 745.447 1792.09 745.447C1792.09 745.447 1792.63 745.175 1792.09 745.447C1791.54 745.718 1792.36 746.532 1792.36 746.532V748.43C1791.54 748.973 1792.63 749.244 1792.63 749.244L1793.17 751.414L1793.45 793.453L1791 793.995ZM1780.67 737.039L1791.54 736.768L1792.36 737.039V742.734L1781.21 737.581L1780.67 737.039ZM1780.94 732.157L1796.16 731.614C1795.89 731.886 1795.62 731.886 1795.62 731.886L1780.94 732.157ZM1796.71 741.378H1796.16V740.293H1796.71V741.378ZM2051.69 743.548H2051.96L2051.69 746.532C2051.42 747.888 2051.15 749.244 2050.88 750.329C2051.15 748.159 2051.42 745.175 2051.69 743.548ZM2051.15 750.6C2051.15 749.786 2051.42 748.973 2051.69 748.159V748.973L2051.96 756.296H2050.88L2051.15 753.041C2051.15 752.77 2051.15 751.142 2051.15 750.6ZM2050.6 755.211V753.583V755.211ZM2050.6 756.567H2051.69V757.109L2050.6 759.279H2050.33V757.923L2050.6 756.567ZM2051.69 760.906L2051.96 767.144H2050.88L2051.69 760.906ZM2051.42 743.548C2051.42 743.548 2051.42 743.819 2051.42 743.548C2051.15 744.633 2051.15 745.718 2050.88 746.803L2050.6 748.973L2050.88 743.277L2051.42 743.548ZM2050.88 743.548L2050.6 750.6H2050.33C2050.33 748.973 2050.6 745.989 2050.88 743.548ZM1979.93 744.091C1980.2 744.091 1980.2 744.362 1980.2 744.362C1980.2 744.633 1979.93 744.633 1979.93 744.633C1979.65 744.633 1979.65 744.362 1979.65 744.362C1979.65 744.362 1979.65 744.091 1979.93 744.091ZM1978.29 744.091V744.362L1967.97 749.515C1967.97 748.973 1967.15 749.515 1967.15 749.515L1966.88 743.819L1978.29 744.091ZM1963.62 748.973H1963.07V748.159H1963.62V748.973ZM1963.34 741.107C1963.07 740.022 1962.8 739.209 1962.53 738.666L1977.48 738.937L1963.89 741.921C1963.89 740.836 1963.34 741.107 1963.34 741.107ZM2042.72 777.993L2012.55 778.264H2009.83V776.637H1974.49L1966.88 776.908L1966.61 759.008L1966.88 753.583L1967.42 753.312V752.227C1967.42 752.227 1967.97 752.77 1968.24 752.227C1968.51 751.685 1967.97 751.142 1967.97 751.142L1978.84 745.718L1979.65 745.175C1979.65 745.175 1980.74 745.447 1981.56 743.819L2047.88 740.022L2048.7 739.751C2048.7 739.751 2049.24 741.107 2050.6 740.022V743.277H2050.88C2050.88 744.091 2050.6 745.175 2050.6 746.26C2050.33 748.43 2050.33 749.515 2050.33 750.329C2049.79 750.6 2050.06 751.414 2050.06 751.956C2050.06 752.498 2050.06 752.77 2050.6 753.041V756.296H2049.24V759.008H2048.7L2048.97 759.55L2050.6 760.906L2047.61 776.908H2042.99L2042.72 777.993ZM2050.33 756.567V759.008H2049.79V756.567H2050.33ZM2049.24 756.567V759.008H2048.97V756.567H2049.24ZM2048.16 776.637L2049.79 768.772L2048.7 776.637H2048.16ZM2049.24 776.637L2050.6 767.687H2051.96L2052.23 776.637H2049.24ZM2085.13 779.349V782.875L2076.43 779.349H2085.13ZM2075.34 779.621L2084.85 783.418V787.215H2080.51L2075.07 779.892L2075.34 779.621ZM2074.8 779.892L2070.18 783.689L2055.5 754.397L2074.8 779.892ZM2055.5 758.465H2054.41V756.567H2054.95L2055.5 758.465ZM2054.95 756.567H2055.77V758.194L2054.95 756.567ZM2054.14 756.296V755.211L2054.68 756.296H2054.14ZM2054.95 784.774C2054.68 784.774 2054.68 784.774 2054.68 784.774C2054.68 784.774 2054.68 781.79 2054.68 778.536H2054.95V784.774ZM2054.95 778.264H2054.68C2054.68 774.467 2054.68 770.128 2054.68 770.128H2054.95V778.264ZM2056.04 766.06V767.144H2054.95C2054.95 767.144 2054.95 769.043 2054.68 769.043V766.873L2056.04 766.06ZM2065.83 785.859C2065.55 785.045 2065.01 785.587 2064.74 785.316C2064.47 785.316 2064.74 784.774 2064.47 784.774C2064.19 784.774 2063.92 785.045 2063.92 785.045C2063.92 784.503 2063.65 784.231 2063.38 784.231C2063.11 784.231 2063.11 784.503 2062.84 784.231C2062.84 784.231 2062.56 783.96 2062.29 783.689C2061.75 783.418 2061.48 783.689 2060.93 783.689C2060.66 783.689 2060.39 783.418 2059.85 783.418C2059.57 783.418 2058.76 783.689 2058.49 783.96C2058.21 784.231 2058.49 784.503 2058.21 784.774C2057.94 785.045 2056.58 785.587 2056.31 785.316C2056.04 785.316 2056.31 785.045 2056.04 785.045C2055.77 785.045 2055.77 785.045 2055.5 784.774C2055.5 784.774 2055.5 784.774 2055.22 784.774V778.536H2056.58C2056.58 778.536 2056.86 778.536 2056.86 778.264C2056.86 778.264 2056.86 777.993 2056.58 777.993H2056.04V769.857H2056.31V769.585H2055.22L2056.58 768.501H2058.49C2058.49 768.501 2058.76 768.501 2058.76 768.229C2058.76 768.229 2058.76 767.958 2058.49 767.958H2056.86V766.873C2057.67 766.873 2058.49 766.602 2058.76 766.873C2058.76 766.873 2058.76 766.873 2058.76 767.144C2058.76 767.144 2058.76 767.416 2059.03 767.416C2059.03 767.416 2059.3 767.416 2059.3 767.144C2059.3 766.873 2059.3 766.873 2059.03 766.602C2058.76 766.331 2057.67 766.331 2057.13 766.602V766.331H2056.86L2057.13 765.246C2057.13 765.246 2057.13 765.246 2057.13 764.975H2056.58H2055.22L2054.95 760.364L2056.58 759.008L2066.64 783.96C2065.55 784.774 2065.83 785.316 2065.83 785.859ZM2055.5 778.264V770.128V778.264ZM2056.04 778.264L2055.77 770.128H2056.04V778.264ZM2056.04 758.465H2055.5V756.567H2055.77L2056.04 758.465ZM2066.37 785.859V785.587V785.859ZM2067.46 785.587C2067.19 785.587 2066.91 785.587 2066.64 785.587L2066.37 784.774V784.503L2056.31 759.279L2057.13 758.465V758.194H2056.31V756.024H2054.95L2054.14 754.668C2054.14 754.668 2054.68 754.397 2055.22 754.126L2070.18 783.96L2067.73 785.859C2067.46 785.859 2067.46 785.587 2067.46 785.587ZM2069.63 787.215C2068.82 787.486 2069.09 785.859 2068.27 785.587L2070.18 783.96L2071.81 787.215H2069.63ZM2072.08 787.215L2070.45 783.96L2075.07 780.163L2080.51 787.486H2072.08V787.215Z" fill="#C4C4C4"/>
</g>
</g>
<defs>
<clipPath id="clip0">
<rect width="2500" height="960" fill="white"/>
</clipPath>
<clipPath id="clip1">
<rect width="610" height="131" fill="white" transform="translate(1486 695)"/>
</clipPath>
</defs>
</svg>
