<svg width="2500" height="960" viewBox="0 0 2500 960" fill="none" xmlns="http://www.w3.org/2000/svg">
<g clip-path="url(#clip0)">
<g opacity="0.74">
<path opacity="0.66" d="M990.806 643.225V617.995H983.005V581.46H948.869V587.355H908.881V612.109H904.005V643.567H890.206V626.631H860.018V612.881H819.009V592.252H807.306V522.705H791.266V461.408H758.201V508.561H739.034V559.246H734.159V621.058H724.403V640.581H701.973V602.072H692.22V567.498H679.542V559.246H617.122V567.498H591.764V586.949H584.936V611.563H575.376V466.714H564.645V456.105H520.756V431.348H485.645V466.714V480.858V506.79H479.795V629.167H429.864V608.608H372.322V487.343H364.519V451.977H350.864V373H327.254V451.977H316.73V472.606H309.902V586.949H289.422V612.663H203.594V433.119H197.742V423.685H150.928V433.119H144.102V612.663H112.891V538.028H108.093V502.666H91.4356V494.414H56.3245V502.666H34.8664V522.705H26.0886V586.949H12.4356V594.507H-4.14491V546.28H-5.88847V518.781H-32.2218V542.356H-55.6276V546.28H-58.7616V594.507H-79.0358V643.567H-91.9995L-88.3962 968L1007 960.912L1003.4 643.225H990.806Z" fill="#E0E5ED" fill-opacity="0.26"/>
<path opacity="0.66" d="M1608.69 693.936V670.28H1615.93V636.023H1647.61V641.551H1684.73V664.76H1689.26V694.257H1702.07V678.376H1730.09V665.484H1768.15V646.142H1779.01V580.933H1793.9V523.458H1824.59V567.67H1842.38V615.195H1846.91V673.151H1855.96V691.456H1876.79V655.349H1885.84V622.932H1897.61V615.195H1955.55V622.932H1979.08V641.17H1985.42V664.249H1994.3V528.433H2004.26V518.486H2044.99V495.274H2077.58V528.433V541.696V566.01H2083.01V680.755V673.335L2083.01 603.62V489.917H2090.26V456.758H2102.93V417H2124.85V456.758H2134.61V476.1H2140.95V583.311H2159.96V607.422H2239.63V439.076H2245.06V430.23H2288.51V439.076H2294.85V607.422H2323.82V537.442H2328.27V504.285H2343.73V496.547H2376.32V504.285H2396.24V523.074H2404.39V583.311H2417.06V590.398H2432.45V545.179H2434.07V519.395H2458.51V541.5H2480.24V545.179H2483.15V590.398H2501.97V636.398H2514L2514 965H1597L1597 693.936H1608.69Z" fill="#F9FAFC"/>
</g>
<g opacity="0.74">
<path d="M1908.13 556.737L1898.51 557.335L1894.35 564.961H1879.55V577.851L1815.32 574.411L1371.07 681.326V697.027C1364.79 696.967 1359.2 697.117 1354.21 697.416H2505.66L2505.57 431.998L2482.57 428.559L2455.27 432.865V438.039L2431.44 451.557V446.981L2408.15 448.985V443.781L2382.28 445.246V437.172H2355.25V444.08L2340.6 445.515V436.304L2323.35 437.74V444.05L2314.74 446.951V441.777L2277.39 445.785V451.557H2265.58L2254.36 455.863V451.557L2244.62 445.246L2184.93 445.725L2173.48 453.68V471.803L2127.82 488.61L2012.73 495.07V503.563L1992.04 505.866V516.782L1971.08 518.517L1971.64 540.617L1908.22 542.501L1908.13 556.737Z" fill="#F7F8FA"/>
<path d="M1778.9 563.559H1632.38V654.773H1778.9V563.559Z" fill="#F7F8FA"/>
<path fill-rule="evenodd" clip-rule="evenodd" d="M1859.39 522.614H1861.34V508.139H1871.5V499.795H1872.61V497.522H1876.11V477.156H1876.62V497.522H1880.11V499.795H1881.19V508.139H1886.9V550.576H1884.99V597.379H1859.39V522.614Z" fill="#F7F8FA"/>
<path fill-rule="evenodd" clip-rule="evenodd" d="M2033.96 415.697H2037.01V392.939H2053.04V379.81H2054.74V376.251H2060.24V344.191H2061.05V376.251H2066.52V379.81H2068.26V392.939H2077.26V459.689H2074.24V533.348H2033.96V415.697Z" fill="#F7F8FA"/>
<path fill-rule="evenodd" clip-rule="evenodd" d="M2256.31 406.251H2259.33V383.462H2275.35V370.363H2277.09V366.774H2282.59V334.715H2283.37V366.774H2288.87V370.363H2290.6V383.462H2299.6V450.243H2296.55V523.872H2256.31V406.251Z" fill="#F7F8FA"/>
<path fill-rule="evenodd" clip-rule="evenodd" d="M1916.33 467.107L1904.73 465.133L1892.41 470.307V571.061L1916.33 570.792V467.107Z" fill="#F7F8FA"/>
<path fill-rule="evenodd" clip-rule="evenodd" d="M1702.53 501.501L1690.93 499.527L1678.61 504.701V605.455L1702.53 605.186V501.501Z" fill="#F7F8FA"/>
<path fill-rule="evenodd" clip-rule="evenodd" d="M1962.32 434.396L1939.5 430.508L1922.97 434.396V550.342H1932.24V559.942H1971.59V443.996L1962.32 442.41V434.396Z" fill="#F7F8FA"/>
<path fill-rule="evenodd" clip-rule="evenodd" d="M1772.65 492.111L1757.67 489.539L1746.82 492.111V568.163H1752.89V574.473H1778.72V498.391L1772.65 497.375V492.111Z" fill="#F7F8FA"/>
<path fill-rule="evenodd" clip-rule="evenodd" d="M2491.51 334.747L2468.7 330.859L2452.16 334.747V450.694H2461.43V460.294H2500.78V344.347L2491.51 342.762V334.747Z" fill="#F7F8FA"/>
<path fill-rule="evenodd" clip-rule="evenodd" d="M2375.23 469.77H2321.34V333.398L2344.4 306.961L2349.42 307.319L2349.72 298.288C2349.33 298.078 2349.06 297.66 2349.06 297.181C2349.06 296.673 2349.36 296.224 2349.81 296.045L2350.32 280.523L2350.83 296.045C2351.27 296.254 2351.57 296.673 2351.57 297.181C2351.57 297.66 2351.3 298.078 2350.92 298.288L2351.21 307.439L2353.76 307.618V308.904L2360.45 307.17L2375.23 333.398V469.77Z" fill="#F7F8FA"/>
<path fill-rule="evenodd" clip-rule="evenodd" d="M2145.55 333.845L2125.37 323.647L2123.96 324.066L2122.53 323.348L2122.17 312.672L2121.84 322.99L2121.33 322.72L2120.16 322.75L2119.83 312.672L2119.48 322.75L2111.19 322.87L2110.95 316.38L2110.74 322.87L2110.12 322.9L2093.97 330.974V333.098L2088.14 334.832V538.255L2145.55 535.533V333.845Z" fill="#F7F8FA"/>
<path fill-rule="evenodd" clip-rule="evenodd" d="M1742.57 456.881L1730.34 450.69L1729.47 450.959L1728.6 450.511L1728.4 444.051L1728.19 450.301L1727.89 450.152H1727.17L1726.96 444.051L1726.75 450.152L1721.73 450.211L1721.61 446.294L1721.46 450.241H1721.07L1711.29 455.146V456.432L1707.76 457.479V580.872L1742.57 579.227V456.881Z" fill="#F7F8FA"/>
<path fill-rule="evenodd" clip-rule="evenodd" d="M2251.58 280.406H2248.77V278.312H2229.49V280.406H2226.68L2207.39 291.352V538.078H2226.68H2251.58V297.752H2250.09V294.97H2251.58V280.406Z" fill="#F7F8FA"/>
<path fill-rule="evenodd" clip-rule="evenodd" d="M2023.58 434.9L2000.77 431.012L1985.04 433.853V427.572L1983.16 427.273L1981.15 427.632V434.571L1976.49 435.408V551.354L2023.58 550.846V434.9Z" fill="#F7F8FA"/>
<path fill-rule="evenodd" clip-rule="evenodd" d="M1851.68 522.225L1830.33 518.875L1823.48 520.939V595.136L1851.68 596.422V522.225Z" fill="#F7F8FA"/>
<path fill-rule="evenodd" clip-rule="evenodd" d="M1812.06 502.343L1809.79 502.134V495.943L1805.24 495.525V491.697L1803.3 491.547V485.925L1801.18 485.745V473.125H1800.67V485.686L1799.53 485.596L1798.16 485.895V491.158L1795.88 491.667V494.747L1791.04 495.854V501.476L1787.78 502.224V584.825L1812.06 588.354V502.343Z" fill="#F7F8FA"/>
<path fill-rule="evenodd" clip-rule="evenodd" d="M2447.95 369.162L2445.67 368.953V362.762L2441.13 362.344V358.516L2439.22 358.336V352.744L2437.06 352.534V339.914H2436.58V352.505L2435.42 352.385L2434.04 352.714V357.948L2431.77 358.456V361.566L2426.93 362.643V368.295L2423.7 369.043V451.644L2447.95 455.173V369.162Z" fill="#F7F8FA"/>
<path fill-rule="evenodd" clip-rule="evenodd" d="M2202.06 201.362H2197.82L2189.33 194.693V189.729H2182.84V186.439H2176.53V183H2161.13L2155.66 185.961V202.947L2150.19 218.11V548.783L2155.66 545.823V541.965L2161.13 539.004H2202.06V201.362Z" fill="#F7F8FA"/>
</g>
<g opacity="0.74">
<path d="M2395.65 705.008L2514 700.971L2513.34 631.379L2382.55 618.609L2285.13 613.316L2278.35 614.811L2101.84 604.254L2104.86 598.722L1939.71 592.142L1931.67 597.196L1811.31 595.163L1801.74 600.217L1705.58 595.163L1680.91 606.766L1521.8 596.18L1445.76 591.664L1430.16 584.606L1322.9 576.531L1244.86 581.077L1230.74 590.647L1086.74 587.118L1102.34 580.568L1033.36 578.565L1022.81 583.589L882.328 579.582L914.532 560.442L815.348 552.875L801.235 559.933L586.242 551.858L574.67 555.896L300.233 538.76L310.818 532.24L88.2605 525.69L97.3207 520.636L-21 516.629V815.781L110.418 802.951L207.837 797.658L214.655 799.183L391.134 788.596L388.114 783.064L553.261 776.514L561.334 781.538L681.658 779.535L691.227 784.559L787.42 779.535L812.089 791.108L971.196 780.552L973.199 774.002L1047.24 776.006L1062.84 768.948L1009.95 765.419L1036.14 749.329L1127.28 745.292L1170.07 760.903L1248.11 765.449L1262.23 774.989L1406.23 771.49L1390.63 764.94L1459.61 762.907L1470.19 767.961L1610.67 763.924L1578.44 744.784L1677.62 737.217L1691.74 744.275L1906.73 736.23L1918.33 740.268L2192.74 723.132L2182.18 716.582L2404.71 710.033L2395.65 705.008Z" fill="#F1F4F8"/>
<path d="M1058.03 516.181V535.261H1173.72V535.351V535.859L1196.87 535.889L1218.66 535.68V564.061H1226.56H1361.06V579.851H1457.7V605.182H1527.94V656.291H1630.35V676.03H1017.72V570.042V535.859V516.031L1043.32 516.181H1058.03Z" fill="#F1F4F8"/>
<path fill-rule="evenodd" clip-rule="evenodd" d="M225.989 424.994L201.23 420.777L183.259 424.994V550.84H193.306V561.277H236.036V435.431L225.989 433.697V424.994Z" fill="#F1F4F8"/>
<path fill-rule="evenodd" clip-rule="evenodd" d="M595.571 410.103L559.21 403.883L520.518 410.911V627.881L595.571 627.103V410.103Z" fill="#F1F4F8"/>
<path fill-rule="evenodd" clip-rule="evenodd" d="M957.499 525.779L922.903 517.645L892.104 524.882V692.147L957.499 693.075V525.779Z" fill="#F1F4F8"/>
<path fill-rule="evenodd" clip-rule="evenodd" d="M136.404 586.017H103.512V502.788L117.595 486.669L120.645 486.878L120.825 481.375C120.586 481.256 120.406 480.987 120.406 480.688C120.406 480.389 120.586 480.119 120.855 480L121.184 470.52L121.513 480C121.782 480.119 121.961 480.389 121.961 480.688C121.961 480.987 121.782 481.226 121.542 481.375L121.722 486.968L123.277 487.088V487.865L127.373 486.818L136.404 502.818V586.017V586.017Z" fill="#F1F4F8"/>
<path fill-rule="evenodd" clip-rule="evenodd" d="M41.5231 550.9L21.0405 540.582L19.6352 541.001L18.17 540.253L17.8112 529.457L17.4523 539.894L16.9739 539.655L15.748 539.685L15.419 529.457L15.0901 539.685L6.65786 539.805L6.44855 533.225L6.20933 539.805H5.5814L-10.8047 547.999V550.152L-16.6953 551.917V758.18L41.5231 755.399V550.9Z" fill="#F1F4F8"/>
<path fill-rule="evenodd" clip-rule="evenodd" d="M769.511 462.711L741.374 456.102L713.236 462.711V628.481H769.511V462.711Z" fill="#F1F4F8"/>
<path fill-rule="evenodd" clip-rule="evenodd" d="M177.395 448.629L151.052 444.293L142.56 446.955V543.582L177.395 545.256V448.629Z" fill="#F1F4F8"/>
<path fill-rule="evenodd" clip-rule="evenodd" d="M377.8 521.055L235.318 529.369V733.299H304.541L418.526 646.123L418.496 525.451L377.8 521.055Z" fill="#F1F4F8"/>
<path fill-rule="evenodd" clip-rule="evenodd" d="M301.311 468.393L274.399 465.672L254.784 468.692V607.248L301.311 611.674V468.393Z" fill="#F1F4F8"/>
<path fill-rule="evenodd" clip-rule="evenodd" d="M512.474 519.98L370.022 528.294V732.255H439.245L535.289 644.032V523.36L512.474 519.98Z" fill="#F1F4F8"/>
<path fill-rule="evenodd" clip-rule="evenodd" d="M1064.4 536.43L964.078 542.62V746.551H1033.3L1087.21 627.105V539.839L1064.4 536.43Z" fill="#F1F4F8"/>
<path fill-rule="evenodd" clip-rule="evenodd" d="M1226.2 520.879L1083.75 529.193V733.153H1152.97L1249.01 644.93L1248.98 524.288L1226.2 520.879Z" fill="#F1F4F8"/>
<path fill-rule="evenodd" clip-rule="evenodd" d="M214.178 514.776L177.967 512.562L165.768 514.447V603.627L214.178 608.681V514.776Z" fill="#F1F4F8"/>
<path fill-rule="evenodd" clip-rule="evenodd" d="M339.616 439.946L327.715 437.016L315.037 444.702V594.113L339.616 593.754V439.946Z" fill="#F1F4F8"/>
<path fill-rule="evenodd" clip-rule="evenodd" d="M937.169 449.946L925.239 447.016L912.561 454.702V604.113L937.169 603.724V449.946Z" fill="#F1F4F8"/>
<path fill-rule="evenodd" clip-rule="evenodd" d="M362.728 456.967L354.505 454.934L345.774 460.227V563.164L362.728 562.895V456.967Z" fill="#F1F4F8"/>
<path fill-rule="evenodd" clip-rule="evenodd" d="M1256.87 508.263L1268.78 505.332L1281.45 512.988V662.43L1256.87 662.041V508.263Z" fill="#F1F4F8"/>
<path fill-rule="evenodd" clip-rule="evenodd" d="M1288.84 540.194L1297.04 538.16L1305.77 543.454V646.391L1288.84 646.152V540.194Z" fill="#F1F4F8"/>
<path fill-rule="evenodd" clip-rule="evenodd" d="M615.787 374.638H622.186L635.014 366.953V361.24H644.792V357.442H654.3V353.465H677.534L685.787 356.844V376.493L694.01 393.958V775.562L685.787 772.152V767.696L677.534 764.287H615.787V374.638Z" fill="#F1F4F8"/>
<path fill-rule="evenodd" clip-rule="evenodd" d="M434.462 573.124H368.2V394.105L396.547 359.414L402.707 359.862L403.066 347.99C402.587 347.72 402.228 347.152 402.228 346.524C402.228 345.866 402.587 345.268 403.155 344.999L403.783 324.633L404.411 344.999C404.949 345.268 405.308 345.836 405.308 346.524C405.308 347.152 404.979 347.72 404.501 347.99L404.86 360.012L407.999 360.251V361.956L416.222 359.683L434.402 394.105V573.124H434.462Z" fill="#F1F4F8"/>
<path fill-rule="evenodd" clip-rule="evenodd" d="M507.692 297.926L484.698 286.322L483.143 286.801L481.499 285.964L481.11 273.852L480.721 285.575L480.153 285.306H478.807L478.419 273.852L478.03 285.306L468.581 285.455L468.342 278.068L468.103 285.455H467.385L448.996 294.666V297.089L442.357 299.063V530.567L507.692 527.457V297.926Z" fill="#F1F4F8"/>
</g>
</g>
<defs>
<clipPath id="clip0">
<rect width="2500" height="960" fill="white"/>
</clipPath>
</defs>
</svg>
