<svg width="21" height="29" viewBox="0 0 21 29" fill="none" xmlns="http://www.w3.org/2000/svg">
<path d="M10.4168 0.90625C5.10806 0.90625 0.789062 5.43194 0.789062 10.9947C0.789062 17.8983 9.40498 28.0332 9.77181 28.4613C10.1164 28.8634 10.7179 28.8627 11.0619 28.4613C11.4287 28.0332 20.0446 17.8983 20.0446 10.9947C20.0445 5.43194 15.7256 0.90625 10.4168 0.90625ZM10.4168 16.0705C7.74586 16.0705 5.57292 13.7935 5.57292 10.9947C5.57292 8.19592 7.74591 5.91899 10.4168 5.91899C13.0878 5.91899 15.2607 8.19598 15.2607 10.9948C15.2607 13.7936 13.0878 16.0705 10.4168 16.0705Z" fill="white"/>
</svg>
